<?xml version="1.0" encoding="UTF-8" standalone="no"?>
<!DOCTYPE svg PUBLIC "-//W3C//DTD SVG 1.1//EN"
 "http://www.w3.org/Graphics/SVG/1.1/DTD/svg11.dtd">
<!-- Generated by graphviz version 11.0.0 (20240428.1522)
 -->
<!-- Title: AssertFailedException.h Pages: 1 -->
<svg width="132pt" height="208pt"
 viewBox="0.00 0.00 131.62 208.00" xmlns="http://www.w3.org/2000/svg" xmlns:xlink="http://www.w3.org/1999/xlink">
<g id="graph0" class="graph" transform="scale(1 1) rotate(0) translate(4 204)">
<title>AssertFailedException.h</title>
<!-- Node1 -->
<g id="Node000001" class="node">
<title>Node1</title>
<g id="a_Node000001"><a xlink:title="@TODO Add description of this file if needed">
<polygon fill="#999999" stroke="#666666" points="123.62,-200 1.12,-200 1.12,-180 123.62,-180 123.62,-200"/>
<text text-anchor="middle" x="62.38" y="-186.5" font-family="Helvetica,sans-Serif" font-size="10.00">AssertFailedException.h</text>
</a>
</g>
</g>
<!-- Node2 -->
<g id="Node000002" class="node">
<title>Node2</title>
<g id="a_Node000002"><a xlink:href="_engine_exception_8h.html" target="_top" xlink:title="Base exception class for any exception in the engine.">
<polygon fill="white" stroke="#666666" points="120.62,-144 4.12,-144 4.12,-112 120.62,-112 120.62,-144"/>
<text text-anchor="start" x="12.12" y="-130.5" font-family="Helvetica,sans-Serif" font-size="10.00">engine/core/exceptions</text>
<text text-anchor="middle" x="62.38" y="-118.5" font-family="Helvetica,sans-Serif" font-size="10.00">/EngineException.h</text>
</a>
</g>
</g>
<!-- Node1&#45;&gt;Node2 -->
<g id="edge1_Node000001_Node000002" class="edge">
<title>Node1&#45;&gt;Node2</title>
<g id="a_edge1_Node000001_Node000002"><a xlink:title=" ">
<path fill="none" stroke="#63b8ff" d="M62.38,-179.62C62.38,-173.1 62.38,-164.05 62.38,-155.4"/>
<polygon fill="#63b8ff" stroke="#63b8ff" points="65.88,-155.65 62.38,-145.65 58.88,-155.65 65.88,-155.65"/>
</a>
</g>
</g>
<!-- Node3 -->
<g id="Node000003" class="node">
<title>Node3</title>
<g id="a_Node000003"><a xlink:href="_base_exception_8h.html" target="_top" xlink:title=" ">
<polygon fill="white" stroke="#666666" points="107.5,-76 17.25,-76 17.25,-56 107.5,-56 107.5,-76"/>
<text text-anchor="middle" x="62.38" y="-62.5" font-family="Helvetica,sans-Serif" font-size="10.00">BaseException.h</text>
</a>
</g>
</g>
<!-- Node2&#45;&gt;Node3 -->
<g id="edge2_Node000002_Node000003" class="edge">
<title>Node2&#45;&gt;Node3</title>
<g id="a_edge2_Node000002_Node000003"><a xlink:title=" ">
<path fill="none" stroke="#63b8ff" d="M62.38,-111.55C62.38,-104.34 62.38,-95.66 62.38,-87.88"/>
<polygon fill="#63b8ff" stroke="#63b8ff" points="65.88,-87.92 62.38,-77.92 58.88,-87.92 65.88,-87.92"/>
</a>
</g>
</g>
<!-- Node4 -->
<g id="Node000004" class="node">
<title>Node4</title>
<g id="a_Node000004"><a xlink:title=" ">
<polygon fill="#e0e0e0" stroke="#999999" points="58.75,-20 0,-20 0,0 58.75,0 58.75,-20"/>
<text text-anchor="middle" x="29.38" y="-6.5" font-family="Helvetica,sans-Serif" font-size="10.00">stdexcept</text>
</a>
</g>
</g>
<!-- Node3&#45;&gt;Node4 -->
<g id="edge3_Node000003_Node000004" class="edge">
<title>Node3&#45;&gt;Node4</title>
<g id="a_edge3_Node000003_Node000004"><a xlink:title=" ">
<path fill="none" stroke="#63b8ff" d="M56.63,-55.59C52.32,-48.55 46.28,-38.67 40.99,-30"/>
<polygon fill="#63b8ff" stroke="#63b8ff" points="44.05,-28.3 35.85,-21.59 38.07,-31.95 44.05,-28.3"/>
</a>
</g>
</g>
<!-- Node5 -->
<g id="Node000005" class="node">
<title>Node5</title>
<g id="a_Node000005"><a xlink:title=" ">
<polygon fill="#e0e0e0" stroke="#999999" points="116.38,-20 76.38,-20 76.38,0 116.38,0 116.38,-20"/>
<text text-anchor="middle" x="96.38" y="-6.5" font-family="Helvetica,sans-Serif" font-size="10.00">string</text>
</a>
</g>
</g>
<!-- Node3&#45;&gt;Node5 -->
<g id="edge4_Node000003_Node000005" class="edge">
<title>Node3&#45;&gt;Node5</title>
<g id="a_edge4_Node000003_Node000005"><a xlink:title=" ">
<path fill="none" stroke="#63b8ff" d="M68.3,-55.59C72.73,-48.55 78.95,-38.67 84.41,-30"/>
<polygon fill="#63b8ff" stroke="#63b8ff" points="87.35,-31.91 89.71,-21.58 81.42,-28.18 87.35,-31.91"/>
</a>
</g>
</g>
</g>
</svg>
