<?xml version="1.0" encoding="UTF-8" standalone="no"?>
<!DOCTYPE svg PUBLIC "-//W3C//DTD SVG 1.1//EN"
 "http://www.w3.org/Graphics/SVG/1.1/DTD/svg11.dtd">
<!-- Generated by graphviz version 11.0.0 (20240428.1522)
 -->
<!-- Title: BinPath.h Pages: 1 -->
<svg width="557pt" height="84pt"
 viewBox="0.00 0.00 557.00 84.00" xmlns="http://www.w3.org/2000/svg" xmlns:xlink="http://www.w3.org/1999/xlink">
<g id="graph0" class="graph" transform="scale(1 1) rotate(0) translate(4 80)">
<title>BinPath.h</title>
<!-- Node1 -->
<g id="Node000001" class="node">
<title>Node1</title>
<g id="a_Node000001"><a xlink:title=" ">
<polygon fill="#999999" stroke="#666666" points="293,-76 234.25,-76 234.25,-56 293,-56 293,-76"/>
<text text-anchor="middle" x="263.62" y="-62.5" font-family="Helvetica,sans-Serif" font-size="10.00">BinPath.h</text>
</a>
</g>
</g>
<!-- Node2 -->
<g id="Node000002" class="node">
<title>Node2</title>
<g id="a_Node000002"><a xlink:href="_bin_path_8cpp.html" target="_top" xlink:title=" ">
<polygon fill="white" stroke="#666666" points="69.25,-20 0,-20 0,0 69.25,0 69.25,-20"/>
<text text-anchor="middle" x="34.62" y="-6.5" font-family="Helvetica,sans-Serif" font-size="10.00">BinPath.cpp</text>
</a>
</g>
</g>
<!-- Node1&#45;&gt;Node2 -->
<g id="edge1_Node000001_Node000002" class="edge">
<title>Node1&#45;&gt;Node2</title>
<g id="a_edge1_Node000001_Node000002"><a xlink:title=" ">
<path fill="none" stroke="#63b8ff" d="M223.11,-55.45C179.52,-45.17 110.91,-28.99 69.6,-19.25"/>
<polygon fill="#63b8ff" stroke="#63b8ff" points="222.15,-58.81 232.68,-57.7 223.75,-52 222.15,-58.81"/>
</a>
</g>
</g>
<!-- Node3 -->
<g id="Node000003" class="node">
<title>Node3</title>
<g id="a_Node000003"><a xlink:href="_h_u_d_look_and_feel_8cpp.html" target="_top" xlink:title="@TODO Add description of this file if needed">
<polygon fill="white" stroke="#666666" points="199.62,-20 87.62,-20 87.62,0 199.62,0 199.62,-20"/>
<text text-anchor="middle" x="143.62" y="-6.5" font-family="Helvetica,sans-Serif" font-size="10.00">HUDLookAndFeel.cpp</text>
</a>
</g>
</g>
<!-- Node1&#45;&gt;Node3 -->
<g id="edge2_Node000001_Node000003" class="edge">
<title>Node1&#45;&gt;Node3</title>
<g id="a_edge2_Node000001_Node000003"><a xlink:title=" ">
<path fill="none" stroke="#63b8ff" d="M232.24,-50.88C210.95,-41.3 183.38,-28.89 164.69,-20.48"/>
<polygon fill="#63b8ff" stroke="#63b8ff" points="230.79,-54.06 241.34,-54.97 233.66,-47.68 230.79,-54.06"/>
</a>
</g>
</g>
<!-- Node4 -->
<g id="Node000004" class="node">
<title>Node4</title>
<g id="a_Node000004"><a xlink:href="_sound_loader_8cpp.html" target="_top" xlink:title="@TODO Add description of this file if needed">
<polygon fill="white" stroke="#666666" points="309.5,-20 217.75,-20 217.75,0 309.5,0 309.5,-20"/>
<text text-anchor="middle" x="263.62" y="-6.5" font-family="Helvetica,sans-Serif" font-size="10.00">SoundLoader.cpp</text>
</a>
</g>
</g>
<!-- Node1&#45;&gt;Node4 -->
<g id="edge3_Node000001_Node000004" class="edge">
<title>Node1&#45;&gt;Node4</title>
<g id="a_edge3_Node000001_Node000004"><a xlink:title=" ">
<path fill="none" stroke="#63b8ff" d="M263.62,-44.13C263.62,-35.9 263.62,-26.85 263.62,-20.3"/>
<polygon fill="#63b8ff" stroke="#63b8ff" points="260.13,-44.08 263.63,-54.08 267.13,-44.08 260.13,-44.08"/>
</a>
</g>
</g>
<!-- Node5 -->
<g id="Node000005" class="node">
<title>Node5</title>
<g id="a_Node000005"><a xlink:href="_texture_loader_8cpp.html" target="_top" xlink:title=" ">
<polygon fill="white" stroke="#666666" points="423.75,-20 327.5,-20 327.5,0 423.75,0 423.75,-20"/>
<text text-anchor="middle" x="375.62" y="-6.5" font-family="Helvetica,sans-Serif" font-size="10.00">TextureLoader.cpp</text>
</a>
</g>
</g>
<!-- Node1&#45;&gt;Node5 -->
<g id="edge4_Node000001_Node000005" class="edge">
<title>Node1&#45;&gt;Node5</title>
<g id="a_edge4_Node000001_Node000005"><a xlink:title=" ">
<path fill="none" stroke="#63b8ff" d="M293.46,-50.61C313.26,-41.07 338.68,-28.81 355.96,-20.48"/>
<polygon fill="#63b8ff" stroke="#63b8ff" points="291.98,-47.44 284.5,-54.94 295.03,-53.75 291.98,-47.44"/>
</a>
</g>
</g>
<!-- Node6 -->
<g id="Node000006" class="node">
<title>Node6</title>
<g id="a_Node000006"><a xlink:href="_window_manager_8cpp.html" target="_top" xlink:title=" ">
<polygon fill="white" stroke="#666666" points="549,-20 442.25,-20 442.25,0 549,0 549,-20"/>
<text text-anchor="middle" x="495.62" y="-6.5" font-family="Helvetica,sans-Serif" font-size="10.00">WindowManager.cpp</text>
</a>
</g>
</g>
<!-- Node1&#45;&gt;Node6 -->
<g id="edge5_Node000001_Node000006" class="edge">
<title>Node1&#45;&gt;Node6</title>
<g id="a_edge5_Node000001_Node000006"><a xlink:title=" ">
<path fill="none" stroke="#63b8ff" d="M304.5,-55.48C346.87,-45.62 412.68,-30.31 454.96,-20.46"/>
<polygon fill="#63b8ff" stroke="#63b8ff" points="303.9,-52.03 294.95,-57.71 305.49,-58.85 303.9,-52.03"/>
</a>
</g>
</g>
</g>
</svg>
