<?xml version="1.0" encoding="UTF-8" standalone="no"?>
<!DOCTYPE svg PUBLIC "-//W3C//DTD SVG 1.1//EN"
 "http://www.w3.org/Graphics/SVG/1.1/DTD/svg11.dtd">
<!-- Generated by graphviz version 11.0.0 (20240428.1522)
 -->
<!-- Title: CameraPerspective.cpp Pages: 1 -->
<!--zoomable 752 -->

<svg id="main" version="1.1" xmlns="http://www.w3.org/2000/svg" xmlns:xlink="http://www.w3.org/1999/xlink" xml:space="preserve" onload="init(evt)">
<style type="text/css"><![CDATA[
.node, .edge {opacity: 0.7;}
.node.selected, .edge.selected {opacity: 1;}
.edge:hover path { stroke: red; }
.edge:hover polygon { stroke: red; fill: red; }
]]></style>

<defs>
  <circle id="rim" cx="0" cy="0" r="7"/>
  <circle id="rim2" cx="0" cy="0" r="3.5"/>
  <g id="zoomPlus">
    <use xlink:href="#rim" fill="#404040"><set attributeName="fill" to="#808080" begin="zoomplus.mouseover" end="zoomplus.mouseout"/></use>
    <path d="M-4,0h8M0,-4v8" fill="none" stroke="white" stroke-width="1.5" pointer-events="none"/>
  </g>
  <g id="zoomMin">
    <use xlink:href="#rim" fill="#404040"><set attributeName="fill" to="#808080" begin="zoomminus.mouseover" end="zoomminus.mouseout"/></use>
    <path d="M-4,0h8" fill="none" stroke="white" stroke-width="1.5" pointer-events="none"/>
  </g>
  <g id="arrowUp" transform="translate(30 24)">
    <use xlink:href="#rim"/>
    <path pointer-events="none" fill="none" stroke="white" stroke-width="1.5" d="M0,-3.0v7 M-2.5,-0.5L0,-3.0L2.5,-0.5"/>
  </g>
  <g id="arrowRight" transform="rotate(90) translate(36 -43)">
    <use xlink:href="#rim"/>
    <path pointer-events="none" fill="none" stroke="white" stroke-width="1.5" d="M0,-3.0v7 M-2.5,-0.5L0,-3.0L2.5,-0.5"/>
  </g>
  <g id="arrowDown" transform="rotate(180) translate(-30 -48)">
    <use xlink:href="#rim"/>
    <path pointer-events="none" fill="none" stroke="white" stroke-width="1.5" d="M0,-3.0v7 M-2.5,-0.5L0,-3.0L2.5,-0.5"/>
  </g>
  <g id="arrowLeft" transform="rotate(270) translate(-36 17)">
    <use xlink:href="#rim"/>
    <path pointer-events="none" fill="none" stroke="white" stroke-width="1.5" d="M0,-3.0v7 M-2.5,-0.5L0,-3.0L2.5,-0.5"/>
  </g>
  <g id="resetDef">
    <use xlink:href="#rim2" fill="#404040"><set attributeName="fill" to="#808080" begin="reset.mouseover" end="reset.mouseout"/></use>
  </g>
</defs>
<script type="application/ecmascript">
var viewWidth = 1168;
var viewHeight = 752;
var sectionId = 'dynsection-0';
</script>
<script type="application/ecmascript" xlink:href="svg.min.js"/>
<svg id="graph" class="graph">
<g id="viewport">
<title>CameraPerspective.cpp</title>
<!-- Node1 -->
<g id="Node000001" class="node">
<title>Node1</title>
<g id="a_Node000001"><a xlink:title="@TODO Add description of this file if needed">
<polygon fill="#999999" stroke="#666666" points="790.38,-744 671.62,-744 671.62,-724 790.38,-724 790.38,-744"/>
<text text-anchor="middle" x="731" y="-730.5" font-family="Helvetica,sans-Serif" font-size="10.00">CameraPerspective.cpp</text>
</a>
</g>
</g>
<!-- Node2 -->
<g id="Node000002" class="node">
<title>Node2</title>
<g id="a_Node000002"><a xlink:href="_camera_perspective_8h.html" target="_top" xlink:title="@TODO Add description of this file if needed">
<polygon fill="white" stroke="#666666" points="804.25,-688 657.75,-688 657.75,-656 804.25,-656 804.25,-688"/>
<text text-anchor="start" x="665.75" y="-674.5" font-family="Helvetica,sans-Serif" font-size="10.00">engine/subsystems/renderer</text>
<text text-anchor="middle" x="731" y="-662.5" font-family="Helvetica,sans-Serif" font-size="10.00">/camera/CameraPerspective.h</text>
</a>
</g>
</g>
<!-- Node1&#45;&gt;Node2 -->
<g id="edge1_Node000001_Node000002" class="edge">
<title>Node1&#45;&gt;Node2</title>
<g id="a_edge1_Node000001_Node000002"><a xlink:title=" ">
<path fill="none" stroke="#63b8ff" d="M731,-723.62C731,-717.1 731,-708.05 731,-699.4"/>
<polygon fill="#63b8ff" stroke="#63b8ff" points="734.5,-699.65 731,-689.65 727.5,-699.65 734.5,-699.65"/>
</a>
</g>
</g>
<!-- Node3 -->
<g id="Node000003" class="node">
<title>Node3</title>
<g id="a_Node000003"><a xlink:href="_geometry_types_8h.html" target="_top" xlink:title="@TODO Add description of this file if needed">
<polygon fill="white" stroke="#666666" points="751.25,-620 616.75,-620 616.75,-588 751.25,-588 751.25,-620"/>
<text text-anchor="start" x="624.75" y="-606.5" font-family="Helvetica,sans-Serif" font-size="10.00">engine/core/math/geometry</text>
<text text-anchor="middle" x="684" y="-594.5" font-family="Helvetica,sans-Serif" font-size="10.00">/GeometryTypes.h</text>
</a>
</g>
</g>
<!-- Node2&#45;&gt;Node3 -->
<g id="edge2_Node000002_Node000003" class="edge">
<title>Node2&#45;&gt;Node3</title>
<g id="a_edge2_Node000002_Node000003"><a xlink:title=" ">
<path fill="none" stroke="#63b8ff" d="M720.1,-655.69C714.58,-647.95 707.75,-638.35 701.52,-629.6"/>
<polygon fill="#63b8ff" stroke="#63b8ff" points="704.37,-627.57 695.72,-621.46 698.67,-631.63 704.37,-627.57"/>
</a>
</g>
</g>
<!-- Node41 -->
<g id="Node000041" class="node">
<title>Node41</title>
<g id="a_Node000041"><a xlink:href="_entity_stats_manager_8h.html" target="_top" xlink:title="Class that encapsulates the logic of the entity stats manager.">
<polygon fill="white" stroke="#666666" points="870.38,-212 727.62,-212 727.62,-180 870.38,-180 870.38,-212"/>
<text text-anchor="start" x="735.62" y="-198.5" font-family="Helvetica,sans-Serif" font-size="10.00">engine/subsystems/ingame</text>
<text text-anchor="middle" x="799" y="-186.5" font-family="Helvetica,sans-Serif" font-size="10.00">&#45;debug/EntityStatsManager.h</text>
</a>
</g>
</g>
<!-- Node2&#45;&gt;Node41 -->
<g id="edge60_Node000002_Node000041" class="edge">
<title>Node2&#45;&gt;Node41</title>
<g id="a_edge60_Node000002_Node000041"><a xlink:title=" ">
<path fill="none" stroke="#63b8ff" d="M804.38,-670.36C896.9,-665.22 1044,-640.74 1044,-537 1044,-537 1044,-537 1044,-331 1044,-255.41 953.13,-222.19 882.07,-207.77"/>
<polygon fill="#63b8ff" stroke="#63b8ff" points="882.82,-204.35 872.34,-205.9 881.5,-211.22 882.82,-204.35"/>
</a>
</g>
</g>
<!-- Node4 -->
<g id="Node000004" class="node">
<title>Node4</title>
<g id="a_Node000004"><a xlink:href="_vector_8h.html" target="_top" xlink:title=" ">
<polygon fill="white" stroke="#666666" points="524.75,-552 399.25,-552 399.25,-520 524.75,-520 524.75,-552"/>
<text text-anchor="start" x="407.25" y="-538.5" font-family="Helvetica,sans-Serif" font-size="10.00">engine/core/math/algebra</text>
<text text-anchor="middle" x="462" y="-526.5" font-family="Helvetica,sans-Serif" font-size="10.00">/vector/Vector.h</text>
</a>
</g>
</g>
<!-- Node3&#45;&gt;Node4 -->
<g id="edge3_Node000003_Node000004" class="edge">
<title>Node3&#45;&gt;Node4</title>
<g id="a_edge3_Node000003_Node000004"><a xlink:title=" ">
<path fill="none" stroke="#63b8ff" d="M631.95,-587.53C599.92,-578 558.66,-565.74 524.81,-555.67"/>
<polygon fill="#63b8ff" stroke="#63b8ff" points="526.14,-552.42 515.56,-552.92 524.15,-559.13 526.14,-552.42"/>
</a>
</g>
</g>
<!-- Node5 -->
<g id="Node000005" class="node">
<title>Node5</title>
<g id="a_Node000005"><a xlink:title=" ">
<polygon fill="#e0e0e0" stroke="#999999" points="316.88,-138 255.12,-138 255.12,-118 316.88,-118 316.88,-138"/>
<text text-anchor="middle" x="286" y="-124.5" font-family="Helvetica,sans-Serif" font-size="10.00">type_traits</text>
</a>
</g>
</g>
<!-- Node4&#45;&gt;Node5 -->
<g id="edge4_Node000004_Node000005" class="edge">
<title>Node4&#45;&gt;Node5</title>
<g id="a_edge4_Node000004_Node000005"><a xlink:title=" ">
<path fill="none" stroke="#63b8ff" d="M398.76,-520.63C340.49,-503.21 263,-467.54 263,-401 263,-401 263,-401 263,-263 263,-222.23 273.47,-175.47 280.28,-149.37"/>
<polygon fill="#63b8ff" stroke="#63b8ff" points="283.64,-150.36 282.88,-139.79 276.88,-148.53 283.64,-150.36"/>
</a>
</g>
</g>
<!-- Node6 -->
<g id="Node000006" class="node">
<title>Node6</title>
<g id="a_Node000006"><a xlink:title=" ">
<polygon fill="#e0e0e0" stroke="#999999" points="107.5,-206 64.5,-206 64.5,-186 107.5,-186 107.5,-206"/>
<text text-anchor="middle" x="86" y="-192.5" font-family="Helvetica,sans-Serif" font-size="10.00">cmath</text>
</a>
</g>
</g>
<!-- Node4&#45;&gt;Node6 -->
<g id="edge5_Node000004_Node000006" class="edge">
<title>Node4&#45;&gt;Node6</title>
<g id="a_edge5_Node000004_Node000006"><a xlink:title=" ">
<path fill="none" stroke="#63b8ff" d="M398.77,-526.63C355.2,-519.27 296.78,-506.16 249,-484 192.47,-457.78 136,-463.31 136,-401 136,-401 136,-401 136,-331 136,-287.74 112.84,-241.3 98.05,-216.04"/>
<polygon fill="#63b8ff" stroke="#63b8ff" points="101.1,-214.33 92.92,-207.6 95.12,-217.96 101.1,-214.33"/>
</a>
</g>
</g>
<!-- Node7 -->
<g id="Node000007" class="node">
<title>Node7</title>
<g id="a_Node000007"><a xlink:title=" ">
<polygon fill="#e0e0e0" stroke="#999999" points="491,-20 451,-20 451,0 491,0 491,-20"/>
<text text-anchor="middle" x="471" y="-6.5" font-family="Helvetica,sans-Serif" font-size="10.00">string</text>
</a>
</g>
</g>
<!-- Node4&#45;&gt;Node7 -->
<g id="edge6_Node000004_Node000007" class="edge">
<title>Node4&#45;&gt;Node7</title>
<g id="a_edge6_Node000004_Node000007"><a xlink:title=" ">
<path fill="none" stroke="#63b8ff" d="M399.21,-529.99C272.89,-518.18 0,-483.16 0,-401 0,-401 0,-401 0,-127 0,-36.27 333.66,-16.09 439.32,-11.98"/>
<polygon fill="#63b8ff" stroke="#63b8ff" points="439.38,-15.48 449.25,-11.62 439.13,-8.48 439.38,-15.48"/>
</a>
</g>
</g>
<!-- Node8 -->
<g id="Node000008" class="node">
<title>Node8</title>
<g id="a_Node000008"><a xlink:href="_math_8h.html" target="_top" xlink:title=" ">
<polygon fill="white" stroke="#666666" points="479,-342 355,-342 355,-322 479,-322 479,-342"/>
<text text-anchor="middle" x="417" y="-328.5" font-family="Helvetica,sans-Serif" font-size="10.00">engine/core/math/Math.h</text>
</a>
</g>
</g>
<!-- Node4&#45;&gt;Node8 -->
<g id="edge7_Node000004_Node000008" class="edge">
<title>Node4&#45;&gt;Node8</title>
<g id="a_edge7_Node000004_Node000008"><a xlink:title=" ">
<path fill="none" stroke="#63b8ff" d="M452.98,-519.91C447.5,-510.03 440.83,-496.65 437,-484 423.33,-438.8 419,-383.18 417.63,-353.68"/>
<polygon fill="#63b8ff" stroke="#63b8ff" points="421.14,-353.78 417.25,-343.93 414.14,-354.05 421.14,-353.78"/>
</a>
</g>
</g>
<!-- Node33 -->
<g id="Node000033" class="node">
<title>Node33</title>
<g id="a_Node000033"><a xlink:href="_vector_asserts_8h.html" target="_top" xlink:title="Contains custom asserts for vectors.">
<polygon fill="white" stroke="#666666" points="572.12,-484 445.88,-484 445.88,-452 572.12,-452 572.12,-484"/>
<text text-anchor="start" x="453.88" y="-470.5" font-family="Helvetica,sans-Serif" font-size="10.00">engine/core/math/asserts</text>
<text text-anchor="middle" x="509" y="-458.5" font-family="Helvetica,sans-Serif" font-size="10.00">/VectorAsserts.h</text>
</a>
</g>
</g>
<!-- Node4&#45;&gt;Node33 -->
<g id="edge44_Node000004_Node000033" class="edge">
<title>Node4&#45;&gt;Node33</title>
<g id="a_edge44_Node000004_Node000033"><a xlink:title=" ">
<path fill="none" stroke="#63b8ff" d="M472.9,-519.69C478.42,-511.95 485.25,-502.35 491.48,-493.6"/>
<polygon fill="#63b8ff" stroke="#63b8ff" points="494.33,-495.63 497.28,-485.46 488.63,-491.57 494.33,-495.63"/>
</a>
</g>
</g>
<!-- Node35 -->
<g id="Node000035" class="node">
<title>Node35</title>
<g id="a_Node000035"><a xlink:href="_vector_algorithms_8h.html" target="_top" xlink:title="@TODO Add description of this file">
<polygon fill="white" stroke="#666666" points="979.38,-416 848.62,-416 848.62,-384 979.38,-384 979.38,-416"/>
<text text-anchor="start" x="856.62" y="-402.5" font-family="Helvetica,sans-Serif" font-size="10.00">engine/core/math/algebra</text>
<text text-anchor="middle" x="914" y="-390.5" font-family="Helvetica,sans-Serif" font-size="10.00">/vector/VectorAlgorithms.h</text>
</a>
</g>
</g>
<!-- Node4&#45;&gt;Node35 -->
<g id="edge47_Node000004_Node000035" class="edge">
<title>Node4&#45;&gt;Node35</title>
<g id="a_edge47_Node000004_Node000035"><a xlink:title=" ">
<path fill="none" stroke="#63b8ff" d="M525.01,-534.47C594.94,-531.88 709.95,-521.58 801,-484 835.06,-469.94 868.35,-443.49 889.87,-424.21"/>
<polygon fill="#63b8ff" stroke="#63b8ff" points="892.22,-426.81 897.23,-417.47 887.49,-421.65 892.22,-426.81"/>
</a>
</g>
</g>
<!-- Node39 -->
<g id="Node000039" class="node">
<title>Node39</title>
<g id="a_Node000039"><a xlink:href="_vector_mixed_algorithms_8h.html" target="_top" xlink:title=" ">
<polygon fill="white" stroke="#666666" points="791.5,-484 634.5,-484 634.5,-452 791.5,-452 791.5,-484"/>
<text text-anchor="start" x="642.5" y="-470.5" font-family="Helvetica,sans-Serif" font-size="10.00">engine/core/math/algebra</text>
<text text-anchor="middle" x="713" y="-458.5" font-family="Helvetica,sans-Serif" font-size="10.00">/vector/VectorMixedAlgorithms.h</text>
</a>
</g>
</g>
<!-- Node4&#45;&gt;Node39 -->
<g id="edge53_Node000004_Node000039" class="edge">
<title>Node4&#45;&gt;Node39</title>
<g id="a_edge53_Node000004_Node000039"><a xlink:title=" ">
<path fill="none" stroke="#63b8ff" d="M520.85,-519.53C557.38,-509.92 604.52,-497.52 642.97,-487.41"/>
<polygon fill="#63b8ff" stroke="#63b8ff" points="643.84,-490.8 652.62,-484.88 642.06,-484.03 643.84,-490.8"/>
</a>
</g>
</g>
<!-- Node8&#45;&gt;Node5 -->
<g id="edge8_Node000008_Node000005" class="edge">
<title>Node8&#45;&gt;Node5</title>
<g id="a_edge8_Node000008_Node000005"><a xlink:title=" ">
<path fill="none" stroke="#63b8ff" d="M383.89,-321.59C362.52,-313.84 335.86,-300.69 320,-280 290.11,-241.02 285.57,-180.71 285.42,-149.41"/>
<polygon fill="#63b8ff" stroke="#63b8ff" points="288.91,-149.81 285.53,-139.77 281.91,-149.73 288.91,-149.81"/>
</a>
</g>
</g>
<!-- Node8&#45;&gt;Node6 -->
<g id="edge11_Node000008_Node000006" class="edge">
<title>Node8&#45;&gt;Node6</title>
<g id="a_edge11_Node000008_Node000006"><a xlink:title=" ">
<path fill="none" stroke="#63b8ff" d="M390.91,-321.58C338.3,-302.39 216,-256.79 116,-212 115.52,-211.79 115.04,-211.57 114.56,-211.35"/>
<polygon fill="#63b8ff" stroke="#63b8ff" points="116.18,-208.25 105.65,-207.1 113.17,-214.57 116.18,-208.25"/>
</a>
</g>
</g>
<!-- Node9 -->
<g id="Node000009" class="node">
<title>Node9</title>
<g id="a_Node000009"><a xlink:title=" ">
<polygon fill="#e0e0e0" stroke="#999999" points="441.12,-274 392.88,-274 392.88,-254 441.12,-254 441.12,-274"/>
<text text-anchor="middle" x="417" y="-260.5" font-family="Helvetica,sans-Serif" font-size="10.00">random</text>
</a>
</g>
</g>
<!-- Node8&#45;&gt;Node9 -->
<g id="edge9_Node000008_Node000009" class="edge">
<title>Node8&#45;&gt;Node9</title>
<g id="a_edge9_Node000008_Node000009"><a xlink:title=" ">
<path fill="none" stroke="#63b8ff" d="M417,-321.54C417,-312.23 417,-297.7 417,-285.7"/>
<polygon fill="#63b8ff" stroke="#63b8ff" points="420.5,-285.95 417,-275.95 413.5,-285.95 420.5,-285.95"/>
</a>
</g>
</g>
<!-- Node10 -->
<g id="Node000010" class="node">
<title>Node10</title>
<g id="a_Node000010"><a xlink:title=" ">
<polygon fill="#e0e0e0" stroke="#999999" points="374.62,-274 329.38,-274 329.38,-254 374.62,-254 374.62,-274"/>
<text text-anchor="middle" x="352" y="-260.5" font-family="Helvetica,sans-Serif" font-size="10.00">cstring</text>
</a>
</g>
</g>
<!-- Node8&#45;&gt;Node10 -->
<g id="edge10_Node000008_Node000010" class="edge">
<title>Node8&#45;&gt;Node10</title>
<g id="a_edge10_Node000008_Node000010"><a xlink:title=" ">
<path fill="none" stroke="#63b8ff" d="M407.69,-321.54C397.65,-311.35 381.45,-294.9 369.1,-282.37"/>
<polygon fill="#63b8ff" stroke="#63b8ff" points="371.87,-280.19 362.36,-275.52 366.88,-285.1 371.87,-280.19"/>
</a>
</g>
</g>
<!-- Node11 -->
<g id="Node000011" class="node">
<title>Node11</title>
<g id="a_Node000011"><a xlink:href="_asserts_8h.html" target="_top" xlink:title="Set of macros for runtime and compile time assertions.">
<polygon fill="white" stroke="#666666" points="560.75,-280 459.25,-280 459.25,-248 560.75,-248 560.75,-280"/>
<text text-anchor="start" x="467.25" y="-266.5" font-family="Helvetica,sans-Serif" font-size="10.00">engine/core/asserts</text>
<text text-anchor="middle" x="510" y="-254.5" font-family="Helvetica,sans-Serif" font-size="10.00">/Asserts.h</text>
</a>
</g>
</g>
<!-- Node8&#45;&gt;Node11 -->
<g id="edge12_Node000008_Node000011" class="edge">
<title>Node8&#45;&gt;Node11</title>
<g id="a_edge12_Node000008_Node000011"><a xlink:title=" ">
<path fill="none" stroke="#63b8ff" d="M430.32,-321.54C443,-312.55 462.55,-298.67 479.11,-286.92"/>
<polygon fill="#63b8ff" stroke="#63b8ff" points="481.08,-289.82 487.21,-281.18 477.02,-284.11 481.08,-289.82"/>
</a>
</g>
</g>
<!-- Node11&#45;&gt;Node5 -->
<g id="edge16_Node000011_Node000005" class="edge">
<title>Node11&#45;&gt;Node5</title>
<g id="a_edge16_Node000011_Node000005"><a xlink:title=" ">
<path fill="none" stroke="#63b8ff" d="M458.78,-248.86C432.58,-240.37 400.86,-228.06 375,-212 345.96,-193.96 318.08,-165.57 301.49,-147.12"/>
<polygon fill="#63b8ff" stroke="#63b8ff" points="304.13,-144.82 294.9,-139.62 298.87,-149.44 304.13,-144.82"/>
</a>
</g>
</g>
<!-- Node11&#45;&gt;Node6 -->
<g id="edge13_Node000011_Node000006" class="edge">
<title>Node11&#45;&gt;Node6</title>
<g id="a_edge13_Node000011_Node000006"><a xlink:title=" ">
<path fill="none" stroke="#63b8ff" d="M459.04,-249.75C455.99,-249.12 452.96,-248.53 450,-248 303.01,-221.83 259.26,-254.05 116,-212 114.83,-211.66 113.64,-211.27 112.46,-210.84"/>
<polygon fill="#63b8ff" stroke="#63b8ff" points="114.03,-207.71 103.46,-206.95 111.25,-214.13 114.03,-207.71"/>
</a>
</g>
</g>
<!-- Node11&#45;&gt;Node7 -->
<g id="edge15_Node000011_Node000007" class="edge">
<title>Node11&#45;&gt;Node7</title>
<g id="a_edge15_Node000011_Node000007"><a xlink:title=" ">
<path fill="none" stroke="#63b8ff" d="M500.35,-247.76C494.31,-237.83 486.63,-224.44 481,-212 454.64,-153.73 444.59,-139.07 434,-76 432.53,-67.23 431,-64.37 434,-56 437.68,-45.73 444.82,-36.13 451.86,-28.46"/>
<polygon fill="#63b8ff" stroke="#63b8ff" points="454.22,-31.04 458.79,-21.48 449.26,-26.11 454.22,-31.04"/>
</a>
</g>
</g>
<!-- Node12 -->
<g id="Node000012" class="node">
<title>Node12</title>
<g id="a_Node000012"><a xlink:title=" ">
<polygon fill="#e0e0e0" stroke="#999999" points="529.62,-206 490.38,-206 490.38,-186 529.62,-186 529.62,-206"/>
<text text-anchor="middle" x="510" y="-192.5" font-family="Helvetica,sans-Serif" font-size="10.00">limits</text>
</a>
</g>
</g>
<!-- Node11&#45;&gt;Node12 -->
<g id="edge14_Node000011_Node000012" class="edge">
<title>Node11&#45;&gt;Node12</title>
<g id="a_edge14_Node000011_Node000012"><a xlink:title=" ">
<path fill="none" stroke="#63b8ff" d="M510,-247.69C510,-238.8 510,-227.46 510,-217.77"/>
<polygon fill="#63b8ff" stroke="#63b8ff" points="513.5,-217.83 510,-207.83 506.5,-217.83 513.5,-217.83"/>
</a>
</g>
</g>
<!-- Node13 -->
<g id="Node000013" class="node">
<title>Node13</title>
<g id="a_Node000013"><a xlink:title=" ">
<polygon fill="#e0e0e0" stroke="#999999" points="386.62,-138 335.38,-138 335.38,-118 386.62,-118 386.62,-138"/>
<text text-anchor="middle" x="361" y="-124.5" font-family="Helvetica,sans-Serif" font-size="10.00">sstream</text>
</a>
</g>
</g>
<!-- Node11&#45;&gt;Node13 -->
<g id="edge17_Node000011_Node000013" class="edge">
<title>Node11&#45;&gt;Node13</title>
<g id="a_edge17_Node000011_Node000013"><a xlink:title=" ">
<path fill="none" stroke="#63b8ff" d="M459.2,-247.59C439.16,-239.53 417.12,-227.94 401,-212 383.35,-194.56 372.41,-167.78 366.52,-149.38"/>
<polygon fill="#63b8ff" stroke="#63b8ff" points="369.91,-148.5 363.72,-139.9 363.19,-150.48 369.91,-148.5"/>
</a>
</g>
</g>
<!-- Node14 -->
<g id="Node000014" class="node">
<title>Node14</title>
<g id="a_Node000014"><a xlink:href="_assert_failed_exception_8h.html" target="_top" xlink:title="@TODO Add description of this file if needed">
<polygon fill="white" stroke="#666666" points="1073.62,-212 926.38,-212 926.38,-180 1073.62,-180 1073.62,-212"/>
<text text-anchor="start" x="934.38" y="-198.5" font-family="Helvetica,sans-Serif" font-size="10.00">engine/core/exceptions</text>
<text text-anchor="middle" x="1000" y="-186.5" font-family="Helvetica,sans-Serif" font-size="10.00">/core/AssertFailedException.h</text>
</a>
</g>
</g>
<!-- Node11&#45;&gt;Node14 -->
<g id="edge18_Node000011_Node000014" class="edge">
<title>Node11&#45;&gt;Node14</title>
<g id="a_edge18_Node000011_Node000014"><a xlink:title=" ">
<path fill="none" stroke="#63b8ff" d="M561.05,-256.12C644.93,-244.83 812.74,-222.22 914.84,-208.47"/>
<polygon fill="#63b8ff" stroke="#63b8ff" points="915.09,-211.97 924.54,-207.16 914.16,-205.03 915.09,-211.97"/>
</a>
</g>
</g>
<!-- Node18 -->
<g id="Node000018" class="node">
<title>Node18</title>
<g id="a_Node000018"><a xlink:href="_stringer_8h.html" target="_top" xlink:title="A set of functions for converting objects to strings.">
<polygon fill="white" stroke="#666666" points="234.5,-212 125.5,-212 125.5,-180 234.5,-180 234.5,-212"/>
<text text-anchor="start" x="133.5" y="-198.5" font-family="Helvetica,sans-Serif" font-size="10.00">engine/core/debugger</text>
<text text-anchor="middle" x="180" y="-186.5" font-family="Helvetica,sans-Serif" font-size="10.00">/Stringer.h</text>
</a>
</g>
</g>
<!-- Node11&#45;&gt;Node18 -->
<g id="edge23_Node000011_Node000018" class="edge">
<title>Node11&#45;&gt;Node18</title>
<g id="a_edge23_Node000011_Node000018"><a xlink:title=" ">
<path fill="none" stroke="#63b8ff" d="M458.98,-250.03C455.95,-249.33 452.94,-248.64 450,-248 380.72,-232.81 300.85,-218.06 246.05,-208.37"/>
<polygon fill="#63b8ff" stroke="#63b8ff" points="246.69,-204.93 236.24,-206.64 245.48,-211.82 246.69,-204.93"/>
</a>
</g>
</g>
<!-- Node22 -->
<g id="Node000022" class="node">
<title>Node22</title>
<g id="a_Node000022"><a xlink:href="_logger_8h.html" target="_top" xlink:title="@TODO Add description of this file if needed">
<polygon fill="white" stroke="#666666" points="693.75,-212 598.25,-212 598.25,-180 693.75,-180 693.75,-212"/>
<text text-anchor="start" x="606.25" y="-198.5" font-family="Helvetica,sans-Serif" font-size="10.00">engine/core/logger</text>
<text text-anchor="middle" x="646" y="-186.5" font-family="Helvetica,sans-Serif" font-size="10.00">/Logger.h</text>
</a>
</g>
</g>
<!-- Node11&#45;&gt;Node22 -->
<g id="edge30_Node000011_Node000022" class="edge">
<title>Node11&#45;&gt;Node22</title>
<g id="a_edge30_Node000011_Node000022"><a xlink:title=" ">
<path fill="none" stroke="#63b8ff" d="M541.89,-247.53C560.47,-238.51 584.13,-227.03 604.19,-217.29"/>
<polygon fill="#63b8ff" stroke="#63b8ff" points="605.48,-220.55 612.95,-213.04 602.43,-214.26 605.48,-220.55"/>
</a>
</g>
</g>
<!-- Node15 -->
<g id="Node000015" class="node">
<title>Node15</title>
<g id="a_Node000015"><a xlink:href="_engine_exception_8h.html" target="_top" xlink:title="Base exception class for any exception in the engine.">
<polygon fill="white" stroke="#666666" points="1160.25,-144 1043.75,-144 1043.75,-112 1160.25,-112 1160.25,-144"/>
<text text-anchor="start" x="1051.75" y="-130.5" font-family="Helvetica,sans-Serif" font-size="10.00">engine/core/exceptions</text>
<text text-anchor="middle" x="1102" y="-118.5" font-family="Helvetica,sans-Serif" font-size="10.00">/EngineException.h</text>
</a>
</g>
</g>
<!-- Node14&#45;&gt;Node15 -->
<g id="edge19_Node000014_Node000015" class="edge">
<title>Node14&#45;&gt;Node15</title>
<g id="a_edge19_Node000014_Node000015"><a xlink:title=" ">
<path fill="none" stroke="#63b8ff" d="M1023.91,-179.53C1037.34,-170.84 1054.3,-159.86 1068.98,-150.37"/>
<polygon fill="#63b8ff" stroke="#63b8ff" points="1070.47,-153.57 1076.96,-145.2 1066.67,-147.69 1070.47,-153.57"/>
</a>
</g>
</g>
<!-- Node16 -->
<g id="Node000016" class="node">
<title>Node16</title>
<g id="a_Node000016"><a xlink:href="_base_exception_8h.html" target="_top" xlink:title=" ">
<polygon fill="white" stroke="#666666" points="1110.12,-76 1019.88,-76 1019.88,-56 1110.12,-56 1110.12,-76"/>
<text text-anchor="middle" x="1065" y="-62.5" font-family="Helvetica,sans-Serif" font-size="10.00">BaseException.h</text>
</a>
</g>
</g>
<!-- Node15&#45;&gt;Node16 -->
<g id="edge20_Node000015_Node000016" class="edge">
<title>Node15&#45;&gt;Node16</title>
<g id="a_edge20_Node000015_Node000016"><a xlink:title=" ">
<path fill="none" stroke="#63b8ff" d="M1092.47,-111.55C1087.65,-103.74 1081.77,-94.19 1076.68,-85.94"/>
<polygon fill="#63b8ff" stroke="#63b8ff" points="1079.82,-84.37 1071.6,-77.7 1073.87,-88.05 1079.82,-84.37"/>
</a>
</g>
</g>
<!-- Node16&#45;&gt;Node7 -->
<g id="edge22_Node000016_Node000007" class="edge">
<title>Node16&#45;&gt;Node7</title>
<g id="a_edge22_Node000016_Node000007"><a xlink:title=" ">
<path fill="none" stroke="#63b8ff" d="M1019.58,-60.66C1003.88,-59.16 986.17,-57.49 970,-56 793.28,-39.66 581.29,-20.78 502.5,-13.79"/>
<polygon fill="#63b8ff" stroke="#63b8ff" points="503.22,-10.34 492.95,-12.94 502.6,-17.31 503.22,-10.34"/>
</a>
</g>
</g>
<!-- Node17 -->
<g id="Node000017" class="node">
<title>Node17</title>
<g id="a_Node000017"><a xlink:title=" ">
<polygon fill="#e0e0e0" stroke="#999999" points="1094.38,-20 1035.62,-20 1035.62,0 1094.38,0 1094.38,-20"/>
<text text-anchor="middle" x="1065" y="-6.5" font-family="Helvetica,sans-Serif" font-size="10.00">stdexcept</text>
</a>
</g>
</g>
<!-- Node16&#45;&gt;Node17 -->
<g id="edge21_Node000016_Node000017" class="edge">
<title>Node16&#45;&gt;Node17</title>
<g id="a_edge21_Node000016_Node000017"><a xlink:title=" ">
<path fill="none" stroke="#63b8ff" d="M1065,-55.59C1065,-49.01 1065,-39.96 1065,-31.73"/>
<polygon fill="#63b8ff" stroke="#63b8ff" points="1068.5,-31.81 1065,-21.81 1061.5,-31.81 1068.5,-31.81"/>
</a>
</g>
</g>
<!-- Node18&#45;&gt;Node5 -->
<g id="edge26_Node000018_Node000005" class="edge">
<title>Node18&#45;&gt;Node5</title>
<g id="a_edge26_Node000018_Node000005"><a xlink:title=" ">
<path fill="none" stroke="#63b8ff" d="M204.85,-179.53C221.78,-168.99 244.1,-155.09 261.05,-144.54"/>
<polygon fill="#63b8ff" stroke="#63b8ff" points="262.88,-147.52 269.52,-139.26 259.18,-141.57 262.88,-147.52"/>
</a>
</g>
</g>
<!-- Node18&#45;&gt;Node7 -->
<g id="edge24_Node000018_Node000007" class="edge">
<title>Node18&#45;&gt;Node7</title>
<g id="a_edge24_Node000018_Node000007"><a xlink:title=" ">
<path fill="none" stroke="#63b8ff" d="M188.97,-179.69C200.29,-161.5 221.28,-131.2 246,-112 306.97,-64.64 393.67,-33.89 439.61,-19.85"/>
<polygon fill="#63b8ff" stroke="#63b8ff" points="440.6,-23.2 449.19,-16.99 438.6,-16.49 440.6,-23.2"/>
</a>
</g>
</g>
<!-- Node18&#45;&gt;Node13 -->
<g id="edge25_Node000018_Node000013" class="edge">
<title>Node18&#45;&gt;Node13</title>
<g id="a_edge25_Node000018_Node000013"><a xlink:title=" ">
<path fill="none" stroke="#63b8ff" d="M226.98,-179.5C255.75,-169.79 293.21,-156.73 326,-144 327.11,-143.57 328.24,-143.12 329.37,-142.67"/>
<polygon fill="#63b8ff" stroke="#63b8ff" points="330.32,-146.07 338.23,-139.01 327.65,-139.6 330.32,-146.07"/>
</a>
</g>
</g>
<!-- Node19 -->
<g id="Node000019" class="node">
<title>Node19</title>
<g id="a_Node000019"><a xlink:title=" ">
<polygon fill="#e0e0e0" stroke="#999999" points="198.88,-138 149.12,-138 149.12,-118 198.88,-118 198.88,-138"/>
<text text-anchor="middle" x="174" y="-124.5" font-family="Helvetica,sans-Serif" font-size="10.00">iomanip</text>
</a>
</g>
</g>
<!-- Node18&#45;&gt;Node19 -->
<g id="edge27_Node000018_Node000019" class="edge">
<title>Node18&#45;&gt;Node19</title>
<g id="a_edge27_Node000018_Node000019"><a xlink:title=" ">
<path fill="none" stroke="#63b8ff" d="M178.61,-179.69C177.8,-170.8 176.77,-159.46 175.89,-149.77"/>
<polygon fill="#63b8ff" stroke="#63b8ff" points="179.38,-149.47 174.98,-139.82 172.4,-150.1 179.38,-149.47"/>
</a>
</g>
</g>
<!-- Node20 -->
<g id="Node000020" class="node">
<title>Node20</title>
<g id="a_Node000020"><a xlink:title=" ">
<polygon fill="#e0e0e0" stroke="#999999" points="73.62,-138 28.38,-138 28.38,-118 73.62,-118 73.62,-138"/>
<text text-anchor="middle" x="51" y="-124.5" font-family="Helvetica,sans-Serif" font-size="10.00">cstdint</text>
</a>
</g>
</g>
<!-- Node18&#45;&gt;Node20 -->
<g id="edge28_Node000018_Node000020" class="edge">
<title>Node18&#45;&gt;Node20</title>
<g id="a_edge28_Node000018_Node000020"><a xlink:title=" ">
<path fill="none" stroke="#63b8ff" d="M149.76,-179.53C128.57,-168.69 100.45,-154.3 79.63,-143.65"/>
<polygon fill="#63b8ff" stroke="#63b8ff" points="81.33,-140.59 70.84,-139.15 78.15,-146.82 81.33,-140.59"/>
</a>
</g>
</g>
<!-- Node21 -->
<g id="Node000021" class="node">
<title>Node21</title>
<g id="a_Node000021"><a xlink:title=" ">
<polygon fill="#e0e0e0" stroke="#999999" points="130.62,-138 91.38,-138 91.38,-118 130.62,-118 130.62,-138"/>
<text text-anchor="middle" x="111" y="-124.5" font-family="Helvetica,sans-Serif" font-size="10.00">utility</text>
</a>
</g>
</g>
<!-- Node18&#45;&gt;Node21 -->
<g id="edge29_Node000018_Node000021" class="edge">
<title>Node18&#45;&gt;Node21</title>
<g id="a_edge29_Node000018_Node000021"><a xlink:title=" ">
<path fill="none" stroke="#63b8ff" d="M164,-179.69C153.55,-169.7 139.88,-156.63 129.04,-146.26"/>
<polygon fill="#63b8ff" stroke="#63b8ff" points="131.48,-143.75 121.83,-139.36 126.64,-148.8 131.48,-143.75"/>
</a>
</g>
</g>
<!-- Node22&#45;&gt;Node7 -->
<g id="edge31_Node000022_Node000007" class="edge">
<title>Node22&#45;&gt;Node7</title>
<g id="a_edge31_Node000022_Node000007"><a xlink:title=" ">
<path fill="none" stroke="#63b8ff" d="M694.19,-184.24C743.83,-172.68 815.07,-154.54 823,-144 831.55,-132.64 828.67,-125.04 823,-112 808.46,-78.55 795.82,-71.93 763,-56 717.39,-33.86 568.08,-19.08 502.44,-13.49"/>
<polygon fill="#63b8ff" stroke="#63b8ff" points="502.97,-10.03 492.71,-12.68 502.39,-17 502.97,-10.03"/>
</a>
</g>
</g>
<!-- Node23 -->
<g id="Node000023" class="node">
<title>Node23</title>
<g id="a_Node000023"><a xlink:title=" ">
<polygon fill="#e0e0e0" stroke="#999999" points="750.62,-138 699.38,-138 699.38,-118 750.62,-118 750.62,-138"/>
<text text-anchor="middle" x="725" y="-124.5" font-family="Helvetica,sans-Serif" font-size="10.00">memory</text>
</a>
</g>
</g>
<!-- Node22&#45;&gt;Node23 -->
<g id="edge32_Node000022_Node000023" class="edge">
<title>Node22&#45;&gt;Node23</title>
<g id="a_edge32_Node000022_Node000023"><a xlink:title=" ">
<path fill="none" stroke="#63b8ff" d="M664.32,-179.69C676.53,-169.5 692.56,-156.1 705.08,-145.64"/>
<polygon fill="#63b8ff" stroke="#63b8ff" points="707.26,-148.38 712.69,-139.29 702.77,-143.01 707.26,-148.38"/>
</a>
</g>
</g>
<!-- Node24 -->
<g id="Node000024" class="node">
<title>Node24</title>
<g id="a_Node000024"><a xlink:title=" ">
<polygon fill="#e0e0e0" stroke="#999999" points="1025.75,-138 984.25,-138 984.25,-118 1025.75,-118 1025.75,-138"/>
<text text-anchor="middle" x="1005" y="-124.5" font-family="Helvetica,sans-Serif" font-size="10.00">vector</text>
</a>
</g>
</g>
<!-- Node22&#45;&gt;Node24 -->
<g id="edge33_Node000022_Node000024" class="edge">
<title>Node22&#45;&gt;Node24</title>
<g id="a_edge33_Node000022_Node000024"><a xlink:title=" ">
<path fill="none" stroke="#63b8ff" d="M694.25,-184.81C702.49,-183.15 710.99,-181.48 719,-180 815.56,-162.11 840.57,-162.58 937,-144 948.72,-141.74 961.51,-138.99 972.8,-136.47"/>
<polygon fill="#63b8ff" stroke="#63b8ff" points="973.47,-139.91 982.45,-134.29 971.92,-133.08 973.47,-139.91"/>
</a>
</g>
</g>
<!-- Node25 -->
<g id="Node000025" class="node">
<title>Node25</title>
<g id="a_Node000025"><a xlink:title=" ">
<polygon fill="#e0e0e0" stroke="#999999" points="927.62,-138 870.38,-138 870.38,-118 927.62,-118 927.62,-138"/>
<text text-anchor="middle" x="899" y="-124.5" font-family="Helvetica,sans-Serif" font-size="10.00">functional</text>
</a>
</g>
</g>
<!-- Node22&#45;&gt;Node25 -->
<g id="edge34_Node000022_Node000025" class="edge">
<title>Node22&#45;&gt;Node25</title>
<g id="a_edge34_Node000022_Node000025"><a xlink:title=" ">
<path fill="none" stroke="#63b8ff" d="M693.89,-184.77C736.69,-175.29 800.94,-160.25 856,-144 858.1,-143.38 860.26,-142.72 862.42,-142.03"/>
<polygon fill="#63b8ff" stroke="#63b8ff" points="863.38,-145.4 871.77,-138.93 861.18,-138.75 863.38,-145.4"/>
</a>
</g>
</g>
<!-- Node26 -->
<g id="Node000026" class="node">
<title>Node26</title>
<g id="a_Node000026"><a xlink:title=" ">
<polygon fill="#e0e0e0" stroke="#999999" points="813.62,-138 768.38,-138 768.38,-118 813.62,-118 813.62,-138"/>
<text text-anchor="middle" x="791" y="-124.5" font-family="Helvetica,sans-Serif" font-size="10.00">atomic</text>
</a>
</g>
</g>
<!-- Node22&#45;&gt;Node26 -->
<g id="edge35_Node000022_Node000026" class="edge">
<title>Node22&#45;&gt;Node26</title>
<g id="a_edge35_Node000022_Node000026"><a xlink:title=" ">
<path fill="none" stroke="#63b8ff" d="M681.3,-179.53C703.88,-169.56 733.76,-156.22 760,-144 760.47,-143.78 760.95,-143.56 761.43,-143.33"/>
<polygon fill="#63b8ff" stroke="#63b8ff" points="762.8,-146.56 770.33,-139.1 759.79,-140.23 762.8,-146.56"/>
</a>
</g>
</g>
<!-- Node27 -->
<g id="Node000027" class="node">
<title>Node27</title>
<g id="a_Node000027"><a xlink:title=" ">
<polygon fill="#e0e0e0" stroke="#999999" points="524.5,-138 481.5,-138 481.5,-118 524.5,-118 524.5,-138"/>
<text text-anchor="middle" x="503" y="-124.5" font-family="Helvetica,sans-Serif" font-size="10.00">thread</text>
</a>
</g>
</g>
<!-- Node22&#45;&gt;Node27 -->
<g id="edge36_Node000022_Node000027" class="edge">
<title>Node22&#45;&gt;Node27</title>
<g id="a_edge36_Node000022_Node000027"><a xlink:title=" ">
<path fill="none" stroke="#63b8ff" d="M612.47,-179.53C588.67,-168.54 556.96,-153.9 533.79,-143.21"/>
<polygon fill="#63b8ff" stroke="#63b8ff" points="535.42,-140.11 524.87,-139.09 532.48,-146.46 535.42,-140.11"/>
</a>
</g>
</g>
<!-- Node28 -->
<g id="Node000028" class="node">
<title>Node28</title>
<g id="a_Node000028"><a xlink:title=" ">
<polygon fill="#e0e0e0" stroke="#999999" points="578.5,-76 535.5,-76 535.5,-56 578.5,-56 578.5,-76"/>
<text text-anchor="middle" x="557" y="-62.5" font-family="Helvetica,sans-Serif" font-size="10.00">mutex</text>
</a>
</g>
</g>
<!-- Node22&#45;&gt;Node28 -->
<g id="edge37_Node000022_Node000028" class="edge">
<title>Node22&#45;&gt;Node28</title>
<g id="a_edge37_Node000022_Node000028"><a xlink:title=" ">
<path fill="none" stroke="#63b8ff" d="M612.71,-179.51C598.04,-171.03 581.92,-159.14 572,-144 560.94,-127.11 557.66,-103.97 556.86,-87.47"/>
<polygon fill="#63b8ff" stroke="#63b8ff" points="560.36,-87.81 556.67,-77.88 553.36,-87.95 560.36,-87.81"/>
</a>
</g>
</g>
<!-- Node29 -->
<g id="Node000029" class="node">
<title>Node29</title>
<g id="a_Node000029"><a xlink:href="_i_logger_8h.html" target="_top" xlink:title="Class that encapsulates the look and feel of the HUD.">
<polygon fill="white" stroke="#666666" points="498.88,-76 443.12,-76 443.12,-56 498.88,-56 498.88,-76"/>
<text text-anchor="middle" x="471" y="-62.5" font-family="Helvetica,sans-Serif" font-size="10.00">ILogger.h</text>
</a>
</g>
</g>
<!-- Node22&#45;&gt;Node29 -->
<g id="edge38_Node000022_Node000029" class="edge">
<title>Node22&#45;&gt;Node29</title>
<g id="a_edge38_Node000022_Node000029"><a xlink:title=" ">
<path fill="none" stroke="#63b8ff" d="M598.13,-187.32C552.42,-178.91 488.31,-163.93 473,-144 460.74,-128.04 462.2,-104.24 465.49,-87.33"/>
<polygon fill="#63b8ff" stroke="#63b8ff" points="468.82,-88.45 467.69,-77.92 462.01,-86.86 468.82,-88.45"/>
</a>
</g>
</g>
<!-- Node30 -->
<g id="Node000030" class="node">
<title>Node30</title>
<g id="a_Node000030"><a xlink:href="_concurrent_queue_8h.html" target="_top" xlink:title="Concurrent queue implementation.">
<polygon fill="white" stroke="#666666" points="681,-138 581,-138 581,-118 681,-118 681,-138"/>
<text text-anchor="middle" x="631" y="-124.5" font-family="Helvetica,sans-Serif" font-size="10.00">ConcurrentQueue.h</text>
</a>
</g>
</g>
<!-- Node22&#45;&gt;Node30 -->
<g id="edge40_Node000022_Node000030" class="edge">
<title>Node22&#45;&gt;Node30</title>
<g id="a_edge40_Node000022_Node000030"><a xlink:title=" ">
<path fill="none" stroke="#63b8ff" d="M642.52,-179.69C640.48,-170.7 637.87,-159.21 635.65,-149.44"/>
<polygon fill="#63b8ff" stroke="#63b8ff" points="639.08,-148.77 633.45,-139.79 632.26,-150.32 639.08,-148.77"/>
</a>
</g>
</g>
<!-- Node29&#45;&gt;Node7 -->
<g id="edge39_Node000029_Node000007" class="edge">
<title>Node29&#45;&gt;Node7</title>
<g id="a_edge39_Node000029_Node000007"><a xlink:title=" ">
<path fill="none" stroke="#63b8ff" d="M471,-55.59C471,-49.01 471,-39.96 471,-31.73"/>
<polygon fill="#63b8ff" stroke="#63b8ff" points="474.5,-31.81 471,-21.81 467.5,-31.81 474.5,-31.81"/>
</a>
</g>
</g>
<!-- Node30&#45;&gt;Node28 -->
<g id="edge42_Node000030_Node000028" class="edge">
<title>Node30&#45;&gt;Node28</title>
<g id="a_edge42_Node000030_Node000028"><a xlink:title=" ">
<path fill="none" stroke="#63b8ff" d="M619.44,-117.62C608.08,-108.41 590.51,-94.17 576.9,-83.14"/>
<polygon fill="#63b8ff" stroke="#63b8ff" points="579.39,-80.65 569.41,-77.07 574.98,-86.08 579.39,-80.65"/>
</a>
</g>
</g>
<!-- Node31 -->
<g id="Node000031" class="node">
<title>Node31</title>
<g id="a_Node000031"><a xlink:title=" ">
<polygon fill="#e0e0e0" stroke="#999999" points="644.12,-76 601.88,-76 601.88,-56 644.12,-56 644.12,-76"/>
<text text-anchor="middle" x="623" y="-62.5" font-family="Helvetica,sans-Serif" font-size="10.00">queue</text>
</a>
</g>
</g>
<!-- Node30&#45;&gt;Node31 -->
<g id="edge41_Node000030_Node000031" class="edge">
<title>Node30&#45;&gt;Node31</title>
<g id="a_edge41_Node000030_Node000031"><a xlink:title=" ">
<path fill="none" stroke="#63b8ff" d="M629.75,-117.62C628.68,-109.56 627.09,-97.65 625.72,-87.41"/>
<polygon fill="#63b8ff" stroke="#63b8ff" points="629.21,-87.06 624.42,-77.61 622.27,-87.99 629.21,-87.06"/>
</a>
</g>
</g>
<!-- Node32 -->
<g id="Node000032" class="node">
<title>Node32</title>
<g id="a_Node000032"><a xlink:title=" ">
<polygon fill="#e0e0e0" stroke="#999999" points="754.25,-76 661.75,-76 661.75,-56 754.25,-56 754.25,-76"/>
<text text-anchor="middle" x="708" y="-62.5" font-family="Helvetica,sans-Serif" font-size="10.00">condition_variable</text>
</a>
</g>
</g>
<!-- Node30&#45;&gt;Node32 -->
<g id="edge43_Node000030_Node000032" class="edge">
<title>Node30&#45;&gt;Node32</title>
<g id="a_edge43_Node000030_Node000032"><a xlink:title=" ">
<path fill="none" stroke="#63b8ff" d="M643.03,-117.62C654.78,-108.47 672.92,-94.34 687.04,-83.33"/>
<polygon fill="#63b8ff" stroke="#63b8ff" points="689.12,-86.15 694.86,-77.24 684.82,-80.63 689.12,-86.15"/>
</a>
</g>
</g>
<!-- Node33&#45;&gt;Node11 -->
<g id="edge46_Node000033_Node000011" class="edge">
<title>Node33&#45;&gt;Node11</title>
<g id="a_edge46_Node000033_Node000011"><a xlink:title=" ">
<path fill="none" stroke="#63b8ff" d="M509.08,-451.82C509.24,-417.75 509.65,-334.82 509.87,-291.84"/>
<polygon fill="#63b8ff" stroke="#63b8ff" points="513.37,-291.89 509.92,-281.87 506.37,-291.86 513.37,-291.89"/>
</a>
</g>
</g>
<!-- Node34 -->
<g id="Node000034" class="node">
<title>Node34</title>
<g id="a_Node000034"><a xlink:title=" ">
<polygon fill="#e0e0e0" stroke="#999999" points="584.75,-410 537.25,-410 537.25,-390 584.75,-390 584.75,-410"/>
<text text-anchor="middle" x="561" y="-396.5" font-family="Helvetica,sans-Serif" font-size="10.00">cstddef</text>
</a>
</g>
</g>
<!-- Node33&#45;&gt;Node34 -->
<g id="edge45_Node000033_Node000034" class="edge">
<title>Node33&#45;&gt;Node34</title>
<g id="a_edge45_Node000033_Node000034"><a xlink:title=" ">
<path fill="none" stroke="#63b8ff" d="M521.06,-451.69C528.7,-442 538.62,-429.41 546.66,-419.2"/>
<polygon fill="#63b8ff" stroke="#63b8ff" points="549.28,-421.53 552.72,-411.51 543.79,-417.19 549.28,-421.53"/>
</a>
</g>
</g>
<!-- Node35&#45;&gt;Node8 -->
<g id="edge52_Node000035_Node000008" class="edge">
<title>Node35&#45;&gt;Node8</title>
<g id="a_edge52_Node000035_Node000008"><a xlink:title=" ">
<path fill="none" stroke="#63b8ff" d="M848.26,-390.27C755.63,-377.97 587.25,-355.61 490.56,-342.77"/>
<polygon fill="#63b8ff" stroke="#63b8ff" points="491.3,-339.34 480.92,-341.49 490.37,-346.27 491.3,-339.34"/>
</a>
</g>
</g>
<!-- Node36 -->
<g id="Node000036" class="node">
<title>Node36</title>
<g id="a_Node000036"><a xlink:href="_vector_types_8h.html" target="_top" xlink:title="@TODO Add description of this file if needed">
<polygon fill="white" stroke="#666666" points="819.75,-348 694.25,-348 694.25,-316 819.75,-316 819.75,-348"/>
<text text-anchor="start" x="702.25" y="-334.5" font-family="Helvetica,sans-Serif" font-size="10.00">engine/core/math/algebra</text>
<text text-anchor="middle" x="757" y="-322.5" font-family="Helvetica,sans-Serif" font-size="10.00">/vector/VectorTypes.h</text>
</a>
</g>
</g>
<!-- Node35&#45;&gt;Node36 -->
<g id="edge48_Node000035_Node000036" class="edge">
<title>Node35&#45;&gt;Node36</title>
<g id="a_edge48_Node000035_Node000036"><a xlink:title=" ">
<path fill="none" stroke="#63b8ff" d="M877.19,-383.53C855.42,-374.37 827.62,-362.69 804.24,-352.86"/>
<polygon fill="#63b8ff" stroke="#63b8ff" points="805.82,-349.73 795.25,-349.08 803.11,-356.18 805.82,-349.73"/>
</a>
</g>
</g>
<!-- Node38 -->
<g id="Node000038" class="node">
<title>Node38</title>
<g id="a_Node000038"><a xlink:href="_math_exception_8h.html" target="_top" xlink:title="Exception class for math errors.">
<polygon fill="white" stroke="#666666" points="1015.5,-348 876.5,-348 876.5,-316 1015.5,-316 1015.5,-348"/>
<text text-anchor="start" x="884.5" y="-334.5" font-family="Helvetica,sans-Serif" font-size="10.00">engine/core/exceptions</text>
<text text-anchor="middle" x="946" y="-322.5" font-family="Helvetica,sans-Serif" font-size="10.00">/core/math/MathException.h</text>
</a>
</g>
</g>
<!-- Node35&#45;&gt;Node38 -->
<g id="edge50_Node000035_Node000038" class="edge">
<title>Node35&#45;&gt;Node38</title>
<g id="a_edge50_Node000035_Node000038"><a xlink:title=" ">
<path fill="none" stroke="#63b8ff" d="M921.42,-383.69C925.06,-376.2 929.53,-366.97 933.66,-358.45"/>
<polygon fill="#63b8ff" stroke="#63b8ff" points="936.74,-360.11 937.96,-349.59 930.45,-357.06 936.74,-360.11"/>
</a>
</g>
</g>
<!-- Node37 -->
<g id="Node000037" class="node">
<title>Node37</title>
<g id="a_Node000037"><a xlink:title=" ">
<polygon fill="#e0e0e0" stroke="#999999" points="730.88,-274 693.12,-274 693.12,-254 730.88,-254 730.88,-274"/>
<text text-anchor="middle" x="712" y="-260.5" font-family="Helvetica,sans-Serif" font-size="10.00">array</text>
</a>
</g>
</g>
<!-- Node36&#45;&gt;Node37 -->
<g id="edge49_Node000036_Node000037" class="edge">
<title>Node36&#45;&gt;Node37</title>
<g id="a_edge49_Node000036_Node000037"><a xlink:title=" ">
<path fill="none" stroke="#63b8ff" d="M746.56,-315.69C740.02,-306.1 731.55,-293.67 724.62,-283.52"/>
<polygon fill="#63b8ff" stroke="#63b8ff" points="727.73,-281.86 719.2,-275.57 721.95,-285.8 727.73,-281.86"/>
</a>
</g>
</g>
<!-- Node38&#45;&gt;Node15 -->
<g id="edge51_Node000038_Node000015" class="edge">
<title>Node38&#45;&gt;Node15</title>
<g id="a_edge51_Node000038_Node000015"><a xlink:title=" ">
<path fill="none" stroke="#63b8ff" d="M972.12,-315.63C1003.47,-295.77 1055.29,-258.2 1083,-212 1093.22,-194.96 1097.94,-172.94 1100.13,-155.86"/>
<polygon fill="#63b8ff" stroke="#63b8ff" points="1103.61,-156.26 1101.16,-145.95 1096.64,-155.54 1103.61,-156.26"/>
</a>
</g>
</g>
<!-- Node39&#45;&gt;Node24 -->
<g id="edge55_Node000039_Node000024" class="edge">
<title>Node39&#45;&gt;Node24</title>
<g id="a_edge55_Node000039_Node000024"><a xlink:title=" ">
<path fill="none" stroke="#63b8ff" d="M730.76,-451.81C755.04,-430.4 799.01,-389.34 829,-348 878.49,-279.77 858.68,-240.86 917,-180 932.86,-163.45 955.26,-150.57 973.49,-141.9"/>
<polygon fill="#63b8ff" stroke="#63b8ff" points="974.89,-145.1 982.55,-137.79 972,-138.73 974.89,-145.1"/>
</a>
</g>
</g>
<!-- Node39&#45;&gt;Node34 -->
<g id="edge54_Node000039_Node000034" class="edge">
<title>Node39&#45;&gt;Node34</title>
<g id="a_edge54_Node000039_Node000034"><a xlink:title=" ">
<path fill="none" stroke="#63b8ff" d="M676.45,-451.58C652.87,-441.57 621.55,-428.16 594,-416 593.24,-415.67 592.48,-415.33 591.71,-414.98"/>
<polygon fill="#63b8ff" stroke="#63b8ff" points="593.5,-411.95 582.95,-411.05 590.64,-418.34 593.5,-411.95"/>
</a>
</g>
</g>
<!-- Node39&#45;&gt;Node35 -->
<g id="edge57_Node000039_Node000035" class="edge">
<title>Node39&#45;&gt;Node35</title>
<g id="a_edge57_Node000039_Node000035"><a xlink:title=" ">
<path fill="none" stroke="#63b8ff" d="M760.13,-451.53C788.75,-442.13 825.52,-430.05 855.93,-420.07"/>
<polygon fill="#63b8ff" stroke="#63b8ff" points="856.97,-423.41 865.38,-416.96 854.79,-416.76 856.97,-423.41"/>
</a>
</g>
</g>
<!-- Node39&#45;&gt;Node36 -->
<g id="edge56_Node000039_Node000036" class="edge">
<title>Node39&#45;&gt;Node36</title>
<g id="a_edge56_Node000039_Node000036"><a xlink:title=" ">
<path fill="none" stroke="#63b8ff" d="M721.62,-451.78C726.95,-441.84 733.59,-428.46 738,-416 744.55,-397.5 749.42,-375.86 752.59,-359.32"/>
<polygon fill="#63b8ff" stroke="#63b8ff" points="755.98,-360.25 754.32,-349.78 749.09,-358.99 755.98,-360.25"/>
</a>
</g>
</g>
<!-- Node40 -->
<g id="Node000040" class="node">
<title>Node40</title>
<g id="a_Node000040"><a xlink:href="_matrix_types_8h.html" target="_top" xlink:title="@TODO Add description of this file if needed">
<polygon fill="white" stroke="#666666" points="728.75,-416 603.25,-416 603.25,-384 728.75,-384 728.75,-416"/>
<text text-anchor="start" x="611.25" y="-402.5" font-family="Helvetica,sans-Serif" font-size="10.00">engine/core/math/algebra</text>
<text text-anchor="middle" x="666" y="-390.5" font-family="Helvetica,sans-Serif" font-size="10.00">/matrix/MatrixTypes.h</text>
</a>
</g>
</g>
<!-- Node39&#45;&gt;Node40 -->
<g id="edge58_Node000039_Node000040" class="edge">
<title>Node39&#45;&gt;Node40</title>
<g id="a_edge58_Node000039_Node000040"><a xlink:title=" ">
<path fill="none" stroke="#63b8ff" d="M702.1,-451.69C696.58,-443.95 689.75,-434.35 683.52,-425.6"/>
<polygon fill="#63b8ff" stroke="#63b8ff" points="686.37,-423.57 677.72,-417.46 680.67,-427.63 686.37,-423.57"/>
</a>
</g>
</g>
<!-- Node40&#45;&gt;Node37 -->
<g id="edge59_Node000040_Node000037" class="edge">
<title>Node40&#45;&gt;Node37</title>
<g id="a_edge59_Node000040_Node000037"><a xlink:title=" ">
<path fill="none" stroke="#63b8ff" d="M668.27,-383.66C671.06,-366.73 676.5,-338.86 685,-316 689.07,-305.07 695.02,-293.53 700.3,-284.2"/>
<polygon fill="#63b8ff" stroke="#63b8ff" points="703.23,-286.13 705.27,-275.73 697.19,-282.58 703.23,-286.13"/>
</a>
</g>
</g>
<!-- Node41&#45;&gt;Node7 -->
<g id="edge62_Node000041_Node000007" class="edge">
<title>Node41&#45;&gt;Node7</title>
<g id="a_edge62_Node000041_Node000007"><a xlink:title=" ">
<path fill="none" stroke="#63b8ff" d="M870.51,-179.65C914.78,-166.59 959.3,-144.68 937,-112 887.45,-39.38 599.3,-17.73 502.61,-12.47"/>
<polygon fill="#63b8ff" stroke="#63b8ff" points="502.97,-8.98 492.81,-11.96 502.61,-15.98 502.97,-8.98"/>
</a>
</g>
</g>
<!-- Node41&#45;&gt;Node24 -->
<g id="edge63_Node000041_Node000024" class="edge">
<title>Node41&#45;&gt;Node24</title>
<g id="a_edge63_Node000041_Node000024"><a xlink:title=" ">
<path fill="none" stroke="#63b8ff" d="M856.93,-179.51C890.3,-170.15 932.86,-157.45 970,-144 971.15,-143.58 972.32,-143.15 973.49,-142.7"/>
<polygon fill="#63b8ff" stroke="#63b8ff" points="974.69,-145.99 982.65,-139.01 972.07,-139.5 974.69,-145.99"/>
</a>
</g>
</g>
<!-- Node41&#45;&gt;Node25 -->
<g id="edge61_Node000041_Node000025" class="edge">
<title>Node41&#45;&gt;Node25</title>
<g id="a_edge61_Node000041_Node000025"><a xlink:title=" ">
<path fill="none" stroke="#63b8ff" d="M822.45,-179.53C838.41,-168.99 859.47,-155.09 875.46,-144.54"/>
<polygon fill="#63b8ff" stroke="#63b8ff" points="876.99,-147.72 883.4,-139.29 873.13,-141.88 876.99,-147.72"/>
</a>
</g>
</g>
</g>
</svg>

<g id="navigator" transform="translate(0 0)" fill="#404254">
  <rect fill="#f2f5e9" fill-opacity="0.5" stroke="#606060" stroke-width=".5" x="0" y="0" width="60" height="60"/>
  <use id="zoomplus" xlink:href="#zoomPlus" x="17" y="9" onmousedown="handleZoom(evt,'in')"/>
  <use id="zoomminus" xlink:href="#zoomMin" x="42" y="9" onmousedown="handleZoom(evt,'out')"/>
  <use id="reset" xlink:href="#resetDef" x="30" y="36" onmousedown="handleReset()"/>
   <use id="arrowup" xlink:href="#arrowUp" x="0" y="0" onmousedown="handlePan(0,-1)"/>
  <use id="arrowright" xlink:href="#arrowRight" x="0" y="0" onmousedown="handlePan(1,0)"/>
  <use id="arrowdown" xlink:href="#arrowDown" x="0" y="0" onmousedown="handlePan(0,1)"/>
  <use id="arrowleft" xlink:href="#arrowLeft" x="0" y="0" onmousedown="handlePan(-1,0)"/>
</g>
<svg viewBox="0 0 15 15" width="100%" height="30px" preserveAspectRatio="xMaxYMin meet">
 <g id="arrow_out" transform="scale(0.3 0.3)">
  <a xlink:href="_camera_perspective_8cpp__incl_org.svg" target="_base">
   <rect id="button" ry="5" rx="5" y="6" x="6" height="38" width="38"
        fill="#f2f5e9" fill-opacity="0.5" stroke="#606060" stroke-width="1.0"/>
   <path id="arrow"
     d="M 11.500037,31.436501 C 11.940474,20.09759 22.043105,11.32322 32.158766,21.979434 L 37.068811,17.246167 C 37.068811,17.246167 37.088388,32 37.088388,32 L 22.160133,31.978069 C 22.160133,31.978069 26.997745,27.140456 26.997745,27.140456 C 18.528582,18.264221 13.291696,25.230495 11.500037,31.436501 z"
     style="fill:#404040;"/>
  </a>
 </g>
</svg>

<style type='text/css'>
<![CDATA[
[data-mouse-over-selected='false'] { opacity: 0.7; }
[data-mouse-over-selected='true']  { opacity: 1.0; }
]]>
</style>
<script type="application/ecmascript"><![CDATA[
document.addEventListener('DOMContentLoaded', (event) => {
  highlightEdges();
  highlightAdjacentNodes();
});
]]></script>
</svg>
