<?xml version="1.0" encoding="UTF-8" standalone="no"?>
<!DOCTYPE svg PUBLIC "-//W3C//DTD SVG 1.1//EN"
 "http://www.w3.org/Graphics/SVG/1.1/DTD/svg11.dtd">
<!-- Generated by graphviz version 11.0.0 (20240428.1522)
 -->
<!-- Title: CollisionInformation.h Pages: 1 -->
<svg width="803pt" height="252pt"
 viewBox="0.00 0.00 803.00 252.00" xmlns="http://www.w3.org/2000/svg" xmlns:xlink="http://www.w3.org/1999/xlink">
<g id="graph0" class="graph" transform="scale(1 1) rotate(0) translate(4 248)">
<title>CollisionInformation.h</title>
<!-- Node1 -->
<g id="Node000001" class="node">
<title>Node1</title>
<g id="a_Node000001"><a xlink:title="@TODO Add description of this file if needed">
<polygon fill="#999999" stroke="#666666" points="429.38,-244 321.12,-244 321.12,-224 429.38,-224 429.38,-244"/>
<text text-anchor="middle" x="375.25" y="-230.5" font-family="Helvetica,sans-Serif" font-size="10.00">CollisionInformation.h</text>
</a>
</g>
</g>
<!-- Node2 -->
<g id="Node000002" class="node">
<title>Node2</title>
<g id="a_Node000002"><a xlink:href="_collider_8h.html" target="_top" xlink:title="@TODO Add description of this file if needed">
<polygon fill="white" stroke="#666666" points="375.5,-188 319,-188 319,-168 375.5,-168 375.5,-188"/>
<text text-anchor="middle" x="347.25" y="-174.5" font-family="Helvetica,sans-Serif" font-size="10.00">Collider.h</text>
</a>
</g>
</g>
<!-- Node1&#45;&gt;Node2 -->
<g id="edge1_Node000001_Node000002" class="edge">
<title>Node1&#45;&gt;Node2</title>
<g id="a_edge1_Node000001_Node000002"><a xlink:title=" ">
<path fill="none" stroke="#63b8ff" d="M365.18,-213.58C360.72,-204.97 355.67,-195.24 352.07,-188.3"/>
<polygon fill="#63b8ff" stroke="#63b8ff" points="361.97,-214.98 369.68,-222.25 368.18,-211.76 361.97,-214.98"/>
</a>
</g>
</g>
<!-- Node15 -->
<g id="Node000015" class="node">
<title>Node15</title>
<g id="a_Node000015"><a xlink:href="_physics_manager_8h.html" target="_top" xlink:title="@TODO Add description of this file if needed">
<polygon fill="white" stroke="#666666" points="579.75,-132 482.75,-132 482.75,-112 579.75,-112 579.75,-132"/>
<text text-anchor="middle" x="531.25" y="-118.5" font-family="Helvetica,sans-Serif" font-size="10.00">PhysicsManager.h</text>
</a>
</g>
</g>
<!-- Node1&#45;&gt;Node15 -->
<g id="edge26_Node000001_Node000015" class="edge">
<title>Node1&#45;&gt;Node15</title>
<g id="a_edge26_Node000001_Node000015"><a xlink:title=" ">
<path fill="none" stroke="#63b8ff" d="M397.85,-217.06C430.88,-193.77 491.3,-151.17 517.98,-132.35"/>
<polygon fill="#63b8ff" stroke="#63b8ff" points="395.94,-214.13 389.79,-222.75 399.98,-219.85 395.94,-214.13"/>
</a>
</g>
</g>
<!-- Node3 -->
<g id="Node000003" class="node">
<title>Node3</title>
<g id="a_Node000003"><a xlink:href="_collider_8cpp.html" target="_top" xlink:title="@TODO Add description of this file if needed">
<polygon fill="white" stroke="#666666" points="431.75,-132 364.75,-132 364.75,-112 431.75,-112 431.75,-132"/>
<text text-anchor="middle" x="398.25" y="-118.5" font-family="Helvetica,sans-Serif" font-size="10.00">Collider.cpp</text>
</a>
</g>
</g>
<!-- Node2&#45;&gt;Node3 -->
<g id="edge2_Node000002_Node000003" class="edge">
<title>Node2&#45;&gt;Node3</title>
<g id="a_edge2_Node000002_Node000003"><a xlink:title=" ">
<path fill="none" stroke="#63b8ff" d="M363.98,-159.29C372.49,-150.28 382.48,-139.7 389.47,-132.3"/>
<polygon fill="#63b8ff" stroke="#63b8ff" points="361.49,-156.82 357.17,-166.49 366.58,-161.63 361.49,-156.82"/>
</a>
</g>
</g>
<!-- Node4 -->
<g id="Node000004" class="node">
<title>Node4</title>
<g id="a_Node000004"><a xlink:href="_collision_component_8h.html" target="_top" xlink:title="@TODO Add description of this file if needed">
<polygon fill="white" stroke="#666666" points="139.5,-132 29,-132 29,-112 139.5,-112 139.5,-132"/>
<text text-anchor="middle" x="84.25" y="-118.5" font-family="Helvetica,sans-Serif" font-size="10.00">CollisionComponent.h</text>
</a>
</g>
</g>
<!-- Node2&#45;&gt;Node4 -->
<g id="edge3_Node000002_Node000004" class="edge">
<title>Node2&#45;&gt;Node4</title>
<g id="a_edge3_Node000002_Node000004"><a xlink:title=" ">
<path fill="none" stroke="#63b8ff" d="M307.54,-168.85C260.06,-159.1 180.71,-142.8 130.5,-132.5"/>
<polygon fill="#63b8ff" stroke="#63b8ff" points="306.62,-172.23 317.12,-170.81 308.03,-165.37 306.62,-172.23"/>
</a>
</g>
</g>
<!-- Node6 -->
<g id="Node000006" class="node">
<title>Node6</title>
<g id="a_Node000006"><a xlink:href="_collision_manager_8h.html" target="_top" xlink:title="@TODO Add description of this file if needed">
<polygon fill="white" stroke="#666666" points="346.5,-132 248,-132 248,-112 346.5,-112 346.5,-132"/>
<text text-anchor="middle" x="297.25" y="-118.5" font-family="Helvetica,sans-Serif" font-size="10.00">CollisionManager.h</text>
</a>
</g>
</g>
<!-- Node2&#45;&gt;Node6 -->
<g id="edge5_Node000002_Node000006" class="edge">
<title>Node2&#45;&gt;Node6</title>
<g id="a_edge5_Node000002_Node000006"><a xlink:title=" ">
<path fill="none" stroke="#63b8ff" d="M330.85,-159.29C322.51,-150.28 312.71,-139.7 305.86,-132.3"/>
<polygon fill="#63b8ff" stroke="#63b8ff" points="328.15,-161.52 337.51,-166.48 333.29,-156.77 328.15,-161.52"/>
</a>
</g>
</g>
<!-- Node12 -->
<g id="Node000012" class="node">
<title>Node12</title>
<g id="a_Node000012"><a xlink:href="_physics_component_8h.html" target="_top" xlink:title="@TODO Add description of this file if needed">
<polygon fill="white" stroke="#666666" points="207.75,-76 98.75,-76 98.75,-56 207.75,-56 207.75,-76"/>
<text text-anchor="middle" x="153.25" y="-62.5" font-family="Helvetica,sans-Serif" font-size="10.00">PhysicsComponent.h</text>
</a>
</g>
</g>
<!-- Node2&#45;&gt;Node12 -->
<g id="edge14_Node000002_Node000012" class="edge">
<title>Node2&#45;&gt;Node12</title>
<g id="a_edge14_Node000002_Node000012"><a xlink:title=" ">
<path fill="none" stroke="#63b8ff" d="M308.74,-163.67C287.61,-155.69 261.3,-144.66 239.25,-132 210.03,-115.23 179.38,-89.91 163.76,-76.35"/>
<polygon fill="#63b8ff" stroke="#63b8ff" points="307.26,-166.85 317.85,-167.03 309.68,-160.29 307.26,-166.85"/>
</a>
</g>
</g>
<!-- Node2&#45;&gt;Node15 -->
<g id="edge19_Node000002_Node000015" class="edge">
<title>Node2&#45;&gt;Node15</title>
<g id="a_edge19_Node000002_Node000015"><a xlink:title=" ">
<path fill="none" stroke="#63b8ff" d="M386.78,-165.4C420.29,-155.56 467.74,-141.64 498.99,-132.47"/>
<polygon fill="#63b8ff" stroke="#63b8ff" points="386.06,-161.96 377.45,-168.14 388.03,-168.68 386.06,-161.96"/>
</a>
</g>
</g>
<!-- Node5 -->
<g id="Node000005" class="node">
<title>Node5</title>
<g id="a_Node000005"><a xlink:href="_physics_collision_system_8cpp.html" target="_top" xlink:title=" ">
<polygon fill="white" stroke="#666666" points="140.5,-20 0,-20 0,0 140.5,0 140.5,-20"/>
<text text-anchor="middle" x="70.25" y="-6.5" font-family="Helvetica,sans-Serif" font-size="10.00">PhysicsCollisionSystem.cpp</text>
</a>
</g>
</g>
<!-- Node4&#45;&gt;Node5 -->
<g id="edge4_Node000004_Node000005" class="edge">
<title>Node4&#45;&gt;Node5</title>
<g id="a_edge4_Node000004_Node000005"><a xlink:title=" ">
<path fill="none" stroke="#63b8ff" d="M69.6,-102.65C64.3,-94.89 58.96,-85.47 56.25,-76 50.67,-56.47 59.38,-33.07 65.37,-20.35"/>
<polygon fill="#63b8ff" stroke="#63b8ff" points="66.66,-104.56 75.41,-110.53 72.29,-100.41 66.66,-104.56"/>
</a>
</g>
</g>
<!-- Node6&#45;&gt;Node5 -->
<g id="edge10_Node000006_Node000005" class="edge">
<title>Node6&#45;&gt;Node5</title>
<g id="a_edge10_Node000006_Node000005"><a xlink:title=" ">
<path fill="none" stroke="#63b8ff" d="M236.87,-114.8C183.32,-108.11 110.39,-95.69 89.25,-76 73.59,-61.42 70.59,-34.72 70.17,-20.5"/>
<polygon fill="#63b8ff" stroke="#63b8ff" points="236.13,-118.24 246.48,-115.96 236.97,-111.29 236.13,-118.24"/>
</a>
</g>
</g>
<!-- Node7 -->
<g id="Node000007" class="node">
<title>Node7</title>
<g id="a_Node000007"><a xlink:href="_collision_manager_8cpp.html" target="_top" xlink:title="@TODO Add description of this file if needed">
<polygon fill="white" stroke="#666666" points="334.75,-76 225.75,-76 225.75,-56 334.75,-56 334.75,-76"/>
<text text-anchor="middle" x="280.25" y="-62.5" font-family="Helvetica,sans-Serif" font-size="10.00">CollisionManager.cpp</text>
</a>
</g>
</g>
<!-- Node6&#45;&gt;Node7 -->
<g id="edge6_Node000006_Node000007" class="edge">
<title>Node6&#45;&gt;Node7</title>
<g id="a_edge6_Node000006_Node000007"><a xlink:title=" ">
<path fill="none" stroke="#63b8ff" d="M290.86,-100.71C288.22,-92.32 285.29,-83.01 283.18,-76.3"/>
<polygon fill="#63b8ff" stroke="#63b8ff" points="287.49,-101.66 293.83,-110.15 294.17,-99.56 287.49,-101.66"/>
</a>
</g>
</g>
<!-- Node8 -->
<g id="Node000008" class="node">
<title>Node8</title>
<g id="a_Node000008"><a xlink:href="_g_l_e_s_c_8h.html" target="_top" xlink:title=" ">
<polygon fill="white" stroke="#666666" points="669.88,-76 612.62,-76 612.62,-56 669.88,-56 669.88,-76"/>
<text text-anchor="middle" x="641.25" y="-62.5" font-family="Helvetica,sans-Serif" font-size="10.00">GLESC.h</text>
</a>
</g>
</g>
<!-- Node6&#45;&gt;Node8 -->
<g id="edge7_Node000006_Node000008" class="edge">
<title>Node6&#45;&gt;Node8</title>
<g id="a_edge7_Node000006_Node000008"><a xlink:title=" ">
<path fill="none" stroke="#63b8ff" d="M358.14,-111.59C467.76,-95.52 498.01,-96.55 604.25,-76 606.85,-75.5 609.53,-74.93 612.22,-74.34"/>
<polygon fill="#63b8ff" stroke="#63b8ff" points="357.79,-108.11 348.42,-113.04 358.82,-115.03 357.79,-108.11"/>
</a>
</g>
</g>
<!-- Node11 -->
<g id="Node000011" class="node">
<title>Node11</title>
<g id="a_Node000011"><a xlink:href="_physics_collision_system_8h.html" target="_top" xlink:title=" ">
<polygon fill="white" stroke="#666666" points="483.25,-76 353.25,-76 353.25,-56 483.25,-56 483.25,-76"/>
<text text-anchor="middle" x="418.25" y="-62.5" font-family="Helvetica,sans-Serif" font-size="10.00">PhysicsCollisionSystem.h</text>
</a>
</g>
</g>
<!-- Node6&#45;&gt;Node11 -->
<g id="edge11_Node000006_Node000011" class="edge">
<title>Node6&#45;&gt;Node11</title>
<g id="a_edge11_Node000006_Node000011"><a xlink:title=" ">
<path fill="none" stroke="#63b8ff" d="M328.6,-107.01C350.11,-97.41 378.07,-84.93 397.01,-76.48"/>
<polygon fill="#63b8ff" stroke="#63b8ff" points="327.41,-103.71 319.71,-110.98 330.27,-110.1 327.41,-103.71"/>
</a>
</g>
</g>
<!-- Node9 -->
<g id="Node000009" class="node">
<title>Node9</title>
<g id="a_Node000009"><a xlink:href="_g_l_e_s_c_8cpp.html" target="_top" xlink:title=" ">
<polygon fill="white" stroke="#666666" points="524.12,-20 456.38,-20 456.38,0 524.12,0 524.12,-20"/>
<text text-anchor="middle" x="490.25" y="-6.5" font-family="Helvetica,sans-Serif" font-size="10.00">GLESC.cpp</text>
</a>
</g>
</g>
<!-- Node8&#45;&gt;Node9 -->
<g id="edge8_Node000008_Node000009" class="edge">
<title>Node8&#45;&gt;Node9</title>
<g id="a_edge8_Node000008_Node000009"><a xlink:title=" ">
<path fill="none" stroke="#63b8ff" d="M604.31,-51.79C577.21,-42.1 541.04,-29.16 516.76,-20.48"/>
<polygon fill="#63b8ff" stroke="#63b8ff" points="602.93,-55.01 613.52,-55.08 605.29,-48.42 602.93,-55.01"/>
</a>
</g>
</g>
<!-- Node10 -->
<g id="Node000010" class="node">
<title>Node10</title>
<g id="a_Node000010"><a xlink:href="main_8cpp.html" target="_top" xlink:title=" ">
<polygon fill="white" stroke="#666666" points="669.12,-20 613.38,-20 613.38,0 669.12,0 669.12,-20"/>
<text text-anchor="middle" x="641.25" y="-6.5" font-family="Helvetica,sans-Serif" font-size="10.00">main.cpp</text>
</a>
</g>
</g>
<!-- Node8&#45;&gt;Node10 -->
<g id="edge9_Node000008_Node000010" class="edge">
<title>Node8&#45;&gt;Node10</title>
<g id="a_edge9_Node000008_Node000010"><a xlink:title=" ">
<path fill="none" stroke="#63b8ff" d="M641.25,-44.13C641.25,-35.9 641.25,-26.85 641.25,-20.3"/>
<polygon fill="#63b8ff" stroke="#63b8ff" points="637.75,-44.08 641.25,-54.08 644.75,-44.08 637.75,-44.08"/>
</a>
</g>
</g>
<!-- Node11&#45;&gt;Node5 -->
<g id="edge13_Node000011_Node000005" class="edge">
<title>Node11&#45;&gt;Node5</title>
<g id="a_edge13_Node000011_Node000005"><a xlink:title=" ">
<path fill="none" stroke="#63b8ff" d="M346.11,-53.81C282.59,-43.95 191.12,-29.76 131.2,-20.46"/>
<polygon fill="#63b8ff" stroke="#63b8ff" points="345.32,-57.23 355.74,-55.3 346.39,-50.31 345.32,-57.23"/>
</a>
</g>
</g>
<!-- Node11&#45;&gt;Node9 -->
<g id="edge12_Node000011_Node000009" class="edge">
<title>Node11&#45;&gt;Node9</title>
<g id="a_edge12_Node000011_Node000009"><a xlink:title=" ">
<path fill="none" stroke="#63b8ff" d="M439.64,-48.95C452.1,-39.61 467.36,-28.16 477.85,-20.3"/>
<polygon fill="#63b8ff" stroke="#63b8ff" points="437.9,-45.89 432,-54.69 442.1,-51.49 437.9,-45.89"/>
</a>
</g>
</g>
<!-- Node12&#45;&gt;Node5 -->
<g id="edge17_Node000012_Node000005" class="edge">
<title>Node12&#45;&gt;Node5</title>
<g id="a_edge17_Node000012_Node000005"><a xlink:title=" ">
<path fill="none" stroke="#63b8ff" d="M129.49,-49.54C115.08,-40.17 97.16,-28.51 84.82,-20.48"/>
<polygon fill="#63b8ff" stroke="#63b8ff" points="127.23,-52.25 137.52,-54.77 131.05,-46.38 127.23,-52.25"/>
</a>
</g>
</g>
<!-- Node12&#45;&gt;Node9 -->
<g id="edge16_Node000012_Node000009" class="edge">
<title>Node12&#45;&gt;Node9</title>
<g id="a_edge16_Node000012_Node000009"><a xlink:title=" ">
<path fill="none" stroke="#63b8ff" d="M219.19,-54.43C290.23,-43.05 400.51,-25.38 455.95,-16.5"/>
<polygon fill="#63b8ff" stroke="#63b8ff" points="218.96,-50.93 209.64,-55.96 220.07,-57.84 218.96,-50.93"/>
</a>
</g>
</g>
<!-- Node13 -->
<g id="Node000013" class="node">
<title>Node13</title>
<g id="a_Node000013"><a xlink:href="_engine_camera_8cpp.html" target="_top" xlink:title="@TODO Add description of this file if needed">
<polygon fill="white" stroke="#666666" points="257.5,-20 159,-20 159,0 257.5,0 257.5,-20"/>
<text text-anchor="middle" x="208.25" y="-6.5" font-family="Helvetica,sans-Serif" font-size="10.00">EngineCamera.cpp</text>
</a>
</g>
</g>
<!-- Node12&#45;&gt;Node13 -->
<g id="edge15_Node000012_Node000013" class="edge">
<title>Node12&#45;&gt;Node13</title>
<g id="a_edge15_Node000012_Node000013"><a xlink:title=" ">
<path fill="none" stroke="#63b8ff" d="M171.01,-47.57C180.24,-38.5 191.16,-27.78 198.78,-20.3"/>
<polygon fill="#63b8ff" stroke="#63b8ff" points="168.59,-45.03 163.91,-54.53 173.5,-50.03 168.59,-45.03"/>
</a>
</g>
</g>
<!-- Node14 -->
<g id="Node000014" class="node">
<title>Node14</title>
<g id="a_Node000014"><a xlink:href="_physics_system_8cpp.html" target="_top" xlink:title="@TODO Add description of this file if needed">
<polygon fill="white" stroke="#666666" points="409.12,-20 305.38,-20 305.38,0 409.12,0 409.12,-20"/>
<text text-anchor="middle" x="357.25" y="-6.5" font-family="Helvetica,sans-Serif" font-size="10.00">PhysicsSystem.cpp</text>
</a>
</g>
</g>
<!-- Node12&#45;&gt;Node14 -->
<g id="edge18_Node000012_Node000014" class="edge">
<title>Node12&#45;&gt;Node14</title>
<g id="a_edge18_Node000012_Node000014"><a xlink:title=" ">
<path fill="none" stroke="#63b8ff" d="M199.77,-52.69C236.71,-42.91 287.62,-29.43 321.44,-20.48"/>
<polygon fill="#63b8ff" stroke="#63b8ff" points="199.02,-49.26 190.25,-55.21 200.81,-56.03 199.02,-49.26"/>
</a>
</g>
</g>
<!-- Node15&#45;&gt;Node8 -->
<g id="edge20_Node000015_Node000008" class="edge">
<title>Node15&#45;&gt;Node8</title>
<g id="a_edge20_Node000015_Node000008"><a xlink:title=" ">
<path fill="none" stroke="#63b8ff" d="M560.56,-106.61C580,-97.07 604.96,-84.81 621.94,-76.48"/>
<polygon fill="#63b8ff" stroke="#63b8ff" points="559.2,-103.38 551.77,-110.93 562.29,-109.66 559.2,-103.38"/>
</a>
</g>
</g>
<!-- Node15&#45;&gt;Node11 -->
<g id="edge21_Node000015_Node000011" class="edge">
<title>Node15&#45;&gt;Node11</title>
<g id="a_edge21_Node000015_Node000011"><a xlink:title=" ">
<path fill="none" stroke="#63b8ff" d="M501.42,-106.75C481.41,-97.18 455.61,-84.85 438.09,-76.48"/>
<polygon fill="#63b8ff" stroke="#63b8ff" points="499.67,-109.79 510.2,-110.94 502.69,-103.47 499.67,-109.79"/>
</a>
</g>
</g>
<!-- Node16 -->
<g id="Node000016" class="node">
<title>Node16</title>
<g id="a_Node000016"><a xlink:href="_physics_manager_8cpp.html" target="_top" xlink:title=" ">
<polygon fill="white" stroke="#666666" points="795,-76 687.5,-76 687.5,-56 795,-56 795,-76"/>
<text text-anchor="middle" x="741.25" y="-62.5" font-family="Helvetica,sans-Serif" font-size="10.00">PhysicsManager.cpp</text>
</a>
</g>
</g>
<!-- Node15&#45;&gt;Node16 -->
<g id="edge22_Node000015_Node000016" class="edge">
<title>Node15&#45;&gt;Node16</title>
<g id="a_edge22_Node000015_Node000016"><a xlink:title=" ">
<path fill="none" stroke="#63b8ff" d="M578.64,-108.81C616.72,-99.02 669.42,-85.47 704.39,-76.48"/>
<polygon fill="#63b8ff" stroke="#63b8ff" points="578.11,-105.34 569.3,-111.22 579.85,-112.12 578.11,-105.34"/>
</a>
</g>
</g>
<!-- Node17 -->
<g id="Node000017" class="node">
<title>Node17</title>
<g id="a_Node000017"><a xlink:href="_physics_system_8h.html" target="_top" xlink:title="System that updates the physics of the entities.">
<polygon fill="white" stroke="#666666" points="594.88,-76 501.62,-76 501.62,-56 594.88,-56 594.88,-76"/>
<text text-anchor="middle" x="548.25" y="-62.5" font-family="Helvetica,sans-Serif" font-size="10.00">PhysicsSystem.h</text>
</a>
</g>
</g>
<!-- Node15&#45;&gt;Node17 -->
<g id="edge23_Node000015_Node000017" class="edge">
<title>Node15&#45;&gt;Node17</title>
<g id="a_edge23_Node000015_Node000017"><a xlink:title=" ">
<path fill="none" stroke="#63b8ff" d="M537.64,-100.71C540.28,-92.32 543.21,-83.01 545.32,-76.3"/>
<polygon fill="#63b8ff" stroke="#63b8ff" points="534.33,-99.56 534.67,-110.15 541.01,-101.66 534.33,-99.56"/>
</a>
</g>
</g>
<!-- Node17&#45;&gt;Node9 -->
<g id="edge24_Node000017_Node000009" class="edge">
<title>Node17&#45;&gt;Node9</title>
<g id="a_edge24_Node000017_Node000009"><a xlink:title=" ">
<path fill="none" stroke="#63b8ff" d="M529.83,-47.85C520.02,-38.72 508.35,-27.86 500.24,-20.3"/>
<polygon fill="#63b8ff" stroke="#63b8ff" points="527.34,-50.31 537.04,-54.56 532.11,-45.19 527.34,-50.31"/>
</a>
</g>
</g>
<!-- Node17&#45;&gt;Node14 -->
<g id="edge25_Node000017_Node000014" class="edge">
<title>Node17&#45;&gt;Node14</title>
<g id="a_edge25_Node000017_Node000014"><a xlink:title=" ">
<path fill="none" stroke="#63b8ff" d="M504.25,-52.56C469.69,-42.79 422.31,-29.39 390.78,-20.48"/>
<polygon fill="#63b8ff" stroke="#63b8ff" points="502.95,-55.83 513.52,-55.18 504.85,-49.09 502.95,-55.83"/>
</a>
</g>
</g>
</g>
</svg>
