<?xml version="1.0" encoding="UTF-8" standalone="no"?>
<!DOCTYPE svg PUBLIC "-//W3C//DTD SVG 1.1//EN"
 "http://www.w3.org/Graphics/SVG/1.1/DTD/svg11.dtd">
<!-- Generated by graphviz version 11.0.0 (20240428.1522)
 -->
<!-- Title: Collider.h Pages: 1 -->
<svg width="777pt" height="196pt"
 viewBox="0.00 0.00 777.00 196.00" xmlns="http://www.w3.org/2000/svg" xmlns:xlink="http://www.w3.org/1999/xlink">
<g id="graph0" class="graph" transform="scale(1 1) rotate(0) translate(4 192)">
<title>Collider.h</title>
<!-- Node1 -->
<g id="Node000001" class="node">
<title>Node1</title>
<g id="a_Node000001"><a xlink:title="@TODO Add description of this file if needed">
<polygon fill="#999999" stroke="#666666" points="291.75,-188 235.25,-188 235.25,-168 291.75,-168 291.75,-188"/>
<text text-anchor="middle" x="263.5" y="-174.5" font-family="Helvetica,sans-Serif" font-size="10.00">Collider.h</text>
</a>
</g>
</g>
<!-- Node2 -->
<g id="Node000002" class="node">
<title>Node2</title>
<g id="a_Node000002"><a xlink:href="_collider_8cpp.html" target="_top" xlink:title="@TODO Add description of this file if needed">
<polygon fill="white" stroke="#666666" points="67,-132 0,-132 0,-112 67,-112 67,-132"/>
<text text-anchor="middle" x="33.5" y="-118.5" font-family="Helvetica,sans-Serif" font-size="10.00">Collider.cpp</text>
</a>
</g>
</g>
<!-- Node1&#45;&gt;Node2 -->
<g id="edge1_Node000001_Node000002" class="edge">
<title>Node1&#45;&gt;Node2</title>
<g id="a_edge1_Node000001_Node000002"><a xlink:title=" ">
<path fill="none" stroke="#63b8ff" d="M223.66,-167.65C179.5,-157.28 109.01,-140.73 67.39,-130.96"/>
<polygon fill="#63b8ff" stroke="#63b8ff" points="222.83,-171.05 233.36,-169.92 224.43,-164.23 222.83,-171.05"/>
</a>
</g>
</g>
<!-- Node3 -->
<g id="Node000003" class="node">
<title>Node3</title>
<g id="a_Node000003"><a xlink:href="_collision_component_8h.html" target="_top" xlink:title="@TODO Add description of this file if needed">
<polygon fill="white" stroke="#666666" points="195.75,-132 85.25,-132 85.25,-112 195.75,-112 195.75,-132"/>
<text text-anchor="middle" x="140.5" y="-118.5" font-family="Helvetica,sans-Serif" font-size="10.00">CollisionComponent.h</text>
</a>
</g>
</g>
<!-- Node1&#45;&gt;Node3 -->
<g id="edge2_Node000001_Node000003" class="edge">
<title>Node1&#45;&gt;Node3</title>
<g id="a_edge2_Node000001_Node000003"><a xlink:title=" ">
<path fill="none" stroke="#63b8ff" d="M231.63,-163.01C209.77,-153.41 181.34,-140.93 162.09,-132.48"/>
<polygon fill="#63b8ff" stroke="#63b8ff" points="230.13,-166.17 240.69,-166.99 232.94,-159.76 230.13,-166.17"/>
</a>
</g>
</g>
<!-- Node5 -->
<g id="Node000005" class="node">
<title>Node5</title>
<g id="a_Node000005"><a xlink:href="_collision_manager_8h.html" target="_top" xlink:title="@TODO Add description of this file if needed">
<polygon fill="white" stroke="#666666" points="312.75,-132 214.25,-132 214.25,-112 312.75,-112 312.75,-132"/>
<text text-anchor="middle" x="263.5" y="-118.5" font-family="Helvetica,sans-Serif" font-size="10.00">CollisionManager.h</text>
</a>
</g>
</g>
<!-- Node1&#45;&gt;Node5 -->
<g id="edge4_Node000001_Node000005" class="edge">
<title>Node1&#45;&gt;Node5</title>
<g id="a_edge4_Node000001_Node000005"><a xlink:title=" ">
<path fill="none" stroke="#63b8ff" d="M263.5,-156.13C263.5,-147.9 263.5,-138.85 263.5,-132.3"/>
<polygon fill="#63b8ff" stroke="#63b8ff" points="260,-156.08 263.5,-166.08 267,-156.08 260,-156.08"/>
</a>
</g>
</g>
<!-- Node11 -->
<g id="Node000011" class="node">
<title>Node11</title>
<g id="a_Node000011"><a xlink:href="_physics_component_8h.html" target="_top" xlink:title="@TODO Add description of this file if needed">
<polygon fill="white" stroke="#666666" points="769,-76 660,-76 660,-56 769,-56 769,-76"/>
<text text-anchor="middle" x="714.5" y="-62.5" font-family="Helvetica,sans-Serif" font-size="10.00">PhysicsComponent.h</text>
</a>
</g>
</g>
<!-- Node1&#45;&gt;Node11 -->
<g id="edge13_Node000001_Node000011" class="edge">
<title>Node1&#45;&gt;Node11</title>
<g id="a_edge13_Node000001_Node000011"><a xlink:title=" ">
<path fill="none" stroke="#63b8ff" d="M303.12,-167.34C388.9,-146.41 590.91,-97.15 675.82,-76.43"/>
<polygon fill="#63b8ff" stroke="#63b8ff" points="302.41,-163.91 293.52,-169.68 304.07,-170.71 302.41,-163.91"/>
</a>
</g>
</g>
<!-- Node14 -->
<g id="Node000014" class="node">
<title>Node14</title>
<g id="a_Node000014"><a xlink:href="_physics_manager_8h.html" target="_top" xlink:title="@TODO Add description of this file if needed">
<polygon fill="white" stroke="#666666" points="428,-132 331,-132 331,-112 428,-112 428,-132"/>
<text text-anchor="middle" x="379.5" y="-118.5" font-family="Helvetica,sans-Serif" font-size="10.00">PhysicsManager.h</text>
</a>
</g>
</g>
<!-- Node1&#45;&gt;Node14 -->
<g id="edge18_Node000001_Node000014" class="edge">
<title>Node1&#45;&gt;Node14</title>
<g id="a_edge18_Node000001_Node000014"><a xlink:title=" ">
<path fill="none" stroke="#63b8ff" d="M294.12,-162.75C314.66,-153.18 341.15,-140.85 359.14,-132.48"/>
<polygon fill="#63b8ff" stroke="#63b8ff" points="292.67,-159.56 285.08,-166.96 295.62,-165.91 292.67,-159.56"/>
</a>
</g>
</g>
<!-- Node4 -->
<g id="Node000004" class="node">
<title>Node4</title>
<g id="a_Node000004"><a xlink:href="_physics_collision_system_8cpp.html" target="_top" xlink:title=" ">
<polygon fill="white" stroke="#666666" points="223.75,-20 83.25,-20 83.25,0 223.75,0 223.75,-20"/>
<text text-anchor="middle" x="153.5" y="-6.5" font-family="Helvetica,sans-Serif" font-size="10.00">PhysicsCollisionSystem.cpp</text>
</a>
</g>
</g>
<!-- Node3&#45;&gt;Node4 -->
<g id="edge3_Node000003_Node000004" class="edge">
<title>Node3&#45;&gt;Node4</title>
<g id="a_edge3_Node000003_Node000004"><a xlink:title=" ">
<path fill="none" stroke="#63b8ff" d="M81.59,-108.54C46.84,-98.29 12.82,-81.29 30.5,-56 43.2,-37.83 64.07,-26.97 85.04,-20.49"/>
<polygon fill="#63b8ff" stroke="#63b8ff" points="80.31,-111.82 90.88,-111.1 82.17,-105.07 80.31,-111.82"/>
</a>
</g>
</g>
<!-- Node5&#45;&gt;Node4 -->
<g id="edge9_Node000005_Node000004" class="edge">
<title>Node5&#45;&gt;Node4</title>
<g id="a_edge9_Node000005_Node000004"><a xlink:title=" ">
<path fill="none" stroke="#63b8ff" d="M202.97,-111.28C147.39,-101.74 72.34,-87.05 63.5,-76 43.69,-51.24 86.5,-31.46 119.64,-20.49"/>
<polygon fill="#63b8ff" stroke="#63b8ff" points="202.21,-114.7 212.66,-112.92 203.38,-107.8 202.21,-114.7"/>
</a>
</g>
</g>
<!-- Node6 -->
<g id="Node000006" class="node">
<title>Node6</title>
<g id="a_Node000006"><a xlink:href="_collision_manager_8cpp.html" target="_top" xlink:title="@TODO Add description of this file if needed">
<polygon fill="white" stroke="#666666" points="182,-76 73,-76 73,-56 182,-56 182,-76"/>
<text text-anchor="middle" x="127.5" y="-62.5" font-family="Helvetica,sans-Serif" font-size="10.00">CollisionManager.cpp</text>
</a>
</g>
</g>
<!-- Node5&#45;&gt;Node6 -->
<g id="edge5_Node000005_Node000006" class="edge">
<title>Node5&#45;&gt;Node6</title>
<g id="a_edge5_Node000005_Node000006"><a xlink:title=" ">
<path fill="none" stroke="#63b8ff" d="M229.25,-107.4C204.95,-97.75 172.95,-85.05 151.37,-76.48"/>
<polygon fill="#63b8ff" stroke="#63b8ff" points="227.82,-110.6 238.4,-111.04 230.4,-104.09 227.82,-110.6"/>
</a>
</g>
</g>
<!-- Node7 -->
<g id="Node000007" class="node">
<title>Node7</title>
<g id="a_Node000007"><a xlink:href="_g_l_e_s_c_8h.html" target="_top" xlink:title=" ">
<polygon fill="white" stroke="#666666" points="406.12,-76 348.88,-76 348.88,-56 406.12,-56 406.12,-76"/>
<text text-anchor="middle" x="377.5" y="-62.5" font-family="Helvetica,sans-Serif" font-size="10.00">GLESC.h</text>
</a>
</g>
</g>
<!-- Node5&#45;&gt;Node7 -->
<g id="edge6_Node000005_Node000007" class="edge">
<title>Node5&#45;&gt;Node7</title>
<g id="a_edge6_Node000005_Node000007"><a xlink:title=" ">
<path fill="none" stroke="#63b8ff" d="M293.59,-106.75C313.78,-97.18 339.81,-84.85 357.49,-76.48"/>
<polygon fill="#63b8ff" stroke="#63b8ff" points="292.26,-103.5 284.73,-110.95 295.26,-109.83 292.26,-103.5"/>
</a>
</g>
</g>
<!-- Node10 -->
<g id="Node000010" class="node">
<title>Node10</title>
<g id="a_Node000010"><a xlink:href="_physics_collision_system_8h.html" target="_top" xlink:title=" ">
<polygon fill="white" stroke="#666666" points="330.5,-76 200.5,-76 200.5,-56 330.5,-56 330.5,-76"/>
<text text-anchor="middle" x="265.5" y="-62.5" font-family="Helvetica,sans-Serif" font-size="10.00">PhysicsCollisionSystem.h</text>
</a>
</g>
</g>
<!-- Node5&#45;&gt;Node10 -->
<g id="edge10_Node000005_Node000010" class="edge">
<title>Node5&#45;&gt;Node10</title>
<g id="a_edge10_Node000005_Node000010"><a xlink:title=" ">
<path fill="none" stroke="#63b8ff" d="M264.27,-100.13C264.58,-91.9 264.91,-82.85 265.16,-76.3"/>
<polygon fill="#63b8ff" stroke="#63b8ff" points="260.78,-99.96 263.9,-110.08 267.77,-100.22 260.78,-99.96"/>
</a>
</g>
</g>
<!-- Node8 -->
<g id="Node000008" class="node">
<title>Node8</title>
<g id="a_Node000008"><a xlink:href="_g_l_e_s_c_8cpp.html" target="_top" xlink:title=" ">
<polygon fill="white" stroke="#666666" points="498.38,-20 430.62,-20 430.62,0 498.38,0 498.38,-20"/>
<text text-anchor="middle" x="464.5" y="-6.5" font-family="Helvetica,sans-Serif" font-size="10.00">GLESC.cpp</text>
</a>
</g>
</g>
<!-- Node7&#45;&gt;Node8 -->
<g id="edge7_Node000007_Node000008" class="edge">
<title>Node7&#45;&gt;Node8</title>
<g id="a_edge7_Node000007_Node000008"><a xlink:title=" ">
<path fill="none" stroke="#63b8ff" d="M402.4,-49.54C417.51,-40.17 436.3,-28.51 449.23,-20.48"/>
<polygon fill="#63b8ff" stroke="#63b8ff" points="400.59,-46.55 393.94,-54.8 404.28,-52.5 400.59,-46.55"/>
</a>
</g>
</g>
<!-- Node9 -->
<g id="Node000009" class="node">
<title>Node9</title>
<g id="a_Node000009"><a xlink:href="src_2engine_2main_8cpp.html" target="_top" xlink:title=" ">
<polygon fill="white" stroke="#666666" points="405.38,-20 349.62,-20 349.62,0 405.38,0 405.38,-20"/>
<text text-anchor="middle" x="377.5" y="-6.5" font-family="Helvetica,sans-Serif" font-size="10.00">main.cpp</text>
</a>
</g>
</g>
<!-- Node7&#45;&gt;Node9 -->
<g id="edge8_Node000007_Node000009" class="edge">
<title>Node7&#45;&gt;Node9</title>
<g id="a_edge8_Node000007_Node000009"><a xlink:title=" ">
<path fill="none" stroke="#63b8ff" d="M377.5,-44.13C377.5,-35.9 377.5,-26.85 377.5,-20.3"/>
<polygon fill="#63b8ff" stroke="#63b8ff" points="374,-44.08 377.5,-54.08 381,-44.08 374,-44.08"/>
</a>
</g>
</g>
<!-- Node10&#45;&gt;Node4 -->
<g id="edge12_Node000010_Node000004" class="edge">
<title>Node10&#45;&gt;Node4</title>
<g id="a_edge12_Node000010_Node000004"><a xlink:title=" ">
<path fill="none" stroke="#63b8ff" d="M235.66,-50.61C215.87,-41.07 190.45,-28.81 173.16,-20.48"/>
<polygon fill="#63b8ff" stroke="#63b8ff" points="234.1,-53.75 244.63,-54.94 237.14,-47.44 234.1,-53.75"/>
</a>
</g>
</g>
<!-- Node10&#45;&gt;Node8 -->
<g id="edge11_Node000010_Node000008" class="edge">
<title>Node10&#45;&gt;Node8</title>
<g id="a_edge11_Node000010_Node000008"><a xlink:title=" ">
<path fill="none" stroke="#63b8ff" d="M310.95,-52.67C347.23,-42.82 397.27,-29.24 430.23,-20.3"/>
<polygon fill="#63b8ff" stroke="#63b8ff" points="310.36,-49.2 301.62,-55.2 312.19,-55.96 310.36,-49.2"/>
</a>
</g>
</g>
<!-- Node11&#45;&gt;Node4 -->
<g id="edge16_Node000011_Node000004" class="edge">
<title>Node11&#45;&gt;Node4</title>
<g id="a_edge16_Node000011_Node000004"><a xlink:title=" ">
<path fill="none" stroke="#63b8ff" d="M648.27,-55.67C491.19,-37.61 318.5,-23.46 224.13,-16.22"/>
<polygon fill="#63b8ff" stroke="#63b8ff" points="647.71,-59.13 658.04,-56.8 648.51,-52.18 647.71,-59.13"/>
</a>
</g>
</g>
<!-- Node11&#45;&gt;Node8 -->
<g id="edge15_Node000011_Node000008" class="edge">
<title>Node11&#45;&gt;Node8</title>
<g id="a_edge15_Node000011_Node000008"><a xlink:title=" ">
<path fill="none" stroke="#63b8ff" d="M659.61,-53.14C610.51,-42.54 540.08,-27.33 498.64,-18.37"/>
<polygon fill="#63b8ff" stroke="#63b8ff" points="658.67,-56.52 669.19,-55.21 660.15,-49.68 658.67,-56.52"/>
</a>
</g>
</g>
<!-- Node12 -->
<g id="Node000012" class="node">
<title>Node12</title>
<g id="a_Node000012"><a xlink:href="_engine_camera_8cpp.html" target="_top" xlink:title="@TODO Add description of this file if needed">
<polygon fill="white" stroke="#666666" points="763.75,-20 665.25,-20 665.25,0 763.75,0 763.75,-20"/>
<text text-anchor="middle" x="714.5" y="-6.5" font-family="Helvetica,sans-Serif" font-size="10.00">EngineCamera.cpp</text>
</a>
</g>
</g>
<!-- Node11&#45;&gt;Node12 -->
<g id="edge14_Node000011_Node000012" class="edge">
<title>Node11&#45;&gt;Node12</title>
<g id="a_edge14_Node000011_Node000012"><a xlink:title=" ">
<path fill="none" stroke="#63b8ff" d="M714.5,-44.13C714.5,-35.9 714.5,-26.85 714.5,-20.3"/>
<polygon fill="#63b8ff" stroke="#63b8ff" points="711,-44.08 714.5,-54.08 718,-44.08 711,-44.08"/>
</a>
</g>
</g>
<!-- Node13 -->
<g id="Node000013" class="node">
<title>Node13</title>
<g id="a_Node000013"><a xlink:href="_physics_system_8cpp.html" target="_top" xlink:title="@TODO Add description of this file if needed">
<polygon fill="white" stroke="#666666" points="634.38,-20 530.62,-20 530.62,0 634.38,0 634.38,-20"/>
<text text-anchor="middle" x="582.5" y="-6.5" font-family="Helvetica,sans-Serif" font-size="10.00">PhysicsSystem.cpp</text>
</a>
</g>
</g>
<!-- Node11&#45;&gt;Node13 -->
<g id="edge17_Node000011_Node000013" class="edge">
<title>Node11&#45;&gt;Node13</title>
<g id="a_edge17_Node000011_Node000013"><a xlink:title=" ">
<path fill="none" stroke="#63b8ff" d="M680.94,-51.27C657.4,-41.64 626.52,-29.01 605.67,-20.48"/>
<polygon fill="#63b8ff" stroke="#63b8ff" points="679.53,-54.47 690.11,-55.02 682.18,-48 679.53,-54.47"/>
</a>
</g>
</g>
<!-- Node14&#45;&gt;Node7 -->
<g id="edge19_Node000014_Node000007" class="edge">
<title>Node14&#45;&gt;Node7</title>
<g id="a_edge19_Node000014_Node000007"><a xlink:title=" ">
<path fill="none" stroke="#63b8ff" d="M378.73,-100.13C378.42,-91.9 378.09,-82.85 377.84,-76.3"/>
<polygon fill="#63b8ff" stroke="#63b8ff" points="375.23,-100.22 379.1,-110.08 382.22,-99.96 375.23,-100.22"/>
</a>
</g>
</g>
<!-- Node14&#45;&gt;Node10 -->
<g id="edge20_Node000014_Node000010" class="edge">
<title>Node14&#45;&gt;Node10</title>
<g id="a_edge20_Node000014_Node000010"><a xlink:title=" ">
<path fill="none" stroke="#63b8ff" d="M349.41,-106.75C329.22,-97.18 303.19,-84.85 285.51,-76.48"/>
<polygon fill="#63b8ff" stroke="#63b8ff" points="347.74,-109.83 358.27,-110.95 350.74,-103.5 347.74,-109.83"/>
</a>
</g>
</g>
<!-- Node15 -->
<g id="Node000015" class="node">
<title>Node15</title>
<g id="a_Node000015"><a xlink:href="_physics_manager_8cpp.html" target="_top" xlink:title=" ">
<polygon fill="white" stroke="#666666" points="642.25,-76 534.75,-76 534.75,-56 642.25,-56 642.25,-76"/>
<text text-anchor="middle" x="588.5" y="-62.5" font-family="Helvetica,sans-Serif" font-size="10.00">PhysicsManager.cpp</text>
</a>
</g>
</g>
<!-- Node14&#45;&gt;Node15 -->
<g id="edge21_Node000014_Node000015" class="edge">
<title>Node14&#45;&gt;Node15</title>
<g id="a_edge21_Node000014_Node000015"><a xlink:title=" ">
<path fill="none" stroke="#63b8ff" d="M426.67,-108.81C464.56,-99.02 517.01,-85.47 551.81,-76.48"/>
<polygon fill="#63b8ff" stroke="#63b8ff" points="426.18,-105.32 417.37,-111.22 427.93,-112.1 426.18,-105.32"/>
</a>
</g>
</g>
<!-- Node16 -->
<g id="Node000016" class="node">
<title>Node16</title>
<g id="a_Node000016"><a xlink:href="_physics_system_8h.html" target="_top" xlink:title="System that updates the physics of the entities.">
<polygon fill="white" stroke="#666666" points="517.12,-76 423.88,-76 423.88,-56 517.12,-56 517.12,-76"/>
<text text-anchor="middle" x="470.5" y="-62.5" font-family="Helvetica,sans-Serif" font-size="10.00">PhysicsSystem.h</text>
</a>
</g>
</g>
<!-- Node14&#45;&gt;Node16 -->
<g id="edge22_Node000014_Node000016" class="edge">
<title>Node14&#45;&gt;Node16</title>
<g id="a_edge22_Node000014_Node000016"><a xlink:title=" ">
<path fill="none" stroke="#63b8ff" d="M405.1,-105.81C420.97,-96.39 440.87,-84.58 454.53,-76.48"/>
<polygon fill="#63b8ff" stroke="#63b8ff" points="403.47,-102.71 396.65,-110.82 407.04,-108.73 403.47,-102.71"/>
</a>
</g>
</g>
<!-- Node16&#45;&gt;Node8 -->
<g id="edge23_Node000016_Node000008" class="edge">
<title>Node16&#45;&gt;Node8</title>
<g id="a_edge23_Node000016_Node000008"><a xlink:title=" ">
<path fill="none" stroke="#63b8ff" d="M468.21,-44.43C467.29,-36.11 466.27,-26.93 465.53,-20.3"/>
<polygon fill="#63b8ff" stroke="#63b8ff" points="464.7,-44.54 469.29,-54.09 471.66,-43.76 464.7,-44.54"/>
</a>
</g>
</g>
<!-- Node16&#45;&gt;Node13 -->
<g id="edge24_Node000016_Node000013" class="edge">
<title>Node16&#45;&gt;Node13</title>
<g id="a_edge24_Node000016_Node000013"><a xlink:title=" ">
<path fill="none" stroke="#63b8ff" d="M500.34,-50.61C520.13,-41.07 545.55,-28.81 562.84,-20.48"/>
<polygon fill="#63b8ff" stroke="#63b8ff" points="498.86,-47.44 491.37,-54.94 501.9,-53.75 498.86,-47.44"/>
</a>
</g>
</g>
</g>
</svg>
