<?xml version="1.0" encoding="UTF-8" standalone="no"?>
<!DOCTYPE svg PUBLIC "-//W3C//DTD SVG 1.1//EN"
 "http://www.w3.org/Graphics/SVG/1.1/DTD/svg11.dtd">
<!-- Generated by graphviz version 11.0.0 (20240428.1522)
 -->
<!-- Title: ComponentArray.h Pages: 1 -->
<svg width="1359pt" height="344pt"
 viewBox="0.00 0.00 1358.62 344.00" xmlns="http://www.w3.org/2000/svg" xmlns:xlink="http://www.w3.org/1999/xlink">
<g id="graph0" class="graph" transform="scale(1 1) rotate(0) translate(4 340)">
<title>ComponentArray.h</title>
<!-- Node1 -->
<g id="Node000001" class="node">
<title>Node1</title>
<g id="a_Node000001"><a xlink:title="@TODO Add description of this file if needed">
<polygon fill="#999999" stroke="#666666" points="763.12,-336 666.12,-336 666.12,-316 763.12,-316 763.12,-336"/>
<text text-anchor="middle" x="714.62" y="-322.5" font-family="Helvetica,sans-Serif" font-size="10.00">ComponentArray.h</text>
</a>
</g>
</g>
<!-- Node2 -->
<g id="Node000002" class="node">
<title>Node2</title>
<g id="a_Node000002"><a xlink:href="_asserts_8h.html" target="_top" xlink:title="Set of macros for runtime and compile time assertions.">
<polygon fill="white" stroke="#666666" points="427.38,-280 325.88,-280 325.88,-248 427.38,-248 427.38,-280"/>
<text text-anchor="start" x="333.88" y="-266.5" font-family="Helvetica,sans-Serif" font-size="10.00">engine/core/asserts</text>
<text text-anchor="middle" x="376.62" y="-254.5" font-family="Helvetica,sans-Serif" font-size="10.00">/Asserts.h</text>
</a>
</g>
</g>
<!-- Node1&#45;&gt;Node2 -->
<g id="edge1_Node000001_Node000002" class="edge">
<title>Node1&#45;&gt;Node2</title>
<g id="a_edge1_Node000001_Node000002"><a xlink:title=" ">
<path fill="none" stroke="#63b8ff" d="M665.84,-316.34C605.87,-305.69 504.03,-287.62 438.59,-276"/>
<polygon fill="#63b8ff" stroke="#63b8ff" points="439.56,-272.62 429.1,-274.32 438.33,-279.51 439.56,-272.62"/>
</a>
</g>
</g>
<!-- Node16 -->
<g id="Node000016" class="node">
<title>Node16</title>
<g id="a_Node000016"><a xlink:href="_logger_8h.html" target="_top" xlink:title="@TODO Add description of this file if needed">
<polygon fill="white" stroke="#666666" points="972.38,-212 876.88,-212 876.88,-180 972.38,-180 972.38,-212"/>
<text text-anchor="start" x="884.88" y="-198.5" font-family="Helvetica,sans-Serif" font-size="10.00">engine/core/logger</text>
<text text-anchor="middle" x="924.62" y="-186.5" font-family="Helvetica,sans-Serif" font-size="10.00">/Logger.h</text>
</a>
</g>
</g>
<!-- Node1&#45;&gt;Node16 -->
<g id="edge38_Node000001_Node000016" class="edge">
<title>Node1&#45;&gt;Node16</title>
<g id="a_edge38_Node000001_Node000016"><a xlink:title=" ">
<path fill="none" stroke="#63b8ff" d="M730.07,-315.59C763.51,-295.2 843.36,-246.53 889.7,-218.29"/>
<polygon fill="#63b8ff" stroke="#63b8ff" points="891.32,-221.4 898.04,-213.21 887.67,-215.42 891.32,-221.4"/>
</a>
</g>
</g>
<!-- Node27 -->
<g id="Node000027" class="node">
<title>Node27</title>
<g id="a_Node000027"><a xlink:href="_e_c_s_types_8h.html" target="_top" xlink:title="@TODO Add description of this file if needed">
<polygon fill="white" stroke="#666666" points="1227.12,-206 1106.12,-206 1106.12,-186 1227.12,-186 1227.12,-206"/>
<text text-anchor="middle" x="1166.62" y="-192.5" font-family="Helvetica,sans-Serif" font-size="10.00">engine/ecs/ECSTypes.h</text>
</a>
</g>
</g>
<!-- Node1&#45;&gt;Node27 -->
<g id="edge33_Node000001_Node000027" class="edge">
<title>Node1&#45;&gt;Node27</title>
<g id="a_edge33_Node000001_Node000027"><a xlink:title=" ">
<path fill="none" stroke="#63b8ff" d="M747.86,-315.59C828.02,-292.89 1032.02,-235.12 1122.39,-209.53"/>
<polygon fill="#63b8ff" stroke="#63b8ff" points="1123.22,-212.93 1131.88,-206.84 1121.31,-206.2 1123.22,-212.93"/>
</a>
</g>
</g>
<!-- Node30 -->
<g id="Node000030" class="node">
<title>Node30</title>
<g id="a_Node000030"><a xlink:href="_i_component_8h.html" target="_top" xlink:title=" ">
<polygon fill="white" stroke="#666666" points="719.62,-274 643.62,-274 643.62,-254 719.62,-254 719.62,-274"/>
<text text-anchor="middle" x="681.62" y="-260.5" font-family="Helvetica,sans-Serif" font-size="10.00">IComponent.h</text>
</a>
</g>
</g>
<!-- Node1&#45;&gt;Node30 -->
<g id="edge39_Node000001_Node000030" class="edge">
<title>Node1&#45;&gt;Node30</title>
<g id="a_edge39_Node000001_Node000030"><a xlink:title=" ">
<path fill="none" stroke="#63b8ff" d="M709.47,-315.62C704.84,-307.21 697.9,-294.6 692.11,-284.07"/>
<polygon fill="#63b8ff" stroke="#63b8ff" points="695.25,-282.51 687.37,-275.44 689.12,-285.89 695.25,-282.51"/>
</a>
</g>
</g>
<!-- Node3 -->
<g id="Node000003" class="node">
<title>Node3</title>
<g id="a_Node000003"><a xlink:title=" ">
<polygon fill="#e0e0e0" stroke="#999999" points="208.12,-206 165.12,-206 165.12,-186 208.12,-186 208.12,-206"/>
<text text-anchor="middle" x="186.62" y="-192.5" font-family="Helvetica,sans-Serif" font-size="10.00">cmath</text>
</a>
</g>
</g>
<!-- Node2&#45;&gt;Node3 -->
<g id="edge2_Node000002_Node000003" class="edge">
<title>Node2&#45;&gt;Node3</title>
<g id="a_edge2_Node000002_Node000003"><a xlink:title=" ">
<path fill="none" stroke="#63b8ff" d="M325.47,-248.9C293.7,-239.6 252.28,-226.49 216.62,-212 215.86,-211.69 215.08,-211.36 214.3,-211.03"/>
<polygon fill="#63b8ff" stroke="#63b8ff" points="216.1,-208.01 205.56,-206.98 213.16,-214.36 216.1,-208.01"/>
</a>
</g>
</g>
<!-- Node4 -->
<g id="Node000004" class="node">
<title>Node4</title>
<g id="a_Node000004"><a xlink:title=" ">
<polygon fill="#e0e0e0" stroke="#999999" points="265.25,-206 226,-206 226,-186 265.25,-186 265.25,-206"/>
<text text-anchor="middle" x="245.62" y="-192.5" font-family="Helvetica,sans-Serif" font-size="10.00">limits</text>
</a>
</g>
</g>
<!-- Node2&#45;&gt;Node4 -->
<g id="edge3_Node000002_Node000004" class="edge">
<title>Node2&#45;&gt;Node4</title>
<g id="a_edge3_Node000002_Node000004"><a xlink:title=" ">
<path fill="none" stroke="#63b8ff" d="M345.91,-247.53C324.3,-236.64 295.58,-222.17 274.41,-211.5"/>
<polygon fill="#63b8ff" stroke="#63b8ff" points="276.26,-208.51 265.75,-207.14 273.11,-214.77 276.26,-208.51"/>
</a>
</g>
</g>
<!-- Node5 -->
<g id="Node000005" class="node">
<title>Node5</title>
<g id="a_Node000005"><a xlink:title=" ">
<polygon fill="#e0e0e0" stroke="#999999" points="602.62,-20 562.62,-20 562.62,0 602.62,0 602.62,-20"/>
<text text-anchor="middle" x="582.62" y="-6.5" font-family="Helvetica,sans-Serif" font-size="10.00">string</text>
</a>
</g>
</g>
<!-- Node2&#45;&gt;Node5 -->
<g id="edge4_Node000002_Node000005" class="edge">
<title>Node2&#45;&gt;Node5</title>
<g id="a_edge4_Node000002_Node000005"><a xlink:title=" ">
<path fill="none" stroke="#63b8ff" d="M404.74,-247.65C438.28,-227.93 493.81,-190.62 525.62,-144 550.55,-107.47 568.15,-58.29 576.71,-31.13"/>
<polygon fill="#63b8ff" stroke="#63b8ff" points="580,-32.36 579.56,-21.77 573.3,-30.32 580,-32.36"/>
</a>
</g>
</g>
<!-- Node6 -->
<g id="Node000006" class="node">
<title>Node6</title>
<g id="a_Node000006"><a xlink:title=" ">
<polygon fill="#e0e0e0" stroke="#999999" points="219.5,-138 157.75,-138 157.75,-118 219.5,-118 219.5,-138"/>
<text text-anchor="middle" x="188.62" y="-124.5" font-family="Helvetica,sans-Serif" font-size="10.00">type_traits</text>
</a>
</g>
</g>
<!-- Node2&#45;&gt;Node6 -->
<g id="edge5_Node000002_Node000006" class="edge">
<title>Node2&#45;&gt;Node6</title>
<g id="a_edge5_Node000002_Node000006"><a xlink:title=" ">
<path fill="none" stroke="#63b8ff" d="M356.91,-247.51C344.2,-237.47 327.35,-224.06 312.62,-212 295.55,-198.01 292.63,-192.79 274.62,-180 255.87,-166.68 233.49,-153.49 216.27,-143.86"/>
<polygon fill="#63b8ff" stroke="#63b8ff" points="218.06,-140.85 207.61,-139.08 214.68,-146.98 218.06,-140.85"/>
</a>
</g>
</g>
<!-- Node7 -->
<g id="Node000007" class="node">
<title>Node7</title>
<g id="a_Node000007"><a xlink:title=" ">
<polygon fill="#e0e0e0" stroke="#999999" points="453.25,-138 402,-138 402,-118 453.25,-118 453.25,-138"/>
<text text-anchor="middle" x="427.62" y="-124.5" font-family="Helvetica,sans-Serif" font-size="10.00">sstream</text>
</a>
</g>
</g>
<!-- Node2&#45;&gt;Node7 -->
<g id="edge6_Node000002_Node000007" class="edge">
<title>Node2&#45;&gt;Node7</title>
<g id="a_edge6_Node000002_Node000007"><a xlink:title=" ">
<path fill="none" stroke="#63b8ff" d="M405.58,-247.58C418.53,-238.99 432.48,-226.99 439.62,-212 449.15,-192.03 443.14,-166.53 436.68,-149.1"/>
<polygon fill="#63b8ff" stroke="#63b8ff" points="439.94,-147.8 432.9,-139.88 433.46,-150.46 439.94,-147.8"/>
</a>
</g>
</g>
<!-- Node8 -->
<g id="Node000008" class="node">
<title>Node8</title>
<g id="a_Node000008"><a xlink:href="_assert_failed_exception_8h.html" target="_top" xlink:title="@TODO Add description of this file if needed">
<polygon fill="white" stroke="#666666" points="147.25,-212 0,-212 0,-180 147.25,-180 147.25,-212"/>
<text text-anchor="start" x="8" y="-198.5" font-family="Helvetica,sans-Serif" font-size="10.00">engine/core/exceptions</text>
<text text-anchor="middle" x="73.62" y="-186.5" font-family="Helvetica,sans-Serif" font-size="10.00">/core/AssertFailedException.h</text>
</a>
</g>
</g>
<!-- Node2&#45;&gt;Node8 -->
<g id="edge7_Node000002_Node000008" class="edge">
<title>Node2&#45;&gt;Node8</title>
<g id="a_edge7_Node000002_Node000008"><a xlink:title=" ">
<path fill="none" stroke="#63b8ff" d="M325.57,-251.88C279.1,-241.76 209.69,-226.64 155.48,-214.83"/>
<polygon fill="#63b8ff" stroke="#63b8ff" points="156.5,-211.47 145.98,-212.76 155.01,-218.31 156.5,-211.47"/>
</a>
</g>
</g>
<!-- Node12 -->
<g id="Node000012" class="node">
<title>Node12</title>
<g id="a_Node000012"><a xlink:href="_stringer_8h.html" target="_top" xlink:title="A set of functions for converting objects to strings.">
<polygon fill="white" stroke="#666666" points="431.12,-212 322.12,-212 322.12,-180 431.12,-180 431.12,-212"/>
<text text-anchor="start" x="330.12" y="-198.5" font-family="Helvetica,sans-Serif" font-size="10.00">engine/core/debugger</text>
<text text-anchor="middle" x="376.62" y="-186.5" font-family="Helvetica,sans-Serif" font-size="10.00">/Stringer.h</text>
</a>
</g>
</g>
<!-- Node2&#45;&gt;Node12 -->
<g id="edge12_Node000002_Node000012" class="edge">
<title>Node2&#45;&gt;Node12</title>
<g id="a_edge12_Node000002_Node000012"><a xlink:title=" ">
<path fill="none" stroke="#63b8ff" d="M376.62,-247.69C376.62,-240.53 376.62,-231.79 376.62,-223.59"/>
<polygon fill="#63b8ff" stroke="#63b8ff" points="380.13,-223.74 376.63,-213.74 373.13,-223.74 380.13,-223.74"/>
</a>
</g>
</g>
<!-- Node2&#45;&gt;Node16 -->
<g id="edge19_Node000002_Node000016" class="edge">
<title>Node2&#45;&gt;Node16</title>
<g id="a_edge19_Node000002_Node000016"><a xlink:title=" ">
<path fill="none" stroke="#63b8ff" d="M427.69,-256.85C529.46,-244.59 757.09,-217.18 865.3,-204.14"/>
<polygon fill="#63b8ff" stroke="#63b8ff" points="865.63,-207.63 875.14,-202.96 864.79,-200.68 865.63,-207.63"/>
</a>
</g>
</g>
<!-- Node9 -->
<g id="Node000009" class="node">
<title>Node9</title>
<g id="a_Node000009"><a xlink:href="_engine_exception_8h.html" target="_top" xlink:title="Base exception class for any exception in the engine.">
<polygon fill="white" stroke="#666666" points="136.88,-144 20.38,-144 20.38,-112 136.88,-112 136.88,-144"/>
<text text-anchor="start" x="28.38" y="-130.5" font-family="Helvetica,sans-Serif" font-size="10.00">engine/core/exceptions</text>
<text text-anchor="middle" x="78.62" y="-118.5" font-family="Helvetica,sans-Serif" font-size="10.00">/EngineException.h</text>
</a>
</g>
</g>
<!-- Node8&#45;&gt;Node9 -->
<g id="edge8_Node000008_Node000009" class="edge">
<title>Node8&#45;&gt;Node9</title>
<g id="a_edge8_Node000008_Node000009"><a xlink:title=" ">
<path fill="none" stroke="#63b8ff" d="M74.78,-179.69C75.33,-172.53 75.99,-163.79 76.61,-155.59"/>
<polygon fill="#63b8ff" stroke="#63b8ff" points="80.09,-155.97 77.36,-145.73 73.11,-155.44 80.09,-155.97"/>
</a>
</g>
</g>
<!-- Node10 -->
<g id="Node000010" class="node">
<title>Node10</title>
<g id="a_Node000010"><a xlink:href="_base_exception_8h.html" target="_top" xlink:title=" ">
<polygon fill="white" stroke="#666666" points="236.75,-76 146.5,-76 146.5,-56 236.75,-56 236.75,-76"/>
<text text-anchor="middle" x="191.62" y="-62.5" font-family="Helvetica,sans-Serif" font-size="10.00">BaseException.h</text>
</a>
</g>
</g>
<!-- Node9&#45;&gt;Node10 -->
<g id="edge9_Node000009_Node000010" class="edge">
<title>Node9&#45;&gt;Node10</title>
<g id="a_edge9_Node000009_Node000010"><a xlink:title=" ">
<path fill="none" stroke="#63b8ff" d="M107.73,-111.55C125.05,-102.35 146.92,-90.74 163.99,-81.68"/>
<polygon fill="#63b8ff" stroke="#63b8ff" points="165.38,-84.9 172.57,-77.12 162.1,-78.72 165.38,-84.9"/>
</a>
</g>
</g>
<!-- Node10&#45;&gt;Node5 -->
<g id="edge11_Node000010_Node000005" class="edge">
<title>Node10&#45;&gt;Node5</title>
<g id="a_edge11_Node000010_Node000005"><a xlink:title=" ">
<path fill="none" stroke="#63b8ff" d="M237.24,-58.7C317.44,-47.62 481.73,-24.93 550.86,-15.39"/>
<polygon fill="#63b8ff" stroke="#63b8ff" points="551.31,-18.86 560.74,-14.02 550.36,-11.92 551.31,-18.86"/>
</a>
</g>
</g>
<!-- Node11 -->
<g id="Node000011" class="node">
<title>Node11</title>
<g id="a_Node000011"><a xlink:title=" ">
<polygon fill="#e0e0e0" stroke="#999999" points="221,-20 162.25,-20 162.25,0 221,0 221,-20"/>
<text text-anchor="middle" x="191.62" y="-6.5" font-family="Helvetica,sans-Serif" font-size="10.00">stdexcept</text>
</a>
</g>
</g>
<!-- Node10&#45;&gt;Node11 -->
<g id="edge10_Node000010_Node000011" class="edge">
<title>Node10&#45;&gt;Node11</title>
<g id="a_edge10_Node000010_Node000011"><a xlink:title=" ">
<path fill="none" stroke="#63b8ff" d="M191.62,-55.59C191.62,-49.01 191.62,-39.96 191.62,-31.73"/>
<polygon fill="#63b8ff" stroke="#63b8ff" points="195.13,-31.81 191.63,-21.81 188.13,-31.81 195.13,-31.81"/>
</a>
</g>
</g>
<!-- Node12&#45;&gt;Node5 -->
<g id="edge13_Node000012_Node000005" class="edge">
<title>Node12&#45;&gt;Node5</title>
<g id="a_edge13_Node000012_Node000005"><a xlink:title=" ">
<path fill="none" stroke="#63b8ff" d="M375.81,-179.67C375.64,-161.73 377.89,-131.95 392.62,-112 432.07,-58.61 508.31,-30.67 551.25,-18.58"/>
<polygon fill="#63b8ff" stroke="#63b8ff" points="551.96,-22.01 560.71,-16.04 550.14,-15.25 551.96,-22.01"/>
</a>
</g>
</g>
<!-- Node12&#45;&gt;Node6 -->
<g id="edge15_Node000012_Node000006" class="edge">
<title>Node12&#45;&gt;Node6</title>
<g id="a_edge15_Node000012_Node000006"><a xlink:title=" ">
<path fill="none" stroke="#63b8ff" d="M330.84,-179.58C301.55,-169.62 262.76,-156.28 228.62,-144 227.1,-143.45 225.54,-142.89 223.97,-142.31"/>
<polygon fill="#63b8ff" stroke="#63b8ff" points="225.56,-139.17 214.97,-138.99 223.14,-145.74 225.56,-139.17"/>
</a>
</g>
</g>
<!-- Node12&#45;&gt;Node7 -->
<g id="edge14_Node000012_Node000007" class="edge">
<title>Node12&#45;&gt;Node7</title>
<g id="a_edge14_Node000012_Node000007"><a xlink:title=" ">
<path fill="none" stroke="#63b8ff" d="M388.45,-179.69C395.95,-170 405.67,-157.41 413.56,-147.2"/>
<polygon fill="#63b8ff" stroke="#63b8ff" points="416.16,-149.57 419.5,-139.51 410.62,-145.29 416.16,-149.57"/>
</a>
</g>
</g>
<!-- Node13 -->
<g id="Node000013" class="node">
<title>Node13</title>
<g id="a_Node000013"><a xlink:title=" ">
<polygon fill="#e0e0e0" stroke="#999999" points="287.5,-138 237.75,-138 237.75,-118 287.5,-118 287.5,-138"/>
<text text-anchor="middle" x="262.62" y="-124.5" font-family="Helvetica,sans-Serif" font-size="10.00">iomanip</text>
</a>
</g>
</g>
<!-- Node12&#45;&gt;Node13 -->
<g id="edge16_Node000012_Node000013" class="edge">
<title>Node12&#45;&gt;Node13</title>
<g id="a_edge16_Node000012_Node000013"><a xlink:title=" ">
<path fill="none" stroke="#63b8ff" d="M349.9,-179.53C331.44,-168.84 307.01,-154.7 288.69,-144.09"/>
<polygon fill="#63b8ff" stroke="#63b8ff" points="290.68,-141.2 280.27,-139.22 287.18,-147.26 290.68,-141.2"/>
</a>
</g>
</g>
<!-- Node14 -->
<g id="Node000014" class="node">
<title>Node14</title>
<g id="a_Node000014"><a xlink:title=" ">
<polygon fill="#e0e0e0" stroke="#999999" points="516.25,-138 471,-138 471,-118 516.25,-118 516.25,-138"/>
<text text-anchor="middle" x="493.62" y="-124.5" font-family="Helvetica,sans-Serif" font-size="10.00">cstdint</text>
</a>
</g>
</g>
<!-- Node12&#45;&gt;Node14 -->
<g id="edge17_Node000012_Node000014" class="edge">
<title>Node12&#45;&gt;Node14</title>
<g id="a_edge17_Node000012_Node000014"><a xlink:title=" ">
<path fill="none" stroke="#63b8ff" d="M404.06,-179.53C423,-168.84 448.07,-154.7 466.87,-144.09"/>
<polygon fill="#63b8ff" stroke="#63b8ff" points="468.55,-147.17 475.54,-139.2 465.11,-141.07 468.55,-147.17"/>
</a>
</g>
</g>
<!-- Node15 -->
<g id="Node000015" class="node">
<title>Node15</title>
<g id="a_Node000015"><a xlink:title=" ">
<polygon fill="#e0e0e0" stroke="#999999" points="345.25,-138 306,-138 306,-118 345.25,-118 345.25,-138"/>
<text text-anchor="middle" x="325.62" y="-124.5" font-family="Helvetica,sans-Serif" font-size="10.00">utility</text>
</a>
</g>
</g>
<!-- Node12&#45;&gt;Node15 -->
<g id="edge18_Node000012_Node000015" class="edge">
<title>Node12&#45;&gt;Node15</title>
<g id="a_edge18_Node000012_Node000015"><a xlink:title=" ">
<path fill="none" stroke="#63b8ff" d="M364.8,-179.69C357.3,-170 347.58,-157.41 339.69,-147.2"/>
<polygon fill="#63b8ff" stroke="#63b8ff" points="342.63,-145.29 333.75,-139.51 337.09,-149.57 342.63,-145.29"/>
</a>
</g>
</g>
<!-- Node16&#45;&gt;Node5 -->
<g id="edge20_Node000016_Node000005" class="edge">
<title>Node16&#45;&gt;Node5</title>
<g id="a_edge20_Node000016_Node000005"><a xlink:title=" ">
<path fill="none" stroke="#63b8ff" d="M972.83,-185.02C995.38,-177.68 1020.17,-165.15 1033.62,-144 1055.8,-109.14 1037.9,-79.08 1003.62,-56 940.15,-13.25 701.39,-10.27 614.5,-10.65"/>
<polygon fill="#63b8ff" stroke="#63b8ff" points="614.54,-7.15 604.56,-10.71 614.58,-14.15 614.54,-7.15"/>
</a>
</g>
</g>
<!-- Node17 -->
<g id="Node000017" class="node">
<title>Node17</title>
<g id="a_Node000017"><a xlink:title=" ">
<polygon fill="#e0e0e0" stroke="#999999" points="1192.25,-138 1141,-138 1141,-118 1192.25,-118 1192.25,-138"/>
<text text-anchor="middle" x="1166.62" y="-124.5" font-family="Helvetica,sans-Serif" font-size="10.00">memory</text>
</a>
</g>
</g>
<!-- Node16&#45;&gt;Node17 -->
<g id="edge21_Node000016_Node000017" class="edge">
<title>Node16&#45;&gt;Node17</title>
<g id="a_edge21_Node000016_Node000017"><a xlink:title=" ">
<path fill="none" stroke="#63b8ff" d="M972.8,-184.43C1013.99,-175.02 1074.67,-160.24 1126.62,-144 1128.34,-143.46 1130.1,-142.89 1131.86,-142.3"/>
<polygon fill="#63b8ff" stroke="#63b8ff" points="1132.97,-145.62 1141.24,-138.99 1130.64,-139.02 1132.97,-145.62"/>
</a>
</g>
</g>
<!-- Node18 -->
<g id="Node000018" class="node">
<title>Node18</title>
<g id="a_Node000018"><a xlink:title=" ">
<polygon fill="#e0e0e0" stroke="#999999" points="765.38,-138 723.88,-138 723.88,-118 765.38,-118 765.38,-138"/>
<text text-anchor="middle" x="744.62" y="-124.5" font-family="Helvetica,sans-Serif" font-size="10.00">vector</text>
</a>
</g>
</g>
<!-- Node16&#45;&gt;Node18 -->
<g id="edge22_Node000016_Node000018" class="edge">
<title>Node16&#45;&gt;Node18</title>
<g id="a_edge22_Node000016_Node000018"><a xlink:title=" ">
<path fill="none" stroke="#63b8ff" d="M876.38,-180.44C846.67,-171.02 808,-157.94 774.62,-144 774,-143.74 773.38,-143.47 772.75,-143.2"/>
<polygon fill="#63b8ff" stroke="#63b8ff" points="774.44,-140.13 763.9,-139.08 771.49,-146.48 774.44,-140.13"/>
</a>
</g>
</g>
<!-- Node19 -->
<g id="Node000019" class="node">
<title>Node19</title>
<g id="a_Node000019"><a xlink:title=" ">
<polygon fill="#e0e0e0" stroke="#999999" points="706.25,-138 649,-138 649,-118 706.25,-118 706.25,-138"/>
<text text-anchor="middle" x="677.62" y="-124.5" font-family="Helvetica,sans-Serif" font-size="10.00">functional</text>
</a>
</g>
</g>
<!-- Node16&#45;&gt;Node19 -->
<g id="edge23_Node000016_Node000019" class="edge">
<title>Node16&#45;&gt;Node19</title>
<g id="a_edge23_Node000016_Node000019"><a xlink:title=" ">
<path fill="none" stroke="#63b8ff" d="M876.53,-185.43C833.6,-176.38 769.26,-161.6 714.62,-144 713.06,-143.5 711.46,-142.95 709.86,-142.39"/>
<polygon fill="#63b8ff" stroke="#63b8ff" points="711.35,-139.21 700.76,-138.96 708.88,-145.76 711.35,-139.21"/>
</a>
</g>
</g>
<!-- Node20 -->
<g id="Node000020" class="node">
<title>Node20</title>
<g id="a_Node000020"><a xlink:title=" ">
<polygon fill="#e0e0e0" stroke="#999999" points="947.25,-138 902,-138 902,-118 947.25,-118 947.25,-138"/>
<text text-anchor="middle" x="924.62" y="-124.5" font-family="Helvetica,sans-Serif" font-size="10.00">atomic</text>
</a>
</g>
</g>
<!-- Node16&#45;&gt;Node20 -->
<g id="edge24_Node000016_Node000020" class="edge">
<title>Node16&#45;&gt;Node20</title>
<g id="a_edge24_Node000016_Node000020"><a xlink:title=" ">
<path fill="none" stroke="#63b8ff" d="M924.62,-179.69C924.62,-170.8 924.62,-159.46 924.62,-149.77"/>
<polygon fill="#63b8ff" stroke="#63b8ff" points="928.13,-149.83 924.63,-139.83 921.13,-149.83 928.13,-149.83"/>
</a>
</g>
</g>
<!-- Node21 -->
<g id="Node000021" class="node">
<title>Node21</title>
<g id="a_Node000021"><a xlink:title=" ">
<polygon fill="#e0e0e0" stroke="#999999" points="1008.12,-138 965.12,-138 965.12,-118 1008.12,-118 1008.12,-138"/>
<text text-anchor="middle" x="986.62" y="-124.5" font-family="Helvetica,sans-Serif" font-size="10.00">thread</text>
</a>
</g>
</g>
<!-- Node16&#45;&gt;Node21 -->
<g id="edge25_Node000016_Node000021" class="edge">
<title>Node16&#45;&gt;Node21</title>
<g id="a_edge25_Node000016_Node000021"><a xlink:title=" ">
<path fill="none" stroke="#63b8ff" d="M939,-179.69C948.3,-169.8 960.43,-156.89 970.12,-146.57"/>
<polygon fill="#63b8ff" stroke="#63b8ff" points="972.54,-149.1 976.84,-139.42 967.44,-144.31 972.54,-149.1"/>
</a>
</g>
</g>
<!-- Node22 -->
<g id="Node000022" class="node">
<title>Node22</title>
<g id="a_Node000022"><a xlink:title=" ">
<polygon fill="#e0e0e0" stroke="#999999" points="994.12,-76 951.12,-76 951.12,-56 994.12,-56 994.12,-76"/>
<text text-anchor="middle" x="972.62" y="-62.5" font-family="Helvetica,sans-Serif" font-size="10.00">mutex</text>
</a>
</g>
</g>
<!-- Node16&#45;&gt;Node22 -->
<g id="edge26_Node000016_Node000022" class="edge">
<title>Node16&#45;&gt;Node22</title>
<g id="a_edge26_Node000016_Node000022"><a xlink:title=" ">
<path fill="none" stroke="#63b8ff" d="M972.75,-180.29C990.03,-172.43 1007.68,-160.8 1017.62,-144 1024.87,-131.76 1023.07,-125.14 1017.62,-112 1012.98,-100.79 1004.04,-90.91 995.34,-83.29"/>
<polygon fill="#63b8ff" stroke="#63b8ff" points="997.71,-80.71 987.73,-77.15 993.32,-86.16 997.71,-80.71"/>
</a>
</g>
</g>
<!-- Node23 -->
<g id="Node000023" class="node">
<title>Node23</title>
<g id="a_Node000023"><a xlink:href="_i_logger_8h.html" target="_top" xlink:title="Class that encapsulates the look and feel of the HUD.">
<polygon fill="white" stroke="#666666" points="1158.5,-76 1102.75,-76 1102.75,-56 1158.5,-56 1158.5,-76"/>
<text text-anchor="middle" x="1130.62" y="-62.5" font-family="Helvetica,sans-Serif" font-size="10.00">ILogger.h</text>
</a>
</g>
</g>
<!-- Node16&#45;&gt;Node23 -->
<g id="edge27_Node000016_Node000023" class="edge">
<title>Node16&#45;&gt;Node23</title>
<g id="a_edge27_Node000016_Node000023"><a xlink:title=" ">
<path fill="none" stroke="#63b8ff" d="M972.63,-189.82C1008.01,-183.86 1055.53,-171.12 1088.62,-144 1106.71,-129.18 1118.21,-104.43 1124.52,-87"/>
<polygon fill="#63b8ff" stroke="#63b8ff" points="1127.76,-88.34 1127.6,-77.75 1121.12,-86.13 1127.76,-88.34"/>
</a>
</g>
</g>
<!-- Node24 -->
<g id="Node000024" class="node">
<title>Node24</title>
<g id="a_Node000024"><a xlink:href="_concurrent_queue_8h.html" target="_top" xlink:title="Concurrent queue implementation.">
<polygon fill="white" stroke="#666666" points="883.62,-138 783.62,-138 783.62,-118 883.62,-118 883.62,-138"/>
<text text-anchor="middle" x="833.62" y="-124.5" font-family="Helvetica,sans-Serif" font-size="10.00">ConcurrentQueue.h</text>
</a>
</g>
</g>
<!-- Node16&#45;&gt;Node24 -->
<g id="edge29_Node000016_Node000024" class="edge">
<title>Node16&#45;&gt;Node24</title>
<g id="a_edge29_Node000016_Node000024"><a xlink:title=" ">
<path fill="none" stroke="#63b8ff" d="M903.52,-179.69C889.19,-169.3 870.27,-155.57 855.73,-145.03"/>
<polygon fill="#63b8ff" stroke="#63b8ff" points="857.85,-142.24 847.7,-139.2 853.74,-147.91 857.85,-142.24"/>
</a>
</g>
</g>
<!-- Node23&#45;&gt;Node5 -->
<g id="edge28_Node000023_Node000005" class="edge">
<title>Node23&#45;&gt;Node5</title>
<g id="a_edge28_Node000023_Node000005"><a xlink:title=" ">
<path fill="none" stroke="#63b8ff" d="M1102.7,-58.52C1098.02,-57.57 1093.2,-56.69 1088.62,-56 910.29,-29.07 693.98,-16.45 614.17,-12.46"/>
<polygon fill="#63b8ff" stroke="#63b8ff" points="614.65,-8.98 604.49,-11.99 614.31,-15.97 614.65,-8.98"/>
</a>
</g>
</g>
<!-- Node24&#45;&gt;Node22 -->
<g id="edge31_Node000024_Node000022" class="edge">
<title>Node24&#45;&gt;Node22</title>
<g id="a_edge31_Node000024_Node000022"><a xlink:title=" ">
<path fill="none" stroke="#63b8ff" d="M855.34,-117.62C878.19,-107.76 914.4,-92.13 940.54,-80.85"/>
<polygon fill="#63b8ff" stroke="#63b8ff" points="941.88,-84.09 949.67,-76.91 939.1,-77.66 941.88,-84.09"/>
</a>
</g>
</g>
<!-- Node25 -->
<g id="Node000025" class="node">
<title>Node25</title>
<g id="a_Node000025"><a xlink:title=" ">
<polygon fill="#e0e0e0" stroke="#999999" points="795.75,-76 753.5,-76 753.5,-56 795.75,-56 795.75,-76"/>
<text text-anchor="middle" x="774.62" y="-62.5" font-family="Helvetica,sans-Serif" font-size="10.00">queue</text>
</a>
</g>
</g>
<!-- Node24&#45;&gt;Node25 -->
<g id="edge30_Node000024_Node000025" class="edge">
<title>Node24&#45;&gt;Node25</title>
<g id="a_edge30_Node000024_Node000025"><a xlink:title=" ">
<path fill="none" stroke="#63b8ff" d="M824.41,-117.62C815.61,-108.68 802.15,-94.99 791.44,-84.1"/>
<polygon fill="#63b8ff" stroke="#63b8ff" points="794.15,-81.87 784.65,-77.19 789.16,-86.78 794.15,-81.87"/>
</a>
</g>
</g>
<!-- Node26 -->
<g id="Node000026" class="node">
<title>Node26</title>
<g id="a_Node000026"><a xlink:title=" ">
<polygon fill="#e0e0e0" stroke="#999999" points="905.88,-76 813.38,-76 813.38,-56 905.88,-56 905.88,-76"/>
<text text-anchor="middle" x="859.62" y="-62.5" font-family="Helvetica,sans-Serif" font-size="10.00">condition_variable</text>
</a>
</g>
</g>
<!-- Node24&#45;&gt;Node26 -->
<g id="edge32_Node000024_Node000026" class="edge">
<title>Node24&#45;&gt;Node26</title>
<g id="a_edge32_Node000024_Node000026"><a xlink:title=" ">
<path fill="none" stroke="#63b8ff" d="M837.69,-117.62C841.3,-109.3 846.68,-96.86 851.22,-86.4"/>
<polygon fill="#63b8ff" stroke="#63b8ff" points="854.31,-88.07 855.07,-77.5 847.89,-85.29 854.31,-88.07"/>
</a>
</g>
</g>
<!-- Node27&#45;&gt;Node14 -->
<g id="edge36_Node000027_Node000014" class="edge">
<title>Node27&#45;&gt;Node14</title>
<g id="a_edge36_Node000027_Node000014"><a xlink:title=" ">
<path fill="none" stroke="#63b8ff" d="M1105.75,-189.23C1007.62,-179.89 808.38,-160.83 639.62,-144 601.41,-140.19 557.58,-135.66 528,-132.59"/>
<polygon fill="#63b8ff" stroke="#63b8ff" points="528.45,-129.12 518.14,-131.56 527.72,-136.08 528.45,-129.12"/>
</a>
</g>
</g>
<!-- Node27&#45;&gt;Node17 -->
<g id="edge34_Node000027_Node000017" class="edge">
<title>Node27&#45;&gt;Node17</title>
<g id="a_edge34_Node000027_Node000017"><a xlink:title=" ">
<path fill="none" stroke="#63b8ff" d="M1166.62,-185.54C1166.62,-176.23 1166.62,-161.7 1166.62,-149.7"/>
<polygon fill="#63b8ff" stroke="#63b8ff" points="1170.13,-149.95 1166.63,-139.95 1163.13,-149.95 1170.13,-149.95"/>
</a>
</g>
</g>
<!-- Node28 -->
<g id="Node000028" class="node">
<title>Node28</title>
<g id="a_Node000028"><a xlink:title=" ">
<polygon fill="#e0e0e0" stroke="#999999" points="1350.62,-138 1310.62,-138 1310.62,-118 1350.62,-118 1350.62,-138"/>
<text text-anchor="middle" x="1330.62" y="-124.5" font-family="Helvetica,sans-Serif" font-size="10.00">bitset</text>
</a>
</g>
</g>
<!-- Node27&#45;&gt;Node28 -->
<g id="edge35_Node000027_Node000028" class="edge">
<title>Node27&#45;&gt;Node28</title>
<g id="a_edge35_Node000027_Node000028"><a xlink:title=" ">
<path fill="none" stroke="#63b8ff" d="M1194.41,-185.57C1221.97,-175.96 1265.24,-160.22 1301.62,-144 1302.1,-143.79 1302.59,-143.57 1303.07,-143.35"/>
<polygon fill="#63b8ff" stroke="#63b8ff" points="1304.48,-146.56 1311.94,-139.04 1301.42,-140.26 1304.48,-146.56"/>
</a>
</g>
</g>
<!-- Node29 -->
<g id="Node000029" class="node">
<title>Node29</title>
<g id="a_Node000029"><a xlink:href="_config_8h.html" target="_top" xlink:title="This file contains the configuration of the engine.">
<polygon fill="white" stroke="#666666" points="1293,-138 1210.25,-138 1210.25,-118 1293,-118 1293,-138"/>
<text text-anchor="middle" x="1251.62" y="-124.5" font-family="Helvetica,sans-Serif" font-size="10.00">engine/Config.h</text>
</a>
</g>
</g>
<!-- Node27&#45;&gt;Node29 -->
<g id="edge37_Node000027_Node000029" class="edge">
<title>Node27&#45;&gt;Node29</title>
<g id="a_edge37_Node000027_Node000029"><a xlink:title=" ">
<path fill="none" stroke="#63b8ff" d="M1178.8,-185.54C1192.31,-175.06 1214.34,-157.95 1230.64,-145.29"/>
<polygon fill="#63b8ff" stroke="#63b8ff" points="1232.52,-148.26 1238.27,-139.37 1228.23,-142.74 1232.52,-148.26"/>
</a>
</g>
</g>
<!-- Node30&#45;&gt;Node5 -->
<g id="edge40_Node000030_Node000005" class="edge">
<title>Node30&#45;&gt;Node5</title>
<g id="a_edge40_Node000030_Node000005"><a xlink:title=" ">
<path fill="none" stroke="#63b8ff" d="M655.42,-253.54C637.11,-245.46 613.83,-231.95 601.62,-212 566.47,-154.5 573.4,-70 579.03,-31.48"/>
<polygon fill="#63b8ff" stroke="#63b8ff" points="582.46,-32.21 580.59,-21.78 575.55,-31.1 582.46,-32.21"/>
</a>
</g>
</g>
<!-- Node31 -->
<g id="Node000031" class="node">
<title>Node31</title>
<g id="a_Node000031"><a xlink:href="_entity_stats_manager_8h.html" target="_top" xlink:title="Class that encapsulates the logic of the entity stats manager.">
<polygon fill="white" stroke="#666666" points="753,-212 610.25,-212 610.25,-180 753,-180 753,-212"/>
<text text-anchor="start" x="618.25" y="-198.5" font-family="Helvetica,sans-Serif" font-size="10.00">engine/subsystems/ingame</text>
<text text-anchor="middle" x="681.62" y="-186.5" font-family="Helvetica,sans-Serif" font-size="10.00">&#45;debug/EntityStatsManager.h</text>
</a>
</g>
</g>
<!-- Node30&#45;&gt;Node31 -->
<g id="edge41_Node000030_Node000031" class="edge">
<title>Node30&#45;&gt;Node31</title>
<g id="a_edge41_Node000030_Node000031"><a xlink:title=" ">
<path fill="none" stroke="#63b8ff" d="M681.62,-253.54C681.62,-245.72 681.62,-234.22 681.62,-223.63"/>
<polygon fill="#63b8ff" stroke="#63b8ff" points="685.13,-223.81 681.63,-213.81 678.13,-223.81 685.13,-223.81"/>
</a>
</g>
</g>
<!-- Node31&#45;&gt;Node5 -->
<g id="edge43_Node000031_Node000005" class="edge">
<title>Node31&#45;&gt;Node5</title>
<g id="a_edge43_Node000031_Node000005"><a xlink:title=" ">
<path fill="none" stroke="#63b8ff" d="M667.15,-179.8C658.42,-170.09 647.5,-156.93 639.62,-144 616.74,-106.41 598.49,-57.99 589.24,-31.16"/>
<polygon fill="#63b8ff" stroke="#63b8ff" points="592.63,-30.27 586.12,-21.91 586,-32.5 592.63,-30.27"/>
</a>
</g>
</g>
<!-- Node31&#45;&gt;Node18 -->
<g id="edge44_Node000031_Node000018" class="edge">
<title>Node31&#45;&gt;Node18</title>
<g id="a_edge44_Node000031_Node000018"><a xlink:title=" ">
<path fill="none" stroke="#63b8ff" d="M696.24,-179.69C705.68,-169.8 718.01,-156.89 727.85,-146.57"/>
<polygon fill="#63b8ff" stroke="#63b8ff" points="730.31,-149.06 734.69,-139.41 725.25,-144.23 730.31,-149.06"/>
</a>
</g>
</g>
<!-- Node31&#45;&gt;Node19 -->
<g id="edge42_Node000031_Node000019" class="edge">
<title>Node31&#45;&gt;Node19</title>
<g id="a_edge42_Node000031_Node000019"><a xlink:title=" ">
<path fill="none" stroke="#63b8ff" d="M680.7,-179.69C680.16,-170.8 679.47,-159.46 678.88,-149.77"/>
<polygon fill="#63b8ff" stroke="#63b8ff" points="682.38,-149.6 678.28,-139.83 675.39,-150.02 682.38,-149.6"/>
</a>
</g>
</g>
</g>
</svg>
