<?xml version="1.0" encoding="UTF-8" standalone="no"?>
<!DOCTYPE svg PUBLIC "-//W3C//DTD SVG 1.1//EN"
 "http://www.w3.org/Graphics/SVG/1.1/DTD/svg11.dtd">
<!-- Generated by graphviz version 11.0.0 (20240428.1522)
 -->
<!-- Title: Console.h Pages: 1 -->
<svg width="512pt" height="84pt"
 viewBox="0.00 0.00 511.88 84.00" xmlns="http://www.w3.org/2000/svg" xmlns:xlink="http://www.w3.org/1999/xlink">
<g id="graph0" class="graph" transform="scale(1 1) rotate(0) translate(4 80)">
<title>Console.h</title>
<!-- Node1 -->
<g id="Node000001" class="node">
<title>Node1</title>
<g id="a_Node000001"><a xlink:title="Console class that encapsulates the logic of the console.">
<polygon fill="#999999" stroke="#666666" points="287.75,-76 228.25,-76 228.25,-56 287.75,-56 287.75,-76"/>
<text text-anchor="middle" x="258" y="-62.5" font-family="Helvetica,sans-Serif" font-size="10.00">Console.h</text>
</a>
</g>
</g>
<!-- Node2 -->
<g id="Node000002" class="node">
<title>Node2</title>
<g id="a_Node000002"><a xlink:href="_console_8cpp.html" target="_top" xlink:title=" ">
<polygon fill="white" stroke="#666666" points="70,-20 0,-20 0,0 70,0 70,-20"/>
<text text-anchor="middle" x="35" y="-6.5" font-family="Helvetica,sans-Serif" font-size="10.00">Console.cpp</text>
</a>
</g>
</g>
<!-- Node1&#45;&gt;Node2 -->
<g id="edge1_Node000001_Node000002" class="edge">
<title>Node1&#45;&gt;Node2</title>
<g id="a_edge1_Node000001_Node000002"><a xlink:title=" ">
<path fill="none" stroke="#63b8ff" d="M216.98,-55.07C174.97,-44.89 110.34,-29.24 70.47,-19.59"/>
<polygon fill="#63b8ff" stroke="#63b8ff" points="215.91,-58.41 226.45,-57.36 217.56,-51.61 215.91,-58.41"/>
</a>
</g>
</g>
<!-- Node3 -->
<g id="Node000003" class="node">
<title>Node3</title>
<g id="a_Node000003"><a xlink:href="_debug_console_h_u_d_8cpp.html" target="_top" xlink:title=" ">
<polygon fill="white" stroke="#666666" points="206,-20 88,-20 88,0 206,0 206,-20"/>
<text text-anchor="middle" x="147" y="-6.5" font-family="Helvetica,sans-Serif" font-size="10.00">DebugConsoleHUD.cpp</text>
</a>
</g>
</g>
<!-- Node1&#45;&gt;Node3 -->
<g id="edge2_Node000001_Node000003" class="edge">
<title>Node1&#45;&gt;Node3</title>
<g id="a_edge2_Node000001_Node000003"><a xlink:title=" ">
<path fill="none" stroke="#63b8ff" d="M228.43,-50.61C208.81,-41.07 183.62,-28.81 166.49,-20.48"/>
<polygon fill="#63b8ff" stroke="#63b8ff" points="226.78,-53.7 237.3,-54.93 229.84,-47.41 226.78,-53.7"/>
</a>
</g>
</g>
<!-- Node4 -->
<g id="Node000004" class="node">
<title>Node4</title>
<g id="a_Node000004"><a xlink:href="_g_l_e_s_c_8cpp.html" target="_top" xlink:title=" ">
<polygon fill="white" stroke="#666666" points="291.88,-20 224.12,-20 224.12,0 291.88,0 291.88,-20"/>
<text text-anchor="middle" x="258" y="-6.5" font-family="Helvetica,sans-Serif" font-size="10.00">GLESC.cpp</text>
</a>
</g>
</g>
<!-- Node1&#45;&gt;Node4 -->
<g id="edge3_Node000001_Node000004" class="edge">
<title>Node1&#45;&gt;Node4</title>
<g id="a_edge3_Node000001_Node000004"><a xlink:title=" ">
<path fill="none" stroke="#63b8ff" d="M258,-44.13C258,-35.9 258,-26.85 258,-20.3"/>
<polygon fill="#63b8ff" stroke="#63b8ff" points="254.5,-44.08 258,-54.08 261.5,-44.08 254.5,-44.08"/>
</a>
</g>
</g>
<!-- Node5 -->
<g id="Node000005" class="node">
<title>Node5</title>
<g id="a_Node000005"><a xlink:href="_in_game_window_8cpp.html" target="_top" xlink:title=" ">
<polygon fill="white" stroke="#666666" points="412.5,-20 309.5,-20 309.5,0 412.5,0 412.5,-20"/>
<text text-anchor="middle" x="361" y="-6.5" font-family="Helvetica,sans-Serif" font-size="10.00">InGameWindow.cpp</text>
</a>
</g>
</g>
<!-- Node1&#45;&gt;Node5 -->
<g id="edge4_Node000001_Node000005" class="edge">
<title>Node1&#45;&gt;Node5</title>
<g id="a_edge4_Node000001_Node000005"><a xlink:title=" ">
<path fill="none" stroke="#63b8ff" d="M285.95,-50.35C304.08,-40.84 327.17,-28.74 342.92,-20.48"/>
<polygon fill="#63b8ff" stroke="#63b8ff" points="284.51,-47.15 277.28,-54.89 287.76,-53.35 284.51,-47.15"/>
</a>
</g>
</g>
<!-- Node6 -->
<g id="Node000006" class="node">
<title>Node6</title>
<g id="a_Node000006"><a xlink:href="_renderer_8cpp.html" target="_top" xlink:title=" ">
<polygon fill="white" stroke="#666666" points="503.88,-20 430.12,-20 430.12,0 503.88,0 503.88,-20"/>
<text text-anchor="middle" x="467" y="-6.5" font-family="Helvetica,sans-Serif" font-size="10.00">Renderer.cpp</text>
</a>
</g>
</g>
<!-- Node1&#45;&gt;Node6 -->
<g id="edge5_Node000001_Node000006" class="edge">
<title>Node1&#45;&gt;Node6</title>
<g id="a_edge5_Node000001_Node000006"><a xlink:title=" ">
<path fill="none" stroke="#63b8ff" d="M298.69,-54.49C336.92,-44.61 393.6,-29.96 430.43,-20.45"/>
<polygon fill="#63b8ff" stroke="#63b8ff" points="298.22,-50.99 289.41,-56.88 299.97,-57.77 298.22,-50.99"/>
</a>
</g>
</g>
</g>
</svg>
