<?xml version="1.0" encoding="UTF-8" standalone="no"?>
<!DOCTYPE svg PUBLIC "-//W3C//DTD SVG 1.1//EN"
 "http://www.w3.org/Graphics/SVG/1.1/DTD/svg11.dtd">
<!-- Generated by graphviz version 11.0.0 (20240428.1522)
 -->
<!-- Title: Console.cpp Pages: 1 -->
<svg width="270pt" height="152pt"
 viewBox="0.00 0.00 269.50 152.00" xmlns="http://www.w3.org/2000/svg" xmlns:xlink="http://www.w3.org/1999/xlink">
<g id="graph0" class="graph" transform="scale(1 1) rotate(0) translate(4 148)">
<title>Console.cpp</title>
<!-- Node1 -->
<g id="Node000001" class="node">
<title>Node1</title>
<g id="a_Node000001"><a xlink:title=" ">
<polygon fill="#999999" stroke="#666666" points="154,-144 84,-144 84,-124 154,-124 154,-144"/>
<text text-anchor="middle" x="119" y="-130.5" font-family="Helvetica,sans-Serif" font-size="10.00">Console.cpp</text>
</a>
</g>
</g>
<!-- Node2 -->
<g id="Node000002" class="node">
<title>Node2</title>
<g id="a_Node000002"><a xlink:href="_console_8h.html" target="_top" xlink:title="Console class that encapsulates the logic of the console.">
<polygon fill="white" stroke="#666666" points="186.62,-88 51.38,-88 51.38,-56 186.62,-56 186.62,-88"/>
<text text-anchor="start" x="59.38" y="-74.5" font-family="Helvetica,sans-Serif" font-size="10.00">engine/subsystems/ingame</text>
<text text-anchor="middle" x="119" y="-62.5" font-family="Helvetica,sans-Serif" font-size="10.00">&#45;debug/Console.h</text>
</a>
</g>
</g>
<!-- Node1&#45;&gt;Node2 -->
<g id="edge1_Node000001_Node000002" class="edge">
<title>Node1&#45;&gt;Node2</title>
<g id="a_edge1_Node000001_Node000002"><a xlink:title=" ">
<path fill="none" stroke="#63b8ff" d="M119,-123.62C119,-117.1 119,-108.05 119,-99.4"/>
<polygon fill="#63b8ff" stroke="#63b8ff" points="122.5,-99.65 119,-89.65 115.5,-99.65 122.5,-99.65"/>
</a>
</g>
</g>
<!-- Node3 -->
<g id="Node000003" class="node">
<title>Node3</title>
<g id="a_Node000003"><a xlink:title=" ">
<polygon fill="#e0e0e0" stroke="#999999" points="40,-20 0,-20 0,0 40,0 40,-20"/>
<text text-anchor="middle" x="20" y="-6.5" font-family="Helvetica,sans-Serif" font-size="10.00">string</text>
</a>
</g>
</g>
<!-- Node2&#45;&gt;Node3 -->
<g id="edge2_Node000002_Node000003" class="edge">
<title>Node2&#45;&gt;Node3</title>
<g id="a_edge2_Node000002_Node000003"><a xlink:title=" ">
<path fill="none" stroke="#63b8ff" d="M93.51,-55.55C78.61,-46.52 59.89,-35.17 45.07,-26.19"/>
<polygon fill="#63b8ff" stroke="#63b8ff" points="47.18,-23.38 36.82,-21.19 43.56,-29.37 47.18,-23.38"/>
</a>
</g>
</g>
<!-- Node4 -->
<g id="Node000004" class="node">
<title>Node4</title>
<g id="a_Node000004"><a xlink:title=" ">
<polygon fill="#e0e0e0" stroke="#999999" points="99.75,-20 58.25,-20 58.25,0 99.75,0 99.75,-20"/>
<text text-anchor="middle" x="79" y="-6.5" font-family="Helvetica,sans-Serif" font-size="10.00">vector</text>
</a>
</g>
</g>
<!-- Node2&#45;&gt;Node4 -->
<g id="edge3_Node000002_Node000004" class="edge">
<title>Node2&#45;&gt;Node4</title>
<g id="a_edge3_Node000002_Node000004"><a xlink:title=" ">
<path fill="none" stroke="#63b8ff" d="M108.7,-55.55C103.49,-47.74 97.12,-38.19 91.62,-29.94"/>
<polygon fill="#63b8ff" stroke="#63b8ff" points="94.57,-28.05 86.11,-21.67 88.75,-31.93 94.57,-28.05"/>
</a>
</g>
</g>
<!-- Node5 -->
<g id="Node000005" class="node">
<title>Node5</title>
<g id="a_Node000005"><a xlink:title=" ">
<polygon fill="#e0e0e0" stroke="#999999" points="200.38,-20 117.62,-20 117.62,0 200.38,0 200.38,-20"/>
<text text-anchor="middle" x="159" y="-6.5" font-family="Helvetica,sans-Serif" font-size="10.00">unordered_map</text>
</a>
</g>
</g>
<!-- Node2&#45;&gt;Node5 -->
<g id="edge4_Node000002_Node000005" class="edge">
<title>Node2&#45;&gt;Node5</title>
<g id="a_edge4_Node000002_Node000005"><a xlink:title=" ">
<path fill="none" stroke="#63b8ff" d="M129.3,-55.55C134.51,-47.74 140.88,-38.19 146.38,-29.94"/>
<polygon fill="#63b8ff" stroke="#63b8ff" points="149.25,-31.93 151.89,-21.67 143.43,-28.05 149.25,-31.93"/>
</a>
</g>
</g>
<!-- Node6 -->
<g id="Node000006" class="node">
<title>Node6</title>
<g id="a_Node000006"><a xlink:title=" ">
<polygon fill="#e0e0e0" stroke="#999999" points="261.5,-20 218.5,-20 218.5,0 261.5,0 261.5,-20"/>
<text text-anchor="middle" x="240" y="-6.5" font-family="Helvetica,sans-Serif" font-size="10.00">mutex</text>
</a>
</g>
</g>
<!-- Node2&#45;&gt;Node6 -->
<g id="edge5_Node000002_Node000006" class="edge">
<title>Node2&#45;&gt;Node6</title>
<g id="a_edge5_Node000002_Node000006"><a xlink:title=" ">
<path fill="none" stroke="#63b8ff" d="M150.16,-55.55C168.89,-46.26 192.57,-34.52 210.92,-25.42"/>
<polygon fill="#63b8ff" stroke="#63b8ff" points="212.27,-28.66 219.67,-21.08 209.16,-22.39 212.27,-28.66"/>
</a>
</g>
</g>
</g>
</svg>
