<?xml version="1.0" encoding="UTF-8" standalone="no"?>
<!DOCTYPE svg PUBLIC "-//W3C//DTD SVG 1.1//EN"
 "http://www.w3.org/Graphics/SVG/1.1/DTD/svg11.dtd">
<!-- Generated by graphviz version 11.0.0 (20240428.1522)
 -->
<!-- Title: DebugConsoleHUD.h Pages: 1 -->
<svg width="203pt" height="152pt"
 viewBox="0.00 0.00 202.62 152.00" xmlns="http://www.w3.org/2000/svg" xmlns:xlink="http://www.w3.org/1999/xlink">
<g id="graph0" class="graph" transform="scale(1 1) rotate(0) translate(4 148)">
<title>DebugConsoleHUD.h</title>
<!-- Node1 -->
<g id="Node000001" class="node">
<title>Node1</title>
<g id="a_Node000001"><a xlink:title="HUD for the debug console.">
<polygon fill="#999999" stroke="#666666" points="128.62,-144 21.12,-144 21.12,-124 128.62,-124 128.62,-144"/>
<text text-anchor="middle" x="74.88" y="-130.5" font-family="Helvetica,sans-Serif" font-size="10.00">DebugConsoleHUD.h</text>
</a>
</g>
</g>
<!-- Node2 -->
<g id="Node000002" class="node">
<title>Node2</title>
<g id="a_Node000002"><a xlink:title=" ">
<polygon fill="#e0e0e0" stroke="#999999" points="73.75,-20 0,-20 0,0 73.75,0 73.75,-20"/>
<text text-anchor="middle" x="36.88" y="-6.5" font-family="Helvetica,sans-Serif" font-size="10.00">imgui/imgui.h</text>
</a>
</g>
</g>
<!-- Node1&#45;&gt;Node2 -->
<g id="edge1_Node000001_Node000002" class="edge">
<title>Node1&#45;&gt;Node2</title>
<g id="a_edge1_Node000001_Node000002"><a xlink:title=" ">
<path fill="none" stroke="#63b8ff" d="M68.52,-123.79C62.76,-114.99 54.49,-101.16 49.88,-88 43.36,-69.42 40.06,-47.15 38.41,-31.35"/>
<polygon fill="#63b8ff" stroke="#63b8ff" points="41.93,-31.42 37.56,-21.77 34.96,-32.04 41.93,-31.42"/>
</a>
</g>
</g>
<!-- Node3 -->
<g id="Node000003" class="node">
<title>Node3</title>
<g id="a_Node000003"><a xlink:href="_in_game_window_8h.html" target="_top" xlink:title="@TODO Add description of this file if needed">
<polygon fill="white" stroke="#666666" points="178.62,-88 59.13,-88 59.13,-56 178.62,-56 178.62,-88"/>
<text text-anchor="start" x="67.12" y="-74.5" font-family="Helvetica,sans-Serif" font-size="10.00">engine/subsystems/hud</text>
<text text-anchor="middle" x="118.88" y="-62.5" font-family="Helvetica,sans-Serif" font-size="10.00">/InGameWindow.h</text>
</a>
</g>
</g>
<!-- Node1&#45;&gt;Node3 -->
<g id="edge2_Node000001_Node000003" class="edge">
<title>Node1&#45;&gt;Node3</title>
<g id="a_edge2_Node000001_Node000003"><a xlink:title=" ">
<path fill="none" stroke="#63b8ff" d="M81.75,-123.62C86.92,-116.58 94.24,-106.59 101.02,-97.35"/>
<polygon fill="#63b8ff" stroke="#63b8ff" points="103.79,-99.49 106.88,-89.36 98.14,-95.36 103.79,-99.49"/>
</a>
</g>
</g>
<!-- Node3&#45;&gt;Node2 -->
<g id="edge3_Node000003_Node000002" class="edge">
<title>Node3&#45;&gt;Node2</title>
<g id="a_edge3_Node000003_Node000002"><a xlink:title=" ">
<path fill="none" stroke="#63b8ff" d="M97.76,-55.55C85.78,-46.78 70.8,-35.83 58.71,-26.97"/>
<polygon fill="#63b8ff" stroke="#63b8ff" points="61.09,-24.38 50.95,-21.3 56.96,-30.03 61.09,-24.38"/>
</a>
</g>
</g>
<!-- Node4 -->
<g id="Node000004" class="node">
<title>Node4</title>
<g id="a_Node000004"><a xlink:title=" ">
<polygon fill="#e0e0e0" stroke="#999999" points="134.88,-20 94.88,-20 94.88,0 134.88,0 134.88,-20"/>
<text text-anchor="middle" x="114.88" y="-6.5" font-family="Helvetica,sans-Serif" font-size="10.00">string</text>
</a>
</g>
</g>
<!-- Node3&#45;&gt;Node4 -->
<g id="edge4_Node000003_Node000004" class="edge">
<title>Node3&#45;&gt;Node4</title>
<g id="a_edge4_Node000003_Node000004"><a xlink:title=" ">
<path fill="none" stroke="#63b8ff" d="M117.84,-55.55C117.36,-48.34 116.79,-39.66 116.27,-31.88"/>
<polygon fill="#63b8ff" stroke="#63b8ff" points="119.76,-31.66 115.6,-21.92 112.78,-32.13 119.76,-31.66"/>
</a>
</g>
</g>
<!-- Node5 -->
<g id="Node000005" class="node">
<title>Node5</title>
<g id="a_Node000005"><a xlink:title=" ">
<polygon fill="#e0e0e0" stroke="#999999" points="194.62,-20 153.12,-20 153.12,0 194.62,0 194.62,-20"/>
<text text-anchor="middle" x="173.88" y="-6.5" font-family="Helvetica,sans-Serif" font-size="10.00">vector</text>
</a>
</g>
</g>
<!-- Node3&#45;&gt;Node5 -->
<g id="edge5_Node000003_Node000005" class="edge">
<title>Node3&#45;&gt;Node5</title>
<g id="a_edge5_Node000003_Node000005"><a xlink:title=" ">
<path fill="none" stroke="#63b8ff" d="M133.04,-55.55C140.52,-47.39 149.73,-37.33 157.52,-28.84"/>
<polygon fill="#63b8ff" stroke="#63b8ff" points="160.05,-31.26 164.23,-21.52 154.89,-26.53 160.05,-31.26"/>
</a>
</g>
</g>
</g>
</svg>
