<?xml version="1.0" encoding="UTF-8" standalone="no"?>
<!DOCTYPE svg PUBLIC "-//W3C//DTD SVG 1.1//EN"
 "http://www.w3.org/Graphics/SVG/1.1/DTD/svg11.dtd">
<!-- Generated by graphviz version 11.0.0 (20240428.1522)
 -->
<!-- Title: argsToString Pages: 1 -->
<svg width="421pt" height="108pt"
 viewBox="0.00 0.00 421.25 108.00" xmlns="http://www.w3.org/2000/svg" xmlns:xlink="http://www.w3.org/1999/xlink">
<g id="graph0" class="graph" transform="scale(1 1) rotate(0) translate(4 104)">
<title>argsToString</title>
<!-- Node1 -->
<g id="Node000001" class="node">
<title>Node1</title>
<g id="a_Node000001"><a xlink:title="Converts the last argument of a variadic template into a string.">
<polygon fill="#999999" stroke="#666666" points="70.75,-94 0,-94 0,-74 70.75,-74 70.75,-94"/>
<text text-anchor="middle" x="35.38" y="-80.5" font-family="Helvetica,sans-Serif" font-size="10.00">argsToString</text>
</a>
</g>
</g>
<!-- Node2 -->
<g id="Node000002" class="node">
<title>Node2</title>
<g id="a_Node000002"><a xlink:href="class_g_l_e_s_c_1_1_stringer.html#acba5ca5265db3ba0cd968336f1428203" target="_top" xlink:title="Converts an object to a string.">
<polygon fill="white" stroke="#666666" points="235.25,-94 106.75,-94 106.75,-74 235.25,-74 235.25,-94"/>
<text text-anchor="middle" x="171" y="-80.5" font-family="Helvetica,sans-Serif" font-size="10.00">GLESC::Stringer::toString</text>
</a>
</g>
</g>
<!-- Node1&#45;&gt;Node2 -->
<g id="edge1_Node000001_Node000002" class="edge">
<title>Node1&#45;&gt;Node2</title>
<g id="a_edge1_Node000001_Node000002"><a xlink:title=" ">
<path fill="none" stroke="#63b8ff" d="M71.13,-84C78.58,-84 86.72,-84 95.03,-84"/>
<polygon fill="#63b8ff" stroke="#63b8ff" points="94.9,-87.5 104.9,-84 94.9,-80.5 94.9,-87.5"/>
</a>
</g>
</g>
<!-- Node3 -->
<g id="Node000003" class="node">
<title>Node3</title>
<g id="a_Node000003"><a xlink:href="class_g_l_e_s_c_1_1_stringer.html#acb7cc10341cef69e99362fa324fa1647" target="_top" xlink:title="Converts an iterable object to a string.">
<polygon fill="white" stroke="#666666" points="405.38,-100 279.12,-100 279.12,-68 405.38,-68 405.38,-100"/>
<text text-anchor="start" x="287.12" y="-86.5" font-family="Helvetica,sans-Serif" font-size="10.00">GLESC::Stringer::iterable</text>
<text text-anchor="middle" x="342.25" y="-74.5" font-family="Helvetica,sans-Serif" font-size="10.00">ToString</text>
</a>
</g>
</g>
<!-- Node2&#45;&gt;Node3 -->
<g id="edge2_Node000002_Node000003" class="edge">
<title>Node2&#45;&gt;Node3</title>
<g id="a_edge2_Node000002_Node000003"><a xlink:title=" ">
<path fill="none" stroke="#63b8ff" d="M235.5,-77.44C245.91,-77.25 256.76,-77.2 267.39,-77.3"/>
<polygon fill="#63b8ff" stroke="#63b8ff" points="267.23,-80.8 277.28,-77.44 267.33,-73.8 267.23,-80.8"/>
</a>
</g>
</g>
<!-- Node4 -->
<g id="Node000004" class="node">
<title>Node4</title>
<g id="a_Node000004"><a xlink:href="class_g_l_e_s_c_1_1_stringer.html#afa7028acf6b8eec53203e8a91774da85" target="_top" xlink:title="Converts a non&#45;iterable object to a string.">
<polygon fill="white" stroke="#666666" points="413.25,-32 271.25,-32 271.25,0 413.25,0 413.25,-32"/>
<text text-anchor="start" x="279.25" y="-18.5" font-family="Helvetica,sans-Serif" font-size="10.00">GLESC::Stringer::nonIterable</text>
<text text-anchor="middle" x="342.25" y="-6.5" font-family="Helvetica,sans-Serif" font-size="10.00">ToString</text>
</a>
</g>
</g>
<!-- Node2&#45;&gt;Node4 -->
<g id="edge4_Node000002_Node000004" class="edge">
<title>Node2&#45;&gt;Node4</title>
<g id="a_edge4_Node000002_Node000004"><a xlink:title=" ">
<path fill="none" stroke="#63b8ff" d="M198.07,-73.52C222.46,-63.73 259.57,-48.82 289.9,-36.63"/>
<polygon fill="#63b8ff" stroke="#63b8ff" points="290.93,-39.99 298.91,-33.01 288.32,-33.49 290.93,-39.99"/>
</a>
</g>
</g>
<!-- Node3&#45;&gt;Node2 -->
<g id="edge3_Node000003_Node000002" class="edge">
<title>Node3&#45;&gt;Node2</title>
<g id="a_edge3_Node000003_Node000002"><a xlink:title=" ">
<path fill="none" stroke="#63b8ff" d="M278.8,-90.54C268.43,-90.74 257.58,-90.8 246.94,-90.71"/>
<polygon fill="#63b8ff" stroke="#63b8ff" points="247.06,-87.21 237.02,-90.58 246.97,-94.21 247.06,-87.21"/>
</a>
</g>
</g>
<!-- Node4&#45;&gt;Node4 -->
<g id="edge5_Node000004_Node000004" class="edge">
<title>Node4&#45;&gt;Node4</title>
<g id="a_edge5_Node000004_Node000004"><a xlink:title=" ">
<path fill="none" stroke="#63b8ff" d="M311.68,-32.44C305.97,-41.58 316.16,-50 342.25,-50 356.52,-50 366.03,-47.48 370.79,-43.71"/>
<polygon fill="#63b8ff" stroke="#63b8ff" points="374.22,-44.4 372.55,-33.93 367.33,-43.15 374.22,-44.4"/>
</a>
</g>
</g>
</g>
</svg>
