<?xml version="1.0" encoding="UTF-8" standalone="no"?>
<!DOCTYPE svg PUBLIC "-//W3C//DTD SVG 1.1//EN"
 "http://www.w3.org/Graphics/SVG/1.1/DTD/svg11.dtd">
<!-- Generated by graphviz version 11.0.0 (20240428.1522)
 -->
<!-- Title: DebugInfoSystem.h Pages: 1 -->
<svg width="206pt" height="84pt"
 viewBox="0.00 0.00 205.50 84.00" xmlns="http://www.w3.org/2000/svg" xmlns:xlink="http://www.w3.org/1999/xlink">
<g id="graph0" class="graph" transform="scale(1 1) rotate(0) translate(4 80)">
<title>DebugInfoSystem.h</title>
<!-- Node1 -->
<g id="Node000001" class="node">
<title>Node1</title>
<g id="a_Node000001"><a xlink:title="System that displays debug information about the selected entity.">
<polygon fill="#999999" stroke="#666666" points="160,-76 59.25,-76 59.25,-56 160,-56 160,-76"/>
<text text-anchor="middle" x="109.62" y="-62.5" font-family="Helvetica,sans-Serif" font-size="10.00">DebugInfoSystem.h</text>
</a>
</g>
</g>
<!-- Node2 -->
<g id="Node000002" class="node">
<title>Node2</title>
<g id="a_Node000002"><a xlink:href="_debug_info_system_8cpp.html" target="_top" xlink:title=" ">
<polygon fill="white" stroke="#666666" points="111.25,-20 0,-20 0,0 111.25,0 111.25,-20"/>
<text text-anchor="middle" x="55.62" y="-6.5" font-family="Helvetica,sans-Serif" font-size="10.00">DebugInfoSystem.cpp</text>
</a>
</g>
</g>
<!-- Node1&#45;&gt;Node2 -->
<g id="edge1_Node000001_Node000002" class="edge">
<title>Node1&#45;&gt;Node2</title>
<g id="a_edge1_Node000001_Node000002"><a xlink:title=" ">
<path fill="none" stroke="#63b8ff" d="M92.19,-47.57C83.12,-38.5 72.4,-27.78 64.92,-20.3"/>
<polygon fill="#63b8ff" stroke="#63b8ff" points="89.6,-49.93 99.15,-54.52 94.55,-44.98 89.6,-49.93"/>
</a>
</g>
</g>
<!-- Node3 -->
<g id="Node000003" class="node">
<title>Node3</title>
<g id="a_Node000003"><a xlink:href="_g_l_e_s_c_8cpp.html" target="_top" xlink:title=" ">
<polygon fill="white" stroke="#666666" points="197.5,-20 129.75,-20 129.75,0 197.5,0 197.5,-20"/>
<text text-anchor="middle" x="163.62" y="-6.5" font-family="Helvetica,sans-Serif" font-size="10.00">GLESC.cpp</text>
</a>
</g>
</g>
<!-- Node1&#45;&gt;Node3 -->
<g id="edge2_Node000001_Node000003" class="edge">
<title>Node1&#45;&gt;Node3</title>
<g id="a_edge2_Node000001_Node000003"><a xlink:title=" ">
<path fill="none" stroke="#63b8ff" d="M127.06,-47.57C136.13,-38.5 146.85,-27.78 154.33,-20.3"/>
<polygon fill="#63b8ff" stroke="#63b8ff" points="124.7,-44.98 120.1,-54.52 129.65,-49.93 124.7,-44.98"/>
</a>
</g>
</g>
</g>
</svg>
