<?xml version="1.0" encoding="UTF-8" standalone="no"?>
<!DOCTYPE svg PUBLIC "-//W3C//DTD SVG 1.1//EN"
 "http://www.w3.org/Graphics/SVG/1.1/DTD/svg11.dtd">
<!-- Generated by graphviz version 11.0.0 (20240428.1522)
 -->
<!-- Title: EntityManager.cpp Pages: 1 -->
<svg width="1288pt" height="412pt"
 viewBox="0.00 0.00 1287.63 412.00" xmlns="http://www.w3.org/2000/svg" xmlns:xlink="http://www.w3.org/1999/xlink">
<g id="graph0" class="graph" transform="scale(1 1) rotate(0) translate(4 408)">
<title>EntityManager.cpp</title>
<!-- Node1 -->
<g id="Node000001" class="node">
<title>Node1</title>
<g id="a_Node000001"><a xlink:title=" ">
<polygon fill="#999999" stroke="#666666" points="779.25,-404 681.5,-404 681.5,-384 779.25,-384 779.25,-404"/>
<text text-anchor="middle" x="730.38" y="-390.5" font-family="Helvetica,sans-Serif" font-size="10.00">EntityManager.cpp</text>
</a>
</g>
</g>
<!-- Node2 -->
<g id="Node000002" class="node">
<title>Node2</title>
<g id="a_Node000002"><a xlink:title=" ">
<polygon fill="#e0e0e0" stroke="#999999" points="1251,-138 1193.75,-138 1193.75,-118 1251,-118 1251,-138"/>
<text text-anchor="middle" x="1222.38" y="-124.5" font-family="Helvetica,sans-Serif" font-size="10.00">functional</text>
</a>
</g>
</g>
<!-- Node1&#45;&gt;Node2 -->
<g id="edge1_Node000001_Node000002" class="edge">
<title>Node1&#45;&gt;Node2</title>
<g id="a_edge1_Node000001_Node000002"><a xlink:title=" ">
<path fill="none" stroke="#63b8ff" d="M779.67,-386.23C862.48,-373.55 1033.4,-341.76 1165.38,-280 1212.4,-257.99 1236.64,-258.18 1260.38,-212 1271.74,-189.88 1254.89,-163.69 1240.15,-146.73"/>
<polygon fill="#63b8ff" stroke="#63b8ff" points="1242.76,-144.4 1233.4,-139.45 1237.63,-149.16 1242.76,-144.4"/>
</a>
</g>
</g>
<!-- Node3 -->
<g id="Node000003" class="node">
<title>Node3</title>
<g id="a_Node000003"><a xlink:href="_entity_manager_8h.html" target="_top" xlink:title=" ">
<polygon fill="white" stroke="#666666" points="789,-348 671.75,-348 671.75,-316 789,-316 789,-348"/>
<text text-anchor="start" x="679.75" y="-334.5" font-family="Helvetica,sans-Serif" font-size="10.00">engine/ecs/backend</text>
<text text-anchor="middle" x="730.38" y="-322.5" font-family="Helvetica,sans-Serif" font-size="10.00">/entity/EntityManager.h</text>
</a>
</g>
</g>
<!-- Node1&#45;&gt;Node3 -->
<g id="edge2_Node000001_Node000003" class="edge">
<title>Node1&#45;&gt;Node3</title>
<g id="a_edge2_Node000001_Node000003"><a xlink:title=" ">
<path fill="none" stroke="#63b8ff" d="M730.38,-383.62C730.38,-377.1 730.38,-368.05 730.38,-359.4"/>
<polygon fill="#63b8ff" stroke="#63b8ff" points="733.88,-359.65 730.38,-349.65 726.88,-359.65 733.88,-359.65"/>
</a>
</g>
</g>
<!-- Node17 -->
<g id="Node000017" class="node">
<title>Node17</title>
<g id="a_Node000017"><a xlink:href="_stringer_8h.html" target="_top" xlink:title="A set of functions for converting objects to strings.">
<polygon fill="white" stroke="#666666" points="415.88,-212 306.88,-212 306.88,-180 415.88,-180 415.88,-212"/>
<text text-anchor="start" x="314.88" y="-198.5" font-family="Helvetica,sans-Serif" font-size="10.00">engine/core/debugger</text>
<text text-anchor="middle" x="361.38" y="-186.5" font-family="Helvetica,sans-Serif" font-size="10.00">/Stringer.h</text>
</a>
</g>
</g>
<!-- Node1&#45;&gt;Node17 -->
<g id="edge48_Node000001_Node000017" class="edge">
<title>Node1&#45;&gt;Node17</title>
<g id="a_edge48_Node000001_Node000017"><a xlink:title=" ">
<path fill="none" stroke="#63b8ff" d="M712.12,-383.57C674.86,-364.29 587.4,-318.9 514.38,-280 475.08,-259.06 430.33,-234.73 399.43,-217.85"/>
<polygon fill="#63b8ff" stroke="#63b8ff" points="401.29,-214.88 390.83,-213.15 397.93,-221.02 401.29,-214.88"/>
</a>
</g>
</g>
<!-- Node4 -->
<g id="Node000004" class="node">
<title>Node4</title>
<g id="a_Node000004"><a xlink:title=" ">
<polygon fill="#e0e0e0" stroke="#999999" points="1251.5,-76 1209.25,-76 1209.25,-56 1251.5,-56 1251.5,-76"/>
<text text-anchor="middle" x="1230.38" y="-62.5" font-family="Helvetica,sans-Serif" font-size="10.00">queue</text>
</a>
</g>
</g>
<!-- Node3&#45;&gt;Node4 -->
<g id="edge3_Node000003_Node000004" class="edge">
<title>Node3&#45;&gt;Node4</title>
<g id="a_edge3_Node000003_Node000004"><a xlink:title=" ">
<path fill="none" stroke="#63b8ff" d="M789.18,-327.75C891.56,-321.49 1098.09,-306.02 1165.38,-280 1213.8,-261.27 1236.64,-258.18 1260.38,-212 1280.69,-172.47 1273.25,-154.54 1260.38,-112 1257.5,-102.5 1251.88,-93.18 1246.28,-85.5"/>
<polygon fill="#63b8ff" stroke="#63b8ff" points="1249.04,-83.35 1240.1,-77.67 1243.55,-87.69 1249.04,-83.35"/>
</a>
</g>
</g>
<!-- Node5 -->
<g id="Node000005" class="node">
<title>Node5</title>
<g id="a_Node000005"><a xlink:title=" ">
<polygon fill="#e0e0e0" stroke="#999999" points="605.75,-274 523,-274 523,-254 605.75,-254 605.75,-274"/>
<text text-anchor="middle" x="564.38" y="-260.5" font-family="Helvetica,sans-Serif" font-size="10.00">unordered_map</text>
</a>
</g>
</g>
<!-- Node3&#45;&gt;Node5 -->
<g id="edge4_Node000003_Node000005" class="edge">
<title>Node3&#45;&gt;Node5</title>
<g id="a_edge4_Node000003_Node000005"><a xlink:title=" ">
<path fill="none" stroke="#63b8ff" d="M691.46,-315.53C663.32,-304.34 625.68,-289.37 598.67,-278.64"/>
<polygon fill="#63b8ff" stroke="#63b8ff" points="600.16,-275.46 589.57,-275.02 597.57,-281.97 600.16,-275.46"/>
</a>
</g>
</g>
<!-- Node6 -->
<g id="Node000006" class="node">
<title>Node6</title>
<g id="a_Node000006"><a xlink:title=" ">
<polygon fill="#e0e0e0" stroke="#999999" points="661.25,-274 623.5,-274 623.5,-254 661.25,-254 661.25,-274"/>
<text text-anchor="middle" x="642.38" y="-260.5" font-family="Helvetica,sans-Serif" font-size="10.00">array</text>
</a>
</g>
</g>
<!-- Node3&#45;&gt;Node6 -->
<g id="edge5_Node000003_Node000006" class="edge">
<title>Node3&#45;&gt;Node6</title>
<g id="a_edge5_Node000003_Node000006"><a xlink:title=" ">
<path fill="none" stroke="#63b8ff" d="M709.96,-315.69C696.1,-305.3 677.81,-291.57 663.75,-281.03"/>
<polygon fill="#63b8ff" stroke="#63b8ff" points="666.11,-278.42 656.01,-275.22 661.91,-284.02 666.11,-278.42"/>
</a>
</g>
</g>
<!-- Node7 -->
<g id="Node000007" class="node">
<title>Node7</title>
<g id="a_Node000007"><a xlink:title=" ">
<polygon fill="#e0e0e0" stroke="#999999" points="954,-206 914.75,-206 914.75,-186 954,-186 954,-206"/>
<text text-anchor="middle" x="934.38" y="-192.5" font-family="Helvetica,sans-Serif" font-size="10.00">limits</text>
</a>
</g>
</g>
<!-- Node3&#45;&gt;Node7 -->
<g id="edge6_Node000003_Node000007" class="edge">
<title>Node3&#45;&gt;Node7</title>
<g id="a_edge6_Node000003_Node000007"><a xlink:title=" ">
<path fill="none" stroke="#63b8ff" d="M753.78,-315.63C792.88,-289.94 871.08,-238.58 910.5,-212.69"/>
<polygon fill="#63b8ff" stroke="#63b8ff" points="912.38,-215.64 918.81,-207.22 908.53,-209.79 912.38,-215.64"/>
</a>
</g>
</g>
<!-- Node8 -->
<g id="Node000008" class="node">
<title>Node8</title>
<g id="a_Node000008"><a xlink:href="_asserts_8h.html" target="_top" xlink:title="Set of macros for runtime and compile time assertions.">
<polygon fill="white" stroke="#666666" points="781.12,-280 679.62,-280 679.62,-248 781.12,-248 781.12,-280"/>
<text text-anchor="start" x="687.62" y="-266.5" font-family="Helvetica,sans-Serif" font-size="10.00">engine/core/asserts</text>
<text text-anchor="middle" x="730.38" y="-254.5" font-family="Helvetica,sans-Serif" font-size="10.00">/Asserts.h</text>
</a>
</g>
</g>
<!-- Node3&#45;&gt;Node8 -->
<g id="edge7_Node000003_Node000008" class="edge">
<title>Node3&#45;&gt;Node8</title>
<g id="a_edge7_Node000003_Node000008"><a xlink:title=" ">
<path fill="none" stroke="#63b8ff" d="M730.38,-315.69C730.38,-308.53 730.38,-299.79 730.38,-291.59"/>
<polygon fill="#63b8ff" stroke="#63b8ff" points="733.88,-291.74 730.38,-281.74 726.88,-291.74 733.88,-291.74"/>
</a>
</g>
</g>
<!-- Node30 -->
<g id="Node000030" class="node">
<title>Node30</title>
<g id="a_Node000030"><a xlink:href="_e_c_s_types_8h.html" target="_top" xlink:title="@TODO Add description of this file if needed">
<polygon fill="white" stroke="#666666" points="241.88,-206 120.88,-206 120.88,-186 241.88,-186 241.88,-206"/>
<text text-anchor="middle" x="181.38" y="-192.5" font-family="Helvetica,sans-Serif" font-size="10.00">engine/ecs/ECSTypes.h</text>
</a>
</g>
</g>
<!-- Node3&#45;&gt;Node30 -->
<g id="edge39_Node000003_Node000030" class="edge">
<title>Node3&#45;&gt;Node30</title>
<g id="a_edge39_Node000003_Node000030"><a xlink:title=" ">
<path fill="none" stroke="#63b8ff" d="M671.66,-317.34C628.19,-307.18 567.55,-292.9 514.38,-280 413.05,-255.41 294.65,-225.66 229.87,-209.29"/>
<polygon fill="#63b8ff" stroke="#63b8ff" points="230.81,-205.92 220.26,-206.86 229.1,-212.7 230.81,-205.92"/>
</a>
</g>
</g>
<!-- Node33 -->
<g id="Node000033" class="node">
<title>Node33</title>
<g id="a_Node000033"><a xlink:href="_entity_list_manager_8h.html" target="_top" xlink:title="Class that manages the list of entities in the scene.">
<polygon fill="white" stroke="#666666" points="1156,-280 1020.75,-280 1020.75,-248 1156,-248 1156,-280"/>
<text text-anchor="start" x="1028.75" y="-266.5" font-family="Helvetica,sans-Serif" font-size="10.00">engine/subsystems/ingame</text>
<text text-anchor="middle" x="1088.38" y="-254.5" font-family="Helvetica,sans-Serif" font-size="10.00">&#45;debug/EntityListManager.h</text>
</a>
</g>
</g>
<!-- Node3&#45;&gt;Node33 -->
<g id="edge44_Node000003_Node000033" class="edge">
<title>Node3&#45;&gt;Node33</title>
<g id="a_edge44_Node000003_Node000033"><a xlink:title=" ">
<path fill="none" stroke="#63b8ff" d="M789.49,-320.1C849.47,-309.04 942.69,-291.86 1009.07,-279.62"/>
<polygon fill="#63b8ff" stroke="#63b8ff" points="1009.62,-283.08 1018.82,-277.82 1008.35,-276.19 1009.62,-283.08"/>
</a>
</g>
</g>
<!-- Node8&#45;&gt;Node7 -->
<g id="edge9_Node000008_Node000007" class="edge">
<title>Node8&#45;&gt;Node7</title>
<g id="a_edge9_Node000008_Node000007"><a xlink:title=" ">
<path fill="none" stroke="#63b8ff" d="M781.4,-251.24C817.06,-242.29 865.42,-228.69 906.38,-212 906.86,-211.8 907.35,-211.6 907.84,-211.39"/>
<polygon fill="#63b8ff" stroke="#63b8ff" points="909.21,-214.61 916.71,-207.13 906.18,-208.3 909.21,-214.61"/>
</a>
</g>
</g>
<!-- Node9 -->
<g id="Node000009" class="node">
<title>Node9</title>
<g id="a_Node000009"><a xlink:title=" ">
<polygon fill="#e0e0e0" stroke="#999999" points="644.88,-206 601.88,-206 601.88,-186 644.88,-186 644.88,-206"/>
<text text-anchor="middle" x="623.38" y="-192.5" font-family="Helvetica,sans-Serif" font-size="10.00">cmath</text>
</a>
</g>
</g>
<!-- Node8&#45;&gt;Node9 -->
<g id="edge8_Node000008_Node000009" class="edge">
<title>Node8&#45;&gt;Node9</title>
<g id="a_edge8_Node000008_Node000009"><a xlink:title=" ">
<path fill="none" stroke="#63b8ff" d="M705.29,-247.53C688.04,-236.89 665.25,-222.83 648.08,-212.24"/>
<polygon fill="#63b8ff" stroke="#63b8ff" points="650.35,-209.53 640,-207.25 646.67,-215.48 650.35,-209.53"/>
</a>
</g>
</g>
<!-- Node10 -->
<g id="Node000010" class="node">
<title>Node10</title>
<g id="a_Node000010"><a xlink:title=" ">
<polygon fill="#e0e0e0" stroke="#999999" points="788.38,-20 748.38,-20 748.38,0 788.38,0 788.38,-20"/>
<text text-anchor="middle" x="768.38" y="-6.5" font-family="Helvetica,sans-Serif" font-size="10.00">string</text>
</a>
</g>
</g>
<!-- Node8&#45;&gt;Node10 -->
<g id="edge10_Node000008_Node000010" class="edge">
<title>Node8&#45;&gt;Node10</title>
<g id="a_edge10_Node000008_Node000010"><a xlink:title=" ">
<path fill="none" stroke="#63b8ff" d="M732.69,-247.62C739.23,-204.26 757.82,-81.02 765.25,-31.74"/>
<polygon fill="#63b8ff" stroke="#63b8ff" points="768.7,-32.32 766.73,-21.91 761.78,-31.27 768.7,-32.32"/>
</a>
</g>
</g>
<!-- Node11 -->
<g id="Node000011" class="node">
<title>Node11</title>
<g id="a_Node000011"><a xlink:title=" ">
<polygon fill="#e0e0e0" stroke="#999999" points="448.25,-138 386.5,-138 386.5,-118 448.25,-118 448.25,-138"/>
<text text-anchor="middle" x="417.38" y="-124.5" font-family="Helvetica,sans-Serif" font-size="10.00">type_traits</text>
</a>
</g>
</g>
<!-- Node8&#45;&gt;Node11 -->
<g id="edge11_Node000008_Node000011" class="edge">
<title>Node8&#45;&gt;Node11</title>
<g id="a_edge11_Node000008_Node000011"><a xlink:title=" ">
<path fill="none" stroke="#63b8ff" d="M717.27,-247.66C697.67,-224.88 662.2,-184.33 654.38,-180 576.48,-136.93 543.16,-167.72 457.38,-144 455.37,-143.45 453.33,-142.83 451.27,-142.18"/>
<polygon fill="#63b8ff" stroke="#63b8ff" points="452.44,-138.88 441.84,-138.93 450.15,-145.5 452.44,-138.88"/>
</a>
</g>
</g>
<!-- Node12 -->
<g id="Node000012" class="node">
<title>Node12</title>
<g id="a_Node000012"><a xlink:title=" ">
<polygon fill="#e0e0e0" stroke="#999999" points="518,-138 466.75,-138 466.75,-118 518,-118 518,-138"/>
<text text-anchor="middle" x="492.38" y="-124.5" font-family="Helvetica,sans-Serif" font-size="10.00">sstream</text>
</a>
</g>
</g>
<!-- Node8&#45;&gt;Node12 -->
<g id="edge12_Node000008_Node000012" class="edge">
<title>Node8&#45;&gt;Node12</title>
<g id="a_edge12_Node000008_Node000012"><a xlink:title=" ">
<path fill="none" stroke="#63b8ff" d="M726.67,-247.56C721.3,-228.65 709.49,-197.03 687.38,-180 629.29,-135.25 596.03,-166.91 526.38,-144 525.03,-143.56 523.67,-143.08 522.3,-142.58"/>
<polygon fill="#63b8ff" stroke="#63b8ff" points="523.88,-139.45 513.3,-138.96 521.27,-145.94 523.88,-139.45"/>
</a>
</g>
</g>
<!-- Node13 -->
<g id="Node000013" class="node">
<title>Node13</title>
<g id="a_Node000013"><a xlink:href="_assert_failed_exception_8h.html" target="_top" xlink:title="@TODO Add description of this file if needed">
<polygon fill="white" stroke="#666666" points="584,-212 436.75,-212 436.75,-180 584,-180 584,-212"/>
<text text-anchor="start" x="444.75" y="-198.5" font-family="Helvetica,sans-Serif" font-size="10.00">engine/core/exceptions</text>
<text text-anchor="middle" x="510.38" y="-186.5" font-family="Helvetica,sans-Serif" font-size="10.00">/core/AssertFailedException.h</text>
</a>
</g>
</g>
<!-- Node8&#45;&gt;Node13 -->
<g id="edge13_Node000008_Node000013" class="edge">
<title>Node8&#45;&gt;Node13</title>
<g id="a_edge13_Node000008_Node000013"><a xlink:title=" ">
<path fill="none" stroke="#63b8ff" d="M679.35,-247.69C647.51,-238.14 606.31,-225.78 572.56,-215.66"/>
<polygon fill="#63b8ff" stroke="#63b8ff" points="573.92,-212.41 563.34,-212.89 571.91,-219.11 573.92,-212.41"/>
</a>
</g>
</g>
<!-- Node8&#45;&gt;Node17 -->
<g id="edge18_Node000008_Node000017" class="edge">
<title>Node8&#45;&gt;Node17</title>
<g id="a_edge18_Node000008_Node000017"><a xlink:title=" ">
<path fill="none" stroke="#63b8ff" d="M679.39,-249.89C676.35,-249.22 673.32,-248.59 670.38,-248 563.29,-226.73 534.69,-232.11 427.38,-212 427.26,-211.98 427.14,-211.96 427.03,-211.93"/>
<polygon fill="#63b8ff" stroke="#63b8ff" points="428.02,-208.56 417.54,-210.06 426.67,-215.43 428.02,-208.56"/>
</a>
</g>
</g>
<!-- Node21 -->
<g id="Node000021" class="node">
<title>Node21</title>
<g id="a_Node000021"><a xlink:href="_logger_8h.html" target="_top" xlink:title="@TODO Add description of this file if needed">
<polygon fill="white" stroke="#666666" points="897.12,-212 801.62,-212 801.62,-180 897.12,-180 897.12,-212"/>
<text text-anchor="start" x="809.62" y="-198.5" font-family="Helvetica,sans-Serif" font-size="10.00">engine/core/logger</text>
<text text-anchor="middle" x="849.38" y="-186.5" font-family="Helvetica,sans-Serif" font-size="10.00">/Logger.h</text>
</a>
</g>
</g>
<!-- Node8&#45;&gt;Node21 -->
<g id="edge25_Node000008_Node000021" class="edge">
<title>Node8&#45;&gt;Node21</title>
<g id="a_edge25_Node000008_Node000021"><a xlink:title=" ">
<path fill="none" stroke="#63b8ff" d="M758.28,-247.53C774.24,-238.67 794.48,-227.45 811.83,-217.83"/>
<polygon fill="#63b8ff" stroke="#63b8ff" points="813.28,-221.02 820.33,-213.11 809.88,-214.9 813.28,-221.02"/>
</a>
</g>
</g>
<!-- Node14 -->
<g id="Node000014" class="node">
<title>Node14</title>
<g id="a_Node000014"><a xlink:href="_engine_exception_8h.html" target="_top" xlink:title="Base exception class for any exception in the engine.">
<polygon fill="white" stroke="#666666" points="721.62,-144 605.12,-144 605.12,-112 721.62,-112 721.62,-144"/>
<text text-anchor="start" x="613.12" y="-130.5" font-family="Helvetica,sans-Serif" font-size="10.00">engine/core/exceptions</text>
<text text-anchor="middle" x="663.38" y="-118.5" font-family="Helvetica,sans-Serif" font-size="10.00">/EngineException.h</text>
</a>
</g>
</g>
<!-- Node13&#45;&gt;Node14 -->
<g id="edge14_Node000013_Node000014" class="edge">
<title>Node13&#45;&gt;Node14</title>
<g id="a_edge14_Node000013_Node000014"><a xlink:title=" ">
<path fill="none" stroke="#63b8ff" d="M546.25,-179.53C567.37,-170.41 594.31,-158.79 617.03,-148.99"/>
<polygon fill="#63b8ff" stroke="#63b8ff" points="618.28,-152.27 626.07,-145.09 615.51,-145.84 618.28,-152.27"/>
</a>
</g>
</g>
<!-- Node15 -->
<g id="Node000015" class="node">
<title>Node15</title>
<g id="a_Node000015"><a xlink:href="_base_exception_8h.html" target="_top" xlink:title=" ">
<polygon fill="white" stroke="#666666" points="330.5,-76 240.25,-76 240.25,-56 330.5,-56 330.5,-76"/>
<text text-anchor="middle" x="285.38" y="-62.5" font-family="Helvetica,sans-Serif" font-size="10.00">BaseException.h</text>
</a>
</g>
</g>
<!-- Node14&#45;&gt;Node15 -->
<g id="edge15_Node000014_Node000015" class="edge">
<title>Node14&#45;&gt;Node15</title>
<g id="a_edge15_Node000014_Node000015"><a xlink:title=" ">
<path fill="none" stroke="#63b8ff" d="M604.96,-113.65C602.06,-113.07 599.19,-112.52 596.38,-112 507.98,-95.73 404.56,-81.77 342.06,-73.88"/>
<polygon fill="#63b8ff" stroke="#63b8ff" points="342.74,-70.43 332.38,-72.66 341.87,-77.38 342.74,-70.43"/>
</a>
</g>
</g>
<!-- Node15&#45;&gt;Node10 -->
<g id="edge17_Node000015_Node000010" class="edge">
<title>Node15&#45;&gt;Node10</title>
<g id="a_edge17_Node000015_Node000010"><a xlink:title=" ">
<path fill="none" stroke="#63b8ff" d="M330.76,-57.86C335.36,-57.2 339.96,-56.57 344.38,-56 490.81,-37.07 666.45,-20.32 736.89,-13.85"/>
<polygon fill="#63b8ff" stroke="#63b8ff" points="736.89,-17.36 746.53,-12.96 736.25,-10.39 736.89,-17.36"/>
</a>
</g>
</g>
<!-- Node16 -->
<g id="Node000016" class="node">
<title>Node16</title>
<g id="a_Node000016"><a xlink:title=" ">
<polygon fill="#e0e0e0" stroke="#999999" points="314.75,-20 256,-20 256,0 314.75,0 314.75,-20"/>
<text text-anchor="middle" x="285.38" y="-6.5" font-family="Helvetica,sans-Serif" font-size="10.00">stdexcept</text>
</a>
</g>
</g>
<!-- Node15&#45;&gt;Node16 -->
<g id="edge16_Node000015_Node000016" class="edge">
<title>Node15&#45;&gt;Node16</title>
<g id="a_edge16_Node000015_Node000016"><a xlink:title=" ">
<path fill="none" stroke="#63b8ff" d="M285.38,-55.59C285.38,-49.01 285.38,-39.96 285.38,-31.73"/>
<polygon fill="#63b8ff" stroke="#63b8ff" points="288.88,-31.81 285.38,-21.81 281.88,-31.81 288.88,-31.81"/>
</a>
</g>
</g>
<!-- Node17&#45;&gt;Node10 -->
<g id="edge19_Node000017_Node000010" class="edge">
<title>Node17&#45;&gt;Node10</title>
<g id="a_edge19_Node000017_Node000010"><a xlink:title=" ">
<path fill="none" stroke="#63b8ff" d="M359.81,-179.67C358.83,-161.18 360.19,-130.29 377.38,-112 427.13,-59.04 652.7,-25.62 736.72,-14.82"/>
<polygon fill="#63b8ff" stroke="#63b8ff" points="737.06,-18.31 746.55,-13.58 736.19,-11.36 737.06,-18.31"/>
</a>
</g>
</g>
<!-- Node17&#45;&gt;Node11 -->
<g id="edge21_Node000017_Node000011" class="edge">
<title>Node17&#45;&gt;Node11</title>
<g id="a_edge21_Node000017_Node000011"><a xlink:title=" ">
<path fill="none" stroke="#63b8ff" d="M374.36,-179.69C382.68,-169.9 393.49,-157.15 402.2,-146.89"/>
<polygon fill="#63b8ff" stroke="#63b8ff" points="404.69,-149.36 408.49,-139.47 399.35,-144.83 404.69,-149.36"/>
</a>
</g>
</g>
<!-- Node17&#45;&gt;Node12 -->
<g id="edge20_Node000017_Node000012" class="edge">
<title>Node17&#45;&gt;Node12</title>
<g id="a_edge20_Node000017_Node000012"><a xlink:title=" ">
<path fill="none" stroke="#63b8ff" d="M392.09,-179.53C413.7,-168.64 442.42,-154.17 463.59,-143.5"/>
<polygon fill="#63b8ff" stroke="#63b8ff" points="464.89,-146.77 472.25,-139.14 461.74,-140.51 464.89,-146.77"/>
</a>
</g>
</g>
<!-- Node18 -->
<g id="Node000018" class="node">
<title>Node18</title>
<g id="a_Node000018"><a xlink:title=" ">
<polygon fill="#e0e0e0" stroke="#999999" points="272.25,-138 222.5,-138 222.5,-118 272.25,-118 272.25,-138"/>
<text text-anchor="middle" x="247.38" y="-124.5" font-family="Helvetica,sans-Serif" font-size="10.00">iomanip</text>
</a>
</g>
</g>
<!-- Node17&#45;&gt;Node18 -->
<g id="edge22_Node000017_Node000018" class="edge">
<title>Node17&#45;&gt;Node18</title>
<g id="a_edge22_Node000017_Node000018"><a xlink:title=" ">
<path fill="none" stroke="#63b8ff" d="M334.65,-179.53C316.19,-168.84 291.76,-154.7 273.44,-144.09"/>
<polygon fill="#63b8ff" stroke="#63b8ff" points="275.43,-141.2 265.02,-139.22 271.93,-147.26 275.43,-141.2"/>
</a>
</g>
</g>
<!-- Node19 -->
<g id="Node000019" class="node">
<title>Node19</title>
<g id="a_Node000019"><a xlink:title=" ">
<polygon fill="#e0e0e0" stroke="#999999" points="204,-138 158.75,-138 158.75,-118 204,-118 204,-138"/>
<text text-anchor="middle" x="181.38" y="-124.5" font-family="Helvetica,sans-Serif" font-size="10.00">cstdint</text>
</a>
</g>
</g>
<!-- Node17&#45;&gt;Node19 -->
<g id="edge23_Node000017_Node000019" class="edge">
<title>Node17&#45;&gt;Node19</title>
<g id="a_edge23_Node000017_Node000019"><a xlink:title=" ">
<path fill="none" stroke="#63b8ff" d="M312.23,-179.52C283.19,-170.02 245.87,-157.17 213.38,-144 212.59,-143.68 211.79,-143.35 210.99,-143.01"/>
<polygon fill="#63b8ff" stroke="#63b8ff" points="212.46,-139.84 201.9,-138.99 209.63,-146.24 212.46,-139.84"/>
</a>
</g>
</g>
<!-- Node20 -->
<g id="Node000020" class="node">
<title>Node20</title>
<g id="a_Node000020"><a xlink:title=" ">
<polygon fill="#e0e0e0" stroke="#999999" points="330,-138 290.75,-138 290.75,-118 330,-118 330,-138"/>
<text text-anchor="middle" x="310.38" y="-124.5" font-family="Helvetica,sans-Serif" font-size="10.00">utility</text>
</a>
</g>
</g>
<!-- Node17&#45;&gt;Node20 -->
<g id="edge24_Node000017_Node000020" class="edge">
<title>Node17&#45;&gt;Node20</title>
<g id="a_edge24_Node000017_Node000020"><a xlink:title=" ">
<path fill="none" stroke="#63b8ff" d="M349.55,-179.69C342.05,-170 332.33,-157.41 324.44,-147.2"/>
<polygon fill="#63b8ff" stroke="#63b8ff" points="327.38,-145.29 318.5,-139.51 321.84,-149.57 327.38,-145.29"/>
</a>
</g>
</g>
<!-- Node21&#45;&gt;Node2 -->
<g id="edge29_Node000021_Node000002" class="edge">
<title>Node21&#45;&gt;Node2</title>
<g id="a_edge29_Node000021_Node000002"><a xlink:title=" ">
<path fill="none" stroke="#63b8ff" d="M897.54,-181.67C900.19,-181.07 902.81,-180.51 905.38,-180 1025.84,-156.06 1059.87,-172.38 1179.38,-144 1181.97,-143.38 1184.63,-142.67 1187.29,-141.89"/>
<polygon fill="#63b8ff" stroke="#63b8ff" points="1188.17,-145.29 1196.63,-138.91 1186.04,-138.62 1188.17,-145.29"/>
</a>
</g>
</g>
<!-- Node21&#45;&gt;Node10 -->
<g id="edge26_Node000021_Node000010" class="edge">
<title>Node21&#45;&gt;Node10</title>
<g id="a_edge26_Node000021_Node000010"><a xlink:title=" ">
<path fill="none" stroke="#63b8ff" d="M842.61,-179.63C827.92,-146.27 793.16,-67.29 776.96,-30.5"/>
<polygon fill="#63b8ff" stroke="#63b8ff" points="780.24,-29.27 773.01,-21.53 773.84,-32.09 780.24,-29.27"/>
</a>
</g>
</g>
<!-- Node22 -->
<g id="Node000022" class="node">
<title>Node22</title>
<g id="a_Node000022"><a xlink:title=" ">
<polygon fill="#e0e0e0" stroke="#999999" points="587,-138 535.75,-138 535.75,-118 587,-118 587,-138"/>
<text text-anchor="middle" x="561.38" y="-124.5" font-family="Helvetica,sans-Serif" font-size="10.00">memory</text>
</a>
</g>
</g>
<!-- Node21&#45;&gt;Node22 -->
<g id="edge27_Node000021_Node000022" class="edge">
<title>Node21&#45;&gt;Node22</title>
<g id="a_edge27_Node000021_Node000022"><a xlink:title=" ">
<path fill="none" stroke="#63b8ff" d="M801.55,-188.37C750.12,-180.54 666.32,-165.78 596.38,-144 594.99,-143.57 593.59,-143.1 592.18,-142.61"/>
<polygon fill="#63b8ff" stroke="#63b8ff" points="593.47,-139.35 582.88,-139 590.93,-145.88 593.47,-139.35"/>
</a>
</g>
</g>
<!-- Node23 -->
<g id="Node000023" class="node">
<title>Node23</title>
<g id="a_Node000023"><a xlink:title=" ">
<polygon fill="#e0e0e0" stroke="#999999" points="895.12,-138 853.62,-138 853.62,-118 895.12,-118 895.12,-138"/>
<text text-anchor="middle" x="874.38" y="-124.5" font-family="Helvetica,sans-Serif" font-size="10.00">vector</text>
</a>
</g>
</g>
<!-- Node21&#45;&gt;Node23 -->
<g id="edge28_Node000021_Node000023" class="edge">
<title>Node21&#45;&gt;Node23</title>
<g id="a_edge28_Node000021_Node000023"><a xlink:title=" ">
<path fill="none" stroke="#63b8ff" d="M855.17,-179.69C858.66,-170.5 863.13,-158.7 866.88,-148.8"/>
<polygon fill="#63b8ff" stroke="#63b8ff" points="870.04,-150.32 870.31,-139.73 863.49,-147.84 870.04,-150.32"/>
</a>
</g>
</g>
<!-- Node24 -->
<g id="Node000024" class="node">
<title>Node24</title>
<g id="a_Node000024"><a xlink:title=" ">
<polygon fill="#e0e0e0" stroke="#999999" points="958,-138 912.75,-138 912.75,-118 958,-118 958,-138"/>
<text text-anchor="middle" x="935.38" y="-124.5" font-family="Helvetica,sans-Serif" font-size="10.00">atomic</text>
</a>
</g>
</g>
<!-- Node21&#45;&gt;Node24 -->
<g id="edge30_Node000021_Node000024" class="edge">
<title>Node21&#45;&gt;Node24</title>
<g id="a_edge30_Node000021_Node000024"><a xlink:title=" ">
<path fill="none" stroke="#63b8ff" d="M869.32,-179.69C882.87,-169.3 900.75,-155.57 914.49,-145.03"/>
<polygon fill="#63b8ff" stroke="#63b8ff" points="916.23,-148.1 922.03,-139.24 911.97,-142.55 916.23,-148.1"/>
</a>
</g>
</g>
<!-- Node25 -->
<g id="Node000025" class="node">
<title>Node25</title>
<g id="a_Node000025"><a xlink:title=" ">
<polygon fill="#e0e0e0" stroke="#999999" points="1018.88,-138 975.88,-138 975.88,-118 1018.88,-118 1018.88,-138"/>
<text text-anchor="middle" x="997.38" y="-124.5" font-family="Helvetica,sans-Serif" font-size="10.00">thread</text>
</a>
</g>
</g>
<!-- Node21&#45;&gt;Node25 -->
<g id="edge31_Node000021_Node000025" class="edge">
<title>Node21&#45;&gt;Node25</title>
<g id="a_edge31_Node000021_Node000025"><a xlink:title=" ">
<path fill="none" stroke="#63b8ff" d="M886.55,-179.56C909.9,-169.71 940.57,-156.48 967.38,-144 967.85,-143.78 968.33,-143.55 968.81,-143.33"/>
<polygon fill="#63b8ff" stroke="#63b8ff" points="970.22,-146.54 977.69,-139.03 967.16,-140.24 970.22,-146.54"/>
</a>
</g>
</g>
<!-- Node26 -->
<g id="Node000026" class="node">
<title>Node26</title>
<g id="a_Node000026"><a xlink:title=" ">
<polygon fill="#e0e0e0" stroke="#999999" points="932.88,-76 889.88,-76 889.88,-56 932.88,-56 932.88,-76"/>
<text text-anchor="middle" x="911.38" y="-62.5" font-family="Helvetica,sans-Serif" font-size="10.00">mutex</text>
</a>
</g>
</g>
<!-- Node21&#45;&gt;Node26 -->
<g id="edge32_Node000021_Node000026" class="edge">
<title>Node21&#45;&gt;Node26</title>
<g id="a_edge32_Node000021_Node000026"><a xlink:title=" ">
<path fill="none" stroke="#63b8ff" d="M843.87,-179.59C838.62,-162.11 833.04,-133.27 844.38,-112 851.94,-97.81 866.18,-87.3 879.6,-80.02"/>
<polygon fill="#63b8ff" stroke="#63b8ff" points="880.81,-83.33 888.22,-75.75 877.7,-77.06 880.81,-83.33"/>
</a>
</g>
</g>
<!-- Node27 -->
<g id="Node000027" class="node">
<title>Node27</title>
<g id="a_Node000027"><a xlink:href="_i_logger_8h.html" target="_top" xlink:title="Class that encapsulates the look and feel of the HUD.">
<polygon fill="white" stroke="#666666" points="1191.25,-76 1135.5,-76 1135.5,-56 1191.25,-56 1191.25,-76"/>
<text text-anchor="middle" x="1163.38" y="-62.5" font-family="Helvetica,sans-Serif" font-size="10.00">ILogger.h</text>
</a>
</g>
</g>
<!-- Node21&#45;&gt;Node27 -->
<g id="edge33_Node000021_Node000027" class="edge">
<title>Node21&#45;&gt;Node27</title>
<g id="a_edge33_Node000021_Node000027"><a xlink:title=" ">
<path fill="none" stroke="#63b8ff" d="M897.56,-181.72C900.19,-181.11 902.81,-180.53 905.38,-180 958.39,-168.98 1106.79,-180.95 1146.38,-144 1161.6,-129.79 1164.73,-105.29 1164.77,-87.74"/>
<polygon fill="#63b8ff" stroke="#63b8ff" points="1168.27,-87.82 1164.43,-77.95 1161.28,-88.06 1168.27,-87.82"/>
</a>
</g>
</g>
<!-- Node28 -->
<g id="Node000028" class="node">
<title>Node28</title>
<g id="a_Node000028"><a xlink:href="_concurrent_queue_8h.html" target="_top" xlink:title="Concurrent queue implementation.">
<polygon fill="white" stroke="#666666" points="1137.38,-138 1037.38,-138 1037.38,-118 1137.38,-118 1137.38,-138"/>
<text text-anchor="middle" x="1087.38" y="-124.5" font-family="Helvetica,sans-Serif" font-size="10.00">ConcurrentQueue.h</text>
</a>
</g>
</g>
<!-- Node21&#45;&gt;Node28 -->
<g id="edge35_Node000021_Node000028" class="edge">
<title>Node21&#45;&gt;Node28</title>
<g id="a_edge35_Node000021_Node000028"><a xlink:title=" ">
<path fill="none" stroke="#63b8ff" d="M897.54,-181.64C939.84,-169.91 1000.92,-152.97 1042.28,-141.5"/>
<polygon fill="#63b8ff" stroke="#63b8ff" points="1042.97,-144.95 1051.67,-138.9 1041.1,-138.2 1042.97,-144.95"/>
</a>
</g>
</g>
<!-- Node27&#45;&gt;Node10 -->
<g id="edge34_Node000027_Node000010" class="edge">
<title>Node27&#45;&gt;Node10</title>
<g id="a_edge34_Node000027_Node000010"><a xlink:title=" ">
<path fill="none" stroke="#63b8ff" d="M1135.16,-57.79C1132.21,-57.14 1129.24,-56.53 1126.38,-56 1006.81,-34.02 862.8,-19.5 800.11,-13.77"/>
<polygon fill="#63b8ff" stroke="#63b8ff" points="800.47,-10.29 790.19,-12.87 799.84,-17.26 800.47,-10.29"/>
</a>
</g>
</g>
<!-- Node28&#45;&gt;Node4 -->
<g id="edge36_Node000028_Node000004" class="edge">
<title>Node28&#45;&gt;Node4</title>
<g id="a_edge36_Node000028_Node000004"><a xlink:title=" ">
<path fill="none" stroke="#63b8ff" d="M1109.72,-117.62C1133.61,-107.6 1171.68,-91.63 1198.67,-80.3"/>
<polygon fill="#63b8ff" stroke="#63b8ff" points="1199.86,-83.6 1207.73,-76.5 1197.15,-77.15 1199.86,-83.6"/>
</a>
</g>
</g>
<!-- Node28&#45;&gt;Node26 -->
<g id="edge37_Node000028_Node000026" class="edge">
<title>Node28&#45;&gt;Node26</title>
<g id="a_edge37_Node000028_Node000026"><a xlink:title=" ">
<path fill="none" stroke="#63b8ff" d="M1059.88,-117.62C1028.43,-106.91 977.01,-89.38 943.69,-78.02"/>
<polygon fill="#63b8ff" stroke="#63b8ff" points="945.16,-74.82 934.57,-74.91 942.9,-81.45 945.16,-74.82"/>
</a>
</g>
</g>
<!-- Node29 -->
<g id="Node000029" class="node">
<title>Node29</title>
<g id="a_Node000029"><a xlink:title=" ">
<polygon fill="#e0e0e0" stroke="#999999" points="1117.62,-76 1025.12,-76 1025.12,-56 1117.62,-56 1117.62,-76"/>
<text text-anchor="middle" x="1071.38" y="-62.5" font-family="Helvetica,sans-Serif" font-size="10.00">condition_variable</text>
</a>
</g>
</g>
<!-- Node28&#45;&gt;Node29 -->
<g id="edge38_Node000028_Node000029" class="edge">
<title>Node28&#45;&gt;Node29</title>
<g id="a_edge38_Node000028_Node000029"><a xlink:title=" ">
<path fill="none" stroke="#63b8ff" d="M1084.88,-117.62C1082.7,-109.48 1079.48,-97.39 1076.73,-87.07"/>
<polygon fill="#63b8ff" stroke="#63b8ff" points="1080.15,-86.34 1074.2,-77.58 1073.39,-88.14 1080.15,-86.34"/>
</a>
</g>
</g>
<!-- Node30&#45;&gt;Node19 -->
<g id="edge42_Node000030_Node000019" class="edge">
<title>Node30&#45;&gt;Node19</title>
<g id="a_edge42_Node000030_Node000019"><a xlink:title=" ">
<path fill="none" stroke="#63b8ff" d="M181.38,-185.54C181.38,-176.23 181.38,-161.7 181.38,-149.7"/>
<polygon fill="#63b8ff" stroke="#63b8ff" points="184.88,-149.95 181.38,-139.95 177.88,-149.95 184.88,-149.95"/>
</a>
</g>
</g>
<!-- Node30&#45;&gt;Node22 -->
<g id="edge40_Node000030_Node000022" class="edge">
<title>Node30&#45;&gt;Node22</title>
<g id="a_edge40_Node000030_Node000022"><a xlink:title=" ">
<path fill="none" stroke="#63b8ff" d="M242.09,-186.95C333.99,-174.64 500.58,-151.73 527.38,-144 528.77,-143.6 530.18,-143.15 531.6,-142.67"/>
<polygon fill="#63b8ff" stroke="#63b8ff" points="532.84,-145.94 540.88,-139.04 530.29,-139.42 532.84,-145.94"/>
</a>
</g>
</g>
<!-- Node31 -->
<g id="Node000031" class="node">
<title>Node31</title>
<g id="a_Node000031"><a xlink:title=" ">
<polygon fill="#e0e0e0" stroke="#999999" points="140.38,-138 100.38,-138 100.38,-118 140.38,-118 140.38,-138"/>
<text text-anchor="middle" x="120.38" y="-124.5" font-family="Helvetica,sans-Serif" font-size="10.00">bitset</text>
</a>
</g>
</g>
<!-- Node30&#45;&gt;Node31 -->
<g id="edge41_Node000030_Node000031" class="edge">
<title>Node30&#45;&gt;Node31</title>
<g id="a_edge41_Node000030_Node000031"><a xlink:title=" ">
<path fill="none" stroke="#63b8ff" d="M172.64,-185.54C163.3,-175.45 148.3,-159.22 136.76,-146.73"/>
<polygon fill="#63b8ff" stroke="#63b8ff" points="139.48,-144.52 130.13,-139.55 134.34,-149.27 139.48,-144.52"/>
</a>
</g>
</g>
<!-- Node32 -->
<g id="Node000032" class="node">
<title>Node32</title>
<g id="a_Node000032"><a xlink:href="_config_8h.html" target="_top" xlink:title="This file contains the configuration of the engine.">
<polygon fill="white" stroke="#666666" points="82.75,-138 0,-138 0,-118 82.75,-118 82.75,-138"/>
<text text-anchor="middle" x="41.38" y="-124.5" font-family="Helvetica,sans-Serif" font-size="10.00">engine/Config.h</text>
</a>
</g>
</g>
<!-- Node30&#45;&gt;Node32 -->
<g id="edge43_Node000030_Node000032" class="edge">
<title>Node30&#45;&gt;Node32</title>
<g id="a_edge43_Node000030_Node000032"><a xlink:title=" ">
<path fill="none" stroke="#63b8ff" d="M161.32,-185.54C137.82,-174.47 98.66,-156.01 71.51,-143.21"/>
<polygon fill="#63b8ff" stroke="#63b8ff" points="73.3,-140.18 62.77,-139.08 70.32,-146.51 73.3,-140.18"/>
</a>
</g>
</g>
<!-- Node33&#45;&gt;Node10 -->
<g id="edge47_Node000033_Node000010" class="edge">
<title>Node33&#45;&gt;Node10</title>
<g id="a_edge47_Node000033_Node000010"><a xlink:title=" ">
<path fill="none" stroke="#63b8ff" d="M1082.61,-247.63C1076.86,-229.37 1070.9,-199 1086.38,-180 1136.24,-118.76 1210.51,-205.24 1260.38,-144 1285.07,-113.67 1286.74,-84.89 1260.38,-56 1229.3,-21.95 903.43,-13.35 799.82,-11.47"/>
<polygon fill="#63b8ff" stroke="#63b8ff" points="800.16,-7.98 790.1,-11.31 800.04,-14.98 800.16,-7.98"/>
</a>
</g>
</g>
<!-- Node34 -->
<g id="Node000034" class="node">
<title>Node34</title>
<g id="a_Node000034"><a xlink:href="_entity_types_8h.html" target="_top" xlink:title="@TODO Add description of this file if needed">
<polygon fill="white" stroke="#666666" points="1251.12,-206 1143.62,-206 1143.62,-186 1251.12,-186 1251.12,-206"/>
<text text-anchor="middle" x="1197.38" y="-192.5" font-family="Helvetica,sans-Serif" font-size="10.00">engine/EntityTypes.h</text>
</a>
</g>
</g>
<!-- Node33&#45;&gt;Node34 -->
<g id="edge45_Node000033_Node000034" class="edge">
<title>Node33&#45;&gt;Node34</title>
<g id="a_edge45_Node000033_Node000034"><a xlink:title=" ">
<path fill="none" stroke="#63b8ff" d="M1113.93,-247.53C1131.5,-236.89 1154.72,-222.83 1172.21,-212.24"/>
<polygon fill="#63b8ff" stroke="#63b8ff" points="1173.72,-215.42 1180.46,-207.24 1170.09,-209.43 1173.72,-215.42"/>
</a>
</g>
</g>
<!-- Node35 -->
<g id="Node000035" class="node">
<title>Node35</title>
<g id="a_Node000035"><a xlink:title=" ">
<polygon fill="#e0e0e0" stroke="#999999" points="1125.12,-206 1095.62,-206 1095.62,-186 1125.12,-186 1125.12,-206"/>
<text text-anchor="middle" x="1110.38" y="-192.5" font-family="Helvetica,sans-Serif" font-size="10.00">set</text>
</a>
</g>
</g>
<!-- Node33&#45;&gt;Node35 -->
<g id="edge46_Node000033_Node000035" class="edge">
<title>Node33&#45;&gt;Node35</title>
<g id="a_edge46_Node000033_Node000035"><a xlink:title=" ">
<path fill="none" stroke="#63b8ff" d="M1093.48,-247.69C1096.51,-238.6 1100.39,-226.95 1103.67,-217.12"/>
<polygon fill="#63b8ff" stroke="#63b8ff" points="1106.95,-218.35 1106.79,-207.75 1100.31,-216.13 1106.95,-218.35"/>
</a>
</g>
</g>
</g>
</svg>
