<?xml version="1.0" encoding="UTF-8" standalone="no"?>
<!DOCTYPE svg PUBLIC "-//W3C//DTD SVG 1.1//EN"
 "http://www.w3.org/Graphics/SVG/1.1/DTD/svg11.dtd">
<!-- Generated by graphviz version 11.0.0 (20240428.1522)
 -->
<!-- Title: EntityListHUD.cpp Pages: 1 -->
<svg width="1429pt" height="344pt"
 viewBox="0.00 0.00 1428.95 344.00" xmlns="http://www.w3.org/2000/svg" xmlns:xlink="http://www.w3.org/1999/xlink">
<g id="graph0" class="graph" transform="scale(1 1) rotate(0) translate(4 340)">
<title>EntityListHUD.cpp</title>
<!-- Node1 -->
<g id="Node000001" class="node">
<title>Node1</title>
<g id="a_Node000001"><a xlink:title="@TODO Add description of this file if needed">
<polygon fill="#999999" stroke="#666666" points="908.32,-336 812.07,-336 812.07,-316 908.32,-316 908.32,-336"/>
<text text-anchor="middle" x="860.2" y="-322.5" font-family="Helvetica,sans-Serif" font-size="10.00">EntityListHUD.cpp</text>
</a>
</g>
</g>
<!-- Node2 -->
<g id="Node000002" class="node">
<title>Node2</title>
<g id="a_Node000002"><a xlink:href="_entity_list_h_u_d_8h.html" target="_top" xlink:title="@TODO Add description of this file if needed">
<polygon fill="white" stroke="#666666" points="665.7,-280 526.7,-280 526.7,-248 665.7,-248 665.7,-280"/>
<text text-anchor="start" x="534.7" y="-266.5" font-family="Helvetica,sans-Serif" font-size="10.00">engine/subsystems/hud</text>
<text text-anchor="middle" x="596.2" y="-254.5" font-family="Helvetica,sans-Serif" font-size="10.00">/engine&#45;hud/EntityListHUD.h</text>
</a>
</g>
</g>
<!-- Node1&#45;&gt;Node2 -->
<g id="edge1_Node000001_Node000002" class="edge">
<title>Node1&#45;&gt;Node2</title>
<g id="a_edge1_Node000001_Node000002"><a xlink:title=" ">
<path fill="none" stroke="#63b8ff" d="M818.66,-315.56C780.35,-306.85 722.44,-293.69 675.32,-282.98"/>
<polygon fill="#63b8ff" stroke="#63b8ff" points="676.21,-279.59 665.68,-280.79 674.66,-286.42 676.21,-279.59"/>
</a>
</g>
</g>
<!-- Node7 -->
<g id="Node000007" class="node">
<title>Node7</title>
<g id="a_Node000007"><a xlink:title=" ">
<polygon fill="#e0e0e0" stroke="#999999" points="791.57,-274 756.82,-274 756.82,-254 791.57,-254 791.57,-274"/>
<text text-anchor="middle" x="774.2" y="-260.5" font-family="Helvetica,sans-Serif" font-size="10.00">map</text>
</a>
</g>
</g>
<!-- Node1&#45;&gt;Node7 -->
<g id="edge6_Node000001_Node000007" class="edge">
<title>Node1&#45;&gt;Node7</title>
<g id="a_edge6_Node000001_Node000007"><a xlink:title=" ">
<path fill="none" stroke="#63b8ff" d="M846.76,-315.62C833.38,-306.29 812.6,-291.79 796.7,-280.7"/>
<polygon fill="#63b8ff" stroke="#63b8ff" points="798.99,-278.03 788.78,-275.18 794.98,-283.77 798.99,-278.03"/>
</a>
</g>
</g>
<!-- Node8 -->
<g id="Node000008" class="node">
<title>Node8</title>
<g id="a_Node000008"><a xlink:href="_asserts_8h.html" target="_top" xlink:title="Set of macros for runtime and compile time assertions.">
<polygon fill="white" stroke="#666666" points="910.95,-280 809.45,-280 809.45,-248 910.95,-248 910.95,-280"/>
<text text-anchor="start" x="817.45" y="-266.5" font-family="Helvetica,sans-Serif" font-size="10.00">engine/core/asserts</text>
<text text-anchor="middle" x="860.2" y="-254.5" font-family="Helvetica,sans-Serif" font-size="10.00">/Asserts.h</text>
</a>
</g>
</g>
<!-- Node1&#45;&gt;Node8 -->
<g id="edge7_Node000001_Node000008" class="edge">
<title>Node1&#45;&gt;Node8</title>
<g id="a_edge7_Node000001_Node000008"><a xlink:title=" ">
<path fill="none" stroke="#63b8ff" d="M860.2,-315.62C860.2,-309.1 860.2,-300.05 860.2,-291.4"/>
<polygon fill="#63b8ff" stroke="#63b8ff" points="863.7,-291.65 860.2,-281.65 856.7,-291.65 863.7,-291.65"/>
</a>
</g>
</g>
<!-- Node17 -->
<g id="Node000017" class="node">
<title>Node17</title>
<g id="a_Node000017"><a xlink:href="_stringer_8h.html" target="_top" xlink:title="A set of functions for converting objects to strings.">
<polygon fill="white" stroke="#666666" points="1096.7,-212 987.7,-212 987.7,-180 1096.7,-180 1096.7,-212"/>
<text text-anchor="start" x="995.7" y="-198.5" font-family="Helvetica,sans-Serif" font-size="10.00">engine/core/debugger</text>
<text text-anchor="middle" x="1042.2" y="-186.5" font-family="Helvetica,sans-Serif" font-size="10.00">/Stringer.h</text>
</a>
</g>
</g>
<!-- Node1&#45;&gt;Node17 -->
<g id="edge39_Node000001_Node000017" class="edge">
<title>Node1&#45;&gt;Node17</title>
<g id="a_edge39_Node000001_Node000017"><a xlink:title=" ">
<path fill="none" stroke="#63b8ff" d="M873.58,-315.59C902.33,-295.37 970.61,-247.35 1010.91,-219"/>
<polygon fill="#63b8ff" stroke="#63b8ff" points="1012.87,-221.91 1019.04,-213.29 1008.84,-216.18 1012.87,-221.91"/>
</a>
</g>
</g>
<!-- Node31 -->
<g id="Node000031" class="node">
<title>Node31</title>
<g id="a_Node000031"><a xlink:href="_entity_list_manager_8h.html" target="_top" xlink:title="Class that manages the list of entities in the scene.">
<polygon fill="white" stroke="#666666" points="1345.82,-280 1210.57,-280 1210.57,-248 1345.82,-248 1345.82,-280"/>
<text text-anchor="start" x="1218.57" y="-266.5" font-family="Helvetica,sans-Serif" font-size="10.00">engine/subsystems/ingame</text>
<text text-anchor="middle" x="1278.2" y="-254.5" font-family="Helvetica,sans-Serif" font-size="10.00">&#45;debug/EntityListManager.h</text>
</a>
</g>
</g>
<!-- Node1&#45;&gt;Node31 -->
<g id="edge40_Node000001_Node000031" class="edge">
<title>Node1&#45;&gt;Node31</title>
<g id="a_edge40_Node000001_Node000031"><a xlink:title=" ">
<path fill="none" stroke="#63b8ff" d="M908.56,-318.06C979.72,-307.84 1113.45,-288.65 1199.05,-276.36"/>
<polygon fill="#63b8ff" stroke="#63b8ff" points="1199.38,-279.85 1208.78,-274.96 1198.38,-272.92 1199.38,-279.85"/>
</a>
</g>
</g>
<!-- Node3 -->
<g id="Node000003" class="node">
<title>Node3</title>
<g id="a_Node000003"><a xlink:href="_in_game_window_8h.html" target="_top" xlink:title="@TODO Add description of this file if needed">
<polygon fill="white" stroke="#666666" points="149.95,-144 30.45,-144 30.45,-112 149.95,-112 149.95,-144"/>
<text text-anchor="start" x="38.45" y="-130.5" font-family="Helvetica,sans-Serif" font-size="10.00">engine/subsystems/hud</text>
<text text-anchor="middle" x="90.2" y="-118.5" font-family="Helvetica,sans-Serif" font-size="10.00">/InGameWindow.h</text>
</a>
</g>
</g>
<!-- Node2&#45;&gt;Node3 -->
<g id="edge2_Node000002_Node000003" class="edge">
<title>Node2&#45;&gt;Node3</title>
<g id="a_edge2_Node000002_Node000003"><a xlink:title=" ">
<path fill="none" stroke="#63b8ff" d="M538.16,-247.63C444.33,-222.78 259.73,-173.89 159.28,-147.29"/>
<polygon fill="#63b8ff" stroke="#63b8ff" points="160.37,-143.96 149.81,-144.79 158.58,-150.73 160.37,-143.96"/>
</a>
</g>
</g>
<!-- Node4 -->
<g id="Node000004" class="node">
<title>Node4</title>
<g id="a_Node000004"><a xlink:title=" ">
<polygon fill="#e0e0e0" stroke="#999999" points="89.07,-76 15.32,-76 15.32,-56 89.07,-56 89.07,-76"/>
<text text-anchor="middle" x="52.2" y="-62.5" font-family="Helvetica,sans-Serif" font-size="10.00">imgui/imgui.h</text>
</a>
</g>
</g>
<!-- Node3&#45;&gt;Node4 -->
<g id="edge3_Node000003_Node000004" class="edge">
<title>Node3&#45;&gt;Node4</title>
<g id="a_edge3_Node000003_Node000004"><a xlink:title=" ">
<path fill="none" stroke="#63b8ff" d="M80.41,-111.55C75.47,-103.74 69.42,-94.19 64.19,-85.94"/>
<polygon fill="#63b8ff" stroke="#63b8ff" points="67.28,-84.26 58.97,-77.69 61.36,-88.01 67.28,-84.26"/>
</a>
</g>
</g>
<!-- Node5 -->
<g id="Node000005" class="node">
<title>Node5</title>
<g id="a_Node000005"><a xlink:title=" ">
<polygon fill="#e0e0e0" stroke="#999999" points="735.2,-20 695.2,-20 695.2,0 735.2,0 735.2,-20"/>
<text text-anchor="middle" x="715.2" y="-6.5" font-family="Helvetica,sans-Serif" font-size="10.00">string</text>
</a>
</g>
</g>
<!-- Node3&#45;&gt;Node5 -->
<g id="edge4_Node000003_Node000005" class="edge">
<title>Node3&#45;&gt;Node5</title>
<g id="a_edge4_Node000003_Node000005"><a xlink:title=" ">
<path fill="none" stroke="#63b8ff" d="M49.44,-111.58C19.24,-97.95 -13.53,-77.02 6.2,-56 29.68,-30.98 548.17,-15.45 683.26,-11.82"/>
<polygon fill="#63b8ff" stroke="#63b8ff" points="683.34,-15.32 693.25,-11.56 683.16,-8.32 683.34,-15.32"/>
</a>
</g>
</g>
<!-- Node6 -->
<g id="Node000006" class="node">
<title>Node6</title>
<g id="a_Node000006"><a xlink:title=" ">
<polygon fill="#e0e0e0" stroke="#999999" points="148.95,-76 107.45,-76 107.45,-56 148.95,-56 148.95,-76"/>
<text text-anchor="middle" x="128.2" y="-62.5" font-family="Helvetica,sans-Serif" font-size="10.00">vector</text>
</a>
</g>
</g>
<!-- Node3&#45;&gt;Node6 -->
<g id="edge5_Node000003_Node000006" class="edge">
<title>Node3&#45;&gt;Node6</title>
<g id="a_edge5_Node000003_Node000006"><a xlink:title=" ">
<path fill="none" stroke="#63b8ff" d="M99.99,-111.55C104.93,-103.74 110.98,-94.19 116.21,-85.94"/>
<polygon fill="#63b8ff" stroke="#63b8ff" points="119.04,-88.01 121.43,-77.69 113.12,-84.26 119.04,-88.01"/>
</a>
</g>
</g>
<!-- Node8&#45;&gt;Node5 -->
<g id="edge10_Node000008_Node000005" class="edge">
<title>Node8&#45;&gt;Node5</title>
<g id="a_edge10_Node000008_Node000005"><a xlink:title=" ">
<path fill="none" stroke="#63b8ff" d="M857.63,-247.68C850.22,-205.06 827.8,-86.2 803.2,-56 795.33,-46.34 768.07,-33.16 745.95,-23.56"/>
<polygon fill="#63b8ff" stroke="#63b8ff" points="747.58,-20.45 737,-19.76 744.84,-26.89 747.58,-20.45"/>
</a>
</g>
</g>
<!-- Node9 -->
<g id="Node000009" class="node">
<title>Node9</title>
<g id="a_Node000009"><a xlink:title=" ">
<polygon fill="#e0e0e0" stroke="#999999" points="969.7,-206 926.7,-206 926.7,-186 969.7,-186 969.7,-206"/>
<text text-anchor="middle" x="948.2" y="-192.5" font-family="Helvetica,sans-Serif" font-size="10.00">cmath</text>
</a>
</g>
</g>
<!-- Node8&#45;&gt;Node9 -->
<g id="edge8_Node000008_Node000009" class="edge">
<title>Node8&#45;&gt;Node9</title>
<g id="a_edge8_Node000008_Node000009"><a xlink:title=" ">
<path fill="none" stroke="#63b8ff" d="M880.61,-247.69C894.47,-237.3 912.77,-223.57 926.83,-213.03"/>
<polygon fill="#63b8ff" stroke="#63b8ff" points="928.67,-216.02 934.57,-207.22 924.47,-210.42 928.67,-216.02"/>
</a>
</g>
</g>
<!-- Node10 -->
<g id="Node000010" class="node">
<title>Node10</title>
<g id="a_Node000010"><a xlink:title=" ">
<polygon fill="#e0e0e0" stroke="#999999" points="589.82,-206 550.57,-206 550.57,-186 589.82,-186 589.82,-206"/>
<text text-anchor="middle" x="570.2" y="-192.5" font-family="Helvetica,sans-Serif" font-size="10.00">limits</text>
</a>
</g>
</g>
<!-- Node8&#45;&gt;Node10 -->
<g id="edge9_Node000008_Node000010" class="edge">
<title>Node8&#45;&gt;Node10</title>
<g id="a_edge9_Node000008_Node000010"><a xlink:title=" ">
<path fill="none" stroke="#63b8ff" d="M809.19,-250.01C806.15,-249.31 803.14,-248.64 800.2,-248 713.64,-229.25 688.85,-238.05 604.2,-212 602.81,-211.57 601.41,-211.11 600,-210.61"/>
<polygon fill="#63b8ff" stroke="#63b8ff" points="601.31,-207.36 590.73,-206.93 598.73,-213.87 601.31,-207.36"/>
</a>
</g>
</g>
<!-- Node11 -->
<g id="Node000011" class="node">
<title>Node11</title>
<g id="a_Node000011"><a xlink:title=" ">
<polygon fill="#e0e0e0" stroke="#999999" points="912.07,-138 850.32,-138 850.32,-118 912.07,-118 912.07,-138"/>
<text text-anchor="middle" x="881.2" y="-124.5" font-family="Helvetica,sans-Serif" font-size="10.00">type_traits</text>
</a>
</g>
</g>
<!-- Node8&#45;&gt;Node11 -->
<g id="edge11_Node000008_Node000011" class="edge">
<title>Node8&#45;&gt;Node11</title>
<g id="a_edge11_Node000008_Node000011"><a xlink:title=" ">
<path fill="none" stroke="#63b8ff" d="M862.61,-247.63C866.4,-223.42 873.78,-176.38 878.01,-149.37"/>
<polygon fill="#63b8ff" stroke="#63b8ff" points="881.43,-150.14 879.52,-139.72 874.51,-149.06 881.43,-150.14"/>
</a>
</g>
</g>
<!-- Node12 -->
<g id="Node000012" class="node">
<title>Node12</title>
<g id="a_Node000012"><a xlink:title=" ">
<polygon fill="#e0e0e0" stroke="#999999" points="981.82,-138 930.57,-138 930.57,-118 981.82,-118 981.82,-138"/>
<text text-anchor="middle" x="956.2" y="-124.5" font-family="Helvetica,sans-Serif" font-size="10.00">sstream</text>
</a>
</g>
</g>
<!-- Node8&#45;&gt;Node12 -->
<g id="edge12_Node000008_Node000012" class="edge">
<title>Node8&#45;&gt;Node12</title>
<g id="a_edge12_Node000008_Node000012"><a xlink:title=" ">
<path fill="none" stroke="#63b8ff" d="M870.75,-247.6C882.27,-230.87 901.33,-203.38 918.2,-180 926.06,-169.1 935.04,-157.04 942.29,-147.38"/>
<polygon fill="#63b8ff" stroke="#63b8ff" points="944.98,-149.64 948.2,-139.55 939.39,-145.42 944.98,-149.64"/>
</a>
</g>
</g>
<!-- Node13 -->
<g id="Node000013" class="node">
<title>Node13</title>
<g id="a_Node000013"><a xlink:href="_assert_failed_exception_8h.html" target="_top" xlink:title="@TODO Add description of this file if needed">
<polygon fill="white" stroke="#666666" points="793.82,-212 646.57,-212 646.57,-180 793.82,-180 793.82,-212"/>
<text text-anchor="start" x="654.57" y="-198.5" font-family="Helvetica,sans-Serif" font-size="10.00">engine/core/exceptions</text>
<text text-anchor="middle" x="720.2" y="-186.5" font-family="Helvetica,sans-Serif" font-size="10.00">/core/AssertFailedException.h</text>
</a>
</g>
</g>
<!-- Node8&#45;&gt;Node13 -->
<g id="edge13_Node000008_Node000013" class="edge">
<title>Node8&#45;&gt;Node13</title>
<g id="a_edge13_Node000008_Node000013"><a xlink:title=" ">
<path fill="none" stroke="#63b8ff" d="M827.38,-247.53C808.16,-238.46 783.67,-226.92 762.95,-217.15"/>
<polygon fill="#63b8ff" stroke="#63b8ff" points="764.72,-214.12 754.19,-213.02 761.74,-220.45 764.72,-214.12"/>
</a>
</g>
</g>
<!-- Node8&#45;&gt;Node17 -->
<g id="edge18_Node000008_Node000017" class="edge">
<title>Node8&#45;&gt;Node17</title>
<g id="a_edge18_Node000008_Node000017"><a xlink:title=" ">
<path fill="none" stroke="#63b8ff" d="M902.87,-247.53C928.56,-238.21 961.5,-226.27 988.89,-216.33"/>
<polygon fill="#63b8ff" stroke="#63b8ff" points="989.85,-219.71 998.06,-213.01 987.46,-213.13 989.85,-219.71"/>
</a>
</g>
</g>
<!-- Node21 -->
<g id="Node000021" class="node">
<title>Node21</title>
<g id="a_Node000021"><a xlink:href="_logger_8h.html" target="_top" xlink:title="@TODO Add description of this file if needed">
<polygon fill="white" stroke="#666666" points="469.95,-144 374.45,-144 374.45,-112 469.95,-112 469.95,-144"/>
<text text-anchor="start" x="382.45" y="-130.5" font-family="Helvetica,sans-Serif" font-size="10.00">engine/core/logger</text>
<text text-anchor="middle" x="422.2" y="-118.5" font-family="Helvetica,sans-Serif" font-size="10.00">/Logger.h</text>
</a>
</g>
</g>
<!-- Node8&#45;&gt;Node21 -->
<g id="edge25_Node000008_Node000021" class="edge">
<title>Node8&#45;&gt;Node21</title>
<g id="a_edge25_Node000008_Node000021"><a xlink:title=" ">
<path fill="none" stroke="#63b8ff" d="M809.16,-250.14C806.13,-249.41 803.13,-248.69 800.2,-248 727.98,-231 703.72,-244.85 637.2,-212 617.4,-202.22 618.68,-190.4 599.2,-180 562.29,-160.3 516.87,-147.42 481.28,-139.53"/>
<polygon fill="#63b8ff" stroke="#63b8ff" points="482.09,-136.12 471.58,-137.45 480.63,-142.96 482.09,-136.12"/>
</a>
</g>
</g>
<!-- Node14 -->
<g id="Node000014" class="node">
<title>Node14</title>
<g id="a_Node000014"><a xlink:href="_engine_exception_8h.html" target="_top" xlink:title="Base exception class for any exception in the engine.">
<polygon fill="white" stroke="#666666" points="786.45,-144 669.95,-144 669.95,-112 786.45,-112 786.45,-144"/>
<text text-anchor="start" x="677.95" y="-130.5" font-family="Helvetica,sans-Serif" font-size="10.00">engine/core/exceptions</text>
<text text-anchor="middle" x="728.2" y="-118.5" font-family="Helvetica,sans-Serif" font-size="10.00">/EngineException.h</text>
</a>
</g>
</g>
<!-- Node13&#45;&gt;Node14 -->
<g id="edge14_Node000013_Node000014" class="edge">
<title>Node13&#45;&gt;Node14</title>
<g id="a_edge14_Node000013_Node000014"><a xlink:title=" ">
<path fill="none" stroke="#63b8ff" d="M722.06,-179.69C722.92,-172.53 723.98,-163.79 724.98,-155.59"/>
<polygon fill="#63b8ff" stroke="#63b8ff" points="728.44,-156.08 726.17,-145.73 721.49,-155.23 728.44,-156.08"/>
</a>
</g>
</g>
<!-- Node15 -->
<g id="Node000015" class="node">
<title>Node15</title>
<g id="a_Node000015"><a xlink:href="_base_exception_8h.html" target="_top" xlink:title=" ">
<polygon fill="white" stroke="#666666" points="794.32,-76 704.07,-76 704.07,-56 794.32,-56 794.32,-76"/>
<text text-anchor="middle" x="749.2" y="-62.5" font-family="Helvetica,sans-Serif" font-size="10.00">BaseException.h</text>
</a>
</g>
</g>
<!-- Node14&#45;&gt;Node15 -->
<g id="edge15_Node000014_Node000015" class="edge">
<title>Node14&#45;&gt;Node15</title>
<g id="a_edge15_Node000014_Node000015"><a xlink:title=" ">
<path fill="none" stroke="#63b8ff" d="M733.61,-111.55C736.22,-104.08 739.39,-95.03 742.18,-87.04"/>
<polygon fill="#63b8ff" stroke="#63b8ff" points="745.41,-88.43 745.41,-77.84 738.8,-86.12 745.41,-88.43"/>
</a>
</g>
</g>
<!-- Node15&#45;&gt;Node5 -->
<g id="edge17_Node000015_Node000005" class="edge">
<title>Node15&#45;&gt;Node5</title>
<g id="a_edge17_Node000015_Node000005"><a xlink:title=" ">
<path fill="none" stroke="#63b8ff" d="M743.28,-55.59C738.84,-48.55 732.62,-38.67 727.16,-30"/>
<polygon fill="#63b8ff" stroke="#63b8ff" points="730.15,-28.18 721.86,-21.58 724.23,-31.91 730.15,-28.18"/>
</a>
</g>
</g>
<!-- Node16 -->
<g id="Node000016" class="node">
<title>Node16</title>
<g id="a_Node000016"><a xlink:title=" ">
<polygon fill="#e0e0e0" stroke="#999999" points="811.57,-20 752.82,-20 752.82,0 811.57,0 811.57,-20"/>
<text text-anchor="middle" x="782.2" y="-6.5" font-family="Helvetica,sans-Serif" font-size="10.00">stdexcept</text>
</a>
</g>
</g>
<!-- Node15&#45;&gt;Node16 -->
<g id="edge16_Node000015_Node000016" class="edge">
<title>Node15&#45;&gt;Node16</title>
<g id="a_edge16_Node000015_Node000016"><a xlink:title=" ">
<path fill="none" stroke="#63b8ff" d="M754.95,-55.59C759.25,-48.55 765.29,-38.67 770.59,-30"/>
<polygon fill="#63b8ff" stroke="#63b8ff" points="773.5,-31.95 775.73,-21.59 767.53,-28.3 773.5,-31.95"/>
</a>
</g>
</g>
<!-- Node17&#45;&gt;Node5 -->
<g id="edge19_Node000017_Node000005" class="edge">
<title>Node17&#45;&gt;Node5</title>
<g id="a_edge19_Node000017_Node000005"><a xlink:title=" ">
<path fill="none" stroke="#63b8ff" d="M1051.92,-179.65C1061.93,-161.69 1074.11,-131.89 1059.2,-112 973.85,1.85 888.14,-58.91 746.23,-20.42"/>
<polygon fill="#63b8ff" stroke="#63b8ff" points="747.5,-17.14 736.92,-17.75 745.57,-23.87 747.5,-17.14"/>
</a>
</g>
</g>
<!-- Node17&#45;&gt;Node11 -->
<g id="edge21_Node000017_Node000011" class="edge">
<title>Node17&#45;&gt;Node11</title>
<g id="a_edge21_Node000017_Node000011"><a xlink:title=" ">
<path fill="none" stroke="#63b8ff" d="M1004.45,-179.53C977.29,-168.39 940.98,-153.51 914.81,-142.78"/>
<polygon fill="#63b8ff" stroke="#63b8ff" points="916.26,-139.59 905.68,-139.03 913.6,-146.07 916.26,-139.59"/>
</a>
</g>
</g>
<!-- Node17&#45;&gt;Node12 -->
<g id="edge20_Node000017_Node000012" class="edge">
<title>Node17&#45;&gt;Node12</title>
<g id="a_edge20_Node000017_Node000012"><a xlink:title=" ">
<path fill="none" stroke="#63b8ff" d="M1022.25,-179.69C1008.71,-169.3 990.83,-155.57 977.09,-145.03"/>
<polygon fill="#63b8ff" stroke="#63b8ff" points="979.6,-142.55 969.54,-139.24 975.34,-148.1 979.6,-142.55"/>
</a>
</g>
</g>
<!-- Node18 -->
<g id="Node000018" class="node">
<title>Node18</title>
<g id="a_Node000018"><a xlink:title=" ">
<polygon fill="#e0e0e0" stroke="#999999" points="1050.07,-138 1000.32,-138 1000.32,-118 1050.07,-118 1050.07,-138"/>
<text text-anchor="middle" x="1025.2" y="-124.5" font-family="Helvetica,sans-Serif" font-size="10.00">iomanip</text>
</a>
</g>
</g>
<!-- Node17&#45;&gt;Node18 -->
<g id="edge22_Node000017_Node000018" class="edge">
<title>Node17&#45;&gt;Node18</title>
<g id="a_edge22_Node000017_Node000018"><a xlink:title=" ">
<path fill="none" stroke="#63b8ff" d="M1038.26,-179.69C1035.94,-170.7 1032.98,-159.21 1030.47,-149.44"/>
<polygon fill="#63b8ff" stroke="#63b8ff" points="1033.86,-148.59 1027.98,-139.78 1027.08,-150.34 1033.86,-148.59"/>
</a>
</g>
</g>
<!-- Node19 -->
<g id="Node000019" class="node">
<title>Node19</title>
<g id="a_Node000019"><a xlink:title=" ">
<polygon fill="#e0e0e0" stroke="#999999" points="1151.82,-138 1106.57,-138 1106.57,-118 1151.82,-118 1151.82,-138"/>
<text text-anchor="middle" x="1129.2" y="-124.5" font-family="Helvetica,sans-Serif" font-size="10.00">cstdint</text>
</a>
</g>
</g>
<!-- Node17&#45;&gt;Node19 -->
<g id="edge23_Node000017_Node000019" class="edge">
<title>Node17&#45;&gt;Node19</title>
<g id="a_edge23_Node000017_Node000019"><a xlink:title=" ">
<path fill="none" stroke="#63b8ff" d="M1062.38,-179.69C1076.08,-169.3 1094.17,-155.57 1108.07,-145.03"/>
<polygon fill="#63b8ff" stroke="#63b8ff" points="1109.86,-148.06 1115.71,-139.23 1105.63,-142.49 1109.86,-148.06"/>
</a>
</g>
</g>
<!-- Node20 -->
<g id="Node000020" class="node">
<title>Node20</title>
<g id="a_Node000020"><a xlink:title=" ">
<polygon fill="#e0e0e0" stroke="#999999" points="1208.82,-138 1169.57,-138 1169.57,-118 1208.82,-118 1208.82,-138"/>
<text text-anchor="middle" x="1189.2" y="-124.5" font-family="Helvetica,sans-Serif" font-size="10.00">utility</text>
</a>
</g>
</g>
<!-- Node17&#45;&gt;Node20 -->
<g id="edge24_Node000017_Node000020" class="edge">
<title>Node17&#45;&gt;Node20</title>
<g id="a_edge24_Node000017_Node000020"><a xlink:title=" ">
<path fill="none" stroke="#63b8ff" d="M1080.63,-179.53C1104.13,-169.82 1134.67,-156.76 1161.2,-144 1161.54,-143.84 1161.87,-143.68 1162.21,-143.51"/>
<polygon fill="#63b8ff" stroke="#63b8ff" points="1163.48,-146.79 1170.8,-139.13 1160.3,-140.56 1163.48,-146.79"/>
</a>
</g>
</g>
<!-- Node21&#45;&gt;Node5 -->
<g id="edge26_Node000021_Node000005" class="edge">
<title>Node21&#45;&gt;Node5</title>
<g id="a_edge26_Node000021_Node000005"><a xlink:title=" ">
<path fill="none" stroke="#63b8ff" d="M414.26,-111.77C407.24,-95.93 399.98,-71.34 413.2,-56 447.88,-15.77 613.34,-10.95 683.57,-10.75"/>
<polygon fill="#63b8ff" stroke="#63b8ff" points="683.24,-14.25 693.24,-10.76 683.24,-7.25 683.24,-14.25"/>
</a>
</g>
</g>
<!-- Node21&#45;&gt;Node6 -->
<g id="edge28_Node000021_Node000006" class="edge">
<title>Node21&#45;&gt;Node6</title>
<g id="a_edge28_Node000021_Node000006"><a xlink:title=" ">
<path fill="none" stroke="#63b8ff" d="M373.98,-119.37C322.89,-110.92 239.72,-96.13 160.05,-76.53"/>
<polygon fill="#63b8ff" stroke="#63b8ff" points="161.36,-73.25 150.82,-74.23 159.67,-80.04 161.36,-73.25"/>
</a>
</g>
</g>
<!-- Node22 -->
<g id="Node000022" class="node">
<title>Node22</title>
<g id="a_Node000022"><a xlink:title=" ">
<polygon fill="#e0e0e0" stroke="#999999" points="547.82,-76 496.57,-76 496.57,-56 547.82,-56 547.82,-76"/>
<text text-anchor="middle" x="522.2" y="-62.5" font-family="Helvetica,sans-Serif" font-size="10.00">memory</text>
</a>
</g>
</g>
<!-- Node21&#45;&gt;Node22 -->
<g id="edge27_Node000021_Node000022" class="edge">
<title>Node21&#45;&gt;Node22</title>
<g id="a_edge27_Node000021_Node000022"><a xlink:title=" ">
<path fill="none" stroke="#63b8ff" d="M447.95,-111.55C463,-102.52 481.91,-91.17 496.88,-82.19"/>
<polygon fill="#63b8ff" stroke="#63b8ff" points="498.45,-85.33 505.22,-77.19 494.85,-79.33 498.45,-85.33"/>
</a>
</g>
</g>
<!-- Node23 -->
<g id="Node000023" class="node">
<title>Node23</title>
<g id="a_Node000023"><a xlink:title=" ">
<polygon fill="#e0e0e0" stroke="#999999" points="622.82,-76 565.57,-76 565.57,-56 622.82,-56 622.82,-76"/>
<text text-anchor="middle" x="594.2" y="-62.5" font-family="Helvetica,sans-Serif" font-size="10.00">functional</text>
</a>
</g>
</g>
<!-- Node21&#45;&gt;Node23 -->
<g id="edge29_Node000021_Node000023" class="edge">
<title>Node21&#45;&gt;Node23</title>
<g id="a_edge29_Node000021_Node000023"><a xlink:title=" ">
<path fill="none" stroke="#63b8ff" d="M466.49,-111.55C494.28,-101.86 529.72,-89.49 556.22,-80.25"/>
<polygon fill="#63b8ff" stroke="#63b8ff" points="557.26,-83.59 565.55,-76.99 554.95,-76.98 557.26,-83.59"/>
</a>
</g>
</g>
<!-- Node24 -->
<g id="Node000024" class="node">
<title>Node24</title>
<g id="a_Node000024"><a xlink:title=" ">
<polygon fill="#e0e0e0" stroke="#999999" points="685.82,-76 640.57,-76 640.57,-56 685.82,-56 685.82,-76"/>
<text text-anchor="middle" x="663.2" y="-62.5" font-family="Helvetica,sans-Serif" font-size="10.00">atomic</text>
</a>
</g>
</g>
<!-- Node21&#45;&gt;Node24 -->
<g id="edge30_Node000021_Node000024" class="edge">
<title>Node21&#45;&gt;Node24</title>
<g id="a_edge30_Node000021_Node000024"><a xlink:title=" ">
<path fill="none" stroke="#63b8ff" d="M470.31,-115.96C510.56,-106.57 569.74,-92.44 629.45,-76.66"/>
<polygon fill="#63b8ff" stroke="#63b8ff" points="629.98,-80.14 638.75,-74.19 628.18,-73.37 629.98,-80.14"/>
</a>
</g>
</g>
<!-- Node25 -->
<g id="Node000025" class="node">
<title>Node25</title>
<g id="a_Node000025"><a xlink:title=" ">
<polygon fill="#e0e0e0" stroke="#999999" points="209.7,-76 166.7,-76 166.7,-56 209.7,-56 209.7,-76"/>
<text text-anchor="middle" x="188.2" y="-62.5" font-family="Helvetica,sans-Serif" font-size="10.00">thread</text>
</a>
</g>
</g>
<!-- Node21&#45;&gt;Node25 -->
<g id="edge31_Node000021_Node000025" class="edge">
<title>Node21&#45;&gt;Node25</title>
<g id="a_edge31_Node000021_Node000025"><a xlink:title=" ">
<path fill="none" stroke="#63b8ff" d="M374.08,-115.43C335.28,-105.99 279.06,-92.04 221.04,-76.43"/>
<polygon fill="#63b8ff" stroke="#63b8ff" points="222.22,-73.12 211.65,-73.89 220.39,-79.88 222.22,-73.12"/>
</a>
</g>
</g>
<!-- Node26 -->
<g id="Node000026" class="node">
<title>Node26</title>
<g id="a_Node000026"><a xlink:title=" ">
<polygon fill="#e0e0e0" stroke="#999999" points="381.7,-20 338.7,-20 338.7,0 381.7,0 381.7,-20"/>
<text text-anchor="middle" x="360.2" y="-6.5" font-family="Helvetica,sans-Serif" font-size="10.00">mutex</text>
</a>
</g>
</g>
<!-- Node21&#45;&gt;Node26 -->
<g id="edge32_Node000021_Node000026" class="edge">
<title>Node21&#45;&gt;Node26</title>
<g id="a_edge32_Node000021_Node000026"><a xlink:title=" ">
<path fill="none" stroke="#63b8ff" d="M406.83,-111.64C397.99,-102.08 387.27,-89.13 380.2,-76 372.65,-61.98 367.51,-44.68 364.33,-31.46"/>
<polygon fill="#63b8ff" stroke="#63b8ff" points="367.76,-30.76 362.19,-21.75 360.92,-32.27 367.76,-30.76"/>
</a>
</g>
</g>
<!-- Node27 -->
<g id="Node000027" class="node">
<title>Node27</title>
<g id="a_Node000027"><a xlink:href="_i_logger_8h.html" target="_top" xlink:title="Class that encapsulates the look and feel of the HUD.">
<polygon fill="white" stroke="#666666" points="478.07,-76 422.32,-76 422.32,-56 478.07,-56 478.07,-76"/>
<text text-anchor="middle" x="450.2" y="-62.5" font-family="Helvetica,sans-Serif" font-size="10.00">ILogger.h</text>
</a>
</g>
</g>
<!-- Node21&#45;&gt;Node27 -->
<g id="edge33_Node000021_Node000027" class="edge">
<title>Node21&#45;&gt;Node27</title>
<g id="a_edge33_Node000021_Node000027"><a xlink:title=" ">
<path fill="none" stroke="#63b8ff" d="M429.41,-111.55C432.93,-104 437.22,-94.82 440.98,-86.77"/>
<polygon fill="#63b8ff" stroke="#63b8ff" points="444.11,-88.32 445.17,-77.78 437.77,-85.36 444.11,-88.32"/>
</a>
</g>
</g>
<!-- Node28 -->
<g id="Node000028" class="node">
<title>Node28</title>
<g id="a_Node000028"><a xlink:href="_concurrent_queue_8h.html" target="_top" xlink:title="Concurrent queue implementation.">
<polygon fill="white" stroke="#666666" points="328.2,-76 228.2,-76 228.2,-56 328.2,-56 328.2,-76"/>
<text text-anchor="middle" x="278.2" y="-62.5" font-family="Helvetica,sans-Serif" font-size="10.00">ConcurrentQueue.h</text>
</a>
</g>
</g>
<!-- Node21&#45;&gt;Node28 -->
<g id="edge35_Node000021_Node000028" class="edge">
<title>Node21&#45;&gt;Node28</title>
<g id="a_edge35_Node000021_Node000028"><a xlink:title=" ">
<path fill="none" stroke="#63b8ff" d="M385.12,-111.55C362.3,-102.04 333.32,-89.97 311.29,-80.79"/>
<polygon fill="#63b8ff" stroke="#63b8ff" points="312.75,-77.61 302.18,-76.99 310.06,-84.07 312.75,-77.61"/>
</a>
</g>
</g>
<!-- Node27&#45;&gt;Node5 -->
<g id="edge34_Node000027_Node000005" class="edge">
<title>Node27&#45;&gt;Node5</title>
<g id="a_edge34_Node000027_Node000005"><a xlink:title=" ">
<path fill="none" stroke="#63b8ff" d="M478.45,-57.99C481.4,-57.3 484.36,-56.63 487.2,-56 557.22,-40.58 639.9,-24.88 683.92,-16.73"/>
<polygon fill="#63b8ff" stroke="#63b8ff" points="684.32,-20.21 693.52,-14.95 683.05,-13.33 684.32,-20.21"/>
</a>
</g>
</g>
<!-- Node28&#45;&gt;Node26 -->
<g id="edge37_Node000028_Node000026" class="edge">
<title>Node28&#45;&gt;Node26</title>
<g id="a_edge37_Node000028_Node000026"><a xlink:title=" ">
<path fill="none" stroke="#63b8ff" d="M292.48,-55.59C304.64,-47.59 322.34,-35.93 336.6,-26.54"/>
<polygon fill="#63b8ff" stroke="#63b8ff" points="338.11,-29.73 344.54,-21.31 334.26,-23.89 338.11,-29.73"/>
</a>
</g>
</g>
<!-- Node29 -->
<g id="Node000029" class="node">
<title>Node29</title>
<g id="a_Node000029"><a xlink:title=" ">
<polygon fill="#e0e0e0" stroke="#999999" points="210.32,-20 168.07,-20 168.07,0 210.32,0 210.32,-20"/>
<text text-anchor="middle" x="189.2" y="-6.5" font-family="Helvetica,sans-Serif" font-size="10.00">queue</text>
</a>
</g>
</g>
<!-- Node28&#45;&gt;Node29 -->
<g id="edge36_Node000028_Node000029" class="edge">
<title>Node28&#45;&gt;Node29</title>
<g id="a_edge36_Node000028_Node000029"><a xlink:title=" ">
<path fill="none" stroke="#63b8ff" d="M262.7,-55.59C249.38,-47.51 229.92,-35.71 214.37,-26.27"/>
<polygon fill="#63b8ff" stroke="#63b8ff" points="216.48,-23.46 206.12,-21.26 212.85,-29.44 216.48,-23.46"/>
</a>
</g>
</g>
<!-- Node30 -->
<g id="Node000030" class="node">
<title>Node30</title>
<g id="a_Node000030"><a xlink:title=" ">
<polygon fill="#e0e0e0" stroke="#999999" points="320.45,-20 227.95,-20 227.95,0 320.45,0 320.45,-20"/>
<text text-anchor="middle" x="274.2" y="-6.5" font-family="Helvetica,sans-Serif" font-size="10.00">condition_variable</text>
</a>
</g>
</g>
<!-- Node28&#45;&gt;Node30 -->
<g id="edge38_Node000028_Node000030" class="edge">
<title>Node28&#45;&gt;Node30</title>
<g id="a_edge38_Node000028_Node000030"><a xlink:title=" ">
<path fill="none" stroke="#63b8ff" d="M277.5,-55.59C277.02,-49.01 276.35,-39.96 275.74,-31.73"/>
<polygon fill="#63b8ff" stroke="#63b8ff" points="279.23,-31.52 275,-21.81 272.25,-32.04 279.23,-31.52"/>
</a>
</g>
</g>
<!-- Node31&#45;&gt;Node5 -->
<g id="edge43_Node000031_Node000005" class="edge">
<title>Node31&#45;&gt;Node5</title>
<g id="a_edge43_Node000031_Node000005"><a xlink:title=" ">
<path fill="none" stroke="#63b8ff" d="M1271.48,-247.9C1267.03,-237.79 1261.13,-224.15 1256.2,-212 1238.33,-167.94 1253.15,-144.24 1218.2,-112 1063.15,31.01 957.55,-62.29 746.77,-20.16"/>
<polygon fill="#63b8ff" stroke="#63b8ff" points="747.66,-16.77 737.16,-18.15 746.23,-23.62 747.66,-16.77"/>
</a>
</g>
</g>
<!-- Node32 -->
<g id="Node000032" class="node">
<title>Node32</title>
<g id="a_Node000032"><a xlink:href="_entity_types_8h.html" target="_top" xlink:title="@TODO Add description of this file if needed">
<polygon fill="white" stroke="#666666" points="1372.95,-206 1265.45,-206 1265.45,-186 1372.95,-186 1372.95,-206"/>
<text text-anchor="middle" x="1319.2" y="-192.5" font-family="Helvetica,sans-Serif" font-size="10.00">engine/EntityTypes.h</text>
</a>
</g>
</g>
<!-- Node31&#45;&gt;Node32 -->
<g id="edge41_Node000031_Node000032" class="edge">
<title>Node31&#45;&gt;Node32</title>
<g id="a_edge41_Node000031_Node000032"><a xlink:title=" ">
<path fill="none" stroke="#63b8ff" d="M1287.71,-247.69C1293.61,-238.2 1301.23,-225.92 1307.5,-215.83"/>
<polygon fill="#63b8ff" stroke="#63b8ff" points="1310.31,-217.94 1312.61,-207.6 1304.36,-214.25 1310.31,-217.94"/>
</a>
</g>
</g>
<!-- Node33 -->
<g id="Node000033" class="node">
<title>Node33</title>
<g id="a_Node000033"><a xlink:title=" ">
<polygon fill="#e0e0e0" stroke="#999999" points="1420.95,-206 1391.45,-206 1391.45,-186 1420.95,-186 1420.95,-206"/>
<text text-anchor="middle" x="1406.2" y="-192.5" font-family="Helvetica,sans-Serif" font-size="10.00">set</text>
</a>
</g>
</g>
<!-- Node31&#45;&gt;Node33 -->
<g id="edge42_Node000031_Node000033" class="edge">
<title>Node31&#45;&gt;Node33</title>
<g id="a_edge42_Node000031_Node000033"><a xlink:title=" ">
<path fill="none" stroke="#63b8ff" d="M1311.9,-247.55C1330.39,-238.84 1353.81,-227.41 1381.91,-211.87"/>
<polygon fill="#63b8ff" stroke="#63b8ff" points="1383.28,-215.12 1390.3,-207.18 1379.86,-209.01 1383.28,-215.12"/>
</a>
</g>
</g>
</g>
</svg>
