<?xml version="1.0" encoding="UTF-8" standalone="no"?>
<!DOCTYPE svg PUBLIC "-//W3C//DTD SVG 1.1//EN"
 "http://www.w3.org/Graphics/SVG/1.1/DTD/svg11.dtd">
<!-- Generated by graphviz version 11.0.0 (20240428.1522)
 -->
<!-- Title: HUDLookAndFeel.h Pages: 1 -->
<svg width="240pt" height="84pt"
 viewBox="0.00 0.00 239.88 84.00" xmlns="http://www.w3.org/2000/svg" xmlns:xlink="http://www.w3.org/1999/xlink">
<g id="graph0" class="graph" transform="scale(1 1) rotate(0) translate(4 80)">
<title>HUDLookAndFeel.h</title>
<!-- Node1 -->
<g id="Node000001" class="node">
<title>Node1</title>
<g id="a_Node000001"><a xlink:title="Class that encapsulates the look and feel of the HUD.">
<polygon fill="#999999" stroke="#666666" points="149.75,-76 48.25,-76 48.25,-56 149.75,-56 149.75,-76"/>
<text text-anchor="middle" x="99" y="-62.5" font-family="Helvetica,sans-Serif" font-size="10.00">HUDLookAndFeel.h</text>
</a>
</g>
</g>
<!-- Node2 -->
<g id="Node000002" class="node">
<title>Node2</title>
<g id="a_Node000002"><a xlink:title=" ">
<polygon fill="#e0e0e0" stroke="#999999" points="40,-20 0,-20 0,0 40,0 40,-20"/>
<text text-anchor="middle" x="20" y="-6.5" font-family="Helvetica,sans-Serif" font-size="10.00">string</text>
</a>
</g>
</g>
<!-- Node1&#45;&gt;Node2 -->
<g id="edge1_Node000001_Node000002" class="edge">
<title>Node1&#45;&gt;Node2</title>
<g id="a_edge1_Node000001_Node000002"><a xlink:title=" ">
<path fill="none" stroke="#63b8ff" d="M85.24,-55.59C73.64,-47.67 56.8,-36.16 43.14,-26.82"/>
<polygon fill="#63b8ff" stroke="#63b8ff" points="45.35,-24.09 35.12,-21.33 41.4,-29.87 45.35,-24.09"/>
</a>
</g>
</g>
<!-- Node3 -->
<g id="Node000003" class="node">
<title>Node3</title>
<g id="a_Node000003"><a xlink:title=" ">
<polygon fill="#e0e0e0" stroke="#999999" points="140.38,-20 57.62,-20 57.62,0 140.38,0 140.38,-20"/>
<text text-anchor="middle" x="99" y="-6.5" font-family="Helvetica,sans-Serif" font-size="10.00">unordered_map</text>
</a>
</g>
</g>
<!-- Node1&#45;&gt;Node3 -->
<g id="edge2_Node000001_Node000003" class="edge">
<title>Node1&#45;&gt;Node3</title>
<g id="a_edge2_Node000001_Node000003"><a xlink:title=" ">
<path fill="none" stroke="#63b8ff" d="M99,-55.59C99,-49.01 99,-39.96 99,-31.73"/>
<polygon fill="#63b8ff" stroke="#63b8ff" points="102.5,-31.81 99,-21.81 95.5,-31.81 102.5,-31.81"/>
</a>
</g>
</g>
<!-- Node4 -->
<g id="Node000004" class="node">
<title>Node4</title>
<g id="a_Node000004"><a xlink:title=" ">
<polygon fill="#e0e0e0" stroke="#999999" points="231.88,-20 158.12,-20 158.12,0 231.88,0 231.88,-20"/>
<text text-anchor="middle" x="195" y="-6.5" font-family="Helvetica,sans-Serif" font-size="10.00">imgui/imgui.h</text>
</a>
</g>
</g>
<!-- Node1&#45;&gt;Node4 -->
<g id="edge3_Node000001_Node000004" class="edge">
<title>Node1&#45;&gt;Node4</title>
<g id="a_edge3_Node000001_Node000004"><a xlink:title=" ">
<path fill="none" stroke="#63b8ff" d="M115.72,-55.59C130.22,-47.44 151.47,-35.48 168.32,-26"/>
<polygon fill="#63b8ff" stroke="#63b8ff" points="169.83,-29.17 176.83,-21.22 166.4,-23.07 169.83,-29.17"/>
</a>
</g>
</g>
</g>
</svg>
