<?xml version="1.0" encoding="UTF-8" standalone="no"?>
<!DOCTYPE svg PUBLIC "-//W3C//DTD SVG 1.1//EN"
 "http://www.w3.org/Graphics/SVG/1.1/DTD/svg11.dtd">
<!-- Generated by graphviz version 11.0.0 (20240428.1522)
 -->
<!-- Title: KeyCommand.h Pages: 1 -->
<svg width="300pt" height="196pt"
 viewBox="0.00 0.00 300.00 196.00" xmlns="http://www.w3.org/2000/svg" xmlns:xlink="http://www.w3.org/1999/xlink">

<svg id="main" version="1.1" xmlns="http://www.w3.org/2000/svg" xmlns:xlink="http://www.w3.org/1999/xlink" xml:space="preserve" onload="init(evt)">
<style type="text/css"><![CDATA[
.node, .edge {opacity: 0.7;}
.node.selected, .edge.selected {opacity: 1;}
.edge:hover path { stroke: red; }
.edge:hover polygon { stroke: red; fill: red; }
]]></style>
<script type="application/ecmascript" xlink:href="svg.min.js"/>
<svg id="graph" class="graph">
<g id="graph0" class="graph" transform="scale(1 1) rotate(0) translate(4 192)">
<title>KeyCommand.h</title>
<!-- Node1 -->
<g id="Node000001" class="node">
<title>Node1</title>
<g id="a_Node000001"><a xlink:title="@TODO Add description of this file if needed">
<polygon fill="#999999" stroke="#666666" points="190.12,-188 104.38,-188 104.38,-168 190.12,-168 190.12,-188"/>
<text text-anchor="middle" x="147.25" y="-174.5" font-family="Helvetica,sans-Serif" font-size="10.00">KeyCommand.h</text>
</a>
</g>
</g>
<!-- Node2 -->
<g id="Node000002" class="node">
<title>Node2</title>
<g id="a_Node000002"><a xlink:href="_input_8h.html" target="_top" xlink:title="@TODO Add description of this file if needed">
<polygon fill="white" stroke="#666666" points="125.88,-132 80.62,-132 80.62,-112 125.88,-112 125.88,-132"/>
<text text-anchor="middle" x="103.25" y="-118.5" font-family="Helvetica,sans-Serif" font-size="10.00">Input.h</text>
</a>
</g>
</g>
<!-- Node1&#45;&gt;Node2 -->
<g id="edge1_Node000001_Node000002" class="edge">
<title>Node1&#45;&gt;Node2</title>
<g id="a_edge1_Node000001_Node000002"><a xlink:title=" ">
<path fill="none" stroke="#63b8ff" d="M132.36,-158.72C125.12,-149.84 116.73,-139.55 110.83,-132.3"/>
<polygon fill="#63b8ff" stroke="#63b8ff" points="129.6,-160.88 138.63,-166.42 135.03,-156.46 129.6,-160.88"/>
</a>
</g>
</g>
<!-- Node8 -->
<g id="Node000008" class="node">
<title>Node8</title>
<g id="a_Node000008"><a xlink:href="_key_command_8cpp.html" target="_top" xlink:title=" ">
<polygon fill="white" stroke="#666666" points="240.38,-132 144.12,-132 144.12,-112 240.38,-112 240.38,-132"/>
<text text-anchor="middle" x="192.25" y="-118.5" font-family="Helvetica,sans-Serif" font-size="10.00">KeyCommand.cpp</text>
</a>
</g>
</g>
<!-- Node1&#45;&gt;Node8 -->
<g id="edge7_Node000001_Node000008" class="edge">
<title>Node1&#45;&gt;Node8</title>
<g id="a_edge7_Node000001_Node000008"><a xlink:title=" ">
<path fill="none" stroke="#63b8ff" d="M162.25,-159C169.7,-150.06 178.4,-139.62 184.5,-132.3"/>
<polygon fill="#63b8ff" stroke="#63b8ff" points="159.77,-156.51 156.06,-166.43 165.15,-160.99 159.77,-156.51"/>
</a>
</g>
</g>
<!-- Node3 -->
<g id="Node000003" class="node">
<title>Node3</title>
<g id="a_Node000003"><a xlink:href="_input_8cpp.html" target="_top" xlink:title=" ">
<polygon fill="white" stroke="#666666" points="85.12,-76 29.38,-76 29.38,-56 85.12,-56 85.12,-76"/>
<text text-anchor="middle" x="57.25" y="-62.5" font-family="Helvetica,sans-Serif" font-size="10.00">Input.cpp</text>
</a>
</g>
</g>
<!-- Node2&#45;&gt;Node3 -->
<g id="edge2_Node000002_Node000003" class="edge">
<title>Node2&#45;&gt;Node3</title>
<g id="a_edge2_Node000002_Node000003"><a xlink:title=" ">
<path fill="none" stroke="#63b8ff" d="M87.92,-103C80.3,-94.06 71.41,-83.62 65.17,-76.3"/>
<polygon fill="#63b8ff" stroke="#63b8ff" points="85.11,-105.1 94.26,-110.44 90.44,-100.56 85.11,-105.1"/>
</a>
</g>
</g>
<!-- Node4 -->
<g id="Node000004" class="node">
<title>Node4</title>
<g id="a_Node000004"><a xlink:href="_input_component_8h.html" target="_top" xlink:title="@TODO Add description of this file if needed">
<polygon fill="white" stroke="#666666" points="197.62,-76 102.88,-76 102.88,-56 197.62,-56 197.62,-76"/>
<text text-anchor="middle" x="150.25" y="-62.5" font-family="Helvetica,sans-Serif" font-size="10.00">InputComponent.h</text>
</a>
</g>
</g>
<!-- Node2&#45;&gt;Node4 -->
<g id="edge3_Node000002_Node000004" class="edge">
<title>Node2&#45;&gt;Node4</title>
<g id="a_edge3_Node000002_Node000004"><a xlink:title=" ">
<path fill="none" stroke="#63b8ff" d="M118.91,-103C126.7,-94.06 135.78,-83.62 142.16,-76.3"/>
<polygon fill="#63b8ff" stroke="#63b8ff" points="116.36,-100.61 112.43,-110.45 121.64,-105.21 116.36,-100.61"/>
</a>
</g>
</g>
<!-- Node5 -->
<g id="Node000005" class="node">
<title>Node5</title>
<g id="a_Node000005"><a xlink:href="_engine_camera_8cpp.html" target="_top" xlink:title=" ">
<polygon fill="white" stroke="#666666" points="98.5,-20 0,-20 0,0 98.5,0 98.5,-20"/>
<text text-anchor="middle" x="49.25" y="-6.5" font-family="Helvetica,sans-Serif" font-size="10.00">EngineCamera.cpp</text>
</a>
</g>
</g>
<!-- Node4&#45;&gt;Node5 -->
<g id="edge4_Node000004_Node000005" class="edge">
<title>Node4&#45;&gt;Node5</title>
<g id="a_edge4_Node000004_Node000005"><a xlink:title=" ">
<path fill="none" stroke="#63b8ff" d="M122.84,-50.35C105.07,-40.84 82.42,-28.74 66.98,-20.48"/>
<polygon fill="#63b8ff" stroke="#63b8ff" points="120.85,-53.25 131.32,-54.88 124.15,-47.08 120.85,-53.25"/>
</a>
</g>
</g>
<!-- Node6 -->
<g id="Node000006" class="node">
<title>Node6</title>
<g id="a_Node000006"><a xlink:href="_g_l_e_s_c_8cpp.html" target="_top" xlink:title=" ">
<polygon fill="white" stroke="#666666" points="184.12,-20 116.38,-20 116.38,0 184.12,0 184.12,-20"/>
<text text-anchor="middle" x="150.25" y="-6.5" font-family="Helvetica,sans-Serif" font-size="10.00">GLESC.cpp</text>
</a>
</g>
</g>
<!-- Node4&#45;&gt;Node6 -->
<g id="edge5_Node000004_Node000006" class="edge">
<title>Node4&#45;&gt;Node6</title>
<g id="a_edge5_Node000004_Node000006"><a xlink:title=" ">
<path fill="none" stroke="#63b8ff" d="M150.25,-44.13C150.25,-35.9 150.25,-26.85 150.25,-20.3"/>
<polygon fill="#63b8ff" stroke="#63b8ff" points="146.75,-44.08 150.25,-54.08 153.75,-44.08 146.75,-44.08"/>
</a>
</g>
</g>
<!-- Node7 -->
<g id="Node000007" class="node">
<title>Node7</title>
<g id="a_Node000007"><a xlink:href="_input_system_8cpp.html" target="_top" xlink:title=" ">
<polygon fill="white" stroke="#666666" points="292,-20 202.5,-20 202.5,0 292,0 292,-20"/>
<text text-anchor="middle" x="247.25" y="-6.5" font-family="Helvetica,sans-Serif" font-size="10.00">InputSystem.cpp</text>
</a>
</g>
</g>
<!-- Node4&#45;&gt;Node7 -->
<g id="edge6_Node000004_Node000007" class="edge">
<title>Node4&#45;&gt;Node7</title>
<g id="a_edge6_Node000004_Node000007"><a xlink:title=" ">
<path fill="none" stroke="#63b8ff" d="M177.05,-50.08C194.05,-40.62 215.53,-28.66 230.22,-20.48"/>
<polygon fill="#63b8ff" stroke="#63b8ff" points="175.5,-46.94 168.47,-54.86 178.91,-53.05 175.5,-46.94"/>
</a>
</g>
</g>
</g>
</svg>
</svg>

<style type='text/css'>
<![CDATA[
[data-mouse-over-selected='false'] { opacity: 0.7; }
[data-mouse-over-selected='true']  { opacity: 1.0; }
]]>
</style>
<script type="application/ecmascript"><![CDATA[
document.addEventListener('DOMContentLoaded', (event) => {
  highlightEdges();
  highlightAdjacentNodes();
});
]]></script>
</svg>
