<?xml version="1.0" encoding="UTF-8" standalone="no"?>
<!DOCTYPE svg PUBLIC "-//W3C//DTD SVG 1.1//EN"
 "http://www.w3.org/Graphics/SVG/1.1/DTD/svg11.dtd">
<!-- Generated by graphviz version 11.0.0 (20240428.1522)
 -->
<!-- Title: LightComponent.h Pages: 1 -->
<svg width="180pt" height="84pt"
 viewBox="0.00 0.00 180.12 84.00" xmlns="http://www.w3.org/2000/svg" xmlns:xlink="http://www.w3.org/1999/xlink">
<g id="graph0" class="graph" transform="scale(1 1) rotate(0) translate(4 80)">
<title>LightComponent.h</title>
<!-- Node1 -->
<g id="Node000001" class="node">
<title>Node1</title>
<g id="a_Node000001"><a xlink:title="@TODO Add description of this file if needed">
<polygon fill="#999999" stroke="#666666" points="126.75,-76 32,-76 32,-56 126.75,-56 126.75,-76"/>
<text text-anchor="middle" x="79.38" y="-62.5" font-family="Helvetica,sans-Serif" font-size="10.00">LightComponent.h</text>
</a>
</g>
</g>
<!-- Node2 -->
<g id="Node000002" class="node">
<title>Node2</title>
<g id="a_Node000002"><a xlink:href="_default_8cpp.html" target="_top" xlink:title=" ">
<polygon fill="white" stroke="#666666" points="64.75,-20 0,-20 0,0 64.75,0 64.75,-20"/>
<text text-anchor="middle" x="32.38" y="-6.5" font-family="Helvetica,sans-Serif" font-size="10.00">Default.cpp</text>
</a>
</g>
</g>
<!-- Node1&#45;&gt;Node2 -->
<g id="edge1_Node000001_Node000002" class="edge">
<title>Node1&#45;&gt;Node2</title>
<g id="a_edge1_Node000001_Node000002"><a xlink:title=" ">
<path fill="none" stroke="#63b8ff" d="M63.71,-47C55.93,-38.06 46.84,-27.62 40.47,-20.3"/>
<polygon fill="#63b8ff" stroke="#63b8ff" points="60.99,-49.21 70.19,-54.45 66.27,-44.61 60.99,-49.21"/>
</a>
</g>
</g>
<!-- Node3 -->
<g id="Node000003" class="node">
<title>Node3</title>
<g id="a_Node000003"><a xlink:href="_light_system_8cpp.html" target="_top" xlink:title=" ">
<polygon fill="white" stroke="#666666" points="172.12,-20 82.62,-20 82.62,0 172.12,0 172.12,-20"/>
<text text-anchor="middle" x="127.38" y="-6.5" font-family="Helvetica,sans-Serif" font-size="10.00">LightSystem.cpp</text>
</a>
</g>
</g>
<!-- Node1&#45;&gt;Node3 -->
<g id="edge2_Node000001_Node000003" class="edge">
<title>Node1&#45;&gt;Node3</title>
<g id="a_edge2_Node000001_Node000003"><a xlink:title=" ">
<path fill="none" stroke="#63b8ff" d="M95.37,-47C103.32,-38.06 112.6,-27.62 119.11,-20.3"/>
<polygon fill="#63b8ff" stroke="#63b8ff" points="92.77,-44.66 88.74,-54.46 98,-49.31 92.77,-44.66"/>
</a>
</g>
</g>
</g>
</svg>
