<?xml version="1.0" encoding="UTF-8" standalone="no"?>
<!DOCTYPE svg PUBLIC "-//W3C//DTD SVG 1.1//EN"
 "http://www.w3.org/Graphics/SVG/1.1/DTD/svg11.dtd">
<!-- Generated by graphviz version 11.0.0 (20240428.1522)
 -->
<!-- Title: Line.cpp Pages: 1 -->
<!--zoomable 752 -->

<svg id="main" version="1.1" xmlns="http://www.w3.org/2000/svg" xmlns:xlink="http://www.w3.org/1999/xlink" xml:space="preserve" onload="init(evt)">
<style type="text/css"><![CDATA[
.node, .edge {opacity: 0.7;}
.node.selected, .edge.selected {opacity: 1;}
.edge:hover path { stroke: red; }
.edge:hover polygon { stroke: red; fill: red; }
]]></style>

<defs>
  <circle id="rim" cx="0" cy="0" r="7"/>
  <circle id="rim2" cx="0" cy="0" r="3.5"/>
  <g id="zoomPlus">
    <use xlink:href="#rim" fill="#404040"><set attributeName="fill" to="#808080" begin="zoomplus.mouseover" end="zoomplus.mouseout"/></use>
    <path d="M-4,0h8M0,-4v8" fill="none" stroke="white" stroke-width="1.5" pointer-events="none"/>
  </g>
  <g id="zoomMin">
    <use xlink:href="#rim" fill="#404040"><set attributeName="fill" to="#808080" begin="zoomminus.mouseover" end="zoomminus.mouseout"/></use>
    <path d="M-4,0h8" fill="none" stroke="white" stroke-width="1.5" pointer-events="none"/>
  </g>
  <g id="arrowUp" transform="translate(30 24)">
    <use xlink:href="#rim"/>
    <path pointer-events="none" fill="none" stroke="white" stroke-width="1.5" d="M0,-3.0v7 M-2.5,-0.5L0,-3.0L2.5,-0.5"/>
  </g>
  <g id="arrowRight" transform="rotate(90) translate(36 -43)">
    <use xlink:href="#rim"/>
    <path pointer-events="none" fill="none" stroke="white" stroke-width="1.5" d="M0,-3.0v7 M-2.5,-0.5L0,-3.0L2.5,-0.5"/>
  </g>
  <g id="arrowDown" transform="rotate(180) translate(-30 -48)">
    <use xlink:href="#rim"/>
    <path pointer-events="none" fill="none" stroke="white" stroke-width="1.5" d="M0,-3.0v7 M-2.5,-0.5L0,-3.0L2.5,-0.5"/>
  </g>
  <g id="arrowLeft" transform="rotate(270) translate(-36 17)">
    <use xlink:href="#rim"/>
    <path pointer-events="none" fill="none" stroke="white" stroke-width="1.5" d="M0,-3.0v7 M-2.5,-0.5L0,-3.0L2.5,-0.5"/>
  </g>
  <g id="resetDef">
    <use xlink:href="#rim2" fill="#404040"><set attributeName="fill" to="#808080" begin="reset.mouseover" end="reset.mouseout"/></use>
  </g>
</defs>
<script type="application/ecmascript">
var viewWidth = 1126;
var viewHeight = 752;
var sectionId = 'dynsection-0';
</script>
<script type="application/ecmascript" xlink:href="svg.min.js"/>
<svg id="graph" class="graph">
<g id="viewport">
<title>Line.cpp</title>
<!-- Node1 -->
<g id="Node000001" class="node">
<title>Node1</title>
<g id="a_Node000001"><a xlink:title=" ">
<polygon fill="#999999" stroke="#666666" points="587.38,-744 534.62,-744 534.62,-724 587.38,-724 587.38,-744"/>
<text text-anchor="middle" x="561" y="-730.5" font-family="Helvetica,sans-Serif" font-size="10.00">Line.cpp</text>
</a>
</g>
</g>
<!-- Node2 -->
<g id="Node000002" class="node">
<title>Node2</title>
<g id="a_Node000002"><a xlink:href="_line_8h.html" target="_top" xlink:title="@TODO Add description of this file if needed">
<polygon fill="white" stroke="#666666" points="628.25,-688 493.75,-688 493.75,-656 628.25,-656 628.25,-688"/>
<text text-anchor="start" x="501.75" y="-674.5" font-family="Helvetica,sans-Serif" font-size="10.00">engine/core/math/geometry</text>
<text text-anchor="middle" x="561" y="-662.5" font-family="Helvetica,sans-Serif" font-size="10.00">/figures/line/Line.h</text>
</a>
</g>
</g>
<!-- Node1&#45;&gt;Node2 -->
<g id="edge1_Node000001_Node000002" class="edge">
<title>Node1&#45;&gt;Node2</title>
<g id="a_edge1_Node000001_Node000002"><a xlink:title=" ">
<path fill="none" stroke="#63b8ff" d="M561,-723.62C561,-717.1 561,-708.05 561,-699.4"/>
<polygon fill="#63b8ff" stroke="#63b8ff" points="564.5,-699.65 561,-689.65 557.5,-699.65 564.5,-699.65"/>
</a>
</g>
</g>
<!-- Node3 -->
<g id="Node000003" class="node">
<title>Node3</title>
<g id="a_Node000003"><a xlink:href="_vector_8h.html" target="_top" xlink:title=" ">
<polygon fill="white" stroke="#666666" points="623.75,-552 498.25,-552 498.25,-520 623.75,-520 623.75,-552"/>
<text text-anchor="start" x="506.25" y="-538.5" font-family="Helvetica,sans-Serif" font-size="10.00">engine/core/math/algebra</text>
<text text-anchor="middle" x="561" y="-526.5" font-family="Helvetica,sans-Serif" font-size="10.00">/vector/Vector.h</text>
</a>
</g>
</g>
<!-- Node2&#45;&gt;Node3 -->
<g id="edge2_Node000002_Node000003" class="edge">
<title>Node2&#45;&gt;Node3</title>
<g id="a_edge2_Node000002_Node000003"><a xlink:title=" ">
<path fill="none" stroke="#63b8ff" d="M549.99,-655.79C543.65,-646.07 536.31,-632.92 533,-620 529.47,-606.22 529.47,-601.78 533,-588 535.3,-579.02 539.55,-569.92 544.06,-561.95"/>
<polygon fill="#63b8ff" stroke="#63b8ff" points="546.99,-563.87 549.2,-553.51 541.01,-560.23 546.99,-563.87"/>
</a>
</g>
</g>
<!-- Node40 -->
<g id="Node000040" class="node">
<title>Node40</title>
<g id="a_Node000040"><a xlink:href="_geometry_types_8h.html" target="_top" xlink:title="@TODO Add description of this file if needed">
<polygon fill="white" stroke="#666666" points="676.25,-620 541.75,-620 541.75,-588 676.25,-588 676.25,-620"/>
<text text-anchor="start" x="549.75" y="-606.5" font-family="Helvetica,sans-Serif" font-size="10.00">engine/core/math/geometry</text>
<text text-anchor="middle" x="609" y="-594.5" font-family="Helvetica,sans-Serif" font-size="10.00">/GeometryTypes.h</text>
</a>
</g>
</g>
<!-- Node2&#45;&gt;Node40 -->
<g id="edge59_Node000002_Node000040" class="edge">
<title>Node2&#45;&gt;Node40</title>
<g id="a_edge59_Node000002_Node000040"><a xlink:title=" ">
<path fill="none" stroke="#63b8ff" d="M572.13,-655.69C577.83,-647.86 584.89,-638.15 591.31,-629.32"/>
<polygon fill="#63b8ff" stroke="#63b8ff" points="593.99,-631.59 597.04,-621.45 588.32,-627.48 593.99,-631.59"/>
</a>
</g>
</g>
<!-- Node4 -->
<g id="Node000004" class="node">
<title>Node4</title>
<g id="a_Node000004"><a xlink:title=" ">
<polygon fill="#e0e0e0" stroke="#999999" points="423.88,-138 362.12,-138 362.12,-118 423.88,-118 423.88,-138"/>
<text text-anchor="middle" x="393" y="-124.5" font-family="Helvetica,sans-Serif" font-size="10.00">type_traits</text>
</a>
</g>
</g>
<!-- Node3&#45;&gt;Node4 -->
<g id="edge3_Node000003_Node000004" class="edge">
<title>Node3&#45;&gt;Node4</title>
<g id="a_edge3_Node000003_Node000004"><a xlink:title=" ">
<path fill="none" stroke="#63b8ff" d="M497.92,-521.25C438.65,-504.18 359,-468.65 359,-401 359,-401 359,-401 359,-263 359,-221.35 374.62,-174.6 384.69,-148.8"/>
<polygon fill="#63b8ff" stroke="#63b8ff" points="387.89,-150.2 388.4,-139.62 381.4,-147.58 387.89,-150.2"/>
</a>
</g>
</g>
<!-- Node5 -->
<g id="Node000005" class="node">
<title>Node5</title>
<g id="a_Node000005"><a xlink:title=" ">
<polygon fill="#e0e0e0" stroke="#999999" points="866.5,-206 823.5,-206 823.5,-186 866.5,-186 866.5,-206"/>
<text text-anchor="middle" x="845" y="-192.5" font-family="Helvetica,sans-Serif" font-size="10.00">cmath</text>
</a>
</g>
</g>
<!-- Node3&#45;&gt;Node5 -->
<g id="edge4_Node000003_Node000005" class="edge">
<title>Node3&#45;&gt;Node5</title>
<g id="a_edge4_Node000003_Node000005"><a xlink:title=" ">
<path fill="none" stroke="#63b8ff" d="M526.52,-519.65C512.18,-511.32 497.02,-499.51 489,-484 482.47,-471.37 485.42,-465.76 489,-452 515.18,-351.49 518.15,-307.9 603,-248 681.08,-192.88 724.16,-241.69 815,-212 815.97,-211.68 816.94,-211.34 817.92,-210.97"/>
<polygon fill="#63b8ff" stroke="#63b8ff" points="819.09,-214.29 826.85,-207.07 816.28,-207.87 819.09,-214.29"/>
</a>
</g>
</g>
<!-- Node6 -->
<g id="Node000006" class="node">
<title>Node6</title>
<g id="a_Node000006"><a xlink:title=" ">
<polygon fill="#e0e0e0" stroke="#999999" points="404,-20 364,-20 364,0 404,0 404,-20"/>
<text text-anchor="middle" x="384" y="-6.5" font-family="Helvetica,sans-Serif" font-size="10.00">string</text>
</a>
</g>
</g>
<!-- Node3&#45;&gt;Node6 -->
<g id="edge5_Node000003_Node000006" class="edge">
<title>Node3&#45;&gt;Node6</title>
<g id="a_edge5_Node000003_Node000006"><a xlink:title=" ">
<path fill="none" stroke="#63b8ff" d="M498.01,-533.18C351.45,-527.25 0,-502.45 0,-401 0,-401 0,-401 0,-127 0,-84.81 25.82,-75.93 63,-56 112.81,-29.29 282.1,-16.79 352.69,-12.65"/>
<polygon fill="#63b8ff" stroke="#63b8ff" points="352.61,-16.16 362.4,-12.09 352.22,-9.17 352.61,-16.16"/>
</a>
</g>
</g>
<!-- Node7 -->
<g id="Node000007" class="node">
<title>Node7</title>
<g id="a_Node000007"><a xlink:href="_math_8h.html" target="_top" xlink:title=" ">
<polygon fill="white" stroke="#666666" points="712,-342 588,-342 588,-322 712,-322 712,-342"/>
<text text-anchor="middle" x="650" y="-328.5" font-family="Helvetica,sans-Serif" font-size="10.00">engine/core/math/Math.h</text>
</a>
</g>
</g>
<!-- Node3&#45;&gt;Node7 -->
<g id="edge6_Node000003_Node000007" class="edge">
<title>Node3&#45;&gt;Node7</title>
<g id="a_edge6_Node000003_Node000007"><a xlink:title=" ">
<path fill="none" stroke="#63b8ff" d="M593.94,-519.65C608.34,-511.21 623.97,-499.3 633,-484 657.29,-442.85 655.72,-384.34 652.72,-353.64"/>
<polygon fill="#63b8ff" stroke="#63b8ff" points="656.21,-353.35 651.59,-343.81 649.26,-354.15 656.21,-353.35"/>
</a>
</g>
</g>
<!-- Node32 -->
<g id="Node000032" class="node">
<title>Node32</title>
<g id="a_Node000032"><a xlink:href="_vector_asserts_8h.html" target="_top" xlink:title="Contains custom asserts for vectors.">
<polygon fill="white" stroke="#666666" points="624.12,-484 497.88,-484 497.88,-452 624.12,-452 624.12,-484"/>
<text text-anchor="start" x="505.88" y="-470.5" font-family="Helvetica,sans-Serif" font-size="10.00">engine/core/math/asserts</text>
<text text-anchor="middle" x="561" y="-458.5" font-family="Helvetica,sans-Serif" font-size="10.00">/VectorAsserts.h</text>
</a>
</g>
</g>
<!-- Node3&#45;&gt;Node32 -->
<g id="edge43_Node000003_Node000032" class="edge">
<title>Node3&#45;&gt;Node32</title>
<g id="a_edge43_Node000003_Node000032"><a xlink:title=" ">
<path fill="none" stroke="#63b8ff" d="M561,-519.69C561,-512.53 561,-503.79 561,-495.59"/>
<polygon fill="#63b8ff" stroke="#63b8ff" points="564.5,-495.74 561,-485.74 557.5,-495.74 564.5,-495.74"/>
</a>
</g>
</g>
<!-- Node34 -->
<g id="Node000034" class="node">
<title>Node34</title>
<g id="a_Node000034"><a xlink:href="_vector_algorithms_8h.html" target="_top" xlink:title="@TODO Add description of this file">
<polygon fill="white" stroke="#666666" points="876.38,-416 745.62,-416 745.62,-384 876.38,-384 876.38,-416"/>
<text text-anchor="start" x="753.62" y="-402.5" font-family="Helvetica,sans-Serif" font-size="10.00">engine/core/math/algebra</text>
<text text-anchor="middle" x="811" y="-390.5" font-family="Helvetica,sans-Serif" font-size="10.00">/vector/VectorAlgorithms.h</text>
</a>
</g>
</g>
<!-- Node3&#45;&gt;Node34 -->
<g id="edge46_Node000003_Node000034" class="edge">
<title>Node3&#45;&gt;Node34</title>
<g id="a_edge46_Node000003_Node000034"><a xlink:title=" ">
<path fill="none" stroke="#63b8ff" d="M593.92,-519.71C614.76,-509.86 642.17,-496.59 666,-484 703.97,-463.94 746.52,-439.32 775.65,-422.13"/>
<polygon fill="#63b8ff" stroke="#63b8ff" points="777.24,-425.26 784.06,-417.15 773.67,-419.23 777.24,-425.26"/>
</a>
</g>
</g>
<!-- Node38 -->
<g id="Node000038" class="node">
<title>Node38</title>
<g id="a_Node000038"><a xlink:href="_vector_mixed_algorithms_8h.html" target="_top" xlink:title=" ">
<polygon fill="white" stroke="#666666" points="935.5,-484 778.5,-484 778.5,-452 935.5,-452 935.5,-484"/>
<text text-anchor="start" x="786.5" y="-470.5" font-family="Helvetica,sans-Serif" font-size="10.00">engine/core/math/algebra</text>
<text text-anchor="middle" x="857" y="-458.5" font-family="Helvetica,sans-Serif" font-size="10.00">/vector/VectorMixedAlgorithms.h</text>
</a>
</g>
</g>
<!-- Node3&#45;&gt;Node38 -->
<g id="edge52_Node000003_Node000038" class="edge">
<title>Node3&#45;&gt;Node38</title>
<g id="a_edge52_Node000003_Node000038"><a xlink:title=" ">
<path fill="none" stroke="#63b8ff" d="M624.14,-520.92C668.64,-511 728.59,-497.63 776.53,-486.94"/>
<polygon fill="#63b8ff" stroke="#63b8ff" points="777.02,-490.42 786.02,-484.83 775.49,-483.59 777.02,-490.42"/>
</a>
</g>
</g>
<!-- Node7&#45;&gt;Node4 -->
<g id="edge7_Node000007_Node000004" class="edge">
<title>Node7&#45;&gt;Node4</title>
<g id="a_edge7_Node000007_Node000004"><a xlink:title=" ">
<path fill="none" stroke="#63b8ff" d="M640.12,-321.6C614.04,-297.01 540.74,-229.23 474,-180 456.45,-167.05 435.6,-153.98 419.45,-144.31"/>
<polygon fill="#63b8ff" stroke="#63b8ff" points="421.29,-141.33 410.9,-139.25 417.73,-147.35 421.29,-141.33"/>
</a>
</g>
</g>
<!-- Node7&#45;&gt;Node5 -->
<g id="edge10_Node000007_Node000005" class="edge">
<title>Node7&#45;&gt;Node5</title>
<g id="a_edge10_Node000007_Node000005"><a xlink:title=" ">
<path fill="none" stroke="#63b8ff" d="M666.17,-321.63C683.09,-311.69 710.3,-295.34 733,-280 765.66,-257.92 802.11,-230.34 824.29,-213.19"/>
<polygon fill="#63b8ff" stroke="#63b8ff" points="826.2,-216.14 831.95,-207.24 821.91,-210.61 826.2,-216.14"/>
</a>
</g>
</g>
<!-- Node8 -->
<g id="Node000008" class="node">
<title>Node8</title>
<g id="a_Node000008"><a xlink:title=" ">
<polygon fill="#e0e0e0" stroke="#999999" points="724.12,-274 675.88,-274 675.88,-254 724.12,-254 724.12,-274"/>
<text text-anchor="middle" x="700" y="-260.5" font-family="Helvetica,sans-Serif" font-size="10.00">random</text>
</a>
</g>
</g>
<!-- Node7&#45;&gt;Node8 -->
<g id="edge8_Node000007_Node000008" class="edge">
<title>Node7&#45;&gt;Node8</title>
<g id="a_edge8_Node000007_Node000008"><a xlink:title=" ">
<path fill="none" stroke="#63b8ff" d="M657.16,-321.54C664.66,-311.64 676.63,-295.84 686.01,-283.46"/>
<polygon fill="#63b8ff" stroke="#63b8ff" points="688.69,-285.73 691.94,-275.65 683.11,-281.5 688.69,-285.73"/>
</a>
</g>
</g>
<!-- Node9 -->
<g id="Node000009" class="node">
<title>Node9</title>
<g id="a_Node000009"><a xlink:title=" ">
<polygon fill="#e0e0e0" stroke="#999999" points="657.62,-274 612.38,-274 612.38,-254 657.62,-254 657.62,-274"/>
<text text-anchor="middle" x="635" y="-260.5" font-family="Helvetica,sans-Serif" font-size="10.00">cstring</text>
</a>
</g>
</g>
<!-- Node7&#45;&gt;Node9 -->
<g id="edge9_Node000007_Node000009" class="edge">
<title>Node7&#45;&gt;Node9</title>
<g id="a_edge9_Node000007_Node000009"><a xlink:title=" ">
<path fill="none" stroke="#63b8ff" d="M647.85,-321.54C645.71,-312.13 642.36,-297.39 639.62,-285.32"/>
<polygon fill="#63b8ff" stroke="#63b8ff" points="643.11,-284.89 637.48,-275.91 636.28,-286.44 643.11,-284.89"/>
</a>
</g>
</g>
<!-- Node10 -->
<g id="Node000010" class="node">
<title>Node10</title>
<g id="a_Node000010"><a xlink:href="_asserts_8h.html" target="_top" xlink:title="Set of macros for runtime and compile time assertions.">
<polygon fill="white" stroke="#666666" points="488.75,-280 387.25,-280 387.25,-248 488.75,-248 488.75,-280"/>
<text text-anchor="start" x="395.25" y="-266.5" font-family="Helvetica,sans-Serif" font-size="10.00">engine/core/asserts</text>
<text text-anchor="middle" x="438" y="-254.5" font-family="Helvetica,sans-Serif" font-size="10.00">/Asserts.h</text>
</a>
</g>
</g>
<!-- Node7&#45;&gt;Node10 -->
<g id="edge11_Node000007_Node000010" class="edge">
<title>Node7&#45;&gt;Node10</title>
<g id="a_edge11_Node000007_Node000010"><a xlink:title=" ">
<path fill="none" stroke="#63b8ff" d="M619.63,-321.54C588.13,-311.74 538.03,-296.14 498.43,-283.81"/>
<polygon fill="#63b8ff" stroke="#63b8ff" points="499.59,-280.51 489,-280.88 497.51,-287.19 499.59,-280.51"/>
</a>
</g>
</g>
<!-- Node10&#45;&gt;Node4 -->
<g id="edge15_Node000010_Node000004" class="edge">
<title>Node10&#45;&gt;Node4</title>
<g id="a_edge15_Node000010_Node000004"><a xlink:title=" ">
<path fill="none" stroke="#63b8ff" d="M430.7,-247.6C426.12,-237.59 420.29,-224.19 416,-212 408.56,-190.89 401.96,-166.09 397.76,-149.14"/>
<polygon fill="#63b8ff" stroke="#63b8ff" points="401.25,-148.71 395.5,-139.81 394.45,-150.35 401.25,-148.71"/>
</a>
</g>
</g>
<!-- Node10&#45;&gt;Node5 -->
<g id="edge12_Node000010_Node000005" class="edge">
<title>Node10&#45;&gt;Node5</title>
<g id="a_edge12_Node000010_Node000005"><a xlink:title=" ">
<path fill="none" stroke="#63b8ff" d="M489.06,-255.42C505.62,-253 524.08,-250.34 541,-248 662.66,-231.15 697.56,-247.96 815,-212 816.14,-211.65 817.29,-211.26 818.44,-210.84"/>
<polygon fill="#63b8ff" stroke="#63b8ff" points="819.42,-214.23 827.2,-207.03 816.64,-207.81 819.42,-214.23"/>
</a>
</g>
</g>
<!-- Node10&#45;&gt;Node6 -->
<g id="edge14_Node000010_Node000006" class="edge">
<title>Node10&#45;&gt;Node6</title>
<g id="a_edge14_Node000010_Node000006"><a xlink:title=" ">
<path fill="none" stroke="#63b8ff" d="M386.95,-260.57C328.41,-256.29 230.54,-244.48 153,-212 104.77,-191.8 81.02,-190.44 57,-144 -2.47,-28.99 258.91,-13.23 352.08,-11.23"/>
<polygon fill="#63b8ff" stroke="#63b8ff" points="352.12,-14.73 362.06,-11.06 352,-7.73 352.12,-14.73"/>
</a>
</g>
</g>
<!-- Node11 -->
<g id="Node000011" class="node">
<title>Node11</title>
<g id="a_Node000011"><a xlink:title=" ">
<polygon fill="#e0e0e0" stroke="#999999" points="464.62,-206 425.38,-206 425.38,-186 464.62,-186 464.62,-206"/>
<text text-anchor="middle" x="445" y="-192.5" font-family="Helvetica,sans-Serif" font-size="10.00">limits</text>
</a>
</g>
</g>
<!-- Node10&#45;&gt;Node11 -->
<g id="edge13_Node000010_Node000011" class="edge">
<title>Node10&#45;&gt;Node11</title>
<g id="a_edge13_Node000010_Node000011"><a xlink:title=" ">
<path fill="none" stroke="#63b8ff" d="M439.62,-247.69C440.58,-238.7 441.8,-227.21 442.83,-217.44"/>
<polygon fill="#63b8ff" stroke="#63b8ff" points="446.28,-218.13 443.85,-207.82 439.32,-217.4 446.28,-218.13"/>
</a>
</g>
</g>
<!-- Node12 -->
<g id="Node000012" class="node">
<title>Node12</title>
<g id="a_Node000012"><a xlink:title=" ">
<polygon fill="#e0e0e0" stroke="#999999" points="117.62,-138 66.38,-138 66.38,-118 117.62,-118 117.62,-138"/>
<text text-anchor="middle" x="92" y="-124.5" font-family="Helvetica,sans-Serif" font-size="10.00">sstream</text>
</a>
</g>
</g>
<!-- Node10&#45;&gt;Node12 -->
<g id="edge16_Node000010_Node000012" class="edge">
<title>Node10&#45;&gt;Node12</title>
<g id="a_edge16_Node000010_Node000012"><a xlink:title=" ">
<path fill="none" stroke="#63b8ff" d="M386.88,-257.15C339.9,-250.46 269.09,-237.05 212,-212 173.03,-194.9 133.53,-164.5 110.98,-145.62"/>
<polygon fill="#63b8ff" stroke="#63b8ff" points="113.43,-143.11 103.55,-139.29 108.89,-148.44 113.43,-143.11"/>
</a>
</g>
</g>
<!-- Node13 -->
<g id="Node000013" class="node">
<title>Node13</title>
<g id="a_Node000013"><a xlink:href="_assert_failed_exception_8h.html" target="_top" xlink:title="@TODO Add description of this file if needed">
<polygon fill="white" stroke="#666666" points="805.62,-212 658.38,-212 658.38,-180 805.62,-180 805.62,-212"/>
<text text-anchor="start" x="666.38" y="-198.5" font-family="Helvetica,sans-Serif" font-size="10.00">engine/core/exceptions</text>
<text text-anchor="middle" x="732" y="-186.5" font-family="Helvetica,sans-Serif" font-size="10.00">/core/AssertFailedException.h</text>
</a>
</g>
</g>
<!-- Node10&#45;&gt;Node13 -->
<g id="edge17_Node000010_Node000013" class="edge">
<title>Node10&#45;&gt;Node13</title>
<g id="a_edge17_Node000010_Node000013"><a xlink:title=" ">
<path fill="none" stroke="#63b8ff" d="M489.21,-251.5C534.12,-241.42 600.15,-226.6 652.02,-214.95"/>
<polygon fill="#63b8ff" stroke="#63b8ff" points="652.73,-218.38 661.72,-212.78 651.2,-211.55 652.73,-218.38"/>
</a>
</g>
</g>
<!-- Node17 -->
<g id="Node000017" class="node">
<title>Node17</title>
<g id="a_Node000017"><a xlink:href="_stringer_8h.html" target="_top" xlink:title="A set of functions for converting objects to strings.">
<polygon fill="white" stroke="#666666" points="330.5,-212 221.5,-212 221.5,-180 330.5,-180 330.5,-212"/>
<text text-anchor="start" x="229.5" y="-198.5" font-family="Helvetica,sans-Serif" font-size="10.00">engine/core/debugger</text>
<text text-anchor="middle" x="276" y="-186.5" font-family="Helvetica,sans-Serif" font-size="10.00">/Stringer.h</text>
</a>
</g>
</g>
<!-- Node10&#45;&gt;Node17 -->
<g id="edge22_Node000010_Node000017" class="edge">
<title>Node10&#45;&gt;Node17</title>
<g id="a_edge22_Node000010_Node000017"><a xlink:title=" ">
<path fill="none" stroke="#63b8ff" d="M400.02,-247.53C377.45,-238.33 348.61,-226.58 324.42,-216.73"/>
<polygon fill="#63b8ff" stroke="#63b8ff" points="326.01,-213.59 315.43,-213.06 323.37,-220.08 326.01,-213.59"/>
</a>
</g>
</g>
<!-- Node21 -->
<g id="Node000021" class="node">
<title>Node21</title>
<g id="a_Node000021"><a xlink:href="_logger_8h.html" target="_top" xlink:title="@TODO Add description of this file if needed">
<polygon fill="white" stroke="#666666" points="640.75,-212 545.25,-212 545.25,-180 640.75,-180 640.75,-212"/>
<text text-anchor="start" x="553.25" y="-198.5" font-family="Helvetica,sans-Serif" font-size="10.00">engine/core/logger</text>
<text text-anchor="middle" x="593" y="-186.5" font-family="Helvetica,sans-Serif" font-size="10.00">/Logger.h</text>
</a>
</g>
</g>
<!-- Node10&#45;&gt;Node21 -->
<g id="edge29_Node000010_Node000021" class="edge">
<title>Node10&#45;&gt;Node21</title>
<g id="a_edge29_Node000010_Node000021"><a xlink:title=" ">
<path fill="none" stroke="#63b8ff" d="M474.34,-247.53C495.74,-238.41 523.03,-226.79 546.05,-216.99"/>
<polygon fill="#63b8ff" stroke="#63b8ff" points="547.4,-220.22 555.23,-213.08 544.65,-213.78 547.4,-220.22"/>
</a>
</g>
</g>
<!-- Node14 -->
<g id="Node000014" class="node">
<title>Node14</title>
<g id="a_Node000014"><a xlink:href="_engine_exception_8h.html" target="_top" xlink:title="Base exception class for any exception in the engine.">
<polygon fill="white" stroke="#666666" points="1118.25,-144 1001.75,-144 1001.75,-112 1118.25,-112 1118.25,-144"/>
<text text-anchor="start" x="1009.75" y="-130.5" font-family="Helvetica,sans-Serif" font-size="10.00">engine/core/exceptions</text>
<text text-anchor="middle" x="1060" y="-118.5" font-family="Helvetica,sans-Serif" font-size="10.00">/EngineException.h</text>
</a>
</g>
</g>
<!-- Node13&#45;&gt;Node14 -->
<g id="edge18_Node000013_Node000014" class="edge">
<title>Node13&#45;&gt;Node14</title>
<g id="a_edge18_Node000013_Node000014"><a xlink:title=" ">
<path fill="none" stroke="#63b8ff" d="M806.08,-181.08C855.73,-171.63 922.85,-158.59 990.67,-144.46"/>
<polygon fill="#63b8ff" stroke="#63b8ff" points="991,-147.97 1000.07,-142.49 989.57,-141.11 991,-147.97"/>
</a>
</g>
</g>
<!-- Node15 -->
<g id="Node000015" class="node">
<title>Node15</title>
<g id="a_Node000015"><a xlink:href="_base_exception_8h.html" target="_top" xlink:title=" ">
<polygon fill="white" stroke="#666666" points="981.12,-76 890.88,-76 890.88,-56 981.12,-56 981.12,-76"/>
<text text-anchor="middle" x="936" y="-62.5" font-family="Helvetica,sans-Serif" font-size="10.00">BaseException.h</text>
</a>
</g>
</g>
<!-- Node14&#45;&gt;Node15 -->
<g id="edge19_Node000014_Node000015" class="edge">
<title>Node14&#45;&gt;Node15</title>
<g id="a_edge19_Node000014_Node000015"><a xlink:title=" ">
<path fill="none" stroke="#63b8ff" d="M1028.07,-111.55C1008.87,-102.26 984.6,-90.52 965.8,-81.42"/>
<polygon fill="#63b8ff" stroke="#63b8ff" points="967.33,-78.27 956.81,-77.07 964.28,-84.57 967.33,-78.27"/>
</a>
</g>
</g>
<!-- Node15&#45;&gt;Node6 -->
<g id="edge21_Node000015_Node000006" class="edge">
<title>Node15&#45;&gt;Node6</title>
<g id="a_edge21_Node000015_Node000006"><a xlink:title=" ">
<path fill="none" stroke="#63b8ff" d="M890.83,-60.58C782.28,-49.96 508.88,-23.22 415.69,-14.1"/>
<polygon fill="#63b8ff" stroke="#63b8ff" points="416.06,-10.62 405.76,-13.13 415.37,-17.59 416.06,-10.62"/>
</a>
</g>
</g>
<!-- Node16 -->
<g id="Node000016" class="node">
<title>Node16</title>
<g id="a_Node000016"><a xlink:title=" ">
<polygon fill="#e0e0e0" stroke="#999999" points="965.38,-20 906.62,-20 906.62,0 965.38,0 965.38,-20"/>
<text text-anchor="middle" x="936" y="-6.5" font-family="Helvetica,sans-Serif" font-size="10.00">stdexcept</text>
</a>
</g>
</g>
<!-- Node15&#45;&gt;Node16 -->
<g id="edge20_Node000015_Node000016" class="edge">
<title>Node15&#45;&gt;Node16</title>
<g id="a_edge20_Node000015_Node000016"><a xlink:title=" ">
<path fill="none" stroke="#63b8ff" d="M936,-55.59C936,-49.01 936,-39.96 936,-31.73"/>
<polygon fill="#63b8ff" stroke="#63b8ff" points="939.5,-31.81 936,-21.81 932.5,-31.81 939.5,-31.81"/>
</a>
</g>
</g>
<!-- Node17&#45;&gt;Node4 -->
<g id="edge25_Node000017_Node000004" class="edge">
<title>Node17&#45;&gt;Node4</title>
<g id="a_edge25_Node000017_Node000004"><a xlink:title=" ">
<path fill="none" stroke="#63b8ff" d="M303.43,-179.53C322.38,-168.84 347.45,-154.7 366.25,-144.09"/>
<polygon fill="#63b8ff" stroke="#63b8ff" points="367.92,-147.17 374.91,-139.2 364.48,-141.07 367.92,-147.17"/>
</a>
</g>
</g>
<!-- Node17&#45;&gt;Node6 -->
<g id="edge23_Node000017_Node000006" class="edge">
<title>Node17&#45;&gt;Node6</title>
<g id="a_edge23_Node000017_Node000006"><a xlink:title=" ">
<path fill="none" stroke="#63b8ff" d="M288.68,-179.88C296.68,-169.99 306.99,-156.61 315,-144 339.53,-105.36 362.94,-57 375.18,-30.54"/>
<polygon fill="#63b8ff" stroke="#63b8ff" points="378.24,-32.26 379.22,-21.71 371.87,-29.35 378.24,-32.26"/>
</a>
</g>
</g>
<!-- Node17&#45;&gt;Node12 -->
<g id="edge24_Node000017_Node000012" class="edge">
<title>Node17&#45;&gt;Node12</title>
<g id="a_edge24_Node000017_Node000012"><a xlink:title=" ">
<path fill="none" stroke="#63b8ff" d="M226.97,-179.53C197.48,-169.93 159.32,-156.98 126,-144 125.05,-143.63 124.09,-143.25 123.13,-142.86"/>
<polygon fill="#63b8ff" stroke="#63b8ff" points="124.71,-139.73 114.13,-139.08 121.99,-146.18 124.71,-139.73"/>
</a>
</g>
</g>
<!-- Node18 -->
<g id="Node000018" class="node">
<title>Node18</title>
<g id="a_Node000018"><a xlink:title=" ">
<polygon fill="#e0e0e0" stroke="#999999" points="305.88,-138 256.12,-138 256.12,-118 305.88,-118 305.88,-138"/>
<text text-anchor="middle" x="281" y="-124.5" font-family="Helvetica,sans-Serif" font-size="10.00">iomanip</text>
</a>
</g>
</g>
<!-- Node17&#45;&gt;Node18 -->
<g id="edge26_Node000017_Node000018" class="edge">
<title>Node17&#45;&gt;Node18</title>
<g id="a_edge26_Node000017_Node000018"><a xlink:title=" ">
<path fill="none" stroke="#63b8ff" d="M277.16,-179.69C277.83,-170.8 278.69,-159.46 279.43,-149.77"/>
<polygon fill="#63b8ff" stroke="#63b8ff" points="282.91,-150.06 280.18,-139.83 275.93,-149.53 282.91,-150.06"/>
</a>
</g>
</g>
<!-- Node19 -->
<g id="Node000019" class="node">
<title>Node19</title>
<g id="a_Node000019"><a xlink:title=" ">
<polygon fill="#e0e0e0" stroke="#999999" points="180.62,-138 135.38,-138 135.38,-118 180.62,-118 180.62,-138"/>
<text text-anchor="middle" x="158" y="-124.5" font-family="Helvetica,sans-Serif" font-size="10.00">cstdint</text>
</a>
</g>
</g>
<!-- Node17&#45;&gt;Node19 -->
<g id="edge27_Node000017_Node000019" class="edge">
<title>Node17&#45;&gt;Node19</title>
<g id="a_edge27_Node000017_Node000019"><a xlink:title=" ">
<path fill="none" stroke="#63b8ff" d="M248.33,-179.53C229.14,-168.79 203.71,-154.56 184.72,-143.94"/>
<polygon fill="#63b8ff" stroke="#63b8ff" points="186.67,-141.03 176.23,-139.2 183.25,-147.14 186.67,-141.03"/>
</a>
</g>
</g>
<!-- Node20 -->
<g id="Node000020" class="node">
<title>Node20</title>
<g id="a_Node000020"><a xlink:title=" ">
<polygon fill="#e0e0e0" stroke="#999999" points="237.62,-138 198.38,-138 198.38,-118 237.62,-118 237.62,-138"/>
<text text-anchor="middle" x="218" y="-124.5" font-family="Helvetica,sans-Serif" font-size="10.00">utility</text>
</a>
</g>
</g>
<!-- Node17&#45;&gt;Node20 -->
<g id="edge28_Node000017_Node000020" class="edge">
<title>Node17&#45;&gt;Node20</title>
<g id="a_edge28_Node000017_Node000020"><a xlink:title=" ">
<path fill="none" stroke="#63b8ff" d="M262.55,-179.69C253.94,-169.9 242.74,-157.15 233.72,-146.89"/>
<polygon fill="#63b8ff" stroke="#63b8ff" points="236.42,-144.65 227.19,-139.45 231.16,-149.28 236.42,-144.65"/>
</a>
</g>
</g>
<!-- Node21&#45;&gt;Node6 -->
<g id="edge30_Node000021_Node000006" class="edge">
<title>Node21&#45;&gt;Node6</title>
<g id="a_edge30_Node000021_Node000006"><a xlink:title=" ">
<path fill="none" stroke="#63b8ff" d="M566,-179.64C550.24,-170.17 530.31,-157.32 514,-144 468.79,-107.07 422.6,-55.96 399.36,-29.13"/>
<polygon fill="#63b8ff" stroke="#63b8ff" points="402.04,-26.87 392.87,-21.56 396.72,-31.43 402.04,-26.87"/>
</a>
</g>
</g>
<!-- Node22 -->
<g id="Node000022" class="node">
<title>Node22</title>
<g id="a_Node000022"><a xlink:title=" ">
<polygon fill="#e0e0e0" stroke="#999999" points="725.62,-138 674.38,-138 674.38,-118 725.62,-118 725.62,-138"/>
<text text-anchor="middle" x="700" y="-124.5" font-family="Helvetica,sans-Serif" font-size="10.00">memory</text>
</a>
</g>
</g>
<!-- Node21&#45;&gt;Node22 -->
<g id="edge31_Node000021_Node000022" class="edge">
<title>Node21&#45;&gt;Node22</title>
<g id="a_edge31_Node000021_Node000022"><a xlink:title=" ">
<path fill="none" stroke="#63b8ff" d="M618.09,-179.53C635.33,-168.89 658.13,-154.83 675.29,-144.24"/>
<polygon fill="#63b8ff" stroke="#63b8ff" points="676.7,-147.48 683.38,-139.25 673.03,-141.53 676.7,-147.48"/>
</a>
</g>
</g>
<!-- Node23 -->
<g id="Node000023" class="node">
<title>Node23</title>
<g id="a_Node000023"><a xlink:title=" ">
<polygon fill="#e0e0e0" stroke="#999999" points="983.75,-138 942.25,-138 942.25,-118 983.75,-118 983.75,-138"/>
<text text-anchor="middle" x="963" y="-124.5" font-family="Helvetica,sans-Serif" font-size="10.00">vector</text>
</a>
</g>
</g>
<!-- Node21&#45;&gt;Node23 -->
<g id="edge32_Node000021_Node000023" class="edge">
<title>Node21&#45;&gt;Node23</title>
<g id="a_edge32_Node000021_Node000023"><a xlink:title=" ">
<path fill="none" stroke="#63b8ff" d="M641.17,-181.65C643.81,-181.06 646.43,-180.5 649,-180 774.29,-155.43 812.09,-181.91 934,-144 934.97,-143.7 935.95,-143.36 936.93,-143.01"/>
<polygon fill="#63b8ff" stroke="#63b8ff" points="938.07,-146.33 945.79,-139.07 935.23,-139.93 938.07,-146.33"/>
</a>
</g>
</g>
<!-- Node24 -->
<g id="Node000024" class="node">
<title>Node24</title>
<g id="a_Node000024"><a xlink:title=" ">
<polygon fill="#e0e0e0" stroke="#999999" points="800.62,-138 743.38,-138 743.38,-118 800.62,-118 800.62,-138"/>
<text text-anchor="middle" x="772" y="-124.5" font-family="Helvetica,sans-Serif" font-size="10.00">functional</text>
</a>
</g>
</g>
<!-- Node21&#45;&gt;Node24 -->
<g id="edge33_Node000021_Node000024" class="edge">
<title>Node21&#45;&gt;Node24</title>
<g id="a_edge33_Node000021_Node000024"><a xlink:title=" ">
<path fill="none" stroke="#63b8ff" d="M637.3,-179.61C665.4,-169.71 702.46,-156.44 735,-144 736.31,-143.5 737.65,-142.98 738.99,-142.46"/>
<polygon fill="#63b8ff" stroke="#63b8ff" points="739.95,-145.85 747.95,-138.91 737.37,-139.34 739.95,-145.85"/>
</a>
</g>
</g>
<!-- Node25 -->
<g id="Node000025" class="node">
<title>Node25</title>
<g id="a_Node000025"><a xlink:title=" ">
<polygon fill="#e0e0e0" stroke="#999999" points="863.62,-138 818.38,-138 818.38,-118 863.62,-118 863.62,-138"/>
<text text-anchor="middle" x="841" y="-124.5" font-family="Helvetica,sans-Serif" font-size="10.00">atomic</text>
</a>
</g>
</g>
<!-- Node21&#45;&gt;Node25 -->
<g id="edge34_Node000021_Node000025" class="edge">
<title>Node21&#45;&gt;Node25</title>
<g id="a_edge34_Node000021_Node000025"><a xlink:title=" ">
<path fill="none" stroke="#63b8ff" d="M641.23,-181.94C643.86,-181.28 646.46,-180.62 649,-180 720.21,-162.51 740.76,-168.13 810,-144 810.96,-143.66 811.94,-143.31 812.91,-142.93"/>
<polygon fill="#63b8ff" stroke="#63b8ff" points="814.09,-146.23 821.88,-139.05 811.31,-139.81 814.09,-146.23"/>
</a>
</g>
</g>
<!-- Node26 -->
<g id="Node000026" class="node">
<title>Node26</title>
<g id="a_Node000026"><a xlink:title=" ">
<polygon fill="#e0e0e0" stroke="#999999" points="924.5,-138 881.5,-138 881.5,-118 924.5,-118 924.5,-138"/>
<text text-anchor="middle" x="903" y="-124.5" font-family="Helvetica,sans-Serif" font-size="10.00">thread</text>
</a>
</g>
</g>
<!-- Node21&#45;&gt;Node26 -->
<g id="edge35_Node000021_Node000026" class="edge">
<title>Node21&#45;&gt;Node26</title>
<g id="a_edge35_Node000021_Node000026"><a xlink:title=" ">
<path fill="none" stroke="#63b8ff" d="M641.19,-181.76C643.82,-181.14 646.44,-180.55 649,-180 747.61,-158.93 777.02,-174.9 873,-144 873.97,-143.69 874.95,-143.35 875.93,-142.99"/>
<polygon fill="#63b8ff" stroke="#63b8ff" points="877.08,-146.3 884.86,-139.1 874.29,-139.88 877.08,-146.3"/>
</a>
</g>
</g>
<!-- Node27 -->
<g id="Node000027" class="node">
<title>Node27</title>
<g id="a_Node000027"><a xlink:title=" ">
<polygon fill="#e0e0e0" stroke="#999999" points="578.5,-76 535.5,-76 535.5,-56 578.5,-56 578.5,-76"/>
<text text-anchor="middle" x="557" y="-62.5" font-family="Helvetica,sans-Serif" font-size="10.00">mutex</text>
</a>
</g>
</g>
<!-- Node21&#45;&gt;Node27 -->
<g id="edge36_Node000021_Node000027" class="edge">
<title>Node21&#45;&gt;Node27</title>
<g id="a_edge36_Node000021_Node000027"><a xlink:title=" ">
<path fill="none" stroke="#63b8ff" d="M573.63,-179.75C563.62,-170.6 552.39,-158.02 547,-144 539.91,-125.55 544.22,-102.98 549.2,-87.05"/>
<polygon fill="#63b8ff" stroke="#63b8ff" points="552.45,-88.37 552.46,-77.78 545.84,-86.05 552.45,-88.37"/>
</a>
</g>
</g>
<!-- Node28 -->
<g id="Node000028" class="node">
<title>Node28</title>
<g id="a_Node000028"><a xlink:href="_i_logger_8h.html" target="_top" xlink:title="Class that encapsulates the look and feel of the HUD.">
<polygon fill="white" stroke="#666666" points="517.88,-76 462.12,-76 462.12,-56 517.88,-56 517.88,-76"/>
<text text-anchor="middle" x="490" y="-62.5" font-family="Helvetica,sans-Serif" font-size="10.00">ILogger.h</text>
</a>
</g>
</g>
<!-- Node21&#45;&gt;Node28 -->
<g id="edge37_Node000021_Node000028" class="edge">
<title>Node21&#45;&gt;Node28</title>
<g id="a_edge37_Node000021_Node000028"><a xlink:title=" ">
<path fill="none" stroke="#63b8ff" d="M575.3,-179.84C564.49,-170.15 550.73,-157 540,-144 524.83,-125.63 510.32,-102.45 500.88,-86.35"/>
<polygon fill="#63b8ff" stroke="#63b8ff" points="503.98,-84.72 495.96,-77.79 497.91,-88.21 503.98,-84.72"/>
</a>
</g>
</g>
<!-- Node29 -->
<g id="Node000029" class="node">
<title>Node29</title>
<g id="a_Node000029"><a xlink:href="_concurrent_queue_8h.html" target="_top" xlink:title="Concurrent queue implementation.">
<polygon fill="white" stroke="#666666" points="656,-138 556,-138 556,-118 656,-118 656,-138"/>
<text text-anchor="middle" x="606" y="-124.5" font-family="Helvetica,sans-Serif" font-size="10.00">ConcurrentQueue.h</text>
</a>
</g>
</g>
<!-- Node21&#45;&gt;Node29 -->
<g id="edge39_Node000021_Node000029" class="edge">
<title>Node21&#45;&gt;Node29</title>
<g id="a_edge39_Node000021_Node000029"><a xlink:title=" ">
<path fill="none" stroke="#63b8ff" d="M596.02,-179.69C597.79,-170.7 600.05,-159.21 601.97,-149.44"/>
<polygon fill="#63b8ff" stroke="#63b8ff" points="605.37,-150.29 603.87,-139.8 598.51,-148.94 605.37,-150.29"/>
</a>
</g>
</g>
<!-- Node28&#45;&gt;Node6 -->
<g id="edge38_Node000028_Node000006" class="edge">
<title>Node28&#45;&gt;Node6</title>
<g id="a_edge38_Node000028_Node000006"><a xlink:title=" ">
<path fill="none" stroke="#63b8ff" d="M471.54,-55.59C455.3,-47.32 431.39,-35.14 412.67,-25.6"/>
<polygon fill="#63b8ff" stroke="#63b8ff" points="414.46,-22.59 403.96,-21.17 411.28,-28.82 414.46,-22.59"/>
</a>
</g>
</g>
<!-- Node29&#45;&gt;Node27 -->
<g id="edge41_Node000029_Node000027" class="edge">
<title>Node29&#45;&gt;Node27</title>
<g id="a_edge41_Node000029_Node000027"><a xlink:title=" ">
<path fill="none" stroke="#63b8ff" d="M598.34,-117.62C591.18,-108.86 580.3,-95.53 571.5,-84.75"/>
<polygon fill="#63b8ff" stroke="#63b8ff" points="574.44,-82.82 565.4,-77.28 569.01,-87.24 574.44,-82.82"/>
</a>
</g>
</g>
<!-- Node30 -->
<g id="Node000030" class="node">
<title>Node30</title>
<g id="a_Node000030"><a xlink:title=" ">
<polygon fill="#e0e0e0" stroke="#999999" points="749.12,-76 706.88,-76 706.88,-56 749.12,-56 749.12,-76"/>
<text text-anchor="middle" x="728" y="-62.5" font-family="Helvetica,sans-Serif" font-size="10.00">queue</text>
</a>
</g>
</g>
<!-- Node29&#45;&gt;Node30 -->
<g id="edge40_Node000029_Node000030" class="edge">
<title>Node29&#45;&gt;Node30</title>
<g id="a_edge40_Node000029_Node000030"><a xlink:title=" ">
<path fill="none" stroke="#63b8ff" d="M625.06,-117.62C644.85,-107.89 676.04,-92.55 698.91,-81.31"/>
<polygon fill="#63b8ff" stroke="#63b8ff" points="700.28,-84.53 707.71,-76.98 697.2,-78.25 700.28,-84.53"/>
</a>
</g>
</g>
<!-- Node31 -->
<g id="Node000031" class="node">
<title>Node31</title>
<g id="a_Node000031"><a xlink:title=" ">
<polygon fill="#e0e0e0" stroke="#999999" points="689.25,-76 596.75,-76 596.75,-56 689.25,-56 689.25,-76"/>
<text text-anchor="middle" x="643" y="-62.5" font-family="Helvetica,sans-Serif" font-size="10.00">condition_variable</text>
</a>
</g>
</g>
<!-- Node29&#45;&gt;Node31 -->
<g id="edge42_Node000029_Node000031" class="edge">
<title>Node29&#45;&gt;Node31</title>
<g id="a_edge42_Node000029_Node000031"><a xlink:title=" ">
<path fill="none" stroke="#63b8ff" d="M611.78,-117.62C617.03,-109.12 624.91,-96.33 631.45,-85.74"/>
<polygon fill="#63b8ff" stroke="#63b8ff" points="634.32,-87.75 636.59,-77.4 628.36,-84.08 634.32,-87.75"/>
</a>
</g>
</g>
<!-- Node32&#45;&gt;Node10 -->
<g id="edge45_Node000032_Node000010" class="edge">
<title>Node32&#45;&gt;Node10</title>
<g id="a_edge45_Node000032_Node000010"><a xlink:title=" ">
<path fill="none" stroke="#63b8ff" d="M551.76,-451.82C530.7,-417.23 478.99,-332.32 453.18,-289.93"/>
<polygon fill="#63b8ff" stroke="#63b8ff" points="456.33,-288.37 448.14,-281.65 450.35,-292.01 456.33,-288.37"/>
</a>
</g>
</g>
<!-- Node33 -->
<g id="Node000033" class="node">
<title>Node33</title>
<g id="a_Node000033"><a xlink:title=" ">
<polygon fill="#e0e0e0" stroke="#999999" points="727.75,-410 680.25,-410 680.25,-390 727.75,-390 727.75,-410"/>
<text text-anchor="middle" x="704" y="-396.5" font-family="Helvetica,sans-Serif" font-size="10.00">cstddef</text>
</a>
</g>
</g>
<!-- Node32&#45;&gt;Node33 -->
<g id="edge44_Node000032_Node000033" class="edge">
<title>Node32&#45;&gt;Node33</title>
<g id="a_edge44_Node000032_Node000033"><a xlink:title=" ">
<path fill="none" stroke="#63b8ff" d="M594.53,-451.53C618.33,-440.54 650.04,-425.9 673.21,-415.21"/>
<polygon fill="#63b8ff" stroke="#63b8ff" points="674.52,-418.46 682.13,-411.09 671.58,-412.11 674.52,-418.46"/>
</a>
</g>
</g>
<!-- Node34&#45;&gt;Node7 -->
<g id="edge51_Node000034_Node000007" class="edge">
<title>Node34&#45;&gt;Node7</title>
<g id="a_edge51_Node000034_Node000007"><a xlink:title=" ">
<path fill="none" stroke="#63b8ff" d="M773.25,-383.53C746.09,-372.39 709.78,-357.51 683.61,-346.78"/>
<polygon fill="#63b8ff" stroke="#63b8ff" points="685.06,-343.59 674.48,-343.03 682.4,-350.07 685.06,-343.59"/>
</a>
</g>
</g>
<!-- Node35 -->
<g id="Node000035" class="node">
<title>Node35</title>
<g id="a_Node000035"><a xlink:href="_vector_types_8h.html" target="_top" xlink:title="@TODO Add description of this file if needed">
<polygon fill="white" stroke="#666666" points="1012.75,-348 887.25,-348 887.25,-316 1012.75,-316 1012.75,-348"/>
<text text-anchor="start" x="895.25" y="-334.5" font-family="Helvetica,sans-Serif" font-size="10.00">engine/core/math/algebra</text>
<text text-anchor="middle" x="950" y="-322.5" font-family="Helvetica,sans-Serif" font-size="10.00">/vector/VectorTypes.h</text>
</a>
</g>
</g>
<!-- Node34&#45;&gt;Node35 -->
<g id="edge47_Node000034_Node000035" class="edge">
<title>Node34&#45;&gt;Node35</title>
<g id="a_edge47_Node000034_Node000035"><a xlink:title=" ">
<path fill="none" stroke="#63b8ff" d="M843.59,-383.53C862.59,-374.51 886.76,-363.03 907.27,-353.29"/>
<polygon fill="#63b8ff" stroke="#63b8ff" points="908.72,-356.48 916.25,-349.03 905.71,-350.15 908.72,-356.48"/>
</a>
</g>
</g>
<!-- Node37 -->
<g id="Node000037" class="node">
<title>Node37</title>
<g id="a_Node000037"><a xlink:href="_math_exception_8h.html" target="_top" xlink:title="Exception class for math errors.">
<polygon fill="white" stroke="#666666" points="869.5,-348 730.5,-348 730.5,-316 869.5,-316 869.5,-348"/>
<text text-anchor="start" x="738.5" y="-334.5" font-family="Helvetica,sans-Serif" font-size="10.00">engine/core/exceptions</text>
<text text-anchor="middle" x="800" y="-322.5" font-family="Helvetica,sans-Serif" font-size="10.00">/core/math/MathException.h</text>
</a>
</g>
</g>
<!-- Node34&#45;&gt;Node37 -->
<g id="edge49_Node000034_Node000037" class="edge">
<title>Node34&#45;&gt;Node37</title>
<g id="a_edge49_Node000034_Node000037"><a xlink:title=" ">
<path fill="none" stroke="#63b8ff" d="M808.45,-383.69C807.24,-376.45 805.76,-367.58 804.38,-359.3"/>
<polygon fill="#63b8ff" stroke="#63b8ff" points="807.88,-359.01 802.79,-349.72 800.98,-360.16 807.88,-359.01"/>
</a>
</g>
</g>
<!-- Node36 -->
<g id="Node000036" class="node">
<title>Node36</title>
<g id="a_Node000036"><a xlink:title=" ">
<polygon fill="#e0e0e0" stroke="#999999" points="1057.88,-274 1020.12,-274 1020.12,-254 1057.88,-254 1057.88,-274"/>
<text text-anchor="middle" x="1039" y="-260.5" font-family="Helvetica,sans-Serif" font-size="10.00">array</text>
</a>
</g>
</g>
<!-- Node35&#45;&gt;Node36 -->
<g id="edge48_Node000035_Node000036" class="edge">
<title>Node35&#45;&gt;Node36</title>
<g id="a_edge48_Node000035_Node000036"><a xlink:title=" ">
<path fill="none" stroke="#63b8ff" d="M970.64,-315.69C984.66,-305.3 1003.16,-291.57 1017.38,-281.03"/>
<polygon fill="#63b8ff" stroke="#63b8ff" points="1019.27,-283.99 1025.22,-275.22 1015.1,-278.36 1019.27,-283.99"/>
</a>
</g>
</g>
<!-- Node37&#45;&gt;Node14 -->
<g id="edge50_Node000037_Node000014" class="edge">
<title>Node37&#45;&gt;Node14</title>
<g id="a_edge50_Node000037_Node000014"><a xlink:title=" ">
<path fill="none" stroke="#63b8ff" d="M819.54,-315.82C865,-280.5 978,-192.71 1031.3,-151.3"/>
<polygon fill="#63b8ff" stroke="#63b8ff" points="1033.29,-154.19 1039.04,-145.29 1028.99,-148.66 1033.29,-154.19"/>
</a>
</g>
</g>
<!-- Node38&#45;&gt;Node23 -->
<g id="edge54_Node000038_Node000023" class="edge">
<title>Node38&#45;&gt;Node23</title>
<g id="a_edge54_Node000038_Node000023"><a xlink:title=" ">
<path fill="none" stroke="#63b8ff" d="M935.88,-458C988.39,-450.2 1050.62,-436.83 1067,-416 1113.15,-357.3 1093.24,-317.9 1067,-248 1050.58,-204.27 1010.01,-166.07 984.66,-145.39"/>
<polygon fill="#63b8ff" stroke="#63b8ff" points="986.98,-142.76 976.96,-139.29 982.63,-148.24 986.98,-142.76"/>
</a>
</g>
</g>
<!-- Node38&#45;&gt;Node33 -->
<g id="edge53_Node000038_Node000033" class="edge">
<title>Node38&#45;&gt;Node33</title>
<g id="a_edge53_Node000038_Node000033"><a xlink:title=" ">
<path fill="none" stroke="#63b8ff" d="M820.13,-451.61C796.34,-441.61 764.77,-428.21 737,-416 736.24,-415.67 735.48,-415.33 734.71,-414.99"/>
<polygon fill="#63b8ff" stroke="#63b8ff" points="736.5,-411.96 725.94,-411.06 733.64,-418.34 736.5,-411.96"/>
</a>
</g>
</g>
<!-- Node38&#45;&gt;Node34 -->
<g id="edge56_Node000038_Node000034" class="edge">
<title>Node38&#45;&gt;Node34</title>
<g id="a_edge56_Node000038_Node000034"><a xlink:title=" ">
<path fill="none" stroke="#63b8ff" d="M846.33,-451.69C840.93,-443.95 834.25,-434.35 828.15,-425.6"/>
<polygon fill="#63b8ff" stroke="#63b8ff" points="831.07,-423.67 822.48,-417.47 825.32,-427.67 831.07,-423.67"/>
</a>
</g>
</g>
<!-- Node38&#45;&gt;Node35 -->
<g id="edge55_Node000038_Node000035" class="edge">
<title>Node38&#45;&gt;Node35</title>
<g id="a_edge55_Node000038_Node000035"><a xlink:title=" ">
<path fill="none" stroke="#63b8ff" d="M867.67,-451.63C883.65,-428.61 913.94,-384.95 932.99,-357.5"/>
<polygon fill="#63b8ff" stroke="#63b8ff" points="935.77,-359.65 938.59,-349.44 930.02,-355.66 935.77,-359.65"/>
</a>
</g>
</g>
<!-- Node39 -->
<g id="Node000039" class="node">
<title>Node39</title>
<g id="a_Node000039"><a xlink:href="_matrix_types_8h.html" target="_top" xlink:title="@TODO Add description of this file if needed">
<polygon fill="white" stroke="#666666" points="1057.75,-416 932.25,-416 932.25,-384 1057.75,-384 1057.75,-416"/>
<text text-anchor="start" x="940.25" y="-402.5" font-family="Helvetica,sans-Serif" font-size="10.00">engine/core/math/algebra</text>
<text text-anchor="middle" x="995" y="-390.5" font-family="Helvetica,sans-Serif" font-size="10.00">/matrix/MatrixTypes.h</text>
</a>
</g>
</g>
<!-- Node38&#45;&gt;Node39 -->
<g id="edge57_Node000038_Node000039" class="edge">
<title>Node38&#45;&gt;Node39</title>
<g id="a_edge57_Node000038_Node000039"><a xlink:title=" ">
<path fill="none" stroke="#63b8ff" d="M889.35,-451.53C908.21,-442.51 932.22,-431.03 952.58,-421.29"/>
<polygon fill="#63b8ff" stroke="#63b8ff" points="953.97,-424.5 961.48,-417.03 950.95,-418.19 953.97,-424.5"/>
</a>
</g>
</g>
<!-- Node39&#45;&gt;Node36 -->
<g id="edge58_Node000039_Node000036" class="edge">
<title>Node39&#45;&gt;Node36</title>
<g id="a_edge58_Node000039_Node000036"><a xlink:title=" ">
<path fill="none" stroke="#63b8ff" d="M1004.46,-383.9C1010.28,-374.02 1017.47,-360.64 1022,-348 1029.36,-327.48 1033.9,-302.9 1036.41,-285.84"/>
<polygon fill="#63b8ff" stroke="#63b8ff" points="1039.88,-286.33 1037.75,-275.95 1032.94,-285.39 1039.88,-286.33"/>
</a>
</g>
</g>
<!-- Node40&#45;&gt;Node3 -->
<g id="edge60_Node000040_Node000003" class="edge">
<title>Node40&#45;&gt;Node3</title>
<g id="a_edge60_Node000040_Node000003"><a xlink:title=" ">
<path fill="none" stroke="#63b8ff" d="M597.87,-587.69C592.17,-579.86 585.11,-570.15 578.69,-561.32"/>
<polygon fill="#63b8ff" stroke="#63b8ff" points="581.68,-559.48 572.96,-553.45 576.01,-563.59 581.68,-559.48"/>
</a>
</g>
</g>
</g>
</svg>

<g id="navigator" transform="translate(0 0)" fill="#404254">
  <rect fill="#f2f5e9" fill-opacity="0.5" stroke="#606060" stroke-width=".5" x="0" y="0" width="60" height="60"/>
  <use id="zoomplus" xlink:href="#zoomPlus" x="17" y="9" onmousedown="handleZoom(evt,'in')"/>
  <use id="zoomminus" xlink:href="#zoomMin" x="42" y="9" onmousedown="handleZoom(evt,'out')"/>
  <use id="reset" xlink:href="#resetDef" x="30" y="36" onmousedown="handleReset()"/>
   <use id="arrowup" xlink:href="#arrowUp" x="0" y="0" onmousedown="handlePan(0,-1)"/>
  <use id="arrowright" xlink:href="#arrowRight" x="0" y="0" onmousedown="handlePan(1,0)"/>
  <use id="arrowdown" xlink:href="#arrowDown" x="0" y="0" onmousedown="handlePan(0,1)"/>
  <use id="arrowleft" xlink:href="#arrowLeft" x="0" y="0" onmousedown="handlePan(-1,0)"/>
</g>
<svg viewBox="0 0 15 15" width="100%" height="30px" preserveAspectRatio="xMaxYMin meet">
 <g id="arrow_out" transform="scale(0.3 0.3)">
  <a xlink:href="_line_8cpp__incl_org.svg" target="_base">
   <rect id="button" ry="5" rx="5" y="6" x="6" height="38" width="38"
        fill="#f2f5e9" fill-opacity="0.5" stroke="#606060" stroke-width="1.0"/>
   <path id="arrow"
     d="M 11.500037,31.436501 C 11.940474,20.09759 22.043105,11.32322 32.158766,21.979434 L 37.068811,17.246167 C 37.068811,17.246167 37.088388,32 37.088388,32 L 22.160133,31.978069 C 22.160133,31.978069 26.997745,27.140456 26.997745,27.140456 C 18.528582,18.264221 13.291696,25.230495 11.500037,31.436501 z"
     style="fill:#404040;"/>
  </a>
 </g>
</svg>

<style type='text/css'>
<![CDATA[
[data-mouse-over-selected='false'] { opacity: 0.7; }
[data-mouse-over-selected='true']  { opacity: 1.0; }
]]>
</style>
<script type="application/ecmascript"><![CDATA[
document.addEventListener('DOMContentLoaded', (event) => {
  highlightEdges();
  highlightAdjacentNodes();
});
]]></script>
</svg>
