<?xml version="1.0" encoding="UTF-8" standalone="no"?>
<!DOCTYPE svg PUBLIC "-//W3C//DTD SVG 1.1//EN"
 "http://www.w3.org/Graphics/SVG/1.1/DTD/svg11.dtd">
<!-- Generated by graphviz version 11.0.0 (20240428.1522)
 -->
<!-- Title: Math.h Pages: 1 -->
<!--zoomable 344 -->

<svg id="main" version="1.1" xmlns="http://www.w3.org/2000/svg" xmlns:xlink="http://www.w3.org/1999/xlink" xml:space="preserve" onload="init(evt)">
<style type="text/css"><![CDATA[
.node, .edge {opacity: 0.7;}
.node.selected, .edge.selected {opacity: 1;}
.edge:hover path { stroke: red; }
.edge:hover polygon { stroke: red; fill: red; }
]]></style>

<defs>
  <circle id="rim" cx="0" cy="0" r="7"/>
  <circle id="rim2" cx="0" cy="0" r="3.5"/>
  <g id="zoomPlus">
    <use xlink:href="#rim" fill="#404040"><set attributeName="fill" to="#808080" begin="zoomplus.mouseover" end="zoomplus.mouseout"/></use>
    <path d="M-4,0h8M0,-4v8" fill="none" stroke="white" stroke-width="1.5" pointer-events="none"/>
  </g>
  <g id="zoomMin">
    <use xlink:href="#rim" fill="#404040"><set attributeName="fill" to="#808080" begin="zoomminus.mouseover" end="zoomminus.mouseout"/></use>
    <path d="M-4,0h8" fill="none" stroke="white" stroke-width="1.5" pointer-events="none"/>
  </g>
  <g id="arrowUp" transform="translate(30 24)">
    <use xlink:href="#rim"/>
    <path pointer-events="none" fill="none" stroke="white" stroke-width="1.5" d="M0,-3.0v7 M-2.5,-0.5L0,-3.0L2.5,-0.5"/>
  </g>
  <g id="arrowRight" transform="rotate(90) translate(36 -43)">
    <use xlink:href="#rim"/>
    <path pointer-events="none" fill="none" stroke="white" stroke-width="1.5" d="M0,-3.0v7 M-2.5,-0.5L0,-3.0L2.5,-0.5"/>
  </g>
  <g id="arrowDown" transform="rotate(180) translate(-30 -48)">
    <use xlink:href="#rim"/>
    <path pointer-events="none" fill="none" stroke="white" stroke-width="1.5" d="M0,-3.0v7 M-2.5,-0.5L0,-3.0L2.5,-0.5"/>
  </g>
  <g id="arrowLeft" transform="rotate(270) translate(-36 17)">
    <use xlink:href="#rim"/>
    <path pointer-events="none" fill="none" stroke="white" stroke-width="1.5" d="M0,-3.0v7 M-2.5,-0.5L0,-3.0L2.5,-0.5"/>
  </g>
  <g id="resetDef">
    <use xlink:href="#rim2" fill="#404040"><set attributeName="fill" to="#808080" begin="reset.mouseover" end="reset.mouseout"/></use>
  </g>
</defs>
<script type="application/ecmascript">
var viewWidth = 999;
var viewHeight = 344;
var sectionId = 'dynsection-0';
</script>
<script type="application/ecmascript" xlink:href="svg.min.js"/>
<svg id="graph" class="graph">
<g id="viewport">
<title>Math.h</title>
<!-- Node1 -->
<g id="Node000001" class="node">
<title>Node1</title>
<g id="a_Node000001"><a xlink:title=" ">
<polygon fill="#999999" stroke="#666666" points="261.5,-336 215.5,-336 215.5,-316 261.5,-316 261.5,-336"/>
<text text-anchor="middle" x="238.5" y="-322.5" font-family="Helvetica,sans-Serif" font-size="10.00">Math.h</text>
</a>
</g>
</g>
<!-- Node2 -->
<g id="Node000002" class="node">
<title>Node2</title>
<g id="a_Node000002"><a xlink:title=" ">
<polygon fill="#e0e0e0" stroke="#999999" points="607.38,-138 545.62,-138 545.62,-118 607.38,-118 607.38,-138"/>
<text text-anchor="middle" x="576.5" y="-124.5" font-family="Helvetica,sans-Serif" font-size="10.00">type_traits</text>
</a>
</g>
</g>
<!-- Node1&#45;&gt;Node2 -->
<g id="edge1_Node000001_Node000002" class="edge">
<title>Node1&#45;&gt;Node2</title>
<g id="a_edge1_Node000001_Node000002"><a xlink:title=" ">
<path fill="none" stroke="#63b8ff" d="M261.88,-322.69C317.46,-315.99 458.76,-291.64 538.5,-212 555.89,-194.63 566.16,-167.83 571.55,-149.42"/>
<polygon fill="#63b8ff" stroke="#63b8ff" points="574.89,-150.49 574.08,-139.93 568.12,-148.68 574.89,-150.49"/>
</a>
</g>
</g>
<!-- Node3 -->
<g id="Node000003" class="node">
<title>Node3</title>
<g id="a_Node000003"><a xlink:title=" ">
<polygon fill="#e0e0e0" stroke="#999999" points="197.62,-274 149.38,-274 149.38,-254 197.62,-254 197.62,-274"/>
<text text-anchor="middle" x="173.5" y="-260.5" font-family="Helvetica,sans-Serif" font-size="10.00">random</text>
</a>
</g>
</g>
<!-- Node1&#45;&gt;Node3 -->
<g id="edge2_Node000001_Node000003" class="edge">
<title>Node1&#45;&gt;Node3</title>
<g id="a_edge2_Node000001_Node000003"><a xlink:title=" ">
<path fill="none" stroke="#63b8ff" d="M228.34,-315.62C218.56,-306.59 203.53,-292.72 191.68,-281.78"/>
<polygon fill="#63b8ff" stroke="#63b8ff" points="194.21,-279.35 184.48,-275.14 189.46,-284.49 194.21,-279.35"/>
</a>
</g>
</g>
<!-- Node4 -->
<g id="Node000004" class="node">
<title>Node4</title>
<g id="a_Node000004"><a xlink:title=" ">
<polygon fill="#e0e0e0" stroke="#999999" points="261.12,-274 215.88,-274 215.88,-254 261.12,-254 261.12,-274"/>
<text text-anchor="middle" x="238.5" y="-260.5" font-family="Helvetica,sans-Serif" font-size="10.00">cstring</text>
</a>
</g>
</g>
<!-- Node1&#45;&gt;Node4 -->
<g id="edge3_Node000001_Node000004" class="edge">
<title>Node1&#45;&gt;Node4</title>
<g id="a_edge3_Node000001_Node000004"><a xlink:title=" ">
<path fill="none" stroke="#63b8ff" d="M238.5,-315.62C238.5,-307.56 238.5,-295.65 238.5,-285.41"/>
<polygon fill="#63b8ff" stroke="#63b8ff" points="242,-285.63 238.5,-275.63 235,-285.63 242,-285.63"/>
</a>
</g>
</g>
<!-- Node5 -->
<g id="Node000005" class="node">
<title>Node5</title>
<g id="a_Node000005"><a xlink:title=" ">
<polygon fill="#e0e0e0" stroke="#999999" points="43,-206 0,-206 0,-186 43,-186 43,-206"/>
<text text-anchor="middle" x="21.5" y="-192.5" font-family="Helvetica,sans-Serif" font-size="10.00">cmath</text>
</a>
</g>
</g>
<!-- Node1&#45;&gt;Node5 -->
<g id="edge4_Node000001_Node000005" class="edge">
<title>Node1&#45;&gt;Node5</title>
<g id="a_edge4_Node000001_Node000005"><a xlink:title=" ">
<path fill="none" stroke="#63b8ff" d="M215.35,-315.75C195.12,-307.35 165.2,-294.13 140.5,-280 104.54,-259.42 65.66,-231.02 42.46,-213.34"/>
<polygon fill="#63b8ff" stroke="#63b8ff" points="44.79,-210.72 34.73,-207.4 40.52,-216.27 44.79,-210.72"/>
</a>
</g>
</g>
<!-- Node6 -->
<g id="Node000006" class="node">
<title>Node6</title>
<g id="a_Node000006"><a xlink:href="_asserts_8h.html" target="_top" xlink:title="Set of macros for runtime and compile time assertions.">
<polygon fill="white" stroke="#666666" points="380.25,-280 278.75,-280 278.75,-248 380.25,-248 380.25,-280"/>
<text text-anchor="start" x="286.75" y="-266.5" font-family="Helvetica,sans-Serif" font-size="10.00">engine/core/asserts</text>
<text text-anchor="middle" x="329.5" y="-254.5" font-family="Helvetica,sans-Serif" font-size="10.00">/Asserts.h</text>
</a>
</g>
</g>
<!-- Node1&#45;&gt;Node6 -->
<g id="edge5_Node000001_Node000006" class="edge">
<title>Node1&#45;&gt;Node6</title>
<g id="a_edge5_Node000001_Node000006"><a xlink:title=" ">
<path fill="none" stroke="#63b8ff" d="M252.72,-315.62C264.45,-307.89 281.55,-296.62 296.64,-286.67"/>
<polygon fill="#63b8ff" stroke="#63b8ff" points="298.5,-289.63 304.92,-281.21 294.64,-283.79 298.5,-289.63"/>
</a>
</g>
</g>
<!-- Node6&#45;&gt;Node2 -->
<g id="edge9_Node000006_Node000002" class="edge">
<title>Node6&#45;&gt;Node2</title>
<g id="a_edge9_Node000006_Node000002"><a xlink:title=" ">
<path fill="none" stroke="#63b8ff" d="M370.9,-247.54C392.92,-238.53 420.01,-226.16 442.5,-212 461.18,-200.24 462.2,-192.36 480.5,-180 501.25,-165.98 526.28,-152.79 545.58,-143.34"/>
<polygon fill="#63b8ff" stroke="#63b8ff" points="547.07,-146.51 554.57,-139.02 544.04,-140.2 547.07,-146.51"/>
</a>
</g>
</g>
<!-- Node6&#45;&gt;Node5 -->
<g id="edge6_Node000006_Node000005" class="edge">
<title>Node6&#45;&gt;Node5</title>
<g id="a_edge6_Node000006_Node000005"><a xlink:title=" ">
<path fill="none" stroke="#63b8ff" d="M278.4,-249.72C275.73,-249.12 273.09,-248.54 270.5,-248 173.94,-227.83 145.34,-242.4 51.5,-212 50.53,-211.69 49.55,-211.34 48.57,-210.98"/>
<polygon fill="#63b8ff" stroke="#63b8ff" points="50.21,-207.88 39.65,-207.09 47.41,-214.29 50.21,-207.88"/>
</a>
</g>
</g>
<!-- Node7 -->
<g id="Node000007" class="node">
<title>Node7</title>
<g id="a_Node000007"><a xlink:title=" ">
<polygon fill="#e0e0e0" stroke="#999999" points="529.12,-206 489.88,-206 489.88,-186 529.12,-186 529.12,-206"/>
<text text-anchor="middle" x="509.5" y="-192.5" font-family="Helvetica,sans-Serif" font-size="10.00">limits</text>
</a>
</g>
</g>
<!-- Node6&#45;&gt;Node7 -->
<g id="edge7_Node000006_Node000007" class="edge">
<title>Node6&#45;&gt;Node7</title>
<g id="a_edge7_Node000006_Node000007"><a xlink:title=" ">
<path fill="none" stroke="#63b8ff" d="M376.86,-247.52C405.6,-237.86 442.91,-224.86 475.5,-212 476.64,-211.55 477.8,-211.08 478.97,-210.61"/>
<polygon fill="#63b8ff" stroke="#63b8ff" points="480.24,-213.87 488.08,-206.74 477.51,-207.42 480.24,-213.87"/>
</a>
</g>
</g>
<!-- Node8 -->
<g id="Node000008" class="node">
<title>Node8</title>
<g id="a_Node000008"><a xlink:title=" ">
<polygon fill="#e0e0e0" stroke="#999999" points="405.5,-20 365.5,-20 365.5,0 405.5,0 405.5,-20"/>
<text text-anchor="middle" x="385.5" y="-6.5" font-family="Helvetica,sans-Serif" font-size="10.00">string</text>
</a>
</g>
</g>
<!-- Node6&#45;&gt;Node8 -->
<g id="edge8_Node000006_Node000008" class="edge">
<title>Node6&#45;&gt;Node8</title>
<g id="a_edge8_Node000006_Node000008"><a xlink:title=" ">
<path fill="none" stroke="#63b8ff" d="M308.46,-247.67C274.21,-220.74 212.79,-162.95 239.5,-112 263.65,-65.94 319.39,-36.72 354.59,-22.15"/>
<polygon fill="#63b8ff" stroke="#63b8ff" points="355.82,-25.43 363.82,-18.49 353.24,-18.92 355.82,-25.43"/>
</a>
</g>
</g>
<!-- Node9 -->
<g id="Node000009" class="node">
<title>Node9</title>
<g id="a_Node000009"><a xlink:title=" ">
<polygon fill="#e0e0e0" stroke="#999999" points="300.12,-138 248.88,-138 248.88,-118 300.12,-118 300.12,-138"/>
<text text-anchor="middle" x="274.5" y="-124.5" font-family="Helvetica,sans-Serif" font-size="10.00">sstream</text>
</a>
</g>
</g>
<!-- Node6&#45;&gt;Node9 -->
<g id="edge10_Node000006_Node000009" class="edge">
<title>Node6&#45;&gt;Node9</title>
<g id="a_edge10_Node000006_Node000009"><a xlink:title=" ">
<path fill="none" stroke="#63b8ff" d="M323.19,-247.63C313.16,-223.2 293.6,-175.52 282.56,-148.65"/>
<polygon fill="#63b8ff" stroke="#63b8ff" points="285.9,-147.55 278.86,-139.62 279.42,-150.2 285.9,-147.55"/>
</a>
</g>
</g>
<!-- Node10 -->
<g id="Node000010" class="node">
<title>Node10</title>
<g id="a_Node000010"><a xlink:href="_assert_failed_exception_8h.html" target="_top" xlink:title="@TODO Add description of this file if needed">
<polygon fill="white" stroke="#666666" points="208.12,-212 60.88,-212 60.88,-180 208.12,-180 208.12,-212"/>
<text text-anchor="start" x="68.88" y="-198.5" font-family="Helvetica,sans-Serif" font-size="10.00">engine/core/exceptions</text>
<text text-anchor="middle" x="134.5" y="-186.5" font-family="Helvetica,sans-Serif" font-size="10.00">/core/AssertFailedException.h</text>
</a>
</g>
</g>
<!-- Node6&#45;&gt;Node10 -->
<g id="edge11_Node000006_Node000010" class="edge">
<title>Node6&#45;&gt;Node10</title>
<g id="a_edge11_Node000006_Node000010"><a xlink:title=" ">
<path fill="none" stroke="#63b8ff" d="M283.78,-247.53C256.01,-238.13 220.34,-226.05 190.84,-216.07"/>
<polygon fill="#63b8ff" stroke="#63b8ff" points="192.3,-212.87 181.7,-212.98 190.05,-219.5 192.3,-212.87"/>
</a>
</g>
</g>
<!-- Node14 -->
<g id="Node000014" class="node">
<title>Node14</title>
<g id="a_Node000014"><a xlink:href="_stringer_8h.html" target="_top" xlink:title="A set of functions for converting objects to strings.">
<polygon fill="white" stroke="#666666" points="433,-212 324,-212 324,-180 433,-180 433,-212"/>
<text text-anchor="start" x="332" y="-198.5" font-family="Helvetica,sans-Serif" font-size="10.00">engine/core/debugger</text>
<text text-anchor="middle" x="378.5" y="-186.5" font-family="Helvetica,sans-Serif" font-size="10.00">/Stringer.h</text>
</a>
</g>
</g>
<!-- Node6&#45;&gt;Node14 -->
<g id="edge16_Node000006_Node000014" class="edge">
<title>Node6&#45;&gt;Node14</title>
<g id="a_edge16_Node000006_Node000014"><a xlink:title=" ">
<path fill="none" stroke="#63b8ff" d="M340.86,-247.69C346.68,-239.86 353.89,-230.15 360.44,-221.32"/>
<polygon fill="#63b8ff" stroke="#63b8ff" points="363.14,-223.56 366.29,-213.44 357.52,-219.38 363.14,-223.56"/>
</a>
</g>
</g>
<!-- Node18 -->
<g id="Node000018" class="node">
<title>Node18</title>
<g id="a_Node000018"><a xlink:href="_logger_8h.html" target="_top" xlink:title="@TODO Add description of this file if needed">
<polygon fill="white" stroke="#666666" points="733.25,-144 637.75,-144 637.75,-112 733.25,-112 733.25,-144"/>
<text text-anchor="start" x="645.75" y="-130.5" font-family="Helvetica,sans-Serif" font-size="10.00">engine/core/logger</text>
<text text-anchor="middle" x="685.5" y="-118.5" font-family="Helvetica,sans-Serif" font-size="10.00">/Logger.h</text>
</a>
</g>
</g>
<!-- Node6&#45;&gt;Node18 -->
<g id="edge23_Node000006_Node000018" class="edge">
<title>Node6&#45;&gt;Node18</title>
<g id="a_edge23_Node000006_Node000018"><a xlink:title=" ">
<path fill="none" stroke="#63b8ff" d="M380.53,-254.61C423.6,-246.57 486.4,-232.61 538.5,-212 580.19,-195.51 624.54,-169.09 653.49,-150.5"/>
<polygon fill="#63b8ff" stroke="#63b8ff" points="655.31,-153.49 661.79,-145.1 651.5,-147.62 655.31,-153.49"/>
</a>
</g>
</g>
<!-- Node11 -->
<g id="Node000011" class="node">
<title>Node11</title>
<g id="a_Node000011"><a xlink:href="_engine_exception_8h.html" target="_top" xlink:title="Base exception class for any exception in the engine.">
<polygon fill="white" stroke="#666666" points="192.75,-144 76.25,-144 76.25,-112 192.75,-112 192.75,-144"/>
<text text-anchor="start" x="84.25" y="-130.5" font-family="Helvetica,sans-Serif" font-size="10.00">engine/core/exceptions</text>
<text text-anchor="middle" x="134.5" y="-118.5" font-family="Helvetica,sans-Serif" font-size="10.00">/EngineException.h</text>
</a>
</g>
</g>
<!-- Node10&#45;&gt;Node11 -->
<g id="edge12_Node000010_Node000011" class="edge">
<title>Node10&#45;&gt;Node11</title>
<g id="a_edge12_Node000010_Node000011"><a xlink:title=" ">
<path fill="none" stroke="#63b8ff" d="M134.5,-179.69C134.5,-172.53 134.5,-163.79 134.5,-155.59"/>
<polygon fill="#63b8ff" stroke="#63b8ff" points="138,-155.74 134.5,-145.74 131,-155.74 138,-155.74"/>
</a>
</g>
</g>
<!-- Node12 -->
<g id="Node000012" class="node">
<title>Node12</title>
<g id="a_Node000012"><a xlink:href="_base_exception_8h.html" target="_top" xlink:title=" ">
<polygon fill="white" stroke="#666666" points="186.62,-76 96.38,-76 96.38,-56 186.62,-56 186.62,-76"/>
<text text-anchor="middle" x="141.5" y="-62.5" font-family="Helvetica,sans-Serif" font-size="10.00">BaseException.h</text>
</a>
</g>
</g>
<!-- Node11&#45;&gt;Node12 -->
<g id="edge13_Node000011_Node000012" class="edge">
<title>Node11&#45;&gt;Node12</title>
<g id="a_edge13_Node000011_Node000012"><a xlink:title=" ">
<path fill="none" stroke="#63b8ff" d="M136.3,-111.55C137.15,-104.26 138.18,-95.45 139.1,-87.6"/>
<polygon fill="#63b8ff" stroke="#63b8ff" points="142.54,-88.25 140.23,-77.91 135.59,-87.44 142.54,-88.25"/>
</a>
</g>
</g>
<!-- Node12&#45;&gt;Node8 -->
<g id="edge15_Node000012_Node000008" class="edge">
<title>Node12&#45;&gt;Node8</title>
<g id="a_edge15_Node000012_Node000008"><a xlink:title=" ">
<path fill="none" stroke="#63b8ff" d="M184.28,-55.53C232.75,-44.8 310.62,-27.57 353.9,-17.99"/>
<polygon fill="#63b8ff" stroke="#63b8ff" points="354.66,-21.41 363.66,-15.83 353.14,-14.58 354.66,-21.41"/>
</a>
</g>
</g>
<!-- Node13 -->
<g id="Node000013" class="node">
<title>Node13</title>
<g id="a_Node000013"><a xlink:title=" ">
<polygon fill="#e0e0e0" stroke="#999999" points="170.88,-20 112.12,-20 112.12,0 170.88,0 170.88,-20"/>
<text text-anchor="middle" x="141.5" y="-6.5" font-family="Helvetica,sans-Serif" font-size="10.00">stdexcept</text>
</a>
</g>
</g>
<!-- Node12&#45;&gt;Node13 -->
<g id="edge14_Node000012_Node000013" class="edge">
<title>Node12&#45;&gt;Node13</title>
<g id="a_edge14_Node000012_Node000013"><a xlink:title=" ">
<path fill="none" stroke="#63b8ff" d="M141.5,-55.59C141.5,-49.01 141.5,-39.96 141.5,-31.73"/>
<polygon fill="#63b8ff" stroke="#63b8ff" points="145,-31.81 141.5,-21.81 138,-31.81 145,-31.81"/>
</a>
</g>
</g>
<!-- Node14&#45;&gt;Node2 -->
<g id="edge19_Node000014_Node000002" class="edge">
<title>Node14&#45;&gt;Node2</title>
<g id="a_edge19_Node000014_Node000002"><a xlink:title=" ">
<path fill="none" stroke="#63b8ff" d="M428.51,-179.51C459.69,-169.69 500.57,-156.53 536.5,-144 538.08,-143.45 539.68,-142.88 541.31,-142.3"/>
<polygon fill="#63b8ff" stroke="#63b8ff" points="542.41,-145.62 550.61,-138.9 540.01,-139.05 542.41,-145.62"/>
</a>
</g>
</g>
<!-- Node14&#45;&gt;Node8 -->
<g id="edge17_Node000014_Node000008" class="edge">
<title>Node14&#45;&gt;Node8</title>
<g id="a_edge17_Node000014_Node000008"><a xlink:title=" ">
<path fill="none" stroke="#63b8ff" d="M379.08,-179.63C380.34,-146.56 383.31,-68.66 384.72,-31.46"/>
<polygon fill="#63b8ff" stroke="#63b8ff" points="388.21,-31.78 385.09,-21.65 381.22,-31.51 388.21,-31.78"/>
</a>
</g>
</g>
<!-- Node14&#45;&gt;Node9 -->
<g id="edge18_Node000014_Node000009" class="edge">
<title>Node14&#45;&gt;Node9</title>
<g id="a_edge18_Node000014_Node000009"><a xlink:title=" ">
<path fill="none" stroke="#63b8ff" d="M354.12,-179.53C337.51,-168.99 315.61,-155.09 298.98,-144.54"/>
<polygon fill="#63b8ff" stroke="#63b8ff" points="301,-141.67 290.68,-139.27 297.25,-147.58 301,-141.67"/>
</a>
</g>
</g>
<!-- Node15 -->
<g id="Node000015" class="node">
<title>Node15</title>
<g id="a_Node000015"><a xlink:title=" ">
<polygon fill="#e0e0e0" stroke="#999999" points="463.38,-138 413.62,-138 413.62,-118 463.38,-118 463.38,-138"/>
<text text-anchor="middle" x="438.5" y="-124.5" font-family="Helvetica,sans-Serif" font-size="10.00">iomanip</text>
</a>
</g>
</g>
<!-- Node14&#45;&gt;Node15 -->
<g id="edge20_Node000014_Node000015" class="edge">
<title>Node14&#45;&gt;Node15</title>
<g id="a_edge20_Node000014_Node000015"><a xlink:title=" ">
<path fill="none" stroke="#63b8ff" d="M392.42,-179.69C401.41,-169.8 413.15,-156.89 422.53,-146.57"/>
<polygon fill="#63b8ff" stroke="#63b8ff" points="424.88,-149.19 429.01,-139.44 419.7,-144.48 424.88,-149.19"/>
</a>
</g>
</g>
<!-- Node16 -->
<g id="Node000016" class="node">
<title>Node16</title>
<g id="a_Node000016"><a xlink:title=" ">
<polygon fill="#e0e0e0" stroke="#999999" points="527.12,-138 481.88,-138 481.88,-118 527.12,-118 527.12,-138"/>
<text text-anchor="middle" x="504.5" y="-124.5" font-family="Helvetica,sans-Serif" font-size="10.00">cstdint</text>
</a>
</g>
</g>
<!-- Node14&#45;&gt;Node16 -->
<g id="edge21_Node000014_Node000016" class="edge">
<title>Node14&#45;&gt;Node16</title>
<g id="a_edge21_Node000014_Node000016"><a xlink:title=" ">
<path fill="none" stroke="#63b8ff" d="M408.04,-179.53C428.63,-168.74 455.95,-154.43 476.25,-143.8"/>
<polygon fill="#63b8ff" stroke="#63b8ff" points="477.86,-146.9 485.1,-139.16 474.62,-140.7 477.86,-146.9"/>
</a>
</g>
</g>
<!-- Node17 -->
<g id="Node000017" class="node">
<title>Node17</title>
<g id="a_Node000017"><a xlink:title=" ">
<polygon fill="#e0e0e0" stroke="#999999" points="357.12,-138 317.88,-138 317.88,-118 357.12,-118 357.12,-138"/>
<text text-anchor="middle" x="337.5" y="-124.5" font-family="Helvetica,sans-Serif" font-size="10.00">utility</text>
</a>
</g>
</g>
<!-- Node14&#45;&gt;Node17 -->
<g id="edge22_Node000014_Node000017" class="edge">
<title>Node14&#45;&gt;Node17</title>
<g id="a_edge22_Node000014_Node000017"><a xlink:title=" ">
<path fill="none" stroke="#63b8ff" d="M368.99,-179.69C363.09,-170.2 355.47,-157.92 349.2,-147.83"/>
<polygon fill="#63b8ff" stroke="#63b8ff" points="352.34,-146.25 344.09,-139.6 346.39,-149.94 352.34,-146.25"/>
</a>
</g>
</g>
<!-- Node18&#45;&gt;Node8 -->
<g id="edge24_Node000018_Node000008" class="edge">
<title>Node18&#45;&gt;Node8</title>
<g id="a_edge24_Node000018_Node000008"><a xlink:title=" ">
<path fill="none" stroke="#63b8ff" d="M688.6,-111.77C690.91,-95.69 691.59,-70.67 677.5,-56 642.15,-19.18 485.24,-12.41 417.17,-11.22"/>
<polygon fill="#63b8ff" stroke="#63b8ff" points="417.48,-7.73 407.43,-11.09 417.38,-14.73 417.48,-7.73"/>
</a>
</g>
</g>
<!-- Node19 -->
<g id="Node000019" class="node">
<title>Node19</title>
<g id="a_Node000019"><a xlink:title=" ">
<polygon fill="#e0e0e0" stroke="#999999" points="932.12,-76 880.88,-76 880.88,-56 932.12,-56 932.12,-76"/>
<text text-anchor="middle" x="906.5" y="-62.5" font-family="Helvetica,sans-Serif" font-size="10.00">memory</text>
</a>
</g>
</g>
<!-- Node18&#45;&gt;Node19 -->
<g id="edge25_Node000018_Node000019" class="edge">
<title>Node18&#45;&gt;Node19</title>
<g id="a_edge25_Node000018_Node000019"><a xlink:title=" ">
<path fill="none" stroke="#63b8ff" d="M733.73,-113.91C774.59,-102.81 832.31,-87.14 869.58,-77.02"/>
<polygon fill="#63b8ff" stroke="#63b8ff" points="870.25,-80.47 878.98,-74.47 868.42,-73.71 870.25,-80.47"/>
</a>
</g>
</g>
<!-- Node20 -->
<g id="Node000020" class="node">
<title>Node20</title>
<g id="a_Node000020"><a xlink:title=" ">
<polygon fill="#e0e0e0" stroke="#999999" points="991.25,-76 949.75,-76 949.75,-56 991.25,-56 991.25,-76"/>
<text text-anchor="middle" x="970.5" y="-62.5" font-family="Helvetica,sans-Serif" font-size="10.00">vector</text>
</a>
</g>
</g>
<!-- Node18&#45;&gt;Node20 -->
<g id="edge26_Node000018_Node000020" class="edge">
<title>Node18&#45;&gt;Node20</title>
<g id="a_edge26_Node000018_Node000020"><a xlink:title=" ">
<path fill="none" stroke="#63b8ff" d="M733.49,-118.98C782.86,-110.39 862.16,-95.64 938.59,-76.56"/>
<polygon fill="#63b8ff" stroke="#63b8ff" points="939.04,-80.06 947.88,-74.21 937.33,-73.27 939.04,-80.06"/>
</a>
</g>
</g>
<!-- Node21 -->
<g id="Node000021" class="node">
<title>Node21</title>
<g id="a_Node000021"><a xlink:title=" ">
<polygon fill="#e0e0e0" stroke="#999999" points="471.12,-76 413.88,-76 413.88,-56 471.12,-56 471.12,-76"/>
<text text-anchor="middle" x="442.5" y="-62.5" font-family="Helvetica,sans-Serif" font-size="10.00">functional</text>
</a>
</g>
</g>
<!-- Node18&#45;&gt;Node21 -->
<g id="edge27_Node000018_Node000021" class="edge">
<title>Node18&#45;&gt;Node21</title>
<g id="a_edge27_Node000018_Node000021"><a xlink:title=" ">
<path fill="none" stroke="#63b8ff" d="M637.49,-115.15C592.13,-103.95 524.89,-87.34 482.4,-76.85"/>
<polygon fill="#63b8ff" stroke="#63b8ff" points="483.39,-73.49 472.84,-74.49 481.71,-80.29 483.39,-73.49"/>
</a>
</g>
</g>
<!-- Node22 -->
<g id="Node000022" class="node">
<title>Node22</title>
<g id="a_Node000022"><a xlink:title=" ">
<polygon fill="#e0e0e0" stroke="#999999" points="534.12,-76 488.88,-76 488.88,-56 534.12,-56 534.12,-76"/>
<text text-anchor="middle" x="511.5" y="-62.5" font-family="Helvetica,sans-Serif" font-size="10.00">atomic</text>
</a>
</g>
</g>
<!-- Node18&#45;&gt;Node22 -->
<g id="edge28_Node000018_Node000022" class="edge">
<title>Node18&#45;&gt;Node22</title>
<g id="a_edge28_Node000018_Node000022"><a xlink:title=" ">
<path fill="none" stroke="#63b8ff" d="M640.69,-111.55C610.78,-101.23 572.08,-87.89 544.87,-78.51"/>
<polygon fill="#63b8ff" stroke="#63b8ff" points="546.35,-75.32 535.76,-75.37 544.07,-81.93 546.35,-75.32"/>
</a>
</g>
</g>
<!-- Node23 -->
<g id="Node000023" class="node">
<title>Node23</title>
<g id="a_Node000023"><a xlink:title=" ">
<polygon fill="#e0e0e0" stroke="#999999" points="595,-76 552,-76 552,-56 595,-56 595,-76"/>
<text text-anchor="middle" x="573.5" y="-62.5" font-family="Helvetica,sans-Serif" font-size="10.00">thread</text>
</a>
</g>
</g>
<!-- Node18&#45;&gt;Node23 -->
<g id="edge29_Node000018_Node000023" class="edge">
<title>Node18&#45;&gt;Node23</title>
<g id="a_edge29_Node000018_Node000023"><a xlink:title=" ">
<path fill="none" stroke="#63b8ff" d="M656.66,-111.55C639.48,-102.35 617.81,-90.74 600.89,-81.68"/>
<polygon fill="#63b8ff" stroke="#63b8ff" points="602.86,-78.76 592.4,-77.12 599.56,-84.93 602.86,-78.76"/>
</a>
</g>
</g>
<!-- Node24 -->
<g id="Node000024" class="node">
<title>Node24</title>
<g id="a_Node000024"><a xlink:title=" ">
<polygon fill="#e0e0e0" stroke="#999999" points="752,-20 709,-20 709,0 752,0 752,-20"/>
<text text-anchor="middle" x="730.5" y="-6.5" font-family="Helvetica,sans-Serif" font-size="10.00">mutex</text>
</a>
</g>
</g>
<!-- Node18&#45;&gt;Node24 -->
<g id="edge30_Node000018_Node000024" class="edge">
<title>Node18&#45;&gt;Node24</title>
<g id="a_edge30_Node000018_Node000024"><a xlink:title=" ">
<path fill="none" stroke="#63b8ff" d="M693.81,-111.66C699.01,-101.68 705.63,-88.28 710.5,-76 716.3,-61.36 721.48,-44.33 725.12,-31.38"/>
<polygon fill="#63b8ff" stroke="#63b8ff" points="728.46,-32.44 727.71,-21.88 721.7,-30.61 728.46,-32.44"/>
</a>
</g>
</g>
<!-- Node25 -->
<g id="Node000025" class="node">
<title>Node25</title>
<g id="a_Node000025"><a xlink:href="_i_logger_8h.html" target="_top" xlink:title="Class that encapsulates the look and feel of the HUD.">
<polygon fill="white" stroke="#666666" points="668.38,-76 612.62,-76 612.62,-56 668.38,-56 668.38,-76"/>
<text text-anchor="middle" x="640.5" y="-62.5" font-family="Helvetica,sans-Serif" font-size="10.00">ILogger.h</text>
</a>
</g>
</g>
<!-- Node18&#45;&gt;Node25 -->
<g id="edge31_Node000018_Node000025" class="edge">
<title>Node18&#45;&gt;Node25</title>
<g id="a_edge31_Node000018_Node000025"><a xlink:title=" ">
<path fill="none" stroke="#63b8ff" d="M673.91,-111.55C667.92,-103.56 660.57,-93.76 654.29,-85.39"/>
<polygon fill="#63b8ff" stroke="#63b8ff" points="657.26,-83.52 648.46,-77.62 651.66,-87.72 657.26,-83.52"/>
</a>
</g>
</g>
<!-- Node26 -->
<g id="Node000026" class="node">
<title>Node26</title>
<g id="a_Node000026"><a xlink:href="_concurrent_queue_8h.html" target="_top" xlink:title="Concurrent queue implementation.">
<polygon fill="white" stroke="#666666" points="862.5,-76 762.5,-76 762.5,-56 862.5,-56 862.5,-76"/>
<text text-anchor="middle" x="812.5" y="-62.5" font-family="Helvetica,sans-Serif" font-size="10.00">ConcurrentQueue.h</text>
</a>
</g>
</g>
<!-- Node18&#45;&gt;Node26 -->
<g id="edge33_Node000018_Node000026" class="edge">
<title>Node18&#45;&gt;Node26</title>
<g id="a_edge33_Node000018_Node000026"><a xlink:title=" ">
<path fill="none" stroke="#63b8ff" d="M718.21,-111.55C737.96,-102.22 762.95,-90.41 782.25,-81.29"/>
<polygon fill="#63b8ff" stroke="#63b8ff" points="783.67,-84.49 791.22,-77.05 780.68,-78.16 783.67,-84.49"/>
</a>
</g>
</g>
<!-- Node25&#45;&gt;Node8 -->
<g id="edge32_Node000025_Node000008" class="edge">
<title>Node25&#45;&gt;Node8</title>
<g id="a_edge32_Node000025_Node000008"><a xlink:title=" ">
<path fill="none" stroke="#63b8ff" d="M612.23,-57.81C609.62,-57.18 607.01,-56.57 604.5,-56 538.05,-40.87 459.73,-25.33 417.08,-17.05"/>
<polygon fill="#63b8ff" stroke="#63b8ff" points="417.76,-13.62 407.28,-15.16 416.43,-20.49 417.76,-13.62"/>
</a>
</g>
</g>
<!-- Node26&#45;&gt;Node24 -->
<g id="edge35_Node000026_Node000024" class="edge">
<title>Node26&#45;&gt;Node24</title>
<g id="a_edge35_Node000026_Node000024"><a xlink:title=" ">
<path fill="none" stroke="#63b8ff" d="M798.22,-55.59C786.06,-47.59 768.36,-35.93 754.1,-26.54"/>
<polygon fill="#63b8ff" stroke="#63b8ff" points="756.44,-23.89 746.16,-21.31 752.59,-29.73 756.44,-23.89"/>
</a>
</g>
</g>
<!-- Node27 -->
<g id="Node000027" class="node">
<title>Node27</title>
<g id="a_Node000027"><a xlink:title=" ">
<polygon fill="#e0e0e0" stroke="#999999" points="922.62,-20 880.38,-20 880.38,0 922.62,0 922.62,-20"/>
<text text-anchor="middle" x="901.5" y="-6.5" font-family="Helvetica,sans-Serif" font-size="10.00">queue</text>
</a>
</g>
</g>
<!-- Node26&#45;&gt;Node27 -->
<g id="edge34_Node000026_Node000027" class="edge">
<title>Node26&#45;&gt;Node27</title>
<g id="a_edge34_Node000026_Node000027"><a xlink:title=" ">
<path fill="none" stroke="#63b8ff" d="M828,-55.59C841.32,-47.51 860.78,-35.71 876.33,-26.27"/>
<polygon fill="#63b8ff" stroke="#63b8ff" points="877.85,-29.44 884.58,-21.26 874.22,-23.46 877.85,-29.44"/>
</a>
</g>
</g>
<!-- Node28 -->
<g id="Node000028" class="node">
<title>Node28</title>
<g id="a_Node000028"><a xlink:title=" ">
<polygon fill="#e0e0e0" stroke="#999999" points="862.75,-20 770.25,-20 770.25,0 862.75,0 862.75,-20"/>
<text text-anchor="middle" x="816.5" y="-6.5" font-family="Helvetica,sans-Serif" font-size="10.00">condition_variable</text>
</a>
</g>
</g>
<!-- Node26&#45;&gt;Node28 -->
<g id="edge36_Node000026_Node000028" class="edge">
<title>Node26&#45;&gt;Node28</title>
<g id="a_edge36_Node000026_Node000028"><a xlink:title=" ">
<path fill="none" stroke="#63b8ff" d="M813.2,-55.59C813.68,-49.01 814.35,-39.96 814.96,-31.73"/>
<polygon fill="#63b8ff" stroke="#63b8ff" points="818.45,-32.04 815.7,-21.81 811.47,-31.52 818.45,-32.04"/>
</a>
</g>
</g>
</g>
</svg>

<g id="navigator" transform="translate(0 0)" fill="#404254">
  <rect fill="#f2f5e9" fill-opacity="0.5" stroke="#606060" stroke-width=".5" x="0" y="0" width="60" height="60"/>
  <use id="zoomplus" xlink:href="#zoomPlus" x="17" y="9" onmousedown="handleZoom(evt,'in')"/>
  <use id="zoomminus" xlink:href="#zoomMin" x="42" y="9" onmousedown="handleZoom(evt,'out')"/>
  <use id="reset" xlink:href="#resetDef" x="30" y="36" onmousedown="handleReset()"/>
   <use id="arrowup" xlink:href="#arrowUp" x="0" y="0" onmousedown="handlePan(0,-1)"/>
  <use id="arrowright" xlink:href="#arrowRight" x="0" y="0" onmousedown="handlePan(1,0)"/>
  <use id="arrowdown" xlink:href="#arrowDown" x="0" y="0" onmousedown="handlePan(0,1)"/>
  <use id="arrowleft" xlink:href="#arrowLeft" x="0" y="0" onmousedown="handlePan(-1,0)"/>
</g>
<svg viewBox="0 0 15 15" width="100%" height="30px" preserveAspectRatio="xMaxYMin meet">
 <g id="arrow_out" transform="scale(0.3 0.3)">
  <a xlink:href="_math_8h__incl_org.svg" target="_base">
   <rect id="button" ry="5" rx="5" y="6" x="6" height="38" width="38"
        fill="#f2f5e9" fill-opacity="0.5" stroke="#606060" stroke-width="1.0"/>
   <path id="arrow"
     d="M 11.500037,31.436501 C 11.940474,20.09759 22.043105,11.32322 32.158766,21.979434 L 37.068811,17.246167 C 37.068811,17.246167 37.088388,32 37.088388,32 L 22.160133,31.978069 C 22.160133,31.978069 26.997745,27.140456 26.997745,27.140456 C 18.528582,18.264221 13.291696,25.230495 11.500037,31.436501 z"
     style="fill:#404040;"/>
  </a>
 </g>
</svg>

<style type='text/css'>
<![CDATA[
[data-mouse-over-selected='false'] { opacity: 0.7; }
[data-mouse-over-selected='true']  { opacity: 1.0; }
]]>
</style>
<script type="application/ecmascript"><![CDATA[
document.addEventListener('DOMContentLoaded', (event) => {
  highlightEdges();
  highlightAdjacentNodes();
});
]]></script>
</svg>
