<?xml version="1.0" encoding="UTF-8" standalone="no"?>
<!DOCTYPE svg PUBLIC "-//W3C//DTD SVG 1.1//EN"
 "http://www.w3.org/Graphics/SVG/1.1/DTD/svg11.dtd">
<!-- Generated by graphviz version 11.0.0 (20240428.1522)
 -->
<!-- Title: Material.h Pages: 1 -->
<!--zoomable 476 -->

<svg id="main" version="1.1" xmlns="http://www.w3.org/2000/svg" xmlns:xlink="http://www.w3.org/1999/xlink" xml:space="preserve" onload="init(evt)">
<style type="text/css"><![CDATA[
.node, .edge {opacity: 0.7;}
.node.selected, .edge.selected {opacity: 1;}
.edge:hover path { stroke: red; }
.edge:hover polygon { stroke: red; fill: red; }
]]></style>

<defs>
  <circle id="rim" cx="0" cy="0" r="7"/>
  <circle id="rim2" cx="0" cy="0" r="3.5"/>
  <g id="zoomPlus">
    <use xlink:href="#rim" fill="#404040"><set attributeName="fill" to="#808080" begin="zoomplus.mouseover" end="zoomplus.mouseout"/></use>
    <path d="M-4,0h8M0,-4v8" fill="none" stroke="white" stroke-width="1.5" pointer-events="none"/>
  </g>
  <g id="zoomMin">
    <use xlink:href="#rim" fill="#404040"><set attributeName="fill" to="#808080" begin="zoomminus.mouseover" end="zoomminus.mouseout"/></use>
    <path d="M-4,0h8" fill="none" stroke="white" stroke-width="1.5" pointer-events="none"/>
  </g>
  <g id="arrowUp" transform="translate(30 24)">
    <use xlink:href="#rim"/>
    <path pointer-events="none" fill="none" stroke="white" stroke-width="1.5" d="M0,-3.0v7 M-2.5,-0.5L0,-3.0L2.5,-0.5"/>
  </g>
  <g id="arrowRight" transform="rotate(90) translate(36 -43)">
    <use xlink:href="#rim"/>
    <path pointer-events="none" fill="none" stroke="white" stroke-width="1.5" d="M0,-3.0v7 M-2.5,-0.5L0,-3.0L2.5,-0.5"/>
  </g>
  <g id="arrowDown" transform="rotate(180) translate(-30 -48)">
    <use xlink:href="#rim"/>
    <path pointer-events="none" fill="none" stroke="white" stroke-width="1.5" d="M0,-3.0v7 M-2.5,-0.5L0,-3.0L2.5,-0.5"/>
  </g>
  <g id="arrowLeft" transform="rotate(270) translate(-36 17)">
    <use xlink:href="#rim"/>
    <path pointer-events="none" fill="none" stroke="white" stroke-width="1.5" d="M0,-3.0v7 M-2.5,-0.5L0,-3.0L2.5,-0.5"/>
  </g>
  <g id="resetDef">
    <use xlink:href="#rim2" fill="#404040"><set attributeName="fill" to="#808080" begin="reset.mouseover" end="reset.mouseout"/></use>
  </g>
</defs>
<script type="application/ecmascript">
var viewWidth = 1095;
var viewHeight = 476;
var sectionId = 'dynsection-1';
</script>
<script type="application/ecmascript" xlink:href="svg.min.js"/>
<svg id="graph" class="graph">
<g id="viewport">
<title>Material.h</title>
<!-- Node1 -->
<g id="Node000001" class="node">
<title>Node1</title>
<g id="a_Node000001"><a xlink:title="@TODO Add description of this file if needed">
<polygon fill="#999999" stroke="#666666" points="464.38,-468 405.62,-468 405.62,-448 464.38,-448 464.38,-468"/>
<text text-anchor="middle" x="435" y="-454.5" font-family="Helvetica,sans-Serif" font-size="10.00">Material.h</text>
</a>
</g>
</g>
<!-- Node2 -->
<g id="Node000002" class="node">
<title>Node2</title>
<g id="a_Node000002"><a xlink:href="_material_8cpp.html" target="_top" xlink:title="@TODO Add description of this file if needed">
<polygon fill="white" stroke="#666666" points="406.62,-412 337.38,-412 337.38,-392 406.62,-392 406.62,-412"/>
<text text-anchor="middle" x="372" y="-398.5" font-family="Helvetica,sans-Serif" font-size="10.00">Material.cpp</text>
</a>
</g>
</g>
<!-- Node1&#45;&gt;Node2 -->
<g id="edge1_Node000001_Node000002" class="edge">
<title>Node1&#45;&gt;Node2</title>
<g id="a_edge1_Node000001_Node000002"><a xlink:title=" ">
<path fill="none" stroke="#63b8ff" d="M415.31,-440.13C404.6,-430.94 391.75,-419.93 382.85,-412.3"/>
<polygon fill="#63b8ff" stroke="#63b8ff" points="413.01,-442.76 422.88,-446.61 417.56,-437.44 413.01,-442.76"/>
</a>
</g>
</g>
<!-- Node3 -->
<g id="Node000003" class="node">
<title>Node3</title>
<g id="a_Node000003"><a xlink:href="_render_component_8h.html" target="_top" xlink:title="@TODO Add description of this file if needed">
<polygon fill="white" stroke="#666666" points="487.25,-132 382.75,-132 382.75,-112 487.25,-112 487.25,-132"/>
<text text-anchor="middle" x="435" y="-118.5" font-family="Helvetica,sans-Serif" font-size="10.00">RenderComponent.h</text>
</a>
</g>
</g>
<!-- Node1&#45;&gt;Node3 -->
<g id="edge2_Node000001_Node000003" class="edge">
<title>Node1&#45;&gt;Node3</title>
<g id="a_edge2_Node000001_Node000003"><a xlink:title=" ">
<path fill="none" stroke="#63b8ff" d="M435,-436.32C435,-414.22 435,-378.13 435,-347 435,-347 435,-347 435,-233 435,-195.76 435,-151.43 435,-132.42"/>
<polygon fill="#63b8ff" stroke="#63b8ff" points="431.5,-436.07 435,-446.07 438.5,-436.07 431.5,-436.07"/>
</a>
</g>
</g>
<!-- Node7 -->
<g id="Node000007" class="node">
<title>Node7</title>
<g id="a_Node000007"><a xlink:href="_renderer_8h.html" target="_top" xlink:title="@TODO Add description of this file if needed">
<polygon fill="white" stroke="#666666" points="526.62,-412 463.38,-412 463.38,-392 526.62,-392 526.62,-412"/>
<text text-anchor="middle" x="495" y="-398.5" font-family="Helvetica,sans-Serif" font-size="10.00">Renderer.h</text>
</a>
</g>
</g>
<!-- Node1&#45;&gt;Node7 -->
<g id="edge6_Node000001_Node000007" class="edge">
<title>Node1&#45;&gt;Node7</title>
<g id="a_edge6_Node000001_Node000007"><a xlink:title=" ">
<path fill="none" stroke="#63b8ff" d="M453.75,-440.13C463.95,-430.94 476.19,-419.93 484.67,-412.3"/>
<polygon fill="#63b8ff" stroke="#63b8ff" points="451.67,-437.29 446.58,-446.58 456.35,-442.49 451.67,-437.29"/>
</a>
</g>
</g>
<!-- Node4 -->
<g id="Node000004" class="node">
<title>Node4</title>
<g id="a_Node000004"><a xlink:href="_default_8cpp.html" target="_top" xlink:title="@TODO Add description of this file if needed">
<polygon fill="white" stroke="#666666" points="407.38,-76 342.62,-76 342.62,-56 407.38,-56 407.38,-76"/>
<text text-anchor="middle" x="375" y="-62.5" font-family="Helvetica,sans-Serif" font-size="10.00">Default.cpp</text>
</a>
</g>
</g>
<!-- Node3&#45;&gt;Node4 -->
<g id="edge3_Node000003_Node000004" class="edge">
<title>Node3&#45;&gt;Node4</title>
<g id="a_edge3_Node000003_Node000004"><a xlink:title=" ">
<path fill="none" stroke="#63b8ff" d="M416.25,-104.13C406.05,-94.94 393.81,-83.93 385.33,-76.3"/>
<polygon fill="#63b8ff" stroke="#63b8ff" points="413.65,-106.49 423.42,-110.58 418.33,-101.29 413.65,-106.49"/>
</a>
</g>
</g>
<!-- Node5 -->
<g id="Node000005" class="node">
<title>Node5</title>
<g id="a_Node000005"><a xlink:href="_g_l_e_s_c_8cpp.html" target="_top" xlink:title=" ">
<polygon fill="white" stroke="#666666" points="624.88,-20 557.12,-20 557.12,0 624.88,0 624.88,-20"/>
<text text-anchor="middle" x="591" y="-6.5" font-family="Helvetica,sans-Serif" font-size="10.00">GLESC.cpp</text>
</a>
</g>
</g>
<!-- Node3&#45;&gt;Node5 -->
<g id="edge4_Node000003_Node000005" class="edge">
<title>Node3&#45;&gt;Node5</title>
<g id="a_edge4_Node000003_Node000005"><a xlink:title=" ">
<path fill="none" stroke="#63b8ff" d="M436.09,-100.58C437.9,-86.36 442.49,-67.89 454,-56 481.07,-28.02 525.8,-17.43 556.75,-13.43"/>
<polygon fill="#63b8ff" stroke="#63b8ff" points="432.63,-99.93 435.25,-110.19 439.61,-100.54 432.63,-99.93"/>
</a>
</g>
</g>
<!-- Node6 -->
<g id="Node000006" class="node">
<title>Node6</title>
<g id="a_Node000006"><a xlink:href="_render_system_8cpp.html" target="_top" xlink:title=" ">
<polygon fill="white" stroke="#666666" points="562.62,-76 463.38,-76 463.38,-56 562.62,-56 562.62,-76"/>
<text text-anchor="middle" x="513" y="-62.5" font-family="Helvetica,sans-Serif" font-size="10.00">RenderSystem.cpp</text>
</a>
</g>
</g>
<!-- Node3&#45;&gt;Node6 -->
<g id="edge5_Node000003_Node000006" class="edge">
<title>Node3&#45;&gt;Node6</title>
<g id="a_edge5_Node000003_Node000006"><a xlink:title=" ">
<path fill="none" stroke="#63b8ff" d="M457.72,-105.27C471.19,-95.94 487.83,-84.43 499.31,-76.48"/>
<polygon fill="#63b8ff" stroke="#63b8ff" points="456.06,-102.16 449.83,-110.73 460.05,-107.92 456.06,-102.16"/>
</a>
</g>
</g>
<!-- Node8 -->
<g id="Node000008" class="node">
<title>Node8</title>
<g id="a_Node000008"><a xlink:href="_camera_system_8h.html" target="_top" xlink:title="Camera system that updates the renderer&#39;s camera.">
<polygon fill="white" stroke="#666666" points="743.88,-356 652.12,-356 652.12,-336 743.88,-336 743.88,-356"/>
<text text-anchor="middle" x="698" y="-342.5" font-family="Helvetica,sans-Serif" font-size="10.00">CameraSystem.h</text>
</a>
</g>
</g>
<!-- Node7&#45;&gt;Node8 -->
<g id="edge7_Node000007_Node000008" class="edge">
<title>Node7&#45;&gt;Node8</title>
<g id="a_edge7_Node000007_Node000008"><a xlink:title=" ">
<path fill="none" stroke="#63b8ff" d="M537.66,-389.65C574.67,-379.81 627.63,-365.72 662.41,-356.47"/>
<polygon fill="#63b8ff" stroke="#63b8ff" points="536.95,-386.22 528.18,-392.17 538.75,-392.99 536.95,-386.22"/>
</a>
</g>
</g>
<!-- Node10 -->
<g id="Node000010" class="node">
<title>Node10</title>
<g id="a_Node000010"><a xlink:href="_debug_info_system_8h.html" target="_top" xlink:title="System that displays debug information about the selected entity.">
<polygon fill="white" stroke="#666666" points="865.38,-356 764.62,-356 764.62,-336 865.38,-336 865.38,-356"/>
<text text-anchor="middle" x="815" y="-342.5" font-family="Helvetica,sans-Serif" font-size="10.00">DebugInfoSystem.h</text>
</a>
</g>
</g>
<!-- Node7&#45;&gt;Node10 -->
<g id="edge10_Node000007_Node000010" class="edge">
<title>Node7&#45;&gt;Node10</title>
<g id="a_edge10_Node000007_Node000010"><a xlink:title=" ">
<path fill="none" stroke="#63b8ff" d="M537.94,-393.75C596.62,-383.85 701.67,-366.12 764.19,-355.57"/>
<polygon fill="#63b8ff" stroke="#63b8ff" points="537.62,-390.26 528.35,-395.37 538.79,-397.16 537.62,-390.26"/>
</a>
</g>
</g>
<!-- Node12 -->
<g id="Node000012" class="node">
<title>Node12</title>
<g id="a_Node000012"><a xlink:href="_debug_items_h_u_d_8h.html" target="_top" xlink:title="@TODO Add description of this file if needed">
<polygon fill="white" stroke="#666666" points="259.12,-356 162.88,-356 162.88,-336 259.12,-336 259.12,-356"/>
<text text-anchor="middle" x="211" y="-342.5" font-family="Helvetica,sans-Serif" font-size="10.00">DebugItemsHUD.h</text>
</a>
</g>
</g>
<!-- Node7&#45;&gt;Node12 -->
<g id="edge13_Node000007_Node000012" class="edge">
<title>Node7&#45;&gt;Node12</title>
<g id="a_edge13_Node000007_Node000012"><a xlink:title=" ">
<path fill="none" stroke="#63b8ff" d="M451.85,-392.8C400.08,-382.95 313.52,-366.49 259.48,-356.22"/>
<polygon fill="#63b8ff" stroke="#63b8ff" points="451.01,-396.2 461.49,-394.63 452.32,-389.32 451.01,-396.2"/>
</a>
</g>
</g>
<!-- Node14 -->
<g id="Node000014" class="node">
<title>Node14</title>
<g id="a_Node000014"><a xlink:href="_engine_h_u_d_manager_8h.html" target="_top" xlink:title="@TODO Add description of this file if needed">
<polygon fill="white" stroke="#666666" points="140,-300 28,-300 28,-280 140,-280 140,-300"/>
<text text-anchor="middle" x="84" y="-286.5" font-family="Helvetica,sans-Serif" font-size="10.00">EngineHUDManager.h</text>
</a>
</g>
</g>
<!-- Node7&#45;&gt;Node14 -->
<g id="edge29_Node000007_Node000014" class="edge">
<title>Node7&#45;&gt;Node14</title>
<g id="a_edge29_Node000007_Node000014"><a xlink:title=" ">
<path fill="none" stroke="#63b8ff" d="M451.66,-395.99C362.83,-385.63 167.33,-362.27 154,-356 126.39,-343.01 102.31,-315.11 90.94,-300.45"/>
<polygon fill="#63b8ff" stroke="#63b8ff" points="451.11,-399.45 461.45,-397.13 451.92,-392.5 451.11,-399.45"/>
</a>
</g>
</g>
<!-- Node17 -->
<g id="Node000017" class="node">
<title>Node17</title>
<g id="a_Node000017"><a xlink:href="_g_l_e_s_c_8h.html" target="_top" xlink:title=" ">
<polygon fill="white" stroke="#666666" points="104.62,-76 47.38,-76 47.38,-56 104.62,-56 104.62,-76"/>
<text text-anchor="middle" x="76" y="-62.5" font-family="Helvetica,sans-Serif" font-size="10.00">GLESC.h</text>
</a>
</g>
</g>
<!-- Node7&#45;&gt;Node17 -->
<g id="edge33_Node000007_Node000017" class="edge">
<title>Node7&#45;&gt;Node17</title>
<g id="a_edge33_Node000007_Node000017"><a xlink:title=" ">
<path fill="none" stroke="#63b8ff" d="M451.64,-395.98C355.01,-384.76 129.81,-358.46 122,-356 63.39,-337.56 0,-352.44 0,-291 0,-291 0,-291 0,-177 0,-132.9 41.86,-93.67 63.45,-76.37"/>
<polygon fill="#63b8ff" stroke="#63b8ff" points="451.2,-399.45 461.54,-397.13 452.01,-392.5 451.2,-399.45"/>
</a>
</g>
</g>
<!-- Node23 -->
<g id="Node000023" class="node">
<title>Node23</title>
<g id="a_Node000023"><a xlink:href="_fog_system_8h.html" target="_top" xlink:title="System that updates the fog in the scene.">
<polygon fill="white" stroke="#666666" points="407.25,-356 332.75,-356 332.75,-336 407.25,-336 407.25,-356"/>
<text text-anchor="middle" x="370" y="-342.5" font-family="Helvetica,sans-Serif" font-size="10.00">FogSystem.h</text>
</a>
</g>
</g>
<!-- Node7&#45;&gt;Node23 -->
<g id="edge30_Node000007_Node000023" class="edge">
<title>Node7&#45;&gt;Node23</title>
<g id="a_edge30_Node000007_Node000023"><a xlink:title=" ">
<path fill="none" stroke="#63b8ff" d="M462.92,-387.14C440.66,-377.52 411.59,-364.97 391.94,-356.48"/>
<polygon fill="#63b8ff" stroke="#63b8ff" points="461.27,-390.24 471.84,-390.99 464.05,-383.81 461.27,-390.24"/>
</a>
</g>
</g>
<!-- Node25 -->
<g id="Node000025" class="node">
<title>Node25</title>
<g id="a_Node000025"><a xlink:href="_light_system_8h.html" target="_top" xlink:title="System that updates the lights in the scene.">
<polygon fill="white" stroke="#666666" points="585.5,-356 506.5,-356 506.5,-336 585.5,-336 585.5,-356"/>
<text text-anchor="middle" x="546" y="-342.5" font-family="Helvetica,sans-Serif" font-size="10.00">LightSystem.h</text>
</a>
</g>
</g>
<!-- Node7&#45;&gt;Node25 -->
<g id="edge34_Node000007_Node000025" class="edge">
<title>Node7&#45;&gt;Node25</title>
<g id="a_edge34_Node000007_Node000025"><a xlink:title=" ">
<path fill="none" stroke="#63b8ff" d="M511.73,-383.29C520.24,-374.28 530.23,-363.7 537.22,-356.3"/>
<polygon fill="#63b8ff" stroke="#63b8ff" points="509.24,-380.82 504.92,-390.49 514.33,-385.63 509.24,-380.82"/>
</a>
</g>
</g>
<!-- Node27 -->
<g id="Node000027" class="node">
<title>Node27</title>
<g id="a_Node000027"><a xlink:href="_render_system_8h.html" target="_top" xlink:title="System that updates the renderer, sends the data to the renderer to then be handled by it.">
<polygon fill="white" stroke="#666666" points="594.38,-132 505.62,-132 505.62,-112 594.38,-112 594.38,-132"/>
<text text-anchor="middle" x="550" y="-118.5" font-family="Helvetica,sans-Serif" font-size="10.00">RenderSystem.h</text>
</a>
</g>
</g>
<!-- Node7&#45;&gt;Node27 -->
<g id="edge37_Node000007_Node000027" class="edge">
<title>Node7&#45;&gt;Node27</title>
<g id="a_edge37_Node000007_Node000027"><a xlink:title=" ">
<path fill="none" stroke="#63b8ff" d="M488.49,-380.87C482,-359 473,-322.89 473,-291 473,-291 473,-291 473,-233 473,-188.71 515.41,-149.57 537.29,-132.33"/>
<polygon fill="#63b8ff" stroke="#63b8ff" points="485.1,-381.75 491.4,-390.26 491.78,-379.67 485.1,-381.75"/>
</a>
</g>
</g>
<!-- Node28 -->
<g id="Node000028" class="node">
<title>Node28</title>
<g id="a_Node000028"><a xlink:href="_renderer_8cpp.html" target="_top" xlink:title=" ">
<polygon fill="white" stroke="#666666" points="956.88,-356 883.12,-356 883.12,-336 956.88,-336 956.88,-356"/>
<text text-anchor="middle" x="920" y="-342.5" font-family="Helvetica,sans-Serif" font-size="10.00">Renderer.cpp</text>
</a>
</g>
</g>
<!-- Node7&#45;&gt;Node28 -->
<g id="edge40_Node000007_Node000028" class="edge">
<title>Node7&#45;&gt;Node28</title>
<g id="a_edge40_Node000007_Node000028"><a xlink:title=" ">
<path fill="none" stroke="#63b8ff" d="M538.12,-396.94C608.61,-390.08 752.78,-375.03 874,-356 876.81,-355.56 879.72,-355.07 882.64,-354.55"/>
<polygon fill="#63b8ff" stroke="#63b8ff" points="538.18,-393.42 528.56,-397.87 538.85,-400.39 538.18,-393.42"/>
</a>
</g>
</g>
<!-- Node29 -->
<g id="Node000029" class="node">
<title>Node29</title>
<g id="a_Node000029"><a xlink:href="_sun_system_8h.html" target="_top" xlink:title="System that updates the sun in the scene.">
<polygon fill="white" stroke="#666666" points="1053.62,-356 978.38,-356 978.38,-336 1053.62,-336 1053.62,-356"/>
<text text-anchor="middle" x="1016" y="-342.5" font-family="Helvetica,sans-Serif" font-size="10.00">SunSystem.h</text>
</a>
</g>
</g>
<!-- Node7&#45;&gt;Node29 -->
<g id="edge41_Node000007_Node000029" class="edge">
<title>Node7&#45;&gt;Node29</title>
<g id="a_edge41_Node000007_Node000029"><a xlink:title=" ">
<path fill="none" stroke="#63b8ff" d="M538.35,-398.07C621.52,-392.17 809.16,-377.57 966,-356 969.93,-355.46 974.03,-354.83 978.11,-354.16"/>
<polygon fill="#63b8ff" stroke="#63b8ff" points="538.33,-394.56 528.6,-398.75 538.82,-401.54 538.33,-394.56"/>
</a>
</g>
</g>
<!-- Node8&#45;&gt;Node5 -->
<g id="edge9_Node000008_Node000005" class="edge">
<title>Node8&#45;&gt;Node5</title>
<g id="a_edge9_Node000008_Node000005"><a xlink:title=" ">
<path fill="none" stroke="#63b8ff" d="M725.9,-329.56C737.31,-321.99 749.74,-311.92 758,-300 775.14,-275.26 777,-265.1 777,-235 777,-235 777,-235 777,-121 777,-51.22 678.81,-24.77 625.12,-15.52"/>
<polygon fill="#63b8ff" stroke="#63b8ff" points="724.2,-326.49 717.56,-334.75 727.9,-332.44 724.2,-326.49"/>
</a>
</g>
</g>
<!-- Node9 -->
<g id="Node000009" class="node">
<title>Node9</title>
<g id="a_Node000009"><a xlink:href="_camera_system_8cpp.html" target="_top" xlink:title=" ">
<polygon fill="white" stroke="#666666" points="749.12,-300 646.88,-300 646.88,-280 749.12,-280 749.12,-300"/>
<text text-anchor="middle" x="698" y="-286.5" font-family="Helvetica,sans-Serif" font-size="10.00">CameraSystem.cpp</text>
</a>
</g>
</g>
<!-- Node8&#45;&gt;Node9 -->
<g id="edge8_Node000008_Node000009" class="edge">
<title>Node8&#45;&gt;Node9</title>
<g id="a_edge8_Node000008_Node000009"><a xlink:title=" ">
<path fill="none" stroke="#63b8ff" d="M698,-324.13C698,-315.9 698,-306.85 698,-300.3"/>
<polygon fill="#63b8ff" stroke="#63b8ff" points="694.5,-324.08 698,-334.08 701.5,-324.08 694.5,-324.08"/>
</a>
</g>
</g>
<!-- Node10&#45;&gt;Node5 -->
<g id="edge12_Node000010_Node000005" class="edge">
<title>Node10&#45;&gt;Node5</title>
<g id="a_edge12_Node000010_Node000005"><a xlink:title=" ">
<path fill="none" stroke="#63b8ff" d="M873.89,-332.06C892.76,-325.31 912.3,-315.16 926,-300 946.18,-277.67 945,-265.1 945,-235 945,-235 945,-235 945,-121 945,-54.47 714.11,-23.65 625.26,-14.26"/>
<polygon fill="#63b8ff" stroke="#63b8ff" points="873.05,-328.65 864.64,-335.1 875.24,-335.3 873.05,-328.65"/>
</a>
</g>
</g>
<!-- Node11 -->
<g id="Node000011" class="node">
<title>Node11</title>
<g id="a_Node000011"><a xlink:href="_debug_info_system_8cpp.html" target="_top" xlink:title="@TODO Add description of this file if needed">
<polygon fill="white" stroke="#666666" points="916.62,-300 805.38,-300 805.38,-280 916.62,-280 916.62,-300"/>
<text text-anchor="middle" x="861" y="-286.5" font-family="Helvetica,sans-Serif" font-size="10.00">DebugInfoSystem.cpp</text>
</a>
</g>
</g>
<!-- Node10&#45;&gt;Node11 -->
<g id="edge11_Node000010_Node000011" class="edge">
<title>Node10&#45;&gt;Node11</title>
<g id="a_edge11_Node000010_Node000011"><a xlink:title=" ">
<path fill="none" stroke="#63b8ff" d="M830.33,-327C837.95,-318.06 846.84,-307.62 853.08,-300.3"/>
<polygon fill="#63b8ff" stroke="#63b8ff" points="827.81,-324.56 823.99,-334.44 833.14,-329.1 827.81,-324.56"/>
</a>
</g>
</g>
<!-- Node13 -->
<g id="Node000013" class="node">
<title>Node13</title>
<g id="a_Node000013"><a xlink:href="_debug_items_h_u_d_8cpp.html" target="_top" xlink:title="@TODO Add description of this file if needed">
<polygon fill="white" stroke="#666666" points="264.38,-300 157.62,-300 157.62,-280 264.38,-280 264.38,-300"/>
<text text-anchor="middle" x="211" y="-286.5" font-family="Helvetica,sans-Serif" font-size="10.00">DebugItemsHUD.cpp</text>
</a>
</g>
</g>
<!-- Node12&#45;&gt;Node13 -->
<g id="edge14_Node000012_Node000013" class="edge">
<title>Node12&#45;&gt;Node13</title>
<g id="a_edge14_Node000012_Node000013"><a xlink:title=" ">
<path fill="none" stroke="#63b8ff" d="M211,-324.13C211,-315.9 211,-306.85 211,-300.3"/>
<polygon fill="#63b8ff" stroke="#63b8ff" points="207.5,-324.08 211,-334.08 214.5,-324.08 207.5,-324.08"/>
</a>
</g>
</g>
<!-- Node12&#45;&gt;Node14 -->
<g id="edge15_Node000012_Node000014" class="edge">
<title>Node12&#45;&gt;Node14</title>
<g id="a_edge15_Node000012_Node000014"><a xlink:title=" ">
<path fill="none" stroke="#63b8ff" d="M178.4,-331.14C155.79,-321.52 126.26,-308.97 106.29,-300.48"/>
<polygon fill="#63b8ff" stroke="#63b8ff" points="176.91,-334.31 187.49,-335 179.65,-327.87 176.91,-334.31"/>
</a>
</g>
</g>
<!-- Node15 -->
<g id="Node000015" class="node">
<title>Node15</title>
<g id="a_Node000015"><a xlink:href="_engine_camera_8h.html" target="_top" xlink:title="@TODO Add description of this file if needed">
<polygon fill="white" stroke="#666666" points="154,-244 66,-244 66,-224 154,-224 154,-244"/>
<text text-anchor="middle" x="110" y="-230.5" font-family="Helvetica,sans-Serif" font-size="10.00">EngineCamera.h</text>
</a>
</g>
</g>
<!-- Node14&#45;&gt;Node15 -->
<g id="edge16_Node000014_Node000015" class="edge">
<title>Node14&#45;&gt;Node15</title>
<g id="a_edge16_Node000014_Node000015"><a xlink:title=" ">
<path fill="none" stroke="#63b8ff" d="M93.49,-269.29C97.6,-260.75 102.22,-251.16 105.52,-244.3"/>
<polygon fill="#63b8ff" stroke="#63b8ff" points="90.37,-267.7 89.19,-278.23 96.68,-270.74 90.37,-267.7"/>
</a>
</g>
</g>
<!-- Node14&#45;&gt;Node17 -->
<g id="edge28_Node000014_Node000017" class="edge">
<title>Node14&#45;&gt;Node17</title>
<g id="a_edge28_Node000014_Node000017"><a xlink:title=" ">
<path fill="none" stroke="#63b8ff" d="M69.69,-270.32C64.64,-262.6 59.57,-253.3 57,-244 39.76,-181.75 63.33,-103.17 72.57,-76.41"/>
<polygon fill="#63b8ff" stroke="#63b8ff" points="66.83,-272.33 75.47,-278.47 72.54,-268.28 66.83,-272.33"/>
</a>
</g>
</g>
<!-- Node22 -->
<g id="Node000022" class="node">
<title>Node22</title>
<g id="a_Node000022"><a xlink:href="_engine_h_u_d_manager_8cpp.html" target="_top" xlink:title="@TODO Add description of this file if needed">
<polygon fill="white" stroke="#666666" points="294.25,-244 171.75,-244 171.75,-224 294.25,-224 294.25,-244"/>
<text text-anchor="middle" x="233" y="-230.5" font-family="Helvetica,sans-Serif" font-size="10.00">EngineHUDManager.cpp</text>
</a>
</g>
</g>
<!-- Node14&#45;&gt;Node22 -->
<g id="edge27_Node000014_Node000022" class="edge">
<title>Node14&#45;&gt;Node22</title>
<g id="a_edge27_Node000014_Node000022"><a xlink:title=" ">
<path fill="none" stroke="#63b8ff" d="M120.45,-275.79C147.19,-266.1 182.89,-253.16 206.84,-244.48"/>
<polygon fill="#63b8ff" stroke="#63b8ff" points="119.59,-272.38 111.38,-279.08 121.97,-278.96 119.59,-272.38"/>
</a>
</g>
</g>
<!-- Node16 -->
<g id="Node000016" class="node">
<title>Node16</title>
<g id="a_Node000016"><a xlink:href="_engine_camera_8cpp.html" target="_top" xlink:title="@TODO Add description of this file if needed">
<polygon fill="white" stroke="#666666" points="202.25,-188 103.75,-188 103.75,-168 202.25,-168 202.25,-188"/>
<text text-anchor="middle" x="153" y="-174.5" font-family="Helvetica,sans-Serif" font-size="10.00">EngineCamera.cpp</text>
</a>
</g>
</g>
<!-- Node15&#45;&gt;Node16 -->
<g id="edge17_Node000015_Node000016" class="edge">
<title>Node15&#45;&gt;Node16</title>
<g id="a_edge17_Node000015_Node000016"><a xlink:title=" ">
<path fill="none" stroke="#63b8ff" d="M124.56,-214.72C131.63,-205.84 139.82,-195.55 145.6,-188.3"/>
<polygon fill="#63b8ff" stroke="#63b8ff" points="121.92,-212.41 118.43,-222.41 127.4,-216.77 121.92,-212.41"/>
</a>
</g>
</g>
<!-- Node15&#45;&gt;Node17 -->
<g id="edge18_Node000015_Node000017" class="edge">
<title>Node15&#45;&gt;Node17</title>
<g id="a_edge18_Node000015_Node000017"><a xlink:title=" ">
<path fill="none" stroke="#63b8ff" d="M102.63,-213.25C99.93,-205.47 97.04,-196.4 95,-188 84.99,-146.88 79.06,-96.57 76.92,-76.21"/>
<polygon fill="#63b8ff" stroke="#63b8ff" points="99.24,-214.18 105.93,-222.4 105.83,-211.81 99.24,-214.18"/>
</a>
</g>
</g>
<!-- Node19 -->
<g id="Node000019" class="node">
<title>Node19</title>
<g id="a_Node000019"><a xlink:href="_scene_8h.html" target="_top" xlink:title="@TODO Add description of this file if needed">
<polygon fill="white" stroke="#666666" points="272,-188 220,-188 220,-168 272,-168 272,-188"/>
<text text-anchor="middle" x="246" y="-174.5" font-family="Helvetica,sans-Serif" font-size="10.00">Scene.h</text>
</a>
</g>
</g>
<!-- Node15&#45;&gt;Node19 -->
<g id="edge21_Node000015_Node000019" class="edge">
<title>Node15&#45;&gt;Node19</title>
<g id="a_edge21_Node000015_Node000019"><a xlink:title=" ">
<path fill="none" stroke="#63b8ff" d="M144.25,-219.4C168.55,-209.75 200.55,-197.05 222.13,-188.48"/>
<polygon fill="#63b8ff" stroke="#63b8ff" points="143.1,-216.09 135.1,-223.04 145.68,-222.6 143.1,-216.09"/>
</a>
</g>
</g>
<!-- Node17&#45;&gt;Node5 -->
<g id="edge19_Node000017_Node000005" class="edge">
<title>Node17&#45;&gt;Node5</title>
<g id="a_edge19_Node000017_Node000005"><a xlink:title=" ">
<path fill="none" stroke="#63b8ff" d="M115.97,-60.81C214.01,-50.53 465.1,-24.2 556.81,-14.59"/>
<polygon fill="#63b8ff" stroke="#63b8ff" points="115.88,-57.3 106.3,-61.82 116.61,-64.26 115.88,-57.3"/>
</a>
</g>
</g>
<!-- Node18 -->
<g id="Node000018" class="node">
<title>Node18</title>
<g id="a_Node000018"><a xlink:href="src_2engine_2main_8cpp.html" target="_top" xlink:title=" ">
<polygon fill="white" stroke="#666666" points="103.88,-20 48.12,-20 48.12,0 103.88,0 103.88,-20"/>
<text text-anchor="middle" x="76" y="-6.5" font-family="Helvetica,sans-Serif" font-size="10.00">main.cpp</text>
</a>
</g>
</g>
<!-- Node17&#45;&gt;Node18 -->
<g id="edge20_Node000017_Node000018" class="edge">
<title>Node17&#45;&gt;Node18</title>
<g id="a_edge20_Node000017_Node000018"><a xlink:title=" ">
<path fill="none" stroke="#63b8ff" d="M76,-44.13C76,-35.9 76,-26.85 76,-20.3"/>
<polygon fill="#63b8ff" stroke="#63b8ff" points="72.5,-44.08 76,-54.08 79.5,-44.08 72.5,-44.08"/>
</a>
</g>
</g>
<!-- Node19&#45;&gt;Node5 -->
<g id="edge24_Node000019_Node000005" class="edge">
<title>Node19&#45;&gt;Node5</title>
<g id="a_edge24_Node000019_Node000005"><a xlink:title=" ">
<path fill="none" stroke="#63b8ff" d="M248.6,-156.22C253.38,-127.89 266.47,-78.15 301,-56 342.86,-29.14 489.56,-17.08 556.83,-12.86"/>
<polygon fill="#63b8ff" stroke="#63b8ff" points="245.14,-155.65 247.16,-166.05 252.07,-156.66 245.14,-155.65"/>
</a>
</g>
</g>
<!-- Node20 -->
<g id="Node000020" class="node">
<title>Node20</title>
<g id="a_Node000020"><a xlink:href="_default_8h.html" target="_top" xlink:title="@TODO Add description of this file if needed">
<polygon fill="white" stroke="#666666" points="327.12,-132 272.88,-132 272.88,-112 327.12,-112 327.12,-132"/>
<text text-anchor="middle" x="300" y="-118.5" font-family="Helvetica,sans-Serif" font-size="10.00">Default.h</text>
</a>
</g>
</g>
<!-- Node19&#45;&gt;Node20 -->
<g id="edge22_Node000019_Node000020" class="edge">
<title>Node19&#45;&gt;Node20</title>
<g id="a_edge22_Node000019_Node000020"><a xlink:title=" ">
<path fill="none" stroke="#63b8ff" d="M263.43,-159.57C272.5,-150.5 283.22,-139.78 290.7,-132.3"/>
<polygon fill="#63b8ff" stroke="#63b8ff" points="261.07,-156.98 256.48,-166.52 266.02,-161.93 261.07,-156.98"/>
</a>
</g>
</g>
<!-- Node21 -->
<g id="Node000021" class="node">
<title>Node21</title>
<g id="a_Node000021"><a xlink:href="_scene_container_8h.html" target="_top" xlink:title="Class that stores and manages scenes.">
<polygon fill="white" stroke="#666666" points="206.62,-132 113.38,-132 113.38,-112 206.62,-112 206.62,-132"/>
<text text-anchor="middle" x="160" y="-118.5" font-family="Helvetica,sans-Serif" font-size="10.00">SceneContainer.h</text>
</a>
</g>
</g>
<!-- Node19&#45;&gt;Node21 -->
<g id="edge25_Node000019_Node000021" class="edge">
<title>Node19&#45;&gt;Node21</title>
<g id="a_edge25_Node000019_Node000021"><a xlink:title=" ">
<path fill="none" stroke="#63b8ff" d="M221.38,-161.54C206.45,-152.17 187.88,-140.51 175.1,-132.48"/>
<polygon fill="#63b8ff" stroke="#63b8ff" points="219.41,-164.44 229.74,-166.79 223.13,-158.51 219.41,-164.44"/>
</a>
</g>
</g>
<!-- Node20&#45;&gt;Node4 -->
<g id="edge23_Node000020_Node000004" class="edge">
<title>Node20&#45;&gt;Node4</title>
<g id="a_edge23_Node000020_Node000004"><a xlink:title=" ">
<path fill="none" stroke="#63b8ff" d="M322.22,-105C335.11,-95.72 350.9,-84.35 361.83,-76.48"/>
<polygon fill="#63b8ff" stroke="#63b8ff" points="320.36,-102.03 314.29,-110.71 324.45,-107.71 320.36,-102.03"/>
</a>
</g>
</g>
<!-- Node21&#45;&gt;Node17 -->
<g id="edge26_Node000021_Node000017" class="edge">
<title>Node21&#45;&gt;Node17</title>
<g id="a_edge26_Node000021_Node000017"><a xlink:title=" ">
<path fill="none" stroke="#63b8ff" d="M135.95,-105.54C121.37,-96.17 103.23,-84.51 90.75,-76.48"/>
<polygon fill="#63b8ff" stroke="#63b8ff" points="133.79,-108.31 144.1,-110.78 137.58,-102.42 133.79,-108.31"/>
</a>
</g>
</g>
<!-- Node23&#45;&gt;Node5 -->
<g id="edge32_Node000023_Node000005" class="edge">
<title>Node23&#45;&gt;Node5</title>
<g id="a_edge32_Node000023_Node000005"><a xlink:title=" ">
<path fill="none" stroke="#63b8ff" d="M373.93,-324.5C375.87,-311.7 377.52,-294.88 376,-280 373.43,-254.81 317.71,-75.39 334,-56 362.12,-22.53 493.91,-13.95 557.08,-11.75"/>
<polygon fill="#63b8ff" stroke="#63b8ff" points="370.5,-323.8 372.24,-334.25 377.39,-324.99 370.5,-323.8"/>
</a>
</g>
</g>
<!-- Node24 -->
<g id="Node000024" class="node">
<title>Node24</title>
<g id="a_Node000024"><a xlink:href="_fog_system_8cpp.html" target="_top" xlink:title="@TODO Add description of this file if needed">
<polygon fill="white" stroke="#666666" points="367.5,-300 282.5,-300 282.5,-280 367.5,-280 367.5,-300"/>
<text text-anchor="middle" x="325" y="-286.5" font-family="Helvetica,sans-Serif" font-size="10.00">FogSystem.cpp</text>
</a>
</g>
</g>
<!-- Node23&#45;&gt;Node24 -->
<g id="edge31_Node000023_Node000024" class="edge">
<title>Node23&#45;&gt;Node24</title>
<g id="a_edge31_Node000023_Node000024"><a xlink:title=" ">
<path fill="none" stroke="#63b8ff" d="M355,-327C347.55,-318.06 338.85,-307.62 332.75,-300.3"/>
<polygon fill="#63b8ff" stroke="#63b8ff" points="352.1,-328.99 361.19,-334.43 357.48,-324.51 352.1,-328.99"/>
</a>
</g>
</g>
<!-- Node25&#45;&gt;Node5 -->
<g id="edge35_Node000025_Node000005" class="edge">
<title>Node25&#45;&gt;Node5</title>
<g id="a_edge35_Node000025_Node000005"><a xlink:title=" ">
<path fill="none" stroke="#63b8ff" d="M573.14,-329.49C583.51,-322.02 594.23,-312.05 600,-300 647.95,-199.96 606.4,-57.27 594.15,-20.12"/>
<polygon fill="#63b8ff" stroke="#63b8ff" points="571.53,-326.36 565.13,-334.8 575.4,-332.2 571.53,-326.36"/>
</a>
</g>
</g>
<!-- Node26 -->
<g id="Node000026" class="node">
<title>Node26</title>
<g id="a_Node000026"><a xlink:href="_light_system_8cpp.html" target="_top" xlink:title="@TODO Add description of this file if needed">
<polygon fill="white" stroke="#666666" points="590.75,-300 501.25,-300 501.25,-280 590.75,-280 590.75,-300"/>
<text text-anchor="middle" x="546" y="-286.5" font-family="Helvetica,sans-Serif" font-size="10.00">LightSystem.cpp</text>
</a>
</g>
</g>
<!-- Node25&#45;&gt;Node26 -->
<g id="edge36_Node000025_Node000026" class="edge">
<title>Node25&#45;&gt;Node26</title>
<g id="a_edge36_Node000025_Node000026"><a xlink:title=" ">
<path fill="none" stroke="#63b8ff" d="M546,-324.13C546,-315.9 546,-306.85 546,-300.3"/>
<polygon fill="#63b8ff" stroke="#63b8ff" points="542.5,-324.08 546,-334.08 549.5,-324.08 542.5,-324.08"/>
</a>
</g>
</g>
<!-- Node27&#45;&gt;Node5 -->
<g id="edge38_Node000027_Node000005" class="edge">
<title>Node27&#45;&gt;Node5</title>
<g id="a_edge38_Node000027_Node000005"><a xlink:title=" ">
<path fill="none" stroke="#63b8ff" d="M560.51,-101.35C564.42,-93.58 568.71,-84.5 572,-76 579.47,-56.7 585.65,-33.22 588.78,-20.42"/>
<polygon fill="#63b8ff" stroke="#63b8ff" points="557.41,-99.73 555.9,-110.21 563.62,-102.95 557.41,-99.73"/>
</a>
</g>
</g>
<!-- Node27&#45;&gt;Node6 -->
<g id="edge39_Node000027_Node000006" class="edge">
<title>Node27&#45;&gt;Node6</title>
<g id="a_edge39_Node000027_Node000006"><a xlink:title=" ">
<path fill="none" stroke="#63b8ff" d="M537.09,-102.15C531.09,-93.4 524.23,-83.39 519.37,-76.3"/>
<polygon fill="#63b8ff" stroke="#63b8ff" points="534.16,-104.07 542.7,-110.35 539.93,-100.12 534.16,-104.07"/>
</a>
</g>
</g>
<!-- Node29&#45;&gt;Node5 -->
<g id="edge42_Node000029_Node000005" class="edge">
<title>Node29&#45;&gt;Node5</title>
<g id="a_edge42_Node000029_Node000005"><a xlink:title=" ">
<path fill="none" stroke="#63b8ff" d="M1039.95,-329.02C1049.89,-321.3 1060.76,-311.27 1068,-300 1084.26,-274.68 1087,-265.1 1087,-235 1087,-235 1087,-235 1087,-121 1087,-26.18 737.15,-13.04 625.09,-11.26"/>
<polygon fill="#63b8ff" stroke="#63b8ff" points="1038.08,-326.04 1032.08,-334.77 1042.22,-331.69 1038.08,-326.04"/>
</a>
</g>
</g>
<!-- Node30 -->
<g id="Node000030" class="node">
<title>Node30</title>
<g id="a_Node000030"><a xlink:href="_sun_system_8cpp.html" target="_top" xlink:title="@TODO Add description of this file if needed">
<polygon fill="white" stroke="#666666" points="1058.88,-300 973.12,-300 973.12,-280 1058.88,-280 1058.88,-300"/>
<text text-anchor="middle" x="1016" y="-286.5" font-family="Helvetica,sans-Serif" font-size="10.00">SunSystem.cpp</text>
</a>
</g>
</g>
<!-- Node29&#45;&gt;Node30 -->
<g id="edge43_Node000029_Node000030" class="edge">
<title>Node29&#45;&gt;Node30</title>
<g id="a_edge43_Node000029_Node000030"><a xlink:title=" ">
<path fill="none" stroke="#63b8ff" d="M1016,-324.13C1016,-315.9 1016,-306.85 1016,-300.3"/>
<polygon fill="#63b8ff" stroke="#63b8ff" points="1012.5,-324.08 1016,-334.08 1019.5,-324.08 1012.5,-324.08"/>
</a>
</g>
</g>
</g>
</svg>

<g id="navigator" transform="translate(0 0)" fill="#404254">
  <rect fill="#f2f5e9" fill-opacity="0.5" stroke="#606060" stroke-width=".5" x="0" y="0" width="60" height="60"/>
  <use id="zoomplus" xlink:href="#zoomPlus" x="17" y="9" onmousedown="handleZoom(evt,'in')"/>
  <use id="zoomminus" xlink:href="#zoomMin" x="42" y="9" onmousedown="handleZoom(evt,'out')"/>
  <use id="reset" xlink:href="#resetDef" x="30" y="36" onmousedown="handleReset()"/>
   <use id="arrowup" xlink:href="#arrowUp" x="0" y="0" onmousedown="handlePan(0,-1)"/>
  <use id="arrowright" xlink:href="#arrowRight" x="0" y="0" onmousedown="handlePan(1,0)"/>
  <use id="arrowdown" xlink:href="#arrowDown" x="0" y="0" onmousedown="handlePan(0,1)"/>
  <use id="arrowleft" xlink:href="#arrowLeft" x="0" y="0" onmousedown="handlePan(-1,0)"/>
</g>
<svg viewBox="0 0 15 15" width="100%" height="30px" preserveAspectRatio="xMaxYMin meet">
 <g id="arrow_out" transform="scale(0.3 0.3)">
  <a xlink:href="_material_8h__dep__incl_org.svg" target="_base">
   <rect id="button" ry="5" rx="5" y="6" x="6" height="38" width="38"
        fill="#f2f5e9" fill-opacity="0.5" stroke="#606060" stroke-width="1.0"/>
   <path id="arrow"
     d="M 11.500037,31.436501 C 11.940474,20.09759 22.043105,11.32322 32.158766,21.979434 L 37.068811,17.246167 C 37.068811,17.246167 37.088388,32 37.088388,32 L 22.160133,31.978069 C 22.160133,31.978069 26.997745,27.140456 26.997745,27.140456 C 18.528582,18.264221 13.291696,25.230495 11.500037,31.436501 z"
     style="fill:#404040;"/>
  </a>
 </g>
</svg>

<style type='text/css'>
<![CDATA[
[data-mouse-over-selected='false'] { opacity: 0.7; }
[data-mouse-over-selected='true']  { opacity: 1.0; }
]]>
</style>
<script type="application/ecmascript"><![CDATA[
document.addEventListener('DOMContentLoaded', (event) => {
  highlightEdges();
  highlightAdjacentNodes();
});
]]></script>
</svg>
