<?xml version="1.0" encoding="UTF-8" standalone="no"?>
<!DOCTYPE svg PUBLIC "-//W3C//DTD SVG 1.1//EN"
 "http://www.w3.org/Graphics/SVG/1.1/DTD/svg11.dtd">
<!-- Generated by graphviz version 11.0.0 (20240428.1522)
 -->
<!-- Title: ModelLoader.h Pages: 1 -->
<!--zoomable 344 -->

<svg id="main" version="1.1" xmlns="http://www.w3.org/2000/svg" xmlns:xlink="http://www.w3.org/1999/xlink" xml:space="preserve" onload="init(evt)">
<style type="text/css"><![CDATA[
.node, .edge {opacity: 0.7;}
.node.selected, .edge.selected {opacity: 1;}
.edge:hover path { stroke: red; }
.edge:hover polygon { stroke: red; fill: red; }
]]></style>

<defs>
  <circle id="rim" cx="0" cy="0" r="7"/>
  <circle id="rim2" cx="0" cy="0" r="3.5"/>
  <g id="zoomPlus">
    <use xlink:href="#rim" fill="#404040"><set attributeName="fill" to="#808080" begin="zoomplus.mouseover" end="zoomplus.mouseout"/></use>
    <path d="M-4,0h8M0,-4v8" fill="none" stroke="white" stroke-width="1.5" pointer-events="none"/>
  </g>
  <g id="zoomMin">
    <use xlink:href="#rim" fill="#404040"><set attributeName="fill" to="#808080" begin="zoomminus.mouseover" end="zoomminus.mouseout"/></use>
    <path d="M-4,0h8" fill="none" stroke="white" stroke-width="1.5" pointer-events="none"/>
  </g>
  <g id="arrowUp" transform="translate(30 24)">
    <use xlink:href="#rim"/>
    <path pointer-events="none" fill="none" stroke="white" stroke-width="1.5" d="M0,-3.0v7 M-2.5,-0.5L0,-3.0L2.5,-0.5"/>
  </g>
  <g id="arrowRight" transform="rotate(90) translate(36 -43)">
    <use xlink:href="#rim"/>
    <path pointer-events="none" fill="none" stroke="white" stroke-width="1.5" d="M0,-3.0v7 M-2.5,-0.5L0,-3.0L2.5,-0.5"/>
  </g>
  <g id="arrowDown" transform="rotate(180) translate(-30 -48)">
    <use xlink:href="#rim"/>
    <path pointer-events="none" fill="none" stroke="white" stroke-width="1.5" d="M0,-3.0v7 M-2.5,-0.5L0,-3.0L2.5,-0.5"/>
  </g>
  <g id="arrowLeft" transform="rotate(270) translate(-36 17)">
    <use xlink:href="#rim"/>
    <path pointer-events="none" fill="none" stroke="white" stroke-width="1.5" d="M0,-3.0v7 M-2.5,-0.5L0,-3.0L2.5,-0.5"/>
  </g>
  <g id="resetDef">
    <use xlink:href="#rim2" fill="#404040"><set attributeName="fill" to="#808080" begin="reset.mouseover" end="reset.mouseout"/></use>
  </g>
</defs>
<script type="application/ecmascript">
var viewWidth = 1269;
var viewHeight = 344;
var sectionId = 'dynsection-0';
</script>
<script type="application/ecmascript" xlink:href="svg.min.js"/>
<svg id="graph" class="graph">
<g id="viewport">
<title>ModelLoader.h</title>
<!-- Node1 -->
<g id="Node000001" class="node">
<title>Node1</title>
<g id="a_Node000001"><a xlink:title="@TODO Add description of this file if needed">
<polygon fill="#999999" stroke="#666666" points="735.5,-336 655.75,-336 655.75,-316 735.5,-316 735.5,-336"/>
<text text-anchor="middle" x="695.62" y="-322.5" font-family="Helvetica,sans-Serif" font-size="10.00">ModelLoader.h</text>
</a>
</g>
</g>
<!-- Node2 -->
<g id="Node000002" class="node">
<title>Node2</title>
<g id="a_Node000002"><a xlink:title=" ">
<polygon fill="#e0e0e0" stroke="#999999" points="593.62,-20 553.62,-20 553.62,0 593.62,0 593.62,-20"/>
<text text-anchor="middle" x="573.62" y="-6.5" font-family="Helvetica,sans-Serif" font-size="10.00">string</text>
</a>
</g>
</g>
<!-- Node1&#45;&gt;Node2 -->
<g id="edge1_Node000001_Node000002" class="edge">
<title>Node1&#45;&gt;Node2</title>
<g id="a_edge1_Node000001_Node000002"><a xlink:title=" ">
<path fill="none" stroke="#63b8ff" d="M735.94,-318.47C825.39,-302.83 1032.62,-259.82 1032.62,-197 1032.62,-197 1032.62,-197 1032.62,-127 1032.62,-94.33 1038.49,-77.18 1013.62,-56 982.65,-29.61 701.34,-16.07 605.46,-12.19"/>
<polygon fill="#63b8ff" stroke="#63b8ff" points="605.6,-8.7 595.47,-11.8 605.33,-15.69 605.6,-8.7"/>
</a>
</g>
</g>
<!-- Node3 -->
<g id="Node000003" class="node">
<title>Node3</title>
<g id="a_Node000003"><a xlink:title=" ">
<polygon fill="#e0e0e0" stroke="#999999" points="634.88,-274 530.38,-274 530.38,-254 634.88,-254 634.88,-274"/>
<text text-anchor="middle" x="582.62" y="-260.5" font-family="Helvetica,sans-Serif" font-size="10.00">assimp/Importer.hpp</text>
</a>
</g>
</g>
<!-- Node1&#45;&gt;Node3 -->
<g id="edge2_Node000001_Node000003" class="edge">
<title>Node1&#45;&gt;Node3</title>
<g id="a_edge2_Node000001_Node000003"><a xlink:title=" ">
<path fill="none" stroke="#63b8ff" d="M677.97,-315.62C659.81,-305.98 631.27,-290.83 610.14,-279.61"/>
<polygon fill="#63b8ff" stroke="#63b8ff" points="611.97,-276.62 601.49,-275.02 608.68,-282.8 611.97,-276.62"/>
</a>
</g>
</g>
<!-- Node4 -->
<g id="Node000004" class="node">
<title>Node4</title>
<g id="a_Node000004"><a xlink:title=" ">
<polygon fill="#e0e0e0" stroke="#999999" points="738.12,-274 653.12,-274 653.12,-254 738.12,-254 738.12,-274"/>
<text text-anchor="middle" x="695.62" y="-260.5" font-family="Helvetica,sans-Serif" font-size="10.00">assimp/scene.h</text>
</a>
</g>
</g>
<!-- Node1&#45;&gt;Node4 -->
<g id="edge3_Node000001_Node000004" class="edge">
<title>Node1&#45;&gt;Node4</title>
<g id="a_edge3_Node000001_Node000004"><a xlink:title=" ">
<path fill="none" stroke="#63b8ff" d="M695.62,-315.62C695.62,-307.56 695.62,-295.65 695.62,-285.41"/>
<polygon fill="#63b8ff" stroke="#63b8ff" points="699.13,-285.63 695.63,-275.63 692.13,-285.63 699.13,-285.63"/>
</a>
</g>
</g>
<!-- Node5 -->
<g id="Node000005" class="node">
<title>Node5</title>
<g id="a_Node000005"><a xlink:title=" ">
<polygon fill="#e0e0e0" stroke="#999999" points="868.62,-274 756.62,-274 756.62,-254 868.62,-254 868.62,-274"/>
<text text-anchor="middle" x="812.62" y="-260.5" font-family="Helvetica,sans-Serif" font-size="10.00">assimp/postprocess.h</text>
</a>
</g>
</g>
<!-- Node1&#45;&gt;Node5 -->
<g id="edge4_Node000001_Node000005" class="edge">
<title>Node1&#45;&gt;Node5</title>
<g id="a_edge4_Node000001_Node000005"><a xlink:title=" ">
<path fill="none" stroke="#63b8ff" d="M713.91,-315.62C732.8,-305.94 762.53,-290.69 784.43,-279.46"/>
<polygon fill="#63b8ff" stroke="#63b8ff" points="785.82,-282.68 793.13,-275 782.63,-276.45 785.82,-282.68"/>
</a>
</g>
</g>
<!-- Node6 -->
<g id="Node000006" class="node">
<title>Node6</title>
<g id="a_Node000006"><a xlink:href="_asserts_8h.html" target="_top" xlink:title="Set of macros for runtime and compile time assertions.">
<polygon fill="white" stroke="#666666" points="382.38,-280 280.88,-280 280.88,-248 382.38,-248 382.38,-280"/>
<text text-anchor="start" x="288.88" y="-266.5" font-family="Helvetica,sans-Serif" font-size="10.00">engine/core/asserts</text>
<text text-anchor="middle" x="331.62" y="-254.5" font-family="Helvetica,sans-Serif" font-size="10.00">/Asserts.h</text>
</a>
</g>
</g>
<!-- Node1&#45;&gt;Node6 -->
<g id="edge5_Node000001_Node000006" class="edge">
<title>Node1&#45;&gt;Node6</title>
<g id="a_edge5_Node000001_Node000006"><a xlink:title=" ">
<path fill="none" stroke="#63b8ff" d="M655.28,-318.35C591.9,-307.9 468.53,-287.57 393.76,-275.24"/>
<polygon fill="#63b8ff" stroke="#63b8ff" points="394.57,-271.83 384.14,-273.66 393.44,-278.74 394.57,-271.83"/>
</a>
</g>
</g>
<!-- Node6&#45;&gt;Node2 -->
<g id="edge8_Node000006_Node000002" class="edge">
<title>Node6&#45;&gt;Node2</title>
<g id="a_edge8_Node000006_Node000002"><a xlink:title=" ">
<path fill="none" stroke="#63b8ff" d="M382.63,-253.86C412.68,-246.49 450.08,-233.66 477.62,-212 537.01,-165.31 561.66,-72.85 570.01,-31.65"/>
<polygon fill="#63b8ff" stroke="#63b8ff" points="573.44,-32.37 571.85,-21.89 566.56,-31.07 573.44,-32.37"/>
</a>
</g>
</g>
<!-- Node7 -->
<g id="Node000007" class="node">
<title>Node7</title>
<g id="a_Node000007"><a xlink:title=" ">
<polygon fill="#e0e0e0" stroke="#999999" points="208.12,-206 165.12,-206 165.12,-186 208.12,-186 208.12,-206"/>
<text text-anchor="middle" x="186.62" y="-192.5" font-family="Helvetica,sans-Serif" font-size="10.00">cmath</text>
</a>
</g>
</g>
<!-- Node6&#45;&gt;Node7 -->
<g id="edge6_Node000006_Node000007" class="edge">
<title>Node6&#45;&gt;Node7</title>
<g id="a_edge6_Node000006_Node000007"><a xlink:title=" ">
<path fill="none" stroke="#63b8ff" d="M295.69,-247.57C272.91,-237.67 242.9,-224.39 216.62,-212 216.28,-211.84 215.93,-211.67 215.58,-211.51"/>
<polygon fill="#63b8ff" stroke="#63b8ff" points="217.17,-208.39 206.64,-207.16 214.11,-214.68 217.17,-208.39"/>
</a>
</g>
</g>
<!-- Node8 -->
<g id="Node000008" class="node">
<title>Node8</title>
<g id="a_Node000008"><a xlink:title=" ">
<polygon fill="#e0e0e0" stroke="#999999" points="265.25,-206 226,-206 226,-186 265.25,-186 265.25,-206"/>
<text text-anchor="middle" x="245.62" y="-192.5" font-family="Helvetica,sans-Serif" font-size="10.00">limits</text>
</a>
</g>
</g>
<!-- Node6&#45;&gt;Node8 -->
<g id="edge7_Node000006_Node000008" class="edge">
<title>Node6&#45;&gt;Node8</title>
<g id="a_edge7_Node000006_Node000008"><a xlink:title=" ">
<path fill="none" stroke="#63b8ff" d="M311.68,-247.69C298.13,-237.3 280.25,-223.57 266.51,-213.03"/>
<polygon fill="#63b8ff" stroke="#63b8ff" points="269.03,-210.55 258.97,-207.24 264.77,-216.1 269.03,-210.55"/>
</a>
</g>
</g>
<!-- Node9 -->
<g id="Node000009" class="node">
<title>Node9</title>
<g id="a_Node000009"><a xlink:title=" ">
<polygon fill="#e0e0e0" stroke="#999999" points="229.5,-138 167.75,-138 167.75,-118 229.5,-118 229.5,-138"/>
<text text-anchor="middle" x="198.62" y="-124.5" font-family="Helvetica,sans-Serif" font-size="10.00">type_traits</text>
</a>
</g>
</g>
<!-- Node6&#45;&gt;Node9 -->
<g id="edge9_Node000006_Node000009" class="edge">
<title>Node6&#45;&gt;Node9</title>
<g id="a_edge9_Node000006_Node000009"><a xlink:title=" ">
<path fill="none" stroke="#63b8ff" d="M323.45,-247.64C313.53,-229.94 295.5,-200.65 274.62,-180 260.4,-165.93 241.78,-153.36 226.53,-144.22"/>
<polygon fill="#63b8ff" stroke="#63b8ff" points="228.32,-141.21 217.91,-139.22 224.81,-147.27 228.32,-141.21"/>
</a>
</g>
</g>
<!-- Node10 -->
<g id="Node000010" class="node">
<title>Node10</title>
<g id="a_Node000010"><a xlink:title=" ">
<polygon fill="#e0e0e0" stroke="#999999" points="299.25,-138 248,-138 248,-118 299.25,-118 299.25,-138"/>
<text text-anchor="middle" x="273.62" y="-124.5" font-family="Helvetica,sans-Serif" font-size="10.00">sstream</text>
</a>
</g>
</g>
<!-- Node6&#45;&gt;Node10 -->
<g id="edge10_Node000006_Node000010" class="edge">
<title>Node6&#45;&gt;Node10</title>
<g id="a_edge10_Node000006_Node000010"><a xlink:title=" ">
<path fill="none" stroke="#63b8ff" d="M328.63,-247.5C325.01,-230.44 318.05,-202.45 307.62,-180 302.29,-168.52 294.57,-156.69 287.84,-147.32"/>
<polygon fill="#63b8ff" stroke="#63b8ff" points="290.76,-145.39 281.98,-139.47 285.15,-149.58 290.76,-145.39"/>
</a>
</g>
</g>
<!-- Node11 -->
<g id="Node000011" class="node">
<title>Node11</title>
<g id="a_Node000011"><a xlink:href="_assert_failed_exception_8h.html" target="_top" xlink:title="@TODO Add description of this file if needed">
<polygon fill="white" stroke="#666666" points="147.25,-212 0,-212 0,-180 147.25,-180 147.25,-212"/>
<text text-anchor="start" x="8" y="-198.5" font-family="Helvetica,sans-Serif" font-size="10.00">engine/core/exceptions</text>
<text text-anchor="middle" x="73.62" y="-186.5" font-family="Helvetica,sans-Serif" font-size="10.00">/core/AssertFailedException.h</text>
</a>
</g>
</g>
<!-- Node6&#45;&gt;Node11 -->
<g id="edge11_Node000006_Node000011" class="edge">
<title>Node6&#45;&gt;Node11</title>
<g id="a_edge11_Node000006_Node000011"><a xlink:title=" ">
<path fill="none" stroke="#63b8ff" d="M280.65,-249.96C241.88,-240.04 188.05,-226.27 144.99,-215.26"/>
<polygon fill="#63b8ff" stroke="#63b8ff" points="146.03,-211.91 135.48,-212.82 144.3,-218.69 146.03,-211.91"/>
</a>
</g>
</g>
<!-- Node15 -->
<g id="Node000015" class="node">
<title>Node15</title>
<g id="a_Node000015"><a xlink:href="_stringer_8h.html" target="_top" xlink:title="A set of functions for converting objects to strings.">
<polygon fill="white" stroke="#666666" points="469.12,-212 360.12,-212 360.12,-180 469.12,-180 469.12,-212"/>
<text text-anchor="start" x="368.12" y="-198.5" font-family="Helvetica,sans-Serif" font-size="10.00">engine/core/debugger</text>
<text text-anchor="middle" x="414.62" y="-186.5" font-family="Helvetica,sans-Serif" font-size="10.00">/Stringer.h</text>
</a>
</g>
</g>
<!-- Node6&#45;&gt;Node15 -->
<g id="edge16_Node000006_Node000015" class="edge">
<title>Node6&#45;&gt;Node15</title>
<g id="a_edge16_Node000006_Node000015"><a xlink:title=" ">
<path fill="none" stroke="#63b8ff" d="M350.88,-247.69C361.38,-239.34 374.59,-228.84 386.25,-219.56"/>
<polygon fill="#63b8ff" stroke="#63b8ff" points="388.36,-222.36 394.01,-213.4 384,-216.88 388.36,-222.36"/>
</a>
</g>
</g>
<!-- Node19 -->
<g id="Node000019" class="node">
<title>Node19</title>
<g id="a_Node000019"><a xlink:href="_logger_8h.html" target="_top" xlink:title="@TODO Add description of this file if needed">
<polygon fill="white" stroke="#666666" points="862.38,-144 766.88,-144 766.88,-112 862.38,-112 862.38,-144"/>
<text text-anchor="start" x="774.88" y="-130.5" font-family="Helvetica,sans-Serif" font-size="10.00">engine/core/logger</text>
<text text-anchor="middle" x="814.62" y="-118.5" font-family="Helvetica,sans-Serif" font-size="10.00">/Logger.h</text>
</a>
</g>
</g>
<!-- Node6&#45;&gt;Node19 -->
<g id="edge23_Node000006_Node000019" class="edge">
<title>Node6&#45;&gt;Node19</title>
<g id="a_edge23_Node000006_Node000019"><a xlink:title=" ">
<path fill="none" stroke="#63b8ff" d="M382.42,-253.8C430.69,-244.65 505.12,-229.49 568.62,-212 636.7,-193.26 713.58,-166.37 762.99,-148.33"/>
<polygon fill="#63b8ff" stroke="#63b8ff" points="764.11,-151.65 772.3,-144.92 761.7,-145.07 764.11,-151.65"/>
</a>
</g>
</g>
<!-- Node12 -->
<g id="Node000012" class="node">
<title>Node12</title>
<g id="a_Node000012"><a xlink:href="_engine_exception_8h.html" target="_top" xlink:title="Base exception class for any exception in the engine.">
<polygon fill="white" stroke="#666666" points="143.88,-144 27.38,-144 27.38,-112 143.88,-112 143.88,-144"/>
<text text-anchor="start" x="35.38" y="-130.5" font-family="Helvetica,sans-Serif" font-size="10.00">engine/core/exceptions</text>
<text text-anchor="middle" x="85.62" y="-118.5" font-family="Helvetica,sans-Serif" font-size="10.00">/EngineException.h</text>
</a>
</g>
</g>
<!-- Node11&#45;&gt;Node12 -->
<g id="edge12_Node000011_Node000012" class="edge">
<title>Node11&#45;&gt;Node12</title>
<g id="a_edge12_Node000011_Node000012"><a xlink:title=" ">
<path fill="none" stroke="#63b8ff" d="M76.41,-179.69C77.73,-172.45 79.34,-163.58 80.84,-155.3"/>
<polygon fill="#63b8ff" stroke="#63b8ff" points="84.24,-156.18 82.59,-145.71 77.35,-154.93 84.24,-156.18"/>
</a>
</g>
</g>
<!-- Node13 -->
<g id="Node000013" class="node">
<title>Node13</title>
<g id="a_Node000013"><a xlink:href="_base_exception_8h.html" target="_top" xlink:title=" ">
<polygon fill="white" stroke="#666666" points="309.75,-76 219.5,-76 219.5,-56 309.75,-56 309.75,-76"/>
<text text-anchor="middle" x="264.62" y="-62.5" font-family="Helvetica,sans-Serif" font-size="10.00">BaseException.h</text>
</a>
</g>
</g>
<!-- Node12&#45;&gt;Node13 -->
<g id="edge13_Node000012_Node000013" class="edge">
<title>Node12&#45;&gt;Node13</title>
<g id="a_edge13_Node000012_Node000013"><a xlink:title=" ">
<path fill="none" stroke="#63b8ff" d="M131.72,-111.55C160.76,-101.81 197.85,-89.38 225.47,-80.13"/>
<polygon fill="#63b8ff" stroke="#63b8ff" points="226.49,-83.47 234.86,-76.98 224.27,-76.84 226.49,-83.47"/>
</a>
</g>
</g>
<!-- Node13&#45;&gt;Node2 -->
<g id="edge15_Node000013_Node000002" class="edge">
<title>Node13&#45;&gt;Node2</title>
<g id="a_edge15_Node000013_Node000002"><a xlink:title=" ">
<path fill="none" stroke="#63b8ff" d="M310.22,-57.03C373.72,-45.94 487.15,-26.11 542.09,-16.51"/>
<polygon fill="#63b8ff" stroke="#63b8ff" points="542.45,-20 551.7,-14.83 541.25,-13.1 542.45,-20"/>
</a>
</g>
</g>
<!-- Node14 -->
<g id="Node000014" class="node">
<title>Node14</title>
<g id="a_Node000014"><a xlink:title=" ">
<polygon fill="#e0e0e0" stroke="#999999" points="294,-20 235.25,-20 235.25,0 294,0 294,-20"/>
<text text-anchor="middle" x="264.62" y="-6.5" font-family="Helvetica,sans-Serif" font-size="10.00">stdexcept</text>
</a>
</g>
</g>
<!-- Node13&#45;&gt;Node14 -->
<g id="edge14_Node000013_Node000014" class="edge">
<title>Node13&#45;&gt;Node14</title>
<g id="a_edge14_Node000013_Node000014"><a xlink:title=" ">
<path fill="none" stroke="#63b8ff" d="M264.62,-55.59C264.62,-49.01 264.62,-39.96 264.62,-31.73"/>
<polygon fill="#63b8ff" stroke="#63b8ff" points="268.13,-31.81 264.63,-21.81 261.13,-31.81 268.13,-31.81"/>
</a>
</g>
</g>
<!-- Node15&#45;&gt;Node2 -->
<g id="edge17_Node000015_Node000002" class="edge">
<title>Node15&#45;&gt;Node2</title>
<g id="a_edge17_Node000015_Node000002"><a xlink:title=" ">
<path fill="none" stroke="#63b8ff" d="M448.87,-179.62C465.21,-170.97 484.1,-158.9 497.62,-144 526.89,-111.77 518.11,-93.26 540.62,-56 546.12,-46.91 552.97,-37.34 558.99,-29.38"/>
<polygon fill="#63b8ff" stroke="#63b8ff" points="561.74,-31.56 565.1,-21.51 556.21,-27.27 561.74,-31.56"/>
</a>
</g>
</g>
<!-- Node15&#45;&gt;Node9 -->
<g id="edge19_Node000015_Node000009" class="edge">
<title>Node15&#45;&gt;Node9</title>
<g id="a_edge19_Node000015_Node000009"><a xlink:title=" ">
<path fill="none" stroke="#63b8ff" d="M359.98,-180.33C325.06,-170.67 278.93,-157.38 238.62,-144 236.92,-143.43 235.17,-142.84 233.41,-142.23"/>
<polygon fill="#63b8ff" stroke="#63b8ff" points="234.65,-138.95 224.06,-138.86 232.28,-145.54 234.65,-138.95"/>
</a>
</g>
</g>
<!-- Node15&#45;&gt;Node10 -->
<g id="edge18_Node000015_Node000010" class="edge">
<title>Node15&#45;&gt;Node10</title>
<g id="a_edge18_Node000015_Node000010"><a xlink:title=" ">
<path fill="none" stroke="#63b8ff" d="M381.57,-179.53C358.1,-168.54 326.83,-153.9 303.99,-143.21"/>
<polygon fill="#63b8ff" stroke="#63b8ff" points="305.75,-140.17 295.21,-139.1 302.78,-146.51 305.75,-140.17"/>
</a>
</g>
</g>
<!-- Node16 -->
<g id="Node000016" class="node">
<title>Node16</title>
<g id="a_Node000016"><a xlink:title=" ">
<polygon fill="#e0e0e0" stroke="#999999" points="367.5,-138 317.75,-138 317.75,-118 367.5,-118 367.5,-138"/>
<text text-anchor="middle" x="342.62" y="-124.5" font-family="Helvetica,sans-Serif" font-size="10.00">iomanip</text>
</a>
</g>
</g>
<!-- Node15&#45;&gt;Node16 -->
<g id="edge20_Node000015_Node000016" class="edge">
<title>Node15&#45;&gt;Node16</title>
<g id="a_edge20_Node000015_Node000016"><a xlink:title=" ">
<path fill="none" stroke="#63b8ff" d="M397.93,-179.69C386.91,-169.6 372.48,-156.36 361.12,-145.95"/>
<polygon fill="#63b8ff" stroke="#63b8ff" points="363.64,-143.52 353.9,-139.34 358.91,-148.68 363.64,-143.52"/>
</a>
</g>
</g>
<!-- Node17 -->
<g id="Node000017" class="node">
<title>Node17</title>
<g id="a_Node000017"><a xlink:title=" ">
<polygon fill="#e0e0e0" stroke="#999999" points="431.25,-138 386,-138 386,-118 431.25,-118 431.25,-138"/>
<text text-anchor="middle" x="408.62" y="-124.5" font-family="Helvetica,sans-Serif" font-size="10.00">cstdint</text>
</a>
</g>
</g>
<!-- Node15&#45;&gt;Node17 -->
<g id="edge21_Node000015_Node000017" class="edge">
<title>Node15&#45;&gt;Node17</title>
<g id="a_edge21_Node000015_Node000017"><a xlink:title=" ">
<path fill="none" stroke="#63b8ff" d="M413.23,-179.69C412.42,-170.8 411.39,-159.46 410.51,-149.77"/>
<polygon fill="#63b8ff" stroke="#63b8ff" points="414,-149.47 409.61,-139.82 407.03,-150.1 414,-149.47"/>
</a>
</g>
</g>
<!-- Node18 -->
<g id="Node000018" class="node">
<title>Node18</title>
<g id="a_Node000018"><a xlink:title=" ">
<polygon fill="#e0e0e0" stroke="#999999" points="488.25,-138 449,-138 449,-118 488.25,-118 488.25,-138"/>
<text text-anchor="middle" x="468.62" y="-124.5" font-family="Helvetica,sans-Serif" font-size="10.00">utility</text>
</a>
</g>
</g>
<!-- Node15&#45;&gt;Node18 -->
<g id="edge22_Node000015_Node000018" class="edge">
<title>Node15&#45;&gt;Node18</title>
<g id="a_edge22_Node000015_Node000018"><a xlink:title=" ">
<path fill="none" stroke="#63b8ff" d="M427.15,-179.69C435.08,-170 445.38,-157.41 453.73,-147.2"/>
<polygon fill="#63b8ff" stroke="#63b8ff" points="456.42,-149.44 460.04,-139.49 451,-145.01 456.42,-149.44"/>
</a>
</g>
</g>
<!-- Node19&#45;&gt;Node2 -->
<g id="edge24_Node000019_Node000002" class="edge">
<title>Node19&#45;&gt;Node2</title>
<g id="a_edge24_Node000019_Node000002"><a xlink:title=" ">
<path fill="none" stroke="#63b8ff" d="M766.65,-125.31C722.42,-121.53 656.96,-110.03 611.62,-76 596.45,-64.61 586.26,-45.23 580.29,-30.59"/>
<polygon fill="#63b8ff" stroke="#63b8ff" points="583.68,-29.68 576.92,-21.52 577.12,-32.12 583.68,-29.68"/>
</a>
</g>
</g>
<!-- Node20 -->
<g id="Node000020" class="node">
<title>Node20</title>
<g id="a_Node000020"><a xlink:title=" ">
<polygon fill="#e0e0e0" stroke="#999999" points="945.25,-76 894,-76 894,-56 945.25,-56 945.25,-76"/>
<text text-anchor="middle" x="919.62" y="-62.5" font-family="Helvetica,sans-Serif" font-size="10.00">memory</text>
</a>
</g>
</g>
<!-- Node19&#45;&gt;Node20 -->
<g id="edge25_Node000019_Node000020" class="edge">
<title>Node19&#45;&gt;Node20</title>
<g id="a_edge25_Node000019_Node000020"><a xlink:title=" ">
<path fill="none" stroke="#63b8ff" d="M841.67,-111.55C857.62,-102.43 877.7,-90.96 893.49,-81.93"/>
<polygon fill="#63b8ff" stroke="#63b8ff" points="894.9,-85.16 901.85,-77.16 891.43,-79.08 894.9,-85.16"/>
</a>
</g>
</g>
<!-- Node21 -->
<g id="Node000021" class="node">
<title>Node21</title>
<g id="a_Node000021"><a xlink:title=" ">
<polygon fill="#e0e0e0" stroke="#999999" points="1004.38,-76 962.88,-76 962.88,-56 1004.38,-56 1004.38,-76"/>
<text text-anchor="middle" x="983.62" y="-62.5" font-family="Helvetica,sans-Serif" font-size="10.00">vector</text>
</a>
</g>
</g>
<!-- Node19&#45;&gt;Node21 -->
<g id="edge26_Node000019_Node000021" class="edge">
<title>Node19&#45;&gt;Node21</title>
<g id="a_edge26_Node000019_Node000021"><a xlink:title=" ">
<path fill="none" stroke="#63b8ff" d="M858.15,-111.55C887.58,-101.1 925.78,-87.54 952.26,-78.14"/>
<polygon fill="#63b8ff" stroke="#63b8ff" points="953.15,-81.53 961.4,-74.89 950.81,-74.94 953.15,-81.53"/>
</a>
</g>
</g>
<!-- Node22 -->
<g id="Node000022" class="node">
<title>Node22</title>
<g id="a_Node000022"><a xlink:title=" ">
<polygon fill="#e0e0e0" stroke="#999999" points="678.25,-76 621,-76 621,-56 678.25,-56 678.25,-76"/>
<text text-anchor="middle" x="649.62" y="-62.5" font-family="Helvetica,sans-Serif" font-size="10.00">functional</text>
</a>
</g>
</g>
<!-- Node19&#45;&gt;Node22 -->
<g id="edge27_Node000019_Node000022" class="edge">
<title>Node19&#45;&gt;Node22</title>
<g id="a_edge27_Node000019_Node000022"><a xlink:title=" ">
<path fill="none" stroke="#63b8ff" d="M772.13,-111.55C745.52,-101.87 711.57,-89.53 686.16,-80.29"/>
<polygon fill="#63b8ff" stroke="#63b8ff" points="687.51,-77.05 676.92,-76.93 685.12,-83.63 687.51,-77.05"/>
</a>
</g>
</g>
<!-- Node23 -->
<g id="Node000023" class="node">
<title>Node23</title>
<g id="a_Node000023"><a xlink:title=" ">
<polygon fill="#e0e0e0" stroke="#999999" points="741.25,-76 696,-76 696,-56 741.25,-56 741.25,-76"/>
<text text-anchor="middle" x="718.62" y="-62.5" font-family="Helvetica,sans-Serif" font-size="10.00">atomic</text>
</a>
</g>
</g>
<!-- Node19&#45;&gt;Node23 -->
<g id="edge28_Node000019_Node000023" class="edge">
<title>Node19&#45;&gt;Node23</title>
<g id="a_edge28_Node000019_Node000023"><a xlink:title=" ">
<path fill="none" stroke="#63b8ff" d="M789.9,-111.55C775.6,-102.61 757.65,-91.39 743.35,-82.45"/>
<polygon fill="#63b8ff" stroke="#63b8ff" points="745.3,-79.54 734.96,-77.21 741.59,-85.48 745.3,-79.54"/>
</a>
</g>
</g>
<!-- Node24 -->
<g id="Node000024" class="node">
<title>Node24</title>
<g id="a_Node000024"><a xlink:title=" ">
<polygon fill="#e0e0e0" stroke="#999999" points="802.12,-76 759.12,-76 759.12,-56 802.12,-56 802.12,-76"/>
<text text-anchor="middle" x="780.62" y="-62.5" font-family="Helvetica,sans-Serif" font-size="10.00">thread</text>
</a>
</g>
</g>
<!-- Node19&#45;&gt;Node24 -->
<g id="edge29_Node000019_Node000024" class="edge">
<title>Node19&#45;&gt;Node24</title>
<g id="a_edge29_Node000019_Node000024"><a xlink:title=" ">
<path fill="none" stroke="#63b8ff" d="M805.87,-111.55C801.49,-103.82 796.15,-94.4 791.51,-86.21"/>
<polygon fill="#63b8ff" stroke="#63b8ff" points="794.68,-84.7 786.7,-77.72 788.59,-88.15 794.68,-84.7"/>
</a>
</g>
</g>
<!-- Node25 -->
<g id="Node000025" class="node">
<title>Node25</title>
<g id="a_Node000025"><a xlink:title=" ">
<polygon fill="#e0e0e0" stroke="#999999" points="1090.12,-20 1047.12,-20 1047.12,0 1090.12,0 1090.12,-20"/>
<text text-anchor="middle" x="1068.62" y="-6.5" font-family="Helvetica,sans-Serif" font-size="10.00">mutex</text>
</a>
</g>
</g>
<!-- Node19&#45;&gt;Node25 -->
<g id="edge30_Node000019_Node000025" class="edge">
<title>Node19&#45;&gt;Node25</title>
<g id="a_edge30_Node000019_Node000025"><a xlink:title=" ">
<path fill="none" stroke="#63b8ff" d="M862.47,-123C904.93,-117.61 967.23,-105.07 1013.62,-76 1032.17,-64.38 1047.66,-44.46 1057.43,-29.72"/>
<polygon fill="#63b8ff" stroke="#63b8ff" points="1060.31,-31.71 1062.68,-21.39 1054.39,-27.98 1060.31,-31.71"/>
</a>
</g>
</g>
<!-- Node26 -->
<g id="Node000026" class="node">
<title>Node26</title>
<g id="a_Node000026"><a xlink:href="_i_logger_8h.html" target="_top" xlink:title="Class that encapsulates the look and feel of the HUD.">
<polygon fill="white" stroke="#666666" points="875.5,-76 819.75,-76 819.75,-56 875.5,-56 875.5,-76"/>
<text text-anchor="middle" x="847.62" y="-62.5" font-family="Helvetica,sans-Serif" font-size="10.00">ILogger.h</text>
</a>
</g>
</g>
<!-- Node19&#45;&gt;Node26 -->
<g id="edge31_Node000019_Node000026" class="edge">
<title>Node19&#45;&gt;Node26</title>
<g id="a_edge31_Node000019_Node000026"><a xlink:title=" ">
<path fill="none" stroke="#63b8ff" d="M823.12,-111.55C827.32,-103.91 832.44,-94.61 836.91,-86.49"/>
<polygon fill="#63b8ff" stroke="#63b8ff" points="839.97,-88.18 841.72,-77.73 833.84,-84.81 839.97,-88.18"/>
</a>
</g>
</g>
<!-- Node27 -->
<g id="Node000027" class="node">
<title>Node27</title>
<g id="a_Node000027"><a xlink:href="_concurrent_queue_8h.html" target="_top" xlink:title="Concurrent queue implementation.">
<polygon fill="white" stroke="#666666" points="1202.62,-76 1102.62,-76 1102.62,-56 1202.62,-56 1202.62,-76"/>
<text text-anchor="middle" x="1152.62" y="-62.5" font-family="Helvetica,sans-Serif" font-size="10.00">ConcurrentQueue.h</text>
</a>
</g>
</g>
<!-- Node19&#45;&gt;Node27 -->
<g id="edge33_Node000019_Node000027" class="edge">
<title>Node19&#45;&gt;Node27</title>
<g id="a_edge33_Node000019_Node000027"><a xlink:title=" ">
<path fill="none" stroke="#63b8ff" d="M862.69,-118.47C922.74,-107.81 1025.55,-89.56 1091.23,-77.9"/>
<polygon fill="#63b8ff" stroke="#63b8ff" points="1091.52,-81.4 1100.75,-76.21 1090.29,-74.51 1091.52,-81.4"/>
</a>
</g>
</g>
<!-- Node26&#45;&gt;Node2 -->
<g id="edge32_Node000026_Node000002" class="edge">
<title>Node26&#45;&gt;Node2</title>
<g id="a_edge32_Node000026_Node000002"><a xlink:title=" ">
<path fill="none" stroke="#63b8ff" d="M819.36,-57.77C816.75,-57.15 814.14,-56.55 811.62,-56 738.1,-39.87 651.03,-24.3 605.31,-16.39"/>
<polygon fill="#63b8ff" stroke="#63b8ff" points="606.02,-12.96 595.57,-14.71 604.83,-19.86 606.02,-12.96"/>
</a>
</g>
</g>
<!-- Node27&#45;&gt;Node25 -->
<g id="edge35_Node000027_Node000025" class="edge">
<title>Node27&#45;&gt;Node25</title>
<g id="a_edge35_Node000027_Node000025"><a xlink:title=" ">
<path fill="none" stroke="#63b8ff" d="M1137.99,-55.59C1125.54,-47.59 1107.41,-35.93 1092.8,-26.54"/>
<polygon fill="#63b8ff" stroke="#63b8ff" points="1094.95,-23.76 1084.64,-21.3 1091.16,-29.65 1094.95,-23.76"/>
</a>
</g>
</g>
<!-- Node28 -->
<g id="Node000028" class="node">
<title>Node28</title>
<g id="a_Node000028"><a xlink:title=" ">
<polygon fill="#e0e0e0" stroke="#999999" points="1260.75,-20 1218.5,-20 1218.5,0 1260.75,0 1260.75,-20"/>
<text text-anchor="middle" x="1239.62" y="-6.5" font-family="Helvetica,sans-Serif" font-size="10.00">queue</text>
</a>
</g>
</g>
<!-- Node27&#45;&gt;Node28 -->
<g id="edge34_Node000027_Node000028" class="edge">
<title>Node27&#45;&gt;Node28</title>
<g id="a_edge34_Node000027_Node000028"><a xlink:title=" ">
<path fill="none" stroke="#63b8ff" d="M1167.78,-55.59C1180.67,-47.59 1199.46,-35.93 1214.58,-26.54"/>
<polygon fill="#63b8ff" stroke="#63b8ff" points="1216.42,-29.53 1223.07,-21.28 1212.72,-23.58 1216.42,-29.53"/>
</a>
</g>
</g>
<!-- Node29 -->
<g id="Node000029" class="node">
<title>Node29</title>
<g id="a_Node000029"><a xlink:title=" ">
<polygon fill="#e0e0e0" stroke="#999999" points="1200.88,-20 1108.38,-20 1108.38,0 1200.88,0 1200.88,-20"/>
<text text-anchor="middle" x="1154.62" y="-6.5" font-family="Helvetica,sans-Serif" font-size="10.00">condition_variable</text>
</a>
</g>
</g>
<!-- Node27&#45;&gt;Node29 -->
<g id="edge36_Node000027_Node000029" class="edge">
<title>Node27&#45;&gt;Node29</title>
<g id="a_edge36_Node000027_Node000029"><a xlink:title=" ">
<path fill="none" stroke="#63b8ff" d="M1152.97,-55.59C1153.22,-49.01 1153.55,-39.96 1153.86,-31.73"/>
<polygon fill="#63b8ff" stroke="#63b8ff" points="1157.35,-31.93 1154.22,-21.81 1150.36,-31.67 1157.35,-31.93"/>
</a>
</g>
</g>
</g>
</svg>

<g id="navigator" transform="translate(0 0)" fill="#404254">
  <rect fill="#f2f5e9" fill-opacity="0.5" stroke="#606060" stroke-width=".5" x="0" y="0" width="60" height="60"/>
  <use id="zoomplus" xlink:href="#zoomPlus" x="17" y="9" onmousedown="handleZoom(evt,'in')"/>
  <use id="zoomminus" xlink:href="#zoomMin" x="42" y="9" onmousedown="handleZoom(evt,'out')"/>
  <use id="reset" xlink:href="#resetDef" x="30" y="36" onmousedown="handleReset()"/>
   <use id="arrowup" xlink:href="#arrowUp" x="0" y="0" onmousedown="handlePan(0,-1)"/>
  <use id="arrowright" xlink:href="#arrowRight" x="0" y="0" onmousedown="handlePan(1,0)"/>
  <use id="arrowdown" xlink:href="#arrowDown" x="0" y="0" onmousedown="handlePan(0,1)"/>
  <use id="arrowleft" xlink:href="#arrowLeft" x="0" y="0" onmousedown="handlePan(-1,0)"/>
</g>
<svg viewBox="0 0 15 15" width="100%" height="30px" preserveAspectRatio="xMaxYMin meet">
 <g id="arrow_out" transform="scale(0.3 0.3)">
  <a xlink:href="_model_loader_8h__incl_org.svg" target="_base">
   <rect id="button" ry="5" rx="5" y="6" x="6" height="38" width="38"
        fill="#f2f5e9" fill-opacity="0.5" stroke="#606060" stroke-width="1.0"/>
   <path id="arrow"
     d="M 11.500037,31.436501 C 11.940474,20.09759 22.043105,11.32322 32.158766,21.979434 L 37.068811,17.246167 C 37.068811,17.246167 37.088388,32 37.088388,32 L 22.160133,31.978069 C 22.160133,31.978069 26.997745,27.140456 26.997745,27.140456 C 18.528582,18.264221 13.291696,25.230495 11.500037,31.436501 z"
     style="fill:#404040;"/>
  </a>
 </g>
</svg>

<style type='text/css'>
<![CDATA[
[data-mouse-over-selected='false'] { opacity: 0.7; }
[data-mouse-over-selected='true']  { opacity: 1.0; }
]]>
</style>
<script type="application/ecmascript"><![CDATA[
document.addEventListener('DOMContentLoaded', (event) => {
  highlightEdges();
  highlightAdjacentNodes();
});
]]></script>
</svg>
