<?xml version="1.0" encoding="UTF-8" standalone="no"?>
<!DOCTYPE svg PUBLIC "-//W3C//DTD SVG 1.1//EN"
 "http://www.w3.org/Graphics/SVG/1.1/DTD/svg11.dtd">
<!-- Generated by graphviz version 11.0.0 (20240428.1522)
 -->
<!-- Title: MouseCommand.h Pages: 1 -->
<svg width="1246pt" height="672pt"
 viewBox="0.00 0.00 1245.62 672.00" xmlns="http://www.w3.org/2000/svg" xmlns:xlink="http://www.w3.org/1999/xlink">
<g id="graph0" class="graph" transform="scale(1 1) rotate(0) translate(4 668)">
<title>MouseCommand.h</title>
<!-- Node1 -->
<g id="Node000001" class="node">
<title>Node1</title>
<g id="a_Node000001"><a xlink:title="@TODO Add description of this file if needed">
<polygon fill="#999999" stroke="#666666" points="218.5,-664 120.75,-664 120.75,-644 218.5,-644 218.5,-664"/>
<text text-anchor="middle" x="169.62" y="-650.5" font-family="Helvetica,sans-Serif" font-size="10.00">MouseCommand.h</text>
</a>
</g>
</g>
<!-- Node2 -->
<g id="Node000002" class="node">
<title>Node2</title>
<g id="a_Node000002"><a xlink:title=" ">
<polygon fill="#e0e0e0" stroke="#999999" points="57.25,-138 0,-138 0,-118 57.25,-118 57.25,-138"/>
<text text-anchor="middle" x="28.62" y="-124.5" font-family="Helvetica,sans-Serif" font-size="10.00">functional</text>
</a>
</g>
</g>
<!-- Node1&#45;&gt;Node2 -->
<g id="edge1_Node000001_Node000002" class="edge">
<title>Node1&#45;&gt;Node2</title>
<g id="a_edge1_Node000001_Node000002"><a xlink:title=" ">
<path fill="none" stroke="#63b8ff" d="M131.71,-643.54C84.39,-629.2 9.62,-597.04 9.62,-537 9.62,-537 9.62,-537 9.62,-263 9.62,-222.41 18.28,-175.59 23.9,-149.43"/>
<polygon fill="#63b8ff" stroke="#63b8ff" points="27.28,-150.36 26.04,-139.84 20.45,-148.83 27.28,-150.36"/>
</a>
</g>
</g>
<!-- Node3 -->
<g id="Node000003" class="node">
<title>Node3</title>
<g id="a_Node000003"><a xlink:href="_input_types_8h.html" target="_top" xlink:title="@TODO Add description of this file if needed">
<polygon fill="white" stroke="#666666" points="327.38,-608 255.88,-608 255.88,-588 327.38,-588 327.38,-608"/>
<text text-anchor="middle" x="291.62" y="-594.5" font-family="Helvetica,sans-Serif" font-size="10.00">InputTypes.h</text>
</a>
</g>
</g>
<!-- Node1&#45;&gt;Node3 -->
<g id="edge2_Node000001_Node000003" class="edge">
<title>Node1&#45;&gt;Node3</title>
<g id="a_edge2_Node000001_Node000003"><a xlink:title=" ">
<path fill="none" stroke="#63b8ff" d="M190.88,-643.59C209.91,-635.17 238.1,-622.69 259.83,-613.07"/>
<polygon fill="#63b8ff" stroke="#63b8ff" points="261.1,-616.34 268.82,-609.09 258.26,-609.94 261.1,-616.34"/>
</a>
</g>
</g>
<!-- Node4 -->
<g id="Node000004" class="node">
<title>Node4</title>
<g id="a_Node000004"><a xlink:title=" ">
<polygon fill="#e0e0e0" stroke="#999999" points="264,-546 181.25,-546 181.25,-526 264,-526 264,-546"/>
<text text-anchor="middle" x="222.62" y="-532.5" font-family="Helvetica,sans-Serif" font-size="10.00">unordered_map</text>
</a>
</g>
</g>
<!-- Node3&#45;&gt;Node4 -->
<g id="edge3_Node000003_Node000004" class="edge">
<title>Node3&#45;&gt;Node4</title>
<g id="a_edge3_Node000003_Node000004"><a xlink:title=" ">
<path fill="none" stroke="#63b8ff" d="M280.84,-587.62C270.35,-578.5 254.19,-564.45 241.55,-553.46"/>
<polygon fill="#63b8ff" stroke="#63b8ff" points="244.09,-551.03 234.25,-547.11 239.5,-556.31 244.09,-551.03"/>
</a>
</g>
</g>
<!-- Node5 -->
<g id="Node000005" class="node">
<title>Node5</title>
<g id="a_Node000005"><a xlink:href="_input_keys_8h.html" target="_top" xlink:title="@TODO Add description of this file if needed">
<polygon fill="white" stroke="#666666" points="1089.5,-546 1021.75,-546 1021.75,-526 1089.5,-526 1089.5,-546"/>
<text text-anchor="middle" x="1055.62" y="-532.5" font-family="Helvetica,sans-Serif" font-size="10.00">InputKeys.h</text>
</a>
</g>
</g>
<!-- Node3&#45;&gt;Node5 -->
<g id="edge4_Node000003_Node000005" class="edge">
<title>Node3&#45;&gt;Node5</title>
<g id="a_edge4_Node000003_Node000005"><a xlink:title=" ">
<path fill="none" stroke="#63b8ff" d="M327.7,-594.17C453.3,-584.3 871.24,-551.48 1010.24,-540.56"/>
<polygon fill="#63b8ff" stroke="#63b8ff" points="1010.46,-544.06 1020.15,-539.79 1009.91,-537.08 1010.46,-544.06"/>
</a>
</g>
</g>
<!-- Node8 -->
<g id="Node000008" class="node">
<title>Node8</title>
<g id="a_Node000008"><a xlink:href="_vector_8h.html" target="_top" xlink:title=" ">
<polygon fill="white" stroke="#666666" points="525.38,-552 399.88,-552 399.88,-520 525.38,-520 525.38,-552"/>
<text text-anchor="start" x="407.88" y="-538.5" font-family="Helvetica,sans-Serif" font-size="10.00">engine/core/math/algebra</text>
<text text-anchor="middle" x="462.62" y="-526.5" font-family="Helvetica,sans-Serif" font-size="10.00">/vector/Vector.h</text>
</a>
</g>
</g>
<!-- Node3&#45;&gt;Node8 -->
<g id="edge7_Node000003_Node000008" class="edge">
<title>Node3&#45;&gt;Node8</title>
<g id="a_edge7_Node000003_Node000008"><a xlink:title=" ">
<path fill="none" stroke="#63b8ff" d="M318.34,-587.62C342.19,-579.26 377.85,-566.75 407.75,-556.25"/>
<polygon fill="#63b8ff" stroke="#63b8ff" points="408.77,-559.61 417.05,-552.99 406.45,-553 408.77,-559.61"/>
</a>
</g>
</g>
<!-- Node44 -->
<g id="Node000044" class="node">
<title>Node44</title>
<g id="a_Node000044"><a xlink:href="_hasher_8h.html" target="_top" xlink:title="@TODO Add description of this file if needed">
<polygon fill="white" stroke="#666666" points="169.75,-478 37.5,-478 37.5,-458 169.75,-458 169.75,-478"/>
<text text-anchor="middle" x="103.62" y="-464.5" font-family="Helvetica,sans-Serif" font-size="10.00">engine/core/hash/Hasher.h</text>
</a>
</g>
</g>
<!-- Node3&#45;&gt;Node44 -->
<g id="edge64_Node000003_Node000044" class="edge">
<title>Node3&#45;&gt;Node44</title>
<g id="a_edge64_Node000003_Node000044"><a xlink:title=" ">
<path fill="none" stroke="#63b8ff" d="M292.09,-587.56C292.34,-571.5 290.45,-538.77 272.62,-520 257.56,-504.14 206.75,-490.11 164.74,-480.8"/>
<polygon fill="#63b8ff" stroke="#63b8ff" points="165.72,-477.43 155.2,-478.74 164.24,-484.27 165.72,-477.43"/>
</a>
</g>
</g>
<!-- Node6 -->
<g id="Node000006" class="node">
<title>Node6</title>
<g id="a_Node000006"><a xlink:title=" ">
<polygon fill="#e0e0e0" stroke="#999999" points="1237.62,-478 1125.62,-478 1125.62,-458 1237.62,-458 1237.62,-478"/>
<text text-anchor="middle" x="1181.62" y="-464.5" font-family="Helvetica,sans-Serif" font-size="10.00">SDL2/SDL_keycode.h</text>
</a>
</g>
</g>
<!-- Node5&#45;&gt;Node6 -->
<g id="edge5_Node000005_Node000006" class="edge">
<title>Node5&#45;&gt;Node6</title>
<g id="a_edge5_Node000005_Node000006"><a xlink:title=" ">
<path fill="none" stroke="#63b8ff" d="M1073.68,-525.54C1094.54,-514.61 1129.13,-496.5 1153.52,-483.72"/>
<polygon fill="#63b8ff" stroke="#63b8ff" points="1155.03,-486.88 1162.27,-479.14 1151.78,-480.68 1155.03,-486.88"/>
</a>
</g>
</g>
<!-- Node7 -->
<g id="Node000007" class="node">
<title>Node7</title>
<g id="a_Node000007"><a xlink:title=" ">
<polygon fill="#e0e0e0" stroke="#999999" points="1107.88,-478 1003.38,-478 1003.38,-458 1107.88,-458 1107.88,-478"/>
<text text-anchor="middle" x="1055.62" y="-464.5" font-family="Helvetica,sans-Serif" font-size="10.00">SDL2/SDL_mouse.h</text>
</a>
</g>
</g>
<!-- Node5&#45;&gt;Node7 -->
<g id="edge6_Node000005_Node000007" class="edge">
<title>Node5&#45;&gt;Node7</title>
<g id="a_edge6_Node000005_Node000007"><a xlink:title=" ">
<path fill="none" stroke="#63b8ff" d="M1055.62,-525.54C1055.62,-516.23 1055.62,-501.7 1055.62,-489.7"/>
<polygon fill="#63b8ff" stroke="#63b8ff" points="1059.13,-489.95 1055.63,-479.95 1052.13,-489.95 1059.13,-489.95"/>
</a>
</g>
</g>
<!-- Node9 -->
<g id="Node000009" class="node">
<title>Node9</title>
<g id="a_Node000009"><a xlink:title=" ">
<polygon fill="#e0e0e0" stroke="#999999" points="998.5,-138 936.75,-138 936.75,-118 998.5,-118 998.5,-138"/>
<text text-anchor="middle" x="967.62" y="-124.5" font-family="Helvetica,sans-Serif" font-size="10.00">type_traits</text>
</a>
</g>
</g>
<!-- Node8&#45;&gt;Node9 -->
<g id="edge8_Node000008_Node000009" class="edge">
<title>Node8&#45;&gt;Node9</title>
<g id="a_edge8_Node000008_Node000009"><a xlink:title=" ">
<path fill="none" stroke="#63b8ff" d="M525.51,-531.95C615.82,-524.66 783.64,-499.92 895.62,-416 928.11,-391.65 941.16,-385.54 956.62,-348 984.69,-279.86 976.6,-189.54 970.99,-149.55"/>
<polygon fill="#63b8ff" stroke="#63b8ff" points="974.46,-149.09 969.49,-139.73 967.54,-150.14 974.46,-149.09"/>
</a>
</g>
</g>
<!-- Node10 -->
<g id="Node000010" class="node">
<title>Node10</title>
<g id="a_Node000010"><a xlink:title=" ">
<polygon fill="#e0e0e0" stroke="#999999" points="359.12,-206 316.12,-206 316.12,-186 359.12,-186 359.12,-206"/>
<text text-anchor="middle" x="337.62" y="-192.5" font-family="Helvetica,sans-Serif" font-size="10.00">cmath</text>
</a>
</g>
</g>
<!-- Node8&#45;&gt;Node10 -->
<g id="edge9_Node000008_Node000010" class="edge">
<title>Node8&#45;&gt;Node10</title>
<g id="a_edge9_Node000008_Node000010"><a xlink:title=" ">
<path fill="none" stroke="#63b8ff" d="M401.32,-519.61C381.2,-511.86 360.26,-500.49 345.62,-484 320.04,-455.19 320.62,-439.53 320.62,-401 320.62,-401 320.62,-401 320.62,-331 320.62,-290.49 328.36,-243.64 333.4,-217.45"/>
<polygon fill="#63b8ff" stroke="#63b8ff" points="336.79,-218.35 335.31,-207.86 329.92,-216.98 336.79,-218.35"/>
</a>
</g>
</g>
<!-- Node11 -->
<g id="Node000011" class="node">
<title>Node11</title>
<g id="a_Node000011"><a xlink:title=" ">
<polygon fill="#e0e0e0" stroke="#999999" points="581.62,-20 541.62,-20 541.62,0 581.62,0 581.62,-20"/>
<text text-anchor="middle" x="561.62" y="-6.5" font-family="Helvetica,sans-Serif" font-size="10.00">string</text>
</a>
</g>
</g>
<!-- Node8&#45;&gt;Node11 -->
<g id="edge10_Node000008_Node000011" class="edge">
<title>Node8&#45;&gt;Node11</title>
<g id="a_edge10_Node000008_Node000011"><a xlink:title=" ">
<path fill="none" stroke="#63b8ff" d="M399.52,-521.72C373.42,-513.93 344.08,-501.97 321.62,-484 238.52,-417.5 33.77,-133.59 106.62,-56 135.57,-25.17 431.64,-14.48 530.03,-11.77"/>
<polygon fill="#63b8ff" stroke="#63b8ff" points="529.86,-15.28 539.76,-11.51 529.67,-8.28 529.86,-15.28"/>
</a>
</g>
</g>
<!-- Node12 -->
<g id="Node000012" class="node">
<title>Node12</title>
<g id="a_Node000012"><a xlink:href="_math_8h.html" target="_top" xlink:title=" ">
<polygon fill="white" stroke="#666666" points="570.62,-342 446.62,-342 446.62,-322 570.62,-322 570.62,-342"/>
<text text-anchor="middle" x="508.62" y="-328.5" font-family="Helvetica,sans-Serif" font-size="10.00">engine/core/math/Math.h</text>
</a>
</g>
</g>
<!-- Node8&#45;&gt;Node12 -->
<g id="edge11_Node000008_Node000012" class="edge">
<title>Node8&#45;&gt;Node12</title>
<g id="a_edge11_Node000008_Node000012"><a xlink:title=" ">
<path fill="none" stroke="#63b8ff" d="M472.69,-519.57C478.59,-509.78 485.64,-496.61 489.62,-484 503.84,-439.01 507.47,-383.31 508.36,-353.74"/>
<polygon fill="#63b8ff" stroke="#63b8ff" points="511.86,-354.03 508.57,-343.95 504.86,-353.88 511.86,-354.03"/>
</a>
</g>
</g>
<!-- Node36 -->
<g id="Node000036" class="node">
<title>Node36</title>
<g id="a_Node000036"><a xlink:href="_vector_asserts_8h.html" target="_top" xlink:title="Contains custom asserts for vectors.">
<polygon fill="white" stroke="#666666" points="480.75,-484 354.5,-484 354.5,-452 480.75,-452 480.75,-484"/>
<text text-anchor="start" x="362.5" y="-470.5" font-family="Helvetica,sans-Serif" font-size="10.00">engine/core/math/asserts</text>
<text text-anchor="middle" x="417.62" y="-458.5" font-family="Helvetica,sans-Serif" font-size="10.00">/VectorAsserts.h</text>
</a>
</g>
</g>
<!-- Node8&#45;&gt;Node36 -->
<g id="edge48_Node000008_Node000036" class="edge">
<title>Node8&#45;&gt;Node36</title>
<g id="a_edge48_Node000008_Node000036"><a xlink:title=" ">
<path fill="none" stroke="#63b8ff" d="M452.19,-519.69C446.91,-511.95 440.36,-502.35 434.4,-493.6"/>
<polygon fill="#63b8ff" stroke="#63b8ff" points="437.38,-491.77 428.86,-485.48 431.6,-495.71 437.38,-491.77"/>
</a>
</g>
</g>
<!-- Node38 -->
<g id="Node000038" class="node">
<title>Node38</title>
<g id="a_Node000038"><a xlink:href="_vector_algorithms_8h.html" target="_top" xlink:title="@TODO Add description of this file">
<polygon fill="white" stroke="#666666" points="887,-416 756.25,-416 756.25,-384 887,-384 887,-416"/>
<text text-anchor="start" x="764.25" y="-402.5" font-family="Helvetica,sans-Serif" font-size="10.00">engine/core/math/algebra</text>
<text text-anchor="middle" x="821.62" y="-390.5" font-family="Helvetica,sans-Serif" font-size="10.00">/vector/VectorAlgorithms.h</text>
</a>
</g>
</g>
<!-- Node8&#45;&gt;Node38 -->
<g id="edge51_Node000008_Node000038" class="edge">
<title>Node8&#45;&gt;Node38</title>
<g id="a_edge51_Node000008_Node000038"><a xlink:title=" ">
<path fill="none" stroke="#63b8ff" d="M525.68,-530.3C578.21,-524.52 653.96,-511.8 714.62,-484 746.83,-469.24 778.2,-443.1 798.56,-424.08"/>
<polygon fill="#63b8ff" stroke="#63b8ff" points="800.93,-426.66 805.74,-417.22 796.09,-421.6 800.93,-426.66"/>
</a>
</g>
</g>
<!-- Node42 -->
<g id="Node000042" class="node">
<title>Node42</title>
<g id="a_Node000042"><a xlink:href="_vector_mixed_algorithms_8h.html" target="_top" xlink:title=" ">
<polygon fill="white" stroke="#666666" points="705.12,-484 548.12,-484 548.12,-452 705.12,-452 705.12,-484"/>
<text text-anchor="start" x="556.12" y="-470.5" font-family="Helvetica,sans-Serif" font-size="10.00">engine/core/math/algebra</text>
<text text-anchor="middle" x="626.62" y="-458.5" font-family="Helvetica,sans-Serif" font-size="10.00">/vector/VectorMixedAlgorithms.h</text>
</a>
</g>
</g>
<!-- Node8&#45;&gt;Node42 -->
<g id="edge57_Node000008_Node000042" class="edge">
<title>Node8&#45;&gt;Node42</title>
<g id="a_edge57_Node000008_Node000042"><a xlink:title=" ">
<path fill="none" stroke="#63b8ff" d="M501.08,-519.53C523.92,-510.33 553.12,-498.58 577.61,-488.73"/>
<polygon fill="#63b8ff" stroke="#63b8ff" points="578.76,-492.04 586.73,-485.06 576.14,-485.54 578.76,-492.04"/>
</a>
</g>
</g>
<!-- Node12&#45;&gt;Node9 -->
<g id="edge12_Node000012_Node000009" class="edge">
<title>Node12&#45;&gt;Node9</title>
<g id="a_edge12_Node000012_Node000009"><a xlink:title=" ">
<path fill="none" stroke="#63b8ff" d="M530.43,-321.54C579.26,-300.38 693.86,-250.81 702.62,-248 773.26,-225.31 798.83,-244.28 865.62,-212 899.7,-195.53 932.41,-165.6 951.24,-146.53"/>
<polygon fill="#63b8ff" stroke="#63b8ff" points="953.61,-149.11 958.04,-139.48 948.58,-144.25 953.61,-149.11"/>
</a>
</g>
</g>
<!-- Node12&#45;&gt;Node10 -->
<g id="edge15_Node000012_Node000010" class="edge">
<title>Node12&#45;&gt;Node10</title>
<g id="a_edge15_Node000012_Node000010"><a xlink:title=" ">
<path fill="none" stroke="#63b8ff" d="M460.96,-321.58C433.82,-314.16 400.74,-301.38 377.62,-280 359.31,-263.06 348.47,-235.96 342.79,-217.37"/>
<polygon fill="#63b8ff" stroke="#63b8ff" points="346.17,-216.48 340.12,-207.78 339.43,-218.35 346.17,-216.48"/>
</a>
</g>
</g>
<!-- Node13 -->
<g id="Node000013" class="node">
<title>Node13</title>
<g id="a_Node000013"><a xlink:title=" ">
<polygon fill="#e0e0e0" stroke="#999999" points="617.75,-274 569.5,-274 569.5,-254 617.75,-254 617.75,-274"/>
<text text-anchor="middle" x="593.62" y="-260.5" font-family="Helvetica,sans-Serif" font-size="10.00">random</text>
</a>
</g>
</g>
<!-- Node12&#45;&gt;Node13 -->
<g id="edge13_Node000012_Node000013" class="edge">
<title>Node12&#45;&gt;Node13</title>
<g id="a_edge13_Node000012_Node000013"><a xlink:title=" ">
<path fill="none" stroke="#63b8ff" d="M520.8,-321.54C534.31,-311.06 556.34,-293.95 572.64,-281.29"/>
<polygon fill="#63b8ff" stroke="#63b8ff" points="574.52,-284.26 580.27,-275.37 570.23,-278.74 574.52,-284.26"/>
</a>
</g>
</g>
<!-- Node14 -->
<g id="Node000014" class="node">
<title>Node14</title>
<g id="a_Node000014"><a xlink:title=" ">
<polygon fill="#e0e0e0" stroke="#999999" points="551.25,-274 506,-274 506,-254 551.25,-254 551.25,-274"/>
<text text-anchor="middle" x="528.62" y="-260.5" font-family="Helvetica,sans-Serif" font-size="10.00">cstring</text>
</a>
</g>
</g>
<!-- Node12&#45;&gt;Node14 -->
<g id="edge14_Node000012_Node000014" class="edge">
<title>Node12&#45;&gt;Node14</title>
<g id="a_edge14_Node000012_Node000014"><a xlink:title=" ">
<path fill="none" stroke="#63b8ff" d="M511.49,-321.54C514.34,-312.13 518.81,-297.39 522.47,-285.32"/>
<polygon fill="#63b8ff" stroke="#63b8ff" points="525.78,-286.47 525.33,-275.89 519.08,-284.44 525.78,-286.47"/>
</a>
</g>
</g>
<!-- Node15 -->
<g id="Node000015" class="node">
<title>Node15</title>
<g id="a_Node000015"><a xlink:href="_asserts_8h.html" target="_top" xlink:title="Set of macros for runtime and compile time assertions.">
<polygon fill="white" stroke="#666666" points="488.38,-280 386.88,-280 386.88,-248 488.38,-248 488.38,-280"/>
<text text-anchor="start" x="394.88" y="-266.5" font-family="Helvetica,sans-Serif" font-size="10.00">engine/core/asserts</text>
<text text-anchor="middle" x="437.62" y="-254.5" font-family="Helvetica,sans-Serif" font-size="10.00">/Asserts.h</text>
</a>
</g>
</g>
<!-- Node12&#45;&gt;Node15 -->
<g id="edge16_Node000012_Node000015" class="edge">
<title>Node12&#45;&gt;Node15</title>
<g id="a_edge16_Node000012_Node000015"><a xlink:title=" ">
<path fill="none" stroke="#63b8ff" d="M498.45,-321.54C489.04,-312.8 474.68,-299.45 462.28,-287.92"/>
<polygon fill="#63b8ff" stroke="#63b8ff" points="464.9,-285.58 455.19,-281.33 460.14,-290.7 464.9,-285.58"/>
</a>
</g>
</g>
<!-- Node15&#45;&gt;Node9 -->
<g id="edge20_Node000015_Node000009" class="edge">
<title>Node15&#45;&gt;Node9</title>
<g id="a_edge20_Node000015_Node000009"><a xlink:title=" ">
<path fill="none" stroke="#63b8ff" d="M488.69,-249.55C491.37,-248.99 494.02,-248.47 496.62,-248 643.57,-221.54 691.62,-266.49 830.62,-212 852.8,-203.31 853.55,-192.82 873.62,-180 894.65,-166.57 919.5,-153.19 938.37,-143.5"/>
<polygon fill="#63b8ff" stroke="#63b8ff" points="939.76,-146.72 947.09,-139.08 936.59,-140.48 939.76,-146.72"/>
</a>
</g>
</g>
<!-- Node15&#45;&gt;Node10 -->
<g id="edge17_Node000015_Node000010" class="edge">
<title>Node15&#45;&gt;Node10</title>
<g id="a_edge17_Node000015_Node000010"><a xlink:title=" ">
<path fill="none" stroke="#63b8ff" d="M414.18,-247.53C398.21,-236.99 377.15,-223.09 361.17,-212.54"/>
<polygon fill="#63b8ff" stroke="#63b8ff" points="363.5,-209.88 353.22,-207.29 359.64,-215.72 363.5,-209.88"/>
</a>
</g>
</g>
<!-- Node15&#45;&gt;Node11 -->
<g id="edge19_Node000015_Node000011" class="edge">
<title>Node15&#45;&gt;Node11</title>
<g id="a_edge19_Node000015_Node000011"><a xlink:title=" ">
<path fill="none" stroke="#63b8ff" d="M462.76,-247.5C502.76,-222.24 577.77,-172.21 591.62,-144 610.24,-106.09 588.34,-56.42 573.35,-29.8"/>
<polygon fill="#63b8ff" stroke="#63b8ff" points="576.55,-28.33 568.44,-21.5 570.52,-31.89 576.55,-28.33"/>
</a>
</g>
</g>
<!-- Node16 -->
<g id="Node000016" class="node">
<title>Node16</title>
<g id="a_Node000016"><a xlink:title=" ">
<polygon fill="#e0e0e0" stroke="#999999" points="655.25,-206 616,-206 616,-186 655.25,-186 655.25,-206"/>
<text text-anchor="middle" x="635.62" y="-192.5" font-family="Helvetica,sans-Serif" font-size="10.00">limits</text>
</a>
</g>
</g>
<!-- Node15&#45;&gt;Node16 -->
<g id="edge18_Node000015_Node000016" class="edge">
<title>Node15&#45;&gt;Node16</title>
<g id="a_edge18_Node000015_Node000016"><a xlink:title=" ">
<path fill="none" stroke="#63b8ff" d="M488.74,-248.74C521.35,-239.24 564.35,-225.97 601.62,-212 602.77,-211.57 603.94,-211.12 605.11,-210.66"/>
<polygon fill="#63b8ff" stroke="#63b8ff" points="606.36,-213.93 614.25,-206.85 603.67,-207.47 606.36,-213.93"/>
</a>
</g>
</g>
<!-- Node17 -->
<g id="Node000017" class="node">
<title>Node17</title>
<g id="a_Node000017"><a xlink:title=" ">
<polygon fill="#e0e0e0" stroke="#999999" points="690.25,-138 639,-138 639,-118 690.25,-118 690.25,-138"/>
<text text-anchor="middle" x="664.62" y="-124.5" font-family="Helvetica,sans-Serif" font-size="10.00">sstream</text>
</a>
</g>
</g>
<!-- Node15&#45;&gt;Node17 -->
<g id="edge21_Node000015_Node000017" class="edge">
<title>Node15&#45;&gt;Node17</title>
<g id="a_edge21_Node000015_Node000017"><a xlink:title=" ">
<path fill="none" stroke="#63b8ff" d="M485.31,-247.58C509.59,-238.78 539.08,-226.59 563.62,-212 580.67,-201.87 621.48,-166.92 645.69,-145.74"/>
<polygon fill="#63b8ff" stroke="#63b8ff" points="647.73,-148.6 652.93,-139.37 643.11,-143.34 647.73,-148.6"/>
</a>
</g>
</g>
<!-- Node18 -->
<g id="Node000018" class="node">
<title>Node18</title>
<g id="a_Node000018"><a xlink:href="_assert_failed_exception_8h.html" target="_top" xlink:title="@TODO Add description of this file if needed">
<polygon fill="white" stroke="#666666" points="1149.25,-212 1002,-212 1002,-180 1149.25,-180 1149.25,-212"/>
<text text-anchor="start" x="1010" y="-198.5" font-family="Helvetica,sans-Serif" font-size="10.00">engine/core/exceptions</text>
<text text-anchor="middle" x="1075.62" y="-186.5" font-family="Helvetica,sans-Serif" font-size="10.00">/core/AssertFailedException.h</text>
</a>
</g>
</g>
<!-- Node15&#45;&gt;Node18 -->
<g id="edge22_Node000015_Node000018" class="edge">
<title>Node15&#45;&gt;Node18</title>
<g id="a_edge22_Node000015_Node000018"><a xlink:title=" ">
<path fill="none" stroke="#63b8ff" d="M488.68,-249.48C491.36,-248.94 494.02,-248.44 496.62,-248 589.21,-232.26 853.27,-212.44 990.49,-202.8"/>
<polygon fill="#63b8ff" stroke="#63b8ff" points="990.52,-206.31 1000.25,-202.12 990.03,-199.33 990.52,-206.31"/>
</a>
</g>
</g>
<!-- Node22 -->
<g id="Node000022" class="node">
<title>Node22</title>
<g id="a_Node000022"><a xlink:href="_stringer_8h.html" target="_top" xlink:title="A set of functions for converting objects to strings.">
<polygon fill="white" stroke="#666666" points="821.12,-212 712.12,-212 712.12,-180 821.12,-180 821.12,-212"/>
<text text-anchor="start" x="720.12" y="-198.5" font-family="Helvetica,sans-Serif" font-size="10.00">engine/core/debugger</text>
<text text-anchor="middle" x="766.62" y="-186.5" font-family="Helvetica,sans-Serif" font-size="10.00">/Stringer.h</text>
</a>
</g>
</g>
<!-- Node15&#45;&gt;Node22 -->
<g id="edge27_Node000015_Node000022" class="edge">
<title>Node15&#45;&gt;Node22</title>
<g id="a_edge27_Node000015_Node000022"><a xlink:title=" ">
<path fill="none" stroke="#63b8ff" d="M488.75,-249.8C491.41,-249.17 494.05,-248.57 496.62,-248 565.87,-232.67 645.75,-217.95 700.56,-208.29"/>
<polygon fill="#63b8ff" stroke="#63b8ff" points="701.13,-211.75 710.37,-206.57 699.92,-204.85 701.13,-211.75"/>
</a>
</g>
</g>
<!-- Node26 -->
<g id="Node000026" class="node">
<title>Node26</title>
<g id="a_Node000026"><a xlink:href="_logger_8h.html" target="_top" xlink:title="@TODO Add description of this file if needed">
<polygon fill="white" stroke="#666666" points="472.38,-212 376.88,-212 376.88,-180 472.38,-180 472.38,-212"/>
<text text-anchor="start" x="384.88" y="-198.5" font-family="Helvetica,sans-Serif" font-size="10.00">engine/core/logger</text>
<text text-anchor="middle" x="424.62" y="-186.5" font-family="Helvetica,sans-Serif" font-size="10.00">/Logger.h</text>
</a>
</g>
</g>
<!-- Node15&#45;&gt;Node26 -->
<g id="edge34_Node000015_Node000026" class="edge">
<title>Node15&#45;&gt;Node26</title>
<g id="a_edge34_Node000015_Node000026"><a xlink:title=" ">
<path fill="none" stroke="#63b8ff" d="M434.61,-247.69C433.18,-240.45 431.44,-231.58 429.81,-223.3"/>
<polygon fill="#63b8ff" stroke="#63b8ff" points="433.28,-222.84 427.92,-213.71 426.41,-224.2 433.28,-222.84"/>
</a>
</g>
</g>
<!-- Node19 -->
<g id="Node000019" class="node">
<title>Node19</title>
<g id="a_Node000019"><a xlink:href="_engine_exception_8h.html" target="_top" xlink:title="Base exception class for any exception in the engine.">
<polygon fill="white" stroke="#666666" points="1133.88,-144 1017.38,-144 1017.38,-112 1133.88,-112 1133.88,-144"/>
<text text-anchor="start" x="1025.38" y="-130.5" font-family="Helvetica,sans-Serif" font-size="10.00">engine/core/exceptions</text>
<text text-anchor="middle" x="1075.62" y="-118.5" font-family="Helvetica,sans-Serif" font-size="10.00">/EngineException.h</text>
</a>
</g>
</g>
<!-- Node18&#45;&gt;Node19 -->
<g id="edge23_Node000018_Node000019" class="edge">
<title>Node18&#45;&gt;Node19</title>
<g id="a_edge23_Node000018_Node000019"><a xlink:title=" ">
<path fill="none" stroke="#63b8ff" d="M1075.62,-179.69C1075.62,-172.53 1075.62,-163.79 1075.62,-155.59"/>
<polygon fill="#63b8ff" stroke="#63b8ff" points="1079.13,-155.74 1075.63,-145.74 1072.13,-155.74 1079.13,-155.74"/>
</a>
</g>
</g>
<!-- Node20 -->
<g id="Node000020" class="node">
<title>Node20</title>
<g id="a_Node000020"><a xlink:href="_base_exception_8h.html" target="_top" xlink:title=" ">
<polygon fill="white" stroke="#666666" points="977.75,-76 887.5,-76 887.5,-56 977.75,-56 977.75,-76"/>
<text text-anchor="middle" x="932.62" y="-62.5" font-family="Helvetica,sans-Serif" font-size="10.00">BaseException.h</text>
</a>
</g>
</g>
<!-- Node19&#45;&gt;Node20 -->
<g id="edge24_Node000019_Node000020" class="edge">
<title>Node19&#45;&gt;Node20</title>
<g id="a_edge24_Node000019_Node000020"><a xlink:title=" ">
<path fill="none" stroke="#63b8ff" d="M1038.8,-111.55C1016.15,-102.04 987.36,-89.97 965.48,-80.79"/>
<polygon fill="#63b8ff" stroke="#63b8ff" points="967.02,-77.64 956.44,-76.99 964.31,-84.09 967.02,-77.64"/>
</a>
</g>
</g>
<!-- Node20&#45;&gt;Node11 -->
<g id="edge26_Node000020_Node000011" class="edge">
<title>Node20&#45;&gt;Node11</title>
<g id="a_edge26_Node000020_Node000011"><a xlink:title=" ">
<path fill="none" stroke="#63b8ff" d="M887.13,-58.38C810.81,-47.27 658.89,-25.16 593.15,-15.59"/>
<polygon fill="#63b8ff" stroke="#63b8ff" points="593.82,-12.15 583.42,-14.17 592.81,-19.08 593.82,-12.15"/>
</a>
</g>
</g>
<!-- Node21 -->
<g id="Node000021" class="node">
<title>Node21</title>
<g id="a_Node000021"><a xlink:title=" ">
<polygon fill="#e0e0e0" stroke="#999999" points="962,-20 903.25,-20 903.25,0 962,0 962,-20"/>
<text text-anchor="middle" x="932.62" y="-6.5" font-family="Helvetica,sans-Serif" font-size="10.00">stdexcept</text>
</a>
</g>
</g>
<!-- Node20&#45;&gt;Node21 -->
<g id="edge25_Node000020_Node000021" class="edge">
<title>Node20&#45;&gt;Node21</title>
<g id="a_edge25_Node000020_Node000021"><a xlink:title=" ">
<path fill="none" stroke="#63b8ff" d="M932.62,-55.59C932.62,-49.01 932.62,-39.96 932.62,-31.73"/>
<polygon fill="#63b8ff" stroke="#63b8ff" points="936.13,-31.81 932.63,-21.81 929.13,-31.81 936.13,-31.81"/>
</a>
</g>
</g>
<!-- Node22&#45;&gt;Node9 -->
<g id="edge30_Node000022_Node000009" class="edge">
<title>Node22&#45;&gt;Node9</title>
<g id="a_edge30_Node000022_Node000009"><a xlink:title=" ">
<path fill="none" stroke="#63b8ff" d="M817.61,-179.59C849.38,-169.81 891.05,-156.64 927.62,-144 929.2,-143.45 930.81,-142.89 932.43,-142.31"/>
<polygon fill="#63b8ff" stroke="#63b8ff" points="933.54,-145.63 941.74,-138.92 931.14,-139.06 933.54,-145.63"/>
</a>
</g>
</g>
<!-- Node22&#45;&gt;Node11 -->
<g id="edge28_Node000022_Node000011" class="edge">
<title>Node22&#45;&gt;Node11</title>
<g id="a_edge28_Node000022_Node000011"><a xlink:title=" ">
<path fill="none" stroke="#63b8ff" d="M756.04,-179.66C743.63,-162.24 721.9,-133.45 699.62,-112 669.66,-83.15 658.22,-80.54 624.62,-56 611.23,-46.21 596.1,-35.4 584.03,-26.83"/>
<polygon fill="#63b8ff" stroke="#63b8ff" points="586.13,-24.03 575.95,-21.1 582.08,-29.74 586.13,-24.03"/>
</a>
</g>
</g>
<!-- Node22&#45;&gt;Node17 -->
<g id="edge29_Node000022_Node000017" class="edge">
<title>Node22&#45;&gt;Node17</title>
<g id="a_edge29_Node000022_Node000017"><a xlink:title=" ">
<path fill="none" stroke="#63b8ff" d="M742.71,-179.53C726.42,-168.99 704.95,-155.09 688.64,-144.54"/>
<polygon fill="#63b8ff" stroke="#63b8ff" points="690.81,-141.78 680.52,-139.28 687.01,-147.65 690.81,-141.78"/>
</a>
</g>
</g>
<!-- Node23 -->
<g id="Node000023" class="node">
<title>Node23</title>
<g id="a_Node000023"><a xlink:title=" ">
<polygon fill="#e0e0e0" stroke="#999999" points="854.5,-138 804.75,-138 804.75,-118 854.5,-118 854.5,-138"/>
<text text-anchor="middle" x="829.62" y="-124.5" font-family="Helvetica,sans-Serif" font-size="10.00">iomanip</text>
</a>
</g>
</g>
<!-- Node22&#45;&gt;Node23 -->
<g id="edge31_Node000022_Node000023" class="edge">
<title>Node22&#45;&gt;Node23</title>
<g id="a_edge31_Node000022_Node000023"><a xlink:title=" ">
<path fill="none" stroke="#63b8ff" d="M781.24,-179.69C790.68,-169.8 803.01,-156.89 812.85,-146.57"/>
<polygon fill="#63b8ff" stroke="#63b8ff" points="815.31,-149.06 819.69,-139.41 810.25,-144.23 815.31,-149.06"/>
</a>
</g>
</g>
<!-- Node24 -->
<g id="Node000024" class="node">
<title>Node24</title>
<g id="a_Node000024"><a xlink:title=" ">
<polygon fill="#e0e0e0" stroke="#999999" points="918.25,-138 873,-138 873,-118 918.25,-118 918.25,-138"/>
<text text-anchor="middle" x="895.62" y="-124.5" font-family="Helvetica,sans-Serif" font-size="10.00">cstdint</text>
</a>
</g>
</g>
<!-- Node22&#45;&gt;Node24 -->
<g id="edge32_Node000022_Node000024" class="edge">
<title>Node22&#45;&gt;Node24</title>
<g id="a_edge32_Node000022_Node000024"><a xlink:title=" ">
<path fill="none" stroke="#63b8ff" d="M796.87,-179.53C818.05,-168.69 846.17,-154.3 866.99,-143.65"/>
<polygon fill="#63b8ff" stroke="#63b8ff" points="868.48,-146.82 875.79,-139.15 865.29,-140.59 868.48,-146.82"/>
</a>
</g>
</g>
<!-- Node25 -->
<g id="Node000025" class="node">
<title>Node25</title>
<g id="a_Node000025"><a xlink:title=" ">
<polygon fill="#e0e0e0" stroke="#999999" points="786.25,-138 747,-138 747,-118 786.25,-118 786.25,-138"/>
<text text-anchor="middle" x="766.62" y="-124.5" font-family="Helvetica,sans-Serif" font-size="10.00">utility</text>
</a>
</g>
</g>
<!-- Node22&#45;&gt;Node25 -->
<g id="edge33_Node000022_Node000025" class="edge">
<title>Node22&#45;&gt;Node25</title>
<g id="a_edge33_Node000022_Node000025"><a xlink:title=" ">
<path fill="none" stroke="#63b8ff" d="M766.62,-179.69C766.62,-170.8 766.62,-159.46 766.62,-149.77"/>
<polygon fill="#63b8ff" stroke="#63b8ff" points="770.13,-149.83 766.63,-139.83 763.13,-149.83 770.13,-149.83"/>
</a>
</g>
</g>
<!-- Node26&#45;&gt;Node2 -->
<g id="edge38_Node000026_Node000002" class="edge">
<title>Node26&#45;&gt;Node2</title>
<g id="a_edge38_Node000026_Node000002"><a xlink:title=" ">
<path fill="none" stroke="#63b8ff" d="M376.45,-181.68C373.81,-181.08 371.19,-180.52 368.62,-180 252.53,-156.63 221.43,-163.47 104.62,-144 92.88,-142.04 80.18,-139.65 68.58,-137.35"/>
<polygon fill="#63b8ff" stroke="#63b8ff" points="69.4,-133.94 58.91,-135.4 68.02,-140.81 69.4,-133.94"/>
</a>
</g>
</g>
<!-- Node26&#45;&gt;Node11 -->
<g id="edge35_Node000026_Node000011" class="edge">
<title>Node26&#45;&gt;Node11</title>
<g id="a_edge35_Node000026_Node000011"><a xlink:title=" ">
<path fill="none" stroke="#63b8ff" d="M439.65,-179.91C449.2,-170.03 461.61,-156.65 471.62,-144 502.35,-105.19 533.75,-56.25 550.1,-29.89"/>
<polygon fill="#63b8ff" stroke="#63b8ff" points="552.91,-32 555.17,-21.65 546.95,-28.33 552.91,-32"/>
</a>
</g>
</g>
<!-- Node27 -->
<g id="Node000027" class="node">
<title>Node27</title>
<g id="a_Node000027"><a xlink:title=" ">
<polygon fill="#e0e0e0" stroke="#999999" points="283.25,-138 232,-138 232,-118 283.25,-118 283.25,-138"/>
<text text-anchor="middle" x="257.62" y="-124.5" font-family="Helvetica,sans-Serif" font-size="10.00">memory</text>
</a>
</g>
</g>
<!-- Node26&#45;&gt;Node27 -->
<g id="edge36_Node000026_Node000027" class="edge">
<title>Node26&#45;&gt;Node27</title>
<g id="a_edge36_Node000026_Node000027"><a xlink:title=" ">
<path fill="none" stroke="#63b8ff" d="M385.47,-179.53C357.17,-168.34 319.3,-153.37 292.13,-142.64"/>
<polygon fill="#63b8ff" stroke="#63b8ff" points="293.56,-139.44 282.97,-139.02 290.98,-145.95 293.56,-139.44"/>
</a>
</g>
</g>
<!-- Node28 -->
<g id="Node000028" class="node">
<title>Node28</title>
<g id="a_Node000028"><a xlink:title=" ">
<polygon fill="#e0e0e0" stroke="#999999" points="582.38,-138 540.88,-138 540.88,-118 582.38,-118 582.38,-138"/>
<text text-anchor="middle" x="561.62" y="-124.5" font-family="Helvetica,sans-Serif" font-size="10.00">vector</text>
</a>
</g>
</g>
<!-- Node26&#45;&gt;Node28 -->
<g id="edge37_Node000026_Node000028" class="edge">
<title>Node26&#45;&gt;Node28</title>
<g id="a_edge37_Node000026_Node000028"><a xlink:title=" ">
<path fill="none" stroke="#63b8ff" d="M456.75,-179.53C479.45,-168.59 509.66,-154.04 531.82,-143.36"/>
<polygon fill="#63b8ff" stroke="#63b8ff" points="533.13,-146.61 540.62,-139.12 530.1,-140.3 533.13,-146.61"/>
</a>
</g>
</g>
<!-- Node29 -->
<g id="Node000029" class="node">
<title>Node29</title>
<g id="a_Node000029"><a xlink:title=" ">
<polygon fill="#e0e0e0" stroke="#999999" points="385.25,-138 340,-138 340,-118 385.25,-118 385.25,-138"/>
<text text-anchor="middle" x="362.62" y="-124.5" font-family="Helvetica,sans-Serif" font-size="10.00">atomic</text>
</a>
</g>
</g>
<!-- Node26&#45;&gt;Node29 -->
<g id="edge39_Node000026_Node000029" class="edge">
<title>Node26&#45;&gt;Node29</title>
<g id="a_edge39_Node000026_Node000029"><a xlink:title=" ">
<path fill="none" stroke="#63b8ff" d="M410.25,-179.69C400.95,-169.8 388.82,-156.89 379.13,-146.57"/>
<polygon fill="#63b8ff" stroke="#63b8ff" points="381.81,-144.31 372.41,-139.42 376.71,-149.1 381.81,-144.31"/>
</a>
</g>
</g>
<!-- Node30 -->
<g id="Node000030" class="node">
<title>Node30</title>
<g id="a_Node000030"><a xlink:title=" ">
<polygon fill="#e0e0e0" stroke="#999999" points="446.12,-138 403.12,-138 403.12,-118 446.12,-118 446.12,-138"/>
<text text-anchor="middle" x="424.62" y="-124.5" font-family="Helvetica,sans-Serif" font-size="10.00">thread</text>
</a>
</g>
</g>
<!-- Node26&#45;&gt;Node30 -->
<g id="edge40_Node000026_Node000030" class="edge">
<title>Node26&#45;&gt;Node30</title>
<g id="a_edge40_Node000026_Node000030"><a xlink:title=" ">
<path fill="none" stroke="#63b8ff" d="M424.62,-179.69C424.62,-170.8 424.62,-159.46 424.62,-149.77"/>
<polygon fill="#63b8ff" stroke="#63b8ff" points="428.13,-149.83 424.63,-139.83 421.13,-149.83 428.13,-149.83"/>
</a>
</g>
</g>
<!-- Node31 -->
<g id="Node000031" class="node">
<title>Node31</title>
<g id="a_Node000031"><a xlink:title=" ">
<polygon fill="#e0e0e0" stroke="#999999" points="331.12,-76 288.12,-76 288.12,-56 331.12,-56 331.12,-76"/>
<text text-anchor="middle" x="309.62" y="-62.5" font-family="Helvetica,sans-Serif" font-size="10.00">mutex</text>
</a>
</g>
</g>
<!-- Node26&#45;&gt;Node31 -->
<g id="edge41_Node000026_Node000031" class="edge">
<title>Node26&#45;&gt;Node31</title>
<g id="a_edge41_Node000026_Node000031"><a xlink:title=" ">
<path fill="none" stroke="#63b8ff" d="M379.67,-179.56C362.1,-171.46 343.19,-159.86 330.62,-144 317.8,-127.82 312.79,-104.38 310.84,-87.62"/>
<polygon fill="#63b8ff" stroke="#63b8ff" points="314.35,-87.51 310,-77.85 307.37,-88.11 314.35,-87.51"/>
</a>
</g>
</g>
<!-- Node32 -->
<g id="Node000032" class="node">
<title>Node32</title>
<g id="a_Node000032"><a xlink:href="_i_logger_8h.html" target="_top" xlink:title="Class that encapsulates the look and feel of the HUD.">
<polygon fill="white" stroke="#666666" points="484.5,-76 428.75,-76 428.75,-56 484.5,-56 484.5,-76"/>
<text text-anchor="middle" x="456.62" y="-62.5" font-family="Helvetica,sans-Serif" font-size="10.00">ILogger.h</text>
</a>
</g>
</g>
<!-- Node26&#45;&gt;Node32 -->
<g id="edge42_Node000026_Node000032" class="edge">
<title>Node26&#45;&gt;Node32</title>
<g id="a_edge42_Node000026_Node000032"><a xlink:title=" ">
<path fill="none" stroke="#63b8ff" d="M437.06,-179.51C443.97,-169.9 451.91,-156.95 455.62,-144 460.98,-125.34 460.58,-103.08 459.24,-87.31"/>
<polygon fill="#63b8ff" stroke="#63b8ff" points="462.76,-87.31 458.21,-77.74 455.8,-88.06 462.76,-87.31"/>
</a>
</g>
</g>
<!-- Node33 -->
<g id="Node000033" class="node">
<title>Node33</title>
<g id="a_Node000033"><a xlink:href="_concurrent_queue_8h.html" target="_top" xlink:title="Concurrent queue implementation.">
<polygon fill="white" stroke="#666666" points="213.62,-138 113.62,-138 113.62,-118 213.62,-118 213.62,-138"/>
<text text-anchor="middle" x="163.62" y="-124.5" font-family="Helvetica,sans-Serif" font-size="10.00">ConcurrentQueue.h</text>
</a>
</g>
</g>
<!-- Node26&#45;&gt;Node33 -->
<g id="edge44_Node000026_Node000033" class="edge">
<title>Node26&#45;&gt;Node33</title>
<g id="a_edge44_Node000026_Node000033"><a xlink:title=" ">
<path fill="none" stroke="#63b8ff" d="M376.38,-182.01C373.76,-181.33 371.16,-180.65 368.62,-180 303.9,-163.35 287.46,-160.23 222.62,-144 219.09,-143.11 215.43,-142.19 211.76,-141.27"/>
<polygon fill="#63b8ff" stroke="#63b8ff" points="212.77,-137.91 202.22,-138.85 211.06,-144.7 212.77,-137.91"/>
</a>
</g>
</g>
<!-- Node32&#45;&gt;Node11 -->
<g id="edge43_Node000032_Node000011" class="edge">
<title>Node32&#45;&gt;Node11</title>
<g id="a_edge43_Node000032_Node000011"><a xlink:title=" ">
<path fill="none" stroke="#63b8ff" d="M474.91,-55.59C490.93,-47.36 514.46,-35.26 532.97,-25.74"/>
<polygon fill="#63b8ff" stroke="#63b8ff" points="534.55,-28.86 541.85,-21.17 531.35,-22.63 534.55,-28.86"/>
</a>
</g>
</g>
<!-- Node33&#45;&gt;Node31 -->
<g id="edge46_Node000033_Node000031" class="edge">
<title>Node33&#45;&gt;Node31</title>
<g id="a_edge46_Node000033_Node000031"><a xlink:title=" ">
<path fill="none" stroke="#63b8ff" d="M186.44,-117.62C210.93,-107.56 250.05,-91.48 277.62,-80.15"/>
<polygon fill="#63b8ff" stroke="#63b8ff" points="278.61,-83.53 286.53,-76.49 275.95,-77.06 278.61,-83.53"/>
</a>
</g>
</g>
<!-- Node34 -->
<g id="Node000034" class="node">
<title>Node34</title>
<g id="a_Node000034"><a xlink:title=" ">
<polygon fill="#e0e0e0" stroke="#999999" points="267.75,-76 225.5,-76 225.5,-56 267.75,-56 267.75,-76"/>
<text text-anchor="middle" x="246.62" y="-62.5" font-family="Helvetica,sans-Serif" font-size="10.00">queue</text>
</a>
</g>
</g>
<!-- Node33&#45;&gt;Node34 -->
<g id="edge45_Node000033_Node000034" class="edge">
<title>Node33&#45;&gt;Node34</title>
<g id="a_edge45_Node000033_Node000034"><a xlink:title=" ">
<path fill="none" stroke="#63b8ff" d="M176.59,-117.62C189.38,-108.38 209.18,-94.07 224.47,-83.01"/>
<polygon fill="#63b8ff" stroke="#63b8ff" points="226.47,-85.89 232.52,-77.2 222.37,-80.22 226.47,-85.89"/>
</a>
</g>
</g>
<!-- Node35 -->
<g id="Node000035" class="node">
<title>Node35</title>
<g id="a_Node000035"><a xlink:title=" ">
<polygon fill="#e0e0e0" stroke="#999999" points="207.88,-76 115.38,-76 115.38,-56 207.88,-56 207.88,-76"/>
<text text-anchor="middle" x="161.62" y="-62.5" font-family="Helvetica,sans-Serif" font-size="10.00">condition_variable</text>
</a>
</g>
</g>
<!-- Node33&#45;&gt;Node35 -->
<g id="edge47_Node000033_Node000035" class="edge">
<title>Node33&#45;&gt;Node35</title>
<g id="a_edge47_Node000033_Node000035"><a xlink:title=" ">
<path fill="none" stroke="#63b8ff" d="M163.31,-117.62C163.04,-109.56 162.65,-97.65 162.31,-87.41"/>
<polygon fill="#63b8ff" stroke="#63b8ff" points="165.81,-87.5 161.98,-77.63 158.81,-87.74 165.81,-87.5"/>
</a>
</g>
</g>
<!-- Node36&#45;&gt;Node15 -->
<g id="edge50_Node000036_Node000015" class="edge">
<title>Node36&#45;&gt;Node15</title>
<g id="a_edge50_Node000036_Node000015"><a xlink:title=" ">
<path fill="none" stroke="#63b8ff" d="M418.53,-451.69C419.55,-435.02 421.39,-407.59 423.62,-384 426.64,-352.26 431.06,-315.86 434.13,-291.77"/>
<polygon fill="#63b8ff" stroke="#63b8ff" points="437.59,-292.25 435.4,-281.88 430.65,-291.35 437.59,-292.25"/>
</a>
</g>
</g>
<!-- Node37 -->
<g id="Node000037" class="node">
<title>Node37</title>
<g id="a_Node000037"><a xlink:title=" ">
<polygon fill="#e0e0e0" stroke="#999999" points="480.38,-410 432.88,-410 432.88,-390 480.38,-390 480.38,-410"/>
<text text-anchor="middle" x="456.62" y="-396.5" font-family="Helvetica,sans-Serif" font-size="10.00">cstddef</text>
</a>
</g>
</g>
<!-- Node36&#45;&gt;Node37 -->
<g id="edge49_Node000036_Node000037" class="edge">
<title>Node36&#45;&gt;Node37</title>
<g id="a_edge49_Node000036_Node000037"><a xlink:title=" ">
<path fill="none" stroke="#63b8ff" d="M426.67,-451.69C432.22,-442.3 439.38,-430.18 445.31,-420.15"/>
<polygon fill="#63b8ff" stroke="#63b8ff" points="448.28,-422.01 450.35,-411.62 442.25,-418.45 448.28,-422.01"/>
</a>
</g>
</g>
<!-- Node38&#45;&gt;Node12 -->
<g id="edge56_Node000038_Node000012" class="edge">
<title>Node38&#45;&gt;Node12</title>
<g id="a_edge56_Node000038_Node000012"><a xlink:title=" ">
<path fill="none" stroke="#63b8ff" d="M756.01,-385.16C699.28,-373.2 618.16,-356.1 564.48,-344.78"/>
<polygon fill="#63b8ff" stroke="#63b8ff" points="565.44,-341.4 554.94,-342.77 564,-348.25 565.44,-341.4"/>
</a>
</g>
</g>
<!-- Node39 -->
<g id="Node000039" class="node">
<title>Node39</title>
<g id="a_Node000039"><a xlink:href="_vector_types_8h.html" target="_top" xlink:title="@TODO Add description of this file if needed">
<polygon fill="white" stroke="#666666" points="790.38,-348 664.88,-348 664.88,-316 790.38,-316 790.38,-348"/>
<text text-anchor="start" x="672.88" y="-334.5" font-family="Helvetica,sans-Serif" font-size="10.00">engine/core/math/algebra</text>
<text text-anchor="middle" x="727.62" y="-322.5" font-family="Helvetica,sans-Serif" font-size="10.00">/vector/VectorTypes.h</text>
</a>
</g>
</g>
<!-- Node38&#45;&gt;Node39 -->
<g id="edge52_Node000038_Node000039" class="edge">
<title>Node38&#45;&gt;Node39</title>
<g id="a_edge52_Node000038_Node000039"><a xlink:title=" ">
<path fill="none" stroke="#63b8ff" d="M799.82,-383.69C787.69,-375.17 772.38,-364.42 758.98,-355.01"/>
<polygon fill="#63b8ff" stroke="#63b8ff" points="761.07,-352.2 750.87,-349.32 757.05,-357.93 761.07,-352.2"/>
</a>
</g>
</g>
<!-- Node41 -->
<g id="Node000041" class="node">
<title>Node41</title>
<g id="a_Node000041"><a xlink:href="_math_exception_8h.html" target="_top" xlink:title="Exception class for math errors.">
<polygon fill="white" stroke="#666666" points="947.12,-348 808.12,-348 808.12,-316 947.12,-316 947.12,-348"/>
<text text-anchor="start" x="816.12" y="-334.5" font-family="Helvetica,sans-Serif" font-size="10.00">engine/core/exceptions</text>
<text text-anchor="middle" x="877.62" y="-322.5" font-family="Helvetica,sans-Serif" font-size="10.00">/core/math/MathException.h</text>
</a>
</g>
</g>
<!-- Node38&#45;&gt;Node41 -->
<g id="edge54_Node000038_Node000041" class="edge">
<title>Node38&#45;&gt;Node41</title>
<g id="a_edge54_Node000038_Node000041"><a xlink:title=" ">
<path fill="none" stroke="#63b8ff" d="M834.61,-383.69C841.4,-375.7 849.85,-365.73 857.47,-356.76"/>
<polygon fill="#63b8ff" stroke="#63b8ff" points="859.93,-359.27 863.73,-349.38 854.59,-354.74 859.93,-359.27"/>
</a>
</g>
</g>
<!-- Node40 -->
<g id="Node000040" class="node">
<title>Node40</title>
<g id="a_Node000040"><a xlink:title=" ">
<polygon fill="#e0e0e0" stroke="#999999" points="749.5,-274 711.75,-274 711.75,-254 749.5,-254 749.5,-274"/>
<text text-anchor="middle" x="730.62" y="-260.5" font-family="Helvetica,sans-Serif" font-size="10.00">array</text>
</a>
</g>
</g>
<!-- Node39&#45;&gt;Node40 -->
<g id="edge53_Node000039_Node000040" class="edge">
<title>Node39&#45;&gt;Node40</title>
<g id="a_edge53_Node000039_Node000040"><a xlink:title=" ">
<path fill="none" stroke="#63b8ff" d="M728.32,-315.69C728.73,-306.8 729.24,-295.46 729.68,-285.77"/>
<polygon fill="#63b8ff" stroke="#63b8ff" points="733.18,-285.98 730.13,-275.83 726.18,-285.66 733.18,-285.98"/>
</a>
</g>
</g>
<!-- Node41&#45;&gt;Node19 -->
<g id="edge55_Node000041_Node000019" class="edge">
<title>Node41&#45;&gt;Node19</title>
<g id="a_edge55_Node000041_Node000019"><a xlink:title=" ">
<path fill="none" stroke="#63b8ff" d="M947.41,-323.05C1014.36,-311.3 1111.96,-282.45 1158.62,-212 1166.48,-200.14 1165.57,-192.41 1158.62,-180 1151.59,-167.42 1140.04,-157.56 1127.76,-150.01"/>
<polygon fill="#63b8ff" stroke="#63b8ff" points="1129.59,-147.02 1119.15,-145.18 1126.16,-153.13 1129.59,-147.02"/>
</a>
</g>
</g>
<!-- Node42&#45;&gt;Node28 -->
<g id="edge59_Node000042_Node000028" class="edge">
<title>Node42&#45;&gt;Node28</title>
<g id="a_edge59_Node000042_Node000028"><a xlink:title=" ">
<path fill="none" stroke="#63b8ff" d="M598.89,-451.6C586.25,-442.95 572.58,-430.88 565.62,-416 559.6,-403.12 561.9,-397.72 565.62,-384 592.04,-286.74 717.77,-265.62 664.62,-180 649.25,-155.23 617.88,-142.12 593.78,-135.43"/>
<polygon fill="#63b8ff" stroke="#63b8ff" points="594.65,-132.04 584.1,-133.01 592.95,-138.83 594.65,-132.04"/>
</a>
</g>
</g>
<!-- Node42&#45;&gt;Node37 -->
<g id="edge58_Node000042_Node000037" class="edge">
<title>Node42&#45;&gt;Node37</title>
<g id="a_edge58_Node000042_Node000037"><a xlink:title=" ">
<path fill="none" stroke="#63b8ff" d="M586.77,-451.53C557.66,-440.22 518.6,-425.06 490.88,-414.3"/>
<polygon fill="#63b8ff" stroke="#63b8ff" points="492.5,-411.17 481.91,-410.82 489.96,-417.7 492.5,-411.17"/>
</a>
</g>
</g>
<!-- Node42&#45;&gt;Node38 -->
<g id="edge61_Node000042_Node000038" class="edge">
<title>Node42&#45;&gt;Node38</title>
<g id="a_edge61_Node000042_Node000038"><a xlink:title=" ">
<path fill="none" stroke="#63b8ff" d="M672.34,-451.53C700.12,-442.13 735.78,-430.05 765.29,-420.07"/>
<polygon fill="#63b8ff" stroke="#63b8ff" points="766.07,-423.5 774.42,-416.98 763.83,-416.87 766.07,-423.5"/>
</a>
</g>
</g>
<!-- Node42&#45;&gt;Node39 -->
<g id="edge60_Node000042_Node000039" class="edge">
<title>Node42&#45;&gt;Node39</title>
<g id="a_edge60_Node000042_Node000039"><a xlink:title=" ">
<path fill="none" stroke="#63b8ff" d="M665.04,-451.63C681.11,-443.35 698.57,-431.59 709.62,-416 721.28,-399.56 725.62,-377.02 727.13,-359.58"/>
<polygon fill="#63b8ff" stroke="#63b8ff" points="730.62,-359.9 727.71,-349.71 723.63,-359.49 730.62,-359.9"/>
</a>
</g>
</g>
<!-- Node43 -->
<g id="Node000043" class="node">
<title>Node43</title>
<g id="a_Node000043"><a xlink:href="_matrix_types_8h.html" target="_top" xlink:title="@TODO Add description of this file if needed">
<polygon fill="white" stroke="#666666" points="700.38,-416 574.88,-416 574.88,-384 700.38,-384 700.38,-416"/>
<text text-anchor="start" x="582.88" y="-402.5" font-family="Helvetica,sans-Serif" font-size="10.00">engine/core/math/algebra</text>
<text text-anchor="middle" x="637.62" y="-390.5" font-family="Helvetica,sans-Serif" font-size="10.00">/matrix/MatrixTypes.h</text>
</a>
</g>
</g>
<!-- Node42&#45;&gt;Node43 -->
<g id="edge62_Node000042_Node000043" class="edge">
<title>Node42&#45;&gt;Node43</title>
<g id="a_edge62_Node000042_Node000043"><a xlink:title=" ">
<path fill="none" stroke="#63b8ff" d="M629.18,-451.69C630.38,-444.45 631.86,-435.58 633.24,-427.3"/>
<polygon fill="#63b8ff" stroke="#63b8ff" points="636.65,-428.16 634.84,-417.72 629.74,-427.01 636.65,-428.16"/>
</a>
</g>
</g>
<!-- Node43&#45;&gt;Node40 -->
<g id="edge63_Node000043_Node000040" class="edge">
<title>Node43&#45;&gt;Node40</title>
<g id="a_edge63_Node000043_Node000040"><a xlink:title=" ">
<path fill="none" stroke="#63b8ff" d="M637.63,-383.6C638.35,-365.86 641.77,-336.53 655.62,-316 666.9,-299.3 685.64,-286.55 701.57,-277.98"/>
<polygon fill="#63b8ff" stroke="#63b8ff" points="702.83,-281.26 710.17,-273.63 699.67,-275.01 702.83,-281.26"/>
</a>
</g>
</g>
<!-- Node44&#45;&gt;Node2 -->
<g id="edge65_Node000044_Node000002" class="edge">
<title>Node44&#45;&gt;Node2</title>
<g id="a_edge65_Node000044_Node000002"><a xlink:title=" ">
<path fill="none" stroke="#63b8ff" d="M100.3,-457.72C92.89,-436.13 75.62,-380.77 75.62,-333 75.62,-333 75.62,-333 75.62,-263 75.62,-220.05 53.86,-173.5 39.95,-148.14"/>
<polygon fill="#63b8ff" stroke="#63b8ff" points="43.12,-146.63 35.14,-139.67 37.03,-150.09 43.12,-146.63"/>
</a>
</g>
</g>
<!-- Node44&#45;&gt;Node37 -->
<g id="edge66_Node000044_Node000037" class="edge">
<title>Node44&#45;&gt;Node37</title>
<g id="a_edge66_Node000044_Node000037"><a xlink:title=" ">
<path fill="none" stroke="#63b8ff" d="M154.2,-457.54C226.74,-443.98 358.47,-419.35 421.37,-407.59"/>
<polygon fill="#63b8ff" stroke="#63b8ff" points="421.96,-411.04 431.15,-405.76 420.68,-404.16 421.96,-411.04"/>
</a>
</g>
</g>
</g>
</svg>
