<?xml version="1.0" encoding="UTF-8" standalone="no"?>
<!DOCTYPE svg PUBLIC "-//W3C//DTD SVG 1.1//EN"
 "http://www.w3.org/Graphics/SVG/1.1/DTD/svg11.dtd">
<!-- Generated by graphviz version 11.0.0 (20240428.1522)
 -->
<!-- Title: OpenGLDebugger.cpp Pages: 1 -->
<svg width="1412pt" height="436pt"
 viewBox="0.00 0.00 1412.25 436.00" xmlns="http://www.w3.org/2000/svg" xmlns:xlink="http://www.w3.org/1999/xlink">
<g id="graph0" class="graph" transform="scale(1 1) rotate(0) translate(4 432)">
<title>OpenGLDebugger.cpp</title>
<!-- Node1 -->
<g id="Node000001" class="node">
<title>Node1</title>
<g id="a_Node000001"><a xlink:title=" ">
<polygon fill="#999999" stroke="#666666" points="201.75,-428 89.75,-428 89.75,-408 201.75,-408 201.75,-428"/>
<text text-anchor="middle" x="145.75" y="-414.5" font-family="Helvetica,sans-Serif" font-size="10.00">OpenGLDebugger.cpp</text>
</a>
</g>
</g>
<!-- Node2 -->
<g id="Node000002" class="node">
<title>Node2</title>
<g id="a_Node000002"><a xlink:title=" ">
<polygon fill="#e0e0e0" stroke="#999999" points="29.5,-354 0,-354 0,-334 29.5,-334 29.5,-354"/>
<text text-anchor="middle" x="14.75" y="-340.5" font-family="Helvetica,sans-Serif" font-size="10.00">set</text>
</a>
</g>
</g>
<!-- Node1&#45;&gt;Node2 -->
<g id="edge1_Node000001_Node000002" class="edge">
<title>Node1&#45;&gt;Node2</title>
<g id="a_edge1_Node000001_Node000002"><a xlink:title=" ">
<path fill="none" stroke="#63b8ff" d="M113.4,-407.61C91.12,-400.17 61.53,-388.3 38.75,-372 35.17,-369.44 31.76,-366.26 28.68,-362.98"/>
<polygon fill="#63b8ff" stroke="#63b8ff" points="31.57,-360.98 22.43,-355.63 26.24,-365.52 31.57,-360.98"/>
</a>
</g>
</g>
<!-- Node3 -->
<g id="Node000003" class="node">
<title>Node3</title>
<g id="a_Node000003"><a xlink:title=" ">
<polygon fill="#e0e0e0" stroke="#999999" points="117.75,-354 47.75,-354 47.75,-334 117.75,-334 117.75,-354"/>
<text text-anchor="middle" x="82.75" y="-340.5" font-family="Helvetica,sans-Serif" font-size="10.00">SDL2/SDL.h</text>
</a>
</g>
</g>
<!-- Node1&#45;&gt;Node3 -->
<g id="edge2_Node000001_Node000003" class="edge">
<title>Node1&#45;&gt;Node3</title>
<g id="a_edge2_Node000001_Node000003"><a xlink:title=" ">
<path fill="none" stroke="#63b8ff" d="M137.51,-407.59C127.55,-396.21 110.59,-376.81 98.17,-362.62"/>
<polygon fill="#63b8ff" stroke="#63b8ff" points="101,-360.55 91.79,-355.33 95.74,-365.16 101,-360.55"/>
</a>
</g>
</g>
<!-- Node4 -->
<g id="Node000004" class="node">
<title>Node4</title>
<g id="a_Node000004"><a xlink:href="_open_g_l_debugger_8h.html" target="_top" xlink:title="@TODO Add description of this file if needed">
<polygon fill="white" stroke="#666666" points="283.38,-372 136.12,-372 136.12,-316 283.38,-316 283.38,-372"/>
<text text-anchor="start" x="144.12" y="-358.5" font-family="Helvetica,sans-Serif" font-size="10.00">engine/core/low&#45;level</text>
<text text-anchor="start" x="144.12" y="-346.5" font-family="Helvetica,sans-Serif" font-size="10.00">&#45;renderer/graphic&#45;api</text>
<text text-anchor="start" x="144.12" y="-334.5" font-family="Helvetica,sans-Serif" font-size="10.00">/concrete&#45;apis/opengl</text>
<text text-anchor="middle" x="209.75" y="-322.5" font-family="Helvetica,sans-Serif" font-size="10.00">/debugger/OpenGLDebugger.h</text>
</a>
</g>
</g>
<!-- Node1&#45;&gt;Node4 -->
<g id="edge3_Node000001_Node000004" class="edge">
<title>Node1&#45;&gt;Node4</title>
<g id="a_edge3_Node000001_Node000004"><a xlink:title=" ">
<path fill="none" stroke="#63b8ff" d="M154.12,-407.59C160.25,-400.69 169,-390.85 177.75,-381"/>
<polygon fill="#63b8ff" stroke="#63b8ff" points="180.34,-383.36 184.36,-373.56 175.1,-378.71 180.34,-383.36"/>
</a>
</g>
</g>
<!-- Node28 -->
<g id="Node000028" class="node">
<title>Node28</title>
<g id="a_Node000028"><a xlink:href="_g_a_p_i_asserts_8h.html" target="_top" xlink:title="A set of macros and functions for debugging and logging.">
<polygon fill="white" stroke="#666666" points="917.62,-360 759.88,-360 759.88,-328 917.62,-328 917.62,-360"/>
<text text-anchor="start" x="767.88" y="-346.5" font-family="Helvetica,sans-Serif" font-size="10.00">engine/core/low&#45;level</text>
<text text-anchor="middle" x="838.75" y="-334.5" font-family="Helvetica,sans-Serif" font-size="10.00">&#45;renderer/asserts/GAPIAsserts.h</text>
</a>
</g>
</g>
<!-- Node1&#45;&gt;Node28 -->
<g id="edge34_Node000001_Node000028" class="edge">
<title>Node1&#45;&gt;Node28</title>
<g id="a_edge34_Node000001_Node000028"><a xlink:title=" ">
<path fill="none" stroke="#63b8ff" d="M202.17,-411.14C322.09,-398.68 603.22,-369.47 748.42,-354.39"/>
<polygon fill="#63b8ff" stroke="#63b8ff" points="748.39,-357.91 757.98,-353.39 747.67,-350.94 748.39,-357.91"/>
</a>
</g>
</g>
<!-- Node5 -->
<g id="Node000005" class="node">
<title>Node5</title>
<g id="a_Node000005"><a xlink:title=" ">
<polygon fill="#e0e0e0" stroke="#999999" points="642.75,-20 602.75,-20 602.75,0 642.75,0 642.75,-20"/>
<text text-anchor="middle" x="622.75" y="-6.5" font-family="Helvetica,sans-Serif" font-size="10.00">string</text>
</a>
</g>
</g>
<!-- Node4&#45;&gt;Node5 -->
<g id="edge4_Node000004_Node000005" class="edge">
<title>Node4&#45;&gt;Node5</title>
<g id="a_edge4_Node000004_Node000005"><a xlink:title=" ">
<path fill="none" stroke="#63b8ff" d="M169.88,-315.52C137,-289.3 95.75,-246.52 95.75,-197 95.75,-197 95.75,-197 95.75,-127 95.75,-24.97 477.25,-12.59 591.07,-11.16"/>
<polygon fill="#63b8ff" stroke="#63b8ff" points="590.94,-14.66 600.9,-11.06 590.87,-7.66 590.94,-14.66"/>
</a>
</g>
</g>
<!-- Node6 -->
<g id="Node000006" class="node">
<title>Node6</title>
<g id="a_Node000006"><a xlink:title=" ">
<polygon fill="#e0e0e0" stroke="#999999" points="67.5,-274 8,-274 8,-254 67.5,-254 67.5,-274"/>
<text text-anchor="middle" x="37.75" y="-260.5" font-family="Helvetica,sans-Serif" font-size="10.00">GL/glew.h</text>
</a>
</g>
</g>
<!-- Node4&#45;&gt;Node6 -->
<g id="edge5_Node000004_Node000006" class="edge">
<title>Node4&#45;&gt;Node6</title>
<g id="a_edge5_Node000004_Node000006"><a xlink:title=" ">
<path fill="none" stroke="#63b8ff" d="M149.11,-315.5C122.01,-303.21 91.23,-289.25 68.9,-279.13"/>
<polygon fill="#63b8ff" stroke="#63b8ff" points="70.61,-276.06 60.06,-275.12 67.72,-282.43 70.61,-276.06"/>
</a>
</g>
</g>
<!-- Node7 -->
<g id="Node000007" class="node">
<title>Node7</title>
<g id="a_Node000007"><a xlink:href="_debugger_8h.html" target="_top" xlink:title="A set of macros and functions for debugging and logging.">
<polygon fill="white" stroke="#666666" points="377.25,-280 268.25,-280 268.25,-248 377.25,-248 377.25,-280"/>
<text text-anchor="start" x="276.25" y="-266.5" font-family="Helvetica,sans-Serif" font-size="10.00">engine/core/debugger</text>
<text text-anchor="middle" x="322.75" y="-254.5" font-family="Helvetica,sans-Serif" font-size="10.00">/Debugger.h</text>
</a>
</g>
</g>
<!-- Node4&#45;&gt;Node7 -->
<g id="edge6_Node000004_Node000007" class="edge">
<title>Node4&#45;&gt;Node7</title>
<g id="a_edge6_Node000004_Node000007"><a xlink:title=" ">
<path fill="none" stroke="#63b8ff" d="M249.59,-315.5C263.16,-306.13 278.14,-295.79 290.99,-286.92"/>
<polygon fill="#63b8ff" stroke="#63b8ff" points="292.86,-289.89 299.1,-281.33 288.88,-284.13 292.86,-289.89"/>
</a>
</g>
</g>
<!-- Node7&#45;&gt;Node5 -->
<g id="edge7_Node000007_Node000005" class="edge">
<title>Node7&#45;&gt;Node5</title>
<g id="a_edge7_Node000007_Node000005"><a xlink:title=" ">
<path fill="none" stroke="#63b8ff" d="M270.59,-247.52C253.58,-239.72 236.57,-228.34 226.75,-212 203.85,-173.91 199.48,-147.1 226.75,-112 272.02,-53.73 505.14,-23.48 590.97,-14.18"/>
<polygon fill="#63b8ff" stroke="#63b8ff" points="591.22,-17.67 600.8,-13.14 590.48,-10.71 591.22,-17.67"/>
</a>
</g>
</g>
<!-- Node8 -->
<g id="Node000008" class="node">
<title>Node8</title>
<g id="a_Node000008"><a xlink:href="_logger_8h.html" target="_top" xlink:title="@TODO Add description of this file if needed">
<polygon fill="white" stroke="#666666" points="886.5,-212 791,-212 791,-180 886.5,-180 886.5,-212"/>
<text text-anchor="start" x="799" y="-198.5" font-family="Helvetica,sans-Serif" font-size="10.00">engine/core/logger</text>
<text text-anchor="middle" x="838.75" y="-186.5" font-family="Helvetica,sans-Serif" font-size="10.00">/Logger.h</text>
</a>
</g>
</g>
<!-- Node7&#45;&gt;Node8 -->
<g id="edge8_Node000007_Node000008" class="edge">
<title>Node7&#45;&gt;Node8</title>
<g id="a_edge8_Node000007_Node000008"><a xlink:title=" ">
<path fill="none" stroke="#63b8ff" d="M377.48,-256C475.13,-243.51 678.59,-217.49 779.44,-204.59"/>
<polygon fill="#63b8ff" stroke="#63b8ff" points="779.66,-208.09 789.13,-203.35 778.77,-201.14 779.66,-208.09"/>
</a>
</g>
</g>
<!-- Node19 -->
<g id="Node000019" class="node">
<title>Node19</title>
<g id="a_Node000019"><a xlink:href="_stringer_8h.html" target="_top" xlink:title="A set of functions for converting objects to strings.">
<polygon fill="white" stroke="#666666" points="497.75,-206 439.75,-206 439.75,-186 497.75,-186 497.75,-206"/>
<text text-anchor="middle" x="468.75" y="-192.5" font-family="Helvetica,sans-Serif" font-size="10.00">Stringer.h</text>
</a>
</g>
</g>
<!-- Node7&#45;&gt;Node19 -->
<g id="edge22_Node000007_Node000019" class="edge">
<title>Node7&#45;&gt;Node19</title>
<g id="a_edge22_Node000007_Node000019"><a xlink:title=" ">
<path fill="none" stroke="#63b8ff" d="M356.98,-247.53C381.39,-236.49 413.95,-221.77 437.63,-211.07"/>
<polygon fill="#63b8ff" stroke="#63b8ff" points="438.77,-214.39 446.44,-207.08 435.89,-208.01 438.77,-214.39"/>
</a>
</g>
</g>
<!-- Node20 -->
<g id="Node000020" class="node">
<title>Node20</title>
<g id="a_Node000020"><a xlink:title=" ">
<polygon fill="#e0e0e0" stroke="#999999" points="594.38,-138 543.12,-138 543.12,-118 594.38,-118 594.38,-138"/>
<text text-anchor="middle" x="568.75" y="-124.5" font-family="Helvetica,sans-Serif" font-size="10.00">sstream</text>
</a>
</g>
</g>
<!-- Node7&#45;&gt;Node20 -->
<g id="edge30_Node000007_Node000020" class="edge">
<title>Node7&#45;&gt;Node20</title>
<g id="a_edge30_Node000007_Node000020"><a xlink:title=" ">
<path fill="none" stroke="#63b8ff" d="M377.43,-257.34C416.27,-251.18 468.17,-238.38 506.75,-212 530.47,-195.78 548.73,-167.48 559.11,-148.5"/>
<polygon fill="#63b8ff" stroke="#63b8ff" points="562.2,-150.14 563.71,-139.66 555.99,-146.91 562.2,-150.14"/>
</a>
</g>
</g>
<!-- Node21 -->
<g id="Node000021" class="node">
<title>Node21</title>
<g id="a_Node000021"><a xlink:title=" ">
<polygon fill="#e0e0e0" stroke="#999999" points="297.62,-138 235.88,-138 235.88,-118 297.62,-118 297.62,-138"/>
<text text-anchor="middle" x="266.75" y="-124.5" font-family="Helvetica,sans-Serif" font-size="10.00">type_traits</text>
</a>
</g>
</g>
<!-- Node7&#45;&gt;Node21 -->
<g id="edge31_Node000007_Node000021" class="edge">
<title>Node7&#45;&gt;Node21</title>
<g id="a_edge31_Node000007_Node000021"><a xlink:title=" ">
<path fill="none" stroke="#63b8ff" d="M336.58,-247.67C350.29,-230.52 367.55,-202.21 354.75,-180 348.36,-168.91 320.96,-154.01 298.42,-143.19"/>
<polygon fill="#63b8ff" stroke="#63b8ff" points="300.08,-140.1 289.54,-139.02 297.11,-146.44 300.08,-140.1"/>
</a>
</g>
</g>
<!-- Node25 -->
<g id="Node000025" class="node">
<title>Node25</title>
<g id="a_Node000025"><a xlink:title=" ">
<polygon fill="#e0e0e0" stroke="#999999" points="281.75,-206 235.75,-206 235.75,-186 281.75,-186 281.75,-206"/>
<text text-anchor="middle" x="258.75" y="-192.5" font-family="Helvetica,sans-Serif" font-size="10.00">iterator</text>
</a>
</g>
</g>
<!-- Node7&#45;&gt;Node25 -->
<g id="edge29_Node000007_Node000025" class="edge">
<title>Node7&#45;&gt;Node25</title>
<g id="a_edge29_Node000007_Node000025"><a xlink:title=" ">
<path fill="none" stroke="#63b8ff" d="M307.91,-247.69C298.31,-237.8 285.79,-224.89 275.79,-214.57"/>
<polygon fill="#63b8ff" stroke="#63b8ff" points="278.31,-212.15 268.84,-207.4 273.29,-217.02 278.31,-212.15"/>
</a>
</g>
</g>
<!-- Node26 -->
<g id="Node000026" class="node">
<title>Node26</title>
<g id="a_Node000026"><a xlink:title=" ">
<polygon fill="#e0e0e0" stroke="#999999" points="345.38,-206 300.12,-206 300.12,-186 345.38,-186 345.38,-206"/>
<text text-anchor="middle" x="322.75" y="-192.5" font-family="Helvetica,sans-Serif" font-size="10.00">cstring</text>
</a>
</g>
</g>
<!-- Node7&#45;&gt;Node26 -->
<g id="edge32_Node000007_Node000026" class="edge">
<title>Node7&#45;&gt;Node26</title>
<g id="a_edge32_Node000007_Node000026"><a xlink:title=" ">
<path fill="none" stroke="#63b8ff" d="M322.75,-247.69C322.75,-238.8 322.75,-227.46 322.75,-217.77"/>
<polygon fill="#63b8ff" stroke="#63b8ff" points="326.25,-217.83 322.75,-207.83 319.25,-217.83 326.25,-217.83"/>
</a>
</g>
</g>
<!-- Node27 -->
<g id="Node000027" class="node">
<title>Node27</title>
<g id="a_Node000027"><a xlink:title=" ">
<polygon fill="#e0e0e0" stroke="#999999" points="179.62,-206 123.88,-206 123.88,-186 179.62,-186 179.62,-206"/>
<text text-anchor="middle" x="151.75" y="-192.5" font-family="Helvetica,sans-Serif" font-size="10.00">algorithm</text>
</a>
</g>
</g>
<!-- Node7&#45;&gt;Node27 -->
<g id="edge33_Node000007_Node000027" class="edge">
<title>Node7&#45;&gt;Node27</title>
<g id="a_edge33_Node000007_Node000027"><a xlink:title=" ">
<path fill="none" stroke="#63b8ff" d="M282.66,-247.53C253.55,-236.29 214.55,-221.24 186.71,-210.49"/>
<polygon fill="#63b8ff" stroke="#63b8ff" points="188.26,-207.34 177.67,-207.01 185.74,-213.87 188.26,-207.34"/>
</a>
</g>
</g>
<!-- Node8&#45;&gt;Node5 -->
<g id="edge9_Node000008_Node000005" class="edge">
<title>Node8&#45;&gt;Node5</title>
<g id="a_edge9_Node000008_Node000005"><a xlink:title=" ">
<path fill="none" stroke="#63b8ff" d="M790.54,-188.7C738.79,-180.9 661.36,-165.92 641.75,-144 613.98,-112.95 615.71,-60.5 619.29,-31.62"/>
<polygon fill="#63b8ff" stroke="#63b8ff" points="622.72,-32.39 620.7,-21.99 615.79,-31.38 622.72,-32.39"/>
</a>
</g>
</g>
<!-- Node9 -->
<g id="Node000009" class="node">
<title>Node9</title>
<g id="a_Node000009"><a xlink:title=" ">
<polygon fill="#e0e0e0" stroke="#999999" points="1117.38,-138 1066.12,-138 1066.12,-118 1117.38,-118 1117.38,-138"/>
<text text-anchor="middle" x="1091.75" y="-124.5" font-family="Helvetica,sans-Serif" font-size="10.00">memory</text>
</a>
</g>
</g>
<!-- Node8&#45;&gt;Node9 -->
<g id="edge10_Node000008_Node000009" class="edge">
<title>Node8&#45;&gt;Node9</title>
<g id="a_edge10_Node000008_Node000009"><a xlink:title=" ">
<path fill="none" stroke="#63b8ff" d="M886.61,-186.31C931.23,-177.63 999.33,-162.86 1056.75,-144 1058.09,-143.56 1059.45,-143.09 1060.82,-142.59"/>
<polygon fill="#63b8ff" stroke="#63b8ff" points="1061.82,-145.96 1069.84,-139.05 1059.26,-139.45 1061.82,-145.96"/>
</a>
</g>
</g>
<!-- Node10 -->
<g id="Node000010" class="node">
<title>Node10</title>
<g id="a_Node000010"><a xlink:title=" ">
<polygon fill="#e0e0e0" stroke="#999999" points="692.5,-138 651,-138 651,-118 692.5,-118 692.5,-138"/>
<text text-anchor="middle" x="671.75" y="-124.5" font-family="Helvetica,sans-Serif" font-size="10.00">vector</text>
</a>
</g>
</g>
<!-- Node8&#45;&gt;Node10 -->
<g id="edge11_Node000008_Node000010" class="edge">
<title>Node8&#45;&gt;Node10</title>
<g id="a_edge11_Node000008_Node000010"><a xlink:title=" ">
<path fill="none" stroke="#63b8ff" d="M792.5,-179.51C765.43,-170.05 730.78,-157.25 700.75,-144 700.27,-143.79 699.79,-143.57 699.3,-143.35"/>
<polygon fill="#63b8ff" stroke="#63b8ff" points="700.95,-140.26 690.43,-139.06 697.9,-146.56 700.95,-140.26"/>
</a>
</g>
</g>
<!-- Node11 -->
<g id="Node000011" class="node">
<title>Node11</title>
<g id="a_Node000011"><a xlink:title=" ">
<polygon fill="#e0e0e0" stroke="#999999" points="767.38,-138 710.12,-138 710.12,-118 767.38,-118 767.38,-138"/>
<text text-anchor="middle" x="738.75" y="-124.5" font-family="Helvetica,sans-Serif" font-size="10.00">functional</text>
</a>
</g>
</g>
<!-- Node8&#45;&gt;Node11 -->
<g id="edge12_Node000008_Node000011" class="edge">
<title>Node8&#45;&gt;Node11</title>
<g id="a_edge12_Node000008_Node000011"><a xlink:title=" ">
<path fill="none" stroke="#63b8ff" d="M815.3,-179.53C799.34,-168.99 778.28,-155.09 762.29,-144.54"/>
<polygon fill="#63b8ff" stroke="#63b8ff" points="764.62,-141.88 754.35,-139.29 760.76,-147.72 764.62,-141.88"/>
</a>
</g>
</g>
<!-- Node12 -->
<g id="Node000012" class="node">
<title>Node12</title>
<g id="a_Node000012"><a xlink:title=" ">
<polygon fill="#e0e0e0" stroke="#999999" points="830.38,-138 785.12,-138 785.12,-118 830.38,-118 830.38,-138"/>
<text text-anchor="middle" x="807.75" y="-124.5" font-family="Helvetica,sans-Serif" font-size="10.00">atomic</text>
</a>
</g>
</g>
<!-- Node8&#45;&gt;Node12 -->
<g id="edge13_Node000008_Node000012" class="edge">
<title>Node8&#45;&gt;Node12</title>
<g id="a_edge13_Node000008_Node000012"><a xlink:title=" ">
<path fill="none" stroke="#63b8ff" d="M831.56,-179.69C827.19,-170.4 821.58,-158.44 816.9,-148.47"/>
<polygon fill="#63b8ff" stroke="#63b8ff" points="820.19,-147.25 812.77,-139.69 813.85,-150.23 820.19,-147.25"/>
</a>
</g>
</g>
<!-- Node13 -->
<g id="Node000013" class="node">
<title>Node13</title>
<g id="a_Node000013"><a xlink:title=" ">
<polygon fill="#e0e0e0" stroke="#999999" points="891.25,-138 848.25,-138 848.25,-118 891.25,-118 891.25,-138"/>
<text text-anchor="middle" x="869.75" y="-124.5" font-family="Helvetica,sans-Serif" font-size="10.00">thread</text>
</a>
</g>
</g>
<!-- Node8&#45;&gt;Node13 -->
<g id="edge14_Node000008_Node000013" class="edge">
<title>Node8&#45;&gt;Node13</title>
<g id="a_edge14_Node000008_Node000013"><a xlink:title=" ">
<path fill="none" stroke="#63b8ff" d="M845.94,-179.69C850.31,-170.4 855.92,-158.44 860.6,-148.47"/>
<polygon fill="#63b8ff" stroke="#63b8ff" points="863.65,-150.23 864.73,-139.69 857.31,-147.25 863.65,-150.23"/>
</a>
</g>
</g>
<!-- Node14 -->
<g id="Node000014" class="node">
<title>Node14</title>
<g id="a_Node000014"><a xlink:title=" ">
<polygon fill="#e0e0e0" stroke="#999999" points="911.25,-76 868.25,-76 868.25,-56 911.25,-56 911.25,-76"/>
<text text-anchor="middle" x="889.75" y="-62.5" font-family="Helvetica,sans-Serif" font-size="10.00">mutex</text>
</a>
</g>
</g>
<!-- Node8&#45;&gt;Node14 -->
<g id="edge15_Node000008_Node000014" class="edge">
<title>Node8&#45;&gt;Node14</title>
<g id="a_edge15_Node000008_Node000014"><a xlink:title=" ">
<path fill="none" stroke="#63b8ff" d="M866.93,-179.7C879.77,-171.07 893.67,-159 900.75,-144 909.38,-125.72 904.16,-102.5 898.33,-86.36"/>
<polygon fill="#63b8ff" stroke="#63b8ff" points="901.72,-85.4 894.74,-77.43 895.23,-88.02 901.72,-85.4"/>
</a>
</g>
</g>
<!-- Node15 -->
<g id="Node000015" class="node">
<title>Node15</title>
<g id="a_Node000015"><a xlink:href="_i_logger_8h.html" target="_top" xlink:title="Class that encapsulates the look and feel of the HUD.">
<polygon fill="white" stroke="#666666" points="1155.62,-76 1099.88,-76 1099.88,-56 1155.62,-56 1155.62,-76"/>
<text text-anchor="middle" x="1127.75" y="-62.5" font-family="Helvetica,sans-Serif" font-size="10.00">ILogger.h</text>
</a>
</g>
</g>
<!-- Node8&#45;&gt;Node15 -->
<g id="edge16_Node000008_Node000015" class="edge">
<title>Node8&#45;&gt;Node15</title>
<g id="a_edge16_Node000008_Node000015"><a xlink:title=" ">
<path fill="none" stroke="#63b8ff" d="M886.8,-193.63C960.59,-190.4 1096.46,-179.65 1126.75,-144 1139.85,-128.59 1137.81,-104.5 1133.96,-87.37"/>
<polygon fill="#63b8ff" stroke="#63b8ff" points="1137.37,-86.58 1131.41,-77.82 1130.61,-88.38 1137.37,-86.58"/>
</a>
</g>
</g>
<!-- Node16 -->
<g id="Node000016" class="node">
<title>Node16</title>
<g id="a_Node000016"><a xlink:href="_concurrent_queue_8h.html" target="_top" xlink:title="Concurrent queue implementation.">
<polygon fill="white" stroke="#666666" points="1047.75,-138 947.75,-138 947.75,-118 1047.75,-118 1047.75,-138"/>
<text text-anchor="middle" x="997.75" y="-124.5" font-family="Helvetica,sans-Serif" font-size="10.00">ConcurrentQueue.h</text>
</a>
</g>
</g>
<!-- Node8&#45;&gt;Node16 -->
<g id="edge18_Node000008_Node000016" class="edge">
<title>Node8&#45;&gt;Node16</title>
<g id="a_edge18_Node000008_Node000016"><a xlink:title=" ">
<path fill="none" stroke="#63b8ff" d="M876.03,-179.53C902.85,-168.39 938.71,-153.51 964.55,-142.78"/>
<polygon fill="#63b8ff" stroke="#63b8ff" points="965.67,-146.11 973.56,-139.04 962.98,-139.64 965.67,-146.11"/>
</a>
</g>
</g>
<!-- Node15&#45;&gt;Node5 -->
<g id="edge17_Node000015_Node000005" class="edge">
<title>Node15&#45;&gt;Node5</title>
<g id="a_edge17_Node000015_Node000005"><a xlink:title=" ">
<path fill="none" stroke="#63b8ff" d="M1099.55,-57.7C1096.59,-57.07 1093.62,-56.48 1090.75,-56 927.64,-28.47 729.49,-16.32 653.99,-12.46"/>
<polygon fill="#63b8ff" stroke="#63b8ff" points="654.63,-8.99 644.47,-11.99 654.28,-15.98 654.63,-8.99"/>
</a>
</g>
</g>
<!-- Node16&#45;&gt;Node14 -->
<g id="edge20_Node000016_Node000014" class="edge">
<title>Node16&#45;&gt;Node14</title>
<g id="a_edge20_Node000016_Node000014"><a xlink:title=" ">
<path fill="none" stroke="#63b8ff" d="M980.88,-117.62C963.6,-108.03 936.49,-92.97 916.33,-81.77"/>
<polygon fill="#63b8ff" stroke="#63b8ff" points="918.27,-78.84 907.83,-77.04 914.87,-84.96 918.27,-78.84"/>
</a>
</g>
</g>
<!-- Node17 -->
<g id="Node000017" class="node">
<title>Node17</title>
<g id="a_Node000017"><a xlink:title=" ">
<polygon fill="#e0e0e0" stroke="#999999" points="1081.88,-76 1039.62,-76 1039.62,-56 1081.88,-56 1081.88,-76"/>
<text text-anchor="middle" x="1060.75" y="-62.5" font-family="Helvetica,sans-Serif" font-size="10.00">queue</text>
</a>
</g>
</g>
<!-- Node16&#45;&gt;Node17 -->
<g id="edge19_Node000016_Node000017" class="edge">
<title>Node16&#45;&gt;Node17</title>
<g id="a_edge19_Node000016_Node000017"><a xlink:title=" ">
<path fill="none" stroke="#63b8ff" d="M1007.59,-117.62C1017.08,-108.59 1031.65,-94.72 1043.13,-83.78"/>
<polygon fill="#63b8ff" stroke="#63b8ff" points="1045.26,-86.59 1050.09,-77.16 1040.43,-81.52 1045.26,-86.59"/>
</a>
</g>
</g>
<!-- Node18 -->
<g id="Node000018" class="node">
<title>Node18</title>
<g id="a_Node000018"><a xlink:title=" ">
<polygon fill="#e0e0e0" stroke="#999999" points="1022,-76 929.5,-76 929.5,-56 1022,-56 1022,-76"/>
<text text-anchor="middle" x="975.75" y="-62.5" font-family="Helvetica,sans-Serif" font-size="10.00">condition_variable</text>
</a>
</g>
</g>
<!-- Node16&#45;&gt;Node18 -->
<g id="edge21_Node000016_Node000018" class="edge">
<title>Node16&#45;&gt;Node18</title>
<g id="a_edge21_Node000016_Node000018"><a xlink:title=" ">
<path fill="none" stroke="#63b8ff" d="M994.31,-117.62C991.29,-109.39 986.8,-97.13 982.99,-86.74"/>
<polygon fill="#63b8ff" stroke="#63b8ff" points="986.34,-85.72 979.61,-77.53 979.77,-88.13 986.34,-85.72"/>
</a>
</g>
</g>
<!-- Node19&#45;&gt;Node5 -->
<g id="edge23_Node000019_Node000005" class="edge">
<title>Node19&#45;&gt;Node5</title>
<g id="a_edge23_Node000019_Node000005"><a xlink:title=" ">
<path fill="none" stroke="#63b8ff" d="M475.79,-185.65C487.54,-170.13 511.99,-138.18 533.75,-112 558.51,-82.21 588.52,-48.65 606.6,-28.7"/>
<polygon fill="#63b8ff" stroke="#63b8ff" points="609.07,-31.18 613.2,-21.43 603.89,-26.48 609.07,-31.18"/>
</a>
</g>
</g>
<!-- Node19&#45;&gt;Node20 -->
<g id="edge24_Node000019_Node000020" class="edge">
<title>Node19&#45;&gt;Node20</title>
<g id="a_edge24_Node000019_Node000020"><a xlink:title=" ">
<path fill="none" stroke="#63b8ff" d="M483.08,-185.54C499.19,-174.91 525.62,-157.47 544.87,-144.76"/>
<polygon fill="#63b8ff" stroke="#63b8ff" points="546.77,-147.7 553.19,-139.27 542.91,-141.86 546.77,-147.7"/>
</a>
</g>
</g>
<!-- Node19&#45;&gt;Node21 -->
<g id="edge25_Node000019_Node000021" class="edge">
<title>Node19&#45;&gt;Node21</title>
<g id="a_edge25_Node000019_Node000021"><a xlink:title=" ">
<path fill="none" stroke="#63b8ff" d="M442.43,-185.62C436.93,-183.72 431.16,-181.76 425.75,-180 373.21,-162.9 359.09,-161.71 306.75,-144 305.17,-143.47 303.56,-142.91 301.93,-142.34"/>
<polygon fill="#63b8ff" stroke="#63b8ff" points="303.22,-139.08 292.62,-138.97 300.83,-145.66 303.22,-139.08"/>
</a>
</g>
</g>
<!-- Node22 -->
<g id="Node000022" class="node">
<title>Node22</title>
<g id="a_Node000022"><a xlink:title=" ">
<polygon fill="#e0e0e0" stroke="#999999" points="365.62,-138 315.88,-138 315.88,-118 365.62,-118 365.62,-138"/>
<text text-anchor="middle" x="340.75" y="-124.5" font-family="Helvetica,sans-Serif" font-size="10.00">iomanip</text>
</a>
</g>
</g>
<!-- Node19&#45;&gt;Node22 -->
<g id="edge26_Node000019_Node000022" class="edge">
<title>Node19&#45;&gt;Node22</title>
<g id="a_edge26_Node000019_Node000022"><a xlink:title=" ">
<path fill="none" stroke="#63b8ff" d="M450.41,-185.54C429.12,-174.57 393.76,-156.33 368.96,-143.55"/>
<polygon fill="#63b8ff" stroke="#63b8ff" points="370.89,-140.6 360.4,-139.13 367.68,-146.83 370.89,-140.6"/>
</a>
</g>
</g>
<!-- Node23 -->
<g id="Node000023" class="node">
<title>Node23</title>
<g id="a_Node000023"><a xlink:title=" ">
<polygon fill="#e0e0e0" stroke="#999999" points="429.38,-138 384.12,-138 384.12,-118 429.38,-118 429.38,-138"/>
<text text-anchor="middle" x="406.75" y="-124.5" font-family="Helvetica,sans-Serif" font-size="10.00">cstdint</text>
</a>
</g>
</g>
<!-- Node19&#45;&gt;Node23 -->
<g id="edge27_Node000019_Node000023" class="edge">
<title>Node19&#45;&gt;Node23</title>
<g id="a_edge27_Node000019_Node000023"><a xlink:title=" ">
<path fill="none" stroke="#63b8ff" d="M459.87,-185.54C450.38,-175.45 435.14,-159.22 423.4,-146.73"/>
<polygon fill="#63b8ff" stroke="#63b8ff" points="426.05,-144.43 416.65,-139.54 420.95,-149.23 426.05,-144.43"/>
</a>
</g>
</g>
<!-- Node24 -->
<g id="Node000024" class="node">
<title>Node24</title>
<g id="a_Node000024"><a xlink:title=" ">
<polygon fill="#e0e0e0" stroke="#999999" points="486.38,-138 447.12,-138 447.12,-118 486.38,-118 486.38,-138"/>
<text text-anchor="middle" x="466.75" y="-124.5" font-family="Helvetica,sans-Serif" font-size="10.00">utility</text>
</a>
</g>
</g>
<!-- Node19&#45;&gt;Node24 -->
<g id="edge28_Node000019_Node000024" class="edge">
<title>Node19&#45;&gt;Node24</title>
<g id="a_edge28_Node000019_Node000024"><a xlink:title=" ">
<path fill="none" stroke="#63b8ff" d="M468.46,-185.54C468.18,-176.23 467.74,-161.7 467.38,-149.7"/>
<polygon fill="#63b8ff" stroke="#63b8ff" points="470.88,-149.84 467.08,-139.95 463.89,-150.05 470.88,-149.84"/>
</a>
</g>
</g>
<!-- Node29 -->
<g id="Node000029" class="node">
<title>Node29</title>
<g id="a_Node000029"><a xlink:href="_asserts_8h.html" target="_top" xlink:title="Set of macros for runtime and compile time assertions.">
<polygon fill="white" stroke="#666666" points="889.5,-280 788,-280 788,-248 889.5,-248 889.5,-280"/>
<text text-anchor="start" x="796" y="-266.5" font-family="Helvetica,sans-Serif" font-size="10.00">engine/core/asserts</text>
<text text-anchor="middle" x="838.75" y="-254.5" font-family="Helvetica,sans-Serif" font-size="10.00">/Asserts.h</text>
</a>
</g>
</g>
<!-- Node28&#45;&gt;Node29 -->
<g id="edge35_Node000028_Node000029" class="edge">
<title>Node28&#45;&gt;Node29</title>
<g id="a_edge35_Node000028_Node000029"><a xlink:title=" ">
<path fill="none" stroke="#63b8ff" d="M838.75,-327.59C838.75,-317.33 838.75,-303.59 838.75,-291.6"/>
<polygon fill="#63b8ff" stroke="#63b8ff" points="842.25,-291.89 838.75,-281.89 835.25,-291.89 842.25,-291.89"/>
</a>
</g>
</g>
<!-- Node36 -->
<g id="Node000036" class="node">
<title>Node36</title>
<g id="a_Node000036"><a xlink:href="_config_8h.html" target="_top" xlink:title="This file contains the configuration of the engine.">
<polygon fill="white" stroke="#666666" points="990.12,-274 907.38,-274 907.38,-254 990.12,-254 990.12,-274"/>
<text text-anchor="middle" x="948.75" y="-260.5" font-family="Helvetica,sans-Serif" font-size="10.00">engine/Config.h</text>
</a>
</g>
</g>
<!-- Node28&#45;&gt;Node36 -->
<g id="edge48_Node000028_Node000036" class="edge">
<title>Node28&#45;&gt;Node36</title>
<g id="a_edge48_Node000028_Node000036"><a xlink:title=" ">
<path fill="none" stroke="#63b8ff" d="M860.48,-327.59C879.46,-314.13 906.91,-294.67 926.15,-281.03"/>
<polygon fill="#63b8ff" stroke="#63b8ff" points="928,-284 934.13,-275.36 923.95,-278.29 928,-284"/>
</a>
</g>
</g>
<!-- Node29&#45;&gt;Node5 -->
<g id="edge38_Node000029_Node000005" class="edge">
<title>Node29&#45;&gt;Node5</title>
<g id="a_edge38_Node000029_Node000005"><a xlink:title=" ">
<path fill="none" stroke="#63b8ff" d="M889.88,-249.21C967.67,-227.26 1110.46,-182.9 1145.75,-144 1172.63,-114.36 1191.85,-85.44 1164.75,-56 1130.08,-18.33 765.18,-12.19 654.44,-11.19"/>
<polygon fill="#63b8ff" stroke="#63b8ff" points="654.63,-7.69 644.6,-11.11 654.57,-14.69 654.63,-7.69"/>
</a>
</g>
</g>
<!-- Node29&#45;&gt;Node8 -->
<g id="edge47_Node000029_Node000008" class="edge">
<title>Node29&#45;&gt;Node8</title>
<g id="a_edge47_Node000029_Node000008"><a xlink:title=" ">
<path fill="none" stroke="#63b8ff" d="M838.75,-247.69C838.75,-240.53 838.75,-231.79 838.75,-223.59"/>
<polygon fill="#63b8ff" stroke="#63b8ff" points="842.25,-223.74 838.75,-213.74 835.25,-223.74 842.25,-223.74"/>
</a>
</g>
</g>
<!-- Node29&#45;&gt;Node19 -->
<g id="edge46_Node000029_Node000019" class="edge">
<title>Node29&#45;&gt;Node19</title>
<g id="a_edge46_Node000029_Node000019"><a xlink:title=" ">
<path fill="none" stroke="#63b8ff" d="M787.69,-253.89C713.29,-240.62 576.6,-216.24 508.91,-204.16"/>
<polygon fill="#63b8ff" stroke="#63b8ff" points="509.83,-200.77 499.37,-202.46 508.6,-207.66 509.83,-200.77"/>
</a>
</g>
</g>
<!-- Node29&#45;&gt;Node20 -->
<g id="edge40_Node000029_Node000020" class="edge">
<title>Node29&#45;&gt;Node20</title>
<g id="a_edge40_Node000029_Node000020"><a xlink:title=" ">
<path fill="none" stroke="#63b8ff" d="M807.78,-247.63C755.15,-221.51 648.99,-168.82 597.74,-143.39"/>
<polygon fill="#63b8ff" stroke="#63b8ff" points="599.54,-140.37 589.03,-139.06 596.43,-146.64 599.54,-140.37"/>
</a>
</g>
</g>
<!-- Node29&#45;&gt;Node21 -->
<g id="edge39_Node000029_Node000021" class="edge">
<title>Node29&#45;&gt;Node21</title>
<g id="a_edge39_Node000029_Node000021"><a xlink:title=" ">
<path fill="none" stroke="#63b8ff" d="M787.52,-262.64C708.9,-260.76 554.62,-251.77 430.75,-212 402.35,-202.88 398.28,-193.63 371.75,-180 346.73,-167.15 317.97,-153.24 296.89,-143.2"/>
<polygon fill="#63b8ff" stroke="#63b8ff" points="298.52,-140.1 287.99,-138.97 295.52,-146.42 298.52,-140.1"/>
</a>
</g>
</g>
<!-- Node30 -->
<g id="Node000030" class="node">
<title>Node30</title>
<g id="a_Node000030"><a xlink:title=" ">
<polygon fill="#e0e0e0" stroke="#999999" points="1404.25,-206 1361.25,-206 1361.25,-186 1404.25,-186 1404.25,-206"/>
<text text-anchor="middle" x="1382.75" y="-192.5" font-family="Helvetica,sans-Serif" font-size="10.00">cmath</text>
</a>
</g>
</g>
<!-- Node29&#45;&gt;Node30 -->
<g id="edge36_Node000029_Node000030" class="edge">
<title>Node29&#45;&gt;Node30</title>
<g id="a_edge36_Node000029_Node000030"><a xlink:title=" ">
<path fill="none" stroke="#63b8ff" d="M889.69,-249.65C892.75,-249.04 895.78,-248.49 898.75,-248 1098.51,-215.34 1157.75,-266.26 1352.75,-212 1353.93,-211.67 1355.11,-211.3 1356.3,-210.89"/>
<polygon fill="#63b8ff" stroke="#63b8ff" points="1357.49,-214.18 1365.31,-207.03 1354.74,-207.75 1357.49,-214.18"/>
</a>
</g>
</g>
<!-- Node31 -->
<g id="Node000031" class="node">
<title>Node31</title>
<g id="a_Node000031"><a xlink:title=" ">
<polygon fill="#e0e0e0" stroke="#999999" points="1178.38,-206 1139.12,-206 1139.12,-186 1178.38,-186 1178.38,-206"/>
<text text-anchor="middle" x="1158.75" y="-192.5" font-family="Helvetica,sans-Serif" font-size="10.00">limits</text>
</a>
</g>
</g>
<!-- Node29&#45;&gt;Node31 -->
<g id="edge37_Node000029_Node000031" class="edge">
<title>Node29&#45;&gt;Node31</title>
<g id="a_edge37_Node000029_Node000031"><a xlink:title=" ">
<path fill="none" stroke="#63b8ff" d="M889.74,-249.93C892.79,-249.25 895.8,-248.6 898.75,-248 998.4,-227.65 1027.19,-240.77 1124.75,-212 1126.14,-211.59 1127.55,-211.14 1128.97,-210.65"/>
<polygon fill="#63b8ff" stroke="#63b8ff" points="1130.22,-213.92 1138.25,-207 1127.66,-207.4 1130.22,-213.92"/>
</a>
</g>
</g>
<!-- Node32 -->
<g id="Node000032" class="node">
<title>Node32</title>
<g id="a_Node000032"><a xlink:href="_assert_failed_exception_8h.html" target="_top" xlink:title="@TODO Add description of this file if needed">
<polygon fill="white" stroke="#666666" points="1343.38,-212 1196.12,-212 1196.12,-180 1343.38,-180 1343.38,-212"/>
<text text-anchor="start" x="1204.12" y="-198.5" font-family="Helvetica,sans-Serif" font-size="10.00">engine/core/exceptions</text>
<text text-anchor="middle" x="1269.75" y="-186.5" font-family="Helvetica,sans-Serif" font-size="10.00">/core/AssertFailedException.h</text>
</a>
</g>
</g>
<!-- Node29&#45;&gt;Node32 -->
<g id="edge41_Node000029_Node000032" class="edge">
<title>Node29&#45;&gt;Node32</title>
<g id="a_edge41_Node000029_Node000032"><a xlink:title=" ">
<path fill="none" stroke="#63b8ff" d="M889.72,-249.81C892.77,-249.16 895.79,-248.55 898.75,-248 1022.39,-224.93 1057.82,-231.26 1184.7,-212.4"/>
<polygon fill="#63b8ff" stroke="#63b8ff" points="1185.17,-215.87 1194.53,-210.92 1184.12,-208.95 1185.17,-215.87"/>
</a>
</g>
</g>
<!-- Node33 -->
<g id="Node000033" class="node">
<title>Node33</title>
<g id="a_Node000033"><a xlink:href="_engine_exception_8h.html" target="_top" xlink:title="Base exception class for any exception in the engine.">
<polygon fill="white" stroke="#666666" points="1328,-144 1211.5,-144 1211.5,-112 1328,-112 1328,-144"/>
<text text-anchor="start" x="1219.5" y="-130.5" font-family="Helvetica,sans-Serif" font-size="10.00">engine/core/exceptions</text>
<text text-anchor="middle" x="1269.75" y="-118.5" font-family="Helvetica,sans-Serif" font-size="10.00">/EngineException.h</text>
</a>
</g>
</g>
<!-- Node32&#45;&gt;Node33 -->
<g id="edge42_Node000032_Node000033" class="edge">
<title>Node32&#45;&gt;Node33</title>
<g id="a_edge42_Node000032_Node000033"><a xlink:title=" ">
<path fill="none" stroke="#63b8ff" d="M1269.75,-179.69C1269.75,-172.53 1269.75,-163.79 1269.75,-155.59"/>
<polygon fill="#63b8ff" stroke="#63b8ff" points="1273.25,-155.74 1269.75,-145.74 1266.25,-155.74 1273.25,-155.74"/>
</a>
</g>
</g>
<!-- Node34 -->
<g id="Node000034" class="node">
<title>Node34</title>
<g id="a_Node000034"><a xlink:href="_base_exception_8h.html" target="_top" xlink:title=" ">
<polygon fill="white" stroke="#666666" points="1307.88,-76 1217.62,-76 1217.62,-56 1307.88,-56 1307.88,-76"/>
<text text-anchor="middle" x="1262.75" y="-62.5" font-family="Helvetica,sans-Serif" font-size="10.00">BaseException.h</text>
</a>
</g>
</g>
<!-- Node33&#45;&gt;Node34 -->
<g id="edge43_Node000033_Node000034" class="edge">
<title>Node33&#45;&gt;Node34</title>
<g id="a_edge43_Node000033_Node000034"><a xlink:title=" ">
<path fill="none" stroke="#63b8ff" d="M1267.95,-111.55C1267.1,-104.26 1266.07,-95.45 1265.15,-87.6"/>
<polygon fill="#63b8ff" stroke="#63b8ff" points="1268.66,-87.44 1264.02,-77.91 1261.71,-88.25 1268.66,-87.44"/>
</a>
</g>
</g>
<!-- Node34&#45;&gt;Node5 -->
<g id="edge45_Node000034_Node000005" class="edge">
<title>Node34&#45;&gt;Node5</title>
<g id="a_edge45_Node000034_Node000005"><a xlink:title=" ">
<path fill="none" stroke="#63b8ff" d="M1217.33,-58.36C1210.77,-57.5 1204.09,-56.69 1197.75,-56 991.17,-33.63 741.67,-17.96 654.58,-12.82"/>
<polygon fill="#63b8ff" stroke="#63b8ff" points="654.86,-9.33 644.67,-12.24 654.45,-16.32 654.86,-9.33"/>
</a>
</g>
</g>
<!-- Node35 -->
<g id="Node000035" class="node">
<title>Node35</title>
<g id="a_Node000035"><a xlink:title=" ">
<polygon fill="#e0e0e0" stroke="#999999" points="1292.12,-20 1233.38,-20 1233.38,0 1292.12,0 1292.12,-20"/>
<text text-anchor="middle" x="1262.75" y="-6.5" font-family="Helvetica,sans-Serif" font-size="10.00">stdexcept</text>
</a>
</g>
</g>
<!-- Node34&#45;&gt;Node35 -->
<g id="edge44_Node000034_Node000035" class="edge">
<title>Node34&#45;&gt;Node35</title>
<g id="a_edge44_Node000034_Node000035"><a xlink:title=" ">
<path fill="none" stroke="#63b8ff" d="M1262.75,-55.59C1262.75,-49.01 1262.75,-39.96 1262.75,-31.73"/>
<polygon fill="#63b8ff" stroke="#63b8ff" points="1266.25,-31.81 1262.75,-21.81 1259.25,-31.81 1266.25,-31.81"/>
</a>
</g>
</g>
</g>
</svg>
