<?xml version="1.0" encoding="UTF-8" standalone="no"?>
<!DOCTYPE svg PUBLIC "-//W3C//DTD SVG 1.1//EN"
 "http://www.w3.org/Graphics/SVG/1.1/DTD/svg11.dtd">
<!-- Generated by graphviz version 11.0.0 (20240428.1522)
 -->
<!-- Title: OpenGLDebugger.h Pages: 1 -->
<svg width="1044pt" height="276pt"
 viewBox="0.00 0.00 1043.61 276.00" xmlns="http://www.w3.org/2000/svg" xmlns:xlink="http://www.w3.org/1999/xlink">
<g id="graph0" class="graph" transform="scale(1 1) rotate(0) translate(4 272)">
<title>OpenGLDebugger.h</title>
<!-- Node1 -->
<g id="Node000001" class="node">
<title>Node1</title>
<g id="a_Node000001"><a xlink:title="@TODO Add description of this file if needed">
<polygon fill="#999999" stroke="#666666" points="967.25,-268 865.75,-268 865.75,-248 967.25,-248 967.25,-268"/>
<text text-anchor="middle" x="916.5" y="-254.5" font-family="Helvetica,sans-Serif" font-size="10.00">OpenGLDebugger.h</text>
</a>
</g>
</g>
<!-- Node2 -->
<g id="Node000002" class="node">
<title>Node2</title>
<g id="a_Node000002"><a xlink:title=" ">
<polygon fill="#e0e0e0" stroke="#999999" points="643.5,-20 603.5,-20 603.5,0 643.5,0 643.5,-20"/>
<text text-anchor="middle" x="623.5" y="-6.5" font-family="Helvetica,sans-Serif" font-size="10.00">string</text>
</a>
</g>
</g>
<!-- Node1&#45;&gt;Node2 -->
<g id="edge1_Node000001_Node000002" class="edge">
<title>Node1&#45;&gt;Node2</title>
<g id="a_edge1_Node000001_Node000002"><a xlink:title=" ">
<path fill="none" stroke="#63b8ff" d="M928.42,-247.6C965.86,-217 1075.38,-118.59 1019.5,-56 995.32,-28.92 744.68,-16 655.11,-12.22"/>
<polygon fill="#63b8ff" stroke="#63b8ff" points="655.46,-8.73 645.32,-11.82 655.17,-15.73 655.46,-8.73"/>
</a>
</g>
</g>
<!-- Node3 -->
<g id="Node000003" class="node">
<title>Node3</title>
<g id="a_Node000003"><a xlink:title=" ">
<polygon fill="#e0e0e0" stroke="#999999" points="946.25,-206 886.75,-206 886.75,-186 946.25,-186 946.25,-206"/>
<text text-anchor="middle" x="916.5" y="-192.5" font-family="Helvetica,sans-Serif" font-size="10.00">GL/glew.h</text>
</a>
</g>
</g>
<!-- Node1&#45;&gt;Node3 -->
<g id="edge2_Node000001_Node000003" class="edge">
<title>Node1&#45;&gt;Node3</title>
<g id="a_edge2_Node000001_Node000003"><a xlink:title=" ">
<path fill="none" stroke="#63b8ff" d="M916.5,-247.62C916.5,-239.56 916.5,-227.65 916.5,-217.41"/>
<polygon fill="#63b8ff" stroke="#63b8ff" points="920,-217.63 916.5,-207.63 913,-217.63 920,-217.63"/>
</a>
</g>
</g>
<!-- Node4 -->
<g id="Node000004" class="node">
<title>Node4</title>
<g id="a_Node000004"><a xlink:href="_debugger_8h.html" target="_top" xlink:title="A set of macros and functions for debugging and logging.">
<polygon fill="white" stroke="#666666" points="805,-212 696,-212 696,-180 805,-180 805,-212"/>
<text text-anchor="start" x="704" y="-198.5" font-family="Helvetica,sans-Serif" font-size="10.00">engine/core/debugger</text>
<text text-anchor="middle" x="750.5" y="-186.5" font-family="Helvetica,sans-Serif" font-size="10.00">/Debugger.h</text>
</a>
</g>
</g>
<!-- Node1&#45;&gt;Node4 -->
<g id="edge3_Node000001_Node000004" class="edge">
<title>Node1&#45;&gt;Node4</title>
<g id="a_edge3_Node000001_Node000004"><a xlink:title=" ">
<path fill="none" stroke="#63b8ff" d="M890.56,-247.62C867.52,-239.3 833.1,-226.86 804.15,-216.39"/>
<polygon fill="#63b8ff" stroke="#63b8ff" points="805.37,-213.11 794.78,-213 803,-219.7 805.37,-213.11"/>
</a>
</g>
</g>
<!-- Node4&#45;&gt;Node2 -->
<g id="edge4_Node000004_Node000002" class="edge">
<title>Node4&#45;&gt;Node2</title>
<g id="a_edge4_Node000004_Node000002"><a xlink:title=" ">
<path fill="none" stroke="#63b8ff" d="M729.92,-179.63C717.78,-170.07 702.49,-157.12 690.5,-144 665.54,-116.69 658.57,-109.32 642.5,-76 635.61,-61.72 630.7,-44.44 627.61,-31.29"/>
<polygon fill="#63b8ff" stroke="#63b8ff" points="631.06,-30.68 625.51,-21.66 624.22,-32.17 631.06,-30.68"/>
</a>
</g>
</g>
<!-- Node5 -->
<g id="Node000005" class="node">
<title>Node5</title>
<g id="a_Node000005"><a xlink:href="_logger_8h.html" target="_top" xlink:title="@TODO Add description of this file if needed">
<polygon fill="white" stroke="#666666" points="419.25,-144 323.75,-144 323.75,-112 419.25,-112 419.25,-144"/>
<text text-anchor="start" x="331.75" y="-130.5" font-family="Helvetica,sans-Serif" font-size="10.00">engine/core/logger</text>
<text text-anchor="middle" x="371.5" y="-118.5" font-family="Helvetica,sans-Serif" font-size="10.00">/Logger.h</text>
</a>
</g>
</g>
<!-- Node4&#45;&gt;Node5 -->
<g id="edge5_Node000004_Node000005" class="edge">
<title>Node4&#45;&gt;Node5</title>
<g id="a_edge5_Node000004_Node000005"><a xlink:title=" ">
<path fill="none" stroke="#63b8ff" d="M695.79,-185.47C625.36,-173.21 503.4,-151.97 430.8,-139.33"/>
<polygon fill="#63b8ff" stroke="#63b8ff" points="431.53,-135.9 421.08,-137.63 430.33,-142.8 431.53,-135.9"/>
</a>
</g>
</g>
<!-- Node16 -->
<g id="Node000016" class="node">
<title>Node16</title>
<g id="a_Node000016"><a xlink:href="_stringer_8h.html" target="_top" xlink:title="A set of functions for converting objects to strings.">
<polygon fill="white" stroke="#666666" points="987.5,-138 929.5,-138 929.5,-118 987.5,-118 987.5,-138"/>
<text text-anchor="middle" x="958.5" y="-124.5" font-family="Helvetica,sans-Serif" font-size="10.00">Stringer.h</text>
</a>
</g>
</g>
<!-- Node4&#45;&gt;Node16 -->
<g id="edge19_Node000004_Node000016" class="edge">
<title>Node4&#45;&gt;Node16</title>
<g id="a_edge19_Node000004_Node000016"><a xlink:title=" ">
<path fill="none" stroke="#63b8ff" d="M805.23,-179.85C838.74,-170.27 882.36,-157.22 920.5,-144 922.05,-143.46 923.63,-142.9 925.22,-142.32"/>
<polygon fill="#63b8ff" stroke="#63b8ff" points="926.18,-145.7 934.29,-138.89 923.7,-139.15 926.18,-145.7"/>
</a>
</g>
</g>
<!-- Node17 -->
<g id="Node000017" class="node">
<title>Node17</title>
<g id="a_Node000017"><a xlink:title=" ">
<polygon fill="#e0e0e0" stroke="#999999" points="703.12,-76 651.88,-76 651.88,-56 703.12,-56 703.12,-76"/>
<text text-anchor="middle" x="677.5" y="-62.5" font-family="Helvetica,sans-Serif" font-size="10.00">sstream</text>
</a>
</g>
</g>
<!-- Node4&#45;&gt;Node17 -->
<g id="edge27_Node000004_Node000017" class="edge">
<title>Node4&#45;&gt;Node17</title>
<g id="a_edge27_Node000004_Node000017"><a xlink:title=" ">
<path fill="none" stroke="#63b8ff" d="M736.77,-179.69C728.47,-169.94 718.07,-156.78 710.5,-144 699.63,-125.65 690.38,-103.06 684.47,-87.11"/>
<polygon fill="#63b8ff" stroke="#63b8ff" points="687.8,-86.04 681.14,-77.81 681.22,-88.4 687.8,-86.04"/>
</a>
</g>
</g>
<!-- Node18 -->
<g id="Node000018" class="node">
<title>Node18</title>
<g id="a_Node000018"><a xlink:title=" ">
<polygon fill="#e0e0e0" stroke="#999999" points="783.38,-76 721.62,-76 721.62,-56 783.38,-56 783.38,-76"/>
<text text-anchor="middle" x="752.5" y="-62.5" font-family="Helvetica,sans-Serif" font-size="10.00">type_traits</text>
</a>
</g>
</g>
<!-- Node4&#45;&gt;Node18 -->
<g id="edge28_Node000004_Node000018" class="edge">
<title>Node4&#45;&gt;Node18</title>
<g id="a_edge28_Node000004_Node000018"><a xlink:title=" ">
<path fill="none" stroke="#63b8ff" d="M737.61,-179.59C730.45,-170.01 722.26,-157.06 718.5,-144 714.57,-130.33 713.98,-125.48 718.5,-112 721.86,-101.97 728.45,-92.39 734.93,-84.66"/>
<polygon fill="#63b8ff" stroke="#63b8ff" points="737.41,-87.13 741.55,-77.38 732.23,-82.43 737.41,-87.13"/>
</a>
</g>
</g>
<!-- Node22 -->
<g id="Node000022" class="node">
<title>Node22</title>
<g id="a_Node000022"><a xlink:title=" ">
<polygon fill="#e0e0e0" stroke="#999999" points="773.5,-138 727.5,-138 727.5,-118 773.5,-118 773.5,-138"/>
<text text-anchor="middle" x="750.5" y="-124.5" font-family="Helvetica,sans-Serif" font-size="10.00">iterator</text>
</a>
</g>
</g>
<!-- Node4&#45;&gt;Node22 -->
<g id="edge26_Node000004_Node000022" class="edge">
<title>Node4&#45;&gt;Node22</title>
<g id="a_edge26_Node000004_Node000022"><a xlink:title=" ">
<path fill="none" stroke="#63b8ff" d="M750.5,-179.69C750.5,-170.8 750.5,-159.46 750.5,-149.77"/>
<polygon fill="#63b8ff" stroke="#63b8ff" points="754,-149.83 750.5,-139.83 747,-149.83 754,-149.83"/>
</a>
</g>
</g>
<!-- Node23 -->
<g id="Node000023" class="node">
<title>Node23</title>
<g id="a_Node000023"><a xlink:title=" ">
<polygon fill="#e0e0e0" stroke="#999999" points="837.12,-138 791.88,-138 791.88,-118 837.12,-118 837.12,-138"/>
<text text-anchor="middle" x="814.5" y="-124.5" font-family="Helvetica,sans-Serif" font-size="10.00">cstring</text>
</a>
</g>
</g>
<!-- Node4&#45;&gt;Node23 -->
<g id="edge29_Node000004_Node000023" class="edge">
<title>Node4&#45;&gt;Node23</title>
<g id="a_edge29_Node000004_Node000023"><a xlink:title=" ">
<path fill="none" stroke="#63b8ff" d="M765.34,-179.69C774.94,-169.8 787.46,-156.89 797.46,-146.57"/>
<polygon fill="#63b8ff" stroke="#63b8ff" points="799.96,-149.02 804.41,-139.4 794.94,-144.15 799.96,-149.02"/>
</a>
</g>
</g>
<!-- Node24 -->
<g id="Node000024" class="node">
<title>Node24</title>
<g id="a_Node000024"><a xlink:title=" ">
<polygon fill="#e0e0e0" stroke="#999999" points="911.38,-138 855.62,-138 855.62,-118 911.38,-118 911.38,-138"/>
<text text-anchor="middle" x="883.5" y="-124.5" font-family="Helvetica,sans-Serif" font-size="10.00">algorithm</text>
</a>
</g>
</g>
<!-- Node4&#45;&gt;Node24 -->
<g id="edge30_Node000004_Node000024" class="edge">
<title>Node4&#45;&gt;Node24</title>
<g id="a_edge30_Node000004_Node000024"><a xlink:title=" ">
<path fill="none" stroke="#63b8ff" d="M781.68,-179.53C803.62,-168.64 832.78,-154.17 854.27,-143.5"/>
<polygon fill="#63b8ff" stroke="#63b8ff" points="855.68,-146.71 863.08,-139.13 852.57,-140.44 855.68,-146.71"/>
</a>
</g>
</g>
<!-- Node5&#45;&gt;Node2 -->
<g id="edge6_Node000005_Node000002" class="edge">
<title>Node5&#45;&gt;Node2</title>
<g id="a_edge6_Node000005_Node000002"><a xlink:title=" ">
<path fill="none" stroke="#63b8ff" d="M419.49,-122.43C460.99,-116.69 521.25,-103.95 566.5,-76 585.59,-64.21 601.82,-44.02 612.02,-29.27"/>
<polygon fill="#63b8ff" stroke="#63b8ff" points="614.66,-31.62 617.25,-21.35 608.82,-27.77 614.66,-31.62"/>
</a>
</g>
</g>
<!-- Node6 -->
<g id="Node000006" class="node">
<title>Node6</title>
<g id="a_Node000006"><a xlink:title=" ">
<polygon fill="#e0e0e0" stroke="#999999" points="299.12,-76 247.88,-76 247.88,-56 299.12,-56 299.12,-76"/>
<text text-anchor="middle" x="273.5" y="-62.5" font-family="Helvetica,sans-Serif" font-size="10.00">memory</text>
</a>
</g>
</g>
<!-- Node5&#45;&gt;Node6 -->
<g id="edge7_Node000005_Node000006" class="edge">
<title>Node5&#45;&gt;Node6</title>
<g id="a_edge7_Node000005_Node000006"><a xlink:title=" ">
<path fill="none" stroke="#63b8ff" d="M346.26,-111.55C331.52,-102.52 312.98,-91.17 298.31,-82.19"/>
<polygon fill="#63b8ff" stroke="#63b8ff" points="300.51,-79.43 290.16,-77.2 296.86,-85.4 300.51,-79.43"/>
</a>
</g>
</g>
<!-- Node7 -->
<g id="Node000007" class="node">
<title>Node7</title>
<g id="a_Node000007"><a xlink:title=" ">
<polygon fill="#e0e0e0" stroke="#999999" points="358.25,-76 316.75,-76 316.75,-56 358.25,-56 358.25,-76"/>
<text text-anchor="middle" x="337.5" y="-62.5" font-family="Helvetica,sans-Serif" font-size="10.00">vector</text>
</a>
</g>
</g>
<!-- Node5&#45;&gt;Node7 -->
<g id="edge8_Node000005_Node000007" class="edge">
<title>Node5&#45;&gt;Node7</title>
<g id="a_edge8_Node000005_Node000007"><a xlink:title=" ">
<path fill="none" stroke="#63b8ff" d="M362.74,-111.55C358.37,-103.82 353.03,-94.4 348.39,-86.21"/>
<polygon fill="#63b8ff" stroke="#63b8ff" points="351.55,-84.7 343.58,-77.72 345.46,-88.15 351.55,-84.7"/>
</a>
</g>
</g>
<!-- Node8 -->
<g id="Node000008" class="node">
<title>Node8</title>
<g id="a_Node000008"><a xlink:title=" ">
<polygon fill="#e0e0e0" stroke="#999999" points="433.12,-76 375.88,-76 375.88,-56 433.12,-56 433.12,-76"/>
<text text-anchor="middle" x="404.5" y="-62.5" font-family="Helvetica,sans-Serif" font-size="10.00">functional</text>
</a>
</g>
</g>
<!-- Node5&#45;&gt;Node8 -->
<g id="edge9_Node000005_Node000008" class="edge">
<title>Node5&#45;&gt;Node8</title>
<g id="a_edge9_Node000005_Node000008"><a xlink:title=" ">
<path fill="none" stroke="#63b8ff" d="M380,-111.55C384.2,-103.91 389.31,-94.61 393.78,-86.49"/>
<polygon fill="#63b8ff" stroke="#63b8ff" points="396.84,-88.18 398.6,-77.73 390.71,-84.81 396.84,-88.18"/>
</a>
</g>
</g>
<!-- Node9 -->
<g id="Node000009" class="node">
<title>Node9</title>
<g id="a_Node000009"><a xlink:title=" ">
<polygon fill="#e0e0e0" stroke="#999999" points="496.12,-76 450.88,-76 450.88,-56 496.12,-56 496.12,-76"/>
<text text-anchor="middle" x="473.5" y="-62.5" font-family="Helvetica,sans-Serif" font-size="10.00">atomic</text>
</a>
</g>
</g>
<!-- Node5&#45;&gt;Node9 -->
<g id="edge10_Node000005_Node000009" class="edge">
<title>Node5&#45;&gt;Node9</title>
<g id="a_edge10_Node000005_Node000009"><a xlink:title=" ">
<path fill="none" stroke="#63b8ff" d="M397.77,-111.55C413.11,-102.52 432.4,-91.17 447.67,-82.19"/>
<polygon fill="#63b8ff" stroke="#63b8ff" points="449.36,-85.26 456.2,-77.18 445.81,-79.23 449.36,-85.26"/>
</a>
</g>
</g>
<!-- Node10 -->
<g id="Node000010" class="node">
<title>Node10</title>
<g id="a_Node000010"><a xlink:title=" ">
<polygon fill="#e0e0e0" stroke="#999999" points="557,-76 514,-76 514,-56 557,-56 557,-76"/>
<text text-anchor="middle" x="535.5" y="-62.5" font-family="Helvetica,sans-Serif" font-size="10.00">thread</text>
</a>
</g>
</g>
<!-- Node5&#45;&gt;Node10 -->
<g id="edge11_Node000005_Node000010" class="edge">
<title>Node5&#45;&gt;Node10</title>
<g id="a_edge11_Node000005_Node000010"><a xlink:title=" ">
<path fill="none" stroke="#63b8ff" d="M413.73,-111.55C441.51,-101.39 477.32,-88.28 502.91,-78.92"/>
<polygon fill="#63b8ff" stroke="#63b8ff" points="503.92,-82.28 512.11,-75.56 501.52,-75.71 503.92,-82.28"/>
</a>
</g>
</g>
<!-- Node11 -->
<g id="Node000011" class="node">
<title>Node11</title>
<g id="a_Node000011"><a xlink:title=" ">
<polygon fill="#e0e0e0" stroke="#999999" points="43,-20 0,-20 0,0 43,0 43,-20"/>
<text text-anchor="middle" x="21.5" y="-6.5" font-family="Helvetica,sans-Serif" font-size="10.00">mutex</text>
</a>
</g>
</g>
<!-- Node5&#45;&gt;Node11 -->
<g id="edge12_Node000005_Node000011" class="edge">
<title>Node5&#45;&gt;Node11</title>
<g id="a_edge12_Node000005_Node000011"><a xlink:title=" ">
<path fill="none" stroke="#63b8ff" d="M323.41,-125.24C243.54,-121.4 88.2,-109.7 46.5,-76 32.98,-65.08 26.76,-45.93 23.91,-31.23"/>
<polygon fill="#63b8ff" stroke="#63b8ff" points="27.42,-31.06 22.44,-21.71 20.5,-32.13 27.42,-31.06"/>
</a>
</g>
</g>
<!-- Node12 -->
<g id="Node000012" class="node">
<title>Node12</title>
<g id="a_Node000012"><a xlink:href="_i_logger_8h.html" target="_top" xlink:title="Class that encapsulates the look and feel of the HUD.">
<polygon fill="white" stroke="#666666" points="229.38,-76 173.62,-76 173.62,-56 229.38,-56 229.38,-76"/>
<text text-anchor="middle" x="201.5" y="-62.5" font-family="Helvetica,sans-Serif" font-size="10.00">ILogger.h</text>
</a>
</g>
</g>
<!-- Node5&#45;&gt;Node12 -->
<g id="edge13_Node000005_Node000012" class="edge">
<title>Node5&#45;&gt;Node12</title>
<g id="a_edge13_Node000005_Node000012"><a xlink:title=" ">
<path fill="none" stroke="#63b8ff" d="M327.72,-111.55C300.26,-101.86 265.23,-89.49 239.04,-80.25"/>
<polygon fill="#63b8ff" stroke="#63b8ff" points="240.43,-77.03 229.83,-77 238.1,-83.63 240.43,-77.03"/>
</a>
</g>
</g>
<!-- Node13 -->
<g id="Node000013" class="node">
<title>Node13</title>
<g id="a_Node000013"><a xlink:href="_concurrent_queue_8h.html" target="_top" xlink:title="Concurrent queue implementation.">
<polygon fill="white" stroke="#666666" points="155.5,-76 55.5,-76 55.5,-56 155.5,-56 155.5,-76"/>
<text text-anchor="middle" x="105.5" y="-62.5" font-family="Helvetica,sans-Serif" font-size="10.00">ConcurrentQueue.h</text>
</a>
</g>
</g>
<!-- Node5&#45;&gt;Node13 -->
<g id="edge15_Node000005_Node000013" class="edge">
<title>Node5&#45;&gt;Node13</title>
<g id="a_edge15_Node000005_Node000013"><a xlink:title=" ">
<path fill="none" stroke="#63b8ff" d="M323.33,-116.13C276.76,-105.63 206.37,-89.75 158.3,-78.91"/>
<polygon fill="#63b8ff" stroke="#63b8ff" points="159.19,-75.52 148.67,-76.74 157.65,-82.35 159.19,-75.52"/>
</a>
</g>
</g>
<!-- Node12&#45;&gt;Node2 -->
<g id="edge14_Node000012_Node000002" class="edge">
<title>Node12&#45;&gt;Node2</title>
<g id="a_edge14_Node000012_Node000002"><a xlink:title=" ">
<path fill="none" stroke="#63b8ff" d="M229.71,-57.76C232.66,-57.12 235.64,-56.51 238.5,-56 368.83,-32.62 526.24,-18.6 592.12,-13.36"/>
<polygon fill="#63b8ff" stroke="#63b8ff" points="592.13,-16.87 601.82,-12.6 591.58,-9.89 592.13,-16.87"/>
</a>
</g>
</g>
<!-- Node13&#45;&gt;Node11 -->
<g id="edge17_Node000013_Node000011" class="edge">
<title>Node13&#45;&gt;Node11</title>
<g id="a_edge17_Node000013_Node000011"><a xlink:title=" ">
<path fill="none" stroke="#63b8ff" d="M90.87,-55.59C78.42,-47.59 60.28,-35.93 45.68,-26.54"/>
<polygon fill="#63b8ff" stroke="#63b8ff" points="47.82,-23.76 37.52,-21.3 44.04,-29.65 47.82,-23.76"/>
</a>
</g>
</g>
<!-- Node14 -->
<g id="Node000014" class="node">
<title>Node14</title>
<g id="a_Node000014"><a xlink:title=" ">
<polygon fill="#e0e0e0" stroke="#999999" points="213.62,-20 171.38,-20 171.38,0 213.62,0 213.62,-20"/>
<text text-anchor="middle" x="192.5" y="-6.5" font-family="Helvetica,sans-Serif" font-size="10.00">queue</text>
</a>
</g>
</g>
<!-- Node13&#45;&gt;Node14 -->
<g id="edge16_Node000013_Node000014" class="edge">
<title>Node13&#45;&gt;Node14</title>
<g id="a_edge16_Node000013_Node000014"><a xlink:title=" ">
<path fill="none" stroke="#63b8ff" d="M120.65,-55.59C133.55,-47.59 152.33,-35.93 167.46,-26.54"/>
<polygon fill="#63b8ff" stroke="#63b8ff" points="169.29,-29.53 175.94,-21.28 165.6,-23.58 169.29,-29.53"/>
</a>
</g>
</g>
<!-- Node15 -->
<g id="Node000015" class="node">
<title>Node15</title>
<g id="a_Node000015"><a xlink:title=" ">
<polygon fill="#e0e0e0" stroke="#999999" points="153.75,-20 61.25,-20 61.25,0 153.75,0 153.75,-20"/>
<text text-anchor="middle" x="107.5" y="-6.5" font-family="Helvetica,sans-Serif" font-size="10.00">condition_variable</text>
</a>
</g>
</g>
<!-- Node13&#45;&gt;Node15 -->
<g id="edge18_Node000013_Node000015" class="edge">
<title>Node13&#45;&gt;Node15</title>
<g id="a_edge18_Node000013_Node000015"><a xlink:title=" ">
<path fill="none" stroke="#63b8ff" d="M105.85,-55.59C106.09,-49.01 106.43,-39.96 106.73,-31.73"/>
<polygon fill="#63b8ff" stroke="#63b8ff" points="110.23,-31.93 107.1,-21.81 103.23,-31.67 110.23,-31.93"/>
</a>
</g>
</g>
<!-- Node16&#45;&gt;Node2 -->
<g id="edge20_Node000016_Node000002" class="edge">
<title>Node16&#45;&gt;Node2</title>
<g id="a_edge20_Node000016_Node000002"><a xlink:title=" ">
<path fill="none" stroke="#63b8ff" d="M934.72,-117.6C899.09,-103.5 835.48,-78.3 830.5,-76 813.17,-68.01 810.28,-62.94 792.5,-56 746.08,-37.87 689.7,-24.49 655.23,-17.22"/>
<polygon fill="#63b8ff" stroke="#63b8ff" points="655.98,-13.8 645.48,-15.21 654.57,-20.66 655.98,-13.8"/>
</a>
</g>
</g>
<!-- Node16&#45;&gt;Node17 -->
<g id="edge21_Node000016_Node000017" class="edge">
<title>Node16&#45;&gt;Node17</title>
<g id="a_edge21_Node000016_Node000017"><a xlink:title=" ">
<path fill="none" stroke="#63b8ff" d="M937.06,-117.65C931.72,-115.57 925.96,-113.53 920.5,-112 833.61,-87.61 806.3,-95.06 714.64,-76.28"/>
<polygon fill="#63b8ff" stroke="#63b8ff" points="715.43,-72.86 704.92,-74.23 713.98,-79.71 715.43,-72.86"/>
</a>
</g>
</g>
<!-- Node16&#45;&gt;Node18 -->
<g id="edge22_Node000016_Node000018" class="edge">
<title>Node16&#45;&gt;Node18</title>
<g id="a_edge22_Node000016_Node000018"><a xlink:title=" ">
<path fill="none" stroke="#63b8ff" d="M935.75,-117.53C930.76,-115.59 925.48,-113.65 920.5,-112 878.25,-98.05 828.98,-85.25 794.77,-76.9"/>
<polygon fill="#63b8ff" stroke="#63b8ff" points="795.79,-73.55 785.25,-74.6 794.15,-80.35 795.79,-73.55"/>
</a>
</g>
</g>
<!-- Node19 -->
<g id="Node000019" class="node">
<title>Node19</title>
<g id="a_Node000019"><a xlink:title=" ">
<polygon fill="#e0e0e0" stroke="#999999" points="889.38,-76 839.62,-76 839.62,-56 889.38,-56 889.38,-76"/>
<text text-anchor="middle" x="864.5" y="-62.5" font-family="Helvetica,sans-Serif" font-size="10.00">iomanip</text>
</a>
</g>
</g>
<!-- Node16&#45;&gt;Node19 -->
<g id="edge23_Node000016_Node000019" class="edge">
<title>Node16&#45;&gt;Node19</title>
<g id="a_edge23_Node000016_Node000019"><a xlink:title=" ">
<path fill="none" stroke="#63b8ff" d="M943.81,-117.62C929.05,-108.2 906.05,-93.52 888.61,-82.39"/>
<polygon fill="#63b8ff" stroke="#63b8ff" points="890.67,-79.55 880.36,-77.12 886.91,-85.45 890.67,-79.55"/>
</a>
</g>
</g>
<!-- Node20 -->
<g id="Node000020" class="node">
<title>Node20</title>
<g id="a_Node000020"><a xlink:title=" ">
<polygon fill="#e0e0e0" stroke="#999999" points="953.12,-76 907.88,-76 907.88,-56 953.12,-56 953.12,-76"/>
<text text-anchor="middle" x="930.5" y="-62.5" font-family="Helvetica,sans-Serif" font-size="10.00">cstdint</text>
</a>
</g>
</g>
<!-- Node16&#45;&gt;Node20 -->
<g id="edge24_Node000016_Node000020" class="edge">
<title>Node16&#45;&gt;Node20</title>
<g id="a_edge24_Node000016_Node000020"><a xlink:title=" ">
<path fill="none" stroke="#63b8ff" d="M954.12,-117.62C950.24,-109.3 944.44,-96.86 939.55,-86.4"/>
<polygon fill="#63b8ff" stroke="#63b8ff" points="942.79,-85.07 935.39,-77.48 936.45,-88.03 942.79,-85.07"/>
</a>
</g>
</g>
<!-- Node21 -->
<g id="Node000021" class="node">
<title>Node21</title>
<g id="a_Node000021"><a xlink:title=" ">
<polygon fill="#e0e0e0" stroke="#999999" points="1010.12,-76 970.88,-76 970.88,-56 1010.12,-56 1010.12,-76"/>
<text text-anchor="middle" x="990.5" y="-62.5" font-family="Helvetica,sans-Serif" font-size="10.00">utility</text>
</a>
</g>
</g>
<!-- Node16&#45;&gt;Node21 -->
<g id="edge25_Node000016_Node000021" class="edge">
<title>Node16&#45;&gt;Node21</title>
<g id="a_edge25_Node000016_Node000021"><a xlink:title=" ">
<path fill="none" stroke="#63b8ff" d="M963.5,-117.62C967.99,-109.21 974.71,-96.6 980.33,-86.07"/>
<polygon fill="#63b8ff" stroke="#63b8ff" points="983.31,-87.92 984.93,-77.45 977.13,-84.62 983.31,-87.92"/>
</a>
</g>
</g>
</g>
</svg>
