<?xml version="1.0" encoding="UTF-8" standalone="no"?>
<!DOCTYPE svg PUBLIC "-//W3C//DTD SVG 1.1//EN"
 "http://www.w3.org/Graphics/SVG/1.1/DTD/svg11.dtd">
<!-- Generated by graphviz version 11.0.0 (20240428.1522)
 -->
<!-- Title: PhysicsTypes.h Pages: 1 -->
<!--zoomable 252 -->

<svg id="main" version="1.1" xmlns="http://www.w3.org/2000/svg" xmlns:xlink="http://www.w3.org/1999/xlink" xml:space="preserve" onload="init(evt)">
<style type="text/css"><![CDATA[
.node, .edge {opacity: 0.7;}
.node.selected, .edge.selected {opacity: 1;}
.edge:hover path { stroke: red; }
.edge:hover polygon { stroke: red; fill: red; }
]]></style>

<defs>
  <circle id="rim" cx="0" cy="0" r="7"/>
  <circle id="rim2" cx="0" cy="0" r="3.5"/>
  <g id="zoomPlus">
    <use xlink:href="#rim" fill="#404040"><set attributeName="fill" to="#808080" begin="zoomplus.mouseover" end="zoomplus.mouseout"/></use>
    <path d="M-4,0h8M0,-4v8" fill="none" stroke="white" stroke-width="1.5" pointer-events="none"/>
  </g>
  <g id="zoomMin">
    <use xlink:href="#rim" fill="#404040"><set attributeName="fill" to="#808080" begin="zoomminus.mouseover" end="zoomminus.mouseout"/></use>
    <path d="M-4,0h8" fill="none" stroke="white" stroke-width="1.5" pointer-events="none"/>
  </g>
  <g id="arrowUp" transform="translate(30 24)">
    <use xlink:href="#rim"/>
    <path pointer-events="none" fill="none" stroke="white" stroke-width="1.5" d="M0,-3.0v7 M-2.5,-0.5L0,-3.0L2.5,-0.5"/>
  </g>
  <g id="arrowRight" transform="rotate(90) translate(36 -43)">
    <use xlink:href="#rim"/>
    <path pointer-events="none" fill="none" stroke="white" stroke-width="1.5" d="M0,-3.0v7 M-2.5,-0.5L0,-3.0L2.5,-0.5"/>
  </g>
  <g id="arrowDown" transform="rotate(180) translate(-30 -48)">
    <use xlink:href="#rim"/>
    <path pointer-events="none" fill="none" stroke="white" stroke-width="1.5" d="M0,-3.0v7 M-2.5,-0.5L0,-3.0L2.5,-0.5"/>
  </g>
  <g id="arrowLeft" transform="rotate(270) translate(-36 17)">
    <use xlink:href="#rim"/>
    <path pointer-events="none" fill="none" stroke="white" stroke-width="1.5" d="M0,-3.0v7 M-2.5,-0.5L0,-3.0L2.5,-0.5"/>
  </g>
  <g id="resetDef">
    <use xlink:href="#rim2" fill="#404040"><set attributeName="fill" to="#808080" begin="reset.mouseover" end="reset.mouseout"/></use>
  </g>
</defs>
<script type="application/ecmascript">
var viewWidth = 742;
var viewHeight = 252;
var sectionId = 'dynsection-1';
</script>
<script type="application/ecmascript" xlink:href="svg.min.js"/>
<svg id="graph" class="graph">
<g id="viewport">
<title>PhysicsTypes.h</title>
<!-- Node1 -->
<g id="Node000001" class="node">
<title>Node1</title>
<g id="a_Node000001"><a xlink:title="@TODO Add description of this file if needed">
<polygon fill="#999999" stroke="#666666" points="482.62,-244 396.88,-244 396.88,-224 482.62,-224 482.62,-244"/>
<text text-anchor="middle" x="439.75" y="-230.5" font-family="Helvetica,sans-Serif" font-size="10.00">PhysicsTypes.h</text>
</a>
</g>
</g>
<!-- Node2 -->
<g id="Node000002" class="node">
<title>Node2</title>
<g id="a_Node000002"><a xlink:href="_physics_8h.html" target="_top" xlink:title="@TODO Add description of this file if needed">
<polygon fill="white" stroke="#666666" points="469.5,-188 410,-188 410,-168 469.5,-168 469.5,-188"/>
<text text-anchor="middle" x="439.75" y="-174.5" font-family="Helvetica,sans-Serif" font-size="10.00">Physics.h</text>
</a>
</g>
</g>
<!-- Node1&#45;&gt;Node2 -->
<g id="edge1_Node000001_Node000002" class="edge">
<title>Node1&#45;&gt;Node2</title>
<g id="a_edge1_Node000001_Node000002"><a xlink:title=" ">
<path fill="none" stroke="#63b8ff" d="M439.75,-212.13C439.75,-203.9 439.75,-194.85 439.75,-188.3"/>
<polygon fill="#63b8ff" stroke="#63b8ff" points="436.25,-212.08 439.75,-222.08 443.25,-212.08 436.25,-212.08"/>
</a>
</g>
</g>
<!-- Node11 -->
<g id="Node000011" class="node">
<title>Node11</title>
<g id="a_Node000011"><a xlink:href="_physics_component_8h.html" target="_top" xlink:title="@TODO Add description of this file if needed">
<polygon fill="white" stroke="#666666" points="734.25,-76 625.25,-76 625.25,-56 734.25,-56 734.25,-76"/>
<text text-anchor="middle" x="679.75" y="-62.5" font-family="Helvetica,sans-Serif" font-size="10.00">PhysicsComponent.h</text>
</a>
</g>
</g>
<!-- Node1&#45;&gt;Node11 -->
<g id="edge24_Node000001_Node000011" class="edge">
<title>Node1&#45;&gt;Node11</title>
<g id="a_edge24_Node000001_Node000011"><a xlink:title=" ">
<path fill="none" stroke="#63b8ff" d="M462.54,-217.24C511.81,-183.16 626.98,-103.5 666.31,-76.3"/>
<polygon fill="#63b8ff" stroke="#63b8ff" points="460.82,-214.17 454.59,-222.74 464.8,-219.93 460.82,-214.17"/>
</a>
</g>
</g>
<!-- Node14 -->
<g id="Node000014" class="node">
<title>Node14</title>
<g id="a_Node000014"><a xlink:href="_physics_manager_8h.html" target="_top" xlink:title="@TODO Add description of this file if needed">
<polygon fill="white" stroke="#666666" points="327.25,-132 230.25,-132 230.25,-112 327.25,-112 327.25,-132"/>
<text text-anchor="middle" x="278.75" y="-118.5" font-family="Helvetica,sans-Serif" font-size="10.00">PhysicsManager.h</text>
</a>
</g>
</g>
<!-- Node1&#45;&gt;Node14 -->
<g id="edge25_Node000001_Node000014" class="edge">
<title>Node1&#45;&gt;Node14</title>
<g id="a_edge25_Node000001_Node000014"><a xlink:title=" ">
<path fill="none" stroke="#63b8ff" d="M416.86,-217.36C382.87,-194.14 320.1,-151.25 292.44,-132.35"/>
<polygon fill="#63b8ff" stroke="#63b8ff" points="414.54,-220.02 424.77,-222.77 418.49,-214.24 414.54,-220.02"/>
</a>
</g>
</g>
<!-- Node3 -->
<g id="Node000003" class="node">
<title>Node3</title>
<g id="a_Node000003"><a xlink:href="_collision_manager_8h.html" target="_top" xlink:title="@TODO Add description of this file if needed">
<polygon fill="white" stroke="#666666" points="451,-132 352.5,-132 352.5,-112 451,-112 451,-132"/>
<text text-anchor="middle" x="401.75" y="-118.5" font-family="Helvetica,sans-Serif" font-size="10.00">CollisionManager.h</text>
</a>
</g>
</g>
<!-- Node2&#45;&gt;Node3 -->
<g id="edge2_Node000002_Node000003" class="edge">
<title>Node2&#45;&gt;Node3</title>
<g id="a_edge2_Node000002_Node000003"><a xlink:title=" ">
<path fill="none" stroke="#63b8ff" d="M426.69,-158.44C420.48,-149.62 413.34,-139.47 408.29,-132.3"/>
<polygon fill="#63b8ff" stroke="#63b8ff" points="423.64,-160.19 432.26,-166.36 429.37,-156.16 423.64,-160.19"/>
</a>
</g>
</g>
<!-- Node10 -->
<g id="Node000010" class="node">
<title>Node10</title>
<g id="a_Node000010"><a xlink:href="_physics_8cpp.html" target="_top" xlink:title="@TODO Add description of this file if needed">
<polygon fill="white" stroke="#666666" points="576.75,-132 506.75,-132 506.75,-112 576.75,-112 576.75,-132"/>
<text text-anchor="middle" x="541.75" y="-118.5" font-family="Helvetica,sans-Serif" font-size="10.00">Physics.cpp</text>
</a>
</g>
</g>
<!-- Node2&#45;&gt;Node10 -->
<g id="edge11_Node000002_Node000010" class="edge">
<title>Node2&#45;&gt;Node10</title>
<g id="a_edge11_Node000002_Node000010"><a xlink:title=" ">
<path fill="none" stroke="#63b8ff" d="M467.68,-162.21C485.59,-152.73 508.32,-140.7 523.84,-132.48"/>
<polygon fill="#63b8ff" stroke="#63b8ff" points="466.05,-159.11 458.85,-166.89 469.33,-165.3 466.05,-159.11"/>
</a>
</g>
</g>
<!-- Node2&#45;&gt;Node11 -->
<g id="edge12_Node000002_Node000011" class="edge">
<title>Node2&#45;&gt;Node11</title>
<g id="a_edge12_Node000002_Node000011"><a xlink:title=" ">
<path fill="none" stroke="#63b8ff" d="M451.46,-158.67C461.86,-143.88 478.38,-123.67 497.75,-112 519.29,-99.02 581.12,-85.32 626.76,-76.49"/>
<polygon fill="#63b8ff" stroke="#63b8ff" points="448.79,-156.37 446.12,-166.62 454.6,-160.27 448.79,-156.37"/>
</a>
</g>
</g>
<!-- Node2&#45;&gt;Node14 -->
<g id="edge17_Node000002_Node000014" class="edge">
<title>Node2&#45;&gt;Node14</title>
<g id="a_edge17_Node000002_Node000014"><a xlink:title=" ">
<path fill="none" stroke="#63b8ff" d="M401.14,-164.05C372.15,-154.33 333.13,-141.24 307.01,-132.48"/>
<polygon fill="#63b8ff" stroke="#63b8ff" points="399.68,-167.25 410.27,-167.11 401.9,-160.61 399.68,-167.25"/>
</a>
</g>
</g>
<!-- Node4 -->
<g id="Node000004" class="node">
<title>Node4</title>
<g id="a_Node000004"><a xlink:href="_collision_manager_8cpp.html" target="_top" xlink:title="@TODO Add description of this file if needed">
<polygon fill="white" stroke="#666666" points="607.25,-76 498.25,-76 498.25,-56 607.25,-56 607.25,-76"/>
<text text-anchor="middle" x="552.75" y="-62.5" font-family="Helvetica,sans-Serif" font-size="10.00">CollisionManager.cpp</text>
</a>
</g>
</g>
<!-- Node3&#45;&gt;Node4 -->
<g id="edge3_Node000003_Node000004" class="edge">
<title>Node3&#45;&gt;Node4</title>
<g id="a_edge3_Node000003_Node000004"><a xlink:title=" ">
<path fill="none" stroke="#63b8ff" d="M438.69,-107.79C465.79,-98.1 501.96,-85.16 526.24,-76.48"/>
<polygon fill="#63b8ff" stroke="#63b8ff" points="437.71,-104.42 429.48,-111.08 440.07,-111.01 437.71,-104.42"/>
</a>
</g>
</g>
<!-- Node5 -->
<g id="Node000005" class="node">
<title>Node5</title>
<g id="a_Node000005"><a xlink:href="_g_l_e_s_c_8h.html" target="_top" xlink:title=" ">
<polygon fill="white" stroke="#666666" points="182.38,-76 125.12,-76 125.12,-56 182.38,-56 182.38,-76"/>
<text text-anchor="middle" x="153.75" y="-62.5" font-family="Helvetica,sans-Serif" font-size="10.00">GLESC.h</text>
</a>
</g>
</g>
<!-- Node3&#45;&gt;Node5 -->
<g id="edge4_Node000003_Node000005" class="edge">
<title>Node3&#45;&gt;Node5</title>
<g id="a_edge4_Node000003_Node000005"><a xlink:title=" ">
<path fill="none" stroke="#63b8ff" d="M344.32,-109.21C301.84,-100.38 242.6,-87.83 190.75,-76 188.17,-75.41 185.5,-74.79 182.82,-74.15"/>
<polygon fill="#63b8ff" stroke="#63b8ff" points="343.58,-112.63 354.08,-111.24 345,-105.78 343.58,-112.63"/>
</a>
</g>
</g>
<!-- Node8 -->
<g id="Node000008" class="node">
<title>Node8</title>
<g id="a_Node000008"><a xlink:href="_physics_collision_system_8cpp.html" target="_top" xlink:title=" ">
<polygon fill="white" stroke="#666666" points="561,-20 420.5,-20 420.5,0 561,0 561,-20"/>
<text text-anchor="middle" x="490.75" y="-6.5" font-family="Helvetica,sans-Serif" font-size="10.00">PhysicsCollisionSystem.cpp</text>
</a>
</g>
</g>
<!-- Node3&#45;&gt;Node8 -->
<g id="edge7_Node000003_Node000008" class="edge">
<title>Node3&#45;&gt;Node8</title>
<g id="a_edge7_Node000003_Node000008"><a xlink:title=" ">
<path fill="none" stroke="#63b8ff" d="M422.16,-104.51C431.46,-96.46 442.26,-86.29 450.75,-76 465.76,-57.81 479.23,-33.49 486.05,-20.36"/>
<polygon fill="#63b8ff" stroke="#63b8ff" points="420.06,-101.71 414.66,-110.82 424.56,-107.06 420.06,-101.71"/>
</a>
</g>
</g>
<!-- Node9 -->
<g id="Node000009" class="node">
<title>Node9</title>
<g id="a_Node000009"><a xlink:href="_physics_collision_system_8h.html" target="_top" xlink:title=" ">
<polygon fill="white" stroke="#666666" points="441.75,-76 311.75,-76 311.75,-56 441.75,-56 441.75,-76"/>
<text text-anchor="middle" x="376.75" y="-62.5" font-family="Helvetica,sans-Serif" font-size="10.00">PhysicsCollisionSystem.h</text>
</a>
</g>
</g>
<!-- Node3&#45;&gt;Node9 -->
<g id="edge8_Node000003_Node000009" class="edge">
<title>Node3&#45;&gt;Node9</title>
<g id="a_edge8_Node000003_Node000009"><a xlink:title=" ">
<path fill="none" stroke="#63b8ff" d="M392.63,-101.29C388.67,-92.75 384.23,-83.16 381.05,-76.3"/>
<polygon fill="#63b8ff" stroke="#63b8ff" points="389.38,-102.62 396.76,-110.22 395.73,-99.68 389.38,-102.62"/>
</a>
</g>
</g>
<!-- Node6 -->
<g id="Node000006" class="node">
<title>Node6</title>
<g id="a_Node000006"><a xlink:href="_g_l_e_s_c_8cpp.html" target="_top" xlink:title=" ">
<polygon fill="white" stroke="#666666" points="280.62,-20 212.88,-20 212.88,0 280.62,0 280.62,-20"/>
<text text-anchor="middle" x="246.75" y="-6.5" font-family="Helvetica,sans-Serif" font-size="10.00">GLESC.cpp</text>
</a>
</g>
</g>
<!-- Node5&#45;&gt;Node6 -->
<g id="edge5_Node000005_Node000006" class="edge">
<title>Node5&#45;&gt;Node6</title>
<g id="a_edge5_Node000005_Node000006"><a xlink:title=" ">
<path fill="none" stroke="#63b8ff" d="M179.45,-50.08C195.74,-40.62 216.34,-28.66 230.42,-20.48"/>
<polygon fill="#63b8ff" stroke="#63b8ff" points="178.15,-46.79 171.26,-54.83 181.66,-52.84 178.15,-46.79"/>
</a>
</g>
</g>
<!-- Node7 -->
<g id="Node000007" class="node">
<title>Node7</title>
<g id="a_Node000007"><a xlink:href="main_8cpp.html" target="_top" xlink:title=" ">
<polygon fill="white" stroke="#666666" points="181.62,-20 125.88,-20 125.88,0 181.62,0 181.62,-20"/>
<text text-anchor="middle" x="153.75" y="-6.5" font-family="Helvetica,sans-Serif" font-size="10.00">main.cpp</text>
</a>
</g>
</g>
<!-- Node5&#45;&gt;Node7 -->
<g id="edge6_Node000005_Node000007" class="edge">
<title>Node5&#45;&gt;Node7</title>
<g id="a_edge6_Node000005_Node000007"><a xlink:title=" ">
<path fill="none" stroke="#63b8ff" d="M153.75,-44.13C153.75,-35.9 153.75,-26.85 153.75,-20.3"/>
<polygon fill="#63b8ff" stroke="#63b8ff" points="150.25,-44.08 153.75,-54.08 157.25,-44.08 150.25,-44.08"/>
</a>
</g>
</g>
<!-- Node9&#45;&gt;Node6 -->
<g id="edge9_Node000009_Node000006" class="edge">
<title>Node9&#45;&gt;Node6</title>
<g id="a_edge9_Node000009_Node000006"><a xlink:title=" ">
<path fill="none" stroke="#63b8ff" d="M343.7,-51.27C320.51,-41.64 290.1,-29.01 269.57,-20.48"/>
<polygon fill="#63b8ff" stroke="#63b8ff" points="342.13,-54.41 352.71,-55.01 344.82,-47.94 342.13,-54.41"/>
</a>
</g>
</g>
<!-- Node9&#45;&gt;Node8 -->
<g id="edge10_Node000009_Node000008" class="edge">
<title>Node9&#45;&gt;Node8</title>
<g id="a_edge10_Node000009_Node000008"><a xlink:title=" ">
<path fill="none" stroke="#63b8ff" d="M406.84,-50.75C427.03,-41.18 453.06,-28.85 470.74,-20.48"/>
<polygon fill="#63b8ff" stroke="#63b8ff" points="405.51,-47.5 397.98,-54.95 408.51,-53.83 405.51,-47.5"/>
</a>
</g>
</g>
<!-- Node11&#45;&gt;Node6 -->
<g id="edge14_Node000011_Node000006" class="edge">
<title>Node11&#45;&gt;Node6</title>
<g id="a_edge14_Node000011_Node000006"><a xlink:title=" ">
<path fill="none" stroke="#63b8ff" d="M613.78,-55.67C469.8,-37.9 430.62,-42.44 289.75,-20 286.89,-19.54 283.93,-19.03 280.96,-18.47"/>
<polygon fill="#63b8ff" stroke="#63b8ff" points="612.93,-59.09 623.29,-56.85 613.8,-52.14 612.93,-59.09"/>
</a>
</g>
</g>
<!-- Node11&#45;&gt;Node8 -->
<g id="edge15_Node000011_Node000008" class="edge">
<title>Node11&#45;&gt;Node8</title>
<g id="a_edge15_Node000011_Node000008"><a xlink:title=" ">
<path fill="none" stroke="#63b8ff" d="M635.76,-52.43C601.61,-42.67 554.99,-29.35 523.93,-20.48"/>
<polygon fill="#63b8ff" stroke="#63b8ff" points="634.8,-55.8 645.37,-55.18 636.72,-49.07 634.8,-55.8"/>
</a>
</g>
</g>
<!-- Node12 -->
<g id="Node000012" class="node">
<title>Node12</title>
<g id="a_Node000012"><a xlink:href="_engine_camera_8cpp.html" target="_top" xlink:title="@TODO Add description of this file if needed">
<polygon fill="white" stroke="#666666" points="729,-20 630.5,-20 630.5,0 729,0 729,-20"/>
<text text-anchor="middle" x="679.75" y="-6.5" font-family="Helvetica,sans-Serif" font-size="10.00">EngineCamera.cpp</text>
</a>
</g>
</g>
<!-- Node11&#45;&gt;Node12 -->
<g id="edge13_Node000011_Node000012" class="edge">
<title>Node11&#45;&gt;Node12</title>
<g id="a_edge13_Node000011_Node000012"><a xlink:title=" ">
<path fill="none" stroke="#63b8ff" d="M679.75,-44.13C679.75,-35.9 679.75,-26.85 679.75,-20.3"/>
<polygon fill="#63b8ff" stroke="#63b8ff" points="676.25,-44.08 679.75,-54.08 683.25,-44.08 676.25,-44.08"/>
</a>
</g>
</g>
<!-- Node13 -->
<g id="Node000013" class="node">
<title>Node13</title>
<g id="a_Node000013"><a xlink:href="_physics_system_8cpp.html" target="_top" xlink:title="@TODO Add description of this file if needed">
<polygon fill="white" stroke="#666666" points="402.62,-20 298.88,-20 298.88,0 402.62,0 402.62,-20"/>
<text text-anchor="middle" x="350.75" y="-6.5" font-family="Helvetica,sans-Serif" font-size="10.00">PhysicsSystem.cpp</text>
</a>
</g>
</g>
<!-- Node11&#45;&gt;Node13 -->
<g id="edge16_Node000011_Node000013" class="edge">
<title>Node11&#45;&gt;Node13</title>
<g id="a_edge16_Node000011_Node000013"><a xlink:title=" ">
<path fill="none" stroke="#63b8ff" d="M613.82,-54.18C551.74,-43.99 459.98,-28.93 402.86,-19.55"/>
<polygon fill="#63b8ff" stroke="#63b8ff" points="613.12,-57.61 623.56,-55.78 614.26,-50.7 613.12,-57.61"/>
</a>
</g>
</g>
<!-- Node14&#45;&gt;Node5 -->
<g id="edge18_Node000014_Node000005" class="edge">
<title>Node14&#45;&gt;Node5</title>
<g id="a_edge18_Node000014_Node000005"><a xlink:title=" ">
<path fill="none" stroke="#63b8ff" d="M246.67,-107.14C224.41,-97.52 195.34,-84.97 175.69,-76.48"/>
<polygon fill="#63b8ff" stroke="#63b8ff" points="245.02,-110.24 255.59,-110.99 247.8,-103.81 245.02,-110.24"/>
</a>
</g>
</g>
<!-- Node14&#45;&gt;Node9 -->
<g id="edge19_Node000014_Node000009" class="edge">
<title>Node14&#45;&gt;Node9</title>
<g id="a_edge19_Node000014_Node000009"><a xlink:title=" ">
<path fill="none" stroke="#63b8ff" d="M305.83,-106.08C323,-96.62 344.7,-84.66 359.55,-76.48"/>
<polygon fill="#63b8ff" stroke="#63b8ff" points="304.22,-102.97 297.15,-110.86 307.59,-109.1 304.22,-102.97"/>
</a>
</g>
</g>
<!-- Node15 -->
<g id="Node000015" class="node">
<title>Node15</title>
<g id="a_Node000015"><a xlink:href="_physics_manager_8cpp.html" target="_top" xlink:title=" ">
<polygon fill="white" stroke="#666666" points="107.5,-76 0,-76 0,-56 107.5,-56 107.5,-76"/>
<text text-anchor="middle" x="53.75" y="-62.5" font-family="Helvetica,sans-Serif" font-size="10.00">PhysicsManager.cpp</text>
</a>
</g>
</g>
<!-- Node14&#45;&gt;Node15 -->
<g id="edge20_Node000014_Node000015" class="edge">
<title>Node14&#45;&gt;Node15</title>
<g id="a_edge20_Node000014_Node000015"><a xlink:title=" ">
<path fill="none" stroke="#63b8ff" d="M228.23,-108.88C187.38,-99.07 130.69,-85.47 93.15,-76.46"/>
<polygon fill="#63b8ff" stroke="#63b8ff" points="227.29,-112.25 237.83,-111.18 228.92,-105.44 227.29,-112.25"/>
</a>
</g>
</g>
<!-- Node16 -->
<g id="Node000016" class="node">
<title>Node16</title>
<g id="a_Node000016"><a xlink:href="_physics_system_8h.html" target="_top" xlink:title="System that updates the physics of the entities.">
<polygon fill="white" stroke="#666666" points="293.38,-76 200.12,-76 200.12,-56 293.38,-56 293.38,-76"/>
<text text-anchor="middle" x="246.75" y="-62.5" font-family="Helvetica,sans-Serif" font-size="10.00">PhysicsSystem.h</text>
</a>
</g>
</g>
<!-- Node14&#45;&gt;Node16 -->
<g id="edge21_Node000014_Node000016" class="edge">
<title>Node14&#45;&gt;Node16</title>
<g id="a_edge21_Node000014_Node000016"><a xlink:title=" ">
<path fill="none" stroke="#63b8ff" d="M267.41,-101.87C262.27,-93.19 256.42,-83.32 252.26,-76.3"/>
<polygon fill="#63b8ff" stroke="#63b8ff" points="264.3,-103.47 272.4,-110.29 270.32,-99.9 264.3,-103.47"/>
</a>
</g>
</g>
<!-- Node16&#45;&gt;Node6 -->
<g id="edge22_Node000016_Node000006" class="edge">
<title>Node16&#45;&gt;Node6</title>
<g id="a_edge22_Node000016_Node000006"><a xlink:title=" ">
<path fill="none" stroke="#63b8ff" d="M246.75,-44.13C246.75,-35.9 246.75,-26.85 246.75,-20.3"/>
<polygon fill="#63b8ff" stroke="#63b8ff" points="243.25,-44.08 246.75,-54.08 250.25,-44.08 243.25,-44.08"/>
</a>
</g>
</g>
<!-- Node16&#45;&gt;Node13 -->
<g id="edge23_Node000016_Node000013" class="edge">
<title>Node16&#45;&gt;Node13</title>
<g id="a_edge23_Node000016_Node000013"><a xlink:title=" ">
<path fill="none" stroke="#63b8ff" d="M274.97,-50.35C293.27,-40.84 316.59,-28.74 332.49,-20.48"/>
<polygon fill="#63b8ff" stroke="#63b8ff" points="273.47,-47.18 266.21,-54.9 276.7,-53.39 273.47,-47.18"/>
</a>
</g>
</g>
</g>
</svg>

<g id="navigator" transform="translate(0 0)" fill="#404254">
  <rect fill="#f2f5e9" fill-opacity="0.5" stroke="#606060" stroke-width=".5" x="0" y="0" width="60" height="60"/>
  <use id="zoomplus" xlink:href="#zoomPlus" x="17" y="9" onmousedown="handleZoom(evt,'in')"/>
  <use id="zoomminus" xlink:href="#zoomMin" x="42" y="9" onmousedown="handleZoom(evt,'out')"/>
  <use id="reset" xlink:href="#resetDef" x="30" y="36" onmousedown="handleReset()"/>
   <use id="arrowup" xlink:href="#arrowUp" x="0" y="0" onmousedown="handlePan(0,-1)"/>
  <use id="arrowright" xlink:href="#arrowRight" x="0" y="0" onmousedown="handlePan(1,0)"/>
  <use id="arrowdown" xlink:href="#arrowDown" x="0" y="0" onmousedown="handlePan(0,1)"/>
  <use id="arrowleft" xlink:href="#arrowLeft" x="0" y="0" onmousedown="handlePan(-1,0)"/>
</g>
<svg viewBox="0 0 15 15" width="100%" height="30px" preserveAspectRatio="xMaxYMin meet">
 <g id="arrow_out" transform="scale(0.3 0.3)">
  <a xlink:href="_physics_types_8h__dep__incl_org.svg" target="_base">
   <rect id="button" ry="5" rx="5" y="6" x="6" height="38" width="38"
        fill="#f2f5e9" fill-opacity="0.5" stroke="#606060" stroke-width="1.0"/>
   <path id="arrow"
     d="M 11.500037,31.436501 C 11.940474,20.09759 22.043105,11.32322 32.158766,21.979434 L 37.068811,17.246167 C 37.068811,17.246167 37.088388,32 37.088388,32 L 22.160133,31.978069 C 22.160133,31.978069 26.997745,27.140456 26.997745,27.140456 C 18.528582,18.264221 13.291696,25.230495 11.500037,31.436501 z"
     style="fill:#404040;"/>
  </a>
 </g>
</svg>

<style type='text/css'>
<![CDATA[
[data-mouse-over-selected='false'] { opacity: 0.7; }
[data-mouse-over-selected='true']  { opacity: 1.0; }
]]>
</style>
<script type="application/ecmascript"><![CDATA[
document.addEventListener('DOMContentLoaded', (event) => {
  highlightEdges();
  highlightAdjacentNodes();
});
]]></script>
</svg>
