<?xml version="1.0" encoding="UTF-8" standalone="no"?>
<!DOCTYPE svg PUBLIC "-//W3C//DTD SVG 1.1//EN"
 "http://www.w3.org/Graphics/SVG/1.1/DTD/svg11.dtd">
<!-- Generated by graphviz version 11.0.0 (20240428.1522)
 -->
<!-- Title: Plane.h Pages: 1 -->
<!--zoomable 644 -->

<svg id="main" version="1.1" xmlns="http://www.w3.org/2000/svg" xmlns:xlink="http://www.w3.org/1999/xlink" xml:space="preserve" onload="init(evt)">
<style type="text/css"><![CDATA[
.node, .edge {opacity: 0.7;}
.node.selected, .edge.selected {opacity: 1;}
.edge:hover path { stroke: red; }
.edge:hover polygon { stroke: red; fill: red; }
]]></style>

<defs>
  <circle id="rim" cx="0" cy="0" r="7"/>
  <circle id="rim2" cx="0" cy="0" r="3.5"/>
  <g id="zoomPlus">
    <use xlink:href="#rim" fill="#404040"><set attributeName="fill" to="#808080" begin="zoomplus.mouseover" end="zoomplus.mouseout"/></use>
    <path d="M-4,0h8M0,-4v8" fill="none" stroke="white" stroke-width="1.5" pointer-events="none"/>
  </g>
  <g id="zoomMin">
    <use xlink:href="#rim" fill="#404040"><set attributeName="fill" to="#808080" begin="zoomminus.mouseover" end="zoomminus.mouseout"/></use>
    <path d="M-4,0h8" fill="none" stroke="white" stroke-width="1.5" pointer-events="none"/>
  </g>
  <g id="arrowUp" transform="translate(30 24)">
    <use xlink:href="#rim"/>
    <path pointer-events="none" fill="none" stroke="white" stroke-width="1.5" d="M0,-3.0v7 M-2.5,-0.5L0,-3.0L2.5,-0.5"/>
  </g>
  <g id="arrowRight" transform="rotate(90) translate(36 -43)">
    <use xlink:href="#rim"/>
    <path pointer-events="none" fill="none" stroke="white" stroke-width="1.5" d="M0,-3.0v7 M-2.5,-0.5L0,-3.0L2.5,-0.5"/>
  </g>
  <g id="arrowDown" transform="rotate(180) translate(-30 -48)">
    <use xlink:href="#rim"/>
    <path pointer-events="none" fill="none" stroke="white" stroke-width="1.5" d="M0,-3.0v7 M-2.5,-0.5L0,-3.0L2.5,-0.5"/>
  </g>
  <g id="arrowLeft" transform="rotate(270) translate(-36 17)">
    <use xlink:href="#rim"/>
    <path pointer-events="none" fill="none" stroke="white" stroke-width="1.5" d="M0,-3.0v7 M-2.5,-0.5L0,-3.0L2.5,-0.5"/>
  </g>
  <g id="resetDef">
    <use xlink:href="#rim2" fill="#404040"><set attributeName="fill" to="#808080" begin="reset.mouseover" end="reset.mouseout"/></use>
  </g>
</defs>
<script type="application/ecmascript">
var viewWidth = 1286;
var viewHeight = 644;
var sectionId = 'dynsection-1';
</script>
<script type="application/ecmascript" xlink:href="svg.min.js"/>
<svg id="graph" class="graph">
<g id="viewport">
<title>Plane.h</title>
<!-- Node1 -->
<g id="Node000001" class="node">
<title>Node1</title>
<g id="a_Node000001"><a xlink:title="@TODO Add description of this file if needed">
<polygon fill="#999999" stroke="#666666" points="524.25,-636 475.25,-636 475.25,-616 524.25,-616 524.25,-636"/>
<text text-anchor="middle" x="499.75" y="-622.5" font-family="Helvetica,sans-Serif" font-size="10.00">Plane.h</text>
</a>
</g>
</g>
<!-- Node2 -->
<g id="Node000002" class="node">
<title>Node2</title>
<g id="a_Node000002"><a xlink:href="_figure_8h.html" target="_top" xlink:title="@TODO Add description of this file if needed">
<polygon fill="white" stroke="#666666" points="426.38,-468 375.12,-468 375.12,-448 426.38,-448 426.38,-468"/>
<text text-anchor="middle" x="400.75" y="-454.5" font-family="Helvetica,sans-Serif" font-size="10.00">Figure.h</text>
</a>
</g>
</g>
<!-- Node1&#45;&gt;Node2 -->
<g id="edge1_Node000001_Node000002" class="edge">
<title>Node1&#45;&gt;Node2</title>
<g id="a_edge1_Node000001_Node000002"><a xlink:title=" ">
<path fill="none" stroke="#63b8ff" d="M501.7,-604.15C503.02,-578.31 501.61,-534.03 480.75,-504 467.84,-485.42 444.64,-473.6 426.53,-466.77"/>
<polygon fill="#63b8ff" stroke="#63b8ff" points="498.21,-603.77 500.98,-614 505.2,-604.28 498.21,-603.77"/>
</a>
</g>
</g>
<!-- Node5 -->
<g id="Node000005" class="node">
<title>Node5</title>
<g id="a_Node000005"><a xlink:href="_plane_8cpp.html" target="_top" xlink:title="@TODO Add description of this file if needed">
<polygon fill="white" stroke="#666666" points="587.5,-580 528,-580 528,-560 587.5,-560 587.5,-580"/>
<text text-anchor="middle" x="557.75" y="-566.5" font-family="Helvetica,sans-Serif" font-size="10.00">Plane.cpp</text>
</a>
</g>
</g>
<!-- Node1&#45;&gt;Node5 -->
<g id="edge4_Node000001_Node000005" class="edge">
<title>Node1&#45;&gt;Node5</title>
<g id="a_edge4_Node000001_Node000005"><a xlink:title=" ">
<path fill="none" stroke="#63b8ff" d="M518.17,-607.85C527.98,-598.72 539.65,-587.86 547.76,-580.3"/>
<polygon fill="#63b8ff" stroke="#63b8ff" points="515.89,-605.19 510.96,-614.56 520.66,-610.31 515.89,-605.19"/>
</a>
</g>
</g>
<!-- Node6 -->
<g id="Node000006" class="node">
<title>Node6</title>
<g id="a_Node000006"><a xlink:href="_polyhedron_face_8h.html" target="_top" xlink:title=" ">
<polygon fill="white" stroke="#666666" points="466.12,-580 371.38,-580 371.38,-560 466.12,-560 466.12,-580"/>
<text text-anchor="middle" x="418.75" y="-566.5" font-family="Helvetica,sans-Serif" font-size="10.00">PolyhedronFace.h</text>
</a>
</g>
</g>
<!-- Node1&#45;&gt;Node6 -->
<g id="edge5_Node000001_Node000006" class="edge">
<title>Node1&#45;&gt;Node6</title>
<g id="a_edge5_Node000001_Node000006"><a xlink:title=" ">
<path fill="none" stroke="#63b8ff" d="M476.16,-609.27C462.16,-599.94 444.89,-588.43 432.97,-580.48"/>
<polygon fill="#63b8ff" stroke="#63b8ff" points="474.12,-612.12 484.38,-614.75 478,-606.3 474.12,-612.12"/>
</a>
</g>
</g>
<!-- Node3 -->
<g id="Node000003" class="node">
<title>Node3</title>
<g id="a_Node000003"><a xlink:href="_sphere_8h.html" target="_top" xlink:title="@TODO Add description of this file if needed">
<polygon fill="white" stroke="#666666" points="374.25,-412 319.25,-412 319.25,-392 374.25,-392 374.25,-412"/>
<text text-anchor="middle" x="346.75" y="-398.5" font-family="Helvetica,sans-Serif" font-size="10.00">Sphere.h</text>
</a>
</g>
</g>
<!-- Node2&#45;&gt;Node3 -->
<g id="edge2_Node000002_Node000003" class="edge">
<title>Node2&#45;&gt;Node3</title>
<g id="a_edge2_Node000002_Node000003"><a xlink:title=" ">
<path fill="none" stroke="#63b8ff" d="M383.32,-439.57C374.25,-430.5 363.53,-419.78 356.05,-412.3"/>
<polygon fill="#63b8ff" stroke="#63b8ff" points="380.73,-441.93 390.27,-446.52 385.68,-436.98 380.73,-441.93"/>
</a>
</g>
</g>
<!-- Node4 -->
<g id="Node000004" class="node">
<title>Node4</title>
<g id="a_Node000004"><a xlink:href="_sphere_8cpp.html" target="_top" xlink:title="@TODO Add description of this file if needed">
<polygon fill="white" stroke="#666666" points="65.5,-356 0,-356 0,-336 65.5,-336 65.5,-356"/>
<text text-anchor="middle" x="32.75" y="-342.5" font-family="Helvetica,sans-Serif" font-size="10.00">Sphere.cpp</text>
</a>
</g>
</g>
<!-- Node3&#45;&gt;Node4 -->
<g id="edge3_Node000003_Node000004" class="edge">
<title>Node3&#45;&gt;Node4</title>
<g id="a_edge3_Node000003_Node000004"><a xlink:title=" ">
<path fill="none" stroke="#63b8ff" d="M307.68,-394.69C255.62,-386.23 160.66,-370.56 79.75,-356 75.25,-355.19 70.52,-354.31 65.86,-353.44"/>
<polygon fill="#63b8ff" stroke="#63b8ff" points="307.11,-398.15 317.55,-396.3 308.24,-391.24 307.11,-398.15"/>
</a>
</g>
</g>
<!-- Node7 -->
<g id="Node000007" class="node">
<title>Node7</title>
<g id="a_Node000007"><a xlink:href="_polyhedron_8h.html" target="_top" xlink:title="@TODO Add description of this file if needed">
<polygon fill="white" stroke="#666666" points="348.25,-524 275.25,-524 275.25,-504 348.25,-504 348.25,-524"/>
<text text-anchor="middle" x="311.75" y="-510.5" font-family="Helvetica,sans-Serif" font-size="10.00">Polyhedron.h</text>
</a>
</g>
</g>
<!-- Node6&#45;&gt;Node7 -->
<g id="edge6_Node000006_Node000007" class="edge">
<title>Node6&#45;&gt;Node7</title>
<g id="a_edge6_Node000006_Node000007"><a xlink:title=" ">
<path fill="none" stroke="#63b8ff" d="M389.98,-554.48C371.11,-544.96 346.97,-532.78 330.53,-524.48"/>
<polygon fill="#63b8ff" stroke="#63b8ff" points="388.26,-557.53 398.76,-558.91 391.41,-551.28 388.26,-557.53"/>
</a>
</g>
</g>
<!-- Node40 -->
<g id="Node000040" class="node">
<title>Node40</title>
<g id="a_Node000040"><a xlink:href="_polyhedron_face_8cpp.html" target="_top" xlink:title="Class that represents a face of a polyhedron.">
<polygon fill="white" stroke="#666666" points="471.38,-524 366.12,-524 366.12,-504 471.38,-504 471.38,-524"/>
<text text-anchor="middle" x="418.75" y="-510.5" font-family="Helvetica,sans-Serif" font-size="10.00">PolyhedronFace.cpp</text>
</a>
</g>
</g>
<!-- Node6&#45;&gt;Node40 -->
<g id="edge53_Node000006_Node000040" class="edge">
<title>Node6&#45;&gt;Node40</title>
<g id="a_edge53_Node000006_Node000040"><a xlink:title=" ">
<path fill="none" stroke="#63b8ff" d="M418.75,-548.13C418.75,-539.9 418.75,-530.85 418.75,-524.3"/>
<polygon fill="#63b8ff" stroke="#63b8ff" points="415.25,-548.08 418.75,-558.08 422.25,-548.08 415.25,-548.08"/>
</a>
</g>
</g>
<!-- Node7&#45;&gt;Node2 -->
<g id="edge7_Node000007_Node000002" class="edge">
<title>Node7&#45;&gt;Node2</title>
<g id="a_edge7_Node000007_Node000002"><a xlink:title=" ">
<path fill="none" stroke="#63b8ff" d="M336.78,-497.81C352.31,-488.39 371.77,-476.58 385.13,-468.48"/>
<polygon fill="#63b8ff" stroke="#63b8ff" points="335.28,-494.63 328.55,-502.81 338.91,-500.61 335.28,-494.63"/>
</a>
</g>
</g>
<!-- Node7&#45;&gt;Node3 -->
<g id="edge52_Node000007_Node000003" class="edge">
<title>Node7&#45;&gt;Node3</title>
<g id="a_edge52_Node000007_Node000003"><a xlink:title=" ">
<path fill="none" stroke="#63b8ff" d="M319.09,-493.13C321.9,-485.33 325.07,-476.28 327.75,-468 334.12,-448.31 340.71,-424.97 344.21,-412.31"/>
<polygon fill="#63b8ff" stroke="#63b8ff" points="315.88,-491.73 315.73,-502.32 322.45,-494.13 315.88,-491.73"/>
</a>
</g>
</g>
<!-- Node8 -->
<g id="Node000008" class="node">
<title>Node8</title>
<g id="a_Node000008"><a xlink:href="_frustum_8h.html" target="_top" xlink:title="Class for representing a frustum and performing intersection tests.">
<polygon fill="white" stroke="#666666" points="754.88,-468 694.62,-468 694.62,-448 754.88,-448 754.88,-468"/>
<text text-anchor="middle" x="724.75" y="-454.5" font-family="Helvetica,sans-Serif" font-size="10.00">Frustum.h</text>
</a>
</g>
</g>
<!-- Node7&#45;&gt;Node8 -->
<g id="edge8_Node000007_Node000008" class="edge">
<title>Node7&#45;&gt;Node8</title>
<g id="a_edge8_Node000007_Node000008"><a xlink:title=" ">
<path fill="none" stroke="#63b8ff" d="M359.89,-503.59C490.05,-483.02 633.4,-467.97 694.59,-461.91"/>
<polygon fill="#63b8ff" stroke="#63b8ff" points="359.36,-500.13 350.04,-505.17 360.47,-507.04 359.36,-500.13"/>
</a>
</g>
</g>
<!-- Node37 -->
<g id="Node000037" class="node">
<title>Node37</title>
<g id="a_Node000037"><a xlink:href="_polyhedron_8cpp.html" target="_top" xlink:title="@TODO Add description of this file if needed">
<polygon fill="white" stroke="#666666" points="318.5,-468 235,-468 235,-448 318.5,-448 318.5,-468"/>
<text text-anchor="middle" x="276.75" y="-454.5" font-family="Helvetica,sans-Serif" font-size="10.00">Polyhedron.cpp</text>
</a>
</g>
</g>
<!-- Node7&#45;&gt;Node37 -->
<g id="edge49_Node000007_Node000037" class="edge">
<title>Node7&#45;&gt;Node37</title>
<g id="a_edge49_Node000007_Node000037"><a xlink:title=" ">
<path fill="none" stroke="#63b8ff" d="M299.53,-494.15C293.86,-485.4 287.37,-475.39 282.78,-468.3"/>
<polygon fill="#63b8ff" stroke="#63b8ff" points="296.45,-495.84 304.83,-502.32 302.33,-492.03 296.45,-495.84"/>
</a>
</g>
</g>
<!-- Node38 -->
<g id="Node000038" class="node">
<title>Node38</title>
<g id="a_Node000038"><a xlink:href="_polyhedron_factory_8h.html" target="_top" xlink:title="@TODO Add description of this file if needed">
<polygon fill="white" stroke="#666666" points="216.75,-468 110.75,-468 110.75,-448 216.75,-448 216.75,-468"/>
<text text-anchor="middle" x="163.75" y="-454.5" font-family="Helvetica,sans-Serif" font-size="10.00">PolyhedronFactory.h</text>
</a>
</g>
</g>
<!-- Node7&#45;&gt;Node38 -->
<g id="edge50_Node000007_Node000038" class="edge">
<title>Node7&#45;&gt;Node38</title>
<g id="a_edge50_Node000007_Node000038"><a xlink:title=" ">
<path fill="none" stroke="#63b8ff" d="M275.19,-499.66C248.67,-489.98 213.42,-477.12 189.73,-468.48"/>
<polygon fill="#63b8ff" stroke="#63b8ff" points="273.95,-502.94 284.55,-503.08 276.35,-496.36 273.95,-502.94"/>
</a>
</g>
</g>
<!-- Node9 -->
<g id="Node000009" class="node">
<title>Node9</title>
<g id="a_Node000009"><a xlink:href="_frustum_8cpp.html" target="_top" xlink:title="@TODO Add description of this file if needed">
<polygon fill="white" stroke="#666666" points="802.12,-412 731.38,-412 731.38,-392 802.12,-392 802.12,-412"/>
<text text-anchor="middle" x="766.75" y="-398.5" font-family="Helvetica,sans-Serif" font-size="10.00">Frustum.cpp</text>
</a>
</g>
</g>
<!-- Node8&#45;&gt;Node9 -->
<g id="edge9_Node000008_Node000009" class="edge">
<title>Node8&#45;&gt;Node9</title>
<g id="a_edge9_Node000008_Node000009"><a xlink:title=" ">
<path fill="none" stroke="#63b8ff" d="M738.97,-438.72C745.88,-429.84 753.88,-419.55 759.52,-412.3"/>
<polygon fill="#63b8ff" stroke="#63b8ff" points="736.37,-436.36 733,-446.4 741.9,-440.65 736.37,-436.36"/>
</a>
</g>
</g>
<!-- Node10 -->
<g id="Node000010" class="node">
<title>Node10</title>
<g id="a_Node000010"><a xlink:href="_renderer_8cpp.html" target="_top" xlink:title=" ">
<polygon fill="white" stroke="#666666" points="1232.62,-356 1158.88,-356 1158.88,-336 1232.62,-336 1232.62,-356"/>
<text text-anchor="middle" x="1195.75" y="-342.5" font-family="Helvetica,sans-Serif" font-size="10.00">Renderer.cpp</text>
</a>
</g>
</g>
<!-- Node8&#45;&gt;Node10 -->
<g id="edge10_Node000008_Node000010" class="edge">
<title>Node8&#45;&gt;Node10</title>
<g id="a_edge10_Node000008_Node000010"><a xlink:title=" ">
<path fill="none" stroke="#63b8ff" d="M766.23,-447.31C856.98,-426.12 1071.92,-375.92 1158.58,-355.68"/>
<polygon fill="#63b8ff" stroke="#63b8ff" points="765.71,-443.84 756.76,-449.52 767.3,-450.66 765.71,-443.84"/>
</a>
</g>
</g>
<!-- Node11 -->
<g id="Node000011" class="node">
<title>Node11</title>
<g id="a_Node000011"><a xlink:href="_renderer_8h.html" target="_top" xlink:title="@TODO Add description of this file if needed">
<polygon fill="white" stroke="#666666" points="713.38,-412 650.12,-412 650.12,-392 713.38,-392 713.38,-412"/>
<text text-anchor="middle" x="681.75" y="-398.5" font-family="Helvetica,sans-Serif" font-size="10.00">Renderer.h</text>
</a>
</g>
</g>
<!-- Node8&#45;&gt;Node11 -->
<g id="edge11_Node000008_Node000011" class="edge">
<title>Node8&#45;&gt;Node11</title>
<g id="a_edge11_Node000008_Node000011"><a xlink:title=" ">
<path fill="none" stroke="#63b8ff" d="M710.19,-438.72C703.12,-429.84 694.93,-419.55 689.15,-412.3"/>
<polygon fill="#63b8ff" stroke="#63b8ff" points="707.35,-440.77 716.32,-446.41 712.83,-436.41 707.35,-440.77"/>
</a>
</g>
</g>
<!-- Node11&#45;&gt;Node10 -->
<g id="edge45_Node000011_Node000010" class="edge">
<title>Node11&#45;&gt;Node10</title>
<g id="a_edge45_Node000011_Node000010"><a xlink:title=" ">
<path fill="none" stroke="#63b8ff" d="M724.59,-391.94C913.02,-364.22 964.72,-381.82 1149.75,-356 1152.57,-355.61 1155.48,-355.15 1158.4,-354.66"/>
<polygon fill="#63b8ff" stroke="#63b8ff" points="724.33,-388.44 714.95,-393.38 725.36,-395.36 724.33,-388.44"/>
</a>
</g>
</g>
<!-- Node12 -->
<g id="Node000012" class="node">
<title>Node12</title>
<g id="a_Node000012"><a xlink:href="_camera_system_8h.html" target="_top" xlink:title="Camera system that updates the renderer&#39;s camera.">
<polygon fill="white" stroke="#666666" points="1048.62,-356 956.88,-356 956.88,-336 1048.62,-336 1048.62,-356"/>
<text text-anchor="middle" x="1002.75" y="-342.5" font-family="Helvetica,sans-Serif" font-size="10.00">CameraSystem.h</text>
</a>
</g>
</g>
<!-- Node11&#45;&gt;Node12 -->
<g id="edge12_Node000011_Node000012" class="edge">
<title>Node11&#45;&gt;Node12</title>
<g id="a_edge12_Node000011_Node000012"><a xlink:title=" ">
<path fill="none" stroke="#63b8ff" d="M724.6,-391.77C782.2,-381.23 893.4,-363.85 956.56,-354.1"/>
<polygon fill="#63b8ff" stroke="#63b8ff" points="724.17,-388.29 714.99,-393.57 725.46,-395.17 724.17,-388.29"/>
</a>
</g>
</g>
<!-- Node15 -->
<g id="Node000015" class="node">
<title>Node15</title>
<g id="a_Node000015"><a xlink:href="_debug_info_system_8h.html" target="_top" xlink:title="System that displays debug information about the selected entity.">
<polygon fill="white" stroke="#666666" points="575.12,-356 474.38,-356 474.38,-336 575.12,-336 575.12,-356"/>
<text text-anchor="middle" x="524.75" y="-342.5" font-family="Helvetica,sans-Serif" font-size="10.00">DebugInfoSystem.h</text>
</a>
</g>
</g>
<!-- Node11&#45;&gt;Node15 -->
<g id="edge15_Node000011_Node000015" class="edge">
<title>Node11&#45;&gt;Node15</title>
<g id="a_edge15_Node000011_Node000015"><a xlink:title=" ">
<path fill="none" stroke="#63b8ff" d="M643.72,-387.92C615.5,-378.21 577.67,-365.2 552.31,-356.48"/>
<polygon fill="#63b8ff" stroke="#63b8ff" points="642.38,-391.16 652.97,-391.1 644.65,-384.54 642.38,-391.16"/>
</a>
</g>
</g>
<!-- Node17 -->
<g id="Node000017" class="node">
<title>Node17</title>
<g id="a_Node000017"><a xlink:href="_debug_items_h_u_d_8h.html" target="_top" xlink:title="@TODO Add description of this file if needed">
<polygon fill="white" stroke="#666666" points="361.88,-356 265.62,-356 265.62,-336 361.88,-336 361.88,-356"/>
<text text-anchor="middle" x="313.75" y="-342.5" font-family="Helvetica,sans-Serif" font-size="10.00">DebugItemsHUD.h</text>
</a>
</g>
</g>
<!-- Node11&#45;&gt;Node17 -->
<g id="edge18_Node000011_Node000017" class="edge">
<title>Node11&#45;&gt;Node17</title>
<g id="a_edge18_Node000011_Node000017"><a xlink:title=" ">
<path fill="none" stroke="#63b8ff" d="M638.43,-394.64C569.33,-384.5 434.6,-364.73 362.33,-354.13"/>
<polygon fill="#63b8ff" stroke="#63b8ff" points="637.84,-398.09 648.24,-396.08 638.85,-391.17 637.84,-398.09"/>
</a>
</g>
</g>
<!-- Node19 -->
<g id="Node000019" class="node">
<title>Node19</title>
<g id="a_Node000019"><a xlink:href="_engine_h_u_d_manager_8h.html" target="_top" xlink:title="@TODO Add description of this file if needed">
<polygon fill="white" stroke="#666666" points="242.75,-300 130.75,-300 130.75,-280 242.75,-280 242.75,-300"/>
<text text-anchor="middle" x="186.75" y="-286.5" font-family="Helvetica,sans-Serif" font-size="10.00">EngineHUDManager.h</text>
</a>
</g>
</g>
<!-- Node11&#45;&gt;Node19 -->
<g id="edge34_Node000011_Node000019" class="edge">
<title>Node11&#45;&gt;Node19</title>
<g id="a_edge34_Node000011_Node000019"><a xlink:title=" ">
<path fill="none" stroke="#63b8ff" d="M638.24,-399.86C543.99,-396.83 324.03,-386.61 256.75,-356 228.67,-343.23 204.44,-314.7 193.29,-300.06"/>
<polygon fill="#63b8ff" stroke="#63b8ff" points="638.01,-403.35 648.11,-400.16 638.22,-396.36 638.01,-403.35"/>
</a>
</g>
</g>
<!-- Node22 -->
<g id="Node000022" class="node">
<title>Node22</title>
<g id="a_Node000022"><a xlink:href="_g_l_e_s_c_8h.html" target="_top" xlink:title=" ">
<polygon fill="white" stroke="#666666" points="283.38,-76 226.12,-76 226.12,-56 283.38,-56 283.38,-76"/>
<text text-anchor="middle" x="254.75" y="-62.5" font-family="Helvetica,sans-Serif" font-size="10.00">GLESC.h</text>
</a>
</g>
</g>
<!-- Node11&#45;&gt;Node22 -->
<g id="edge38_Node000011_Node000022" class="edge">
<title>Node11&#45;&gt;Node22</title>
<g id="a_edge38_Node000011_Node000022"><a xlink:title=" ">
<path fill="none" stroke="#63b8ff" d="M638.31,-401.88C555.94,-402.43 372.11,-398.27 224.75,-356 162.27,-338.08 93.75,-356 93.75,-291 93.75,-291 93.75,-291 93.75,-177 93.75,-113.7 179.66,-84.18 225.97,-72.87"/>
<polygon fill="#63b8ff" stroke="#63b8ff" points="638.23,-405.38 648.2,-401.78 638.16,-398.38 638.23,-405.38"/>
</a>
</g>
</g>
<!-- Node29 -->
<g id="Node000029" class="node">
<title>Node29</title>
<g id="a_Node000029"><a xlink:href="_fog_system_8h.html" target="_top" xlink:title="System that updates the fog in the scene.">
<polygon fill="white" stroke="#666666" points="1141,-356 1066.5,-356 1066.5,-336 1141,-336 1141,-356"/>
<text text-anchor="middle" x="1103.75" y="-342.5" font-family="Helvetica,sans-Serif" font-size="10.00">FogSystem.h</text>
</a>
</g>
</g>
<!-- Node11&#45;&gt;Node29 -->
<g id="edge35_Node000011_Node000029" class="edge">
<title>Node11&#45;&gt;Node29</title>
<g id="a_edge35_Node000011_Node000029"><a xlink:title=" ">
<path fill="none" stroke="#63b8ff" d="M724.77,-391.86C872.52,-368.4 913.3,-377.85 1057.75,-356 1060.49,-355.59 1063.31,-355.12 1066.14,-354.63"/>
<polygon fill="#63b8ff" stroke="#63b8ff" points="724.28,-388.39 714.96,-393.44 725.39,-395.3 724.28,-388.39"/>
</a>
</g>
</g>
<!-- Node31 -->
<g id="Node000031" class="node">
<title>Node31</title>
<g id="a_Node000031"><a xlink:href="_light_system_8h.html" target="_top" xlink:title="System that updates the lights in the scene.">
<polygon fill="white" stroke="#666666" points="674.25,-356 595.25,-356 595.25,-336 674.25,-336 674.25,-356"/>
<text text-anchor="middle" x="634.75" y="-342.5" font-family="Helvetica,sans-Serif" font-size="10.00">LightSystem.h</text>
</a>
</g>
</g>
<!-- Node11&#45;&gt;Node31 -->
<g id="edge39_Node000011_Node000031" class="edge">
<title>Node11&#45;&gt;Node31</title>
<g id="a_edge39_Node000011_Node000031"><a xlink:title=" ">
<path fill="none" stroke="#63b8ff" d="M666.09,-383C658.3,-374.06 649.22,-363.62 642.84,-356.3"/>
<polygon fill="#63b8ff" stroke="#63b8ff" points="663.36,-385.21 672.57,-390.45 668.64,-380.61 663.36,-385.21"/>
</a>
</g>
</g>
<!-- Node33 -->
<g id="Node000033" class="node">
<title>Node33</title>
<g id="a_Node000033"><a xlink:href="_render_system_8h.html" target="_top" xlink:title="System that updates the renderer, sends the data to the renderer to then be handled by it.">
<polygon fill="white" stroke="#666666" points="935.12,-356 846.38,-356 846.38,-336 935.12,-336 935.12,-356"/>
<text text-anchor="middle" x="890.75" y="-342.5" font-family="Helvetica,sans-Serif" font-size="10.00">RenderSystem.h</text>
</a>
</g>
</g>
<!-- Node11&#45;&gt;Node33 -->
<g id="edge42_Node000011_Node000033" class="edge">
<title>Node11&#45;&gt;Node33</title>
<g id="a_edge42_Node000011_Node000033"><a xlink:title=" ">
<path fill="none" stroke="#63b8ff" d="M724.26,-390.02C762.43,-380.16 817.88,-365.83 854.13,-356.46"/>
<polygon fill="#63b8ff" stroke="#63b8ff" points="723.76,-386.53 714.96,-392.42 725.52,-393.31 723.76,-386.53"/>
</a>
</g>
</g>
<!-- Node35 -->
<g id="Node000035" class="node">
<title>Node35</title>
<g id="a_Node000035"><a xlink:href="_sun_system_8h.html" target="_top" xlink:title="System that updates the sun in the scene.">
<polygon fill="white" stroke="#666666" points="767.38,-356 692.12,-356 692.12,-336 767.38,-336 767.38,-356"/>
<text text-anchor="middle" x="729.75" y="-342.5" font-family="Helvetica,sans-Serif" font-size="10.00">SunSystem.h</text>
</a>
</g>
</g>
<!-- Node11&#45;&gt;Node35 -->
<g id="edge46_Node000011_Node000035" class="edge">
<title>Node11&#45;&gt;Node35</title>
<g id="a_edge46_Node000011_Node000035"><a xlink:title=" ">
<path fill="none" stroke="#63b8ff" d="M697.75,-383C705.7,-374.06 714.97,-363.62 721.48,-356.3"/>
<polygon fill="#63b8ff" stroke="#63b8ff" points="695.14,-380.66 691.12,-390.46 700.38,-385.31 695.14,-380.66"/>
</a>
</g>
</g>
<!-- Node13 -->
<g id="Node000013" class="node">
<title>Node13</title>
<g id="a_Node000013"><a xlink:href="_camera_system_8cpp.html" target="_top" xlink:title=" ">
<polygon fill="white" stroke="#666666" points="1136.88,-300 1034.62,-300 1034.62,-280 1136.88,-280 1136.88,-300"/>
<text text-anchor="middle" x="1085.75" y="-286.5" font-family="Helvetica,sans-Serif" font-size="10.00">CameraSystem.cpp</text>
</a>
</g>
</g>
<!-- Node12&#45;&gt;Node13 -->
<g id="edge13_Node000012_Node000013" class="edge">
<title>Node12&#45;&gt;Node13</title>
<g id="a_edge13_Node000012_Node000013"><a xlink:title=" ">
<path fill="none" stroke="#63b8ff" d="M1026.51,-329.54C1040.92,-320.17 1058.84,-308.51 1071.18,-300.48"/>
<polygon fill="#63b8ff" stroke="#63b8ff" points="1024.95,-326.38 1018.48,-334.77 1028.77,-332.25 1024.95,-326.38"/>
</a>
</g>
</g>
<!-- Node14 -->
<g id="Node000014" class="node">
<title>Node14</title>
<g id="a_Node000014"><a xlink:href="_g_l_e_s_c_8cpp.html" target="_top" xlink:title=" ">
<polygon fill="white" stroke="#666666" points="669.62,-20 601.88,-20 601.88,0 669.62,0 669.62,-20"/>
<text text-anchor="middle" x="635.75" y="-6.5" font-family="Helvetica,sans-Serif" font-size="10.00">GLESC.cpp</text>
</a>
</g>
</g>
<!-- Node12&#45;&gt;Node14 -->
<g id="edge14_Node000012_Node000014" class="edge">
<title>Node12&#45;&gt;Node14</title>
<g id="a_edge14_Node000012_Node000014"><a xlink:title=" ">
<path fill="none" stroke="#63b8ff" d="M1003.95,-324.33C1005.13,-302.23 1006.75,-266.15 1006.75,-235 1006.75,-235 1006.75,-235 1006.75,-121 1006.75,-51.13 761.83,-22.18 669.99,-13.78"/>
<polygon fill="#63b8ff" stroke="#63b8ff" points="1000.47,-323.9 1003.41,-334.08 1007.46,-324.29 1000.47,-323.9"/>
</a>
</g>
</g>
<!-- Node15&#45;&gt;Node14 -->
<g id="edge17_Node000015_Node000014" class="edge">
<title>Node15&#45;&gt;Node14</title>
<g id="a_edge17_Node000015_Node000014"><a xlink:title=" ">
<path fill="none" stroke="#63b8ff" d="M524.75,-324.32C524.75,-302.22 524.75,-266.13 524.75,-235 524.75,-235 524.75,-235 524.75,-121 524.75,-71.22 581.78,-36.28 614.08,-20.49"/>
<polygon fill="#63b8ff" stroke="#63b8ff" points="521.25,-324.07 524.75,-334.07 528.25,-324.07 521.25,-324.07"/>
</a>
</g>
</g>
<!-- Node16 -->
<g id="Node000016" class="node">
<title>Node16</title>
<g id="a_Node000016"><a xlink:href="_debug_info_system_8cpp.html" target="_top" xlink:title="@TODO Add description of this file if needed">
<polygon fill="white" stroke="#666666" points="496.38,-300 385.12,-300 385.12,-280 496.38,-280 496.38,-300"/>
<text text-anchor="middle" x="440.75" y="-286.5" font-family="Helvetica,sans-Serif" font-size="10.00">DebugInfoSystem.cpp</text>
</a>
</g>
</g>
<!-- Node15&#45;&gt;Node16 -->
<g id="edge16_Node000015_Node000016" class="edge">
<title>Node15&#45;&gt;Node16</title>
<g id="a_edge16_Node000015_Node000016"><a xlink:title=" ">
<path fill="none" stroke="#63b8ff" d="M500.7,-329.54C486.12,-320.17 467.98,-308.51 455.5,-300.48"/>
<polygon fill="#63b8ff" stroke="#63b8ff" points="498.54,-332.31 508.85,-334.78 502.33,-326.42 498.54,-332.31"/>
</a>
</g>
</g>
<!-- Node18 -->
<g id="Node000018" class="node">
<title>Node18</title>
<g id="a_Node000018"><a xlink:href="_debug_items_h_u_d_8cpp.html" target="_top" xlink:title="@TODO Add description of this file if needed">
<polygon fill="white" stroke="#666666" points="367.12,-300 260.38,-300 260.38,-280 367.12,-280 367.12,-300"/>
<text text-anchor="middle" x="313.75" y="-286.5" font-family="Helvetica,sans-Serif" font-size="10.00">DebugItemsHUD.cpp</text>
</a>
</g>
</g>
<!-- Node17&#45;&gt;Node18 -->
<g id="edge19_Node000017_Node000018" class="edge">
<title>Node17&#45;&gt;Node18</title>
<g id="a_edge19_Node000017_Node000018"><a xlink:title=" ">
<path fill="none" stroke="#63b8ff" d="M313.75,-324.13C313.75,-315.9 313.75,-306.85 313.75,-300.3"/>
<polygon fill="#63b8ff" stroke="#63b8ff" points="310.25,-324.08 313.75,-334.08 317.25,-324.08 310.25,-324.08"/>
</a>
</g>
</g>
<!-- Node17&#45;&gt;Node19 -->
<g id="edge20_Node000017_Node000019" class="edge">
<title>Node17&#45;&gt;Node19</title>
<g id="a_edge20_Node000017_Node000019"><a xlink:title=" ">
<path fill="none" stroke="#63b8ff" d="M281.15,-331.14C258.54,-321.52 229.01,-308.97 209.04,-300.48"/>
<polygon fill="#63b8ff" stroke="#63b8ff" points="279.66,-334.31 290.24,-335 282.4,-327.87 279.66,-334.31"/>
</a>
</g>
</g>
<!-- Node20 -->
<g id="Node000020" class="node">
<title>Node20</title>
<g id="a_Node000020"><a xlink:href="_engine_camera_8h.html" target="_top" xlink:title="@TODO Add description of this file if needed">
<polygon fill="white" stroke="#666666" points="252.75,-244 164.75,-244 164.75,-224 252.75,-224 252.75,-244"/>
<text text-anchor="middle" x="208.75" y="-230.5" font-family="Helvetica,sans-Serif" font-size="10.00">EngineCamera.h</text>
</a>
</g>
</g>
<!-- Node19&#45;&gt;Node20 -->
<g id="edge21_Node000019_Node000020" class="edge">
<title>Node19&#45;&gt;Node20</title>
<g id="a_edge21_Node000019_Node000020"><a xlink:title=" ">
<path fill="none" stroke="#63b8ff" d="M194.9,-269C198.35,-260.54 202.2,-251.08 204.96,-244.3"/>
<polygon fill="#63b8ff" stroke="#63b8ff" points="191.68,-267.61 191.15,-278.19 198.17,-270.25 191.68,-267.61"/>
</a>
</g>
</g>
<!-- Node19&#45;&gt;Node22 -->
<g id="edge33_Node000019_Node000022" class="edge">
<title>Node19&#45;&gt;Node22</title>
<g id="a_edge33_Node000019_Node000022"><a xlink:title=" ">
<path fill="none" stroke="#63b8ff" d="M171.18,-270.99C165.32,-263.2 159.24,-253.66 155.75,-244 144.27,-212.16 137.57,-199.18 150.75,-168 168.78,-125.35 214.62,-91.83 238.98,-76.35"/>
<polygon fill="#63b8ff" stroke="#63b8ff" points="168.32,-273.03 177.32,-278.63 173.78,-268.64 168.32,-273.03"/>
</a>
</g>
</g>
<!-- Node28 -->
<g id="Node000028" class="node">
<title>Node28</title>
<g id="a_Node000028"><a xlink:href="_engine_h_u_d_manager_8cpp.html" target="_top" xlink:title="@TODO Add description of this file if needed">
<polygon fill="white" stroke="#666666" points="393,-244 270.5,-244 270.5,-224 393,-224 393,-244"/>
<text text-anchor="middle" x="331.75" y="-230.5" font-family="Helvetica,sans-Serif" font-size="10.00">EngineHUDManager.cpp</text>
</a>
</g>
</g>
<!-- Node19&#45;&gt;Node28 -->
<g id="edge32_Node000019_Node000028" class="edge">
<title>Node19&#45;&gt;Node28</title>
<g id="a_edge32_Node000019_Node000028"><a xlink:title=" ">
<path fill="none" stroke="#63b8ff" d="M222.57,-275.66C248.56,-265.98 283.09,-253.12 306.3,-244.48"/>
<polygon fill="#63b8ff" stroke="#63b8ff" points="221.58,-272.3 213.43,-279.07 224.02,-278.86 221.58,-272.3"/>
</a>
</g>
</g>
<!-- Node21 -->
<g id="Node000021" class="node">
<title>Node21</title>
<g id="a_Node000021"><a xlink:href="_engine_camera_8cpp.html" target="_top" xlink:title="@TODO Add description of this file if needed">
<polygon fill="white" stroke="#666666" points="258,-188 159.5,-188 159.5,-168 258,-168 258,-188"/>
<text text-anchor="middle" x="208.75" y="-174.5" font-family="Helvetica,sans-Serif" font-size="10.00">EngineCamera.cpp</text>
</a>
</g>
</g>
<!-- Node20&#45;&gt;Node21 -->
<g id="edge22_Node000020_Node000021" class="edge">
<title>Node20&#45;&gt;Node21</title>
<g id="a_edge22_Node000020_Node000021"><a xlink:title=" ">
<path fill="none" stroke="#63b8ff" d="M208.75,-212.13C208.75,-203.9 208.75,-194.85 208.75,-188.3"/>
<polygon fill="#63b8ff" stroke="#63b8ff" points="205.25,-212.08 208.75,-222.08 212.25,-212.08 205.25,-212.08"/>
</a>
</g>
</g>
<!-- Node20&#45;&gt;Node22 -->
<g id="edge23_Node000020_Node000022" class="edge">
<title>Node20&#45;&gt;Node22</title>
<g id="a_edge23_Node000020_Node000022"><a xlink:title=" ">
<path fill="none" stroke="#63b8ff" d="M238.33,-217.72C249.37,-210.35 260.68,-200.39 266.75,-188 276.36,-168.38 262.58,-101.38 256.96,-76.45"/>
<polygon fill="#63b8ff" stroke="#63b8ff" points="236.84,-214.53 230.14,-222.73 240.5,-220.5 236.84,-214.53"/>
</a>
</g>
</g>
<!-- Node24 -->
<g id="Node000024" class="node">
<title>Node24</title>
<g id="a_Node000024"><a xlink:href="_scene_8h.html" target="_top" xlink:title="@TODO Add description of this file if needed">
<polygon fill="white" stroke="#666666" points="397.75,-188 345.75,-188 345.75,-168 397.75,-168 397.75,-188"/>
<text text-anchor="middle" x="371.75" y="-174.5" font-family="Helvetica,sans-Serif" font-size="10.00">Scene.h</text>
</a>
</g>
</g>
<!-- Node20&#45;&gt;Node24 -->
<g id="edge26_Node000020_Node000024" class="edge">
<title>Node20&#45;&gt;Node24</title>
<g id="a_edge26_Node000020_Node000024"><a xlink:title=" ">
<path fill="none" stroke="#63b8ff" d="M247.72,-220.09C277.89,-210.1 318.86,-196.52 345.3,-187.76"/>
<polygon fill="#63b8ff" stroke="#63b8ff" points="246.97,-216.65 238.58,-223.12 249.17,-223.3 246.97,-216.65"/>
</a>
</g>
</g>
<!-- Node22&#45;&gt;Node14 -->
<g id="edge24_Node000022_Node000014" class="edge">
<title>Node22&#45;&gt;Node14</title>
<g id="a_edge24_Node000022_Node000014"><a xlink:title=" ">
<path fill="none" stroke="#63b8ff" d="M295.02,-59.29C370.27,-48.63 530.98,-25.85 601.44,-15.86"/>
<polygon fill="#63b8ff" stroke="#63b8ff" points="294.61,-55.82 285.2,-60.68 295.59,-62.75 294.61,-55.82"/>
</a>
</g>
</g>
<!-- Node23 -->
<g id="Node000023" class="node">
<title>Node23</title>
<g id="a_Node000023"><a xlink:href="main_8cpp.html" target="_top" xlink:title=" ">
<polygon fill="white" stroke="#666666" points="282.62,-20 226.88,-20 226.88,0 282.62,0 282.62,-20"/>
<text text-anchor="middle" x="254.75" y="-6.5" font-family="Helvetica,sans-Serif" font-size="10.00">main.cpp</text>
</a>
</g>
</g>
<!-- Node22&#45;&gt;Node23 -->
<g id="edge25_Node000022_Node000023" class="edge">
<title>Node22&#45;&gt;Node23</title>
<g id="a_edge25_Node000022_Node000023"><a xlink:title=" ">
<path fill="none" stroke="#63b8ff" d="M254.75,-44.13C254.75,-35.9 254.75,-26.85 254.75,-20.3"/>
<polygon fill="#63b8ff" stroke="#63b8ff" points="251.25,-44.08 254.75,-54.08 258.25,-44.08 251.25,-44.08"/>
</a>
</g>
</g>
<!-- Node24&#45;&gt;Node14 -->
<g id="edge29_Node000024_Node000014" class="edge">
<title>Node24&#45;&gt;Node14</title>
<g id="a_edge29_Node000024_Node000014"><a xlink:title=" ">
<path fill="none" stroke="#63b8ff" d="M377.84,-157.09C387.63,-126.33 407.44,-69.38 423.75,-56 450.59,-33.99 548.86,-20.33 601.66,-14.42"/>
<polygon fill="#63b8ff" stroke="#63b8ff" points="374.58,-155.76 374.95,-166.35 381.27,-157.85 374.58,-155.76"/>
</a>
</g>
</g>
<!-- Node25 -->
<g id="Node000025" class="node">
<title>Node25</title>
<g id="a_Node000025"><a xlink:href="_default_8h.html" target="_top" xlink:title="@TODO Add description of this file if needed">
<polygon fill="white" stroke="#666666" points="489.88,-132 435.62,-132 435.62,-112 489.88,-112 489.88,-132"/>
<text text-anchor="middle" x="462.75" y="-118.5" font-family="Helvetica,sans-Serif" font-size="10.00">Default.h</text>
</a>
</g>
</g>
<!-- Node24&#45;&gt;Node25 -->
<g id="edge27_Node000024_Node000025" class="edge">
<title>Node24&#45;&gt;Node25</title>
<g id="a_edge27_Node000024_Node000025"><a xlink:title=" ">
<path fill="none" stroke="#63b8ff" d="M397.35,-161.81C413.22,-152.39 433.12,-140.58 446.78,-132.48"/>
<polygon fill="#63b8ff" stroke="#63b8ff" points="395.72,-158.71 388.9,-166.82 399.29,-164.73 395.72,-158.71"/>
</a>
</g>
</g>
<!-- Node27 -->
<g id="Node000027" class="node">
<title>Node27</title>
<g id="a_Node000027"><a xlink:href="_scene_container_8h.html" target="_top" xlink:title="Class that stores and manages scenes.">
<polygon fill="white" stroke="#666666" points="376.38,-132 283.12,-132 283.12,-112 376.38,-112 376.38,-132"/>
<text text-anchor="middle" x="329.75" y="-118.5" font-family="Helvetica,sans-Serif" font-size="10.00">SceneContainer.h</text>
</a>
</g>
</g>
<!-- Node24&#45;&gt;Node27 -->
<g id="edge30_Node000024_Node000027" class="edge">
<title>Node24&#45;&gt;Node27</title>
<g id="a_edge30_Node000024_Node000027"><a xlink:title=" ">
<path fill="none" stroke="#63b8ff" d="M357.53,-158.72C350.62,-149.84 342.62,-139.55 336.98,-132.3"/>
<polygon fill="#63b8ff" stroke="#63b8ff" points="354.6,-160.65 363.5,-166.4 360.13,-156.36 354.6,-160.65"/>
</a>
</g>
</g>
<!-- Node26 -->
<g id="Node000026" class="node">
<title>Node26</title>
<g id="a_Node000026"><a xlink:href="_default_8cpp.html" target="_top" xlink:title="@TODO Add description of this file if needed">
<polygon fill="white" stroke="#666666" points="497.12,-76 432.38,-76 432.38,-56 497.12,-56 497.12,-76"/>
<text text-anchor="middle" x="464.75" y="-62.5" font-family="Helvetica,sans-Serif" font-size="10.00">Default.cpp</text>
</a>
</g>
</g>
<!-- Node25&#45;&gt;Node26 -->
<g id="edge28_Node000025_Node000026" class="edge">
<title>Node25&#45;&gt;Node26</title>
<g id="a_edge28_Node000025_Node000026"><a xlink:title=" ">
<path fill="none" stroke="#63b8ff" d="M463.52,-100.13C463.83,-91.9 464.16,-82.85 464.41,-76.3"/>
<polygon fill="#63b8ff" stroke="#63b8ff" points="460.03,-99.96 463.15,-110.08 467.02,-100.22 460.03,-99.96"/>
</a>
</g>
</g>
<!-- Node27&#45;&gt;Node22 -->
<g id="edge31_Node000027_Node000022" class="edge">
<title>Node27&#45;&gt;Node22</title>
<g id="a_edge31_Node000027_Node000022"><a xlink:title=" ">
<path fill="none" stroke="#63b8ff" d="M307.53,-105C294.64,-95.72 278.85,-84.35 267.92,-76.48"/>
<polygon fill="#63b8ff" stroke="#63b8ff" points="305.3,-107.71 315.46,-110.71 309.39,-102.03 305.3,-107.71"/>
</a>
</g>
</g>
<!-- Node29&#45;&gt;Node14 -->
<g id="edge37_Node000029_Node000014" class="edge">
<title>Node29&#45;&gt;Node14</title>
<g id="a_edge37_Node000029_Node000014"><a xlink:title=" ">
<path fill="none" stroke="#63b8ff" d="M1123.13,-328.1C1131.11,-320.25 1139.85,-310.37 1145.75,-300 1160.64,-273.85 1164.75,-265.1 1164.75,-235 1164.75,-235 1164.75,-235 1164.75,-121 1164.75,-19.57 787.28,-11.01 670.05,-10.8"/>
<polygon fill="#63b8ff" stroke="#63b8ff" points="1120.96,-325.33 1116.04,-334.71 1125.74,-330.45 1120.96,-325.33"/>
</a>
</g>
</g>
<!-- Node30 -->
<g id="Node000030" class="node">
<title>Node30</title>
<g id="a_Node000030"><a xlink:href="_fog_system_8cpp.html" target="_top" xlink:title="@TODO Add description of this file if needed">
<polygon fill="white" stroke="#666666" points="1278.25,-300 1193.25,-300 1193.25,-280 1278.25,-280 1278.25,-300"/>
<text text-anchor="middle" x="1235.75" y="-286.5" font-family="Helvetica,sans-Serif" font-size="10.00">FogSystem.cpp</text>
</a>
</g>
</g>
<!-- Node29&#45;&gt;Node30 -->
<g id="edge36_Node000029_Node000030" class="edge">
<title>Node29&#45;&gt;Node30</title>
<g id="a_edge36_Node000029_Node000030"><a xlink:title=" ">
<path fill="none" stroke="#63b8ff" d="M1137.31,-331.27C1160.85,-321.64 1191.73,-309.01 1212.58,-300.48"/>
<polygon fill="#63b8ff" stroke="#63b8ff" points="1136.07,-328 1128.14,-335.02 1138.72,-334.47 1136.07,-328"/>
</a>
</g>
</g>
<!-- Node31&#45;&gt;Node14 -->
<g id="edge40_Node000031_Node000014" class="edge">
<title>Node31&#45;&gt;Node14</title>
<g id="a_edge40_Node000031_Node000014"><a xlink:title=" ">
<path fill="none" stroke="#63b8ff" d="M610.33,-329.1C600.2,-321.4 589.12,-311.36 581.75,-300 565.37,-274.75 562.75,-265.1 562.75,-235 562.75,-235 562.75,-235 562.75,-121 562.75,-77.45 602.96,-37.95 623.7,-20.48"/>
<polygon fill="#63b8ff" stroke="#63b8ff" points="608.2,-331.88 618.37,-334.85 612.28,-326.19 608.2,-331.88"/>
</a>
</g>
</g>
<!-- Node32 -->
<g id="Node000032" class="node">
<title>Node32</title>
<g id="a_Node000032"><a xlink:href="_light_system_8cpp.html" target="_top" xlink:title="@TODO Add description of this file if needed">
<polygon fill="white" stroke="#666666" points="680.5,-300 591,-300 591,-280 680.5,-280 680.5,-300"/>
<text text-anchor="middle" x="635.75" y="-286.5" font-family="Helvetica,sans-Serif" font-size="10.00">LightSystem.cpp</text>
</a>
</g>
</g>
<!-- Node31&#45;&gt;Node32 -->
<g id="edge41_Node000031_Node000032" class="edge">
<title>Node31&#45;&gt;Node32</title>
<g id="a_edge41_Node000031_Node000032"><a xlink:title=" ">
<path fill="none" stroke="#63b8ff" d="M635.14,-324.13C635.29,-315.9 635.46,-306.85 635.58,-300.3"/>
<polygon fill="#63b8ff" stroke="#63b8ff" points="631.64,-324.02 634.95,-334.08 638.64,-324.15 631.64,-324.02"/>
</a>
</g>
</g>
<!-- Node33&#45;&gt;Node14 -->
<g id="edge43_Node000033_Node000014" class="edge">
<title>Node33&#45;&gt;Node14</title>
<g id="a_edge43_Node000033_Node000014"><a xlink:title=" ">
<path fill="none" stroke="#63b8ff" d="M917.95,-329.62C929.24,-322.02 941.57,-311.91 949.75,-300 966.79,-275.19 968.75,-265.1 968.75,-235 968.75,-235 968.75,-235 968.75,-121 968.75,-58.52 754.69,-25.52 669.82,-14.89"/>
<polygon fill="#63b8ff" stroke="#63b8ff" points="916.3,-326.53 909.72,-334.83 920.04,-332.44 916.3,-326.53"/>
</a>
</g>
</g>
<!-- Node34 -->
<g id="Node000034" class="node">
<title>Node34</title>
<g id="a_Node000034"><a xlink:href="_render_system_8cpp.html" target="_top" xlink:title=" ">
<polygon fill="white" stroke="#666666" points="940.38,-300 841.12,-300 841.12,-280 940.38,-280 940.38,-300"/>
<text text-anchor="middle" x="890.75" y="-286.5" font-family="Helvetica,sans-Serif" font-size="10.00">RenderSystem.cpp</text>
</a>
</g>
</g>
<!-- Node33&#45;&gt;Node34 -->
<g id="edge44_Node000033_Node000034" class="edge">
<title>Node33&#45;&gt;Node34</title>
<g id="a_edge44_Node000033_Node000034"><a xlink:title=" ">
<path fill="none" stroke="#63b8ff" d="M890.75,-324.13C890.75,-315.9 890.75,-306.85 890.75,-300.3"/>
<polygon fill="#63b8ff" stroke="#63b8ff" points="887.25,-324.08 890.75,-334.08 894.25,-324.08 887.25,-324.08"/>
</a>
</g>
</g>
<!-- Node35&#45;&gt;Node14 -->
<g id="edge47_Node000035_Node000014" class="edge">
<title>Node35&#45;&gt;Node14</title>
<g id="a_edge47_Node000035_Node000014"><a xlink:title=" ">
<path fill="none" stroke="#63b8ff" d="M723.54,-324.85C717.34,-302.96 708.75,-266.84 708.75,-235 708.75,-235 708.75,-235 708.75,-121 708.75,-77.45 668.54,-37.95 647.8,-20.48"/>
<polygon fill="#63b8ff" stroke="#63b8ff" points="720.12,-325.65 726.31,-334.25 726.83,-323.66 720.12,-325.65"/>
</a>
</g>
</g>
<!-- Node36 -->
<g id="Node000036" class="node">
<title>Node36</title>
<g id="a_Node000036"><a xlink:href="_sun_system_8cpp.html" target="_top" xlink:title="@TODO Add description of this file if needed">
<polygon fill="white" stroke="#666666" points="822.62,-300 736.88,-300 736.88,-280 822.62,-280 822.62,-300"/>
<text text-anchor="middle" x="779.75" y="-286.5" font-family="Helvetica,sans-Serif" font-size="10.00">SunSystem.cpp</text>
</a>
</g>
</g>
<!-- Node35&#45;&gt;Node36 -->
<g id="edge48_Node000035_Node000036" class="edge">
<title>Node35&#45;&gt;Node36</title>
<g id="a_edge48_Node000035_Node000036"><a xlink:title=" ">
<path fill="none" stroke="#63b8ff" d="M746.15,-327.29C754.49,-318.28 764.29,-307.7 771.14,-300.3"/>
<polygon fill="#63b8ff" stroke="#63b8ff" points="743.71,-324.77 739.49,-334.48 748.85,-329.52 743.71,-324.77"/>
</a>
</g>
</g>
<!-- Node39 -->
<g id="Node000039" class="node">
<title>Node39</title>
<g id="a_Node000039"><a xlink:href="_polyhedron_factory_8cpp.html" target="_top" xlink:title="@TODO Add description of this file if needed">
<polygon fill="white" stroke="#666666" points="222,-412 105.5,-412 105.5,-392 222,-392 222,-412"/>
<text text-anchor="middle" x="163.75" y="-398.5" font-family="Helvetica,sans-Serif" font-size="10.00">PolyhedronFactory.cpp</text>
</a>
</g>
</g>
<!-- Node38&#45;&gt;Node39 -->
<g id="edge51_Node000038_Node000039" class="edge">
<title>Node38&#45;&gt;Node39</title>
<g id="a_edge51_Node000038_Node000039"><a xlink:title=" ">
<path fill="none" stroke="#63b8ff" d="M163.75,-436.13C163.75,-427.9 163.75,-418.85 163.75,-412.3"/>
<polygon fill="#63b8ff" stroke="#63b8ff" points="160.25,-436.08 163.75,-446.08 167.25,-436.08 160.25,-436.08"/>
</a>
</g>
</g>
</g>
</svg>

<g id="navigator" transform="translate(0 0)" fill="#404254">
  <rect fill="#f2f5e9" fill-opacity="0.5" stroke="#606060" stroke-width=".5" x="0" y="0" width="60" height="60"/>
  <use id="zoomplus" xlink:href="#zoomPlus" x="17" y="9" onmousedown="handleZoom(evt,'in')"/>
  <use id="zoomminus" xlink:href="#zoomMin" x="42" y="9" onmousedown="handleZoom(evt,'out')"/>
  <use id="reset" xlink:href="#resetDef" x="30" y="36" onmousedown="handleReset()"/>
   <use id="arrowup" xlink:href="#arrowUp" x="0" y="0" onmousedown="handlePan(0,-1)"/>
  <use id="arrowright" xlink:href="#arrowRight" x="0" y="0" onmousedown="handlePan(1,0)"/>
  <use id="arrowdown" xlink:href="#arrowDown" x="0" y="0" onmousedown="handlePan(0,1)"/>
  <use id="arrowleft" xlink:href="#arrowLeft" x="0" y="0" onmousedown="handlePan(-1,0)"/>
</g>
<svg viewBox="0 0 15 15" width="100%" height="30px" preserveAspectRatio="xMaxYMin meet">
 <g id="arrow_out" transform="scale(0.3 0.3)">
  <a xlink:href="_plane_8h__dep__incl_org.svg" target="_base">
   <rect id="button" ry="5" rx="5" y="6" x="6" height="38" width="38"
        fill="#f2f5e9" fill-opacity="0.5" stroke="#606060" stroke-width="1.0"/>
   <path id="arrow"
     d="M 11.500037,31.436501 C 11.940474,20.09759 22.043105,11.32322 32.158766,21.979434 L 37.068811,17.246167 C 37.068811,17.246167 37.088388,32 37.088388,32 L 22.160133,31.978069 C 22.160133,31.978069 26.997745,27.140456 26.997745,27.140456 C 18.528582,18.264221 13.291696,25.230495 11.500037,31.436501 z"
     style="fill:#404040;"/>
  </a>
 </g>
</svg>

<style type='text/css'>
<![CDATA[
[data-mouse-over-selected='false'] { opacity: 0.7; }
[data-mouse-over-selected='true']  { opacity: 1.0; }
]]>
</style>
<script type="application/ecmascript"><![CDATA[
document.addEventListener('DOMContentLoaded', (event) => {
  highlightEdges();
  highlightAdjacentNodes();
});
]]></script>
</svg>
