<?xml version="1.0" encoding="UTF-8" standalone="no"?>
<!DOCTYPE svg PUBLIC "-//W3C//DTD SVG 1.1//EN"
 "http://www.w3.org/Graphics/SVG/1.1/DTD/svg11.dtd">
<!-- Generated by graphviz version 11.0.0 (20240428.1522)
 -->
<!-- Title: SoundLoader.cpp Pages: 1 -->
<!--zoomable 344 -->

<svg id="main" version="1.1" xmlns="http://www.w3.org/2000/svg" xmlns:xlink="http://www.w3.org/1999/xlink" xml:space="preserve" onload="init(evt)">
<style type="text/css"><![CDATA[
.node, .edge {opacity: 0.7;}
.node.selected, .edge.selected {opacity: 1;}
.edge:hover path { stroke: red; }
.edge:hover polygon { stroke: red; fill: red; }
]]></style>

<defs>
  <circle id="rim" cx="0" cy="0" r="7"/>
  <circle id="rim2" cx="0" cy="0" r="3.5"/>
  <g id="zoomPlus">
    <use xlink:href="#rim" fill="#404040"><set attributeName="fill" to="#808080" begin="zoomplus.mouseover" end="zoomplus.mouseout"/></use>
    <path d="M-4,0h8M0,-4v8" fill="none" stroke="white" stroke-width="1.5" pointer-events="none"/>
  </g>
  <g id="zoomMin">
    <use xlink:href="#rim" fill="#404040"><set attributeName="fill" to="#808080" begin="zoomminus.mouseover" end="zoomminus.mouseout"/></use>
    <path d="M-4,0h8" fill="none" stroke="white" stroke-width="1.5" pointer-events="none"/>
  </g>
  <g id="arrowUp" transform="translate(30 24)">
    <use xlink:href="#rim"/>
    <path pointer-events="none" fill="none" stroke="white" stroke-width="1.5" d="M0,-3.0v7 M-2.5,-0.5L0,-3.0L2.5,-0.5"/>
  </g>
  <g id="arrowRight" transform="rotate(90) translate(36 -43)">
    <use xlink:href="#rim"/>
    <path pointer-events="none" fill="none" stroke="white" stroke-width="1.5" d="M0,-3.0v7 M-2.5,-0.5L0,-3.0L2.5,-0.5"/>
  </g>
  <g id="arrowDown" transform="rotate(180) translate(-30 -48)">
    <use xlink:href="#rim"/>
    <path pointer-events="none" fill="none" stroke="white" stroke-width="1.5" d="M0,-3.0v7 M-2.5,-0.5L0,-3.0L2.5,-0.5"/>
  </g>
  <g id="arrowLeft" transform="rotate(270) translate(-36 17)">
    <use xlink:href="#rim"/>
    <path pointer-events="none" fill="none" stroke="white" stroke-width="1.5" d="M0,-3.0v7 M-2.5,-0.5L0,-3.0L2.5,-0.5"/>
  </g>
  <g id="resetDef">
    <use xlink:href="#rim2" fill="#404040"><set attributeName="fill" to="#808080" begin="reset.mouseover" end="reset.mouseout"/></use>
  </g>
</defs>
<script type="application/ecmascript">
var viewWidth = 1458;
var viewHeight = 344;
var sectionId = 'dynsection-0';
</script>
<script type="application/ecmascript" xlink:href="svg.min.js"/>
<svg id="graph" class="graph">
<g id="viewport">
<title>SoundLoader.cpp</title>
<!-- Node1 -->
<g id="Node000001" class="node">
<title>Node1</title>
<g id="a_Node000001"><a xlink:title="@TODO Add description of this file if needed">
<polygon fill="#999999" stroke="#666666" points="1120.5,-336 1028.75,-336 1028.75,-316 1120.5,-316 1120.5,-336"/>
<text text-anchor="middle" x="1074.62" y="-322.5" font-family="Helvetica,sans-Serif" font-size="10.00">SoundLoader.cpp</text>
</a>
</g>
</g>
<!-- Node2 -->
<g id="Node000002" class="node">
<title>Node2</title>
<g id="a_Node000002"><a xlink:href="_sound_loader_8h.html" target="_top" xlink:title="@TODO Add description of this file if needed">
<polygon fill="white" stroke="#666666" points="377.25,-212 260,-212 260,-180 377.25,-180 377.25,-212"/>
<text text-anchor="start" x="268" y="-198.5" font-family="Helvetica,sans-Serif" font-size="10.00">engine/res&#45;mng/sounds</text>
<text text-anchor="middle" x="318.62" y="-186.5" font-family="Helvetica,sans-Serif" font-size="10.00">/SoundLoader.h</text>
</a>
</g>
</g>
<!-- Node1&#45;&gt;Node2 -->
<g id="edge1_Node000001_Node000002" class="edge">
<title>Node1&#45;&gt;Node2</title>
<g id="a_edge1_Node000001_Node000002"><a xlink:title=" ">
<path fill="none" stroke="#63b8ff" d="M1028.47,-317.19C900.63,-295.54 541.33,-234.71 388.66,-208.86"/>
<polygon fill="#63b8ff" stroke="#63b8ff" points="389.53,-205.46 379.09,-207.24 388.36,-212.36 389.53,-205.46"/>
</a>
</g>
</g>
<!-- Node9 -->
<g id="Node000009" class="node">
<title>Node9</title>
<g id="a_Node000009"><a xlink:title=" ">
<polygon fill="#e0e0e0" stroke="#999999" points="1284.62,-274 1214.62,-274 1214.62,-254 1284.62,-254 1284.62,-274"/>
<text text-anchor="middle" x="1249.62" y="-260.5" font-family="Helvetica,sans-Serif" font-size="10.00">SDL2/SDL.h</text>
</a>
</g>
</g>
<!-- Node1&#45;&gt;Node9 -->
<g id="edge8_Node000001_Node000009" class="edge">
<title>Node1&#45;&gt;Node9</title>
<g id="a_edge8_Node000001_Node000009"><a xlink:title=" ">
<path fill="none" stroke="#63b8ff" d="M1101.97,-315.62C1131.42,-305.53 1178.49,-289.39 1211.56,-278.05"/>
<polygon fill="#63b8ff" stroke="#63b8ff" points="1212.43,-281.45 1220.75,-274.9 1210.16,-274.83 1212.43,-281.45"/>
</a>
</g>
</g>
<!-- Node10 -->
<g id="Node000010" class="node">
<title>Node10</title>
<g id="a_Node000010"><a xlink:href="_asserts_8h.html" target="_top" xlink:title="Set of macros for runtime and compile time assertions.">
<polygon fill="white" stroke="#666666" points="1062.38,-280 960.88,-280 960.88,-248 1062.38,-248 1062.38,-280"/>
<text text-anchor="start" x="968.88" y="-266.5" font-family="Helvetica,sans-Serif" font-size="10.00">engine/core/asserts</text>
<text text-anchor="middle" x="1011.62" y="-254.5" font-family="Helvetica,sans-Serif" font-size="10.00">/Asserts.h</text>
</a>
</g>
</g>
<!-- Node1&#45;&gt;Node10 -->
<g id="edge9_Node000001_Node000010" class="edge">
<title>Node1&#45;&gt;Node10</title>
<g id="a_edge9_Node000001_Node000010"><a xlink:title=" ">
<path fill="none" stroke="#63b8ff" d="M1064.78,-315.62C1056.99,-308.21 1045.79,-297.53 1035.67,-287.9"/>
<polygon fill="#63b8ff" stroke="#63b8ff" points="1038.27,-285.55 1028.62,-281.18 1033.45,-290.62 1038.27,-285.55"/>
</a>
</g>
</g>
<!-- Node33 -->
<g id="Node000033" class="node">
<title>Node33</title>
<g id="a_Node000033"><a xlink:href="_bin_path_8h.html" target="_top" xlink:title=" ">
<polygon fill="white" stroke="#666666" points="1196.88,-280 1080.38,-280 1080.38,-248 1196.88,-248 1196.88,-280"/>
<text text-anchor="start" x="1088.38" y="-266.5" font-family="Helvetica,sans-Serif" font-size="10.00">engine/core/file&#45;system</text>
<text text-anchor="middle" x="1138.62" y="-254.5" font-family="Helvetica,sans-Serif" font-size="10.00">/BinPath.h</text>
</a>
</g>
</g>
<!-- Node1&#45;&gt;Node33 -->
<g id="edge41_Node000001_Node000033" class="edge">
<title>Node1&#45;&gt;Node33</title>
<g id="a_edge41_Node000001_Node000033"><a xlink:title=" ">
<path fill="none" stroke="#63b8ff" d="M1084.62,-315.62C1092.48,-308.26 1103.76,-297.68 1113.99,-288.1"/>
<polygon fill="#63b8ff" stroke="#63b8ff" points="1116.22,-290.8 1121.12,-281.41 1111.43,-285.69 1116.22,-290.8"/>
</a>
</g>
</g>
<!-- Node3 -->
<g id="Node000003" class="node">
<title>Node3</title>
<g id="a_Node000003"><a xlink:title=" ">
<polygon fill="#e0e0e0" stroke="#999999" points="99.25,-138 0,-138 0,-118 99.25,-118 99.25,-138"/>
<text text-anchor="middle" x="49.62" y="-124.5" font-family="Helvetica,sans-Serif" font-size="10.00">SDL2/SDL_mixer.h</text>
</a>
</g>
</g>
<!-- Node2&#45;&gt;Node3 -->
<g id="edge2_Node000002_Node000003" class="edge">
<title>Node2&#45;&gt;Node3</title>
<g id="a_edge2_Node000002_Node000003"><a xlink:title=" ">
<path fill="none" stroke="#63b8ff" d="M259.75,-180.88C217.63,-170.73 159.6,-156.67 108.62,-144 105.04,-143.11 101.32,-142.18 97.59,-141.24"/>
<polygon fill="#63b8ff" stroke="#63b8ff" points="98.45,-137.85 87.9,-138.79 96.74,-144.64 98.45,-137.85"/>
</a>
</g>
</g>
<!-- Node4 -->
<g id="Node000004" class="node">
<title>Node4</title>
<g id="a_Node000004"><a xlink:title=" ">
<polygon fill="#e0e0e0" stroke="#999999" points="802.62,-20 762.62,-20 762.62,0 802.62,0 802.62,-20"/>
<text text-anchor="middle" x="782.62" y="-6.5" font-family="Helvetica,sans-Serif" font-size="10.00">string</text>
</a>
</g>
</g>
<!-- Node2&#45;&gt;Node4 -->
<g id="edge3_Node000002_Node000004" class="edge">
<title>Node2&#45;&gt;Node4</title>
<g id="a_edge3_Node000002_Node000004"><a xlink:title=" ">
<path fill="none" stroke="#63b8ff" d="M326.5,-179.58C344.29,-145 386.94,-63.7 398.62,-56 456.34,-17.97 669.68,-12.01 750.92,-11.13"/>
<polygon fill="#63b8ff" stroke="#63b8ff" points="750.87,-14.63 760.84,-11.04 750.81,-7.63 750.87,-14.63"/>
</a>
</g>
</g>
<!-- Node5 -->
<g id="Node000005" class="node">
<title>Node5</title>
<g id="a_Node000005"><a xlink:title=" ">
<polygon fill="#e0e0e0" stroke="#999999" points="336,-138 301.25,-138 301.25,-118 336,-118 336,-138"/>
<text text-anchor="middle" x="318.62" y="-124.5" font-family="Helvetica,sans-Serif" font-size="10.00">map</text>
</a>
</g>
</g>
<!-- Node2&#45;&gt;Node5 -->
<g id="edge4_Node000002_Node000005" class="edge">
<title>Node2&#45;&gt;Node5</title>
<g id="a_edge4_Node000002_Node000005"><a xlink:title=" ">
<path fill="none" stroke="#63b8ff" d="M318.62,-179.69C318.62,-170.8 318.62,-159.46 318.62,-149.77"/>
<polygon fill="#63b8ff" stroke="#63b8ff" points="322.13,-149.83 318.63,-139.83 315.13,-149.83 322.13,-149.83"/>
</a>
</g>
</g>
<!-- Node6 -->
<g id="Node000006" class="node">
<title>Node6</title>
<g id="a_Node000006"><a xlink:href="_hasher_8h.html" target="_top" xlink:title="@TODO Add description of this file if needed">
<polygon fill="white" stroke="#666666" points="249.75,-138 117.5,-138 117.5,-118 249.75,-118 249.75,-138"/>
<text text-anchor="middle" x="183.62" y="-124.5" font-family="Helvetica,sans-Serif" font-size="10.00">engine/core/hash/Hasher.h</text>
</a>
</g>
</g>
<!-- Node2&#45;&gt;Node6 -->
<g id="edge5_Node000002_Node000006" class="edge">
<title>Node2&#45;&gt;Node6</title>
<g id="a_edge5_Node000002_Node000006"><a xlink:title=" ">
<path fill="none" stroke="#63b8ff" d="M286.97,-179.53C264.71,-168.64 235.11,-154.17 213.29,-143.5"/>
<polygon fill="#63b8ff" stroke="#63b8ff" points="214.86,-140.37 204.33,-139.12 211.78,-146.66 214.86,-140.37"/>
</a>
</g>
</g>
<!-- Node7 -->
<g id="Node000007" class="node">
<title>Node7</title>
<g id="a_Node000007"><a xlink:title=" ">
<polygon fill="#e0e0e0" stroke="#999999" points="195.25,-76 138,-76 138,-56 195.25,-56 195.25,-76"/>
<text text-anchor="middle" x="166.62" y="-62.5" font-family="Helvetica,sans-Serif" font-size="10.00">functional</text>
</a>
</g>
</g>
<!-- Node6&#45;&gt;Node7 -->
<g id="edge6_Node000006_Node000007" class="edge">
<title>Node6&#45;&gt;Node7</title>
<g id="a_edge6_Node000006_Node000007"><a xlink:title=" ">
<path fill="none" stroke="#63b8ff" d="M180.97,-117.62C178.66,-109.48 175.24,-97.39 172.31,-87.07"/>
<polygon fill="#63b8ff" stroke="#63b8ff" points="175.71,-86.24 169.62,-77.57 168.98,-88.14 175.71,-86.24"/>
</a>
</g>
</g>
<!-- Node8 -->
<g id="Node000008" class="node">
<title>Node8</title>
<g id="a_Node000008"><a xlink:title=" ">
<polygon fill="#e0e0e0" stroke="#999999" points="120.38,-76 72.88,-76 72.88,-56 120.38,-56 120.38,-76"/>
<text text-anchor="middle" x="96.62" y="-62.5" font-family="Helvetica,sans-Serif" font-size="10.00">cstddef</text>
</a>
</g>
</g>
<!-- Node6&#45;&gt;Node8 -->
<g id="edge7_Node000006_Node000008" class="edge">
<title>Node6&#45;&gt;Node8</title>
<g id="a_edge7_Node000006_Node000008"><a xlink:title=" ">
<path fill="none" stroke="#63b8ff" d="M170.03,-117.62C156.5,-108.29 135.47,-93.79 119.39,-82.7"/>
<polygon fill="#63b8ff" stroke="#63b8ff" points="121.59,-79.96 111.37,-77.17 117.61,-85.73 121.59,-79.96"/>
</a>
</g>
</g>
<!-- Node10&#45;&gt;Node4 -->
<g id="edge12_Node000010_Node000004" class="edge">
<title>Node10&#45;&gt;Node4</title>
<g id="a_edge12_Node000010_Node000004"><a xlink:title=" ">
<path fill="none" stroke="#63b8ff" d="M960.63,-262.97C918.26,-260.09 859.46,-249 824.62,-212 777.1,-161.52 777.54,-71.73 780.5,-31.5"/>
<polygon fill="#63b8ff" stroke="#63b8ff" points="783.98,-31.86 781.38,-21.59 777.01,-31.24 783.98,-31.86"/>
</a>
</g>
</g>
<!-- Node11 -->
<g id="Node000011" class="node">
<title>Node11</title>
<g id="a_Node000011"><a xlink:title=" ">
<polygon fill="#e0e0e0" stroke="#999999" points="1004.12,-206 961.12,-206 961.12,-186 1004.12,-186 1004.12,-206"/>
<text text-anchor="middle" x="982.62" y="-192.5" font-family="Helvetica,sans-Serif" font-size="10.00">cmath</text>
</a>
</g>
</g>
<!-- Node10&#45;&gt;Node11 -->
<g id="edge10_Node000010_Node000011" class="edge">
<title>Node10&#45;&gt;Node11</title>
<g id="a_edge10_Node000010_Node000011"><a xlink:title=" ">
<path fill="none" stroke="#63b8ff" d="M1004.9,-247.69C1000.86,-238.5 995.67,-226.7 991.32,-216.8"/>
<polygon fill="#63b8ff" stroke="#63b8ff" points="994.55,-215.45 987.33,-207.7 988.15,-218.27 994.55,-215.45"/>
</a>
</g>
</g>
<!-- Node12 -->
<g id="Node000012" class="node">
<title>Node12</title>
<g id="a_Node000012"><a xlink:title=" ">
<polygon fill="#e0e0e0" stroke="#999999" points="1061.25,-206 1022,-206 1022,-186 1061.25,-186 1061.25,-206"/>
<text text-anchor="middle" x="1041.62" y="-192.5" font-family="Helvetica,sans-Serif" font-size="10.00">limits</text>
</a>
</g>
</g>
<!-- Node10&#45;&gt;Node12 -->
<g id="edge11_Node000010_Node000012" class="edge">
<title>Node10&#45;&gt;Node12</title>
<g id="a_edge11_Node000010_Node000012"><a xlink:title=" ">
<path fill="none" stroke="#63b8ff" d="M1018.58,-247.69C1022.76,-238.5 1028.13,-226.7 1032.63,-216.8"/>
<polygon fill="#63b8ff" stroke="#63b8ff" points="1035.81,-218.25 1036.76,-207.69 1029.44,-215.35 1035.81,-218.25"/>
</a>
</g>
</g>
<!-- Node13 -->
<g id="Node000013" class="node">
<title>Node13</title>
<g id="a_Node000013"><a xlink:title=" ">
<polygon fill="#e0e0e0" stroke="#999999" points="1099.5,-138 1037.75,-138 1037.75,-118 1099.5,-118 1099.5,-138"/>
<text text-anchor="middle" x="1068.62" y="-124.5" font-family="Helvetica,sans-Serif" font-size="10.00">type_traits</text>
</a>
</g>
</g>
<!-- Node10&#45;&gt;Node13 -->
<g id="edge13_Node000010_Node000013" class="edge">
<title>Node10&#45;&gt;Node13</title>
<g id="a_edge13_Node000010_Node000013"><a xlink:title=" ">
<path fill="none" stroke="#63b8ff" d="M1038.16,-247.62C1050.48,-238.9 1063.87,-226.78 1070.62,-212 1079.65,-192.28 1077.37,-167.06 1073.96,-149.63"/>
<polygon fill="#63b8ff" stroke="#63b8ff" points="1077.4,-148.94 1071.76,-139.97 1070.57,-150.5 1077.4,-148.94"/>
</a>
</g>
</g>
<!-- Node14 -->
<g id="Node000014" class="node">
<title>Node14</title>
<g id="a_Node000014"><a xlink:title=" ">
<polygon fill="#e0e0e0" stroke="#999999" points="1169.25,-138 1118,-138 1118,-118 1169.25,-118 1169.25,-138"/>
<text text-anchor="middle" x="1143.62" y="-124.5" font-family="Helvetica,sans-Serif" font-size="10.00">sstream</text>
</a>
</g>
</g>
<!-- Node10&#45;&gt;Node14 -->
<g id="edge14_Node000010_Node000014" class="edge">
<title>Node10&#45;&gt;Node14</title>
<g id="a_edge14_Node000010_Node000014"><a xlink:title=" ">
<path fill="none" stroke="#63b8ff" d="M1039.91,-247.62C1055.11,-238.52 1073.56,-226.03 1087.62,-212 1106.8,-192.88 1123.37,-166.29 1133.41,-148.41"/>
<polygon fill="#63b8ff" stroke="#63b8ff" points="1136.48,-150.1 1138.18,-139.64 1130.33,-146.75 1136.48,-150.1"/>
</a>
</g>
</g>
<!-- Node15 -->
<g id="Node000015" class="node">
<title>Node15</title>
<g id="a_Node000015"><a xlink:href="_assert_failed_exception_8h.html" target="_top" xlink:title="@TODO Add description of this file if needed">
<polygon fill="white" stroke="#666666" points="1303.25,-212 1156,-212 1156,-180 1303.25,-180 1303.25,-212"/>
<text text-anchor="start" x="1164" y="-198.5" font-family="Helvetica,sans-Serif" font-size="10.00">engine/core/exceptions</text>
<text text-anchor="middle" x="1229.62" y="-186.5" font-family="Helvetica,sans-Serif" font-size="10.00">/core/AssertFailedException.h</text>
</a>
</g>
</g>
<!-- Node10&#45;&gt;Node15 -->
<g id="edge15_Node000010_Node000015" class="edge">
<title>Node10&#45;&gt;Node15</title>
<g id="a_edge15_Node000010_Node000015"><a xlink:title=" ">
<path fill="none" stroke="#63b8ff" d="M1062.74,-247.53C1094.06,-238.04 1134.36,-225.84 1167.51,-215.81"/>
<polygon fill="#63b8ff" stroke="#63b8ff" points="1168.45,-219.18 1177.01,-212.93 1166.42,-212.48 1168.45,-219.18"/>
</a>
</g>
</g>
<!-- Node19 -->
<g id="Node000019" class="node">
<title>Node19</title>
<g id="a_Node000019"><a xlink:href="_stringer_8h.html" target="_top" xlink:title="A set of functions for converting objects to strings.">
<polygon fill="white" stroke="#666666" points="943.12,-212 834.12,-212 834.12,-180 943.12,-180 943.12,-212"/>
<text text-anchor="start" x="842.12" y="-198.5" font-family="Helvetica,sans-Serif" font-size="10.00">engine/core/debugger</text>
<text text-anchor="middle" x="888.62" y="-186.5" font-family="Helvetica,sans-Serif" font-size="10.00">/Stringer.h</text>
</a>
</g>
</g>
<!-- Node10&#45;&gt;Node19 -->
<g id="edge20_Node000010_Node000019" class="edge">
<title>Node10&#45;&gt;Node19</title>
<g id="a_edge20_Node000010_Node000019"><a xlink:title=" ">
<path fill="none" stroke="#63b8ff" d="M982.79,-247.53C966.21,-238.63 945.17,-227.34 927.19,-217.69"/>
<polygon fill="#63b8ff" stroke="#63b8ff" points="929.08,-214.74 918.62,-213.09 925.77,-220.91 929.08,-214.74"/>
</a>
</g>
</g>
<!-- Node23 -->
<g id="Node000023" class="node">
<title>Node23</title>
<g id="a_Node000023"><a xlink:href="_logger_8h.html" target="_top" xlink:title="@TODO Add description of this file if needed">
<polygon fill="white" stroke="#666666" points="573.38,-144 477.88,-144 477.88,-112 573.38,-112 573.38,-144"/>
<text text-anchor="start" x="485.88" y="-130.5" font-family="Helvetica,sans-Serif" font-size="10.00">engine/core/logger</text>
<text text-anchor="middle" x="525.62" y="-118.5" font-family="Helvetica,sans-Serif" font-size="10.00">/Logger.h</text>
</a>
</g>
</g>
<!-- Node10&#45;&gt;Node23 -->
<g id="edge27_Node000010_Node000023" class="edge">
<title>Node10&#45;&gt;Node23</title>
<g id="a_edge27_Node000010_Node000023"><a xlink:title=" ">
<path fill="none" stroke="#63b8ff" d="M960.46,-254.14C910.98,-245.14 834.09,-229.98 768.62,-212 701.28,-193.51 625.36,-166.57 576.58,-148.44"/>
<polygon fill="#63b8ff" stroke="#63b8ff" points="578.01,-145.24 567.41,-145.02 575.56,-151.8 578.01,-145.24"/>
</a>
</g>
</g>
<!-- Node16 -->
<g id="Node000016" class="node">
<title>Node16</title>
<g id="a_Node000016"><a xlink:href="_engine_exception_8h.html" target="_top" xlink:title="Base exception class for any exception in the engine.">
<polygon fill="white" stroke="#666666" points="1303.88,-144 1187.38,-144 1187.38,-112 1303.88,-112 1303.88,-144"/>
<text text-anchor="start" x="1195.38" y="-130.5" font-family="Helvetica,sans-Serif" font-size="10.00">engine/core/exceptions</text>
<text text-anchor="middle" x="1245.62" y="-118.5" font-family="Helvetica,sans-Serif" font-size="10.00">/EngineException.h</text>
</a>
</g>
</g>
<!-- Node15&#45;&gt;Node16 -->
<g id="edge16_Node000015_Node000016" class="edge">
<title>Node15&#45;&gt;Node16</title>
<g id="a_edge16_Node000015_Node000016"><a xlink:title=" ">
<path fill="none" stroke="#63b8ff" d="M1233.34,-179.69C1235.09,-172.45 1237.24,-163.58 1239.25,-155.3"/>
<polygon fill="#63b8ff" stroke="#63b8ff" points="1242.62,-156.24 1241.58,-145.7 1235.82,-154.59 1242.62,-156.24"/>
</a>
</g>
</g>
<!-- Node17 -->
<g id="Node000017" class="node">
<title>Node17</title>
<g id="a_Node000017"><a xlink:href="_base_exception_8h.html" target="_top" xlink:title=" ">
<polygon fill="white" stroke="#666666" points="1449.75,-76 1359.5,-76 1359.5,-56 1449.75,-56 1449.75,-76"/>
<text text-anchor="middle" x="1404.62" y="-62.5" font-family="Helvetica,sans-Serif" font-size="10.00">BaseException.h</text>
</a>
</g>
</g>
<!-- Node16&#45;&gt;Node17 -->
<g id="edge17_Node000016_Node000017" class="edge">
<title>Node16&#45;&gt;Node17</title>
<g id="a_edge17_Node000016_Node000017"><a xlink:title=" ">
<path fill="none" stroke="#63b8ff" d="M1286.57,-111.55C1312.11,-101.91 1344.64,-89.64 1369.09,-80.41"/>
<polygon fill="#63b8ff" stroke="#63b8ff" points="1370.16,-83.75 1378.28,-76.94 1367.69,-77.2 1370.16,-83.75"/>
</a>
</g>
</g>
<!-- Node17&#45;&gt;Node4 -->
<g id="edge19_Node000017_Node000004" class="edge">
<title>Node17&#45;&gt;Node4</title>
<g id="a_edge19_Node000017_Node000004"><a xlink:title=" ">
<path fill="none" stroke="#63b8ff" d="M1359.25,-57.74C1354.65,-57.11 1350.05,-56.51 1345.62,-56 1143.94,-32.59 900.18,-17.61 814.37,-12.74"/>
<polygon fill="#63b8ff" stroke="#63b8ff" points="814.57,-9.24 804.38,-12.18 814.17,-16.23 814.57,-9.24"/>
</a>
</g>
</g>
<!-- Node18 -->
<g id="Node000018" class="node">
<title>Node18</title>
<g id="a_Node000018"><a xlink:title=" ">
<polygon fill="#e0e0e0" stroke="#999999" points="1434,-20 1375.25,-20 1375.25,0 1434,0 1434,-20"/>
<text text-anchor="middle" x="1404.62" y="-6.5" font-family="Helvetica,sans-Serif" font-size="10.00">stdexcept</text>
</a>
</g>
</g>
<!-- Node17&#45;&gt;Node18 -->
<g id="edge18_Node000017_Node000018" class="edge">
<title>Node17&#45;&gt;Node18</title>
<g id="a_edge18_Node000017_Node000018"><a xlink:title=" ">
<path fill="none" stroke="#63b8ff" d="M1404.62,-55.59C1404.62,-49.01 1404.62,-39.96 1404.62,-31.73"/>
<polygon fill="#63b8ff" stroke="#63b8ff" points="1408.13,-31.81 1404.63,-21.81 1401.13,-31.81 1408.13,-31.81"/>
</a>
</g>
</g>
<!-- Node19&#45;&gt;Node4 -->
<g id="edge21_Node000019_Node000004" class="edge">
<title>Node19&#45;&gt;Node4</title>
<g id="a_edge21_Node000019_Node000004"><a xlink:title=" ">
<path fill="none" stroke="#63b8ff" d="M871.11,-179.77C860.94,-170.25 848.44,-157.31 839.62,-144 815.2,-107.13 797.41,-58.08 788.69,-31.03"/>
<polygon fill="#63b8ff" stroke="#63b8ff" points="792.1,-30.22 785.77,-21.72 785.42,-32.31 792.1,-30.22"/>
</a>
</g>
</g>
<!-- Node19&#45;&gt;Node13 -->
<g id="edge23_Node000019_Node000013" class="edge">
<title>Node19&#45;&gt;Node13</title>
<g id="a_edge23_Node000019_Node000013"><a xlink:title=" ">
<path fill="none" stroke="#63b8ff" d="M931.24,-179.59C959,-169.53 995.99,-156.06 1028.62,-144 1030.15,-143.44 1031.7,-142.86 1033.27,-142.28"/>
<polygon fill="#63b8ff" stroke="#63b8ff" points="1034.11,-145.7 1042.26,-138.93 1031.66,-139.14 1034.11,-145.7"/>
</a>
</g>
</g>
<!-- Node19&#45;&gt;Node14 -->
<g id="edge22_Node000019_Node000014" class="edge">
<title>Node19&#45;&gt;Node14</title>
<g id="a_edge22_Node000019_Node000014"><a xlink:title=" ">
<path fill="none" stroke="#63b8ff" d="M943.43,-182.14C946.54,-181.42 949.62,-180.7 952.62,-180 1021.93,-163.88 1040.99,-166.1 1108.62,-144 1110,-143.55 1111.4,-143.07 1112.81,-142.56"/>
<polygon fill="#63b8ff" stroke="#63b8ff" points="1114.07,-145.82 1122.09,-138.9 1111.51,-139.31 1114.07,-145.82"/>
</a>
</g>
</g>
<!-- Node20 -->
<g id="Node000020" class="node">
<title>Node20</title>
<g id="a_Node000020"><a xlink:title=" ">
<polygon fill="#e0e0e0" stroke="#999999" points="898.5,-138 848.75,-138 848.75,-118 898.5,-118 898.5,-138"/>
<text text-anchor="middle" x="873.62" y="-124.5" font-family="Helvetica,sans-Serif" font-size="10.00">iomanip</text>
</a>
</g>
</g>
<!-- Node19&#45;&gt;Node20 -->
<g id="edge24_Node000019_Node000020" class="edge">
<title>Node19&#45;&gt;Node20</title>
<g id="a_edge24_Node000019_Node000020"><a xlink:title=" ">
<path fill="none" stroke="#63b8ff" d="M885.15,-179.69C883.1,-170.7 880.49,-159.21 878.27,-149.44"/>
<polygon fill="#63b8ff" stroke="#63b8ff" points="881.71,-148.77 876.08,-139.79 874.88,-150.32 881.71,-148.77"/>
</a>
</g>
</g>
<!-- Node21 -->
<g id="Node000021" class="node">
<title>Node21</title>
<g id="a_Node000021"><a xlink:title=" ">
<polygon fill="#e0e0e0" stroke="#999999" points="962.25,-138 917,-138 917,-118 962.25,-118 962.25,-138"/>
<text text-anchor="middle" x="939.62" y="-124.5" font-family="Helvetica,sans-Serif" font-size="10.00">cstdint</text>
</a>
</g>
</g>
<!-- Node19&#45;&gt;Node21 -->
<g id="edge25_Node000019_Node000021" class="edge">
<title>Node19&#45;&gt;Node21</title>
<g id="a_edge25_Node000019_Node000021"><a xlink:title=" ">
<path fill="none" stroke="#63b8ff" d="M900.45,-179.69C907.95,-170 917.67,-157.41 925.56,-147.2"/>
<polygon fill="#63b8ff" stroke="#63b8ff" points="928.16,-149.57 931.5,-139.51 922.62,-145.29 928.16,-149.57"/>
</a>
</g>
</g>
<!-- Node22 -->
<g id="Node000022" class="node">
<title>Node22</title>
<g id="a_Node000022"><a xlink:title=" ">
<polygon fill="#e0e0e0" stroke="#999999" points="1019.25,-138 980,-138 980,-118 1019.25,-118 1019.25,-138"/>
<text text-anchor="middle" x="999.62" y="-124.5" font-family="Helvetica,sans-Serif" font-size="10.00">utility</text>
</a>
</g>
</g>
<!-- Node19&#45;&gt;Node22 -->
<g id="edge26_Node000019_Node000022" class="edge">
<title>Node19&#45;&gt;Node22</title>
<g id="a_edge26_Node000019_Node000022"><a xlink:title=" ">
<path fill="none" stroke="#63b8ff" d="M914.65,-179.53C932.54,-168.89 956.19,-154.83 973.99,-144.24"/>
<polygon fill="#63b8ff" stroke="#63b8ff" points="975.61,-147.35 982.41,-139.23 972.03,-141.34 975.61,-147.35"/>
</a>
</g>
</g>
<!-- Node23&#45;&gt;Node4 -->
<g id="edge28_Node000023_Node000004" class="edge">
<title>Node23&#45;&gt;Node4</title>
<g id="a_edge28_Node000023_Node000004"><a xlink:title=" ">
<path fill="none" stroke="#63b8ff" d="M573.59,-122.85C616.17,-117.37 678.74,-104.76 725.62,-76 744.75,-64.27 760.98,-44.07 771.17,-29.3"/>
<polygon fill="#63b8ff" stroke="#63b8ff" points="773.81,-31.65 776.39,-21.37 767.97,-27.8 773.81,-31.65"/>
</a>
</g>
</g>
<!-- Node23&#45;&gt;Node7 -->
<g id="edge31_Node000023_Node000007" class="edge">
<title>Node23&#45;&gt;Node7</title>
<g id="a_edge31_Node000023_Node000007"><a xlink:title=" ">
<path fill="none" stroke="#63b8ff" d="M477.59,-119.96C415.55,-110.7 304.29,-93.54 209.62,-76 208.64,-75.82 207.64,-75.63 206.64,-75.44"/>
<polygon fill="#63b8ff" stroke="#63b8ff" points="207.71,-72.08 197.22,-73.58 206.35,-78.95 207.71,-72.08"/>
</a>
</g>
</g>
<!-- Node24 -->
<g id="Node000024" class="node">
<title>Node24</title>
<g id="a_Node000024"><a xlink:title=" ">
<polygon fill="#e0e0e0" stroke="#999999" points="657.25,-76 606,-76 606,-56 657.25,-56 657.25,-76"/>
<text text-anchor="middle" x="631.62" y="-62.5" font-family="Helvetica,sans-Serif" font-size="10.00">memory</text>
</a>
</g>
</g>
<!-- Node23&#45;&gt;Node24 -->
<g id="edge29_Node000023_Node000024" class="edge">
<title>Node23&#45;&gt;Node24</title>
<g id="a_edge29_Node000023_Node000024"><a xlink:title=" ">
<path fill="none" stroke="#63b8ff" d="M552.92,-111.55C569.02,-102.43 589.3,-90.96 605.24,-81.93"/>
<polygon fill="#63b8ff" stroke="#63b8ff" points="606.71,-85.13 613.69,-77.15 603.26,-79.03 606.71,-85.13"/>
</a>
</g>
</g>
<!-- Node25 -->
<g id="Node000025" class="node">
<title>Node25</title>
<g id="a_Node000025"><a xlink:title=" ">
<polygon fill="#e0e0e0" stroke="#999999" points="716.38,-76 674.88,-76 674.88,-56 716.38,-56 716.38,-76"/>
<text text-anchor="middle" x="695.62" y="-62.5" font-family="Helvetica,sans-Serif" font-size="10.00">vector</text>
</a>
</g>
</g>
<!-- Node23&#45;&gt;Node25 -->
<g id="edge30_Node000023_Node000025" class="edge">
<title>Node23&#45;&gt;Node25</title>
<g id="a_edge30_Node000023_Node000025"><a xlink:title=" ">
<path fill="none" stroke="#63b8ff" d="M569.4,-111.55C599.02,-101.1 637.43,-87.54 664.07,-78.14"/>
<polygon fill="#63b8ff" stroke="#63b8ff" points="665.01,-81.52 673.28,-74.89 662.68,-74.92 665.01,-81.52"/>
</a>
</g>
</g>
<!-- Node26 -->
<g id="Node000026" class="node">
<title>Node26</title>
<g id="a_Node000026"><a xlink:title=" ">
<polygon fill="#e0e0e0" stroke="#999999" points="453.25,-76 408,-76 408,-56 453.25,-56 453.25,-76"/>
<text text-anchor="middle" x="430.62" y="-62.5" font-family="Helvetica,sans-Serif" font-size="10.00">atomic</text>
</a>
</g>
</g>
<!-- Node23&#45;&gt;Node26 -->
<g id="edge32_Node000023_Node000026" class="edge">
<title>Node23&#45;&gt;Node26</title>
<g id="a_edge32_Node000023_Node000026"><a xlink:title=" ">
<path fill="none" stroke="#63b8ff" d="M501.16,-111.55C487,-102.61 469.25,-91.39 455.09,-82.45"/>
<polygon fill="#63b8ff" stroke="#63b8ff" points="457.12,-79.6 446.8,-77.22 453.39,-85.52 457.12,-79.6"/>
</a>
</g>
</g>
<!-- Node27 -->
<g id="Node000027" class="node">
<title>Node27</title>
<g id="a_Node000027"><a xlink:title=" ">
<polygon fill="#e0e0e0" stroke="#999999" points="514.12,-76 471.12,-76 471.12,-56 514.12,-56 514.12,-76"/>
<text text-anchor="middle" x="492.62" y="-62.5" font-family="Helvetica,sans-Serif" font-size="10.00">thread</text>
</a>
</g>
</g>
<!-- Node23&#45;&gt;Node27 -->
<g id="edge33_Node000023_Node000027" class="edge">
<title>Node23&#45;&gt;Node27</title>
<g id="a_edge33_Node000023_Node000027"><a xlink:title=" ">
<path fill="none" stroke="#63b8ff" d="M517.13,-111.55C512.93,-103.91 507.81,-94.61 503.34,-86.49"/>
<polygon fill="#63b8ff" stroke="#63b8ff" points="506.41,-84.81 498.53,-77.73 500.28,-88.18 506.41,-84.81"/>
</a>
</g>
</g>
<!-- Node28 -->
<g id="Node000028" class="node">
<title>Node28</title>
<g id="a_Node000028"><a xlink:title=" ">
<polygon fill="#e0e0e0" stroke="#999999" points="241.12,-20 198.12,-20 198.12,0 241.12,0 241.12,-20"/>
<text text-anchor="middle" x="219.62" y="-6.5" font-family="Helvetica,sans-Serif" font-size="10.00">mutex</text>
</a>
</g>
</g>
<!-- Node23&#45;&gt;Node28 -->
<g id="edge34_Node000023_Node000028" class="edge">
<title>Node23&#45;&gt;Node28</title>
<g id="a_edge34_Node000023_Node000028"><a xlink:title=" ">
<path fill="none" stroke="#63b8ff" d="M477.62,-124.1C406.38,-118.86 277.34,-105.5 242.62,-76 229.65,-64.97 223.99,-46.11 221.52,-31.54"/>
<polygon fill="#63b8ff" stroke="#63b8ff" points="225,-31.13 220.27,-21.65 218.06,-32.01 225,-31.13"/>
</a>
</g>
</g>
<!-- Node29 -->
<g id="Node000029" class="node">
<title>Node29</title>
<g id="a_Node000029"><a xlink:href="_i_logger_8h.html" target="_top" xlink:title="Class that encapsulates the look and feel of the HUD.">
<polygon fill="white" stroke="#666666" points="587.5,-76 531.75,-76 531.75,-56 587.5,-56 587.5,-76"/>
<text text-anchor="middle" x="559.62" y="-62.5" font-family="Helvetica,sans-Serif" font-size="10.00">ILogger.h</text>
</a>
</g>
</g>
<!-- Node23&#45;&gt;Node29 -->
<g id="edge35_Node000023_Node000029" class="edge">
<title>Node23&#45;&gt;Node29</title>
<g id="a_edge35_Node000023_Node000029"><a xlink:title=" ">
<path fill="none" stroke="#63b8ff" d="M534.38,-111.55C538.76,-103.82 544.1,-94.4 548.74,-86.21"/>
<polygon fill="#63b8ff" stroke="#63b8ff" points="551.66,-88.15 553.55,-77.72 545.57,-84.7 551.66,-88.15"/>
</a>
</g>
</g>
<!-- Node30 -->
<g id="Node000030" class="node">
<title>Node30</title>
<g id="a_Node000030"><a xlink:href="_concurrent_queue_8h.html" target="_top" xlink:title="Concurrent queue implementation.">
<polygon fill="white" stroke="#666666" points="351.62,-76 251.62,-76 251.62,-56 351.62,-56 351.62,-76"/>
<text text-anchor="middle" x="301.62" y="-62.5" font-family="Helvetica,sans-Serif" font-size="10.00">ConcurrentQueue.h</text>
</a>
</g>
</g>
<!-- Node23&#45;&gt;Node30 -->
<g id="edge37_Node000023_Node000030" class="edge">
<title>Node23&#45;&gt;Node30</title>
<g id="a_edge37_Node000023_Node000030"><a xlink:title=" ">
<path fill="none" stroke="#63b8ff" d="M477.57,-114.13C439.08,-103.82 385.43,-89.45 347.52,-79.29"/>
<polygon fill="#63b8ff" stroke="#63b8ff" points="348.81,-76.01 338.24,-76.81 347,-82.78 348.81,-76.01"/>
</a>
</g>
</g>
<!-- Node29&#45;&gt;Node4 -->
<g id="edge36_Node000029_Node000004" class="edge">
<title>Node29&#45;&gt;Node4</title>
<g id="a_edge36_Node000029_Node000004"><a xlink:title=" ">
<path fill="none" stroke="#63b8ff" d="M587.91,-58.12C590.85,-57.4 593.8,-56.69 596.62,-56 650.96,-42.82 714.24,-27.52 751.22,-18.59"/>
<polygon fill="#63b8ff" stroke="#63b8ff" points="751.89,-22.03 760.78,-16.27 750.24,-15.22 751.89,-22.03"/>
</a>
</g>
</g>
<!-- Node30&#45;&gt;Node28 -->
<g id="edge39_Node000030_Node000028" class="edge">
<title>Node30&#45;&gt;Node28</title>
<g id="a_edge39_Node000030_Node000028"><a xlink:title=" ">
<path fill="none" stroke="#63b8ff" d="M287.34,-55.59C275.19,-47.59 257.49,-35.93 243.23,-26.54"/>
<polygon fill="#63b8ff" stroke="#63b8ff" points="245.56,-23.89 235.28,-21.31 241.71,-29.73 245.56,-23.89"/>
</a>
</g>
</g>
<!-- Node31 -->
<g id="Node000031" class="node">
<title>Node31</title>
<g id="a_Node000031"><a xlink:title=" ">
<polygon fill="#e0e0e0" stroke="#999999" points="411.75,-20 369.5,-20 369.5,0 411.75,0 411.75,-20"/>
<text text-anchor="middle" x="390.62" y="-6.5" font-family="Helvetica,sans-Serif" font-size="10.00">queue</text>
</a>
</g>
</g>
<!-- Node30&#45;&gt;Node31 -->
<g id="edge38_Node000030_Node000031" class="edge">
<title>Node30&#45;&gt;Node31</title>
<g id="a_edge38_Node000030_Node000031"><a xlink:title=" ">
<path fill="none" stroke="#63b8ff" d="M317.13,-55.59C330.45,-47.51 349.9,-35.71 365.45,-26.27"/>
<polygon fill="#63b8ff" stroke="#63b8ff" points="366.97,-29.44 373.71,-21.26 363.34,-23.46 366.97,-29.44"/>
</a>
</g>
</g>
<!-- Node32 -->
<g id="Node000032" class="node">
<title>Node32</title>
<g id="a_Node000032"><a xlink:title=" ">
<polygon fill="#e0e0e0" stroke="#999999" points="351.88,-20 259.38,-20 259.38,0 351.88,0 351.88,-20"/>
<text text-anchor="middle" x="305.62" y="-6.5" font-family="Helvetica,sans-Serif" font-size="10.00">condition_variable</text>
</a>
</g>
</g>
<!-- Node30&#45;&gt;Node32 -->
<g id="edge40_Node000030_Node000032" class="edge">
<title>Node30&#45;&gt;Node32</title>
<g id="a_edge40_Node000030_Node000032"><a xlink:title=" ">
<path fill="none" stroke="#63b8ff" d="M302.32,-55.59C302.81,-49.01 303.48,-39.96 304.09,-31.73"/>
<polygon fill="#63b8ff" stroke="#63b8ff" points="307.58,-32.04 304.82,-21.81 300.6,-31.52 307.58,-32.04"/>
</a>
</g>
</g>
<!-- Node33&#45;&gt;Node4 -->
<g id="edge42_Node000033_Node000004" class="edge">
<title>Node33&#45;&gt;Node4</title>
<g id="a_edge42_Node000033_Node000004"><a xlink:title=" ">
<path fill="none" stroke="#63b8ff" d="M1196.96,-249.56C1244.67,-237.97 1305.41,-221.64 1312.62,-212 1339.27,-176.43 1340.96,-146.24 1312.62,-112 1248.44,-34.42 918.27,-15.91 814.13,-11.97"/>
<polygon fill="#63b8ff" stroke="#63b8ff" points="814.49,-8.48 804.37,-11.62 814.24,-15.48 814.49,-8.48"/>
</a>
</g>
</g>
</g>
</svg>

<g id="navigator" transform="translate(0 0)" fill="#404254">
  <rect fill="#f2f5e9" fill-opacity="0.5" stroke="#606060" stroke-width=".5" x="0" y="0" width="60" height="60"/>
  <use id="zoomplus" xlink:href="#zoomPlus" x="17" y="9" onmousedown="handleZoom(evt,'in')"/>
  <use id="zoomminus" xlink:href="#zoomMin" x="42" y="9" onmousedown="handleZoom(evt,'out')"/>
  <use id="reset" xlink:href="#resetDef" x="30" y="36" onmousedown="handleReset()"/>
   <use id="arrowup" xlink:href="#arrowUp" x="0" y="0" onmousedown="handlePan(0,-1)"/>
  <use id="arrowright" xlink:href="#arrowRight" x="0" y="0" onmousedown="handlePan(1,0)"/>
  <use id="arrowdown" xlink:href="#arrowDown" x="0" y="0" onmousedown="handlePan(0,1)"/>
  <use id="arrowleft" xlink:href="#arrowLeft" x="0" y="0" onmousedown="handlePan(-1,0)"/>
</g>
<svg viewBox="0 0 15 15" width="100%" height="30px" preserveAspectRatio="xMaxYMin meet">
 <g id="arrow_out" transform="scale(0.3 0.3)">
  <a xlink:href="_sound_loader_8cpp__incl_org.svg" target="_base">
   <rect id="button" ry="5" rx="5" y="6" x="6" height="38" width="38"
        fill="#f2f5e9" fill-opacity="0.5" stroke="#606060" stroke-width="1.0"/>
   <path id="arrow"
     d="M 11.500037,31.436501 C 11.940474,20.09759 22.043105,11.32322 32.158766,21.979434 L 37.068811,17.246167 C 37.068811,17.246167 37.088388,32 37.088388,32 L 22.160133,31.978069 C 22.160133,31.978069 26.997745,27.140456 26.997745,27.140456 C 18.528582,18.264221 13.291696,25.230495 11.500037,31.436501 z"
     style="fill:#404040;"/>
  </a>
 </g>
</svg>

<style type='text/css'>
<![CDATA[
[data-mouse-over-selected='false'] { opacity: 0.7; }
[data-mouse-over-selected='true']  { opacity: 1.0; }
]]>
</style>
<script type="application/ecmascript"><![CDATA[
document.addEventListener('DOMContentLoaded', (event) => {
  highlightEdges();
  highlightAdjacentNodes();
});
]]></script>
</svg>
