<?xml version="1.0" encoding="UTF-8" standalone="no"?>
<!DOCTYPE svg PUBLIC "-//W3C//DTD SVG 1.1//EN"
 "http://www.w3.org/Graphics/SVG/1.1/DTD/svg11.dtd">
<!-- Generated by graphviz version 11.0.0 (20240428.1522)
 -->
<!-- Title: StatsManager.h Pages: 1 -->
<svg width="638pt" height="84pt"
 viewBox="0.00 0.00 637.88 84.00" xmlns="http://www.w3.org/2000/svg" xmlns:xlink="http://www.w3.org/1999/xlink">
<g id="graph0" class="graph" transform="scale(1 1) rotate(0) translate(4 80)">
<title>StatsManager.h</title>
<!-- Node1 -->
<g id="Node000001" class="node">
<title>Node1</title>
<g id="a_Node000001"><a xlink:title="@TODO Add description of this file if needed">
<polygon fill="#999999" stroke="#666666" points="369.62,-76 284.62,-76 284.62,-56 369.62,-56 369.62,-76"/>
<text text-anchor="middle" x="327.12" y="-62.5" font-family="Helvetica,sans-Serif" font-size="10.00">StatsManager.h</text>
</a>
</g>
</g>
<!-- Node2 -->
<g id="Node000002" class="node">
<title>Node2</title>
<g id="a_Node000002"><a xlink:href="_camera_system_8cpp.html" target="_top" xlink:title=" ">
<polygon fill="white" stroke="#666666" points="102.25,-20 0,-20 0,0 102.25,0 102.25,-20"/>
<text text-anchor="middle" x="51.12" y="-6.5" font-family="Helvetica,sans-Serif" font-size="10.00">CameraSystem.cpp</text>
</a>
</g>
</g>
<!-- Node1&#45;&gt;Node2 -->
<g id="edge1_Node000001_Node000002" class="edge">
<title>Node1&#45;&gt;Node2</title>
<g id="a_edge1_Node000001_Node000002"><a xlink:title=" ">
<path fill="none" stroke="#63b8ff" d="M273.3,-54.47C222.89,-44.61 148.24,-30 99.63,-20.49"/>
<polygon fill="#63b8ff" stroke="#63b8ff" points="272.33,-57.85 282.82,-56.33 273.68,-50.98 272.33,-57.85"/>
</a>
</g>
</g>
<!-- Node3 -->
<g id="Node000003" class="node">
<title>Node3</title>
<g id="a_Node000003"><a xlink:href="_debug_stats_h_u_d_8cpp.html" target="_top" xlink:title=" ">
<polygon fill="white" stroke="#666666" points="226.12,-20 120.12,-20 120.12,0 226.12,0 226.12,-20"/>
<text text-anchor="middle" x="173.12" y="-6.5" font-family="Helvetica,sans-Serif" font-size="10.00">DebugStatsHUD.cpp</text>
</a>
</g>
</g>
<!-- Node1&#45;&gt;Node3 -->
<g id="edge2_Node000001_Node000003" class="edge">
<title>Node1&#45;&gt;Node3</title>
<g id="a_edge2_Node000001_Node000003"><a xlink:title=" ">
<path fill="none" stroke="#63b8ff" d="M289.46,-51.79C261.81,-42.1 224.92,-29.16 200.16,-20.48"/>
<polygon fill="#63b8ff" stroke="#63b8ff" points="288.28,-55.09 298.87,-55.09 290.59,-48.48 288.28,-55.09"/>
</a>
</g>
</g>
<!-- Node4 -->
<g id="Node000004" class="node">
<title>Node4</title>
<g id="a_Node000004"><a xlink:href="_g_l_e_s_c_8cpp.html" target="_top" xlink:title=" ">
<polygon fill="white" stroke="#666666" points="312,-20 244.25,-20 244.25,0 312,0 312,-20"/>
<text text-anchor="middle" x="278.12" y="-6.5" font-family="Helvetica,sans-Serif" font-size="10.00">GLESC.cpp</text>
</a>
</g>
</g>
<!-- Node1&#45;&gt;Node4 -->
<g id="edge3_Node000001_Node000004" class="edge">
<title>Node1&#45;&gt;Node4</title>
<g id="a_edge3_Node000001_Node000004"><a xlink:title=" ">
<path fill="none" stroke="#63b8ff" d="M311.05,-47.29C302.88,-38.28 293.28,-27.7 286.56,-20.3"/>
<polygon fill="#63b8ff" stroke="#63b8ff" points="308.26,-49.42 317.57,-54.47 313.44,-44.72 308.26,-49.42"/>
</a>
</g>
</g>
<!-- Node5 -->
<g id="Node000005" class="node">
<title>Node5</title>
<g id="a_Node000005"><a xlink:href="_input_manager_8cpp.html" target="_top" xlink:title=" ">
<polygon fill="white" stroke="#666666" points="423.75,-20 330.5,-20 330.5,0 423.75,0 423.75,-20"/>
<text text-anchor="middle" x="377.12" y="-6.5" font-family="Helvetica,sans-Serif" font-size="10.00">InputManager.cpp</text>
</a>
</g>
</g>
<!-- Node1&#45;&gt;Node5 -->
<g id="edge4_Node000001_Node000005" class="edge">
<title>Node1&#45;&gt;Node5</title>
<g id="a_edge4_Node000001_Node000005"><a xlink:title=" ">
<path fill="none" stroke="#63b8ff" d="M343.53,-47.29C351.87,-38.28 361.66,-27.7 368.52,-20.3"/>
<polygon fill="#63b8ff" stroke="#63b8ff" points="341.09,-44.77 336.86,-54.48 346.22,-49.52 341.09,-44.77"/>
</a>
</g>
</g>
<!-- Node6 -->
<g id="Node000006" class="node">
<title>Node6</title>
<g id="a_Node000006"><a xlink:href="_renderer_8cpp.html" target="_top" xlink:title=" ">
<polygon fill="white" stroke="#666666" points="516,-20 442.25,-20 442.25,0 516,0 516,-20"/>
<text text-anchor="middle" x="479.12" y="-6.5" font-family="Helvetica,sans-Serif" font-size="10.00">Renderer.cpp</text>
</a>
</g>
</g>
<!-- Node1&#45;&gt;Node6 -->
<g id="edge5_Node000001_Node000006" class="edge">
<title>Node1&#45;&gt;Node6</title>
<g id="a_edge5_Node000001_Node000006"><a xlink:title=" ">
<path fill="none" stroke="#63b8ff" d="M364.3,-51.79C391.59,-42.1 428,-29.16 452.44,-20.48"/>
<polygon fill="#63b8ff" stroke="#63b8ff" points="363.28,-48.44 355.03,-55.09 365.62,-55.04 363.28,-48.44"/>
</a>
</g>
</g>
<!-- Node7 -->
<g id="Node000007" class="node">
<title>Node7</title>
<g id="a_Node000007"><a xlink:href="_stats_manager_8cpp.html" target="_top" xlink:title=" ">
<polygon fill="white" stroke="#666666" points="629.88,-20 534.38,-20 534.38,0 629.88,0 629.88,-20"/>
<text text-anchor="middle" x="582.12" y="-6.5" font-family="Helvetica,sans-Serif" font-size="10.00">StatsManager.cpp</text>
</a>
</g>
</g>
<!-- Node1&#45;&gt;Node7 -->
<g id="edge6_Node000001_Node000007" class="edge">
<title>Node1&#45;&gt;Node7</title>
<g id="a_edge6_Node000001_Node000007"><a xlink:title=" ">
<path fill="none" stroke="#63b8ff" d="M381.19,-53.55C427.76,-43.69 494.16,-29.63 537.69,-20.41"/>
<polygon fill="#63b8ff" stroke="#63b8ff" points="380.63,-50.09 371.57,-55.59 382.08,-56.94 380.63,-50.09"/>
</a>
</g>
</g>
</g>
</svg>
