<?xml version="1.0" encoding="UTF-8" standalone="no"?>
<!DOCTYPE svg PUBLIC "-//W3C//DTD SVG 1.1//EN"
 "http://www.w3.org/Graphics/SVG/1.1/DTD/svg11.dtd">
<!-- Generated by graphviz version 11.0.0 (20240428.1522)
 -->
<!-- Title: Stacktrace.h Pages: 1 -->
<svg width="208pt" height="84pt"
 viewBox="0.00 0.00 208.38 84.00" xmlns="http://www.w3.org/2000/svg" xmlns:xlink="http://www.w3.org/1999/xlink">
<g id="graph0" class="graph" transform="scale(1 1) rotate(0) translate(4 80)">
<title>Stacktrace.h</title>
<!-- Node1 -->
<g id="Node000001" class="node">
<title>Node1</title>
<g id="a_Node000001"><a xlink:title="A set of functions for generating and printing stack traces.">
<polygon fill="#999999" stroke="#666666" points="140.12,-76 68.62,-76 68.62,-56 140.12,-56 140.12,-76"/>
<text text-anchor="middle" x="104.38" y="-62.5" font-family="Helvetica,sans-Serif" font-size="10.00">Stacktrace.h</text>
</a>
</g>
</g>
<!-- Node2 -->
<g id="Node000002" class="node">
<title>Node2</title>
<g id="a_Node000002"><a xlink:href="_base_exception_8cpp.html" target="_top" xlink:title="The base exception that all other exceptions inherit from.">
<polygon fill="white" stroke="#666666" points="100.75,-20 0,-20 0,0 100.75,0 100.75,-20"/>
<text text-anchor="middle" x="50.38" y="-6.5" font-family="Helvetica,sans-Serif" font-size="10.00">BaseException.cpp</text>
</a>
</g>
</g>
<!-- Node1&#45;&gt;Node2 -->
<g id="edge1_Node000001_Node000002" class="edge">
<title>Node1&#45;&gt;Node2</title>
<g id="a_edge1_Node000001_Node000002"><a xlink:title=" ">
<path fill="none" stroke="#63b8ff" d="M86.94,-47.57C77.87,-38.5 67.15,-27.78 59.67,-20.3"/>
<polygon fill="#63b8ff" stroke="#63b8ff" points="84.35,-49.93 93.9,-54.52 89.3,-44.98 84.35,-49.93"/>
</a>
</g>
</g>
<!-- Node3 -->
<g id="Node000003" class="node">
<title>Node3</title>
<g id="a_Node000003"><a xlink:href="_stacktrace_8cpp.html" target="_top" xlink:title="@TODO Add description of this file if needed">
<polygon fill="white" stroke="#666666" points="200.38,-20 118.38,-20 118.38,0 200.38,0 200.38,-20"/>
<text text-anchor="middle" x="159.38" y="-6.5" font-family="Helvetica,sans-Serif" font-size="10.00">Stacktrace.cpp</text>
</a>
</g>
</g>
<!-- Node1&#45;&gt;Node3 -->
<g id="edge2_Node000001_Node000003" class="edge">
<title>Node1&#45;&gt;Node3</title>
<g id="a_edge2_Node000001_Node000003"><a xlink:title=" ">
<path fill="none" stroke="#63b8ff" d="M122.13,-47.57C131.37,-38.5 142.29,-27.78 149.9,-20.3"/>
<polygon fill="#63b8ff" stroke="#63b8ff" points="119.72,-45.03 115.04,-54.53 124.62,-50.03 119.72,-45.03"/>
</a>
</g>
</g>
</g>
</svg>
