<?xml version="1.0" encoding="UTF-8" standalone="no"?>
<!DOCTYPE svg PUBLIC "-//W3C//DTD SVG 1.1//EN"
 "http://www.w3.org/Graphics/SVG/1.1/DTD/svg11.dtd">
<!-- Generated by graphviz version 11.0.0 (20240428.1522)
 -->
<!-- Title: SunComponent.h Pages: 1 -->
<svg width="180pt" height="84pt"
 viewBox="0.00 0.00 179.75 84.00" xmlns="http://www.w3.org/2000/svg" xmlns:xlink="http://www.w3.org/1999/xlink">
<g id="graph0" class="graph" transform="scale(1 1) rotate(0) translate(4 80)">
<title>SunComponent.h</title>
<!-- Node1 -->
<g id="Node000001" class="node">
<title>Node1</title>
<g id="a_Node000001"><a xlink:title="@TODO Add description of this file if needed">
<polygon fill="#999999" stroke="#666666" points="126.38,-76 35.38,-76 35.38,-56 126.38,-56 126.38,-76"/>
<text text-anchor="middle" x="80.88" y="-62.5" font-family="Helvetica,sans-Serif" font-size="10.00">SunComponent.h</text>
</a>
</g>
</g>
<!-- Node2 -->
<g id="Node000002" class="node">
<title>Node2</title>
<g id="a_Node000002"><a xlink:href="_g_l_e_s_c_8cpp.html" target="_top" xlink:title=" ">
<polygon fill="white" stroke="#666666" points="67.75,-20 0,-20 0,0 67.75,0 67.75,-20"/>
<text text-anchor="middle" x="33.88" y="-6.5" font-family="Helvetica,sans-Serif" font-size="10.00">GLESC.cpp</text>
</a>
</g>
</g>
<!-- Node1&#45;&gt;Node2 -->
<g id="edge1_Node000001_Node000002" class="edge">
<title>Node1&#45;&gt;Node2</title>
<g id="a_edge1_Node000001_Node000002"><a xlink:title=" ">
<path fill="none" stroke="#63b8ff" d="M65.21,-47C57.43,-38.06 48.34,-27.62 41.97,-20.3"/>
<polygon fill="#63b8ff" stroke="#63b8ff" points="62.49,-49.21 71.69,-54.45 67.77,-44.61 62.49,-49.21"/>
</a>
</g>
</g>
<!-- Node3 -->
<g id="Node000003" class="node">
<title>Node3</title>
<g id="a_Node000003"><a xlink:href="_sun_system_8cpp.html" target="_top" xlink:title="@TODO Add description of this file if needed">
<polygon fill="white" stroke="#666666" points="171.75,-20 86,-20 86,0 171.75,0 171.75,-20"/>
<text text-anchor="middle" x="128.88" y="-6.5" font-family="Helvetica,sans-Serif" font-size="10.00">SunSystem.cpp</text>
</a>
</g>
</g>
<!-- Node1&#45;&gt;Node3 -->
<g id="edge2_Node000001_Node000003" class="edge">
<title>Node1&#45;&gt;Node3</title>
<g id="a_edge2_Node000001_Node000003"><a xlink:title=" ">
<path fill="none" stroke="#63b8ff" d="M96.87,-47C104.82,-38.06 114.1,-27.62 120.61,-20.3"/>
<polygon fill="#63b8ff" stroke="#63b8ff" points="94.27,-44.66 90.24,-54.46 99.5,-49.31 94.27,-44.66"/>
</a>
</g>
</g>
</g>
</svg>
