<?xml version="1.0" encoding="UTF-8" standalone="no"?>
<!DOCTYPE svg PUBLIC "-//W3C//DTD SVG 1.1//EN"
 "http://www.w3.org/Graphics/SVG/1.1/DTD/svg11.dtd">
<!-- Generated by graphviz version 11.0.0 (20240428.1522)
 -->
<!-- Title: TextureSurface.h Pages: 1 -->
<svg width="1337pt" height="588pt"
 viewBox="0.00 0.00 1336.92 588.00" xmlns="http://www.w3.org/2000/svg" xmlns:xlink="http://www.w3.org/1999/xlink">
<g id="graph0" class="graph" transform="scale(1 1) rotate(0) translate(4 584)">
<title>TextureSurface.h</title>
<!-- Node1 -->
<g id="Node000001" class="node">
<title>Node1</title>
<g id="a_Node000001"><a xlink:title="@TODO Add description of this file if needed">
<polygon fill="#999999" stroke="#666666" points="1158.62,-580 1069.12,-580 1069.12,-560 1158.62,-560 1158.62,-580"/>
<text text-anchor="middle" x="1113.88" y="-566.5" font-family="Helvetica,sans-Serif" font-size="10.00">TextureSurface.h</text>
</a>
</g>
</g>
<!-- Node2 -->
<g id="Node000002" class="node">
<title>Node2</title>
<g id="a_Node000002"><a xlink:href="_cubemap_8h.html" target="_top" xlink:title="@TODO Add description of this file if needed">
<polygon fill="white" stroke="#666666" points="1057.62,-524 992.12,-524 992.12,-504 1057.62,-504 1057.62,-524"/>
<text text-anchor="middle" x="1024.88" y="-510.5" font-family="Helvetica,sans-Serif" font-size="10.00">Cubemap.h</text>
</a>
</g>
</g>
<!-- Node1&#45;&gt;Node2 -->
<g id="edge1_Node000001_Node000002" class="edge">
<title>Node1&#45;&gt;Node2</title>
<g id="a_edge1_Node000001_Node000002"><a xlink:title=" ">
<path fill="none" stroke="#63b8ff" d="M1088.84,-553.81C1073.32,-544.39 1053.85,-532.58 1040.5,-524.48"/>
<polygon fill="#63b8ff" stroke="#63b8ff" points="1086.71,-556.61 1097.08,-558.81 1090.34,-550.63 1086.71,-556.61"/>
</a>
</g>
</g>
<!-- Node35 -->
<g id="Node000035" class="node">
<title>Node35</title>
<g id="a_Node000035"><a xlink:href="_texture_8h.html" target="_top" xlink:title="@TODO Add description of this file if needed">
<polygon fill="white" stroke="#666666" points="1170.12,-468 1113.62,-468 1113.62,-448 1170.12,-448 1170.12,-468"/>
<text text-anchor="middle" x="1141.88" y="-454.5" font-family="Helvetica,sans-Serif" font-size="10.00">Texture.h</text>
</a>
</g>
</g>
<!-- Node1&#45;&gt;Node35 -->
<g id="edge47_Node000001_Node000035" class="edge">
<title>Node1&#45;&gt;Node35</title>
<g id="a_edge47_Node000001_Node000035"><a xlink:title=" ">
<path fill="none" stroke="#63b8ff" d="M1119.06,-548.64C1125.15,-524.72 1134.99,-486.03 1139.49,-468.35"/>
<polygon fill="#63b8ff" stroke="#63b8ff" points="1115.71,-547.6 1116.64,-558.15 1122.49,-549.33 1115.71,-547.6"/>
</a>
</g>
</g>
<!-- Node39 -->
<g id="Node000039" class="node">
<title>Node39</title>
<g id="a_Node000039"><a xlink:href="_texture_surface_8cpp.html" target="_top" xlink:title=" ">
<polygon fill="white" stroke="#666666" points="1241.88,-524 1141.88,-524 1141.88,-504 1241.88,-504 1241.88,-524"/>
<text text-anchor="middle" x="1191.88" y="-510.5" font-family="Helvetica,sans-Serif" font-size="10.00">TextureSurface.cpp</text>
</a>
</g>
</g>
<!-- Node1&#45;&gt;Node39 -->
<g id="edge58_Node000001_Node000039" class="edge">
<title>Node1&#45;&gt;Node39</title>
<g id="a_edge58_Node000001_Node000039"><a xlink:title=" ">
<path fill="none" stroke="#63b8ff" d="M1136.59,-553.27C1150.07,-543.94 1166.7,-532.43 1178.18,-524.48"/>
<polygon fill="#63b8ff" stroke="#63b8ff" points="1134.94,-550.16 1128.71,-558.73 1138.92,-555.92 1134.94,-550.16"/>
</a>
</g>
</g>
<!-- Node3 -->
<g id="Node000003" class="node">
<title>Node3</title>
<g id="a_Node000003"><a xlink:href="_cubemap_8cpp.html" target="_top" xlink:title=" ">
<polygon fill="white" stroke="#666666" points="1095.88,-468 1019.88,-468 1019.88,-448 1095.88,-448 1095.88,-468"/>
<text text-anchor="middle" x="1057.88" y="-454.5" font-family="Helvetica,sans-Serif" font-size="10.00">Cubemap.cpp</text>
</a>
</g>
</g>
<!-- Node2&#45;&gt;Node3 -->
<g id="edge2_Node000002_Node000003" class="edge">
<title>Node2&#45;&gt;Node3</title>
<g id="a_edge2_Node000002_Node000003"><a xlink:title=" ">
<path fill="none" stroke="#63b8ff" d="M1036.57,-493.87C1041.87,-485.19 1047.9,-475.32 1052.19,-468.3"/>
<polygon fill="#63b8ff" stroke="#63b8ff" points="1033.64,-491.94 1031.41,-502.3 1039.61,-495.59 1033.64,-491.94"/>
</a>
</g>
</g>
<!-- Node4 -->
<g id="Node000004" class="node">
<title>Node4</title>
<g id="a_Node000004"><a xlink:href="_skybox_8h.html" target="_top" xlink:title="@TODO Add description of this file if needed">
<polygon fill="white" stroke="#666666" points="885.5,-468 828.25,-468 828.25,-448 885.5,-448 885.5,-468"/>
<text text-anchor="middle" x="856.88" y="-454.5" font-family="Helvetica,sans-Serif" font-size="10.00">Skybox.h</text>
</a>
</g>
</g>
<!-- Node2&#45;&gt;Node4 -->
<g id="edge3_Node000002_Node000004" class="edge">
<title>Node2&#45;&gt;Node4</title>
<g id="a_edge3_Node000002_Node000004"><a xlink:title=" ">
<path fill="none" stroke="#63b8ff" d="M984.91,-500.16C954.43,-490.36 913.15,-477.09 885.8,-468.3"/>
<polygon fill="#63b8ff" stroke="#63b8ff" points="983.58,-503.4 994.17,-503.13 985.72,-496.74 983.58,-503.4"/>
</a>
</g>
</g>
<!-- Node33 -->
<g id="Node000033" class="node">
<title>Node33</title>
<g id="a_Node000033"><a xlink:href="_texture_factory_8h.html" target="_top" xlink:title="@TODO Add description of this file if needed">
<polygon fill="white" stroke="#666666" points="1223.62,-412 1134.12,-412 1134.12,-392 1223.62,-392 1223.62,-412"/>
<text text-anchor="middle" x="1178.88" y="-398.5" font-family="Helvetica,sans-Serif" font-size="10.00">TextureFactory.h</text>
</a>
</g>
</g>
<!-- Node2&#45;&gt;Node33 -->
<g id="edge43_Node000002_Node000033" class="edge">
<title>Node2&#45;&gt;Node33</title>
<g id="a_edge43_Node000002_Node000033"><a xlink:title=" ">
<path fill="none" stroke="#63b8ff" d="M1013.09,-493.56C1006.3,-479.59 1000.89,-461.01 1010.88,-448 1025.81,-428.54 1089.48,-415.65 1133.99,-408.83"/>
<polygon fill="#63b8ff" stroke="#63b8ff" points="1009.97,-495.15 1017.84,-502.25 1016.11,-491.79 1009.97,-495.15"/>
</a>
</g>
</g>
<!-- Node5 -->
<g id="Node000005" class="node">
<title>Node5</title>
<g id="a_Node000005"><a xlink:href="_renderer_8h.html" target="_top" xlink:title="@TODO Add description of this file if needed">
<polygon fill="white" stroke="#666666" points="661.5,-412 598.25,-412 598.25,-392 661.5,-392 661.5,-412"/>
<text text-anchor="middle" x="629.88" y="-398.5" font-family="Helvetica,sans-Serif" font-size="10.00">Renderer.h</text>
</a>
</g>
</g>
<!-- Node4&#45;&gt;Node5 -->
<g id="edge4_Node000004_Node000005" class="edge">
<title>Node4&#45;&gt;Node5</title>
<g id="a_edge4_Node000004_Node000005"><a xlink:title=" ">
<path fill="none" stroke="#63b8ff" d="M816.94,-447.5C772.72,-436.98 702.32,-420.23 661.67,-410.56"/>
<polygon fill="#63b8ff" stroke="#63b8ff" points="816.11,-450.9 826.65,-449.81 817.73,-444.09 816.11,-450.9"/>
</a>
</g>
</g>
<!-- Node32 -->
<g id="Node000032" class="node">
<title>Node32</title>
<g id="a_Node000032"><a xlink:href="_skybox_8cpp.html" target="_top" xlink:title=" ">
<polygon fill="white" stroke="#666666" points="890.75,-412 823,-412 823,-392 890.75,-392 890.75,-412"/>
<text text-anchor="middle" x="856.88" y="-398.5" font-family="Helvetica,sans-Serif" font-size="10.00">Skybox.cpp</text>
</a>
</g>
</g>
<!-- Node4&#45;&gt;Node32 -->
<g id="edge42_Node000004_Node000032" class="edge">
<title>Node4&#45;&gt;Node32</title>
<g id="a_edge42_Node000004_Node000032"><a xlink:title=" ">
<path fill="none" stroke="#63b8ff" d="M856.88,-436.13C856.88,-427.9 856.88,-418.85 856.88,-412.3"/>
<polygon fill="#63b8ff" stroke="#63b8ff" points="853.38,-436.08 856.88,-446.08 860.38,-436.08 853.38,-436.08"/>
</a>
</g>
</g>
<!-- Node6 -->
<g id="Node000006" class="node">
<title>Node6</title>
<g id="a_Node000006"><a xlink:href="_camera_system_8h.html" target="_top" xlink:title="Camera system that updates the renderer&#39;s camera.">
<polygon fill="white" stroke="#666666" points="183.75,-356 92,-356 92,-336 183.75,-336 183.75,-356"/>
<text text-anchor="middle" x="137.88" y="-342.5" font-family="Helvetica,sans-Serif" font-size="10.00">CameraSystem.h</text>
</a>
</g>
</g>
<!-- Node5&#45;&gt;Node6 -->
<g id="edge5_Node000005_Node000006" class="edge">
<title>Node5&#45;&gt;Node6</title>
<g id="a_edge5_Node000005_Node000006"><a xlink:title=" ">
<path fill="none" stroke="#63b8ff" d="M586.56,-396.25C494.2,-386.11 278.64,-362.45 183.91,-352.05"/>
<polygon fill="#63b8ff" stroke="#63b8ff" points="586.15,-399.72 596.47,-397.33 586.91,-392.76 586.15,-399.72"/>
</a>
</g>
</g>
<!-- Node9 -->
<g id="Node000009" class="node">
<title>Node9</title>
<g id="a_Node000009"><a xlink:href="_debug_info_system_8h.html" target="_top" xlink:title="System that displays debug information about the selected entity.">
<polygon fill="white" stroke="#666666" points="333.25,-356 232.5,-356 232.5,-336 333.25,-336 333.25,-356"/>
<text text-anchor="middle" x="282.88" y="-342.5" font-family="Helvetica,sans-Serif" font-size="10.00">DebugInfoSystem.h</text>
</a>
</g>
</g>
<!-- Node5&#45;&gt;Node9 -->
<g id="edge8_Node000005_Node000009" class="edge">
<title>Node5&#45;&gt;Node9</title>
<g id="a_edge8_Node000005_Node000009"><a xlink:title=" ">
<path fill="none" stroke="#63b8ff" d="M586.53,-394.25C522.28,-384.26 402.02,-365.54 333.7,-354.91"/>
<polygon fill="#63b8ff" stroke="#63b8ff" points="585.94,-397.7 596.36,-395.78 587.01,-390.79 585.94,-397.7"/>
</a>
</g>
</g>
<!-- Node11 -->
<g id="Node000011" class="node">
<title>Node11</title>
<g id="a_Node000011"><a xlink:href="_debug_items_h_u_d_8h.html" target="_top" xlink:title="@TODO Add description of this file if needed">
<polygon fill="white" stroke="#666666" points="1198,-356 1101.75,-356 1101.75,-336 1198,-336 1198,-356"/>
<text text-anchor="middle" x="1149.88" y="-342.5" font-family="Helvetica,sans-Serif" font-size="10.00">DebugItemsHUD.h</text>
</a>
</g>
</g>
<!-- Node5&#45;&gt;Node11 -->
<g id="edge11_Node000005_Node000011" class="edge">
<title>Node5&#45;&gt;Node11</title>
<g id="a_edge11_Node000005_Node000011"><a xlink:title=" ">
<path fill="none" stroke="#63b8ff" d="M672.92,-396.53C769.03,-386.55 1000.56,-362.51 1101.49,-352.02"/>
<polygon fill="#63b8ff" stroke="#63b8ff" points="672.71,-393.03 663.13,-397.55 673.43,-400 672.71,-393.03"/>
</a>
</g>
</g>
<!-- Node13 -->
<g id="Node000013" class="node">
<title>Node13</title>
<g id="a_Node000013"><a xlink:href="_engine_h_u_d_manager_8h.html" target="_top" xlink:title="@TODO Add description of this file if needed">
<polygon fill="white" stroke="#666666" points="1204.88,-300 1092.88,-300 1092.88,-280 1204.88,-280 1204.88,-300"/>
<text text-anchor="middle" x="1148.88" y="-286.5" font-family="Helvetica,sans-Serif" font-size="10.00">EngineHUDManager.h</text>
</a>
</g>
</g>
<!-- Node5&#45;&gt;Node13 -->
<g id="edge27_Node000005_Node000013" class="edge">
<title>Node5&#45;&gt;Node13</title>
<g id="a_edge27_Node000005_Node000013"><a xlink:title=" ">
<path fill="none" stroke="#63b8ff" d="M673.1,-392.73C717,-384.18 786.88,-370.1 846.88,-356 880.88,-348.01 888.84,-343.86 922.88,-336 982.13,-322.32 1050.69,-309.02 1096.62,-300.47"/>
<polygon fill="#63b8ff" stroke="#63b8ff" points="672.62,-389.26 663.47,-394.6 673.95,-396.14 672.62,-389.26"/>
</a>
</g>
</g>
<!-- Node16 -->
<g id="Node000016" class="node">
<title>Node16</title>
<g id="a_Node000016"><a xlink:href="_g_l_e_s_c_8h.html" target="_top" xlink:title=" ">
<polygon fill="white" stroke="#666666" points="885.5,-76 828.25,-76 828.25,-56 885.5,-56 885.5,-76"/>
<text text-anchor="middle" x="856.88" y="-62.5" font-family="Helvetica,sans-Serif" font-size="10.00">GLESC.h</text>
</a>
</g>
</g>
<!-- Node5&#45;&gt;Node16 -->
<g id="edge31_Node000005_Node000016" class="edge">
<title>Node5&#45;&gt;Node16</title>
<g id="a_edge31_Node000005_Node000016"><a xlink:title=" ">
<path fill="none" stroke="#63b8ff" d="M651.93,-384.57C661.23,-376.74 671.58,-366.75 678.88,-356 699.18,-326.08 690.94,-311.94 707.88,-280 752.69,-195.47 825.46,-104.87 849.15,-76.22"/>
<polygon fill="#63b8ff" stroke="#63b8ff" points="649.92,-381.69 644.3,-390.67 654.29,-387.16 649.92,-381.69"/>
</a>
</g>
</g>
<!-- Node23 -->
<g id="Node000023" class="node">
<title>Node23</title>
<g id="a_Node000023"><a xlink:href="_fog_system_8h.html" target="_top" xlink:title="System that updates the fog in the scene.">
<polygon fill="white" stroke="#666666" points="838.12,-356 763.62,-356 763.62,-336 838.12,-336 838.12,-356"/>
<text text-anchor="middle" x="800.88" y="-342.5" font-family="Helvetica,sans-Serif" font-size="10.00">FogSystem.h</text>
</a>
</g>
</g>
<!-- Node5&#45;&gt;Node23 -->
<g id="edge28_Node000005_Node000023" class="edge">
<title>Node5&#45;&gt;Node23</title>
<g id="a_edge28_Node000005_Node000023"><a xlink:title=" ">
<path fill="none" stroke="#63b8ff" d="M670.48,-388.18C701.3,-378.44 743,-365.28 770.86,-356.48"/>
<polygon fill="#63b8ff" stroke="#63b8ff" points="669.59,-384.79 661.1,-391.14 671.69,-391.46 669.59,-384.79"/>
</a>
</g>
</g>
<!-- Node25 -->
<g id="Node000025" class="node">
<title>Node25</title>
<g id="a_Node000025"><a xlink:href="_light_system_8h.html" target="_top" xlink:title="System that updates the lights in the scene.">
<polygon fill="white" stroke="#666666" points="669.38,-356 590.38,-356 590.38,-336 669.38,-336 669.38,-356"/>
<text text-anchor="middle" x="629.88" y="-342.5" font-family="Helvetica,sans-Serif" font-size="10.00">LightSystem.h</text>
</a>
</g>
</g>
<!-- Node5&#45;&gt;Node25 -->
<g id="edge32_Node000005_Node000025" class="edge">
<title>Node5&#45;&gt;Node25</title>
<g id="a_edge32_Node000005_Node000025"><a xlink:title=" ">
<path fill="none" stroke="#63b8ff" d="M629.88,-380.13C629.88,-371.9 629.88,-362.85 629.88,-356.3"/>
<polygon fill="#63b8ff" stroke="#63b8ff" points="626.38,-380.08 629.88,-390.08 633.38,-380.08 626.38,-380.08"/>
</a>
</g>
</g>
<!-- Node27 -->
<g id="Node000027" class="node">
<title>Node27</title>
<g id="a_Node000027"><a xlink:href="_render_system_8h.html" target="_top" xlink:title="System that updates the renderer, sends the data to the renderer to then be handled by it.">
<polygon fill="white" stroke="#666666" points="440.25,-356 351.5,-356 351.5,-336 440.25,-336 440.25,-356"/>
<text text-anchor="middle" x="395.88" y="-342.5" font-family="Helvetica,sans-Serif" font-size="10.00">RenderSystem.h</text>
</a>
</g>
</g>
<!-- Node5&#45;&gt;Node27 -->
<g id="edge35_Node000005_Node000027" class="edge">
<title>Node5&#45;&gt;Node27</title>
<g id="a_edge35_Node000005_Node000027"><a xlink:title=" ">
<path fill="none" stroke="#63b8ff" d="M586.67,-391.03C543.92,-381.16 478.97,-366.18 436.97,-356.48"/>
<polygon fill="#63b8ff" stroke="#63b8ff" points="585.82,-394.43 596.35,-393.26 587.4,-387.61 585.82,-394.43"/>
</a>
</g>
</g>
<!-- Node29 -->
<g id="Node000029" class="node">
<title>Node29</title>
<g id="a_Node000029"><a xlink:href="_renderer_8cpp.html" target="_top" xlink:title=" ">
<polygon fill="white" stroke="#666666" points="73.75,-356 0,-356 0,-336 73.75,-336 73.75,-356"/>
<text text-anchor="middle" x="36.88" y="-342.5" font-family="Helvetica,sans-Serif" font-size="10.00">Renderer.cpp</text>
</a>
</g>
</g>
<!-- Node5&#45;&gt;Node29 -->
<g id="edge38_Node000005_Node000029" class="edge">
<title>Node5&#45;&gt;Node29</title>
<g id="a_edge38_Node000005_Node000029"><a xlink:title=" ">
<path fill="none" stroke="#63b8ff" d="M586.57,-399.08C493.84,-394.6 269.37,-381.83 82.88,-356 80.05,-355.61 77.14,-355.16 74.22,-354.67"/>
<polygon fill="#63b8ff" stroke="#63b8ff" points="586.32,-402.57 596.47,-399.55 586.65,-395.58 586.32,-402.57"/>
</a>
</g>
</g>
<!-- Node30 -->
<g id="Node000030" class="node">
<title>Node30</title>
<g id="a_Node000030"><a xlink:href="_sun_system_8h.html" target="_top" xlink:title="System that updates the sun in the scene.">
<polygon fill="white" stroke="#666666" points="533.5,-356 458.25,-356 458.25,-336 533.5,-336 533.5,-356"/>
<text text-anchor="middle" x="495.88" y="-342.5" font-family="Helvetica,sans-Serif" font-size="10.00">SunSystem.h</text>
</a>
</g>
</g>
<!-- Node5&#45;&gt;Node30 -->
<g id="edge39_Node000005_Node000030" class="edge">
<title>Node5&#45;&gt;Node30</title>
<g id="a_edge39_Node000005_Node000030"><a xlink:title=" ">
<path fill="none" stroke="#63b8ff" d="M596.13,-387.4C572.19,-377.75 540.66,-365.05 519.4,-356.48"/>
<polygon fill="#63b8ff" stroke="#63b8ff" points="594.55,-390.54 605.13,-391.03 597.16,-384.04 594.55,-390.54"/>
</a>
</g>
</g>
<!-- Node7 -->
<g id="Node000007" class="node">
<title>Node7</title>
<g id="a_Node000007"><a xlink:href="_camera_system_8cpp.html" target="_top" xlink:title=" ">
<polygon fill="white" stroke="#666666" points="157,-300 54.75,-300 54.75,-280 157,-280 157,-300"/>
<text text-anchor="middle" x="105.88" y="-286.5" font-family="Helvetica,sans-Serif" font-size="10.00">CameraSystem.cpp</text>
</a>
</g>
</g>
<!-- Node6&#45;&gt;Node7 -->
<g id="edge6_Node000006_Node000007" class="edge">
<title>Node6&#45;&gt;Node7</title>
<g id="a_edge6_Node000006_Node000007"><a xlink:title=" ">
<path fill="none" stroke="#63b8ff" d="M126.54,-325.87C121.39,-317.19 115.54,-307.32 111.39,-300.3"/>
<polygon fill="#63b8ff" stroke="#63b8ff" points="123.42,-327.47 131.53,-334.29 129.44,-323.9 123.42,-327.47"/>
</a>
</g>
</g>
<!-- Node8 -->
<g id="Node000008" class="node">
<title>Node8</title>
<g id="a_Node000008"><a xlink:href="_g_l_e_s_c_8cpp.html" target="_top" xlink:title=" ">
<polygon fill="white" stroke="#666666" points="613.75,-20 546,-20 546,0 613.75,0 613.75,-20"/>
<text text-anchor="middle" x="579.88" y="-6.5" font-family="Helvetica,sans-Serif" font-size="10.00">GLESC.cpp</text>
</a>
</g>
</g>
<!-- Node6&#45;&gt;Node8 -->
<g id="edge7_Node000006_Node000008" class="edge">
<title>Node6&#45;&gt;Node8</title>
<g id="a_edge7_Node000006_Node000008"><a xlink:title=" ">
<path fill="none" stroke="#63b8ff" d="M92.17,-331.4C75.54,-324.41 57.9,-314.28 45.88,-300 26.48,-276.98 26.88,-265.1 26.88,-235 26.88,-235 26.88,-235 26.88,-121 26.88,-14.67 425.13,-9.59 545.7,-10.49"/>
<polygon fill="#63b8ff" stroke="#63b8ff" points="90.87,-334.66 101.46,-335.01 93.4,-328.13 90.87,-334.66"/>
</a>
</g>
</g>
<!-- Node9&#45;&gt;Node8 -->
<g id="edge10_Node000009_Node000008" class="edge">
<title>Node9&#45;&gt;Node8</title>
<g id="a_edge10_Node000009_Node000008"><a xlink:title=" ">
<path fill="none" stroke="#63b8ff" d="M292.36,-325.11C301.79,-303.45 314.88,-267.56 314.88,-235 314.88,-235 314.88,-235 314.88,-121 314.88,-22.25 473.8,-10.48 545.5,-10.19"/>
<polygon fill="#63b8ff" stroke="#63b8ff" points="289.18,-323.63 288.22,-334.18 295.55,-326.53 289.18,-323.63"/>
</a>
</g>
</g>
<!-- Node10 -->
<g id="Node000010" class="node">
<title>Node10</title>
<g id="a_Node000010"><a xlink:href="_debug_info_system_8cpp.html" target="_top" xlink:title=" ">
<polygon fill="white" stroke="#666666" points="286.5,-300 175.25,-300 175.25,-280 286.5,-280 286.5,-300"/>
<text text-anchor="middle" x="230.88" y="-286.5" font-family="Helvetica,sans-Serif" font-size="10.00">DebugInfoSystem.cpp</text>
</a>
</g>
</g>
<!-- Node9&#45;&gt;Node10 -->
<g id="edge9_Node000009_Node000010" class="edge">
<title>Node9&#45;&gt;Node10</title>
<g id="a_edge9_Node000009_Node000010"><a xlink:title=" ">
<path fill="none" stroke="#63b8ff" d="M266.09,-327.57C257.36,-318.5 247.03,-307.78 239.83,-300.3"/>
<polygon fill="#63b8ff" stroke="#63b8ff" points="263.31,-329.73 272.77,-334.5 268.35,-324.87 263.31,-329.73"/>
</a>
</g>
</g>
<!-- Node12 -->
<g id="Node000012" class="node">
<title>Node12</title>
<g id="a_Node000012"><a xlink:href="_debug_items_h_u_d_8cpp.html" target="_top" xlink:title=" ">
<polygon fill="white" stroke="#666666" points="1075.25,-300 968.5,-300 968.5,-280 1075.25,-280 1075.25,-300"/>
<text text-anchor="middle" x="1021.88" y="-286.5" font-family="Helvetica,sans-Serif" font-size="10.00">DebugItemsHUD.cpp</text>
</a>
</g>
</g>
<!-- Node11&#45;&gt;Node12 -->
<g id="edge12_Node000011_Node000012" class="edge">
<title>Node11&#45;&gt;Node12</title>
<g id="a_edge12_Node000011_Node000012"><a xlink:title=" ">
<path fill="none" stroke="#63b8ff" d="M1117.02,-331.14C1094.23,-321.52 1064.47,-308.97 1044.34,-300.48"/>
<polygon fill="#63b8ff" stroke="#63b8ff" points="1115.61,-334.34 1126.18,-335.01 1118.33,-327.89 1115.61,-334.34"/>
</a>
</g>
</g>
<!-- Node11&#45;&gt;Node13 -->
<g id="edge13_Node000011_Node000013" class="edge">
<title>Node11&#45;&gt;Node13</title>
<g id="a_edge13_Node000011_Node000013"><a xlink:title=" ">
<path fill="none" stroke="#63b8ff" d="M1149.49,-324.13C1149.34,-315.9 1149.17,-306.85 1149.05,-300.3"/>
<polygon fill="#63b8ff" stroke="#63b8ff" points="1145.99,-324.15 1149.67,-334.08 1152.99,-324.02 1145.99,-324.15"/>
</a>
</g>
</g>
<!-- Node14 -->
<g id="Node000014" class="node">
<title>Node14</title>
<g id="a_Node000014"><a xlink:href="_engine_camera_8h.html" target="_top" xlink:title="@TODO Add description of this file if needed">
<polygon fill="white" stroke="#666666" points="1189.88,-244 1101.88,-244 1101.88,-224 1189.88,-224 1189.88,-244"/>
<text text-anchor="middle" x="1145.88" y="-230.5" font-family="Helvetica,sans-Serif" font-size="10.00">EngineCamera.h</text>
</a>
</g>
</g>
<!-- Node13&#45;&gt;Node14 -->
<g id="edge14_Node000013_Node000014" class="edge">
<title>Node13&#45;&gt;Node14</title>
<g id="a_edge14_Node000013_Node000014"><a xlink:title=" ">
<path fill="none" stroke="#63b8ff" d="M1147.72,-268.13C1147.26,-259.9 1146.76,-250.85 1146.39,-244.3"/>
<polygon fill="#63b8ff" stroke="#63b8ff" points="1144.22,-268.29 1148.27,-278.08 1151.21,-267.9 1144.22,-268.29"/>
</a>
</g>
</g>
<!-- Node13&#45;&gt;Node16 -->
<g id="edge26_Node000013_Node000016" class="edge">
<title>Node13&#45;&gt;Node16</title>
<g id="a_edge26_Node000013_Node000016"><a xlink:title=" ">
<path fill="none" stroke="#63b8ff" d="M1081.18,-277.77C1033.57,-269.07 974.62,-256.43 952.88,-244 887.62,-206.7 864.26,-107.21 858.45,-76.3"/>
<polygon fill="#63b8ff" stroke="#63b8ff" points="1080.44,-281.19 1090.9,-279.52 1081.68,-274.3 1080.44,-281.19"/>
</a>
</g>
</g>
<!-- Node22 -->
<g id="Node000022" class="node">
<title>Node22</title>
<g id="a_Node000022"><a xlink:href="_engine_h_u_d_manager_8cpp.html" target="_top" xlink:title=" ">
<polygon fill="white" stroke="#666666" points="1084.12,-244 961.62,-244 961.62,-224 1084.12,-224 1084.12,-244"/>
<text text-anchor="middle" x="1022.88" y="-230.5" font-family="Helvetica,sans-Serif" font-size="10.00">EngineHUDManager.cpp</text>
</a>
</g>
</g>
<!-- Node13&#45;&gt;Node22 -->
<g id="edge25_Node000013_Node000022" class="edge">
<title>Node13&#45;&gt;Node22</title>
<g id="a_edge25_Node000013_Node000022"><a xlink:title=" ">
<path fill="none" stroke="#63b8ff" d="M1116.54,-275.14C1094.1,-265.52 1064.8,-252.97 1044.99,-244.48"/>
<polygon fill="#63b8ff" stroke="#63b8ff" points="1114.97,-278.28 1125.54,-279 1117.72,-271.84 1114.97,-278.28"/>
</a>
</g>
</g>
<!-- Node15 -->
<g id="Node000015" class="node">
<title>Node15</title>
<g id="a_Node000015"><a xlink:href="_engine_camera_8cpp.html" target="_top" xlink:title=" ">
<polygon fill="white" stroke="#666666" points="1118.12,-188 1019.62,-188 1019.62,-168 1118.12,-168 1118.12,-188"/>
<text text-anchor="middle" x="1068.88" y="-174.5" font-family="Helvetica,sans-Serif" font-size="10.00">EngineCamera.cpp</text>
</a>
</g>
</g>
<!-- Node14&#45;&gt;Node15 -->
<g id="edge15_Node000014_Node000015" class="edge">
<title>Node14&#45;&gt;Node15</title>
<g id="a_edge15_Node000014_Node000015"><a xlink:title=" ">
<path fill="none" stroke="#63b8ff" d="M1123.06,-217C1109.83,-207.72 1093.62,-196.35 1082.39,-188.48"/>
<polygon fill="#63b8ff" stroke="#63b8ff" points="1121.03,-219.85 1131.22,-222.72 1125.05,-214.12 1121.03,-219.85"/>
</a>
</g>
</g>
<!-- Node14&#45;&gt;Node16 -->
<g id="edge16_Node000014_Node000016" class="edge">
<title>Node14&#45;&gt;Node16</title>
<g id="a_edge16_Node000014_Node000016"><a xlink:title=" ">
<path fill="none" stroke="#63b8ff" d="M1143.14,-212.9C1140.57,-199.36 1135.75,-181.56 1126.88,-168 1105.62,-135.53 1094.7,-129.13 1059.88,-112 1002.22,-83.64 926.6,-72.96 885.87,-69.09"/>
<polygon fill="#63b8ff" stroke="#63b8ff" points="1139.62,-213.09 1144.67,-222.4 1146.53,-211.97 1139.62,-213.09"/>
</a>
</g>
</g>
<!-- Node18 -->
<g id="Node000018" class="node">
<title>Node18</title>
<g id="a_Node000018"><a xlink:href="_scene_8h.html" target="_top" xlink:title="@TODO Add description of this file if needed">
<polygon fill="white" stroke="#666666" points="960.88,-188 908.88,-188 908.88,-168 960.88,-168 960.88,-188"/>
<text text-anchor="middle" x="934.88" y="-174.5" font-family="Helvetica,sans-Serif" font-size="10.00">Scene.h</text>
</a>
</g>
</g>
<!-- Node14&#45;&gt;Node18 -->
<g id="edge19_Node000014_Node000018" class="edge">
<title>Node14&#45;&gt;Node18</title>
<g id="a_edge19_Node000014_Node000018"><a xlink:title=" ">
<path fill="none" stroke="#63b8ff" d="M1098.22,-220.81C1055.85,-209.96 995.44,-194.5 961.21,-185.74"/>
<polygon fill="#63b8ff" stroke="#63b8ff" points="1097.1,-224.13 1107.66,-223.22 1098.84,-217.35 1097.1,-224.13"/>
</a>
</g>
</g>
<!-- Node16&#45;&gt;Node8 -->
<g id="edge17_Node000016_Node000008" class="edge">
<title>Node16&#45;&gt;Node8</title>
<g id="a_edge17_Node000016_Node000008"><a xlink:title=" ">
<path fill="none" stroke="#63b8ff" d="M816.79,-57.18C762.24,-46.55 665.57,-27.71 614.19,-17.69"/>
<polygon fill="#63b8ff" stroke="#63b8ff" points="815.78,-60.56 826.27,-59.03 817.12,-53.68 815.78,-60.56"/>
</a>
</g>
</g>
<!-- Node17 -->
<g id="Node000017" class="node">
<title>Node17</title>
<g id="a_Node000017"><a xlink:href="src_2engine_2main_8cpp.html" target="_top" xlink:title=" ">
<polygon fill="white" stroke="#666666" points="884.75,-20 829,-20 829,0 884.75,0 884.75,-20"/>
<text text-anchor="middle" x="856.88" y="-6.5" font-family="Helvetica,sans-Serif" font-size="10.00">main.cpp</text>
</a>
</g>
</g>
<!-- Node16&#45;&gt;Node17 -->
<g id="edge18_Node000016_Node000017" class="edge">
<title>Node16&#45;&gt;Node17</title>
<g id="a_edge18_Node000016_Node000017"><a xlink:title=" ">
<path fill="none" stroke="#63b8ff" d="M856.88,-44.13C856.88,-35.9 856.88,-26.85 856.88,-20.3"/>
<polygon fill="#63b8ff" stroke="#63b8ff" points="853.38,-44.08 856.88,-54.08 860.38,-44.08 853.38,-44.08"/>
</a>
</g>
</g>
<!-- Node18&#45;&gt;Node8 -->
<g id="edge22_Node000018_Node000008" class="edge">
<title>Node18&#45;&gt;Node8</title>
<g id="a_edge22_Node000018_Node000008"><a xlink:title=" ">
<path fill="none" stroke="#63b8ff" d="M911.84,-161.65C873.81,-136.82 794.89,-87.45 722.88,-56 686.86,-40.27 643.58,-27.44 614.13,-19.56"/>
<polygon fill="#63b8ff" stroke="#63b8ff" points="909.48,-164.29 919.76,-166.86 913.33,-158.44 909.48,-164.29"/>
</a>
</g>
</g>
<!-- Node19 -->
<g id="Node000019" class="node">
<title>Node19</title>
<g id="a_Node000019"><a xlink:href="_default_8h.html" target="_top" xlink:title="@TODO Add description of this file if needed">
<polygon fill="white" stroke="#666666" points="1051,-132 996.75,-132 996.75,-112 1051,-112 1051,-132"/>
<text text-anchor="middle" x="1023.88" y="-118.5" font-family="Helvetica,sans-Serif" font-size="10.00">Default.h</text>
</a>
</g>
</g>
<!-- Node18&#45;&gt;Node19 -->
<g id="edge20_Node000018_Node000019" class="edge">
<title>Node18&#45;&gt;Node19</title>
<g id="a_edge20_Node000018_Node000019"><a xlink:title=" ">
<path fill="none" stroke="#63b8ff" d="M959.91,-161.81C975.43,-152.39 994.9,-140.58 1008.25,-132.48"/>
<polygon fill="#63b8ff" stroke="#63b8ff" points="958.41,-158.63 951.67,-166.81 962.04,-164.61 958.41,-158.63"/>
</a>
</g>
</g>
<!-- Node21 -->
<g id="Node000021" class="node">
<title>Node21</title>
<g id="a_Node000021"><a xlink:href="_scene_container_8h.html" target="_top" xlink:title="Class that stores and manages scenes.">
<polygon fill="white" stroke="#666666" points="978.5,-132 885.25,-132 885.25,-112 978.5,-112 978.5,-132"/>
<text text-anchor="middle" x="931.88" y="-118.5" font-family="Helvetica,sans-Serif" font-size="10.00">SceneContainer.h</text>
</a>
</g>
</g>
<!-- Node18&#45;&gt;Node21 -->
<g id="edge23_Node000018_Node000021" class="edge">
<title>Node18&#45;&gt;Node21</title>
<g id="a_edge23_Node000018_Node000021"><a xlink:title=" ">
<path fill="none" stroke="#63b8ff" d="M933.72,-156.13C933.26,-147.9 932.76,-138.85 932.39,-132.3"/>
<polygon fill="#63b8ff" stroke="#63b8ff" points="930.22,-156.29 934.27,-166.08 937.21,-155.9 930.22,-156.29"/>
</a>
</g>
</g>
<!-- Node20 -->
<g id="Node000020" class="node">
<title>Node20</title>
<g id="a_Node000020"><a xlink:href="_default_8cpp.html" target="_top" xlink:title=" ">
<polygon fill="white" stroke="#666666" points="1056.25,-76 991.5,-76 991.5,-56 1056.25,-56 1056.25,-76"/>
<text text-anchor="middle" x="1023.88" y="-62.5" font-family="Helvetica,sans-Serif" font-size="10.00">Default.cpp</text>
</a>
</g>
</g>
<!-- Node19&#45;&gt;Node20 -->
<g id="edge21_Node000019_Node000020" class="edge">
<title>Node19&#45;&gt;Node20</title>
<g id="a_edge21_Node000019_Node000020"><a xlink:title=" ">
<path fill="none" stroke="#63b8ff" d="M1023.88,-100.13C1023.88,-91.9 1023.88,-82.85 1023.88,-76.3"/>
<polygon fill="#63b8ff" stroke="#63b8ff" points="1020.38,-100.08 1023.88,-110.08 1027.38,-100.08 1020.38,-100.08"/>
</a>
</g>
</g>
<!-- Node21&#45;&gt;Node16 -->
<g id="edge24_Node000021_Node000016" class="edge">
<title>Node21&#45;&gt;Node16</title>
<g id="a_edge24_Node000021_Node000016"><a xlink:title=" ">
<path fill="none" stroke="#63b8ff" d="M909.65,-105C896.76,-95.72 880.97,-84.35 870.04,-76.48"/>
<polygon fill="#63b8ff" stroke="#63b8ff" points="907.42,-107.71 917.58,-110.71 911.51,-102.03 907.42,-107.71"/>
</a>
</g>
</g>
<!-- Node23&#45;&gt;Node8 -->
<g id="edge30_Node000023_Node000008" class="edge">
<title>Node23&#45;&gt;Node8</title>
<g id="a_edge30_Node000023_Node000008"><a xlink:title=" ">
<path fill="none" stroke="#63b8ff" d="M810.98,-325.41C816.36,-312.37 820.92,-294.93 815.88,-280 775.76,-161.35 735.47,-142.48 644.88,-56 629.98,-41.78 610.23,-28.78 596.42,-20.44"/>
<polygon fill="#63b8ff" stroke="#63b8ff" points="807.94,-323.66 806.9,-334.21 814.29,-326.61 807.94,-323.66"/>
</a>
</g>
</g>
<!-- Node24 -->
<g id="Node000024" class="node">
<title>Node24</title>
<g id="a_Node000024"><a xlink:href="_fog_system_8cpp.html" target="_top" xlink:title=" ">
<polygon fill="white" stroke="#666666" points="948.38,-300 863.38,-300 863.38,-280 948.38,-280 948.38,-300"/>
<text text-anchor="middle" x="905.88" y="-286.5" font-family="Helvetica,sans-Serif" font-size="10.00">FogSystem.cpp</text>
</a>
</g>
</g>
<!-- Node23&#45;&gt;Node24 -->
<g id="edge29_Node000023_Node000024" class="edge">
<title>Node23&#45;&gt;Node24</title>
<g id="a_edge29_Node000023_Node000024"><a xlink:title=" ">
<path fill="none" stroke="#63b8ff" d="M829.37,-330.35C847.85,-320.84 871.39,-308.74 887.44,-300.48"/>
<polygon fill="#63b8ff" stroke="#63b8ff" points="827.8,-327.22 820.51,-334.9 831,-333.44 827.8,-327.22"/>
</a>
</g>
</g>
<!-- Node25&#45;&gt;Node8 -->
<g id="edge33_Node000025_Node000008" class="edge">
<title>Node25&#45;&gt;Node8</title>
<g id="a_edge33_Node000025_Node000008"><a xlink:title=" ">
<path fill="none" stroke="#63b8ff" d="M636.09,-324.85C642.28,-302.96 650.88,-266.84 650.88,-235 650.88,-235 650.88,-235 650.88,-121 650.88,-77.59 611.35,-37.72 591.28,-20.28"/>
<polygon fill="#63b8ff" stroke="#63b8ff" points="632.79,-323.66 633.31,-334.25 639.5,-325.65 632.79,-323.66"/>
</a>
</g>
</g>
<!-- Node26 -->
<g id="Node000026" class="node">
<title>Node26</title>
<g id="a_Node000026"><a xlink:href="_light_system_8cpp.html" target="_top" xlink:title=" ">
<polygon fill="white" stroke="#666666" points="806.62,-300 717.12,-300 717.12,-280 806.62,-280 806.62,-300"/>
<text text-anchor="middle" x="761.88" y="-286.5" font-family="Helvetica,sans-Serif" font-size="10.00">LightSystem.cpp</text>
</a>
</g>
</g>
<!-- Node25&#45;&gt;Node26 -->
<g id="edge34_Node000025_Node000026" class="edge">
<title>Node25&#45;&gt;Node26</title>
<g id="a_edge34_Node000025_Node000026"><a xlink:title=" ">
<path fill="none" stroke="#63b8ff" d="M663.43,-331.27C686.98,-321.64 717.86,-309.01 738.7,-300.48"/>
<polygon fill="#63b8ff" stroke="#63b8ff" points="662.2,-328 654.27,-335.02 664.85,-334.47 662.2,-328"/>
</a>
</g>
</g>
<!-- Node27&#45;&gt;Node8 -->
<g id="edge36_Node000027_Node000008" class="edge">
<title>Node27&#45;&gt;Node8</title>
<g id="a_edge36_Node000027_Node000008"><a xlink:title=" ">
<path fill="none" stroke="#63b8ff" d="M383.48,-326.09C370.78,-304.84 352.88,-268.87 352.88,-235 352.88,-235 352.88,-235 352.88,-121 352.88,-36.26 482.57,-16.78 545.89,-12.32"/>
<polygon fill="#63b8ff" stroke="#63b8ff" points="380.46,-327.86 388.73,-334.48 386.4,-324.15 380.46,-327.86"/>
</a>
</g>
</g>
<!-- Node28 -->
<g id="Node000028" class="node">
<title>Node28</title>
<g id="a_Node000028"><a xlink:href="_render_system_8cpp.html" target="_top" xlink:title=" ">
<polygon fill="white" stroke="#666666" points="480.5,-300 381.25,-300 381.25,-280 480.5,-280 480.5,-300"/>
<text text-anchor="middle" x="430.88" y="-286.5" font-family="Helvetica,sans-Serif" font-size="10.00">RenderSystem.cpp</text>
</a>
</g>
</g>
<!-- Node27&#45;&gt;Node28 -->
<g id="edge37_Node000027_Node000028" class="edge">
<title>Node27&#45;&gt;Node28</title>
<g id="a_edge37_Node000027_Node000028"><a xlink:title=" ">
<path fill="none" stroke="#63b8ff" d="M408.09,-326.15C413.76,-317.4 420.25,-307.39 424.85,-300.3"/>
<polygon fill="#63b8ff" stroke="#63b8ff" points="405.3,-324.03 402.79,-334.32 411.17,-327.84 405.3,-324.03"/>
</a>
</g>
</g>
<!-- Node30&#45;&gt;Node8 -->
<g id="edge40_Node000030_Node000008" class="edge">
<title>Node30&#45;&gt;Node8</title>
<g id="a_edge40_Node000030_Node000008"><a xlink:title=" ">
<path fill="none" stroke="#63b8ff" d="M499.77,-324.41C503.6,-302.37 508.88,-266.35 508.88,-235 508.88,-235 508.88,-235 508.88,-121 508.88,-77.59 548.4,-37.72 568.47,-20.28"/>
<polygon fill="#63b8ff" stroke="#63b8ff" points="496.35,-323.67 498.01,-334.14 503.24,-324.92 496.35,-323.67"/>
</a>
</g>
</g>
<!-- Node31 -->
<g id="Node000031" class="node">
<title>Node31</title>
<g id="a_Node000031"><a xlink:href="_sun_system_8cpp.html" target="_top" xlink:title=" ">
<polygon fill="white" stroke="#666666" points="622.75,-300 537,-300 537,-280 622.75,-280 622.75,-300"/>
<text text-anchor="middle" x="579.88" y="-286.5" font-family="Helvetica,sans-Serif" font-size="10.00">SunSystem.cpp</text>
</a>
</g>
</g>
<!-- Node30&#45;&gt;Node31 -->
<g id="edge41_Node000030_Node000031" class="edge">
<title>Node30&#45;&gt;Node31</title>
<g id="a_edge41_Node000030_Node000031"><a xlink:title=" ">
<path fill="none" stroke="#63b8ff" d="M519.92,-329.54C534.5,-320.17 552.64,-308.51 565.13,-300.48"/>
<polygon fill="#63b8ff" stroke="#63b8ff" points="518.3,-326.42 511.78,-334.78 522.08,-332.31 518.3,-326.42"/>
</a>
</g>
</g>
<!-- Node33&#45;&gt;Node11 -->
<g id="edge44_Node000033_Node000011" class="edge">
<title>Node33&#45;&gt;Node11</title>
<g id="a_edge44_Node000033_Node000011"><a xlink:title=" ">
<path fill="none" stroke="#63b8ff" d="M1168.45,-381.58C1163.82,-372.97 1158.6,-363.24 1154.87,-356.3"/>
<polygon fill="#63b8ff" stroke="#63b8ff" points="1165.29,-383.11 1173.11,-390.26 1171.46,-379.79 1165.29,-383.11"/>
</a>
</g>
</g>
<!-- Node33&#45;&gt;Node13 -->
<g id="edge45_Node000033_Node000013" class="edge">
<title>Node33&#45;&gt;Node13</title>
<g id="a_edge45_Node000033_Node000013"><a xlink:title=" ">
<path fill="none" stroke="#63b8ff" d="M1234.84,-390.86C1271.21,-383 1313.85,-370.94 1324.88,-356 1330.15,-348.85 1330.33,-343.02 1324.88,-336 1310.17,-317.07 1250.88,-304.75 1205.14,-297.87"/>
<polygon fill="#63b8ff" stroke="#63b8ff" points="1234.35,-387.38 1225.27,-392.85 1235.78,-394.24 1234.35,-387.38"/>
</a>
</g>
</g>
<!-- Node34 -->
<g id="Node000034" class="node">
<title>Node34</title>
<g id="a_Node000034"><a xlink:href="_texture_factory_8cpp.html" target="_top" xlink:title=" ">
<polygon fill="white" stroke="#666666" points="1315.88,-356 1215.88,-356 1215.88,-336 1315.88,-336 1315.88,-356"/>
<text text-anchor="middle" x="1265.88" y="-342.5" font-family="Helvetica,sans-Serif" font-size="10.00">TextureFactory.cpp</text>
</a>
</g>
</g>
<!-- Node33&#45;&gt;Node34 -->
<g id="edge46_Node000033_Node000034" class="edge">
<title>Node33&#45;&gt;Node34</title>
<g id="a_edge46_Node000033_Node000034"><a xlink:title=" ">
<path fill="none" stroke="#63b8ff" d="M1203.78,-385.54C1218.88,-376.17 1237.67,-364.51 1250.6,-356.48"/>
<polygon fill="#63b8ff" stroke="#63b8ff" points="1201.97,-382.55 1195.32,-390.8 1205.66,-388.5 1201.97,-382.55"/>
</a>
</g>
</g>
<!-- Node35&#45;&gt;Node11 -->
<g id="edge48_Node000035_Node000011" class="edge">
<title>Node35&#45;&gt;Node11</title>
<g id="a_edge48_Node000035_Node000011"><a xlink:title=" ">
<path fill="none" stroke="#63b8ff" d="M1131.56,-437.7C1125.95,-424.77 1120.89,-407.37 1124.88,-392 1128.33,-378.68 1136.67,-365.1 1142.78,-356.39"/>
<polygon fill="#63b8ff" stroke="#63b8ff" points="1128.26,-438.91 1135.76,-446.38 1134.56,-435.86 1128.26,-438.91"/>
</a>
</g>
</g>
<!-- Node35&#45;&gt;Node33 -->
<g id="edge57_Node000035_Node000033" class="edge">
<title>Node35&#45;&gt;Node33</title>
<g id="a_edge57_Node000035_Node000033"><a xlink:title=" ">
<path fill="none" stroke="#63b8ff" d="M1154.79,-438.15C1160.78,-429.4 1167.64,-419.39 1172.5,-412.3"/>
<polygon fill="#63b8ff" stroke="#63b8ff" points="1151.94,-436.12 1149.18,-446.35 1157.72,-440.07 1151.94,-436.12"/>
</a>
</g>
</g>
<!-- Node36 -->
<g id="Node000036" class="node">
<title>Node36</title>
<g id="a_Node000036"><a xlink:href="_hud_items_manager_8h.html" target="_top" xlink:title="@TODO Add description of this file if needed">
<polygon fill="white" stroke="#666666" points="1040.38,-412 937.38,-412 937.38,-392 1040.38,-392 1040.38,-412"/>
<text text-anchor="middle" x="988.88" y="-398.5" font-family="Helvetica,sans-Serif" font-size="10.00">HudItemsManager.h</text>
</a>
</g>
</g>
<!-- Node35&#45;&gt;Node36 -->
<g id="edge49_Node000035_Node000036" class="edge">
<title>Node35&#45;&gt;Node36</title>
<g id="a_edge49_Node000035_Node000036"><a xlink:title=" ">
<path fill="none" stroke="#63b8ff" d="M1104.45,-443.79C1076.99,-434.1 1040.33,-421.16 1015.73,-412.48"/>
<polygon fill="#63b8ff" stroke="#63b8ff" points="1103.2,-447.06 1113.8,-447.09 1105.53,-440.46 1103.2,-447.06"/>
</a>
</g>
</g>
<!-- Node38 -->
<g id="Node000038" class="node">
<title>Node38</title>
<g id="a_Node000038"><a xlink:href="_texture_8cpp.html" target="_top" xlink:title=" ">
<polygon fill="white" stroke="#666666" points="1308.38,-412 1241.38,-412 1241.38,-392 1308.38,-392 1308.38,-412"/>
<text text-anchor="middle" x="1274.88" y="-398.5" font-family="Helvetica,sans-Serif" font-size="10.00">Texture.cpp</text>
</a>
</g>
</g>
<!-- Node35&#45;&gt;Node38 -->
<g id="edge56_Node000035_Node000038" class="edge">
<title>Node35&#45;&gt;Node38</title>
<g id="a_edge56_Node000035_Node000038"><a xlink:title=" ">
<path fill="none" stroke="#63b8ff" d="M1175.69,-443.27C1199.41,-433.64 1230.52,-421.01 1251.53,-412.48"/>
<polygon fill="#63b8ff" stroke="#63b8ff" points="1174.39,-440.02 1166.44,-447.02 1177.03,-446.51 1174.39,-440.02"/>
</a>
</g>
</g>
<!-- Node36&#45;&gt;Node11 -->
<g id="edge51_Node000036_Node000011" class="edge">
<title>Node36&#45;&gt;Node11</title>
<g id="a_edge51_Node000036_Node000011"><a xlink:title=" ">
<path fill="none" stroke="#63b8ff" d="M1027.49,-388.05C1056.47,-378.33 1095.5,-365.24 1121.61,-356.48"/>
<polygon fill="#63b8ff" stroke="#63b8ff" points="1026.72,-384.61 1018.35,-391.11 1028.95,-391.25 1026.72,-384.61"/>
</a>
</g>
</g>
<!-- Node36&#45;&gt;Node12 -->
<g id="edge50_Node000036_Node000012" class="edge">
<title>Node36&#45;&gt;Node12</title>
<g id="a_edge50_Node000036_Node000012"><a xlink:title=" ">
<path fill="none" stroke="#63b8ff" d="M1023.14,-386.19C1035.45,-378.99 1047.99,-369.03 1054.88,-356 1065.28,-336.31 1045.78,-312.97 1032.58,-300.31"/>
<polygon fill="#63b8ff" stroke="#63b8ff" points="1021.5,-383.1 1014.31,-390.89 1024.78,-389.28 1021.5,-383.1"/>
</a>
</g>
</g>
<!-- Node36&#45;&gt;Node24 -->
<g id="edge52_Node000036_Node000024" class="edge">
<title>Node36&#45;&gt;Node24</title>
<g id="a_edge52_Node000036_Node000024"><a xlink:title=" ">
<path fill="none" stroke="#63b8ff" d="M957.96,-386.2C945.39,-378.76 931.77,-368.61 922.88,-356 910.78,-338.84 907.29,-313.68 906.28,-300.25"/>
<polygon fill="#63b8ff" stroke="#63b8ff" points="955.94,-389.08 966.38,-390.86 959.32,-382.96 955.94,-389.08"/>
</a>
</g>
</g>
<!-- Node36&#45;&gt;Node26 -->
<g id="edge54_Node000036_Node000026" class="edge">
<title>Node36&#45;&gt;Node26</title>
<g id="a_edge54_Node000036_Node000026"><a xlink:title=" ">
<path fill="none" stroke="#63b8ff" d="M925.82,-393.04C860.3,-384.13 765.77,-369.19 754.88,-356 741.72,-340.07 750.81,-313.94 757.16,-300.16"/>
<polygon fill="#63b8ff" stroke="#63b8ff" points="925.01,-396.46 935.38,-394.33 925.94,-389.52 925.01,-396.46"/>
</a>
</g>
</g>
<!-- Node36&#45;&gt;Node31 -->
<g id="edge55_Node000036_Node000031" class="edge">
<title>Node36&#45;&gt;Node31</title>
<g id="a_edge55_Node000036_Node000031"><a xlink:title=" ">
<path fill="none" stroke="#63b8ff" d="M925.66,-394.54C812.04,-382.86 584.77,-359.13 581.88,-356 567.93,-340.91 572.8,-314.42 576.78,-300.37"/>
<polygon fill="#63b8ff" stroke="#63b8ff" points="925.14,-398 935.45,-395.54 925.86,-391.04 925.14,-398"/>
</a>
</g>
</g>
<!-- Node37 -->
<g id="Node000037" class="node">
<title>Node37</title>
<g id="a_Node000037"><a xlink:href="_hud_items_manager_8cpp.html" target="_top" xlink:title=" ">
<polygon fill="white" stroke="#666666" points="1045.62,-356 932.12,-356 932.12,-336 1045.62,-336 1045.62,-356"/>
<text text-anchor="middle" x="988.88" y="-342.5" font-family="Helvetica,sans-Serif" font-size="10.00">HudItemsManager.cpp</text>
</a>
</g>
</g>
<!-- Node36&#45;&gt;Node37 -->
<g id="edge53_Node000036_Node000037" class="edge">
<title>Node36&#45;&gt;Node37</title>
<g id="a_edge53_Node000036_Node000037"><a xlink:title=" ">
<path fill="none" stroke="#63b8ff" d="M988.88,-380.13C988.88,-371.9 988.88,-362.85 988.88,-356.3"/>
<polygon fill="#63b8ff" stroke="#63b8ff" points="985.38,-380.08 988.88,-390.08 992.38,-380.08 985.38,-380.08"/>
</a>
</g>
</g>
</g>
</svg>
