<?xml version="1.0" encoding="UTF-8" standalone="no"?>
<!DOCTYPE svg PUBLIC "-//W3C//DTD SVG 1.1//EN"
 "http://www.w3.org/Graphics/SVG/1.1/DTD/svg11.dtd">
<!-- Generated by graphviz version 11.0.0 (20240428.1522)
 -->
<!-- Title: TextureLoader.h Pages: 1 -->
<svg width="222pt" height="84pt"
 viewBox="0.00 0.00 222.12 84.00" xmlns="http://www.w3.org/2000/svg" xmlns:xlink="http://www.w3.org/1999/xlink">
<g id="graph0" class="graph" transform="scale(1 1) rotate(0) translate(4 80)">
<title>TextureLoader.h</title>
<!-- Node1 -->
<g id="Node000001" class="node">
<title>Node1</title>
<g id="a_Node000001"><a xlink:title="@TODO Add description of this file if needed">
<polygon fill="#999999" stroke="#666666" points="149,-76 63.25,-76 63.25,-56 149,-56 149,-76"/>
<text text-anchor="middle" x="106.12" y="-62.5" font-family="Helvetica,sans-Serif" font-size="10.00">TextureLoader.h</text>
</a>
</g>
</g>
<!-- Node2 -->
<g id="Node000002" class="node">
<title>Node2</title>
<g id="a_Node000002"><a xlink:href="_texture_loader_8cpp.html" target="_top" xlink:title=" ">
<polygon fill="white" stroke="#666666" points="96.25,-20 0,-20 0,0 96.25,0 96.25,-20"/>
<text text-anchor="middle" x="48.12" y="-6.5" font-family="Helvetica,sans-Serif" font-size="10.00">TextureLoader.cpp</text>
</a>
</g>
</g>
<!-- Node1&#45;&gt;Node2 -->
<g id="edge1_Node000001_Node000002" class="edge">
<title>Node1&#45;&gt;Node2</title>
<g id="a_edge1_Node000001_Node000002"><a xlink:title=" ">
<path fill="none" stroke="#63b8ff" d="M87.7,-47.85C77.9,-38.72 66.23,-27.86 58.11,-20.3"/>
<polygon fill="#63b8ff" stroke="#63b8ff" points="85.21,-50.31 94.91,-54.56 89.98,-45.19 85.21,-50.31"/>
</a>
</g>
</g>
<!-- Node3 -->
<g id="Node000003" class="node">
<title>Node3</title>
<g id="a_Node000003"><a xlink:href="_texture_surface_8cpp.html" target="_top" xlink:title="@TODO Add description of this file if needed">
<polygon fill="white" stroke="#666666" points="214.12,-20 114.12,-20 114.12,0 214.12,0 214.12,-20"/>
<text text-anchor="middle" x="164.12" y="-6.5" font-family="Helvetica,sans-Serif" font-size="10.00">TextureSurface.cpp</text>
</a>
</g>
</g>
<!-- Node1&#45;&gt;Node3 -->
<g id="edge2_Node000001_Node000003" class="edge">
<title>Node1&#45;&gt;Node3</title>
<g id="a_edge2_Node000001_Node000003"><a xlink:title=" ">
<path fill="none" stroke="#63b8ff" d="M124.55,-47.85C134.35,-38.72 146.02,-27.86 154.14,-20.3"/>
<polygon fill="#63b8ff" stroke="#63b8ff" points="122.27,-45.19 117.34,-54.56 127.04,-50.31 122.27,-45.19"/>
</a>
</g>
</g>
</g>
</svg>
