<?xml version="1.0" encoding="UTF-8" standalone="no"?>
<!DOCTYPE svg PUBLIC "-//W3C//DTD SVG 1.1//EN"
 "http://www.w3.org/Graphics/SVG/1.1/DTD/svg11.dtd">
<!-- Generated by graphviz version 11.0.0 (20240428.1522)
 -->
<!-- Title: TextureAdapter.h Pages: 1 -->
<!--zoomable 356 -->

<svg id="main" version="1.1" xmlns="http://www.w3.org/2000/svg" xmlns:xlink="http://www.w3.org/1999/xlink" xml:space="preserve" onload="init(evt)">
<style type="text/css"><![CDATA[
.node, .edge {opacity: 0.7;}
.node.selected, .edge.selected {opacity: 1;}
.edge:hover path { stroke: red; }
.edge:hover polygon { stroke: red; fill: red; }
]]></style>

<defs>
  <circle id="rim" cx="0" cy="0" r="7"/>
  <circle id="rim2" cx="0" cy="0" r="3.5"/>
  <g id="zoomPlus">
    <use xlink:href="#rim" fill="#404040"><set attributeName="fill" to="#808080" begin="zoomplus.mouseover" end="zoomplus.mouseout"/></use>
    <path d="M-4,0h8M0,-4v8" fill="none" stroke="white" stroke-width="1.5" pointer-events="none"/>
  </g>
  <g id="zoomMin">
    <use xlink:href="#rim" fill="#404040"><set attributeName="fill" to="#808080" begin="zoomminus.mouseover" end="zoomminus.mouseout"/></use>
    <path d="M-4,0h8" fill="none" stroke="white" stroke-width="1.5" pointer-events="none"/>
  </g>
  <g id="arrowUp" transform="translate(30 24)">
    <use xlink:href="#rim"/>
    <path pointer-events="none" fill="none" stroke="white" stroke-width="1.5" d="M0,-3.0v7 M-2.5,-0.5L0,-3.0L2.5,-0.5"/>
  </g>
  <g id="arrowRight" transform="rotate(90) translate(36 -43)">
    <use xlink:href="#rim"/>
    <path pointer-events="none" fill="none" stroke="white" stroke-width="1.5" d="M0,-3.0v7 M-2.5,-0.5L0,-3.0L2.5,-0.5"/>
  </g>
  <g id="arrowDown" transform="rotate(180) translate(-30 -48)">
    <use xlink:href="#rim"/>
    <path pointer-events="none" fill="none" stroke="white" stroke-width="1.5" d="M0,-3.0v7 M-2.5,-0.5L0,-3.0L2.5,-0.5"/>
  </g>
  <g id="arrowLeft" transform="rotate(270) translate(-36 17)">
    <use xlink:href="#rim"/>
    <path pointer-events="none" fill="none" stroke="white" stroke-width="1.5" d="M0,-3.0v7 M-2.5,-0.5L0,-3.0L2.5,-0.5"/>
  </g>
  <g id="resetDef">
    <use xlink:href="#rim2" fill="#404040"><set attributeName="fill" to="#808080" begin="reset.mouseover" end="reset.mouseout"/></use>
  </g>
</defs>
<script type="application/ecmascript">
var viewWidth = 1097;
var viewHeight = 356;
var sectionId = 'dynsection-0';
</script>
<script type="application/ecmascript" xlink:href="svg.min.js"/>
<svg id="graph" class="graph">
<g id="viewport">
<title>TextureAdapter.h</title>
<!-- Node1 -->
<g id="Node000001" class="node">
<title>Node1</title>
<g id="a_Node000001"><a xlink:title="@TODO Add description of this file if needed">
<polygon fill="#999999" stroke="#666666" points="616.75,-348 526.5,-348 526.5,-328 616.75,-328 616.75,-348"/>
<text text-anchor="middle" x="571.62" y="-334.5" font-family="Helvetica,sans-Serif" font-size="10.00">TextureAdapter.h</text>
</a>
</g>
</g>
<!-- Node2 -->
<g id="Node000002" class="node">
<title>Node2</title>
<g id="a_Node000002"><a xlink:href="_asserts_8h.html" target="_top" xlink:title="Set of macros for runtime and compile time assertions.">
<polygon fill="white" stroke="#666666" points="426.38,-286 324.88,-286 324.88,-254 426.38,-254 426.38,-286"/>
<text text-anchor="start" x="332.88" y="-272.5" font-family="Helvetica,sans-Serif" font-size="10.00">engine/core/asserts</text>
<text text-anchor="middle" x="375.62" y="-260.5" font-family="Helvetica,sans-Serif" font-size="10.00">/Asserts.h</text>
</a>
</g>
</g>
<!-- Node1&#45;&gt;Node2 -->
<g id="edge1_Node000001_Node000002" class="edge">
<title>Node1&#45;&gt;Node2</title>
<g id="a_edge1_Node000001_Node000002"><a xlink:title=" ">
<path fill="none" stroke="#63b8ff" d="M543.54,-327.54C514.54,-317.78 468.5,-302.28 431.96,-289.97"/>
<polygon fill="#63b8ff" stroke="#63b8ff" points="433.47,-286.79 422.88,-286.91 431.24,-293.42 433.47,-286.79"/>
</a>
</g>
</g>
<!-- Node27 -->
<g id="Node000027" class="node">
<title>Node27</title>
<g id="a_Node000027"><a xlink:href="_gapi_enums_8h.html" target="_top" xlink:title="@TODO Add description of this file if needed">
<polygon fill="white" stroke="#666666" points="624.25,-292 519,-292 519,-248 624.25,-248 624.25,-292"/>
<text text-anchor="start" x="527" y="-278.5" font-family="Helvetica,sans-Serif" font-size="10.00">engine/core/low&#45;level</text>
<text text-anchor="start" x="527" y="-266.5" font-family="Helvetica,sans-Serif" font-size="10.00">&#45;renderer/graphic&#45;api</text>
<text text-anchor="middle" x="571.62" y="-254.5" font-family="Helvetica,sans-Serif" font-size="10.00">/GapiEnums.h</text>
</a>
</g>
</g>
<!-- Node1&#45;&gt;Node27 -->
<g id="edge33_Node000001_Node000027" class="edge">
<title>Node1&#45;&gt;Node27</title>
<g id="a_edge33_Node000001_Node000027"><a xlink:title=" ">
<path fill="none" stroke="#63b8ff" d="M571.62,-327.54C571.62,-321.2 571.62,-312.43 571.62,-303.69"/>
<polygon fill="#63b8ff" stroke="#63b8ff" points="575.13,-303.94 571.63,-293.94 568.13,-303.94 575.13,-303.94"/>
</a>
</g>
</g>
<!-- Node29 -->
<g id="Node000029" class="node">
<title>Node29</title>
<g id="a_Node000029"><a xlink:href="_texture_enums_8h.html" target="_top" xlink:title="@TODO Add description of this file if needed">
<polygon fill="white" stroke="#666666" points="763.12,-286 642.12,-286 642.12,-254 763.12,-254 763.12,-286"/>
<text text-anchor="start" x="650.12" y="-272.5" font-family="Helvetica,sans-Serif" font-size="10.00">engine/res&#45;mng/textures</text>
<text text-anchor="middle" x="702.62" y="-260.5" font-family="Helvetica,sans-Serif" font-size="10.00">/TextureEnums.h</text>
</a>
</g>
</g>
<!-- Node1&#45;&gt;Node29 -->
<g id="edge35_Node000001_Node000029" class="edge">
<title>Node1&#45;&gt;Node29</title>
<g id="a_edge35_Node000001_Node000029"><a xlink:title=" ">
<path fill="none" stroke="#63b8ff" d="M590.39,-327.54C608.94,-318.2 637.93,-303.6 661.79,-291.57"/>
<polygon fill="#63b8ff" stroke="#63b8ff" points="663.3,-294.73 670.65,-287.11 660.15,-288.48 663.3,-294.73"/>
</a>
</g>
</g>
<!-- Node3 -->
<g id="Node000003" class="node">
<title>Node3</title>
<g id="a_Node000003"><a xlink:title=" ">
<polygon fill="#e0e0e0" stroke="#999999" points="530.12,-206 487.12,-206 487.12,-186 530.12,-186 530.12,-206"/>
<text text-anchor="middle" x="508.62" y="-192.5" font-family="Helvetica,sans-Serif" font-size="10.00">cmath</text>
</a>
</g>
</g>
<!-- Node2&#45;&gt;Node3 -->
<g id="edge2_Node000002_Node000003" class="edge">
<title>Node2&#45;&gt;Node3</title>
<g id="a_edge2_Node000002_Node000003"><a xlink:title=" ">
<path fill="none" stroke="#63b8ff" d="M404.16,-253.55C426.96,-241.21 458.71,-224.02 481.21,-211.84"/>
<polygon fill="#63b8ff" stroke="#63b8ff" points="482.67,-215.03 489.8,-207.19 479.34,-208.87 482.67,-215.03"/>
</a>
</g>
</g>
<!-- Node4 -->
<g id="Node000004" class="node">
<title>Node4</title>
<g id="a_Node000004"><a xlink:title=" ">
<polygon fill="#e0e0e0" stroke="#999999" points="587.25,-206 548,-206 548,-186 587.25,-186 587.25,-206"/>
<text text-anchor="middle" x="567.62" y="-192.5" font-family="Helvetica,sans-Serif" font-size="10.00">limits</text>
</a>
</g>
</g>
<!-- Node2&#45;&gt;Node4 -->
<g id="edge3_Node000002_Node000004" class="edge">
<title>Node2&#45;&gt;Node4</title>
<g id="a_edge3_Node000002_Node000004"><a xlink:title=" ">
<path fill="none" stroke="#63b8ff" d="M426.66,-253.55C459.43,-243.07 502.63,-228.22 539.62,-212 539.98,-211.85 540.33,-211.69 540.68,-211.53"/>
<polygon fill="#63b8ff" stroke="#63b8ff" points="542.17,-214.7 549.6,-207.15 539.08,-208.42 542.17,-214.7"/>
</a>
</g>
</g>
<!-- Node5 -->
<g id="Node000005" class="node">
<title>Node5</title>
<g id="a_Node000005"><a xlink:title=" ">
<polygon fill="#e0e0e0" stroke="#999999" points="503.62,-20 463.62,-20 463.62,0 503.62,0 503.62,-20"/>
<text text-anchor="middle" x="483.62" y="-6.5" font-family="Helvetica,sans-Serif" font-size="10.00">string</text>
</a>
</g>
</g>
<!-- Node2&#45;&gt;Node5 -->
<g id="edge4_Node000002_Node000005" class="edge">
<title>Node2&#45;&gt;Node5</title>
<g id="a_edge4_Node000002_Node000005"><a xlink:title=" ">
<path fill="none" stroke="#63b8ff" d="M330.21,-253.54C263.21,-228.21 150.32,-174.41 194.62,-112 254.47,-27.69 390.24,-13.19 451.99,-11.09"/>
<polygon fill="#63b8ff" stroke="#63b8ff" points="451.88,-14.59 461.8,-10.85 451.72,-7.6 451.88,-14.59"/>
</a>
</g>
</g>
<!-- Node6 -->
<g id="Node000006" class="node">
<title>Node6</title>
<g id="a_Node000006"><a xlink:title=" ">
<polygon fill="#e0e0e0" stroke="#999999" points="265.5,-138 203.75,-138 203.75,-118 265.5,-118 265.5,-138"/>
<text text-anchor="middle" x="234.62" y="-124.5" font-family="Helvetica,sans-Serif" font-size="10.00">type_traits</text>
</a>
</g>
</g>
<!-- Node2&#45;&gt;Node6 -->
<g id="edge5_Node000002_Node000006" class="edge">
<title>Node2&#45;&gt;Node6</title>
<g id="a_edge5_Node000002_Node000006"><a xlink:title=" ">
<path fill="none" stroke="#63b8ff" d="M352.46,-253.66C336.99,-242.89 316.64,-227.67 300.62,-212 279.94,-191.77 259.78,-165.1 247.3,-147.52"/>
<polygon fill="#63b8ff" stroke="#63b8ff" points="250.35,-145.77 241.75,-139.58 244.61,-149.78 250.35,-145.77"/>
</a>
</g>
</g>
<!-- Node7 -->
<g id="Node000007" class="node">
<title>Node7</title>
<g id="a_Node000007"><a xlink:title=" ">
<polygon fill="#e0e0e0" stroke="#999999" points="335.25,-138 284,-138 284,-118 335.25,-118 335.25,-138"/>
<text text-anchor="middle" x="309.62" y="-124.5" font-family="Helvetica,sans-Serif" font-size="10.00">sstream</text>
</a>
</g>
</g>
<!-- Node2&#45;&gt;Node7 -->
<g id="edge6_Node000002_Node000007" class="edge">
<title>Node2&#45;&gt;Node7</title>
<g id="a_edge6_Node000002_Node000007"><a xlink:title=" ">
<path fill="none" stroke="#63b8ff" d="M349.95,-253.69C335.88,-243.75 319.69,-229.42 311.62,-212 302.46,-192.21 303.43,-166.83 305.76,-149.37"/>
<polygon fill="#63b8ff" stroke="#63b8ff" points="309.17,-150.18 307.32,-139.75 302.26,-149.06 309.17,-150.18"/>
</a>
</g>
</g>
<!-- Node8 -->
<g id="Node000008" class="node">
<title>Node8</title>
<g id="a_Node000008"><a xlink:href="_assert_failed_exception_8h.html" target="_top" xlink:title="@TODO Add description of this file if needed">
<polygon fill="white" stroke="#666666" points="147.25,-212 0,-212 0,-180 147.25,-180 147.25,-212"/>
<text text-anchor="start" x="8" y="-198.5" font-family="Helvetica,sans-Serif" font-size="10.00">engine/core/exceptions</text>
<text text-anchor="middle" x="73.62" y="-186.5" font-family="Helvetica,sans-Serif" font-size="10.00">/core/AssertFailedException.h</text>
</a>
</g>
</g>
<!-- Node2&#45;&gt;Node8 -->
<g id="edge7_Node000002_Node000008" class="edge">
<title>Node2&#45;&gt;Node8</title>
<g id="a_edge7_Node000002_Node000008"><a xlink:title=" ">
<path fill="none" stroke="#63b8ff" d="M324.39,-256.79C276.45,-245.36 204.23,-228.14 149.59,-215.11"/>
<polygon fill="#63b8ff" stroke="#63b8ff" points="150.57,-211.75 140.03,-212.83 148.94,-218.55 150.57,-211.75"/>
</a>
</g>
</g>
<!-- Node12 -->
<g id="Node000012" class="node">
<title>Node12</title>
<g id="a_Node000012"><a xlink:href="_stringer_8h.html" target="_top" xlink:title="A set of functions for converting objects to strings.">
<polygon fill="white" stroke="#666666" points="430.12,-212 321.12,-212 321.12,-180 430.12,-180 430.12,-212"/>
<text text-anchor="start" x="329.12" y="-198.5" font-family="Helvetica,sans-Serif" font-size="10.00">engine/core/debugger</text>
<text text-anchor="middle" x="375.62" y="-186.5" font-family="Helvetica,sans-Serif" font-size="10.00">/Stringer.h</text>
</a>
</g>
</g>
<!-- Node2&#45;&gt;Node12 -->
<g id="edge12_Node000002_Node000012" class="edge">
<title>Node2&#45;&gt;Node12</title>
<g id="a_edge12_Node000002_Node000012"><a xlink:title=" ">
<path fill="none" stroke="#63b8ff" d="M375.62,-253.73C375.62,-244.95 375.62,-233.67 375.62,-223.49"/>
<polygon fill="#63b8ff" stroke="#63b8ff" points="379.13,-223.76 375.63,-213.76 372.13,-223.76 379.13,-223.76"/>
</a>
</g>
</g>
<!-- Node16 -->
<g id="Node000016" class="node">
<title>Node16</title>
<g id="a_Node000016"><a xlink:href="_logger_8h.html" target="_top" xlink:title="@TODO Add description of this file if needed">
<polygon fill="white" stroke="#666666" points="806.38,-144 710.88,-144 710.88,-112 806.38,-112 806.38,-144"/>
<text text-anchor="start" x="718.88" y="-130.5" font-family="Helvetica,sans-Serif" font-size="10.00">engine/core/logger</text>
<text text-anchor="middle" x="758.62" y="-118.5" font-family="Helvetica,sans-Serif" font-size="10.00">/Logger.h</text>
</a>
</g>
</g>
<!-- Node2&#45;&gt;Node16 -->
<g id="edge19_Node000002_Node000016" class="edge">
<title>Node2&#45;&gt;Node16</title>
<g id="a_edge19_Node000002_Node000016"><a xlink:title=" ">
<path fill="none" stroke="#63b8ff" d="M392.29,-253.74C418.83,-229.58 468.71,-184.74 478.62,-180 549.55,-146.05 640.5,-134.6 699.17,-130.8"/>
<polygon fill="#63b8ff" stroke="#63b8ff" points="699.17,-134.31 708.94,-130.22 698.76,-127.32 699.17,-134.31"/>
</a>
</g>
</g>
<!-- Node9 -->
<g id="Node000009" class="node">
<title>Node9</title>
<g id="a_Node000009"><a xlink:href="_engine_exception_8h.html" target="_top" xlink:title="Base exception class for any exception in the engine.">
<polygon fill="white" stroke="#666666" points="139.88,-144 23.38,-144 23.38,-112 139.88,-112 139.88,-144"/>
<text text-anchor="start" x="31.38" y="-130.5" font-family="Helvetica,sans-Serif" font-size="10.00">engine/core/exceptions</text>
<text text-anchor="middle" x="81.62" y="-118.5" font-family="Helvetica,sans-Serif" font-size="10.00">/EngineException.h</text>
</a>
</g>
</g>
<!-- Node8&#45;&gt;Node9 -->
<g id="edge8_Node000008_Node000009" class="edge">
<title>Node8&#45;&gt;Node9</title>
<g id="a_edge8_Node000008_Node000009"><a xlink:title=" ">
<path fill="none" stroke="#63b8ff" d="M75.48,-179.69C76.35,-172.53 77.41,-163.79 78.4,-155.59"/>
<polygon fill="#63b8ff" stroke="#63b8ff" points="81.87,-156.08 79.6,-145.73 74.92,-155.23 81.87,-156.08"/>
</a>
</g>
</g>
<!-- Node10 -->
<g id="Node000010" class="node">
<title>Node10</title>
<g id="a_Node000010"><a xlink:href="_base_exception_8h.html" target="_top" xlink:title=" ">
<polygon fill="white" stroke="#666666" points="141.75,-76 51.5,-76 51.5,-56 141.75,-56 141.75,-76"/>
<text text-anchor="middle" x="96.62" y="-62.5" font-family="Helvetica,sans-Serif" font-size="10.00">BaseException.h</text>
</a>
</g>
</g>
<!-- Node9&#45;&gt;Node10 -->
<g id="edge9_Node000009_Node000010" class="edge">
<title>Node9&#45;&gt;Node10</title>
<g id="a_edge9_Node000009_Node000010"><a xlink:title=" ">
<path fill="none" stroke="#63b8ff" d="M85.49,-111.55C87.33,-104.17 89.56,-95.24 91.54,-87.32"/>
<polygon fill="#63b8ff" stroke="#63b8ff" points="94.88,-88.43 93.91,-77.88 88.08,-86.73 94.88,-88.43"/>
</a>
</g>
</g>
<!-- Node10&#45;&gt;Node5 -->
<g id="edge11_Node000010_Node000005" class="edge">
<title>Node10&#45;&gt;Node5</title>
<g id="a_edge11_Node000010_Node000005"><a xlink:title=" ">
<path fill="none" stroke="#63b8ff" d="M142.16,-58.65C221.7,-47.55 383.99,-24.9 452.26,-15.38"/>
<polygon fill="#63b8ff" stroke="#63b8ff" points="452.58,-18.87 462,-14.02 451.61,-11.93 452.58,-18.87"/>
</a>
</g>
</g>
<!-- Node11 -->
<g id="Node000011" class="node">
<title>Node11</title>
<g id="a_Node000011"><a xlink:title=" ">
<polygon fill="#e0e0e0" stroke="#999999" points="126,-20 67.25,-20 67.25,0 126,0 126,-20"/>
<text text-anchor="middle" x="96.62" y="-6.5" font-family="Helvetica,sans-Serif" font-size="10.00">stdexcept</text>
</a>
</g>
</g>
<!-- Node10&#45;&gt;Node11 -->
<g id="edge10_Node000010_Node000011" class="edge">
<title>Node10&#45;&gt;Node11</title>
<g id="a_edge10_Node000010_Node000011"><a xlink:title=" ">
<path fill="none" stroke="#63b8ff" d="M96.62,-55.59C96.62,-49.01 96.62,-39.96 96.62,-31.73"/>
<polygon fill="#63b8ff" stroke="#63b8ff" points="100.13,-31.81 96.63,-21.81 93.13,-31.81 100.13,-31.81"/>
</a>
</g>
</g>
<!-- Node12&#45;&gt;Node5 -->
<g id="edge13_Node000012_Node000005" class="edge">
<title>Node12&#45;&gt;Node5</title>
<g id="a_edge13_Node000012_Node000005"><a xlink:title=" ">
<path fill="none" stroke="#63b8ff" d="M419.64,-179.53C436.3,-171.48 453.83,-159.92 464.62,-144 487.79,-109.86 488.01,-59.39 485.94,-31.46"/>
<polygon fill="#63b8ff" stroke="#63b8ff" points="489.46,-31.5 485.04,-21.87 482.49,-32.15 489.46,-31.5"/>
</a>
</g>
</g>
<!-- Node12&#45;&gt;Node6 -->
<g id="edge15_Node000012_Node000006" class="edge">
<title>Node12&#45;&gt;Node6</title>
<g id="a_edge15_Node000012_Node000006"><a xlink:title=" ">
<path fill="none" stroke="#63b8ff" d="M342.57,-179.53C319.1,-168.54 287.83,-153.9 264.99,-143.21"/>
<polygon fill="#63b8ff" stroke="#63b8ff" points="266.75,-140.17 256.21,-139.1 263.78,-146.51 266.75,-140.17"/>
</a>
</g>
</g>
<!-- Node12&#45;&gt;Node7 -->
<g id="edge14_Node000012_Node000007" class="edge">
<title>Node12&#45;&gt;Node7</title>
<g id="a_edge14_Node000012_Node000007"><a xlink:title=" ">
<path fill="none" stroke="#63b8ff" d="M360.32,-179.69C350.32,-169.7 337.25,-156.63 326.88,-146.26"/>
<polygon fill="#63b8ff" stroke="#63b8ff" points="329.56,-143.98 320.01,-139.39 324.61,-148.93 329.56,-143.98"/>
</a>
</g>
</g>
<!-- Node13 -->
<g id="Node000013" class="node">
<title>Node13</title>
<g id="a_Node000013"><a xlink:title=" ">
<polygon fill="#e0e0e0" stroke="#999999" points="561.5,-138 511.75,-138 511.75,-118 561.5,-118 561.5,-138"/>
<text text-anchor="middle" x="536.62" y="-124.5" font-family="Helvetica,sans-Serif" font-size="10.00">iomanip</text>
</a>
</g>
</g>
<!-- Node12&#45;&gt;Node13 -->
<g id="edge16_Node000012_Node000013" class="edge">
<title>Node12&#45;&gt;Node13</title>
<g id="a_edge16_Node000012_Node000013"><a xlink:title=" ">
<path fill="none" stroke="#63b8ff" d="M413.37,-179.53C440.53,-168.39 476.85,-153.51 503.01,-142.78"/>
<polygon fill="#63b8ff" stroke="#63b8ff" points="504.22,-146.07 512.15,-139.03 501.57,-139.59 504.22,-146.07"/>
</a>
</g>
</g>
<!-- Node14 -->
<g id="Node000014" class="node">
<title>Node14</title>
<g id="a_Node000014"><a xlink:title=" ">
<polygon fill="#e0e0e0" stroke="#999999" points="398.25,-138 353,-138 353,-118 398.25,-118 398.25,-138"/>
<text text-anchor="middle" x="375.62" y="-124.5" font-family="Helvetica,sans-Serif" font-size="10.00">cstdint</text>
</a>
</g>
</g>
<!-- Node12&#45;&gt;Node14 -->
<g id="edge17_Node000012_Node000014" class="edge">
<title>Node12&#45;&gt;Node14</title>
<g id="a_edge17_Node000012_Node000014"><a xlink:title=" ">
<path fill="none" stroke="#63b8ff" d="M375.62,-179.69C375.62,-170.8 375.62,-159.46 375.62,-149.77"/>
<polygon fill="#63b8ff" stroke="#63b8ff" points="379.13,-149.83 375.63,-139.83 372.13,-149.83 379.13,-149.83"/>
</a>
</g>
</g>
<!-- Node15 -->
<g id="Node000015" class="node">
<title>Node15</title>
<g id="a_Node000015"><a xlink:title=" ">
<polygon fill="#e0e0e0" stroke="#999999" points="455.25,-138 416,-138 416,-118 455.25,-118 455.25,-138"/>
<text text-anchor="middle" x="435.62" y="-124.5" font-family="Helvetica,sans-Serif" font-size="10.00">utility</text>
</a>
</g>
</g>
<!-- Node12&#45;&gt;Node15 -->
<g id="edge18_Node000012_Node000015" class="edge">
<title>Node12&#45;&gt;Node15</title>
<g id="a_edge18_Node000012_Node000015"><a xlink:title=" ">
<path fill="none" stroke="#63b8ff" d="M389.54,-179.69C398.54,-169.8 410.27,-156.89 419.65,-146.57"/>
<polygon fill="#63b8ff" stroke="#63b8ff" points="422,-149.19 426.14,-139.44 416.82,-144.48 422,-149.19"/>
</a>
</g>
</g>
<!-- Node16&#45;&gt;Node5 -->
<g id="edge20_Node000016_Node000005" class="edge">
<title>Node16&#45;&gt;Node5</title>
<g id="a_edge20_Node000016_Node000005"><a xlink:title=" ">
<path fill="none" stroke="#63b8ff" d="M722.11,-111.6C667.39,-88.51 565.12,-45.37 514.14,-23.87"/>
<polygon fill="#63b8ff" stroke="#63b8ff" points="515.75,-20.75 505.18,-20.09 513.03,-27.2 515.75,-20.75"/>
</a>
</g>
</g>
<!-- Node17 -->
<g id="Node000017" class="node">
<title>Node17</title>
<g id="a_Node000017"><a xlink:title=" ">
<polygon fill="#e0e0e0" stroke="#999999" points="831.25,-76 780,-76 780,-56 831.25,-56 831.25,-76"/>
<text text-anchor="middle" x="805.62" y="-62.5" font-family="Helvetica,sans-Serif" font-size="10.00">memory</text>
</a>
</g>
</g>
<!-- Node16&#45;&gt;Node17 -->
<g id="edge21_Node000016_Node000017" class="edge">
<title>Node16&#45;&gt;Node17</title>
<g id="a_edge21_Node000016_Node000017"><a xlink:title=" ">
<path fill="none" stroke="#63b8ff" d="M770.73,-111.55C776.98,-103.56 784.66,-93.76 791.22,-85.39"/>
<polygon fill="#63b8ff" stroke="#63b8ff" points="793.91,-87.63 797.32,-77.6 788.4,-83.31 793.91,-87.63"/>
</a>
</g>
</g>
<!-- Node18 -->
<g id="Node000018" class="node">
<title>Node18</title>
<g id="a_Node000018"><a xlink:title=" ">
<polygon fill="#e0e0e0" stroke="#999999" points="890.38,-76 848.88,-76 848.88,-56 890.38,-56 890.38,-76"/>
<text text-anchor="middle" x="869.62" y="-62.5" font-family="Helvetica,sans-Serif" font-size="10.00">vector</text>
</a>
</g>
</g>
<!-- Node16&#45;&gt;Node18 -->
<g id="edge22_Node000016_Node000018" class="edge">
<title>Node16&#45;&gt;Node18</title>
<g id="a_edge22_Node000016_Node000018"><a xlink:title=" ">
<path fill="none" stroke="#63b8ff" d="M787.21,-111.55C804.23,-102.35 825.71,-90.74 842.47,-81.68"/>
<polygon fill="#63b8ff" stroke="#63b8ff" points="843.76,-84.96 850.89,-77.13 840.43,-78.8 843.76,-84.96"/>
</a>
</g>
</g>
<!-- Node19 -->
<g id="Node000019" class="node">
<title>Node19</title>
<g id="a_Node000019"><a xlink:title=" ">
<polygon fill="#e0e0e0" stroke="#999999" points="965.25,-76 908,-76 908,-56 965.25,-56 965.25,-76"/>
<text text-anchor="middle" x="936.62" y="-62.5" font-family="Helvetica,sans-Serif" font-size="10.00">functional</text>
</a>
</g>
</g>
<!-- Node16&#45;&gt;Node19 -->
<g id="edge23_Node000016_Node000019" class="edge">
<title>Node16&#45;&gt;Node19</title>
<g id="a_edge23_Node000016_Node000019"><a xlink:title=" ">
<path fill="none" stroke="#63b8ff" d="M804.46,-111.55C833.34,-101.81 870.23,-89.38 897.68,-80.13"/>
<polygon fill="#63b8ff" stroke="#63b8ff" points="898.66,-83.49 907.02,-76.98 896.42,-76.86 898.66,-83.49"/>
</a>
</g>
</g>
<!-- Node20 -->
<g id="Node000020" class="node">
<title>Node20</title>
<g id="a_Node000020"><a xlink:title=" ">
<polygon fill="#e0e0e0" stroke="#999999" points="1028.25,-76 983,-76 983,-56 1028.25,-56 1028.25,-76"/>
<text text-anchor="middle" x="1005.62" y="-62.5" font-family="Helvetica,sans-Serif" font-size="10.00">atomic</text>
</a>
</g>
</g>
<!-- Node16&#45;&gt;Node20 -->
<g id="edge24_Node000016_Node000020" class="edge">
<title>Node16&#45;&gt;Node20</title>
<g id="a_edge24_Node000016_Node000020"><a xlink:title=" ">
<path fill="none" stroke="#63b8ff" d="M806.84,-116.35C848.24,-107.04 909.78,-92.82 971.52,-76.73"/>
<polygon fill="#63b8ff" stroke="#63b8ff" points="972.39,-80.12 981.17,-74.2 970.61,-73.35 972.39,-80.12"/>
</a>
</g>
</g>
<!-- Node21 -->
<g id="Node000021" class="node">
<title>Node21</title>
<g id="a_Node000021"><a xlink:title=" ">
<polygon fill="#e0e0e0" stroke="#999999" points="1089.12,-76 1046.12,-76 1046.12,-56 1089.12,-56 1089.12,-76"/>
<text text-anchor="middle" x="1067.62" y="-62.5" font-family="Helvetica,sans-Serif" font-size="10.00">thread</text>
</a>
</g>
</g>
<!-- Node16&#45;&gt;Node21 -->
<g id="edge25_Node000016_Node000021" class="edge">
<title>Node16&#45;&gt;Node21</title>
<g id="a_edge25_Node000016_Node000021"><a xlink:title=" ">
<path fill="none" stroke="#63b8ff" d="M806.85,-119.85C860.39,-111.54 949.55,-96.62 1034.59,-76.54"/>
<polygon fill="#63b8ff" stroke="#63b8ff" points="1035.36,-79.95 1044.27,-74.22 1033.73,-73.14 1035.36,-79.95"/>
</a>
</g>
</g>
<!-- Node22 -->
<g id="Node000022" class="node">
<title>Node22</title>
<g id="a_Node000022"><a xlink:title=" ">
<polygon fill="#e0e0e0" stroke="#999999" points="659.12,-20 616.12,-20 616.12,0 659.12,0 659.12,-20"/>
<text text-anchor="middle" x="637.62" y="-6.5" font-family="Helvetica,sans-Serif" font-size="10.00">mutex</text>
</a>
</g>
</g>
<!-- Node16&#45;&gt;Node22 -->
<g id="edge26_Node000016_Node000022" class="edge">
<title>Node16&#45;&gt;Node22</title>
<g id="a_edge26_Node000016_Node000022"><a xlink:title=" ">
<path fill="none" stroke="#63b8ff" d="M710.39,-114.12C689.78,-106.28 667.17,-94.18 652.62,-76 642.66,-63.54 639.07,-45.65 637.89,-31.8"/>
<polygon fill="#63b8ff" stroke="#63b8ff" points="641.4,-31.82 637.43,-21.99 634.4,-32.14 641.4,-31.82"/>
</a>
</g>
</g>
<!-- Node23 -->
<g id="Node000023" class="node">
<title>Node23</title>
<g id="a_Node000023"><a xlink:href="_i_logger_8h.html" target="_top" xlink:title="Class that encapsulates the look and feel of the HUD.">
<polygon fill="white" stroke="#666666" points="567.5,-76 511.75,-76 511.75,-56 567.5,-56 567.5,-76"/>
<text text-anchor="middle" x="539.62" y="-62.5" font-family="Helvetica,sans-Serif" font-size="10.00">ILogger.h</text>
</a>
</g>
</g>
<!-- Node16&#45;&gt;Node23 -->
<g id="edge27_Node000016_Node000023" class="edge">
<title>Node16&#45;&gt;Node23</title>
<g id="a_edge27_Node000016_Node000023"><a xlink:title=" ">
<path fill="none" stroke="#63b8ff" d="M710.56,-113.83C670.97,-102.98 615.53,-87.8 578.64,-77.69"/>
<polygon fill="#63b8ff" stroke="#63b8ff" points="579.86,-74.39 569.29,-75.13 578.01,-81.15 579.86,-74.39"/>
</a>
</g>
</g>
<!-- Node24 -->
<g id="Node000024" class="node">
<title>Node24</title>
<g id="a_Node000024"><a xlink:href="_concurrent_queue_8h.html" target="_top" xlink:title="Concurrent queue implementation.">
<polygon fill="white" stroke="#666666" points="761.62,-76 661.62,-76 661.62,-56 761.62,-56 761.62,-76"/>
<text text-anchor="middle" x="711.62" y="-62.5" font-family="Helvetica,sans-Serif" font-size="10.00">ConcurrentQueue.h</text>
</a>
</g>
</g>
<!-- Node16&#45;&gt;Node24 -->
<g id="edge29_Node000016_Node000024" class="edge">
<title>Node16&#45;&gt;Node24</title>
<g id="a_edge29_Node000016_Node000024"><a xlink:title=" ">
<path fill="none" stroke="#63b8ff" d="M746.52,-111.55C740.27,-103.56 732.59,-93.76 726.03,-85.39"/>
<polygon fill="#63b8ff" stroke="#63b8ff" points="728.85,-83.31 719.93,-77.6 723.34,-87.63 728.85,-83.31"/>
</a>
</g>
</g>
<!-- Node23&#45;&gt;Node5 -->
<g id="edge28_Node000023_Node000005" class="edge">
<title>Node23&#45;&gt;Node5</title>
<g id="a_edge28_Node000023_Node000005"><a xlink:title=" ">
<path fill="none" stroke="#63b8ff" d="M529.87,-55.59C522,-48.01 510.73,-37.13 501.28,-28.02"/>
<polygon fill="#63b8ff" stroke="#63b8ff" points="503.99,-25.77 494.36,-21.35 499.13,-30.81 503.99,-25.77"/>
</a>
</g>
</g>
<!-- Node24&#45;&gt;Node22 -->
<g id="edge31_Node000024_Node000022" class="edge">
<title>Node24&#45;&gt;Node22</title>
<g id="a_edge31_Node000024_Node000022"><a xlink:title=" ">
<path fill="none" stroke="#63b8ff" d="M698.74,-55.59C687.91,-47.7 672.21,-36.24 659.44,-26.92"/>
<polygon fill="#63b8ff" stroke="#63b8ff" points="661.73,-24.26 651.59,-21.19 657.6,-29.91 661.73,-24.26"/>
</a>
</g>
</g>
<!-- Node25 -->
<g id="Node000025" class="node">
<title>Node25</title>
<g id="a_Node000025"><a xlink:title=" ">
<polygon fill="#e0e0e0" stroke="#999999" points="727.75,-20 685.5,-20 685.5,0 727.75,0 727.75,-20"/>
<text text-anchor="middle" x="706.62" y="-6.5" font-family="Helvetica,sans-Serif" font-size="10.00">queue</text>
</a>
</g>
</g>
<!-- Node24&#45;&gt;Node25 -->
<g id="edge30_Node000024_Node000025" class="edge">
<title>Node24&#45;&gt;Node25</title>
<g id="a_edge30_Node000024_Node000025"><a xlink:title=" ">
<path fill="none" stroke="#63b8ff" d="M710.75,-55.59C710.14,-49.01 709.31,-39.96 708.54,-31.73"/>
<polygon fill="#63b8ff" stroke="#63b8ff" points="712.03,-31.44 707.63,-21.81 705.06,-32.09 712.03,-31.44"/>
</a>
</g>
</g>
<!-- Node26 -->
<g id="Node000026" class="node">
<title>Node26</title>
<g id="a_Node000026"><a xlink:title=" ">
<polygon fill="#e0e0e0" stroke="#999999" points="837.88,-20 745.38,-20 745.38,0 837.88,0 837.88,-20"/>
<text text-anchor="middle" x="791.62" y="-6.5" font-family="Helvetica,sans-Serif" font-size="10.00">condition_variable</text>
</a>
</g>
</g>
<!-- Node24&#45;&gt;Node26 -->
<g id="edge32_Node000024_Node000026" class="edge">
<title>Node24&#45;&gt;Node26</title>
<g id="a_edge32_Node000024_Node000026"><a xlink:title=" ">
<path fill="none" stroke="#63b8ff" d="M725.56,-55.59C737.3,-47.67 754.36,-36.16 768.19,-26.82"/>
<polygon fill="#63b8ff" stroke="#63b8ff" points="770,-29.82 776.33,-21.33 766.08,-24.02 770,-29.82"/>
</a>
</g>
</g>
<!-- Node28 -->
<g id="Node000028" class="node">
<title>Node28</title>
<g id="a_Node000028"><a xlink:href="_config_8h.html" target="_top" xlink:title="This file contains the configuration of the engine.">
<polygon fill="white" stroke="#666666" points="688,-206 605.25,-206 605.25,-186 688,-186 688,-206"/>
<text text-anchor="middle" x="646.62" y="-192.5" font-family="Helvetica,sans-Serif" font-size="10.00">engine/Config.h</text>
</a>
</g>
</g>
<!-- Node27&#45;&gt;Node28 -->
<g id="edge34_Node000027_Node000028" class="edge">
<title>Node27&#45;&gt;Node28</title>
<g id="a_edge34_Node000027_Node000028"><a xlink:title=" ">
<path fill="none" stroke="#63b8ff" d="M593.72,-247.79C604.93,-237.03 618.36,-224.14 628.88,-214.03"/>
<polygon fill="#63b8ff" stroke="#63b8ff" points="631.04,-216.81 635.83,-207.36 626.2,-211.76 631.04,-216.81"/>
</a>
</g>
</g>
</g>
</svg>

<g id="navigator" transform="translate(0 0)" fill="#404254">
  <rect fill="#f2f5e9" fill-opacity="0.5" stroke="#606060" stroke-width=".5" x="0" y="0" width="60" height="60"/>
  <use id="zoomplus" xlink:href="#zoomPlus" x="17" y="9" onmousedown="handleZoom(evt,'in')"/>
  <use id="zoomminus" xlink:href="#zoomMin" x="42" y="9" onmousedown="handleZoom(evt,'out')"/>
  <use id="reset" xlink:href="#resetDef" x="30" y="36" onmousedown="handleReset()"/>
   <use id="arrowup" xlink:href="#arrowUp" x="0" y="0" onmousedown="handlePan(0,-1)"/>
  <use id="arrowright" xlink:href="#arrowRight" x="0" y="0" onmousedown="handlePan(1,0)"/>
  <use id="arrowdown" xlink:href="#arrowDown" x="0" y="0" onmousedown="handlePan(0,1)"/>
  <use id="arrowleft" xlink:href="#arrowLeft" x="0" y="0" onmousedown="handlePan(-1,0)"/>
</g>
<svg viewBox="0 0 15 15" width="100%" height="30px" preserveAspectRatio="xMaxYMin meet">
 <g id="arrow_out" transform="scale(0.3 0.3)">
  <a xlink:href="_texture_adapter_8h__incl_org.svg" target="_base">
   <rect id="button" ry="5" rx="5" y="6" x="6" height="38" width="38"
        fill="#f2f5e9" fill-opacity="0.5" stroke="#606060" stroke-width="1.0"/>
   <path id="arrow"
     d="M 11.500037,31.436501 C 11.940474,20.09759 22.043105,11.32322 32.158766,21.979434 L 37.068811,17.246167 C 37.068811,17.246167 37.088388,32 37.088388,32 L 22.160133,31.978069 C 22.160133,31.978069 26.997745,27.140456 26.997745,27.140456 C 18.528582,18.264221 13.291696,25.230495 11.500037,31.436501 z"
     style="fill:#404040;"/>
  </a>
 </g>
</svg>

<style type='text/css'>
<![CDATA[
[data-mouse-over-selected='false'] { opacity: 0.7; }
[data-mouse-over-selected='true']  { opacity: 1.0; }
]]>
</style>
<script type="application/ecmascript"><![CDATA[
document.addEventListener('DOMContentLoaded', (event) => {
  highlightEdges();
  highlightAdjacentNodes();
});
]]></script>
</svg>
