<?xml version="1.0" encoding="UTF-8" standalone="no"?>
<!DOCTYPE svg PUBLIC "-//W3C//DTD SVG 1.1//EN"
 "http://www.w3.org/Graphics/SVG/1.1/DTD/svg11.dtd">
<!-- Generated by graphviz version 11.0.0 (20240428.1522)
 -->
<!-- Title: VectorMixedAlgorithms.h Pages: 1 -->
<!--zoomable 480 -->

<svg id="main" version="1.1" xmlns="http://www.w3.org/2000/svg" xmlns:xlink="http://www.w3.org/1999/xlink" xml:space="preserve" onload="init(evt)">
<style type="text/css"><![CDATA[
.node, .edge {opacity: 0.7;}
.node.selected, .edge.selected {opacity: 1;}
.edge:hover path { stroke: red; }
.edge:hover polygon { stroke: red; fill: red; }
]]></style>

<defs>
  <circle id="rim" cx="0" cy="0" r="7"/>
  <circle id="rim2" cx="0" cy="0" r="3.5"/>
  <g id="zoomPlus">
    <use xlink:href="#rim" fill="#404040"><set attributeName="fill" to="#808080" begin="zoomplus.mouseover" end="zoomplus.mouseout"/></use>
    <path d="M-4,0h8M0,-4v8" fill="none" stroke="white" stroke-width="1.5" pointer-events="none"/>
  </g>
  <g id="zoomMin">
    <use xlink:href="#rim" fill="#404040"><set attributeName="fill" to="#808080" begin="zoomminus.mouseover" end="zoomminus.mouseout"/></use>
    <path d="M-4,0h8" fill="none" stroke="white" stroke-width="1.5" pointer-events="none"/>
  </g>
  <g id="arrowUp" transform="translate(30 24)">
    <use xlink:href="#rim"/>
    <path pointer-events="none" fill="none" stroke="white" stroke-width="1.5" d="M0,-3.0v7 M-2.5,-0.5L0,-3.0L2.5,-0.5"/>
  </g>
  <g id="arrowRight" transform="rotate(90) translate(36 -43)">
    <use xlink:href="#rim"/>
    <path pointer-events="none" fill="none" stroke="white" stroke-width="1.5" d="M0,-3.0v7 M-2.5,-0.5L0,-3.0L2.5,-0.5"/>
  </g>
  <g id="arrowDown" transform="rotate(180) translate(-30 -48)">
    <use xlink:href="#rim"/>
    <path pointer-events="none" fill="none" stroke="white" stroke-width="1.5" d="M0,-3.0v7 M-2.5,-0.5L0,-3.0L2.5,-0.5"/>
  </g>
  <g id="arrowLeft" transform="rotate(270) translate(-36 17)">
    <use xlink:href="#rim"/>
    <path pointer-events="none" fill="none" stroke="white" stroke-width="1.5" d="M0,-3.0v7 M-2.5,-0.5L0,-3.0L2.5,-0.5"/>
  </g>
  <g id="resetDef">
    <use xlink:href="#rim2" fill="#404040"><set attributeName="fill" to="#808080" begin="reset.mouseover" end="reset.mouseout"/></use>
  </g>
</defs>
<script type="application/ecmascript">
var viewWidth = 1100;
var viewHeight = 480;
var sectionId = 'dynsection-0';
</script>
<script type="application/ecmascript" xlink:href="svg.min.js"/>
<svg id="graph" class="graph">
<g id="viewport">
<title>VectorMixedAlgorithms.h</title>
<!-- Node1 -->
<g id="Node000001" class="node">
<title>Node1</title>
<g id="a_Node000001"><a xlink:title=" ">
<polygon fill="#999999" stroke="#666666" points="741.5,-472 616,-472 616,-452 741.5,-452 741.5,-472"/>
<text text-anchor="middle" x="678.75" y="-458.5" font-family="Helvetica,sans-Serif" font-size="10.00">VectorMixedAlgorithms.h</text>
</a>
</g>
</g>
<!-- Node2 -->
<g id="Node000002" class="node">
<title>Node2</title>
<g id="a_Node000002"><a xlink:title=" ">
<polygon fill="#e0e0e0" stroke="#999999" points="142.5,-410 95,-410 95,-390 142.5,-390 142.5,-410"/>
<text text-anchor="middle" x="118.75" y="-396.5" font-family="Helvetica,sans-Serif" font-size="10.00">cstddef</text>
</a>
</g>
</g>
<!-- Node1&#45;&gt;Node2 -->
<g id="edge1_Node000001_Node000002" class="edge">
<title>Node1&#45;&gt;Node2</title>
<g id="a_edge1_Node000001_Node000002"><a xlink:title=" ">
<path fill="none" stroke="#63b8ff" d="M615.55,-461.41C516.44,-460.75 319.01,-454.16 156.75,-416 154.58,-415.49 152.36,-414.88 150.15,-414.19"/>
<polygon fill="#63b8ff" stroke="#63b8ff" points="151.33,-410.9 140.73,-410.87 149,-417.5 151.33,-410.9"/>
</a>
</g>
</g>
<!-- Node3 -->
<g id="Node000003" class="node">
<title>Node3</title>
<g id="a_Node000003"><a xlink:title=" ">
<polygon fill="#e0e0e0" stroke="#999999" points="41.5,-138 0,-138 0,-118 41.5,-118 41.5,-138"/>
<text text-anchor="middle" x="20.75" y="-124.5" font-family="Helvetica,sans-Serif" font-size="10.00">vector</text>
</a>
</g>
</g>
<!-- Node1&#45;&gt;Node3 -->
<g id="edge2_Node000001_Node000003" class="edge">
<title>Node1&#45;&gt;Node3</title>
<g id="a_edge2_Node000001_Node000003"><a xlink:title=" ">
<path fill="none" stroke="#63b8ff" d="M615.69,-458.32C479.65,-450.81 170.75,-423.78 170.75,-333 170.75,-333 170.75,-333 170.75,-263 170.75,-229.85 88.26,-172.18 45.62,-144.58"/>
<polygon fill="#63b8ff" stroke="#63b8ff" points="47.54,-141.65 37.23,-139.21 43.77,-147.55 47.54,-141.65"/>
</a>
</g>
</g>
<!-- Node4 -->
<g id="Node000004" class="node">
<title>Node4</title>
<g id="a_Node000004"><a xlink:href="_vector_types_8h.html" target="_top" xlink:title="@TODO Add description of this file if needed">
<polygon fill="white" stroke="#666666" points="884.5,-348 759,-348 759,-316 884.5,-316 884.5,-348"/>
<text text-anchor="start" x="767" y="-334.5" font-family="Helvetica,sans-Serif" font-size="10.00">engine/core/math/algebra</text>
<text text-anchor="middle" x="821.75" y="-322.5" font-family="Helvetica,sans-Serif" font-size="10.00">/vector/VectorTypes.h</text>
</a>
</g>
</g>
<!-- Node1&#45;&gt;Node4 -->
<g id="edge3_Node000001_Node000004" class="edge">
<title>Node1&#45;&gt;Node4</title>
<g id="a_edge3_Node000001_Node000004"><a xlink:title=" ">
<path fill="none" stroke="#63b8ff" d="M697.84,-451.66C713.5,-443.48 735.79,-430.63 752.75,-416 772.86,-398.65 791.86,-375.07 804.81,-357.47"/>
<polygon fill="#63b8ff" stroke="#63b8ff" points="807.46,-359.78 810.46,-349.62 801.78,-355.69 807.46,-359.78"/>
</a>
</g>
</g>
<!-- Node6 -->
<g id="Node000006" class="node">
<title>Node6</title>
<g id="a_Node000006"><a xlink:href="_vector_algorithms_8h.html" target="_top" xlink:title="@TODO Add description of this file">
<polygon fill="white" stroke="#666666" points="744.12,-416 613.38,-416 613.38,-384 744.12,-384 744.12,-416"/>
<text text-anchor="start" x="621.38" y="-402.5" font-family="Helvetica,sans-Serif" font-size="10.00">engine/core/math/algebra</text>
<text text-anchor="middle" x="678.75" y="-390.5" font-family="Helvetica,sans-Serif" font-size="10.00">/vector/VectorAlgorithms.h</text>
</a>
</g>
</g>
<!-- Node1&#45;&gt;Node6 -->
<g id="edge5_Node000001_Node000006" class="edge">
<title>Node1&#45;&gt;Node6</title>
<g id="a_edge5_Node000001_Node000006"><a xlink:title=" ">
<path fill="none" stroke="#63b8ff" d="M678.75,-451.62C678.75,-445.1 678.75,-436.05 678.75,-427.4"/>
<polygon fill="#63b8ff" stroke="#63b8ff" points="682.25,-427.65 678.75,-417.65 675.25,-427.65 682.25,-427.65"/>
</a>
</g>
</g>
<!-- Node35 -->
<g id="Node000035" class="node">
<title>Node35</title>
<g id="a_Node000035"><a xlink:href="_matrix_types_8h.html" target="_top" xlink:title="@TODO Add description of this file if needed">
<polygon fill="white" stroke="#666666" points="1030.5,-416 905,-416 905,-384 1030.5,-384 1030.5,-416"/>
<text text-anchor="start" x="913" y="-402.5" font-family="Helvetica,sans-Serif" font-size="10.00">engine/core/math/algebra</text>
<text text-anchor="middle" x="967.75" y="-390.5" font-family="Helvetica,sans-Serif" font-size="10.00">/matrix/MatrixTypes.h</text>
</a>
</g>
</g>
<!-- Node1&#45;&gt;Node35 -->
<g id="edge46_Node000001_Node000035" class="edge">
<title>Node1&#45;&gt;Node35</title>
<g id="a_edge46_Node000001_Node000035"><a xlink:title=" ">
<path fill="none" stroke="#63b8ff" d="M724.22,-451.56C769.56,-442.15 839.96,-427.53 893.42,-416.43"/>
<polygon fill="#63b8ff" stroke="#63b8ff" points="894,-419.89 903.08,-414.43 892.58,-413.03 894,-419.89"/>
</a>
</g>
</g>
<!-- Node5 -->
<g id="Node000005" class="node">
<title>Node5</title>
<g id="a_Node000005"><a xlink:title=" ">
<polygon fill="#e0e0e0" stroke="#999999" points="1066.62,-274 1028.88,-274 1028.88,-254 1066.62,-254 1066.62,-274"/>
<text text-anchor="middle" x="1047.75" y="-260.5" font-family="Helvetica,sans-Serif" font-size="10.00">array</text>
</a>
</g>
</g>
<!-- Node4&#45;&gt;Node5 -->
<g id="edge4_Node000004_Node000005" class="edge">
<title>Node4&#45;&gt;Node5</title>
<g id="a_edge4_Node000004_Node000005"><a xlink:title=" ">
<path fill="none" stroke="#63b8ff" d="M884.94,-318.78C924.43,-310.15 975.93,-297.09 1019.75,-280 1020.38,-279.76 1021.01,-279.5 1021.64,-279.24"/>
<polygon fill="#63b8ff" stroke="#63b8ff" points="1022.89,-282.52 1030.41,-275.05 1019.88,-276.2 1022.89,-282.52"/>
</a>
</g>
</g>
<!-- Node6&#45;&gt;Node4 -->
<g id="edge6_Node000006_Node000004" class="edge">
<title>Node6&#45;&gt;Node4</title>
<g id="a_edge6_Node000006_Node000004"><a xlink:title=" ">
<path fill="none" stroke="#63b8ff" d="M712.28,-383.53C731.91,-374.46 756.92,-362.92 778.08,-353.15"/>
<polygon fill="#63b8ff" stroke="#63b8ff" points="779.45,-356.38 787.06,-349.01 776.51,-350.02 779.45,-356.38"/>
</a>
</g>
</g>
<!-- Node7 -->
<g id="Node000007" class="node">
<title>Node7</title>
<g id="a_Node000007"><a xlink:href="_math_exception_8h.html" target="_top" xlink:title="Exception class for math errors.">
<polygon fill="white" stroke="#666666" points="501.25,-348 362.25,-348 362.25,-316 501.25,-316 501.25,-348"/>
<text text-anchor="start" x="370.25" y="-334.5" font-family="Helvetica,sans-Serif" font-size="10.00">engine/core/exceptions</text>
<text text-anchor="middle" x="431.75" y="-322.5" font-family="Helvetica,sans-Serif" font-size="10.00">/core/math/MathException.h</text>
</a>
</g>
</g>
<!-- Node6&#45;&gt;Node7 -->
<g id="edge7_Node000006_Node000007" class="edge">
<title>Node6&#45;&gt;Node7</title>
<g id="a_edge7_Node000006_Node000007"><a xlink:title=" ">
<path fill="none" stroke="#63b8ff" d="M620.84,-383.53C584.89,-373.92 538.5,-361.52 500.66,-351.41"/>
<polygon fill="#63b8ff" stroke="#63b8ff" points="501.75,-348.08 491.19,-348.88 499.94,-354.84 501.75,-348.08"/>
</a>
</g>
</g>
<!-- Node12 -->
<g id="Node000012" class="node">
<title>Node12</title>
<g id="a_Node000012"><a xlink:href="_math_8h.html" target="_top" xlink:title=" ">
<polygon fill="white" stroke="#666666" points="740.75,-342 616.75,-342 616.75,-322 740.75,-322 740.75,-342"/>
<text text-anchor="middle" x="678.75" y="-328.5" font-family="Helvetica,sans-Serif" font-size="10.00">engine/core/math/Math.h</text>
</a>
</g>
</g>
<!-- Node6&#45;&gt;Node12 -->
<g id="edge12_Node000006_Node000012" class="edge">
<title>Node6&#45;&gt;Node12</title>
<g id="a_edge12_Node000006_Node000012"><a xlink:title=" ">
<path fill="none" stroke="#63b8ff" d="M678.75,-383.69C678.75,-374.8 678.75,-363.46 678.75,-353.77"/>
<polygon fill="#63b8ff" stroke="#63b8ff" points="682.25,-353.83 678.75,-343.83 675.25,-353.83 682.25,-353.83"/>
</a>
</g>
</g>
<!-- Node8 -->
<g id="Node000008" class="node">
<title>Node8</title>
<g id="a_Node000008"><a xlink:href="_engine_exception_8h.html" target="_top" xlink:title="Base exception class for any exception in the engine.">
<polygon fill="white" stroke="#666666" points="176,-144 59.5,-144 59.5,-112 176,-112 176,-144"/>
<text text-anchor="start" x="67.5" y="-130.5" font-family="Helvetica,sans-Serif" font-size="10.00">engine/core/exceptions</text>
<text text-anchor="middle" x="117.75" y="-118.5" font-family="Helvetica,sans-Serif" font-size="10.00">/EngineException.h</text>
</a>
</g>
</g>
<!-- Node7&#45;&gt;Node8 -->
<g id="edge8_Node000007_Node000008" class="edge">
<title>Node7&#45;&gt;Node8</title>
<g id="a_edge8_Node000007_Node000008"><a xlink:title=" ">
<path fill="none" stroke="#63b8ff" d="M403.23,-315.61C363.39,-293.81 289.16,-252.11 228.75,-212 220.48,-206.51 176.79,-173.64 146.76,-150.95"/>
<polygon fill="#63b8ff" stroke="#63b8ff" points="149.22,-148.43 139.13,-145.19 145,-154.01 149.22,-148.43"/>
</a>
</g>
</g>
<!-- Node9 -->
<g id="Node000009" class="node">
<title>Node9</title>
<g id="a_Node000009"><a xlink:href="_base_exception_8h.html" target="_top" xlink:title=" ">
<polygon fill="white" stroke="#666666" points="169.88,-76 79.62,-76 79.62,-56 169.88,-56 169.88,-76"/>
<text text-anchor="middle" x="124.75" y="-62.5" font-family="Helvetica,sans-Serif" font-size="10.00">BaseException.h</text>
</a>
</g>
</g>
<!-- Node8&#45;&gt;Node9 -->
<g id="edge9_Node000008_Node000009" class="edge">
<title>Node8&#45;&gt;Node9</title>
<g id="a_edge9_Node000008_Node000009"><a xlink:title=" ">
<path fill="none" stroke="#63b8ff" d="M119.55,-111.55C120.4,-104.26 121.43,-95.45 122.35,-87.6"/>
<polygon fill="#63b8ff" stroke="#63b8ff" points="125.79,-88.25 123.48,-77.91 118.84,-87.44 125.79,-88.25"/>
</a>
</g>
</g>
<!-- Node10 -->
<g id="Node000010" class="node">
<title>Node10</title>
<g id="a_Node000010"><a xlink:title=" ">
<polygon fill="#e0e0e0" stroke="#999999" points="154.12,-20 95.38,-20 95.38,0 154.12,0 154.12,-20"/>
<text text-anchor="middle" x="124.75" y="-6.5" font-family="Helvetica,sans-Serif" font-size="10.00">stdexcept</text>
</a>
</g>
</g>
<!-- Node9&#45;&gt;Node10 -->
<g id="edge10_Node000009_Node000010" class="edge">
<title>Node9&#45;&gt;Node10</title>
<g id="a_edge10_Node000009_Node000010"><a xlink:title=" ">
<path fill="none" stroke="#63b8ff" d="M124.75,-55.59C124.75,-49.01 124.75,-39.96 124.75,-31.73"/>
<polygon fill="#63b8ff" stroke="#63b8ff" points="128.25,-31.81 124.75,-21.81 121.25,-31.81 128.25,-31.81"/>
</a>
</g>
</g>
<!-- Node11 -->
<g id="Node000011" class="node">
<title>Node11</title>
<g id="a_Node000011"><a xlink:title=" ">
<polygon fill="#e0e0e0" stroke="#999999" points="671.75,-20 631.75,-20 631.75,0 671.75,0 671.75,-20"/>
<text text-anchor="middle" x="651.75" y="-6.5" font-family="Helvetica,sans-Serif" font-size="10.00">string</text>
</a>
</g>
</g>
<!-- Node9&#45;&gt;Node11 -->
<g id="edge11_Node000009_Node000011" class="edge">
<title>Node9&#45;&gt;Node11</title>
<g id="a_edge11_Node000009_Node000011"><a xlink:title=" ">
<path fill="none" stroke="#63b8ff" d="M170.18,-58.47C176.74,-57.6 183.41,-56.75 189.75,-56 351.23,-36.96 545.16,-19.98 620.07,-13.64"/>
<polygon fill="#63b8ff" stroke="#63b8ff" points="620.27,-17.14 629.95,-12.81 619.69,-10.16 620.27,-17.14"/>
</a>
</g>
</g>
<!-- Node13 -->
<g id="Node000013" class="node">
<title>Node13</title>
<g id="a_Node000013"><a xlink:title=" ">
<polygon fill="#e0e0e0" stroke="#999999" points="1091.62,-138 1029.88,-138 1029.88,-118 1091.62,-118 1091.62,-138"/>
<text text-anchor="middle" x="1060.75" y="-124.5" font-family="Helvetica,sans-Serif" font-size="10.00">type_traits</text>
</a>
</g>
</g>
<!-- Node12&#45;&gt;Node13 -->
<g id="edge13_Node000012_Node000013" class="edge">
<title>Node12&#45;&gt;Node13</title>
<g id="a_edge13_Node000012_Node000013"><a xlink:title=" ">
<path fill="none" stroke="#63b8ff" d="M713.35,-321.6C770.44,-305.11 886.6,-267.39 972.75,-212 1001.33,-193.62 1028.94,-165.32 1045.38,-146.98"/>
<polygon fill="#63b8ff" stroke="#63b8ff" points="1047.95,-149.36 1051.91,-139.54 1042.69,-144.75 1047.95,-149.36"/>
</a>
</g>
</g>
<!-- Node14 -->
<g id="Node000014" class="node">
<title>Node14</title>
<g id="a_Node000014"><a xlink:title=" ">
<polygon fill="#e0e0e0" stroke="#999999" points="1010.88,-274 962.62,-274 962.62,-254 1010.88,-254 1010.88,-274"/>
<text text-anchor="middle" x="986.75" y="-260.5" font-family="Helvetica,sans-Serif" font-size="10.00">random</text>
</a>
</g>
</g>
<!-- Node12&#45;&gt;Node14 -->
<g id="edge14_Node000012_Node000014" class="edge">
<title>Node12&#45;&gt;Node14</title>
<g id="a_edge14_Node000012_Node000014"><a xlink:title=" ">
<path fill="none" stroke="#63b8ff" d="M722.64,-321.52C731.6,-319.64 740.97,-317.72 749.75,-316 837.95,-298.71 862.31,-304.62 948.75,-280 950.58,-279.48 952.44,-278.9 954.31,-278.29"/>
<polygon fill="#63b8ff" stroke="#63b8ff" points="955.25,-281.67 963.48,-274.99 952.88,-275.08 955.25,-281.67"/>
</a>
</g>
</g>
<!-- Node15 -->
<g id="Node000015" class="node">
<title>Node15</title>
<g id="a_Node000015"><a xlink:title=" ">
<polygon fill="#e0e0e0" stroke="#999999" points="677.38,-274 632.12,-274 632.12,-254 677.38,-254 677.38,-274"/>
<text text-anchor="middle" x="654.75" y="-260.5" font-family="Helvetica,sans-Serif" font-size="10.00">cstring</text>
</a>
</g>
</g>
<!-- Node12&#45;&gt;Node15 -->
<g id="edge15_Node000012_Node000015" class="edge">
<title>Node12&#45;&gt;Node15</title>
<g id="a_edge15_Node000012_Node000015"><a xlink:title=" ">
<path fill="none" stroke="#63b8ff" d="M675.31,-321.54C671.85,-312.04 666.42,-297.09 662,-284.95"/>
<polygon fill="#63b8ff" stroke="#63b8ff" points="665.41,-284.06 658.7,-275.86 658.83,-286.46 665.41,-284.06"/>
</a>
</g>
</g>
<!-- Node16 -->
<g id="Node000016" class="node">
<title>Node16</title>
<g id="a_Node000016"><a xlink:title=" ">
<polygon fill="#e0e0e0" stroke="#999999" points="280.25,-206 237.25,-206 237.25,-186 280.25,-186 280.25,-206"/>
<text text-anchor="middle" x="258.75" y="-192.5" font-family="Helvetica,sans-Serif" font-size="10.00">cmath</text>
</a>
</g>
</g>
<!-- Node12&#45;&gt;Node16 -->
<g id="edge16_Node000012_Node000016" class="edge">
<title>Node12&#45;&gt;Node16</title>
<g id="a_edge16_Node000012_Node000016"><a xlink:title=" ">
<path fill="none" stroke="#63b8ff" d="M640.1,-321.51C569.2,-303.59 414.15,-262.07 288.75,-212 287.98,-211.69 287.2,-211.37 286.42,-211.04"/>
<polygon fill="#63b8ff" stroke="#63b8ff" points="288.21,-208.02 277.67,-207.02 285.29,-214.38 288.21,-208.02"/>
</a>
</g>
</g>
<!-- Node17 -->
<g id="Node000017" class="node">
<title>Node17</title>
<g id="a_Node000017"><a xlink:href="_asserts_8h.html" target="_top" xlink:title="Set of macros for runtime and compile time assertions.">
<polygon fill="white" stroke="#666666" points="796.5,-280 695,-280 695,-248 796.5,-248 796.5,-280"/>
<text text-anchor="start" x="703" y="-266.5" font-family="Helvetica,sans-Serif" font-size="10.00">engine/core/asserts</text>
<text text-anchor="middle" x="745.75" y="-254.5" font-family="Helvetica,sans-Serif" font-size="10.00">/Asserts.h</text>
</a>
</g>
</g>
<!-- Node12&#45;&gt;Node17 -->
<g id="edge17_Node000012_Node000017" class="edge">
<title>Node12&#45;&gt;Node17</title>
<g id="a_edge17_Node000012_Node000017"><a xlink:title=" ">
<path fill="none" stroke="#63b8ff" d="M688.35,-321.54C697.14,-312.88 710.52,-299.7 722.15,-288.25"/>
<polygon fill="#63b8ff" stroke="#63b8ff" points="724.47,-290.87 729.14,-281.36 719.56,-285.89 724.47,-290.87"/>
</a>
</g>
</g>
<!-- Node17&#45;&gt;Node11 -->
<g id="edge20_Node000017_Node000011" class="edge">
<title>Node17&#45;&gt;Node11</title>
<g id="a_edge20_Node000017_Node000011"><a xlink:title=" ">
<path fill="none" stroke="#63b8ff" d="M738.64,-247.62C734.22,-237.62 728.65,-224.22 724.75,-212 703.13,-144.21 720.18,-119.84 688.75,-56 683.87,-46.09 676.42,-36.44 669.47,-28.64"/>
<polygon fill="#63b8ff" stroke="#63b8ff" points="672.18,-26.41 662.78,-21.52 667.08,-31.2 672.18,-26.41"/>
</a>
</g>
</g>
<!-- Node17&#45;&gt;Node13 -->
<g id="edge21_Node000017_Node000013" class="edge">
<title>Node17&#45;&gt;Node13</title>
<g id="a_edge21_Node000017_Node000013"><a xlink:title=" ">
<path fill="none" stroke="#63b8ff" d="M783.28,-247.71C804.13,-238.55 830.14,-225.98 851.75,-212 870.29,-200.01 870.21,-190.27 889.75,-180 943.19,-151.9 963.31,-162.62 1020.75,-144 1022.46,-143.44 1024.21,-142.86 1025.97,-142.26"/>
<polygon fill="#63b8ff" stroke="#63b8ff" points="1027.1,-145.57 1035.34,-138.91 1024.74,-138.98 1027.1,-145.57"/>
</a>
</g>
</g>
<!-- Node17&#45;&gt;Node16 -->
<g id="edge18_Node000017_Node000016" class="edge">
<title>Node17&#45;&gt;Node16</title>
<g id="a_edge18_Node000017_Node000016"><a xlink:title=" ">
<path fill="none" stroke="#63b8ff" d="M694.69,-249.49C692.01,-248.95 689.35,-248.45 686.75,-248 511.69,-218.02 459.59,-260.56 288.75,-212 287.57,-211.67 286.39,-211.29 285.2,-210.87"/>
<polygon fill="#63b8ff" stroke="#63b8ff" points="286.77,-207.73 276.2,-207 284.01,-214.16 286.77,-207.73"/>
</a>
</g>
</g>
<!-- Node18 -->
<g id="Node000018" class="node">
<title>Node18</title>
<g id="a_Node000018"><a xlink:title=" ">
<polygon fill="#e0e0e0" stroke="#999999" points="938.38,-206 899.12,-206 899.12,-186 938.38,-186 938.38,-206"/>
<text text-anchor="middle" x="918.75" y="-192.5" font-family="Helvetica,sans-Serif" font-size="10.00">limits</text>
</a>
</g>
</g>
<!-- Node17&#45;&gt;Node18 -->
<g id="edge19_Node000017_Node000018" class="edge">
<title>Node17&#45;&gt;Node18</title>
<g id="a_edge19_Node000017_Node000018"><a xlink:title=" ">
<path fill="none" stroke="#63b8ff" d="M790.16,-247.52C817.58,-237.76 853.4,-224.65 884.75,-212 885.89,-211.54 887.04,-211.07 888.21,-210.58"/>
<polygon fill="#63b8ff" stroke="#63b8ff" points="889.49,-213.84 897.31,-206.69 886.74,-207.4 889.49,-213.84"/>
</a>
</g>
</g>
<!-- Node19 -->
<g id="Node000019" class="node">
<title>Node19</title>
<g id="a_Node000019"><a xlink:title=" ">
<polygon fill="#e0e0e0" stroke="#999999" points="1011.38,-138 960.12,-138 960.12,-118 1011.38,-118 1011.38,-138"/>
<text text-anchor="middle" x="985.75" y="-124.5" font-family="Helvetica,sans-Serif" font-size="10.00">sstream</text>
</a>
</g>
</g>
<!-- Node17&#45;&gt;Node19 -->
<g id="edge22_Node000017_Node000019" class="edge">
<title>Node17&#45;&gt;Node19</title>
<g id="a_edge22_Node000017_Node000019"><a xlink:title=" ">
<path fill="none" stroke="#63b8ff" d="M796.88,-262.07C841.38,-258.71 905.22,-247.41 947.75,-212 966.93,-196.03 976.89,-168.29 981.72,-149.31"/>
<polygon fill="#63b8ff" stroke="#63b8ff" points="985.08,-150.32 983.86,-139.79 978.25,-148.78 985.08,-150.32"/>
</a>
</g>
</g>
<!-- Node20 -->
<g id="Node000020" class="node">
<title>Node20</title>
<g id="a_Node000020"><a xlink:href="_assert_failed_exception_8h.html" target="_top" xlink:title="@TODO Add description of this file if needed">
<polygon fill="white" stroke="#666666" points="445.38,-212 298.12,-212 298.12,-180 445.38,-180 445.38,-212"/>
<text text-anchor="start" x="306.12" y="-198.5" font-family="Helvetica,sans-Serif" font-size="10.00">engine/core/exceptions</text>
<text text-anchor="middle" x="371.75" y="-186.5" font-family="Helvetica,sans-Serif" font-size="10.00">/core/AssertFailedException.h</text>
</a>
</g>
</g>
<!-- Node17&#45;&gt;Node20 -->
<g id="edge23_Node000017_Node000020" class="edge">
<title>Node17&#45;&gt;Node20</title>
<g id="a_edge23_Node000017_Node000020"><a xlink:title=" ">
<path fill="none" stroke="#63b8ff" d="M694.65,-249.69C691.98,-249.1 689.34,-248.53 686.75,-248 587.59,-227.78 559.01,-229.29 456.64,-212.45"/>
<polygon fill="#63b8ff" stroke="#63b8ff" points="457.42,-209.03 446.98,-210.84 456.27,-215.93 457.42,-209.03"/>
</a>
</g>
</g>
<!-- Node21 -->
<g id="Node000021" class="node">
<title>Node21</title>
<g id="a_Node000021"><a xlink:href="_stringer_8h.html" target="_top" xlink:title="A set of functions for converting objects to strings.">
<polygon fill="white" stroke="#666666" points="842.25,-212 733.25,-212 733.25,-180 842.25,-180 842.25,-212"/>
<text text-anchor="start" x="741.25" y="-198.5" font-family="Helvetica,sans-Serif" font-size="10.00">engine/core/debugger</text>
<text text-anchor="middle" x="787.75" y="-186.5" font-family="Helvetica,sans-Serif" font-size="10.00">/Stringer.h</text>
</a>
</g>
</g>
<!-- Node17&#45;&gt;Node21 -->
<g id="edge25_Node000017_Node000021" class="edge">
<title>Node17&#45;&gt;Node21</title>
<g id="a_edge25_Node000017_Node000021"><a xlink:title=" ">
<path fill="none" stroke="#63b8ff" d="M755.49,-247.69C760.37,-240.03 766.4,-230.56 771.91,-221.88"/>
<polygon fill="#63b8ff" stroke="#63b8ff" points="774.83,-223.82 777.25,-213.5 768.93,-220.06 774.83,-223.82"/>
</a>
</g>
</g>
<!-- Node25 -->
<g id="Node000025" class="node">
<title>Node25</title>
<g id="a_Node000025"><a xlink:href="_logger_8h.html" target="_top" xlink:title="@TODO Add description of this file if needed">
<polygon fill="white" stroke="#666666" points="558.5,-212 463,-212 463,-180 558.5,-180 558.5,-212"/>
<text text-anchor="start" x="471" y="-198.5" font-family="Helvetica,sans-Serif" font-size="10.00">engine/core/logger</text>
<text text-anchor="middle" x="510.75" y="-186.5" font-family="Helvetica,sans-Serif" font-size="10.00">/Logger.h</text>
</a>
</g>
</g>
<!-- Node17&#45;&gt;Node25 -->
<g id="edge32_Node000017_Node000025" class="edge">
<title>Node17&#45;&gt;Node25</title>
<g id="a_edge32_Node000017_Node000025"><a xlink:title=" ">
<path fill="none" stroke="#63b8ff" d="M694.76,-248.68C658.02,-238.36 608.35,-224.41 569.88,-213.61"/>
<polygon fill="#63b8ff" stroke="#63b8ff" points="570.87,-210.25 560.29,-210.91 568.97,-216.99 570.87,-210.25"/>
</a>
</g>
</g>
<!-- Node20&#45;&gt;Node8 -->
<g id="edge24_Node000020_Node000008" class="edge">
<title>Node20&#45;&gt;Node8</title>
<g id="a_edge24_Node000020_Node000008"><a xlink:title=" ">
<path fill="none" stroke="#63b8ff" d="M312.2,-179.53C274.88,-169.83 226.63,-157.29 187.52,-147.13"/>
<polygon fill="#63b8ff" stroke="#63b8ff" points="188.51,-143.77 177.95,-144.64 186.75,-150.55 188.51,-143.77"/>
</a>
</g>
</g>
<!-- Node21&#45;&gt;Node11 -->
<g id="edge26_Node000021_Node000011" class="edge">
<title>Node21&#45;&gt;Node11</title>
<g id="a_edge26_Node000021_Node000011"><a xlink:title=" ">
<path fill="none" stroke="#63b8ff" d="M841.93,-179.51C871.66,-169.8 904.19,-156.74 912.75,-144 920.68,-132.2 920.79,-123.73 912.75,-112 860.18,-35.29 740.34,-16.83 683.19,-12.4"/>
<polygon fill="#63b8ff" stroke="#63b8ff" points="683.72,-8.92 673.5,-11.75 683.25,-15.91 683.72,-8.92"/>
</a>
</g>
</g>
<!-- Node21&#45;&gt;Node13 -->
<g id="edge28_Node000021_Node000013" class="edge">
<title>Node21&#45;&gt;Node13</title>
<g id="a_edge28_Node000021_Node000013"><a xlink:title=" ">
<path fill="none" stroke="#63b8ff" d="M842.61,-183.04C910.8,-168.17 1018.58,-144.64 1020.75,-144 1022.61,-143.45 1024.5,-142.86 1026.41,-142.24"/>
<polygon fill="#63b8ff" stroke="#63b8ff" points="1027.53,-145.55 1035.82,-138.95 1025.23,-138.94 1027.53,-145.55"/>
</a>
</g>
</g>
<!-- Node21&#45;&gt;Node19 -->
<g id="edge27_Node000021_Node000019" class="edge">
<title>Node21&#45;&gt;Node19</title>
<g id="a_edge27_Node000021_Node000019"><a xlink:title=" ">
<path fill="none" stroke="#63b8ff" d="M837.76,-179.51C868.94,-169.69 909.82,-156.53 945.75,-144 947.33,-143.45 948.93,-142.88 950.56,-142.3"/>
<polygon fill="#63b8ff" stroke="#63b8ff" points="951.66,-145.62 959.86,-138.9 949.26,-139.05 951.66,-145.62"/>
</a>
</g>
</g>
<!-- Node22 -->
<g id="Node000022" class="node">
<title>Node22</title>
<g id="a_Node000022"><a xlink:title=" ">
<polygon fill="#e0e0e0" stroke="#999999" points="782.62,-138 732.88,-138 732.88,-118 782.62,-118 782.62,-138"/>
<text text-anchor="middle" x="757.75" y="-124.5" font-family="Helvetica,sans-Serif" font-size="10.00">iomanip</text>
</a>
</g>
</g>
<!-- Node21&#45;&gt;Node22 -->
<g id="edge29_Node000021_Node000022" class="edge">
<title>Node21&#45;&gt;Node22</title>
<g id="a_edge29_Node000021_Node000022"><a xlink:title=" ">
<path fill="none" stroke="#63b8ff" d="M780.79,-179.69C776.61,-170.5 771.25,-158.7 766.75,-148.8"/>
<polygon fill="#63b8ff" stroke="#63b8ff" points="769.94,-147.35 762.61,-139.69 763.56,-150.25 769.94,-147.35"/>
</a>
</g>
</g>
<!-- Node23 -->
<g id="Node000023" class="node">
<title>Node23</title>
<g id="a_Node000023"><a xlink:title=" ">
<polygon fill="#e0e0e0" stroke="#999999" points="846.38,-138 801.12,-138 801.12,-118 846.38,-118 846.38,-138"/>
<text text-anchor="middle" x="823.75" y="-124.5" font-family="Helvetica,sans-Serif" font-size="10.00">cstdint</text>
</a>
</g>
</g>
<!-- Node21&#45;&gt;Node23 -->
<g id="edge30_Node000021_Node000023" class="edge">
<title>Node21&#45;&gt;Node23</title>
<g id="a_edge30_Node000021_Node000023"><a xlink:title=" ">
<path fill="none" stroke="#63b8ff" d="M796.1,-179.69C801.22,-170.3 807.83,-158.18 813.3,-148.15"/>
<polygon fill="#63b8ff" stroke="#63b8ff" points="816.23,-150.1 817.94,-139.64 810.08,-146.75 816.23,-150.1"/>
</a>
</g>
</g>
<!-- Node24 -->
<g id="Node000024" class="node">
<title>Node24</title>
<g id="a_Node000024"><a xlink:title=" ">
<polygon fill="#e0e0e0" stroke="#999999" points="903.38,-138 864.12,-138 864.12,-118 903.38,-118 903.38,-138"/>
<text text-anchor="middle" x="883.75" y="-124.5" font-family="Helvetica,sans-Serif" font-size="10.00">utility</text>
</a>
</g>
</g>
<!-- Node21&#45;&gt;Node24 -->
<g id="edge31_Node000021_Node000024" class="edge">
<title>Node21&#45;&gt;Node24</title>
<g id="a_edge31_Node000021_Node000024"><a xlink:title=" ">
<path fill="none" stroke="#63b8ff" d="M810.02,-179.69C825.28,-169.2 845.48,-155.31 860.88,-144.73"/>
<polygon fill="#63b8ff" stroke="#63b8ff" points="862.69,-147.72 868.95,-139.17 858.73,-141.95 862.69,-147.72"/>
</a>
</g>
</g>
<!-- Node25&#45;&gt;Node3 -->
<g id="edge35_Node000025_Node000003" class="edge">
<title>Node25&#45;&gt;Node3</title>
<g id="a_edge35_Node000025_Node000003"><a xlink:title=" ">
<path fill="none" stroke="#63b8ff" d="M462.61,-181.54C459.96,-180.97 457.33,-180.46 454.75,-180 277.25,-148.56 224.18,-193.17 50.75,-144 49.57,-143.67 48.39,-143.29 47.2,-142.87"/>
<polygon fill="#63b8ff" stroke="#63b8ff" points="48.77,-139.73 38.2,-139.01 46.01,-146.17 48.77,-139.73"/>
</a>
</g>
</g>
<!-- Node25&#45;&gt;Node11 -->
<g id="edge33_Node000025_Node000011" class="edge">
<title>Node25&#45;&gt;Node11</title>
<g id="a_edge33_Node000025_Node000011"><a xlink:title=" ">
<path fill="none" stroke="#63b8ff" d="M462.57,-181.74C459.93,-181.12 457.31,-180.54 454.75,-180 349.61,-157.83 160.49,-199.57 222.75,-112 269.37,-46.42 528.92,-20.43 620.08,-13.24"/>
<polygon fill="#63b8ff" stroke="#63b8ff" points="620.1,-16.75 629.8,-12.5 619.56,-9.77 620.1,-16.75"/>
</a>
</g>
</g>
<!-- Node26 -->
<g id="Node000026" class="node">
<title>Node26</title>
<g id="a_Node000026"><a xlink:title=" ">
<polygon fill="#e0e0e0" stroke="#999999" points="283.38,-138 232.12,-138 232.12,-118 283.38,-118 283.38,-138"/>
<text text-anchor="middle" x="257.75" y="-124.5" font-family="Helvetica,sans-Serif" font-size="10.00">memory</text>
</a>
</g>
</g>
<!-- Node25&#45;&gt;Node26 -->
<g id="edge34_Node000025_Node000026" class="edge">
<title>Node25&#45;&gt;Node26</title>
<g id="a_edge34_Node000025_Node000026"><a xlink:title=" ">
<path fill="none" stroke="#63b8ff" d="M462.52,-181.94C459.9,-181.27 457.29,-180.62 454.75,-180 382.68,-162.4 362.26,-167.09 291.75,-144 290.4,-143.56 289.04,-143.08 287.67,-142.58"/>
<polygon fill="#63b8ff" stroke="#63b8ff" points="289.26,-139.45 278.67,-138.96 286.64,-145.94 289.26,-139.45"/>
</a>
</g>
</g>
<!-- Node27 -->
<g id="Node000027" class="node">
<title>Node27</title>
<g id="a_Node000027"><a xlink:title=" ">
<polygon fill="#e0e0e0" stroke="#999999" points="358.38,-138 301.12,-138 301.12,-118 358.38,-118 358.38,-138"/>
<text text-anchor="middle" x="329.75" y="-124.5" font-family="Helvetica,sans-Serif" font-size="10.00">functional</text>
</a>
</g>
</g>
<!-- Node25&#45;&gt;Node27 -->
<g id="edge36_Node000025_Node000027" class="edge">
<title>Node25&#45;&gt;Node27</title>
<g id="a_edge36_Node000025_Node000027"><a xlink:title=" ">
<path fill="none" stroke="#63b8ff" d="M465.48,-179.55C437.02,-169.69 399.6,-156.47 366.75,-144 365.44,-143.5 364.1,-142.99 362.75,-142.47"/>
<polygon fill="#63b8ff" stroke="#63b8ff" points="364.38,-139.35 353.79,-138.92 361.8,-145.85 364.38,-139.35"/>
</a>
</g>
</g>
<!-- Node28 -->
<g id="Node000028" class="node">
<title>Node28</title>
<g id="a_Node000028"><a xlink:title=" ">
<polygon fill="#e0e0e0" stroke="#999999" points="421.38,-138 376.12,-138 376.12,-118 421.38,-118 421.38,-138"/>
<text text-anchor="middle" x="398.75" y="-124.5" font-family="Helvetica,sans-Serif" font-size="10.00">atomic</text>
</a>
</g>
</g>
<!-- Node25&#45;&gt;Node28 -->
<g id="edge37_Node000025_Node000028" class="edge">
<title>Node25&#45;&gt;Node28</title>
<g id="a_edge37_Node000025_Node000028"><a xlink:title=" ">
<path fill="none" stroke="#63b8ff" d="M484.49,-179.53C466.44,-168.89 442.58,-154.83 424.61,-144.24"/>
<polygon fill="#63b8ff" stroke="#63b8ff" points="426.5,-141.29 416.11,-139.23 422.95,-147.32 426.5,-141.29"/>
</a>
</g>
</g>
<!-- Node29 -->
<g id="Node000029" class="node">
<title>Node29</title>
<g id="a_Node000029"><a xlink:title=" ">
<polygon fill="#e0e0e0" stroke="#999999" points="482.25,-138 439.25,-138 439.25,-118 482.25,-118 482.25,-138"/>
<text text-anchor="middle" x="460.75" y="-124.5" font-family="Helvetica,sans-Serif" font-size="10.00">thread</text>
</a>
</g>
</g>
<!-- Node25&#45;&gt;Node29 -->
<g id="edge38_Node000025_Node000029" class="edge">
<title>Node25&#45;&gt;Node29</title>
<g id="a_edge38_Node000025_Node000029"><a xlink:title=" ">
<path fill="none" stroke="#63b8ff" d="M499.15,-179.69C491.81,-170 482.27,-157.41 474.54,-147.2"/>
<polygon fill="#63b8ff" stroke="#63b8ff" points="477.55,-145.38 468.72,-139.52 471.97,-149.61 477.55,-145.38"/>
</a>
</g>
</g>
<!-- Node30 -->
<g id="Node000030" class="node">
<title>Node30</title>
<g id="a_Node000030"><a xlink:title=" ">
<polygon fill="#e0e0e0" stroke="#999999" points="435.25,-76 392.25,-76 392.25,-56 435.25,-56 435.25,-76"/>
<text text-anchor="middle" x="413.75" y="-62.5" font-family="Helvetica,sans-Serif" font-size="10.00">mutex</text>
</a>
</g>
</g>
<!-- Node25&#45;&gt;Node30 -->
<g id="edge39_Node000025_Node000030" class="edge">
<title>Node25&#45;&gt;Node30</title>
<g id="a_edge39_Node000025_Node000030"><a xlink:title=" ">
<path fill="none" stroke="#63b8ff" d="M510.8,-179.72C510.12,-161.83 506.59,-132.09 491.75,-112 480.43,-96.67 462.21,-85.74 446.22,-78.49"/>
<polygon fill="#63b8ff" stroke="#63b8ff" points="447.6,-75.28 437.02,-74.64 444.89,-81.73 447.6,-75.28"/>
</a>
</g>
</g>
<!-- Node31 -->
<g id="Node000031" class="node">
<title>Node31</title>
<g id="a_Node000031"><a xlink:href="_i_logger_8h.html" target="_top" xlink:title="Class that encapsulates the look and feel of the HUD.">
<polygon fill="white" stroke="#666666" points="679.62,-76 623.88,-76 623.88,-56 679.62,-56 679.62,-76"/>
<text text-anchor="middle" x="651.75" y="-62.5" font-family="Helvetica,sans-Serif" font-size="10.00">ILogger.h</text>
</a>
</g>
</g>
<!-- Node25&#45;&gt;Node31 -->
<g id="edge40_Node000025_Node000031" class="edge">
<title>Node25&#45;&gt;Node31</title>
<g id="a_edge40_Node000025_Node000031"><a xlink:title=" ">
<path fill="none" stroke="#63b8ff" d="M558.7,-190.36C589.39,-184.67 627.18,-172.03 647.75,-144 659.67,-127.76 658.96,-104.01 656.35,-87.19"/>
<polygon fill="#63b8ff" stroke="#63b8ff" points="659.88,-87.01 654.55,-77.85 653,-88.34 659.88,-87.01"/>
</a>
</g>
</g>
<!-- Node32 -->
<g id="Node000032" class="node">
<title>Node32</title>
<g id="a_Node000032"><a xlink:href="_concurrent_queue_8h.html" target="_top" xlink:title="Concurrent queue implementation.">
<polygon fill="white" stroke="#666666" points="638.75,-138 538.75,-138 538.75,-118 638.75,-118 638.75,-138"/>
<text text-anchor="middle" x="588.75" y="-124.5" font-family="Helvetica,sans-Serif" font-size="10.00">ConcurrentQueue.h</text>
</a>
</g>
</g>
<!-- Node25&#45;&gt;Node32 -->
<g id="edge42_Node000025_Node000032" class="edge">
<title>Node25&#45;&gt;Node32</title>
<g id="a_edge42_Node000025_Node000032"><a xlink:title=" ">
<path fill="none" stroke="#63b8ff" d="M528.84,-179.69C540.89,-169.5 556.72,-156.1 569.08,-145.64"/>
<polygon fill="#63b8ff" stroke="#63b8ff" points="571.21,-148.43 576.58,-139.29 566.69,-143.08 571.21,-148.43"/>
</a>
</g>
</g>
<!-- Node31&#45;&gt;Node11 -->
<g id="edge41_Node000031_Node000011" class="edge">
<title>Node31&#45;&gt;Node11</title>
<g id="a_edge41_Node000031_Node000011"><a xlink:title=" ">
<path fill="none" stroke="#63b8ff" d="M651.75,-55.59C651.75,-49.01 651.75,-39.96 651.75,-31.73"/>
<polygon fill="#63b8ff" stroke="#63b8ff" points="655.25,-31.81 651.75,-21.81 648.25,-31.81 655.25,-31.81"/>
</a>
</g>
</g>
<!-- Node32&#45;&gt;Node30 -->
<g id="edge44_Node000032_Node000030" class="edge">
<title>Node32&#45;&gt;Node30</title>
<g id="a_edge44_Node000032_Node000030"><a xlink:title=" ">
<path fill="none" stroke="#63b8ff" d="M561.41,-117.62C530.23,-106.94 479.3,-89.47 446.15,-78.11"/>
<polygon fill="#63b8ff" stroke="#63b8ff" points="447.67,-74.93 437.08,-75 445.4,-81.55 447.67,-74.93"/>
</a>
</g>
</g>
<!-- Node33 -->
<g id="Node000033" class="node">
<title>Node33</title>
<g id="a_Node000033"><a xlink:title=" ">
<polygon fill="#e0e0e0" stroke="#999999" points="605.88,-76 563.62,-76 563.62,-56 605.88,-56 605.88,-76"/>
<text text-anchor="middle" x="584.75" y="-62.5" font-family="Helvetica,sans-Serif" font-size="10.00">queue</text>
</a>
</g>
</g>
<!-- Node32&#45;&gt;Node33 -->
<g id="edge43_Node000032_Node000033" class="edge">
<title>Node32&#45;&gt;Node33</title>
<g id="a_edge43_Node000032_Node000033"><a xlink:title=" ">
<path fill="none" stroke="#63b8ff" d="M588.12,-117.62C587.59,-109.56 586.79,-97.65 586.11,-87.41"/>
<polygon fill="#63b8ff" stroke="#63b8ff" points="589.62,-87.37 585.46,-77.62 582.63,-87.83 589.62,-87.37"/>
</a>
</g>
</g>
<!-- Node34 -->
<g id="Node000034" class="node">
<title>Node34</title>
<g id="a_Node000034"><a xlink:title=" ">
<polygon fill="#e0e0e0" stroke="#999999" points="546,-76 453.5,-76 453.5,-56 546,-56 546,-76"/>
<text text-anchor="middle" x="499.75" y="-62.5" font-family="Helvetica,sans-Serif" font-size="10.00">condition_variable</text>
</a>
</g>
</g>
<!-- Node32&#45;&gt;Node34 -->
<g id="edge45_Node000032_Node000034" class="edge">
<title>Node32&#45;&gt;Node34</title>
<g id="a_edge45_Node000032_Node000034"><a xlink:title=" ">
<path fill="none" stroke="#63b8ff" d="M574.84,-117.62C561,-108.29 539.49,-93.79 523.04,-82.7"/>
<polygon fill="#63b8ff" stroke="#63b8ff" points="525.06,-79.84 514.81,-77.16 521.15,-85.65 525.06,-79.84"/>
</a>
</g>
</g>
<!-- Node35&#45;&gt;Node5 -->
<g id="edge47_Node000035_Node000005" class="edge">
<title>Node35&#45;&gt;Node5</title>
<g id="a_edge47_Node000035_Node000005"><a xlink:title=" ">
<path fill="none" stroke="#63b8ff" d="M976.93,-383.63C991.64,-358.98 1020.49,-310.67 1036.45,-283.93"/>
<polygon fill="#63b8ff" stroke="#63b8ff" points="1039.35,-285.9 1041.47,-275.52 1033.34,-282.32 1039.35,-285.9"/>
</a>
</g>
</g>
</g>
</svg>

<g id="navigator" transform="translate(0 0)" fill="#404254">
  <rect fill="#f2f5e9" fill-opacity="0.5" stroke="#606060" stroke-width=".5" x="0" y="0" width="60" height="60"/>
  <use id="zoomplus" xlink:href="#zoomPlus" x="17" y="9" onmousedown="handleZoom(evt,'in')"/>
  <use id="zoomminus" xlink:href="#zoomMin" x="42" y="9" onmousedown="handleZoom(evt,'out')"/>
  <use id="reset" xlink:href="#resetDef" x="30" y="36" onmousedown="handleReset()"/>
   <use id="arrowup" xlink:href="#arrowUp" x="0" y="0" onmousedown="handlePan(0,-1)"/>
  <use id="arrowright" xlink:href="#arrowRight" x="0" y="0" onmousedown="handlePan(1,0)"/>
  <use id="arrowdown" xlink:href="#arrowDown" x="0" y="0" onmousedown="handlePan(0,1)"/>
  <use id="arrowleft" xlink:href="#arrowLeft" x="0" y="0" onmousedown="handlePan(-1,0)"/>
</g>
<svg viewBox="0 0 15 15" width="100%" height="30px" preserveAspectRatio="xMaxYMin meet">
 <g id="arrow_out" transform="scale(0.3 0.3)">
  <a xlink:href="_vector_mixed_algorithms_8h__incl_org.svg" target="_base">
   <rect id="button" ry="5" rx="5" y="6" x="6" height="38" width="38"
        fill="#f2f5e9" fill-opacity="0.5" stroke="#606060" stroke-width="1.0"/>
   <path id="arrow"
     d="M 11.500037,31.436501 C 11.940474,20.09759 22.043105,11.32322 32.158766,21.979434 L 37.068811,17.246167 C 37.068811,17.246167 37.088388,32 37.088388,32 L 22.160133,31.978069 C 22.160133,31.978069 26.997745,27.140456 26.997745,27.140456 C 18.528582,18.264221 13.291696,25.230495 11.500037,31.436501 z"
     style="fill:#404040;"/>
  </a>
 </g>
</svg>

<style type='text/css'>
<![CDATA[
[data-mouse-over-selected='false'] { opacity: 0.7; }
[data-mouse-over-selected='true']  { opacity: 1.0; }
]]>
</style>
<script type="application/ecmascript"><![CDATA[
document.addEventListener('DOMContentLoaded', (event) => {
  highlightEdges();
  highlightAdjacentNodes();
});
]]></script>
</svg>
