<?xml version="1.0" encoding="UTF-8" standalone="no"?>
<!DOCTYPE svg PUBLIC "-//W3C//DTD SVG 1.1//EN"
 "http://www.w3.org/Graphics/SVG/1.1/DTD/svg11.dtd">
<!-- Generated by graphviz version 11.0.0 (20240428.1522)
 -->
<!-- Title: GLESC::GAPI::OpenGLAPI Pages: 1 -->
<svg width="317pt" height="980pt"
 viewBox="0.00 0.00 317.00 980.00" xmlns="http://www.w3.org/2000/svg" xmlns:xlink="http://www.w3.org/1999/xlink">
<g id="graph0" class="graph" transform="scale(1 1) rotate(0) translate(4 976)">
<title>GLESC::GAPI::OpenGLAPI</title>
<!-- Node1 -->
<g id="Node000001" class="node">
<title>Node1</title>
<g id="a_Node000001"><a xlink:title=" ">
<polygon fill="#999999" stroke="none" points="174,-308 44,-308 44,0 174,0 174,-308"/>
<text text-anchor="start" x="49" y="-294.5" font-family="Helvetica,sans-Serif" font-size="10.00">GLESC::GAPI::OpenGLAPI</text>
<text text-anchor="start" x="52.5" y="-278.5" font-family="Helvetica,sans-Serif" font-size="10.00">&#45;</text>
<text text-anchor="start" x="64" y="-278.5" font-family="Helvetica,sans-Serif" font-size="10.00">context</text>
<text text-anchor="start" x="51" y="-262.5" font-family="Helvetica,sans-Serif" font-size="10.00">+</text>
<text text-anchor="start" x="64" y="-262.5" font-family="Helvetica,sans-Serif" font-size="10.00">OpenGLAPI()</text>
<text text-anchor="start" x="51" y="-246.5" font-family="Helvetica,sans-Serif" font-size="10.00">+</text>
<text text-anchor="start" x="64" y="-246.5" font-family="Helvetica,sans-Serif" font-size="10.00">bindBuffer()</text>
<text text-anchor="start" x="51" y="-230.5" font-family="Helvetica,sans-Serif" font-size="10.00">+</text>
<text text-anchor="start" x="64" y="-230.5" font-family="Helvetica,sans-Serif" font-size="10.00">bindTexture()</text>
<text text-anchor="start" x="51" y="-214.5" font-family="Helvetica,sans-Serif" font-size="10.00">+</text>
<text text-anchor="start" x="64" y="-214.5" font-family="Helvetica,sans-Serif" font-size="10.00">bindTextureOnSlot()</text>
<text text-anchor="start" x="51" y="-198.5" font-family="Helvetica,sans-Serif" font-size="10.00">+</text>
<text text-anchor="start" x="64" y="-198.5" font-family="Helvetica,sans-Serif" font-size="10.00">bindVertexArray()</text>
<text text-anchor="start" x="51" y="-182.5" font-family="Helvetica,sans-Serif" font-size="10.00">+</text>
<text text-anchor="start" x="64" y="-182.5" font-family="Helvetica,sans-Serif" font-size="10.00">clear()</text>
<text text-anchor="start" x="51" y="-166.5" font-family="Helvetica,sans-Serif" font-size="10.00">+</text>
<text text-anchor="start" x="64" y="-166.5" font-family="Helvetica,sans-Serif" font-size="10.00">clearColor()</text>
<text text-anchor="start" x="51" y="-150.5" font-family="Helvetica,sans-Serif" font-size="10.00">+</text>
<text text-anchor="start" x="64" y="-150.5" font-family="Helvetica,sans-Serif" font-size="10.00">compilationOK()</text>
<text text-anchor="start" x="51" y="-134.5" font-family="Helvetica,sans-Serif" font-size="10.00">+</text>
<text text-anchor="start" x="64" y="-134.5" font-family="Helvetica,sans-Serif" font-size="10.00">createContext()</text>
<text text-anchor="start" x="51" y="-118.5" font-family="Helvetica,sans-Serif" font-size="10.00">+</text>
<text text-anchor="start" x="64" y="-118.5" font-family="Helvetica,sans-Serif" font-size="10.00">createShaderProgram()</text>
<text text-anchor="start" x="64" y="-102.5" font-family="Helvetica,sans-Serif" font-size="10.00">and 50 more...</text>
<text text-anchor="start" x="51" y="-86.5" font-family="Helvetica,sans-Serif" font-size="10.00">+</text>
<text text-anchor="start" x="64" y="-86.5" font-family="Helvetica,sans-Serif" font-size="10.00">setUniform()</text>
<text text-anchor="start" x="52.5" y="-70.5" font-family="Helvetica,sans-Serif" font-size="10.00">&#45;</text>
<text text-anchor="start" x="64" y="-70.5" font-family="Helvetica,sans-Serif" font-size="10.00">anyTextureBound()</text>
<text text-anchor="start" x="52.5" y="-54.5" font-family="Helvetica,sans-Serif" font-size="10.00">&#45;</text>
<text text-anchor="start" x="64" y="-54.5" font-family="Helvetica,sans-Serif" font-size="10.00">isTexture()</text>
<text text-anchor="start" x="52.5" y="-38.5" font-family="Helvetica,sans-Serif" font-size="10.00">&#45;</text>
<text text-anchor="start" x="64" y="-38.5" font-family="Helvetica,sans-Serif" font-size="10.00">isTextureBound()</text>
<text text-anchor="start" x="52.5" y="-22.5" font-family="Helvetica,sans-Serif" font-size="10.00">&#45;</text>
<text text-anchor="start" x="64" y="-22.5" font-family="Helvetica,sans-Serif" font-size="10.00">setSDLGLAttribute()</text>
<text text-anchor="start" x="52.5" y="-6.5" font-family="Helvetica,sans-Serif" font-size="10.00">&#45;</text>
<text text-anchor="start" x="64" y="-6.5" font-family="Helvetica,sans-Serif" font-size="10.00">initGLEW()</text>
<polygon fill="#666666" stroke="#666666" points="44,-290 44,-290 174,-290 174,-290 44,-290"/>
<polygon fill="#666666" stroke="#666666" points="44,-274 44,-274 62,-274 62,-274 44,-274"/>
<polygon fill="#666666" stroke="#666666" points="62,-274 62,-274 174,-274 174,-274 62,-274"/>
<polygon fill="none" stroke="#666666" points="44,0 44,-308 174,-308 174,0 44,0"/>
</a>
</g>
</g>
<!-- Node2 -->
<g id="Node000002" class="node">
<title>Node2</title>
<g id="a_Node000002"><a xlink:href="class_g_l_e_s_c_1_1_g_a_p_i_1_1_i_graphic_interface.html" target="_top" xlink:title=" ">
<polygon fill="white" stroke="none" points="184.5,-636 33.5,-636 33.5,-344 184.5,-344 184.5,-636"/>
<text text-anchor="start" x="38.5" y="-622.5" font-family="Helvetica,sans-Serif" font-size="10.00">GLESC::GAPI::IGraphicInterface</text>
<text text-anchor="start" x="47.88" y="-606.5" font-family="Helvetica,sans-Serif" font-size="10.00">#</text>
<text text-anchor="start" x="67.5" y="-606.5" font-family="Helvetica,sans-Serif" font-size="10.00">boundShaderProgram</text>
<text text-anchor="start" x="47.88" y="-590.5" font-family="Helvetica,sans-Serif" font-size="10.00">#</text>
<text text-anchor="start" x="67.5" y="-590.5" font-family="Helvetica,sans-Serif" font-size="10.00">boundTexture</text>
<text text-anchor="start" x="47.88" y="-574.5" font-family="Helvetica,sans-Serif" font-size="10.00">#</text>
<text text-anchor="start" x="67.5" y="-574.5" font-family="Helvetica,sans-Serif" font-size="10.00">rowMajorMatrix</text>
<text text-anchor="start" x="47.5" y="-558.5" font-family="Helvetica,sans-Serif" font-size="10.00">+</text>
<text text-anchor="start" x="67.5" y="-558.5" font-family="Helvetica,sans-Serif" font-size="10.00">IGraphicInterface()</text>
<text text-anchor="start" x="47.5" y="-542.5" font-family="Helvetica,sans-Serif" font-size="10.00">+</text>
<text text-anchor="start" x="67.5" y="-542.5" font-family="Helvetica,sans-Serif" font-size="10.00">~IGraphicInterface()</text>
<text text-anchor="start" x="47.5" y="-526.5" font-family="Helvetica,sans-Serif" font-size="10.00">+</text>
<text text-anchor="start" x="67.5" y="-526.5" font-family="Helvetica,sans-Serif" font-size="10.00">bindBuffer()</text>
<text text-anchor="start" x="47.5" y="-510.5" font-family="Helvetica,sans-Serif" font-size="10.00">+</text>
<text text-anchor="start" x="67.5" y="-510.5" font-family="Helvetica,sans-Serif" font-size="10.00">bindTexture()</text>
<text text-anchor="start" x="47.5" y="-494.5" font-family="Helvetica,sans-Serif" font-size="10.00">+</text>
<text text-anchor="start" x="67.5" y="-494.5" font-family="Helvetica,sans-Serif" font-size="10.00">bindTextureOnSlot()</text>
<text text-anchor="start" x="47.5" y="-478.5" font-family="Helvetica,sans-Serif" font-size="10.00">+</text>
<text text-anchor="start" x="67.5" y="-478.5" font-family="Helvetica,sans-Serif" font-size="10.00">bindVertexArray()</text>
<text text-anchor="start" x="47.5" y="-462.5" font-family="Helvetica,sans-Serif" font-size="10.00">+</text>
<text text-anchor="start" x="67.5" y="-462.5" font-family="Helvetica,sans-Serif" font-size="10.00">clear()</text>
<text text-anchor="start" x="47.5" y="-446.5" font-family="Helvetica,sans-Serif" font-size="10.00">+</text>
<text text-anchor="start" x="67.5" y="-446.5" font-family="Helvetica,sans-Serif" font-size="10.00">clearColor()</text>
<text text-anchor="start" x="47.5" y="-430.5" font-family="Helvetica,sans-Serif" font-size="10.00">+</text>
<text text-anchor="start" x="67.5" y="-430.5" font-family="Helvetica,sans-Serif" font-size="10.00">compilationOK()</text>
<text text-anchor="start" x="47.5" y="-414.5" font-family="Helvetica,sans-Serif" font-size="10.00">+</text>
<text text-anchor="start" x="67.5" y="-414.5" font-family="Helvetica,sans-Serif" font-size="10.00">createContext()</text>
<text text-anchor="start" x="67.5" y="-398.5" font-family="Helvetica,sans-Serif" font-size="10.00">and 48 more...</text>
<text text-anchor="start" x="47.88" y="-382.5" font-family="Helvetica,sans-Serif" font-size="10.00">#</text>
<text text-anchor="start" x="67.5" y="-382.5" font-family="Helvetica,sans-Serif" font-size="10.00">anyTextureBound()</text>
<text text-anchor="start" x="47.88" y="-366.5" font-family="Helvetica,sans-Serif" font-size="10.00">#</text>
<text text-anchor="start" x="67.5" y="-366.5" font-family="Helvetica,sans-Serif" font-size="10.00">isTexture()</text>
<text text-anchor="start" x="47.88" y="-350.5" font-family="Helvetica,sans-Serif" font-size="10.00">#</text>
<text text-anchor="start" x="67.5" y="-350.5" font-family="Helvetica,sans-Serif" font-size="10.00">isTextureBound()</text>
<polygon fill="#666666" stroke="#666666" points="33.5,-618 33.5,-618 184.5,-618 184.5,-618 33.5,-618"/>
<polygon fill="#666666" stroke="#666666" points="33.5,-570 33.5,-570 65.5,-570 65.5,-570 33.5,-570"/>
<polygon fill="#666666" stroke="#666666" points="65.5,-570 65.5,-570 184.5,-570 184.5,-570 65.5,-570"/>
<polygon fill="none" stroke="#666666" points="33.5,-344 33.5,-636 184.5,-636 184.5,-344 33.5,-344"/>
</a>
</g>
</g>
<!-- Node2&#45;&gt;Node1 -->
<g id="edge1_Node000001_Node000002" class="edge">
<title>Node2&#45;&gt;Node1</title>
<g id="a_edge1_Node000001_Node000002"><a xlink:title=" ">
<path fill="none" stroke="#63b8ff" d="M109,-333.08C109,-324.73 109,-316.34 109,-308"/>
<polygon fill="none" stroke="#63b8ff" points="105.5,-332.93 109,-342.93 112.5,-332.93 105.5,-332.93"/>
</a>
</g>
</g>
<!-- Node3 -->
<g id="Node000003" class="node">
<title>Node3</title>
<g id="a_Node000003"><a xlink:title=" ">
<polygon fill="white" stroke="none" points="102,-742 0,-742 0,-690 102,-690 102,-742"/>
<text text-anchor="start" x="4.88" y="-728.5" font-family="Helvetica,sans-Serif" font-size="10.00">std::set&lt; TextureID &gt;</text>
<text text-anchor="start" x="19.5" y="-712.5" font-family="Helvetica,sans-Serif" font-size="10.00">+</text>
<text text-anchor="start" x="45" y="-712.5" font-family="Helvetica,sans-Serif" font-size="10.00">keys</text>
<text text-anchor="start" x="49.5" y="-696.5" font-family="Helvetica,sans-Serif" font-size="10.00"> </text>
<polygon fill="#666666" stroke="#666666" points="0,-724 0,-724 102,-724 102,-724 0,-724"/>
<polygon fill="#666666" stroke="#666666" points="0,-708 0,-708 43,-708 43,-708 0,-708"/>
<polygon fill="#666666" stroke="#666666" points="43,-708 43,-708 102,-708 102,-708 43,-708"/>
<polygon fill="none" stroke="#666666" points="0,-690 0,-742 102,-742 102,-690 0,-690"/>
</a>
</g>
</g>
<!-- Node3&#45;&gt;Node2 -->
<g id="edge2_Node000002_Node000003" class="edge">
<title>Node3&#45;&gt;Node2</title>
<g id="a_edge2_Node000002_Node000003"><a xlink:title=" ">
<path fill="none" stroke="#63b8ff" d="M57.43,-690.17C60.37,-678.83 64.11,-664.36 68.24,-648.41"/>
<polygon fill="none" stroke="#63b8ff" points="68.23,-648.44 65.87,-641.63 71.24,-636.82 73.61,-643.63 68.23,-648.44"/>
</a>
</g>
<text text-anchor="middle" x="100" y="-656.5" font-family="Helvetica,sans-Serif" font-size="10.00" fill="grey"> #textureCache</text>
</g>
<!-- Node4 -->
<g id="Node000004" class="node">
<title>Node4</title>
<g id="a_Node000004"><a xlink:title=" ">
<polygon fill="white" stroke="none" points="84.5,-854 17.5,-854 17.5,-802 84.5,-802 84.5,-854"/>
<text text-anchor="start" x="22.12" y="-840.5" font-family="Helvetica,sans-Serif" font-size="10.00">std::set&lt; K &gt;</text>
<text text-anchor="start" x="49.5" y="-824.5" font-family="Helvetica,sans-Serif" font-size="10.00"> </text>
<text text-anchor="start" x="49.5" y="-808.5" font-family="Helvetica,sans-Serif" font-size="10.00"> </text>
<polygon fill="#666666" stroke="#666666" points="17.5,-836 17.5,-836 84.5,-836 84.5,-836 17.5,-836"/>
<polygon fill="#666666" stroke="#666666" points="17.5,-820 17.5,-820 84.5,-820 84.5,-820 17.5,-820"/>
<polygon fill="none" stroke="#666666" points="17.5,-802 17.5,-854 84.5,-854 84.5,-802 17.5,-802"/>
</a>
</g>
</g>
<!-- Node4&#45;&gt;Node3 -->
<g id="edge3_Node000003_Node000004" class="edge">
<title>Node4&#45;&gt;Node3</title>
<g id="a_edge3_Node000003_Node000004"><a xlink:title=" ">
<path fill="none" stroke="orange" d="M51,-790.87C51,-774.82 51,-756.33 51,-741.86"/>
<polygon fill="orange" stroke="orange" points="47.5,-790.53 51,-800.53 54.5,-790.53 47.5,-790.53"/>
</a>
</g>
<text text-anchor="middle" x="82.12" y="-768.5" font-family="Helvetica,sans-Serif" font-size="10.00" fill="grey"> &lt; TextureID &gt;</text>
</g>
<!-- Node5 -->
<g id="Node000005" class="node">
<title>Node5</title>
<g id="a_Node000005"><a xlink:title=" ">
<polygon fill="white" stroke="none" points="86,-966 70,-966 70,-914 86,-914 86,-966"/>
<text text-anchor="start" x="74.62" y="-952.5" font-family="Helvetica,sans-Serif" font-size="10.00">K</text>
<text text-anchor="start" x="76.5" y="-936.5" font-family="Helvetica,sans-Serif" font-size="10.00"> </text>
<text text-anchor="start" x="76.5" y="-920.5" font-family="Helvetica,sans-Serif" font-size="10.00"> </text>
<polygon fill="#666666" stroke="#666666" points="70,-948 70,-948 86,-948 86,-948 70,-948"/>
<polygon fill="#666666" stroke="#666666" points="70,-932 70,-932 86,-932 86,-932 70,-932"/>
<polygon fill="none" stroke="#666666" points="70,-914 70,-966 86,-966 86,-914 70,-914"/>
</a>
</g>
</g>
<!-- Node5&#45;&gt;Node4 -->
<g id="edge4_Node000004_Node000005" class="edge">
<title>Node5&#45;&gt;Node4</title>
<g id="a_edge4_Node000004_Node000005"><a xlink:title=" ">
<path fill="none" stroke="#63b8ff" d="M70.17,-927.95C63.91,-918.41 55.6,-903.99 52,-890 50.11,-882.67 49.2,-874.67 48.87,-866.95"/>
<polygon fill="none" stroke="#63b8ff" points="48.87,-866.89 44.83,-860.91 48.8,-854.89 52.83,-860.87 48.87,-866.89"/>
</a>
</g>
<text text-anchor="middle" x="67" y="-880.5" font-family="Helvetica,sans-Serif" font-size="10.00" fill="grey"> +keys</text>
</g>
<!-- Node9 -->
<g id="Node000009" class="node">
<title>Node9</title>
<g id="a_Node000009"><a xlink:title=" ">
<polygon fill="white" stroke="none" points="202,-860 106,-860 106,-796 202,-796 202,-860"/>
<text text-anchor="start" x="110.88" y="-846.5" font-family="Helvetica,sans-Serif" font-size="10.00">std::unordered_map</text>
<text text-anchor="start" x="136" y="-834.5" font-family="Helvetica,sans-Serif" font-size="10.00">&lt; K, T &gt;</text>
<text text-anchor="start" x="152.5" y="-818.5" font-family="Helvetica,sans-Serif" font-size="10.00"> </text>
<text text-anchor="start" x="152.5" y="-802.5" font-family="Helvetica,sans-Serif" font-size="10.00"> </text>
<polygon fill="#666666" stroke="#666666" points="106,-830 106,-830 202,-830 202,-830 106,-830"/>
<polygon fill="#666666" stroke="#666666" points="106,-814 106,-814 202,-814 202,-814 106,-814"/>
<polygon fill="none" stroke="#666666" points="106,-796 106,-860 202,-860 202,-796 106,-796"/>
</a>
</g>
</g>
<!-- Node5&#45;&gt;Node9 -->
<g id="edge9_Node000009_Node000005" class="edge">
<title>Node5&#45;&gt;Node9</title>
<g id="a_edge9_Node000009_Node000005"><a xlink:title=" ">
<path fill="none" stroke="#63b8ff" d="M85.85,-927.64C95.21,-914.09 111.4,-890.66 125.65,-870.04"/>
<polygon fill="none" stroke="#63b8ff" points="125.54,-870.19 125.66,-862.98 132.36,-860.32 132.24,-867.53 125.54,-870.19"/>
</a>
</g>
<text text-anchor="middle" x="134" y="-880.5" font-family="Helvetica,sans-Serif" font-size="10.00" fill="grey"> +keys</text>
</g>
<!-- Node6 -->
<g id="Node000006" class="node">
<title>Node6</title>
<g id="a_Node000006"><a xlink:title=" ">
<polygon fill="white" stroke="none" points="216,-748 120,-748 120,-684 216,-684 216,-748"/>
<text text-anchor="start" x="124.88" y="-734.5" font-family="Helvetica,sans-Serif" font-size="10.00">std::unordered_map</text>
<text text-anchor="start" x="125.62" y="-722.5" font-family="Helvetica,sans-Serif" font-size="10.00">&lt; std::string, UInt &gt;</text>
<text text-anchor="start" x="133.5" y="-706.5" font-family="Helvetica,sans-Serif" font-size="10.00">+</text>
<text text-anchor="start" x="153" y="-706.5" font-family="Helvetica,sans-Serif" font-size="10.00">elements</text>
<text text-anchor="start" x="166.5" y="-690.5" font-family="Helvetica,sans-Serif" font-size="10.00"> </text>
<polygon fill="#666666" stroke="#666666" points="120,-718 120,-718 216,-718 216,-718 120,-718"/>
<polygon fill="#666666" stroke="#666666" points="120,-702 120,-702 151,-702 151,-702 120,-702"/>
<polygon fill="#666666" stroke="#666666" points="151,-702 151,-702 216,-702 216,-702 151,-702"/>
<polygon fill="none" stroke="#666666" points="120,-684 120,-748 216,-748 216,-684 120,-684"/>
</a>
</g>
</g>
<!-- Node6&#45;&gt;Node2 -->
<g id="edge5_Node000002_Node000006" class="edge">
<title>Node6&#45;&gt;Node2</title>
<g id="a_edge5_Node000002_Node000006"><a xlink:title=" ">
<path fill="none" stroke="#63b8ff" d="M159.92,-684.32C157.19,-673.96 153.93,-661.57 150.39,-648.15"/>
<polygon fill="none" stroke="#63b8ff" points="150.36,-648.04 144.97,-643.25 147.31,-636.43 152.7,-641.22 150.36,-648.04"/>
</a>
</g>
<text text-anchor="middle" x="207.75" y="-656.5" font-family="Helvetica,sans-Serif" font-size="10.00" fill="grey"> #uniformLocationsCache</text>
</g>
<!-- Node7 -->
<g id="Node000007" class="node">
<title>Node7</title>
<g id="a_Node000007"><a xlink:title=" ">
<polygon fill="white" stroke="none" points="291.5,-854 238.5,-854 238.5,-802 291.5,-802 291.5,-854"/>
<text text-anchor="start" x="243.25" y="-840.5" font-family="Helvetica,sans-Serif" font-size="10.00">std::string</text>
<text text-anchor="start" x="263.5" y="-824.5" font-family="Helvetica,sans-Serif" font-size="10.00"> </text>
<text text-anchor="start" x="263.5" y="-808.5" font-family="Helvetica,sans-Serif" font-size="10.00"> </text>
<polygon fill="#666666" stroke="#666666" points="238.5,-836 238.5,-836 291.5,-836 291.5,-836 238.5,-836"/>
<polygon fill="#666666" stroke="#666666" points="238.5,-820 238.5,-820 291.5,-820 291.5,-820 238.5,-820"/>
<polygon fill="none" stroke="#666666" points="238.5,-802 238.5,-854 291.5,-854 291.5,-802 238.5,-802"/>
</a>
</g>
</g>
<!-- Node7&#45;&gt;Node6 -->
<g id="edge6_Node000006_Node000007" class="edge">
<title>Node7&#45;&gt;Node6</title>
<g id="a_edge6_Node000006_Node000007"><a xlink:title=" ">
<path fill="none" stroke="#63b8ff" d="M259.9,-802.02C256.56,-790.19 251.24,-776.42 243,-766 238.12,-759.84 232.25,-754.2 225.97,-749.11"/>
<polygon fill="none" stroke="#63b8ff" points="226.19,-749.28 218.99,-748.91 216.55,-742.13 223.76,-742.49 226.19,-749.28"/>
</a>
</g>
<text text-anchor="middle" x="265" y="-768.5" font-family="Helvetica,sans-Serif" font-size="10.00" fill="grey"> +keys</text>
</g>
<!-- Node8 -->
<g id="Node000008" class="node">
<title>Node8</title>
<g id="a_Node000008"><a xlink:title=" ">
<polygon fill="white" stroke="none" points="309,-972 221,-972 221,-908 309,-908 309,-972"/>
<text text-anchor="start" x="226" y="-958.5" font-family="Helvetica,sans-Serif" font-size="10.00">std::basic_string&lt;</text>
<text text-anchor="start" x="248.88" y="-946.5" font-family="Helvetica,sans-Serif" font-size="10.00"> Char &gt;</text>
<text text-anchor="start" x="263.5" y="-930.5" font-family="Helvetica,sans-Serif" font-size="10.00"> </text>
<text text-anchor="start" x="263.5" y="-914.5" font-family="Helvetica,sans-Serif" font-size="10.00"> </text>
<polygon fill="#666666" stroke="#666666" points="221,-942 221,-942 309,-942 309,-942 221,-942"/>
<polygon fill="#666666" stroke="#666666" points="221,-926 221,-926 309,-926 309,-926 221,-926"/>
<polygon fill="none" stroke="#666666" points="221,-908 221,-972 309,-972 309,-908 221,-908"/>
</a>
</g>
</g>
<!-- Node8&#45;&gt;Node7 -->
<g id="edge7_Node000007_Node000008" class="edge">
<title>Node8&#45;&gt;Node7</title>
<g id="a_edge7_Node000007_Node000008"><a xlink:title=" ">
<path fill="none" stroke="#63b8ff" d="M265,-896.77C265,-882.25 265,-866.47 265,-853.79"/>
<polygon fill="none" stroke="#63b8ff" points="261.5,-896.55 265,-906.55 268.5,-896.55 261.5,-896.55"/>
</a>
</g>
</g>
<!-- Node9&#45;&gt;Node6 -->
<g id="edge8_Node000006_Node000009" class="edge">
<title>Node9&#45;&gt;Node6</title>
<g id="a_edge8_Node000006_Node000009"><a xlink:title=" ">
<path fill="none" stroke="orange" d="M153.57,-784.94C153.88,-778.57 154.41,-772.1 155.25,-766 156.07,-760.08 157.35,-753.85 158.8,-747.89"/>
<polygon fill="orange" stroke="orange" points="150.08,-784.56 153.28,-794.66 157.08,-784.77 150.08,-784.56"/>
</a>
</g>
<text text-anchor="middle" x="198.88" y="-768.5" font-family="Helvetica,sans-Serif" font-size="10.00" fill="grey"> &lt; std::string, UInt &gt;</text>
</g>
<!-- Node10 -->
<g id="Node000010" class="node">
<title>Node10</title>
<g id="a_Node000010"><a xlink:title=" ">
<polygon fill="white" stroke="none" points="164.5,-966 149.5,-966 149.5,-914 164.5,-914 164.5,-966"/>
<text text-anchor="start" x="154.38" y="-952.5" font-family="Helvetica,sans-Serif" font-size="10.00">T</text>
<text text-anchor="start" x="155.5" y="-936.5" font-family="Helvetica,sans-Serif" font-size="10.00"> </text>
<text text-anchor="start" x="155.5" y="-920.5" font-family="Helvetica,sans-Serif" font-size="10.00"> </text>
<polygon fill="#666666" stroke="#666666" points="149.5,-948 149.5,-948 164.5,-948 164.5,-948 149.5,-948"/>
<polygon fill="#666666" stroke="#666666" points="149.5,-932 149.5,-932 164.5,-932 164.5,-932 149.5,-932"/>
<polygon fill="none" stroke="#666666" points="149.5,-914 149.5,-966 164.5,-966 164.5,-914 149.5,-914"/>
</a>
</g>
</g>
<!-- Node10&#45;&gt;Node9 -->
<g id="edge10_Node000009_Node000010" class="edge">
<title>Node10&#45;&gt;Node9</title>
<g id="a_edge10_Node000009_Node000010"><a xlink:title=" ">
<path fill="none" stroke="#63b8ff" d="M156.32,-914.04C155.99,-901.84 155.58,-886.79 155.19,-872.76"/>
<polygon fill="none" stroke="#63b8ff" points="155.19,-872.65 151.03,-866.76 154.86,-860.65 159.03,-866.54 155.19,-872.65"/>
</a>
</g>
<text text-anchor="middle" x="179.38" y="-880.5" font-family="Helvetica,sans-Serif" font-size="10.00" fill="grey"> +elements</text>
</g>
</g>
</svg>
