<?xml version="1.0" encoding="UTF-8" standalone="no"?>
<!DOCTYPE svg PUBLIC "-//W3C//DTD SVG 1.1//EN"
 "http://www.w3.org/Graphics/SVG/1.1/DTD/svg11.dtd">
<!-- Generated by graphviz version 11.0.0 (20240428.1522)
 -->
<!-- Title: GLESC::Math::VectorAlgorithms::project Pages: 1 -->
<svg width="463pt" height="78pt"
 viewBox="0.00 0.00 462.50 78.00" xmlns="http://www.w3.org/2000/svg" xmlns:xlink="http://www.w3.org/1999/xlink">
<g id="graph0" class="graph" transform="scale(1 1) rotate(0) translate(4 74)">
<title>GLESC::Math::VectorAlgorithms::project</title>
<!-- Node1 -->
<g id="Node000001" class="node">
<title>Node1</title>
<g id="a_Node000001"><a xlink:title="Projects a vector onto another vector.">
<polygon fill="#999999" stroke="#666666" points="454.5,-48 296.75,-48 296.75,-16 454.5,-16 454.5,-48"/>
<text text-anchor="start" x="304.75" y="-34.5" font-family="Helvetica,sans-Serif" font-size="10.00">GLESC::Math::VectorAlgorithms</text>
<text text-anchor="middle" x="375.62" y="-22.5" font-family="Helvetica,sans-Serif" font-size="10.00">::project</text>
</a>
</g>
</g>
<!-- Node2 -->
<g id="Node000002" class="node">
<title>Node2</title>
<g id="a_Node000002"><a xlink:href="class_g_l_e_s_c_1_1_math_1_1_vector.html#afe0496b857816e05a61744e6a8c852bb" target="_top" xlink:title="Projects the vector onto another vector.">
<polygon fill="white" stroke="#666666" points="260.75,-70 149.5,-70 149.5,-38 260.75,-38 260.75,-70"/>
<text text-anchor="start" x="157.5" y="-56.5" font-family="Helvetica,sans-Serif" font-size="10.00">GLESC::Math::Vector</text>
<text text-anchor="middle" x="205.12" y="-44.5" font-family="Helvetica,sans-Serif" font-size="10.00">::project</text>
</a>
</g>
</g>
<!-- Node1&#45;&gt;Node2 -->
<g id="edge1_Node000001_Node000002" class="edge">
<title>Node1&#45;&gt;Node2</title>
<g id="a_edge1_Node000001_Node000002"><a xlink:title=" ">
<path fill="none" stroke="#63b8ff" d="M284.88,-43.72C276.82,-44.77 268.82,-45.81 261.19,-46.81"/>
<polygon fill="#63b8ff" stroke="#63b8ff" points="285.33,-47.19 294.79,-42.42 284.42,-40.25 285.33,-47.19"/>
</a>
</g>
</g>
<!-- Node4 -->
<g id="Node000004" class="node">
<title>Node4</title>
<g id="a_Node000004"><a xlink:href="_vector_algorithms_tests_8cpp.html#a798696f45236802fdbfee46f1ea6ea33" target="_top" xlink:title=" ">
<polygon fill="white" stroke="#666666" points="243.88,-20 166.38,-20 166.38,0 243.88,0 243.88,-20"/>
<text text-anchor="middle" x="205.12" y="-6.5" font-family="Helvetica,sans-Serif" font-size="10.00">TYPED_TEST</text>
</a>
</g>
</g>
<!-- Node1&#45;&gt;Node4 -->
<g id="edge3_Node000001_Node000004" class="edge">
<title>Node1&#45;&gt;Node4</title>
<g id="a_edge3_Node000001_Node000004"><a xlink:title=" ">
<path fill="none" stroke="#63b8ff" d="M285.17,-20.32C270.65,-18.42 256.33,-16.55 243.95,-14.94"/>
<polygon fill="#63b8ff" stroke="#63b8ff" points="284.42,-23.75 294.79,-21.58 285.33,-16.81 284.42,-23.75"/>
</a>
</g>
</g>
<!-- Node3 -->
<g id="Node000003" class="node">
<title>Node3</title>
<g id="a_Node000003"><a xlink:href="class_g_l_e_s_c_1_1_math_1_1_sphere.html#af57e36ca525f974ffbf5bb25f041a3b0" target="_top" xlink:title="Checks if the figure intersects with the given line.">
<polygon fill="white" stroke="#666666" points="113.5,-70 0,-70 0,-38 113.5,-38 113.5,-70"/>
<text text-anchor="start" x="8" y="-56.5" font-family="Helvetica,sans-Serif" font-size="10.00">GLESC::Math::Sphere</text>
<text text-anchor="middle" x="56.75" y="-44.5" font-family="Helvetica,sans-Serif" font-size="10.00">::intersects</text>
</a>
</g>
</g>
<!-- Node2&#45;&gt;Node3 -->
<g id="edge2_Node000002_Node000003" class="edge">
<title>Node2&#45;&gt;Node3</title>
<g id="a_edge2_Node000002_Node000003"><a xlink:title=" ">
<path fill="none" stroke="#63b8ff" d="M137.7,-54C129.77,-54 121.73,-54 113.95,-54"/>
<polygon fill="#63b8ff" stroke="#63b8ff" points="137.69,-57.5 147.69,-54 137.69,-50.5 137.69,-57.5"/>
</a>
</g>
</g>
</g>
</svg>
