<?xml version="1.0" encoding="UTF-8" standalone="no"?>
<!DOCTYPE svg PUBLIC "-//W3C//DTD SVG 1.1//EN"
 "http://www.w3.org/Graphics/SVG/1.1/DTD/svg11.dtd">
<!-- Generated by graphviz version 11.0.0 (20240428.1522)
 -->
<!-- Title: GLESC::ECS::FogSystem::update Pages: 1 -->
<!--zoomable 212 -->

<svg id="main" version="1.1" xmlns="http://www.w3.org/2000/svg" xmlns:xlink="http://www.w3.org/1999/xlink" xml:space="preserve" onload="init(evt)">
<style type="text/css"><![CDATA[
.node, .edge {opacity: 0.7;}
.node.selected, .edge.selected {opacity: 1;}
.edge:hover path { stroke: red; }
.edge:hover polygon { stroke: red; fill: red; }
]]></style>

<defs>
  <circle id="rim" cx="0" cy="0" r="7"/>
  <circle id="rim2" cx="0" cy="0" r="3.5"/>
  <g id="zoomPlus">
    <use xlink:href="#rim" fill="#404040"><set attributeName="fill" to="#808080" begin="zoomplus.mouseover" end="zoomplus.mouseout"/></use>
    <path d="M-4,0h8M0,-4v8" fill="none" stroke="white" stroke-width="1.5" pointer-events="none"/>
  </g>
  <g id="zoomMin">
    <use xlink:href="#rim" fill="#404040"><set attributeName="fill" to="#808080" begin="zoomminus.mouseover" end="zoomminus.mouseout"/></use>
    <path d="M-4,0h8" fill="none" stroke="white" stroke-width="1.5" pointer-events="none"/>
  </g>
  <g id="arrowUp" transform="translate(30 24)">
    <use xlink:href="#rim"/>
    <path pointer-events="none" fill="none" stroke="white" stroke-width="1.5" d="M0,-3.0v7 M-2.5,-0.5L0,-3.0L2.5,-0.5"/>
  </g>
  <g id="arrowRight" transform="rotate(90) translate(36 -43)">
    <use xlink:href="#rim"/>
    <path pointer-events="none" fill="none" stroke="white" stroke-width="1.5" d="M0,-3.0v7 M-2.5,-0.5L0,-3.0L2.5,-0.5"/>
  </g>
  <g id="arrowDown" transform="rotate(180) translate(-30 -48)">
    <use xlink:href="#rim"/>
    <path pointer-events="none" fill="none" stroke="white" stroke-width="1.5" d="M0,-3.0v7 M-2.5,-0.5L0,-3.0L2.5,-0.5"/>
  </g>
  <g id="arrowLeft" transform="rotate(270) translate(-36 17)">
    <use xlink:href="#rim"/>
    <path pointer-events="none" fill="none" stroke="white" stroke-width="1.5" d="M0,-3.0v7 M-2.5,-0.5L0,-3.0L2.5,-0.5"/>
  </g>
  <g id="resetDef">
    <use xlink:href="#rim2" fill="#404040"><set attributeName="fill" to="#808080" begin="reset.mouseover" end="reset.mouseout"/></use>
  </g>
</defs>
<script type="application/ecmascript">
var viewWidth = 912;
var viewHeight = 212;
var sectionId = 'dynsection-2';
</script>
<script type="application/ecmascript" xlink:href="svg.min.js"/>
<svg id="graph" class="graph">
<g id="viewport">
<title>GLESC::ECS::FogSystem::update</title>
<!-- Node1 -->
<g id="Node000001" class="node">
<title>Node1</title>
<g id="a_Node000001"><a xlink:title="Updates the system.">
<polygon fill="#999999" stroke="#666666" points="131.5,-107 0,-107 0,-75 131.5,-75 131.5,-107"/>
<text text-anchor="start" x="8" y="-93.5" font-family="Helvetica,sans-Serif" font-size="10.00">GLESC::ECS::FogSystem</text>
<text text-anchor="middle" x="65.75" y="-81.5" font-family="Helvetica,sans-Serif" font-size="10.00">::update</text>
</a>
</g>
</g>
<!-- Node2 -->
<g id="Node000002" class="node">
<title>Node2</title>
<g id="a_Node000002"><a xlink:href="class_hud_items_manager.html#a5801f8276e4c73adfc286cb9b6857415" target="_top" xlink:title=" ">
<polygon fill="white" stroke="#666666" points="317,-170 181.75,-170 181.75,-150 317,-150 317,-170"/>
<text text-anchor="middle" x="249.38" y="-156.5" font-family="Helvetica,sans-Serif" font-size="10.00">HudItemsManager::addItem</text>
</a>
</g>
</g>
<!-- Node1&#45;&gt;Node2 -->
<g id="edge1_Node000001_Node000002" class="edge">
<title>Node1&#45;&gt;Node2</title>
<g id="a_edge1_Node000001_Node000002"><a xlink:title=" ">
<path fill="none" stroke="#63b8ff" d="M95.51,-107.49C115.25,-118.25 142.33,-131.93 167.5,-141 173.18,-143.05 179.17,-144.93 185.21,-146.65"/>
<polygon fill="#63b8ff" stroke="#63b8ff" points="184.06,-149.97 194.62,-149.18 185.88,-143.21 184.06,-149.97"/>
</a>
</g>
</g>
<!-- Node3 -->
<g id="Node000003" class="node">
<title>Node3</title>
<g id="a_Node000003"><a xlink:href="class_g_l_e_s_c_1_1_e_c_s_1_1_system.html#a9b4f36ba29354a976dc23a598ec85952" target="_top" xlink:title="Gets the entities associated with the system.">
<polygon fill="white" stroke="#666666" points="308,-132 190.75,-132 190.75,-100 308,-100 308,-132"/>
<text text-anchor="start" x="198.75" y="-118.5" font-family="Helvetica,sans-Serif" font-size="10.00">GLESC::ECS::System</text>
<text text-anchor="middle" x="249.38" y="-106.5" font-family="Helvetica,sans-Serif" font-size="10.00">::getAssociatedEntities</text>
</a>
</g>
</g>
<!-- Node1&#45;&gt;Node3 -->
<g id="edge2_Node000001_Node000003" class="edge">
<title>Node1&#45;&gt;Node3</title>
<g id="a_edge2_Node000001_Node000003"><a xlink:title=" ">
<path fill="none" stroke="#63b8ff" d="M131.81,-99.95C147.21,-102.07 163.68,-104.34 179.25,-106.49"/>
<polygon fill="#63b8ff" stroke="#63b8ff" points="178.52,-109.92 188.91,-107.81 179.48,-102.98 178.52,-109.92"/>
</a>
</g>
</g>
<!-- Node9 -->
<g id="Node000009" class="node">
<title>Node9</title>
<g id="a_Node000009"><a xlink:href="class_g_l_e_s_c_1_1_render_1_1_renderer.html#a23d2e380d523e7de98bc73c91881d306" target="_top" xlink:title=" ">
<polygon fill="white" stroke="#666666" points="331.25,-82 167.5,-82 167.5,-50 331.25,-50 331.25,-82"/>
<text text-anchor="start" x="175.5" y="-68.5" font-family="Helvetica,sans-Serif" font-size="10.00">GLESC::Render::Renderer</text>
<text text-anchor="middle" x="249.38" y="-56.5" font-family="Helvetica,sans-Serif" font-size="10.00">::hasRenderBeenCalledThisFrame</text>
</a>
</g>
</g>
<!-- Node1&#45;&gt;Node9 -->
<g id="edge9_Node000001_Node000009" class="edge">
<title>Node1&#45;&gt;Node9</title>
<g id="a_edge9_Node000001_Node000009"><a xlink:title=" ">
<path fill="none" stroke="#63b8ff" d="M131.81,-82.05C139.72,-80.96 147.91,-79.83 156.11,-78.7"/>
<polygon fill="#63b8ff" stroke="#63b8ff" points="156.36,-82.2 165.79,-77.37 155.41,-75.26 156.36,-82.2"/>
</a>
</g>
</g>
<!-- Node10 -->
<g id="Node000010" class="node">
<title>Node10</title>
<g id="a_Node000010"><a xlink:href="class_g_l_e_s_c_1_1_render_1_1_renderer.html#a805bd2bb6f39a34a33ded736e687cb07" target="_top" xlink:title="This seets the fog for the renderer.">
<polygon fill="white" stroke="#666666" points="314.75,-32 184,-32 184,0 314.75,0 314.75,-32"/>
<text text-anchor="start" x="192" y="-18.5" font-family="Helvetica,sans-Serif" font-size="10.00">GLESC::Render::Renderer</text>
<text text-anchor="middle" x="249.38" y="-6.5" font-family="Helvetica,sans-Serif" font-size="10.00">::setFog</text>
</a>
</g>
</g>
<!-- Node1&#45;&gt;Node10 -->
<g id="edge10_Node000001_Node000010" class="edge">
<title>Node1&#45;&gt;Node10</title>
<g id="a_edge10_Node000001_Node000010"><a xlink:title=" ">
<path fill="none" stroke="#63b8ff" d="M96.59,-74.61C116.34,-64.15 143.02,-50.78 167.5,-41 171.6,-39.36 175.86,-37.76 180.18,-36.21"/>
<polygon fill="#63b8ff" stroke="#63b8ff" points="181.23,-39.55 189.55,-32.98 178.95,-32.93 181.23,-39.55"/>
</a>
</g>
</g>
<!-- Node4 -->
<g id="Node000004" class="node">
<title>Node4</title>
<g id="a_Node000004"><a xlink:href="class_g_l_e_s_c_1_1_e_c_s_1_1_e_c_s_coordinator.html#a73636f46c1a9f0bd7f380524210cf4b4" target="_top" xlink:title="Get the entities associated with a system.">
<polygon fill="white" stroke="#666666" points="518.25,-132 367.25,-132 367.25,-100 518.25,-100 518.25,-132"/>
<text text-anchor="start" x="375.25" y="-118.5" font-family="Helvetica,sans-Serif" font-size="10.00">GLESC::ECS::ECSCoordinator</text>
<text text-anchor="middle" x="442.75" y="-106.5" font-family="Helvetica,sans-Serif" font-size="10.00">::getAssociatedEntities</text>
</a>
</g>
</g>
<!-- Node3&#45;&gt;Node4 -->
<g id="edge3_Node000003_Node000004" class="edge">
<title>Node3&#45;&gt;Node4</title>
<g id="a_edge3_Node000003_Node000004"><a xlink:title=" ">
<path fill="none" stroke="#63b8ff" d="M308.31,-116C323.33,-116 339.82,-116 355.94,-116"/>
<polygon fill="#63b8ff" stroke="#63b8ff" points="355.5,-119.5 365.5,-116 355.5,-112.5 355.5,-119.5"/>
</a>
</g>
</g>
<!-- Node5 -->
<g id="Node000005" class="node">
<title>Node5</title>
<g id="a_Node000005"><a xlink:href="class_g_l_e_s_c_1_1_e_c_s_1_1_entity_manager.html#a5145504091eb26170aa219acb60aca71" target="_top" xlink:title="Check if the entity with the given name exists.">
<polygon fill="white" stroke="#666666" points="706.75,-204 562.5,-204 562.5,-172 706.75,-172 706.75,-204"/>
<text text-anchor="start" x="570.5" y="-190.5" font-family="Helvetica,sans-Serif" font-size="10.00">GLESC::ECS::EntityManager</text>
<text text-anchor="middle" x="634.62" y="-178.5" font-family="Helvetica,sans-Serif" font-size="10.00">::doesEntityExist</text>
</a>
</g>
</g>
<!-- Node4&#45;&gt;Node5 -->
<g id="edge4_Node000004_Node000005" class="edge">
<title>Node4&#45;&gt;Node5</title>
<g id="a_edge4_Node000004_Node000005"><a xlink:title=" ">
<path fill="none" stroke="#63b8ff" d="M479.73,-132.35C501.16,-141.82 529.02,-153.69 554.25,-163 558.87,-164.71 563.67,-166.4 568.52,-168.06"/>
<polygon fill="#63b8ff" stroke="#63b8ff" points="567.13,-171.29 577.73,-171.14 569.35,-164.65 567.13,-171.29"/>
</a>
</g>
</g>
<!-- Node6 -->
<g id="Node000006" class="node">
<title>Node6</title>
<g id="a_Node000006"><a xlink:href="class_g_l_e_s_c_1_1_e_c_s_1_1_system_manager.html#a283c04f81e82970a822c9696ddab2319" target="_top" xlink:title="Gets the entities associated with a system. The system must be registered.">
<polygon fill="white" stroke="#666666" points="715,-154 554.25,-154 554.25,-122 715,-122 715,-154"/>
<text text-anchor="start" x="562.25" y="-140.5" font-family="Helvetica,sans-Serif" font-size="10.00">GLESC::ECS::SystemManager</text>
<text text-anchor="middle" x="634.62" y="-128.5" font-family="Helvetica,sans-Serif" font-size="10.00">::getAssociatedEntitiesOfSystem</text>
</a>
</g>
</g>
<!-- Node4&#45;&gt;Node6 -->
<g id="edge5_Node000004_Node000006" class="edge">
<title>Node4&#45;&gt;Node6</title>
<g id="a_edge5_Node000004_Node000006"><a xlink:title=" ">
<path fill="none" stroke="#63b8ff" d="M518.52,-124.66C526.42,-125.58 534.52,-126.52 542.57,-127.45"/>
<polygon fill="#63b8ff" stroke="#63b8ff" points="542.08,-130.92 552.41,-128.59 542.88,-123.96 542.08,-130.92"/>
</a>
</g>
</g>
<!-- Node7 -->
<g id="Node000007" class="node">
<title>Node7</title>
<g id="a_Node000007"><a xlink:href="class_g_l_e_s_c_1_1_e_c_s_1_1_system_manager.html#a32f415d7a7e0cefc9e1b5c71a4dc1be4" target="_top" xlink:title="Checks if a system is registered.">
<polygon fill="white" stroke="#666666" points="903.5,-132 751,-132 751,-100 903.5,-100 903.5,-132"/>
<text text-anchor="start" x="759" y="-118.5" font-family="Helvetica,sans-Serif" font-size="10.00">GLESC::ECS::SystemManager</text>
<text text-anchor="middle" x="827.25" y="-106.5" font-family="Helvetica,sans-Serif" font-size="10.00">::isSystemRegistered</text>
</a>
</g>
</g>
<!-- Node4&#45;&gt;Node7 -->
<g id="edge8_Node000004_Node000007" class="edge">
<title>Node4&#45;&gt;Node7</title>
<g id="a_edge8_Node000004_Node000007"><a xlink:title=" ">
<path fill="none" stroke="#63b8ff" d="M518.64,-113.69C530.55,-113.4 542.74,-113.16 554.25,-113 625.69,-112.03 643.56,-112.04 715,-113 722.81,-113.11 730.93,-113.25 739.07,-113.42"/>
<polygon fill="#63b8ff" stroke="#63b8ff" points="738.96,-116.92 749.04,-113.65 739.12,-109.93 738.96,-116.92"/>
</a>
</g>
</g>
<!-- Node8 -->
<g id="Node000008" class="node">
<title>Node8</title>
<g id="a_Node000008"><a xlink:href="class_g_l_e_s_c_1_1_e_c_s_1_1_system_manager.html#abe8641c2514be36e652e7f77d0ed87a5" target="_top" xlink:title="Checks if an entity is associated with a system.">
<polygon fill="white" stroke="#666666" points="713.5,-66 555.75,-66 555.75,-34 713.5,-34 713.5,-66"/>
<text text-anchor="start" x="563.75" y="-52.5" font-family="Helvetica,sans-Serif" font-size="10.00">GLESC::ECS::SystemManager</text>
<text text-anchor="middle" x="634.62" y="-40.5" font-family="Helvetica,sans-Serif" font-size="10.00">::isEntityAssociatedWithSystem</text>
</a>
</g>
</g>
<!-- Node4&#45;&gt;Node8 -->
<g id="edge7_Node000004_Node000008" class="edge">
<title>Node4&#45;&gt;Node8</title>
<g id="a_edge7_Node000004_Node000008"><a xlink:title=" ">
<path fill="none" stroke="#63b8ff" d="M491.17,-99.52C516.87,-90.58 548.83,-79.48 575.95,-70.05"/>
<polygon fill="#63b8ff" stroke="#63b8ff" points="576.75,-73.47 585.05,-66.89 574.45,-66.86 576.75,-73.47"/>
</a>
</g>
</g>
<!-- Node6&#45;&gt;Node7 -->
<g id="edge6_Node000006_Node000007" class="edge">
<title>Node6&#45;&gt;Node7</title>
<g id="a_edge6_Node000006_Node000007"><a xlink:title=" ">
<path fill="none" stroke="#63b8ff" d="M715.36,-128.8C723.34,-127.88 731.46,-126.94 739.5,-126.01"/>
<polygon fill="#63b8ff" stroke="#63b8ff" points="739.76,-129.51 749.29,-124.88 738.96,-122.55 739.76,-129.51"/>
</a>
</g>
</g>
</g>
</svg>

<g id="navigator" transform="translate(0 0)" fill="#404254">
  <rect fill="#f2f5e9" fill-opacity="0.5" stroke="#606060" stroke-width=".5" x="0" y="0" width="60" height="60"/>
  <use id="zoomplus" xlink:href="#zoomPlus" x="17" y="9" onmousedown="handleZoom(evt,'in')"/>
  <use id="zoomminus" xlink:href="#zoomMin" x="42" y="9" onmousedown="handleZoom(evt,'out')"/>
  <use id="reset" xlink:href="#resetDef" x="30" y="36" onmousedown="handleReset()"/>
   <use id="arrowup" xlink:href="#arrowUp" x="0" y="0" onmousedown="handlePan(0,-1)"/>
  <use id="arrowright" xlink:href="#arrowRight" x="0" y="0" onmousedown="handlePan(1,0)"/>
  <use id="arrowdown" xlink:href="#arrowDown" x="0" y="0" onmousedown="handlePan(0,1)"/>
  <use id="arrowleft" xlink:href="#arrowLeft" x="0" y="0" onmousedown="handlePan(-1,0)"/>
</g>
<svg viewBox="0 0 15 15" width="100%" height="30px" preserveAspectRatio="xMaxYMin meet">
 <g id="arrow_out" transform="scale(0.3 0.3)">
  <a xlink:href="class_g_l_e_s_c_1_1_e_c_s_1_1_fog_system_a9b81469ec78021407ac5550fbef23687_cgraph_org.svg" target="_base">
   <rect id="button" ry="5" rx="5" y="6" x="6" height="38" width="38"
        fill="#f2f5e9" fill-opacity="0.5" stroke="#606060" stroke-width="1.0"/>
   <path id="arrow"
     d="M 11.500037,31.436501 C 11.940474,20.09759 22.043105,11.32322 32.158766,21.979434 L 37.068811,17.246167 C 37.068811,17.246167 37.088388,32 37.088388,32 L 22.160133,31.978069 C 22.160133,31.978069 26.997745,27.140456 26.997745,27.140456 C 18.528582,18.264221 13.291696,25.230495 11.500037,31.436501 z"
     style="fill:#404040;"/>
  </a>
 </g>
</svg>

<style type='text/css'>
<![CDATA[
[data-mouse-over-selected='false'] { opacity: 0.7; }
[data-mouse-over-selected='true']  { opacity: 1.0; }
]]>
</style>
<script type="application/ecmascript"><![CDATA[
document.addEventListener('DOMContentLoaded', (event) => {
  highlightEdges();
  highlightAdjacentNodes();
});
]]></script>
</svg>
