<?xml version="1.0" encoding="UTF-8" standalone="no"?>
<!DOCTYPE svg PUBLIC "-//W3C//DTD SVG 1.1//EN"
 "http://www.w3.org/Graphics/SVG/1.1/DTD/svg11.dtd">
<!-- Generated by graphviz version 11.0.0 (20240428.1522)
 -->
<!-- Title: GLESC::Render::Renderer::getProjection Pages: 1 -->
<svg width="551pt" height="78pt"
 viewBox="0.00 0.00 551.25 78.00" xmlns="http://www.w3.org/2000/svg" xmlns:xlink="http://www.w3.org/1999/xlink">
<g id="graph0" class="graph" transform="scale(1 1) rotate(0) translate(4 74)">
<title>GLESC::Render::Renderer::getProjection</title>
<!-- Node1 -->
<g id="Node000001" class="node">
<title>Node1</title>
<g id="a_Node000001"><a xlink:title=" ">
<polygon fill="#999999" stroke="#666666" points="543.25,-54 412.5,-54 412.5,-22 543.25,-22 543.25,-54"/>
<text text-anchor="start" x="420.5" y="-40.5" font-family="Helvetica,sans-Serif" font-size="10.00">GLESC::Render::Renderer</text>
<text text-anchor="middle" x="477.88" y="-28.5" font-family="Helvetica,sans-Serif" font-size="10.00">::getProjection</text>
</a>
</g>
</g>
<!-- Node2 -->
<g id="Node000002" class="node">
<title>Node2</title>
<g id="a_Node000002"><a xlink:href="class_g_l_e_s_c_1_1_engine.html#a3bc0e4b7fb38c3d5f3c6241e2be66d63" target="_top" xlink:title=" ">
<polygon fill="white" stroke="#666666" points="376.5,-70 230,-70 230,-50 376.5,-50 376.5,-70"/>
<text text-anchor="middle" x="303.25" y="-56.5" font-family="Helvetica,sans-Serif" font-size="10.00">GLESC::Engine::registerStats</text>
</a>
</g>
</g>
<!-- Node1&#45;&gt;Node2 -->
<g id="edge1_Node000001_Node000002" class="edge">
<title>Node1&#45;&gt;Node2</title>
<g id="a_edge1_Node000001_Node000002"><a xlink:title=" ">
<path fill="none" stroke="#63b8ff" d="M400.93,-47.68C392.96,-48.69 384.86,-49.73 376.92,-50.74"/>
<polygon fill="#63b8ff" stroke="#63b8ff" points="401.13,-51.18 410.6,-46.45 400.24,-44.24 401.13,-51.18"/>
</a>
</g>
</g>
<!-- Node4 -->
<g id="Node000004" class="node">
<title>Node4</title>
<g id="a_Node000004"><a xlink:href="class_g_l_e_s_c_1_1_render_1_1_renderer.html#a3244ebc15bf8310257ec613f62d00a33" target="_top" xlink:title="This renders the frame.">
<polygon fill="white" stroke="#666666" points="368.62,-32 237.88,-32 237.88,0 368.62,0 368.62,-32"/>
<text text-anchor="start" x="245.88" y="-18.5" font-family="Helvetica,sans-Serif" font-size="10.00">GLESC::Render::Renderer</text>
<text text-anchor="middle" x="303.25" y="-6.5" font-family="Helvetica,sans-Serif" font-size="10.00">::render</text>
</a>
</g>
</g>
<!-- Node1&#45;&gt;Node4 -->
<g id="edge3_Node000001_Node000004" class="edge">
<title>Node1&#45;&gt;Node4</title>
<g id="a_edge3_Node000001_Node000004"><a xlink:title=" ">
<path fill="none" stroke="#63b8ff" d="M400.76,-28.3C390.19,-26.95 379.43,-25.58 369.1,-24.26"/>
<polygon fill="#63b8ff" stroke="#63b8ff" points="400.24,-31.76 410.6,-29.55 401.13,-24.82 400.24,-31.76"/>
</a>
</g>
</g>
<!-- Node3 -->
<g id="Node000003" class="node">
<title>Node3</title>
<g id="a_Node000003"><a xlink:href="class_g_l_e_s_c_1_1_engine.html#a93e1621f9daf326a7c45d3b2a4c826c1" target="_top" xlink:title="The constructor is private, the engine can only be created by the main function.">
<polygon fill="white" stroke="#666666" points="194,-70 73,-70 73,-50 194,-50 194,-70"/>
<text text-anchor="middle" x="133.5" y="-56.5" font-family="Helvetica,sans-Serif" font-size="10.00">GLESC::Engine::Engine</text>
</a>
</g>
</g>
<!-- Node2&#45;&gt;Node3 -->
<g id="edge2_Node000002_Node000003" class="edge">
<title>Node2&#45;&gt;Node3</title>
<g id="a_edge2_Node000002_Node000003"><a xlink:title=" ">
<path fill="none" stroke="#63b8ff" d="M218.27,-60C210.2,-60 202.13,-60 194.36,-60"/>
<polygon fill="#63b8ff" stroke="#63b8ff" points="218.13,-63.5 228.13,-60 218.13,-56.5 218.13,-63.5"/>
</a>
</g>
</g>
<!-- Node5 -->
<g id="Node000005" class="node">
<title>Node5</title>
<g id="a_Node000005"><a xlink:href="class_g_l_e_s_c_1_1_engine.html#ab0a886855ca341089947b36b9c6f6e15" target="_top" xlink:title="Processes the rendering of the game Can be called at variable intervals of time as it uses elapsed.">
<polygon fill="white" stroke="#666666" points="192.5,-26 74.5,-26 74.5,-6 192.5,-6 192.5,-26"/>
<text text-anchor="middle" x="133.5" y="-12.5" font-family="Helvetica,sans-Serif" font-size="10.00">GLESC::Engine::render</text>
</a>
</g>
</g>
<!-- Node4&#45;&gt;Node5 -->
<g id="edge4_Node000004_Node000005" class="edge">
<title>Node4&#45;&gt;Node5</title>
<g id="a_edge4_Node000004_Node000005"><a xlink:title=" ">
<path fill="none" stroke="#63b8ff" d="M225.93,-16C214.83,-16 203.55,-16 192.88,-16"/>
<polygon fill="#63b8ff" stroke="#63b8ff" points="225.88,-19.5 235.88,-16 225.88,-12.5 225.88,-19.5"/>
</a>
</g>
</g>
<!-- Node6 -->
<g id="Node000006" class="node">
<title>Node6</title>
<g id="a_Node000006"><a xlink:href="main_8cpp.html#a0ddf1224851353fc92bfbff6f499fa97" target="_top" xlink:title=" ">
<polygon fill="white" stroke="#666666" points="37,-26 0,-26 0,-6 37,-6 37,-26"/>
<text text-anchor="middle" x="18.5" y="-12.5" font-family="Helvetica,sans-Serif" font-size="10.00">main</text>
</a>
</g>
</g>
<!-- Node5&#45;&gt;Node6 -->
<g id="edge5_Node000005_Node000006" class="edge">
<title>Node5&#45;&gt;Node6</title>
<g id="a_edge5_Node000005_Node000006"><a xlink:title=" ">
<path fill="none" stroke="#63b8ff" d="M62.54,-16C53.29,-16 44.54,-16 37.38,-16"/>
<polygon fill="#63b8ff" stroke="#63b8ff" points="62.5,-19.5 72.5,-16 62.5,-12.5 62.5,-19.5"/>
</a>
</g>
</g>
</g>
</svg>
