<?xml version="1.0" encoding="UTF-8" standalone="no"?>
<!DOCTYPE svg PUBLIC "-//W3C//DTD SVG 1.1//EN"
 "http://www.w3.org/Graphics/SVG/1.1/DTD/svg11.dtd">
<!-- Generated by graphviz version 11.0.0 (20240428.1522)
 -->
<!-- Title: HudLookAndFeel::addFont Pages: 1 -->
<svg width="810pt" height="53pt"
 viewBox="0.00 0.00 810.25 53.00" xmlns="http://www.w3.org/2000/svg" xmlns:xlink="http://www.w3.org/1999/xlink">
<g id="graph0" class="graph" transform="scale(1 1) rotate(0) translate(4 49)">
<title>HudLookAndFeel::addFont</title>
<!-- Node1 -->
<g id="Node000001" class="node">
<title>Node1</title>
<g id="a_Node000001"><a xlink:title="Adds a font from a file with a size.">
<polygon fill="#999999" stroke="#666666" points="802.25,-26 670.75,-26 670.75,-6 802.25,-6 802.25,-26"/>
<text text-anchor="middle" x="736.5" y="-12.5" font-family="Helvetica,sans-Serif" font-size="10.00">HudLookAndFeel::addFont</text>
</a>
</g>
</g>
<!-- Node2 -->
<g id="Node000002" class="node">
<title>Node2</title>
<g id="a_Node000002"><a xlink:href="class_hud_look_and_feel.html#a815b718b209fe097df0cde4293dc39b8" target="_top" xlink:title=" ">
<polygon fill="white" stroke="#666666" points="634.75,-45 505.5,-45 505.5,-25 634.75,-25 634.75,-45"/>
<text text-anchor="middle" x="570.12" y="-31.5" font-family="Helvetica,sans-Serif" font-size="10.00">HudLookAndFeel::getFont</text>
</a>
</g>
</g>
<!-- Node1&#45;&gt;Node2 -->
<g id="edge1_Node000001_Node000002" class="edge">
<title>Node1&#45;&gt;Node2</title>
<g id="a_edge1_Node000001_Node000002"><a xlink:title=" ">
<path fill="none" stroke="#63b8ff" d="M659.21,-24.82C651.14,-25.75 642.99,-26.69 635.08,-27.61"/>
<polygon fill="#63b8ff" stroke="#63b8ff" points="659.5,-28.31 669.03,-23.68 658.7,-21.35 659.5,-28.31"/>
</a>
</g>
</g>
<!-- Node4 -->
<g id="Node000004" class="node">
<title>Node4</title>
<g id="a_Node000004"><a xlink:href="class_g_l_e_s_c_1_1_h_u_d_1_1_h_u_d_manager.html#a4ff8b120db6eecaaa5e619b1477f58ed" target="_top" xlink:title=" ">
<polygon fill="white" stroke="#666666" points="314,-32 175,-32 175,0 314,0 314,-32"/>
<text text-anchor="start" x="183" y="-18.5" font-family="Helvetica,sans-Serif" font-size="10.00">GLESC::HUD::HUDManager</text>
<text text-anchor="middle" x="244.5" y="-6.5" font-family="Helvetica,sans-Serif" font-size="10.00">::initImGUI</text>
</a>
</g>
</g>
<!-- Node1&#45;&gt;Node4 -->
<g id="edge5_Node000001_Node000004" class="edge">
<title>Node1&#45;&gt;Node4</title>
<g id="a_edge5_Node000001_Node000004"><a xlink:title=" ">
<path fill="none" stroke="#63b8ff" d="M658.96,-16C564.48,-16 405.21,-16 314.39,-16"/>
<polygon fill="#63b8ff" stroke="#63b8ff" points="658.92,-19.5 668.92,-16 658.92,-12.5 658.92,-19.5"/>
</a>
</g>
</g>
<!-- Node3 -->
<g id="Node000003" class="node">
<title>Node3</title>
<g id="a_Node000003"><a xlink:href="class_hud_look_and_feel.html#ae1d994a42a7915cfa11a72a664dabc79" target="_top" xlink:title="Applies the look and feel to ImGui.">
<polygon fill="white" stroke="#666666" points="469.5,-45 350,-45 350,-25 469.5,-25 469.5,-45"/>
<text text-anchor="middle" x="409.75" y="-31.5" font-family="Helvetica,sans-Serif" font-size="10.00">HudLookAndFeel::apply</text>
</a>
</g>
</g>
<!-- Node2&#45;&gt;Node3 -->
<g id="edge2_Node000002_Node000003" class="edge">
<title>Node2&#45;&gt;Node3</title>
<g id="a_edge2_Node000002_Node000003"><a xlink:title=" ">
<path fill="none" stroke="#63b8ff" d="M493.84,-35C485.78,-35 477.66,-35 469.83,-35"/>
<polygon fill="#63b8ff" stroke="#63b8ff" points="493.65,-38.5 503.65,-35 493.65,-31.5 493.65,-38.5"/>
</a>
</g>
</g>
<!-- Node3&#45;&gt;Node4 -->
<g id="edge3_Node000003_Node000004" class="edge">
<title>Node3&#45;&gt;Node4</title>
<g id="a_edge3_Node000003_Node000004"><a xlink:title=" ">
<path fill="none" stroke="#63b8ff" d="M338.59,-26.83C330.55,-25.9 322.37,-24.95 314.35,-24.01"/>
<polygon fill="#63b8ff" stroke="#63b8ff" points="337.97,-30.29 348.31,-27.97 338.78,-23.33 337.97,-30.29"/>
</a>
</g>
</g>
<!-- Node5 -->
<g id="Node000005" class="node">
<title>Node5</title>
<g id="a_Node000005"><a xlink:href="class_g_l_e_s_c_1_1_h_u_d_1_1_h_u_d_manager.html#a025f565a5346b1cfdd80ce5fd79f8046" target="_top" xlink:title="Constructor for the HUDManager.">
<polygon fill="white" stroke="#666666" points="139,-32 0,-32 0,0 139,0 139,-32"/>
<text text-anchor="start" x="8" y="-18.5" font-family="Helvetica,sans-Serif" font-size="10.00">GLESC::HUD::HUDManager</text>
<text text-anchor="middle" x="69.5" y="-6.5" font-family="Helvetica,sans-Serif" font-size="10.00">::HUDManager</text>
</a>
</g>
</g>
<!-- Node4&#45;&gt;Node5 -->
<g id="edge4_Node000004_Node000005" class="edge">
<title>Node4&#45;&gt;Node5</title>
<g id="a_edge4_Node000004_Node000005"><a xlink:title=" ">
<path fill="none" stroke="#63b8ff" d="M163.38,-16C155.38,-16 147.3,-16 139.42,-16"/>
<polygon fill="#63b8ff" stroke="#63b8ff" points="163.12,-19.5 173.12,-16 163.12,-12.5 163.12,-19.5"/>
</a>
</g>
</g>
</g>
</svg>
