<?xml version="1.0" encoding="UTF-8" standalone="no"?>
<!DOCTYPE svg PUBLIC "-//W3C//DTD SVG 1.1//EN"
 "http://www.w3.org/Graphics/SVG/1.1/DTD/svg11.dtd">
<!-- Generated by graphviz version 11.0.0 (20240428.1522)
 -->
<!-- Title: GLESC::HUD::DebugItems Pages: 1 -->
<svg width="135pt" height="708pt"
 viewBox="0.00 0.00 135.00 708.00" xmlns="http://www.w3.org/2000/svg" xmlns:xlink="http://www.w3.org/1999/xlink">
<g id="graph0" class="graph" transform="scale(1 1) rotate(0) translate(4 704)">
<title>GLESC::HUD::DebugItems</title>
<!-- Node1 -->
<g id="Node000001" class="node">
<title>Node1</title>
<g id="a_Node000001"><a xlink:title="Class that encapsulates the logic of the debug displaying of non visible items.">
<polygon fill="#999999" stroke="none" points="127,-116 0,-116 0,0 127,0 127,-116"/>
<text text-anchor="start" x="5" y="-102.5" font-family="Helvetica,sans-Serif" font-size="10.00">GLESC::HUD::DebugItems</text>
<text text-anchor="start" x="15" y="-86.5" font-family="Helvetica,sans-Serif" font-size="10.00">&#45;</text>
<text text-anchor="start" x="33" y="-86.5" font-family="Helvetica,sans-Serif" font-size="10.00">interpolators</text>
<text text-anchor="start" x="15" y="-70.5" font-family="Helvetica,sans-Serif" font-size="10.00">&#45;</text>
<text text-anchor="start" x="33" y="-70.5" font-family="Helvetica,sans-Serif" font-size="10.00">items</text>
<text text-anchor="start" x="15" y="-54.5" font-family="Helvetica,sans-Serif" font-size="10.00">&#45;</text>
<text text-anchor="start" x="33" y="-54.5" font-family="Helvetica,sans-Serif" font-size="10.00">renderer</text>
<text text-anchor="start" x="15" y="-38.5" font-family="Helvetica,sans-Serif" font-size="10.00">&#45;</text>
<text text-anchor="start" x="33" y="-38.5" font-family="Helvetica,sans-Serif" font-size="10.00">textureFactory</text>
<text text-anchor="start" x="13.5" y="-22.5" font-family="Helvetica,sans-Serif" font-size="10.00">+</text>
<text text-anchor="start" x="33" y="-22.5" font-family="Helvetica,sans-Serif" font-size="10.00">DebugItems()</text>
<text text-anchor="start" x="15" y="-6.5" font-family="Helvetica,sans-Serif" font-size="10.00">&#45;</text>
<text text-anchor="start" x="33" y="-6.5" font-family="Helvetica,sans-Serif" font-size="10.00">windowContent()</text>
<polygon fill="#666666" stroke="#666666" points="0,-98 0,-98 127,-98 127,-98 0,-98"/>
<polygon fill="#666666" stroke="#666666" points="0,-34 0,-34 31,-34 31,-34 0,-34"/>
<polygon fill="#666666" stroke="#666666" points="31,-34 31,-34 127,-34 127,-34 31,-34"/>
<polygon fill="none" stroke="#666666" points="0,0 0,-116 127,-116 127,0 0,0"/>
</a>
</g>
</g>
<!-- Node2 -->
<g id="Node000002" class="node">
<title>Node2</title>
<g id="a_Node000002"><a xlink:href="class_g_l_e_s_c_1_1_in_game_window.html" target="_top" xlink:title="Class to encapsulate the logic of an in&#45;game window.">
<polygon fill="white" stroke="none" points="122,-700 5,-700 5,-152 122,-152 122,-700"/>
<text text-anchor="start" x="9.88" y="-686.5" font-family="Helvetica,sans-Serif" font-size="10.00">GLESC::InGameWindow</text>
<text text-anchor="start" x="9.88" y="-670.5" font-family="Helvetica,sans-Serif" font-size="10.00">#</text>
<text text-anchor="start" x="20" y="-670.5" font-family="Helvetica,sans-Serif" font-size="10.00">isVisible</text>
<text text-anchor="start" x="11" y="-654.5" font-family="Helvetica,sans-Serif" font-size="10.00">&#45;</text>
<text text-anchor="start" x="20" y="-654.5" font-family="Helvetica,sans-Serif" font-size="10.00">cachedFlags</text>
<text text-anchor="start" x="11" y="-638.5" font-family="Helvetica,sans-Serif" font-size="10.00">&#45;</text>
<text text-anchor="start" x="20" y="-638.5" font-family="Helvetica,sans-Serif" font-size="10.00">center</text>
<text text-anchor="start" x="11" y="-622.5" font-family="Helvetica,sans-Serif" font-size="10.00">&#45;</text>
<text text-anchor="start" x="20" y="-622.5" font-family="Helvetica,sans-Serif" font-size="10.00">maxSize</text>
<text text-anchor="start" x="11" y="-606.5" font-family="Helvetica,sans-Serif" font-size="10.00">&#45;</text>
<text text-anchor="start" x="20" y="-606.5" font-family="Helvetica,sans-Serif" font-size="10.00">minSize</text>
<text text-anchor="start" x="11" y="-590.5" font-family="Helvetica,sans-Serif" font-size="10.00">&#45;</text>
<text text-anchor="start" x="20" y="-590.5" font-family="Helvetica,sans-Serif" font-size="10.00">position</text>
<text text-anchor="start" x="11" y="-574.5" font-family="Helvetica,sans-Serif" font-size="10.00">&#45;</text>
<text text-anchor="start" x="20" y="-574.5" font-family="Helvetica,sans-Serif" font-size="10.00">positionFraction</text>
<text text-anchor="start" x="11" y="-558.5" font-family="Helvetica,sans-Serif" font-size="10.00">&#45;</text>
<text text-anchor="start" x="20" y="-558.5" font-family="Helvetica,sans-Serif" font-size="10.00">size</text>
<text text-anchor="start" x="11" y="-542.5" font-family="Helvetica,sans-Serif" font-size="10.00">&#45;</text>
<text text-anchor="start" x="20" y="-542.5" font-family="Helvetica,sans-Serif" font-size="10.00">sizeFraction</text>
<text text-anchor="start" x="11" y="-526.5" font-family="Helvetica,sans-Serif" font-size="10.00">&#45;</text>
<text text-anchor="start" x="20" y="-526.5" font-family="Helvetica,sans-Serif" font-size="10.00">title</text>
<text text-anchor="start" x="11" y="-510.5" font-family="Helvetica,sans-Serif" font-size="10.00">&#45;</text>
<text text-anchor="start" x="20" y="-510.5" font-family="Helvetica,sans-Serif" font-size="10.00">windowFlags</text>
<text text-anchor="start" x="11" y="-494.5" font-family="Helvetica,sans-Serif" font-size="10.00">&#45;</text>
<text text-anchor="start" x="20" y="-494.5" font-family="Helvetica,sans-Serif" font-size="10.00">windowFlagsCached</text>
<text text-anchor="start" x="11" y="-478.5" font-family="Helvetica,sans-Serif" font-size="10.00">&#45;</text>
<text text-anchor="start" x="20" y="-478.5" font-family="Helvetica,sans-Serif" font-size="10.00">windowMarginFraction</text>
<text text-anchor="start" x="9.5" y="-462.5" font-family="Helvetica,sans-Serif" font-size="10.00">+</text>
<text text-anchor="start" x="20" y="-462.5" font-family="Helvetica,sans-Serif" font-size="10.00">InGameWindow()</text>
<text text-anchor="start" x="9.5" y="-446.5" font-family="Helvetica,sans-Serif" font-size="10.00">+</text>
<text text-anchor="start" x="20" y="-446.5" font-family="Helvetica,sans-Serif" font-size="10.00">~InGameWindow()</text>
<text text-anchor="start" x="9.5" y="-430.5" font-family="Helvetica,sans-Serif" font-size="10.00">+</text>
<text text-anchor="start" x="20" y="-430.5" font-family="Helvetica,sans-Serif" font-size="10.00">addFlag()</text>
<text text-anchor="start" x="9.5" y="-414.5" font-family="Helvetica,sans-Serif" font-size="10.00">+</text>
<text text-anchor="start" x="20" y="-414.5" font-family="Helvetica,sans-Serif" font-size="10.00">getTitle()</text>
<text text-anchor="start" x="9.5" y="-398.5" font-family="Helvetica,sans-Serif" font-size="10.00">+</text>
<text text-anchor="start" x="20" y="-398.5" font-family="Helvetica,sans-Serif" font-size="10.00">isVisibile()</text>
<text text-anchor="start" x="9.5" y="-382.5" font-family="Helvetica,sans-Serif" font-size="10.00">+</text>
<text text-anchor="start" x="20" y="-382.5" font-family="Helvetica,sans-Serif" font-size="10.00">render()</text>
<text text-anchor="start" x="9.5" y="-366.5" font-family="Helvetica,sans-Serif" font-size="10.00">+</text>
<text text-anchor="start" x="20" y="-366.5" font-family="Helvetica,sans-Serif" font-size="10.00">setCenter()</text>
<text text-anchor="start" x="9.5" y="-350.5" font-family="Helvetica,sans-Serif" font-size="10.00">+</text>
<text text-anchor="start" x="20" y="-350.5" font-family="Helvetica,sans-Serif" font-size="10.00">setLayoutPosition()</text>
<text text-anchor="start" x="9.5" y="-334.5" font-family="Helvetica,sans-Serif" font-size="10.00">+</text>
<text text-anchor="start" x="20" y="-334.5" font-family="Helvetica,sans-Serif" font-size="10.00">setMaxSize()</text>
<text text-anchor="start" x="9.5" y="-318.5" font-family="Helvetica,sans-Serif" font-size="10.00">+</text>
<text text-anchor="start" x="20" y="-318.5" font-family="Helvetica,sans-Serif" font-size="10.00">setMinSize()</text>
<text text-anchor="start" x="9.5" y="-302.5" font-family="Helvetica,sans-Serif" font-size="10.00">+</text>
<text text-anchor="start" x="20" y="-302.5" font-family="Helvetica,sans-Serif" font-size="10.00">setPositionFraction()</text>
<text text-anchor="start" x="9.5" y="-286.5" font-family="Helvetica,sans-Serif" font-size="10.00">+</text>
<text text-anchor="start" x="20" y="-286.5" font-family="Helvetica,sans-Serif" font-size="10.00">setSizeFraction()</text>
<text text-anchor="start" x="9.5" y="-270.5" font-family="Helvetica,sans-Serif" font-size="10.00">+</text>
<text text-anchor="start" x="20" y="-270.5" font-family="Helvetica,sans-Serif" font-size="10.00">setVisible()</text>
<text text-anchor="start" x="9.5" y="-254.5" font-family="Helvetica,sans-Serif" font-size="10.00">+</text>
<text text-anchor="start" x="20" y="-254.5" font-family="Helvetica,sans-Serif" font-size="10.00">toggleVisibility()</text>
<text text-anchor="start" x="9.5" y="-238.5" font-family="Helvetica,sans-Serif" font-size="10.00">+</text>
<text text-anchor="start" x="20" y="-238.5" font-family="Helvetica,sans-Serif" font-size="10.00">update()</text>
<text text-anchor="start" x="9.88" y="-222.5" font-family="Helvetica,sans-Serif" font-size="10.00">#</text>
<text text-anchor="start" x="20" y="-222.5" font-family="Helvetica,sans-Serif" font-size="10.00">calculatePosition()</text>
<text text-anchor="start" x="9.88" y="-206.5" font-family="Helvetica,sans-Serif" font-size="10.00">#</text>
<text text-anchor="start" x="20" y="-206.5" font-family="Helvetica,sans-Serif" font-size="10.00">calculateSize()</text>
<text text-anchor="start" x="9.88" y="-190.5" font-family="Helvetica,sans-Serif" font-size="10.00">#</text>
<text text-anchor="start" x="20" y="-190.5" font-family="Helvetica,sans-Serif" font-size="10.00">getFlags()</text>
<text text-anchor="start" x="9.88" y="-174.5" font-family="Helvetica,sans-Serif" font-size="10.00">#</text>
<text text-anchor="start" x="20" y="-174.5" font-family="Helvetica,sans-Serif" font-size="10.00">setTitle()</text>
<text text-anchor="start" x="9.88" y="-158.5" font-family="Helvetica,sans-Serif" font-size="10.00">#</text>
<text text-anchor="start" x="20" y="-158.5" font-family="Helvetica,sans-Serif" font-size="10.00">windowContent()</text>
<polygon fill="#666666" stroke="#666666" points="5,-682 5,-682 122,-682 122,-682 5,-682"/>
<polygon fill="#666666" stroke="#666666" points="5,-474 5,-474 18,-474 18,-474 5,-474"/>
<polygon fill="#666666" stroke="#666666" points="18,-474 18,-474 122,-474 122,-474 18,-474"/>
<polygon fill="none" stroke="#666666" points="5,-152 5,-700 122,-700 122,-152 5,-152"/>
</a>
</g>
</g>
<!-- Node2&#45;&gt;Node1 -->
<g id="edge1_Node000001_Node000002" class="edge">
<title>Node2&#45;&gt;Node1</title>
<g id="a_edge1_Node000001_Node000002"><a xlink:title=" ">
<path fill="none" stroke="#63b8ff" d="M63.5,-140.91C63.5,-132.1 63.5,-123.75 63.5,-115.98"/>
<polygon fill="none" stroke="#63b8ff" points="60,-140.79 63.5,-150.79 67,-140.79 60,-140.79"/>
</a>
</g>
</g>
</g>
</svg>
