<?xml version="1.0" encoding="UTF-8" standalone="no"?>
<!DOCTYPE svg PUBLIC "-//W3C//DTD SVG 1.1//EN"
 "http://www.w3.org/Graphics/SVG/1.1/DTD/svg11.dtd">
<!-- Generated by graphviz version 11.0.0 (20240428.1522)
 -->
<!-- Title: GLESC::Physics::CollisionInformation::isOnGround Pages: 1 -->
<svg width="509pt" height="40pt"
 viewBox="0.00 0.00 509.00 40.00" xmlns="http://www.w3.org/2000/svg" xmlns:xlink="http://www.w3.org/1999/xlink">
<g id="graph0" class="graph" transform="scale(1 1) rotate(0) translate(4 36)">
<title>GLESC::Physics::CollisionInformation::isOnGround</title>
<!-- Node1 -->
<g id="Node000001" class="node">
<title>Node1</title>
<g id="a_Node000001"><a xlink:title=" ">
<polygon fill="#999999" stroke="#666666" points="501,-32 368,-32 368,0 501,0 501,-32"/>
<text text-anchor="start" x="376" y="-18.5" font-family="Helvetica,sans-Serif" font-size="10.00">GLESC::Physics::Collision</text>
<text text-anchor="middle" x="434.5" y="-6.5" font-family="Helvetica,sans-Serif" font-size="10.00">Information::isOnGround</text>
</a>
</g>
</g>
<!-- Node2 -->
<g id="Node000002" class="node">
<title>Node2</title>
<g id="a_Node000002"><a xlink:href="class_g_l_e_s_c_1_1_physics_1_1_collider.html#a24c116fac1f15b148befabad0da4e7de" target="_top" xlink:title="Get the debugging values of the component.">
<polygon fill="white" stroke="#666666" points="332,-32 203.5,-32 203.5,0 332,0 332,-32"/>
<text text-anchor="start" x="211.5" y="-18.5" font-family="Helvetica,sans-Serif" font-size="10.00">GLESC::Physics::Collider</text>
<text text-anchor="middle" x="267.75" y="-6.5" font-family="Helvetica,sans-Serif" font-size="10.00">::getDebuggingValues</text>
</a>
</g>
</g>
<!-- Node1&#45;&gt;Node2 -->
<g id="edge1_Node000001_Node000002" class="edge">
<title>Node1&#45;&gt;Node2</title>
<g id="a_edge1_Node000001_Node000002"><a xlink:title=" ">
<path fill="none" stroke="#63b8ff" d="M356.5,-16C348.38,-16 340.18,-16 332.23,-16"/>
<polygon fill="#63b8ff" stroke="#63b8ff" points="356.4,-19.5 366.4,-16 356.4,-12.5 356.4,-19.5"/>
</a>
</g>
</g>
<!-- Node3 -->
<g id="Node000003" class="node">
<title>Node3</title>
<g id="a_Node000003"><a xlink:href="class_g_l_e_s_c_1_1_e_c_s_1_1_collision_component.html#a1af29f3b4c805c1e3a2cda956c338573" target="_top" xlink:title="Set the debugging values of the component.">
<polygon fill="white" stroke="#666666" points="167.5,-32 0,-32 0,0 167.5,0 167.5,-32"/>
<text text-anchor="start" x="8" y="-18.5" font-family="Helvetica,sans-Serif" font-size="10.00">GLESC::ECS::CollisionComponent</text>
<text text-anchor="middle" x="83.75" y="-6.5" font-family="Helvetica,sans-Serif" font-size="10.00">::setDebuggingValues</text>
</a>
</g>
</g>
<!-- Node2&#45;&gt;Node3 -->
<g id="edge2_Node000002_Node000003" class="edge">
<title>Node2&#45;&gt;Node3</title>
<g id="a_edge2_Node000002_Node000003"><a xlink:title=" ">
<path fill="none" stroke="#63b8ff" d="M191.72,-16C183.86,-16 175.83,-16 167.88,-16"/>
<polygon fill="#63b8ff" stroke="#63b8ff" points="191.58,-19.5 201.58,-16 191.58,-12.5 191.58,-19.5"/>
</a>
</g>
</g>
</g>
</svg>
