<?xml version="1.0" encoding="UTF-8" standalone="no"?>
<!DOCTYPE svg PUBLIC "-//W3C//DTD SVG 1.1//EN"
 "http://www.w3.org/Graphics/SVG/1.1/DTD/svg11.dtd">
<!-- Generated by graphviz version 11.0.0 (20240428.1522)
 -->
<!-- Title: GLESC::Math::Matrix::operator* Pages: 1 -->
<svg width="310pt" height="90pt"
 viewBox="0.00 0.00 310.00 90.00" xmlns="http://www.w3.org/2000/svg" xmlns:xlink="http://www.w3.org/1999/xlink">
<g id="graph0" class="graph" transform="scale(1 1) rotate(0) translate(4 86)">
<title>GLESC::Math::Matrix::operator*</title>
<!-- Node1 -->
<g id="Node000001" class="node">
<title>Node1</title>
<g id="a_Node000001"><a xlink:title="Multiplying Matrix by Matrix.">
<polygon fill="#999999" stroke="#666666" points="109.75,-57 0,-57 0,-25 109.75,-25 109.75,-57"/>
<text text-anchor="start" x="8" y="-43.5" font-family="Helvetica,sans-Serif" font-size="10.00">GLESC::Math::Matrix</text>
<text text-anchor="middle" x="54.88" y="-31.5" font-family="Helvetica,sans-Serif" font-size="10.00">::operator*</text>
</a>
</g>
</g>
<!-- Node2 -->
<g id="Node000002" class="node">
<title>Node2</title>
<g id="a_Node000002"><a xlink:href="class_g_l_e_s_c_1_1_math_1_1_matrix_algorithms.html#a0b865437ed01525b5afafb74f755ffbb" target="_top" xlink:title=" ">
<polygon fill="white" stroke="#666666" points="302,-82 145.75,-82 145.75,-50 302,-50 302,-82"/>
<text text-anchor="start" x="153.75" y="-68.5" font-family="Helvetica,sans-Serif" font-size="10.00">GLESC::Math::MatrixAlgorithms</text>
<text text-anchor="middle" x="223.88" y="-56.5" font-family="Helvetica,sans-Serif" font-size="10.00">::matrixMatrixMulColMaj</text>
</a>
</g>
</g>
<!-- Node1&#45;&gt;Node2 -->
<g id="edge1_Node000001_Node000002" class="edge">
<title>Node1&#45;&gt;Node2</title>
<g id="a_edge1_Node000001_Node000002"><a xlink:title=" ">
<path fill="none" stroke="#63b8ff" d="M110.1,-49.12C117.82,-50.27 125.93,-51.49 134.11,-52.71"/>
<polygon fill="#63b8ff" stroke="#63b8ff" points="133.37,-56.14 143.77,-54.16 134.4,-49.22 133.37,-56.14"/>
</a>
</g>
</g>
<!-- Node3 -->
<g id="Node000003" class="node">
<title>Node3</title>
<g id="a_Node000003"><a xlink:href="class_g_l_e_s_c_1_1_math_1_1_matrix_algorithms.html#ac339994676b91c61876ce07d0f2c1b88" target="_top" xlink:title=" ">
<polygon fill="white" stroke="#666666" points="302,-32 145.75,-32 145.75,0 302,0 302,-32"/>
<text text-anchor="start" x="153.75" y="-18.5" font-family="Helvetica,sans-Serif" font-size="10.00">GLESC::Math::MatrixAlgorithms</text>
<text text-anchor="middle" x="223.88" y="-6.5" font-family="Helvetica,sans-Serif" font-size="10.00">::matrixMatrixMulRowMaj</text>
</a>
</g>
</g>
<!-- Node1&#45;&gt;Node3 -->
<g id="edge2_Node000001_Node000003" class="edge">
<title>Node1&#45;&gt;Node3</title>
<g id="a_edge2_Node000001_Node000003"><a xlink:title=" ">
<path fill="none" stroke="#63b8ff" d="M110.1,-32.88C117.82,-31.73 125.93,-30.51 134.11,-29.29"/>
<polygon fill="#63b8ff" stroke="#63b8ff" points="134.4,-32.78 143.77,-27.84 133.37,-25.86 134.4,-32.78"/>
</a>
</g>
</g>
</g>
</svg>
