<?xml version="1.0" encoding="UTF-8" standalone="no"?>
<!DOCTYPE svg PUBLIC "-//W3C//DTD SVG 1.1//EN"
 "http://www.w3.org/Graphics/SVG/1.1/DTD/svg11.dtd">
<!-- Generated by graphviz version 11.0.0 (20240428.1522)
 -->
<!-- Title: GLESC::ECS::ECSCoordinator::getAssociatedEntities Pages: 1 -->
<svg width="544pt" height="178pt"
 viewBox="0.00 0.00 544.25 178.00" xmlns="http://www.w3.org/2000/svg" xmlns:xlink="http://www.w3.org/1999/xlink">
<g id="graph0" class="graph" transform="scale(1 1) rotate(0) translate(4 174)">
<title>GLESC::ECS::ECSCoordinator::getAssociatedEntities</title>
<!-- Node1 -->
<g id="Node000001" class="node">
<title>Node1</title>
<g id="a_Node000001"><a xlink:title="Get the entities associated with a system.">
<polygon fill="#999999" stroke="#666666" points="151,-98 0,-98 0,-66 151,-66 151,-98"/>
<text text-anchor="start" x="8" y="-84.5" font-family="Helvetica,sans-Serif" font-size="10.00">GLESC::ECS::ECSCoordinator</text>
<text text-anchor="middle" x="75.5" y="-72.5" font-family="Helvetica,sans-Serif" font-size="10.00">::getAssociatedEntities</text>
</a>
</g>
</g>
<!-- Node2 -->
<g id="Node000002" class="node">
<title>Node2</title>
<g id="a_Node000002"><a xlink:href="class_g_l_e_s_c_1_1_e_c_s_1_1_entity_manager.html#a5145504091eb26170aa219acb60aca71" target="_top" xlink:title="Check if the entity with the given name exists.">
<polygon fill="white" stroke="#666666" points="339.5,-170 195.25,-170 195.25,-138 339.5,-138 339.5,-170"/>
<text text-anchor="start" x="203.25" y="-156.5" font-family="Helvetica,sans-Serif" font-size="10.00">GLESC::ECS::EntityManager</text>
<text text-anchor="middle" x="267.38" y="-144.5" font-family="Helvetica,sans-Serif" font-size="10.00">::doesEntityExist</text>
</a>
</g>
</g>
<!-- Node1&#45;&gt;Node2 -->
<g id="edge1_Node000001_Node000002" class="edge">
<title>Node1&#45;&gt;Node2</title>
<g id="a_edge1_Node000001_Node000002"><a xlink:title=" ">
<path fill="none" stroke="#63b8ff" d="M112.48,-98.35C133.91,-107.82 161.77,-119.69 187,-129 191.62,-130.71 196.42,-132.4 201.27,-134.06"/>
<polygon fill="#63b8ff" stroke="#63b8ff" points="199.88,-137.29 210.48,-137.14 202.1,-130.65 199.88,-137.29"/>
</a>
</g>
</g>
<!-- Node3 -->
<g id="Node000003" class="node">
<title>Node3</title>
<g id="a_Node000003"><a xlink:href="class_g_l_e_s_c_1_1_e_c_s_1_1_system_manager.html#a283c04f81e82970a822c9696ddab2319" target="_top" xlink:title="Gets the entities associated with a system. The system must be registered.">
<polygon fill="white" stroke="#666666" points="347.75,-120 187,-120 187,-88 347.75,-88 347.75,-120"/>
<text text-anchor="start" x="195" y="-106.5" font-family="Helvetica,sans-Serif" font-size="10.00">GLESC::ECS::SystemManager</text>
<text text-anchor="middle" x="267.38" y="-94.5" font-family="Helvetica,sans-Serif" font-size="10.00">::getAssociatedEntitiesOfSystem</text>
</a>
</g>
</g>
<!-- Node1&#45;&gt;Node3 -->
<g id="edge2_Node000001_Node000003" class="edge">
<title>Node1&#45;&gt;Node3</title>
<g id="a_edge2_Node000001_Node000003"><a xlink:title=" ">
<path fill="none" stroke="#63b8ff" d="M151.27,-90.66C159.17,-91.58 167.27,-92.52 175.32,-93.45"/>
<polygon fill="#63b8ff" stroke="#63b8ff" points="174.83,-96.92 185.16,-94.59 175.63,-89.96 174.83,-96.92"/>
</a>
</g>
</g>
<!-- Node4 -->
<g id="Node000004" class="node">
<title>Node4</title>
<g id="a_Node000004"><a xlink:href="class_g_l_e_s_c_1_1_e_c_s_1_1_system_manager.html#a32f415d7a7e0cefc9e1b5c71a4dc1be4" target="_top" xlink:title="Checks if a system is registered.">
<polygon fill="white" stroke="#666666" points="536.25,-98 383.75,-98 383.75,-66 536.25,-66 536.25,-98"/>
<text text-anchor="start" x="391.75" y="-84.5" font-family="Helvetica,sans-Serif" font-size="10.00">GLESC::ECS::SystemManager</text>
<text text-anchor="middle" x="460" y="-72.5" font-family="Helvetica,sans-Serif" font-size="10.00">::isSystemRegistered</text>
</a>
</g>
</g>
<!-- Node1&#45;&gt;Node4 -->
<g id="edge5_Node000001_Node000004" class="edge">
<title>Node1&#45;&gt;Node4</title>
<g id="a_edge5_Node000001_Node000004"><a xlink:title=" ">
<path fill="none" stroke="#63b8ff" d="M151.39,-79.69C163.3,-79.4 175.49,-79.16 187,-79 258.44,-78.03 276.31,-78.04 347.75,-79 355.56,-79.11 363.68,-79.25 371.82,-79.42"/>
<polygon fill="#63b8ff" stroke="#63b8ff" points="371.71,-82.92 381.79,-79.65 371.87,-75.93 371.71,-82.92"/>
</a>
</g>
</g>
<!-- Node5 -->
<g id="Node000005" class="node">
<title>Node5</title>
<g id="a_Node000005"><a xlink:href="class_g_l_e_s_c_1_1_e_c_s_1_1_system_manager.html#abe8641c2514be36e652e7f77d0ed87a5" target="_top" xlink:title="Checks if an entity is associated with a system.">
<polygon fill="white" stroke="#666666" points="346.25,-32 188.5,-32 188.5,0 346.25,0 346.25,-32"/>
<text text-anchor="start" x="196.5" y="-18.5" font-family="Helvetica,sans-Serif" font-size="10.00">GLESC::ECS::SystemManager</text>
<text text-anchor="middle" x="267.38" y="-6.5" font-family="Helvetica,sans-Serif" font-size="10.00">::isEntityAssociatedWithSystem</text>
</a>
</g>
</g>
<!-- Node1&#45;&gt;Node5 -->
<g id="edge4_Node000001_Node000005" class="edge">
<title>Node1&#45;&gt;Node5</title>
<g id="a_edge4_Node000001_Node000005"><a xlink:title=" ">
<path fill="none" stroke="#63b8ff" d="M123.92,-65.52C149.62,-56.58 181.58,-45.48 208.7,-36.05"/>
<polygon fill="#63b8ff" stroke="#63b8ff" points="209.5,-39.47 217.8,-32.89 207.2,-32.86 209.5,-39.47"/>
</a>
</g>
</g>
<!-- Node3&#45;&gt;Node4 -->
<g id="edge3_Node000003_Node000004" class="edge">
<title>Node3&#45;&gt;Node4</title>
<g id="a_edge3_Node000003_Node000004"><a xlink:title=" ">
<path fill="none" stroke="#63b8ff" d="M348.11,-94.8C356.09,-93.88 364.21,-92.94 372.25,-92.01"/>
<polygon fill="#63b8ff" stroke="#63b8ff" points="372.51,-95.51 382.04,-90.88 371.71,-88.55 372.51,-95.51"/>
</a>
</g>
</g>
</g>
</svg>
