<?xml version="1.0" encoding="UTF-8" standalone="no"?>
<!DOCTYPE svg PUBLIC "-//W3C//DTD SVG 1.1//EN"
 "http://www.w3.org/Graphics/SVG/1.1/DTD/svg11.dtd">
<!-- Generated by graphviz version 11.0.0 (20240428.1522)
 -->
<!-- Title: GLESC::GAPI::ShaderLoader::loadShader Pages: 1 -->
<!--zoomable 448 -->

<svg id="main" version="1.1" xmlns="http://www.w3.org/2000/svg" xmlns:xlink="http://www.w3.org/1999/xlink" xml:space="preserve" onload="init(evt)">
<style type="text/css"><![CDATA[
.node, .edge {opacity: 0.7;}
.node.selected, .edge.selected {opacity: 1;}
.edge:hover path { stroke: red; }
.edge:hover polygon { stroke: red; fill: red; }
]]></style>

<defs>
  <circle id="rim" cx="0" cy="0" r="7"/>
  <circle id="rim2" cx="0" cy="0" r="3.5"/>
  <g id="zoomPlus">
    <use xlink:href="#rim" fill="#404040"><set attributeName="fill" to="#808080" begin="zoomplus.mouseover" end="zoomplus.mouseout"/></use>
    <path d="M-4,0h8M0,-4v8" fill="none" stroke="white" stroke-width="1.5" pointer-events="none"/>
  </g>
  <g id="zoomMin">
    <use xlink:href="#rim" fill="#404040"><set attributeName="fill" to="#808080" begin="zoomminus.mouseover" end="zoomminus.mouseout"/></use>
    <path d="M-4,0h8" fill="none" stroke="white" stroke-width="1.5" pointer-events="none"/>
  </g>
  <g id="arrowUp" transform="translate(30 24)">
    <use xlink:href="#rim"/>
    <path pointer-events="none" fill="none" stroke="white" stroke-width="1.5" d="M0,-3.0v7 M-2.5,-0.5L0,-3.0L2.5,-0.5"/>
  </g>
  <g id="arrowRight" transform="rotate(90) translate(36 -43)">
    <use xlink:href="#rim"/>
    <path pointer-events="none" fill="none" stroke="white" stroke-width="1.5" d="M0,-3.0v7 M-2.5,-0.5L0,-3.0L2.5,-0.5"/>
  </g>
  <g id="arrowDown" transform="rotate(180) translate(-30 -48)">
    <use xlink:href="#rim"/>
    <path pointer-events="none" fill="none" stroke="white" stroke-width="1.5" d="M0,-3.0v7 M-2.5,-0.5L0,-3.0L2.5,-0.5"/>
  </g>
  <g id="arrowLeft" transform="rotate(270) translate(-36 17)">
    <use xlink:href="#rim"/>
    <path pointer-events="none" fill="none" stroke="white" stroke-width="1.5" d="M0,-3.0v7 M-2.5,-0.5L0,-3.0L2.5,-0.5"/>
  </g>
  <g id="resetDef">
    <use xlink:href="#rim2" fill="#404040"><set attributeName="fill" to="#808080" begin="reset.mouseover" end="reset.mouseout"/></use>
  </g>
</defs>
<script type="application/ecmascript">
var viewWidth = 685;
var viewHeight = 448;
var sectionId = 'dynsection-12';
</script>
<script type="application/ecmascript" xlink:href="svg.min.js"/>
<svg id="graph" class="graph">
<g id="viewport">
<title>GLESC::GAPI::ShaderLoader::loadShader</title>
<!-- Node1 -->
<g id="Node000001" class="node">
<title>Node1</title>
<g id="a_Node000001"><a xlink:title="Load the shader from the source code.">
<polygon fill="#999999" stroke="#666666" points="144.25,-224 0,-224 0,-192 144.25,-192 144.25,-224"/>
<text text-anchor="start" x="8" y="-210.5" font-family="Helvetica,sans-Serif" font-size="10.00">GLESC::GAPI::ShaderLoader</text>
<text text-anchor="middle" x="72.12" y="-198.5" font-family="Helvetica,sans-Serif" font-size="10.00">::loadShader</text>
</a>
</g>
</g>
<!-- Node2 -->
<g id="Node000002" class="node">
<title>Node2</title>
<g id="a_Node000002"><a xlink:href="class_g_l_e_s_c_1_1_g_a_p_i_1_1_shader_loader.html#abee829a266c59b44c3a52933d7cb147a" target="_top" xlink:title="Clean the shader loader.">
<polygon fill="white" stroke="#666666" points="333.12,-340 188.88,-340 188.88,-308 333.12,-308 333.12,-340"/>
<text text-anchor="start" x="196.88" y="-326.5" font-family="Helvetica,sans-Serif" font-size="10.00">GLESC::GAPI::ShaderLoader</text>
<text text-anchor="middle" x="261" y="-314.5" font-family="Helvetica,sans-Serif" font-size="10.00">::clean</text>
</a>
</g>
</g>
<!-- Node1&#45;&gt;Node2 -->
<g id="edge1_Node000001_Node000002" class="edge">
<title>Node1&#45;&gt;Node2</title>
<g id="a_edge1_Node000001_Node000002"><a xlink:title=" ">
<path fill="none" stroke="#63b8ff" d="M88.29,-224.42C107.77,-244.62 143.5,-278.73 180.25,-299 182.9,-300.46 185.64,-301.85 188.45,-303.17"/>
<polygon fill="#63b8ff" stroke="#63b8ff" points="186.89,-306.3 197.46,-307.04 189.65,-299.87 186.89,-306.3"/>
</a>
</g>
</g>
<!-- Node4 -->
<g id="Node000004" class="node">
<title>Node4</title>
<g id="a_Node000004"><a xlink:href="class_g_l_e_s_c_1_1_g_a_p_i_1_1_shader_loader.html#a38404249ed0cc38fe19988e56b8584b0" target="_top" xlink:title="Links the loaded shaders into the shader program.">
<polygon fill="white" stroke="#666666" points="333.12,-290 188.88,-290 188.88,-258 333.12,-258 333.12,-290"/>
<text text-anchor="start" x="196.88" y="-276.5" font-family="Helvetica,sans-Serif" font-size="10.00">GLESC::GAPI::ShaderLoader</text>
<text text-anchor="middle" x="261" y="-264.5" font-family="Helvetica,sans-Serif" font-size="10.00">::createShaderProgram</text>
</a>
</g>
</g>
<!-- Node1&#45;&gt;Node4 -->
<g id="edge3_Node000001_Node000004" class="edge">
<title>Node1&#45;&gt;Node4</title>
<g id="a_edge3_Node000001_Node000004"><a xlink:title=" ">
<path fill="none" stroke="#63b8ff" d="M114.37,-224.47C134.18,-232.2 158.34,-241.38 180.25,-249 185,-250.65 189.93,-252.32 194.9,-253.96"/>
<polygon fill="#63b8ff" stroke="#63b8ff" points="193.77,-257.27 204.36,-257.04 195.93,-250.61 193.77,-257.27"/>
</a>
</g>
</g>
<!-- Node5 -->
<g id="Node000005" class="node">
<title>Node5</title>
<g id="a_Node000005"><a xlink:href="class_g_l_e_s_c_1_1_logger.html#a9b12ce53593be134b7d7dea62607d22d" target="_top" xlink:title=" ">
<polygon fill="white" stroke="#666666" points="312.88,-240 209.12,-240 209.12,-220 312.88,-220 312.88,-240"/>
<text text-anchor="middle" x="261" y="-226.5" font-family="Helvetica,sans-Serif" font-size="10.00">GLESC::Logger::get</text>
</a>
</g>
</g>
<!-- Node1&#45;&gt;Node5 -->
<g id="edge5_Node000001_Node000005" class="edge">
<title>Node1&#45;&gt;Node5</title>
<g id="a_edge5_Node000001_Node000005"><a xlink:title=" ">
<path fill="none" stroke="#63b8ff" d="M144.57,-216.41C161.9,-218.45 180.3,-220.62 197.2,-222.61"/>
<polygon fill="#63b8ff" stroke="#63b8ff" points="196.78,-226.08 207.12,-223.77 197.6,-219.13 196.78,-226.08"/>
</a>
</g>
</g>
<!-- Node6 -->
<g id="Node000006" class="node">
<title>Node6</title>
<g id="a_Node000006"><a xlink:href="class_g_l_e_s_c_1_1_g_a_p_i_1_1_shader_loader.html#a444f971b50a619fe8ed0fe7625148764" target="_top" xlink:title="Inserts the shader macros into the shader code.">
<polygon fill="white" stroke="#666666" points="333.12,-202 188.88,-202 188.88,-170 333.12,-170 333.12,-202"/>
<text text-anchor="start" x="196.88" y="-188.5" font-family="Helvetica,sans-Serif" font-size="10.00">GLESC::GAPI::ShaderLoader</text>
<text text-anchor="middle" x="261" y="-176.5" font-family="Helvetica,sans-Serif" font-size="10.00">::insertShaderMacros</text>
</a>
</g>
</g>
<!-- Node1&#45;&gt;Node6 -->
<g id="edge6_Node000001_Node000006" class="edge">
<title>Node1&#45;&gt;Node6</title>
<g id="a_edge6_Node000001_Node000006"><a xlink:title=" ">
<path fill="none" stroke="#63b8ff" d="M144.57,-199.59C155.28,-198.33 166.4,-197.02 177.31,-195.73"/>
<polygon fill="#63b8ff" stroke="#63b8ff" points="177.56,-199.23 187.09,-194.58 176.75,-192.28 177.56,-199.23"/>
</a>
</g>
</g>
<!-- Node7 -->
<g id="Node000007" class="node">
<title>Node7</title>
<g id="a_Node000007"><a xlink:href="class_g_l_e_s_c_1_1_g_a_p_i_1_1_shader_loader.html#a9dd30109e00edd910d61759c5b68aa8f" target="_top" xlink:title="Loads the fragment shader Calculates colors of pixels (a fragment is a pixel in OpenGL)">
<polygon fill="white" stroke="#666666" points="333.12,-440 188.88,-440 188.88,-408 333.12,-408 333.12,-440"/>
<text text-anchor="start" x="196.88" y="-426.5" font-family="Helvetica,sans-Serif" font-size="10.00">GLESC::GAPI::ShaderLoader</text>
<text text-anchor="middle" x="261" y="-414.5" font-family="Helvetica,sans-Serif" font-size="10.00">::loadFragmentShader</text>
</a>
</g>
</g>
<!-- Node1&#45;&gt;Node7 -->
<g id="edge7_Node000001_Node000007" class="edge">
<title>Node1&#45;&gt;Node7</title>
<g id="a_edge7_Node000001_Node000007"><a xlink:title=" ">
<path fill="none" stroke="#63b8ff" d="M77.7,-224.27C88.87,-261.01 121.06,-350.97 180.25,-399 181.39,-399.93 182.57,-400.82 183.77,-401.68"/>
<polygon fill="#63b8ff" stroke="#63b8ff" points="181.87,-404.62 192.23,-406.85 185.53,-398.65 181.87,-404.62"/>
</a>
</g>
</g>
<!-- Node8 -->
<g id="Node000008" class="node">
<title>Node8</title>
<g id="a_Node000008"><a xlink:href="class_g_l_e_s_c_1_1_g_a_p_i_1_1_shader_loader.html#a463a9cb2ff635b6745c8f7a880f6b47f" target="_top" xlink:title="Loads the vertex shader Sets the actual coordinates of the vertices in the GPU.">
<polygon fill="white" stroke="#666666" points="333.12,-390 188.88,-390 188.88,-358 333.12,-358 333.12,-390"/>
<text text-anchor="start" x="196.88" y="-376.5" font-family="Helvetica,sans-Serif" font-size="10.00">GLESC::GAPI::ShaderLoader</text>
<text text-anchor="middle" x="261" y="-364.5" font-family="Helvetica,sans-Serif" font-size="10.00">::loadVertexShader</text>
</a>
</g>
</g>
<!-- Node1&#45;&gt;Node8 -->
<g id="edge9_Node000001_Node000008" class="edge">
<title>Node1&#45;&gt;Node8</title>
<g id="a_edge9_Node000001_Node000008"><a xlink:title=" ">
<path fill="none" stroke="#63b8ff" d="M81.04,-224.13C96.22,-253.37 132.2,-315.25 180.25,-349 181.84,-350.12 183.49,-351.19 185.17,-352.21"/>
<polygon fill="#63b8ff" stroke="#63b8ff" points="183.41,-355.24 193.88,-356.86 186.71,-349.07 183.41,-355.24"/>
</a>
</g>
</g>
<!-- Node9 -->
<g id="Node000009" class="node">
<title>Node9</title>
<g id="a_Node000009"><a xlink:href="class_g_l_e_s_c_1_1_logger.html#adb7c11e4c440628db0d98f418fa57702" target="_top" xlink:title="Display non important information Background – Black Text – Grey.">
<polygon fill="white" stroke="#666666" points="341.75,-152 180.25,-152 180.25,-132 341.75,-132 341.75,-152"/>
<text text-anchor="middle" x="261" y="-138.5" font-family="Helvetica,sans-Serif" font-size="10.00">GLESC::Logger::nonImportantInfo</text>
</a>
</g>
</g>
<!-- Node1&#45;&gt;Node9 -->
<g id="edge11_Node000001_Node000009" class="edge">
<title>Node1&#45;&gt;Node9</title>
<g id="a_edge11_Node000001_Node000009"><a xlink:title=" ">
<path fill="none" stroke="#63b8ff" d="M106.29,-191.6C127.15,-181.76 154.83,-169.53 180.25,-161 186.3,-158.97 192.68,-157.07 199.08,-155.31"/>
<polygon fill="#63b8ff" stroke="#63b8ff" points="199.58,-158.8 208.37,-152.88 197.81,-152.03 199.58,-158.8"/>
</a>
</g>
</g>
<!-- Node14 -->
<g id="Node000014" class="node">
<title>Node14</title>
<g id="a_Node000014"><a xlink:href="class_g_l_e_s_c_1_1_g_a_p_i_1_1_shader_loader.html#a8117811f44e6651fe0439052bf20880b" target="_top" xlink:title="Prepends the GLSL version to the shader code.">
<polygon fill="white" stroke="#666666" points="333.12,-76 188.88,-76 188.88,-44 333.12,-44 333.12,-76"/>
<text text-anchor="start" x="196.88" y="-62.5" font-family="Helvetica,sans-Serif" font-size="10.00">GLESC::GAPI::ShaderLoader</text>
<text text-anchor="middle" x="261" y="-50.5" font-family="Helvetica,sans-Serif" font-size="10.00">::prependGLSLVersion</text>
</a>
</g>
</g>
<!-- Node1&#45;&gt;Node14 -->
<g id="edge17_Node000001_Node000014" class="edge">
<title>Node1&#45;&gt;Node14</title>
<g id="a_edge17_Node000001_Node000014"><a xlink:title=" ">
<path fill="none" stroke="#63b8ff" d="M82.88,-191.9C99.59,-165.69 136.16,-113.82 180.25,-85 182.12,-83.78 184.05,-82.61 186.03,-81.5"/>
<polygon fill="#63b8ff" stroke="#63b8ff" points="187.53,-84.67 194.91,-77.07 184.4,-78.4 187.53,-84.67"/>
</a>
</g>
</g>
<!-- Node16 -->
<g id="Node000016" class="node">
<title>Node16</title>
<g id="a_Node000016"><a xlink:href="class_g_l_e_s_c_1_1_stringer.html#a4aef664d7491aaeaa7be1fafde3ef90e" target="_top" xlink:title="Converts a string to a number.">
<polygon fill="white" stroke="#666666" points="324.12,-26 197.88,-26 197.88,-6 324.12,-6 324.12,-26"/>
<text text-anchor="middle" x="261" y="-12.5" font-family="Helvetica,sans-Serif" font-size="10.00">GLESC::Stringer::replace</text>
</a>
</g>
</g>
<!-- Node1&#45;&gt;Node16 -->
<g id="edge19_Node000001_Node000016" class="edge">
<title>Node1&#45;&gt;Node16</title>
<g id="a_edge19_Node000001_Node000016"><a xlink:title=" ">
<path fill="none" stroke="#63b8ff" d="M78.4,-191.69C90.47,-157.04 123.53,-75.93 180.25,-35 182.57,-33.32 185.02,-31.79 187.57,-30.4"/>
<polygon fill="#63b8ff" stroke="#63b8ff" points="188.81,-33.68 196.4,-26.28 185.85,-27.33 188.81,-33.68"/>
</a>
</g>
</g>
<!-- Node17 -->
<g id="Node000017" class="node">
<title>Node17</title>
<g id="a_Node000017"><a xlink:href="class_g_l_e_s_c_1_1_logger.html#accab43e8aa76342c5e58ac869f2f32d5" target="_top" xlink:title="Display success information Background – Green Text – White Bold.">
<polygon fill="white" stroke="#666666" points="324.5,-114 197.5,-114 197.5,-94 324.5,-94 324.5,-114"/>
<text text-anchor="middle" x="261" y="-100.5" font-family="Helvetica,sans-Serif" font-size="10.00">GLESC::Logger::success</text>
</a>
</g>
</g>
<!-- Node1&#45;&gt;Node17 -->
<g id="edge20_Node000001_Node000017" class="edge">
<title>Node1&#45;&gt;Node17</title>
<g id="a_edge20_Node000001_Node000017"><a xlink:title=" ">
<path fill="none" stroke="#63b8ff" d="M88.98,-191.64C108.62,-172.33 143.95,-140.64 180.25,-123 183.99,-121.18 187.92,-119.53 191.94,-118.03"/>
<polygon fill="#63b8ff" stroke="#63b8ff" points="192.93,-121.39 201.3,-114.9 190.7,-114.76 192.93,-121.39"/>
</a>
</g>
</g>
<!-- Node3 -->
<g id="Node000003" class="node">
<title>Node3</title>
<g id="a_Node000003"><a xlink:href="_gapi_8h.html#ab7514d88e65656ffa15ca33256518fe5" target="_top" xlink:title="Returns the graphic API used by the engine.">
<polygon fill="white" stroke="#666666" points="476.25,-359 423.5,-359 423.5,-339 476.25,-339 476.25,-359"/>
<text text-anchor="middle" x="449.88" y="-345.5" font-family="Helvetica,sans-Serif" font-size="10.00">getGAPI</text>
</a>
</g>
</g>
<!-- Node2&#45;&gt;Node3 -->
<g id="edge2_Node000002_Node000003" class="edge">
<title>Node2&#45;&gt;Node3</title>
<g id="a_edge2_Node000002_Node000003"><a xlink:title=" ">
<path fill="none" stroke="#63b8ff" d="M333.45,-333.56C360.18,-337.13 389.45,-341.05 411.82,-344.04"/>
<polygon fill="#63b8ff" stroke="#63b8ff" points="411.29,-347.5 421.67,-345.36 412.22,-340.56 411.29,-347.5"/>
</a>
</g>
</g>
<!-- Node4&#45;&gt;Node3 -->
<g id="edge4_Node000004_Node000003" class="edge">
<title>Node4&#45;&gt;Node3</title>
<g id="a_edge4_Node000004_Node000003"><a xlink:title=" ">
<path fill="none" stroke="#63b8ff" d="M317.67,-290.41C325.81,-293.11 334.04,-296.01 341.75,-299 368.27,-309.29 397.47,-323.09 418.68,-333.59"/>
<polygon fill="#63b8ff" stroke="#63b8ff" points="416.83,-336.58 427.34,-337.92 419.95,-330.32 416.83,-336.58"/>
</a>
</g>
</g>
<!-- Node7&#45;&gt;Node3 -->
<g id="edge8_Node000007_Node000003" class="edge">
<title>Node7&#45;&gt;Node3</title>
<g id="a_edge8_Node000007_Node000003"><a xlink:title=" ">
<path fill="none" stroke="#63b8ff" d="M317.67,-407.59C325.81,-404.89 334.04,-401.99 341.75,-399 368.27,-388.71 397.47,-374.91 418.68,-364.41"/>
<polygon fill="#63b8ff" stroke="#63b8ff" points="419.95,-367.68 427.34,-360.08 416.83,-361.42 419.95,-367.68"/>
</a>
</g>
</g>
<!-- Node8&#45;&gt;Node3 -->
<g id="edge10_Node000008_Node000003" class="edge">
<title>Node8&#45;&gt;Node3</title>
<g id="a_edge10_Node000008_Node000003"><a xlink:title=" ">
<path fill="none" stroke="#63b8ff" d="M333.45,-364.44C360.18,-360.87 389.45,-356.95 411.82,-353.96"/>
<polygon fill="#63b8ff" stroke="#63b8ff" points="412.22,-357.44 421.67,-352.64 411.29,-350.5 412.22,-357.44"/>
</a>
</g>
</g>
<!-- Node10 -->
<g id="Node000010" class="node">
<title>Node10</title>
<g id="a_Node000010"><a xlink:href="class_g_l_e_s_c_1_1_logger.html#adcc4730c087b2df0b97cccc15557e432" target="_top" xlink:title=" ">
<polygon fill="white" stroke="#666666" points="518.62,-158 381.12,-158 381.12,-126 518.62,-126 518.62,-158"/>
<text text-anchor="start" x="389.12" y="-144.5" font-family="Helvetica,sans-Serif" font-size="10.00">GLESC::Logger::executeOn</text>
<text text-anchor="middle" x="449.88" y="-132.5" font-family="Helvetica,sans-Serif" font-size="10.00">AllInputs</text>
</a>
</g>
</g>
<!-- Node9&#45;&gt;Node10 -->
<g id="edge12_Node000009_Node000010" class="edge">
<title>Node9&#45;&gt;Node10</title>
<g id="a_edge12_Node000009_Node000010"><a xlink:title=" ">
<path fill="none" stroke="#63b8ff" d="M342.07,-142C351.12,-142 360.35,-142 369.39,-142"/>
<polygon fill="#63b8ff" stroke="#63b8ff" points="369.22,-145.5 379.22,-142 369.22,-138.5 369.22,-145.5"/>
</a>
</g>
</g>
<!-- Node12 -->
<g id="Node000012" class="node">
<title>Node12</title>
<g id="a_Node000012"><a xlink:href="_debug_entity_data_h_u_d_8cpp.html#a9acf295be457442cac6bccc0bf75112c" target="_top" xlink:title=" ">
<polygon fill="white" stroke="#666666" points="633.62,-171 601.12,-171 601.12,-151 633.62,-151 633.62,-171"/>
<text text-anchor="middle" x="617.38" y="-157.5" font-family="Helvetica,sans-Serif" font-size="10.00">text</text>
</a>
</g>
</g>
<!-- Node9&#45;&gt;Node12 -->
<g id="edge16_Node000009_Node000012" class="edge">
<title>Node9&#45;&gt;Node12</title>
<g id="a_edge16_Node000009_Node000012"><a xlink:title=" ">
<path fill="none" stroke="#63b8ff" d="M305.88,-152.49C332.52,-158.66 363.95,-165.53 377.75,-167 441.5,-173.81 457.92,-169.03 522,-167 544.75,-166.28 570.54,-164.58 589.4,-163.17"/>
<polygon fill="#63b8ff" stroke="#63b8ff" points="589.48,-166.68 599.18,-162.42 588.94,-159.7 589.48,-166.68"/>
</a>
</g>
</g>
<!-- Node13 -->
<g id="Node000013" class="node">
<title>Node13</title>
<g id="a_Node000013"><a xlink:href="class_i_logger.html#a809090b871104c0e4b00e1818fd48e6b" target="_top" xlink:title="Display non important information Background – Black Text – Grey.">
<polygon fill="white" stroke="#666666" points="512.25,-234 387.5,-234 387.5,-214 512.25,-214 512.25,-234"/>
<text text-anchor="middle" x="449.88" y="-220.5" font-family="Helvetica,sans-Serif" font-size="10.00">ILogger::nonImportantInfo</text>
</a>
</g>
</g>
<!-- Node9&#45;&gt;Node13 -->
<g id="edge15_Node000009_Node000013" class="edge">
<title>Node9&#45;&gt;Node13</title>
<g id="a_edge15_Node000009_Node000013"><a xlink:title=" ">
<path fill="none" stroke="#63b8ff" d="M322.71,-152.41C329.37,-154.72 335.85,-157.55 341.75,-161 362.11,-172.92 357.96,-187.16 377.75,-200 383.35,-203.63 389.56,-206.78 395.91,-209.48"/>
<polygon fill="#63b8ff" stroke="#63b8ff" points="394.65,-212.74 405.24,-213.07 397.16,-206.21 394.65,-212.74"/>
</a>
</g>
</g>
<!-- Node11 -->
<g id="Node000011" class="node">
<title>Node11</title>
<g id="a_Node000011"><a xlink:href="class_concurrent_queue.html#a7d61d602747cee9adf97076d2781023c" target="_top" xlink:title=" ">
<polygon fill="white" stroke="#666666" points="676.75,-133 558,-133 558,-113 676.75,-113 676.75,-133"/>
<text text-anchor="middle" x="617.38" y="-119.5" font-family="Helvetica,sans-Serif" font-size="10.00">ConcurrentQueue::push</text>
</a>
</g>
</g>
<!-- Node10&#45;&gt;Node11 -->
<g id="edge13_Node000010_Node000011" class="edge">
<title>Node10&#45;&gt;Node11</title>
<g id="a_edge13_Node000010_Node000011"><a xlink:title=" ">
<path fill="none" stroke="#63b8ff" d="M518.67,-134.22C527.77,-133.17 537.12,-132.1 546.26,-131.05"/>
<polygon fill="#63b8ff" stroke="#63b8ff" points="546.65,-134.53 556.19,-129.91 545.85,-127.57 546.65,-134.53"/>
</a>
</g>
</g>
<!-- Node10&#45;&gt;Node12 -->
<g id="edge14_Node000010_Node000012" class="edge">
<title>Node10&#45;&gt;Node12</title>
<g id="a_edge14_Node000010_Node000012"><a xlink:title=" ">
<path fill="none" stroke="#63b8ff" d="M518.67,-149.78C543.54,-152.64 570.27,-155.71 589.48,-157.91"/>
<polygon fill="#63b8ff" stroke="#63b8ff" points="588.81,-161.36 599.14,-159.02 589.61,-154.4 588.81,-161.36"/>
</a>
</g>
</g>
<!-- Node15 -->
<g id="Node000015" class="node">
<title>Node15</title>
<g id="a_Node000015"><a xlink:href="class_g_l_e_s_c_1_1_g_a_p_i_1_1_shader_loader.html#af14e7519ed4f04e6bdffc793cd50ad9c" target="_top" xlink:title="Gets the GLSL version string.">
<polygon fill="white" stroke="#666666" points="522,-32 377.75,-32 377.75,0 522,0 522,-32"/>
<text text-anchor="start" x="385.75" y="-18.5" font-family="Helvetica,sans-Serif" font-size="10.00">GLESC::GAPI::ShaderLoader</text>
<text text-anchor="middle" x="449.88" y="-6.5" font-family="Helvetica,sans-Serif" font-size="10.00">::getGLSLVersionString</text>
</a>
</g>
</g>
<!-- Node14&#45;&gt;Node15 -->
<g id="edge18_Node000014_Node000015" class="edge">
<title>Node14&#45;&gt;Node15</title>
<g id="a_edge18_Node000014_Node000015"><a xlink:title=" ">
<path fill="none" stroke="#63b8ff" d="M331.85,-43.55C343.6,-40.79 355.88,-37.9 367.88,-35.07"/>
<polygon fill="#63b8ff" stroke="#63b8ff" points="368.39,-38.55 377.32,-32.85 366.79,-31.73 368.39,-38.55"/>
</a>
</g>
</g>
<!-- Node17&#45;&gt;Node10 -->
<g id="edge21_Node000017_Node000010" class="edge">
<title>Node17&#45;&gt;Node10</title>
<g id="a_edge21_Node000017_Node000010"><a xlink:title=" ">
<path fill="none" stroke="#63b8ff" d="M313.56,-114.48C330.9,-118.01 350.66,-122.03 369.63,-125.89"/>
<polygon fill="#63b8ff" stroke="#63b8ff" points="368.7,-129.27 379.2,-127.83 370.1,-122.41 368.7,-129.27"/>
</a>
</g>
</g>
<!-- Node17&#45;&gt;Node12 -->
<g id="edge23_Node000017_Node000012" class="edge">
<title>Node17&#45;&gt;Node12</title>
<g id="a_edge23_Node000017_Node000012"><a xlink:title=" ">
<path fill="none" stroke="#63b8ff" d="M305.88,-93.51C332.52,-87.34 363.95,-80.47 377.75,-79 441.5,-72.19 466.55,-46.82 522,-79 549.89,-95.19 532.99,-121.64 558,-142 567.04,-149.36 579.02,-153.9 589.77,-156.69"/>
<polygon fill="#63b8ff" stroke="#63b8ff" points="588.77,-160.05 599.28,-158.75 590.25,-153.21 588.77,-160.05"/>
</a>
</g>
</g>
<!-- Node18 -->
<g id="Node000018" class="node">
<title>Node18</title>
<g id="a_Node000018"><a xlink:href="class_i_logger.html#a08a2761c749b766cb789f0dc8e256f95" target="_top" xlink:title="Display success information Background – Green Text – White Bold.">
<polygon fill="white" stroke="#666666" points="495,-108 404.75,-108 404.75,-88 495,-88 495,-108"/>
<text text-anchor="middle" x="449.88" y="-94.5" font-family="Helvetica,sans-Serif" font-size="10.00">ILogger::success</text>
</a>
</g>
</g>
<!-- Node17&#45;&gt;Node18 -->
<g id="edge22_Node000017_Node000018" class="edge">
<title>Node17&#45;&gt;Node18</title>
<g id="a_edge22_Node000017_Node000018"><a xlink:title=" ">
<path fill="none" stroke="#63b8ff" d="M324.75,-101.99C346.86,-101.28 371.55,-100.48 393.05,-99.79"/>
<polygon fill="#63b8ff" stroke="#63b8ff" points="392.9,-103.3 402.78,-99.48 392.68,-96.3 392.9,-103.3"/>
</a>
</g>
</g>
</g>
</svg>

<g id="navigator" transform="translate(0 0)" fill="#404254">
  <rect fill="#f2f5e9" fill-opacity="0.5" stroke="#606060" stroke-width=".5" x="0" y="0" width="60" height="60"/>
  <use id="zoomplus" xlink:href="#zoomPlus" x="17" y="9" onmousedown="handleZoom(evt,'in')"/>
  <use id="zoomminus" xlink:href="#zoomMin" x="42" y="9" onmousedown="handleZoom(evt,'out')"/>
  <use id="reset" xlink:href="#resetDef" x="30" y="36" onmousedown="handleReset()"/>
   <use id="arrowup" xlink:href="#arrowUp" x="0" y="0" onmousedown="handlePan(0,-1)"/>
  <use id="arrowright" xlink:href="#arrowRight" x="0" y="0" onmousedown="handlePan(1,0)"/>
  <use id="arrowdown" xlink:href="#arrowDown" x="0" y="0" onmousedown="handlePan(0,1)"/>
  <use id="arrowleft" xlink:href="#arrowLeft" x="0" y="0" onmousedown="handlePan(-1,0)"/>
</g>
<svg viewBox="0 0 15 15" width="100%" height="30px" preserveAspectRatio="xMaxYMin meet">
 <g id="arrow_out" transform="scale(0.3 0.3)">
  <a xlink:href="class_g_l_e_s_c_1_1_g_a_p_i_1_1_shader_loader_ac3a92c01f0308fd40e0f356d8454d192_cgraph_org.svg" target="_base">
   <rect id="button" ry="5" rx="5" y="6" x="6" height="38" width="38"
        fill="#f2f5e9" fill-opacity="0.5" stroke="#606060" stroke-width="1.0"/>
   <path id="arrow"
     d="M 11.500037,31.436501 C 11.940474,20.09759 22.043105,11.32322 32.158766,21.979434 L 37.068811,17.246167 C 37.068811,17.246167 37.088388,32 37.088388,32 L 22.160133,31.978069 C 22.160133,31.978069 26.997745,27.140456 26.997745,27.140456 C 18.528582,18.264221 13.291696,25.230495 11.500037,31.436501 z"
     style="fill:#404040;"/>
  </a>
 </g>
</svg>

<style type='text/css'>
<![CDATA[
[data-mouse-over-selected='false'] { opacity: 0.7; }
[data-mouse-over-selected='true']  { opacity: 1.0; }
]]>
</style>
<script type="application/ecmascript"><![CDATA[
document.addEventListener('DOMContentLoaded', (event) => {
  highlightEdges();
  highlightAdjacentNodes();
});
]]></script>
</svg>
