<?xml version="1.0" encoding="UTF-8" standalone="no"?>
<!DOCTYPE svg PUBLIC "-//W3C//DTD SVG 1.1//EN"
 "http://www.w3.org/Graphics/SVG/1.1/DTD/svg11.dtd">
<!-- Generated by graphviz version 11.0.0 (20240428.1522)
 -->
<!-- Title: GLESC::Render::Fog::toString Pages: 1 -->
<svg width="646pt" height="252pt"
 viewBox="0.00 0.00 645.75 252.00" xmlns="http://www.w3.org/2000/svg" xmlns:xlink="http://www.w3.org/1999/xlink">
<g id="graph0" class="graph" transform="scale(1 1) rotate(0) translate(4 248)">
<title>GLESC::Render::Fog::toString</title>
<!-- Node1 -->
<g id="Node000001" class="node">
<title>Node1</title>
<g id="a_Node000001"><a xlink:title=" ">
<polygon fill="#999999" stroke="#666666" points="108.25,-191 0,-191 0,-159 108.25,-159 108.25,-191"/>
<text text-anchor="start" x="8" y="-177.5" font-family="Helvetica,sans-Serif" font-size="10.00">GLESC::Render::Fog</text>
<text text-anchor="middle" x="54.12" y="-165.5" font-family="Helvetica,sans-Serif" font-size="10.00">::toString</text>
</a>
</g>
</g>
<!-- Node2 -->
<g id="Node000002" class="node">
<title>Node2</title>
<g id="a_Node000002"><a xlink:href="class_g_l_e_s_c_1_1_render_1_1_intensity.html#a53940c748518c99fc3f50b5fa2d7e31a" target="_top" xlink:title=" ">
<polygon fill="white" stroke="#666666" points="292.25,-207 144.25,-207 144.25,-187 292.25,-187 292.25,-207"/>
<text text-anchor="middle" x="218.25" y="-193.5" font-family="Helvetica,sans-Serif" font-size="10.00">GLESC::Render::Intensity::get</text>
</a>
</g>
</g>
<!-- Node1&#45;&gt;Node2 -->
<g id="edge1_Node000001_Node000002" class="edge">
<title>Node1&#45;&gt;Node2</title>
<g id="a_edge1_Node000001_Node000002"><a xlink:title=" ">
<path fill="none" stroke="#63b8ff" d="M108.66,-182.26C116.31,-183.3 124.33,-184.39 132.4,-185.49"/>
<polygon fill="#63b8ff" stroke="#63b8ff" points="131.93,-188.95 142.31,-186.83 132.87,-182.02 131.93,-188.95"/>
</a>
</g>
</g>
<!-- Node3 -->
<g id="Node000003" class="node">
<title>Node3</title>
<g id="a_Node000003"><a xlink:href="struct_g_l_e_s_c_1_1_render_1_1_color_rgb.html#ad7eceb0ec3625b11d378ca2a474327b8" target="_top" xlink:title=" ">
<polygon fill="white" stroke="#666666" points="284,-169 152.5,-169 152.5,-137 284,-137 284,-169"/>
<text text-anchor="start" x="160.5" y="-155.5" font-family="Helvetica,sans-Serif" font-size="10.00">GLESC::Render::ColorRgb</text>
<text text-anchor="middle" x="218.25" y="-143.5" font-family="Helvetica,sans-Serif" font-size="10.00">::toString</text>
</a>
</g>
</g>
<!-- Node1&#45;&gt;Node3 -->
<g id="edge2_Node000001_Node000003" class="edge">
<title>Node1&#45;&gt;Node3</title>
<g id="a_edge2_Node000001_Node000003"><a xlink:title=" ">
<path fill="none" stroke="#63b8ff" d="M108.66,-167.74C119,-166.33 130.01,-164.84 140.91,-163.36"/>
<polygon fill="#63b8ff" stroke="#63b8ff" points="141.26,-166.84 150.7,-162.03 140.32,-159.91 141.26,-166.84"/>
</a>
</g>
</g>
<!-- Node4 -->
<g id="Node000004" class="node">
<title>Node4</title>
<g id="a_Node000004"><a xlink:href="struct_g_l_e_s_c_1_1_render_1_1_color_rgb.html#af022edf73708fa91a96f83ecbbf283f0" target="_top" xlink:title=" ">
<polygon fill="white" stroke="#666666" points="459.75,-244 328.25,-244 328.25,-212 459.75,-212 459.75,-244"/>
<text text-anchor="start" x="336.25" y="-230.5" font-family="Helvetica,sans-Serif" font-size="10.00">GLESC::Render::ColorRgb</text>
<text text-anchor="middle" x="394" y="-218.5" font-family="Helvetica,sans-Serif" font-size="10.00">::getB</text>
</a>
</g>
</g>
<!-- Node3&#45;&gt;Node4 -->
<g id="edge3_Node000003_Node000004" class="edge">
<title>Node3&#45;&gt;Node4</title>
<g id="a_edge3_Node000003_Node000004"><a xlink:title=" ">
<path fill="none" stroke="#63b8ff" d="M272.99,-169.48C279.59,-172.07 286.15,-174.92 292.25,-178 309.63,-186.8 311.04,-193.87 328.25,-203 330.76,-204.33 333.37,-205.63 336.02,-206.9"/>
<polygon fill="#63b8ff" stroke="#63b8ff" points="334.48,-210.04 345.03,-210.94 337.34,-203.66 334.48,-210.04"/>
</a>
</g>
</g>
<!-- Node5 -->
<g id="Node000005" class="node">
<title>Node5</title>
<g id="a_Node000005"><a xlink:href="struct_g_l_e_s_c_1_1_render_1_1_color_rgb.html#a82efca367bf21d574ace76d7ef00627b" target="_top" xlink:title=" ">
<polygon fill="white" stroke="#666666" points="459.75,-194 328.25,-194 328.25,-162 459.75,-162 459.75,-194"/>
<text text-anchor="start" x="336.25" y="-180.5" font-family="Helvetica,sans-Serif" font-size="10.00">GLESC::Render::ColorRgb</text>
<text text-anchor="middle" x="394" y="-168.5" font-family="Helvetica,sans-Serif" font-size="10.00">::getG</text>
</a>
</g>
</g>
<!-- Node3&#45;&gt;Node5 -->
<g id="edge4_Node000003_Node000005" class="edge">
<title>Node3&#45;&gt;Node5</title>
<g id="a_edge4_Node000003_Node000005"><a xlink:title=" ">
<path fill="none" stroke="#63b8ff" d="M284.44,-162.38C295.02,-163.9 306.06,-165.49 316.87,-167.05"/>
<polygon fill="#63b8ff" stroke="#63b8ff" points="316.13,-170.47 326.52,-168.43 317.12,-163.55 316.13,-170.47"/>
</a>
</g>
</g>
<!-- Node6 -->
<g id="Node000006" class="node">
<title>Node6</title>
<g id="a_Node000006"><a xlink:href="struct_g_l_e_s_c_1_1_render_1_1_color_rgb.html#a88b5de44065f535ebab489b97e2a51e3" target="_top" xlink:title=" ">
<polygon fill="white" stroke="#666666" points="459.75,-144 328.25,-144 328.25,-112 459.75,-112 459.75,-144"/>
<text text-anchor="start" x="336.25" y="-130.5" font-family="Helvetica,sans-Serif" font-size="10.00">GLESC::Render::ColorRgb</text>
<text text-anchor="middle" x="394" y="-118.5" font-family="Helvetica,sans-Serif" font-size="10.00">::getR</text>
</a>
</g>
</g>
<!-- Node3&#45;&gt;Node6 -->
<g id="edge5_Node000003_Node000006" class="edge">
<title>Node3&#45;&gt;Node6</title>
<g id="a_edge5_Node000003_Node000006"><a xlink:title=" ">
<path fill="none" stroke="#63b8ff" d="M284.44,-143.62C295.02,-142.1 306.06,-140.51 316.87,-138.95"/>
<polygon fill="#63b8ff" stroke="#63b8ff" points="317.12,-142.45 326.52,-137.57 316.13,-135.53 317.12,-142.45"/>
</a>
</g>
</g>
<!-- Node7 -->
<g id="Node000007" class="node">
<title>Node7</title>
<g id="a_Node000007"><a xlink:href="class_g_l_e_s_c_1_1_stringer.html#acba5ca5265db3ba0cd968336f1428203" target="_top" xlink:title="Converts an object to a string.">
<polygon fill="white" stroke="#666666" points="458.25,-94 329.75,-94 329.75,-74 458.25,-74 458.25,-94"/>
<text text-anchor="middle" x="394" y="-80.5" font-family="Helvetica,sans-Serif" font-size="10.00">GLESC::Stringer::toString</text>
</a>
</g>
</g>
<!-- Node3&#45;&gt;Node7 -->
<g id="edge6_Node000003_Node000007" class="edge">
<title>Node3&#45;&gt;Node7</title>
<g id="a_edge6_Node000003_Node000007"><a xlink:title=" ">
<path fill="none" stroke="#63b8ff" d="M251.64,-136.64C273.05,-126.21 301.92,-112.84 328.25,-103 333.01,-101.22 338.01,-99.5 343.04,-97.87"/>
<polygon fill="#63b8ff" stroke="#63b8ff" points="344.06,-101.22 352.56,-94.9 341.98,-94.53 344.06,-101.22"/>
</a>
</g>
</g>
<!-- Node8 -->
<g id="Node000008" class="node">
<title>Node8</title>
<g id="a_Node000008"><a xlink:href="class_g_l_e_s_c_1_1_stringer.html#acb7cc10341cef69e99362fa324fa1647" target="_top" xlink:title="Converts an iterable object to a string.">
<polygon fill="white" stroke="#666666" points="629.88,-100 503.62,-100 503.62,-68 629.88,-68 629.88,-100"/>
<text text-anchor="start" x="511.62" y="-86.5" font-family="Helvetica,sans-Serif" font-size="10.00">GLESC::Stringer::iterable</text>
<text text-anchor="middle" x="566.75" y="-74.5" font-family="Helvetica,sans-Serif" font-size="10.00">ToString</text>
</a>
</g>
</g>
<!-- Node7&#45;&gt;Node8 -->
<g id="edge7_Node000007_Node000008" class="edge">
<title>Node7&#45;&gt;Node8</title>
<g id="a_edge7_Node000007_Node000008"><a xlink:title=" ">
<path fill="none" stroke="#63b8ff" d="M458.58,-77.45C469.42,-77.25 480.76,-77.2 491.84,-77.3"/>
<polygon fill="#63b8ff" stroke="#63b8ff" points="491.69,-80.8 501.74,-77.45 491.79,-73.8 491.69,-80.8"/>
</a>
</g>
</g>
<!-- Node9 -->
<g id="Node000009" class="node">
<title>Node9</title>
<g id="a_Node000009"><a xlink:href="class_g_l_e_s_c_1_1_stringer.html#afa7028acf6b8eec53203e8a91774da85" target="_top" xlink:title="Converts a non&#45;iterable object to a string.">
<polygon fill="white" stroke="#666666" points="637.75,-32 495.75,-32 495.75,0 637.75,0 637.75,-32"/>
<text text-anchor="start" x="503.75" y="-18.5" font-family="Helvetica,sans-Serif" font-size="10.00">GLESC::Stringer::nonIterable</text>
<text text-anchor="middle" x="566.75" y="-6.5" font-family="Helvetica,sans-Serif" font-size="10.00">ToString</text>
</a>
</g>
</g>
<!-- Node7&#45;&gt;Node9 -->
<g id="edge9_Node000007_Node000009" class="edge">
<title>Node7&#45;&gt;Node9</title>
<g id="a_edge9_Node000007_Node000009"><a xlink:title=" ">
<path fill="none" stroke="#63b8ff" d="M421.31,-73.52C445.91,-63.73 483.35,-48.82 513.94,-36.63"/>
<polygon fill="#63b8ff" stroke="#63b8ff" points="515.05,-39.96 523.04,-33.01 512.46,-33.46 515.05,-39.96"/>
</a>
</g>
</g>
<!-- Node8&#45;&gt;Node7 -->
<g id="edge8_Node000008_Node000007" class="edge">
<title>Node8&#45;&gt;Node7</title>
<g id="a_edge8_Node000008_Node000007"><a xlink:title=" ">
<path fill="none" stroke="#63b8ff" d="M503.25,-90.53C492.45,-90.74 481.12,-90.8 470.02,-90.71"/>
<polygon fill="#63b8ff" stroke="#63b8ff" points="470.14,-87.21 460.09,-90.57 470.05,-94.21 470.14,-87.21"/>
</a>
</g>
</g>
<!-- Node9&#45;&gt;Node9 -->
<g id="edge10_Node000009_Node000009" class="edge">
<title>Node9&#45;&gt;Node9</title>
<g id="a_edge10_Node000009_Node000009"><a xlink:title=" ">
<path fill="none" stroke="#63b8ff" d="M535.91,-32.44C530.15,-41.58 540.43,-50 566.75,-50 581.14,-50 590.74,-47.48 595.54,-43.71"/>
<polygon fill="#63b8ff" stroke="#63b8ff" points="598.97,-44.4 597.32,-33.93 592.08,-43.14 598.97,-44.4"/>
</a>
</g>
</g>
</g>
</svg>
