<?xml version="1.0" encoding="UTF-8" standalone="no"?>
<!DOCTYPE svg PUBLIC "-//W3C//DTD SVG 1.1//EN"
 "http://www.w3.org/Graphics/SVG/1.1/DTD/svg11.dtd">
<!-- Generated by graphviz version 11.0.0 (20240428.1522)
 -->
<!-- Title: GLESC::Render::Material Pages: 1 -->
<!--zoomable 1172 -->

<svg id="main" version="1.1" xmlns="http://www.w3.org/2000/svg" xmlns:xlink="http://www.w3.org/1999/xlink" xml:space="preserve" onload="init(evt)">
<style type="text/css"><![CDATA[
.node, .edge {opacity: 0.7;}
.node.selected, .edge.selected {opacity: 1;}
.edge:hover path { stroke: red; }
.edge:hover polygon { stroke: red; fill: red; }
]]></style>

<defs>
  <circle id="rim" cx="0" cy="0" r="7"/>
  <circle id="rim2" cx="0" cy="0" r="3.5"/>
  <g id="zoomPlus">
    <use xlink:href="#rim" fill="#404040"><set attributeName="fill" to="#808080" begin="zoomplus.mouseover" end="zoomplus.mouseout"/></use>
    <path d="M-4,0h8M0,-4v8" fill="none" stroke="white" stroke-width="1.5" pointer-events="none"/>
  </g>
  <g id="zoomMin">
    <use xlink:href="#rim" fill="#404040"><set attributeName="fill" to="#808080" begin="zoomminus.mouseover" end="zoomminus.mouseout"/></use>
    <path d="M-4,0h8" fill="none" stroke="white" stroke-width="1.5" pointer-events="none"/>
  </g>
  <g id="arrowUp" transform="translate(30 24)">
    <use xlink:href="#rim"/>
    <path pointer-events="none" fill="none" stroke="white" stroke-width="1.5" d="M0,-3.0v7 M-2.5,-0.5L0,-3.0L2.5,-0.5"/>
  </g>
  <g id="arrowRight" transform="rotate(90) translate(36 -43)">
    <use xlink:href="#rim"/>
    <path pointer-events="none" fill="none" stroke="white" stroke-width="1.5" d="M0,-3.0v7 M-2.5,-0.5L0,-3.0L2.5,-0.5"/>
  </g>
  <g id="arrowDown" transform="rotate(180) translate(-30 -48)">
    <use xlink:href="#rim"/>
    <path pointer-events="none" fill="none" stroke="white" stroke-width="1.5" d="M0,-3.0v7 M-2.5,-0.5L0,-3.0L2.5,-0.5"/>
  </g>
  <g id="arrowLeft" transform="rotate(270) translate(-36 17)">
    <use xlink:href="#rim"/>
    <path pointer-events="none" fill="none" stroke="white" stroke-width="1.5" d="M0,-3.0v7 M-2.5,-0.5L0,-3.0L2.5,-0.5"/>
  </g>
  <g id="resetDef">
    <use xlink:href="#rim2" fill="#404040"><set attributeName="fill" to="#808080" begin="reset.mouseover" end="reset.mouseout"/></use>
  </g>
</defs>
<script type="application/ecmascript">
var viewWidth = 345;
var viewHeight = 1172;
var sectionId = 'dynsection-0';
</script>
<script type="application/ecmascript" xlink:href="svg.min.js"/>
<svg id="graph" class="graph">
<g id="viewport">
<title>GLESC::Render::Material</title>
<!-- Node1 -->
<g id="Node000001" class="node">
<title>Node1</title>
<g id="a_Node000001"><a xlink:title="Class inspired by the material class from open3D.">
<polygon fill="#999999" stroke="none" points="228.5,-212 108.5,-212 108.5,0 228.5,0 228.5,-212"/>
<text text-anchor="start" x="113.38" y="-198.5" font-family="Helvetica,sans-Serif" font-size="10.00">GLESC::Render::Material</text>
<text text-anchor="start" x="115.5" y="-182.5" font-family="Helvetica,sans-Serif" font-size="10.00">&#45;</text>
<text text-anchor="start" x="125.5" y="-182.5" font-family="Helvetica,sans-Serif" font-size="10.00">dirty</text>
<text text-anchor="start" x="114" y="-166.5" font-family="Helvetica,sans-Serif" font-size="10.00">+</text>
<text text-anchor="start" x="125.5" y="-166.5" font-family="Helvetica,sans-Serif" font-size="10.00">Material()</text>
<text text-anchor="start" x="114" y="-150.5" font-family="Helvetica,sans-Serif" font-size="10.00">+</text>
<text text-anchor="start" x="125.5" y="-150.5" font-family="Helvetica,sans-Serif" font-size="10.00">Material()</text>
<text text-anchor="start" x="114" y="-134.5" font-family="Helvetica,sans-Serif" font-size="10.00">+</text>
<text text-anchor="start" x="125.5" y="-134.5" font-family="Helvetica,sans-Serif" font-size="10.00">getDebuggingValues()</text>
<text text-anchor="start" x="114" y="-118.5" font-family="Helvetica,sans-Serif" font-size="10.00">+</text>
<text text-anchor="start" x="125.5" y="-118.5" font-family="Helvetica,sans-Serif" font-size="10.00">getDiffuseColor()</text>
<text text-anchor="start" x="114" y="-102.5" font-family="Helvetica,sans-Serif" font-size="10.00">+</text>
<text text-anchor="start" x="125.5" y="-102.5" font-family="Helvetica,sans-Serif" font-size="10.00">getDiffuseIntensity()</text>
<text text-anchor="start" x="114" y="-86.5" font-family="Helvetica,sans-Serif" font-size="10.00">+</text>
<text text-anchor="start" x="125.5" y="-86.5" font-family="Helvetica,sans-Serif" font-size="10.00">getEmissionColor()</text>
<text text-anchor="start" x="114" y="-70.5" font-family="Helvetica,sans-Serif" font-size="10.00">+</text>
<text text-anchor="start" x="125.5" y="-70.5" font-family="Helvetica,sans-Serif" font-size="10.00">getEmissionIntensity()</text>
<text text-anchor="start" x="114" y="-54.5" font-family="Helvetica,sans-Serif" font-size="10.00">+</text>
<text text-anchor="start" x="125.5" y="-54.5" font-family="Helvetica,sans-Serif" font-size="10.00">getShininess()</text>
<text text-anchor="start" x="114" y="-38.5" font-family="Helvetica,sans-Serif" font-size="10.00">+</text>
<text text-anchor="start" x="125.5" y="-38.5" font-family="Helvetica,sans-Serif" font-size="10.00">getSpecularColor()</text>
<text text-anchor="start" x="114" y="-22.5" font-family="Helvetica,sans-Serif" font-size="10.00">+</text>
<text text-anchor="start" x="125.5" y="-22.5" font-family="Helvetica,sans-Serif" font-size="10.00">getSpecularIntensity()</text>
<text text-anchor="start" x="125.5" y="-6.5" font-family="Helvetica,sans-Serif" font-size="10.00">and 11 more...</text>
<polygon fill="#666666" stroke="#666666" points="108.5,-194 108.5,-194 228.5,-194 228.5,-194 108.5,-194"/>
<polygon fill="#666666" stroke="#666666" points="108.5,-178 108.5,-178 123.5,-178 123.5,-178 108.5,-178"/>
<polygon fill="#666666" stroke="#666666" points="123.5,-178 123.5,-178 228.5,-178 228.5,-178 123.5,-178"/>
<polygon fill="none" stroke="#666666" points="108.5,0 108.5,-212 228.5,-212 228.5,0 108.5,0"/>
</a>
</g>
</g>
<!-- Node2 -->
<g id="Node000002" class="node">
<title>Node2</title>
<g id="a_Node000002"><a xlink:href="struct_g_l_e_s_c_1_1_render_1_1_color_rgb.html" target="_top" xlink:title="Color in RGB values.">
<polygon fill="white" stroke="none" points="125,-620 0,-620 0,-296 125,-296 125,-620"/>
<text text-anchor="start" x="4.75" y="-606.5" font-family="Helvetica,sans-Serif" font-size="10.00">GLESC::Render::ColorRgb</text>
<text text-anchor="start" x="12" y="-590.5" font-family="Helvetica,sans-Serif" font-size="10.00">+</text>
<text text-anchor="start" x="30" y="-590.5" font-family="Helvetica,sans-Serif" font-size="10.00">LightGrey</text>
<text text-anchor="start" x="12" y="-574.5" font-family="Helvetica,sans-Serif" font-size="10.00">+</text>
<text text-anchor="start" x="30" y="-574.5" font-family="Helvetica,sans-Serif" font-size="10.00">Magenta</text>
<text text-anchor="start" x="12" y="-558.5" font-family="Helvetica,sans-Serif" font-size="10.00">+</text>
<text text-anchor="start" x="30" y="-558.5" font-family="Helvetica,sans-Serif" font-size="10.00">Orange</text>
<text text-anchor="start" x="12" y="-542.5" font-family="Helvetica,sans-Serif" font-size="10.00">+</text>
<text text-anchor="start" x="30" y="-542.5" font-family="Helvetica,sans-Serif" font-size="10.00">Pink</text>
<text text-anchor="start" x="12" y="-526.5" font-family="Helvetica,sans-Serif" font-size="10.00">+</text>
<text text-anchor="start" x="30" y="-526.5" font-family="Helvetica,sans-Serif" font-size="10.00">Purple</text>
<text text-anchor="start" x="12" y="-510.5" font-family="Helvetica,sans-Serif" font-size="10.00">+</text>
<text text-anchor="start" x="30" y="-510.5" font-family="Helvetica,sans-Serif" font-size="10.00">Red</text>
<text text-anchor="start" x="12" y="-494.5" font-family="Helvetica,sans-Serif" font-size="10.00">+</text>
<text text-anchor="start" x="30" y="-494.5" font-family="Helvetica,sans-Serif" font-size="10.00">White</text>
<text text-anchor="start" x="12" y="-478.5" font-family="Helvetica,sans-Serif" font-size="10.00">+</text>
<text text-anchor="start" x="30" y="-478.5" font-family="Helvetica,sans-Serif" font-size="10.00">Yellow</text>
<text text-anchor="start" x="12" y="-462.5" font-family="Helvetica,sans-Serif" font-size="10.00">+</text>
<text text-anchor="start" x="30" y="-462.5" font-family="Helvetica,sans-Serif" font-size="10.00">ColorRgb()</text>
<text text-anchor="start" x="12" y="-446.5" font-family="Helvetica,sans-Serif" font-size="10.00">+</text>
<text text-anchor="start" x="30" y="-446.5" font-family="Helvetica,sans-Serif" font-size="10.00">ColorRgb()</text>
<text text-anchor="start" x="12" y="-430.5" font-family="Helvetica,sans-Serif" font-size="10.00">+</text>
<text text-anchor="start" x="30" y="-430.5" font-family="Helvetica,sans-Serif" font-size="10.00">ColorRgb()</text>
<text text-anchor="start" x="12" y="-414.5" font-family="Helvetica,sans-Serif" font-size="10.00">+</text>
<text text-anchor="start" x="30" y="-414.5" font-family="Helvetica,sans-Serif" font-size="10.00">ColorRgb()</text>
<text text-anchor="start" x="12" y="-398.5" font-family="Helvetica,sans-Serif" font-size="10.00">+</text>
<text text-anchor="start" x="30" y="-398.5" font-family="Helvetica,sans-Serif" font-size="10.00">ColorRgb()</text>
<text text-anchor="start" x="12" y="-382.5" font-family="Helvetica,sans-Serif" font-size="10.00">+</text>
<text text-anchor="start" x="30" y="-382.5" font-family="Helvetica,sans-Serif" font-size="10.00">ColorRgb()</text>
<text text-anchor="start" x="12" y="-366.5" font-family="Helvetica,sans-Serif" font-size="10.00">+</text>
<text text-anchor="start" x="30" y="-366.5" font-family="Helvetica,sans-Serif" font-size="10.00">~ColorRgb()</text>
<text text-anchor="start" x="12" y="-350.5" font-family="Helvetica,sans-Serif" font-size="10.00">+</text>
<text text-anchor="start" x="30" y="-350.5" font-family="Helvetica,sans-Serif" font-size="10.00">getB()</text>
<text text-anchor="start" x="12" y="-334.5" font-family="Helvetica,sans-Serif" font-size="10.00">+</text>
<text text-anchor="start" x="30" y="-334.5" font-family="Helvetica,sans-Serif" font-size="10.00">getBNormalized()</text>
<text text-anchor="start" x="12" y="-318.5" font-family="Helvetica,sans-Serif" font-size="10.00">+</text>
<text text-anchor="start" x="30" y="-318.5" font-family="Helvetica,sans-Serif" font-size="10.00">getG()</text>
<text text-anchor="start" x="30" y="-302.5" font-family="Helvetica,sans-Serif" font-size="10.00">and 10 more...</text>
<polygon fill="#666666" stroke="#666666" points="0,-602 0,-602 125,-602 125,-602 0,-602"/>
<polygon fill="#666666" stroke="#666666" points="0,-474 0,-474 28,-474 28,-474 0,-474"/>
<polygon fill="#666666" stroke="#666666" points="28,-474 28,-474 125,-474 125,-474 28,-474"/>
<polygon fill="none" stroke="#666666" points="0,-296 0,-620 125,-620 125,-296 0,-296"/>
</a>
</g>
</g>
<!-- Node2&#45;&gt;Node1 -->
<g id="edge1_Node000001_Node000002" class="edge">
<title>Node2&#45;&gt;Node1</title>
<g id="a_edge1_Node000001_Node000002"><a xlink:title=" ">
<path fill="none" stroke="#63b8ff" d="M111.23,-296.09C118.56,-271.89 126,-247.32 132.98,-224.27"/>
<polygon fill="none" stroke="#63b8ff" points="132.96,-224.34 130.87,-217.44 136.44,-212.86 138.53,-219.76 132.96,-224.34"/>
</a>
</g>
<text text-anchor="middle" x="163.75" y="-262.5" font-family="Helvetica,sans-Serif" font-size="10.00" fill="grey"> &#45;diffuseColor</text>
<text text-anchor="middle" x="163.75" y="-250.5" font-family="Helvetica,sans-Serif" font-size="10.00" fill="grey">&#45;emissionColor</text>
<text text-anchor="middle" x="163.75" y="-238.5" font-family="Helvetica,sans-Serif" font-size="10.00" fill="grey">&#45;specularColor</text>
</g>
<!-- Node2&#45;&gt;Node2 -->
<g id="edge3_Node000002_Node000002" class="edge">
<title>Node2&#45;&gt;Node2</title>
<g id="a_edge3_Node000002_Node000002"><a xlink:title=" ">
<path fill="none" stroke="#63b8ff" d="M124.94,-490.56C135.61,-486.11 143,-475.26 143,-458 143,-447.22 140.11,-438.93 135.34,-433.15"/>
<polygon fill="none" stroke="#63b8ff" points="135.31,-433.12 128.11,-432.77 125.67,-425.98 132.87,-426.34 135.31,-433.12"/>
</a>
</g>
<text text-anchor="middle" x="169.62" y="-514.5" font-family="Helvetica,sans-Serif" font-size="10.00" fill="grey"> +Black</text>
<text text-anchor="middle" x="169.62" y="-502.5" font-family="Helvetica,sans-Serif" font-size="10.00" fill="grey">+Blue</text>
<text text-anchor="middle" x="169.62" y="-490.5" font-family="Helvetica,sans-Serif" font-size="10.00" fill="grey">+Brown</text>
<text text-anchor="middle" x="169.62" y="-478.5" font-family="Helvetica,sans-Serif" font-size="10.00" fill="grey">+ClearSkin</text>
<text text-anchor="middle" x="169.62" y="-466.5" font-family="Helvetica,sans-Serif" font-size="10.00" fill="grey">+Cyan</text>
<text text-anchor="middle" x="169.62" y="-454.5" font-family="Helvetica,sans-Serif" font-size="10.00" fill="grey">+DarkBrown</text>
<text text-anchor="middle" x="169.62" y="-442.5" font-family="Helvetica,sans-Serif" font-size="10.00" fill="grey">+DarkGreen</text>
<text text-anchor="middle" x="169.62" y="-430.5" font-family="Helvetica,sans-Serif" font-size="10.00" fill="grey">+DarkGrey</text>
<text text-anchor="middle" x="169.62" y="-418.5" font-family="Helvetica,sans-Serif" font-size="10.00" fill="grey">+Green</text>
<text text-anchor="middle" x="169.62" y="-406.5" font-family="Helvetica,sans-Serif" font-size="10.00" fill="grey">+Grey</text>
<text text-anchor="middle" x="169.62" y="-394.5" font-family="Helvetica,sans-Serif" font-size="10.00" fill="grey">...</text>
</g>
<!-- Node3 -->
<g id="Node000003" class="node">
<title>Node3</title>
<g id="a_Node000003"><a xlink:href="class_g_l_e_s_c_1_1_math_1_1_vector.html" target="_top" xlink:title=" ">
<polygon fill="white" stroke="none" points="103,-886 22,-886 22,-674 103,-674 103,-886"/>
<text text-anchor="start" x="48.25" y="-872.5" font-family="Helvetica,sans-Serif" font-size="10.00">Vec3F</text>
<text text-anchor="start" x="26" y="-856.5" font-family="Helvetica,sans-Serif" font-size="10.00">+</text>
<text text-anchor="start" x="36" y="-856.5" font-family="Helvetica,sans-Serif" font-size="10.00">data</text>
<text text-anchor="start" x="26" y="-840.5" font-family="Helvetica,sans-Serif" font-size="10.00">+</text>
<text text-anchor="start" x="36" y="-840.5" font-family="Helvetica,sans-Serif" font-size="10.00">Vector()</text>
<text text-anchor="start" x="26" y="-824.5" font-family="Helvetica,sans-Serif" font-size="10.00">+</text>
<text text-anchor="start" x="36" y="-824.5" font-family="Helvetica,sans-Serif" font-size="10.00">Vector()</text>
<text text-anchor="start" x="26" y="-808.5" font-family="Helvetica,sans-Serif" font-size="10.00">+</text>
<text text-anchor="start" x="36" y="-808.5" font-family="Helvetica,sans-Serif" font-size="10.00">Vector()</text>
<text text-anchor="start" x="26" y="-792.5" font-family="Helvetica,sans-Serif" font-size="10.00">+</text>
<text text-anchor="start" x="36" y="-792.5" font-family="Helvetica,sans-Serif" font-size="10.00">Vector()</text>
<text text-anchor="start" x="26" y="-776.5" font-family="Helvetica,sans-Serif" font-size="10.00">+</text>
<text text-anchor="start" x="36" y="-776.5" font-family="Helvetica,sans-Serif" font-size="10.00">Vector()</text>
<text text-anchor="start" x="26" y="-760.5" font-family="Helvetica,sans-Serif" font-size="10.00">+</text>
<text text-anchor="start" x="36" y="-760.5" font-family="Helvetica,sans-Serif" font-size="10.00">Vector()</text>
<text text-anchor="start" x="26" y="-744.5" font-family="Helvetica,sans-Serif" font-size="10.00">+</text>
<text text-anchor="start" x="36" y="-744.5" font-family="Helvetica,sans-Serif" font-size="10.00">Vector()</text>
<text text-anchor="start" x="26" y="-728.5" font-family="Helvetica,sans-Serif" font-size="10.00">+</text>
<text text-anchor="start" x="36" y="-728.5" font-family="Helvetica,sans-Serif" font-size="10.00">Vector()</text>
<text text-anchor="start" x="26" y="-712.5" font-family="Helvetica,sans-Serif" font-size="10.00">+</text>
<text text-anchor="start" x="36" y="-712.5" font-family="Helvetica,sans-Serif" font-size="10.00">Vector()</text>
<text text-anchor="start" x="26" y="-696.5" font-family="Helvetica,sans-Serif" font-size="10.00">+</text>
<text text-anchor="start" x="36" y="-696.5" font-family="Helvetica,sans-Serif" font-size="10.00">Vector()</text>
<text text-anchor="start" x="36" y="-680.5" font-family="Helvetica,sans-Serif" font-size="10.00">and 90 more...</text>
<polygon fill="#666666" stroke="#666666" points="22,-868 22,-868 103,-868 103,-868 22,-868"/>
<polygon fill="#666666" stroke="#666666" points="22,-852 22,-852 34,-852 34,-852 22,-852"/>
<polygon fill="#666666" stroke="#666666" points="34,-852 34,-852 103,-852 103,-852 34,-852"/>
<polygon fill="none" stroke="#666666" points="22,-674 22,-886 103,-886 103,-674 22,-674"/>
</a>
</g>
</g>
<!-- Node3&#45;&gt;Node2 -->
<g id="edge2_Node000002_Node000003" class="edge">
<title>Node3&#45;&gt;Node2</title>
<g id="a_edge2_Node000002_Node000003"><a xlink:title=" ">
<path fill="none" stroke="#63b8ff" d="M62.5,-663.08C62.5,-649.05 62.5,-634.53 62.5,-619.99"/>
<polygon fill="none" stroke="#63b8ff" points="59,-662.71 62.5,-672.71 66,-662.71 59,-662.71"/>
</a>
</g>
</g>
<!-- Node4 -->
<g id="Node000004" class="node">
<title>Node4</title>
<g id="a_Node000004"><a xlink:href="class_g_l_e_s_c_1_1_render_1_1_intensity.html" target="_top" xlink:title=" ">
<polygon fill="white" stroke="none" points="336.5,-570 214.5,-570 214.5,-346 336.5,-346 336.5,-570"/>
<text text-anchor="start" x="219.25" y="-556.5" font-family="Helvetica,sans-Serif" font-size="10.00">GLESC::Render::Intensity</text>
<text text-anchor="start" x="239.5" y="-544.5" font-family="Helvetica,sans-Serif" font-size="10.00">&lt; float &gt;&lt; float &gt;</text>
<text text-anchor="start" x="230" y="-528.5" font-family="Helvetica,sans-Serif" font-size="10.00">&#45;</text>
<text text-anchor="start" x="248.5" y="-528.5" font-family="Helvetica,sans-Serif" font-size="10.00">intensity</text>
<text text-anchor="start" x="228.5" y="-512.5" font-family="Helvetica,sans-Serif" font-size="10.00">+</text>
<text text-anchor="start" x="248.5" y="-512.5" font-family="Helvetica,sans-Serif" font-size="10.00">Intensity()</text>
<text text-anchor="start" x="228.5" y="-496.5" font-family="Helvetica,sans-Serif" font-size="10.00">+</text>
<text text-anchor="start" x="248.5" y="-496.5" font-family="Helvetica,sans-Serif" font-size="10.00">Intensity()</text>
<text text-anchor="start" x="228.5" y="-480.5" font-family="Helvetica,sans-Serif" font-size="10.00">+</text>
<text text-anchor="start" x="248.5" y="-480.5" font-family="Helvetica,sans-Serif" font-size="10.00">Intensity()</text>
<text text-anchor="start" x="228.5" y="-464.5" font-family="Helvetica,sans-Serif" font-size="10.00">+</text>
<text text-anchor="start" x="248.5" y="-464.5" font-family="Helvetica,sans-Serif" font-size="10.00">Intensity()</text>
<text text-anchor="start" x="228.5" y="-448.5" font-family="Helvetica,sans-Serif" font-size="10.00">+</text>
<text text-anchor="start" x="248.5" y="-448.5" font-family="Helvetica,sans-Serif" font-size="10.00">~Intensity()</text>
<text text-anchor="start" x="228.5" y="-432.5" font-family="Helvetica,sans-Serif" font-size="10.00">+</text>
<text text-anchor="start" x="248.5" y="-432.5" font-family="Helvetica,sans-Serif" font-size="10.00">get()</text>
<text text-anchor="start" x="228.5" y="-416.5" font-family="Helvetica,sans-Serif" font-size="10.00">+</text>
<text text-anchor="start" x="248.5" y="-416.5" font-family="Helvetica,sans-Serif" font-size="10.00">getModifiable()</text>
<text text-anchor="start" x="228.5" y="-400.5" font-family="Helvetica,sans-Serif" font-size="10.00">+</text>
<text text-anchor="start" x="248.5" y="-400.5" font-family="Helvetica,sans-Serif" font-size="10.00">operator*()</text>
<text text-anchor="start" x="228.5" y="-384.5" font-family="Helvetica,sans-Serif" font-size="10.00">+</text>
<text text-anchor="start" x="248.5" y="-384.5" font-family="Helvetica,sans-Serif" font-size="10.00">operator+()</text>
<text text-anchor="start" x="228.5" y="-368.5" font-family="Helvetica,sans-Serif" font-size="10.00">+</text>
<text text-anchor="start" x="248.5" y="-368.5" font-family="Helvetica,sans-Serif" font-size="10.00">operator&#45;()</text>
<text text-anchor="start" x="248.5" y="-352.5" font-family="Helvetica,sans-Serif" font-size="10.00">and 9 more...</text>
<polygon fill="#666666" stroke="#666666" points="214.5,-540 214.5,-540 336.5,-540 336.5,-540 214.5,-540"/>
<polygon fill="#666666" stroke="#666666" points="214.5,-524 214.5,-524 246.5,-524 246.5,-524 214.5,-524"/>
<polygon fill="#666666" stroke="#666666" points="246.5,-524 246.5,-524 336.5,-524 336.5,-524 246.5,-524"/>
<polygon fill="none" stroke="#666666" points="214.5,-346 214.5,-570 336.5,-570 336.5,-346 214.5,-346"/>
</a>
</g>
</g>
<!-- Node4&#45;&gt;Node1 -->
<g id="edge4_Node000001_Node000004" class="edge">
<title>Node4&#45;&gt;Node1</title>
<g id="a_edge4_Node000001_Node000004"><a xlink:title=" ">
<path fill="none" stroke="#63b8ff" d="M241.64,-346.26C229.77,-307.41 216.39,-263.66 204.36,-224.29"/>
<polygon fill="none" stroke="#63b8ff" points="204.36,-224.29 198.78,-219.72 200.85,-212.81 206.43,-217.38 204.36,-224.29"/>
</a>
</g>
<text text-anchor="middle" x="257.88" y="-268.5" font-family="Helvetica,sans-Serif" font-size="10.00" fill="grey"> &#45;diffuseIntensity</text>
<text text-anchor="middle" x="257.88" y="-256.5" font-family="Helvetica,sans-Serif" font-size="10.00" fill="grey">&#45;emissionIntensity</text>
<text text-anchor="middle" x="257.88" y="-244.5" font-family="Helvetica,sans-Serif" font-size="10.00" fill="grey">&#45;shininess</text>
<text text-anchor="middle" x="257.88" y="-232.5" font-family="Helvetica,sans-Serif" font-size="10.00" fill="grey">&#45;specularIntensity</text>
</g>
<!-- Node5 -->
<g id="Node000005" class="node">
<title>Node5</title>
<g id="a_Node000005"><a xlink:href="class_g_l_e_s_c_1_1_render_1_1_intensity.html" target="_top" xlink:title=" ">
<polygon fill="white" stroke="none" points="336.5,-892 214.5,-892 214.5,-668 336.5,-668 336.5,-892"/>
<text text-anchor="start" x="219.25" y="-878.5" font-family="Helvetica,sans-Serif" font-size="10.00">GLESC::Render::Intensity</text>
<text text-anchor="start" x="257.5" y="-866.5" font-family="Helvetica,sans-Serif" font-size="10.00">&lt; float &gt;</text>
<text text-anchor="start" x="230" y="-850.5" font-family="Helvetica,sans-Serif" font-size="10.00">&#45;</text>
<text text-anchor="start" x="248.5" y="-850.5" font-family="Helvetica,sans-Serif" font-size="10.00">intensity</text>
<text text-anchor="start" x="228.5" y="-834.5" font-family="Helvetica,sans-Serif" font-size="10.00">+</text>
<text text-anchor="start" x="248.5" y="-834.5" font-family="Helvetica,sans-Serif" font-size="10.00">Intensity()</text>
<text text-anchor="start" x="228.5" y="-818.5" font-family="Helvetica,sans-Serif" font-size="10.00">+</text>
<text text-anchor="start" x="248.5" y="-818.5" font-family="Helvetica,sans-Serif" font-size="10.00">Intensity()</text>
<text text-anchor="start" x="228.5" y="-802.5" font-family="Helvetica,sans-Serif" font-size="10.00">+</text>
<text text-anchor="start" x="248.5" y="-802.5" font-family="Helvetica,sans-Serif" font-size="10.00">Intensity()</text>
<text text-anchor="start" x="228.5" y="-786.5" font-family="Helvetica,sans-Serif" font-size="10.00">+</text>
<text text-anchor="start" x="248.5" y="-786.5" font-family="Helvetica,sans-Serif" font-size="10.00">Intensity()</text>
<text text-anchor="start" x="228.5" y="-770.5" font-family="Helvetica,sans-Serif" font-size="10.00">+</text>
<text text-anchor="start" x="248.5" y="-770.5" font-family="Helvetica,sans-Serif" font-size="10.00">~Intensity()</text>
<text text-anchor="start" x="228.5" y="-754.5" font-family="Helvetica,sans-Serif" font-size="10.00">+</text>
<text text-anchor="start" x="248.5" y="-754.5" font-family="Helvetica,sans-Serif" font-size="10.00">get()</text>
<text text-anchor="start" x="228.5" y="-738.5" font-family="Helvetica,sans-Serif" font-size="10.00">+</text>
<text text-anchor="start" x="248.5" y="-738.5" font-family="Helvetica,sans-Serif" font-size="10.00">getModifiable()</text>
<text text-anchor="start" x="228.5" y="-722.5" font-family="Helvetica,sans-Serif" font-size="10.00">+</text>
<text text-anchor="start" x="248.5" y="-722.5" font-family="Helvetica,sans-Serif" font-size="10.00">operator*()</text>
<text text-anchor="start" x="228.5" y="-706.5" font-family="Helvetica,sans-Serif" font-size="10.00">+</text>
<text text-anchor="start" x="248.5" y="-706.5" font-family="Helvetica,sans-Serif" font-size="10.00">operator+()</text>
<text text-anchor="start" x="228.5" y="-690.5" font-family="Helvetica,sans-Serif" font-size="10.00">+</text>
<text text-anchor="start" x="248.5" y="-690.5" font-family="Helvetica,sans-Serif" font-size="10.00">operator&#45;()</text>
<text text-anchor="start" x="248.5" y="-674.5" font-family="Helvetica,sans-Serif" font-size="10.00">and 9 more...</text>
<polygon fill="#666666" stroke="#666666" points="214.5,-862 214.5,-862 336.5,-862 336.5,-862 214.5,-862"/>
<polygon fill="#666666" stroke="#666666" points="214.5,-846 214.5,-846 246.5,-846 246.5,-846 214.5,-846"/>
<polygon fill="#666666" stroke="#666666" points="246.5,-846 246.5,-846 336.5,-846 336.5,-846 246.5,-846"/>
<polygon fill="none" stroke="#666666" points="214.5,-668 214.5,-892 336.5,-892 336.5,-668 214.5,-668"/>
</a>
</g>
</g>
<!-- Node5&#45;&gt;Node4 -->
<g id="edge5_Node000004_Node000005" class="edge">
<title>Node5&#45;&gt;Node4</title>
<g id="a_edge5_Node000004_Node000005"><a xlink:title=" ">
<path fill="none" stroke="orange" d="M275.5,-657.11C275.5,-628.43 275.5,-598.01 275.5,-569.85"/>
<polygon fill="orange" stroke="orange" points="272,-656.91 275.5,-666.91 279,-656.91 272,-656.91"/>
</a>
</g>
<text text-anchor="middle" x="295" y="-640.5" font-family="Helvetica,sans-Serif" font-size="10.00" fill="grey"> &lt; float &gt;</text>
</g>
<!-- Node6 -->
<g id="Node000006" class="node">
<title>Node6</title>
<g id="a_Node000006"><a xlink:href="class_g_l_e_s_c_1_1_render_1_1_intensity.html" target="_top" xlink:title="Intensity class, to encapsulate values between 0 and 1.">
<polygon fill="white" stroke="none" points="336.5,-1164 214.5,-1164 214.5,-940 336.5,-940 336.5,-1164"/>
<text text-anchor="start" x="219.25" y="-1150.5" font-family="Helvetica,sans-Serif" font-size="10.00">GLESC::Render::Intensity</text>
<text text-anchor="start" x="237.62" y="-1138.5" font-family="Helvetica,sans-Serif" font-size="10.00">&lt; IntensityType &gt;</text>
<text text-anchor="start" x="230" y="-1122.5" font-family="Helvetica,sans-Serif" font-size="10.00">&#45;</text>
<text text-anchor="start" x="248.5" y="-1122.5" font-family="Helvetica,sans-Serif" font-size="10.00">intensity</text>
<text text-anchor="start" x="228.5" y="-1106.5" font-family="Helvetica,sans-Serif" font-size="10.00">+</text>
<text text-anchor="start" x="248.5" y="-1106.5" font-family="Helvetica,sans-Serif" font-size="10.00">Intensity()</text>
<text text-anchor="start" x="228.5" y="-1090.5" font-family="Helvetica,sans-Serif" font-size="10.00">+</text>
<text text-anchor="start" x="248.5" y="-1090.5" font-family="Helvetica,sans-Serif" font-size="10.00">Intensity()</text>
<text text-anchor="start" x="228.5" y="-1074.5" font-family="Helvetica,sans-Serif" font-size="10.00">+</text>
<text text-anchor="start" x="248.5" y="-1074.5" font-family="Helvetica,sans-Serif" font-size="10.00">Intensity()</text>
<text text-anchor="start" x="228.5" y="-1058.5" font-family="Helvetica,sans-Serif" font-size="10.00">+</text>
<text text-anchor="start" x="248.5" y="-1058.5" font-family="Helvetica,sans-Serif" font-size="10.00">Intensity()</text>
<text text-anchor="start" x="228.5" y="-1042.5" font-family="Helvetica,sans-Serif" font-size="10.00">+</text>
<text text-anchor="start" x="248.5" y="-1042.5" font-family="Helvetica,sans-Serif" font-size="10.00">~Intensity()</text>
<text text-anchor="start" x="228.5" y="-1026.5" font-family="Helvetica,sans-Serif" font-size="10.00">+</text>
<text text-anchor="start" x="248.5" y="-1026.5" font-family="Helvetica,sans-Serif" font-size="10.00">get()</text>
<text text-anchor="start" x="228.5" y="-1010.5" font-family="Helvetica,sans-Serif" font-size="10.00">+</text>
<text text-anchor="start" x="248.5" y="-1010.5" font-family="Helvetica,sans-Serif" font-size="10.00">getModifiable()</text>
<text text-anchor="start" x="228.5" y="-994.5" font-family="Helvetica,sans-Serif" font-size="10.00">+</text>
<text text-anchor="start" x="248.5" y="-994.5" font-family="Helvetica,sans-Serif" font-size="10.00">operator*()</text>
<text text-anchor="start" x="228.5" y="-978.5" font-family="Helvetica,sans-Serif" font-size="10.00">+</text>
<text text-anchor="start" x="248.5" y="-978.5" font-family="Helvetica,sans-Serif" font-size="10.00">operator+()</text>
<text text-anchor="start" x="228.5" y="-962.5" font-family="Helvetica,sans-Serif" font-size="10.00">+</text>
<text text-anchor="start" x="248.5" y="-962.5" font-family="Helvetica,sans-Serif" font-size="10.00">operator&#45;()</text>
<text text-anchor="start" x="248.5" y="-946.5" font-family="Helvetica,sans-Serif" font-size="10.00">and 9 more...</text>
<polygon fill="#666666" stroke="#666666" points="214.5,-1134 214.5,-1134 336.5,-1134 336.5,-1134 214.5,-1134"/>
<polygon fill="#666666" stroke="#666666" points="214.5,-1118 214.5,-1118 246.5,-1118 246.5,-1118 214.5,-1118"/>
<polygon fill="#666666" stroke="#666666" points="246.5,-1118 246.5,-1118 336.5,-1118 336.5,-1118 246.5,-1118"/>
<polygon fill="none" stroke="#666666" points="214.5,-940 214.5,-1164 336.5,-1164 336.5,-940 214.5,-940"/>
</a>
</g>
</g>
<!-- Node6&#45;&gt;Node5 -->
<g id="edge6_Node000005_Node000006" class="edge">
<title>Node6&#45;&gt;Node5</title>
<g id="a_edge6_Node000005_Node000006"><a xlink:title=" ">
<path fill="none" stroke="orange" d="M275.5,-928.8C275.5,-916.54 275.5,-904.13 275.5,-891.99"/>
<polygon fill="orange" stroke="orange" points="272,-928.5 275.5,-938.5 279,-928.5 272,-928.5"/>
</a>
</g>
<text text-anchor="middle" x="295" y="-912.5" font-family="Helvetica,sans-Serif" font-size="10.00" fill="grey"> &lt; float &gt;</text>
</g>
</g>
</svg>

<g id="navigator" transform="translate(0 0)" fill="#404254">
  <rect fill="#f2f5e9" fill-opacity="0.5" stroke="#606060" stroke-width=".5" x="0" y="0" width="60" height="60"/>
  <use id="zoomplus" xlink:href="#zoomPlus" x="17" y="9" onmousedown="handleZoom(evt,'in')"/>
  <use id="zoomminus" xlink:href="#zoomMin" x="42" y="9" onmousedown="handleZoom(evt,'out')"/>
  <use id="reset" xlink:href="#resetDef" x="30" y="36" onmousedown="handleReset()"/>
   <use id="arrowup" xlink:href="#arrowUp" x="0" y="0" onmousedown="handlePan(0,-1)"/>
  <use id="arrowright" xlink:href="#arrowRight" x="0" y="0" onmousedown="handlePan(1,0)"/>
  <use id="arrowdown" xlink:href="#arrowDown" x="0" y="0" onmousedown="handlePan(0,1)"/>
  <use id="arrowleft" xlink:href="#arrowLeft" x="0" y="0" onmousedown="handlePan(-1,0)"/>
</g>
<svg viewBox="0 0 15 15" width="100%" height="30px" preserveAspectRatio="xMaxYMin meet">
 <g id="arrow_out" transform="scale(0.3 0.3)">
  <a xlink:href="class_g_l_e_s_c_1_1_render_1_1_material__coll__graph_org.svg" target="_base">
   <rect id="button" ry="5" rx="5" y="6" x="6" height="38" width="38"
        fill="#f2f5e9" fill-opacity="0.5" stroke="#606060" stroke-width="1.0"/>
   <path id="arrow"
     d="M 11.500037,31.436501 C 11.940474,20.09759 22.043105,11.32322 32.158766,21.979434 L 37.068811,17.246167 C 37.068811,17.246167 37.088388,32 37.088388,32 L 22.160133,31.978069 C 22.160133,31.978069 26.997745,27.140456 26.997745,27.140456 C 18.528582,18.264221 13.291696,25.230495 11.500037,31.436501 z"
     style="fill:#404040;"/>
  </a>
 </g>
</svg>

<style type='text/css'>
<![CDATA[
[data-mouse-over-selected='false'] { opacity: 0.7; }
[data-mouse-over-selected='true']  { opacity: 1.0; }
]]>
</style>
<script type="application/ecmascript"><![CDATA[
document.addEventListener('DOMContentLoaded', (event) => {
  highlightEdges();
  highlightAdjacentNodes();
});
]]></script>
</svg>
