<?xml version="1.0" encoding="UTF-8" standalone="no"?>
<!DOCTYPE svg PUBLIC "-//W3C//DTD SVG 1.1//EN"
 "http://www.w3.org/Graphics/SVG/1.1/DTD/svg11.dtd">
<!-- Generated by graphviz version 11.0.0 (20240428.1522)
 -->
<!-- Title: GLESC::Math::VectorAlgorithms::vectorNegate Pages: 1 -->
<!--zoomable 121 -->

<svg id="main" version="1.1" xmlns="http://www.w3.org/2000/svg" xmlns:xlink="http://www.w3.org/1999/xlink" xml:space="preserve" onload="init(evt)">
<style type="text/css"><![CDATA[
.node, .edge {opacity: 0.7;}
.node.selected, .edge.selected {opacity: 1;}
.edge:hover path { stroke: red; }
.edge:hover polygon { stroke: red; fill: red; }
]]></style>

<defs>
  <circle id="rim" cx="0" cy="0" r="7"/>
  <circle id="rim2" cx="0" cy="0" r="3.5"/>
  <g id="zoomPlus">
    <use xlink:href="#rim" fill="#404040"><set attributeName="fill" to="#808080" begin="zoomplus.mouseover" end="zoomplus.mouseout"/></use>
    <path d="M-4,0h8M0,-4v8" fill="none" stroke="white" stroke-width="1.5" pointer-events="none"/>
  </g>
  <g id="zoomMin">
    <use xlink:href="#rim" fill="#404040"><set attributeName="fill" to="#808080" begin="zoomminus.mouseover" end="zoomminus.mouseout"/></use>
    <path d="M-4,0h8" fill="none" stroke="white" stroke-width="1.5" pointer-events="none"/>
  </g>
  <g id="arrowUp" transform="translate(30 24)">
    <use xlink:href="#rim"/>
    <path pointer-events="none" fill="none" stroke="white" stroke-width="1.5" d="M0,-3.0v7 M-2.5,-0.5L0,-3.0L2.5,-0.5"/>
  </g>
  <g id="arrowRight" transform="rotate(90) translate(36 -43)">
    <use xlink:href="#rim"/>
    <path pointer-events="none" fill="none" stroke="white" stroke-width="1.5" d="M0,-3.0v7 M-2.5,-0.5L0,-3.0L2.5,-0.5"/>
  </g>
  <g id="arrowDown" transform="rotate(180) translate(-30 -48)">
    <use xlink:href="#rim"/>
    <path pointer-events="none" fill="none" stroke="white" stroke-width="1.5" d="M0,-3.0v7 M-2.5,-0.5L0,-3.0L2.5,-0.5"/>
  </g>
  <g id="arrowLeft" transform="rotate(270) translate(-36 17)">
    <use xlink:href="#rim"/>
    <path pointer-events="none" fill="none" stroke="white" stroke-width="1.5" d="M0,-3.0v7 M-2.5,-0.5L0,-3.0L2.5,-0.5"/>
  </g>
  <g id="resetDef">
    <use xlink:href="#rim2" fill="#404040"><set attributeName="fill" to="#808080" begin="reset.mouseover" end="reset.mouseout"/></use>
  </g>
</defs>
<script type="application/ecmascript">
var viewWidth = 913;
var viewHeight = 121;
var sectionId = 'dynsection-69';
</script>
<script type="application/ecmascript" xlink:href="svg.min.js"/>
<svg id="graph" class="graph">
<g id="viewport">
<title>GLESC::Math::VectorAlgorithms::vectorNegate</title>
<!-- Node1 -->
<g id="Node000001" class="node">
<title>Node1</title>
<g id="a_Node000001"><a xlink:title="Negates a vector.">
<polygon fill="#999999" stroke="#666666" points="905.25,-60 747.5,-60 747.5,-28 905.25,-28 905.25,-60"/>
<text text-anchor="start" x="755.5" y="-46.5" font-family="Helvetica,sans-Serif" font-size="10.00">GLESC::Math::VectorAlgorithms</text>
<text text-anchor="middle" x="826.38" y="-34.5" font-family="Helvetica,sans-Serif" font-size="10.00">::vectorNegate</text>
</a>
</g>
</g>
<!-- Node2 -->
<g id="Node000002" class="node">
<title>Node2</title>
<g id="a_Node000002"><a xlink:href="class_g_l_e_s_c_1_1_math_1_1_matrix_mixed_algorithms.html#a67bdda15ead970e5074845bdf3fcf085" target="_top" xlink:title=" ">
<polygon fill="white" stroke="#666666" points="711.5,-94 556,-94 556,-50 711.5,-50 711.5,-94"/>
<text text-anchor="start" x="564" y="-80.5" font-family="Helvetica,sans-Serif" font-size="10.00">GLESC::Math::MatrixMixed</text>
<text text-anchor="start" x="564" y="-68.5" font-family="Helvetica,sans-Serif" font-size="10.00">Algorithms::calculateViewMatrix</text>
<text text-anchor="middle" x="633.75" y="-56.5" font-family="Helvetica,sans-Serif" font-size="10.00">PosRot</text>
</a>
</g>
</g>
<!-- Node1&#45;&gt;Node2 -->
<g id="edge1_Node000001_Node000002" class="edge">
<title>Node1&#45;&gt;Node2</title>
<g id="a_edge1_Node000001_Node000002"><a xlink:title=" ">
<path fill="none" stroke="#63b8ff" d="M735.78,-57.16C727.79,-58.33 719.75,-59.51 711.88,-60.67"/>
<polygon fill="#63b8ff" stroke="#63b8ff" points="736.13,-60.65 745.52,-55.73 735.12,-53.72 736.13,-60.65"/>
</a>
</g>
</g>
<!-- Node8 -->
<g id="Node000008" class="node">
<title>Node8</title>
<g id="a_Node000008"><a xlink:href="class_g_l_e_s_c_1_1_math_1_1_vector.html#a2177166a738d730690060380ddc43e99" target="_top" xlink:title="Overloads the unary &#39;&#45;&#39; operator for negation.">
<polygon fill="white" stroke="#666666" points="689.38,-32 578.12,-32 578.12,0 689.38,0 689.38,-32"/>
<text text-anchor="start" x="586.12" y="-18.5" font-family="Helvetica,sans-Serif" font-size="10.00">GLESC::Math::Vector</text>
<text text-anchor="middle" x="633.75" y="-6.5" font-family="Helvetica,sans-Serif" font-size="10.00">::operator&#45;</text>
</a>
</g>
</g>
<!-- Node1&#45;&gt;Node8 -->
<g id="edge7_Node000001_Node000008" class="edge">
<title>Node1&#45;&gt;Node8</title>
<g id="a_edge7_Node000001_Node000008"><a xlink:title=" ">
<path fill="none" stroke="#63b8ff" d="M735.68,-30.83C720.03,-28.53 704.18,-26.2 689.82,-24.09"/>
<polygon fill="#63b8ff" stroke="#63b8ff" points="735.12,-34.28 745.52,-32.27 736.13,-27.35 735.12,-34.28"/>
</a>
</g>
</g>
<!-- Node3 -->
<g id="Node000003" class="node">
<title>Node3</title>
<g id="a_Node000003"><a xlink:href="class_g_l_e_s_c_1_1_math_1_1_matrix.html#a3c0812b3a24431dfc5bc68f394910d61" target="_top" xlink:title="Creates a view matrix from the given position and rotation vectors.">
<polygon fill="white" stroke="#666666" points="520,-88 393.75,-88 393.75,-56 520,-56 520,-88"/>
<text text-anchor="start" x="401.75" y="-74.5" font-family="Helvetica,sans-Serif" font-size="10.00">GLESC::Math::Matrix</text>
<text text-anchor="middle" x="456.88" y="-62.5" font-family="Helvetica,sans-Serif" font-size="10.00">::makeViewMatrixPosRot</text>
</a>
</g>
</g>
<!-- Node2&#45;&gt;Node3 -->
<g id="edge2_Node000002_Node000003" class="edge">
<title>Node2&#45;&gt;Node3</title>
<g id="a_edge2_Node000002_Node000003"><a xlink:title=" ">
<path fill="none" stroke="#63b8ff" d="M544.15,-72C536.08,-72 528.02,-72 520.25,-72"/>
<polygon fill="#63b8ff" stroke="#63b8ff" points="544.02,-75.5 554.02,-72 544.02,-68.5 544.02,-75.5"/>
</a>
</g>
</g>
<!-- Node4 -->
<g id="Node000004" class="node">
<title>Node4</title>
<g id="a_Node000004"><a xlink:href="class_g_l_e_s_c_1_1_render_1_1_renderer.html#aaa4f270fc41e2f2a1f9ce7b979376eb1" target="_top" xlink:title="Static method that creates the view matrix from a transform (transform of the camera)">
<polygon fill="white" stroke="#666666" points="357.75,-113 227,-113 227,-81 357.75,-81 357.75,-113"/>
<text text-anchor="start" x="235" y="-99.5" font-family="Helvetica,sans-Serif" font-size="10.00">GLESC::Render::Renderer</text>
<text text-anchor="middle" x="292.38" y="-87.5" font-family="Helvetica,sans-Serif" font-size="10.00">::createViewMatrix</text>
</a>
</g>
</g>
<!-- Node3&#45;&gt;Node4 -->
<g id="edge3_Node000003_Node000004" class="edge">
<title>Node3&#45;&gt;Node4</title>
<g id="a_edge3_Node000003_Node000004"><a xlink:title=" ">
<path fill="none" stroke="#63b8ff" d="M382.2,-83.34C374.12,-84.58 365.95,-85.84 357.99,-87.06"/>
<polygon fill="#63b8ff" stroke="#63b8ff" points="382.67,-86.8 392.02,-81.82 381.6,-79.89 382.67,-86.8"/>
</a>
</g>
</g>
<!-- Node5 -->
<g id="Node000005" class="node">
<title>Node5</title>
<g id="a_Node000005"><a xlink:href="class_g_l_e_s_c_1_1_render_1_1_renderer.html#a0f562e14a9fb4e13e03bc108b5dd1111" target="_top" xlink:title="This starts the frame of rendering.">
<polygon fill="white" stroke="#666666" points="357.75,-63 227,-63 227,-31 357.75,-31 357.75,-63"/>
<text text-anchor="start" x="235" y="-49.5" font-family="Helvetica,sans-Serif" font-size="10.00">GLESC::Render::Renderer</text>
<text text-anchor="middle" x="292.38" y="-37.5" font-family="Helvetica,sans-Serif" font-size="10.00">::start</text>
</a>
</g>
</g>
<!-- Node3&#45;&gt;Node5 -->
<g id="edge4_Node000003_Node000005" class="edge">
<title>Node3&#45;&gt;Node5</title>
<g id="a_edge4_Node000003_Node000005"><a xlink:title=" ">
<path fill="none" stroke="#63b8ff" d="M382.2,-60.66C374.12,-59.42 365.95,-58.16 357.99,-56.94"/>
<polygon fill="#63b8ff" stroke="#63b8ff" points="381.6,-64.11 392.02,-62.18 382.67,-57.2 381.6,-64.11"/>
</a>
</g>
</g>
<!-- Node6 -->
<g id="Node000006" class="node">
<title>Node6</title>
<g id="a_Node000006"><a xlink:href="class_g_l_e_s_c_1_1_engine.html#ab0a886855ca341089947b36b9c6f6e15" target="_top" xlink:title="Processes the rendering of the game Can be called at variable intervals of time as it uses elapsed.">
<polygon fill="white" stroke="#666666" points="191,-57 73,-57 73,-37 191,-37 191,-57"/>
<text text-anchor="middle" x="132" y="-43.5" font-family="Helvetica,sans-Serif" font-size="10.00">GLESC::Engine::render</text>
</a>
</g>
</g>
<!-- Node5&#45;&gt;Node6 -->
<g id="edge5_Node000005_Node000006" class="edge">
<title>Node5&#45;&gt;Node6</title>
<g id="a_edge5_Node000005_Node000006"><a xlink:title=" ">
<path fill="none" stroke="#63b8ff" d="M215.24,-47C207.23,-47 199.18,-47 191.42,-47"/>
<polygon fill="#63b8ff" stroke="#63b8ff" points="214.99,-50.5 224.99,-47 214.99,-43.5 214.99,-50.5"/>
</a>
</g>
</g>
<!-- Node7 -->
<g id="Node000007" class="node">
<title>Node7</title>
<g id="a_Node000007"><a xlink:href="main_8cpp.html#a0ddf1224851353fc92bfbff6f499fa97" target="_top" xlink:title=" ">
<polygon fill="white" stroke="#666666" points="37,-57 0,-57 0,-37 37,-37 37,-57"/>
<text text-anchor="middle" x="18.5" y="-43.5" font-family="Helvetica,sans-Serif" font-size="10.00">main</text>
</a>
</g>
</g>
<!-- Node6&#45;&gt;Node7 -->
<g id="edge6_Node000006_Node000007" class="edge">
<title>Node6&#45;&gt;Node7</title>
<g id="a_edge6_Node000006_Node000007"><a xlink:title=" ">
<path fill="none" stroke="#63b8ff" d="M61.31,-47C52.52,-47 44.22,-47 37.37,-47"/>
<polygon fill="#63b8ff" stroke="#63b8ff" points="61.12,-50.5 71.12,-47 61.12,-43.5 61.12,-50.5"/>
</a>
</g>
</g>
</g>
</svg>

<g id="navigator" transform="translate(0 0)" fill="#404254">
  <rect fill="#f2f5e9" fill-opacity="0.5" stroke="#606060" stroke-width=".5" x="0" y="0" width="60" height="60"/>
  <use id="zoomplus" xlink:href="#zoomPlus" x="17" y="9" onmousedown="handleZoom(evt,'in')"/>
  <use id="zoomminus" xlink:href="#zoomMin" x="42" y="9" onmousedown="handleZoom(evt,'out')"/>
  <use id="reset" xlink:href="#resetDef" x="30" y="36" onmousedown="handleReset()"/>
   <use id="arrowup" xlink:href="#arrowUp" x="0" y="0" onmousedown="handlePan(0,-1)"/>
  <use id="arrowright" xlink:href="#arrowRight" x="0" y="0" onmousedown="handlePan(1,0)"/>
  <use id="arrowdown" xlink:href="#arrowDown" x="0" y="0" onmousedown="handlePan(0,1)"/>
  <use id="arrowleft" xlink:href="#arrowLeft" x="0" y="0" onmousedown="handlePan(-1,0)"/>
</g>
<svg viewBox="0 0 15 15" width="100%" height="30px" preserveAspectRatio="xMaxYMin meet">
 <g id="arrow_out" transform="scale(0.3 0.3)">
  <a xlink:href="class_g_l_e_s_c_1_1_math_1_1_vector_algorithms_a7b10d54bc647ac05d41a9e025d5c9410_icgraph_org.svg" target="_base">
   <rect id="button" ry="5" rx="5" y="6" x="6" height="38" width="38"
        fill="#f2f5e9" fill-opacity="0.5" stroke="#606060" stroke-width="1.0"/>
   <path id="arrow"
     d="M 11.500037,31.436501 C 11.940474,20.09759 22.043105,11.32322 32.158766,21.979434 L 37.068811,17.246167 C 37.068811,17.246167 37.088388,32 37.088388,32 L 22.160133,31.978069 C 22.160133,31.978069 26.997745,27.140456 26.997745,27.140456 C 18.528582,18.264221 13.291696,25.230495 11.500037,31.436501 z"
     style="fill:#404040;"/>
  </a>
 </g>
</svg>

<style type='text/css'>
<![CDATA[
[data-mouse-over-selected='false'] { opacity: 0.7; }
[data-mouse-over-selected='true']  { opacity: 1.0; }
]]>
</style>
<script type="application/ecmascript"><![CDATA[
document.addEventListener('DOMContentLoaded', (event) => {
  highlightEdges();
  highlightAdjacentNodes();
});
]]></script>
</svg>
