<?xml version="1.0" encoding="UTF-8" standalone="no"?>
<!DOCTYPE svg PUBLIC "-//W3C//DTD SVG 1.1//EN"
 "http://www.w3.org/Graphics/SVG/1.1/DTD/svg11.dtd">
<!-- Generated by graphviz version 11.0.0 (20240428.1522)
 -->
<!-- Title: GLESC::Math::Matrix::operator/= Pages: 1 -->
<!--zoomable 348 -->

<svg id="main" version="1.1" xmlns="http://www.w3.org/2000/svg" xmlns:xlink="http://www.w3.org/1999/xlink" xml:space="preserve" onload="init(evt)">
<style type="text/css"><![CDATA[
.node, .edge {opacity: 0.7;}
.node.selected, .edge.selected {opacity: 1;}
.edge:hover path { stroke: red; }
.edge:hover polygon { stroke: red; fill: red; }
]]></style>

<defs>
  <circle id="rim" cx="0" cy="0" r="7"/>
  <circle id="rim2" cx="0" cy="0" r="3.5"/>
  <g id="zoomPlus">
    <use xlink:href="#rim" fill="#404040"><set attributeName="fill" to="#808080" begin="zoomplus.mouseover" end="zoomplus.mouseout"/></use>
    <path d="M-4,0h8M0,-4v8" fill="none" stroke="white" stroke-width="1.5" pointer-events="none"/>
  </g>
  <g id="zoomMin">
    <use xlink:href="#rim" fill="#404040"><set attributeName="fill" to="#808080" begin="zoomminus.mouseover" end="zoomminus.mouseout"/></use>
    <path d="M-4,0h8" fill="none" stroke="white" stroke-width="1.5" pointer-events="none"/>
  </g>
  <g id="arrowUp" transform="translate(30 24)">
    <use xlink:href="#rim"/>
    <path pointer-events="none" fill="none" stroke="white" stroke-width="1.5" d="M0,-3.0v7 M-2.5,-0.5L0,-3.0L2.5,-0.5"/>
  </g>
  <g id="arrowRight" transform="rotate(90) translate(36 -43)">
    <use xlink:href="#rim"/>
    <path pointer-events="none" fill="none" stroke="white" stroke-width="1.5" d="M0,-3.0v7 M-2.5,-0.5L0,-3.0L2.5,-0.5"/>
  </g>
  <g id="arrowDown" transform="rotate(180) translate(-30 -48)">
    <use xlink:href="#rim"/>
    <path pointer-events="none" fill="none" stroke="white" stroke-width="1.5" d="M0,-3.0v7 M-2.5,-0.5L0,-3.0L2.5,-0.5"/>
  </g>
  <g id="arrowLeft" transform="rotate(270) translate(-36 17)">
    <use xlink:href="#rim"/>
    <path pointer-events="none" fill="none" stroke="white" stroke-width="1.5" d="M0,-3.0v7 M-2.5,-0.5L0,-3.0L2.5,-0.5"/>
  </g>
  <g id="resetDef">
    <use xlink:href="#rim2" fill="#404040"><set attributeName="fill" to="#808080" begin="reset.mouseover" end="reset.mouseout"/></use>
  </g>
</defs>
<script type="application/ecmascript">
var viewWidth = 1271;
var viewHeight = 348;
var sectionId = 'dynsection-38';
</script>
<script type="application/ecmascript" xlink:href="svg.min.js"/>
<svg id="graph" class="graph">
<g id="viewport">
<title>GLESC::Math::Matrix::operator/=</title>
<!-- Node1 -->
<g id="Node000001" class="node">
<title>Node1</title>
<g id="a_Node000001"><a xlink:title="In&#45;place division by another matrix.">
<polygon fill="#999999" stroke="#666666" points="109.75,-126 0,-126 0,-94 109.75,-94 109.75,-126"/>
<text text-anchor="start" x="8" y="-112.5" font-family="Helvetica,sans-Serif" font-size="10.00">GLESC::Math::Matrix</text>
<text text-anchor="middle" x="54.88" y="-100.5" font-family="Helvetica,sans-Serif" font-size="10.00">::operator/=</text>
</a>
</g>
</g>
<!-- Node2 -->
<g id="Node000002" class="node">
<title>Node2</title>
<g id="a_Node000002"><a xlink:href="class_g_l_e_s_c_1_1_math_1_1_matrix_algorithms.html#a9a320568d4cd85a382cb80f773e6e98f" target="_top" xlink:title="Matrix division.">
<polygon fill="white" stroke="#666666" points="302,-126 145.75,-126 145.75,-94 302,-94 302,-126"/>
<text text-anchor="start" x="153.75" y="-112.5" font-family="Helvetica,sans-Serif" font-size="10.00">GLESC::Math::MatrixAlgorithms</text>
<text text-anchor="middle" x="223.88" y="-100.5" font-family="Helvetica,sans-Serif" font-size="10.00">::matrixMatrixDiv</text>
</a>
</g>
</g>
<!-- Node1&#45;&gt;Node2 -->
<g id="edge1_Node000001_Node000002" class="edge">
<title>Node1&#45;&gt;Node2</title>
<g id="a_edge1_Node000001_Node000002"><a xlink:title=" ">
<path fill="none" stroke="#63b8ff" d="M110.1,-110C117.73,-110 125.75,-110 133.83,-110"/>
<polygon fill="#63b8ff" stroke="#63b8ff" points="133.76,-113.5 143.76,-110 133.76,-106.5 133.76,-113.5"/>
</a>
</g>
</g>
<!-- Node3 -->
<g id="Node000003" class="node">
<title>Node3</title>
<g id="a_Node000003"><a xlink:href="namespace_g_l_e_s_c_1_1_math.html#aee25910dbba06d09d9df14d03933ace1" target="_top" xlink:title="Compares two values for equality.">
<polygon fill="white" stroke="#666666" points="1039.5,-322 946.25,-322 946.25,-302 1039.5,-302 1039.5,-322"/>
<text text-anchor="middle" x="992.88" y="-308.5" font-family="Helvetica,sans-Serif" font-size="10.00">GLESC::Math::eq</text>
</a>
</g>
</g>
<!-- Node2&#45;&gt;Node3 -->
<g id="edge2_Node000002_Node000003" class="edge">
<title>Node2&#45;&gt;Node3</title>
<g id="a_edge2_Node000002_Node000003"><a xlink:title=" ">
<path fill="none" stroke="#63b8ff" d="M240.84,-126.16C261.66,-146.53 299.94,-181.57 338,-204 533.21,-319.07 815.05,-321.01 934.7,-315.78"/>
<polygon fill="#63b8ff" stroke="#63b8ff" points="934.77,-319.28 944.59,-315.31 934.44,-312.29 934.77,-319.28"/>
</a>
</g>
</g>
<!-- Node5 -->
<g id="Node000005" class="node">
<title>Node5</title>
<g id="a_Node000005"><a xlink:href="class_g_l_e_s_c_1_1_math_1_1_matrix_algorithms.html#a9670e25803284a303601766e75617acc" target="_top" xlink:title="Calculates the determinant of any matrix using Laplace expansion.">
<polygon fill="white" stroke="#666666" points="1071,-208 914.75,-208 914.75,-176 1071,-176 1071,-208"/>
<text text-anchor="start" x="922.75" y="-194.5" font-family="Helvetica,sans-Serif" font-size="10.00">GLESC::Math::MatrixAlgorithms</text>
<text text-anchor="middle" x="992.88" y="-182.5" font-family="Helvetica,sans-Serif" font-size="10.00">::laplaceExpansionDeterminant</text>
</a>
</g>
</g>
<!-- Node2&#45;&gt;Node5 -->
<g id="edge4_Node000002_Node000005" class="edge">
<title>Node2&#45;&gt;Node5</title>
<g id="a_edge4_Node000002_Node000005"><a xlink:title=" ">
<path fill="none" stroke="#63b8ff" d="M302.35,-109.56C394.29,-109.87 552.09,-113.05 686.5,-129 772.99,-139.27 793.5,-149.16 878.75,-167 888.12,-168.96 897.91,-171.06 907.65,-173.17"/>
<polygon fill="#63b8ff" stroke="#63b8ff" points="906.6,-176.52 917.12,-175.23 908.1,-169.68 906.6,-176.52"/>
</a>
</g>
</g>
<!-- Node10 -->
<g id="Node000010" class="node">
<title>Node10</title>
<g id="a_Node000010"><a xlink:href="class_g_l_e_s_c_1_1_math_1_1_matrix_algorithms.html#a6926a06b307dbcaf08b77a7d1457b9cd" target="_top" xlink:title="Calculates the inverse of any square matrix.">
<polygon fill="white" stroke="#666666" points="494.25,-195 338,-195 338,-163 494.25,-163 494.25,-195"/>
<text text-anchor="start" x="346" y="-181.5" font-family="Helvetica,sans-Serif" font-size="10.00">GLESC::Math::MatrixAlgorithms</text>
<text text-anchor="middle" x="416.12" y="-169.5" font-family="Helvetica,sans-Serif" font-size="10.00">::matrixInverse</text>
</a>
</g>
</g>
<!-- Node2&#45;&gt;Node10 -->
<g id="edge10_Node000002_Node000010" class="edge">
<title>Node2&#45;&gt;Node10</title>
<g id="a_edge10_Node000002_Node000010"><a xlink:title=" ">
<path fill="none" stroke="#63b8ff" d="M269.96,-126.35C296.66,-136.03 330.71,-148.38 359.12,-158.69"/>
<polygon fill="#63b8ff" stroke="#63b8ff" points="357.69,-161.89 368.28,-162.01 360.07,-155.31 357.69,-161.89"/>
</a>
</g>
</g>
<!-- Node15 -->
<g id="Node000015" class="node">
<title>Node15</title>
<g id="a_Node000015"><a xlink:href="class_g_l_e_s_c_1_1_math_1_1_matrix_algorithms.html#a0b865437ed01525b5afafb74f755ffbb" target="_top" xlink:title=" ">
<polygon fill="white" stroke="#666666" points="494.25,-82 338,-82 338,-50 494.25,-50 494.25,-82"/>
<text text-anchor="start" x="346" y="-68.5" font-family="Helvetica,sans-Serif" font-size="10.00">GLESC::Math::MatrixAlgorithms</text>
<text text-anchor="middle" x="416.12" y="-56.5" font-family="Helvetica,sans-Serif" font-size="10.00">::matrixMatrixMulColMaj</text>
</a>
</g>
</g>
<!-- Node2&#45;&gt;Node15 -->
<g id="edge22_Node000002_Node000015" class="edge">
<title>Node2&#45;&gt;Node15</title>
<g id="a_edge22_Node000002_Node000015"><a xlink:title=" ">
<path fill="none" stroke="#63b8ff" d="M295.99,-93.55C307.95,-90.79 320.45,-87.9 332.67,-85.07"/>
<polygon fill="#63b8ff" stroke="#63b8ff" points="333.35,-88.5 342.31,-82.84 331.78,-81.68 333.35,-88.5"/>
</a>
</g>
</g>
<!-- Node16 -->
<g id="Node000016" class="node">
<title>Node16</title>
<g id="a_Node000016"><a xlink:href="class_g_l_e_s_c_1_1_math_1_1_matrix_algorithms.html#ac339994676b91c61876ce07d0f2c1b88" target="_top" xlink:title=" ">
<polygon fill="white" stroke="#666666" points="494.25,-32 338,-32 338,0 494.25,0 494.25,-32"/>
<text text-anchor="start" x="346" y="-18.5" font-family="Helvetica,sans-Serif" font-size="10.00">GLESC::Math::MatrixAlgorithms</text>
<text text-anchor="middle" x="416.12" y="-6.5" font-family="Helvetica,sans-Serif" font-size="10.00">::matrixMatrixMulRowMaj</text>
</a>
</g>
</g>
<!-- Node2&#45;&gt;Node16 -->
<g id="edge23_Node000002_Node000016" class="edge">
<title>Node2&#45;&gt;Node16</title>
<g id="a_edge23_Node000002_Node000016"><a xlink:title=" ">
<path fill="none" stroke="#63b8ff" d="M247.82,-93.79C270.07,-78.61 305.18,-56.08 338,-41 341.5,-39.39 345.12,-37.85 348.82,-36.36"/>
<polygon fill="#63b8ff" stroke="#63b8ff" points="349.82,-39.72 357.92,-32.89 347.33,-33.18 349.82,-39.72"/>
</a>
</g>
</g>
<!-- Node4 -->
<g id="Node000004" class="node">
<title>Node4</title>
<g id="a_Node000004"><a xlink:href="namespace_g_l_e_s_c_1_1_math.html#acd429163efe906cd22916cc75ccb2421" target="_top" xlink:title="Epsilon getter with precision of a given template type.">
<polygon fill="white" stroke="#666666" points="1241.88,-340 1128.38,-340 1128.38,-320 1241.88,-320 1241.88,-340"/>
<text text-anchor="middle" x="1185.12" y="-326.5" font-family="Helvetica,sans-Serif" font-size="10.00">GLESC::Math::epsilon</text>
</a>
</g>
</g>
<!-- Node3&#45;&gt;Node4 -->
<g id="edge3_Node000003_Node000004" class="edge">
<title>Node3&#45;&gt;Node4</title>
<g id="a_edge3_Node000003_Node000004"><a xlink:title=" ">
<path fill="none" stroke="#63b8ff" d="M1039.93,-316.36C1062.91,-318.53 1091.16,-321.2 1116.54,-323.61"/>
<polygon fill="#63b8ff" stroke="#63b8ff" points="1116.18,-327.09 1126.47,-324.54 1116.84,-320.12 1116.18,-327.09"/>
</a>
</g>
</g>
<!-- Node6 -->
<g id="Node000006" class="node">
<title>Node6</title>
<g id="a_Node000006"><a xlink:href="class_g_l_e_s_c_1_1_math_1_1_matrix_algorithms.html#a85f90015980f7ee665903d04b4b797d8" target="_top" xlink:title="Calculates the cofactor of a matrix element.">
<polygon fill="white" stroke="#666666" points="1263.25,-202 1107,-202 1107,-170 1263.25,-170 1263.25,-202"/>
<text text-anchor="start" x="1115" y="-188.5" font-family="Helvetica,sans-Serif" font-size="10.00">GLESC::Math::MatrixAlgorithms</text>
<text text-anchor="middle" x="1185.12" y="-176.5" font-family="Helvetica,sans-Serif" font-size="10.00">::cofactor</text>
</a>
</g>
</g>
<!-- Node5&#45;&gt;Node6 -->
<g id="edge5_Node000005_Node000006" class="edge">
<title>Node5&#45;&gt;Node6</title>
<g id="a_edge5_Node000005_Node000006"><a xlink:title=" ">
<path fill="none" stroke="#63b8ff" d="M1071.26,-182.92C1079.16,-182.57 1087.23,-182.29 1095.24,-182.07"/>
<polygon fill="#63b8ff" stroke="#63b8ff" points="1095.08,-185.57 1104.99,-181.84 1094.91,-178.57 1095.08,-185.57"/>
</a>
</g>
</g>
<!-- Node7 -->
<g id="Node000007" class="node">
<title>Node7</title>
<g id="a_Node000007"><a xlink:href="class_g_l_e_s_c_1_1_math_1_1_matrix_algorithms.html#abd516042cc3d928eefae413db0725670" target="_top" xlink:title="Calculates the determinant of a 2x2 matrix.">
<polygon fill="white" stroke="#666666" points="1263.25,-302 1107,-302 1107,-270 1263.25,-270 1263.25,-302"/>
<text text-anchor="start" x="1115" y="-288.5" font-family="Helvetica,sans-Serif" font-size="10.00">GLESC::Math::MatrixAlgorithms</text>
<text text-anchor="middle" x="1185.12" y="-276.5" font-family="Helvetica,sans-Serif" font-size="10.00">::determinant2x2</text>
</a>
</g>
</g>
<!-- Node5&#45;&gt;Node7 -->
<g id="edge7_Node000005_Node000007" class="edge">
<title>Node5&#45;&gt;Node7</title>
<g id="a_edge7_Node000005_Node000007"><a xlink:title=" ">
<path fill="none" stroke="#63b8ff" d="M1016.82,-208.21C1039.07,-223.39 1074.18,-245.92 1107,-261 1110.5,-262.61 1114.12,-264.15 1117.82,-265.64"/>
<polygon fill="#63b8ff" stroke="#63b8ff" points="1116.33,-268.82 1126.92,-269.11 1118.82,-262.28 1116.33,-268.82"/>
</a>
</g>
</g>
<!-- Node8 -->
<g id="Node000008" class="node">
<title>Node8</title>
<g id="a_Node000008"><a xlink:href="class_g_l_e_s_c_1_1_math_1_1_matrix_algorithms.html#a2217ee08c38b92c583d3f193b5a0da9b" target="_top" xlink:title="Computes the determinant of a matrix 3x3.">
<polygon fill="white" stroke="#666666" points="1263.25,-252 1107,-252 1107,-220 1263.25,-220 1263.25,-252"/>
<text text-anchor="start" x="1115" y="-238.5" font-family="Helvetica,sans-Serif" font-size="10.00">GLESC::Math::MatrixAlgorithms</text>
<text text-anchor="middle" x="1185.12" y="-226.5" font-family="Helvetica,sans-Serif" font-size="10.00">::determinant3x3</text>
</a>
</g>
</g>
<!-- Node5&#45;&gt;Node8 -->
<g id="edge8_Node000005_Node000008" class="edge">
<title>Node5&#45;&gt;Node8</title>
<g id="a_edge8_Node000005_Node000008"><a xlink:title=" ">
<path fill="none" stroke="#63b8ff" d="M1064.99,-208.45C1076.95,-211.21 1089.45,-214.1 1101.67,-216.93"/>
<polygon fill="#63b8ff" stroke="#63b8ff" points="1100.78,-220.32 1111.31,-219.16 1102.35,-213.5 1100.78,-220.32"/>
</a>
</g>
</g>
<!-- Node9 -->
<g id="Node000009" class="node">
<title>Node9</title>
<g id="a_Node000009"><a xlink:href="class_g_l_e_s_c_1_1_math_1_1_matrix_algorithms.html#a972ac9793d405d0a5daca41591c1fb8c" target="_top" xlink:title="Computes the determinant of a matrix 4x4.">
<polygon fill="white" stroke="#666666" points="1263.25,-152 1107,-152 1107,-120 1263.25,-120 1263.25,-152"/>
<text text-anchor="start" x="1115" y="-138.5" font-family="Helvetica,sans-Serif" font-size="10.00">GLESC::Math::MatrixAlgorithms</text>
<text text-anchor="middle" x="1185.12" y="-126.5" font-family="Helvetica,sans-Serif" font-size="10.00">::determinant4x4</text>
</a>
</g>
</g>
<!-- Node5&#45;&gt;Node9 -->
<g id="edge9_Node000005_Node000009" class="edge">
<title>Node5&#45;&gt;Node9</title>
<g id="a_edge9_Node000005_Node000009"><a xlink:title=" ">
<path fill="none" stroke="#63b8ff" d="M1049.93,-175.5C1071.02,-169.29 1095.23,-162.17 1117.21,-155.7"/>
<polygon fill="#63b8ff" stroke="#63b8ff" points="1118.09,-159.09 1126.69,-152.91 1116.11,-152.37 1118.09,-159.09"/>
</a>
</g>
</g>
<!-- Node6&#45;&gt;Node5 -->
<g id="edge6_Node000006_Node000005" class="edge">
<title>Node6&#45;&gt;Node5</title>
<g id="a_edge6_Node000006_Node000005"><a xlink:title=" ">
<path fill="none" stroke="#63b8ff" d="M1106.5,-195.1C1098.6,-195.44 1090.53,-195.72 1082.52,-195.94"/>
<polygon fill="#63b8ff" stroke="#63b8ff" points="1082.69,-192.44 1072.77,-196.17 1082.85,-199.43 1082.69,-192.44"/>
</a>
</g>
</g>
<!-- Node11 -->
<g id="Node000011" class="node">
<title>Node11</title>
<g id="a_Node000011"><a xlink:href="class_g_l_e_s_c_1_1_math_1_1_matrix_algorithms.html#aca5df3e27a085214d4d163ce91b38833" target="_top" xlink:title="Calculates the inverse of a 2x2 matrix.">
<polygon fill="white" stroke="#666666" points="686.5,-270 530.25,-270 530.25,-238 686.5,-238 686.5,-270"/>
<text text-anchor="start" x="538.25" y="-256.5" font-family="Helvetica,sans-Serif" font-size="10.00">GLESC::Math::MatrixAlgorithms</text>
<text text-anchor="middle" x="608.38" y="-244.5" font-family="Helvetica,sans-Serif" font-size="10.00">::inverse2x2</text>
</a>
</g>
</g>
<!-- Node10&#45;&gt;Node11 -->
<g id="edge11_Node000010_Node000011" class="edge">
<title>Node10&#45;&gt;Node11</title>
<g id="a_edge11_Node000010_Node000011"><a xlink:title=" ">
<path fill="none" stroke="#63b8ff" d="M451.9,-195.48C474.08,-205.71 503.57,-218.81 530.25,-229 534.61,-230.67 539.14,-232.32 543.72,-233.94"/>
<polygon fill="#63b8ff" stroke="#63b8ff" points="542.41,-237.19 553,-237.14 544.69,-230.57 542.41,-237.19"/>
</a>
</g>
</g>
<!-- Node13 -->
<g id="Node000013" class="node">
<title>Node13</title>
<g id="a_Node000013"><a xlink:href="class_g_l_e_s_c_1_1_math_1_1_matrix_algorithms.html#a363b6f5195daf678e5cbe3923d0e0cfc" target="_top" xlink:title="Calculates the inverse of a 3x3 matrix.">
<polygon fill="white" stroke="#666666" points="686.5,-220 530.25,-220 530.25,-188 686.5,-188 686.5,-220"/>
<text text-anchor="start" x="538.25" y="-206.5" font-family="Helvetica,sans-Serif" font-size="10.00">GLESC::Math::MatrixAlgorithms</text>
<text text-anchor="middle" x="608.38" y="-194.5" font-family="Helvetica,sans-Serif" font-size="10.00">::inverse3x3</text>
</a>
</g>
</g>
<!-- Node10&#45;&gt;Node13 -->
<g id="edge16_Node000010_Node000013" class="edge">
<title>Node10&#45;&gt;Node13</title>
<g id="a_edge16_Node000010_Node000013"><a xlink:title=" ">
<path fill="none" stroke="#63b8ff" d="M494.51,-189.17C502.41,-190.21 510.48,-191.27 518.49,-192.32"/>
<polygon fill="#63b8ff" stroke="#63b8ff" points="517.88,-195.77 528.25,-193.6 518.79,-188.83 517.88,-195.77"/>
</a>
</g>
</g>
<!-- Node14 -->
<g id="Node000014" class="node">
<title>Node14</title>
<g id="a_Node000014"><a xlink:href="class_g_l_e_s_c_1_1_math_1_1_matrix_algorithms.html#a1380aa1364ae38a37a7e710d20cf90ec" target="_top" xlink:title="Calculates the inverse of a 4x4 matrix.">
<polygon fill="white" stroke="#666666" points="686.5,-170 530.25,-170 530.25,-138 686.5,-138 686.5,-170"/>
<text text-anchor="start" x="538.25" y="-156.5" font-family="Helvetica,sans-Serif" font-size="10.00">GLESC::Math::MatrixAlgorithms</text>
<text text-anchor="middle" x="608.38" y="-144.5" font-family="Helvetica,sans-Serif" font-size="10.00">::inverse4x4</text>
</a>
</g>
</g>
<!-- Node10&#45;&gt;Node14 -->
<g id="edge19_Node000010_Node000014" class="edge">
<title>Node10&#45;&gt;Node14</title>
<g id="a_edge19_Node000010_Node000014"><a xlink:title=" ">
<path fill="none" stroke="#63b8ff" d="M494.51,-168.83C502.41,-167.79 510.48,-166.73 518.49,-165.68"/>
<polygon fill="#63b8ff" stroke="#63b8ff" points="518.79,-169.17 528.25,-164.4 517.88,-162.23 518.79,-169.17"/>
</a>
</g>
</g>
<!-- Node11&#45;&gt;Node7 -->
<g id="edge12_Node000011_Node000007" class="edge">
<title>Node11&#45;&gt;Node7</title>
<g id="a_edge12_Node000011_Node000007"><a xlink:title=" ">
<path fill="none" stroke="#63b8ff" d="M686.89,-258.32C793.24,-264.24 983.9,-274.85 1095.69,-281.08"/>
<polygon fill="#63b8ff" stroke="#63b8ff" points="1095.23,-284.56 1105.41,-281.62 1095.62,-277.57 1095.23,-284.56"/>
</a>
</g>
</g>
<!-- Node12 -->
<g id="Node000012" class="node">
<title>Node12</title>
<g id="a_Node000012"><a xlink:href="class_g_l_e_s_c_1_1_math_1_1_matrix_algorithms.html#a5d9d986d19eb1ff929b7c9c8f8cdbcdc" target="_top" xlink:title="Checks if a matrix is invertible.">
<polygon fill="white" stroke="#666666" points="878.75,-208 722.5,-208 722.5,-176 878.75,-176 878.75,-208"/>
<text text-anchor="start" x="730.5" y="-194.5" font-family="Helvetica,sans-Serif" font-size="10.00">GLESC::Math::MatrixAlgorithms</text>
<text text-anchor="middle" x="800.62" y="-182.5" font-family="Helvetica,sans-Serif" font-size="10.00">::isInvertible</text>
</a>
</g>
</g>
<!-- Node11&#45;&gt;Node12 -->
<g id="edge13_Node000011_Node000012" class="edge">
<title>Node11&#45;&gt;Node12</title>
<g id="a_edge13_Node000011_Node000012"><a xlink:title=" ">
<path fill="none" stroke="#63b8ff" d="M659.99,-237.61C668.83,-234.75 677.93,-231.79 686.5,-229 703.42,-223.49 721.77,-217.5 738.65,-211.97"/>
<polygon fill="#63b8ff" stroke="#63b8ff" points="739.66,-215.33 748.08,-208.89 737.48,-208.68 739.66,-215.33"/>
</a>
</g>
</g>
<!-- Node12&#45;&gt;Node3 -->
<g id="edge14_Node000012_Node000003" class="edge">
<title>Node12&#45;&gt;Node3</title>
<g id="a_edge14_Node000012_Node000003"><a xlink:title=" ">
<path fill="none" stroke="#63b8ff" d="M827.68,-208.43C864.05,-231.38 929.65,-272.75 965.95,-295.65"/>
<polygon fill="#63b8ff" stroke="#63b8ff" points="963.76,-298.4 974.08,-300.78 967.49,-292.48 963.76,-298.4"/>
</a>
</g>
</g>
<!-- Node12&#45;&gt;Node5 -->
<g id="edge15_Node000012_Node000005" class="edge">
<title>Node12&#45;&gt;Node5</title>
<g id="a_edge15_Node000012_Node000005"><a xlink:title=" ">
<path fill="none" stroke="#63b8ff" d="M879.01,-192C886.91,-192 894.98,-192 902.99,-192"/>
<polygon fill="#63b8ff" stroke="#63b8ff" points="902.74,-195.5 912.74,-192 902.74,-188.5 902.74,-195.5"/>
</a>
</g>
</g>
<!-- Node13&#45;&gt;Node8 -->
<g id="edge17_Node000013_Node000008" class="edge">
<title>Node13&#45;&gt;Node8</title>
<g id="a_edge17_Node000013_Node000008"><a xlink:title=" ">
<path fill="none" stroke="#63b8ff" d="M686.89,-213.67C698.8,-214.93 710.97,-216.1 722.5,-217 852.04,-227.1 1002.48,-232.02 1095.5,-234.28"/>
<polygon fill="#63b8ff" stroke="#63b8ff" points="1095.24,-237.77 1105.32,-234.51 1095.41,-230.78 1095.24,-237.77"/>
</a>
</g>
</g>
<!-- Node13&#45;&gt;Node12 -->
<g id="edge18_Node000013_Node000012" class="edge">
<title>Node13&#45;&gt;Node12</title>
<g id="a_edge18_Node000013_Node000012"><a xlink:title=" ">
<path fill="none" stroke="#63b8ff" d="M686.76,-199.12C694.66,-198.62 702.73,-198.11 710.74,-197.61"/>
<polygon fill="#63b8ff" stroke="#63b8ff" points="710.73,-201.11 720.49,-196.99 710.29,-194.13 710.73,-201.11"/>
</a>
</g>
</g>
<!-- Node14&#45;&gt;Node9 -->
<g id="edge20_Node000014_Node000009" class="edge">
<title>Node14&#45;&gt;Node9</title>
<g id="a_edge20_Node000014_Node000009"><a xlink:title=" ">
<path fill="none" stroke="#63b8ff" d="M686.89,-151.57C793.24,-148.24 983.9,-142.27 1095.69,-138.77"/>
<polygon fill="#63b8ff" stroke="#63b8ff" points="1095.53,-142.28 1105.41,-138.47 1095.31,-135.28 1095.53,-142.28"/>
</a>
</g>
</g>
<!-- Node14&#45;&gt;Node12 -->
<g id="edge21_Node000014_Node000012" class="edge">
<title>Node14&#45;&gt;Node12</title>
<g id="a_edge21_Node000014_Node000012"><a xlink:title=" ">
<path fill="none" stroke="#63b8ff" d="M686.76,-169.46C694.66,-171.03 702.73,-172.65 710.74,-174.25"/>
<polygon fill="#63b8ff" stroke="#63b8ff" points="710.03,-177.67 720.52,-176.2 711.4,-170.81 710.03,-177.67"/>
</a>
</g>
</g>
</g>
</svg>

<g id="navigator" transform="translate(0 0)" fill="#404254">
  <rect fill="#f2f5e9" fill-opacity="0.5" stroke="#606060" stroke-width=".5" x="0" y="0" width="60" height="60"/>
  <use id="zoomplus" xlink:href="#zoomPlus" x="17" y="9" onmousedown="handleZoom(evt,'in')"/>
  <use id="zoomminus" xlink:href="#zoomMin" x="42" y="9" onmousedown="handleZoom(evt,'out')"/>
  <use id="reset" xlink:href="#resetDef" x="30" y="36" onmousedown="handleReset()"/>
   <use id="arrowup" xlink:href="#arrowUp" x="0" y="0" onmousedown="handlePan(0,-1)"/>
  <use id="arrowright" xlink:href="#arrowRight" x="0" y="0" onmousedown="handlePan(1,0)"/>
  <use id="arrowdown" xlink:href="#arrowDown" x="0" y="0" onmousedown="handlePan(0,1)"/>
  <use id="arrowleft" xlink:href="#arrowLeft" x="0" y="0" onmousedown="handlePan(-1,0)"/>
</g>
<svg viewBox="0 0 15 15" width="100%" height="30px" preserveAspectRatio="xMaxYMin meet">
 <g id="arrow_out" transform="scale(0.3 0.3)">
  <a xlink:href="class_g_l_e_s_c_1_1_math_1_1_matrix_ae49bdfe2f706c9c73080948a9faa8114_cgraph_org.svg" target="_base">
   <rect id="button" ry="5" rx="5" y="6" x="6" height="38" width="38"
        fill="#f2f5e9" fill-opacity="0.5" stroke="#606060" stroke-width="1.0"/>
   <path id="arrow"
     d="M 11.500037,31.436501 C 11.940474,20.09759 22.043105,11.32322 32.158766,21.979434 L 37.068811,17.246167 C 37.068811,17.246167 37.088388,32 37.088388,32 L 22.160133,31.978069 C 22.160133,31.978069 26.997745,27.140456 26.997745,27.140456 C 18.528582,18.264221 13.291696,25.230495 11.500037,31.436501 z"
     style="fill:#404040;"/>
  </a>
 </g>
</svg>

<style type='text/css'>
<![CDATA[
[data-mouse-over-selected='false'] { opacity: 0.7; }
[data-mouse-over-selected='true']  { opacity: 1.0; }
]]>
</style>
<script type="application/ecmascript"><![CDATA[
document.addEventListener('DOMContentLoaded', (event) => {
  highlightEdges();
  highlightAdjacentNodes();
});
]]></script>
</svg>
