<?xml version="1.0" encoding="UTF-8" standalone="no"?>
<!DOCTYPE svg PUBLIC "-//W3C//DTD SVG 1.1//EN"
 "http://www.w3.org/Graphics/SVG/1.1/DTD/svg11.dtd">
<!-- Generated by graphviz version 11.0.0 (20240428.1522)
 -->
<!-- Title: GLESC::Math::VectorAlgorithms::sum Pages: 1 -->
<svg width="543pt" height="170pt"
 viewBox="0.00 0.00 542.75 170.00" xmlns="http://www.w3.org/2000/svg" xmlns:xlink="http://www.w3.org/1999/xlink">
<g id="graph0" class="graph" transform="scale(1 1) rotate(0) translate(4 166)">
<title>GLESC::Math::VectorAlgorithms::sum</title>
<!-- Node1 -->
<g id="Node000001" class="node">
<title>Node1</title>
<g id="a_Node000001"><a xlink:title="Computes the sum of all elements inside the vector.">
<polygon fill="#999999" stroke="#666666" points="534.75,-77 352.25,-77 352.25,-57 534.75,-57 534.75,-77"/>
<text text-anchor="middle" x="443.5" y="-63.5" font-family="Helvetica,sans-Serif" font-size="10.00">GLESC::Math::VectorAlgorithms::sum</text>
</a>
</g>
</g>
<!-- Node2 -->
<g id="Node000002" class="node">
<title>Node2</title>
<g id="a_Node000002"><a xlink:href="class_g_l_e_s_c_1_1_math_1_1_vector_algorithms.html#a53f1393d2d3db49287176da36e25541b" target="_top" xlink:title=" ">
<polygon fill="white" stroke="#666666" points="316.25,-134 147.25,-134 147.25,-114 316.25,-114 316.25,-134"/>
<text text-anchor="middle" x="231.75" y="-120.5" font-family="Helvetica,sans-Serif" font-size="10.00">GLESC::Math::VectorAlgorithms::lt</text>
</a>
</g>
</g>
<!-- Node1&#45;&gt;Node2 -->
<g id="edge1_Node000001_Node000002" class="edge">
<title>Node1&#45;&gt;Node2</title>
<g id="a_edge1_Node000001_Node000002"><a xlink:title=" ">
<path fill="none" stroke="#63b8ff" d="M398.99,-80.9C374.75,-88.44 343.95,-97.69 316.25,-105 305.04,-107.96 292.91,-110.88 281.46,-113.51"/>
<polygon fill="#63b8ff" stroke="#63b8ff" points="400.04,-84.24 408.53,-77.91 397.94,-77.56 400.04,-84.24"/>
</a>
</g>
</g>
<!-- Node5 -->
<g id="Node000005" class="node">
<title>Node5</title>
<g id="a_Node000005"><a xlink:href="class_g_l_e_s_c_1_1_math_1_1_vector.html#acc41dd048f8366466f9814b39dd1958a" target="_top" xlink:title="Returns the sum of all the elements in the vector.">
<polygon fill="white" stroke="#666666" points="299.75,-96 163.75,-96 163.75,-76 299.75,-76 299.75,-96"/>
<text text-anchor="middle" x="231.75" y="-82.5" font-family="Helvetica,sans-Serif" font-size="10.00">GLESC::Math::Vector::sum</text>
</a>
</g>
</g>
<!-- Node1&#45;&gt;Node5 -->
<g id="edge4_Node000001_Node000005" class="edge">
<title>Node1&#45;&gt;Node5</title>
<g id="a_edge4_Node000001_Node000005"><a xlink:title=" ">
<path fill="none" stroke="#63b8ff" d="M340.96,-76.2C327.11,-77.45 313.19,-78.71 300.15,-79.89"/>
<polygon fill="#63b8ff" stroke="#63b8ff" points="340.87,-79.72 350.52,-75.33 340.24,-72.75 340.87,-79.72"/>
</a>
</g>
</g>
<!-- Node6 -->
<g id="Node000006" class="node">
<title>Node6</title>
<g id="a_Node000006"><a xlink:href="_vector_algorithms_tests_8cpp.html#a821458bc0c911fa232ef9c24c7c94572" target="_top" xlink:title=" ">
<polygon fill="white" stroke="#666666" points="270.5,-58 193,-58 193,-38 270.5,-38 270.5,-58"/>
<text text-anchor="middle" x="231.75" y="-44.5" font-family="Helvetica,sans-Serif" font-size="10.00">TYPED_TEST</text>
</a>
</g>
</g>
<!-- Node1&#45;&gt;Node6 -->
<g id="edge5_Node000001_Node000006" class="edge">
<title>Node1&#45;&gt;Node6</title>
<g id="a_edge5_Node000001_Node000006"><a xlink:title=" ">
<path fill="none" stroke="#63b8ff" d="M340.62,-57.77C315.7,-55.51 290.57,-53.24 270.83,-51.45"/>
<polygon fill="#63b8ff" stroke="#63b8ff" points="340.24,-61.25 350.52,-58.67 340.87,-54.28 340.24,-61.25"/>
</a>
</g>
</g>
<!-- Node7 -->
<g id="Node000007" class="node">
<title>Node7</title>
<g id="a_Node000007"><a xlink:href="_vector_tests_8cpp.html#a136d75f85d9ef42686d788cfbb0471bd" target="_top" xlink:title=" ">
<polygon fill="white" stroke="#666666" points="270.5,-20 193,-20 193,0 270.5,0 270.5,-20"/>
<text text-anchor="middle" x="231.75" y="-6.5" font-family="Helvetica,sans-Serif" font-size="10.00">TYPED_TEST</text>
</a>
</g>
</g>
<!-- Node1&#45;&gt;Node7 -->
<g id="edge6_Node000001_Node000007" class="edge">
<title>Node1&#45;&gt;Node7</title>
<g id="a_edge6_Node000001_Node000007"><a xlink:title=" ">
<path fill="none" stroke="#63b8ff" d="M398.99,-53.1C374.75,-45.56 343.95,-36.31 316.25,-29 301.44,-25.09 285.04,-21.25 270.71,-18.06"/>
<polygon fill="#63b8ff" stroke="#63b8ff" points="397.94,-56.44 408.53,-56.09 400.04,-49.76 397.94,-56.44"/>
</a>
</g>
</g>
<!-- Node3 -->
<g id="Node000003" class="node">
<title>Node3</title>
<g id="a_Node000003"><a xlink:href="class_g_l_e_s_c_1_1_math_1_1_vector.html#a75ce89b190266e357ff98786bfae8d15" target="_top" xlink:title="Less than operator for vectors.">
<polygon fill="white" stroke="#666666" points="111.25,-162 0,-162 0,-130 111.25,-130 111.25,-162"/>
<text text-anchor="start" x="8" y="-148.5" font-family="Helvetica,sans-Serif" font-size="10.00">GLESC::Math::Vector</text>
<text text-anchor="middle" x="55.62" y="-136.5" font-family="Helvetica,sans-Serif" font-size="10.00">::operator&lt;</text>
</a>
</g>
</g>
<!-- Node2&#45;&gt;Node3 -->
<g id="edge2_Node000002_Node000003" class="edge">
<title>Node2&#45;&gt;Node3</title>
<g id="a_edge2_Node000002_Node000003"><a xlink:title=" ">
<path fill="none" stroke="#63b8ff" d="M136.56,-135.9C128.05,-136.98 119.63,-138.04 111.63,-139.05"/>
<polygon fill="#63b8ff" stroke="#63b8ff" points="136.78,-139.4 146.27,-134.67 135.91,-132.46 136.78,-139.4"/>
</a>
</g>
</g>
<!-- Node4 -->
<g id="Node000004" class="node">
<title>Node4</title>
<g id="a_Node000004"><a xlink:href="_vector_algorithms_tests_8cpp.html#a4337998b0f7143c61a6ef73b12dca124" target="_top" xlink:title=" ">
<polygon fill="white" stroke="#666666" points="94.38,-112 16.88,-112 16.88,-92 94.38,-92 94.38,-112"/>
<text text-anchor="middle" x="55.62" y="-98.5" font-family="Helvetica,sans-Serif" font-size="10.00">TYPED_TEST</text>
</a>
</g>
</g>
<!-- Node2&#45;&gt;Node4 -->
<g id="edge3_Node000002_Node000004" class="edge">
<title>Node2&#45;&gt;Node4</title>
<g id="a_edge3_Node000002_Node000004"><a xlink:title=" ">
<path fill="none" stroke="#63b8ff" d="M136.45,-112.09C121.68,-110.22 107.2,-108.39 94.7,-106.81"/>
<polygon fill="#63b8ff" stroke="#63b8ff" points="135.91,-115.54 146.27,-113.33 136.78,-108.6 135.91,-115.54"/>
</a>
</g>
</g>
</g>
</svg>
