<?xml version="1.0" encoding="UTF-8" standalone="no"?>
<!DOCTYPE svg PUBLIC "-//W3C//DTD SVG 1.1//EN"
 "http://www.w3.org/Graphics/SVG/1.1/DTD/svg11.dtd">
<!-- Generated by graphviz version 11.0.0 (20240428.1522)
 -->
<!-- Title: GLESC::Math::MatrixAlgorithms::setMatrixDiagonal Pages: 1 -->
<svg width="1109pt" height="456pt"
 viewBox="0.00 0.00 1109.25 456.00" xmlns="http://www.w3.org/2000/svg" xmlns:xlink="http://www.w3.org/1999/xlink">
<g id="graph0" class="graph" transform="scale(1 1) rotate(0) translate(4 452)">
<title>GLESC::Math::MatrixAlgorithms::setMatrixDiagonal</title>
<!-- Node1 -->
<g id="Node000001" class="node">
<title>Node1</title>
<g id="a_Node000001"><a xlink:title="Sets the diagonal of a matrix to a specific value.">
<polygon fill="#999999" stroke="#666666" points="1101.25,-228 945,-228 945,-196 1101.25,-196 1101.25,-228"/>
<text text-anchor="start" x="953" y="-214.5" font-family="Helvetica,sans-Serif" font-size="10.00">GLESC::Math::MatrixAlgorithms</text>
<text text-anchor="middle" x="1023.12" y="-202.5" font-family="Helvetica,sans-Serif" font-size="10.00">::setMatrixDiagonal</text>
</a>
</g>
</g>
<!-- Node2 -->
<g id="Node000002" class="node">
<title>Node2</title>
<g id="a_Node000002"><a xlink:href="class_g_l_e_s_c_1_1_math_1_1_matrix.html#a98282e3bf49b98a2f7da36821c4f9a2a" target="_top" xlink:title="Constructs a matrix with the diagonal elements set to the given value.">
<polygon fill="white" stroke="#666666" points="885.75,-448 776,-448 776,-416 885.75,-416 885.75,-448"/>
<text text-anchor="start" x="784" y="-434.5" font-family="Helvetica,sans-Serif" font-size="10.00">GLESC::Math::Matrix</text>
<text text-anchor="middle" x="830.88" y="-422.5" font-family="Helvetica,sans-Serif" font-size="10.00">::Matrix</text>
</a>
</g>
</g>
<!-- Node1&#45;&gt;Node2 -->
<g id="edge1_Node000001_Node000002" class="edge">
<title>Node1&#45;&gt;Node2</title>
<g id="a_edge1_Node000001_Node000002"><a xlink:title=" ">
<path fill="none" stroke="#63b8ff" d="M1013.54,-239.05C998.86,-281.05 964.95,-361.82 909,-407 902.21,-412.48 894.19,-416.78 885.92,-420.13"/>
<polygon fill="#63b8ff" stroke="#63b8ff" points="1016.81,-240.32 1016.69,-229.72 1010.18,-238.08 1016.81,-240.32"/>
</a>
</g>
</g>
<!-- Node3 -->
<g id="Node000003" class="node">
<title>Node3</title>
<g id="a_Node000003"><a xlink:href="class_g_l_e_s_c_1_1_math_1_1_matrix_mixed_algorithms.html#a485f02d22191da3635105401351ec519" target="_top" xlink:title="Calculate the model matrix from the position, rotation, and scale.">
<polygon fill="white" stroke="#666666" points="716.75,-354 556,-354 556,-322 716.75,-322 716.75,-354"/>
<text text-anchor="start" x="564" y="-340.5" font-family="Helvetica,sans-Serif" font-size="10.00">GLESC::Math::MatrixMixed</text>
<text text-anchor="middle" x="636.38" y="-328.5" font-family="Helvetica,sans-Serif" font-size="10.00">Algorithms::calculateModelMatrix</text>
</a>
</g>
</g>
<!-- Node1&#45;&gt;Node3 -->
<g id="edge2_Node000001_Node000003" class="edge">
<title>Node1&#45;&gt;Node3</title>
<g id="a_edge2_Node000001_Node000003"><a xlink:title=" ">
<path fill="none" stroke="#63b8ff" d="M998.99,-236.41C977.7,-257.23 944.18,-286.08 909,-301 847.87,-326.91 772.71,-335.57 716.96,-338.09"/>
<polygon fill="#63b8ff" stroke="#63b8ff" points="1001.41,-238.94 1005.99,-229.39 996.45,-234 1001.41,-238.94"/>
</a>
</g>
</g>
<!-- Node6 -->
<g id="Node000006" class="node">
<title>Node6</title>
<g id="a_Node000006"><a xlink:href="class_g_l_e_s_c_1_1_math_1_1_matrix_mixed_algorithms.html#a67bdda15ead970e5074845bdf3fcf085" target="_top" xlink:title=" ">
<polygon fill="white" stroke="#666666" points="714.12,-299 558.62,-299 558.62,-255 714.12,-255 714.12,-299"/>
<text text-anchor="start" x="566.62" y="-285.5" font-family="Helvetica,sans-Serif" font-size="10.00">GLESC::Math::MatrixMixed</text>
<text text-anchor="start" x="566.62" y="-273.5" font-family="Helvetica,sans-Serif" font-size="10.00">Algorithms::calculateViewMatrix</text>
<text text-anchor="middle" x="636.38" y="-261.5" font-family="Helvetica,sans-Serif" font-size="10.00">PosRot</text>
</a>
</g>
</g>
<!-- Node1&#45;&gt;Node6 -->
<g id="edge5_Node000001_Node000006" class="edge">
<title>Node1&#45;&gt;Node6</title>
<g id="a_edge5_Node000001_Node000006"><a xlink:title=" ">
<path fill="none" stroke="#63b8ff" d="M993.91,-235.31C972.2,-251.66 940.64,-272.11 909,-281 845.21,-298.92 769.62,-295.97 714.4,-289.65"/>
<polygon fill="#63b8ff" stroke="#63b8ff" points="995.91,-238.19 1001.67,-229.3 991.62,-232.66 995.91,-238.19"/>
</a>
</g>
</g>
<!-- Node13 -->
<g id="Node000013" class="node">
<title>Node13</title>
<g id="a_Node000013"><a xlink:href="class_g_l_e_s_c_1_1_math_1_1_matrix_algorithms.html#ae35d1a5907e775efb15cc5d6a4fd015e" target="_top" xlink:title="Performs Gaussian elimination on a matrix. @TODO: Make this work (doesn&#39;t work for some reason)">
<polygon fill="white" stroke="#666666" points="909,-184 752.75,-184 752.75,-152 909,-152 909,-184"/>
<text text-anchor="start" x="760.75" y="-170.5" font-family="Helvetica,sans-Serif" font-size="10.00">GLESC::Math::MatrixAlgorithms</text>
<text text-anchor="middle" x="830.88" y="-158.5" font-family="Helvetica,sans-Serif" font-size="10.00">::gaussianElimination</text>
</a>
</g>
</g>
<!-- Node1&#45;&gt;Node13 -->
<g id="edge13_Node000001_Node000013" class="edge">
<title>Node1&#45;&gt;Node13</title>
<g id="a_edge13_Node000001_Node000013"><a xlink:title=" ">
<path fill="none" stroke="#63b8ff" d="M939.9,-192.98C927.69,-190.16 915.18,-187.27 903.22,-184.5"/>
<polygon fill="#63b8ff" stroke="#63b8ff" points="939.01,-196.37 949.54,-195.21 940.58,-189.55 939.01,-196.37"/>
</a>
</g>
</g>
<!-- Node15 -->
<g id="Node000015" class="node">
<title>Node15</title>
<g id="a_Node000015"><a xlink:href="class_g_l_e_s_c_1_1_math_1_1_matrix_mixed_algorithms.html#af2edbd12a5a8a4f225c1a811285d6414" target="_top" xlink:title="Calculate the 3D rotation matrix from the rotation angles around the X, Y, and Z axes.">
<polygon fill="white" stroke="#666666" points="905.62,-398 756.12,-398 756.12,-366 905.62,-366 905.62,-398"/>
<text text-anchor="start" x="764.12" y="-384.5" font-family="Helvetica,sans-Serif" font-size="10.00">GLESC::Math::MatrixMixed</text>
<text text-anchor="middle" x="830.88" y="-372.5" font-family="Helvetica,sans-Serif" font-size="10.00">Algorithms::getRotate3DMatrix</text>
</a>
</g>
</g>
<!-- Node1&#45;&gt;Node15 -->
<g id="edge15_Node000001_Node000015" class="edge">
<title>Node1&#45;&gt;Node15</title>
<g id="a_edge15_Node000001_Node000015"><a xlink:title=" ">
<path fill="none" stroke="#63b8ff" d="M1007.16,-237.79C988,-268.78 952.07,-320.53 909,-352 901.69,-357.34 893.31,-361.87 884.83,-365.66"/>
<polygon fill="#63b8ff" stroke="#63b8ff" points="1010.04,-239.8 1012.22,-229.43 1004.05,-236.17 1010.04,-239.8"/>
</a>
</g>
</g>
<!-- Node17 -->
<g id="Node000017" class="node">
<title>Node17</title>
<g id="a_Node000017"><a xlink:href="class_g_l_e_s_c_1_1_math_1_1_matrix_algorithms.html#a0366e789adbfca31ea7a2bd82c77d676" target="_top" xlink:title="Applies the translation to a model matrix.">
<polygon fill="white" stroke="#666666" points="909,-272 752.75,-272 752.75,-240 909,-240 909,-272"/>
<text text-anchor="start" x="760.75" y="-258.5" font-family="Helvetica,sans-Serif" font-size="10.00">GLESC::Math::MatrixAlgorithms</text>
<text text-anchor="middle" x="830.88" y="-246.5" font-family="Helvetica,sans-Serif" font-size="10.00">::getTranslationMatrix</text>
</a>
</g>
</g>
<!-- Node1&#45;&gt;Node17 -->
<g id="edge18_Node000001_Node000017" class="edge">
<title>Node1&#45;&gt;Node17</title>
<g id="a_edge18_Node000001_Node000017"><a xlink:title=" ">
<path fill="none" stroke="#63b8ff" d="M939.9,-231.02C927.69,-233.84 915.18,-236.73 903.22,-239.5"/>
<polygon fill="#63b8ff" stroke="#63b8ff" points="940.58,-234.45 949.54,-228.79 939.01,-227.63 940.58,-234.45"/>
</a>
</g>
</g>
<!-- Node18 -->
<g id="Node000018" class="node">
<title>Node18</title>
<g id="a_Node000018"><a xlink:href="_matrix_algorithms_tests_8cpp.html#acb45b3fff90a9895bfa5e4c1157cf0af" target="_top" xlink:title=" ">
<polygon fill="white" stroke="#666666" points="656.38,-232 616.38,-232 616.38,-212 656.38,-212 656.38,-232"/>
<text text-anchor="middle" x="636.38" y="-218.5" font-family="Helvetica,sans-Serif" font-size="10.00">TEST</text>
</a>
</g>
</g>
<!-- Node1&#45;&gt;Node18 -->
<g id="edge23_Node000001_Node000018" class="edge">
<title>Node1&#45;&gt;Node18</title>
<g id="a_edge23_Node000001_Node000018"><a xlink:title=" ">
<path fill="none" stroke="#63b8ff" d="M933.29,-214.31C842.15,-216.68 706.86,-220.19 656.86,-221.49"/>
<polygon fill="#63b8ff" stroke="#63b8ff" points="933.31,-217.81 943.21,-214.05 933.13,-210.81 933.31,-217.81"/>
</a>
</g>
</g>
<!-- Node19 -->
<g id="Node000019" class="node">
<title>Node19</title>
<g id="a_Node000019"><a xlink:href="_matrix_algorithms_tests_8cpp.html#aef08c13a8d3209316dac3581de4a7be0" target="_top" xlink:title=" ">
<polygon fill="white" stroke="#666666" points="850.88,-134 810.88,-134 810.88,-114 850.88,-114 850.88,-134"/>
<text text-anchor="middle" x="830.88" y="-120.5" font-family="Helvetica,sans-Serif" font-size="10.00">TEST</text>
</a>
</g>
</g>
<!-- Node1&#45;&gt;Node19 -->
<g id="edge22_Node000001_Node000019" class="edge">
<title>Node1&#45;&gt;Node19</title>
<g id="a_edge22_Node000001_Node000019"><a xlink:title=" ">
<path fill="none" stroke="#63b8ff" d="M990.39,-188.99C968.45,-174.03 938.1,-155.12 909,-143 890.03,-135.1 867.02,-129.96 851.09,-127.04"/>
<polygon fill="#63b8ff" stroke="#63b8ff" points="988.38,-191.86 998.59,-194.69 992.37,-186.11 988.38,-191.86"/>
</a>
</g>
</g>
<!-- Node20 -->
<g id="Node000020" class="node">
<title>Node20</title>
<g id="a_Node000020"><a xlink:href="_matrix_algorithms_tests_8cpp.html#a9b53cd3c81f5135321e61bd53ba40dd3" target="_top" xlink:title=" ">
<polygon fill="white" stroke="#666666" points="869.62,-96 792.12,-96 792.12,-76 869.62,-76 869.62,-96"/>
<text text-anchor="middle" x="830.88" y="-82.5" font-family="Helvetica,sans-Serif" font-size="10.00">TYPED_TEST</text>
</a>
</g>
</g>
<!-- Node1&#45;&gt;Node20 -->
<g id="edge24_Node000001_Node000020" class="edge">
<title>Node1&#45;&gt;Node20</title>
<g id="a_edge24_Node000001_Node000020"><a xlink:title=" ">
<path fill="none" stroke="#63b8ff" d="M1002.54,-187.11C981.88,-162.56 947.09,-125.78 909,-105 897.02,-98.46 882.77,-94.14 869.8,-91.29"/>
<polygon fill="#63b8ff" stroke="#63b8ff" points="999.73,-189.2 1008.78,-194.7 1005.13,-184.75 999.73,-189.2"/>
</a>
</g>
</g>
<!-- Node21 -->
<g id="Node000021" class="node">
<title>Node21</title>
<g id="a_Node000021"><a xlink:href="_matrix_algorithms_tests_8cpp.html#accd94a8ec5d99793941f30eca20447c7" target="_top" xlink:title=" ">
<polygon fill="white" stroke="#666666" points="869.62,-58 792.12,-58 792.12,-38 869.62,-38 869.62,-58"/>
<text text-anchor="middle" x="830.88" y="-44.5" font-family="Helvetica,sans-Serif" font-size="10.00">TYPED_TEST</text>
</a>
</g>
</g>
<!-- Node1&#45;&gt;Node21 -->
<g id="edge25_Node000001_Node000021" class="edge">
<title>Node1&#45;&gt;Node21</title>
<g id="a_edge25_Node000001_Node000021"><a xlink:title=" ">
<path fill="none" stroke="#63b8ff" d="M1008.86,-185.77C990.82,-152.86 955.42,-97.08 909,-67 897.43,-59.5 883.13,-54.96 870,-52.21"/>
<polygon fill="#63b8ff" stroke="#63b8ff" points="1005.59,-187.08 1013.38,-194.26 1011.77,-183.79 1005.59,-187.08"/>
</a>
</g>
</g>
<!-- Node22 -->
<g id="Node000022" class="node">
<title>Node22</title>
<g id="a_Node000022"><a xlink:href="_matrix_tests_8cpp.html#a84c35652c01b9f9ab79fd81dadddc51f" target="_top" xlink:title=" ">
<polygon fill="white" stroke="#666666" points="869.62,-20 792.12,-20 792.12,0 869.62,0 869.62,-20"/>
<text text-anchor="middle" x="830.88" y="-6.5" font-family="Helvetica,sans-Serif" font-size="10.00">TYPED_TEST</text>
</a>
</g>
</g>
<!-- Node1&#45;&gt;Node22 -->
<g id="edge26_Node000001_Node000022" class="edge">
<title>Node1&#45;&gt;Node22</title>
<g id="a_edge26_Node000001_Node000022"><a xlink:title=" ">
<path fill="none" stroke="#63b8ff" d="M1013,-184.97C997.94,-144.6 963.95,-69.01 909,-29 897.74,-20.8 883.36,-16.12 870.07,-13.45"/>
<polygon fill="#63b8ff" stroke="#63b8ff" points="1009.63,-185.96 1016.32,-194.18 1016.22,-183.58 1009.63,-185.96"/>
</a>
</g>
</g>
<!-- Node4 -->
<g id="Node000004" class="node">
<title>Node4</title>
<g id="a_Node000004"><a xlink:href="_matrix_algorithms_tests_8cpp.html#a6aae9903e037afac8518c1fcde662e2c" target="_top" xlink:title=" ">
<polygon fill="white" stroke="#666666" points="476.88,-369 436.88,-369 436.88,-349 476.88,-349 476.88,-369"/>
<text text-anchor="middle" x="456.88" y="-355.5" font-family="Helvetica,sans-Serif" font-size="10.00">TEST</text>
</a>
</g>
</g>
<!-- Node3&#45;&gt;Node4 -->
<g id="edge3_Node000003_Node000004" class="edge">
<title>Node3&#45;&gt;Node4</title>
<g id="a_edge3_Node000003_Node000004"><a xlink:title=" ">
<path fill="none" stroke="#63b8ff" d="M544.41,-348.76C518.93,-351.78 493.69,-354.76 477.11,-356.72"/>
<polygon fill="#63b8ff" stroke="#63b8ff" points="544.69,-352.25 554.21,-347.6 543.87,-345.3 544.69,-352.25"/>
</a>
</g>
</g>
<!-- Node5 -->
<g id="Node000005" class="node">
<title>Node5</title>
<g id="a_Node000005"><a xlink:href="_matrix_algorithms_tests_8cpp.html#ab325b7f490c714128caeb4bc7ea5cb8c" target="_top" xlink:title=" ">
<polygon fill="white" stroke="#666666" points="476.88,-331 436.88,-331 436.88,-311 476.88,-311 476.88,-331"/>
<text text-anchor="middle" x="456.88" y="-317.5" font-family="Helvetica,sans-Serif" font-size="10.00">TEST</text>
</a>
</g>
</g>
<!-- Node3&#45;&gt;Node5 -->
<g id="edge4_Node000003_Node000005" class="edge">
<title>Node3&#45;&gt;Node5</title>
<g id="a_edge4_Node000003_Node000005"><a xlink:title=" ">
<path fill="none" stroke="#63b8ff" d="M544.41,-329.29C518.93,-326.85 493.69,-324.43 477.11,-322.84"/>
<polygon fill="#63b8ff" stroke="#63b8ff" points="543.92,-332.76 554.2,-330.23 544.58,-325.79 543.92,-332.76"/>
</a>
</g>
</g>
<!-- Node6&#45;&gt;Node5 -->
<g id="edge11_Node000006_Node000005" class="edge">
<title>Node6&#45;&gt;Node5</title>
<g id="a_edge11_Node000006_Node000005"><a xlink:title=" ">
<path fill="none" stroke="#63b8ff" d="M547.36,-298.82C520.85,-305.39 494.24,-311.99 477.02,-316.25"/>
<polygon fill="#63b8ff" stroke="#63b8ff" points="547.96,-302.27 556.83,-296.47 546.28,-295.48 547.96,-302.27"/>
</a>
</g>
</g>
<!-- Node7 -->
<g id="Node000007" class="node">
<title>Node7</title>
<g id="a_Node000007"><a xlink:href="class_g_l_e_s_c_1_1_math_1_1_matrix.html#a3c0812b3a24431dfc5bc68f394910d61" target="_top" xlink:title="Creates a view matrix from the given position and rotation vectors.">
<polygon fill="white" stroke="#666666" points="520,-293 393.75,-293 393.75,-261 520,-261 520,-293"/>
<text text-anchor="start" x="401.75" y="-279.5" font-family="Helvetica,sans-Serif" font-size="10.00">GLESC::Math::Matrix</text>
<text text-anchor="middle" x="456.88" y="-267.5" font-family="Helvetica,sans-Serif" font-size="10.00">::makeViewMatrixPosRot</text>
</a>
</g>
</g>
<!-- Node6&#45;&gt;Node7 -->
<g id="edge6_Node000006_Node000007" class="edge">
<title>Node6&#45;&gt;Node7</title>
<g id="a_edge6_Node000006_Node000007"><a xlink:title=" ">
<path fill="none" stroke="#63b8ff" d="M546.99,-277C538.04,-277 529.08,-277 520.49,-277"/>
<polygon fill="#63b8ff" stroke="#63b8ff" points="546.78,-280.5 556.78,-277 546.78,-273.5 546.78,-280.5"/>
</a>
</g>
</g>
<!-- Node12 -->
<g id="Node000012" class="node">
<title>Node12</title>
<g id="a_Node000012"><a xlink:href="_matrix_algorithms_tests_8cpp.html#a1b773a136d3c4948612da70d8d74b348" target="_top" xlink:title=" ">
<polygon fill="white" stroke="#666666" points="476.88,-243 436.88,-243 436.88,-223 476.88,-223 476.88,-243"/>
<text text-anchor="middle" x="456.88" y="-229.5" font-family="Helvetica,sans-Serif" font-size="10.00">TEST</text>
</a>
</g>
</g>
<!-- Node6&#45;&gt;Node12 -->
<g id="edge12_Node000006_Node000012" class="edge">
<title>Node6&#45;&gt;Node12</title>
<g id="a_edge12_Node000006_Node000012"><a xlink:title=" ">
<path fill="none" stroke="#63b8ff" d="M547.36,-255.18C520.85,-248.61 494.24,-242.01 477.02,-237.75"/>
<polygon fill="#63b8ff" stroke="#63b8ff" points="546.28,-258.52 556.83,-257.53 547.96,-251.73 546.28,-258.52"/>
</a>
</g>
</g>
<!-- Node8 -->
<g id="Node000008" class="node">
<title>Node8</title>
<g id="a_Node000008"><a xlink:href="class_g_l_e_s_c_1_1_render_1_1_renderer.html#aaa4f270fc41e2f2a1f9ce7b979376eb1" target="_top" xlink:title="Static method that creates the view matrix from a transform (transform of the camera)">
<polygon fill="white" stroke="#666666" points="357.75,-318 227,-318 227,-286 357.75,-286 357.75,-318"/>
<text text-anchor="start" x="235" y="-304.5" font-family="Helvetica,sans-Serif" font-size="10.00">GLESC::Render::Renderer</text>
<text text-anchor="middle" x="292.38" y="-292.5" font-family="Helvetica,sans-Serif" font-size="10.00">::createViewMatrix</text>
</a>
</g>
</g>
<!-- Node7&#45;&gt;Node8 -->
<g id="edge7_Node000007_Node000008" class="edge">
<title>Node7&#45;&gt;Node8</title>
<g id="a_edge7_Node000007_Node000008"><a xlink:title=" ">
<path fill="none" stroke="#63b8ff" d="M382.2,-288.34C374.12,-289.58 365.95,-290.84 357.99,-292.06"/>
<polygon fill="#63b8ff" stroke="#63b8ff" points="382.67,-291.8 392.02,-286.82 381.6,-284.89 382.67,-291.8"/>
</a>
</g>
</g>
<!-- Node9 -->
<g id="Node000009" class="node">
<title>Node9</title>
<g id="a_Node000009"><a xlink:href="class_g_l_e_s_c_1_1_render_1_1_renderer.html#a0f562e14a9fb4e13e03bc108b5dd1111" target="_top" xlink:title="This starts the frame of rendering.">
<polygon fill="white" stroke="#666666" points="357.75,-268 227,-268 227,-236 357.75,-236 357.75,-268"/>
<text text-anchor="start" x="235" y="-254.5" font-family="Helvetica,sans-Serif" font-size="10.00">GLESC::Render::Renderer</text>
<text text-anchor="middle" x="292.38" y="-242.5" font-family="Helvetica,sans-Serif" font-size="10.00">::start</text>
</a>
</g>
</g>
<!-- Node7&#45;&gt;Node9 -->
<g id="edge8_Node000007_Node000009" class="edge">
<title>Node7&#45;&gt;Node9</title>
<g id="a_edge8_Node000007_Node000009"><a xlink:title=" ">
<path fill="none" stroke="#63b8ff" d="M382.2,-265.66C374.12,-264.42 365.95,-263.16 357.99,-261.94"/>
<polygon fill="#63b8ff" stroke="#63b8ff" points="381.6,-269.11 392.02,-267.18 382.67,-262.2 381.6,-269.11"/>
</a>
</g>
</g>
<!-- Node10 -->
<g id="Node000010" class="node">
<title>Node10</title>
<g id="a_Node000010"><a xlink:href="class_g_l_e_s_c_1_1_engine.html#ab0a886855ca341089947b36b9c6f6e15" target="_top" xlink:title="Processes the rendering of the game Can be called at variable intervals of time as it uses elapsed.">
<polygon fill="white" stroke="#666666" points="191,-262 73,-262 73,-242 191,-242 191,-262"/>
<text text-anchor="middle" x="132" y="-248.5" font-family="Helvetica,sans-Serif" font-size="10.00">GLESC::Engine::render</text>
</a>
</g>
</g>
<!-- Node9&#45;&gt;Node10 -->
<g id="edge9_Node000009_Node000010" class="edge">
<title>Node9&#45;&gt;Node10</title>
<g id="a_edge9_Node000009_Node000010"><a xlink:title=" ">
<path fill="none" stroke="#63b8ff" d="M215.24,-252C207.23,-252 199.18,-252 191.42,-252"/>
<polygon fill="#63b8ff" stroke="#63b8ff" points="214.99,-255.5 224.99,-252 214.99,-248.5 214.99,-255.5"/>
</a>
</g>
</g>
<!-- Node11 -->
<g id="Node000011" class="node">
<title>Node11</title>
<g id="a_Node000011"><a xlink:href="src_2engine_2main_8cpp.html#a0ddf1224851353fc92bfbff6f499fa97" target="_top" xlink:title=" ">
<polygon fill="white" stroke="#666666" points="37,-262 0,-262 0,-242 37,-242 37,-262"/>
<text text-anchor="middle" x="18.5" y="-248.5" font-family="Helvetica,sans-Serif" font-size="10.00">main</text>
</a>
</g>
</g>
<!-- Node10&#45;&gt;Node11 -->
<g id="edge10_Node000010_Node000011" class="edge">
<title>Node10&#45;&gt;Node11</title>
<g id="a_edge10_Node000010_Node000011"><a xlink:title=" ">
<path fill="none" stroke="#63b8ff" d="M61.31,-252C52.52,-252 44.22,-252 37.37,-252"/>
<polygon fill="#63b8ff" stroke="#63b8ff" points="61.12,-255.5 71.12,-252 61.12,-248.5 61.12,-255.5"/>
</a>
</g>
</g>
<!-- Node14 -->
<g id="Node000014" class="node">
<title>Node14</title>
<g id="a_Node000014"><a xlink:href="class_g_l_e_s_c_1_1_math_1_1_matrix.html#a4d1f38620cb3dbcadd10904644ff2ef2" target="_top" xlink:title="Calculates the rank of the matrix.">
<polygon fill="white" stroke="#666666" points="691.25,-184 581.5,-184 581.5,-152 691.25,-152 691.25,-184"/>
<text text-anchor="start" x="589.5" y="-170.5" font-family="Helvetica,sans-Serif" font-size="10.00">GLESC::Math::Matrix</text>
<text text-anchor="middle" x="636.38" y="-158.5" font-family="Helvetica,sans-Serif" font-size="10.00">::rank</text>
</a>
</g>
</g>
<!-- Node13&#45;&gt;Node14 -->
<g id="edge14_Node000013_Node000014" class="edge">
<title>Node13&#45;&gt;Node14</title>
<g id="a_edge14_Node000013_Node000014"><a xlink:title=" ">
<path fill="none" stroke="#63b8ff" d="M741.34,-168C724.38,-168 707.11,-168 691.63,-168"/>
<polygon fill="#63b8ff" stroke="#63b8ff" points="740.9,-171.5 750.9,-168 740.9,-164.5 740.9,-171.5"/>
</a>
</g>
</g>
<!-- Node15&#45;&gt;Node3 -->
<g id="edge16_Node000015_Node000003" class="edge">
<title>Node15&#45;&gt;Node3</title>
<g id="a_edge16_Node000015_Node000003"><a xlink:title=" ">
<path fill="none" stroke="#63b8ff" d="M747.06,-363.07C734.58,-360.22 721.79,-357.3 709.56,-354.5"/>
<polygon fill="#63b8ff" stroke="#63b8ff" points="745.92,-366.4 756.45,-365.22 747.48,-359.58 745.92,-366.4"/>
</a>
</g>
</g>
<!-- Node16 -->
<g id="Node000016" class="node">
<title>Node16</title>
<g id="a_Node000016"><a xlink:href="_matrix_algorithms_tests_8cpp.html#a466d80b30a455c0fd1fc470745f544aa" target="_top" xlink:title=" ">
<polygon fill="white" stroke="#666666" points="656.38,-392 616.38,-392 616.38,-372 656.38,-372 656.38,-392"/>
<text text-anchor="middle" x="636.38" y="-378.5" font-family="Helvetica,sans-Serif" font-size="10.00">TEST</text>
</a>
</g>
</g>
<!-- Node15&#45;&gt;Node16 -->
<g id="edge17_Node000015_Node000016" class="edge">
<title>Node15&#45;&gt;Node16</title>
<g id="a_edge17_Node000015_Node000016"><a xlink:title=" ">
<path fill="none" stroke="#63b8ff" d="M744.28,-382C711.65,-382 677.38,-382 656.69,-382"/>
<polygon fill="#63b8ff" stroke="#63b8ff" points="744.21,-385.5 754.21,-382 744.21,-378.5 744.21,-385.5"/>
</a>
</g>
</g>
<!-- Node17&#45;&gt;Node3 -->
<g id="edge19_Node000017_Node000003" class="edge">
<title>Node17&#45;&gt;Node3</title>
<g id="a_edge19_Node000017_Node000003"><a xlink:title=" ">
<path fill="none" stroke="#63b8ff" d="M785.57,-277.23C764.82,-286.95 739.68,-298.41 716.75,-308 705.74,-312.6 693.75,-317.3 682.51,-321.56"/>
<polygon fill="#63b8ff" stroke="#63b8ff" points="787.07,-280.4 794.62,-272.97 784.08,-274.06 787.07,-280.4"/>
</a>
</g>
</g>
<!-- Node17&#45;&gt;Node6 -->
<g id="edge20_Node000017_Node000006" class="edge">
<title>Node17&#45;&gt;Node6</title>
<g id="a_edge20_Node000017_Node000006"><a xlink:title=" ">
<path fill="none" stroke="#63b8ff" d="M741.15,-265.68C732.21,-266.65 723.18,-267.64 714.37,-268.6"/>
<polygon fill="#63b8ff" stroke="#63b8ff" points="741.34,-269.18 750.91,-264.61 740.58,-262.22 741.34,-269.18"/>
</a>
</g>
</g>
<!-- Node17&#45;&gt;Node18 -->
<g id="edge21_Node000017_Node000018" class="edge">
<title>Node17&#45;&gt;Node18</title>
<g id="a_edge21_Node000017_Node000018"><a xlink:title=" ">
<path fill="none" stroke="#63b8ff" d="M741.28,-240.35C709.61,-234.76 676.83,-228.97 656.77,-225.42"/>
<polygon fill="#63b8ff" stroke="#63b8ff" points="740.46,-243.76 750.92,-242.05 741.68,-236.87 740.46,-243.76"/>
</a>
</g>
</g>
</g>
</svg>
