<?xml version="1.0" encoding="UTF-8" standalone="no"?>
<!DOCTYPE svg PUBLIC "-//W3C//DTD SVG 1.1//EN"
 "http://www.w3.org/Graphics/SVG/1.1/DTD/svg11.dtd">
<!-- Generated by graphviz version 11.0.0 (20240428.1522)
 -->
<!-- Title: GLESC::Render::Renderer::renderLights Pages: 1 -->
<svg width="901pt" height="440pt"
 viewBox="0.00 0.00 901.00 440.00" xmlns="http://www.w3.org/2000/svg" xmlns:xlink="http://www.w3.org/1999/xlink">
<g id="graph0" class="graph" transform="scale(1 1) rotate(0) translate(4 436)">
<title>GLESC::Render::Renderer::renderLights</title>
<!-- Node1 -->
<g id="Node000001" class="node">
<title>Node1</title>
<g id="a_Node000001"><a xlink:title="This encapsulates the rendering of the lights, setting the uniforms.">
<polygon fill="#999999" stroke="#666666" points="130.75,-232 0,-232 0,-200 130.75,-200 130.75,-232"/>
<text text-anchor="start" x="8" y="-218.5" font-family="Helvetica,sans-Serif" font-size="10.00">GLESC::Render::Renderer</text>
<text text-anchor="middle" x="65.38" y="-206.5" font-family="Helvetica,sans-Serif" font-size="10.00">::renderLights</text>
</a>
</g>
</g>
<!-- Node2 -->
<g id="Node000002" class="node">
<title>Node2</title>
<g id="a_Node000002"><a xlink:href="struct_g_l_e_s_c_1_1_render_1_1_light_point.html#a8675140fb3df1abf1d90750bb7bc48a1" target="_top" xlink:title=" ">
<polygon fill="white" stroke="#666666" points="311.75,-432 176.5,-432 176.5,-400 311.75,-400 311.75,-432"/>
<text text-anchor="start" x="184.5" y="-418.5" font-family="Helvetica,sans-Serif" font-size="10.00">GLESC::Render::LightPoint</text>
<text text-anchor="middle" x="244.12" y="-406.5" font-family="Helvetica,sans-Serif" font-size="10.00">::getColor</text>
</a>
</g>
</g>
<!-- Node1&#45;&gt;Node2 -->
<g id="edge1_Node000001_Node000002" class="edge">
<title>Node1&#45;&gt;Node2</title>
<g id="a_edge1_Node000001_Node000002"><a xlink:title=" ">
<path fill="none" stroke="#63b8ff" d="M71.3,-232.4C82.49,-266.88 113.1,-347.33 166.75,-391 167.88,-391.92 169.04,-392.8 170.23,-393.65"/>
<polygon fill="#63b8ff" stroke="#63b8ff" points="168.22,-396.53 178.58,-398.78 171.89,-390.56 168.22,-396.53"/>
</a>
</g>
</g>
<!-- Node3 -->
<g id="Node000003" class="node">
<title>Node3</title>
<g id="a_Node000003"><a xlink:href="struct_g_l_e_s_c_1_1_render_1_1_light_point.html#ad3fbf61cb424a458eddc68949546b79d" target="_top" xlink:title=" ">
<polygon fill="white" stroke="#666666" points="311.75,-382 176.5,-382 176.5,-350 311.75,-350 311.75,-382"/>
<text text-anchor="start" x="184.5" y="-368.5" font-family="Helvetica,sans-Serif" font-size="10.00">GLESC::Render::LightPoint</text>
<text text-anchor="middle" x="244.12" y="-356.5" font-family="Helvetica,sans-Serif" font-size="10.00">::getIntensity</text>
</a>
</g>
</g>
<!-- Node1&#45;&gt;Node3 -->
<g id="edge2_Node000001_Node000003" class="edge">
<title>Node1&#45;&gt;Node3</title>
<g id="a_edge2_Node000001_Node000003"><a xlink:title=" ">
<path fill="none" stroke="#63b8ff" d="M75.24,-232.32C90.48,-258.9 124.18,-311.54 166.75,-341 168.51,-342.22 170.34,-343.38 172.22,-344.49"/>
<polygon fill="#63b8ff" stroke="#63b8ff" points="170.13,-347.35 180.61,-348.9 173.39,-341.15 170.13,-347.35"/>
</a>
</g>
</g>
<!-- Node5 -->
<g id="Node000005" class="node">
<title>Node5</title>
<g id="a_Node000005"><a xlink:href="struct_g_l_e_s_c_1_1_render_1_1_light_point.html#ad726322792d471e2e77d5fb533519d5d" target="_top" xlink:title=" ">
<polygon fill="white" stroke="#666666" points="311.75,-332 176.5,-332 176.5,-300 311.75,-300 311.75,-332"/>
<text text-anchor="start" x="184.5" y="-318.5" font-family="Helvetica,sans-Serif" font-size="10.00">GLESC::Render::LightPoint</text>
<text text-anchor="middle" x="244.12" y="-306.5" font-family="Helvetica,sans-Serif" font-size="10.00">::getRadius</text>
</a>
</g>
</g>
<!-- Node1&#45;&gt;Node5 -->
<g id="edge4_Node000001_Node000005" class="edge">
<title>Node1&#45;&gt;Node5</title>
<g id="a_edge4_Node000001_Node000005"><a xlink:title=" ">
<path fill="none" stroke="#63b8ff" d="M84.39,-232.34C103.59,-249.04 135.48,-274.76 166.75,-291 169.59,-292.48 172.54,-293.89 175.55,-295.24"/>
<polygon fill="#63b8ff" stroke="#63b8ff" points="174,-298.38 184.58,-299 176.69,-291.92 174,-298.38"/>
</a>
</g>
</g>
<!-- Node6 -->
<g id="Node000006" class="node">
<title>Node6</title>
<g id="a_Node000006"><a xlink:href="struct_g_l_e_s_c_1_1_render_1_1_color_rgb.html#af0a993d6f6257b791729083f6b8e7ab3" target="_top" xlink:title=" ">
<polygon fill="white" stroke="#666666" points="311,-282 177.25,-282 177.25,-250 311,-250 311,-282"/>
<text text-anchor="start" x="185.25" y="-268.5" font-family="Helvetica,sans-Serif" font-size="10.00">GLESC::Render::ColorRgb</text>
<text text-anchor="middle" x="244.12" y="-256.5" font-family="Helvetica,sans-Serif" font-size="10.00">::getRGBVec3FNormalized</text>
</a>
</g>
</g>
<!-- Node1&#45;&gt;Node6 -->
<g id="edge5_Node000001_Node000006" class="edge">
<title>Node1&#45;&gt;Node6</title>
<g id="a_edge5_Node000001_Node000006"><a xlink:title=" ">
<path fill="none" stroke="#63b8ff" d="M124.25,-232.37C140.19,-236.88 157.64,-241.82 174.14,-246.48"/>
<polygon fill="#63b8ff" stroke="#63b8ff" points="172.79,-249.74 183.36,-249.09 174.69,-243 172.79,-249.74"/>
</a>
</g>
</g>
<!-- Node11 -->
<g id="Node000011" class="node">
<title>Node11</title>
<g id="a_Node000011"><a xlink:href="class_g_l_e_s_c_1_1_render_1_1_renderer.html#af3208d587830e17a2cd7080ef1f647f6" target="_top" xlink:title=" ">
<polygon fill="white" stroke="#666666" points="309.5,-232 178.75,-232 178.75,-200 309.5,-200 309.5,-232"/>
<text text-anchor="start" x="186.75" y="-218.5" font-family="Helvetica,sans-Serif" font-size="10.00">GLESC::Render::Renderer</text>
<text text-anchor="middle" x="244.12" y="-206.5" font-family="Helvetica,sans-Serif" font-size="10.00">::getView</text>
</a>
</g>
</g>
<!-- Node1&#45;&gt;Node11 -->
<g id="edge12_Node000001_Node000011" class="edge">
<title>Node1&#45;&gt;Node11</title>
<g id="a_edge12_Node000001_Node000011"><a xlink:title=" ">
<path fill="none" stroke="#63b8ff" d="M131.19,-216C142.83,-216 155.07,-216 167,-216"/>
<polygon fill="#63b8ff" stroke="#63b8ff" points="166.81,-219.5 176.81,-216 166.81,-212.5 166.81,-219.5"/>
</a>
</g>
</g>
<!-- Node12 -->
<g id="Node000012" class="node">
<title>Node12</title>
<g id="a_Node000012"><a xlink:href="struct_g_l_e_s_c_1_1_render_1_1_light_point.html#a05561bb047fe3ce0f7618598753f5b63" target="_top" xlink:title=" ">
<polygon fill="white" stroke="#666666" points="311.75,-182 176.5,-182 176.5,-150 311.75,-150 311.75,-182"/>
<text text-anchor="start" x="184.5" y="-168.5" font-family="Helvetica,sans-Serif" font-size="10.00">GLESC::Render::LightPoint</text>
<text text-anchor="middle" x="244.12" y="-156.5" font-family="Helvetica,sans-Serif" font-size="10.00">::isDirty</text>
</a>
</g>
</g>
<!-- Node1&#45;&gt;Node12 -->
<g id="edge13_Node000001_Node000012" class="edge">
<title>Node1&#45;&gt;Node12</title>
<g id="a_edge13_Node000001_Node000012"><a xlink:title=" ">
<path fill="none" stroke="#63b8ff" d="M124.25,-199.63C140.19,-195.12 157.64,-190.18 174.14,-185.52"/>
<polygon fill="#63b8ff" stroke="#63b8ff" points="174.69,-189 183.36,-182.91 172.79,-182.26 174.69,-189"/>
</a>
</g>
</g>
<!-- Node13 -->
<g id="Node000013" class="node">
<title>Node13</title>
<g id="a_Node000013"><a xlink:href="struct_g_l_e_s_c_1_1_render_1_1_light_point.html#a8f7013ddfcb305c999bf5e4439b55d49" target="_top" xlink:title=" ">
<polygon fill="white" stroke="#666666" points="311.75,-132 176.5,-132 176.5,-100 311.75,-100 311.75,-132"/>
<text text-anchor="start" x="184.5" y="-118.5" font-family="Helvetica,sans-Serif" font-size="10.00">GLESC::Render::LightPoint</text>
<text text-anchor="middle" x="244.12" y="-106.5" font-family="Helvetica,sans-Serif" font-size="10.00">::setClean</text>
</a>
</g>
</g>
<!-- Node1&#45;&gt;Node13 -->
<g id="edge14_Node000001_Node000013" class="edge">
<title>Node1&#45;&gt;Node13</title>
<g id="a_edge14_Node000001_Node000013"><a xlink:title=" ">
<path fill="none" stroke="#63b8ff" d="M84.39,-199.66C103.59,-182.96 135.48,-157.24 166.75,-141 169.59,-139.52 172.54,-138.11 175.55,-136.76"/>
<polygon fill="#63b8ff" stroke="#63b8ff" points="176.69,-140.08 184.58,-133 174,-133.62 176.69,-140.08"/>
</a>
</g>
</g>
<!-- Node14 -->
<g id="Node000014" class="node">
<title>Node14</title>
<g id="a_Node000014"><a xlink:href="class_g_l_e_s_c_1_1_g_a_p_i_1_1_shader.html#a2af6148a4a3aca3519a20fdd877f6016" target="_top" xlink:title="Sets a uniform value in the shader.">
<polygon fill="white" stroke="#666666" points="301.62,-82 186.62,-82 186.62,-50 301.62,-50 301.62,-82"/>
<text text-anchor="start" x="194.62" y="-68.5" font-family="Helvetica,sans-Serif" font-size="10.00">GLESC::GAPI::Shader</text>
<text text-anchor="middle" x="244.12" y="-56.5" font-family="Helvetica,sans-Serif" font-size="10.00">::setUniform</text>
</a>
</g>
</g>
<!-- Node1&#45;&gt;Node14 -->
<g id="edge15_Node000001_Node000014" class="edge">
<title>Node1&#45;&gt;Node14</title>
<g id="a_edge15_Node000001_Node000014"><a xlink:title=" ">
<path fill="none" stroke="#63b8ff" d="M75.24,-199.68C90.48,-173.1 124.18,-120.46 166.75,-91 169.73,-88.94 172.9,-87.03 176.18,-85.28"/>
<polygon fill="#63b8ff" stroke="#63b8ff" points="177.4,-88.57 184.92,-81.11 174.39,-82.26 177.4,-88.57"/>
</a>
</g>
</g>
<!-- Node16 -->
<g id="Node000016" class="node">
<title>Node16</title>
<g id="a_Node000016"><a xlink:href="class_g_l_e_s_c_1_1_transform_1_1_transformer.html#a0d20922989f21905e2113a48f4186c42" target="_top" xlink:title="Transforms a position by a given matrix.">
<polygon fill="white" stroke="#666666" points="321.5,-32 166.75,-32 166.75,0 321.5,0 321.5,-32"/>
<text text-anchor="start" x="174.75" y="-18.5" font-family="Helvetica,sans-Serif" font-size="10.00">GLESC::Transform::Transformer</text>
<text text-anchor="middle" x="244.12" y="-6.5" font-family="Helvetica,sans-Serif" font-size="10.00">::transformVector</text>
</a>
</g>
</g>
<!-- Node1&#45;&gt;Node16 -->
<g id="edge17_Node000001_Node000016" class="edge">
<title>Node1&#45;&gt;Node16</title>
<g id="a_edge17_Node000001_Node000016"><a xlink:title=" ">
<path fill="none" stroke="#63b8ff" d="M71.3,-199.6C82.49,-165.12 113.1,-84.67 166.75,-41 167.88,-40.08 169.04,-39.2 170.23,-38.35"/>
<polygon fill="#63b8ff" stroke="#63b8ff" points="171.89,-41.44 178.58,-33.22 168.22,-35.47 171.89,-41.44"/>
</a>
</g>
</g>
<!-- Node4 -->
<g id="Node000004" class="node">
<title>Node4</title>
<g id="a_Node000004"><a xlink:href="class_g_l_e_s_c_1_1_render_1_1_intensity.html#a53940c748518c99fc3f50b5fa2d7e31a" target="_top" xlink:title=" ">
<polygon fill="white" stroke="#666666" points="505.5,-376 357.5,-376 357.5,-356 505.5,-356 505.5,-376"/>
<text text-anchor="middle" x="431.5" y="-362.5" font-family="Helvetica,sans-Serif" font-size="10.00">GLESC::Render::Intensity::get</text>
</a>
</g>
</g>
<!-- Node3&#45;&gt;Node4 -->
<g id="edge3_Node000003_Node000004" class="edge">
<title>Node3&#45;&gt;Node4</title>
<g id="a_edge3_Node000003_Node000004"><a xlink:title=" ">
<path fill="none" stroke="#63b8ff" d="M312.05,-366C323.02,-366 334.51,-366 345.84,-366"/>
<polygon fill="#63b8ff" stroke="#63b8ff" points="345.57,-369.5 355.57,-366 345.57,-362.5 345.57,-369.5"/>
</a>
</g>
</g>
<!-- Node7 -->
<g id="Node000007" class="node">
<title>Node7</title>
<g id="a_Node000007"><a xlink:href="struct_g_l_e_s_c_1_1_render_1_1_color_rgb.html#a674c5aa3d673ec1b4c583f7b3570b421" target="_top" xlink:title=" ">
<polygon fill="white" stroke="#666666" points="497.25,-332 365.75,-332 365.75,-300 497.25,-300 497.25,-332"/>
<text text-anchor="start" x="373.75" y="-318.5" font-family="Helvetica,sans-Serif" font-size="10.00">GLESC::Render::ColorRgb</text>
<text text-anchor="middle" x="431.5" y="-306.5" font-family="Helvetica,sans-Serif" font-size="10.00">::getBNormalized</text>
</a>
</g>
</g>
<!-- Node6&#45;&gt;Node7 -->
<g id="edge6_Node000006_Node000007" class="edge">
<title>Node6&#45;&gt;Node7</title>
<g id="a_edge6_Node000006_Node000007"><a xlink:title=" ">
<path fill="none" stroke="#63b8ff" d="M306.08,-282.44C322.95,-286.99 341.41,-291.97 358.82,-296.67"/>
<polygon fill="#63b8ff" stroke="#63b8ff" points="357.48,-299.93 368.05,-299.15 359.3,-293.17 357.48,-299.93"/>
</a>
</g>
</g>
<!-- Node9 -->
<g id="Node000009" class="node">
<title>Node9</title>
<g id="a_Node000009"><a xlink:href="struct_g_l_e_s_c_1_1_render_1_1_color_rgb.html#a1a34cffe125e0669b6f0f59c55641333" target="_top" xlink:title=" ">
<polygon fill="white" stroke="#666666" points="497.25,-282 365.75,-282 365.75,-250 497.25,-250 497.25,-282"/>
<text text-anchor="start" x="373.75" y="-268.5" font-family="Helvetica,sans-Serif" font-size="10.00">GLESC::Render::ColorRgb</text>
<text text-anchor="middle" x="431.5" y="-256.5" font-family="Helvetica,sans-Serif" font-size="10.00">::getGNormalized</text>
</a>
</g>
</g>
<!-- Node6&#45;&gt;Node9 -->
<g id="edge8_Node000006_Node000009" class="edge">
<title>Node6&#45;&gt;Node9</title>
<g id="a_edge8_Node000006_Node000009"><a xlink:title=" ">
<path fill="none" stroke="#63b8ff" d="M311.26,-266C325.13,-266 339.86,-266 354.07,-266"/>
<polygon fill="#63b8ff" stroke="#63b8ff" points="353.81,-269.5 363.81,-266 353.81,-262.5 353.81,-269.5"/>
</a>
</g>
</g>
<!-- Node10 -->
<g id="Node000010" class="node">
<title>Node10</title>
<g id="a_Node000010"><a xlink:href="struct_g_l_e_s_c_1_1_render_1_1_color_rgb.html#a52dce8aa77d51de1f0e38d8fcfa81ce9" target="_top" xlink:title=" ">
<polygon fill="white" stroke="#666666" points="497.25,-232 365.75,-232 365.75,-200 497.25,-200 497.25,-232"/>
<text text-anchor="start" x="373.75" y="-218.5" font-family="Helvetica,sans-Serif" font-size="10.00">GLESC::Render::ColorRgb</text>
<text text-anchor="middle" x="431.5" y="-206.5" font-family="Helvetica,sans-Serif" font-size="10.00">::getRNormalized</text>
</a>
</g>
</g>
<!-- Node6&#45;&gt;Node10 -->
<g id="edge10_Node000006_Node000010" class="edge">
<title>Node6&#45;&gt;Node10</title>
<g id="a_edge10_Node000006_Node000010"><a xlink:title=" ">
<path fill="none" stroke="#63b8ff" d="M306.08,-249.56C322.95,-245.01 341.41,-240.03 358.82,-235.33"/>
<polygon fill="#63b8ff" stroke="#63b8ff" points="359.3,-238.83 368.05,-232.85 357.48,-232.07 359.3,-238.83"/>
</a>
</g>
</g>
<!-- Node8 -->
<g id="Node000008" class="node">
<title>Node8</title>
<g id="a_Node000008"><a xlink:href="class_g_l_e_s_c_1_1_render_1_1_color_funcs.html#a4415bd4e262b54a2d95185ffee1c3eef" target="_top" xlink:title="Normalizes a color to be between 0 and 1.">
<polygon fill="white" stroke="#666666" points="691,-282 549.75,-282 549.75,-250 691,-250 691,-282"/>
<text text-anchor="start" x="557.75" y="-268.5" font-family="Helvetica,sans-Serif" font-size="10.00">GLESC::Render::ColorFuncs</text>
<text text-anchor="middle" x="620.38" y="-256.5" font-family="Helvetica,sans-Serif" font-size="10.00">::normalizeColorValue</text>
</a>
</g>
</g>
<!-- Node7&#45;&gt;Node8 -->
<g id="edge7_Node000007_Node000008" class="edge">
<title>Node7&#45;&gt;Node8</title>
<g id="a_edge7_Node000007_Node000008"><a xlink:title=" ">
<path fill="none" stroke="#63b8ff" d="M493.95,-299.56C510.95,-295.01 529.56,-290.03 547.12,-285.33"/>
<polygon fill="#63b8ff" stroke="#63b8ff" points="547.67,-288.81 556.43,-282.84 545.86,-282.05 547.67,-288.81"/>
</a>
</g>
</g>
<!-- Node9&#45;&gt;Node8 -->
<g id="edge9_Node000009_Node000008" class="edge">
<title>Node9&#45;&gt;Node8</title>
<g id="a_edge9_Node000009_Node000008"><a xlink:title=" ">
<path fill="none" stroke="#63b8ff" d="M497.6,-266C510.68,-266 524.59,-266 538.14,-266"/>
<polygon fill="#63b8ff" stroke="#63b8ff" points="537.91,-269.5 547.91,-266 537.91,-262.5 537.91,-269.5"/>
</a>
</g>
</g>
<!-- Node10&#45;&gt;Node8 -->
<g id="edge11_Node000010_Node000008" class="edge">
<title>Node10&#45;&gt;Node8</title>
<g id="a_edge11_Node000010_Node000008"><a xlink:title=" ">
<path fill="none" stroke="#63b8ff" d="M493.95,-232.44C510.95,-236.99 529.56,-241.97 547.12,-246.67"/>
<polygon fill="#63b8ff" stroke="#63b8ff" points="545.86,-249.95 556.43,-249.16 547.67,-243.19 545.86,-249.95"/>
</a>
</g>
</g>
<!-- Node15 -->
<g id="Node000015" class="node">
<title>Node15</title>
<g id="a_Node000015"><a xlink:href="_gapi_8h.html#ab7514d88e65656ffa15ca33256518fe5" target="_top" xlink:title="Returns the graphic API used by the engine.">
<polygon fill="white" stroke="#666666" points="457.88,-76 405.12,-76 405.12,-56 457.88,-56 457.88,-76"/>
<text text-anchor="middle" x="431.5" y="-62.5" font-family="Helvetica,sans-Serif" font-size="10.00">getGAPI</text>
</a>
</g>
</g>
<!-- Node14&#45;&gt;Node15 -->
<g id="edge16_Node000014_Node000015" class="edge">
<title>Node14&#45;&gt;Node15</title>
<g id="a_edge16_Node000014_Node000015"><a xlink:title=" ">
<path fill="none" stroke="#63b8ff" d="M302,-66C331.72,-66 367.24,-66 393.4,-66"/>
<polygon fill="#63b8ff" stroke="#63b8ff" points="393.19,-69.5 403.19,-66 393.19,-62.5 393.19,-69.5"/>
</a>
</g>
</g>
<!-- Node17 -->
<g id="Node000017" class="node">
<title>Node17</title>
<g id="a_Node000017"><a xlink:href="class_g_l_e_s_c_1_1_math_1_1_vector.html#ae97c63da7362348a91413c64256df459" target="_top" xlink:title="Homogenizes the vector.">
<polygon fill="white" stroke="#666666" points="487.12,-32 375.88,-32 375.88,0 487.12,0 487.12,-32"/>
<text text-anchor="start" x="383.88" y="-18.5" font-family="Helvetica,sans-Serif" font-size="10.00">GLESC::Math::Vector</text>
<text text-anchor="middle" x="431.5" y="-6.5" font-family="Helvetica,sans-Serif" font-size="10.00">::homogenize</text>
</a>
</g>
</g>
<!-- Node16&#45;&gt;Node17 -->
<g id="edge18_Node000016_Node000017" class="edge">
<title>Node16&#45;&gt;Node17</title>
<g id="a_edge18_Node000016_Node000017"><a xlink:title=" ">
<path fill="none" stroke="#63b8ff" d="M321.86,-16C335.95,-16 350.54,-16 364.28,-16"/>
<polygon fill="#63b8ff" stroke="#63b8ff" points="364.08,-19.5 374.08,-16 364.08,-12.5 364.08,-19.5"/>
</a>
</g>
</g>
<!-- Node18 -->
<g id="Node000018" class="node">
<title>Node18</title>
<g id="a_Node000018"><a xlink:href="class_g_l_e_s_c_1_1_math_1_1_vector_algorithms.html#a0ac2336be4653468291125421bfb96ed" target="_top" xlink:title="Homozenizes a vector.">
<polygon fill="white" stroke="#666666" points="699.25,-32 541.5,-32 541.5,0 699.25,0 699.25,-32"/>
<text text-anchor="start" x="549.5" y="-18.5" font-family="Helvetica,sans-Serif" font-size="10.00">GLESC::Math::VectorAlgorithms</text>
<text text-anchor="middle" x="620.38" y="-6.5" font-family="Helvetica,sans-Serif" font-size="10.00">::homogenize</text>
</a>
</g>
</g>
<!-- Node17&#45;&gt;Node18 -->
<g id="edge19_Node000017_Node000018" class="edge">
<title>Node17&#45;&gt;Node18</title>
<g id="a_edge19_Node000017_Node000018"><a xlink:title=" ">
<path fill="none" stroke="#63b8ff" d="M487.56,-16C500.81,-16 515.31,-16 529.69,-16"/>
<polygon fill="#63b8ff" stroke="#63b8ff" points="529.66,-19.5 539.66,-16 529.66,-12.5 529.66,-19.5"/>
</a>
</g>
</g>
<!-- Node19 -->
<g id="Node000019" class="node">
<title>Node19</title>
<g id="a_Node000019"><a xlink:href="class_g_l_e_s_c_1_1_math_1_1_vector_algorithms.html#a93326a041053cabfc137c40f2f19b874" target="_top" xlink:title=" ">
<polygon fill="white" stroke="#666666" points="893,-32 735.25,-32 735.25,0 893,0 893,-32"/>
<text text-anchor="start" x="743.25" y="-18.5" font-family="Helvetica,sans-Serif" font-size="10.00">GLESC::Math::VectorAlgorithms</text>
<text text-anchor="middle" x="814.12" y="-6.5" font-family="Helvetica,sans-Serif" font-size="10.00">::vectorCopy</text>
</a>
</g>
</g>
<!-- Node18&#45;&gt;Node19 -->
<g id="edge20_Node000018_Node000019" class="edge">
<title>Node18&#45;&gt;Node19</title>
<g id="a_edge20_Node000018_Node000019"><a xlink:title=" ">
<path fill="none" stroke="#63b8ff" d="M699.64,-16C707.44,-16 715.39,-16 723.29,-16"/>
<polygon fill="#63b8ff" stroke="#63b8ff" points="723.28,-19.5 733.28,-16 723.28,-12.5 723.28,-19.5"/>
</a>
</g>
</g>
</g>
</svg>
