<?xml version="1.0" encoding="UTF-8" standalone="no"?>
<!DOCTYPE svg PUBLIC "-//W3C//DTD SVG 1.1//EN"
 "http://www.w3.org/Graphics/SVG/1.1/DTD/svg11.dtd">
<!-- Generated by graphviz version 11.0.0 (20240428.1522)
 -->
<!-- Title: GLESC::Transform::Transformer::transformMesh Pages: 1 -->
<!--zoomable 90 -->

<svg id="main" version="1.1" xmlns="http://www.w3.org/2000/svg" xmlns:xlink="http://www.w3.org/1999/xlink" xml:space="preserve" onload="init(evt)">
<style type="text/css"><![CDATA[
.node, .edge {opacity: 0.7;}
.node.selected, .edge.selected {opacity: 1;}
.edge:hover path { stroke: red; }
.edge:hover polygon { stroke: red; fill: red; }
]]></style>

<defs>
  <circle id="rim" cx="0" cy="0" r="7"/>
  <circle id="rim2" cx="0" cy="0" r="3.5"/>
  <g id="zoomPlus">
    <use xlink:href="#rim" fill="#404040"><set attributeName="fill" to="#808080" begin="zoomplus.mouseover" end="zoomplus.mouseout"/></use>
    <path d="M-4,0h8M0,-4v8" fill="none" stroke="white" stroke-width="1.5" pointer-events="none"/>
  </g>
  <g id="zoomMin">
    <use xlink:href="#rim" fill="#404040"><set attributeName="fill" to="#808080" begin="zoomminus.mouseover" end="zoomminus.mouseout"/></use>
    <path d="M-4,0h8" fill="none" stroke="white" stroke-width="1.5" pointer-events="none"/>
  </g>
  <g id="arrowUp" transform="translate(30 24)">
    <use xlink:href="#rim"/>
    <path pointer-events="none" fill="none" stroke="white" stroke-width="1.5" d="M0,-3.0v7 M-2.5,-0.5L0,-3.0L2.5,-0.5"/>
  </g>
  <g id="arrowRight" transform="rotate(90) translate(36 -43)">
    <use xlink:href="#rim"/>
    <path pointer-events="none" fill="none" stroke="white" stroke-width="1.5" d="M0,-3.0v7 M-2.5,-0.5L0,-3.0L2.5,-0.5"/>
  </g>
  <g id="arrowDown" transform="rotate(180) translate(-30 -48)">
    <use xlink:href="#rim"/>
    <path pointer-events="none" fill="none" stroke="white" stroke-width="1.5" d="M0,-3.0v7 M-2.5,-0.5L0,-3.0L2.5,-0.5"/>
  </g>
  <g id="arrowLeft" transform="rotate(270) translate(-36 17)">
    <use xlink:href="#rim"/>
    <path pointer-events="none" fill="none" stroke="white" stroke-width="1.5" d="M0,-3.0v7 M-2.5,-0.5L0,-3.0L2.5,-0.5"/>
  </g>
  <g id="resetDef">
    <use xlink:href="#rim2" fill="#404040"><set attributeName="fill" to="#808080" begin="reset.mouseover" end="reset.mouseout"/></use>
  </g>
</defs>
<script type="application/ecmascript">
var viewWidth = 796;
var viewHeight = 90;
var sectionId = 'dynsection-9';
</script>
<script type="application/ecmascript" xlink:href="svg.min.js"/>
<svg id="graph" class="graph">
<g id="viewport">
<title>GLESC::Transform::Transformer::transformMesh</title>
<!-- Node1 -->
<g id="Node000001" class="node">
<title>Node1</title>
<g id="a_Node000001"><a xlink:title="Scales a mesh by a given scale.">
<polygon fill="#999999" stroke="#666666" points="154.75,-57 0,-57 0,-25 154.75,-25 154.75,-57"/>
<text text-anchor="start" x="8" y="-43.5" font-family="Helvetica,sans-Serif" font-size="10.00">GLESC::Transform::Transformer</text>
<text text-anchor="middle" x="77.38" y="-31.5" font-family="Helvetica,sans-Serif" font-size="10.00">::transformMesh</text>
</a>
</g>
</g>
<!-- Node1&#45;&gt;Node1 -->
<g id="edge7_Node000001_Node000001" class="edge">
<title>Node1&#45;&gt;Node1</title>
<g id="a_edge7_Node000001_Node000001"><a xlink:title=" ">
<path fill="none" stroke="#63b8ff" d="M44.06,-57.44C37.84,-66.58 48.94,-75 77.38,-75 92.92,-75 103.29,-72.48 108.48,-68.71"/>
<polygon fill="#63b8ff" stroke="#63b8ff" points="111.9,-69.42 110.4,-58.93 105.03,-68.06 111.9,-69.42"/>
</a>
</g>
</g>
<!-- Node2 -->
<g id="Node000002" class="node">
<title>Node2</title>
<g id="a_Node000002"><a xlink:href="struct_g_l_e_s_c_1_1_transform_1_1_transform.html#ace5eaadaa06308bac65203f413c3cb0c" target="_top" xlink:title="Returns the model matrix of the transform.">
<polygon fill="white" stroke="#666666" points="337.25,-57 190.75,-57 190.75,-25 337.25,-25 337.25,-57"/>
<text text-anchor="start" x="198.75" y="-43.5" font-family="Helvetica,sans-Serif" font-size="10.00">GLESC::Transform::Transform</text>
<text text-anchor="middle" x="264" y="-31.5" font-family="Helvetica,sans-Serif" font-size="10.00">::getModelMatrix</text>
</a>
</g>
</g>
<!-- Node1&#45;&gt;Node2 -->
<g id="edge1_Node000001_Node000002" class="edge">
<title>Node1&#45;&gt;Node2</title>
<g id="a_edge1_Node000001_Node000002"><a xlink:title=" ">
<path fill="none" stroke="#63b8ff" d="M155.07,-41C163.01,-41 171.12,-41 179.14,-41"/>
<polygon fill="#63b8ff" stroke="#63b8ff" points="178.88,-44.5 188.88,-41 178.88,-37.5 178.88,-44.5"/>
</a>
</g>
</g>
<!-- Node3 -->
<g id="Node000003" class="node">
<title>Node3</title>
<g id="a_Node000003"><a xlink:href="class_g_l_e_s_c_1_1_math_1_1_matrix.html#a48f4279b33b5ca7cd12b424ff5fbf1a3" target="_top" xlink:title="Creates a model matrix from the given position, rotation and scale vectors.">
<polygon fill="white" stroke="#666666" points="483.75,-82 374,-82 374,-50 483.75,-50 483.75,-82"/>
<text text-anchor="start" x="382" y="-68.5" font-family="Helvetica,sans-Serif" font-size="10.00">GLESC::Math::Matrix</text>
<text text-anchor="middle" x="428.88" y="-56.5" font-family="Helvetica,sans-Serif" font-size="10.00">::makeModelMatrix</text>
</a>
</g>
</g>
<!-- Node2&#45;&gt;Node3 -->
<g id="edge2_Node000002_Node000003" class="edge">
<title>Node2&#45;&gt;Node3</title>
<g id="a_edge2_Node000002_Node000003"><a xlink:title=" ">
<path fill="none" stroke="#63b8ff" d="M337.39,-52.11C345.8,-53.4 354.34,-54.71 362.65,-55.99"/>
<polygon fill="#63b8ff" stroke="#63b8ff" points="361.88,-59.41 372.3,-57.47 362.95,-52.49 361.88,-59.41"/>
</a>
</g>
</g>
<!-- Node4 -->
<g id="Node000004" class="node">
<title>Node4</title>
<g id="a_Node000004"><a xlink:href="class_g_l_e_s_c_1_1_math_1_1_vector.html#a058dd167ea8c84edda5fdeccdeebd5d5" target="_top" xlink:title="Converts the vector to radians.">
<polygon fill="white" stroke="#666666" points="484.5,-32 373.25,-32 373.25,0 484.5,0 484.5,-32"/>
<text text-anchor="start" x="381.25" y="-18.5" font-family="Helvetica,sans-Serif" font-size="10.00">GLESC::Math::Vector</text>
<text text-anchor="middle" x="428.88" y="-6.5" font-family="Helvetica,sans-Serif" font-size="10.00">::toRads</text>
</a>
</g>
</g>
<!-- Node2&#45;&gt;Node4 -->
<g id="edge3_Node000002_Node000004" class="edge">
<title>Node2&#45;&gt;Node4</title>
<g id="a_edge3_Node000002_Node000004"><a xlink:title=" ">
<path fill="none" stroke="#63b8ff" d="M337.39,-29.89C345.47,-28.65 353.68,-27.39 361.68,-26.16"/>
<polygon fill="#63b8ff" stroke="#63b8ff" points="361.97,-29.66 371.33,-24.68 360.91,-22.74 361.97,-29.66"/>
</a>
</g>
</g>
<!-- Node5 -->
<g id="Node000005" class="node">
<title>Node5</title>
<g id="a_Node000005"><a xlink:href="namespace_g_l_e_s_c_1_1_math.html#a980ed967f85bef4bb539c9701701a877" target="_top" xlink:title="Converts degrees to radians.">
<polygon fill="white" stroke="#666666" points="634.75,-26 520.5,-26 520.5,-6 634.75,-6 634.75,-26"/>
<text text-anchor="middle" x="577.62" y="-12.5" font-family="Helvetica,sans-Serif" font-size="10.00">GLESC::Math::radians</text>
</a>
</g>
</g>
<!-- Node4&#45;&gt;Node5 -->
<g id="edge4_Node000004_Node000005" class="edge">
<title>Node4&#45;&gt;Node5</title>
<g id="a_edge4_Node000004_Node000005"><a xlink:title=" ">
<path fill="none" stroke="#63b8ff" d="M484.94,-16C492.79,-16 500.93,-16 508.99,-16"/>
<polygon fill="#63b8ff" stroke="#63b8ff" points="508.76,-19.5 518.76,-16 508.76,-12.5 508.76,-19.5"/>
</a>
</g>
</g>
<!-- Node6 -->
<g id="Node000006" class="node">
<title>Node6</title>
<g id="a_Node000006"><a xlink:href="namespace_g_l_e_s_c_1_1_math.html#a69598a72ef2c06e1caba0ea9613d65e6" target="_top" xlink:title="Converts radians to degrees.">
<polygon fill="white" stroke="#666666" points="788,-26 670.75,-26 670.75,-6 788,-6 788,-26"/>
<text text-anchor="middle" x="729.38" y="-12.5" font-family="Helvetica,sans-Serif" font-size="10.00">GLESC::Math::degrees</text>
</a>
</g>
</g>
<!-- Node5&#45;&gt;Node6 -->
<g id="edge5_Node000005_Node000006" class="edge">
<title>Node5&#45;&gt;Node6</title>
<g id="a_edge5_Node000005_Node000006"><a xlink:title=" ">
<path fill="none" stroke="#63b8ff" d="M635.24,-9.43C643.12,-9.27 651.29,-9.22 659.37,-9.27"/>
<polygon fill="#63b8ff" stroke="#63b8ff" points="659.13,-12.77 669.17,-9.39 659.22,-5.77 659.13,-12.77"/>
</a>
</g>
</g>
<!-- Node6&#45;&gt;Node5 -->
<g id="edge6_Node000006_Node000005" class="edge">
<title>Node6&#45;&gt;Node5</title>
<g id="a_edge6_Node000006_Node000005"><a xlink:title=" ">
<path fill="none" stroke="#63b8ff" d="M670.69,-22.59C662.78,-22.74 654.6,-22.78 646.53,-22.72"/>
<polygon fill="#63b8ff" stroke="#63b8ff" points="646.8,-19.23 636.75,-22.59 646.7,-26.23 646.8,-19.23"/>
</a>
</g>
</g>
</g>
</svg>

<g id="navigator" transform="translate(0 0)" fill="#404254">
  <rect fill="#f2f5e9" fill-opacity="0.5" stroke="#606060" stroke-width=".5" x="0" y="0" width="60" height="60"/>
  <use id="zoomplus" xlink:href="#zoomPlus" x="17" y="9" onmousedown="handleZoom(evt,'in')"/>
  <use id="zoomminus" xlink:href="#zoomMin" x="42" y="9" onmousedown="handleZoom(evt,'out')"/>
  <use id="reset" xlink:href="#resetDef" x="30" y="36" onmousedown="handleReset()"/>
   <use id="arrowup" xlink:href="#arrowUp" x="0" y="0" onmousedown="handlePan(0,-1)"/>
  <use id="arrowright" xlink:href="#arrowRight" x="0" y="0" onmousedown="handlePan(1,0)"/>
  <use id="arrowdown" xlink:href="#arrowDown" x="0" y="0" onmousedown="handlePan(0,1)"/>
  <use id="arrowleft" xlink:href="#arrowLeft" x="0" y="0" onmousedown="handlePan(-1,0)"/>
</g>
<svg viewBox="0 0 15 15" width="100%" height="30px" preserveAspectRatio="xMaxYMin meet">
 <g id="arrow_out" transform="scale(0.3 0.3)">
  <a xlink:href="class_g_l_e_s_c_1_1_transform_1_1_transformer_a739096353c50719f0b19a2dc3586a4ab_cgraph_org.svg" target="_base">
   <rect id="button" ry="5" rx="5" y="6" x="6" height="38" width="38"
        fill="#f2f5e9" fill-opacity="0.5" stroke="#606060" stroke-width="1.0"/>
   <path id="arrow"
     d="M 11.500037,31.436501 C 11.940474,20.09759 22.043105,11.32322 32.158766,21.979434 L 37.068811,17.246167 C 37.068811,17.246167 37.088388,32 37.088388,32 L 22.160133,31.978069 C 22.160133,31.978069 26.997745,27.140456 26.997745,27.140456 C 18.528582,18.264221 13.291696,25.230495 11.500037,31.436501 z"
     style="fill:#404040;"/>
  </a>
 </g>
</svg>

<style type='text/css'>
<![CDATA[
[data-mouse-over-selected='false'] { opacity: 0.7; }
[data-mouse-over-selected='true']  { opacity: 1.0; }
]]>
</style>
<script type="application/ecmascript"><![CDATA[
document.addEventListener('DOMContentLoaded', (event) => {
  highlightEdges();
  highlightAdjacentNodes();
});
]]></script>
</svg>
