<?xml version="1.0" encoding="UTF-8" standalone="no"?>
<!DOCTYPE svg PUBLIC "-//W3C//DTD SVG 1.1//EN"
 "http://www.w3.org/Graphics/SVG/1.1/DTD/svg11.dtd">
<!-- Generated by graphviz version 11.0.0 (20240428.1522)
 -->
<!-- Title: GLESC::ECS::Entity::hasComponent Pages: 1 -->
<svg width="686pt" height="140pt"
 viewBox="0.00 0.00 686.25 140.00" xmlns="http://www.w3.org/2000/svg" xmlns:xlink="http://www.w3.org/1999/xlink">
<g id="graph0" class="graph" transform="scale(1 1) rotate(0) translate(4 136)">
<title>GLESC::ECS::Entity::hasComponent</title>
<!-- Node1 -->
<g id="Node000001" class="node">
<title>Node1</title>
<g id="a_Node000001"><a xlink:title="Checks if the entity has a component.">
<polygon fill="#999999" stroke="#666666" points="106.75,-107 0,-107 0,-75 106.75,-75 106.75,-107"/>
<text text-anchor="start" x="8" y="-93.5" font-family="Helvetica,sans-Serif" font-size="10.00">GLESC::ECS::Entity</text>
<text text-anchor="middle" x="53.38" y="-81.5" font-family="Helvetica,sans-Serif" font-size="10.00">::hasComponent</text>
</a>
</g>
</g>
<!-- Node2 -->
<g id="Node000002" class="node">
<title>Node2</title>
<g id="a_Node000002"><a xlink:href="class_g_l_e_s_c_1_1_e_c_s_1_1_e_c_s_coordinator.html#a6efa8fa864d9eab4db6d85aba4657927" target="_top" xlink:title="Get the ID of a component.">
<polygon fill="white" stroke="#666666" points="293.75,-132 142.75,-132 142.75,-100 293.75,-100 293.75,-132"/>
<text text-anchor="start" x="150.75" y="-118.5" font-family="Helvetica,sans-Serif" font-size="10.00">GLESC::ECS::ECSCoordinator</text>
<text text-anchor="middle" x="218.25" y="-106.5" font-family="Helvetica,sans-Serif" font-size="10.00">::getComponentID</text>
</a>
</g>
</g>
<!-- Node1&#45;&gt;Node2 -->
<g id="edge1_Node000001_Node000002" class="edge">
<title>Node1&#45;&gt;Node2</title>
<g id="a_edge1_Node000001_Node000002"><a xlink:title=" ">
<path fill="none" stroke="#63b8ff" d="M106.81,-99.05C114.61,-100.25 122.81,-101.5 131.09,-102.77"/>
<polygon fill="#63b8ff" stroke="#63b8ff" points="130.47,-106.22 140.88,-104.28 131.53,-99.3 130.47,-106.22"/>
</a>
</g>
</g>
<!-- Node4 -->
<g id="Node000004" class="node">
<title>Node4</title>
<g id="a_Node000004"><a xlink:href="class_g_l_e_s_c_1_1_e_c_s_1_1_e_c_s_coordinator.html#a5aa06f9e5c8d53dfaa2cce1616eec531" target="_top" xlink:title="Check if an entity has a component, checking it&#39;s signature.">
<polygon fill="white" stroke="#666666" points="293.75,-82 142.75,-82 142.75,-50 293.75,-50 293.75,-82"/>
<text text-anchor="start" x="150.75" y="-68.5" font-family="Helvetica,sans-Serif" font-size="10.00">GLESC::ECS::ECSCoordinator</text>
<text text-anchor="middle" x="218.25" y="-56.5" font-family="Helvetica,sans-Serif" font-size="10.00">::hasComponent</text>
</a>
</g>
</g>
<!-- Node1&#45;&gt;Node4 -->
<g id="edge3_Node000001_Node000004" class="edge">
<title>Node1&#45;&gt;Node4</title>
<g id="a_edge3_Node000001_Node000004"><a xlink:title=" ">
<path fill="none" stroke="#63b8ff" d="M106.81,-82.95C114.61,-81.75 122.81,-80.5 131.09,-79.23"/>
<polygon fill="#63b8ff" stroke="#63b8ff" points="131.53,-82.7 140.88,-77.72 130.47,-75.78 131.53,-82.7"/>
</a>
</g>
</g>
<!-- Node3 -->
<g id="Node000003" class="node">
<title>Node3</title>
<g id="a_Node000003"><a xlink:href="class_g_l_e_s_c_1_1_e_c_s_1_1_component_manager.html#aa81ef6c48acdf07190ada035bfa9bd59" target="_top" xlink:title="Get the ID of a component by its type.">
<polygon fill="white" stroke="#666666" points="498,-132 329.75,-132 329.75,-100 498,-100 498,-132"/>
<text text-anchor="start" x="337.75" y="-118.5" font-family="Helvetica,sans-Serif" font-size="10.00">GLESC::ECS::ComponentManager</text>
<text text-anchor="middle" x="413.88" y="-106.5" font-family="Helvetica,sans-Serif" font-size="10.00">::getComponentID</text>
</a>
</g>
</g>
<!-- Node2&#45;&gt;Node3 -->
<g id="edge2_Node000002_Node000003" class="edge">
<title>Node2&#45;&gt;Node3</title>
<g id="a_edge2_Node000002_Node000003"><a xlink:title=" ">
<path fill="none" stroke="#63b8ff" d="M294.11,-116C301.99,-116 310.08,-116 318.15,-116"/>
<polygon fill="#63b8ff" stroke="#63b8ff" points="318.01,-119.5 328.01,-116 318.01,-112.5 318.01,-119.5"/>
</a>
</g>
</g>
<!-- Node4&#45;&gt;Node3 -->
<g id="edge7_Node000004_Node000003" class="edge">
<title>Node4&#45;&gt;Node3</title>
<g id="a_edge7_Node000004_Node000003"><a xlink:title=" ">
<path fill="none" stroke="#63b8ff" d="M282.92,-82.44C300.62,-87.01 320,-92.02 338.27,-96.73"/>
<polygon fill="#63b8ff" stroke="#63b8ff" points="337.15,-100.06 347.7,-99.17 338.9,-93.28 337.15,-100.06"/>
</a>
</g>
</g>
<!-- Node5 -->
<g id="Node000005" class="node">
<title>Node5</title>
<g id="a_Node000005"><a xlink:href="class_g_l_e_s_c_1_1_e_c_s_1_1_entity_manager.html#aab28983bdd04e1acf2dd7d94dbe4639d" target="_top" xlink:title="Check if the entity has the given component. The entity must exist and the component must be in the r...">
<polygon fill="white" stroke="#666666" points="486,-82 341.75,-82 341.75,-50 486,-50 486,-82"/>
<text text-anchor="start" x="349.75" y="-68.5" font-family="Helvetica,sans-Serif" font-size="10.00">GLESC::ECS::EntityManager</text>
<text text-anchor="middle" x="413.88" y="-56.5" font-family="Helvetica,sans-Serif" font-size="10.00">::doesEntityHaveComponent</text>
</a>
</g>
</g>
<!-- Node4&#45;&gt;Node5 -->
<g id="edge4_Node000004_Node000005" class="edge">
<title>Node4&#45;&gt;Node5</title>
<g id="a_edge4_Node000004_Node000005"><a xlink:title=" ">
<path fill="none" stroke="#63b8ff" d="M294.11,-66C305.88,-66 318.12,-66 330.06,-66"/>
<polygon fill="#63b8ff" stroke="#63b8ff" points="329.88,-69.5 339.88,-66 329.88,-62.5 329.88,-69.5"/>
</a>
</g>
</g>
<!-- Node8 -->
<g id="Node000008" class="node">
<title>Node8</title>
<g id="a_Node000008"><a xlink:href="class_g_l_e_s_c_1_1_e_c_s_1_1_component_manager.html#af4b8c65d69d17052413005a7402bf116" target="_top" xlink:title="Check if a component is registered.">
<polygon fill="white" stroke="#666666" points="498,-32 329.75,-32 329.75,0 498,0 498,-32"/>
<text text-anchor="start" x="337.75" y="-18.5" font-family="Helvetica,sans-Serif" font-size="10.00">GLESC::ECS::ComponentManager</text>
<text text-anchor="middle" x="413.88" y="-6.5" font-family="Helvetica,sans-Serif" font-size="10.00">::isComponentRegistered</text>
</a>
</g>
</g>
<!-- Node4&#45;&gt;Node8 -->
<g id="edge8_Node000004_Node000008" class="edge">
<title>Node4&#45;&gt;Node8</title>
<g id="a_edge8_Node000004_Node000008"><a xlink:title=" ">
<path fill="none" stroke="#63b8ff" d="M282.92,-49.56C300.62,-44.99 320,-39.98 338.27,-35.27"/>
<polygon fill="#63b8ff" stroke="#63b8ff" points="338.9,-38.72 347.7,-32.83 337.15,-31.94 338.9,-38.72"/>
</a>
</g>
</g>
<!-- Node6 -->
<g id="Node000006" class="node">
<title>Node6</title>
<g id="a_Node000006"><a xlink:href="class_g_l_e_s_c_1_1_e_c_s_1_1_entity_manager.html#a5145504091eb26170aa219acb60aca71" target="_top" xlink:title="Check if the entity with the given name exists.">
<polygon fill="white" stroke="#666666" points="678.25,-107 534,-107 534,-75 678.25,-75 678.25,-107"/>
<text text-anchor="start" x="542" y="-93.5" font-family="Helvetica,sans-Serif" font-size="10.00">GLESC::ECS::EntityManager</text>
<text text-anchor="middle" x="606.12" y="-81.5" font-family="Helvetica,sans-Serif" font-size="10.00">::doesEntityExist</text>
</a>
</g>
</g>
<!-- Node5&#45;&gt;Node6 -->
<g id="edge5_Node000005_Node000006" class="edge">
<title>Node5&#45;&gt;Node6</title>
<g id="a_edge5_Node000005_Node000006"><a xlink:title=" ">
<path fill="none" stroke="#63b8ff" d="M486.26,-75.38C498,-76.92 510.27,-78.53 522.26,-80.11"/>
<polygon fill="#63b8ff" stroke="#63b8ff" points="521.79,-83.58 532.16,-81.41 522.7,-76.64 521.79,-83.58"/>
</a>
</g>
</g>
<!-- Node7 -->
<g id="Node000007" class="node">
<title>Node7</title>
<g id="a_Node000007"><a xlink:href="class_g_l_e_s_c_1_1_e_c_s_1_1_entity_manager.html#a54e81951030afee74dd6ea3c4e2b74e5" target="_top" xlink:title="Check if the component ID is in the range of the signature.">
<polygon fill="white" stroke="#666666" points="678.25,-57 534,-57 534,-25 678.25,-25 678.25,-57"/>
<text text-anchor="start" x="542" y="-43.5" font-family="Helvetica,sans-Serif" font-size="10.00">GLESC::ECS::EntityManager</text>
<text text-anchor="middle" x="606.12" y="-31.5" font-family="Helvetica,sans-Serif" font-size="10.00">::isComponentInRange</text>
</a>
</g>
</g>
<!-- Node5&#45;&gt;Node7 -->
<g id="edge6_Node000005_Node000007" class="edge">
<title>Node5&#45;&gt;Node7</title>
<g id="a_edge6_Node000005_Node000007"><a xlink:title=" ">
<path fill="none" stroke="#63b8ff" d="M486.26,-56.62C498,-55.08 510.27,-53.47 522.26,-51.89"/>
<polygon fill="#63b8ff" stroke="#63b8ff" points="522.7,-55.36 532.16,-50.59 521.79,-48.42 522.7,-55.36"/>
</a>
</g>
</g>
</g>
</svg>
