<?xml version="1.0" encoding="UTF-8" standalone="no"?>
<!DOCTYPE svg PUBLIC "-//W3C//DTD SVG 1.1//EN"
 "http://www.w3.org/Graphics/SVG/1.1/DTD/svg11.dtd">
<!-- Generated by graphviz version 11.0.0 (20240428.1522)
 -->
<!-- Title: GLESC::Math::VectorAlgorithms::dehomogenize Pages: 1 -->
<!--zoomable 40 -->

<svg id="main" version="1.1" xmlns="http://www.w3.org/2000/svg" xmlns:xlink="http://www.w3.org/1999/xlink" xml:space="preserve" onload="init(evt)">
<style type="text/css"><![CDATA[
.node, .edge {opacity: 0.7;}
.node.selected, .edge.selected {opacity: 1;}
.edge:hover path { stroke: red; }
.edge:hover polygon { stroke: red; fill: red; }
]]></style>

<defs>
  <circle id="rim" cx="0" cy="0" r="7"/>
  <circle id="rim2" cx="0" cy="0" r="3.5"/>
  <g id="zoomPlus">
    <use xlink:href="#rim" fill="#404040"><set attributeName="fill" to="#808080" begin="zoomplus.mouseover" end="zoomplus.mouseout"/></use>
    <path d="M-4,0h8M0,-4v8" fill="none" stroke="white" stroke-width="1.5" pointer-events="none"/>
  </g>
  <g id="zoomMin">
    <use xlink:href="#rim" fill="#404040"><set attributeName="fill" to="#808080" begin="zoomminus.mouseover" end="zoomminus.mouseout"/></use>
    <path d="M-4,0h8" fill="none" stroke="white" stroke-width="1.5" pointer-events="none"/>
  </g>
  <g id="arrowUp" transform="translate(30 24)">
    <use xlink:href="#rim"/>
    <path pointer-events="none" fill="none" stroke="white" stroke-width="1.5" d="M0,-3.0v7 M-2.5,-0.5L0,-3.0L2.5,-0.5"/>
  </g>
  <g id="arrowRight" transform="rotate(90) translate(36 -43)">
    <use xlink:href="#rim"/>
    <path pointer-events="none" fill="none" stroke="white" stroke-width="1.5" d="M0,-3.0v7 M-2.5,-0.5L0,-3.0L2.5,-0.5"/>
  </g>
  <g id="arrowDown" transform="rotate(180) translate(-30 -48)">
    <use xlink:href="#rim"/>
    <path pointer-events="none" fill="none" stroke="white" stroke-width="1.5" d="M0,-3.0v7 M-2.5,-0.5L0,-3.0L2.5,-0.5"/>
  </g>
  <g id="arrowLeft" transform="rotate(270) translate(-36 17)">
    <use xlink:href="#rim"/>
    <path pointer-events="none" fill="none" stroke="white" stroke-width="1.5" d="M0,-3.0v7 M-2.5,-0.5L0,-3.0L2.5,-0.5"/>
  </g>
  <g id="resetDef">
    <use xlink:href="#rim2" fill="#404040"><set attributeName="fill" to="#808080" begin="reset.mouseover" end="reset.mouseout"/></use>
  </g>
</defs>
<script type="application/ecmascript">
var viewWidth = 864;
var viewHeight = 40;
var sectionId = 'dynsection-13';
</script>
<script type="application/ecmascript" xlink:href="svg.min.js"/>
<svg id="graph" class="graph">
<g id="viewport">
<title>GLESC::Math::VectorAlgorithms::dehomogenize</title>
<!-- Node1 -->
<g id="Node000001" class="node">
<title>Node1</title>
<g id="a_Node000001"><a xlink:title="Dehomogenizes a vector.">
<polygon fill="#999999" stroke="#666666" points="855.5,-32 697.75,-32 697.75,0 855.5,0 855.5,-32"/>
<text text-anchor="start" x="705.75" y="-18.5" font-family="Helvetica,sans-Serif" font-size="10.00">GLESC::Math::VectorAlgorithms</text>
<text text-anchor="middle" x="776.62" y="-6.5" font-family="Helvetica,sans-Serif" font-size="10.00">::dehomogenize</text>
</a>
</g>
</g>
<!-- Node2 -->
<g id="Node000002" class="node">
<title>Node2</title>
<g id="a_Node000002"><a xlink:href="class_g_l_e_s_c_1_1_math_1_1_vector.html#a8913aa86e1b8a6453aacb419120a3857" target="_top" xlink:title="Dehomogenizes the vector.">
<polygon fill="white" stroke="#666666" points="661.75,-32 550.5,-32 550.5,0 661.75,0 661.75,-32"/>
<text text-anchor="start" x="558.5" y="-18.5" font-family="Helvetica,sans-Serif" font-size="10.00">GLESC::Math::Vector</text>
<text text-anchor="middle" x="606.12" y="-6.5" font-family="Helvetica,sans-Serif" font-size="10.00">::dehomogenize</text>
</a>
</g>
</g>
<!-- Node1&#45;&gt;Node2 -->
<g id="edge1_Node000001_Node000002" class="edge">
<title>Node1&#45;&gt;Node2</title>
<g id="a_edge1_Node000001_Node000002"><a xlink:title=" ">
<path fill="none" stroke="#63b8ff" d="M685.88,-16C677.82,-16 669.82,-16 662.19,-16"/>
<polygon fill="#63b8ff" stroke="#63b8ff" points="685.78,-19.5 695.78,-16 685.78,-12.5 685.78,-19.5"/>
</a>
</g>
</g>
<!-- Node3 -->
<g id="Node000003" class="node">
<title>Node3</title>
<g id="a_Node000003"><a xlink:href="class_g_l_e_s_c_1_1_transform_1_1_transformer.html#a9539ec619440203589c9a2cc13145500" target="_top" xlink:title="Transforms the clip position to normalized device coordinates.">
<polygon fill="white" stroke="#666666" points="514.5,-32 359.75,-32 359.75,0 514.5,0 514.5,-32"/>
<text text-anchor="start" x="367.75" y="-18.5" font-family="Helvetica,sans-Serif" font-size="10.00">GLESC::Transform::Transformer</text>
<text text-anchor="middle" x="437.12" y="-6.5" font-family="Helvetica,sans-Serif" font-size="10.00">::clipToNDC</text>
</a>
</g>
</g>
<!-- Node2&#45;&gt;Node3 -->
<g id="edge2_Node000002_Node000003" class="edge">
<title>Node2&#45;&gt;Node3</title>
<g id="a_edge2_Node000002_Node000003"><a xlink:title=" ">
<path fill="none" stroke="#63b8ff" d="M538.98,-16C531.02,-16 522.84,-16 514.75,-16"/>
<polygon fill="#63b8ff" stroke="#63b8ff" points="538.93,-19.5 548.93,-16 538.93,-12.5 538.93,-19.5"/>
</a>
</g>
</g>
<!-- Node4 -->
<g id="Node000004" class="node">
<title>Node4</title>
<g id="a_Node000004"><a xlink:href="class_g_l_e_s_c_1_1_transform_1_1_transformer.html#a867084113e8ae0eaaf7473f9c1d0a80b" target="_top" xlink:title="Transforms the world position to viewport coordinates.">
<polygon fill="white" stroke="#666666" points="323.75,-32 169,-32 169,0 323.75,0 323.75,-32"/>
<text text-anchor="start" x="177" y="-18.5" font-family="Helvetica,sans-Serif" font-size="10.00">GLESC::Transform::Transformer</text>
<text text-anchor="middle" x="246.38" y="-6.5" font-family="Helvetica,sans-Serif" font-size="10.00">::worldToViewport</text>
</a>
</g>
</g>
<!-- Node3&#45;&gt;Node4 -->
<g id="edge3_Node000003_Node000004" class="edge">
<title>Node3&#45;&gt;Node4</title>
<g id="a_edge3_Node000003_Node000004"><a xlink:title=" ">
<path fill="none" stroke="#63b8ff" d="M348.08,-16C340.07,-16 331.99,-16 324.08,-16"/>
<polygon fill="#63b8ff" stroke="#63b8ff" points="347.84,-19.5 357.84,-16 347.84,-12.5 347.84,-19.5"/>
</a>
</g>
</g>
<!-- Node5 -->
<g id="Node000005" class="node">
<title>Node5</title>
<g id="a_Node000005"><a xlink:href="class_g_l_e_s_c_1_1_h_u_d_1_1_debug_items.html#a071eef410cb7de5482dd9df35d468b68" target="_top" xlink:title=" ">
<polygon fill="white" stroke="#666666" points="133,-32 0,-32 0,0 133,0 133,-32"/>
<text text-anchor="start" x="8" y="-18.5" font-family="Helvetica,sans-Serif" font-size="10.00">GLESC::HUD::DebugItems</text>
<text text-anchor="middle" x="66.5" y="-6.5" font-family="Helvetica,sans-Serif" font-size="10.00">::windowContent</text>
</a>
</g>
</g>
<!-- Node4&#45;&gt;Node5 -->
<g id="edge4_Node000004_Node000005" class="edge">
<title>Node4&#45;&gt;Node5</title>
<g id="a_edge4_Node000004_Node000005"><a xlink:title=" ">
<path fill="none" stroke="#63b8ff" d="M157.29,-16C149.24,-16 141.17,-16 133.36,-16"/>
<polygon fill="#63b8ff" stroke="#63b8ff" points="157.14,-19.5 167.14,-16 157.14,-12.5 157.14,-19.5"/>
</a>
</g>
</g>
</g>
</svg>

<g id="navigator" transform="translate(0 0)" fill="#404254">
  <rect fill="#f2f5e9" fill-opacity="0.5" stroke="#606060" stroke-width=".5" x="0" y="0" width="60" height="60"/>
  <use id="zoomplus" xlink:href="#zoomPlus" x="17" y="9" onmousedown="handleZoom(evt,'in')"/>
  <use id="zoomminus" xlink:href="#zoomMin" x="42" y="9" onmousedown="handleZoom(evt,'out')"/>
  <use id="reset" xlink:href="#resetDef" x="30" y="36" onmousedown="handleReset()"/>
   <use id="arrowup" xlink:href="#arrowUp" x="0" y="0" onmousedown="handlePan(0,-1)"/>
  <use id="arrowright" xlink:href="#arrowRight" x="0" y="0" onmousedown="handlePan(1,0)"/>
  <use id="arrowdown" xlink:href="#arrowDown" x="0" y="0" onmousedown="handlePan(0,1)"/>
  <use id="arrowleft" xlink:href="#arrowLeft" x="0" y="0" onmousedown="handlePan(-1,0)"/>
</g>
<svg viewBox="0 0 15 15" width="100%" height="30px" preserveAspectRatio="xMaxYMin meet">
 <g id="arrow_out" transform="scale(0.3 0.3)">
  <a xlink:href="class_g_l_e_s_c_1_1_math_1_1_vector_algorithms_af4cdeacecee1abea0c1c9e50e7765340_icgraph_org.svg" target="_base">
   <rect id="button" ry="5" rx="5" y="6" x="6" height="38" width="38"
        fill="#f2f5e9" fill-opacity="0.5" stroke="#606060" stroke-width="1.0"/>
   <path id="arrow"
     d="M 11.500037,31.436501 C 11.940474,20.09759 22.043105,11.32322 32.158766,21.979434 L 37.068811,17.246167 C 37.068811,17.246167 37.088388,32 37.088388,32 L 22.160133,31.978069 C 22.160133,31.978069 26.997745,27.140456 26.997745,27.140456 C 18.528582,18.264221 13.291696,25.230495 11.500037,31.436501 z"
     style="fill:#404040;"/>
  </a>
 </g>
</svg>

<style type='text/css'>
<![CDATA[
[data-mouse-over-selected='false'] { opacity: 0.7; }
[data-mouse-over-selected='true']  { opacity: 1.0; }
]]>
</style>
<script type="application/ecmascript"><![CDATA[
document.addEventListener('DOMContentLoaded', (event) => {
  highlightEdges();
  highlightAdjacentNodes();
});
]]></script>
</svg>
