<?xml version="1.0" encoding="UTF-8" standalone="no"?>
<!DOCTYPE svg PUBLIC "-//W3C//DTD SVG 1.1//EN"
 "http://www.w3.org/Graphics/SVG/1.1/DTD/svg11.dtd">
<!-- Generated by graphviz version 11.0.0 (20240428.1522)
 -->
<!-- Title: GLESC::ECS::System::getAssociatedEntities Pages: 1 -->
<svg width="698pt" height="178pt"
 viewBox="0.00 0.00 697.50 178.00" xmlns="http://www.w3.org/2000/svg" xmlns:xlink="http://www.w3.org/1999/xlink">
<g id="graph0" class="graph" transform="scale(1 1) rotate(0) translate(4 174)">
<title>GLESC::ECS::System::getAssociatedEntities</title>
<!-- Node1 -->
<g id="Node000001" class="node">
<title>Node1</title>
<g id="a_Node000001"><a xlink:title="Gets the entities associated with the system.">
<polygon fill="#999999" stroke="#666666" points="117.25,-98 0,-98 0,-66 117.25,-66 117.25,-98"/>
<text text-anchor="start" x="8" y="-84.5" font-family="Helvetica,sans-Serif" font-size="10.00">GLESC::ECS::System</text>
<text text-anchor="middle" x="58.62" y="-72.5" font-family="Helvetica,sans-Serif" font-size="10.00">::getAssociatedEntities</text>
</a>
</g>
</g>
<!-- Node2 -->
<g id="Node000002" class="node">
<title>Node2</title>
<g id="a_Node000002"><a xlink:href="class_g_l_e_s_c_1_1_e_c_s_1_1_e_c_s_coordinator.html#a73636f46c1a9f0bd7f380524210cf4b4" target="_top" xlink:title="Get the entities associated with a system.">
<polygon fill="white" stroke="#666666" points="304.25,-98 153.25,-98 153.25,-66 304.25,-66 304.25,-98"/>
<text text-anchor="start" x="161.25" y="-84.5" font-family="Helvetica,sans-Serif" font-size="10.00">GLESC::ECS::ECSCoordinator</text>
<text text-anchor="middle" x="228.75" y="-72.5" font-family="Helvetica,sans-Serif" font-size="10.00">::getAssociatedEntities</text>
</a>
</g>
</g>
<!-- Node1&#45;&gt;Node2 -->
<g id="edge1_Node000001_Node000002" class="edge">
<title>Node1&#45;&gt;Node2</title>
<g id="a_edge1_Node000001_Node000002"><a xlink:title=" ">
<path fill="none" stroke="#63b8ff" d="M117.48,-82C125.23,-82 133.31,-82 141.41,-82"/>
<polygon fill="#63b8ff" stroke="#63b8ff" points="141.35,-85.5 151.35,-82 141.35,-78.5 141.35,-85.5"/>
</a>
</g>
</g>
<!-- Node3 -->
<g id="Node000003" class="node">
<title>Node3</title>
<g id="a_Node000003"><a xlink:href="class_g_l_e_s_c_1_1_e_c_s_1_1_entity_manager.html#a5145504091eb26170aa219acb60aca71" target="_top" xlink:title="Check if the entity with the given name exists.">
<polygon fill="white" stroke="#666666" points="492.75,-170 348.5,-170 348.5,-138 492.75,-138 492.75,-170"/>
<text text-anchor="start" x="356.5" y="-156.5" font-family="Helvetica,sans-Serif" font-size="10.00">GLESC::ECS::EntityManager</text>
<text text-anchor="middle" x="420.62" y="-144.5" font-family="Helvetica,sans-Serif" font-size="10.00">::doesEntityExist</text>
</a>
</g>
</g>
<!-- Node2&#45;&gt;Node3 -->
<g id="edge2_Node000002_Node000003" class="edge">
<title>Node2&#45;&gt;Node3</title>
<g id="a_edge2_Node000002_Node000003"><a xlink:title=" ">
<path fill="none" stroke="#63b8ff" d="M265.73,-98.35C287.16,-107.82 315.02,-119.69 340.25,-129 344.87,-130.71 349.67,-132.4 354.52,-134.06"/>
<polygon fill="#63b8ff" stroke="#63b8ff" points="353.13,-137.29 363.73,-137.14 355.35,-130.65 353.13,-137.29"/>
</a>
</g>
</g>
<!-- Node4 -->
<g id="Node000004" class="node">
<title>Node4</title>
<g id="a_Node000004"><a xlink:href="class_g_l_e_s_c_1_1_e_c_s_1_1_system_manager.html#a283c04f81e82970a822c9696ddab2319" target="_top" xlink:title="Gets the entities associated with a system. The system must be registered.">
<polygon fill="white" stroke="#666666" points="501,-120 340.25,-120 340.25,-88 501,-88 501,-120"/>
<text text-anchor="start" x="348.25" y="-106.5" font-family="Helvetica,sans-Serif" font-size="10.00">GLESC::ECS::SystemManager</text>
<text text-anchor="middle" x="420.62" y="-94.5" font-family="Helvetica,sans-Serif" font-size="10.00">::getAssociatedEntitiesOfSystem</text>
</a>
</g>
</g>
<!-- Node2&#45;&gt;Node4 -->
<g id="edge3_Node000002_Node000004" class="edge">
<title>Node2&#45;&gt;Node4</title>
<g id="a_edge3_Node000002_Node000004"><a xlink:title=" ">
<path fill="none" stroke="#63b8ff" d="M304.52,-90.66C312.42,-91.58 320.52,-92.52 328.57,-93.45"/>
<polygon fill="#63b8ff" stroke="#63b8ff" points="328.08,-96.92 338.41,-94.59 328.88,-89.96 328.08,-96.92"/>
</a>
</g>
</g>
<!-- Node5 -->
<g id="Node000005" class="node">
<title>Node5</title>
<g id="a_Node000005"><a xlink:href="class_g_l_e_s_c_1_1_e_c_s_1_1_system_manager.html#a32f415d7a7e0cefc9e1b5c71a4dc1be4" target="_top" xlink:title="Checks if a system is registered.">
<polygon fill="white" stroke="#666666" points="689.5,-98 537,-98 537,-66 689.5,-66 689.5,-98"/>
<text text-anchor="start" x="545" y="-84.5" font-family="Helvetica,sans-Serif" font-size="10.00">GLESC::ECS::SystemManager</text>
<text text-anchor="middle" x="613.25" y="-72.5" font-family="Helvetica,sans-Serif" font-size="10.00">::isSystemRegistered</text>
</a>
</g>
</g>
<!-- Node2&#45;&gt;Node5 -->
<g id="edge6_Node000002_Node000005" class="edge">
<title>Node2&#45;&gt;Node5</title>
<g id="a_edge6_Node000002_Node000005"><a xlink:title=" ">
<path fill="none" stroke="#63b8ff" d="M304.64,-79.69C316.55,-79.4 328.74,-79.16 340.25,-79 411.69,-78.03 429.56,-78.04 501,-79 508.81,-79.11 516.93,-79.25 525.07,-79.42"/>
<polygon fill="#63b8ff" stroke="#63b8ff" points="524.96,-82.92 535.04,-79.65 525.12,-75.93 524.96,-82.92"/>
</a>
</g>
</g>
<!-- Node6 -->
<g id="Node000006" class="node">
<title>Node6</title>
<g id="a_Node000006"><a xlink:href="class_g_l_e_s_c_1_1_e_c_s_1_1_system_manager.html#abe8641c2514be36e652e7f77d0ed87a5" target="_top" xlink:title="Checks if an entity is associated with a system.">
<polygon fill="white" stroke="#666666" points="499.5,-32 341.75,-32 341.75,0 499.5,0 499.5,-32"/>
<text text-anchor="start" x="349.75" y="-18.5" font-family="Helvetica,sans-Serif" font-size="10.00">GLESC::ECS::SystemManager</text>
<text text-anchor="middle" x="420.62" y="-6.5" font-family="Helvetica,sans-Serif" font-size="10.00">::isEntityAssociatedWithSystem</text>
</a>
</g>
</g>
<!-- Node2&#45;&gt;Node6 -->
<g id="edge5_Node000002_Node000006" class="edge">
<title>Node2&#45;&gt;Node6</title>
<g id="a_edge5_Node000002_Node000006"><a xlink:title=" ">
<path fill="none" stroke="#63b8ff" d="M277.17,-65.52C302.87,-56.58 334.83,-45.48 361.95,-36.05"/>
<polygon fill="#63b8ff" stroke="#63b8ff" points="362.75,-39.47 371.05,-32.89 360.45,-32.86 362.75,-39.47"/>
</a>
</g>
</g>
<!-- Node4&#45;&gt;Node5 -->
<g id="edge4_Node000004_Node000005" class="edge">
<title>Node4&#45;&gt;Node5</title>
<g id="a_edge4_Node000004_Node000005"><a xlink:title=" ">
<path fill="none" stroke="#63b8ff" d="M501.36,-94.8C509.34,-93.88 517.46,-92.94 525.5,-92.01"/>
<polygon fill="#63b8ff" stroke="#63b8ff" points="525.76,-95.51 535.29,-90.88 524.96,-88.55 525.76,-95.51"/>
</a>
</g>
</g>
</g>
</svg>
