<?xml version="1.0" encoding="UTF-8" standalone="no"?>
<!DOCTYPE svg PUBLIC "-//W3C//DTD SVG 1.1//EN"
 "http://www.w3.org/Graphics/SVG/1.1/DTD/svg11.dtd">
<!-- Generated by graphviz version 11.0.0 (20240428.1522)
 -->
<!-- Title: GLESC::Logger::error Pages: 1 -->
<svg width="446pt" height="113pt"
 viewBox="0.00 0.00 446.00 113.00" xmlns="http://www.w3.org/2000/svg" xmlns:xlink="http://www.w3.org/1999/xlink">
<g id="graph0" class="graph" transform="scale(1 1) rotate(0) translate(4 109)">
<title>GLESC::Logger::error</title>
<!-- Node1 -->
<g id="Node000001" class="node">
<title>Node1</title>
<g id="a_Node000001"><a xlink:title="Display error messages Background – Red Text – Black Bold.">
<polygon fill="#999999" stroke="#666666" points="109.75,-61 0,-61 0,-41 109.75,-41 109.75,-61"/>
<text text-anchor="middle" x="54.88" y="-47.5" font-family="Helvetica,sans-Serif" font-size="10.00">GLESC::Logger::error</text>
</a>
</g>
</g>
<!-- Node2 -->
<g id="Node000002" class="node">
<title>Node2</title>
<g id="a_Node000002"><a xlink:href="class_i_logger.html#a706ee2794de85391d0fcad52d851d1ec" target="_top" xlink:title="Display error messages Background – Red Text – Black Bold.">
<polygon fill="white" stroke="#666666" points="251,-105 178,-105 178,-85 251,-85 251,-105"/>
<text text-anchor="middle" x="214.5" y="-91.5" font-family="Helvetica,sans-Serif" font-size="10.00">ILogger::error</text>
</a>
</g>
</g>
<!-- Node1&#45;&gt;Node2 -->
<g id="edge1_Node000001_Node000002" class="edge">
<title>Node1&#45;&gt;Node2</title>
<g id="a_edge1_Node000001_Node000002"><a xlink:title=" ">
<path fill="none" stroke="#63b8ff" d="M93.23,-61.43C115.31,-67.59 143.47,-75.45 166.99,-82.02"/>
<polygon fill="#63b8ff" stroke="#63b8ff" points="165.74,-85.3 176.31,-84.62 167.62,-78.56 165.74,-85.3"/>
</a>
</g>
</g>
<!-- Node3 -->
<g id="Node000003" class="node">
<title>Node3</title>
<g id="a_Node000003"><a xlink:href="class_g_l_e_s_c_1_1_logger.html#adcc4730c087b2df0b97cccc15557e432" target="_top" xlink:title=" ">
<polygon fill="white" stroke="#666666" points="283.25,-67 145.75,-67 145.75,-35 283.25,-35 283.25,-67"/>
<text text-anchor="start" x="153.75" y="-53.5" font-family="Helvetica,sans-Serif" font-size="10.00">GLESC::Logger::executeOn</text>
<text text-anchor="middle" x="214.5" y="-41.5" font-family="Helvetica,sans-Serif" font-size="10.00">AllInputs</text>
</a>
</g>
</g>
<!-- Node1&#45;&gt;Node3 -->
<g id="edge2_Node000001_Node000003" class="edge">
<title>Node1&#45;&gt;Node3</title>
<g id="a_edge2_Node000001_Node000003"><a xlink:title=" ">
<path fill="none" stroke="#63b8ff" d="M110.12,-51C117.87,-51 125.97,-51 134.08,-51"/>
<polygon fill="#63b8ff" stroke="#63b8ff" points="134,-54.5 144,-51 134,-47.5 134,-54.5"/>
</a>
</g>
</g>
<!-- Node5 -->
<g id="Node000005" class="node">
<title>Node5</title>
<g id="a_Node000005"><a xlink:href="_debug_entity_data_h_u_d_8cpp.html#a9acf295be457442cac6bccc0bf75112c" target="_top" xlink:title=" ">
<polygon fill="white" stroke="#666666" points="394.88,-20 362.38,-20 362.38,0 394.88,0 394.88,-20"/>
<text text-anchor="middle" x="378.62" y="-6.5" font-family="Helvetica,sans-Serif" font-size="10.00">text</text>
</a>
</g>
</g>
<!-- Node1&#45;&gt;Node5 -->
<g id="edge5_Node000001_Node000005" class="edge">
<title>Node1&#45;&gt;Node5</title>
<g id="a_edge5_Node000001_Node000005"><a xlink:title=" ">
<path fill="none" stroke="#63b8ff" d="M87.13,-40.63C104.25,-35.37 125.96,-29.4 145.75,-26 219.21,-13.38 307.37,-10.64 350.78,-10.1"/>
<polygon fill="#63b8ff" stroke="#63b8ff" points="350.55,-13.6 360.51,-10.01 350.48,-6.6 350.55,-13.6"/>
</a>
</g>
</g>
<!-- Node4 -->
<g id="Node000004" class="node">
<title>Node4</title>
<g id="a_Node000004"><a xlink:href="class_concurrent_queue.html#a7d61d602747cee9adf97076d2781023c" target="_top" xlink:title=" ">
<polygon fill="white" stroke="#666666" points="438,-61 319.25,-61 319.25,-41 438,-41 438,-61"/>
<text text-anchor="middle" x="378.62" y="-47.5" font-family="Helvetica,sans-Serif" font-size="10.00">ConcurrentQueue::push</text>
</a>
</g>
</g>
<!-- Node3&#45;&gt;Node4 -->
<g id="edge3_Node000003_Node000004" class="edge">
<title>Node3&#45;&gt;Node4</title>
<g id="a_edge3_Node000003_Node000004"><a xlink:title=" ">
<path fill="none" stroke="#63b8ff" d="M283.32,-51C291.34,-51 299.54,-51 307.59,-51"/>
<polygon fill="#63b8ff" stroke="#63b8ff" points="307.32,-54.5 317.32,-51 307.32,-47.5 307.32,-54.5"/>
</a>
</g>
</g>
<!-- Node3&#45;&gt;Node5 -->
<g id="edge4_Node000003_Node000005" class="edge">
<title>Node3&#45;&gt;Node5</title>
<g id="a_edge4_Node000003_Node000005"><a xlink:title=" ">
<path fill="none" stroke="#63b8ff" d="M280.51,-34.56C305.05,-28.35 331.64,-21.63 350.78,-16.79"/>
<polygon fill="#63b8ff" stroke="#63b8ff" points="351.61,-20.19 360.45,-14.34 349.9,-13.4 351.61,-20.19"/>
</a>
</g>
</g>
</g>
</svg>
