<?xml version="1.0" encoding="UTF-8" standalone="no"?>
<!DOCTYPE svg PUBLIC "-//W3C//DTD SVG 1.1//EN"
 "http://www.w3.org/Graphics/SVG/1.1/DTD/svg11.dtd">
<!-- Generated by graphviz version 11.0.0 (20240428.1522)
 -->
<!-- Title: GLESC::ECS::ComponentArray::printStatus Pages: 1 -->
<svg width="657pt" height="180pt"
 viewBox="0.00 0.00 657.00 179.84" xmlns="http://www.w3.org/2000/svg" xmlns:xlink="http://www.w3.org/1999/xlink">
<g id="graph0" class="graph" transform="scale(1 1) rotate(0) translate(4 175.84)">
<title>GLESC::ECS::ComponentArray::printStatus</title>
<!-- Node1 -->
<g id="Node000001" class="node">
<title>Node1</title>
<g id="a_Node000001"><a xlink:title="Print the status of the component array.">
<polygon fill="#999999" stroke="#666666" points="154,-117.84 0,-117.84 0,-85.84 154,-85.84 154,-117.84"/>
<text text-anchor="start" x="8" y="-104.34" font-family="Helvetica,sans-Serif" font-size="10.00">GLESC::ECS::ComponentArray</text>
<text text-anchor="middle" x="77" y="-92.34" font-family="Helvetica,sans-Serif" font-size="10.00">::printStatus</text>
</a>
</g>
</g>
<!-- Node2 -->
<g id="Node000002" class="node">
<title>Node2</title>
<g id="a_Node000002"><a xlink:href="class_g_l_e_s_c_1_1_logger.html#a9b12ce53593be134b7d7dea62607d22d" target="_top" xlink:title=" ">
<polygon fill="white" stroke="#666666" points="307.25,-155.84 203.5,-155.84 203.5,-135.84 307.25,-135.84 307.25,-155.84"/>
<text text-anchor="middle" x="255.38" y="-142.34" font-family="Helvetica,sans-Serif" font-size="10.00">GLESC::Logger::get</text>
</a>
</g>
</g>
<!-- Node1&#45;&gt;Node2 -->
<g id="edge1_Node000001_Node000002" class="edge">
<title>Node1&#45;&gt;Node2</title>
<g id="a_edge1_Node000001_Node000002"><a xlink:title=" ">
<path fill="none" stroke="#63b8ff" d="M143.93,-118.28C162.8,-122.99 183.12,-128.06 201.13,-132.55"/>
<polygon fill="#63b8ff" stroke="#63b8ff" points="200.28,-135.95 210.83,-134.97 201.98,-129.16 200.28,-135.95"/>
</a>
</g>
</g>
<!-- Node3 -->
<g id="Node000003" class="node">
<title>Node3</title>
<g id="a_Node000003"><a xlink:href="class_g_l_e_s_c_1_1_logger.html#a2e78e5eb40e0fad6ac6fc1c3843f146e" target="_top" xlink:title="Display important information Background – Light Blue Text – Black.">
<polygon fill="white" stroke="#666666" points="320.75,-117.84 190,-117.84 190,-85.84 320.75,-85.84 320.75,-117.84"/>
<text text-anchor="start" x="198" y="-104.34" font-family="Helvetica,sans-Serif" font-size="10.00">GLESC::Logger::important</text>
<text text-anchor="middle" x="255.38" y="-92.34" font-family="Helvetica,sans-Serif" font-size="10.00">InfoBlue</text>
</a>
</g>
</g>
<!-- Node1&#45;&gt;Node3 -->
<g id="edge2_Node000001_Node000003" class="edge">
<title>Node1&#45;&gt;Node3</title>
<g id="a_edge2_Node000001_Node000003"><a xlink:title=" ">
<path fill="none" stroke="#63b8ff" d="M154.33,-101.84C162.22,-101.84 170.23,-101.84 178.11,-101.84"/>
<polygon fill="#63b8ff" stroke="#63b8ff" points="178.02,-105.34 188.02,-101.84 178.02,-98.34 178.02,-105.34"/>
</a>
</g>
</g>
<!-- Node8 -->
<g id="Node000008" class="node">
<title>Node8</title>
<g id="a_Node000008"><a xlink:href="class_g_l_e_s_c_1_1_logger.html#a93fe7ba4cc02b4d3216040a66339d8fa" target="_top" xlink:title="Display basic information Background – Black Text – Light Blue.">
<polygon fill="white" stroke="#666666" points="317.75,-67.84 193,-67.84 193,-47.84 317.75,-47.84 317.75,-67.84"/>
<text text-anchor="middle" x="255.38" y="-54.34" font-family="Helvetica,sans-Serif" font-size="10.00">GLESC::Logger::infoBlue</text>
</a>
</g>
</g>
<!-- Node1&#45;&gt;Node8 -->
<g id="edge8_Node000001_Node000008" class="edge">
<title>Node1&#45;&gt;Node8</title>
<g id="a_edge8_Node000001_Node000008"><a xlink:title=" ">
<path fill="none" stroke="#63b8ff" d="M143.93,-85.39C162.8,-80.68 183.12,-75.61 201.13,-71.12"/>
<polygon fill="#63b8ff" stroke="#63b8ff" points="201.98,-74.52 210.83,-68.7 200.28,-67.72 201.98,-74.52"/>
</a>
</g>
</g>
<!-- Node4 -->
<g id="Node000004" class="node">
<title>Node4</title>
<g id="a_Node000004"><a xlink:href="class_g_l_e_s_c_1_1_logger.html#adcc4730c087b2df0b97cccc15557e432" target="_top" xlink:title=" ">
<polygon fill="white" stroke="#666666" points="494.25,-95.84 356.75,-95.84 356.75,-63.84 494.25,-63.84 494.25,-95.84"/>
<text text-anchor="start" x="364.75" y="-82.34" font-family="Helvetica,sans-Serif" font-size="10.00">GLESC::Logger::executeOn</text>
<text text-anchor="middle" x="425.5" y="-70.34" font-family="Helvetica,sans-Serif" font-size="10.00">AllInputs</text>
</a>
</g>
</g>
<!-- Node3&#45;&gt;Node4 -->
<g id="edge3_Node000003_Node000004" class="edge">
<title>Node3&#45;&gt;Node4</title>
<g id="a_edge3_Node000003_Node000004"><a xlink:title=" ">
<path fill="none" stroke="#63b8ff" d="M320.9,-93.39C328.83,-92.36 337,-91.29 345.12,-90.22"/>
<polygon fill="#63b8ff" stroke="#63b8ff" points="345.56,-93.7 355.03,-88.93 344.66,-86.76 345.56,-93.7"/>
</a>
</g>
</g>
<!-- Node6 -->
<g id="Node000006" class="node">
<title>Node6</title>
<g id="a_Node000006"><a xlink:href="_debug_entity_data_h_u_d_8cpp.html#a9acf295be457442cac6bccc0bf75112c" target="_top" xlink:title=" ">
<polygon fill="white" stroke="#666666" points="605.88,-108.84 573.38,-108.84 573.38,-88.84 605.88,-88.84 605.88,-108.84"/>
<text text-anchor="middle" x="589.62" y="-95.34" font-family="Helvetica,sans-Serif" font-size="10.00">text</text>
</a>
</g>
</g>
<!-- Node3&#45;&gt;Node6 -->
<g id="edge7_Node000003_Node000006" class="edge">
<title>Node3&#45;&gt;Node6</title>
<g id="a_edge7_Node000003_Node000006"><a xlink:title=" ">
<path fill="none" stroke="#63b8ff" d="M321,-104.2C368.85,-105.57 435.63,-106.7 494.25,-104.84 517,-104.11 542.79,-102.42 561.65,-101.01"/>
<polygon fill="#63b8ff" stroke="#63b8ff" points="561.73,-104.51 571.43,-100.26 561.19,-97.53 561.73,-104.51"/>
</a>
</g>
</g>
<!-- Node7 -->
<g id="Node000007" class="node">
<title>Node7</title>
<g id="a_Node000007"><a xlink:href="class_i_logger.html#ae5d5f2c819b93915acbe329708c1e2fb" target="_top" xlink:title="Display important information Background – Light Blue Text – Black.">
<polygon fill="white" stroke="#666666" points="489.75,-171.84 361.25,-171.84 361.25,-151.84 489.75,-151.84 489.75,-171.84"/>
<text text-anchor="middle" x="425.5" y="-158.34" font-family="Helvetica,sans-Serif" font-size="10.00">ILogger::importantInfoBlue</text>
</a>
</g>
</g>
<!-- Node3&#45;&gt;Node7 -->
<g id="edge6_Node000003_Node000007" class="edge">
<title>Node3&#45;&gt;Node7</title>
<g id="a_edge6_Node000003_Node000007"><a xlink:title=" ">
<path fill="none" stroke="#63b8ff" d="M302.08,-118.27C319.22,-124.43 338.88,-131.47 356.75,-137.84 365.61,-140.99 375.12,-144.37 384.14,-147.57"/>
<polygon fill="#63b8ff" stroke="#63b8ff" points="382.79,-150.8 393.38,-150.84 385.13,-144.2 382.79,-150.8"/>
</a>
</g>
</g>
<!-- Node5 -->
<g id="Node000005" class="node">
<title>Node5</title>
<g id="a_Node000005"><a xlink:href="class_concurrent_queue.html#a7d61d602747cee9adf97076d2781023c" target="_top" xlink:title=" ">
<polygon fill="white" stroke="#666666" points="649,-70.84 530.25,-70.84 530.25,-50.84 649,-50.84 649,-70.84"/>
<text text-anchor="middle" x="589.62" y="-57.34" font-family="Helvetica,sans-Serif" font-size="10.00">ConcurrentQueue::push</text>
</a>
</g>
</g>
<!-- Node4&#45;&gt;Node5 -->
<g id="edge4_Node000004_Node000005" class="edge">
<title>Node4&#45;&gt;Node5</title>
<g id="a_edge4_Node000004_Node000005"><a xlink:title=" ">
<path fill="none" stroke="#63b8ff" d="M494.32,-71.89C502.34,-70.95 510.54,-69.99 518.59,-69.05"/>
<polygon fill="#63b8ff" stroke="#63b8ff" points="518.81,-72.54 528.33,-67.9 517.99,-65.59 518.81,-72.54"/>
</a>
</g>
</g>
<!-- Node4&#45;&gt;Node6 -->
<g id="edge5_Node000004_Node000006" class="edge">
<title>Node4&#45;&gt;Node6</title>
<g id="a_edge5_Node000004_Node000006"><a xlink:title=" ">
<path fill="none" stroke="#63b8ff" d="M494.32,-87.78C518.12,-90.57 543.49,-93.55 561.91,-95.71"/>
<polygon fill="#63b8ff" stroke="#63b8ff" points="561.35,-99.16 571.69,-96.85 562.16,-92.21 561.35,-99.16"/>
</a>
</g>
</g>
<!-- Node8&#45;&gt;Node4 -->
<g id="edge9_Node000008_Node000004" class="edge">
<title>Node8&#45;&gt;Node4</title>
<g id="a_edge9_Node000008_Node000004"><a xlink:title=" ">
<path fill="none" stroke="#63b8ff" d="M318.02,-65.9C326.79,-67.05 335.9,-68.24 344.95,-69.43"/>
<polygon fill="#63b8ff" stroke="#63b8ff" points="344.46,-72.89 354.83,-70.72 345.37,-65.95 344.46,-72.89"/>
</a>
</g>
</g>
<!-- Node8&#45;&gt;Node6 -->
<g id="edge11_Node000008_Node000006" class="edge">
<title>Node8&#45;&gt;Node6</title>
<g id="a_edge11_Node000008_Node000006"><a xlink:title=" ">
<path fill="none" stroke="#63b8ff" d="M273.89,-47.46C315.26,-24.44 421.03,25.65 494.25,-16.84 522.14,-33.02 505.24,-59.48 530.25,-79.84 539.29,-87.2 551.27,-91.74 562.02,-94.52"/>
<polygon fill="#63b8ff" stroke="#63b8ff" points="561.02,-97.89 571.53,-96.59 562.5,-91.05 561.02,-97.89"/>
</a>
</g>
</g>
<!-- Node9 -->
<g id="Node000009" class="node">
<title>Node9</title>
<g id="a_Node000009"><a xlink:href="class_i_logger.html#ae0865ea122828562ba5b6e66a367ddc4" target="_top" xlink:title="Display basic information Background – Black Text – Light Blue.">
<polygon fill="white" stroke="#666666" points="469.5,-45.84 381.5,-45.84 381.5,-25.84 469.5,-25.84 469.5,-45.84"/>
<text text-anchor="middle" x="425.5" y="-32.34" font-family="Helvetica,sans-Serif" font-size="10.00">ILogger::infoBlue</text>
</a>
</g>
</g>
<!-- Node8&#45;&gt;Node9 -->
<g id="edge10_Node000008_Node000009" class="edge">
<title>Node8&#45;&gt;Node9</title>
<g id="a_edge10_Node000008_Node000009"><a xlink:title=" ">
<path fill="none" stroke="#63b8ff" d="M318.02,-49.77C335,-47.55 353.3,-45.15 369.86,-42.99"/>
<polygon fill="#63b8ff" stroke="#63b8ff" points="370.04,-46.49 379.5,-41.73 369.13,-39.55 370.04,-46.49"/>
</a>
</g>
</g>
</g>
</svg>
