<?xml version="1.0" encoding="UTF-8" standalone="no"?>
<!DOCTYPE svg PUBLIC "-//W3C//DTD SVG 1.1//EN"
 "http://www.w3.org/Graphics/SVG/1.1/DTD/svg11.dtd">
<!-- Generated by graphviz version 11.0.0 (20240428.1522)
 -->
<!-- Title: EngineException Pages: 1 -->
<svg width="190pt" height="376pt"
 viewBox="0.00 0.00 190.00 376.00" xmlns="http://www.w3.org/2000/svg" xmlns:xlink="http://www.w3.org/1999/xlink">

<svg id="main" version="1.1" xmlns="http://www.w3.org/2000/svg" xmlns:xlink="http://www.w3.org/1999/xlink" xml:space="preserve" onload="init(evt)">
<style type="text/css"><![CDATA[
.node, .edge {opacity: 0.7;}
.node.selected, .edge.selected {opacity: 1;}
.edge:hover path { stroke: red; }
.edge:hover polygon { stroke: red; fill: red; }
]]></style>
<script type="application/ecmascript" xlink:href="svg.min.js"/>
<svg id="graph" class="graph">
<g id="graph0" class="graph" transform="scale(1 1) rotate(0) translate(4 372)">
<title>EngineException</title>
<!-- Node1 -->
<g id="Node000001" class="node">
<title>Node1</title>
<g id="a_Node000001"><a xlink:title=" ">
<polygon fill="#999999" stroke="none" points="134.5,-52 37.5,-52 37.5,0 134.5,0 134.5,-52"/>
<text text-anchor="start" x="49.25" y="-38.5" font-family="Helvetica,sans-Serif" font-size="10.00">EngineException</text>
<text text-anchor="start" x="84.5" y="-22.5" font-family="Helvetica,sans-Serif" font-size="10.00"> </text>
<text text-anchor="start" x="41.5" y="-6.5" font-family="Helvetica,sans-Serif" font-size="10.00">+</text>
<text text-anchor="start" x="51.5" y="-6.5" font-family="Helvetica,sans-Serif" font-size="10.00">EngineException()</text>
<polygon fill="#666666" stroke="#666666" points="37.5,-34 37.5,-34 134.5,-34 134.5,-34 37.5,-34"/>
<polygon fill="#666666" stroke="#666666" points="37.5,-18 37.5,-18 134.5,-18 134.5,-18 37.5,-18"/>
<polygon fill="none" stroke="#666666" points="37.5,0 37.5,-52 134.5,-52 134.5,0 37.5,0"/>
</a>
</g>
</g>
<!-- Node2 -->
<g id="Node000002" class="node">
<title>Node2</title>
<g id="a_Node000002"><a xlink:href="class_base_exception.html" target="_top" xlink:title=" ">
<polygon fill="white" stroke="none" points="130.5,-156 41.5,-156 41.5,-88 130.5,-88 130.5,-156"/>
<text text-anchor="start" x="53" y="-142.5" font-family="Helvetica,sans-Serif" font-size="10.00">BaseException</text>
<text text-anchor="start" x="84.5" y="-126.5" font-family="Helvetica,sans-Serif" font-size="10.00"> </text>
<text text-anchor="start" x="45.38" y="-110.5" font-family="Helvetica,sans-Serif" font-size="10.00">#</text>
<text text-anchor="start" x="54.5" y="-110.5" font-family="Helvetica,sans-Serif" font-size="10.00">BaseException()</text>
<text text-anchor="start" x="45.38" y="-94.5" font-family="Helvetica,sans-Serif" font-size="10.00">#</text>
<text text-anchor="start" x="54.5" y="-94.5" font-family="Helvetica,sans-Serif" font-size="10.00">what()</text>
<polygon fill="#666666" stroke="#666666" points="41.5,-138 41.5,-138 130.5,-138 130.5,-138 41.5,-138"/>
<polygon fill="#666666" stroke="#666666" points="41.5,-122 41.5,-122 130.5,-122 130.5,-122 41.5,-122"/>
<polygon fill="none" stroke="#666666" points="41.5,-88 41.5,-156 130.5,-156 130.5,-88 41.5,-88"/>
</a>
</g>
</g>
<!-- Node2&#45;&gt;Node1 -->
<g id="edge1_Node000001_Node000002" class="edge">
<title>Node2&#45;&gt;Node1</title>
<g id="a_edge1_Node000001_Node000002"><a xlink:title=" ">
<path fill="none" stroke="#63b8ff" d="M86,-76.62C86,-68.05 86,-59.37 86,-51.71"/>
<polygon fill="none" stroke="#63b8ff" points="82.5,-76.61 86,-86.61 89.5,-76.61 82.5,-76.61"/>
</a>
</g>
</g>
<!-- Node3 -->
<g id="Node000003" class="node">
<title>Node3</title>
<g id="a_Node000003"><a xlink:title=" ">
<polygon fill="white" stroke="none" points="86,-268 0,-268 0,-216 86,-216 86,-268"/>
<text text-anchor="start" x="4.75" y="-254.5" font-family="Helvetica,sans-Serif" font-size="10.00">std::runtime_error</text>
<text text-anchor="start" x="41.5" y="-238.5" font-family="Helvetica,sans-Serif" font-size="10.00"> </text>
<text text-anchor="start" x="41.5" y="-222.5" font-family="Helvetica,sans-Serif" font-size="10.00"> </text>
<polygon fill="#666666" stroke="#666666" points="0,-250 0,-250 86,-250 86,-250 0,-250"/>
<polygon fill="#666666" stroke="#666666" points="0,-234 0,-234 86,-234 86,-234 0,-234"/>
<polygon fill="none" stroke="#666666" points="0,-216 0,-268 86,-268 86,-216 0,-216"/>
</a>
</g>
</g>
<!-- Node3&#45;&gt;Node2 -->
<g id="edge2_Node000002_Node000003" class="edge">
<title>Node3&#45;&gt;Node2</title>
<g id="a_edge2_Node000002_Node000003"><a xlink:title=" ">
<path fill="none" stroke="#63b8ff" d="M55.83,-205.8C61.61,-189.94 68.39,-171.33 74.06,-155.77"/>
<polygon fill="none" stroke="#63b8ff" points="52.67,-204.25 52.53,-214.84 59.24,-206.64 52.67,-204.25"/>
</a>
</g>
</g>
<!-- Node4 -->
<g id="Node000004" class="node">
<title>Node4</title>
<g id="a_Node000004"><a xlink:title=" ">
<polygon fill="white" stroke="none" points="75.5,-362 4.5,-362 4.5,-310 75.5,-310 75.5,-362"/>
<text text-anchor="start" x="9.25" y="-348.5" font-family="Helvetica,sans-Serif" font-size="10.00">std::exception</text>
<text text-anchor="start" x="38.5" y="-332.5" font-family="Helvetica,sans-Serif" font-size="10.00"> </text>
<text text-anchor="start" x="38.5" y="-316.5" font-family="Helvetica,sans-Serif" font-size="10.00"> </text>
<polygon fill="#666666" stroke="#666666" points="4.5,-344 4.5,-344 75.5,-344 75.5,-344 4.5,-344"/>
<polygon fill="#666666" stroke="#666666" points="4.5,-328 4.5,-328 75.5,-328 75.5,-328 4.5,-328"/>
<polygon fill="none" stroke="#666666" points="4.5,-310 4.5,-362 75.5,-362 75.5,-310 4.5,-310"/>
</a>
</g>
</g>
<!-- Node4&#45;&gt;Node3 -->
<g id="edge3_Node000003_Node000004" class="edge">
<title>Node4&#45;&gt;Node3</title>
<g id="a_edge3_Node000003_Node000004"><a xlink:title=" ">
<path fill="none" stroke="#63b8ff" d="M41.18,-298.96C41.52,-288.5 41.88,-277.32 42.19,-267.72"/>
<polygon fill="none" stroke="#63b8ff" points="37.68,-298.72 40.85,-308.83 44.68,-298.95 37.68,-298.72"/>
</a>
</g>
</g>
<!-- Node5 -->
<g id="Node000005" class="node">
<title>Node5</title>
<g id="a_Node000005"><a xlink:title=" ">
<polygon fill="white" stroke="none" points="162.5,-268 109.5,-268 109.5,-216 162.5,-216 162.5,-268"/>
<text text-anchor="start" x="114.25" y="-254.5" font-family="Helvetica,sans-Serif" font-size="10.00">std::string</text>
<text text-anchor="start" x="134.5" y="-238.5" font-family="Helvetica,sans-Serif" font-size="10.00"> </text>
<text text-anchor="start" x="134.5" y="-222.5" font-family="Helvetica,sans-Serif" font-size="10.00"> </text>
<polygon fill="#666666" stroke="#666666" points="109.5,-250 109.5,-250 162.5,-250 162.5,-250 109.5,-250"/>
<polygon fill="#666666" stroke="#666666" points="109.5,-234 109.5,-234 162.5,-234 162.5,-234 109.5,-234"/>
<polygon fill="none" stroke="#666666" points="109.5,-216 109.5,-268 162.5,-268 162.5,-216 109.5,-216"/>
</a>
</g>
</g>
<!-- Node5&#45;&gt;Node2 -->
<g id="edge4_Node000002_Node000005" class="edge">
<title>Node5&#45;&gt;Node2</title>
<g id="a_edge4_Node000002_Node000005"><a xlink:title=" ">
<path fill="none" stroke="#63b8ff" d="M125.52,-216.26C119.53,-202.12 111.83,-183.97 104.83,-167.44"/>
<polygon fill="none" stroke="#63b8ff" points="104.92,-167.65 98.89,-163.68 100.24,-156.6 106.26,-160.56 104.92,-167.65"/>
</a>
</g>
<text text-anchor="middle" x="146" y="-188.5" font-family="Helvetica,sans-Serif" font-size="10.00" fill="grey"> #fullMessage</text>
<text text-anchor="middle" x="146" y="-176.5" font-family="Helvetica,sans-Serif" font-size="10.00" fill="grey">#stacktrace</text>
</g>
<!-- Node6 -->
<g id="Node000006" class="node">
<title>Node6</title>
<g id="a_Node000006"><a xlink:title=" ">
<polygon fill="white" stroke="none" points="182,-368 94,-368 94,-304 182,-304 182,-368"/>
<text text-anchor="start" x="99" y="-354.5" font-family="Helvetica,sans-Serif" font-size="10.00">std::basic_string&lt;</text>
<text text-anchor="start" x="121.88" y="-342.5" font-family="Helvetica,sans-Serif" font-size="10.00"> Char &gt;</text>
<text text-anchor="start" x="136.5" y="-326.5" font-family="Helvetica,sans-Serif" font-size="10.00"> </text>
<text text-anchor="start" x="136.5" y="-310.5" font-family="Helvetica,sans-Serif" font-size="10.00"> </text>
<polygon fill="#666666" stroke="#666666" points="94,-338 94,-338 182,-338 182,-338 94,-338"/>
<polygon fill="#666666" stroke="#666666" points="94,-322 94,-322 182,-322 182,-322 94,-322"/>
<polygon fill="none" stroke="#666666" points="94,-304 94,-368 182,-368 182,-304 94,-304"/>
</a>
</g>
</g>
<!-- Node6&#45;&gt;Node5 -->
<g id="edge5_Node000005_Node000006" class="edge">
<title>Node6&#45;&gt;Node5</title>
<g id="a_edge5_Node000005_Node000006"><a xlink:title=" ">
<path fill="none" stroke="#63b8ff" d="M137.08,-292.72C136.9,-284.21 136.71,-275.53 136.54,-267.86"/>
<polygon fill="none" stroke="#63b8ff" points="133.58,-292.67 137.3,-302.6 140.58,-292.52 133.58,-292.67"/>
</a>
</g>
</g>
</g>
</svg>
</svg>

<style type='text/css'>
<![CDATA[
[data-mouse-over-selected='false'] { opacity: 0.7; }
[data-mouse-over-selected='true']  { opacity: 1.0; }
]]>
</style>
<script type="application/ecmascript"><![CDATA[
document.addEventListener('DOMContentLoaded', (event) => {
  highlightEdges();
  highlightAdjacentNodes();
});
]]></script>
</svg>
