<?xml version="1.0" encoding="UTF-8" standalone="no"?>
<!DOCTYPE svg PUBLIC "-//W3C//DTD SVG 1.1//EN"
 "http://www.w3.org/Graphics/SVG/1.1/DTD/svg11.dtd">
<!-- Generated by graphviz version 11.0.0 (20240428.1522)
 -->
<!-- Title: GLESC::Render::Intensity::get Pages: 1 -->
<svg width="906pt" height="440pt"
 viewBox="0.00 0.00 905.75 440.00" xmlns="http://www.w3.org/2000/svg" xmlns:xlink="http://www.w3.org/1999/xlink">
<g id="graph0" class="graph" transform="scale(1 1) rotate(0) translate(4 436)">
<title>GLESC::Render::Intensity::get</title>
<!-- Node1 -->
<g id="Node000001" class="node">
<title>Node1</title>
<g id="a_Node000001"><a xlink:title=" ">
<polygon fill="#999999" stroke="#666666" points="897.75,-226 749.75,-226 749.75,-206 897.75,-206 897.75,-226"/>
<text text-anchor="middle" x="823.75" y="-212.5" font-family="Helvetica,sans-Serif" font-size="10.00">GLESC::Render::Intensity::get</text>
</a>
</g>
</g>
<!-- Node2 -->
<g id="Node000002" class="node">
<title>Node2</title>
<g id="a_Node000002"><a xlink:href="class_g_l_e_s_c_1_1_render_1_1_fog.html#abdb5bd4a63f169c6c707956d7c954044" target="_top" xlink:title=" ">
<polygon fill="white" stroke="#666666" points="699.5,-432 591.25,-432 591.25,-400 699.5,-400 699.5,-432"/>
<text text-anchor="start" x="599.25" y="-418.5" font-family="Helvetica,sans-Serif" font-size="10.00">GLESC::Render::Fog</text>
<text text-anchor="middle" x="645.38" y="-406.5" font-family="Helvetica,sans-Serif" font-size="10.00">::getDensity</text>
</a>
</g>
</g>
<!-- Node1&#45;&gt;Node2 -->
<g id="edge1_Node000001_Node000002" class="edge">
<title>Node1&#45;&gt;Node2</title>
<g id="a_edge1_Node000001_Node000002"><a xlink:title=" ">
<path fill="none" stroke="#63b8ff" d="M815.14,-236.61C800.77,-272.83 766.3,-348.11 713.75,-391 709.5,-394.47 704.72,-397.49 699.71,-400.1"/>
<polygon fill="#63b8ff" stroke="#63b8ff" points="818.24,-238.32 818.55,-227.73 811.7,-235.81 818.24,-238.32"/>
</a>
</g>
</g>
<!-- Node3 -->
<g id="Node000003" class="node">
<title>Node3</title>
<g id="a_Node000003"><a xlink:href="class_g_l_e_s_c_1_1_render_1_1_material.html#a48434fb4dcf5bd105e462acd8ad4a1ee" target="_top" xlink:title=" ">
<polygon fill="white" stroke="#666666" points="708.5,-382 582.25,-382 582.25,-350 708.5,-350 708.5,-382"/>
<text text-anchor="start" x="590.25" y="-368.5" font-family="Helvetica,sans-Serif" font-size="10.00">GLESC::Render::Material</text>
<text text-anchor="middle" x="645.38" y="-356.5" font-family="Helvetica,sans-Serif" font-size="10.00">::getDiffuseIntensity</text>
</a>
</g>
</g>
<!-- Node1&#45;&gt;Node3 -->
<g id="edge2_Node000001_Node000003" class="edge">
<title>Node1&#45;&gt;Node3</title>
<g id="a_edge2_Node000001_Node000003"><a xlink:title=" ">
<path fill="none" stroke="#63b8ff" d="M810.13,-235.88C791.92,-263.12 755.79,-311.96 713.75,-341 709.13,-344.19 704.05,-347.03 698.82,-349.55"/>
<polygon fill="#63b8ff" stroke="#63b8ff" points="813.04,-237.83 815.58,-227.54 807.18,-234 813.04,-237.83"/>
</a>
</g>
</g>
<!-- Node8 -->
<g id="Node000008" class="node">
<title>Node8</title>
<g id="a_Node000008"><a xlink:href="class_g_l_e_s_c_1_1_render_1_1_material.html#aa2c848ad8a36da2259d71b0cccfb2ceb" target="_top" xlink:title=" ">
<polygon fill="white" stroke="#666666" points="708.5,-332 582.25,-332 582.25,-300 708.5,-300 708.5,-332"/>
<text text-anchor="start" x="590.25" y="-318.5" font-family="Helvetica,sans-Serif" font-size="10.00">GLESC::Render::Material</text>
<text text-anchor="middle" x="645.38" y="-306.5" font-family="Helvetica,sans-Serif" font-size="10.00">::getEmissionIntensity</text>
</a>
</g>
</g>
<!-- Node1&#45;&gt;Node8 -->
<g id="edge7_Node000001_Node000008" class="edge">
<title>Node1&#45;&gt;Node8</title>
<g id="a_edge7_Node000001_Node000008"><a xlink:title=" ">
<path fill="none" stroke="#63b8ff" d="M801.15,-233.26C779.86,-249.68 745.92,-274.29 713.75,-291 707.88,-294.05 701.56,-296.9 695.21,-299.52"/>
<polygon fill="#63b8ff" stroke="#63b8ff" points="803.08,-236.19 808.8,-227.28 798.77,-230.68 803.08,-236.19"/>
</a>
</g>
</g>
<!-- Node9 -->
<g id="Node000009" class="node">
<title>Node9</title>
<g id="a_Node000009"><a xlink:href="class_g_l_e_s_c_1_1_render_1_1_global_sun.html#ab2eb1cc53781b74b01928b392e41412c" target="_top" xlink:title=" ">
<polygon fill="white" stroke="#666666" points="713.75,-282 577,-282 577,-250 713.75,-250 713.75,-282"/>
<text text-anchor="start" x="585" y="-268.5" font-family="Helvetica,sans-Serif" font-size="10.00">GLESC::Render::GlobalSun</text>
<text text-anchor="middle" x="645.38" y="-256.5" font-family="Helvetica,sans-Serif" font-size="10.00">::getIntensity</text>
</a>
</g>
</g>
<!-- Node1&#45;&gt;Node9 -->
<g id="edge9_Node000001_Node000009" class="edge">
<title>Node1&#45;&gt;Node9</title>
<g id="a_edge9_Node000001_Node000009"><a xlink:title=" ">
<path fill="none" stroke="#63b8ff" d="M774.84,-229.58C753.13,-235.74 727.28,-243.06 704.48,-249.53"/>
<polygon fill="#63b8ff" stroke="#63b8ff" points="775.65,-232.99 784.32,-226.89 773.74,-226.25 775.65,-232.99"/>
</a>
</g>
</g>
<!-- Node10 -->
<g id="Node000010" class="node">
<title>Node10</title>
<g id="a_Node000010"><a xlink:href="struct_g_l_e_s_c_1_1_render_1_1_light_point.html#ad3fbf61cb424a458eddc68949546b79d" target="_top" xlink:title=" ">
<polygon fill="white" stroke="#666666" points="713,-132 577.75,-132 577.75,-100 713,-100 713,-132"/>
<text text-anchor="start" x="585.75" y="-118.5" font-family="Helvetica,sans-Serif" font-size="10.00">GLESC::Render::LightPoint</text>
<text text-anchor="middle" x="645.38" y="-106.5" font-family="Helvetica,sans-Serif" font-size="10.00">::getIntensity</text>
</a>
</g>
</g>
<!-- Node1&#45;&gt;Node10 -->
<g id="edge10_Node000001_Node000010" class="edge">
<title>Node1&#45;&gt;Node10</title>
<g id="a_edge10_Node000001_Node000010"><a xlink:title=" ">
<path fill="none" stroke="#63b8ff" d="M801.15,-198.74C779.86,-182.32 745.92,-157.71 713.75,-141 707.88,-137.95 701.56,-135.1 695.21,-132.48"/>
<polygon fill="#63b8ff" stroke="#63b8ff" points="798.77,-201.32 808.8,-204.72 803.08,-195.81 798.77,-201.32"/>
</a>
</g>
</g>
<!-- Node12 -->
<g id="Node000012" class="node">
<title>Node12</title>
<g id="a_Node000012"><a xlink:href="class_g_l_e_s_c_1_1_render_1_1_material.html#a443dac631732701962950d4d63b7d46b" target="_top" xlink:title=" ">
<polygon fill="white" stroke="#666666" points="708.5,-232 582.25,-232 582.25,-200 708.5,-200 708.5,-232"/>
<text text-anchor="start" x="590.25" y="-218.5" font-family="Helvetica,sans-Serif" font-size="10.00">GLESC::Render::Material</text>
<text text-anchor="middle" x="645.38" y="-206.5" font-family="Helvetica,sans-Serif" font-size="10.00">::getShininess</text>
</a>
</g>
</g>
<!-- Node1&#45;&gt;Node12 -->
<g id="edge13_Node000001_Node000012" class="edge">
<title>Node1&#45;&gt;Node12</title>
<g id="a_edge13_Node000001_Node000012"><a xlink:title=" ">
<path fill="none" stroke="#63b8ff" d="M737.98,-216C728.13,-216 718.23,-216 708.76,-216"/>
<polygon fill="#63b8ff" stroke="#63b8ff" points="737.97,-219.5 747.97,-216 737.97,-212.5 737.97,-219.5"/>
</a>
</g>
</g>
<!-- Node13 -->
<g id="Node000013" class="node">
<title>Node13</title>
<g id="a_Node000013"><a xlink:href="class_g_l_e_s_c_1_1_render_1_1_material.html#a43ac6591769079dc8e36b7db3dd2af47" target="_top" xlink:title=" ">
<polygon fill="white" stroke="#666666" points="708.5,-182 582.25,-182 582.25,-150 708.5,-150 708.5,-182"/>
<text text-anchor="start" x="590.25" y="-168.5" font-family="Helvetica,sans-Serif" font-size="10.00">GLESC::Render::Material</text>
<text text-anchor="middle" x="645.38" y="-156.5" font-family="Helvetica,sans-Serif" font-size="10.00">::getSpecularIntensity</text>
</a>
</g>
</g>
<!-- Node1&#45;&gt;Node13 -->
<g id="edge15_Node000001_Node000013" class="edge">
<title>Node1&#45;&gt;Node13</title>
<g id="a_edge15_Node000001_Node000013"><a xlink:title=" ">
<path fill="none" stroke="#63b8ff" d="M774.84,-202.42C753.13,-196.26 727.28,-188.94 704.48,-182.47"/>
<polygon fill="#63b8ff" stroke="#63b8ff" points="773.74,-205.75 784.32,-205.11 775.65,-199.01 773.74,-205.75"/>
</a>
</g>
</g>
<!-- Node14 -->
<g id="Node000014" class="node">
<title>Node14</title>
<g id="a_Node000014"><a xlink:href="class_g_l_e_s_c_1_1_engine_camera.html#a63dae1933350d3e10798719c19db2870" target="_top" xlink:title="Rotates the camera based on the mouse movement.">
<polygon fill="white" stroke="#666666" points="704.75,-82 586,-82 586,-50 704.75,-50 704.75,-82"/>
<text text-anchor="start" x="594" y="-68.5" font-family="Helvetica,sans-Serif" font-size="10.00">GLESC::EngineCamera</text>
<text text-anchor="middle" x="645.38" y="-56.5" font-family="Helvetica,sans-Serif" font-size="10.00">::rotate</text>
</a>
</g>
</g>
<!-- Node1&#45;&gt;Node14 -->
<g id="edge17_Node000001_Node000014" class="edge">
<title>Node1&#45;&gt;Node14</title>
<g id="a_edge17_Node000001_Node000014"><a xlink:title=" ">
<path fill="none" stroke="#63b8ff" d="M810.13,-196.12C791.92,-168.88 755.79,-120.04 713.75,-91 709.13,-87.81 704.05,-84.97 698.82,-82.45"/>
<polygon fill="#63b8ff" stroke="#63b8ff" points="807.18,-198 815.58,-204.46 813.04,-194.17 807.18,-198"/>
</a>
</g>
</g>
<!-- Node17 -->
<g id="Node000017" class="node">
<title>Node17</title>
<g id="a_Node000017"><a xlink:href="class_g_l_e_s_c_1_1_render_1_1_fog.html#af49dd56c8f6a9af557de0e72590efca0" target="_top" xlink:title=" ">
<polygon fill="white" stroke="#666666" points="699.5,-32 591.25,-32 591.25,0 699.5,0 699.5,-32"/>
<text text-anchor="start" x="599.25" y="-18.5" font-family="Helvetica,sans-Serif" font-size="10.00">GLESC::Render::Fog</text>
<text text-anchor="middle" x="645.38" y="-6.5" font-family="Helvetica,sans-Serif" font-size="10.00">::toString</text>
</a>
</g>
</g>
<!-- Node1&#45;&gt;Node17 -->
<g id="edge20_Node000001_Node000017" class="edge">
<title>Node1&#45;&gt;Node17</title>
<g id="a_edge20_Node000001_Node000017"><a xlink:title=" ">
<path fill="none" stroke="#63b8ff" d="M815.14,-195.39C800.77,-159.17 766.3,-83.89 713.75,-41 709.5,-37.53 704.72,-34.51 699.71,-31.9"/>
<polygon fill="#63b8ff" stroke="#63b8ff" points="811.7,-196.19 818.55,-204.27 818.24,-193.68 811.7,-196.19"/>
</a>
</g>
</g>
<!-- Node4 -->
<g id="Node000004" class="node">
<title>Node4</title>
<g id="a_Node000004"><a xlink:href="class_g_l_e_s_c_1_1_render_1_1_renderer.html#a8424374b350690f034c330a92393b182" target="_top" xlink:title="This encapsulates the application of the material, setting all the uniforms of the material shader.">
<polygon fill="white" stroke="#666666" points="532.75,-232 402,-232 402,-200 532.75,-200 532.75,-232"/>
<text text-anchor="start" x="410" y="-218.5" font-family="Helvetica,sans-Serif" font-size="10.00">GLESC::Render::Renderer</text>
<text text-anchor="middle" x="467.38" y="-206.5" font-family="Helvetica,sans-Serif" font-size="10.00">::applyMaterial</text>
</a>
</g>
</g>
<!-- Node3&#45;&gt;Node4 -->
<g id="edge3_Node000003_Node000004" class="edge">
<title>Node3&#45;&gt;Node4</title>
<g id="a_edge3_Node000003_Node000004"><a xlink:title=" ">
<path fill="none" stroke="#63b8ff" d="M581.91,-344.17C580.23,-343.15 578.59,-342.1 577,-341 533.03,-310.57 495.61,-258.37 478.44,-232.1"/>
<polygon fill="#63b8ff" stroke="#63b8ff" points="580.12,-347.18 590.59,-348.84 583.44,-341.02 580.12,-347.18"/>
</a>
</g>
</g>
<!-- Node5 -->
<g id="Node000005" class="node">
<title>Node5</title>
<g id="a_Node000005"><a xlink:href="class_g_l_e_s_c_1_1_render_1_1_renderer.html#a3244ebc15bf8310257ec613f62d00a33" target="_top" xlink:title="This renders the frame.">
<polygon fill="white" stroke="#666666" points="357.75,-194 227,-194 227,-162 357.75,-162 357.75,-194"/>
<text text-anchor="start" x="235" y="-180.5" font-family="Helvetica,sans-Serif" font-size="10.00">GLESC::Render::Renderer</text>
<text text-anchor="middle" x="292.38" y="-168.5" font-family="Helvetica,sans-Serif" font-size="10.00">::render</text>
</a>
</g>
</g>
<!-- Node4&#45;&gt;Node5 -->
<g id="edge4_Node000004_Node000005" class="edge">
<title>Node4&#45;&gt;Node5</title>
<g id="a_edge4_Node000004_Node000005"><a xlink:title=" ">
<path fill="none" stroke="#63b8ff" d="M390.74,-199.39C379.87,-197 368.77,-194.56 358.14,-192.22"/>
<polygon fill="#63b8ff" stroke="#63b8ff" points="389.96,-202.8 400.48,-201.53 391.46,-195.96 389.96,-202.8"/>
</a>
</g>
</g>
<!-- Node6 -->
<g id="Node000006" class="node">
<title>Node6</title>
<g id="a_Node000006"><a xlink:href="class_g_l_e_s_c_1_1_engine.html#ab0a886855ca341089947b36b9c6f6e15" target="_top" xlink:title="Processes the rendering of the game Can be called at variable intervals of time as it uses elapsed.">
<polygon fill="white" stroke="#666666" points="191,-188 73,-188 73,-168 191,-168 191,-188"/>
<text text-anchor="middle" x="132" y="-174.5" font-family="Helvetica,sans-Serif" font-size="10.00">GLESC::Engine::render</text>
</a>
</g>
</g>
<!-- Node5&#45;&gt;Node6 -->
<g id="edge5_Node000005_Node000006" class="edge">
<title>Node5&#45;&gt;Node6</title>
<g id="a_edge5_Node000005_Node000006"><a xlink:title=" ">
<path fill="none" stroke="#63b8ff" d="M215.24,-178C207.23,-178 199.18,-178 191.42,-178"/>
<polygon fill="#63b8ff" stroke="#63b8ff" points="214.99,-181.5 224.99,-178 214.99,-174.5 214.99,-181.5"/>
</a>
</g>
</g>
<!-- Node7 -->
<g id="Node000007" class="node">
<title>Node7</title>
<g id="a_Node000007"><a xlink:href="src_2engine_2main_8cpp.html#a0ddf1224851353fc92bfbff6f499fa97" target="_top" xlink:title=" ">
<polygon fill="white" stroke="#666666" points="37,-188 0,-188 0,-168 37,-168 37,-188"/>
<text text-anchor="middle" x="18.5" y="-174.5" font-family="Helvetica,sans-Serif" font-size="10.00">main</text>
</a>
</g>
</g>
<!-- Node6&#45;&gt;Node7 -->
<g id="edge6_Node000006_Node000007" class="edge">
<title>Node6&#45;&gt;Node7</title>
<g id="a_edge6_Node000006_Node000007"><a xlink:title=" ">
<path fill="none" stroke="#63b8ff" d="M61.31,-178C52.52,-178 44.22,-178 37.37,-178"/>
<polygon fill="#63b8ff" stroke="#63b8ff" points="61.12,-181.5 71.12,-178 61.12,-174.5 61.12,-181.5"/>
</a>
</g>
</g>
<!-- Node8&#45;&gt;Node4 -->
<g id="edge8_Node000008_Node000004" class="edge">
<title>Node8&#45;&gt;Node4</title>
<g id="a_edge8_Node000008_Node000004"><a xlink:title=" ">
<path fill="none" stroke="#63b8ff" d="M585.22,-295.03C582.41,-293.73 579.66,-292.38 577,-291 544.27,-273.97 509.74,-248.7 488.63,-232.28"/>
<polygon fill="#63b8ff" stroke="#63b8ff" points="583.58,-298.13 594.15,-298.92 586.38,-291.72 583.58,-298.13"/>
</a>
</g>
</g>
<!-- Node11 -->
<g id="Node000011" class="node">
<title>Node11</title>
<g id="a_Node000011"><a xlink:href="class_g_l_e_s_c_1_1_render_1_1_renderer.html#aa1a9e1d79bb96f79ee1e421dd245bbf1" target="_top" xlink:title="This encapsulates the rendering of the lights, setting the uniforms.">
<polygon fill="white" stroke="#666666" points="532.75,-157 402,-157 402,-125 532.75,-125 532.75,-157"/>
<text text-anchor="start" x="410" y="-143.5" font-family="Helvetica,sans-Serif" font-size="10.00">GLESC::Render::Renderer</text>
<text text-anchor="middle" x="467.38" y="-131.5" font-family="Helvetica,sans-Serif" font-size="10.00">::renderLights</text>
</a>
</g>
</g>
<!-- Node10&#45;&gt;Node11 -->
<g id="edge11_Node000010_Node000011" class="edge">
<title>Node10&#45;&gt;Node11</title>
<g id="a_edge11_Node000010_Node000011"><a xlink:title=" ">
<path fill="none" stroke="#63b8ff" d="M566.01,-127.13C555.04,-128.69 543.87,-130.28 533.2,-131.79"/>
<polygon fill="#63b8ff" stroke="#63b8ff" points="566.43,-130.61 575.84,-125.74 565.44,-123.68 566.43,-130.61"/>
</a>
</g>
</g>
<!-- Node11&#45;&gt;Node5 -->
<g id="edge12_Node000011_Node000005" class="edge">
<title>Node11&#45;&gt;Node5</title>
<g id="a_edge12_Node000011_Node000005"><a xlink:title=" ">
<path fill="none" stroke="#63b8ff" d="M390.74,-157.18C379.87,-159.5 368.77,-161.88 358.14,-164.15"/>
<polygon fill="#63b8ff" stroke="#63b8ff" points="391.43,-160.61 400.48,-155.09 389.97,-153.76 391.43,-160.61"/>
</a>
</g>
</g>
<!-- Node12&#45;&gt;Node4 -->
<g id="edge14_Node000012_Node000004" class="edge">
<title>Node12&#45;&gt;Node4</title>
<g id="a_edge14_Node000012_Node000004"><a xlink:title=" ">
<path fill="none" stroke="#63b8ff" d="M570.54,-216C558.11,-216 545.28,-216 533.1,-216"/>
<polygon fill="#63b8ff" stroke="#63b8ff" points="570.31,-219.5 580.31,-216 570.31,-212.5 570.31,-219.5"/>
</a>
</g>
</g>
<!-- Node13&#45;&gt;Node4 -->
<g id="edge16_Node000013_Node000004" class="edge">
<title>Node13&#45;&gt;Node4</title>
<g id="a_edge16_Node000013_Node000004"><a xlink:title=" ">
<path fill="none" stroke="#63b8ff" d="M576.13,-185.39C559.71,-190.05 542.33,-194.99 526.43,-199.51"/>
<polygon fill="#63b8ff" stroke="#63b8ff" points="576.63,-188.89 585.29,-182.79 574.71,-182.15 576.63,-188.89"/>
</a>
</g>
</g>
<!-- Node15 -->
<g id="Node000015" class="node">
<title>Node15</title>
<g id="a_Node000015"><a xlink:href="class_g_l_e_s_c_1_1_engine_camera.html#a3f37b288117cbbf684843bf4b88acb72" target="_top" xlink:title="Prepares the camera entity with its components and it&#39;s initial values.">
<polygon fill="white" stroke="#666666" points="526.75,-82 408,-82 408,-50 526.75,-50 526.75,-82"/>
<text text-anchor="start" x="416" y="-68.5" font-family="Helvetica,sans-Serif" font-size="10.00">GLESC::EngineCamera</text>
<text text-anchor="middle" x="467.38" y="-56.5" font-family="Helvetica,sans-Serif" font-size="10.00">::setupCamera</text>
</a>
</g>
</g>
<!-- Node14&#45;&gt;Node15 -->
<g id="edge18_Node000014_Node000015" class="edge">
<title>Node14&#45;&gt;Node15</title>
<g id="a_edge18_Node000014_Node000015"><a xlink:title=" ">
<path fill="none" stroke="#63b8ff" d="M574.49,-66C558.77,-66 542.24,-66 527.02,-66"/>
<polygon fill="#63b8ff" stroke="#63b8ff" points="574.26,-69.5 584.26,-66 574.26,-62.5 574.26,-69.5"/>
</a>
</g>
</g>
<!-- Node16 -->
<g id="Node000016" class="node">
<title>Node16</title>
<g id="a_Node000016"><a xlink:href="class_g_l_e_s_c_1_1_engine.html#a93e1621f9daf326a7c45d3b2a4c826c1" target="_top" xlink:title="The constructor is private, the engine can only be created by the main function.">
<polygon fill="white" stroke="#666666" points="352.88,-76 231.88,-76 231.88,-56 352.88,-56 352.88,-76"/>
<text text-anchor="middle" x="292.38" y="-62.5" font-family="Helvetica,sans-Serif" font-size="10.00">GLESC::Engine::Engine</text>
</a>
</g>
</g>
<!-- Node15&#45;&gt;Node16 -->
<g id="edge19_Node000015_Node000016" class="edge">
<title>Node15&#45;&gt;Node16</title>
<g id="a_edge19_Node000015_Node000016"><a xlink:title=" ">
<path fill="none" stroke="#63b8ff" d="M396.5,-66C382.2,-66 367.27,-66 353.36,-66"/>
<polygon fill="#63b8ff" stroke="#63b8ff" points="396.29,-69.5 406.29,-66 396.29,-62.5 396.29,-69.5"/>
</a>
</g>
</g>
<!-- Node18 -->
<g id="Node000018" class="node">
<title>Node18</title>
<g id="a_Node000018"><a xlink:href="class_g_l_e_s_c_1_1_e_c_s_1_1_fog_component.html#a2f20c06e3d69e024f2548d7cc01923b9" target="_top" xlink:title="Each component must have a toString function.">
<polygon fill="white" stroke="#666666" points="541,-32 393.75,-32 393.75,0 541,0 541,-32"/>
<text text-anchor="start" x="401.75" y="-18.5" font-family="Helvetica,sans-Serif" font-size="10.00">GLESC::ECS::FogComponent</text>
<text text-anchor="middle" x="467.38" y="-6.5" font-family="Helvetica,sans-Serif" font-size="10.00">::toString</text>
</a>
</g>
</g>
<!-- Node17&#45;&gt;Node18 -->
<g id="edge21_Node000017_Node000018" class="edge">
<title>Node17&#45;&gt;Node18</title>
<g id="a_edge21_Node000017_Node000018"><a xlink:title=" ">
<path fill="none" stroke="#63b8ff" d="M579.81,-16C567.28,-16 554.06,-16 541.29,-16"/>
<polygon fill="#63b8ff" stroke="#63b8ff" points="579.58,-19.5 589.58,-16 579.58,-12.5 579.58,-19.5"/>
</a>
</g>
</g>
</g>
</svg>
