<?xml version="1.0" encoding="UTF-8" standalone="no"?>
<!DOCTYPE svg PUBLIC "-//W3C//DTD SVG 1.1//EN"
 "http://www.w3.org/Graphics/SVG/1.1/DTD/svg11.dtd">
<!-- Generated by graphviz version 11.0.0 (20240428.1522)
 -->
<!-- Title: GLESC::GAPI::ShaderLoader Pages: 1 -->
<!--zoomable 660 -->

<svg id="main" version="1.1" xmlns="http://www.w3.org/2000/svg" xmlns:xlink="http://www.w3.org/1999/xlink" xml:space="preserve" onload="init(evt)">
<style type="text/css"><![CDATA[
.node, .edge {opacity: 0.7;}
.node.selected, .edge.selected {opacity: 1;}
.edge:hover path { stroke: red; }
.edge:hover polygon { stroke: red; fill: red; }
]]></style>

<defs>
  <circle id="rim" cx="0" cy="0" r="7"/>
  <circle id="rim2" cx="0" cy="0" r="3.5"/>
  <g id="zoomPlus">
    <use xlink:href="#rim" fill="#404040"><set attributeName="fill" to="#808080" begin="zoomplus.mouseover" end="zoomplus.mouseout"/></use>
    <path d="M-4,0h8M0,-4v8" fill="none" stroke="white" stroke-width="1.5" pointer-events="none"/>
  </g>
  <g id="zoomMin">
    <use xlink:href="#rim" fill="#404040"><set attributeName="fill" to="#808080" begin="zoomminus.mouseover" end="zoomminus.mouseout"/></use>
    <path d="M-4,0h8" fill="none" stroke="white" stroke-width="1.5" pointer-events="none"/>
  </g>
  <g id="arrowUp" transform="translate(30 24)">
    <use xlink:href="#rim"/>
    <path pointer-events="none" fill="none" stroke="white" stroke-width="1.5" d="M0,-3.0v7 M-2.5,-0.5L0,-3.0L2.5,-0.5"/>
  </g>
  <g id="arrowRight" transform="rotate(90) translate(36 -43)">
    <use xlink:href="#rim"/>
    <path pointer-events="none" fill="none" stroke="white" stroke-width="1.5" d="M0,-3.0v7 M-2.5,-0.5L0,-3.0L2.5,-0.5"/>
  </g>
  <g id="arrowDown" transform="rotate(180) translate(-30 -48)">
    <use xlink:href="#rim"/>
    <path pointer-events="none" fill="none" stroke="white" stroke-width="1.5" d="M0,-3.0v7 M-2.5,-0.5L0,-3.0L2.5,-0.5"/>
  </g>
  <g id="arrowLeft" transform="rotate(270) translate(-36 17)">
    <use xlink:href="#rim"/>
    <path pointer-events="none" fill="none" stroke="white" stroke-width="1.5" d="M0,-3.0v7 M-2.5,-0.5L0,-3.0L2.5,-0.5"/>
  </g>
  <g id="resetDef">
    <use xlink:href="#rim2" fill="#404040"><set attributeName="fill" to="#808080" begin="reset.mouseover" end="reset.mouseout"/></use>
  </g>
</defs>
<script type="application/ecmascript">
var viewWidth = 275;
var viewHeight = 660;
var sectionId = 'dynsection-0';
</script>
<script type="application/ecmascript" xlink:href="svg.min.js"/>
<svg id="graph" class="graph">
<g id="viewport">
<title>GLESC::GAPI::ShaderLoader</title>
<!-- Node1 -->
<g id="Node000001" class="node">
<title>Node1</title>
<g id="a_Node000001"><a xlink:title=" ">
<polygon fill="#999999" stroke="none" points="177,-276 39,-276 39,0 177,0 177,-276"/>
<text text-anchor="start" x="43.88" y="-262.5" font-family="Helvetica,sans-Serif" font-size="10.00">GLESC::GAPI::ShaderLoader</text>
<text text-anchor="start" x="49" y="-246.5" font-family="Helvetica,sans-Serif" font-size="10.00">&#45;</text>
<text text-anchor="start" x="62" y="-246.5" font-family="Helvetica,sans-Serif" font-size="10.00">fragmentShader</text>
<text text-anchor="start" x="49" y="-230.5" font-family="Helvetica,sans-Serif" font-size="10.00">&#45;</text>
<text text-anchor="start" x="62" y="-230.5" font-family="Helvetica,sans-Serif" font-size="10.00">tokenFragment</text>
<text text-anchor="start" x="49" y="-214.5" font-family="Helvetica,sans-Serif" font-size="10.00">&#45;</text>
<text text-anchor="start" x="62" y="-214.5" font-family="Helvetica,sans-Serif" font-size="10.00">tokenVertex</text>
<text text-anchor="start" x="49" y="-198.5" font-family="Helvetica,sans-Serif" font-size="10.00">&#45;</text>
<text text-anchor="start" x="62" y="-198.5" font-family="Helvetica,sans-Serif" font-size="10.00">vertexShader</text>
<text text-anchor="start" x="47.5" y="-182.5" font-family="Helvetica,sans-Serif" font-size="10.00">+</text>
<text text-anchor="start" x="62" y="-182.5" font-family="Helvetica,sans-Serif" font-size="10.00">loadShader()</text>
<text text-anchor="start" x="47.5" y="-166.5" font-family="Helvetica,sans-Serif" font-size="10.00">+</text>
<text text-anchor="start" x="62" y="-166.5" font-family="Helvetica,sans-Serif" font-size="10.00">loadShader()</text>
<text text-anchor="start" x="49" y="-150.5" font-family="Helvetica,sans-Serif" font-size="10.00">&#45;</text>
<text text-anchor="start" x="62" y="-150.5" font-family="Helvetica,sans-Serif" font-size="10.00">clean()</text>
<text text-anchor="start" x="49" y="-134.5" font-family="Helvetica,sans-Serif" font-size="10.00">&#45;</text>
<text text-anchor="start" x="62" y="-134.5" font-family="Helvetica,sans-Serif" font-size="10.00">createShaderProgram()</text>
<text text-anchor="start" x="49" y="-118.5" font-family="Helvetica,sans-Serif" font-size="10.00">&#45;</text>
<text text-anchor="start" x="62" y="-118.5" font-family="Helvetica,sans-Serif" font-size="10.00">extractShaderCode()</text>
<text text-anchor="start" x="49" y="-102.5" font-family="Helvetica,sans-Serif" font-size="10.00">&#45;</text>
<text text-anchor="start" x="62" y="-102.5" font-family="Helvetica,sans-Serif" font-size="10.00">getGLSLVersionString()</text>
<text text-anchor="start" x="49" y="-86.5" font-family="Helvetica,sans-Serif" font-size="10.00">&#45;</text>
<text text-anchor="start" x="62" y="-86.5" font-family="Helvetica,sans-Serif" font-size="10.00">insertShaderMacros()</text>
<text text-anchor="start" x="49" y="-70.5" font-family="Helvetica,sans-Serif" font-size="10.00">&#45;</text>
<text text-anchor="start" x="62" y="-70.5" font-family="Helvetica,sans-Serif" font-size="10.00">loadFragmentShader()</text>
<text text-anchor="start" x="49" y="-54.5" font-family="Helvetica,sans-Serif" font-size="10.00">&#45;</text>
<text text-anchor="start" x="62" y="-54.5" font-family="Helvetica,sans-Serif" font-size="10.00">loadVertexShader()</text>
<text text-anchor="start" x="49" y="-38.5" font-family="Helvetica,sans-Serif" font-size="10.00">&#45;</text>
<text text-anchor="start" x="62" y="-38.5" font-family="Helvetica,sans-Serif" font-size="10.00">prependGLSLVersion()</text>
<text text-anchor="start" x="49" y="-22.5" font-family="Helvetica,sans-Serif" font-size="10.00">&#45;</text>
<text text-anchor="start" x="62" y="-22.5" font-family="Helvetica,sans-Serif" font-size="10.00">validateShaderCodes()</text>
<text text-anchor="start" x="49" y="-6.5" font-family="Helvetica,sans-Serif" font-size="10.00">&#45;</text>
<text text-anchor="start" x="62" y="-6.5" font-family="Helvetica,sans-Serif" font-size="10.00">validateShaderTokens()</text>
<polygon fill="#666666" stroke="#666666" points="39,-258 39,-258 177,-258 177,-258 39,-258"/>
<polygon fill="#666666" stroke="#666666" points="39,-194 39,-194 60,-194 60,-194 39,-194"/>
<polygon fill="#666666" stroke="#666666" points="60,-194 60,-194 177,-194 177,-194 60,-194"/>
<polygon fill="none" stroke="#666666" points="39,0 39,-276 177,-276 177,0 39,0"/>
</a>
</g>
</g>
<!-- Node2 -->
<g id="Node000002" class="node">
<title>Node2</title>
<g id="a_Node000002"><a xlink:title=" ">
<polygon fill="white" stroke="none" points="70.5,-408 17.5,-408 17.5,-356 70.5,-356 70.5,-408"/>
<text text-anchor="start" x="22.25" y="-394.5" font-family="Helvetica,sans-Serif" font-size="10.00">std::string</text>
<text text-anchor="start" x="42.5" y="-378.5" font-family="Helvetica,sans-Serif" font-size="10.00"> </text>
<text text-anchor="start" x="42.5" y="-362.5" font-family="Helvetica,sans-Serif" font-size="10.00"> </text>
<polygon fill="#666666" stroke="#666666" points="17.5,-390 17.5,-390 70.5,-390 70.5,-390 17.5,-390"/>
<polygon fill="#666666" stroke="#666666" points="17.5,-374 17.5,-374 70.5,-374 70.5,-374 17.5,-374"/>
<polygon fill="none" stroke="#666666" points="17.5,-356 17.5,-408 70.5,-408 70.5,-356 17.5,-356"/>
</a>
</g>
</g>
<!-- Node2&#45;&gt;Node1 -->
<g id="edge1_Node000001_Node000002" class="edge">
<title>Node2&#45;&gt;Node1</title>
<g id="a_edge1_Node000001_Node000002"><a xlink:title=" ">
<path fill="none" stroke="#63b8ff" d="M41.86,-356.37C40.92,-338.81 40.82,-314.73 45,-294 45.38,-292.13 45.77,-290.26 46.19,-288.38"/>
<polygon fill="none" stroke="#63b8ff" points="46.18,-288.46 43.72,-281.68 49.03,-276.8 51.49,-283.58 46.18,-288.46"/>
</a>
</g>
<text text-anchor="middle" x="97.5" y="-308.5" font-family="Helvetica,sans-Serif" font-size="10.00" fill="grey"> &#45;fragmentShaderSource</text>
<text text-anchor="middle" x="97.5" y="-296.5" font-family="Helvetica,sans-Serif" font-size="10.00" fill="grey">&#45;vertexShaderSource</text>
</g>
<!-- Node3 -->
<g id="Node000003" class="node">
<title>Node3</title>
<g id="a_Node000003"><a xlink:title=" ">
<polygon fill="white" stroke="none" points="88,-552 0,-552 0,-488 88,-488 88,-552"/>
<text text-anchor="start" x="5" y="-538.5" font-family="Helvetica,sans-Serif" font-size="10.00">std::basic_string&lt;</text>
<text text-anchor="start" x="27.88" y="-526.5" font-family="Helvetica,sans-Serif" font-size="10.00"> Char &gt;</text>
<text text-anchor="start" x="42.5" y="-510.5" font-family="Helvetica,sans-Serif" font-size="10.00"> </text>
<text text-anchor="start" x="42.5" y="-494.5" font-family="Helvetica,sans-Serif" font-size="10.00"> </text>
<polygon fill="#666666" stroke="#666666" points="0,-522 0,-522 88,-522 88,-522 0,-522"/>
<polygon fill="#666666" stroke="#666666" points="0,-506 0,-506 88,-506 88,-506 0,-506"/>
<polygon fill="none" stroke="#666666" points="0,-488 0,-552 88,-552 88,-488 0,-488"/>
</a>
</g>
</g>
<!-- Node3&#45;&gt;Node2 -->
<g id="edge2_Node000002_Node000003" class="edge">
<title>Node3&#45;&gt;Node2</title>
<g id="a_edge2_Node000002_Node000003"><a xlink:title=" ">
<path fill="none" stroke="#63b8ff" d="M44,-476.78C44,-454.16 44,-427.07 44,-407.84"/>
<polygon fill="none" stroke="#63b8ff" points="40.5,-476.63 44,-486.63 47.5,-476.63 40.5,-476.63"/>
</a>
</g>
</g>
<!-- Node4 -->
<g id="Node000004" class="node">
<title>Node4</title>
<g id="a_Node000004"><a xlink:title=" ">
<polygon fill="white" stroke="none" points="222.5,-428 121.5,-428 121.5,-336 222.5,-336 222.5,-428"/>
<text text-anchor="start" x="126.25" y="-414.5" font-family="Helvetica,sans-Serif" font-size="10.00">std::unordered_map</text>
<text text-anchor="start" x="126.25" y="-402.5" font-family="Helvetica,sans-Serif" font-size="10.00">&lt; unsigned int, const</text>
<text text-anchor="start" x="153.25" y="-390.5" font-family="Helvetica,sans-Serif" font-size="10.00"> char * &gt;</text>
<text text-anchor="start" x="136.5" y="-374.5" font-family="Helvetica,sans-Serif" font-size="10.00">+</text>
<text text-anchor="start" x="157.5" y="-374.5" font-family="Helvetica,sans-Serif" font-size="10.00">elements</text>
<text text-anchor="start" x="136.5" y="-358.5" font-family="Helvetica,sans-Serif" font-size="10.00">+</text>
<text text-anchor="start" x="157.5" y="-358.5" font-family="Helvetica,sans-Serif" font-size="10.00">keys</text>
<text text-anchor="start" x="170.5" y="-342.5" font-family="Helvetica,sans-Serif" font-size="10.00"> </text>
<polygon fill="#666666" stroke="#666666" points="121.5,-386 121.5,-386 222.5,-386 222.5,-386 121.5,-386"/>
<polygon fill="#666666" stroke="#666666" points="121.5,-354 121.5,-354 155.5,-354 155.5,-354 121.5,-354"/>
<polygon fill="#666666" stroke="#666666" points="155.5,-354 155.5,-354 222.5,-354 222.5,-354 155.5,-354"/>
<polygon fill="none" stroke="#666666" points="121.5,-336 121.5,-428 222.5,-428 222.5,-336 121.5,-336"/>
</a>
</g>
</g>
<!-- Node4&#45;&gt;Node1 -->
<g id="edge3_Node000001_Node000004" class="edge">
<title>Node4&#45;&gt;Node1</title>
<g id="a_edge3_Node000001_Node000004"><a xlink:title=" ">
<path fill="none" stroke="#63b8ff" d="M160.84,-336.26C157.41,-322.67 153.59,-307.71 150,-294 149.51,-292.15 149.02,-290.28 148.53,-288.4"/>
<polygon fill="none" stroke="#63b8ff" points="148.52,-288.36 143.12,-283.58 145.46,-276.76 150.86,-281.54 148.52,-288.36"/>
</a>
</g>
<text text-anchor="middle" x="198.38" y="-302.5" font-family="Helvetica,sans-Serif" font-size="10.00" fill="grey"> &#45;shaderNamesMap</text>
</g>
<!-- Node5 -->
<g id="Node000005" class="node">
<title>Node5</title>
<g id="a_Node000005"><a xlink:title=" ">
<polygon fill="white" stroke="none" points="220,-552 124,-552 124,-488 220,-488 220,-552"/>
<text text-anchor="start" x="128.88" y="-538.5" font-family="Helvetica,sans-Serif" font-size="10.00">std::unordered_map</text>
<text text-anchor="start" x="154" y="-526.5" font-family="Helvetica,sans-Serif" font-size="10.00">&lt; K, T &gt;</text>
<text text-anchor="start" x="170.5" y="-510.5" font-family="Helvetica,sans-Serif" font-size="10.00"> </text>
<text text-anchor="start" x="170.5" y="-494.5" font-family="Helvetica,sans-Serif" font-size="10.00"> </text>
<polygon fill="#666666" stroke="#666666" points="124,-522 124,-522 220,-522 220,-522 124,-522"/>
<polygon fill="#666666" stroke="#666666" points="124,-506 124,-506 220,-506 220,-506 124,-506"/>
<polygon fill="none" stroke="#666666" points="124,-488 124,-552 220,-552 220,-488 124,-488"/>
</a>
</g>
</g>
<!-- Node5&#45;&gt;Node4 -->
<g id="edge4_Node000004_Node000005" class="edge">
<title>Node5&#45;&gt;Node4</title>
<g id="a_edge4_Node000004_Node000005"><a xlink:title=" ">
<path fill="none" stroke="orange" d="M172,-476.76C172,-461.26 172,-443.66 172,-427.93"/>
<polygon fill="orange" stroke="orange" points="168.5,-476.63 172,-486.63 175.5,-476.63 168.5,-476.63"/>
</a>
</g>
<text text-anchor="start" x="172" y="-460.5" font-family="Helvetica,sans-Serif" font-size="10.00" fill="grey"> &lt; unsigned int, const</text>
<text text-anchor="middle" x="219.25" y="-448.5" font-family="Helvetica,sans-Serif" font-size="10.00" fill="grey"> char * &gt;</text>
</g>
<!-- Node6 -->
<g id="Node000006" class="node">
<title>Node6</title>
<g id="a_Node000006"><a xlink:title=" ">
<polygon fill="white" stroke="none" points="153,-652 137,-652 137,-600 153,-600 153,-652"/>
<text text-anchor="start" x="141.62" y="-638.5" font-family="Helvetica,sans-Serif" font-size="10.00">K</text>
<text text-anchor="start" x="143.5" y="-622.5" font-family="Helvetica,sans-Serif" font-size="10.00"> </text>
<text text-anchor="start" x="143.5" y="-606.5" font-family="Helvetica,sans-Serif" font-size="10.00"> </text>
<polygon fill="#666666" stroke="#666666" points="137,-634 137,-634 153,-634 153,-634 137,-634"/>
<polygon fill="#666666" stroke="#666666" points="137,-618 137,-618 153,-618 153,-618 137,-618"/>
<polygon fill="none" stroke="#666666" points="137,-600 137,-652 153,-652 153,-600 137,-600"/>
</a>
</g>
</g>
<!-- Node6&#45;&gt;Node5 -->
<g id="edge5_Node000005_Node000006" class="edge">
<title>Node6&#45;&gt;Node5</title>
<g id="a_edge5_Node000005_Node000006"><a xlink:title=" ">
<path fill="none" stroke="#63b8ff" d="M146.15,-600.07C147,-590.55 148.46,-579.66 151,-570 151.52,-568.03 152.1,-566.04 152.73,-564.04"/>
<polygon fill="none" stroke="#63b8ff" points="152.75,-564.01 151.03,-557.01 156.83,-552.73 158.55,-559.73 152.75,-564.01"/>
</a>
</g>
<text text-anchor="middle" x="166" y="-572.5" font-family="Helvetica,sans-Serif" font-size="10.00" fill="grey"> +keys</text>
</g>
<!-- Node7 -->
<g id="Node000007" class="node">
<title>Node7</title>
<g id="a_Node000007"><a xlink:title=" ">
<polygon fill="white" stroke="none" points="205.5,-652 190.5,-652 190.5,-600 205.5,-600 205.5,-652"/>
<text text-anchor="start" x="195.38" y="-638.5" font-family="Helvetica,sans-Serif" font-size="10.00">T</text>
<text text-anchor="start" x="196.5" y="-622.5" font-family="Helvetica,sans-Serif" font-size="10.00"> </text>
<text text-anchor="start" x="196.5" y="-606.5" font-family="Helvetica,sans-Serif" font-size="10.00"> </text>
<polygon fill="#666666" stroke="#666666" points="190.5,-634 190.5,-634 205.5,-634 205.5,-634 190.5,-634"/>
<polygon fill="#666666" stroke="#666666" points="190.5,-618 190.5,-618 205.5,-618 205.5,-618 190.5,-618"/>
<polygon fill="none" stroke="#666666" points="190.5,-600 190.5,-652 205.5,-652 205.5,-600 190.5,-600"/>
</a>
</g>
</g>
<!-- Node7&#45;&gt;Node5 -->
<g id="edge6_Node000005_Node000007" class="edge">
<title>Node7&#45;&gt;Node5</title>
<g id="a_edge6_Node000005_Node000007"><a xlink:title=" ">
<path fill="none" stroke="#63b8ff" d="M191.77,-600.09C189.07,-589.3 185.84,-576.34 182.77,-564.07"/>
<polygon fill="none" stroke="#63b8ff" points="182.79,-564.17 177.46,-559.32 179.88,-552.53 185.22,-557.38 182.79,-564.17"/>
</a>
</g>
<text text-anchor="middle" x="210.38" y="-572.5" font-family="Helvetica,sans-Serif" font-size="10.00" fill="grey"> +elements</text>
</g>
</g>
</svg>

<g id="navigator" transform="translate(0 0)" fill="#404254">
  <rect fill="#f2f5e9" fill-opacity="0.5" stroke="#606060" stroke-width=".5" x="0" y="0" width="60" height="60"/>
  <use id="zoomplus" xlink:href="#zoomPlus" x="17" y="9" onmousedown="handleZoom(evt,'in')"/>
  <use id="zoomminus" xlink:href="#zoomMin" x="42" y="9" onmousedown="handleZoom(evt,'out')"/>
  <use id="reset" xlink:href="#resetDef" x="30" y="36" onmousedown="handleReset()"/>
   <use id="arrowup" xlink:href="#arrowUp" x="0" y="0" onmousedown="handlePan(0,-1)"/>
  <use id="arrowright" xlink:href="#arrowRight" x="0" y="0" onmousedown="handlePan(1,0)"/>
  <use id="arrowdown" xlink:href="#arrowDown" x="0" y="0" onmousedown="handlePan(0,1)"/>
  <use id="arrowleft" xlink:href="#arrowLeft" x="0" y="0" onmousedown="handlePan(-1,0)"/>
</g>
<svg viewBox="0 0 15 15" width="100%" height="30px" preserveAspectRatio="xMaxYMin meet">
 <g id="arrow_out" transform="scale(0.3 0.3)">
  <a xlink:href="class_g_l_e_s_c_1_1_g_a_p_i_1_1_shader_loader__coll__graph_org.svg" target="_base">
   <rect id="button" ry="5" rx="5" y="6" x="6" height="38" width="38"
        fill="#f2f5e9" fill-opacity="0.5" stroke="#606060" stroke-width="1.0"/>
   <path id="arrow"
     d="M 11.500037,31.436501 C 11.940474,20.09759 22.043105,11.32322 32.158766,21.979434 L 37.068811,17.246167 C 37.068811,17.246167 37.088388,32 37.088388,32 L 22.160133,31.978069 C 22.160133,31.978069 26.997745,27.140456 26.997745,27.140456 C 18.528582,18.264221 13.291696,25.230495 11.500037,31.436501 z"
     style="fill:#404040;"/>
  </a>
 </g>
</svg>

<style type='text/css'>
<![CDATA[
[data-mouse-over-selected='false'] { opacity: 0.7; }
[data-mouse-over-selected='true']  { opacity: 1.0; }
]]>
</style>
<script type="application/ecmascript"><![CDATA[
document.addEventListener('DOMContentLoaded', (event) => {
  highlightEdges();
  highlightAdjacentNodes();
});
]]></script>
</svg>
