<?xml version="1.0" encoding="UTF-8" standalone="no"?>
<!DOCTYPE svg PUBLIC "-//W3C//DTD SVG 1.1//EN"
 "http://www.w3.org/Graphics/SVG/1.1/DTD/svg11.dtd">
<!-- Generated by graphviz version 11.0.0 (20240428.1522)
 -->
<!-- Title: GLESC::ECS::ComponentArray&lt; Component &gt; Pages: 1 -->
<svg width="540pt" height="576pt"
 viewBox="0.00 0.00 539.75 576.00" xmlns="http://www.w3.org/2000/svg" xmlns:xlink="http://www.w3.org/1999/xlink">
<g id="graph0" class="graph" transform="scale(1 1) rotate(0) translate(4 572)">
<title>GLESC::ECS::ComponentArray&lt; Component &gt;</title>
<!-- Node1 -->
<g id="Node000001" class="node">
<title>Node1</title>
<g id="a_Node000001"><a xlink:title="The ComponentArray class is a template class that stores components of a specific type.">
<polygon fill="#999999" stroke="none" points="358,-192 210,-192 210,0 358,0 358,-192"/>
<text text-anchor="start" x="215" y="-178.5" font-family="Helvetica,sans-Serif" font-size="10.00">GLESC::ECS::ComponentArray</text>
<text text-anchor="start" x="250.25" y="-166.5" font-family="Helvetica,sans-Serif" font-size="10.00">&lt; Component &gt;</text>
<text text-anchor="start" x="228.5" y="-150.5" font-family="Helvetica,sans-Serif" font-size="10.00">&#45;</text>
<text text-anchor="start" x="250" y="-150.5" font-family="Helvetica,sans-Serif" font-size="10.00">size</text>
<text text-anchor="start" x="227" y="-134.5" font-family="Helvetica,sans-Serif" font-size="10.00">+</text>
<text text-anchor="start" x="250" y="-134.5" font-family="Helvetica,sans-Serif" font-size="10.00">ComponentArray()</text>
<text text-anchor="start" x="227" y="-118.5" font-family="Helvetica,sans-Serif" font-size="10.00">+</text>
<text text-anchor="start" x="250" y="-118.5" font-family="Helvetica,sans-Serif" font-size="10.00">entityDestroyed()</text>
<text text-anchor="start" x="227" y="-102.5" font-family="Helvetica,sans-Serif" font-size="10.00">+</text>
<text text-anchor="start" x="250" y="-102.5" font-family="Helvetica,sans-Serif" font-size="10.00">getComponent()</text>
<text text-anchor="start" x="227" y="-86.5" font-family="Helvetica,sans-Serif" font-size="10.00">+</text>
<text text-anchor="start" x="250" y="-86.5" font-family="Helvetica,sans-Serif" font-size="10.00">getData()</text>
<text text-anchor="start" x="227" y="-70.5" font-family="Helvetica,sans-Serif" font-size="10.00">+</text>
<text text-anchor="start" x="250" y="-70.5" font-family="Helvetica,sans-Serif" font-size="10.00">hasComponent()</text>
<text text-anchor="start" x="227" y="-54.5" font-family="Helvetica,sans-Serif" font-size="10.00">+</text>
<text text-anchor="start" x="250" y="-54.5" font-family="Helvetica,sans-Serif" font-size="10.00">insertData()</text>
<text text-anchor="start" x="227" y="-38.5" font-family="Helvetica,sans-Serif" font-size="10.00">+</text>
<text text-anchor="start" x="250" y="-38.5" font-family="Helvetica,sans-Serif" font-size="10.00">removeData()</text>
<text text-anchor="start" x="228.5" y="-22.5" font-family="Helvetica,sans-Serif" font-size="10.00">&#45;</text>
<text text-anchor="start" x="250" y="-22.5" font-family="Helvetica,sans-Serif" font-size="10.00">getSize()</text>
<text text-anchor="start" x="228.5" y="-6.5" font-family="Helvetica,sans-Serif" font-size="10.00">&#45;</text>
<text text-anchor="start" x="250" y="-6.5" font-family="Helvetica,sans-Serif" font-size="10.00">printStatus()</text>
<polygon fill="#666666" stroke="#666666" points="210,-162 210,-162 358,-162 358,-162 210,-162"/>
<polygon fill="#666666" stroke="#666666" points="210,-146 210,-146 248,-146 248,-146 210,-146"/>
<polygon fill="#666666" stroke="#666666" points="248,-146 248,-146 358,-146 358,-146 248,-146"/>
<polygon fill="none" stroke="#666666" points="210,0 210,-192 358,-192 358,0 210,0"/>
</a>
</g>
</g>
<!-- Node2 -->
<g id="Node000002" class="node">
<title>Node2</title>
<g id="a_Node000002"><a xlink:href="class_g_l_e_s_c_1_1_e_c_s_1_1_i_component_array.html" target="_top" xlink:title=" ">
<polygon fill="white" stroke="none" points="150,-356 0,-356 0,-240 150,-240 150,-356"/>
<text text-anchor="start" x="4.88" y="-342.5" font-family="Helvetica,sans-Serif" font-size="10.00">GLESC::ECS::IComponentArray</text>
<text text-anchor="start" x="73.5" y="-326.5" font-family="Helvetica,sans-Serif" font-size="10.00"> </text>
<text text-anchor="start" x="15" y="-310.5" font-family="Helvetica,sans-Serif" font-size="10.00">+</text>
<text text-anchor="start" x="36" y="-310.5" font-family="Helvetica,sans-Serif" font-size="10.00">~IComponentArray()</text>
<text text-anchor="start" x="15" y="-294.5" font-family="Helvetica,sans-Serif" font-size="10.00">+</text>
<text text-anchor="start" x="36" y="-294.5" font-family="Helvetica,sans-Serif" font-size="10.00">entityDestroyed()</text>
<text text-anchor="start" x="15" y="-278.5" font-family="Helvetica,sans-Serif" font-size="10.00">+</text>
<text text-anchor="start" x="36" y="-278.5" font-family="Helvetica,sans-Serif" font-size="10.00">getComponent()</text>
<text text-anchor="start" x="15" y="-262.5" font-family="Helvetica,sans-Serif" font-size="10.00">+</text>
<text text-anchor="start" x="36" y="-262.5" font-family="Helvetica,sans-Serif" font-size="10.00">getSize()</text>
<text text-anchor="start" x="15" y="-246.5" font-family="Helvetica,sans-Serif" font-size="10.00">+</text>
<text text-anchor="start" x="36" y="-246.5" font-family="Helvetica,sans-Serif" font-size="10.00">hasComponent()</text>
<polygon fill="#666666" stroke="#666666" points="0,-338 0,-338 150,-338 150,-338 0,-338"/>
<polygon fill="#666666" stroke="#666666" points="0,-322 0,-322 150,-322 150,-322 0,-322"/>
<polygon fill="none" stroke="#666666" points="0,-240 0,-356 150,-356 150,-240 0,-240"/>
</a>
</g>
</g>
<!-- Node2&#45;&gt;Node1 -->
<g id="edge1_Node000001_Node000002" class="edge">
<title>Node2&#45;&gt;Node1</title>
<g id="a_edge1_Node000001_Node000002"><a xlink:title=" ">
<path fill="none" stroke="#63b8ff" d="M142.51,-232.4C164.18,-211.66 188.28,-188.59 210.37,-167.46"/>
<polygon fill="none" stroke="#63b8ff" points="140.23,-229.73 135.43,-239.18 145.07,-234.79 140.23,-229.73"/>
</a>
</g>
</g>
<!-- Node3 -->
<g id="Node000003" class="node">
<title>Node3</title>
<g id="a_Node000003"><a xlink:title=" ">
<polygon fill="white" stroke="none" points="280,-330 168,-330 168,-266 280,-266 280,-330"/>
<text text-anchor="start" x="172.62" y="-316.5" font-family="Helvetica,sans-Serif" font-size="10.00">std::array&lt; Component,</text>
<text text-anchor="start" x="192.12" y="-304.5" font-family="Helvetica,sans-Serif" font-size="10.00"> maxEntities &gt;</text>
<text text-anchor="start" x="185.5" y="-288.5" font-family="Helvetica,sans-Serif" font-size="10.00">+</text>
<text text-anchor="start" x="209" y="-288.5" font-family="Helvetica,sans-Serif" font-size="10.00">elements</text>
<text text-anchor="start" x="222.5" y="-272.5" font-family="Helvetica,sans-Serif" font-size="10.00"> </text>
<polygon fill="#666666" stroke="#666666" points="168,-300 168,-300 280,-300 280,-300 168,-300"/>
<polygon fill="#666666" stroke="#666666" points="168,-284 168,-284 207,-284 207,-284 168,-284"/>
<polygon fill="#666666" stroke="#666666" points="207,-284 207,-284 280,-284 280,-284 207,-284"/>
<polygon fill="none" stroke="#666666" points="168,-266 168,-330 280,-330 280,-266 168,-266"/>
</a>
</g>
</g>
<!-- Node3&#45;&gt;Node1 -->
<g id="edge2_Node000001_Node000003" class="edge">
<title>Node3&#45;&gt;Node1</title>
<g id="a_edge2_Node000001_Node000003"><a xlink:title=" ">
<path fill="none" stroke="#63b8ff" d="M228.59,-266.09C231.42,-249.33 235.52,-228.34 240.75,-210 241.31,-208.04 241.89,-206.08 242.48,-204.1"/>
<polygon fill="none" stroke="#63b8ff" points="242.46,-204.16 240.45,-197.23 246.06,-192.71 248.08,-199.63 242.46,-204.16"/>
</a>
</g>
<text text-anchor="middle" x="279.62" y="-212.5" font-family="Helvetica,sans-Serif" font-size="10.00" fill="grey"> &#45;componentArray</text>
</g>
<!-- Node4 -->
<g id="Node000004" class="node">
<title>Node4</title>
<g id="a_Node000004"><a xlink:title=" ">
<polygon fill="white" stroke="none" points="238,-462 164,-462 164,-410 238,-410 238,-462"/>
<text text-anchor="start" x="168.75" y="-448.5" font-family="Helvetica,sans-Serif" font-size="10.00">std::array&lt; T &gt;</text>
<text text-anchor="start" x="199.5" y="-432.5" font-family="Helvetica,sans-Serif" font-size="10.00"> </text>
<text text-anchor="start" x="199.5" y="-416.5" font-family="Helvetica,sans-Serif" font-size="10.00"> </text>
<polygon fill="#666666" stroke="#666666" points="164,-444 164,-444 238,-444 238,-444 164,-444"/>
<polygon fill="#666666" stroke="#666666" points="164,-428 164,-428 238,-428 238,-428 164,-428"/>
<polygon fill="none" stroke="#666666" points="164,-410 164,-462 238,-462 238,-410 164,-410"/>
</a>
</g>
</g>
<!-- Node4&#45;&gt;Node3 -->
<g id="edge3_Node000003_Node000004" class="edge">
<title>Node4&#45;&gt;Node3</title>
<g id="a_edge3_Node000003_Node000004"><a xlink:title=" ">
<path fill="none" stroke="orange" d="M207.13,-398.78C210.75,-377.33 215.3,-350.45 218.76,-329.99"/>
<polygon fill="orange" stroke="orange" points="203.69,-398.12 205.47,-408.56 210.59,-399.29 203.69,-398.12"/>
</a>
</g>
<text text-anchor="middle" x="276.12" y="-376.5" font-family="Helvetica,sans-Serif" font-size="10.00" fill="grey"> &lt; Component, maxEntities &gt;</text>
</g>
<!-- Node5 -->
<g id="Node000005" class="node">
<title>Node5</title>
<g id="a_Node000005"><a xlink:title=" ">
<polygon fill="white" stroke="none" points="247.5,-568 232.5,-568 232.5,-516 247.5,-516 247.5,-568"/>
<text text-anchor="start" x="237.38" y="-554.5" font-family="Helvetica,sans-Serif" font-size="10.00">T</text>
<text text-anchor="start" x="238.5" y="-538.5" font-family="Helvetica,sans-Serif" font-size="10.00"> </text>
<text text-anchor="start" x="238.5" y="-522.5" font-family="Helvetica,sans-Serif" font-size="10.00"> </text>
<polygon fill="#666666" stroke="#666666" points="232.5,-550 232.5,-550 247.5,-550 247.5,-550 232.5,-550"/>
<polygon fill="#666666" stroke="#666666" points="232.5,-534 232.5,-534 247.5,-534 247.5,-534 232.5,-534"/>
<polygon fill="none" stroke="#666666" points="232.5,-516 232.5,-568 247.5,-568 247.5,-516 232.5,-516"/>
</a>
</g>
</g>
<!-- Node5&#45;&gt;Node4 -->
<g id="edge4_Node000004_Node000005" class="edge">
<title>Node5&#45;&gt;Node4</title>
<g id="a_edge4_Node000004_Node000005"><a xlink:title=" ">
<path fill="none" stroke="#63b8ff" d="M232.6,-534.57C224.27,-526.84 211.15,-513.01 205.25,-498 202.39,-490.72 200.82,-482.58 200.04,-474.68"/>
<polygon fill="none" stroke="#63b8ff" points="200.04,-474.68 195.74,-468.89 199.43,-462.69 203.73,-468.48 200.04,-474.68"/>
</a>
</g>
<text text-anchor="middle" x="230.38" y="-488.5" font-family="Helvetica,sans-Serif" font-size="10.00" fill="grey"> +elements</text>
</g>
<!-- Node7 -->
<g id="Node000007" class="node">
<title>Node7</title>
<g id="a_Node000007"><a xlink:title=" ">
<polygon fill="white" stroke="none" points="397,-468 301,-468 301,-404 397,-404 397,-468"/>
<text text-anchor="start" x="305.88" y="-454.5" font-family="Helvetica,sans-Serif" font-size="10.00">std::unordered_map</text>
<text text-anchor="start" x="331" y="-442.5" font-family="Helvetica,sans-Serif" font-size="10.00">&lt; K, T &gt;</text>
<text text-anchor="start" x="347.5" y="-426.5" font-family="Helvetica,sans-Serif" font-size="10.00"> </text>
<text text-anchor="start" x="347.5" y="-410.5" font-family="Helvetica,sans-Serif" font-size="10.00"> </text>
<polygon fill="#666666" stroke="#666666" points="301,-438 301,-438 397,-438 397,-438 301,-438"/>
<polygon fill="#666666" stroke="#666666" points="301,-422 301,-422 397,-422 397,-422 301,-422"/>
<polygon fill="none" stroke="#666666" points="301,-404 301,-468 397,-468 397,-404 301,-404"/>
</a>
</g>
</g>
<!-- Node5&#45;&gt;Node7 -->
<g id="edge8_Node000007_Node000005" class="edge">
<title>Node5&#45;&gt;Node7</title>
<g id="a_edge8_Node000007_Node000005"><a xlink:title=" ">
<path fill="none" stroke="#63b8ff" d="M247.22,-533.82C257.87,-523.26 278.45,-502.96 296.25,-486 299.42,-482.98 302.72,-479.86 306.04,-476.74"/>
<polygon fill="none" stroke="#63b8ff" points="305.98,-476.8 307.62,-469.77 314.74,-468.59 313.09,-475.61 305.98,-476.8"/>
</a>
</g>
<text text-anchor="middle" x="321.38" y="-488.5" font-family="Helvetica,sans-Serif" font-size="10.00" fill="grey"> +elements</text>
</g>
<!-- Node6 -->
<g id="Node000006" class="node">
<title>Node6</title>
<g id="a_Node000006"><a xlink:title=" ">
<polygon fill="white" stroke="none" points="394,-338 298,-338 298,-258 394,-258 394,-338"/>
<text text-anchor="start" x="302.88" y="-324.5" font-family="Helvetica,sans-Serif" font-size="10.00">std::unordered_map</text>
<text text-anchor="start" x="303.62" y="-312.5" font-family="Helvetica,sans-Serif" font-size="10.00">&lt; EntityID, size_t &gt;</text>
<text text-anchor="start" x="311.5" y="-296.5" font-family="Helvetica,sans-Serif" font-size="10.00">+</text>
<text text-anchor="start" x="331" y="-296.5" font-family="Helvetica,sans-Serif" font-size="10.00">elements</text>
<text text-anchor="start" x="311.5" y="-280.5" font-family="Helvetica,sans-Serif" font-size="10.00">+</text>
<text text-anchor="start" x="331" y="-280.5" font-family="Helvetica,sans-Serif" font-size="10.00">keys</text>
<text text-anchor="start" x="344.5" y="-264.5" font-family="Helvetica,sans-Serif" font-size="10.00"> </text>
<polygon fill="#666666" stroke="#666666" points="298,-308 298,-308 394,-308 394,-308 298,-308"/>
<polygon fill="#666666" stroke="#666666" points="298,-276 298,-276 329,-276 329,-276 298,-276"/>
<polygon fill="#666666" stroke="#666666" points="329,-276 329,-276 394,-276 394,-276 329,-276"/>
<polygon fill="none" stroke="#666666" points="298,-258 298,-338 394,-338 394,-258 298,-258"/>
</a>
</g>
</g>
<!-- Node6&#45;&gt;Node1 -->
<g id="edge5_Node000001_Node000006" class="edge">
<title>Node6&#45;&gt;Node1</title>
<g id="a_edge5_Node000001_Node000006"><a xlink:title=" ">
<path fill="none" stroke="#63b8ff" d="M334.05,-258.44C329.17,-242.72 323.28,-223.7 317.26,-204.3"/>
<polygon fill="none" stroke="#63b8ff" points="317.23,-204.2 311.63,-199.65 313.68,-192.74 319.28,-197.28 317.23,-204.2"/>
</a>
</g>
<text text-anchor="middle" x="363.25" y="-212.5" font-family="Helvetica,sans-Serif" font-size="10.00" fill="grey"> &#45;entityToIndexMap</text>
</g>
<!-- Node7&#45;&gt;Node6 -->
<g id="edge6_Node000006_Node000007" class="edge">
<title>Node7&#45;&gt;Node6</title>
<g id="a_edge6_Node000006_Node000007"><a xlink:title=" ">
<path fill="none" stroke="orange" d="M348.07,-392.77C347.68,-375.2 347.23,-354.95 346.86,-337.77"/>
<polygon fill="orange" stroke="orange" points="344.57,-392.71 348.29,-402.63 351.56,-392.55 344.57,-392.71"/>
</a>
</g>
<text text-anchor="middle" x="390.88" y="-376.5" font-family="Helvetica,sans-Serif" font-size="10.00" fill="grey"> &lt; EntityID, size_t &gt;</text>
</g>
<!-- Node9 -->
<g id="Node000009" class="node">
<title>Node9</title>
<g id="a_Node000009"><a xlink:title=" ">
<polygon fill="white" stroke="none" points="508,-338 412,-338 412,-258 508,-258 508,-338"/>
<text text-anchor="start" x="416.88" y="-324.5" font-family="Helvetica,sans-Serif" font-size="10.00">std::unordered_map</text>
<text text-anchor="start" x="417.62" y="-312.5" font-family="Helvetica,sans-Serif" font-size="10.00">&lt; size_t, EntityID &gt;</text>
<text text-anchor="start" x="425.5" y="-296.5" font-family="Helvetica,sans-Serif" font-size="10.00">+</text>
<text text-anchor="start" x="445" y="-296.5" font-family="Helvetica,sans-Serif" font-size="10.00">elements</text>
<text text-anchor="start" x="425.5" y="-280.5" font-family="Helvetica,sans-Serif" font-size="10.00">+</text>
<text text-anchor="start" x="445" y="-280.5" font-family="Helvetica,sans-Serif" font-size="10.00">keys</text>
<text text-anchor="start" x="458.5" y="-264.5" font-family="Helvetica,sans-Serif" font-size="10.00"> </text>
<polygon fill="#666666" stroke="#666666" points="412,-308 412,-308 508,-308 508,-308 412,-308"/>
<polygon fill="#666666" stroke="#666666" points="412,-276 412,-276 443,-276 443,-276 412,-276"/>
<polygon fill="#666666" stroke="#666666" points="443,-276 443,-276 508,-276 508,-276 443,-276"/>
<polygon fill="none" stroke="#666666" points="412,-258 412,-338 508,-338 508,-258 412,-258"/>
</a>
</g>
</g>
<!-- Node7&#45;&gt;Node9 -->
<g id="edge10_Node000009_Node000007" class="edge">
<title>Node7&#45;&gt;Node9</title>
<g id="a_edge10_Node000009_Node000007"><a xlink:title=" ">
<path fill="none" stroke="orange" d="M406.71,-412.28C418.47,-405.37 429.75,-396.69 438,-386 448.57,-372.31 454.11,-354.14 456.99,-337.94"/>
<polygon fill="orange" stroke="orange" points="405.23,-409.1 398.11,-416.96 408.57,-415.25 405.23,-409.1"/>
</a>
</g>
<text text-anchor="middle" x="487.88" y="-376.5" font-family="Helvetica,sans-Serif" font-size="10.00" fill="grey"> &lt; size_t, EntityID &gt;</text>
</g>
<!-- Node8 -->
<g id="Node000008" class="node">
<title>Node8</title>
<g id="a_Node000008"><a xlink:title=" ">
<polygon fill="white" stroke="none" points="357,-568 341,-568 341,-516 357,-516 357,-568"/>
<text text-anchor="start" x="345.62" y="-554.5" font-family="Helvetica,sans-Serif" font-size="10.00">K</text>
<text text-anchor="start" x="347.5" y="-538.5" font-family="Helvetica,sans-Serif" font-size="10.00"> </text>
<text text-anchor="start" x="347.5" y="-522.5" font-family="Helvetica,sans-Serif" font-size="10.00"> </text>
<polygon fill="#666666" stroke="#666666" points="341,-550 341,-550 357,-550 357,-550 341,-550"/>
<polygon fill="#666666" stroke="#666666" points="341,-534 341,-534 357,-534 357,-534 341,-534"/>
<polygon fill="none" stroke="#666666" points="341,-516 341,-568 357,-568 357,-516 341,-516"/>
</a>
</g>
</g>
<!-- Node8&#45;&gt;Node7 -->
<g id="edge7_Node000007_Node000008" class="edge">
<title>Node8&#45;&gt;Node7</title>
<g id="a_edge7_Node000007_Node000008"><a xlink:title=" ">
<path fill="none" stroke="#63b8ff" d="M349,-516.09C349,-505.41 349,-492.62 349,-480.46"/>
<polygon fill="none" stroke="#63b8ff" points="349,-480.55 345,-474.55 349,-468.55 353,-474.55 349,-480.55"/>
</a>
</g>
<text text-anchor="middle" x="364" y="-488.5" font-family="Helvetica,sans-Serif" font-size="10.00" fill="grey"> +keys</text>
</g>
<!-- Node9&#45;&gt;Node1 -->
<g id="edge9_Node000001_Node000009" class="edge">
<title>Node9&#45;&gt;Node1</title>
<g id="a_edge9_Node000001_Node000009"><a xlink:title=" ">
<path fill="none" stroke="#63b8ff" d="M440.54,-258.09C431.88,-242.44 420.93,-224.67 409,-210 396.46,-194.59 381.78,-179.41 366.98,-165.41"/>
<polygon fill="none" stroke="#63b8ff" points="367.22,-165.63 360.1,-164.48 358.42,-157.47 365.54,-158.62 367.22,-165.63"/>
</a>
</g>
<text text-anchor="middle" x="459" y="-212.5" font-family="Helvetica,sans-Serif" font-size="10.00" fill="grey"> &#45;indexToEntityMap</text>
</g>
</g>
</svg>
