<?xml version="1.0" encoding="UTF-8" standalone="no"?>
<!DOCTYPE svg PUBLIC "-//W3C//DTD SVG 1.1//EN"
 "http://www.w3.org/Graphics/SVG/1.1/DTD/svg11.dtd">
<!-- Generated by graphviz version 11.0.0 (20240428.1522)
 -->
<!-- Title: GLESC::Math::MatrixAlgorithms::setMatrix Pages: 1 -->
<svg width="310pt" height="228pt"
 viewBox="0.00 0.00 310.00 228.00" xmlns="http://www.w3.org/2000/svg" xmlns:xlink="http://www.w3.org/1999/xlink">
<g id="graph0" class="graph" transform="scale(1 1) rotate(0) translate(4 224)">
<title>GLESC::Math::MatrixAlgorithms::setMatrix</title>
<!-- Node1 -->
<g id="Node000001" class="node">
<title>Node1</title>
<g id="a_Node000001"><a xlink:title="Sets the values of a matrix using a raw array.">
<polygon fill="#999999" stroke="#666666" points="302,-120 145.75,-120 145.75,-88 302,-88 302,-120"/>
<text text-anchor="start" x="153.75" y="-106.5" font-family="Helvetica,sans-Serif" font-size="10.00">GLESC::Math::MatrixAlgorithms</text>
<text text-anchor="middle" x="223.88" y="-94.5" font-family="Helvetica,sans-Serif" font-size="10.00">::setMatrix</text>
</a>
</g>
</g>
<!-- Node2 -->
<g id="Node000002" class="node">
<title>Node2</title>
<g id="a_Node000002"><a xlink:href="class_g_l_e_s_c_1_1_math_1_1_matrix.html#af2e81e7fc9d6cc23a8b5e64dedb4e624" target="_top" xlink:title="Constructor from MatrixData.">
<polygon fill="white" stroke="#666666" points="109.75,-220 0,-220 0,-188 109.75,-188 109.75,-220"/>
<text text-anchor="start" x="8" y="-206.5" font-family="Helvetica,sans-Serif" font-size="10.00">GLESC::Math::Matrix</text>
<text text-anchor="middle" x="54.88" y="-194.5" font-family="Helvetica,sans-Serif" font-size="10.00">::Matrix</text>
</a>
</g>
</g>
<!-- Node1&#45;&gt;Node2 -->
<g id="edge1_Node000001_Node000002" class="edge">
<title>Node1&#45;&gt;Node2</title>
<g id="a_edge1_Node000001_Node000002"><a xlink:title=" ">
<path fill="none" stroke="#63b8ff" d="M191.26,-126.83C169.01,-142.42 138.23,-163.07 109.75,-179 104.53,-181.92 98.91,-184.8 93.34,-187.51"/>
<polygon fill="#63b8ff" stroke="#63b8ff" points="193.16,-129.77 199.31,-121.14 189.12,-124.05 193.16,-129.77"/>
</a>
</g>
</g>
<!-- Node3 -->
<g id="Node000003" class="node">
<title>Node3</title>
<g id="a_Node000003"><a xlink:href="class_g_l_e_s_c_1_1_math_1_1_matrix.html#a2f30524f276bd1e0ec9dadcfb9a540ff" target="_top" xlink:title="Constructor from a 2D array.">
<polygon fill="white" stroke="#666666" points="109.75,-170 0,-170 0,-138 109.75,-138 109.75,-170"/>
<text text-anchor="start" x="8" y="-156.5" font-family="Helvetica,sans-Serif" font-size="10.00">GLESC::Math::Matrix</text>
<text text-anchor="middle" x="54.88" y="-144.5" font-family="Helvetica,sans-Serif" font-size="10.00">::Matrix</text>
</a>
</g>
</g>
<!-- Node1&#45;&gt;Node3 -->
<g id="edge2_Node000001_Node000003" class="edge">
<title>Node1&#45;&gt;Node3</title>
<g id="a_edge2_Node000001_Node000003"><a xlink:title=" ">
<path fill="none" stroke="#63b8ff" d="M157.5,-123.57C141.82,-128.27 125.23,-133.24 110.11,-137.76"/>
<polygon fill="#63b8ff" stroke="#63b8ff" points="158.17,-127.03 166.74,-120.81 156.16,-120.32 158.17,-127.03"/>
</a>
</g>
</g>
<!-- Node4 -->
<g id="Node000004" class="node">
<title>Node4</title>
<g id="a_Node000004"><a xlink:href="class_g_l_e_s_c_1_1_math_1_1_matrix.html#ac7cdbc39134fd416036e40765f06ab09" target="_top" xlink:title="Constructor array list of elements.">
<polygon fill="white" stroke="#666666" points="109.75,-120 0,-120 0,-88 109.75,-88 109.75,-120"/>
<text text-anchor="start" x="8" y="-106.5" font-family="Helvetica,sans-Serif" font-size="10.00">GLESC::Math::Matrix</text>
<text text-anchor="middle" x="54.88" y="-94.5" font-family="Helvetica,sans-Serif" font-size="10.00">::Matrix</text>
</a>
</g>
</g>
<!-- Node1&#45;&gt;Node4 -->
<g id="edge3_Node000001_Node000004" class="edge">
<title>Node1&#45;&gt;Node4</title>
<g id="a_edge3_Node000001_Node000004"><a xlink:title=" ">
<path fill="none" stroke="#63b8ff" d="M134.33,-104C125.98,-104 117.7,-104 109.82,-104"/>
<polygon fill="#63b8ff" stroke="#63b8ff" points="134.22,-107.5 144.22,-104 134.22,-100.5 134.22,-107.5"/>
</a>
</g>
</g>
<!-- Node5 -->
<g id="Node000005" class="node">
<title>Node5</title>
<g id="a_Node000005"><a xlink:href="class_g_l_e_s_c_1_1_math_1_1_matrix.html#adf299691bc14b383a203215e95cd0ce5" target="_top" xlink:title="Assignment operator from a 2D array.">
<polygon fill="white" stroke="#666666" points="109.75,-70 0,-70 0,-38 109.75,-38 109.75,-70"/>
<text text-anchor="start" x="8" y="-56.5" font-family="Helvetica,sans-Serif" font-size="10.00">GLESC::Math::Matrix</text>
<text text-anchor="middle" x="54.88" y="-44.5" font-family="Helvetica,sans-Serif" font-size="10.00">::operator=</text>
</a>
</g>
</g>
<!-- Node1&#45;&gt;Node5 -->
<g id="edge4_Node000001_Node000005" class="edge">
<title>Node1&#45;&gt;Node5</title>
<g id="a_edge4_Node000001_Node000005"><a xlink:title=" ">
<path fill="none" stroke="#63b8ff" d="M157.5,-84.43C141.82,-79.73 125.23,-74.76 110.11,-70.24"/>
<polygon fill="#63b8ff" stroke="#63b8ff" points="156.16,-87.68 166.74,-87.19 158.17,-80.97 156.16,-87.68"/>
</a>
</g>
</g>
<!-- Node6 -->
<g id="Node000006" class="node">
<title>Node6</title>
<g id="a_Node000006"><a xlink:href="_matrix_tests_8cpp.html#a33f6c2888938857b939718bb99f2cf4c" target="_top" xlink:title=" ">
<polygon fill="white" stroke="#666666" points="93.62,-20 16.12,-20 16.12,0 93.62,0 93.62,-20"/>
<text text-anchor="middle" x="54.88" y="-6.5" font-family="Helvetica,sans-Serif" font-size="10.00">TYPED_TEST</text>
</a>
</g>
</g>
<!-- Node1&#45;&gt;Node6 -->
<g id="edge5_Node000001_Node000006" class="edge">
<title>Node1&#45;&gt;Node6</title>
<g id="a_edge5_Node000001_Node000006"><a xlink:title=" ">
<path fill="none" stroke="#63b8ff" d="M192.55,-80.9C170.45,-64.84 139.33,-43.74 109.75,-29 103.36,-25.82 96.3,-22.92 89.46,-20.4"/>
<polygon fill="#63b8ff" stroke="#63b8ff" points="190.38,-83.66 200.51,-86.77 194.54,-78.02 190.38,-83.66"/>
</a>
</g>
</g>
</g>
</svg>
