<?xml version="1.0" encoding="UTF-8" standalone="no"?>
<!DOCTYPE svg PUBLIC "-//W3C//DTD SVG 1.1//EN"
 "http://www.w3.org/Graphics/SVG/1.1/DTD/svg11.dtd">
<!-- Generated by graphviz version 11.0.0 (20240428.1522)
 -->
<!-- Title: GLESC::Math::MatrixAlgorithms::swapRows Pages: 1 -->
<svg width="695pt" height="40pt"
 viewBox="0.00 0.00 694.50 40.00" xmlns="http://www.w3.org/2000/svg" xmlns:xlink="http://www.w3.org/1999/xlink">
<g id="graph0" class="graph" transform="scale(1 1) rotate(0) translate(4 36)">
<title>GLESC::Math::MatrixAlgorithms::swapRows</title>
<!-- Node1 -->
<g id="Node000001" class="node">
<title>Node1</title>
<g id="a_Node000001"><a xlink:title="Swaps two rows of a matrix.">
<polygon fill="#999999" stroke="#666666" points="686.5,-32 530.25,-32 530.25,0 686.5,0 686.5,-32"/>
<text text-anchor="start" x="538.25" y="-18.5" font-family="Helvetica,sans-Serif" font-size="10.00">GLESC::Math::MatrixAlgorithms</text>
<text text-anchor="middle" x="608.38" y="-6.5" font-family="Helvetica,sans-Serif" font-size="10.00">::swapRows</text>
</a>
</g>
</g>
<!-- Node2 -->
<g id="Node000002" class="node">
<title>Node2</title>
<g id="a_Node000002"><a xlink:href="class_g_l_e_s_c_1_1_math_1_1_matrix_algorithms.html#aa18fde4904887d7afb83932a79dc8cbe" target="_top" xlink:title="Calculates gaussian elimination with partial pivoting and extracts the result.">
<polygon fill="white" stroke="#666666" points="494.25,-32 338,-32 338,0 494.25,0 494.25,-32"/>
<text text-anchor="start" x="346" y="-18.5" font-family="Helvetica,sans-Serif" font-size="10.00">GLESC::Math::MatrixAlgorithms</text>
<text text-anchor="middle" x="416.12" y="-6.5" font-family="Helvetica,sans-Serif" font-size="10.00">::gaussianEliminationAlgorithm</text>
</a>
</g>
</g>
<!-- Node1&#45;&gt;Node2 -->
<g id="edge1_Node000001_Node000002" class="edge">
<title>Node1&#45;&gt;Node2</title>
<g id="a_edge1_Node000001_Node000002"><a xlink:title=" ">
<path fill="none" stroke="#63b8ff" d="M518.73,-16C510.72,-16 502.65,-16 494.75,-16"/>
<polygon fill="#63b8ff" stroke="#63b8ff" points="518.48,-19.5 528.48,-16 518.48,-12.5 518.48,-19.5"/>
</a>
</g>
</g>
<!-- Node3 -->
<g id="Node000003" class="node">
<title>Node3</title>
<g id="a_Node000003"><a xlink:href="class_g_l_e_s_c_1_1_math_1_1_matrix_algorithms.html#ae35d1a5907e775efb15cc5d6a4fd015e" target="_top" xlink:title="Performs Gaussian elimination on a matrix. @TODO: Make this work (doesn&#39;t work for some reason)">
<polygon fill="white" stroke="#666666" points="302,-32 145.75,-32 145.75,0 302,0 302,-32"/>
<text text-anchor="start" x="153.75" y="-18.5" font-family="Helvetica,sans-Serif" font-size="10.00">GLESC::Math::MatrixAlgorithms</text>
<text text-anchor="middle" x="223.88" y="-6.5" font-family="Helvetica,sans-Serif" font-size="10.00">::gaussianElimination</text>
</a>
</g>
</g>
<!-- Node2&#45;&gt;Node3 -->
<g id="edge2_Node000002_Node000003" class="edge">
<title>Node2&#45;&gt;Node3</title>
<g id="a_edge2_Node000002_Node000003"><a xlink:title=" ">
<path fill="none" stroke="#63b8ff" d="M326.48,-16C318.47,-16 310.4,-16 302.5,-16"/>
<polygon fill="#63b8ff" stroke="#63b8ff" points="326.23,-19.5 336.23,-16 326.23,-12.5 326.23,-19.5"/>
</a>
</g>
</g>
<!-- Node4 -->
<g id="Node000004" class="node">
<title>Node4</title>
<g id="a_Node000004"><a xlink:href="class_g_l_e_s_c_1_1_math_1_1_matrix.html#a4d1f38620cb3dbcadd10904644ff2ef2" target="_top" xlink:title="Calculates the rank of the matrix.">
<polygon fill="white" stroke="#666666" points="109.75,-32 0,-32 0,0 109.75,0 109.75,-32"/>
<text text-anchor="start" x="8" y="-18.5" font-family="Helvetica,sans-Serif" font-size="10.00">GLESC::Math::Matrix</text>
<text text-anchor="middle" x="54.88" y="-6.5" font-family="Helvetica,sans-Serif" font-size="10.00">::rank</text>
</a>
</g>
</g>
<!-- Node3&#45;&gt;Node4 -->
<g id="edge3_Node000003_Node000004" class="edge">
<title>Node3&#45;&gt;Node4</title>
<g id="a_edge3_Node000003_Node000004"><a xlink:title=" ">
<path fill="none" stroke="#63b8ff" d="M134.33,-16C125.98,-16 117.7,-16 109.82,-16"/>
<polygon fill="#63b8ff" stroke="#63b8ff" points="134.22,-19.5 144.22,-16 134.22,-12.5 134.22,-19.5"/>
</a>
</g>
</g>
</g>
</svg>
