<?xml version="1.0" encoding="UTF-8" standalone="no"?>
<!DOCTYPE svg PUBLIC "-//W3C//DTD SVG 1.1//EN"
 "http://www.w3.org/Graphics/SVG/1.1/DTD/svg11.dtd">
<!-- Generated by graphviz version 11.0.0 (20240428.1522)
 -->
<!-- Title: GLESC::Math::Matrix::makeViewMatrixPosRot Pages: 1 -->
<!--zoomable 417 -->

<svg id="main" version="1.1" xmlns="http://www.w3.org/2000/svg" xmlns:xlink="http://www.w3.org/1999/xlink" xml:space="preserve" onload="init(evt)">
<style type="text/css"><![CDATA[
.node, .edge {opacity: 0.7;}
.node.selected, .edge.selected {opacity: 1;}
.edge:hover path { stroke: red; }
.edge:hover polygon { stroke: red; fill: red; }
]]></style>

<defs>
  <circle id="rim" cx="0" cy="0" r="7"/>
  <circle id="rim2" cx="0" cy="0" r="3.5"/>
  <g id="zoomPlus">
    <use xlink:href="#rim" fill="#404040"><set attributeName="fill" to="#808080" begin="zoomplus.mouseover" end="zoomplus.mouseout"/></use>
    <path d="M-4,0h8M0,-4v8" fill="none" stroke="white" stroke-width="1.5" pointer-events="none"/>
  </g>
  <g id="zoomMin">
    <use xlink:href="#rim" fill="#404040"><set attributeName="fill" to="#808080" begin="zoomminus.mouseover" end="zoomminus.mouseout"/></use>
    <path d="M-4,0h8" fill="none" stroke="white" stroke-width="1.5" pointer-events="none"/>
  </g>
  <g id="arrowUp" transform="translate(30 24)">
    <use xlink:href="#rim"/>
    <path pointer-events="none" fill="none" stroke="white" stroke-width="1.5" d="M0,-3.0v7 M-2.5,-0.5L0,-3.0L2.5,-0.5"/>
  </g>
  <g id="arrowRight" transform="rotate(90) translate(36 -43)">
    <use xlink:href="#rim"/>
    <path pointer-events="none" fill="none" stroke="white" stroke-width="1.5" d="M0,-3.0v7 M-2.5,-0.5L0,-3.0L2.5,-0.5"/>
  </g>
  <g id="arrowDown" transform="rotate(180) translate(-30 -48)">
    <use xlink:href="#rim"/>
    <path pointer-events="none" fill="none" stroke="white" stroke-width="1.5" d="M0,-3.0v7 M-2.5,-0.5L0,-3.0L2.5,-0.5"/>
  </g>
  <g id="arrowLeft" transform="rotate(270) translate(-36 17)">
    <use xlink:href="#rim"/>
    <path pointer-events="none" fill="none" stroke="white" stroke-width="1.5" d="M0,-3.0v7 M-2.5,-0.5L0,-3.0L2.5,-0.5"/>
  </g>
  <g id="resetDef">
    <use xlink:href="#rim2" fill="#404040"><set attributeName="fill" to="#808080" begin="reset.mouseover" end="reset.mouseout"/></use>
  </g>
</defs>
<script type="application/ecmascript">
var viewWidth = 1101;
var viewHeight = 417;
var sectionId = 'dynsection-22';
</script>
<script type="application/ecmascript" xlink:href="svg.min.js"/>
<svg id="graph" class="graph">
<g id="viewport">
<title>GLESC::Math::Matrix::makeViewMatrixPosRot</title>
<!-- Node1 -->
<g id="Node000001" class="node">
<title>Node1</title>
<g id="a_Node000001"><a xlink:title="Creates a view matrix from the given position and rotation vectors.">
<polygon fill="#999999" stroke="#666666" points="126.25,-185 0,-185 0,-153 126.25,-153 126.25,-185"/>
<text text-anchor="start" x="8" y="-171.5" font-family="Helvetica,sans-Serif" font-size="10.00">GLESC::Math::Matrix</text>
<text text-anchor="middle" x="63.12" y="-159.5" font-family="Helvetica,sans-Serif" font-size="10.00">::makeViewMatrixPosRot</text>
</a>
</g>
</g>
<!-- Node2 -->
<g id="Node000002" class="node">
<title>Node2</title>
<g id="a_Node000002"><a xlink:href="class_g_l_e_s_c_1_1_math_1_1_matrix_mixed_algorithms.html#a67bdda15ead970e5074845bdf3fcf085" target="_top" xlink:title=" ">
<polygon fill="white" stroke="#666666" points="317.75,-191 162.25,-191 162.25,-147 317.75,-147 317.75,-191"/>
<text text-anchor="start" x="170.25" y="-177.5" font-family="Helvetica,sans-Serif" font-size="10.00">GLESC::Math::MatrixMixed</text>
<text text-anchor="start" x="170.25" y="-165.5" font-family="Helvetica,sans-Serif" font-size="10.00">Algorithms::calculateViewMatrix</text>
<text text-anchor="middle" x="240" y="-153.5" font-family="Helvetica,sans-Serif" font-size="10.00">PosRot</text>
</a>
</g>
</g>
<!-- Node1&#45;&gt;Node2 -->
<g id="edge1_Node000001_Node000002" class="edge">
<title>Node1&#45;&gt;Node2</title>
<g id="a_edge1_Node000001_Node000002"><a xlink:title=" ">
<path fill="none" stroke="#63b8ff" d="M126.27,-169C134.08,-169 142.18,-169 150.3,-169"/>
<polygon fill="#63b8ff" stroke="#63b8ff" points="150.24,-172.5 160.24,-169 150.24,-165.5 150.24,-172.5"/>
</a>
</g>
</g>
<!-- Node3 -->
<g id="Node000003" class="node">
<title>Node3</title>
<g id="a_Node000003"><a xlink:href="class_g_l_e_s_c_1_1_math_1_1_matrix_mixed_algorithms.html#a88aadedf958ac6e320f73137e81aaf37" target="_top" xlink:title="Rotate a 3D matrix around the X, Y, and Z axis.">
<polygon fill="white" stroke="#666666" points="507.38,-335 357.88,-335 357.88,-291 507.38,-291 507.38,-335"/>
<text text-anchor="start" x="365.88" y="-321.5" font-family="Helvetica,sans-Serif" font-size="10.00">GLESC::Math::MatrixMixed</text>
<text text-anchor="start" x="365.88" y="-309.5" font-family="Helvetica,sans-Serif" font-size="10.00">Algorithms::getRotate3DMatrix</text>
<text text-anchor="middle" x="432.62" y="-297.5" font-family="Helvetica,sans-Serif" font-size="10.00">ForAxis</text>
</a>
</g>
</g>
<!-- Node2&#45;&gt;Node3 -->
<g id="edge2_Node000002_Node000003" class="edge">
<title>Node2&#45;&gt;Node3</title>
<g id="a_edge2_Node000002_Node000003"><a xlink:title=" ">
<path fill="none" stroke="#63b8ff" d="M258.39,-191.24C278.9,-216.21 315.11,-256.53 353.75,-282 355.38,-283.07 357.05,-284.12 358.76,-285.14"/>
<polygon fill="#63b8ff" stroke="#63b8ff" points="357.06,-288.2 367.51,-289.94 360.43,-282.06 357.06,-288.2"/>
</a>
</g>
</g>
<!-- Node13 -->
<g id="Node000013" class="node">
<title>Node13</title>
<g id="a_Node000013"><a xlink:href="class_g_l_e_s_c_1_1_math_1_1_matrix_algorithms.html#ac2a4e16d39a3e40fed2b4d7362c012a6" target="_top" xlink:title="Gets the scale matrix.">
<polygon fill="white" stroke="#666666" points="510.75,-273 354.5,-273 354.5,-241 510.75,-241 510.75,-273"/>
<text text-anchor="start" x="362.5" y="-259.5" font-family="Helvetica,sans-Serif" font-size="10.00">GLESC::Math::MatrixAlgorithms</text>
<text text-anchor="middle" x="432.62" y="-247.5" font-family="Helvetica,sans-Serif" font-size="10.00">::getScaleMatrix</text>
</a>
</g>
</g>
<!-- Node2&#45;&gt;Node13 -->
<g id="edge12_Node000002_Node000013" class="edge">
<title>Node2&#45;&gt;Node13</title>
<g id="a_edge12_Node000002_Node000013"><a xlink:title=" ">
<path fill="none" stroke="#63b8ff" d="M281.98,-191.43C303.15,-202.66 329.55,-216.15 353.75,-227 360.85,-230.18 368.4,-233.35 375.89,-236.37"/>
<polygon fill="#63b8ff" stroke="#63b8ff" points="374.41,-239.54 384.99,-239.97 376.98,-233.03 374.41,-239.54"/>
</a>
</g>
</g>
<!-- Node14 -->
<g id="Node000014" class="node">
<title>Node14</title>
<g id="a_Node000014"><a xlink:href="class_g_l_e_s_c_1_1_math_1_1_matrix_algorithms.html#a053f9441ed78e43be28efcca0fc34283" target="_top" xlink:title="Sets the values of a matrix to zero.">
<polygon fill="white" stroke="#666666" points="704.5,-232 548.25,-232 548.25,-200 704.5,-200 704.5,-232"/>
<text text-anchor="start" x="556.25" y="-218.5" font-family="Helvetica,sans-Serif" font-size="10.00">GLESC::Math::MatrixAlgorithms</text>
<text text-anchor="middle" x="626.38" y="-206.5" font-family="Helvetica,sans-Serif" font-size="10.00">::setMatrixZero</text>
</a>
</g>
</g>
<!-- Node2&#45;&gt;Node14 -->
<g id="edge23_Node000002_Node000014" class="edge">
<title>Node2&#45;&gt;Node14</title>
<g id="a_edge23_Node000002_Node000014"><a xlink:title=" ">
<path fill="none" stroke="#63b8ff" d="M318.07,-187.56C329.97,-190 342.15,-192.25 353.75,-194 414.33,-203.13 483.13,-208.65 536.33,-211.88"/>
<polygon fill="#63b8ff" stroke="#63b8ff" points="536.08,-215.37 546.27,-212.46 536.49,-208.38 536.08,-215.37"/>
</a>
</g>
</g>
<!-- Node16 -->
<g id="Node000016" class="node">
<title>Node16</title>
<g id="a_Node000016"><a xlink:href="class_g_l_e_s_c_1_1_math_1_1_matrix_algorithms.html#a0366e789adbfca31ea7a2bd82c77d676" target="_top" xlink:title="Applies the translation to a model matrix.">
<polygon fill="white" stroke="#666666" points="510.75,-185 354.5,-185 354.5,-153 510.75,-153 510.75,-185"/>
<text text-anchor="start" x="362.5" y="-171.5" font-family="Helvetica,sans-Serif" font-size="10.00">GLESC::Math::MatrixAlgorithms</text>
<text text-anchor="middle" x="432.62" y="-159.5" font-family="Helvetica,sans-Serif" font-size="10.00">::getTranslationMatrix</text>
</a>
</g>
</g>
<!-- Node2&#45;&gt;Node16 -->
<g id="edge15_Node000002_Node000016" class="edge">
<title>Node2&#45;&gt;Node16</title>
<g id="a_edge15_Node000002_Node000016"><a xlink:title=" ">
<path fill="none" stroke="#63b8ff" d="M317.99,-169C326.15,-169 334.51,-169 342.8,-169"/>
<polygon fill="#63b8ff" stroke="#63b8ff" points="342.53,-172.5 352.53,-169 342.53,-165.5 342.53,-172.5"/>
</a>
</g>
</g>
<!-- Node17 -->
<g id="Node000017" class="node">
<title>Node17</title>
<g id="a_Node000017"><a xlink:href="class_g_l_e_s_c_1_1_math_1_1_matrix_algorithms.html#a5cea58a2eb5207b8282360179774f17b" target="_top" xlink:title="Sets the diagonal of a matrix to a specific value.">
<polygon fill="white" stroke="#666666" points="704.5,-182 548.25,-182 548.25,-150 704.5,-150 704.5,-182"/>
<text text-anchor="start" x="556.25" y="-168.5" font-family="Helvetica,sans-Serif" font-size="10.00">GLESC::Math::MatrixAlgorithms</text>
<text text-anchor="middle" x="626.38" y="-156.5" font-family="Helvetica,sans-Serif" font-size="10.00">::setMatrixDiagonal</text>
</a>
</g>
</g>
<!-- Node2&#45;&gt;Node17 -->
<g id="edge22_Node000002_Node000017" class="edge">
<title>Node2&#45;&gt;Node17</title>
<g id="a_edge22_Node000002_Node000017"><a xlink:title=" ">
<path fill="none" stroke="#63b8ff" d="M317.96,-149.6C329.87,-147.28 342.09,-145.28 353.75,-144 423.44,-136.37 441.71,-137.32 511.5,-144 520.72,-144.88 530.3,-146.16 539.82,-147.66"/>
<polygon fill="#63b8ff" stroke="#63b8ff" points="539.01,-151.07 549.45,-149.26 540.16,-144.16 539.01,-151.07"/>
</a>
</g>
</g>
<!-- Node18 -->
<g id="Node000018" class="node">
<title>Node18</title>
<g id="a_Node000018"><a xlink:href="class_g_l_e_s_c_1_1_math_1_1_matrix_algorithms.html#aa04e41ebccb8934ec715c81742f0d11f" target="_top" xlink:title="Dot product matrix multiplication in place.">
<polygon fill="white" stroke="#666666" points="510.75,-97 354.5,-97 354.5,-65 510.75,-65 510.75,-97"/>
<text text-anchor="start" x="362.5" y="-83.5" font-family="Helvetica,sans-Serif" font-size="10.00">GLESC::Math::MatrixAlgorithms</text>
<text text-anchor="middle" x="432.62" y="-71.5" font-family="Helvetica,sans-Serif" font-size="10.00">::matrixMatrixMulInPlace</text>
</a>
</g>
</g>
<!-- Node2&#45;&gt;Node18 -->
<g id="edge18_Node000002_Node000018" class="edge">
<title>Node2&#45;&gt;Node18</title>
<g id="a_edge18_Node000002_Node000018"><a xlink:title=" ">
<path fill="none" stroke="#63b8ff" d="M281.98,-146.57C303.15,-135.34 329.55,-121.85 353.75,-111 360.85,-107.82 368.4,-104.65 375.89,-101.63"/>
<polygon fill="#63b8ff" stroke="#63b8ff" points="376.98,-104.97 384.99,-98.03 374.41,-98.46 376.98,-104.97"/>
</a>
</g>
</g>
<!-- Node22 -->
<g id="Node000022" class="node">
<title>Node22</title>
<g id="a_Node000022"><a xlink:href="class_g_l_e_s_c_1_1_math_1_1_vector_algorithms.html#a7b10d54bc647ac05d41a9e025d5c9410" target="_top" xlink:title="Negates a vector.">
<polygon fill="white" stroke="#666666" points="511.5,-47 353.75,-47 353.75,-15 511.5,-15 511.5,-47"/>
<text text-anchor="start" x="361.75" y="-33.5" font-family="Helvetica,sans-Serif" font-size="10.00">GLESC::Math::VectorAlgorithms</text>
<text text-anchor="middle" x="432.62" y="-21.5" font-family="Helvetica,sans-Serif" font-size="10.00">::vectorNegate</text>
</a>
</g>
</g>
<!-- Node2&#45;&gt;Node22 -->
<g id="edge24_Node000002_Node000022" class="edge">
<title>Node2&#45;&gt;Node22</title>
<g id="a_edge24_Node000002_Node000022"><a xlink:title=" ">
<path fill="none" stroke="#63b8ff" d="M257.73,-146.73C277.88,-121.36 314.02,-80.28 353.75,-56 355.92,-54.68 358.16,-53.42 360.46,-52.22"/>
<polygon fill="#63b8ff" stroke="#63b8ff" points="361.9,-55.4 369.46,-47.98 358.92,-49.07 361.9,-55.4"/>
</a>
</g>
</g>
<!-- Node4 -->
<g id="Node000004" class="node">
<title>Node4</title>
<g id="a_Node000004"><a xlink:href="namespace_g_l_e_s_c_1_1_math.html#ac72fdbfd43b6a5770385dbfd805b687b" target="_top" xlink:title="Calculates the cosine of a value.">
<polygon fill="white" stroke="#666666" points="675.62,-409 577.12,-409 577.12,-389 675.62,-389 675.62,-409"/>
<text text-anchor="middle" x="626.38" y="-395.5" font-family="Helvetica,sans-Serif" font-size="10.00">GLESC::Math::cos</text>
</a>
</g>
</g>
<!-- Node3&#45;&gt;Node4 -->
<g id="edge3_Node000003_Node000004" class="edge">
<title>Node3&#45;&gt;Node4</title>
<g id="a_edge3_Node000003_Node000004"><a xlink:title=" ">
<path fill="none" stroke="#63b8ff" d="M465.69,-335.31C487.82,-349.82 518.38,-368.18 547.5,-380 553.45,-382.41 559.78,-384.58 566.17,-386.5"/>
<polygon fill="#63b8ff" stroke="#63b8ff" points="564.87,-389.77 575.45,-389.1 566.76,-383.03 564.87,-389.77"/>
</a>
</g>
</g>
<!-- Node5 -->
<g id="Node000005" class="node">
<title>Node5</title>
<g id="a_Node000005"><a xlink:href="class_g_l_e_s_c_1_1_math_1_1_vector_algorithms.html#a7ee5da5ffdabacb6faa895af42dd78c3" target="_top" xlink:title="Normalizes a vector.">
<polygon fill="white" stroke="#666666" points="705.25,-371 547.5,-371 547.5,-339 705.25,-339 705.25,-371"/>
<text text-anchor="start" x="555.5" y="-357.5" font-family="Helvetica,sans-Serif" font-size="10.00">GLESC::Math::VectorAlgorithms</text>
<text text-anchor="middle" x="626.38" y="-345.5" font-family="Helvetica,sans-Serif" font-size="10.00">::normalize</text>
</a>
</g>
</g>
<!-- Node3&#45;&gt;Node5 -->
<g id="edge4_Node000003_Node000005" class="edge">
<title>Node3&#45;&gt;Node5</title>
<g id="a_edge4_Node000003_Node000005"><a xlink:title=" ">
<path fill="none" stroke="#63b8ff" d="M507.76,-329.24C517.98,-331.48 528.54,-333.79 538.95,-336.07"/>
<polygon fill="#63b8ff" stroke="#63b8ff" points="538.17,-339.48 548.69,-338.2 539.67,-332.65 538.17,-339.48"/>
</a>
</g>
</g>
<!-- Node11 -->
<g id="Node000011" class="node">
<title>Node11</title>
<g id="a_Node000011"><a xlink:href="namespace_g_l_e_s_c_1_1_math.html#aa21a1aeaaa25e280f941221e165dffa4" target="_top" xlink:title="Calculates the sine of a value.">
<polygon fill="white" stroke="#666666" points="674.12,-321 578.62,-321 578.62,-301 674.12,-301 674.12,-321"/>
<text text-anchor="middle" x="626.38" y="-307.5" font-family="Helvetica,sans-Serif" font-size="10.00">GLESC::Math::sin</text>
</a>
</g>
</g>
<!-- Node3&#45;&gt;Node11 -->
<g id="edge10_Node000003_Node000011" class="edge">
<title>Node3&#45;&gt;Node11</title>
<g id="a_edge10_Node000003_Node000011"><a xlink:title=" ">
<path fill="none" stroke="#63b8ff" d="M507.76,-312.23C527.4,-312.02 548.32,-311.8 566.99,-311.61"/>
<polygon fill="#63b8ff" stroke="#63b8ff" points="566.81,-315.11 576.78,-311.51 566.74,-308.11 566.81,-315.11"/>
</a>
</g>
</g>
<!-- Node12 -->
<g id="Node000012" class="node">
<title>Node12</title>
<g id="a_Node000012"><a xlink:href="class_g_l_e_s_c_1_1_math_1_1_vector_algorithms.html#ae39d3eeb6fa078e77bb563ebc318e43a" target="_top" xlink:title="Multiplies a vector by a scalar.">
<polygon fill="white" stroke="#666666" points="705.25,-283 547.5,-283 547.5,-251 705.25,-251 705.25,-283"/>
<text text-anchor="start" x="555.5" y="-269.5" font-family="Helvetica,sans-Serif" font-size="10.00">GLESC::Math::VectorAlgorithms</text>
<text text-anchor="middle" x="626.38" y="-257.5" font-family="Helvetica,sans-Serif" font-size="10.00">::vectorScalarMul</text>
</a>
</g>
</g>
<!-- Node3&#45;&gt;Node12 -->
<g id="edge11_Node000003_Node000012" class="edge">
<title>Node3&#45;&gt;Node12</title>
<g id="a_edge11_Node000003_Node000012"><a xlink:title=" ">
<path fill="none" stroke="#63b8ff" d="M507.76,-295.22C520.23,-292.22 533.22,-289.11 545.82,-286.08"/>
<polygon fill="#63b8ff" stroke="#63b8ff" points="546.39,-289.55 555.3,-283.81 544.76,-282.74 546.39,-289.55"/>
</a>
</g>
</g>
<!-- Node6 -->
<g id="Node000006" class="node">
<title>Node6</title>
<g id="a_Node000006"><a xlink:href="namespace_g_l_e_s_c_1_1_math.html#aee25910dbba06d09d9df14d03933ace1" target="_top" xlink:title="Compares two values for equality.">
<polygon fill="white" stroke="#666666" points="866.75,-387 773.5,-387 773.5,-367 866.75,-367 866.75,-387"/>
<text text-anchor="middle" x="820.12" y="-373.5" font-family="Helvetica,sans-Serif" font-size="10.00">GLESC::Math::eq</text>
</a>
</g>
</g>
<!-- Node5&#45;&gt;Node6 -->
<g id="edge5_Node000005_Node000006" class="edge">
<title>Node5&#45;&gt;Node6</title>
<g id="a_edge5_Node000005_Node000006"><a xlink:title=" ">
<path fill="none" stroke="#63b8ff" d="M705.64,-363.98C724.5,-366.14 744.3,-368.42 761.99,-370.44"/>
<polygon fill="#63b8ff" stroke="#63b8ff" points="761.44,-373.9 771.77,-371.57 762.23,-366.95 761.44,-373.9"/>
</a>
</g>
</g>
<!-- Node8 -->
<g id="Node000008" class="node">
<title>Node8</title>
<g id="a_Node000008"><a xlink:href="class_g_l_e_s_c_1_1_math_1_1_vector_algorithms.html#a96acaa670e780132720dd3ea6a6cdf97" target="_top" xlink:title="Computes the length of a vector.">
<polygon fill="white" stroke="#666666" points="899,-349 741.25,-349 741.25,-317 899,-317 899,-349"/>
<text text-anchor="start" x="749.25" y="-335.5" font-family="Helvetica,sans-Serif" font-size="10.00">GLESC::Math::VectorAlgorithms</text>
<text text-anchor="middle" x="820.12" y="-323.5" font-family="Helvetica,sans-Serif" font-size="10.00">::length</text>
</a>
</g>
</g>
<!-- Node5&#45;&gt;Node8 -->
<g id="edge7_Node000005_Node000008" class="edge">
<title>Node5&#45;&gt;Node8</title>
<g id="a_edge7_Node000005_Node000008"><a xlink:title=" ">
<path fill="none" stroke="#63b8ff" d="M705.64,-346.02C713.53,-345.12 721.57,-344.19 729.56,-343.28"/>
<polygon fill="#63b8ff" stroke="#63b8ff" points="729.76,-346.78 739.29,-342.16 728.96,-339.82 729.76,-346.78"/>
</a>
</g>
</g>
<!-- Node7 -->
<g id="Node000007" class="node">
<title>Node7</title>
<g id="a_Node000007"><a xlink:href="namespace_g_l_e_s_c_1_1_math.html#acd429163efe906cd22916cc75ccb2421" target="_top" xlink:title="Epsilon getter with precision of a given template type.">
<polygon fill="white" stroke="#666666" points="1070.62,-387 957.12,-387 957.12,-367 1070.62,-367 1070.62,-387"/>
<text text-anchor="middle" x="1013.88" y="-373.5" font-family="Helvetica,sans-Serif" font-size="10.00">GLESC::Math::epsilon</text>
</a>
</g>
</g>
<!-- Node6&#45;&gt;Node7 -->
<g id="edge6_Node000006_Node000007" class="edge">
<title>Node6&#45;&gt;Node7</title>
<g id="a_edge6_Node000006_Node000007"><a xlink:title=" ">
<path fill="none" stroke="#63b8ff" d="M867.05,-377C890.51,-377 919.49,-377 945.43,-377"/>
<polygon fill="#63b8ff" stroke="#63b8ff" points="945.2,-380.5 955.2,-377 945.2,-373.5 945.2,-380.5"/>
</a>
</g>
</g>
<!-- Node9 -->
<g id="Node000009" class="node">
<title>Node9</title>
<g id="a_Node000009"><a xlink:href="class_g_l_e_s_c_1_1_math_1_1_vector_algorithms.html#ae45bcff9b53fb60d513c53823418d97b" target="_top" xlink:title="Computes the dot product of two vectors.">
<polygon fill="white" stroke="#666666" points="1092.75,-349 935,-349 935,-317 1092.75,-317 1092.75,-349"/>
<text text-anchor="start" x="943" y="-335.5" font-family="Helvetica,sans-Serif" font-size="10.00">GLESC::Math::VectorAlgorithms</text>
<text text-anchor="middle" x="1013.88" y="-323.5" font-family="Helvetica,sans-Serif" font-size="10.00">::dotProduct</text>
</a>
</g>
</g>
<!-- Node8&#45;&gt;Node9 -->
<g id="edge8_Node000008_Node000009" class="edge">
<title>Node8&#45;&gt;Node9</title>
<g id="a_edge8_Node000008_Node000009"><a xlink:title=" ">
<path fill="none" stroke="#63b8ff" d="M899.39,-333C907.19,-333 915.14,-333 923.04,-333"/>
<polygon fill="#63b8ff" stroke="#63b8ff" points="923.03,-336.5 933.03,-333 923.03,-329.5 923.03,-336.5"/>
</a>
</g>
</g>
<!-- Node10 -->
<g id="Node000010" class="node">
<title>Node10</title>
<g id="a_Node000010"><a xlink:href="namespace_g_l_e_s_c_1_1_math.html#ab2316a2512c43c18e29709201adf3fe5" target="_top" xlink:title="Calculates the square root of a value.">
<polygon fill="white" stroke="#666666" points="1063.5,-299 964.25,-299 964.25,-279 1063.5,-279 1063.5,-299"/>
<text text-anchor="middle" x="1013.88" y="-285.5" font-family="Helvetica,sans-Serif" font-size="10.00">GLESC::Math::sqrt</text>
</a>
</g>
</g>
<!-- Node8&#45;&gt;Node10 -->
<g id="edge9_Node000008_Node000010" class="edge">
<title>Node8&#45;&gt;Node10</title>
<g id="a_edge9_Node000008_Node000010"><a xlink:title=" ">
<path fill="none" stroke="#63b8ff" d="M892.8,-316.55C913.7,-311.76 936.25,-306.58 956.1,-302.03"/>
<polygon fill="#63b8ff" stroke="#63b8ff" points="956.69,-305.48 965.66,-299.84 955.13,-298.66 956.69,-305.48"/>
</a>
</g>
</g>
<!-- Node13&#45;&gt;Node14 -->
<g id="edge13_Node000013_Node000014" class="edge">
<title>Node13&#45;&gt;Node14</title>
<g id="a_edge13_Node000013_Node000014"><a xlink:title=" ">
<path fill="none" stroke="#63b8ff" d="M510.79,-240.5C519.5,-238.64 528.42,-236.73 537.25,-234.84"/>
<polygon fill="#63b8ff" stroke="#63b8ff" points="537.84,-238.3 546.89,-232.78 536.38,-231.45 537.84,-238.3"/>
</a>
</g>
</g>
<!-- Node15 -->
<g id="Node000015" class="node">
<title>Node15</title>
<g id="a_Node000015"><a xlink:href="class_g_l_e_s_c_1_1_math_1_1_matrix_algorithms.html#a555b3e0f1eb9a546ec47951fa0f5e8da" target="_top" xlink:title="Sets the values of a matrix to one.">
<polygon fill="white" stroke="#666666" points="898.25,-232 742,-232 742,-200 898.25,-200 898.25,-232"/>
<text text-anchor="start" x="750" y="-218.5" font-family="Helvetica,sans-Serif" font-size="10.00">GLESC::Math::MatrixAlgorithms</text>
<text text-anchor="middle" x="820.12" y="-206.5" font-family="Helvetica,sans-Serif" font-size="10.00">::fillMatrix</text>
</a>
</g>
</g>
<!-- Node14&#45;&gt;Node15 -->
<g id="edge14_Node000014_Node000015" class="edge">
<title>Node14&#45;&gt;Node15</title>
<g id="a_edge14_Node000014_Node000015"><a xlink:title=" ">
<path fill="none" stroke="#63b8ff" d="M704.81,-216C713.18,-216 721.73,-216 730.21,-216"/>
<polygon fill="#63b8ff" stroke="#63b8ff" points="730.19,-219.5 740.19,-216 730.19,-212.5 730.19,-219.5"/>
</a>
</g>
</g>
<!-- Node16&#45;&gt;Node14 -->
<g id="edge17_Node000016_Node000014" class="edge">
<title>Node16&#45;&gt;Node14</title>
<g id="a_edge17_Node000016_Node000014"><a xlink:title=" ">
<path fill="none" stroke="#63b8ff" d="M500.69,-185.44C515.72,-189.12 531.8,-193.06 547.24,-196.85"/>
<polygon fill="#63b8ff" stroke="#63b8ff" points="546.33,-200.23 556.88,-199.21 548,-193.43 546.33,-200.23"/>
</a>
</g>
</g>
<!-- Node16&#45;&gt;Node17 -->
<g id="edge16_Node000016_Node000017" class="edge">
<title>Node16&#45;&gt;Node17</title>
<g id="a_edge16_Node000016_Node000017"><a xlink:title=" ">
<path fill="none" stroke="#63b8ff" d="M511.06,-167.79C519.43,-167.66 527.98,-167.52 536.46,-167.39"/>
<polygon fill="#63b8ff" stroke="#63b8ff" points="536.5,-170.89 546.44,-167.23 536.39,-163.89 536.5,-170.89"/>
</a>
</g>
</g>
<!-- Node19 -->
<g id="Node000019" class="node">
<title>Node19</title>
<g id="a_Node000019"><a xlink:href="class_g_l_e_s_c_1_1_math_1_1_matrix_algorithms.html#ab4ffc1744770577aea3a32c00c41b976" target="_top" xlink:title="Copies the data from one matrix to another.">
<polygon fill="white" stroke="#666666" points="704.5,-132 548.25,-132 548.25,-100 704.5,-100 704.5,-132"/>
<text text-anchor="start" x="556.25" y="-118.5" font-family="Helvetica,sans-Serif" font-size="10.00">GLESC::Math::MatrixAlgorithms</text>
<text text-anchor="middle" x="626.38" y="-106.5" font-family="Helvetica,sans-Serif" font-size="10.00">::copyMatrix</text>
</a>
</g>
</g>
<!-- Node18&#45;&gt;Node19 -->
<g id="edge19_Node000018_Node000019" class="edge">
<title>Node18&#45;&gt;Node19</title>
<g id="a_edge19_Node000018_Node000019"><a xlink:title=" ">
<path fill="none" stroke="#63b8ff" d="M511.06,-95.13C519.52,-96.68 528.17,-98.26 536.75,-99.82"/>
<polygon fill="#63b8ff" stroke="#63b8ff" points="536,-103.24 546.47,-101.6 537.26,-96.36 536,-103.24"/>
</a>
</g>
</g>
<!-- Node20 -->
<g id="Node000020" class="node">
<title>Node20</title>
<g id="a_Node000020"><a xlink:href="class_g_l_e_s_c_1_1_math_1_1_matrix_algorithms.html#a0b865437ed01525b5afafb74f755ffbb" target="_top" xlink:title=" ">
<polygon fill="white" stroke="#666666" points="704.5,-82 548.25,-82 548.25,-50 704.5,-50 704.5,-82"/>
<text text-anchor="start" x="556.25" y="-68.5" font-family="Helvetica,sans-Serif" font-size="10.00">GLESC::Math::MatrixAlgorithms</text>
<text text-anchor="middle" x="626.38" y="-56.5" font-family="Helvetica,sans-Serif" font-size="10.00">::matrixMatrixMulColMaj</text>
</a>
</g>
</g>
<!-- Node18&#45;&gt;Node20 -->
<g id="edge20_Node000018_Node000020" class="edge">
<title>Node18&#45;&gt;Node20</title>
<g id="a_edge20_Node000018_Node000020"><a xlink:title=" ">
<path fill="none" stroke="#63b8ff" d="M511.06,-74.94C519.52,-74.28 528.17,-73.6 536.75,-72.93"/>
<polygon fill="#63b8ff" stroke="#63b8ff" points="536.75,-76.44 546.45,-72.17 536.21,-69.46 536.75,-76.44"/>
</a>
</g>
</g>
<!-- Node21 -->
<g id="Node000021" class="node">
<title>Node21</title>
<g id="a_Node000021"><a xlink:href="class_g_l_e_s_c_1_1_math_1_1_matrix_algorithms.html#ac339994676b91c61876ce07d0f2c1b88" target="_top" xlink:title=" ">
<polygon fill="white" stroke="#666666" points="704.5,-32 548.25,-32 548.25,0 704.5,0 704.5,-32"/>
<text text-anchor="start" x="556.25" y="-18.5" font-family="Helvetica,sans-Serif" font-size="10.00">GLESC::Math::MatrixAlgorithms</text>
<text text-anchor="middle" x="626.38" y="-6.5" font-family="Helvetica,sans-Serif" font-size="10.00">::matrixMatrixMulRowMaj</text>
</a>
</g>
</g>
<!-- Node18&#45;&gt;Node21 -->
<g id="edge21_Node000018_Node000021" class="edge">
<title>Node18&#45;&gt;Node21</title>
<g id="a_edge21_Node000018_Node000021"><a xlink:title=" ">
<path fill="none" stroke="#63b8ff" d="M487.03,-64.51C495.26,-61.78 503.64,-58.89 511.5,-56 527.77,-50.01 531.23,-46.99 547.5,-41 551.92,-39.37 556.51,-37.75 561.14,-36.15"/>
<polygon fill="#63b8ff" stroke="#63b8ff" points="562.18,-39.49 570.54,-32.97 559.94,-32.86 562.18,-39.49"/>
</a>
</g>
</g>
</g>
</svg>

<g id="navigator" transform="translate(0 0)" fill="#404254">
  <rect fill="#f2f5e9" fill-opacity="0.5" stroke="#606060" stroke-width=".5" x="0" y="0" width="60" height="60"/>
  <use id="zoomplus" xlink:href="#zoomPlus" x="17" y="9" onmousedown="handleZoom(evt,'in')"/>
  <use id="zoomminus" xlink:href="#zoomMin" x="42" y="9" onmousedown="handleZoom(evt,'out')"/>
  <use id="reset" xlink:href="#resetDef" x="30" y="36" onmousedown="handleReset()"/>
   <use id="arrowup" xlink:href="#arrowUp" x="0" y="0" onmousedown="handlePan(0,-1)"/>
  <use id="arrowright" xlink:href="#arrowRight" x="0" y="0" onmousedown="handlePan(1,0)"/>
  <use id="arrowdown" xlink:href="#arrowDown" x="0" y="0" onmousedown="handlePan(0,1)"/>
  <use id="arrowleft" xlink:href="#arrowLeft" x="0" y="0" onmousedown="handlePan(-1,0)"/>
</g>
<svg viewBox="0 0 15 15" width="100%" height="30px" preserveAspectRatio="xMaxYMin meet">
 <g id="arrow_out" transform="scale(0.3 0.3)">
  <a xlink:href="class_g_l_e_s_c_1_1_math_1_1_matrix_a3c0812b3a24431dfc5bc68f394910d61_cgraph_org.svg" target="_base">
   <rect id="button" ry="5" rx="5" y="6" x="6" height="38" width="38"
        fill="#f2f5e9" fill-opacity="0.5" stroke="#606060" stroke-width="1.0"/>
   <path id="arrow"
     d="M 11.500037,31.436501 C 11.940474,20.09759 22.043105,11.32322 32.158766,21.979434 L 37.068811,17.246167 C 37.068811,17.246167 37.088388,32 37.088388,32 L 22.160133,31.978069 C 22.160133,31.978069 26.997745,27.140456 26.997745,27.140456 C 18.528582,18.264221 13.291696,25.230495 11.500037,31.436501 z"
     style="fill:#404040;"/>
  </a>
 </g>
</svg>

<style type='text/css'>
<![CDATA[
[data-mouse-over-selected='false'] { opacity: 0.7; }
[data-mouse-over-selected='true']  { opacity: 1.0; }
]]>
</style>
<script type="application/ecmascript"><![CDATA[
document.addEventListener('DOMContentLoaded', (event) => {
  highlightEdges();
  highlightAdjacentNodes();
});
]]></script>
</svg>
