<?xml version="1.0" encoding="UTF-8" standalone="no"?>
<!DOCTYPE svg PUBLIC "-//W3C//DTD SVG 1.1//EN"
 "http://www.w3.org/Graphics/SVG/1.1/DTD/svg11.dtd">
<!-- Generated by graphviz version 11.0.0 (20240428.1522)
 -->
<!-- Title: GLESC::HUD::DebugConsoleHUD Pages: 1 -->
<!--zoomable 984 -->

<svg id="main" version="1.1" xmlns="http://www.w3.org/2000/svg" xmlns:xlink="http://www.w3.org/1999/xlink" xml:space="preserve" onload="init(evt)">
<style type="text/css"><![CDATA[
.node, .edge {opacity: 0.7;}
.node.selected, .edge.selected {opacity: 1;}
.edge:hover path { stroke: red; }
.edge:hover polygon { stroke: red; fill: red; }
]]></style>

<defs>
  <circle id="rim" cx="0" cy="0" r="7"/>
  <circle id="rim2" cx="0" cy="0" r="3.5"/>
  <g id="zoomPlus">
    <use xlink:href="#rim" fill="#404040"><set attributeName="fill" to="#808080" begin="zoomplus.mouseover" end="zoomplus.mouseout"/></use>
    <path d="M-4,0h8M0,-4v8" fill="none" stroke="white" stroke-width="1.5" pointer-events="none"/>
  </g>
  <g id="zoomMin">
    <use xlink:href="#rim" fill="#404040"><set attributeName="fill" to="#808080" begin="zoomminus.mouseover" end="zoomminus.mouseout"/></use>
    <path d="M-4,0h8" fill="none" stroke="white" stroke-width="1.5" pointer-events="none"/>
  </g>
  <g id="arrowUp" transform="translate(30 24)">
    <use xlink:href="#rim"/>
    <path pointer-events="none" fill="none" stroke="white" stroke-width="1.5" d="M0,-3.0v7 M-2.5,-0.5L0,-3.0L2.5,-0.5"/>
  </g>
  <g id="arrowRight" transform="rotate(90) translate(36 -43)">
    <use xlink:href="#rim"/>
    <path pointer-events="none" fill="none" stroke="white" stroke-width="1.5" d="M0,-3.0v7 M-2.5,-0.5L0,-3.0L2.5,-0.5"/>
  </g>
  <g id="arrowDown" transform="rotate(180) translate(-30 -48)">
    <use xlink:href="#rim"/>
    <path pointer-events="none" fill="none" stroke="white" stroke-width="1.5" d="M0,-3.0v7 M-2.5,-0.5L0,-3.0L2.5,-0.5"/>
  </g>
  <g id="arrowLeft" transform="rotate(270) translate(-36 17)">
    <use xlink:href="#rim"/>
    <path pointer-events="none" fill="none" stroke="white" stroke-width="1.5" d="M0,-3.0v7 M-2.5,-0.5L0,-3.0L2.5,-0.5"/>
  </g>
  <g id="resetDef">
    <use xlink:href="#rim2" fill="#404040"><set attributeName="fill" to="#808080" begin="reset.mouseover" end="reset.mouseout"/></use>
  </g>
</defs>
<script type="application/ecmascript">
var viewWidth = 269;
var viewHeight = 984;
var sectionId = 'dynsection-1';
</script>
<script type="application/ecmascript" xlink:href="svg.min.js"/>
<svg id="graph" class="graph">
<g id="viewport">
<title>GLESC::HUD::DebugConsoleHUD</title>
<!-- Node1 -->
<g id="Node000001" class="node">
<title>Node1</title>
<g id="a_Node000001"><a xlink:title="Class to encapsulate the logic of the debug console HUD.">
<polygon fill="#999999" stroke="none" points="176,-100 18,-100 18,0 176,0 176,-100"/>
<text text-anchor="start" x="22.75" y="-86.5" font-family="Helvetica,sans-Serif" font-size="10.00">GLESC::HUD::DebugConsoleHUD</text>
<text text-anchor="start" x="36" y="-70.5" font-family="Helvetica,sans-Serif" font-size="10.00">&#45;</text>
<text text-anchor="start" x="57" y="-70.5" font-family="Helvetica,sans-Serif" font-size="10.00">errorColor</text>
<text text-anchor="start" x="36" y="-54.5" font-family="Helvetica,sans-Serif" font-size="10.00">&#45;</text>
<text text-anchor="start" x="57" y="-54.5" font-family="Helvetica,sans-Serif" font-size="10.00">infoColor</text>
<text text-anchor="start" x="36" y="-38.5" font-family="Helvetica,sans-Serif" font-size="10.00">&#45;</text>
<text text-anchor="start" x="57" y="-38.5" font-family="Helvetica,sans-Serif" font-size="10.00">warningColor</text>
<text text-anchor="start" x="34.5" y="-22.5" font-family="Helvetica,sans-Serif" font-size="10.00">+</text>
<text text-anchor="start" x="57" y="-22.5" font-family="Helvetica,sans-Serif" font-size="10.00">DebugConsoleHUD()</text>
<text text-anchor="start" x="36" y="-6.5" font-family="Helvetica,sans-Serif" font-size="10.00">&#45;</text>
<text text-anchor="start" x="57" y="-6.5" font-family="Helvetica,sans-Serif" font-size="10.00">windowContent()</text>
<polygon fill="#666666" stroke="#666666" points="18,-82 18,-82 176,-82 176,-82 18,-82"/>
<polygon fill="#666666" stroke="#666666" points="18,-34 18,-34 55,-34 55,-34 18,-34"/>
<polygon fill="#666666" stroke="#666666" points="55,-34 55,-34 176,-34 176,-34 55,-34"/>
<polygon fill="none" stroke="#666666" points="18,0 18,-100 176,-100 176,0 18,0"/>
</a>
</g>
</g>
<!-- Node2 -->
<g id="Node000002" class="node">
<title>Node2</title>
<g id="a_Node000002"><a xlink:href="class_g_l_e_s_c_1_1_in_game_window.html" target="_top" xlink:title="Class to encapsulate the logic of an in&#45;game window.">
<polygon fill="white" stroke="none" points="155.5,-652 38.5,-652 38.5,-136 155.5,-136 155.5,-652"/>
<text text-anchor="start" x="43.38" y="-638.5" font-family="Helvetica,sans-Serif" font-size="10.00">GLESC::InGameWindow</text>
<text text-anchor="start" x="43.38" y="-622.5" font-family="Helvetica,sans-Serif" font-size="10.00">#</text>
<text text-anchor="start" x="53.5" y="-622.5" font-family="Helvetica,sans-Serif" font-size="10.00">isVisible</text>
<text text-anchor="start" x="44.5" y="-606.5" font-family="Helvetica,sans-Serif" font-size="10.00">&#45;</text>
<text text-anchor="start" x="53.5" y="-606.5" font-family="Helvetica,sans-Serif" font-size="10.00">cachedFlags</text>
<text text-anchor="start" x="44.5" y="-590.5" font-family="Helvetica,sans-Serif" font-size="10.00">&#45;</text>
<text text-anchor="start" x="53.5" y="-590.5" font-family="Helvetica,sans-Serif" font-size="10.00">center</text>
<text text-anchor="start" x="44.5" y="-574.5" font-family="Helvetica,sans-Serif" font-size="10.00">&#45;</text>
<text text-anchor="start" x="53.5" y="-574.5" font-family="Helvetica,sans-Serif" font-size="10.00">maxSize</text>
<text text-anchor="start" x="44.5" y="-558.5" font-family="Helvetica,sans-Serif" font-size="10.00">&#45;</text>
<text text-anchor="start" x="53.5" y="-558.5" font-family="Helvetica,sans-Serif" font-size="10.00">minSize</text>
<text text-anchor="start" x="44.5" y="-542.5" font-family="Helvetica,sans-Serif" font-size="10.00">&#45;</text>
<text text-anchor="start" x="53.5" y="-542.5" font-family="Helvetica,sans-Serif" font-size="10.00">position</text>
<text text-anchor="start" x="44.5" y="-526.5" font-family="Helvetica,sans-Serif" font-size="10.00">&#45;</text>
<text text-anchor="start" x="53.5" y="-526.5" font-family="Helvetica,sans-Serif" font-size="10.00">positionFraction</text>
<text text-anchor="start" x="44.5" y="-510.5" font-family="Helvetica,sans-Serif" font-size="10.00">&#45;</text>
<text text-anchor="start" x="53.5" y="-510.5" font-family="Helvetica,sans-Serif" font-size="10.00">size</text>
<text text-anchor="start" x="44.5" y="-494.5" font-family="Helvetica,sans-Serif" font-size="10.00">&#45;</text>
<text text-anchor="start" x="53.5" y="-494.5" font-family="Helvetica,sans-Serif" font-size="10.00">sizeFraction</text>
<text text-anchor="start" x="44.5" y="-478.5" font-family="Helvetica,sans-Serif" font-size="10.00">&#45;</text>
<text text-anchor="start" x="53.5" y="-478.5" font-family="Helvetica,sans-Serif" font-size="10.00">windowFlagsCached</text>
<text text-anchor="start" x="44.5" y="-462.5" font-family="Helvetica,sans-Serif" font-size="10.00">&#45;</text>
<text text-anchor="start" x="53.5" y="-462.5" font-family="Helvetica,sans-Serif" font-size="10.00">windowMarginFraction</text>
<text text-anchor="start" x="43" y="-446.5" font-family="Helvetica,sans-Serif" font-size="10.00">+</text>
<text text-anchor="start" x="53.5" y="-446.5" font-family="Helvetica,sans-Serif" font-size="10.00">InGameWindow()</text>
<text text-anchor="start" x="43" y="-430.5" font-family="Helvetica,sans-Serif" font-size="10.00">+</text>
<text text-anchor="start" x="53.5" y="-430.5" font-family="Helvetica,sans-Serif" font-size="10.00">~InGameWindow()</text>
<text text-anchor="start" x="43" y="-414.5" font-family="Helvetica,sans-Serif" font-size="10.00">+</text>
<text text-anchor="start" x="53.5" y="-414.5" font-family="Helvetica,sans-Serif" font-size="10.00">addFlag()</text>
<text text-anchor="start" x="43" y="-398.5" font-family="Helvetica,sans-Serif" font-size="10.00">+</text>
<text text-anchor="start" x="53.5" y="-398.5" font-family="Helvetica,sans-Serif" font-size="10.00">getTitle()</text>
<text text-anchor="start" x="43" y="-382.5" font-family="Helvetica,sans-Serif" font-size="10.00">+</text>
<text text-anchor="start" x="53.5" y="-382.5" font-family="Helvetica,sans-Serif" font-size="10.00">isVisibile()</text>
<text text-anchor="start" x="43" y="-366.5" font-family="Helvetica,sans-Serif" font-size="10.00">+</text>
<text text-anchor="start" x="53.5" y="-366.5" font-family="Helvetica,sans-Serif" font-size="10.00">render()</text>
<text text-anchor="start" x="43" y="-350.5" font-family="Helvetica,sans-Serif" font-size="10.00">+</text>
<text text-anchor="start" x="53.5" y="-350.5" font-family="Helvetica,sans-Serif" font-size="10.00">setCenter()</text>
<text text-anchor="start" x="43" y="-334.5" font-family="Helvetica,sans-Serif" font-size="10.00">+</text>
<text text-anchor="start" x="53.5" y="-334.5" font-family="Helvetica,sans-Serif" font-size="10.00">setLayoutPosition()</text>
<text text-anchor="start" x="43" y="-318.5" font-family="Helvetica,sans-Serif" font-size="10.00">+</text>
<text text-anchor="start" x="53.5" y="-318.5" font-family="Helvetica,sans-Serif" font-size="10.00">setMaxSize()</text>
<text text-anchor="start" x="43" y="-302.5" font-family="Helvetica,sans-Serif" font-size="10.00">+</text>
<text text-anchor="start" x="53.5" y="-302.5" font-family="Helvetica,sans-Serif" font-size="10.00">setMinSize()</text>
<text text-anchor="start" x="43" y="-286.5" font-family="Helvetica,sans-Serif" font-size="10.00">+</text>
<text text-anchor="start" x="53.5" y="-286.5" font-family="Helvetica,sans-Serif" font-size="10.00">setPositionFraction()</text>
<text text-anchor="start" x="43" y="-270.5" font-family="Helvetica,sans-Serif" font-size="10.00">+</text>
<text text-anchor="start" x="53.5" y="-270.5" font-family="Helvetica,sans-Serif" font-size="10.00">setSizeFraction()</text>
<text text-anchor="start" x="43" y="-254.5" font-family="Helvetica,sans-Serif" font-size="10.00">+</text>
<text text-anchor="start" x="53.5" y="-254.5" font-family="Helvetica,sans-Serif" font-size="10.00">setVisible()</text>
<text text-anchor="start" x="43" y="-238.5" font-family="Helvetica,sans-Serif" font-size="10.00">+</text>
<text text-anchor="start" x="53.5" y="-238.5" font-family="Helvetica,sans-Serif" font-size="10.00">toggleVisibility()</text>
<text text-anchor="start" x="43" y="-222.5" font-family="Helvetica,sans-Serif" font-size="10.00">+</text>
<text text-anchor="start" x="53.5" y="-222.5" font-family="Helvetica,sans-Serif" font-size="10.00">update()</text>
<text text-anchor="start" x="43.38" y="-206.5" font-family="Helvetica,sans-Serif" font-size="10.00">#</text>
<text text-anchor="start" x="53.5" y="-206.5" font-family="Helvetica,sans-Serif" font-size="10.00">calculatePosition()</text>
<text text-anchor="start" x="43.38" y="-190.5" font-family="Helvetica,sans-Serif" font-size="10.00">#</text>
<text text-anchor="start" x="53.5" y="-190.5" font-family="Helvetica,sans-Serif" font-size="10.00">calculateSize()</text>
<text text-anchor="start" x="43.38" y="-174.5" font-family="Helvetica,sans-Serif" font-size="10.00">#</text>
<text text-anchor="start" x="53.5" y="-174.5" font-family="Helvetica,sans-Serif" font-size="10.00">getFlags()</text>
<text text-anchor="start" x="43.38" y="-158.5" font-family="Helvetica,sans-Serif" font-size="10.00">#</text>
<text text-anchor="start" x="53.5" y="-158.5" font-family="Helvetica,sans-Serif" font-size="10.00">setTitle()</text>
<text text-anchor="start" x="43.38" y="-142.5" font-family="Helvetica,sans-Serif" font-size="10.00">#</text>
<text text-anchor="start" x="53.5" y="-142.5" font-family="Helvetica,sans-Serif" font-size="10.00">windowContent()</text>
<polygon fill="#666666" stroke="#666666" points="38.5,-634 38.5,-634 155.5,-634 155.5,-634 38.5,-634"/>
<polygon fill="#666666" stroke="#666666" points="38.5,-458 38.5,-458 51.5,-458 51.5,-458 38.5,-458"/>
<polygon fill="#666666" stroke="#666666" points="51.5,-458 51.5,-458 155.5,-458 155.5,-458 51.5,-458"/>
<polygon fill="none" stroke="#666666" points="38.5,-136 38.5,-652 155.5,-652 155.5,-136 38.5,-136"/>
</a>
</g>
</g>
<!-- Node2&#45;&gt;Node1 -->
<g id="edge1_Node000001_Node000002" class="edge">
<title>Node2&#45;&gt;Node1</title>
<g id="a_edge1_Node000001_Node000002"><a xlink:title=" ">
<path fill="none" stroke="#63b8ff" d="M97,-125.2C97,-116.21 97,-107.75 97,-99.99"/>
<polygon fill="none" stroke="#63b8ff" points="93.5,-124.91 97,-134.91 100.5,-124.91 93.5,-124.91"/>
</a>
</g>
</g>
<!-- Node3 -->
<g id="Node000003" class="node">
<title>Node3</title>
<g id="a_Node000003"><a xlink:title=" ">
<polygon fill="white" stroke="none" points="70.5,-758 17.5,-758 17.5,-706 70.5,-706 70.5,-758"/>
<text text-anchor="start" x="22.25" y="-744.5" font-family="Helvetica,sans-Serif" font-size="10.00">std::string</text>
<text text-anchor="start" x="42.5" y="-728.5" font-family="Helvetica,sans-Serif" font-size="10.00"> </text>
<text text-anchor="start" x="42.5" y="-712.5" font-family="Helvetica,sans-Serif" font-size="10.00"> </text>
<polygon fill="#666666" stroke="#666666" points="17.5,-740 17.5,-740 70.5,-740 70.5,-740 17.5,-740"/>
<polygon fill="#666666" stroke="#666666" points="17.5,-724 17.5,-724 70.5,-724 70.5,-724 17.5,-724"/>
<polygon fill="none" stroke="#666666" points="17.5,-706 17.5,-758 70.5,-758 70.5,-706 17.5,-706"/>
</a>
</g>
</g>
<!-- Node3&#45;&gt;Node2 -->
<g id="edge2_Node000002_Node000003" class="edge">
<title>Node3&#45;&gt;Node2</title>
<g id="a_edge2_Node000002_Node000003"><a xlink:title=" ">
<path fill="none" stroke="#63b8ff" d="M47.94,-706.02C49.68,-694.99 51.91,-680.85 54.46,-664.69"/>
<polygon fill="none" stroke="#63b8ff" points="54.46,-664.71 51.44,-658.16 56.33,-652.86 59.34,-659.41 54.46,-664.71"/>
</a>
</g>
<text text-anchor="middle" x="62.88" y="-672.5" font-family="Helvetica,sans-Serif" font-size="10.00" fill="grey"> &#45;title</text>
</g>
<!-- Node4 -->
<g id="Node000004" class="node">
<title>Node4</title>
<g id="a_Node000004"><a xlink:title=" ">
<polygon fill="white" stroke="none" points="88,-876 0,-876 0,-812 88,-812 88,-876"/>
<text text-anchor="start" x="5" y="-862.5" font-family="Helvetica,sans-Serif" font-size="10.00">std::basic_string&lt;</text>
<text text-anchor="start" x="27.88" y="-850.5" font-family="Helvetica,sans-Serif" font-size="10.00"> Char &gt;</text>
<text text-anchor="start" x="42.5" y="-834.5" font-family="Helvetica,sans-Serif" font-size="10.00"> </text>
<text text-anchor="start" x="42.5" y="-818.5" font-family="Helvetica,sans-Serif" font-size="10.00"> </text>
<polygon fill="#666666" stroke="#666666" points="0,-846 0,-846 88,-846 88,-846 0,-846"/>
<polygon fill="#666666" stroke="#666666" points="0,-830 0,-830 88,-830 88,-830 0,-830"/>
<polygon fill="none" stroke="#666666" points="0,-812 0,-876 88,-876 88,-812 0,-812"/>
</a>
</g>
</g>
<!-- Node4&#45;&gt;Node3 -->
<g id="edge3_Node000003_Node000004" class="edge">
<title>Node4&#45;&gt;Node3</title>
<g id="a_edge3_Node000003_Node000004"><a xlink:title=" ">
<path fill="none" stroke="#63b8ff" d="M44,-800.77C44,-786.25 44,-770.47 44,-757.79"/>
<polygon fill="none" stroke="#63b8ff" points="40.5,-800.55 44,-810.55 47.5,-800.55 40.5,-800.55"/>
</a>
</g>
</g>
<!-- Node5 -->
<g id="Node000005" class="node">
<title>Node5</title>
<g id="a_Node000005"><a xlink:title=" ">
<polygon fill="white" stroke="none" points="213,-764 89,-764 89,-700 213,-700 213,-764"/>
<text text-anchor="start" x="94" y="-750.5" font-family="Helvetica,sans-Serif" font-size="10.00">std::vector&lt; ImGuiWindow</text>
<text text-anchor="start" x="131.88" y="-738.5" font-family="Helvetica,sans-Serif" font-size="10.00">Flags_ &gt;</text>
<text text-anchor="start" x="109.5" y="-722.5" font-family="Helvetica,sans-Serif" font-size="10.00">+</text>
<text text-anchor="start" x="136" y="-722.5" font-family="Helvetica,sans-Serif" font-size="10.00">elements</text>
<text text-anchor="start" x="149.5" y="-706.5" font-family="Helvetica,sans-Serif" font-size="10.00"> </text>
<polygon fill="#666666" stroke="#666666" points="89,-734 89,-734 213,-734 213,-734 89,-734"/>
<polygon fill="#666666" stroke="#666666" points="89,-718 89,-718 134,-718 134,-718 89,-718"/>
<polygon fill="#666666" stroke="#666666" points="134,-718 134,-718 213,-718 213,-718 134,-718"/>
<polygon fill="none" stroke="#666666" points="89,-700 89,-764 213,-764 213,-700 89,-700"/>
</a>
</g>
</g>
<!-- Node5&#45;&gt;Node2 -->
<g id="edge4_Node000002_Node000005" class="edge">
<title>Node5&#45;&gt;Node2</title>
<g id="a_edge4_Node000002_Node000005"><a xlink:title=" ">
<path fill="none" stroke="#63b8ff" d="M146.06,-700.29C144.45,-690.24 142.51,-678.15 140.34,-664.66"/>
<polygon fill="none" stroke="#63b8ff" points="140.33,-664.63 135.43,-659.34 138.43,-652.78 143.33,-658.07 140.33,-664.63"/>
</a>
</g>
<text text-anchor="middle" x="171.75" y="-672.5" font-family="Helvetica,sans-Serif" font-size="10.00" fill="grey"> &#45;windowFlags</text>
</g>
<!-- Node6 -->
<g id="Node000006" class="node">
<title>Node6</title>
<g id="a_Node000006"><a xlink:title=" ">
<polygon fill="white" stroke="none" points="190,-870 112,-870 112,-818 190,-818 190,-870"/>
<text text-anchor="start" x="116.88" y="-856.5" font-family="Helvetica,sans-Serif" font-size="10.00">std::vector&lt; T &gt;</text>
<text text-anchor="start" x="149.5" y="-840.5" font-family="Helvetica,sans-Serif" font-size="10.00"> </text>
<text text-anchor="start" x="149.5" y="-824.5" font-family="Helvetica,sans-Serif" font-size="10.00"> </text>
<polygon fill="#666666" stroke="#666666" points="112,-852 112,-852 190,-852 190,-852 112,-852"/>
<polygon fill="#666666" stroke="#666666" points="112,-836 112,-836 190,-836 190,-836 112,-836"/>
<polygon fill="none" stroke="#666666" points="112,-818 112,-870 190,-870 190,-818 112,-818"/>
</a>
</g>
</g>
<!-- Node6&#45;&gt;Node5 -->
<g id="edge5_Node000005_Node000006" class="edge">
<title>Node6&#45;&gt;Node5</title>
<g id="a_edge5_Node000005_Node000006"><a xlink:title=" ">
<path fill="none" stroke="orange" d="M151,-806.86C151,-792.92 151,-777.14 151,-763.75"/>
<polygon fill="orange" stroke="orange" points="147.5,-806.53 151,-816.53 154.5,-806.53 147.5,-806.53"/>
</a>
</g>
<text text-anchor="middle" x="206.12" y="-784.5" font-family="Helvetica,sans-Serif" font-size="10.00" fill="grey"> &lt; ImGuiWindowFlags_ &gt;</text>
</g>
<!-- Node7 -->
<g id="Node000007" class="node">
<title>Node7</title>
<g id="a_Node000007"><a xlink:title=" ">
<polygon fill="white" stroke="none" points="158.5,-976 143.5,-976 143.5,-924 158.5,-924 158.5,-976"/>
<text text-anchor="start" x="148.38" y="-962.5" font-family="Helvetica,sans-Serif" font-size="10.00">T</text>
<text text-anchor="start" x="149.5" y="-946.5" font-family="Helvetica,sans-Serif" font-size="10.00"> </text>
<text text-anchor="start" x="149.5" y="-930.5" font-family="Helvetica,sans-Serif" font-size="10.00"> </text>
<polygon fill="#666666" stroke="#666666" points="143.5,-958 143.5,-958 158.5,-958 158.5,-958 143.5,-958"/>
<polygon fill="#666666" stroke="#666666" points="143.5,-942 143.5,-942 158.5,-942 158.5,-942 143.5,-942"/>
<polygon fill="none" stroke="#666666" points="143.5,-924 143.5,-976 158.5,-976 158.5,-924 143.5,-924"/>
</a>
</g>
</g>
<!-- Node7&#45;&gt;Node6 -->
<g id="edge6_Node000006_Node000007" class="edge">
<title>Node7&#45;&gt;Node6</title>
<g id="a_edge6_Node000006_Node000007"><a xlink:title=" ">
<path fill="none" stroke="#63b8ff" d="M151,-924.09C151,-911.61 151,-896.25 151,-882.39"/>
<polygon fill="none" stroke="#63b8ff" points="151,-882.61 147,-876.61 151,-870.61 155,-876.61 151,-882.61"/>
</a>
</g>
<text text-anchor="middle" x="175.38" y="-896.5" font-family="Helvetica,sans-Serif" font-size="10.00" fill="grey"> +elements</text>
</g>
</g>
</svg>

<g id="navigator" transform="translate(0 0)" fill="#404254">
  <rect fill="#f2f5e9" fill-opacity="0.5" stroke="#606060" stroke-width=".5" x="0" y="0" width="60" height="60"/>
  <use id="zoomplus" xlink:href="#zoomPlus" x="17" y="9" onmousedown="handleZoom(evt,'in')"/>
  <use id="zoomminus" xlink:href="#zoomMin" x="42" y="9" onmousedown="handleZoom(evt,'out')"/>
  <use id="reset" xlink:href="#resetDef" x="30" y="36" onmousedown="handleReset()"/>
   <use id="arrowup" xlink:href="#arrowUp" x="0" y="0" onmousedown="handlePan(0,-1)"/>
  <use id="arrowright" xlink:href="#arrowRight" x="0" y="0" onmousedown="handlePan(1,0)"/>
  <use id="arrowdown" xlink:href="#arrowDown" x="0" y="0" onmousedown="handlePan(0,1)"/>
  <use id="arrowleft" xlink:href="#arrowLeft" x="0" y="0" onmousedown="handlePan(-1,0)"/>
</g>
<svg viewBox="0 0 15 15" width="100%" height="30px" preserveAspectRatio="xMaxYMin meet">
 <g id="arrow_out" transform="scale(0.3 0.3)">
  <a xlink:href="class_g_l_e_s_c_1_1_h_u_d_1_1_debug_console_h_u_d__coll__graph_org.svg" target="_base">
   <rect id="button" ry="5" rx="5" y="6" x="6" height="38" width="38"
        fill="#f2f5e9" fill-opacity="0.5" stroke="#606060" stroke-width="1.0"/>
   <path id="arrow"
     d="M 11.500037,31.436501 C 11.940474,20.09759 22.043105,11.32322 32.158766,21.979434 L 37.068811,17.246167 C 37.068811,17.246167 37.088388,32 37.088388,32 L 22.160133,31.978069 C 22.160133,31.978069 26.997745,27.140456 26.997745,27.140456 C 18.528582,18.264221 13.291696,25.230495 11.500037,31.436501 z"
     style="fill:#404040;"/>
  </a>
 </g>
</svg>

<style type='text/css'>
<![CDATA[
[data-mouse-over-selected='false'] { opacity: 0.7; }
[data-mouse-over-selected='true']  { opacity: 1.0; }
]]>
</style>
<script type="application/ecmascript"><![CDATA[
document.addEventListener('DOMContentLoaded', (event) => {
  highlightEdges();
  highlightAdjacentNodes();
});
]]></script>
</svg>
