<?xml version="1.0" encoding="UTF-8" standalone="no"?>
<!DOCTYPE svg PUBLIC "-//W3C//DTD SVG 1.1//EN"
 "http://www.w3.org/Graphics/SVG/1.1/DTD/svg11.dtd">
<!-- Generated by graphviz version 11.0.0 (20240428.1522)
 -->
<!-- Title: GLESC::GAPI::OpenGLAPI::bindTextureOnSlot Pages: 1 -->
<svg width="488pt" height="62pt"
 viewBox="0.00 0.00 488.00 62.00" xmlns="http://www.w3.org/2000/svg" xmlns:xlink="http://www.w3.org/1999/xlink">
<g id="graph0" class="graph" transform="scale(1 1) rotate(0) translate(4 58)">
<title>GLESC::GAPI::OpenGLAPI::bindTextureOnSlot</title>
<!-- Node1 -->
<g id="Node000001" class="node">
<title>Node1</title>
<g id="a_Node000001"><a xlink:title=" ">
<polygon fill="#999999" stroke="#666666" points="136,-32 0,-32 0,0 136,0 136,-32"/>
<text text-anchor="start" x="8" y="-18.5" font-family="Helvetica,sans-Serif" font-size="10.00">GLESC::GAPI::OpenGLAPI</text>
<text text-anchor="middle" x="68" y="-6.5" font-family="Helvetica,sans-Serif" font-size="10.00">::bindTextureOnSlot</text>
</a>
</g>
</g>
<!-- Node2 -->
<g id="Node000002" class="node">
<title>Node2</title>
<g id="a_Node000002"><a xlink:href="class_g_l_e_s_c_1_1_g_a_p_i_1_1_open_g_l_a_p_i.html#add338061fb9af187b42b2a20b2734777" target="_top" xlink:title=" ">
<polygon fill="white" stroke="#666666" points="308,-54 172,-54 172,-22 308,-22 308,-54"/>
<text text-anchor="start" x="180" y="-40.5" font-family="Helvetica,sans-Serif" font-size="10.00">GLESC::GAPI::OpenGLAPI</text>
<text text-anchor="middle" x="240" y="-28.5" font-family="Helvetica,sans-Serif" font-size="10.00">::bindTexture</text>
</a>
</g>
</g>
<!-- Node1&#45;&gt;Node2 -->
<g id="edge1_Node000001_Node000002" class="edge">
<title>Node1&#45;&gt;Node2</title>
<g id="a_edge1_Node000001_Node000002"><a xlink:title=" ">
<path fill="none" stroke="#63b8ff" d="M136.19,-24.69C144.14,-25.72 152.3,-26.78 160.39,-27.83"/>
<polygon fill="#63b8ff" stroke="#63b8ff" points="159.88,-31.29 170.24,-29.1 160.77,-24.35 159.88,-31.29"/>
</a>
</g>
</g>
<!-- Node3 -->
<g id="Node000003" class="node">
<title>Node3</title>
<g id="a_Node000003"><a xlink:href="class_g_l_e_s_c_1_1_g_a_p_i_1_1_open_g_l_a_p_i.html#a791591ba90cb777ca1395778de95871b" target="_top" xlink:title=" ">
<polygon fill="white" stroke="#666666" points="480,-32 344,-32 344,0 480,0 480,-32"/>
<text text-anchor="start" x="352" y="-18.5" font-family="Helvetica,sans-Serif" font-size="10.00">GLESC::GAPI::OpenGLAPI</text>
<text text-anchor="middle" x="412" y="-6.5" font-family="Helvetica,sans-Serif" font-size="10.00">::isTexture</text>
</a>
</g>
</g>
<!-- Node1&#45;&gt;Node3 -->
<g id="edge3_Node000001_Node000003" class="edge">
<title>Node1&#45;&gt;Node3</title>
<g id="a_edge3_Node000001_Node000003"><a xlink:title=" ">
<path fill="none" stroke="#63b8ff" d="M136.31,-13.76C148.2,-13.44 160.46,-13.17 172,-13 232.44,-12.12 247.56,-12.12 308,-13 315.84,-13.11 324.02,-13.28 332.19,-13.47"/>
<polygon fill="#63b8ff" stroke="#63b8ff" points="332.09,-16.97 342.18,-13.72 332.27,-9.97 332.09,-16.97"/>
</a>
</g>
</g>
<!-- Node2&#45;&gt;Node3 -->
<g id="edge2_Node000002_Node000003" class="edge">
<title>Node2&#45;&gt;Node3</title>
<g id="a_edge2_Node000002_Node000003"><a xlink:title=" ">
<path fill="none" stroke="#63b8ff" d="M308.19,-29.31C316.14,-28.28 324.3,-27.22 332.39,-26.17"/>
<polygon fill="#63b8ff" stroke="#63b8ff" points="332.77,-29.65 342.24,-24.9 331.88,-22.71 332.77,-29.65"/>
</a>
</g>
</g>
</g>
</svg>
