<?xml version="1.0" encoding="UTF-8" standalone="no"?>
<!DOCTYPE svg PUBLIC "-//W3C//DTD SVG 1.1//EN"
 "http://www.w3.org/Graphics/SVG/1.1/DTD/svg11.dtd">
<!-- Generated by graphviz version 11.0.0 (20240428.1522)
 -->
<!-- Title: GLESC::Math::PolyhedronFace::intersects Pages: 1 -->
<svg width="1121pt" height="322pt"
 viewBox="0.00 0.00 1121.00 322.00" xmlns="http://www.w3.org/2000/svg" xmlns:xlink="http://www.w3.org/1999/xlink">
<g id="graph0" class="graph" transform="scale(1 1) rotate(0) translate(4 318)">
<title>GLESC::Math::PolyhedronFace::intersects</title>
<!-- Node1 -->
<g id="Node000001" class="node">
<title>Node1</title>
<g id="a_Node000001"><a xlink:title="Checks if the face intersects with a given line.">
<polygon fill="#999999" stroke="#666666" points="153.25,-216 0,-216 0,-184 153.25,-184 153.25,-216"/>
<text text-anchor="start" x="8" y="-202.5" font-family="Helvetica,sans-Serif" font-size="10.00">GLESC::Math::PolyhedronFace</text>
<text text-anchor="middle" x="76.62" y="-190.5" font-family="Helvetica,sans-Serif" font-size="10.00">::intersects</text>
</a>
</g>
</g>
<!-- Node2 -->
<g id="Node000002" class="node">
<title>Node2</title>
<g id="a_Node000002"><a xlink:href="namespace_g_l_e_s_c_1_1_math.html#a04db3782a0754ba2d22eb5d159dd681c" target="_top" xlink:title="Calculates the absolute value of a number.">
<polygon fill="white" stroke="#666666" points="315.12,-314 216.62,-314 216.62,-294 315.12,-294 315.12,-314"/>
<text text-anchor="middle" x="265.88" y="-300.5" font-family="Helvetica,sans-Serif" font-size="10.00">GLESC::Math::abs</text>
</a>
</g>
</g>
<!-- Node1&#45;&gt;Node2 -->
<g id="edge1_Node000001_Node000002" class="edge">
<title>Node1&#45;&gt;Node2</title>
<g id="a_edge1_Node000001_Node000002"><a xlink:title=" ">
<path fill="none" stroke="#63b8ff" d="M96.58,-216.46C117.87,-234.24 154.08,-262.37 189.25,-280 196.79,-283.78 205.04,-287.12 213.24,-290.02"/>
<polygon fill="#63b8ff" stroke="#63b8ff" points="211.89,-293.26 222.48,-293.1 214.1,-286.62 211.89,-293.26"/>
</a>
</g>
</g>
<!-- Node3 -->
<g id="Node000003" class="node">
<title>Node3</title>
<g id="a_Node000003"><a xlink:href="class_g_l_e_s_c_1_1_math_1_1_vector.html#ab7062a9b67c16d4e60413b625412b4eb" target="_top" xlink:title="Returns the dot product of two vectors.">
<polygon fill="white" stroke="#666666" points="712,-20 581.25,-20 581.25,0 712,0 712,-20"/>
<text text-anchor="middle" x="646.62" y="-6.5" font-family="Helvetica,sans-Serif" font-size="10.00">GLESC::Math::Vector::dot</text>
</a>
</g>
</g>
<!-- Node1&#45;&gt;Node3 -->
<g id="edge2_Node000001_Node000003" class="edge">
<title>Node1&#45;&gt;Node3</title>
<g id="a_edge2_Node000001_Node000003"><a xlink:title=" ">
<path fill="none" stroke="#63b8ff" d="M93.01,-183.85C113.47,-163.07 151.45,-126.81 189.25,-103 266.81,-54.14 289.14,-41.45 378.5,-21 441.76,-6.52 515.59,-4.58 569.58,-5.79"/>
<polygon fill="#63b8ff" stroke="#63b8ff" points="569.19,-9.28 579.28,-6.06 569.38,-2.29 569.19,-9.28"/>
</a>
</g>
</g>
<!-- Node5 -->
<g id="Node000005" class="node">
<title>Node5</title>
<g id="a_Node000005"><a xlink:href="namespace_g_l_e_s_c_1_1_math.html#aee25910dbba06d09d9df14d03933ace1" target="_top" xlink:title="Compares two values for equality.">
<polygon fill="white" stroke="#666666" points="887,-247 793.75,-247 793.75,-227 887,-227 887,-247"/>
<text text-anchor="middle" x="840.38" y="-233.5" font-family="Helvetica,sans-Serif" font-size="10.00">GLESC::Math::eq</text>
</a>
</g>
</g>
<!-- Node1&#45;&gt;Node5 -->
<g id="edge4_Node000001_Node000005" class="edge">
<title>Node1&#45;&gt;Node5</title>
<g id="a_edge4_Node000001_Node000005"><a xlink:title=" ">
<path fill="none" stroke="#63b8ff" d="M145.88,-216.47C160.16,-219.58 175.15,-222.61 189.25,-225 424.42,-264.89 487.19,-257.44 725.5,-247 743.97,-246.19 764.07,-244.65 782.17,-243.01"/>
<polygon fill="#63b8ff" stroke="#63b8ff" points="782.31,-246.51 791.94,-242.1 781.66,-239.54 782.31,-246.51"/>
</a>
</g>
</g>
<!-- Node7 -->
<g id="Node000007" class="node">
<title>Node7</title>
<g id="a_Node000007"><a xlink:href="class_g_l_e_s_c_1_1_math_1_1_plane.html#a9e7e88985f645c5b261f66c4835f4bc2" target="_top" xlink:title="Get the distance from the origin to the plane.">
<polygon fill="white" stroke="#666666" points="319.62,-194 212.12,-194 212.12,-162 319.62,-162 319.62,-194"/>
<text text-anchor="start" x="220.12" y="-180.5" font-family="Helvetica,sans-Serif" font-size="10.00">GLESC::Math::Plane</text>
<text text-anchor="middle" x="265.88" y="-168.5" font-family="Helvetica,sans-Serif" font-size="10.00">::getDistance</text>
</a>
</g>
</g>
<!-- Node1&#45;&gt;Node7 -->
<g id="edge6_Node000001_Node000007" class="edge">
<title>Node1&#45;&gt;Node7</title>
<g id="a_edge6_Node000001_Node000007"><a xlink:title=" ">
<path fill="none" stroke="#63b8ff" d="M153.52,-191.08C169.11,-189.25 185.38,-187.34 200.52,-185.56"/>
<polygon fill="#63b8ff" stroke="#63b8ff" points="200.82,-189.05 210.34,-184.41 200,-182.1 200.82,-189.05"/>
</a>
</g>
</g>
<!-- Node8 -->
<g id="Node000008" class="node">
<title>Node8</title>
<g id="a_Node000008"><a xlink:href="class_g_l_e_s_c_1_1_math_1_1_polyhedron_face.html#a7cc7460cf53b33ebf917efa7f9ac3eb3" target="_top" xlink:title="Returns the normal the face.">
<polygon fill="white" stroke="#666666" points="531.75,-238 378.5,-238 378.5,-206 531.75,-206 531.75,-238"/>
<text text-anchor="start" x="386.5" y="-224.5" font-family="Helvetica,sans-Serif" font-size="10.00">GLESC::Math::PolyhedronFace</text>
<text text-anchor="middle" x="455.12" y="-212.5" font-family="Helvetica,sans-Serif" font-size="10.00">::getNormal</text>
</a>
</g>
</g>
<!-- Node1&#45;&gt;Node8 -->
<g id="edge7_Node000001_Node000008" class="edge">
<title>Node1&#45;&gt;Node8</title>
<g id="a_edge7_Node000001_Node000008"><a xlink:title=" ">
<path fill="none" stroke="#63b8ff" d="M153.36,-204.43C215.05,-208.03 302.19,-213.12 366.8,-216.9"/>
<polygon fill="#63b8ff" stroke="#63b8ff" points="366.49,-220.39 376.68,-217.47 366.9,-213.4 366.49,-220.39"/>
</a>
</g>
</g>
<!-- Node10 -->
<g id="Node000010" class="node">
<title>Node10</title>
<g id="a_Node000010"><a xlink:href="class_g_l_e_s_c_1_1_math_1_1_polyhedron_face.html#a958817b02687286fe25e69e874f3cecd" target="_top" xlink:title="Checks if the current face intersects with the given face.">
<polygon fill="white" stroke="#666666" points="342.5,-144 189.25,-144 189.25,-112 342.5,-112 342.5,-144"/>
<text text-anchor="start" x="197.25" y="-130.5" font-family="Helvetica,sans-Serif" font-size="10.00">GLESC::Math::PolyhedronFace</text>
<text text-anchor="middle" x="265.88" y="-118.5" font-family="Helvetica,sans-Serif" font-size="10.00">::intersects</text>
</a>
</g>
</g>
<!-- Node1&#45;&gt;Node10 -->
<g id="edge9_Node000001_Node000010" class="edge">
<title>Node1&#45;&gt;Node10</title>
<g id="a_edge9_Node000001_Node000010"><a xlink:title=" ">
<path fill="none" stroke="#63b8ff" d="M114.54,-183.59C136.14,-174.2 164.05,-162.45 189.25,-153 193.62,-151.36 198.15,-149.72 202.73,-148.1"/>
<polygon fill="#63b8ff" stroke="#63b8ff" points="203.69,-151.47 212,-144.89 201.4,-144.86 203.69,-151.47"/>
</a>
</g>
</g>
<!-- Node4 -->
<g id="Node000004" class="node">
<title>Node4</title>
<g id="a_Node000004"><a xlink:href="class_g_l_e_s_c_1_1_math_1_1_vector_algorithms.html#ae45bcff9b53fb60d513c53823418d97b" target="_top" xlink:title="Computes the dot product of two vectors.">
<polygon fill="white" stroke="#666666" points="1113,-120 955.25,-120 955.25,-88 1113,-88 1113,-120"/>
<text text-anchor="start" x="963.25" y="-106.5" font-family="Helvetica,sans-Serif" font-size="10.00">GLESC::Math::VectorAlgorithms</text>
<text text-anchor="middle" x="1034.12" y="-94.5" font-family="Helvetica,sans-Serif" font-size="10.00">::dotProduct</text>
</a>
</g>
</g>
<!-- Node3&#45;&gt;Node4 -->
<g id="edge3_Node000003_Node000004" class="edge">
<title>Node3&#45;&gt;Node4</title>
<g id="a_edge3_Node000003_Node000004"><a xlink:title=" ">
<path fill="none" stroke="#63b8ff" d="M690.35,-20.42C754.01,-35.94 874.8,-65.39 954.65,-84.86"/>
<polygon fill="#63b8ff" stroke="#63b8ff" points="953.62,-88.22 964.16,-87.18 955.27,-81.41 953.62,-88.22"/>
</a>
</g>
</g>
<!-- Node6 -->
<g id="Node000006" class="node">
<title>Node6</title>
<g id="a_Node000006"><a xlink:href="namespace_g_l_e_s_c_1_1_math.html#acd429163efe906cd22916cc75ccb2421" target="_top" xlink:title="Epsilon getter with precision of a given template type.">
<polygon fill="white" stroke="#666666" points="1090.88,-247 977.38,-247 977.38,-227 1090.88,-227 1090.88,-247"/>
<text text-anchor="middle" x="1034.12" y="-233.5" font-family="Helvetica,sans-Serif" font-size="10.00">GLESC::Math::epsilon</text>
</a>
</g>
</g>
<!-- Node5&#45;&gt;Node6 -->
<g id="edge5_Node000005_Node000006" class="edge">
<title>Node5&#45;&gt;Node6</title>
<g id="a_edge5_Node000005_Node000006"><a xlink:title=" ">
<path fill="none" stroke="#63b8ff" d="M887.3,-237C910.76,-237 939.74,-237 965.68,-237"/>
<polygon fill="#63b8ff" stroke="#63b8ff" points="965.45,-240.5 975.45,-237 965.45,-233.5 965.45,-240.5"/>
</a>
</g>
</g>
<!-- Node9 -->
<g id="Node000009" class="node">
<title>Node9</title>
<g id="a_Node000009"><a xlink:href="class_g_l_e_s_c_1_1_math_1_1_plane.html#abd0df9ef1fc5a9d3ac8727d198cb781c" target="_top" xlink:title="Get the normal vector of the plane.">
<polygon fill="white" stroke="#666666" points="700.38,-238 592.88,-238 592.88,-206 700.38,-206 700.38,-238"/>
<text text-anchor="start" x="600.88" y="-224.5" font-family="Helvetica,sans-Serif" font-size="10.00">GLESC::Math::Plane</text>
<text text-anchor="middle" x="646.62" y="-212.5" font-family="Helvetica,sans-Serif" font-size="10.00">::getNormal</text>
</a>
</g>
</g>
<!-- Node8&#45;&gt;Node9 -->
<g id="edge8_Node000008_Node000009" class="edge">
<title>Node8&#45;&gt;Node9</title>
<g id="a_edge8_Node000008_Node000009"><a xlink:title=" ">
<path fill="none" stroke="#63b8ff" d="M532.11,-222C548.43,-222 565.53,-222 581.36,-222"/>
<polygon fill="#63b8ff" stroke="#63b8ff" points="581.11,-225.5 591.11,-222 581.11,-218.5 581.11,-225.5"/>
</a>
</g>
</g>
<!-- Node10&#45;&gt;Node8 -->
<g id="edge10_Node000010_Node000008" class="edge">
<title>Node10&#45;&gt;Node8</title>
<g id="a_edge10_Node000010_Node000008"><a xlink:title=" ">
<path fill="none" stroke="#63b8ff" d="M327.42,-144.49C332.71,-146.96 337.83,-149.79 342.5,-153 363.32,-167.31 357.68,-182.69 378.5,-197 380.11,-198.1 381.76,-199.16 383.46,-200.18"/>
<polygon fill="#63b8ff" stroke="#63b8ff" points="381.77,-203.24 392.25,-204.81 385.03,-197.05 381.77,-203.24"/>
</a>
</g>
</g>
<!-- Node11 -->
<g id="Node000011" class="node">
<title>Node11</title>
<g id="a_Node000011"><a xlink:href="namespace_g_l_e_s_c_1_1_math.html#a522e4f8e000cccddbf9d2f92280cfb6c" target="_top" xlink:title="Calculates the max of two values.">
<polygon fill="white" stroke="#666666" points="505.88,-50 404.38,-50 404.38,-30 505.88,-30 505.88,-50"/>
<text text-anchor="middle" x="455.12" y="-36.5" font-family="Helvetica,sans-Serif" font-size="10.00">GLESC::Math::max</text>
</a>
</g>
</g>
<!-- Node10&#45;&gt;Node11 -->
<g id="edge11_Node000010_Node000011" class="edge">
<title>Node10&#45;&gt;Node11</title>
<g id="a_edge11_Node000010_Node000011"><a xlink:title=" ">
<path fill="none" stroke="#63b8ff" d="M288.85,-111.57C310.59,-96.01 345.34,-73.01 378.5,-59 383.31,-56.97 388.39,-55.11 393.55,-53.43"/>
<polygon fill="#63b8ff" stroke="#63b8ff" points="394.17,-56.9 402.74,-50.66 392.15,-50.2 394.17,-56.9"/>
</a>
</g>
</g>
<!-- Node12 -->
<g id="Node000012" class="node">
<title>Node12</title>
<g id="a_Node000012"><a xlink:href="namespace_g_l_e_s_c_1_1_math.html#ad2df75a6181d9d1d318d20d224a2866b" target="_top" xlink:title="Calculates the min of two values.">
<polygon fill="white" stroke="#666666" points="504.38,-138 405.88,-138 405.88,-118 504.38,-118 504.38,-138"/>
<text text-anchor="middle" x="455.12" y="-124.5" font-family="Helvetica,sans-Serif" font-size="10.00">GLESC::Math::min</text>
</a>
</g>
</g>
<!-- Node10&#45;&gt;Node12 -->
<g id="edge12_Node000010_Node000012" class="edge">
<title>Node10&#45;&gt;Node12</title>
<g id="a_edge12_Node000010_Node000012"><a xlink:title=" ">
<path fill="none" stroke="#63b8ff" d="M342.77,-128C359.98,-128 378.03,-128 394.46,-128"/>
<polygon fill="#63b8ff" stroke="#63b8ff" points="394.03,-131.5 404.03,-128 394.03,-124.5 394.03,-131.5"/>
</a>
</g>
</g>
<!-- Node13 -->
<g id="Node000013" class="node">
<title>Node13</title>
<g id="a_Node000013"><a xlink:href="class_g_l_e_s_c_1_1_math_1_1_vector.html#a921eb7e96f275d34d7f5f24906a66ec1" target="_top" xlink:title="Normalizes the vector.">
<polygon fill="white" stroke="#666666" points="510.75,-188 399.5,-188 399.5,-156 510.75,-156 510.75,-188"/>
<text text-anchor="start" x="407.5" y="-174.5" font-family="Helvetica,sans-Serif" font-size="10.00">GLESC::Math::Vector</text>
<text text-anchor="middle" x="455.12" y="-162.5" font-family="Helvetica,sans-Serif" font-size="10.00">::normalize</text>
</a>
</g>
</g>
<!-- Node10&#45;&gt;Node13 -->
<g id="edge13_Node000010_Node000013" class="edge">
<title>Node10&#45;&gt;Node13</title>
<g id="a_edge13_Node000010_Node000013"><a xlink:title=" ">
<path fill="none" stroke="#63b8ff" d="M336.87,-144.45C353.74,-148.41 371.71,-152.63 388.38,-156.55"/>
<polygon fill="#63b8ff" stroke="#63b8ff" points="387.11,-159.85 397.65,-158.73 388.71,-153.03 387.11,-159.85"/>
</a>
</g>
</g>
<!-- Node17 -->
<g id="Node000017" class="node">
<title>Node17</title>
<g id="a_Node000017"><a xlink:href="class_g_l_e_s_c_1_1_math_1_1_vector.html#aa87b548618694d0aba0e74b43a2b805a" target="_top" xlink:title="Returns the size of the vector.">
<polygon fill="white" stroke="#666666" points="510.75,-100 399.5,-100 399.5,-68 510.75,-68 510.75,-100"/>
<text text-anchor="start" x="407.5" y="-86.5" font-family="Helvetica,sans-Serif" font-size="10.00">GLESC::Math::Vector</text>
<text text-anchor="middle" x="455.12" y="-74.5" font-family="Helvetica,sans-Serif" font-size="10.00">::size</text>
</a>
</g>
</g>
<!-- Node10&#45;&gt;Node17 -->
<g id="edge19_Node000010_Node000017" class="edge">
<title>Node10&#45;&gt;Node17</title>
<g id="a_edge19_Node000010_Node000017"><a xlink:title=" ">
<path fill="none" stroke="#63b8ff" d="M336.87,-111.55C353.74,-107.59 371.71,-103.37 388.38,-99.45"/>
<polygon fill="#63b8ff" stroke="#63b8ff" points="388.71,-102.97 397.65,-97.27 387.11,-96.15 388.71,-102.97"/>
</a>
</g>
</g>
<!-- Node14 -->
<g id="Node000014" class="node">
<title>Node14</title>
<g id="a_Node000014"><a xlink:href="class_g_l_e_s_c_1_1_math_1_1_vector_algorithms.html#a7ee5da5ffdabacb6faa895af42dd78c3" target="_top" xlink:title="Normalizes a vector.">
<polygon fill="white" stroke="#666666" points="725.5,-188 567.75,-188 567.75,-156 725.5,-156 725.5,-188"/>
<text text-anchor="start" x="575.75" y="-174.5" font-family="Helvetica,sans-Serif" font-size="10.00">GLESC::Math::VectorAlgorithms</text>
<text text-anchor="middle" x="646.62" y="-162.5" font-family="Helvetica,sans-Serif" font-size="10.00">::normalize</text>
</a>
</g>
</g>
<!-- Node13&#45;&gt;Node14 -->
<g id="edge14_Node000013_Node000014" class="edge">
<title>Node13&#45;&gt;Node14</title>
<g id="a_edge14_Node000013_Node000014"><a xlink:title=" ">
<path fill="none" stroke="#63b8ff" d="M511.19,-172C525.35,-172 540.95,-172 556.35,-172"/>
<polygon fill="#63b8ff" stroke="#63b8ff" points="556,-175.5 566,-172 556,-168.5 556,-175.5"/>
</a>
</g>
</g>
<!-- Node14&#45;&gt;Node5 -->
<g id="edge15_Node000014_Node000005" class="edge">
<title>Node14&#45;&gt;Node5</title>
<g id="a_edge15_Node000014_Node000005"><a xlink:title=" ">
<path fill="none" stroke="#63b8ff" d="M699.63,-188.48C708.28,-191.28 717.15,-194.2 725.5,-197 750.19,-205.3 777.76,-214.97 799.59,-222.73"/>
<polygon fill="#63b8ff" stroke="#63b8ff" points="798.41,-226.02 809.01,-226.08 800.76,-219.43 798.41,-226.02"/>
</a>
</g>
</g>
<!-- Node15 -->
<g id="Node000015" class="node">
<title>Node15</title>
<g id="a_Node000015"><a xlink:href="class_g_l_e_s_c_1_1_math_1_1_vector_algorithms.html#a96acaa670e780132720dd3ea6a6cdf97" target="_top" xlink:title="Computes the length of a vector.">
<polygon fill="white" stroke="#666666" points="919.25,-180 761.5,-180 761.5,-148 919.25,-148 919.25,-180"/>
<text text-anchor="start" x="769.5" y="-166.5" font-family="Helvetica,sans-Serif" font-size="10.00">GLESC::Math::VectorAlgorithms</text>
<text text-anchor="middle" x="840.38" y="-154.5" font-family="Helvetica,sans-Serif" font-size="10.00">::length</text>
</a>
</g>
</g>
<!-- Node14&#45;&gt;Node15 -->
<g id="edge16_Node000014_Node000015" class="edge">
<title>Node14&#45;&gt;Node15</title>
<g id="a_edge16_Node000014_Node000015"><a xlink:title=" ">
<path fill="none" stroke="#63b8ff" d="M725.89,-168.73C733.78,-168.41 741.82,-168.07 749.81,-167.74"/>
<polygon fill="#63b8ff" stroke="#63b8ff" points="749.69,-171.24 759.53,-167.33 749.4,-164.25 749.69,-171.24"/>
</a>
</g>
</g>
<!-- Node15&#45;&gt;Node4 -->
<g id="edge17_Node000015_Node000004" class="edge">
<title>Node15&#45;&gt;Node4</title>
<g id="a_edge17_Node000015_Node000004"><a xlink:title=" ">
<path fill="none" stroke="#63b8ff" d="M894.03,-147.53C917.49,-140.18 945.33,-131.47 969.92,-123.78"/>
<polygon fill="#63b8ff" stroke="#63b8ff" points="970.65,-127.22 979.15,-120.89 968.56,-120.54 970.65,-127.22"/>
</a>
</g>
</g>
<!-- Node16 -->
<g id="Node000016" class="node">
<title>Node16</title>
<g id="a_Node000016"><a xlink:href="namespace_g_l_e_s_c_1_1_math.html#ab2316a2512c43c18e29709201adf3fe5" target="_top" xlink:title="Calculates the square root of a value.">
<polygon fill="white" stroke="#666666" points="1083.75,-174 984.5,-174 984.5,-154 1083.75,-154 1083.75,-174"/>
<text text-anchor="middle" x="1034.12" y="-160.5" font-family="Helvetica,sans-Serif" font-size="10.00">GLESC::Math::sqrt</text>
</a>
</g>
</g>
<!-- Node15&#45;&gt;Node16 -->
<g id="edge18_Node000015_Node000016" class="edge">
<title>Node15&#45;&gt;Node16</title>
<g id="a_edge18_Node000015_Node000016"><a xlink:title=" ">
<path fill="none" stroke="#63b8ff" d="M919.64,-164C937.4,-164 955.98,-164 972.86,-164"/>
<polygon fill="#63b8ff" stroke="#63b8ff" points="972.72,-167.5 982.72,-164 972.72,-160.5 972.72,-167.5"/>
</a>
</g>
</g>
</g>
</svg>
