<?xml version="1.0" encoding="UTF-8" standalone="no"?>
<!DOCTYPE svg PUBLIC "-//W3C//DTD SVG 1.1//EN"
 "http://www.w3.org/Graphics/SVG/1.1/DTD/svg11.dtd">
<!-- Generated by graphviz version 11.0.0 (20240428.1522)
 -->
<!-- Title: GLESC::Logger::nonImportantInfo Pages: 1 -->
<svg width="544pt" height="90pt"
 viewBox="0.00 0.00 543.50 90.00" xmlns="http://www.w3.org/2000/svg" xmlns:xlink="http://www.w3.org/1999/xlink">
<g id="graph0" class="graph" transform="scale(1 1) rotate(0) translate(4 86)">
<title>GLESC::Logger::nonImportantInfo</title>
<!-- Node1 -->
<g id="Node000001" class="node">
<title>Node1</title>
<g id="a_Node000001"><a xlink:title="Display non important information Background – Black Text – Grey.">
<polygon fill="#999999" stroke="#666666" points="535.5,-51 374,-51 374,-31 535.5,-31 535.5,-51"/>
<text text-anchor="middle" x="454.75" y="-37.5" font-family="Helvetica,sans-Serif" font-size="10.00">GLESC::Logger::nonImportantInfo</text>
</a>
</g>
</g>
<!-- Node2 -->
<g id="Node000002" class="node">
<title>Node2</title>
<g id="a_Node000002"><a xlink:href="class_g_l_e_s_c_1_1_g_a_p_i_1_1_shader_loader.html#ac3a92c01f0308fd40e0f356d8454d192" target="_top" xlink:title="Load the shader from the source code.">
<polygon fill="white" stroke="#666666" points="334.62,-82 190.38,-82 190.38,-50 334.62,-50 334.62,-82"/>
<text text-anchor="start" x="198.38" y="-68.5" font-family="Helvetica,sans-Serif" font-size="10.00">GLESC::GAPI::ShaderLoader</text>
<text text-anchor="middle" x="262.5" y="-56.5" font-family="Helvetica,sans-Serif" font-size="10.00">::loadShader</text>
</a>
</g>
</g>
<!-- Node1&#45;&gt;Node2 -->
<g id="edge1_Node000001_Node000002" class="edge">
<title>Node1&#45;&gt;Node2</title>
<g id="a_edge1_Node000001_Node000002"><a xlink:title=" ">
<path fill="none" stroke="#63b8ff" d="M362.62,-52.97C353.34,-54.19 344.01,-55.42 334.98,-56.61"/>
<polygon fill="#63b8ff" stroke="#63b8ff" points="362.93,-56.46 372.39,-51.69 362.02,-49.52 362.93,-56.46"/>
</a>
</g>
</g>
<!-- Node3 -->
<g id="Node000003" class="node">
<title>Node3</title>
<g id="a_Node000003"><a xlink:href="class_g_l_e_s_c_1_1_e_c_s_1_1_e_c_s_coordinator.html#a9986f9753dd8fc73c69787f3723d44b8" target="_top" xlink:title="Print the status of the entity.">
<polygon fill="white" stroke="#666666" points="338,-32 187,-32 187,0 338,0 338,-32"/>
<text text-anchor="start" x="195" y="-18.5" font-family="Helvetica,sans-Serif" font-size="10.00">GLESC::ECS::ECSCoordinator</text>
<text text-anchor="middle" x="262.5" y="-6.5" font-family="Helvetica,sans-Serif" font-size="10.00">::printEntity</text>
</a>
</g>
</g>
<!-- Node1&#45;&gt;Node3 -->
<g id="edge2_Node000001_Node000003" class="edge">
<title>Node1&#45;&gt;Node3</title>
<g id="a_edge2_Node000001_Node000003"><a xlink:title=" ">
<path fill="none" stroke="#63b8ff" d="M362.48,-29.01C354.38,-27.94 346.24,-26.87 338.29,-25.83"/>
<polygon fill="#63b8ff" stroke="#63b8ff" points="362.02,-32.48 372.39,-30.31 362.93,-25.54 362.02,-32.48"/>
</a>
</g>
</g>
<!-- Node4 -->
<g id="Node000004" class="node">
<title>Node4</title>
<g id="a_Node000004"><a xlink:href="class_g_l_e_s_c_1_1_e_c_s_1_1_e_c_s_coordinator.html#a511e3ef0ebeceb191a06db185e8fdc46" target="_top" xlink:title="Print the status of the ECS.">
<polygon fill="white" stroke="#666666" points="151,-32 0,-32 0,0 151,0 151,-32"/>
<text text-anchor="start" x="8" y="-18.5" font-family="Helvetica,sans-Serif" font-size="10.00">GLESC::ECS::ECSCoordinator</text>
<text text-anchor="middle" x="75.5" y="-6.5" font-family="Helvetica,sans-Serif" font-size="10.00">::printStatus</text>
</a>
</g>
</g>
<!-- Node3&#45;&gt;Node4 -->
<g id="edge3_Node000003_Node000004" class="edge">
<title>Node3&#45;&gt;Node4</title>
<g id="a_edge3_Node000003_Node000004"><a xlink:title=" ">
<path fill="none" stroke="#63b8ff" d="M175.26,-16C167.25,-16 159.18,-16 151.29,-16"/>
<polygon fill="#63b8ff" stroke="#63b8ff" points="175.01,-19.5 185.01,-16 175.01,-12.5 175.01,-19.5"/>
</a>
</g>
</g>
</g>
</svg>
