<?xml version="1.0" encoding="UTF-8" standalone="no"?>
<!DOCTYPE svg PUBLIC "-//W3C//DTD SVG 1.1//EN"
 "http://www.w3.org/Graphics/SVG/1.1/DTD/svg11.dtd">
<!-- Generated by graphviz version 11.0.0 (20240428.1522)
 -->
<!-- Title: GLESC::Render::Intensity::set Pages: 1 -->
<svg width="327pt" height="140pt"
 viewBox="0.00 0.00 327.25 140.00" xmlns="http://www.w3.org/2000/svg" xmlns:xlink="http://www.w3.org/1999/xlink">
<g id="graph0" class="graph" transform="scale(1 1) rotate(0) translate(4 136)">
<title>GLESC::Render::Intensity::set</title>
<!-- Node1 -->
<g id="Node000001" class="node">
<title>Node1</title>
<g id="a_Node000001"><a xlink:title=" ">
<polygon fill="#999999" stroke="#666666" points="319.25,-76 171.25,-76 171.25,-56 319.25,-56 319.25,-76"/>
<text text-anchor="middle" x="245.25" y="-62.5" font-family="Helvetica,sans-Serif" font-size="10.00">GLESC::Render::Intensity::set</text>
</a>
</g>
</g>
<!-- Node2 -->
<g id="Node000002" class="node">
<title>Node2</title>
<g id="a_Node000002"><a xlink:href="class_g_l_e_s_c_1_1_render_1_1_intensity.html#ac76bcc7789ba51413f62e1d2a4b0fffd" target="_top" xlink:title=" ">
<polygon fill="white" stroke="#666666" points="131.88,-132 3.38,-132 3.38,-100 131.88,-100 131.88,-132"/>
<text text-anchor="start" x="11.38" y="-118.5" font-family="Helvetica,sans-Serif" font-size="10.00">GLESC::Render::Intensity</text>
<text text-anchor="middle" x="67.62" y="-106.5" font-family="Helvetica,sans-Serif" font-size="10.00">::Intensity</text>
</a>
</g>
</g>
<!-- Node1&#45;&gt;Node2 -->
<g id="edge1_Node000001_Node000002" class="edge">
<title>Node1&#45;&gt;Node2</title>
<g id="a_edge1_Node000001_Node000002"><a xlink:title=" ">
<path fill="none" stroke="#63b8ff" d="M196.54,-79.58C174.93,-85.74 149.19,-93.06 126.48,-99.53"/>
<polygon fill="#63b8ff" stroke="#63b8ff" points="197.32,-83 205.98,-76.9 195.4,-76.27 197.32,-83"/>
</a>
</g>
</g>
<!-- Node3 -->
<g id="Node000003" class="node">
<title>Node3</title>
<g id="a_Node000003"><a xlink:href="struct_g_l_e_s_c_1_1_render_1_1_light_point.html#aa3095b6f1f865fb0aa55f557bc42af1e" target="_top" xlink:title=" ">
<polygon fill="white" stroke="#666666" points="135.25,-82 0,-82 0,-50 135.25,-50 135.25,-82"/>
<text text-anchor="start" x="8" y="-68.5" font-family="Helvetica,sans-Serif" font-size="10.00">GLESC::Render::LightPoint</text>
<text text-anchor="middle" x="67.62" y="-56.5" font-family="Helvetica,sans-Serif" font-size="10.00">::setIntensity</text>
</a>
</g>
</g>
<!-- Node1&#45;&gt;Node3 -->
<g id="edge2_Node000001_Node000003" class="edge">
<title>Node1&#45;&gt;Node3</title>
<g id="a_edge2_Node000001_Node000003"><a xlink:title=" ">
<path fill="none" stroke="#63b8ff" d="M159.51,-66C151.49,-66 143.45,-66 135.63,-66"/>
<polygon fill="#63b8ff" stroke="#63b8ff" points="159.27,-69.5 169.27,-66 159.27,-62.5 159.27,-69.5"/>
</a>
</g>
</g>
<!-- Node4 -->
<g id="Node000004" class="node">
<title>Node4</title>
<g id="a_Node000004"><a xlink:href="class_g_l_e_s_c_1_1_engine_camera.html#a93a943b50d821319728224647d328512" target="_top" xlink:title=" ">
<polygon fill="white" stroke="#666666" points="127,-32 8.25,-32 8.25,0 127,0 127,-32"/>
<text text-anchor="start" x="16.25" y="-18.5" font-family="Helvetica,sans-Serif" font-size="10.00">GLESC::EngineCamera</text>
<text text-anchor="middle" x="67.62" y="-6.5" font-family="Helvetica,sans-Serif" font-size="10.00">::setSensitivity</text>
</a>
</g>
</g>
<!-- Node1&#45;&gt;Node4 -->
<g id="edge3_Node000001_Node000004" class="edge">
<title>Node1&#45;&gt;Node4</title>
<g id="a_edge3_Node000001_Node000004"><a xlink:title=" ">
<path fill="none" stroke="#63b8ff" d="M196.54,-52.42C174.93,-46.26 149.19,-38.94 126.48,-32.47"/>
<polygon fill="#63b8ff" stroke="#63b8ff" points="195.4,-55.73 205.98,-55.1 197.32,-49 195.4,-55.73"/>
</a>
</g>
</g>
</g>
</svg>
