<?xml version="1.0" encoding="UTF-8" standalone="no"?>
<!DOCTYPE svg PUBLIC "-//W3C//DTD SVG 1.1//EN"
 "http://www.w3.org/Graphics/SVG/1.1/DTD/svg11.dtd">
<!-- Generated by graphviz version 11.0.0 (20240428.1522)
 -->
<!-- Title: GLESC::WindowManager::isResizable Pages: 1 -->
<svg width="907pt" height="115pt"
 viewBox="0.00 0.00 906.50 115.00" xmlns="http://www.w3.org/2000/svg" xmlns:xlink="http://www.w3.org/1999/xlink">
<g id="graph0" class="graph" transform="scale(1 1) rotate(0) translate(4 111)">
<title>GLESC::WindowManager::isResizable</title>
<!-- Node1 -->
<g id="Node000001" class="node">
<title>Node1</title>
<g id="a_Node000001"><a xlink:title="Gets whether the window is resizable or not.">
<polygon fill="#999999" stroke="#666666" points="898.5,-82 771.5,-82 771.5,-50 898.5,-50 898.5,-82"/>
<text text-anchor="start" x="779.5" y="-68.5" font-family="Helvetica,sans-Serif" font-size="10.00">GLESC::WindowManager</text>
<text text-anchor="middle" x="835" y="-56.5" font-family="Helvetica,sans-Serif" font-size="10.00">::isResizable</text>
</a>
</g>
</g>
<!-- Node2 -->
<g id="Node000002" class="node">
<title>Node2</title>
<g id="a_Node000002"><a xlink:href="class_g_l_e_s_c_1_1_window_manager.html#ac45acf6eede2f3fb3df5233ec04e7285" target="_top" xlink:title="Sets the window resizable. If enabled, the window can be resized by the user. If disabled,...">
<polygon fill="white" stroke="#666666" points="735.5,-107 608.5,-107 608.5,-75 735.5,-75 735.5,-107"/>
<text text-anchor="start" x="616.5" y="-93.5" font-family="Helvetica,sans-Serif" font-size="10.00">GLESC::WindowManager</text>
<text text-anchor="middle" x="672" y="-81.5" font-family="Helvetica,sans-Serif" font-size="10.00">::setResizable</text>
</a>
</g>
</g>
<!-- Node1&#45;&gt;Node2 -->
<g id="edge1_Node000001_Node000002" class="edge">
<title>Node1&#45;&gt;Node2</title>
<g id="a_edge1_Node000001_Node000002"><a xlink:title=" ">
<path fill="none" stroke="#63b8ff" d="M759.97,-77.5C751.89,-78.75 743.72,-80.02 735.8,-81.25"/>
<polygon fill="#63b8ff" stroke="#63b8ff" points="760.45,-80.96 769.8,-75.97 759.38,-74.05 760.45,-80.96"/>
</a>
</g>
</g>
<!-- Node3 -->
<g id="Node000003" class="node">
<title>Node3</title>
<g id="a_Node000003"><a xlink:href="class_g_l_e_s_c_1_1_window_manager.html#ad11419a2237ad2bf992f8fdb08932389" target="_top" xlink:title="Callback function when window size is modified This will change the viewport with the new resolution.">
<polygon fill="white" stroke="#666666" points="735.5,-57 608.5,-57 608.5,-25 735.5,-25 735.5,-57"/>
<text text-anchor="start" x="616.5" y="-43.5" font-family="Helvetica,sans-Serif" font-size="10.00">GLESC::WindowManager</text>
<text text-anchor="middle" x="672" y="-31.5" font-family="Helvetica,sans-Serif" font-size="10.00">::setSize</text>
</a>
</g>
</g>
<!-- Node1&#45;&gt;Node3 -->
<g id="edge2_Node000001_Node000003" class="edge">
<title>Node1&#45;&gt;Node3</title>
<g id="a_edge2_Node000001_Node000003"><a xlink:title=" ">
<path fill="none" stroke="#63b8ff" d="M759.97,-54.5C751.89,-53.25 743.72,-51.98 735.8,-50.75"/>
<polygon fill="#63b8ff" stroke="#63b8ff" points="759.38,-57.95 769.8,-56.03 760.45,-51.04 759.38,-57.95"/>
</a>
</g>
</g>
<!-- Node4 -->
<g id="Node000004" class="node">
<title>Node4</title>
<g id="a_Node000004"><a xlink:href="class_g_l_e_s_c_1_1_window_manager.html#a3a283b34c19aaa20296befaabad4d29b" target="_top" xlink:title=" ">
<polygon fill="white" stroke="#666666" points="565.75,-82 438.75,-82 438.75,-50 565.75,-50 565.75,-82"/>
<text text-anchor="start" x="446.75" y="-68.5" font-family="Helvetica,sans-Serif" font-size="10.00">GLESC::WindowManager</text>
<text text-anchor="middle" x="502.25" y="-56.5" font-family="Helvetica,sans-Serif" font-size="10.00">::WindowManager</text>
</a>
</g>
</g>
<!-- Node3&#45;&gt;Node4 -->
<g id="edge3_Node000003_Node000004" class="edge">
<title>Node3&#45;&gt;Node4</title>
<g id="a_edge3_Node000003_Node000004"><a xlink:title=" ">
<path fill="none" stroke="#63b8ff" d="M596.95,-52.04C586.62,-53.58 576.08,-55.15 565.99,-56.65"/>
<polygon fill="#63b8ff" stroke="#63b8ff" points="597.19,-55.54 606.56,-50.6 596.16,-48.62 597.19,-55.54"/>
</a>
</g>
</g>
<!-- Node5 -->
<g id="Node000005" class="node">
<title>Node5</title>
<g id="a_Node000005"><a xlink:href="class_g_l_e_s_c_1_1_input_1_1_input_manager.html#a5d7f2407f216bd6211aa80261edee52a" target="_top" xlink:title=" ">
<polygon fill="white" stroke="#666666" points="572.5,-32 432,-32 432,0 572.5,0 572.5,-32"/>
<text text-anchor="start" x="440" y="-18.5" font-family="Helvetica,sans-Serif" font-size="10.00">GLESC::Input::InputManager</text>
<text text-anchor="middle" x="502.25" y="-6.5" font-family="Helvetica,sans-Serif" font-size="10.00">::handleWindowEvent</text>
</a>
</g>
</g>
<!-- Node3&#45;&gt;Node5 -->
<g id="edge4_Node000003_Node000005" class="edge">
<title>Node3&#45;&gt;Node5</title>
<g id="a_edge4_Node000003_Node000005"><a xlink:title=" ">
<path fill="none" stroke="#63b8ff" d="M596.84,-29.95C588.82,-28.75 580.69,-27.54 572.73,-26.36"/>
<polygon fill="#63b8ff" stroke="#63b8ff" points="596.16,-33.38 606.56,-31.4 597.19,-26.46 596.16,-33.38"/>
</a>
</g>
</g>
<!-- Node6 -->
<g id="Node000006" class="node">
<title>Node6</title>
<g id="a_Node000006"><a xlink:href="class_g_l_e_s_c_1_1_input_1_1_input_manager.html#a2088e82ea6410ae3534a4fb8f7a0d891" target="_top" xlink:title="Updates the input manager by processing the current input state.">
<polygon fill="white" stroke="#666666" points="396,-32 255.5,-32 255.5,0 396,0 396,-32"/>
<text text-anchor="start" x="263.5" y="-18.5" font-family="Helvetica,sans-Serif" font-size="10.00">GLESC::Input::InputManager</text>
<text text-anchor="middle" x="325.75" y="-6.5" font-family="Helvetica,sans-Serif" font-size="10.00">::update</text>
</a>
</g>
</g>
<!-- Node5&#45;&gt;Node6 -->
<g id="edge5_Node000005_Node000006" class="edge">
<title>Node5&#45;&gt;Node6</title>
<g id="a_edge5_Node000005_Node000006"><a xlink:title=" ">
<path fill="none" stroke="#63b8ff" d="M420.02,-16C412.11,-16 404.14,-16 396.36,-16"/>
<polygon fill="#63b8ff" stroke="#63b8ff" points="420.02,-19.5 430.02,-16 420.02,-12.5 420.02,-19.5"/>
</a>
</g>
</g>
<!-- Node7 -->
<g id="Node000007" class="node">
<title>Node7</title>
<g id="a_Node000007"><a xlink:href="class_g_l_e_s_c_1_1_engine.html#acaa960db852ff7efa3b3bcd203037ecf" target="_top" xlink:title="Processes the input of the game.">
<polygon fill="white" stroke="#666666" points="219.5,-26 73,-26 73,-6 219.5,-6 219.5,-26"/>
<text text-anchor="middle" x="146.25" y="-12.5" font-family="Helvetica,sans-Serif" font-size="10.00">GLESC::Engine::processInput</text>
</a>
</g>
</g>
<!-- Node6&#45;&gt;Node7 -->
<g id="edge6_Node000006_Node000007" class="edge">
<title>Node6&#45;&gt;Node7</title>
<g id="a_edge6_Node000006_Node000007"><a xlink:title=" ">
<path fill="none" stroke="#63b8ff" d="M243.61,-16C235.71,-16 227.72,-16 219.91,-16"/>
<polygon fill="#63b8ff" stroke="#63b8ff" points="243.59,-19.5 253.59,-16 243.59,-12.5 243.59,-19.5"/>
</a>
</g>
</g>
<!-- Node8 -->
<g id="Node000008" class="node">
<title>Node8</title>
<g id="a_Node000008"><a xlink:href="src_2engine_2main_8cpp.html#a0ddf1224851353fc92bfbff6f499fa97" target="_top" xlink:title=" ">
<polygon fill="white" stroke="#666666" points="37,-26 0,-26 0,-6 37,-6 37,-26"/>
<text text-anchor="middle" x="18.5" y="-12.5" font-family="Helvetica,sans-Serif" font-size="10.00">main</text>
</a>
</g>
</g>
<!-- Node7&#45;&gt;Node8 -->
<g id="edge7_Node000007_Node000008" class="edge">
<title>Node7&#45;&gt;Node8</title>
<g id="a_edge7_Node000007_Node000008"><a xlink:title=" ">
<path fill="none" stroke="#63b8ff" d="M61.48,-16C52.4,-16 43.97,-16 37.09,-16"/>
<polygon fill="#63b8ff" stroke="#63b8ff" points="61.32,-19.5 71.32,-16 61.32,-12.5 61.32,-19.5"/>
</a>
</g>
</g>
</g>
</svg>
