<?xml version="1.0" encoding="UTF-8" standalone="no"?>
<!DOCTYPE svg PUBLIC "-//W3C//DTD SVG 1.1//EN"
 "http://www.w3.org/Graphics/SVG/1.1/DTD/svg11.dtd">
<!-- Generated by graphviz version 11.0.0 (20240428.1522)
 -->
<!-- Title: HudItemsManager Pages: 1 -->
<svg width="236pt" height="564pt"
 viewBox="0.00 0.00 235.50 564.00" xmlns="http://www.w3.org/2000/svg" xmlns:xlink="http://www.w3.org/1999/xlink">
<g id="graph0" class="graph" transform="scale(1 1) rotate(0) translate(4 560)">
<title>HudItemsManager</title>
<!-- Node1 -->
<g id="Node000001" class="node">
<title>Node1</title>
<g id="a_Node000001"><a xlink:title="Class that manages the items that are displayed in the HUD.">
<polygon fill="#999999" stroke="none" points="186.5,-84 98.5,-84 98.5,0 186.5,0 186.5,-84"/>
<text text-anchor="start" x="103.12" y="-70.5" font-family="Helvetica,sans-Serif" font-size="10.00">HudItemsManager</text>
<text text-anchor="start" x="141" y="-54.5" font-family="Helvetica,sans-Serif" font-size="10.00"> </text>
<text text-anchor="start" x="107" y="-38.5" font-family="Helvetica,sans-Serif" font-size="10.00">+</text>
<text text-anchor="start" x="121.5" y="-38.5" font-family="Helvetica,sans-Serif" font-size="10.00">addItem()</text>
<text text-anchor="start" x="107" y="-22.5" font-family="Helvetica,sans-Serif" font-size="10.00">+</text>
<text text-anchor="start" x="121.5" y="-22.5" font-family="Helvetica,sans-Serif" font-size="10.00">clearItems()</text>
<text text-anchor="start" x="107" y="-6.5" font-family="Helvetica,sans-Serif" font-size="10.00">+</text>
<text text-anchor="start" x="121.5" y="-6.5" font-family="Helvetica,sans-Serif" font-size="10.00">getItems()</text>
<polygon fill="#666666" stroke="#666666" points="98.5,-66 98.5,-66 186.5,-66 186.5,-66 98.5,-66"/>
<polygon fill="#666666" stroke="#666666" points="98.5,-50 98.5,-50 186.5,-50 186.5,-50 98.5,-50"/>
<polygon fill="none" stroke="#666666" points="98.5,0 98.5,-84 186.5,-84 186.5,0 98.5,0"/>
</a>
</g>
</g>
<!-- Node2 -->
<g id="Node000002" class="node">
<title>Node2</title>
<g id="a_Node000002"><a xlink:title=" ">
<polygon fill="white" stroke="none" points="142,-184 51,-184 51,-132 142,-132 142,-184"/>
<text text-anchor="start" x="55.62" y="-170.5" font-family="Helvetica,sans-Serif" font-size="10.00">std::vector&lt; Item &gt;</text>
<text text-anchor="start" x="95" y="-154.5" font-family="Helvetica,sans-Serif" font-size="10.00"> </text>
<text text-anchor="start" x="95" y="-138.5" font-family="Helvetica,sans-Serif" font-size="10.00"> </text>
<polygon fill="#666666" stroke="#666666" points="51,-166 51,-166 142,-166 142,-166 51,-166"/>
<polygon fill="#666666" stroke="#666666" points="51,-150 51,-150 142,-150 142,-150 51,-150"/>
<polygon fill="none" stroke="#666666" points="51,-132 51,-184 142,-184 142,-132 51,-132"/>
</a>
</g>
</g>
<!-- Node2&#45;&gt;Node1 -->
<g id="edge1_Node000001_Node000002" class="edge">
<title>Node2&#45;&gt;Node1</title>
<g id="a_edge1_Node000001_Node000002"><a xlink:title=" ">
<path fill="none" stroke="#63b8ff" d="M106.48,-132.26C110.81,-121.54 116.05,-108.56 121.18,-95.84"/>
<polygon fill="none" stroke="#63b8ff" points="121.2,-95.79 119.74,-88.73 125.69,-84.66 127.15,-91.72 121.2,-95.79"/>
</a>
</g>
<text text-anchor="middle" x="133.5" y="-104.5" font-family="Helvetica,sans-Serif" font-size="10.00" fill="grey"> &#45;items</text>
</g>
<!-- Node3 -->
<g id="Node000003" class="node">
<title>Node3</title>
<g id="a_Node000003"><a xlink:href="_hud_items_manager_8h.html#struct_item" target="_top" xlink:title=" ">
<polygon fill="white" stroke="none" points="77.5,-284 41.5,-284 41.5,-232 77.5,-232 77.5,-284"/>
<text text-anchor="start" x="50.12" y="-270.5" font-family="Helvetica,sans-Serif" font-size="10.00">Item</text>
<text text-anchor="start" x="45.5" y="-254.5" font-family="Helvetica,sans-Serif" font-size="10.00">+</text>
<text text-anchor="start" x="55.5" y="-254.5" font-family="Helvetica,sans-Serif" font-size="10.00">type</text>
<text text-anchor="start" x="58" y="-238.5" font-family="Helvetica,sans-Serif" font-size="10.00"> </text>
<polygon fill="#666666" stroke="#666666" points="41.5,-266 41.5,-266 77.5,-266 77.5,-266 41.5,-266"/>
<polygon fill="#666666" stroke="#666666" points="41.5,-250 41.5,-250 53.5,-250 53.5,-250 41.5,-250"/>
<polygon fill="#666666" stroke="#666666" points="53.5,-250 53.5,-250 77.5,-250 77.5,-250 53.5,-250"/>
<polygon fill="none" stroke="#666666" points="41.5,-232 41.5,-284 77.5,-284 77.5,-232 41.5,-232"/>
</a>
</g>
</g>
<!-- Node3&#45;&gt;Node2 -->
<g id="edge2_Node000002_Node000003" class="edge">
<title>Node3&#45;&gt;Node2</title>
<g id="a_edge2_Node000002_Node000003"><a xlink:title=" ">
<path fill="none" stroke="#63b8ff" d="M59.05,-232.26C59.59,-222.56 61.12,-211.5 64.75,-202 65.71,-199.49 66.86,-197.01 68.14,-194.57"/>
<polygon fill="none" stroke="#63b8ff" points="68.14,-194.56 67.87,-187.36 74.43,-184.34 74.69,-191.55 68.14,-194.56"/>
</a>
</g>
<text text-anchor="middle" x="89.88" y="-204.5" font-family="Helvetica,sans-Serif" font-size="10.00" fill="grey"> +elements</text>
</g>
<!-- Node4 -->
<g id="Node000004" class="node">
<title>Node4</title>
<g id="a_Node000004"><a xlink:href="class_g_l_e_s_c_1_1_math_1_1_vector.html" target="_top" xlink:title=" ">
<polygon fill="white" stroke="none" points="105,-556 0,-556 0,-332 105,-332 105,-556"/>
<text text-anchor="start" x="4.88" y="-542.5" font-family="Helvetica,sans-Serif" font-size="10.00">GLESC::Math::Vector</text>
<text text-anchor="start" x="26.62" y="-530.5" font-family="Helvetica,sans-Serif" font-size="10.00">&lt; Type, N &gt;</text>
<text text-anchor="start" x="10" y="-514.5" font-family="Helvetica,sans-Serif" font-size="10.00">+</text>
<text text-anchor="start" x="26" y="-514.5" font-family="Helvetica,sans-Serif" font-size="10.00">data</text>
<text text-anchor="start" x="10" y="-498.5" font-family="Helvetica,sans-Serif" font-size="10.00">+</text>
<text text-anchor="start" x="26" y="-498.5" font-family="Helvetica,sans-Serif" font-size="10.00">Vector()</text>
<text text-anchor="start" x="10" y="-482.5" font-family="Helvetica,sans-Serif" font-size="10.00">+</text>
<text text-anchor="start" x="26" y="-482.5" font-family="Helvetica,sans-Serif" font-size="10.00">Vector()</text>
<text text-anchor="start" x="10" y="-466.5" font-family="Helvetica,sans-Serif" font-size="10.00">+</text>
<text text-anchor="start" x="26" y="-466.5" font-family="Helvetica,sans-Serif" font-size="10.00">Vector()</text>
<text text-anchor="start" x="10" y="-450.5" font-family="Helvetica,sans-Serif" font-size="10.00">+</text>
<text text-anchor="start" x="26" y="-450.5" font-family="Helvetica,sans-Serif" font-size="10.00">Vector()</text>
<text text-anchor="start" x="10" y="-434.5" font-family="Helvetica,sans-Serif" font-size="10.00">+</text>
<text text-anchor="start" x="26" y="-434.5" font-family="Helvetica,sans-Serif" font-size="10.00">Vector()</text>
<text text-anchor="start" x="10" y="-418.5" font-family="Helvetica,sans-Serif" font-size="10.00">+</text>
<text text-anchor="start" x="26" y="-418.5" font-family="Helvetica,sans-Serif" font-size="10.00">Vector()</text>
<text text-anchor="start" x="10" y="-402.5" font-family="Helvetica,sans-Serif" font-size="10.00">+</text>
<text text-anchor="start" x="26" y="-402.5" font-family="Helvetica,sans-Serif" font-size="10.00">Vector()</text>
<text text-anchor="start" x="10" y="-386.5" font-family="Helvetica,sans-Serif" font-size="10.00">+</text>
<text text-anchor="start" x="26" y="-386.5" font-family="Helvetica,sans-Serif" font-size="10.00">Vector()</text>
<text text-anchor="start" x="10" y="-370.5" font-family="Helvetica,sans-Serif" font-size="10.00">+</text>
<text text-anchor="start" x="26" y="-370.5" font-family="Helvetica,sans-Serif" font-size="10.00">Vector()</text>
<text text-anchor="start" x="10" y="-354.5" font-family="Helvetica,sans-Serif" font-size="10.00">+</text>
<text text-anchor="start" x="26" y="-354.5" font-family="Helvetica,sans-Serif" font-size="10.00">Vector()</text>
<text text-anchor="start" x="26" y="-338.5" font-family="Helvetica,sans-Serif" font-size="10.00">and 90 more...</text>
<polygon fill="#666666" stroke="#666666" points="0,-526 0,-526 105,-526 105,-526 0,-526"/>
<polygon fill="#666666" stroke="#666666" points="0,-510 0,-510 24,-510 24,-510 0,-510"/>
<polygon fill="#666666" stroke="#666666" points="24,-510 24,-510 105,-510 105,-510 24,-510"/>
<polygon fill="none" stroke="#666666" points="0,-332 0,-556 105,-556 105,-332 0,-332"/>
</a>
</g>
</g>
<!-- Node4&#45;&gt;Node3 -->
<g id="edge3_Node000003_Node000004" class="edge">
<title>Node4&#45;&gt;Node3</title>
<g id="a_edge3_Node000003_Node000004"><a xlink:title=" ">
<path fill="none" stroke="#63b8ff" d="M56.71,-332.25C57.19,-319.66 57.65,-307.55 58.06,-296.93"/>
<polygon fill="none" stroke="#63b8ff" points="58.06,-296.81 54.29,-290.66 58.52,-284.82 62.29,-290.97 58.06,-296.81"/>
</a>
</g>
<text text-anchor="middle" x="91.88" y="-304.5" font-family="Helvetica,sans-Serif" font-size="10.00" fill="grey"> +worldPosition</text>
</g>
<!-- Node5 -->
<g id="Node000005" class="node">
<title>Node5</title>
<g id="a_Node000005"><a xlink:title=" ">
<polygon fill="white" stroke="none" points="177.5,-284 99.5,-284 99.5,-232 177.5,-232 177.5,-284"/>
<text text-anchor="start" x="104.38" y="-270.5" font-family="Helvetica,sans-Serif" font-size="10.00">std::vector&lt; T &gt;</text>
<text text-anchor="start" x="137" y="-254.5" font-family="Helvetica,sans-Serif" font-size="10.00"> </text>
<text text-anchor="start" x="137" y="-238.5" font-family="Helvetica,sans-Serif" font-size="10.00"> </text>
<polygon fill="#666666" stroke="#666666" points="99.5,-266 99.5,-266 177.5,-266 177.5,-266 99.5,-266"/>
<polygon fill="#666666" stroke="#666666" points="99.5,-250 99.5,-250 177.5,-250 177.5,-250 99.5,-250"/>
<polygon fill="none" stroke="#666666" points="99.5,-232 99.5,-284 177.5,-284 177.5,-232 99.5,-232"/>
</a>
</g>
</g>
<!-- Node5&#45;&gt;Node2 -->
<g id="edge4_Node000002_Node000005" class="edge">
<title>Node5&#45;&gt;Node2</title>
<g id="a_edge4_Node000002_Node000005"><a xlink:title=" ">
<path fill="none" stroke="orange" d="M123.28,-221.49C117.95,-209.04 112.07,-195.34 107.19,-183.94"/>
<polygon fill="orange" stroke="orange" points="120.04,-222.81 127.2,-230.63 126.47,-220.06 120.04,-222.81"/>
</a>
</g>
<text text-anchor="middle" x="140.38" y="-204.5" font-family="Helvetica,sans-Serif" font-size="10.00" fill="grey"> &lt; Item &gt;</text>
</g>
<!-- Node6 -->
<g id="Node000006" class="node">
<title>Node6</title>
<g id="a_Node000006"><a xlink:title=" ">
<polygon fill="white" stroke="none" points="150,-470 135,-470 135,-418 150,-418 150,-470"/>
<text text-anchor="start" x="139.88" y="-456.5" font-family="Helvetica,sans-Serif" font-size="10.00">T</text>
<text text-anchor="start" x="141" y="-440.5" font-family="Helvetica,sans-Serif" font-size="10.00"> </text>
<text text-anchor="start" x="141" y="-424.5" font-family="Helvetica,sans-Serif" font-size="10.00"> </text>
<polygon fill="#666666" stroke="#666666" points="135,-452 135,-452 150,-452 150,-452 135,-452"/>
<polygon fill="#666666" stroke="#666666" points="135,-436 135,-436 150,-436 150,-436 135,-436"/>
<polygon fill="none" stroke="#666666" points="135,-418 135,-470 150,-470 150,-418 135,-418"/>
</a>
</g>
</g>
<!-- Node6&#45;&gt;Node5 -->
<g id="edge5_Node000005_Node000006" class="edge">
<title>Node6&#45;&gt;Node5</title>
<g id="a_edge5_Node000005_Node000006"><a xlink:title=" ">
<path fill="none" stroke="#63b8ff" d="M141.96,-418.18C141.28,-386.96 140.11,-333.03 139.32,-296.69"/>
<polygon fill="none" stroke="#63b8ff" points="139.32,-296.61 135.19,-290.7 139.06,-284.62 143.19,-290.53 139.32,-296.61"/>
</a>
</g>
<text text-anchor="middle" x="163.88" y="-304.5" font-family="Helvetica,sans-Serif" font-size="10.00" fill="grey"> +elements</text>
</g>
<!-- Node7 -->
<g id="Node000007" class="node">
<title>Node7</title>
<g id="a_Node000007"><a xlink:title=" ">
<polygon fill="white" stroke="none" points="216.5,-184 160.5,-184 160.5,-132 216.5,-132 216.5,-184"/>
<text text-anchor="start" x="165.25" y="-170.5" font-family="Helvetica,sans-Serif" font-size="10.00">std::mutex</text>
<text text-anchor="start" x="187" y="-154.5" font-family="Helvetica,sans-Serif" font-size="10.00"> </text>
<text text-anchor="start" x="187" y="-138.5" font-family="Helvetica,sans-Serif" font-size="10.00"> </text>
<polygon fill="#666666" stroke="#666666" points="160.5,-166 160.5,-166 216.5,-166 216.5,-166 160.5,-166"/>
<polygon fill="#666666" stroke="#666666" points="160.5,-150 160.5,-150 216.5,-150 216.5,-150 160.5,-150"/>
<polygon fill="none" stroke="#666666" points="160.5,-132 160.5,-184 216.5,-184 216.5,-132 160.5,-132"/>
</a>
</g>
</g>
<!-- Node7&#45;&gt;Node1 -->
<g id="edge6_Node000001_Node000007" class="edge">
<title>Node7&#45;&gt;Node1</title>
<g id="a_edge6_Node000001_Node000007"><a xlink:title=" ">
<path fill="none" stroke="#63b8ff" d="M178.52,-132.26C174.19,-121.54 168.95,-108.56 163.82,-95.84"/>
<polygon fill="none" stroke="#63b8ff" points="163.8,-95.79 157.85,-91.72 159.31,-84.66 165.26,-88.73 163.8,-95.79"/>
</a>
</g>
<text text-anchor="middle" x="199" y="-104.5" font-family="Helvetica,sans-Serif" font-size="10.00" fill="grey"> &#45;itemsMutex</text>
</g>
</g>
</svg>
