<?xml version="1.0" encoding="UTF-8" standalone="no"?>
<!DOCTYPE svg PUBLIC "-//W3C//DTD SVG 1.1//EN"
 "http://www.w3.org/Graphics/SVG/1.1/DTD/svg11.dtd">
<!-- Generated by graphviz version 11.0.0 (20240428.1522)
 -->
<!-- Title: GLESC::Math::Matrix&lt; Type, N, M &gt; Pages: 1 -->
<svg width="212pt" height="624pt"
 viewBox="0.00 0.00 211.50 624.00" xmlns="http://www.w3.org/2000/svg" xmlns:xlink="http://www.w3.org/1999/xlink">
<g id="graph0" class="graph" transform="scale(1 1) rotate(0) translate(4 620)">
<title>GLESC::Math::Matrix&lt; Type, N, M &gt;</title>
<!-- Node1 -->
<g id="Node000001" class="node">
<title>Node1</title>
<g id="a_Node000001"><a xlink:title="Matrix class. Represents a matrix of N rows and M columns.">
<polygon fill="#999999" stroke="none" points="122.5,-616 17.5,-616 17.5,-344 122.5,-344 122.5,-616"/>
<text text-anchor="start" x="23.12" y="-602.5" font-family="Helvetica,sans-Serif" font-size="10.00">GLESC::Math::Matrix</text>
<text text-anchor="start" x="37" y="-590.5" font-family="Helvetica,sans-Serif" font-size="10.00">&lt; Type, N, M &gt;</text>
<text text-anchor="start" x="21.5" y="-574.5" font-family="Helvetica,sans-Serif" font-size="10.00">+</text>
<text text-anchor="start" x="31.5" y="-574.5" font-family="Helvetica,sans-Serif" font-size="10.00">data</text>
<text text-anchor="start" x="21.5" y="-558.5" font-family="Helvetica,sans-Serif" font-size="10.00">+</text>
<text text-anchor="start" x="31.5" y="-558.5" font-family="Helvetica,sans-Serif" font-size="10.00">Matrix()</text>
<text text-anchor="start" x="21.5" y="-542.5" font-family="Helvetica,sans-Serif" font-size="10.00">+</text>
<text text-anchor="start" x="31.5" y="-542.5" font-family="Helvetica,sans-Serif" font-size="10.00">Matrix()</text>
<text text-anchor="start" x="21.5" y="-526.5" font-family="Helvetica,sans-Serif" font-size="10.00">+</text>
<text text-anchor="start" x="31.5" y="-526.5" font-family="Helvetica,sans-Serif" font-size="10.00">Matrix()</text>
<text text-anchor="start" x="21.5" y="-510.5" font-family="Helvetica,sans-Serif" font-size="10.00">+</text>
<text text-anchor="start" x="31.5" y="-510.5" font-family="Helvetica,sans-Serif" font-size="10.00">Matrix()</text>
<text text-anchor="start" x="21.5" y="-494.5" font-family="Helvetica,sans-Serif" font-size="10.00">+</text>
<text text-anchor="start" x="31.5" y="-494.5" font-family="Helvetica,sans-Serif" font-size="10.00">Matrix()</text>
<text text-anchor="start" x="21.5" y="-478.5" font-family="Helvetica,sans-Serif" font-size="10.00">+</text>
<text text-anchor="start" x="31.5" y="-478.5" font-family="Helvetica,sans-Serif" font-size="10.00">Matrix()</text>
<text text-anchor="start" x="21.5" y="-462.5" font-family="Helvetica,sans-Serif" font-size="10.00">+</text>
<text text-anchor="start" x="31.5" y="-462.5" font-family="Helvetica,sans-Serif" font-size="10.00">Matrix()</text>
<text text-anchor="start" x="21.5" y="-446.5" font-family="Helvetica,sans-Serif" font-size="10.00">+</text>
<text text-anchor="start" x="31.5" y="-446.5" font-family="Helvetica,sans-Serif" font-size="10.00">Matrix()</text>
<text text-anchor="start" x="21.5" y="-430.5" font-family="Helvetica,sans-Serif" font-size="10.00">+</text>
<text text-anchor="start" x="31.5" y="-430.5" font-family="Helvetica,sans-Serif" font-size="10.00">begin()</text>
<text text-anchor="start" x="21.5" y="-414.5" font-family="Helvetica,sans-Serif" font-size="10.00">+</text>
<text text-anchor="start" x="31.5" y="-414.5" font-family="Helvetica,sans-Serif" font-size="10.00">begin()</text>
<text text-anchor="start" x="31.5" y="-398.5" font-family="Helvetica,sans-Serif" font-size="10.00">and 48 more...</text>
<text text-anchor="start" x="21.5" y="-382.5" font-family="Helvetica,sans-Serif" font-size="10.00">+</text>
<text text-anchor="start" x="31.5" y="-382.5" font-family="Helvetica,sans-Serif" font-size="10.00">cols()</text>
<text text-anchor="start" x="21.5" y="-366.5" font-family="Helvetica,sans-Serif" font-size="10.00">+</text>
<text text-anchor="start" x="31.5" y="-366.5" font-family="Helvetica,sans-Serif" font-size="10.00">rows()</text>
<text text-anchor="start" x="23" y="-350.5" font-family="Helvetica,sans-Serif" font-size="10.00">&#45;</text>
<text text-anchor="start" x="31.5" y="-350.5" font-family="Helvetica,sans-Serif" font-size="10.00">S_ASSERT_TRUE()</text>
<polygon fill="#666666" stroke="#666666" points="17.5,-586 17.5,-586 122.5,-586 122.5,-586 17.5,-586"/>
<polygon fill="#666666" stroke="#666666" points="17.5,-570 17.5,-570 29.5,-570 29.5,-570 17.5,-570"/>
<polygon fill="#666666" stroke="#666666" points="29.5,-570 29.5,-570 122.5,-570 122.5,-570 29.5,-570"/>
<polygon fill="none" stroke="#666666" points="17.5,-344 17.5,-616 122.5,-616 122.5,-344 17.5,-344"/>
</a>
</g>
</g>
<!-- Node2 -->
<g id="Node000002" class="node">
<title>Node2</title>
<g id="a_Node000002"><a xlink:href="class_g_l_e_s_c_1_1_math_1_1_matrix.html" target="_top" xlink:title=" ">
<polygon fill="white" stroke="none" points="140,-284 0,-284 0,0 140,0 140,-284"/>
<text text-anchor="start" x="4.75" y="-270.5" font-family="Helvetica,sans-Serif" font-size="10.00">GLESC::Math::Matrix</text>
<text text-anchor="start" x="4.75" y="-258.5" font-family="Helvetica,sans-Serif" font-size="10.00">&lt; typename Type::ValueType,</text>
<text text-anchor="start" x="12.25" y="-246.5" font-family="Helvetica,sans-Serif" font-size="10.00"> Type::Rows, Type::Cols &gt;</text>
<text text-anchor="start" x="12.5" y="-230.5" font-family="Helvetica,sans-Serif" font-size="10.00">+</text>
<text text-anchor="start" x="31" y="-230.5" font-family="Helvetica,sans-Serif" font-size="10.00">data</text>
<text text-anchor="start" x="12.5" y="-214.5" font-family="Helvetica,sans-Serif" font-size="10.00">+</text>
<text text-anchor="start" x="31" y="-214.5" font-family="Helvetica,sans-Serif" font-size="10.00">Matrix()</text>
<text text-anchor="start" x="12.5" y="-198.5" font-family="Helvetica,sans-Serif" font-size="10.00">+</text>
<text text-anchor="start" x="31" y="-198.5" font-family="Helvetica,sans-Serif" font-size="10.00">Matrix()</text>
<text text-anchor="start" x="12.5" y="-182.5" font-family="Helvetica,sans-Serif" font-size="10.00">+</text>
<text text-anchor="start" x="31" y="-182.5" font-family="Helvetica,sans-Serif" font-size="10.00">Matrix()</text>
<text text-anchor="start" x="12.5" y="-166.5" font-family="Helvetica,sans-Serif" font-size="10.00">+</text>
<text text-anchor="start" x="31" y="-166.5" font-family="Helvetica,sans-Serif" font-size="10.00">Matrix()</text>
<text text-anchor="start" x="12.5" y="-150.5" font-family="Helvetica,sans-Serif" font-size="10.00">+</text>
<text text-anchor="start" x="31" y="-150.5" font-family="Helvetica,sans-Serif" font-size="10.00">Matrix()</text>
<text text-anchor="start" x="12.5" y="-134.5" font-family="Helvetica,sans-Serif" font-size="10.00">+</text>
<text text-anchor="start" x="31" y="-134.5" font-family="Helvetica,sans-Serif" font-size="10.00">Matrix()</text>
<text text-anchor="start" x="12.5" y="-118.5" font-family="Helvetica,sans-Serif" font-size="10.00">+</text>
<text text-anchor="start" x="31" y="-118.5" font-family="Helvetica,sans-Serif" font-size="10.00">Matrix()</text>
<text text-anchor="start" x="12.5" y="-102.5" font-family="Helvetica,sans-Serif" font-size="10.00">+</text>
<text text-anchor="start" x="31" y="-102.5" font-family="Helvetica,sans-Serif" font-size="10.00">Matrix()</text>
<text text-anchor="start" x="12.5" y="-86.5" font-family="Helvetica,sans-Serif" font-size="10.00">+</text>
<text text-anchor="start" x="31" y="-86.5" font-family="Helvetica,sans-Serif" font-size="10.00">begin()</text>
<text text-anchor="start" x="12.5" y="-70.5" font-family="Helvetica,sans-Serif" font-size="10.00">+</text>
<text text-anchor="start" x="31" y="-70.5" font-family="Helvetica,sans-Serif" font-size="10.00">begin()</text>
<text text-anchor="start" x="31" y="-54.5" font-family="Helvetica,sans-Serif" font-size="10.00">and 48 more...</text>
<text text-anchor="start" x="12.5" y="-38.5" font-family="Helvetica,sans-Serif" font-size="10.00">+</text>
<text text-anchor="start" x="31" y="-38.5" font-family="Helvetica,sans-Serif" font-size="10.00">cols()</text>
<text text-anchor="start" x="12.5" y="-22.5" font-family="Helvetica,sans-Serif" font-size="10.00">+</text>
<text text-anchor="start" x="31" y="-22.5" font-family="Helvetica,sans-Serif" font-size="10.00">rows()</text>
<text text-anchor="start" x="14" y="-6.5" font-family="Helvetica,sans-Serif" font-size="10.00">&#45;</text>
<text text-anchor="start" x="31" y="-6.5" font-family="Helvetica,sans-Serif" font-size="10.00">S_ASSERT_TRUE()</text>
<polygon fill="#666666" stroke="#666666" points="0,-242 0,-242 140,-242 140,-242 0,-242"/>
<polygon fill="#666666" stroke="#666666" points="0,-226 0,-226 29,-226 29,-226 0,-226"/>
<polygon fill="#666666" stroke="#666666" points="29,-226 29,-226 140,-226 140,-226 29,-226"/>
<polygon fill="none" stroke="#666666" points="0,0 0,-284 140,-284 140,0 0,0"/>
</a>
</g>
</g>
<!-- Node1&#45;&gt;Node2 -->
<g id="edge1_Node000001_Node000002" class="edge">
<title>Node1&#45;&gt;Node2</title>
<g id="a_edge1_Node000001_Node000002"><a xlink:title=" ">
<path fill="none" stroke="orange" d="M70,-333.02C70,-316.68 70,-300.07 70,-283.8"/>
<polygon fill="orange" stroke="orange" points="66.5,-332.76 70,-342.76 73.5,-332.76 66.5,-332.76"/>
</a>
</g>
<text text-anchor="start" x="70" y="-316.5" font-family="Helvetica,sans-Serif" font-size="10.00" fill="grey"> &lt; typename Type::ValueType,</text>
<text text-anchor="middle" x="136.75" y="-304.5" font-family="Helvetica,sans-Serif" font-size="10.00" fill="grey"> Type::Rows, Type::Cols &gt;</text>
</g>
</g>
</svg>
