<?xml version="1.0" encoding="UTF-8" standalone="no"?>
<!DOCTYPE svg PUBLIC "-//W3C//DTD SVG 1.1//EN"
 "http://www.w3.org/Graphics/SVG/1.1/DTD/svg11.dtd">
<!-- Generated by graphviz version 11.0.0 (20240428.1522)
 -->
<!-- Title: GLESC::GAPI::Shader::setUniform Pages: 1 -->
<!--zoomable 285 -->

<svg id="main" version="1.1" xmlns="http://www.w3.org/2000/svg" xmlns:xlink="http://www.w3.org/1999/xlink" xml:space="preserve" onload="init(evt)">
<style type="text/css"><![CDATA[
.node, .edge {opacity: 0.7;}
.node.selected, .edge.selected {opacity: 1;}
.edge:hover path { stroke: red; }
.edge:hover polygon { stroke: red; fill: red; }
]]></style>

<defs>
  <circle id="rim" cx="0" cy="0" r="7"/>
  <circle id="rim2" cx="0" cy="0" r="3.5"/>
  <g id="zoomPlus">
    <use xlink:href="#rim" fill="#404040"><set attributeName="fill" to="#808080" begin="zoomplus.mouseover" end="zoomplus.mouseout"/></use>
    <path d="M-4,0h8M0,-4v8" fill="none" stroke="white" stroke-width="1.5" pointer-events="none"/>
  </g>
  <g id="zoomMin">
    <use xlink:href="#rim" fill="#404040"><set attributeName="fill" to="#808080" begin="zoomminus.mouseover" end="zoomminus.mouseout"/></use>
    <path d="M-4,0h8" fill="none" stroke="white" stroke-width="1.5" pointer-events="none"/>
  </g>
  <g id="arrowUp" transform="translate(30 24)">
    <use xlink:href="#rim"/>
    <path pointer-events="none" fill="none" stroke="white" stroke-width="1.5" d="M0,-3.0v7 M-2.5,-0.5L0,-3.0L2.5,-0.5"/>
  </g>
  <g id="arrowRight" transform="rotate(90) translate(36 -43)">
    <use xlink:href="#rim"/>
    <path pointer-events="none" fill="none" stroke="white" stroke-width="1.5" d="M0,-3.0v7 M-2.5,-0.5L0,-3.0L2.5,-0.5"/>
  </g>
  <g id="arrowDown" transform="rotate(180) translate(-30 -48)">
    <use xlink:href="#rim"/>
    <path pointer-events="none" fill="none" stroke="white" stroke-width="1.5" d="M0,-3.0v7 M-2.5,-0.5L0,-3.0L2.5,-0.5"/>
  </g>
  <g id="arrowLeft" transform="rotate(270) translate(-36 17)">
    <use xlink:href="#rim"/>
    <path pointer-events="none" fill="none" stroke="white" stroke-width="1.5" d="M0,-3.0v7 M-2.5,-0.5L0,-3.0L2.5,-0.5"/>
  </g>
  <g id="resetDef">
    <use xlink:href="#rim2" fill="#404040"><set attributeName="fill" to="#808080" begin="reset.mouseover" end="reset.mouseout"/></use>
  </g>
</defs>
<script type="application/ecmascript">
var viewWidth = 850;
var viewHeight = 285;
var sectionId = 'dynsection-6';
</script>
<script type="application/ecmascript" xlink:href="svg.min.js"/>
<svg id="graph" class="graph">
<g id="viewport">
<title>GLESC::GAPI::Shader::setUniform</title>
<!-- Node1 -->
<g id="Node000001" class="node">
<title>Node1</title>
<g id="a_Node000001"><a xlink:title="Sets a uniform value in the shader.">
<polygon fill="#999999" stroke="#666666" points="842.25,-145 727.25,-145 727.25,-113 842.25,-113 842.25,-145"/>
<text text-anchor="start" x="735.25" y="-131.5" font-family="Helvetica,sans-Serif" font-size="10.00">GLESC::GAPI::Shader</text>
<text text-anchor="middle" x="784.75" y="-119.5" font-family="Helvetica,sans-Serif" font-size="10.00">::setUniform</text>
</a>
</g>
</g>
<!-- Node2 -->
<g id="Node000002" class="node">
<title>Node2</title>
<g id="a_Node000002"><a xlink:href="class_g_l_e_s_c_1_1_render_1_1_renderer.html#aa5273b3a3abbfed253e75ce5d7c2b73a" target="_top" xlink:title="This encapsulates the application of the ambient light.">
<polygon fill="white" stroke="#666666" points="691.25,-277 560.5,-277 560.5,-245 691.25,-245 691.25,-277"/>
<text text-anchor="start" x="568.5" y="-263.5" font-family="Helvetica,sans-Serif" font-size="10.00">GLESC::Render::Renderer</text>
<text text-anchor="middle" x="625.88" y="-251.5" font-family="Helvetica,sans-Serif" font-size="10.00">::applyAmbientLight</text>
</a>
</g>
</g>
<!-- Node1&#45;&gt;Node2 -->
<g id="edge1_Node000001_Node000002" class="edge">
<title>Node1&#45;&gt;Node2</title>
<g id="a_edge1_Node000001_Node000002"><a xlink:title=" ">
<path fill="none" stroke="#63b8ff" d="M765.51,-154.27C748.34,-176.68 720.89,-209.16 691.25,-231 684.3,-236.12 676.34,-240.68 668.44,-244.61"/>
<polygon fill="#63b8ff" stroke="#63b8ff" points="768.1,-156.65 771.31,-146.55 762.51,-152.45 768.1,-156.65"/>
</a>
</g>
</g>
<!-- Node3 -->
<g id="Node000003" class="node">
<title>Node3</title>
<g id="a_Node000003"><a xlink:href="class_g_l_e_s_c_1_1_render_1_1_renderer.html#a41c9fb0bfbc6f92e90010a667652d027" target="_top" xlink:title="This encapsulates the application of the sun, setting the uniforms.">
<polygon fill="white" stroke="#666666" points="524.5,-233 393.75,-233 393.75,-201 524.5,-201 524.5,-233"/>
<text text-anchor="start" x="401.75" y="-219.5" font-family="Helvetica,sans-Serif" font-size="10.00">GLESC::Render::Renderer</text>
<text text-anchor="middle" x="459.12" y="-207.5" font-family="Helvetica,sans-Serif" font-size="10.00">::applySun</text>
</a>
</g>
</g>
<!-- Node1&#45;&gt;Node3 -->
<g id="edge10_Node000001_Node000003" class="edge">
<title>Node1&#45;&gt;Node3</title>
<g id="a_edge10_Node000001_Node000003"><a xlink:title=" ">
<path fill="none" stroke="#63b8ff" d="M759.37,-153.25C741.95,-168.95 717.1,-188.23 691.25,-198 637.77,-218.22 572.51,-221.85 524.99,-221.08"/>
<polygon fill="#63b8ff" stroke="#63b8ff" points="761.73,-155.84 766.67,-146.47 756.96,-150.71 761.73,-155.84"/>
</a>
</g>
</g>
<!-- Node7 -->
<g id="Node000007" class="node">
<title>Node7</title>
<g id="a_Node000007"><a xlink:href="class_g_l_e_s_c_1_1_render_1_1_renderer.html#ac0407fcfcf436f15f382c9b5505306bd" target="_top" xlink:title="This encapsulates the application of the fog, setting the uniforms.">
<polygon fill="white" stroke="#666666" points="691.25,-189 560.5,-189 560.5,-157 691.25,-157 691.25,-189"/>
<text text-anchor="start" x="568.5" y="-175.5" font-family="Helvetica,sans-Serif" font-size="10.00">GLESC::Render::Renderer</text>
<text text-anchor="middle" x="625.88" y="-163.5" font-family="Helvetica,sans-Serif" font-size="10.00">::applyFog</text>
</a>
</g>
</g>
<!-- Node1&#45;&gt;Node7 -->
<g id="edge6_Node000001_Node000007" class="edge">
<title>Node1&#45;&gt;Node7</title>
<g id="a_edge6_Node000001_Node000007"><a xlink:title=" ">
<path fill="none" stroke="#63b8ff" d="M716.18,-147.95C705.98,-150.81 695.53,-153.74 685.54,-156.55"/>
<polygon fill="#63b8ff" stroke="#63b8ff" points="716.97,-151.36 725.66,-145.29 715.08,-144.62 716.97,-151.36"/>
</a>
</g>
</g>
<!-- Node8 -->
<g id="Node000008" class="node">
<title>Node8</title>
<g id="a_Node000008"><a xlink:href="class_g_l_e_s_c_1_1_render_1_1_renderer.html#a8424374b350690f034c330a92393b182" target="_top" xlink:title="This encapsulates the application of the material, setting all the uniforms of the material shader.">
<polygon fill="white" stroke="#666666" points="524.5,-145 393.75,-145 393.75,-113 524.5,-113 524.5,-145"/>
<text text-anchor="start" x="401.75" y="-131.5" font-family="Helvetica,sans-Serif" font-size="10.00">GLESC::Render::Renderer</text>
<text text-anchor="middle" x="459.12" y="-119.5" font-family="Helvetica,sans-Serif" font-size="10.00">::applyMaterial</text>
</a>
</g>
</g>
<!-- Node1&#45;&gt;Node8 -->
<g id="edge8_Node000001_Node000008" class="edge">
<title>Node1&#45;&gt;Node8</title>
<g id="a_edge8_Node000001_Node000008"><a xlink:title=" ">
<path fill="none" stroke="#63b8ff" d="M715.73,-129C659.5,-129 580.19,-129 524.87,-129"/>
<polygon fill="#63b8ff" stroke="#63b8ff" points="715.49,-132.5 725.49,-129 715.49,-125.5 715.49,-132.5"/>
</a>
</g>
</g>
<!-- Node9 -->
<g id="Node000009" class="node">
<title>Node9</title>
<g id="a_Node000009"><a xlink:href="class_g_l_e_s_c_1_1_render_1_1_renderer.html#ae097eb57323b606eab3a21b12b8dcbdb" target="_top" xlink:title="This encapsulates the setting of transforms of the transforms of a mesh.">
<polygon fill="white" stroke="#666666" points="524.5,-95 393.75,-95 393.75,-63 524.5,-63 524.5,-95"/>
<text text-anchor="start" x="401.75" y="-81.5" font-family="Helvetica,sans-Serif" font-size="10.00">GLESC::Render::Renderer</text>
<text text-anchor="middle" x="459.12" y="-69.5" font-family="Helvetica,sans-Serif" font-size="10.00">::applyTransform</text>
</a>
</g>
</g>
<!-- Node1&#45;&gt;Node9 -->
<g id="edge11_Node000001_Node000009" class="edge">
<title>Node1&#45;&gt;Node9</title>
<g id="a_edge11_Node000001_Node000009"><a xlink:title=" ">
<path fill="none" stroke="#63b8ff" d="M715.73,-118.49C659.5,-109.8 580.19,-97.55 524.87,-89"/>
<polygon fill="#63b8ff" stroke="#63b8ff" points="715.1,-121.93 725.51,-120 716.16,-115.02 715.1,-121.93"/>
</a>
</g>
</g>
<!-- Node10 -->
<g id="Node000010" class="node">
<title>Node10</title>
<g id="a_Node000010"><a xlink:href="class_g_l_e_s_c_1_1_render_1_1_skybox.html#a297794252ba3f880d7312cd20ca443a7" target="_top" xlink:title="Renders the skybox around the player given the view and projection.">
<polygon fill="white" stroke="#666666" points="688.25,-63 563.5,-63 563.5,-31 688.25,-31 688.25,-63"/>
<text text-anchor="start" x="571.5" y="-49.5" font-family="Helvetica,sans-Serif" font-size="10.00">GLESC::Render::Skybox</text>
<text text-anchor="middle" x="625.88" y="-37.5" font-family="Helvetica,sans-Serif" font-size="10.00">::draw</text>
</a>
</g>
</g>
<!-- Node1&#45;&gt;Node10 -->
<g id="edge13_Node000001_Node000010" class="edge">
<title>Node1&#45;&gt;Node10</title>
<g id="a_edge13_Node000001_Node000010"><a xlink:title=" ">
<path fill="none" stroke="#63b8ff" d="M745.84,-106.83C729.24,-97.35 709.44,-86.33 691.25,-77 682.36,-72.44 672.66,-67.76 663.54,-63.5"/>
<polygon fill="#63b8ff" stroke="#63b8ff" points="743.99,-109.8 754.4,-111.75 747.48,-103.73 743.99,-109.8"/>
</a>
</g>
</g>
<!-- Node11 -->
<g id="Node000011" class="node">
<title>Node11</title>
<g id="a_Node000011"><a xlink:href="class_g_l_e_s_c_1_1_render_1_1_renderer.html#aa1a9e1d79bb96f79ee1e421dd245bbf1" target="_top" xlink:title="This encapsulates the rendering of the lights, setting the uniforms.">
<polygon fill="white" stroke="#666666" points="524.5,-32 393.75,-32 393.75,0 524.5,0 524.5,-32"/>
<text text-anchor="start" x="401.75" y="-18.5" font-family="Helvetica,sans-Serif" font-size="10.00">GLESC::Render::Renderer</text>
<text text-anchor="middle" x="459.12" y="-6.5" font-family="Helvetica,sans-Serif" font-size="10.00">::renderLights</text>
</a>
</g>
</g>
<!-- Node1&#45;&gt;Node11 -->
<g id="edge14_Node000001_Node000011" class="edge">
<title>Node1&#45;&gt;Node11</title>
<g id="a_edge14_Node000001_Node000011"><a xlink:title=" ">
<path fill="none" stroke="#63b8ff" d="M769.71,-102.64C754.3,-76.8 726.95,-38.89 691.25,-22 639.28,2.59 573.1,1.54 524.89,-4.15"/>
<polygon fill="#63b8ff" stroke="#63b8ff" points="766.62,-104.3 774.63,-111.24 772.7,-100.82 766.62,-104.3"/>
</a>
</g>
</g>
<!-- Node2&#45;&gt;Node3 -->
<g id="edge2_Node000002_Node000003" class="edge">
<title>Node2&#45;&gt;Node3</title>
<g id="a_edge2_Node000002_Node000003"><a xlink:title=" ">
<path fill="none" stroke="#63b8ff" d="M552.52,-241.68C542.27,-238.94 531.82,-236.15 521.8,-233.47"/>
<polygon fill="#63b8ff" stroke="#63b8ff" points="551.5,-245.03 562.07,-244.23 553.31,-238.26 551.5,-245.03"/>
</a>
</g>
</g>
<!-- Node4 -->
<g id="Node000004" class="node">
<title>Node4</title>
<g id="a_Node000004"><a xlink:href="class_g_l_e_s_c_1_1_render_1_1_renderer.html#a3244ebc15bf8310257ec613f62d00a33" target="_top" xlink:title="This renders the frame.">
<polygon fill="white" stroke="#666666" points="357.75,-145 227,-145 227,-113 357.75,-113 357.75,-145"/>
<text text-anchor="start" x="235" y="-131.5" font-family="Helvetica,sans-Serif" font-size="10.00">GLESC::Render::Renderer</text>
<text text-anchor="middle" x="292.38" y="-119.5" font-family="Helvetica,sans-Serif" font-size="10.00">::render</text>
</a>
</g>
</g>
<!-- Node3&#45;&gt;Node4 -->
<g id="edge3_Node000003_Node000004" class="edge">
<title>Node3&#45;&gt;Node4</title>
<g id="a_edge3_Node000003_Node000004"><a xlink:title=" ">
<path fill="none" stroke="#63b8ff" d="M411.44,-195.83C405.44,-192.94 399.43,-189.95 393.75,-187 368.4,-173.8 340.29,-157.4 320.28,-145.41"/>
<polygon fill="#63b8ff" stroke="#63b8ff" points="409.52,-198.8 420.06,-199.93 412.53,-192.48 409.52,-198.8"/>
</a>
</g>
</g>
<!-- Node5 -->
<g id="Node000005" class="node">
<title>Node5</title>
<g id="a_Node000005"><a xlink:href="class_g_l_e_s_c_1_1_engine.html#ab0a886855ca341089947b36b9c6f6e15" target="_top" xlink:title="Processes the rendering of the game Can be called at variable intervals of time as it uses elapsed.">
<polygon fill="white" stroke="#666666" points="191,-139 73,-139 73,-119 191,-119 191,-139"/>
<text text-anchor="middle" x="132" y="-125.5" font-family="Helvetica,sans-Serif" font-size="10.00">GLESC::Engine::render</text>
</a>
</g>
</g>
<!-- Node4&#45;&gt;Node5 -->
<g id="edge4_Node000004_Node000005" class="edge">
<title>Node4&#45;&gt;Node5</title>
<g id="a_edge4_Node000004_Node000005"><a xlink:title=" ">
<path fill="none" stroke="#63b8ff" d="M215.24,-129C207.23,-129 199.18,-129 191.42,-129"/>
<polygon fill="#63b8ff" stroke="#63b8ff" points="214.99,-132.5 224.99,-129 214.99,-125.5 214.99,-132.5"/>
</a>
</g>
</g>
<!-- Node6 -->
<g id="Node000006" class="node">
<title>Node6</title>
<g id="a_Node000006"><a xlink:href="src_2engine_2main_8cpp.html#a0ddf1224851353fc92bfbff6f499fa97" target="_top" xlink:title=" ">
<polygon fill="white" stroke="#666666" points="37,-139 0,-139 0,-119 37,-119 37,-139"/>
<text text-anchor="middle" x="18.5" y="-125.5" font-family="Helvetica,sans-Serif" font-size="10.00">main</text>
</a>
</g>
</g>
<!-- Node5&#45;&gt;Node6 -->
<g id="edge5_Node000005_Node000006" class="edge">
<title>Node5&#45;&gt;Node6</title>
<g id="a_edge5_Node000005_Node000006"><a xlink:title=" ">
<path fill="none" stroke="#63b8ff" d="M61.31,-129C52.52,-129 44.22,-129 37.37,-129"/>
<polygon fill="#63b8ff" stroke="#63b8ff" points="61.12,-132.5 71.12,-129 61.12,-125.5 61.12,-132.5"/>
</a>
</g>
</g>
<!-- Node7&#45;&gt;Node4 -->
<g id="edge7_Node000007_Node000004" class="edge">
<title>Node7&#45;&gt;Node4</title>
<g id="a_edge7_Node000007_Node000004"><a xlink:title=" ">
<path fill="none" stroke="#63b8ff" d="M549.05,-169.87C503.76,-167.23 445.21,-162.47 393.75,-154 380.37,-151.8 366.15,-148.72 352.75,-145.48"/>
<polygon fill="#63b8ff" stroke="#63b8ff" points="548.58,-173.35 558.76,-170.41 548.97,-166.36 548.58,-173.35"/>
</a>
</g>
</g>
<!-- Node8&#45;&gt;Node4 -->
<g id="edge9_Node000008_Node000004" class="edge">
<title>Node8&#45;&gt;Node4</title>
<g id="a_edge9_Node000008_Node000004"><a xlink:title=" ">
<path fill="none" stroke="#63b8ff" d="M382.19,-129C374.14,-129 366.01,-129 358.1,-129"/>
<polygon fill="#63b8ff" stroke="#63b8ff" points="381.97,-132.5 391.97,-129 381.97,-125.5 381.97,-132.5"/>
</a>
</g>
</g>
<!-- Node9&#45;&gt;Node4 -->
<g id="edge12_Node000009_Node000004" class="edge">
<title>Node9&#45;&gt;Node4</title>
<g id="a_edge12_Node000009_Node000004"><a xlink:title=" ">
<path fill="none" stroke="#63b8ff" d="M393.36,-98.66C378.26,-103.24 362.32,-108.08 347.72,-112.51"/>
<polygon fill="#63b8ff" stroke="#63b8ff" points="394.18,-102.06 402.73,-95.81 392.15,-95.37 394.18,-102.06"/>
</a>
</g>
</g>
<!-- Node11&#45;&gt;Node4 -->
<g id="edge15_Node000011_Node000004" class="edge">
<title>Node11&#45;&gt;Node4</title>
<g id="a_edge15_Node000011_Node000004"><a xlink:title=" ">
<path fill="none" stroke="#63b8ff" d="M419.15,-38.09C410.67,-43.15 401.82,-48.62 393.75,-54 365.32,-72.93 334.01,-96.85 314.04,-112.52"/>
<polygon fill="#63b8ff" stroke="#63b8ff" points="420.72,-41.22 427.57,-33.14 417.17,-35.19 420.72,-41.22"/>
</a>
</g>
</g>
</g>
</svg>

<g id="navigator" transform="translate(0 0)" fill="#404254">
  <rect fill="#f2f5e9" fill-opacity="0.5" stroke="#606060" stroke-width=".5" x="0" y="0" width="60" height="60"/>
  <use id="zoomplus" xlink:href="#zoomPlus" x="17" y="9" onmousedown="handleZoom(evt,'in')"/>
  <use id="zoomminus" xlink:href="#zoomMin" x="42" y="9" onmousedown="handleZoom(evt,'out')"/>
  <use id="reset" xlink:href="#resetDef" x="30" y="36" onmousedown="handleReset()"/>
   <use id="arrowup" xlink:href="#arrowUp" x="0" y="0" onmousedown="handlePan(0,-1)"/>
  <use id="arrowright" xlink:href="#arrowRight" x="0" y="0" onmousedown="handlePan(1,0)"/>
  <use id="arrowdown" xlink:href="#arrowDown" x="0" y="0" onmousedown="handlePan(0,1)"/>
  <use id="arrowleft" xlink:href="#arrowLeft" x="0" y="0" onmousedown="handlePan(-1,0)"/>
</g>
<svg viewBox="0 0 15 15" width="100%" height="30px" preserveAspectRatio="xMaxYMin meet">
 <g id="arrow_out" transform="scale(0.3 0.3)">
  <a xlink:href="class_g_l_e_s_c_1_1_g_a_p_i_1_1_shader_a2af6148a4a3aca3519a20fdd877f6016_icgraph_org.svg" target="_base">
   <rect id="button" ry="5" rx="5" y="6" x="6" height="38" width="38"
        fill="#f2f5e9" fill-opacity="0.5" stroke="#606060" stroke-width="1.0"/>
   <path id="arrow"
     d="M 11.500037,31.436501 C 11.940474,20.09759 22.043105,11.32322 32.158766,21.979434 L 37.068811,17.246167 C 37.068811,17.246167 37.088388,32 37.088388,32 L 22.160133,31.978069 C 22.160133,31.978069 26.997745,27.140456 26.997745,27.140456 C 18.528582,18.264221 13.291696,25.230495 11.500037,31.436501 z"
     style="fill:#404040;"/>
  </a>
 </g>
</svg>

<style type='text/css'>
<![CDATA[
[data-mouse-over-selected='false'] { opacity: 0.7; }
[data-mouse-over-selected='true']  { opacity: 1.0; }
]]>
</style>
<script type="application/ecmascript"><![CDATA[
document.addEventListener('DOMContentLoaded', (event) => {
  highlightEdges();
  highlightAdjacentNodes();
});
]]></script>
</svg>
