<?xml version="1.0" encoding="UTF-8" standalone="no"?>
<!DOCTYPE svg PUBLIC "-//W3C//DTD SVG 1.1//EN"
 "http://www.w3.org/Graphics/SVG/1.1/DTD/svg11.dtd">
<!-- Generated by graphviz version 11.0.0 (20240428.1522)
 -->
<!-- Title: ConcurrentQueue&lt; T &gt; Pages: 1 -->
<svg width="174pt" height="268pt"
 viewBox="0.00 0.00 174.25 268.00" xmlns="http://www.w3.org/2000/svg" xmlns:xlink="http://www.w3.org/1999/xlink">
<g id="graph0" class="graph" transform="scale(1 1) rotate(0) translate(4 264)">
<title>ConcurrentQueue&lt; T &gt;</title>
<!-- Node1 -->
<g id="Node000001" class="node">
<title>Node1</title>
<g id="a_Node000001"><a xlink:title=" ">
<polygon fill="#999999" stroke="none" points="109,-260 0,-260 0,-160 109,-160 109,-260"/>
<text text-anchor="start" x="5" y="-246.5" font-family="Helvetica,sans-Serif" font-size="10.00">ConcurrentQueue&lt; T &gt;</text>
<text text-anchor="start" x="17.5" y="-230.5" font-family="Helvetica,sans-Serif" font-size="10.00">&#45;</text>
<text text-anchor="start" x="38" y="-230.5" font-family="Helvetica,sans-Serif" font-size="10.00">cond_var_</text>
<text text-anchor="start" x="17.5" y="-214.5" font-family="Helvetica,sans-Serif" font-size="10.00">&#45;</text>
<text text-anchor="start" x="38" y="-214.5" font-family="Helvetica,sans-Serif" font-size="10.00">mutex_</text>
<text text-anchor="start" x="17.5" y="-198.5" font-family="Helvetica,sans-Serif" font-size="10.00">&#45;</text>
<text text-anchor="start" x="38" y="-198.5" font-family="Helvetica,sans-Serif" font-size="10.00">queue_</text>
<text text-anchor="start" x="16" y="-182.5" font-family="Helvetica,sans-Serif" font-size="10.00">+</text>
<text text-anchor="start" x="38" y="-182.5" font-family="Helvetica,sans-Serif" font-size="10.00">pop()</text>
<text text-anchor="start" x="16" y="-166.5" font-family="Helvetica,sans-Serif" font-size="10.00">+</text>
<text text-anchor="start" x="38" y="-166.5" font-family="Helvetica,sans-Serif" font-size="10.00">push()</text>
<polygon fill="#666666" stroke="#666666" points="0,-242 0,-242 109,-242 109,-242 0,-242"/>
<polygon fill="#666666" stroke="#666666" points="0,-194 0,-194 36,-194 36,-194 0,-194"/>
<polygon fill="#666666" stroke="#666666" points="36,-194 36,-194 109,-194 109,-194 36,-194"/>
<polygon fill="none" stroke="#666666" points="0,-160 0,-260 109,-260 109,-160 0,-160"/>
</a>
</g>
</g>
<!-- Node2 -->
<g id="Node000002" class="node">
<title>Node2</title>
<g id="a_Node000002"><a xlink:href="class_concurrent_queue.html" target="_top" xlink:title=" ">
<polygon fill="white" stroke="none" points="108.5,-112 0.5,-112 0.5,0 108.5,0 108.5,-112"/>
<text text-anchor="start" x="5.38" y="-98.5" font-family="Helvetica,sans-Serif" font-size="10.00">ConcurrentQueue&lt; std</text>
<text text-anchor="start" x="11.38" y="-86.5" font-family="Helvetica,sans-Serif" font-size="10.00">::function&lt; void()&gt; &gt;</text>
<text text-anchor="start" x="17.5" y="-70.5" font-family="Helvetica,sans-Serif" font-size="10.00">&#45;</text>
<text text-anchor="start" x="37.5" y="-70.5" font-family="Helvetica,sans-Serif" font-size="10.00">cond_var_</text>
<text text-anchor="start" x="17.5" y="-54.5" font-family="Helvetica,sans-Serif" font-size="10.00">&#45;</text>
<text text-anchor="start" x="37.5" y="-54.5" font-family="Helvetica,sans-Serif" font-size="10.00">mutex_</text>
<text text-anchor="start" x="17.5" y="-38.5" font-family="Helvetica,sans-Serif" font-size="10.00">&#45;</text>
<text text-anchor="start" x="37.5" y="-38.5" font-family="Helvetica,sans-Serif" font-size="10.00">queue_</text>
<text text-anchor="start" x="16" y="-22.5" font-family="Helvetica,sans-Serif" font-size="10.00">+</text>
<text text-anchor="start" x="37.5" y="-22.5" font-family="Helvetica,sans-Serif" font-size="10.00">pop()</text>
<text text-anchor="start" x="16" y="-6.5" font-family="Helvetica,sans-Serif" font-size="10.00">+</text>
<text text-anchor="start" x="37.5" y="-6.5" font-family="Helvetica,sans-Serif" font-size="10.00">push()</text>
<polygon fill="#666666" stroke="#666666" points="0.5,-82 0.5,-82 108.5,-82 108.5,-82 0.5,-82"/>
<polygon fill="#666666" stroke="#666666" points="0.5,-34 0.5,-34 35.5,-34 35.5,-34 0.5,-34"/>
<polygon fill="#666666" stroke="#666666" points="35.5,-34 35.5,-34 108.5,-34 108.5,-34 35.5,-34"/>
<polygon fill="none" stroke="#666666" points="0.5,0 0.5,-112 108.5,-112 108.5,0 0.5,0"/>
</a>
</g>
</g>
<!-- Node1&#45;&gt;Node2 -->
<g id="edge1_Node000001_Node000002" class="edge">
<title>Node1&#45;&gt;Node2</title>
<g id="a_edge1_Node000001_Node000002"><a xlink:title=" ">
<path fill="none" stroke="orange" d="M54.5,-148.65C54.5,-136.52 54.5,-123.84 54.5,-111.9"/>
<polygon fill="orange" stroke="orange" points="51,-148.56 54.5,-158.56 58,-148.56 51,-148.56"/>
</a>
</g>
<text text-anchor="middle" x="110.38" y="-132.5" font-family="Helvetica,sans-Serif" font-size="10.00" fill="grey"> &lt; std::function&lt; void()&gt; &gt;</text>
</g>
</g>
</svg>
