<?xml version="1.0" encoding="UTF-8" standalone="no"?>
<!DOCTYPE svg PUBLIC "-//W3C//DTD SVG 1.1//EN"
 "http://www.w3.org/Graphics/SVG/1.1/DTD/svg11.dtd">
<!-- Generated by graphviz version 11.0.0 (20240428.1522)
 -->
<!-- Title: GLESC::Math::VectorMixedAlgorithms::areCollinear Pages: 1 -->
<svg width="828pt" height="140pt"
 viewBox="0.00 0.00 828.25 140.00" xmlns="http://www.w3.org/2000/svg" xmlns:xlink="http://www.w3.org/1999/xlink">
<g id="graph0" class="graph" transform="scale(1 1) rotate(0) translate(4 136)">
<title>GLESC::Math::VectorMixedAlgorithms::areCollinear</title>
<!-- Node1 -->
<g id="Node000001" class="node">
<title>Node1</title>
<g id="a_Node000001"><a xlink:title="Checks if points are collinear.">
<polygon fill="#999999" stroke="#666666" points="137.5,-82 0,-82 0,-50 137.5,-50 137.5,-82"/>
<text text-anchor="start" x="8" y="-68.5" font-family="Helvetica,sans-Serif" font-size="10.00">GLESC::Math::VectorMixed</text>
<text text-anchor="middle" x="68.75" y="-56.5" font-family="Helvetica,sans-Serif" font-size="10.00">Algorithms::areCollinear</text>
</a>
</g>
</g>
<!-- Node2 -->
<g id="Node000002" class="node">
<title>Node2</title>
<g id="a_Node000002"><a xlink:href="class_g_l_e_s_c_1_1_math_1_1_vector_algorithms.html#ab041da9d339dfe80b80c6f0bdf5dbfd4" target="_top" xlink:title="Computes the cross product of two vectors.">
<polygon fill="white" stroke="#666666" points="331.25,-132 173.5,-132 173.5,-100 331.25,-100 331.25,-132"/>
<text text-anchor="start" x="181.5" y="-118.5" font-family="Helvetica,sans-Serif" font-size="10.00">GLESC::Math::VectorAlgorithms</text>
<text text-anchor="middle" x="252.38" y="-106.5" font-family="Helvetica,sans-Serif" font-size="10.00">::crossProduct</text>
</a>
</g>
</g>
<!-- Node1&#45;&gt;Node2 -->
<g id="edge1_Node000001_Node000002" class="edge">
<title>Node1&#45;&gt;Node2</title>
<g id="a_edge1_Node000001_Node000002"><a xlink:title=" ">
<path fill="none" stroke="#63b8ff" d="M129.47,-82.44C145.84,-86.95 163.74,-91.88 180.66,-96.53"/>
<polygon fill="#63b8ff" stroke="#63b8ff" points="179.59,-99.87 190.16,-99.15 181.45,-93.12 179.59,-99.87"/>
</a>
</g>
</g>
<!-- Node3 -->
<g id="Node000003" class="node">
<title>Node3</title>
<g id="a_Node000003"><a xlink:href="class_g_l_e_s_c_1_1_math_1_1_vector_algorithms.html#a679d94d73e405dc11ea9140e71f4ef4f" target="_top" xlink:title="Checks if a vector is zero.">
<polygon fill="white" stroke="#666666" points="331.25,-82 173.5,-82 173.5,-50 331.25,-50 331.25,-82"/>
<text text-anchor="start" x="181.5" y="-68.5" font-family="Helvetica,sans-Serif" font-size="10.00">GLESC::Math::VectorAlgorithms</text>
<text text-anchor="middle" x="252.38" y="-56.5" font-family="Helvetica,sans-Serif" font-size="10.00">::isZero</text>
</a>
</g>
</g>
<!-- Node1&#45;&gt;Node3 -->
<g id="edge2_Node000001_Node000003" class="edge">
<title>Node1&#45;&gt;Node3</title>
<g id="a_edge2_Node000001_Node000003"><a xlink:title=" ">
<path fill="none" stroke="#63b8ff" d="M137.9,-66C145.7,-66 153.73,-66 161.76,-66"/>
<polygon fill="#63b8ff" stroke="#63b8ff" points="161.56,-69.5 171.56,-66 161.56,-62.5 161.56,-69.5"/>
</a>
</g>
</g>
<!-- Node8 -->
<g id="Node000008" class="node">
<title>Node8</title>
<g id="a_Node000008"><a xlink:href="class_g_l_e_s_c_1_1_math_1_1_vector_algorithms.html#a3d7793a7054aae76fe23e92368659e0b" target="_top" xlink:title="Subtracts two vectors.">
<polygon fill="white" stroke="#666666" points="331.25,-32 173.5,-32 173.5,0 331.25,0 331.25,-32"/>
<text text-anchor="start" x="181.5" y="-18.5" font-family="Helvetica,sans-Serif" font-size="10.00">GLESC::Math::VectorAlgorithms</text>
<text text-anchor="middle" x="252.38" y="-6.5" font-family="Helvetica,sans-Serif" font-size="10.00">::vectorSub</text>
</a>
</g>
</g>
<!-- Node1&#45;&gt;Node8 -->
<g id="edge7_Node000001_Node000008" class="edge">
<title>Node1&#45;&gt;Node8</title>
<g id="a_edge7_Node000001_Node000008"><a xlink:title=" ">
<path fill="none" stroke="#63b8ff" d="M129.47,-49.56C145.84,-45.05 163.74,-40.12 180.66,-35.47"/>
<polygon fill="#63b8ff" stroke="#63b8ff" points="181.45,-38.88 190.16,-32.85 179.59,-32.13 181.45,-38.88"/>
</a>
</g>
</g>
<!-- Node4 -->
<g id="Node000004" class="node">
<title>Node4</title>
<g id="a_Node000004"><a xlink:href="class_g_l_e_s_c_1_1_math_1_1_vector_algorithms.html#a3249cf40f6140efca533d2f041f909d3" target="_top" xlink:title="Equality operator for vectors.">
<polygon fill="white" stroke="#666666" points="541.5,-98 367.25,-98 367.25,-78 541.5,-78 541.5,-98"/>
<text text-anchor="middle" x="454.38" y="-84.5" font-family="Helvetica,sans-Serif" font-size="10.00">GLESC::Math::VectorAlgorithms::eq</text>
</a>
</g>
</g>
<!-- Node3&#45;&gt;Node4 -->
<g id="edge3_Node000003_Node000004" class="edge">
<title>Node3&#45;&gt;Node4</title>
<g id="a_edge3_Node000003_Node000004"><a xlink:title=" ">
<path fill="none" stroke="#63b8ff" d="M331.56,-74.6C339.45,-75.47 347.54,-76.36 355.6,-77.24"/>
<polygon fill="#63b8ff" stroke="#63b8ff" points="355.14,-80.72 365.46,-78.33 355.91,-73.76 355.14,-80.72"/>
</a>
</g>
</g>
<!-- Node7 -->
<g id="Node000007" class="node">
<title>Node7</title>
<g id="a_Node000007"><a xlink:href="class_g_l_e_s_c_1_1_math_1_1_vector_algorithms.html#a2f0bed018a4d5856d507a85de181de62" target="_top" xlink:title=" ">
<polygon fill="white" stroke="#666666" points="533.25,-60 375.5,-60 375.5,-28 533.25,-28 533.25,-60"/>
<text text-anchor="start" x="383.5" y="-46.5" font-family="Helvetica,sans-Serif" font-size="10.00">GLESC::Math::VectorAlgorithms</text>
<text text-anchor="middle" x="454.38" y="-34.5" font-family="Helvetica,sans-Serif" font-size="10.00">::vectorFill</text>
</a>
</g>
</g>
<!-- Node3&#45;&gt;Node7 -->
<g id="edge6_Node000003_Node000007" class="edge">
<title>Node3&#45;&gt;Node7</title>
<g id="a_edge6_Node000003_Node000007"><a xlink:title=" ">
<path fill="none" stroke="#63b8ff" d="M331.56,-57.4C342.21,-56.23 353.21,-55.02 364.04,-53.83"/>
<polygon fill="#63b8ff" stroke="#63b8ff" points="364.18,-57.33 373.74,-52.76 363.42,-50.37 364.18,-57.33"/>
</a>
</g>
</g>
<!-- Node5 -->
<g id="Node000005" class="node">
<title>Node5</title>
<g id="a_Node000005"><a xlink:href="namespace_g_l_e_s_c_1_1_math.html#aee25910dbba06d09d9df14d03933ace1" target="_top" xlink:title="Compares two values for equality.">
<polygon fill="white" stroke="#666666" points="670.75,-98 577.5,-98 577.5,-78 670.75,-78 670.75,-98"/>
<text text-anchor="middle" x="624.12" y="-84.5" font-family="Helvetica,sans-Serif" font-size="10.00">GLESC::Math::eq</text>
</a>
</g>
</g>
<!-- Node4&#45;&gt;Node5 -->
<g id="edge4_Node000004_Node000005" class="edge">
<title>Node4&#45;&gt;Node5</title>
<g id="a_edge4_Node000004_Node000005"><a xlink:title=" ">
<path fill="none" stroke="#63b8ff" d="M541.71,-88C549.81,-88 557.88,-88 565.62,-88"/>
<polygon fill="#63b8ff" stroke="#63b8ff" points="565.56,-91.5 575.56,-88 565.56,-84.5 565.56,-91.5"/>
</a>
</g>
</g>
<!-- Node6 -->
<g id="Node000006" class="node">
<title>Node6</title>
<g id="a_Node000006"><a xlink:href="namespace_g_l_e_s_c_1_1_math.html#acd429163efe906cd22916cc75ccb2421" target="_top" xlink:title="Epsilon getter with precision of a given template type.">
<polygon fill="white" stroke="#666666" points="820.25,-98 706.75,-98 706.75,-78 820.25,-78 820.25,-98"/>
<text text-anchor="middle" x="763.5" y="-84.5" font-family="Helvetica,sans-Serif" font-size="10.00">GLESC::Math::epsilon</text>
</a>
</g>
</g>
<!-- Node5&#45;&gt;Node6 -->
<g id="edge5_Node000005_Node000006" class="edge">
<title>Node5&#45;&gt;Node6</title>
<g id="a_edge5_Node000005_Node000006"><a xlink:title=" ">
<path fill="none" stroke="#63b8ff" d="M670.87,-88C678.61,-88 686.8,-88 694.96,-88"/>
<polygon fill="#63b8ff" stroke="#63b8ff" points="694.93,-91.5 704.93,-88 694.93,-84.5 694.93,-91.5"/>
</a>
</g>
</g>
</g>
</svg>
