<?xml version="1.0" encoding="UTF-8" standalone="no"?>
<!DOCTYPE svg PUBLIC "-//W3C//DTD SVG 1.1//EN"
 "http://www.w3.org/Graphics/SVG/1.1/DTD/svg11.dtd">
<!-- Generated by graphviz version 11.0.0 (20240428.1522)
 -->
<!-- Title: FPSAverager Pages: 1 -->
<svg width="181pt" height="408pt"
 viewBox="0.00 0.00 180.50 408.00" xmlns="http://www.w3.org/2000/svg" xmlns:xlink="http://www.w3.org/1999/xlink">
<g id="graph0" class="graph" transform="scale(1 1) rotate(0) translate(4 404)">
<title>FPSAverager</title>
<!-- Node1 -->
<g id="Node000001" class="node">
<title>Node1</title>
<g id="a_Node000001"><a xlink:title=" ">
<polygon fill="#999999" stroke="none" points="118.5,-100 31.5,-100 31.5,0 118.5,0 118.5,-100"/>
<text text-anchor="start" x="46.5" y="-86.5" font-family="Helvetica,sans-Serif" font-size="10.00">FPSAverager</text>
<text text-anchor="start" x="73.5" y="-70.5" font-family="Helvetica,sans-Serif" font-size="10.00"> </text>
<text text-anchor="start" x="35.5" y="-54.5" font-family="Helvetica,sans-Serif" font-size="10.00">+</text>
<text text-anchor="start" x="45.5" y="-54.5" font-family="Helvetica,sans-Serif" font-size="10.00">FPSAverager()</text>
<text text-anchor="start" x="35.5" y="-38.5" font-family="Helvetica,sans-Serif" font-size="10.00">+</text>
<text text-anchor="start" x="45.5" y="-38.5" font-family="Helvetica,sans-Serif" font-size="10.00">~FPSAverager()</text>
<text text-anchor="start" x="35.5" y="-22.5" font-family="Helvetica,sans-Serif" font-size="10.00">+</text>
<text text-anchor="start" x="45.5" y="-22.5" font-family="Helvetica,sans-Serif" font-size="10.00">addFrame()</text>
<text text-anchor="start" x="35.5" y="-6.5" font-family="Helvetica,sans-Serif" font-size="10.00">+</text>
<text text-anchor="start" x="45.5" y="-6.5" font-family="Helvetica,sans-Serif" font-size="10.00">getAverage()</text>
<polygon fill="#666666" stroke="#666666" points="31.5,-82 31.5,-82 118.5,-82 118.5,-82 31.5,-82"/>
<polygon fill="#666666" stroke="#666666" points="31.5,-66 31.5,-66 118.5,-66 118.5,-66 31.5,-66"/>
<polygon fill="none" stroke="#666666" points="31.5,0 31.5,-100 118.5,-100 118.5,0 31.5,0"/>
</a>
</g>
</g>
<!-- Node2 -->
<g id="Node000002" class="node">
<title>Node2</title>
<g id="a_Node000002"><a xlink:title=" ">
<polygon fill="white" stroke="none" points="150,-200 0,-200 0,-148 150,-148 150,-200"/>
<text text-anchor="start" x="4.88" y="-186.5" font-family="Helvetica,sans-Serif" font-size="10.00">std::deque&lt; FPSFloatingPoint &gt;</text>
<text text-anchor="start" x="27" y="-170.5" font-family="Helvetica,sans-Serif" font-size="10.00">+</text>
<text text-anchor="start" x="60" y="-170.5" font-family="Helvetica,sans-Serif" font-size="10.00">elements</text>
<text text-anchor="start" x="73.5" y="-154.5" font-family="Helvetica,sans-Serif" font-size="10.00"> </text>
<polygon fill="#666666" stroke="#666666" points="0,-182 0,-182 150,-182 150,-182 0,-182"/>
<polygon fill="#666666" stroke="#666666" points="0,-166 0,-166 58,-166 58,-166 0,-166"/>
<polygon fill="#666666" stroke="#666666" points="58,-166 58,-166 150,-166 150,-166 58,-166"/>
<polygon fill="none" stroke="#666666" points="0,-148 0,-200 150,-200 150,-148 0,-148"/>
</a>
</g>
</g>
<!-- Node2&#45;&gt;Node1 -->
<g id="edge1_Node000001_Node000002" class="edge">
<title>Node2&#45;&gt;Node1</title>
<g id="a_edge1_Node000001_Node000002"><a xlink:title=" ">
<path fill="none" stroke="#63b8ff" d="M75,-148.02C75,-137.67 75,-125.17 75,-112.63"/>
<polygon fill="none" stroke="#63b8ff" points="75,-112.54 71,-106.54 75,-100.54 79,-106.54 75,-112.54"/>
</a>
</g>
<text text-anchor="middle" x="92.62" y="-120.5" font-family="Helvetica,sans-Serif" font-size="10.00" fill="grey"> &#45;frames</text>
</g>
<!-- Node3 -->
<g id="Node000003" class="node">
<title>Node3</title>
<g id="a_Node000003"><a xlink:title=" ">
<polygon fill="white" stroke="none" points="114.5,-300 35.5,-300 35.5,-248 114.5,-248 114.5,-300"/>
<text text-anchor="start" x="40.5" y="-286.5" font-family="Helvetica,sans-Serif" font-size="10.00">std::deque&lt; T &gt;</text>
<text text-anchor="start" x="73.5" y="-270.5" font-family="Helvetica,sans-Serif" font-size="10.00"> </text>
<text text-anchor="start" x="73.5" y="-254.5" font-family="Helvetica,sans-Serif" font-size="10.00"> </text>
<polygon fill="#666666" stroke="#666666" points="35.5,-282 35.5,-282 114.5,-282 114.5,-282 35.5,-282"/>
<polygon fill="#666666" stroke="#666666" points="35.5,-266 35.5,-266 114.5,-266 114.5,-266 35.5,-266"/>
<polygon fill="none" stroke="#666666" points="35.5,-248 35.5,-300 114.5,-300 114.5,-248 35.5,-248"/>
</a>
</g>
</g>
<!-- Node3&#45;&gt;Node2 -->
<g id="edge2_Node000002_Node000003" class="edge">
<title>Node3&#45;&gt;Node2</title>
<g id="a_edge2_Node000002_Node000003"><a xlink:title=" ">
<path fill="none" stroke="orange" d="M75,-236.74C75,-224.49 75,-211.1 75,-199.94"/>
<polygon fill="orange" stroke="orange" points="71.5,-236.5 75,-246.5 78.5,-236.5 71.5,-236.5"/>
</a>
</g>
<text text-anchor="middle" x="123.75" y="-220.5" font-family="Helvetica,sans-Serif" font-size="10.00" fill="grey"> &lt; FPSFloatingPoint &gt;</text>
</g>
<!-- Node4 -->
<g id="Node000004" class="node">
<title>Node4</title>
<g id="a_Node000004"><a xlink:title=" ">
<polygon fill="white" stroke="none" points="82.5,-400 67.5,-400 67.5,-348 82.5,-348 82.5,-400"/>
<text text-anchor="start" x="72.38" y="-386.5" font-family="Helvetica,sans-Serif" font-size="10.00">T</text>
<text text-anchor="start" x="73.5" y="-370.5" font-family="Helvetica,sans-Serif" font-size="10.00"> </text>
<text text-anchor="start" x="73.5" y="-354.5" font-family="Helvetica,sans-Serif" font-size="10.00"> </text>
<polygon fill="#666666" stroke="#666666" points="67.5,-382 67.5,-382 82.5,-382 82.5,-382 67.5,-382"/>
<polygon fill="#666666" stroke="#666666" points="67.5,-366 67.5,-366 82.5,-366 82.5,-366 67.5,-366"/>
<polygon fill="none" stroke="#666666" points="67.5,-348 67.5,-400 82.5,-400 82.5,-348 67.5,-348"/>
</a>
</g>
</g>
<!-- Node4&#45;&gt;Node3 -->
<g id="edge3_Node000003_Node000004" class="edge">
<title>Node4&#45;&gt;Node3</title>
<g id="a_edge3_Node000003_Node000004"><a xlink:title=" ">
<path fill="none" stroke="#63b8ff" d="M75,-348.02C75,-337.3 75,-324.56 75,-312.73"/>
<polygon fill="none" stroke="#63b8ff" points="75,-312.84 71,-306.84 75,-300.84 79,-306.84 75,-312.84"/>
</a>
</g>
<text text-anchor="middle" x="99.38" y="-320.5" font-family="Helvetica,sans-Serif" font-size="10.00" fill="grey"> +elements</text>
</g>
</g>
</svg>
