<?xml version="1.0" encoding="UTF-8" standalone="no"?>
<!DOCTYPE svg PUBLIC "-//W3C//DTD SVG 1.1//EN"
 "http://www.w3.org/Graphics/SVG/1.1/DTD/svg11.dtd">
<!-- Generated by graphviz version 11.0.0 (20240428.1522)
 -->
<!-- Title: GLESC::ECS::ComponentManager::isComponentRegistered Pages: 1 -->
<!--zoomable 542 -->

<svg id="main" version="1.1" xmlns="http://www.w3.org/2000/svg" xmlns:xlink="http://www.w3.org/1999/xlink" xml:space="preserve" onload="init(evt)">
<style type="text/css"><![CDATA[
.node, .edge {opacity: 0.7;}
.node.selected, .edge.selected {opacity: 1;}
.edge:hover path { stroke: red; }
.edge:hover polygon { stroke: red; fill: red; }
]]></style>

<defs>
  <circle id="rim" cx="0" cy="0" r="7"/>
  <circle id="rim2" cx="0" cy="0" r="3.5"/>
  <g id="zoomPlus">
    <use xlink:href="#rim" fill="#404040"><set attributeName="fill" to="#808080" begin="zoomplus.mouseover" end="zoomplus.mouseout"/></use>
    <path d="M-4,0h8M0,-4v8" fill="none" stroke="white" stroke-width="1.5" pointer-events="none"/>
  </g>
  <g id="zoomMin">
    <use xlink:href="#rim" fill="#404040"><set attributeName="fill" to="#808080" begin="zoomminus.mouseover" end="zoomminus.mouseout"/></use>
    <path d="M-4,0h8" fill="none" stroke="white" stroke-width="1.5" pointer-events="none"/>
  </g>
  <g id="arrowUp" transform="translate(30 24)">
    <use xlink:href="#rim"/>
    <path pointer-events="none" fill="none" stroke="white" stroke-width="1.5" d="M0,-3.0v7 M-2.5,-0.5L0,-3.0L2.5,-0.5"/>
  </g>
  <g id="arrowRight" transform="rotate(90) translate(36 -43)">
    <use xlink:href="#rim"/>
    <path pointer-events="none" fill="none" stroke="white" stroke-width="1.5" d="M0,-3.0v7 M-2.5,-0.5L0,-3.0L2.5,-0.5"/>
  </g>
  <g id="arrowDown" transform="rotate(180) translate(-30 -48)">
    <use xlink:href="#rim"/>
    <path pointer-events="none" fill="none" stroke="white" stroke-width="1.5" d="M0,-3.0v7 M-2.5,-0.5L0,-3.0L2.5,-0.5"/>
  </g>
  <g id="arrowLeft" transform="rotate(270) translate(-36 17)">
    <use xlink:href="#rim"/>
    <path pointer-events="none" fill="none" stroke="white" stroke-width="1.5" d="M0,-3.0v7 M-2.5,-0.5L0,-3.0L2.5,-0.5"/>
  </g>
  <g id="resetDef">
    <use xlink:href="#rim2" fill="#404040"><set attributeName="fill" to="#808080" begin="reset.mouseover" end="reset.mouseout"/></use>
  </g>
</defs>
<script type="application/ecmascript">
var viewWidth = 1503;
var viewHeight = 542;
var sectionId = 'dynsection-8';
</script>
<script type="application/ecmascript" xlink:href="svg.min.js"/>
<svg id="graph" class="graph">
<g id="viewport">
<title>GLESC::ECS::ComponentManager::isComponentRegistered</title>
<!-- Node1 -->
<g id="Node000001" class="node">
<title>Node1</title>
<g id="a_Node000001"><a xlink:title="Check if a component is registered.">
<polygon fill="#999999" stroke="#666666" points="1495.25,-101 1327,-101 1327,-69 1495.25,-69 1495.25,-101"/>
<text text-anchor="start" x="1335" y="-87.5" font-family="Helvetica,sans-Serif" font-size="10.00">GLESC::ECS::ComponentManager</text>
<text text-anchor="middle" x="1411.12" y="-75.5" font-family="Helvetica,sans-Serif" font-size="10.00">::isComponentRegistered</text>
</a>
</g>
</g>
<!-- Node2 -->
<g id="Node000002" class="node">
<title>Node2</title>
<g id="a_Node000002"><a xlink:href="class_g_l_e_s_c_1_1_e_c_s_1_1_component_manager.html#ab06d3e4aecbf882b3f75fa4943f561f2" target="_top" xlink:title="Get the name of a component by its ID.">
<polygon fill="white" stroke="#666666" points="1291,-223 1122.75,-223 1122.75,-191 1291,-191 1291,-223"/>
<text text-anchor="start" x="1130.75" y="-209.5" font-family="Helvetica,sans-Serif" font-size="10.00">GLESC::ECS::ComponentManager</text>
<text text-anchor="middle" x="1206.88" y="-197.5" font-family="Helvetica,sans-Serif" font-size="10.00">::getComponentName</text>
</a>
</g>
</g>
<!-- Node1&#45;&gt;Node2 -->
<g id="edge1_Node000001_Node000002" class="edge">
<title>Node1&#45;&gt;Node2</title>
<g id="a_edge1_Node000001_Node000002"><a xlink:title=" ">
<path fill="none" stroke="#63b8ff" d="M1373.23,-107.26C1333.33,-131.33 1270.67,-169.12 1235.04,-190.61"/>
<polygon fill="#63b8ff" stroke="#63b8ff" points="1374.8,-110.4 1381.55,-102.24 1371.18,-104.4 1374.8,-110.4"/>
</a>
</g>
</g>
<!-- Node26 -->
<g id="Node000026" class="node">
<title>Node26</title>
<g id="a_Node000026"><a xlink:href="class_g_l_e_s_c_1_1_e_c_s_1_1_e_c_s_coordinator.html#a5aa06f9e5c8d53dfaa2cce1616eec531" target="_top" xlink:title="Check if an entity has a component, checking it&#39;s signature.">
<polygon fill="white" stroke="#666666" points="1282.38,-76 1131.38,-76 1131.38,-44 1282.38,-44 1282.38,-76"/>
<text text-anchor="start" x="1139.38" y="-62.5" font-family="Helvetica,sans-Serif" font-size="10.00">GLESC::ECS::ECSCoordinator</text>
<text text-anchor="middle" x="1206.88" y="-50.5" font-family="Helvetica,sans-Serif" font-size="10.00">::hasComponent</text>
</a>
</g>
</g>
<!-- Node1&#45;&gt;Node26 -->
<g id="edge34_Node000001_Node000026" class="edge">
<title>Node1&#45;&gt;Node26</title>
<g id="a_edge34_Node000001_Node000026"><a xlink:title=" ">
<path fill="none" stroke="#63b8ff" d="M1315.34,-73.28C1304.38,-71.93 1293.33,-70.56 1282.7,-69.25"/>
<polygon fill="#63b8ff" stroke="#63b8ff" points="1314.84,-76.75 1325.19,-74.5 1315.7,-69.8 1314.84,-76.75"/>
</a>
</g>
</g>
<!-- Node3 -->
<g id="Node000003" class="node">
<title>Node3</title>
<g id="a_Node000003"><a xlink:href="class_g_l_e_s_c_1_1_e_c_s_1_1_component_manager.html#ac63a277ed5aed0640e808f20480d01a1" target="_top" xlink:title="Get the component of an entity by its ID.">
<polygon fill="white" stroke="#666666" points="1086.75,-283 918.5,-283 918.5,-251 1086.75,-251 1086.75,-283"/>
<text text-anchor="start" x="926.5" y="-269.5" font-family="Helvetica,sans-Serif" font-size="10.00">GLESC::ECS::ComponentManager</text>
<text text-anchor="middle" x="1002.62" y="-257.5" font-family="Helvetica,sans-Serif" font-size="10.00">::getComponent</text>
</a>
</g>
</g>
<!-- Node2&#45;&gt;Node3 -->
<g id="edge2_Node000002_Node000003" class="edge">
<title>Node2&#45;&gt;Node3</title>
<g id="a_edge2_Node000002_Node000003"><a xlink:title=" ">
<path fill="none" stroke="#63b8ff" d="M1139.42,-226.71C1113.4,-234.43 1083.88,-243.19 1059.03,-250.56"/>
<polygon fill="#63b8ff" stroke="#63b8ff" points="1140.3,-230.1 1148.89,-223.91 1138.31,-223.39 1140.3,-230.1"/>
</a>
</g>
</g>
<!-- Node4 -->
<g id="Node000004" class="node">
<title>Node4</title>
<g id="a_Node000004"><a xlink:href="class_g_l_e_s_c_1_1_e_c_s_1_1_e_c_s_coordinator.html#a70c1d7a354e40af5426372cb3daaaaf1" target="_top" xlink:title="Get the component of an entity by its Id.">
<polygon fill="white" stroke="#666666" points="882.5,-245 731.5,-245 731.5,-213 882.5,-213 882.5,-245"/>
<text text-anchor="start" x="739.5" y="-231.5" font-family="Helvetica,sans-Serif" font-size="10.00">GLESC::ECS::ECSCoordinator</text>
<text text-anchor="middle" x="807" y="-219.5" font-family="Helvetica,sans-Serif" font-size="10.00">::getComponent</text>
</a>
</g>
</g>
<!-- Node3&#45;&gt;Node4 -->
<g id="edge3_Node000003_Node000004" class="edge">
<title>Node3&#45;&gt;Node4</title>
<g id="a_edge3_Node000003_Node000004"><a xlink:title=" ">
<path fill="none" stroke="#63b8ff" d="M907.01,-248.43C898.86,-246.83 890.68,-245.23 882.71,-243.66"/>
<polygon fill="#63b8ff" stroke="#63b8ff" points="906.13,-251.83 916.62,-250.32 907.48,-244.96 906.13,-251.83"/>
</a>
</g>
</g>
<!-- Node20 -->
<g id="Node000020" class="node">
<title>Node20</title>
<g id="a_Node000020"><a xlink:href="class_g_l_e_s_c_1_1_e_c_s_1_1_e_c_s_coordinator.html#a6cd97a4b3b3617b8cef2e62493b59574" target="_top" xlink:title="Get the components of an entity.">
<polygon fill="white" stroke="#666666" points="882.5,-414 731.5,-414 731.5,-382 882.5,-382 882.5,-414"/>
<text text-anchor="start" x="739.5" y="-400.5" font-family="Helvetica,sans-Serif" font-size="10.00">GLESC::ECS::ECSCoordinator</text>
<text text-anchor="middle" x="807" y="-388.5" font-family="Helvetica,sans-Serif" font-size="10.00">::getComponents</text>
</a>
</g>
</g>
<!-- Node3&#45;&gt;Node20 -->
<g id="edge28_Node000003_Node000020" class="edge">
<title>Node3&#45;&gt;Node20</title>
<g id="a_edge28_Node000003_Node000020"><a xlink:title=" ">
<path fill="none" stroke="#63b8ff" d="M968.19,-289.62C929.41,-315.86 866.43,-358.47 832.13,-381.67"/>
<polygon fill="#63b8ff" stroke="#63b8ff" points="969.92,-292.68 976.24,-284.17 966,-286.88 969.92,-292.68"/>
</a>
</g>
</g>
<!-- Node24 -->
<g id="Node000024" class="node">
<title>Node24</title>
<g id="a_Node000024"><a xlink:href="class_g_l_e_s_c_1_1_e_c_s_1_1_e_c_s_coordinator.html#a9986f9753dd8fc73c69787f3723d44b8" target="_top" xlink:title="Print the status of the entity.">
<polygon fill="white" stroke="#666666" points="882.5,-320 731.5,-320 731.5,-288 882.5,-288 882.5,-320"/>
<text text-anchor="start" x="739.5" y="-306.5" font-family="Helvetica,sans-Serif" font-size="10.00">GLESC::ECS::ECSCoordinator</text>
<text text-anchor="middle" x="807" y="-294.5" font-family="Helvetica,sans-Serif" font-size="10.00">::printEntity</text>
</a>
</g>
</g>
<!-- Node3&#45;&gt;Node24 -->
<g id="edge32_Node000003_Node000024" class="edge">
<title>Node3&#45;&gt;Node24</title>
<g id="a_edge32_Node000003_Node000024"><a xlink:title=" ">
<path fill="none" stroke="#63b8ff" d="M907.01,-285.08C898.86,-286.64 890.68,-288.2 882.71,-289.72"/>
<polygon fill="#63b8ff" stroke="#63b8ff" points="907.45,-288.56 916.62,-283.24 906.14,-281.68 907.45,-288.56"/>
</a>
</g>
</g>
<!-- Node5 -->
<g id="Node000005" class="node">
<title>Node5</title>
<g id="a_Node000005"><a xlink:href="class_g_l_e_s_c_1_1_e_c_s_1_1_entity.html#a14143b00be0701d787f043955c449e22" target="_top" xlink:title="Returns a reference to the component.">
<polygon fill="white" stroke="#666666" points="673.38,-233 566.62,-233 566.62,-201 673.38,-201 673.38,-233"/>
<text text-anchor="start" x="574.62" y="-219.5" font-family="Helvetica,sans-Serif" font-size="10.00">GLESC::ECS::Entity</text>
<text text-anchor="middle" x="620" y="-207.5" font-family="Helvetica,sans-Serif" font-size="10.00">::getComponent</text>
</a>
</g>
</g>
<!-- Node4&#45;&gt;Node5 -->
<g id="edge4_Node000004_Node000005" class="edge">
<title>Node4&#45;&gt;Node5</title>
<g id="a_edge4_Node000004_Node000005"><a xlink:title=" ">
<path fill="none" stroke="#63b8ff" d="M719.66,-223.4C703.96,-222.38 688.03,-221.35 673.67,-220.42"/>
<polygon fill="#63b8ff" stroke="#63b8ff" points="719.3,-226.88 729.51,-224.04 719.76,-219.9 719.3,-226.88"/>
</a>
</g>
</g>
<!-- Node17 -->
<g id="Node000017" class="node">
<title>Node17</title>
<g id="a_Node000017"><a xlink:href="class_g_l_e_s_c_1_1_engine.html#ad2ff110d5a86c1cd60b541d65915ac48" target="_top" xlink:title="Processes the logic of the game Is called every frame, must be called at constant intervals of time a...">
<polygon fill="white" stroke="#666666" points="489.75,-20 369.5,-20 369.5,0 489.75,0 489.75,-20"/>
<text text-anchor="middle" x="429.62" y="-6.5" font-family="Helvetica,sans-Serif" font-size="10.00">GLESC::Engine::update</text>
</a>
</g>
</g>
<!-- Node4&#45;&gt;Node17 -->
<g id="edge27_Node000004_Node000017" class="edge">
<title>Node4&#45;&gt;Node17</title>
<g id="a_edge27_Node000004_Node000017"><a xlink:title=" ">
<path fill="none" stroke="#63b8ff" d="M759.35,-207.78C704.33,-181.38 611.85,-132.55 544.5,-74 525.17,-57.2 530.1,-42.77 508.5,-29 502.87,-25.41 496.61,-22.5 490.16,-20.13"/>
<polygon fill="#63b8ff" stroke="#63b8ff" points="757.6,-210.83 768.13,-211.96 760.6,-204.51 757.6,-210.83"/>
</a>
</g>
</g>
<!-- Node19 -->
<g id="Node000019" class="node">
<title>Node19</title>
<g id="a_Node000019"><a xlink:href="class_g_l_e_s_c_1_1_e_c_s_1_1_system.html#ac82c9a21b62935e81ade0e6b98b466d3" target="_top" xlink:title="Gets the component of an entity.">
<polygon fill="white" stroke="#666666" points="677.5,-283 562.5,-283 562.5,-251 677.5,-251 677.5,-283"/>
<text text-anchor="start" x="570.5" y="-269.5" font-family="Helvetica,sans-Serif" font-size="10.00">GLESC::ECS::System</text>
<text text-anchor="middle" x="620" y="-257.5" font-family="Helvetica,sans-Serif" font-size="10.00">::getComponent</text>
</a>
</g>
</g>
<!-- Node4&#45;&gt;Node19 -->
<g id="edge26_Node000004_Node000019" class="edge">
<title>Node4&#45;&gt;Node19</title>
<g id="a_edge26_Node000004_Node000019"><a xlink:title=" ">
<path fill="none" stroke="#63b8ff" d="M720.13,-246.64C705.8,-249.58 691.26,-252.57 677.9,-255.31"/>
<polygon fill="#63b8ff" stroke="#63b8ff" points="720.45,-250.15 729.54,-244.71 719.04,-243.29 720.45,-250.15"/>
</a>
</g>
</g>
<!-- Node6 -->
<g id="Node000006" class="node">
<title>Node6</title>
<g id="a_Node000006"><a xlink:href="class_g_l_e_s_c_1_1_engine.html#adb0bb222b1e702be0a95d55d8cfc915f" target="_top" xlink:title=" ">
<polygon fill="white" stroke="#666666" points="309.88,-396 161.88,-396 161.88,-364 309.88,-364 309.88,-396"/>
<text text-anchor="start" x="169.88" y="-382.5" font-family="Helvetica,sans-Serif" font-size="10.00">GLESC::Engine::createEngine</text>
<text text-anchor="middle" x="235.88" y="-370.5" font-family="Helvetica,sans-Serif" font-size="10.00">Entities</text>
</a>
</g>
</g>
<!-- Node5&#45;&gt;Node6 -->
<g id="edge5_Node000005_Node000006" class="edge">
<title>Node5&#45;&gt;Node6</title>
<g id="a_edge5_Node000005_Node000006"><a xlink:title=" ">
<path fill="none" stroke="#63b8ff" d="M556.32,-231.9C551.91,-234.71 547.88,-238.04 544.5,-242 482.12,-314.98 581.83,-393.03 508.5,-455 454.95,-500.26 417.91,-475.13 350.75,-455 312.65,-443.58 275.52,-414.85 254.49,-396.45"/>
<polygon fill="#63b8ff" stroke="#63b8ff" points="557.91,-235.02 565.13,-227.27 554.65,-228.83 557.91,-235.02"/>
</a>
</g>
</g>
<!-- Node8 -->
<g id="Node000008" class="node">
<title>Node8</title>
<g id="a_Node000008"><a xlink:href="class_default.html#a6e26da3ebf533b0f5d45266cd0ce9082" target="_top" xlink:title="Initializes the scene. Must be implemented by the derived class.">
<polygon fill="white" stroke="#666666" points="462,-396 397.25,-396 397.25,-376 462,-376 462,-396"/>
<text text-anchor="middle" x="429.62" y="-382.5" font-family="Helvetica,sans-Serif" font-size="10.00">Default::init</text>
</a>
</g>
</g>
<!-- Node5&#45;&gt;Node8 -->
<g id="edge7_Node000005_Node000008" class="edge">
<title>Node5&#45;&gt;Node8</title>
<g id="a_edge7_Node000005_Node000008"><a xlink:title=" ">
<path fill="none" stroke="#63b8ff" d="M556.38,-232.58C552.03,-235.24 547.99,-238.35 544.5,-242 504.52,-283.76 550.21,-326.97 508.5,-367 496.25,-378.76 477.99,-383.62 462.23,-385.5"/>
<polygon fill="#63b8ff" stroke="#63b8ff" points="557.7,-235.84 564.99,-228.15 554.49,-229.62 557.7,-235.84"/>
</a>
</g>
</g>
<!-- Node9 -->
<g id="Node000009" class="node">
<title>Node9</title>
<g id="a_Node000009"><a xlink:href="class_g_l_e_s_c_1_1_engine_camera.html#a97a3af009cfc6a81b42d4a61d43e36e2" target="_top" xlink:title="Moves the camera backwards.">
<polygon fill="white" stroke="#666666" points="489,-158 370.25,-158 370.25,-126 489,-126 489,-158"/>
<text text-anchor="start" x="378.25" y="-144.5" font-family="Helvetica,sans-Serif" font-size="10.00">GLESC::EngineCamera</text>
<text text-anchor="middle" x="429.62" y="-132.5" font-family="Helvetica,sans-Serif" font-size="10.00">::moveBackward</text>
</a>
</g>
</g>
<!-- Node5&#45;&gt;Node9 -->
<g id="edge8_Node000005_Node000009" class="edge">
<title>Node5&#45;&gt;Node9</title>
<g id="a_edge8_Node000005_Node000009"><a xlink:title=" ">
<path fill="none" stroke="#63b8ff" d="M575.18,-195.78C555.08,-186.41 530.82,-175.6 508.5,-167 500.81,-164.04 492.61,-161.14 484.53,-158.42"/>
<polygon fill="#63b8ff" stroke="#63b8ff" points="573.66,-198.93 584.2,-200.02 576.64,-192.6 573.66,-198.93"/>
</a>
</g>
</g>
<!-- Node10 -->
<g id="Node000010" class="node">
<title>Node10</title>
<g id="a_Node000010"><a xlink:href="class_g_l_e_s_c_1_1_engine_camera.html#a3f37b288117cbbf684843bf4b88acb72" target="_top" xlink:title="Prepares the camera entity with its components and it&#39;s initial values.">
<polygon fill="white" stroke="#666666" points="295.25,-258 176.5,-258 176.5,-226 295.25,-226 295.25,-258"/>
<text text-anchor="start" x="184.5" y="-244.5" font-family="Helvetica,sans-Serif" font-size="10.00">GLESC::EngineCamera</text>
<text text-anchor="middle" x="235.88" y="-232.5" font-family="Helvetica,sans-Serif" font-size="10.00">::setupCamera</text>
</a>
</g>
</g>
<!-- Node5&#45;&gt;Node10 -->
<g id="edge23_Node000005_Node000010" class="edge">
<title>Node5&#45;&gt;Node10</title>
<g id="a_edge23_Node000005_Node000010"><a xlink:title=" ">
<path fill="none" stroke="#63b8ff" d="M584.37,-194.28C571.28,-184.97 556.62,-173.66 544.5,-162 526.04,-144.24 531.58,-128.1 508.5,-117 445.31,-86.63 414.88,-88.67 350.75,-117 299.73,-139.54 261.72,-197.48 245.51,-225.85"/>
<polygon fill="#63b8ff" stroke="#63b8ff" points="582.12,-196.98 592.33,-199.81 586.11,-191.23 582.12,-196.98"/>
</a>
</g>
</g>
<!-- Node11 -->
<g id="Node000011" class="node">
<title>Node11</title>
<g id="a_Node000011"><a xlink:href="class_g_l_e_s_c_1_1_engine_camera.html#ab1754eb155a149e9ee93e62e9b1b2002" target="_top" xlink:title="Moves the camera downwards.">
<polygon fill="white" stroke="#666666" points="489,-70 370.25,-70 370.25,-38 489,-38 489,-70"/>
<text text-anchor="start" x="378.25" y="-56.5" font-family="Helvetica,sans-Serif" font-size="10.00">GLESC::EngineCamera</text>
<text text-anchor="middle" x="429.62" y="-44.5" font-family="Helvetica,sans-Serif" font-size="10.00">::moveDown</text>
</a>
</g>
</g>
<!-- Node5&#45;&gt;Node11 -->
<g id="edge11_Node000005_Node000011" class="edge">
<title>Node5&#45;&gt;Node11</title>
<g id="a_edge11_Node000005_Node000011"><a xlink:title=" ">
<path fill="none" stroke="#63b8ff" d="M580.58,-194.19C567.92,-185.32 554.53,-174.32 544.5,-162 520.38,-132.4 536.36,-110.11 508.5,-84 502.69,-78.55 495.78,-74.06 488.51,-70.36"/>
<polygon fill="#63b8ff" stroke="#63b8ff" points="578.54,-197.03 588.79,-199.7 582.44,-191.22 578.54,-197.03"/>
</a>
</g>
</g>
<!-- Node12 -->
<g id="Node000012" class="node">
<title>Node12</title>
<g id="a_Node000012"><a xlink:href="class_g_l_e_s_c_1_1_engine_camera.html#a335ed43ca73bdbc5527ea0ec49a00dd2" target="_top" xlink:title="Moves the camera forwards.">
<polygon fill="white" stroke="#666666" points="489,-446 370.25,-446 370.25,-414 489,-414 489,-446"/>
<text text-anchor="start" x="378.25" y="-432.5" font-family="Helvetica,sans-Serif" font-size="10.00">GLESC::EngineCamera</text>
<text text-anchor="middle" x="429.62" y="-420.5" font-family="Helvetica,sans-Serif" font-size="10.00">::moveForward</text>
</a>
</g>
</g>
<!-- Node5&#45;&gt;Node12 -->
<g id="edge13_Node000005_Node000012" class="edge">
<title>Node5&#45;&gt;Node12</title>
<g id="a_edge13_Node000005_Node000012"><a xlink:title=" ">
<path fill="none" stroke="#63b8ff" d="M556.33,-232.22C551.95,-234.96 547.93,-238.19 544.5,-242 494.9,-297.18 558.46,-350.15 508.5,-405 503.15,-410.88 496.41,-415.38 489.15,-418.83"/>
<polygon fill="#63b8ff" stroke="#63b8ff" points="557.79,-235.4 565.03,-227.67 554.54,-229.2 557.79,-235.4"/>
</a>
</g>
</g>
<!-- Node13 -->
<g id="Node000013" class="node">
<title>Node13</title>
<g id="a_Node000013"><a xlink:href="class_g_l_e_s_c_1_1_engine_camera.html#acd6cb2233c367b37d1888d8c6fa743db" target="_top" xlink:title="Moves the camera to the left.">
<polygon fill="white" stroke="#666666" points="489,-358 370.25,-358 370.25,-326 489,-326 489,-358"/>
<text text-anchor="start" x="378.25" y="-344.5" font-family="Helvetica,sans-Serif" font-size="10.00">GLESC::EngineCamera</text>
<text text-anchor="middle" x="429.62" y="-332.5" font-family="Helvetica,sans-Serif" font-size="10.00">::moveLeft</text>
</a>
</g>
</g>
<!-- Node5&#45;&gt;Node13 -->
<g id="edge15_Node000005_Node000013" class="edge">
<title>Node5&#45;&gt;Node13</title>
<g id="a_edge15_Node000005_Node000013"><a xlink:title=" ">
<path fill="none" stroke="#63b8ff" d="M556.25,-233.68C552.04,-236.09 548.07,-238.85 544.5,-242 516.79,-266.48 536.37,-292.7 508.5,-317 502.83,-321.95 496.17,-325.91 489.17,-329.1"/>
<polygon fill="#63b8ff" stroke="#63b8ff" points="557.64,-236.9 565.06,-229.33 554.54,-230.63 557.64,-236.9"/>
</a>
</g>
</g>
<!-- Node14 -->
<g id="Node000014" class="node">
<title>Node14</title>
<g id="a_Node000014"><a xlink:href="class_g_l_e_s_c_1_1_engine_camera.html#a26c75b09b36ddc554f1d8cabd314a9be" target="_top" xlink:title="Moves the camera to the right.">
<polygon fill="white" stroke="#666666" points="489,-308 370.25,-308 370.25,-276 489,-276 489,-308"/>
<text text-anchor="start" x="378.25" y="-294.5" font-family="Helvetica,sans-Serif" font-size="10.00">GLESC::EngineCamera</text>
<text text-anchor="middle" x="429.62" y="-282.5" font-family="Helvetica,sans-Serif" font-size="10.00">::moveRight</text>
</a>
</g>
</g>
<!-- Node5&#45;&gt;Node14 -->
<g id="edge17_Node000005_Node000014" class="edge">
<title>Node5&#45;&gt;Node14</title>
<g id="a_edge17_Node000005_Node000014"><a xlink:title=" ">
<path fill="none" stroke="#63b8ff" d="M555.78,-236.8C551.92,-238.44 548.13,-240.18 544.5,-242 527.09,-250.74 525.97,-258.37 508.5,-267 502.13,-270.14 495.28,-273.01 488.38,-275.6"/>
<polygon fill="#63b8ff" stroke="#63b8ff" points="556.75,-240.18 564.73,-233.22 554.15,-233.68 556.75,-240.18"/>
</a>
</g>
</g>
<!-- Node15 -->
<g id="Node000015" class="node">
<title>Node15</title>
<g id="a_Node000015"><a xlink:href="class_g_l_e_s_c_1_1_engine_camera.html#ad7633b5892a3e8d8490642726e3bb0a9" target="_top" xlink:title="Moves the camera upwards.">
<polygon fill="white" stroke="#666666" points="489,-258 370.25,-258 370.25,-226 489,-226 489,-258"/>
<text text-anchor="start" x="378.25" y="-244.5" font-family="Helvetica,sans-Serif" font-size="10.00">GLESC::EngineCamera</text>
<text text-anchor="middle" x="429.62" y="-232.5" font-family="Helvetica,sans-Serif" font-size="10.00">::moveUp</text>
</a>
</g>
</g>
<!-- Node5&#45;&gt;Node15 -->
<g id="edge19_Node000005_Node000015" class="edge">
<title>Node5&#45;&gt;Node15</title>
<g id="a_edge19_Node000005_Node000015"><a xlink:title=" ">
<path fill="none" stroke="#63b8ff" d="M555.05,-225.49C533.76,-228.31 510.17,-231.44 489.3,-234.21"/>
<polygon fill="#63b8ff" stroke="#63b8ff" points="555.32,-228.98 564.78,-224.2 554.4,-222.04 555.32,-228.98"/>
</a>
</g>
</g>
<!-- Node16 -->
<g id="Node000016" class="node">
<title>Node16</title>
<g id="a_Node000016"><a xlink:href="class_g_l_e_s_c_1_1_engine_camera.html#a63dae1933350d3e10798719c19db2870" target="_top" xlink:title="Rotates the camera based on the mouse movement.">
<polygon fill="white" stroke="#666666" points="489,-208 370.25,-208 370.25,-176 489,-176 489,-208"/>
<text text-anchor="start" x="378.25" y="-194.5" font-family="Helvetica,sans-Serif" font-size="10.00">GLESC::EngineCamera</text>
<text text-anchor="middle" x="429.62" y="-182.5" font-family="Helvetica,sans-Serif" font-size="10.00">::rotate</text>
</a>
</g>
</g>
<!-- Node5&#45;&gt;Node16 -->
<g id="edge21_Node000005_Node000016" class="edge">
<title>Node5&#45;&gt;Node16</title>
<g id="a_edge21_Node000005_Node000016"><a xlink:title=" ">
<path fill="none" stroke="#63b8ff" d="M555.05,-208.51C533.76,-205.69 510.17,-202.56 489.3,-199.79"/>
<polygon fill="#63b8ff" stroke="#63b8ff" points="554.4,-211.96 564.78,-209.8 555.32,-205.02 554.4,-211.96"/>
</a>
</g>
</g>
<!-- Node5&#45;&gt;Node17 -->
<g id="edge24_Node000005_Node000017" class="edge">
<title>Node5&#45;&gt;Node17</title>
<g id="a_edge24_Node000005_Node000017"><a xlink:title=" ">
<path fill="none" stroke="#63b8ff" d="M578.44,-194.45C565.97,-185.76 553.25,-174.8 544.5,-162 509.94,-111.44 552.34,-71.76 508.5,-29 503.22,-23.85 496.79,-20.02 489.91,-17.18"/>
<polygon fill="#63b8ff" stroke="#63b8ff" points="576.31,-197.24 586.59,-199.81 580.16,-191.39 576.31,-197.24"/>
</a>
</g>
</g>
<!-- Node7 -->
<g id="Node000007" class="node">
<title>Node7</title>
<g id="a_Node000007"><a xlink:href="class_g_l_e_s_c_1_1_engine.html#a93e1621f9daf326a7c45d3b2a4c826c1" target="_top" xlink:title="The constructor is private, the engine can only be created by the main function.">
<polygon fill="white" stroke="#666666" points="121,-321 0,-321 0,-301 121,-301 121,-321"/>
<text text-anchor="middle" x="60.5" y="-307.5" font-family="Helvetica,sans-Serif" font-size="10.00">GLESC::Engine::Engine</text>
</a>
</g>
</g>
<!-- Node6&#45;&gt;Node7 -->
<g id="edge6_Node000006_Node000007" class="edge">
<title>Node6&#45;&gt;Node7</title>
<g id="a_edge6_Node000006_Node000007"><a xlink:title=" ">
<path fill="none" stroke="#63b8ff" d="M183.43,-359.53C151.97,-347 113.03,-331.51 87.75,-321.45"/>
<polygon fill="#63b8ff" stroke="#63b8ff" points="181.8,-362.64 192.38,-363.09 184.38,-356.14 181.8,-362.64"/>
</a>
</g>
</g>
<!-- Node9&#45;&gt;Node10 -->
<g id="edge9_Node000009_Node000010" class="edge">
<title>Node9&#45;&gt;Node10</title>
<g id="a_edge9_Node000009_Node000010"><a xlink:title=" ">
<path fill="none" stroke="#63b8ff" d="M360.86,-162.5C357.4,-163.94 354.02,-165.44 350.75,-167 316.16,-183.56 279.75,-209.2 257.67,-225.79"/>
<polygon fill="#63b8ff" stroke="#63b8ff" points="361.9,-165.85 369.95,-158.95 359.36,-159.33 361.9,-165.85"/>
</a>
</g>
</g>
<!-- Node10&#45;&gt;Node7 -->
<g id="edge10_Node000010_Node000007" class="edge">
<title>Node10&#45;&gt;Node7</title>
<g id="a_edge10_Node000010_Node000007"><a xlink:title=" ">
<path fill="none" stroke="#63b8ff" d="M183.43,-262.47C151.97,-275 113.03,-290.49 87.75,-300.55"/>
<polygon fill="#63b8ff" stroke="#63b8ff" points="184.38,-265.86 192.38,-258.91 181.8,-259.36 184.38,-265.86"/>
</a>
</g>
</g>
<!-- Node11&#45;&gt;Node10 -->
<g id="edge12_Node000011_Node000010" class="edge">
<title>Node11&#45;&gt;Node10</title>
<g id="a_edge12_Node000011_Node000010"><a xlink:title=" ">
<path fill="none" stroke="#63b8ff" d="M363.57,-75.61C359.06,-78.14 354.73,-80.93 350.75,-84 298.81,-124.06 260.2,-194.14 244.54,-225.74"/>
<polygon fill="#63b8ff" stroke="#63b8ff" points="365,-78.82 372.33,-71.18 361.83,-72.57 365,-78.82"/>
</a>
</g>
</g>
<!-- Node12&#45;&gt;Node10 -->
<g id="edge14_Node000012_Node000010" class="edge">
<title>Node12&#45;&gt;Node10</title>
<g id="a_edge14_Node000012_Node000010"><a xlink:title=" ">
<path fill="none" stroke="#63b8ff" d="M359.7,-410.75C356.58,-409 353.57,-407.08 350.75,-405 347.18,-402.37 275.96,-298.93 248,-258.22"/>
<polygon fill="#63b8ff" stroke="#63b8ff" points="358.13,-413.88 368.64,-415.18 361.23,-407.61 358.13,-413.88"/>
</a>
</g>
</g>
<!-- Node13&#45;&gt;Node10 -->
<g id="edge16_Node000013_Node000010" class="edge">
<title>Node13&#45;&gt;Node10</title>
<g id="a_edge16_Node000013_Node000010"><a xlink:title=" ">
<path fill="none" stroke="#63b8ff" d="M360.86,-321.5C357.4,-320.06 354.02,-318.56 350.75,-317 316.16,-300.44 279.75,-274.8 257.67,-258.21"/>
<polygon fill="#63b8ff" stroke="#63b8ff" points="359.36,-324.67 369.95,-325.05 361.9,-318.15 359.36,-324.67"/>
</a>
</g>
</g>
<!-- Node14&#45;&gt;Node10 -->
<g id="edge18_Node000014_Node000010" class="edge">
<title>Node14&#45;&gt;Node10</title>
<g id="a_edge18_Node000014_Node000010"><a xlink:title=" ">
<path fill="none" stroke="#63b8ff" d="M358.8,-273.79C338.06,-268.38 315.56,-262.52 295.6,-257.31"/>
<polygon fill="#63b8ff" stroke="#63b8ff" points="357.77,-277.14 368.33,-276.28 359.53,-270.37 357.77,-277.14"/>
</a>
</g>
</g>
<!-- Node15&#45;&gt;Node10 -->
<g id="edge20_Node000015_Node000010" class="edge">
<title>Node15&#45;&gt;Node10</title>
<g id="a_edge20_Node000015_Node000010"><a xlink:title=" ">
<path fill="none" stroke="#63b8ff" d="M358.52,-242C337.85,-242 315.47,-242 295.6,-242"/>
<polygon fill="#63b8ff" stroke="#63b8ff" points="358.28,-245.5 368.28,-242 358.28,-238.5 358.28,-245.5"/>
</a>
</g>
</g>
<!-- Node16&#45;&gt;Node10 -->
<g id="edge22_Node000016_Node000010" class="edge">
<title>Node16&#45;&gt;Node10</title>
<g id="a_edge22_Node000016_Node000010"><a xlink:title=" ">
<path fill="none" stroke="#63b8ff" d="M358.8,-210.21C338.06,-215.62 315.56,-221.48 295.6,-226.69"/>
<polygon fill="#63b8ff" stroke="#63b8ff" points="359.53,-213.63 368.33,-207.72 357.77,-206.86 359.53,-213.63"/>
</a>
</g>
</g>
<!-- Node18 -->
<g id="Node000018" class="node">
<title>Node18</title>
<g id="a_Node000018"><a xlink:href="main_8cpp.html#a0ddf1224851353fc92bfbff6f499fa97" target="_top" xlink:title=" ">
<polygon fill="white" stroke="#666666" points="254.38,-20 217.38,-20 217.38,0 254.38,0 254.38,-20"/>
<text text-anchor="middle" x="235.88" y="-6.5" font-family="Helvetica,sans-Serif" font-size="10.00">main</text>
</a>
</g>
</g>
<!-- Node17&#45;&gt;Node18 -->
<g id="edge25_Node000017_Node000018" class="edge">
<title>Node17&#45;&gt;Node18</title>
<g id="a_edge25_Node000017_Node000018"><a xlink:title=" ">
<path fill="none" stroke="#63b8ff" d="M357.71,-10C320.68,-10 278.3,-10 254.86,-10"/>
<polygon fill="#63b8ff" stroke="#63b8ff" points="357.49,-13.5 367.49,-10 357.49,-6.5 357.49,-13.5"/>
</a>
</g>
</g>
<!-- Node21 -->
<g id="Node000021" class="node">
<title>Node21</title>
<g id="a_Node000021"><a xlink:href="class_g_l_e_s_c_1_1_e_c_s_1_1_system.html#a0f0beac61bee827158f9d8ed8b2ddaca" target="_top" xlink:title="Gets the components of an entity.">
<polygon fill="white" stroke="#666666" points="677.5,-458 562.5,-458 562.5,-426 677.5,-426 677.5,-458"/>
<text text-anchor="start" x="570.5" y="-444.5" font-family="Helvetica,sans-Serif" font-size="10.00">GLESC::ECS::System</text>
<text text-anchor="middle" x="620" y="-432.5" font-family="Helvetica,sans-Serif" font-size="10.00">::getComponents</text>
</a>
</g>
</g>
<!-- Node20&#45;&gt;Node21 -->
<g id="edge29_Node000020_Node000021" class="edge">
<title>Node20&#45;&gt;Node21</title>
<g id="a_edge29_Node000020_Node000021"><a xlink:title=" ">
<path fill="none" stroke="#63b8ff" d="M725.81,-417.07C709.71,-420.9 693.1,-424.85 677.99,-428.45"/>
<polygon fill="#63b8ff" stroke="#63b8ff" points="726.46,-420.52 735.38,-414.8 724.84,-413.71 726.46,-420.52"/>
</a>
</g>
</g>
<!-- Node22 -->
<g id="Node000022" class="node">
<title>Node22</title>
<g id="a_Node000022"><a xlink:href="class_g_l_e_s_c_1_1_e_c_s_1_1_debug_info_system.html#ab3dac8d716449db82bd6f95f55077d1c" target="_top" xlink:title=" ">
<polygon fill="white" stroke="#666666" points="508.5,-534 350.75,-534 350.75,-502 508.5,-502 508.5,-534"/>
<text text-anchor="start" x="358.75" y="-520.5" font-family="Helvetica,sans-Serif" font-size="10.00">GLESC::ECS::DebugInfoSystem</text>
<text text-anchor="middle" x="429.62" y="-508.5" font-family="Helvetica,sans-Serif" font-size="10.00">::setEntityData</text>
</a>
</g>
</g>
<!-- Node21&#45;&gt;Node22 -->
<g id="edge30_Node000021_Node000022" class="edge">
<title>Node21&#45;&gt;Node22</title>
<g id="a_edge30_Node000021_Node000022"><a xlink:title=" ">
<path fill="none" stroke="#63b8ff" d="M569.69,-462.86C550.62,-470.84 528.59,-479.95 508.5,-488 497.34,-492.47 485.23,-497.2 473.96,-501.54"/>
<polygon fill="#63b8ff" stroke="#63b8ff" points="570.97,-466.11 578.84,-459.02 568.27,-459.66 570.97,-466.11"/>
</a>
</g>
</g>
<!-- Node23 -->
<g id="Node000023" class="node">
<title>Node23</title>
<g id="a_Node000023"><a xlink:href="class_g_l_e_s_c_1_1_e_c_s_1_1_debug_info_system.html#af0f60d4a863a70a744d562649e26c394" target="_top" xlink:title="Updates the system.">
<polygon fill="white" stroke="#666666" points="314.75,-534 157,-534 157,-502 314.75,-502 314.75,-534"/>
<text text-anchor="start" x="165" y="-520.5" font-family="Helvetica,sans-Serif" font-size="10.00">GLESC::ECS::DebugInfoSystem</text>
<text text-anchor="middle" x="235.88" y="-508.5" font-family="Helvetica,sans-Serif" font-size="10.00">::update</text>
</a>
</g>
</g>
<!-- Node22&#45;&gt;Node23 -->
<g id="edge31_Node000022_Node000023" class="edge">
<title>Node22&#45;&gt;Node23</title>
<g id="a_edge31_Node000022_Node000023"><a xlink:title=" ">
<path fill="none" stroke="#63b8ff" d="M338.85,-518C330.95,-518 323,-518 315.2,-518"/>
<polygon fill="#63b8ff" stroke="#63b8ff" points="338.84,-521.5 348.84,-518 338.84,-514.5 338.84,-521.5"/>
</a>
</g>
</g>
<!-- Node25 -->
<g id="Node000025" class="node">
<title>Node25</title>
<g id="a_Node000025"><a xlink:href="class_g_l_e_s_c_1_1_e_c_s_1_1_e_c_s_coordinator.html#a511e3ef0ebeceb191a06db185e8fdc46" target="_top" xlink:title="Print the status of the ECS.">
<polygon fill="white" stroke="#666666" points="695.5,-333 544.5,-333 544.5,-301 695.5,-301 695.5,-333"/>
<text text-anchor="start" x="552.5" y="-319.5" font-family="Helvetica,sans-Serif" font-size="10.00">GLESC::ECS::ECSCoordinator</text>
<text text-anchor="middle" x="620" y="-307.5" font-family="Helvetica,sans-Serif" font-size="10.00">::printStatus</text>
</a>
</g>
</g>
<!-- Node24&#45;&gt;Node25 -->
<g id="edge33_Node000024_Node000025" class="edge">
<title>Node24&#45;&gt;Node25</title>
<g id="a_edge33_Node000024_Node000025"><a xlink:title=" ">
<path fill="none" stroke="#63b8ff" d="M719.76,-310.06C711.75,-310.62 703.68,-311.19 695.79,-311.74"/>
<polygon fill="#63b8ff" stroke="#63b8ff" points="719.78,-313.57 729.51,-309.37 719.29,-306.58 719.78,-313.57"/>
</a>
</g>
</g>
<!-- Node26&#45;&gt;Node17 -->
<g id="edge36_Node000026_Node000017" class="edge">
<title>Node26&#45;&gt;Node17</title>
<g id="a_edge36_Node000026_Node000017"><a xlink:title=" ">
<path fill="none" stroke="#63b8ff" d="M1120.08,-54.47C961.48,-44.24 626.2,-22.61 490.01,-13.83"/>
<polygon fill="#63b8ff" stroke="#63b8ff" points="1119.47,-57.93 1129.68,-55.09 1119.92,-50.95 1119.47,-57.93"/>
</a>
</g>
</g>
<!-- Node27 -->
<g id="Node000027" class="node">
<title>Node27</title>
<g id="a_Node000027"><a xlink:href="class_g_l_e_s_c_1_1_e_c_s_1_1_entity.html#a49f91266990cd9ae566c793684b0d447" target="_top" xlink:title="Checks if the entity has a component.">
<polygon fill="white" stroke="#666666" points="1056,-32 949.25,-32 949.25,0 1056,0 1056,-32"/>
<text text-anchor="start" x="957.25" y="-18.5" font-family="Helvetica,sans-Serif" font-size="10.00">GLESC::ECS::Entity</text>
<text text-anchor="middle" x="1002.62" y="-6.5" font-family="Helvetica,sans-Serif" font-size="10.00">::hasComponent</text>
</a>
</g>
</g>
<!-- Node26&#45;&gt;Node27 -->
<g id="edge35_Node000026_Node000027" class="edge">
<title>Node26&#45;&gt;Node27</title>
<g id="a_edge35_Node000026_Node000027"><a xlink:title=" ">
<path fill="none" stroke="#63b8ff" d="M1119.94,-41.3C1098.3,-36.6 1075.72,-31.69 1056.28,-27.45"/>
<polygon fill="#63b8ff" stroke="#63b8ff" points="1119.14,-44.71 1129.66,-43.42 1120.63,-37.87 1119.14,-44.71"/>
</a>
</g>
</g>
</g>
</svg>

<g id="navigator" transform="translate(0 0)" fill="#404254">
  <rect fill="#f2f5e9" fill-opacity="0.5" stroke="#606060" stroke-width=".5" x="0" y="0" width="60" height="60"/>
  <use id="zoomplus" xlink:href="#zoomPlus" x="17" y="9" onmousedown="handleZoom(evt,'in')"/>
  <use id="zoomminus" xlink:href="#zoomMin" x="42" y="9" onmousedown="handleZoom(evt,'out')"/>
  <use id="reset" xlink:href="#resetDef" x="30" y="36" onmousedown="handleReset()"/>
   <use id="arrowup" xlink:href="#arrowUp" x="0" y="0" onmousedown="handlePan(0,-1)"/>
  <use id="arrowright" xlink:href="#arrowRight" x="0" y="0" onmousedown="handlePan(1,0)"/>
  <use id="arrowdown" xlink:href="#arrowDown" x="0" y="0" onmousedown="handlePan(0,1)"/>
  <use id="arrowleft" xlink:href="#arrowLeft" x="0" y="0" onmousedown="handlePan(-1,0)"/>
</g>
<svg viewBox="0 0 15 15" width="100%" height="30px" preserveAspectRatio="xMaxYMin meet">
 <g id="arrow_out" transform="scale(0.3 0.3)">
  <a xlink:href="class_g_l_e_s_c_1_1_e_c_s_1_1_component_manager_af4b8c65d69d17052413005a7402bf116_icgraph_org.svg" target="_base">
   <rect id="button" ry="5" rx="5" y="6" x="6" height="38" width="38"
        fill="#f2f5e9" fill-opacity="0.5" stroke="#606060" stroke-width="1.0"/>
   <path id="arrow"
     d="M 11.500037,31.436501 C 11.940474,20.09759 22.043105,11.32322 32.158766,21.979434 L 37.068811,17.246167 C 37.068811,17.246167 37.088388,32 37.088388,32 L 22.160133,31.978069 C 22.160133,31.978069 26.997745,27.140456 26.997745,27.140456 C 18.528582,18.264221 13.291696,25.230495 11.500037,31.436501 z"
     style="fill:#404040;"/>
  </a>
 </g>
</svg>

<style type='text/css'>
<![CDATA[
[data-mouse-over-selected='false'] { opacity: 0.7; }
[data-mouse-over-selected='true']  { opacity: 1.0; }
]]>
</style>
<script type="application/ecmascript"><![CDATA[
document.addEventListener('DOMContentLoaded', (event) => {
  highlightEdges();
  highlightAdjacentNodes();
});
]]></script>
</svg>
