<?xml version="1.0" encoding="UTF-8" standalone="no"?>
<!DOCTYPE svg PUBLIC "-//W3C//DTD SVG 1.1//EN"
 "http://www.w3.org/Graphics/SVG/1.1/DTD/svg11.dtd">
<!-- Generated by graphviz version 11.0.0 (20240428.1522)
 -->
<!-- Title: GLESC::Stringer::contains Pages: 1 -->
<svg width="1172pt" height="104pt"
 viewBox="0.00 0.00 1172.25 104.00" xmlns="http://www.w3.org/2000/svg" xmlns:xlink="http://www.w3.org/1999/xlink">
<g id="graph0" class="graph" transform="scale(1 1) rotate(0) translate(4 100)">
<title>GLESC::Stringer::contains</title>
<!-- Node1 -->
<g id="Node000001" class="node">
<title>Node1</title>
<g id="a_Node000001"><a xlink:title="Checks if a string contains a substring.">
<polygon fill="#999999" stroke="#666666" points="1164.25,-58 1032.75,-58 1032.75,-38 1164.25,-38 1164.25,-58"/>
<text text-anchor="middle" x="1098.5" y="-44.5" font-family="Helvetica,sans-Serif" font-size="10.00">GLESC::Stringer::contains</text>
</a>
</g>
</g>
<!-- Node2 -->
<g id="Node000002" class="node">
<title>Node2</title>
<g id="a_Node000002"><a xlink:href="class_hud_look_and_feel.html#a6186621c1bacc784027bfc788baa41c1" target="_top" xlink:title=" ">
<polygon fill="white" stroke="#666666" points="996.75,-64 868.25,-64 868.25,-32 996.75,-32 996.75,-64"/>
<text text-anchor="start" x="876.25" y="-50.5" font-family="Helvetica,sans-Serif" font-size="10.00">HudLookAndFeel::validate</text>
<text text-anchor="middle" x="932.5" y="-38.5" font-family="Helvetica,sans-Serif" font-size="10.00">FontName</text>
</a>
</g>
</g>
<!-- Node1&#45;&gt;Node2 -->
<g id="edge1_Node000001_Node000002" class="edge">
<title>Node1&#45;&gt;Node2</title>
<g id="a_edge1_Node000001_Node000002"><a xlink:title=" ">
<path fill="none" stroke="#63b8ff" d="M1021.29,-48C1013.18,-48 1004.99,-48 997.04,-48"/>
<polygon fill="#63b8ff" stroke="#63b8ff" points="1021.17,-51.5 1031.17,-48 1021.17,-44.5 1021.17,-51.5"/>
</a>
</g>
</g>
<!-- Node3 -->
<g id="Node000003" class="node">
<title>Node3</title>
<g id="a_Node000003"><a xlink:href="class_hud_look_and_feel.html#a1466001b2e5e8963e55ff4be372c3e0e" target="_top" xlink:title="Adds a font from a file with a size.">
<polygon fill="white" stroke="#666666" points="832.25,-58 700.75,-58 700.75,-38 832.25,-38 832.25,-58"/>
<text text-anchor="middle" x="766.5" y="-44.5" font-family="Helvetica,sans-Serif" font-size="10.00">HudLookAndFeel::addFont</text>
</a>
</g>
</g>
<!-- Node2&#45;&gt;Node3 -->
<g id="edge2_Node000002_Node000003" class="edge">
<title>Node2&#45;&gt;Node3</title>
<g id="a_edge2_Node000002_Node000003"><a xlink:title=" ">
<path fill="none" stroke="#63b8ff" d="M856.79,-48C848.73,-48 840.57,-48 832.63,-48"/>
<polygon fill="#63b8ff" stroke="#63b8ff" points="856.58,-51.5 866.58,-48 856.58,-44.5 856.58,-51.5"/>
</a>
</g>
</g>
<!-- Node4 -->
<g id="Node000004" class="node">
<title>Node4</title>
<g id="a_Node000004"><a xlink:href="class_hud_look_and_feel.html#a815b718b209fe097df0cde4293dc39b8" target="_top" xlink:title=" ">
<polygon fill="white" stroke="#666666" points="649.75,-96 520.5,-96 520.5,-76 649.75,-76 649.75,-96"/>
<text text-anchor="middle" x="585.12" y="-82.5" font-family="Helvetica,sans-Serif" font-size="10.00">HudLookAndFeel::getFont</text>
</a>
</g>
</g>
<!-- Node2&#45;&gt;Node4 -->
<g id="edge8_Node000002_Node000004" class="edge">
<title>Node2&#45;&gt;Node4</title>
<g id="a_edge8_Node000002_Node000004"><a xlink:title=" ">
<path fill="none" stroke="#63b8ff" d="M856.71,-63.24C848.48,-64.65 840.2,-65.94 832.25,-67 770.66,-75.25 699.88,-80.25 650.08,-83.03"/>
<polygon fill="#63b8ff" stroke="#63b8ff" points="857.14,-66.72 866.38,-61.54 855.92,-59.83 857.14,-66.72"/>
</a>
</g>
</g>
<!-- Node8 -->
<g id="Node000008" class="node">
<title>Node8</title>
<g id="a_Node000008"><a xlink:href="class_hud_look_and_feel.html#a35c49a50988ddee5c65494d503b1ee0f" target="_top" xlink:title="Sets the default font.">
<polygon fill="white" stroke="#666666" points="664.75,-20 505.5,-20 505.5,0 664.75,0 664.75,-20"/>
<text text-anchor="middle" x="585.12" y="-6.5" font-family="Helvetica,sans-Serif" font-size="10.00">HudLookAndFeel::setDefaultFont</text>
</a>
</g>
</g>
<!-- Node2&#45;&gt;Node8 -->
<g id="edge9_Node000002_Node000008" class="edge">
<title>Node2&#45;&gt;Node8</title>
<g id="a_edge9_Node000002_Node000008"><a xlink:title=" ">
<path fill="none" stroke="#63b8ff" d="M856.71,-32.76C848.48,-31.35 840.2,-30.06 832.25,-29 776.6,-21.55 713.46,-16.75 665.06,-13.84"/>
<polygon fill="#63b8ff" stroke="#63b8ff" points="855.92,-36.17 866.38,-34.46 857.14,-29.28 855.92,-36.17"/>
</a>
</g>
</g>
<!-- Node3&#45;&gt;Node4 -->
<g id="edge3_Node000003_Node000004" class="edge">
<title>Node3&#45;&gt;Node4</title>
<g id="a_edge3_Node000003_Node000004"><a xlink:title=" ">
<path fill="none" stroke="#63b8ff" d="M704.83,-60.85C682.24,-65.64 656.9,-71.01 635.45,-75.55"/>
<polygon fill="#63b8ff" stroke="#63b8ff" points="705.47,-64.29 714.53,-58.8 704.02,-57.45 705.47,-64.29"/>
</a>
</g>
</g>
<!-- Node6 -->
<g id="Node000006" class="node">
<title>Node6</title>
<g id="a_Node000006"><a xlink:href="class_g_l_e_s_c_1_1_h_u_d_1_1_h_u_d_manager.html#a4ff8b120db6eecaaa5e619b1477f58ed" target="_top" xlink:title=" ">
<polygon fill="white" stroke="#666666" points="314,-64 175,-64 175,-32 314,-32 314,-64"/>
<text text-anchor="start" x="183" y="-50.5" font-family="Helvetica,sans-Serif" font-size="10.00">GLESC::HUD::HUDManager</text>
<text text-anchor="middle" x="244.5" y="-38.5" font-family="Helvetica,sans-Serif" font-size="10.00">::initImGUI</text>
</a>
</g>
</g>
<!-- Node3&#45;&gt;Node6 -->
<g id="edge7_Node000003_Node000006" class="edge">
<title>Node3&#45;&gt;Node6</title>
<g id="a_edge7_Node000003_Node000006"><a xlink:title=" ">
<path fill="none" stroke="#63b8ff" d="M689.09,-48C588.05,-48 411.47,-48 314.36,-48"/>
<polygon fill="#63b8ff" stroke="#63b8ff" points="688.92,-51.5 698.92,-48 688.92,-44.5 688.92,-51.5"/>
</a>
</g>
</g>
<!-- Node5 -->
<g id="Node000005" class="node">
<title>Node5</title>
<g id="a_Node000005"><a xlink:href="class_hud_look_and_feel.html#ae1d994a42a7915cfa11a72a664dabc79" target="_top" xlink:title="Applies the look and feel to ImGui.">
<polygon fill="white" stroke="#666666" points="469.5,-96 350,-96 350,-76 469.5,-76 469.5,-96"/>
<text text-anchor="middle" x="409.75" y="-82.5" font-family="Helvetica,sans-Serif" font-size="10.00">HudLookAndFeel::apply</text>
</a>
</g>
</g>
<!-- Node4&#45;&gt;Node5 -->
<g id="edge4_Node000004_Node000005" class="edge">
<title>Node4&#45;&gt;Node5</title>
<g id="a_edge4_Node000004_Node000005"><a xlink:title=" ">
<path fill="none" stroke="#63b8ff" d="M508.76,-86C495.78,-86 482.44,-86 469.96,-86"/>
<polygon fill="#63b8ff" stroke="#63b8ff" points="508.55,-89.5 518.55,-86 508.55,-82.5 508.55,-89.5"/>
</a>
</g>
</g>
<!-- Node5&#45;&gt;Node6 -->
<g id="edge5_Node000005_Node000006" class="edge">
<title>Node5&#45;&gt;Node6</title>
<g id="a_edge5_Node000005_Node000006"><a xlink:title=" ">
<path fill="none" stroke="#63b8ff" d="M352.64,-72.94C340.28,-70.06 327.06,-66.98 314.26,-64.01"/>
<polygon fill="#63b8ff" stroke="#63b8ff" points="351.7,-76.31 362.23,-75.17 353.29,-69.5 351.7,-76.31"/>
</a>
</g>
</g>
<!-- Node7 -->
<g id="Node000007" class="node">
<title>Node7</title>
<g id="a_Node000007"><a xlink:href="class_g_l_e_s_c_1_1_h_u_d_1_1_h_u_d_manager.html#a025f565a5346b1cfdd80ce5fd79f8046" target="_top" xlink:title="Constructor for the HUDManager.">
<polygon fill="white" stroke="#666666" points="139,-64 0,-64 0,-32 139,-32 139,-64"/>
<text text-anchor="start" x="8" y="-50.5" font-family="Helvetica,sans-Serif" font-size="10.00">GLESC::HUD::HUDManager</text>
<text text-anchor="middle" x="69.5" y="-38.5" font-family="Helvetica,sans-Serif" font-size="10.00">::HUDManager</text>
</a>
</g>
</g>
<!-- Node6&#45;&gt;Node7 -->
<g id="edge6_Node000006_Node000007" class="edge">
<title>Node6&#45;&gt;Node7</title>
<g id="a_edge6_Node000006_Node000007"><a xlink:title=" ">
<path fill="none" stroke="#63b8ff" d="M163.38,-48C155.38,-48 147.3,-48 139.42,-48"/>
<polygon fill="#63b8ff" stroke="#63b8ff" points="163.12,-51.5 173.12,-48 163.12,-44.5 163.12,-51.5"/>
</a>
</g>
</g>
<!-- Node8&#45;&gt;Node6 -->
<g id="edge10_Node000008_Node000006" class="edge">
<title>Node8&#45;&gt;Node6</title>
<g id="a_edge10_Node000008_Node000006"><a xlink:title=" ">
<path fill="none" stroke="#63b8ff" d="M493.79,-18.6C450.29,-22.91 397.4,-28.4 350,-34 338.46,-35.36 326.21,-36.91 314.32,-38.47"/>
<polygon fill="#63b8ff" stroke="#63b8ff" points="494.1,-22.09 503.71,-17.62 493.41,-15.12 494.1,-22.09"/>
</a>
</g>
</g>
</g>
</svg>
