<?xml version="1.0" encoding="UTF-8" standalone="no"?>
<!DOCTYPE svg PUBLIC "-//W3C//DTD SVG 1.1//EN"
 "http://www.w3.org/Graphics/SVG/1.1/DTD/svg11.dtd">
<!-- Generated by graphviz version 11.0.0 (20240428.1522)
 -->
<!-- Title: GLESC::Math::VectorAlgorithms::vectorFill Pages: 1 -->
<svg width="707pt" height="215pt"
 viewBox="0.00 0.00 706.50 215.00" xmlns="http://www.w3.org/2000/svg" xmlns:xlink="http://www.w3.org/1999/xlink">
<g id="graph0" class="graph" transform="scale(1 1) rotate(0) translate(4 211)">
<title>GLESC::Math::VectorAlgorithms::vectorFill</title>
<!-- Node1 -->
<g id="Node000001" class="node">
<title>Node1</title>
<g id="a_Node000001"><a xlink:title=" ">
<polygon fill="#999999" stroke="#666666" points="698.5,-132 540.75,-132 540.75,-100 698.5,-100 698.5,-132"/>
<text text-anchor="start" x="548.75" y="-118.5" font-family="Helvetica,sans-Serif" font-size="10.00">GLESC::Math::VectorAlgorithms</text>
<text text-anchor="middle" x="619.62" y="-106.5" font-family="Helvetica,sans-Serif" font-size="10.00">::vectorFill</text>
</a>
</g>
</g>
<!-- Node2 -->
<g id="Node000002" class="node">
<title>Node2</title>
<g id="a_Node000002"><a xlink:href="class_g_l_e_s_c_1_1_math_1_1_vector.html#a6dea2aa5b69bfb8fd6e66da3e8b285fa" target="_top" xlink:title="Move constructor, for vectors of different sizes.">
<polygon fill="white" stroke="#666666" points="481.5,-207 370.25,-207 370.25,-175 481.5,-175 481.5,-207"/>
<text text-anchor="start" x="378.25" y="-193.5" font-family="Helvetica,sans-Serif" font-size="10.00">GLESC::Math::Vector</text>
<text text-anchor="middle" x="425.88" y="-181.5" font-family="Helvetica,sans-Serif" font-size="10.00">::Vector</text>
</a>
</g>
</g>
<!-- Node1&#45;&gt;Node2 -->
<g id="edge1_Node000001_Node000002" class="edge">
<title>Node1&#45;&gt;Node2</title>
<g id="a_edge1_Node000001_Node000002"><a xlink:title=" ">
<path fill="none" stroke="#63b8ff" d="M573.22,-137.22C552.54,-146.55 527.62,-157.34 504.75,-166 497.05,-168.92 488.84,-171.8 480.75,-174.51"/>
<polygon fill="#63b8ff" stroke="#63b8ff" points="574.59,-140.44 582.24,-133.12 571.69,-134.07 574.59,-140.44"/>
</a>
</g>
</g>
<!-- Node3 -->
<g id="Node000003" class="node">
<title>Node3</title>
<g id="a_Node000003"><a xlink:href="class_g_l_e_s_c_1_1_math_1_1_vector.html#a5c439f9d29f27650b07e74d4c1bf7817" target="_top" xlink:title="Copy constructor.">
<polygon fill="white" stroke="#666666" points="481.5,-157 370.25,-157 370.25,-125 481.5,-125 481.5,-157"/>
<text text-anchor="start" x="378.25" y="-143.5" font-family="Helvetica,sans-Serif" font-size="10.00">GLESC::Math::Vector</text>
<text text-anchor="middle" x="425.88" y="-131.5" font-family="Helvetica,sans-Serif" font-size="10.00">::Vector</text>
</a>
</g>
</g>
<!-- Node1&#45;&gt;Node3 -->
<g id="edge2_Node000001_Node000003" class="edge">
<title>Node1&#45;&gt;Node3</title>
<g id="a_edge2_Node000001_Node000003"><a xlink:title=" ">
<path fill="none" stroke="#63b8ff" d="M529.2,-127.66C513,-129.77 496.56,-131.91 481.73,-133.85"/>
<polygon fill="#63b8ff" stroke="#63b8ff" points="529.39,-131.16 538.86,-126.4 528.49,-124.22 529.39,-131.16"/>
</a>
</g>
</g>
<!-- Node4 -->
<g id="Node000004" class="node">
<title>Node4</title>
<g id="a_Node000004"><a xlink:href="class_g_l_e_s_c_1_1_math_1_1_vector.html#a583e30244582617ad83b87397f220f03" target="_top" xlink:title="Fill constructor.">
<polygon fill="white" stroke="#666666" points="481.5,-107 370.25,-107 370.25,-75 481.5,-75 481.5,-107"/>
<text text-anchor="start" x="378.25" y="-93.5" font-family="Helvetica,sans-Serif" font-size="10.00">GLESC::Math::Vector</text>
<text text-anchor="middle" x="425.88" y="-81.5" font-family="Helvetica,sans-Serif" font-size="10.00">::Vector</text>
</a>
</g>
</g>
<!-- Node1&#45;&gt;Node4 -->
<g id="edge3_Node000001_Node000004" class="edge">
<title>Node1&#45;&gt;Node4</title>
<g id="a_edge3_Node000001_Node000004"><a xlink:title=" ">
<path fill="none" stroke="#63b8ff" d="M529.2,-104.34C513,-102.23 496.56,-100.09 481.73,-98.15"/>
<polygon fill="#63b8ff" stroke="#63b8ff" points="528.49,-107.78 538.86,-105.6 529.39,-100.84 528.49,-107.78"/>
</a>
</g>
</g>
<!-- Node5 -->
<g id="Node000005" class="node">
<title>Node5</title>
<g id="a_Node000005"><a xlink:href="class_g_l_e_s_c_1_1_math_1_1_vector_algorithms.html#a679d94d73e405dc11ea9140e71f4ef4f" target="_top" xlink:title="Checks if a vector is zero.">
<polygon fill="white" stroke="#666666" points="504.75,-57 347,-57 347,-25 504.75,-25 504.75,-57"/>
<text text-anchor="start" x="355" y="-43.5" font-family="Helvetica,sans-Serif" font-size="10.00">GLESC::Math::VectorAlgorithms</text>
<text text-anchor="middle" x="425.88" y="-31.5" font-family="Helvetica,sans-Serif" font-size="10.00">::isZero</text>
</a>
</g>
</g>
<!-- Node1&#45;&gt;Node5 -->
<g id="edge4_Node000001_Node000005" class="edge">
<title>Node1&#45;&gt;Node5</title>
<g id="a_edge4_Node000001_Node000005"><a xlink:title=" ">
<path fill="none" stroke="#63b8ff" d="M573.22,-94.78C552.54,-85.45 527.62,-74.66 504.75,-66 497.05,-63.08 488.84,-60.2 480.75,-57.49"/>
<polygon fill="#63b8ff" stroke="#63b8ff" points="571.69,-97.93 582.24,-98.88 574.59,-91.56 571.69,-97.93"/>
</a>
</g>
</g>
<!-- Node6 -->
<g id="Node000006" class="node">
<title>Node6</title>
<g id="a_Node000006"><a xlink:href="class_g_l_e_s_c_1_1_math_1_1_vector_mixed_algorithms.html#a017c78aceeac4cc6bacc66d88f3ba7b4" target="_top" xlink:title="Checks if points are collinear.">
<polygon fill="white" stroke="#666666" points="311,-82 173.5,-82 173.5,-50 311,-50 311,-82"/>
<text text-anchor="start" x="181.5" y="-68.5" font-family="Helvetica,sans-Serif" font-size="10.00">GLESC::Math::VectorMixed</text>
<text text-anchor="middle" x="242.25" y="-56.5" font-family="Helvetica,sans-Serif" font-size="10.00">Algorithms::areCollinear</text>
</a>
</g>
</g>
<!-- Node5&#45;&gt;Node6 -->
<g id="edge5_Node000005_Node000006" class="edge">
<title>Node5&#45;&gt;Node6</title>
<g id="a_edge5_Node000005_Node000006"><a xlink:title=" ">
<path fill="none" stroke="#63b8ff" d="M335.22,-53.34C327.19,-54.45 319.15,-55.55 311.35,-56.63"/>
<polygon fill="#63b8ff" stroke="#63b8ff" points="335.6,-56.82 345.03,-51.99 334.65,-49.89 335.6,-56.82"/>
</a>
</g>
</g>
<!-- Node10 -->
<g id="Node000010" class="node">
<title>Node10</title>
<g id="a_Node000010"><a xlink:href="class_g_l_e_s_c_1_1_math_1_1_vector.html#a2dbd64e2650d4925dded80a6ef8f3663" target="_top" xlink:title="Checks if the vector is a zero vector.">
<polygon fill="white" stroke="#666666" points="297.88,-32 186.62,-32 186.62,0 297.88,0 297.88,-32"/>
<text text-anchor="start" x="194.62" y="-18.5" font-family="Helvetica,sans-Serif" font-size="10.00">GLESC::Math::Vector</text>
<text text-anchor="middle" x="242.25" y="-6.5" font-family="Helvetica,sans-Serif" font-size="10.00">::isZero</text>
</a>
</g>
</g>
<!-- Node5&#45;&gt;Node10 -->
<g id="edge9_Node000005_Node000010" class="edge">
<title>Node5&#45;&gt;Node10</title>
<g id="a_edge9_Node000005_Node000010"><a xlink:title=" ">
<path fill="none" stroke="#63b8ff" d="M335.44,-28.69C322.79,-26.95 310.1,-25.2 298.36,-23.59"/>
<polygon fill="#63b8ff" stroke="#63b8ff" points="334.65,-32.11 345.03,-30.01 335.6,-25.18 334.65,-32.11"/>
</a>
</g>
</g>
<!-- Node7 -->
<g id="Node000007" class="node">
<title>Node7</title>
<g id="a_Node000007"><a xlink:href="class_g_l_e_s_c_1_1_math_1_1_plane.html#a503abb5ac4797527f02056f1223a0166" target="_top" xlink:title="Construct a new Plane object from three distinct points.">
<polygon fill="white" stroke="#666666" points="122.5,-132 15,-132 15,-100 122.5,-100 122.5,-132"/>
<text text-anchor="start" x="23" y="-118.5" font-family="Helvetica,sans-Serif" font-size="10.00">GLESC::Math::Plane</text>
<text text-anchor="middle" x="68.75" y="-106.5" font-family="Helvetica,sans-Serif" font-size="10.00">::Plane</text>
</a>
</g>
</g>
<!-- Node6&#45;&gt;Node7 -->
<g id="edge6_Node000006_Node000007" class="edge">
<title>Node6&#45;&gt;Node7</title>
<g id="a_edge6_Node000006_Node000007"><a xlink:title=" ">
<path fill="none" stroke="#63b8ff" d="M174.09,-85.58C157.08,-90.54 139.04,-95.8 122.83,-100.53"/>
<polygon fill="#63b8ff" stroke="#63b8ff" points="175.02,-88.95 183.64,-82.8 173.06,-82.23 175.02,-88.95"/>
</a>
</g>
</g>
<!-- Node8 -->
<g id="Node000008" class="node">
<title>Node8</title>
<g id="a_Node000008"><a xlink:href="class_g_l_e_s_c_1_1_math_1_1_vector_mixed_algorithms.html#af98aa7b91b091b447e76b467d60a7114" target="_top" xlink:title="Checks if points are collinear.">
<polygon fill="white" stroke="#666666" points="137.5,-82 0,-82 0,-50 137.5,-50 137.5,-82"/>
<text text-anchor="start" x="8" y="-68.5" font-family="Helvetica,sans-Serif" font-size="10.00">GLESC::Math::VectorMixed</text>
<text text-anchor="middle" x="68.75" y="-56.5" font-family="Helvetica,sans-Serif" font-size="10.00">Algorithms::areCollinear</text>
</a>
</g>
</g>
<!-- Node6&#45;&gt;Node8 -->
<g id="edge7_Node000006_Node000008" class="edge">
<title>Node6&#45;&gt;Node8</title>
<g id="a_edge7_Node000006_Node000008"><a xlink:title=" ">
<path fill="none" stroke="#63b8ff" d="M162.11,-66C154.02,-66 145.84,-66 137.88,-66"/>
<polygon fill="#63b8ff" stroke="#63b8ff" points="161.96,-69.5 171.96,-66 161.96,-62.5 161.96,-69.5"/>
</a>
</g>
</g>
<!-- Node9 -->
<g id="Node000009" class="node">
<title>Node9</title>
<g id="a_Node000009"><a xlink:href="class_g_l_e_s_c_1_1_math_1_1_vector.html#aa9d1c92dac095666f8eb521b1e5a541d" target="_top" xlink:title="Checks if the current vector is a scalar multiple of some vectors.">
<polygon fill="white" stroke="#666666" points="124.38,-32 13.12,-32 13.12,0 124.38,0 124.38,-32"/>
<text text-anchor="start" x="21.12" y="-18.5" font-family="Helvetica,sans-Serif" font-size="10.00">GLESC::Math::Vector</text>
<text text-anchor="middle" x="68.75" y="-6.5" font-family="Helvetica,sans-Serif" font-size="10.00">::isCollinear</text>
</a>
</g>
</g>
<!-- Node6&#45;&gt;Node9 -->
<g id="edge8_Node000006_Node000009" class="edge">
<title>Node6&#45;&gt;Node9</title>
<g id="a_edge8_Node000006_Node000009"><a xlink:title=" ">
<path fill="none" stroke="#63b8ff" d="M174.47,-46.53C158.05,-41.74 140.66,-36.67 124.86,-32.07"/>
<polygon fill="#63b8ff" stroke="#63b8ff" points="173.06,-49.77 183.64,-49.2 175.02,-43.05 173.06,-49.77"/>
</a>
</g>
</g>
</g>
</svg>
