<?xml version="1.0" encoding="UTF-8" standalone="no"?>
<!DOCTYPE svg PUBLIC "-//W3C//DTD SVG 1.1//EN"
 "http://www.w3.org/Graphics/SVG/1.1/DTD/svg11.dtd">
<!-- Generated by graphviz version 11.0.0 (20240428.1522)
 -->
<!-- Title: GLESC::Math::Vector::toString Pages: 1 -->
<!--zoomable 228 -->

<svg id="main" version="1.1" xmlns="http://www.w3.org/2000/svg" xmlns:xlink="http://www.w3.org/1999/xlink" xml:space="preserve" onload="init(evt)">
<style type="text/css"><![CDATA[
.node, .edge {opacity: 0.7;}
.node.selected, .edge.selected {opacity: 1;}
.edge:hover path { stroke: red; }
.edge:hover polygon { stroke: red; fill: red; }
]]></style>

<defs>
  <circle id="rim" cx="0" cy="0" r="7"/>
  <circle id="rim2" cx="0" cy="0" r="3.5"/>
  <g id="zoomPlus">
    <use xlink:href="#rim" fill="#404040"><set attributeName="fill" to="#808080" begin="zoomplus.mouseover" end="zoomplus.mouseout"/></use>
    <path d="M-4,0h8M0,-4v8" fill="none" stroke="white" stroke-width="1.5" pointer-events="none"/>
  </g>
  <g id="zoomMin">
    <use xlink:href="#rim" fill="#404040"><set attributeName="fill" to="#808080" begin="zoomminus.mouseover" end="zoomminus.mouseout"/></use>
    <path d="M-4,0h8" fill="none" stroke="white" stroke-width="1.5" pointer-events="none"/>
  </g>
  <g id="arrowUp" transform="translate(30 24)">
    <use xlink:href="#rim"/>
    <path pointer-events="none" fill="none" stroke="white" stroke-width="1.5" d="M0,-3.0v7 M-2.5,-0.5L0,-3.0L2.5,-0.5"/>
  </g>
  <g id="arrowRight" transform="rotate(90) translate(36 -43)">
    <use xlink:href="#rim"/>
    <path pointer-events="none" fill="none" stroke="white" stroke-width="1.5" d="M0,-3.0v7 M-2.5,-0.5L0,-3.0L2.5,-0.5"/>
  </g>
  <g id="arrowDown" transform="rotate(180) translate(-30 -48)">
    <use xlink:href="#rim"/>
    <path pointer-events="none" fill="none" stroke="white" stroke-width="1.5" d="M0,-3.0v7 M-2.5,-0.5L0,-3.0L2.5,-0.5"/>
  </g>
  <g id="arrowLeft" transform="rotate(270) translate(-36 17)">
    <use xlink:href="#rim"/>
    <path pointer-events="none" fill="none" stroke="white" stroke-width="1.5" d="M0,-3.0v7 M-2.5,-0.5L0,-3.0L2.5,-0.5"/>
  </g>
  <g id="resetDef">
    <use xlink:href="#rim2" fill="#404040"><set attributeName="fill" to="#808080" begin="reset.mouseover" end="reset.mouseout"/></use>
  </g>
</defs>
<script type="application/ecmascript">
var viewWidth = 511;
var viewHeight = 228;
var sectionId = 'dynsection-103';
</script>
<script type="application/ecmascript" xlink:href="svg.min.js"/>
<svg id="graph" class="graph">
<g id="viewport">
<title>GLESC::Math::Vector::toString</title>
<!-- Node1 -->
<g id="Node000001" class="node">
<title>Node1</title>
<g id="a_Node000001"><a xlink:title="Converts the vector to string.">
<polygon fill="#999999" stroke="#666666" points="503.25,-126 392,-126 392,-94 503.25,-94 503.25,-126"/>
<text text-anchor="start" x="400" y="-112.5" font-family="Helvetica,sans-Serif" font-size="10.00">GLESC::Math::Vector</text>
<text text-anchor="middle" x="447.62" y="-100.5" font-family="Helvetica,sans-Serif" font-size="10.00">::toString</text>
</a>
</g>
</g>
<!-- Node2 -->
<g id="Node000002" class="node">
<title>Node2</title>
<g id="a_Node000002"><a xlink:href="class_g_l_e_s_c_1_1_math_1_1_plane.html#a986a56fbdc892b57d09b6e2f85e30175" target="_top" xlink:title="Convert the plane to a string.">
<polygon fill="white" stroke="#666666" points="336.5,-220 229,-220 229,-188 336.5,-188 336.5,-220"/>
<text text-anchor="start" x="237" y="-206.5" font-family="Helvetica,sans-Serif" font-size="10.00">GLESC::Math::Plane</text>
<text text-anchor="middle" x="282.75" y="-194.5" font-family="Helvetica,sans-Serif" font-size="10.00">::toString</text>
</a>
</g>
</g>
<!-- Node1&#45;&gt;Node2 -->
<g id="edge1_Node000001_Node000002" class="edge">
<title>Node1&#45;&gt;Node2</title>
<g id="a_edge1_Node000001_Node000002"><a xlink:title=" ">
<path fill="none" stroke="#63b8ff" d="M420.29,-133.65C402.98,-148.25 379.3,-166.51 356,-179 349.92,-182.26 343.32,-185.23 336.68,-187.89"/>
<polygon fill="#63b8ff" stroke="#63b8ff" points="422.28,-136.56 427.58,-127.38 417.71,-131.25 422.28,-136.56"/>
</a>
</g>
</g>
<!-- Node3 -->
<g id="Node000003" class="node">
<title>Node3</title>
<g id="a_Node000003"><a xlink:href="class_g_l_e_s_c_1_1_render_1_1_base_vertex.html#a5e6412581541337a45c9f8fe99c6a9c5" target="_top" xlink:title=" ">
<polygon fill="white" stroke="#666666" points="354.12,-170 211.38,-170 211.38,-138 354.12,-138 354.12,-170"/>
<text text-anchor="start" x="219.38" y="-156.5" font-family="Helvetica,sans-Serif" font-size="10.00">GLESC::Render::BaseVertex</text>
<text text-anchor="middle" x="282.75" y="-144.5" font-family="Helvetica,sans-Serif" font-size="10.00">::toString</text>
</a>
</g>
</g>
<!-- Node1&#45;&gt;Node3 -->
<g id="edge2_Node000001_Node000003" class="edge">
<title>Node1&#45;&gt;Node3</title>
<g id="a_edge2_Node000001_Node000003"><a xlink:title=" ">
<path fill="none" stroke="#63b8ff" d="M381.08,-127.71C369.08,-130.95 356.6,-134.32 344.74,-137.52"/>
<polygon fill="#63b8ff" stroke="#63b8ff" points="381.73,-131.16 390.48,-125.17 379.91,-124.4 381.73,-131.16"/>
</a>
</g>
</g>
<!-- Node5 -->
<g id="Node000005" class="node">
<title>Node5</title>
<g id="a_Node000005"><a xlink:href="class_g_l_e_s_c_1_1_render_1_1_texture_vertex.html#a080b80430ee90d2ae970e7bb93ec2662" target="_top" xlink:title=" ">
<polygon fill="white" stroke="#666666" points="163,-132 10.5,-132 10.5,-100 163,-100 163,-132"/>
<text text-anchor="start" x="18.5" y="-118.5" font-family="Helvetica,sans-Serif" font-size="10.00">GLESC::Render::TextureVertex</text>
<text text-anchor="middle" x="86.75" y="-106.5" font-family="Helvetica,sans-Serif" font-size="10.00">::toString</text>
</a>
</g>
</g>
<!-- Node1&#45;&gt;Node5 -->
<g id="edge5_Node000001_Node000005" class="edge">
<title>Node1&#45;&gt;Node5</title>
<g id="a_edge5_Node000001_Node000005"><a xlink:title=" ">
<path fill="none" stroke="#63b8ff" d="M380.23,-111.11C318.78,-112.14 227.49,-113.66 163.28,-114.74"/>
<polygon fill="#63b8ff" stroke="#63b8ff" points="380.28,-114.61 390.22,-110.94 380.16,-107.61 380.28,-114.61"/>
</a>
</g>
</g>
<!-- Node6 -->
<g id="Node000006" class="node">
<title>Node6</title>
<g id="a_Node000006"><a xlink:href="class_g_l_e_s_c_1_1_physics_1_1_physics.html#a8ab4df7294cbaaa761c981e13188c369" target="_top" xlink:title=" ">
<polygon fill="white" stroke="#666666" points="348.5,-82 217,-82 217,-50 348.5,-50 348.5,-82"/>
<text text-anchor="start" x="225" y="-68.5" font-family="Helvetica,sans-Serif" font-size="10.00">GLESC::Physics::Physics</text>
<text text-anchor="middle" x="282.75" y="-56.5" font-family="Helvetica,sans-Serif" font-size="10.00">::toString</text>
</a>
</g>
</g>
<!-- Node1&#45;&gt;Node6 -->
<g id="edge6_Node000001_Node000006" class="edge">
<title>Node1&#45;&gt;Node6</title>
<g id="a_edge6_Node000001_Node000006"><a xlink:title=" ">
<path fill="none" stroke="#63b8ff" d="M381.08,-92.29C369.08,-89.05 356.6,-85.68 344.74,-82.48"/>
<polygon fill="#63b8ff" stroke="#63b8ff" points="379.91,-95.6 390.48,-94.83 381.73,-88.84 379.91,-95.6"/>
</a>
</g>
</g>
<!-- Node8 -->
<g id="Node000008" class="node">
<title>Node8</title>
<g id="a_Node000008"><a xlink:href="struct_g_l_e_s_c_1_1_transform_1_1_transform.html#ac19ef68ef16313ba172116178608106a" target="_top" xlink:title="Converts the transform to a string.">
<polygon fill="white" stroke="#666666" points="356,-32 209.5,-32 209.5,0 356,0 356,-32"/>
<text text-anchor="start" x="217.5" y="-18.5" font-family="Helvetica,sans-Serif" font-size="10.00">GLESC::Transform::Transform</text>
<text text-anchor="middle" x="282.75" y="-6.5" font-family="Helvetica,sans-Serif" font-size="10.00">::toString</text>
</a>
</g>
</g>
<!-- Node1&#45;&gt;Node8 -->
<g id="edge8_Node000001_Node000008" class="edge">
<title>Node1&#45;&gt;Node8</title>
<g id="a_edge8_Node000001_Node000008"><a xlink:title=" ">
<path fill="none" stroke="#63b8ff" d="M420.29,-86.35C402.98,-71.75 379.3,-53.49 356,-41 350.15,-37.87 343.83,-35 337.45,-32.42"/>
<polygon fill="#63b8ff" stroke="#63b8ff" points="417.71,-88.75 427.58,-92.62 422.28,-83.44 417.71,-88.75"/>
</a>
</g>
</g>
<!-- Node4 -->
<g id="Node000004" class="node">
<title>Node4</title>
<g id="a_Node000004"><a xlink:href="class_g_l_e_s_c_1_1_render_1_1_color_vertex.html#a4b1ab1a73feb263350743a0393de6059" target="_top" xlink:title=" ">
<polygon fill="white" stroke="#666666" points="158.12,-182 15.38,-182 15.38,-150 158.12,-150 158.12,-182"/>
<text text-anchor="start" x="23.38" y="-168.5" font-family="Helvetica,sans-Serif" font-size="10.00">GLESC::Render::ColorVertex</text>
<text text-anchor="middle" x="86.75" y="-156.5" font-family="Helvetica,sans-Serif" font-size="10.00">::toString</text>
</a>
</g>
</g>
<!-- Node3&#45;&gt;Node4 -->
<g id="edge3_Node000003_Node000004" class="edge">
<title>Node3&#45;&gt;Node4</title>
<g id="a_edge3_Node000003_Node000004"><a xlink:title=" ">
<path fill="none" stroke="#63b8ff" d="M199.52,-159.09C185.85,-159.93 171.77,-160.8 158.42,-161.63"/>
<polygon fill="#63b8ff" stroke="#63b8ff" points="199.61,-162.59 209.38,-158.48 199.18,-155.6 199.61,-162.59"/>
</a>
</g>
</g>
<!-- Node3&#45;&gt;Node5 -->
<g id="edge4_Node000003_Node000005" class="edge">
<title>Node3&#45;&gt;Node5</title>
<g id="a_edge4_Node000003_Node000005"><a xlink:title=" ">
<path fill="none" stroke="#63b8ff" d="M199.87,-137.96C187.75,-135.59 175.3,-133.15 163.32,-130.8"/>
<polygon fill="#63b8ff" stroke="#63b8ff" points="198.92,-141.34 209.4,-139.83 200.26,-134.47 198.92,-141.34"/>
</a>
</g>
</g>
<!-- Node7 -->
<g id="Node000007" class="node">
<title>Node7</title>
<g id="a_Node000007"><a xlink:href="struct_g_l_e_s_c_1_1_e_c_s_1_1_physics_component.html#a44ae3a68089118c5bc23acae2f8bdf4d" target="_top" xlink:title="Each component must have a toString function.">
<polygon fill="white" stroke="#666666" points="169.75,-82 3.75,-82 3.75,-50 169.75,-50 169.75,-82"/>
<text text-anchor="start" x="11.75" y="-68.5" font-family="Helvetica,sans-Serif" font-size="10.00">GLESC::ECS::PhysicsComponent</text>
<text text-anchor="middle" x="86.75" y="-56.5" font-family="Helvetica,sans-Serif" font-size="10.00">::toString</text>
</a>
</g>
</g>
<!-- Node6&#45;&gt;Node7 -->
<g id="edge7_Node000006_Node000007" class="edge">
<title>Node6&#45;&gt;Node7</title>
<g id="a_edge7_Node000006_Node000007"><a xlink:title=" ">
<path fill="none" stroke="#63b8ff" d="M205.2,-66C193.62,-66 181.63,-66 169.94,-66"/>
<polygon fill="#63b8ff" stroke="#63b8ff" points="205.1,-69.5 215.1,-66 205.1,-62.5 205.1,-69.5"/>
</a>
</g>
</g>
<!-- Node9 -->
<g id="Node000009" class="node">
<title>Node9</title>
<g id="a_Node000009"><a xlink:href="struct_g_l_e_s_c_1_1_e_c_s_1_1_transform_component.html#ae3380e6e7d607b026f9930550d847b0e" target="_top" xlink:title="Each component must have a toString function.">
<polygon fill="white" stroke="#666666" points="173.5,-32 0,-32 0,0 173.5,0 173.5,-32"/>
<text text-anchor="start" x="8" y="-18.5" font-family="Helvetica,sans-Serif" font-size="10.00">GLESC::ECS::TransformComponent</text>
<text text-anchor="middle" x="86.75" y="-6.5" font-family="Helvetica,sans-Serif" font-size="10.00">::toString</text>
</a>
</g>
</g>
<!-- Node8&#45;&gt;Node9 -->
<g id="edge9_Node000008_Node000009" class="edge">
<title>Node8&#45;&gt;Node9</title>
<g id="a_edge9_Node000008_Node000009"><a xlink:title=" ">
<path fill="none" stroke="#63b8ff" d="M197.77,-16C189.86,-16 181.84,-16 173.92,-16"/>
<polygon fill="#63b8ff" stroke="#63b8ff" points="197.72,-19.5 207.72,-16 197.72,-12.5 197.72,-19.5"/>
</a>
</g>
</g>
</g>
</svg>

<g id="navigator" transform="translate(0 0)" fill="#404254">
  <rect fill="#f2f5e9" fill-opacity="0.5" stroke="#606060" stroke-width=".5" x="0" y="0" width="60" height="60"/>
  <use id="zoomplus" xlink:href="#zoomPlus" x="17" y="9" onmousedown="handleZoom(evt,'in')"/>
  <use id="zoomminus" xlink:href="#zoomMin" x="42" y="9" onmousedown="handleZoom(evt,'out')"/>
  <use id="reset" xlink:href="#resetDef" x="30" y="36" onmousedown="handleReset()"/>
   <use id="arrowup" xlink:href="#arrowUp" x="0" y="0" onmousedown="handlePan(0,-1)"/>
  <use id="arrowright" xlink:href="#arrowRight" x="0" y="0" onmousedown="handlePan(1,0)"/>
  <use id="arrowdown" xlink:href="#arrowDown" x="0" y="0" onmousedown="handlePan(0,1)"/>
  <use id="arrowleft" xlink:href="#arrowLeft" x="0" y="0" onmousedown="handlePan(-1,0)"/>
</g>
<svg viewBox="0 0 15 15" width="100%" height="30px" preserveAspectRatio="xMaxYMin meet">
 <g id="arrow_out" transform="scale(0.3 0.3)">
  <a xlink:href="class_g_l_e_s_c_1_1_math_1_1_vector_a6a6098658d8dbebb1e3e73cd649074cc_icgraph_org.svg" target="_base">
   <rect id="button" ry="5" rx="5" y="6" x="6" height="38" width="38"
        fill="#f2f5e9" fill-opacity="0.5" stroke="#606060" stroke-width="1.0"/>
   <path id="arrow"
     d="M 11.500037,31.436501 C 11.940474,20.09759 22.043105,11.32322 32.158766,21.979434 L 37.068811,17.246167 C 37.068811,17.246167 37.088388,32 37.088388,32 L 22.160133,31.978069 C 22.160133,31.978069 26.997745,27.140456 26.997745,27.140456 C 18.528582,18.264221 13.291696,25.230495 11.500037,31.436501 z"
     style="fill:#404040;"/>
  </a>
 </g>
</svg>

<style type='text/css'>
<![CDATA[
[data-mouse-over-selected='false'] { opacity: 0.7; }
[data-mouse-over-selected='true']  { opacity: 1.0; }
]]>
</style>
<script type="application/ecmascript"><![CDATA[
document.addEventListener('DOMContentLoaded', (event) => {
  highlightEdges();
  highlightAdjacentNodes();
});
]]></script>
</svg>
