<?xml version="1.0" encoding="UTF-8" standalone="no"?>
<!DOCTYPE svg PUBLIC "-//W3C//DTD SVG 1.1//EN"
 "http://www.w3.org/Graphics/SVG/1.1/DTD/svg11.dtd">
<!-- Generated by graphviz version 11.0.0 (20240428.1522)
 -->
<!-- Title: GLESC::GAPI::ShaderLoader::getGLSLVersionString Pages: 1 -->
<svg width="513pt" height="40pt"
 viewBox="0.00 0.00 512.75 40.00" xmlns="http://www.w3.org/2000/svg" xmlns:xlink="http://www.w3.org/1999/xlink">
<g id="graph0" class="graph" transform="scale(1 1) rotate(0) translate(4 36)">
<title>GLESC::GAPI::ShaderLoader::getGLSLVersionString</title>
<!-- Node1 -->
<g id="Node000001" class="node">
<title>Node1</title>
<g id="a_Node000001"><a xlink:title="Gets the GLSL version string.">
<polygon fill="#999999" stroke="#666666" points="504.75,-32 360.5,-32 360.5,0 504.75,0 504.75,-32"/>
<text text-anchor="start" x="368.5" y="-18.5" font-family="Helvetica,sans-Serif" font-size="10.00">GLESC::GAPI::ShaderLoader</text>
<text text-anchor="middle" x="432.62" y="-6.5" font-family="Helvetica,sans-Serif" font-size="10.00">::getGLSLVersionString</text>
</a>
</g>
</g>
<!-- Node2 -->
<g id="Node000002" class="node">
<title>Node2</title>
<g id="a_Node000002"><a xlink:href="class_g_l_e_s_c_1_1_g_a_p_i_1_1_shader_loader.html#a8117811f44e6651fe0439052bf20880b" target="_top" xlink:title="Prepends the GLSL version to the shader code.">
<polygon fill="white" stroke="#666666" points="324.5,-32 180.25,-32 180.25,0 324.5,0 324.5,-32"/>
<text text-anchor="start" x="188.25" y="-18.5" font-family="Helvetica,sans-Serif" font-size="10.00">GLESC::GAPI::ShaderLoader</text>
<text text-anchor="middle" x="252.38" y="-6.5" font-family="Helvetica,sans-Serif" font-size="10.00">::prependGLSLVersion</text>
</a>
</g>
</g>
<!-- Node1&#45;&gt;Node2 -->
<g id="edge1_Node000001_Node000002" class="edge">
<title>Node1&#45;&gt;Node2</title>
<g id="a_edge1_Node000001_Node000002"><a xlink:title=" ">
<path fill="none" stroke="#63b8ff" d="M348.88,-16C340.86,-16 332.77,-16 324.87,-16"/>
<polygon fill="#63b8ff" stroke="#63b8ff" points="348.64,-19.5 358.64,-16 348.64,-12.5 348.64,-19.5"/>
</a>
</g>
</g>
<!-- Node3 -->
<g id="Node000003" class="node">
<title>Node3</title>
<g id="a_Node000003"><a xlink:href="class_g_l_e_s_c_1_1_g_a_p_i_1_1_shader_loader.html#ac3a92c01f0308fd40e0f356d8454d192" target="_top" xlink:title="Load the shader from the source code.">
<polygon fill="white" stroke="#666666" points="144.25,-32 0,-32 0,0 144.25,0 144.25,-32"/>
<text text-anchor="start" x="8" y="-18.5" font-family="Helvetica,sans-Serif" font-size="10.00">GLESC::GAPI::ShaderLoader</text>
<text text-anchor="middle" x="72.12" y="-6.5" font-family="Helvetica,sans-Serif" font-size="10.00">::loadShader</text>
</a>
</g>
</g>
<!-- Node2&#45;&gt;Node3 -->
<g id="edge2_Node000002_Node000003" class="edge">
<title>Node2&#45;&gt;Node3</title>
<g id="a_edge2_Node000002_Node000003"><a xlink:title=" ">
<path fill="none" stroke="#63b8ff" d="M168.63,-16C160.61,-16 152.52,-16 144.62,-16"/>
<polygon fill="#63b8ff" stroke="#63b8ff" points="168.39,-19.5 178.39,-16 168.39,-12.5 168.39,-19.5"/>
</a>
</g>
</g>
</g>
</svg>
