<?xml version="1.0" encoding="UTF-8" standalone="no"?>
<!DOCTYPE svg PUBLIC "-//W3C//DTD SVG 1.1//EN"
 "http://www.w3.org/Graphics/SVG/1.1/DTD/svg11.dtd">
<!-- Generated by graphviz version 11.0.0 (20240428.1522)
 -->
<!-- Title: GLESC::SoundLoader Pages: 1 -->
<!--zoomable 480 -->

<svg id="main" version="1.1" xmlns="http://www.w3.org/2000/svg" xmlns:xlink="http://www.w3.org/1999/xlink" xml:space="preserve" onload="init(evt)">
<style type="text/css"><![CDATA[
.node, .edge {opacity: 0.7;}
.node.selected, .edge.selected {opacity: 1;}
.edge:hover path { stroke: red; }
.edge:hover polygon { stroke: red; fill: red; }
]]></style>

<defs>
  <circle id="rim" cx="0" cy="0" r="7"/>
  <circle id="rim2" cx="0" cy="0" r="3.5"/>
  <g id="zoomPlus">
    <use xlink:href="#rim" fill="#404040"><set attributeName="fill" to="#808080" begin="zoomplus.mouseover" end="zoomplus.mouseout"/></use>
    <path d="M-4,0h8M0,-4v8" fill="none" stroke="white" stroke-width="1.5" pointer-events="none"/>
  </g>
  <g id="zoomMin">
    <use xlink:href="#rim" fill="#404040"><set attributeName="fill" to="#808080" begin="zoomminus.mouseover" end="zoomminus.mouseout"/></use>
    <path d="M-4,0h8" fill="none" stroke="white" stroke-width="1.5" pointer-events="none"/>
  </g>
  <g id="arrowUp" transform="translate(30 24)">
    <use xlink:href="#rim"/>
    <path pointer-events="none" fill="none" stroke="white" stroke-width="1.5" d="M0,-3.0v7 M-2.5,-0.5L0,-3.0L2.5,-0.5"/>
  </g>
  <g id="arrowRight" transform="rotate(90) translate(36 -43)">
    <use xlink:href="#rim"/>
    <path pointer-events="none" fill="none" stroke="white" stroke-width="1.5" d="M0,-3.0v7 M-2.5,-0.5L0,-3.0L2.5,-0.5"/>
  </g>
  <g id="arrowDown" transform="rotate(180) translate(-30 -48)">
    <use xlink:href="#rim"/>
    <path pointer-events="none" fill="none" stroke="white" stroke-width="1.5" d="M0,-3.0v7 M-2.5,-0.5L0,-3.0L2.5,-0.5"/>
  </g>
  <g id="arrowLeft" transform="rotate(270) translate(-36 17)">
    <use xlink:href="#rim"/>
    <path pointer-events="none" fill="none" stroke="white" stroke-width="1.5" d="M0,-3.0v7 M-2.5,-0.5L0,-3.0L2.5,-0.5"/>
  </g>
  <g id="resetDef">
    <use xlink:href="#rim2" fill="#404040"><set attributeName="fill" to="#808080" begin="reset.mouseover" end="reset.mouseout"/></use>
  </g>
</defs>
<script type="application/ecmascript">
var viewWidth = 281;
var viewHeight = 480;
var sectionId = 'dynsection-0';
</script>
<script type="application/ecmascript" xlink:href="svg.min.js"/>
<svg id="graph" class="graph">
<g id="viewport">
<title>GLESC::SoundLoader</title>
<!-- Node1 -->
<g id="Node000001" class="node">
<title>Node1</title>
<g id="a_Node000001"><a xlink:title="Class that loads and stores sounds and music.">
<polygon fill="#999999" stroke="none" points="180.5,-132 74.5,-132 74.5,0 180.5,0 180.5,-132"/>
<text text-anchor="start" x="79.5" y="-118.5" font-family="Helvetica,sans-Serif" font-size="10.00">GLESC::SoundLoader</text>
<text text-anchor="start" x="88.5" y="-102.5" font-family="Helvetica,sans-Serif" font-size="10.00">&#45;</text>
<text text-anchor="start" x="105.5" y="-102.5" font-family="Helvetica,sans-Serif" font-size="10.00">soundsPath</text>
<text text-anchor="start" x="88.5" y="-86.5" font-family="Helvetica,sans-Serif" font-size="10.00">&#45;</text>
<text text-anchor="start" x="105.5" y="-86.5" font-family="Helvetica,sans-Serif" font-size="10.00">cleanup()</text>
<text text-anchor="start" x="88.5" y="-70.5" font-family="Helvetica,sans-Serif" font-size="10.00">&#45;</text>
<text text-anchor="start" x="105.5" y="-70.5" font-family="Helvetica,sans-Serif" font-size="10.00">getMusic()</text>
<text text-anchor="start" x="88.5" y="-54.5" font-family="Helvetica,sans-Serif" font-size="10.00">&#45;</text>
<text text-anchor="start" x="105.5" y="-54.5" font-family="Helvetica,sans-Serif" font-size="10.00">getSound()</text>
<text text-anchor="start" x="88.5" y="-38.5" font-family="Helvetica,sans-Serif" font-size="10.00">&#45;</text>
<text text-anchor="start" x="105.5" y="-38.5" font-family="Helvetica,sans-Serif" font-size="10.00">loadMusic()</text>
<text text-anchor="start" x="88.5" y="-22.5" font-family="Helvetica,sans-Serif" font-size="10.00">&#45;</text>
<text text-anchor="start" x="105.5" y="-22.5" font-family="Helvetica,sans-Serif" font-size="10.00">loadSound()</text>
<text text-anchor="start" x="88.5" y="-6.5" font-family="Helvetica,sans-Serif" font-size="10.00">&#45;</text>
<text text-anchor="start" x="105.5" y="-6.5" font-family="Helvetica,sans-Serif" font-size="10.00">init()</text>
<polygon fill="#666666" stroke="#666666" points="74.5,-114 74.5,-114 180.5,-114 180.5,-114 74.5,-114"/>
<polygon fill="#666666" stroke="#666666" points="74.5,-98 74.5,-98 103.5,-98 103.5,-98 74.5,-98"/>
<polygon fill="#666666" stroke="#666666" points="103.5,-98 103.5,-98 180.5,-98 180.5,-98 103.5,-98"/>
<polygon fill="none" stroke="#666666" points="74.5,0 74.5,-132 180.5,-132 180.5,0 74.5,0"/>
</a>
</g>
</g>
<!-- Node2 -->
<g id="Node000002" class="node">
<title>Node2</title>
<g id="a_Node000002"><a xlink:title=" ">
<polygon fill="white" stroke="none" points="119,-260 0,-260 0,-180 119,-180 119,-260"/>
<text text-anchor="start" x="4.75" y="-246.5" font-family="Helvetica,sans-Serif" font-size="10.00">std::map&lt; Hasher::Hash,</text>
<text text-anchor="start" x="25.75" y="-234.5" font-family="Helvetica,sans-Serif" font-size="10.00"> Mix_Chunk * &gt;</text>
<text text-anchor="start" x="19.5" y="-218.5" font-family="Helvetica,sans-Serif" font-size="10.00">+</text>
<text text-anchor="start" x="45" y="-218.5" font-family="Helvetica,sans-Serif" font-size="10.00">elements</text>
<text text-anchor="start" x="19.5" y="-202.5" font-family="Helvetica,sans-Serif" font-size="10.00">+</text>
<text text-anchor="start" x="45" y="-202.5" font-family="Helvetica,sans-Serif" font-size="10.00">keys</text>
<text text-anchor="start" x="58" y="-186.5" font-family="Helvetica,sans-Serif" font-size="10.00"> </text>
<polygon fill="#666666" stroke="#666666" points="0,-230 0,-230 119,-230 119,-230 0,-230"/>
<polygon fill="#666666" stroke="#666666" points="0,-198 0,-198 43,-198 43,-198 0,-198"/>
<polygon fill="#666666" stroke="#666666" points="43,-198 43,-198 119,-198 119,-198 43,-198"/>
<polygon fill="none" stroke="#666666" points="0,-180 0,-260 119,-260 119,-180 0,-180"/>
</a>
</g>
</g>
<!-- Node2&#45;&gt;Node1 -->
<g id="edge1_Node000001_Node000002" class="edge">
<title>Node2&#45;&gt;Node1</title>
<g id="a_edge1_Node000001_Node000002"><a xlink:title=" ">
<path fill="none" stroke="#63b8ff" d="M76.84,-180.25C81.87,-169 87.54,-156.31 93.23,-143.6"/>
<polygon fill="none" stroke="#63b8ff" points="93.17,-143.73 91.97,-136.62 98.07,-132.78 99.27,-139.89 93.17,-143.73"/>
</a>
</g>
<text text-anchor="middle" x="108.25" y="-152.5" font-family="Helvetica,sans-Serif" font-size="10.00" fill="grey"> &#45;sounds</text>
</g>
<!-- Node3 -->
<g id="Node000003" class="node">
<title>Node3</title>
<g id="a_Node000003"><a xlink:title=" ">
<polygon fill="white" stroke="none" points="169.5,-372 85.5,-372 85.5,-320 169.5,-320 169.5,-372"/>
<text text-anchor="start" x="90.38" y="-358.5" font-family="Helvetica,sans-Serif" font-size="10.00">std::map&lt; K, T &gt;</text>
<text text-anchor="start" x="126" y="-342.5" font-family="Helvetica,sans-Serif" font-size="10.00"> </text>
<text text-anchor="start" x="126" y="-326.5" font-family="Helvetica,sans-Serif" font-size="10.00"> </text>
<polygon fill="#666666" stroke="#666666" points="85.5,-354 85.5,-354 169.5,-354 169.5,-354 85.5,-354"/>
<polygon fill="#666666" stroke="#666666" points="85.5,-338 85.5,-338 169.5,-338 169.5,-338 85.5,-338"/>
<polygon fill="none" stroke="#666666" points="85.5,-320 85.5,-372 169.5,-372 169.5,-320 85.5,-320"/>
</a>
</g>
</g>
<!-- Node3&#45;&gt;Node2 -->
<g id="edge2_Node000002_Node000003" class="edge">
<title>Node3&#45;&gt;Node2</title>
<g id="a_edge2_Node000002_Node000003"><a xlink:title=" ">
<path fill="none" stroke="orange" d="M82.86,-312.08C80.1,-308.9 77.6,-305.53 75.5,-302 67.94,-289.32 63.88,-273.73 61.71,-259.62"/>
<polygon fill="orange" stroke="orange" points="80.09,-314.26 89.57,-318.99 85.11,-309.38 80.09,-314.26"/>
</a>
</g>
<text text-anchor="start" x="75.5" y="-292.5" font-family="Helvetica,sans-Serif" font-size="10.00" fill="grey"> &lt; Hasher::Hash, Mix</text>
<text text-anchor="middle" x="122" y="-280.5" font-family="Helvetica,sans-Serif" font-size="10.00" fill="grey">_Chunk * &gt;</text>
</g>
<!-- Node6 -->
<g id="Node000006" class="node">
<title>Node6</title>
<g id="a_Node000006"><a xlink:title=" ">
<polygon fill="white" stroke="none" points="256,-260 137,-260 137,-180 256,-180 256,-260"/>
<text text-anchor="start" x="141.75" y="-246.5" font-family="Helvetica,sans-Serif" font-size="10.00">std::map&lt; Hasher::Hash,</text>
<text text-anchor="start" x="163.5" y="-234.5" font-family="Helvetica,sans-Serif" font-size="10.00"> Mix_Music * &gt;</text>
<text text-anchor="start" x="156.5" y="-218.5" font-family="Helvetica,sans-Serif" font-size="10.00">+</text>
<text text-anchor="start" x="182" y="-218.5" font-family="Helvetica,sans-Serif" font-size="10.00">elements</text>
<text text-anchor="start" x="156.5" y="-202.5" font-family="Helvetica,sans-Serif" font-size="10.00">+</text>
<text text-anchor="start" x="182" y="-202.5" font-family="Helvetica,sans-Serif" font-size="10.00">keys</text>
<text text-anchor="start" x="195" y="-186.5" font-family="Helvetica,sans-Serif" font-size="10.00"> </text>
<polygon fill="#666666" stroke="#666666" points="137,-230 137,-230 256,-230 256,-230 137,-230"/>
<polygon fill="#666666" stroke="#666666" points="137,-198 137,-198 180,-198 180,-198 137,-198"/>
<polygon fill="#666666" stroke="#666666" points="180,-198 180,-198 256,-198 256,-198 180,-198"/>
<polygon fill="none" stroke="#666666" points="137,-180 137,-260 256,-260 256,-180 137,-180"/>
</a>
</g>
</g>
<!-- Node3&#45;&gt;Node6 -->
<g id="edge6_Node000006_Node000003" class="edge">
<title>Node3&#45;&gt;Node6</title>
<g id="a_edge6_Node000006_Node000003"><a xlink:title=" ">
<path fill="none" stroke="orange" d="M162.01,-311.34C164.37,-308.3 166.57,-305.17 168.5,-302 176.4,-289.04 182.45,-273.55 186.87,-259.6"/>
<polygon fill="orange" stroke="orange" points="159.35,-309.06 155.58,-318.96 164.71,-313.58 159.35,-309.06"/>
</a>
</g>
<text text-anchor="start" x="179.5" y="-292.5" font-family="Helvetica,sans-Serif" font-size="10.00" fill="grey"> &lt; Hasher::Hash, Mix</text>
<text text-anchor="middle" x="226" y="-280.5" font-family="Helvetica,sans-Serif" font-size="10.00" fill="grey">_Music * &gt;</text>
</g>
<!-- Node4 -->
<g id="Node000004" class="node">
<title>Node4</title>
<g id="a_Node000004"><a xlink:title=" ">
<polygon fill="white" stroke="none" points="109.5,-472 93.5,-472 93.5,-420 109.5,-420 109.5,-472"/>
<text text-anchor="start" x="98.12" y="-458.5" font-family="Helvetica,sans-Serif" font-size="10.00">K</text>
<text text-anchor="start" x="100" y="-442.5" font-family="Helvetica,sans-Serif" font-size="10.00"> </text>
<text text-anchor="start" x="100" y="-426.5" font-family="Helvetica,sans-Serif" font-size="10.00"> </text>
<polygon fill="#666666" stroke="#666666" points="93.5,-454 93.5,-454 109.5,-454 109.5,-454 93.5,-454"/>
<polygon fill="#666666" stroke="#666666" points="93.5,-438 93.5,-438 109.5,-438 109.5,-438 93.5,-438"/>
<polygon fill="none" stroke="#666666" points="93.5,-420 93.5,-472 109.5,-472 109.5,-420 93.5,-420"/>
</a>
</g>
</g>
<!-- Node4&#45;&gt;Node3 -->
<g id="edge3_Node000003_Node000004" class="edge">
<title>Node4&#45;&gt;Node3</title>
<g id="a_edge3_Node000003_Node000004"><a xlink:title=" ">
<path fill="none" stroke="#63b8ff" d="M99.32,-420.25C99.15,-410.65 99.8,-399.66 102.5,-390 103.09,-387.88 103.81,-385.76 104.63,-383.66"/>
<polygon fill="none" stroke="#63b8ff" points="104.65,-383.63 103.6,-376.49 109.78,-372.78 110.83,-379.92 104.65,-383.63"/>
</a>
</g>
<text text-anchor="middle" x="117.5" y="-392.5" font-family="Helvetica,sans-Serif" font-size="10.00" fill="grey"> +keys</text>
</g>
<!-- Node5 -->
<g id="Node000005" class="node">
<title>Node5</title>
<g id="a_Node000005"><a xlink:title=" ">
<polygon fill="white" stroke="none" points="162,-472 147,-472 147,-420 162,-420 162,-472"/>
<text text-anchor="start" x="151.88" y="-458.5" font-family="Helvetica,sans-Serif" font-size="10.00">T</text>
<text text-anchor="start" x="153" y="-442.5" font-family="Helvetica,sans-Serif" font-size="10.00"> </text>
<text text-anchor="start" x="153" y="-426.5" font-family="Helvetica,sans-Serif" font-size="10.00"> </text>
<polygon fill="#666666" stroke="#666666" points="147,-454 147,-454 162,-454 162,-454 147,-454"/>
<polygon fill="#666666" stroke="#666666" points="147,-438 147,-438 162,-438 162,-438 147,-438"/>
<polygon fill="none" stroke="#666666" points="147,-420 147,-472 162,-472 162,-420 147,-420"/>
</a>
</g>
</g>
<!-- Node5&#45;&gt;Node3 -->
<g id="edge4_Node000003_Node000005" class="edge">
<title>Node5&#45;&gt;Node3</title>
<g id="a_edge4_Node000003_Node000005"><a xlink:title=" ">
<path fill="none" stroke="#63b8ff" d="M147.62,-420.02C144.63,-409.19 141.08,-396.28 137.79,-384.35"/>
<polygon fill="none" stroke="#63b8ff" points="137.8,-384.38 132.35,-379.65 134.61,-372.81 140.06,-377.53 137.8,-384.38"/>
</a>
</g>
<text text-anchor="middle" x="166.88" y="-392.5" font-family="Helvetica,sans-Serif" font-size="10.00" fill="grey"> +elements</text>
</g>
<!-- Node6&#45;&gt;Node1 -->
<g id="edge5_Node000001_Node000006" class="edge">
<title>Node6&#45;&gt;Node1</title>
<g id="a_edge5_Node000001_Node000006"><a xlink:title=" ">
<path fill="none" stroke="#63b8ff" d="M178.91,-180.25C173.8,-169 168.04,-156.31 162.27,-143.6"/>
<polygon fill="none" stroke="#63b8ff" points="162.32,-143.7 156.2,-139.89 157.36,-132.78 163.48,-136.59 162.32,-143.7"/>
</a>
</g>
<text text-anchor="middle" x="185.62" y="-152.5" font-family="Helvetica,sans-Serif" font-size="10.00" fill="grey"> &#45;music</text>
</g>
</g>
</svg>

<g id="navigator" transform="translate(0 0)" fill="#404254">
  <rect fill="#f2f5e9" fill-opacity="0.5" stroke="#606060" stroke-width=".5" x="0" y="0" width="60" height="60"/>
  <use id="zoomplus" xlink:href="#zoomPlus" x="17" y="9" onmousedown="handleZoom(evt,'in')"/>
  <use id="zoomminus" xlink:href="#zoomMin" x="42" y="9" onmousedown="handleZoom(evt,'out')"/>
  <use id="reset" xlink:href="#resetDef" x="30" y="36" onmousedown="handleReset()"/>
   <use id="arrowup" xlink:href="#arrowUp" x="0" y="0" onmousedown="handlePan(0,-1)"/>
  <use id="arrowright" xlink:href="#arrowRight" x="0" y="0" onmousedown="handlePan(1,0)"/>
  <use id="arrowdown" xlink:href="#arrowDown" x="0" y="0" onmousedown="handlePan(0,1)"/>
  <use id="arrowleft" xlink:href="#arrowLeft" x="0" y="0" onmousedown="handlePan(-1,0)"/>
</g>
<svg viewBox="0 0 15 15" width="100%" height="30px" preserveAspectRatio="xMaxYMin meet">
 <g id="arrow_out" transform="scale(0.3 0.3)">
  <a xlink:href="class_g_l_e_s_c_1_1_sound_loader__coll__graph_org.svg" target="_base">
   <rect id="button" ry="5" rx="5" y="6" x="6" height="38" width="38"
        fill="#f2f5e9" fill-opacity="0.5" stroke="#606060" stroke-width="1.0"/>
   <path id="arrow"
     d="M 11.500037,31.436501 C 11.940474,20.09759 22.043105,11.32322 32.158766,21.979434 L 37.068811,17.246167 C 37.068811,17.246167 37.088388,32 37.088388,32 L 22.160133,31.978069 C 22.160133,31.978069 26.997745,27.140456 26.997745,27.140456 C 18.528582,18.264221 13.291696,25.230495 11.500037,31.436501 z"
     style="fill:#404040;"/>
  </a>
 </g>
</svg>

<style type='text/css'>
<![CDATA[
[data-mouse-over-selected='false'] { opacity: 0.7; }
[data-mouse-over-selected='true']  { opacity: 1.0; }
]]>
</style>
<script type="application/ecmascript"><![CDATA[
document.addEventListener('DOMContentLoaded', (event) => {
  highlightEdges();
  highlightAdjacentNodes();
});
]]></script>
</svg>
