<?xml version="1.0" encoding="UTF-8" standalone="no"?>
<!DOCTYPE svg PUBLIC "-//W3C//DTD SVG 1.1//EN"
 "http://www.w3.org/Graphics/SVG/1.1/DTD/svg11.dtd">
<!-- Generated by graphviz version 11.0.0 (20240428.1522)
 -->
<!-- Title: GLESC::Math::Vector::angleDegrees Pages: 1 -->
<svg width="701pt" height="122pt"
 viewBox="0.00 0.00 700.50 122.00" xmlns="http://www.w3.org/2000/svg" xmlns:xlink="http://www.w3.org/1999/xlink">
<g id="graph0" class="graph" transform="scale(1 1) rotate(0) translate(4 118)">
<title>GLESC::Math::Vector::angleDegrees</title>
<!-- Node1 -->
<g id="Node000001" class="node">
<title>Node1</title>
<g id="a_Node000001"><a xlink:title="Gives the angle between two vectors in degrees.">
<polygon fill="#999999" stroke="#666666" points="111.25,-48 0,-48 0,-16 111.25,-16 111.25,-48"/>
<text text-anchor="start" x="8" y="-34.5" font-family="Helvetica,sans-Serif" font-size="10.00">GLESC::Math::Vector</text>
<text text-anchor="middle" x="55.62" y="-22.5" font-family="Helvetica,sans-Serif" font-size="10.00">::angleDegrees</text>
</a>
</g>
</g>
<!-- Node2 -->
<g id="Node000002" class="node">
<title>Node2</title>
<g id="a_Node000002"><a xlink:href="class_g_l_e_s_c_1_1_math_1_1_vector_algorithms.html#ab480ed45699c98de8b5c198d85329789" target="_top" xlink:title="Computes the rads between two vectors.">
<polygon fill="white" stroke="#666666" points="305,-70 147.25,-70 147.25,-38 305,-38 305,-70"/>
<text text-anchor="start" x="155.25" y="-56.5" font-family="Helvetica,sans-Serif" font-size="10.00">GLESC::Math::VectorAlgorithms</text>
<text text-anchor="middle" x="226.12" y="-44.5" font-family="Helvetica,sans-Serif" font-size="10.00">::angle</text>
</a>
</g>
</g>
<!-- Node1&#45;&gt;Node2 -->
<g id="edge1_Node000001_Node000002" class="edge">
<title>Node1&#45;&gt;Node2</title>
<g id="a_edge1_Node000001_Node000002"><a xlink:title=" ">
<path fill="none" stroke="#63b8ff" d="M111.33,-39.14C119.13,-40.16 127.31,-41.23 135.56,-42.31"/>
<polygon fill="#63b8ff" stroke="#63b8ff" points="134.95,-45.76 145.32,-43.58 135.86,-38.82 134.95,-45.76"/>
</a>
</g>
</g>
<!-- Node6 -->
<g id="Node000006" class="node">
<title>Node6</title>
<g id="a_Node000006"><a xlink:href="namespace_g_l_e_s_c_1_1_math.html#a69598a72ef2c06e1caba0ea9613d65e6" target="_top" xlink:title="Converts radians to degrees.">
<polygon fill="white" stroke="#666666" points="284.75,-20 167.5,-20 167.5,0 284.75,0 284.75,-20"/>
<text text-anchor="middle" x="226.12" y="-6.5" font-family="Helvetica,sans-Serif" font-size="10.00">GLESC::Math::degrees</text>
</a>
</g>
</g>
<!-- Node1&#45;&gt;Node6 -->
<g id="edge6_Node000001_Node000006" class="edge">
<title>Node1&#45;&gt;Node6</title>
<g id="a_edge6_Node000001_Node000006"><a xlink:title=" ">
<path fill="none" stroke="#63b8ff" d="M111.33,-24.86C125.58,-23 141.11,-20.97 155.99,-19.03"/>
<polygon fill="#63b8ff" stroke="#63b8ff" points="156.25,-22.52 165.71,-17.76 155.34,-15.58 156.25,-22.52"/>
</a>
</g>
</g>
<!-- Node3 -->
<g id="Node000003" class="node">
<title>Node3</title>
<g id="a_Node000003"><a xlink:href="class_g_l_e_s_c_1_1_math_1_1_vector_algorithms.html#ae45bcff9b53fb60d513c53823418d97b" target="_top" xlink:title="Computes the dot product of two vectors.">
<polygon fill="white" stroke="#666666" points="692.5,-114 534.75,-114 534.75,-82 692.5,-82 692.5,-114"/>
<text text-anchor="start" x="542.75" y="-100.5" font-family="Helvetica,sans-Serif" font-size="10.00">GLESC::Math::VectorAlgorithms</text>
<text text-anchor="middle" x="613.62" y="-88.5" font-family="Helvetica,sans-Serif" font-size="10.00">::dotProduct</text>
</a>
</g>
</g>
<!-- Node2&#45;&gt;Node3 -->
<g id="edge2_Node000002_Node000003" class="edge">
<title>Node2&#45;&gt;Node3</title>
<g id="a_edge2_Node000002_Node000003"><a xlink:title=" ">
<path fill="none" stroke="#63b8ff" d="M294.27,-70.45C309.55,-73.71 325.77,-76.81 341,-79 401.37,-87.69 469.89,-92.45 523.01,-95.03"/>
<polygon fill="#63b8ff" stroke="#63b8ff" points="522.78,-98.52 532.93,-95.49 523.1,-91.53 522.78,-98.52"/>
</a>
</g>
</g>
<!-- Node4 -->
<g id="Node000004" class="node">
<title>Node4</title>
<g id="a_Node000004"><a xlink:href="class_g_l_e_s_c_1_1_math_1_1_vector_algorithms.html#a96acaa670e780132720dd3ea6a6cdf97" target="_top" xlink:title="Computes the length of a vector.">
<polygon fill="white" stroke="#666666" points="498.75,-70 341,-70 341,-38 498.75,-38 498.75,-70"/>
<text text-anchor="start" x="349" y="-56.5" font-family="Helvetica,sans-Serif" font-size="10.00">GLESC::Math::VectorAlgorithms</text>
<text text-anchor="middle" x="419.88" y="-44.5" font-family="Helvetica,sans-Serif" font-size="10.00">::length</text>
</a>
</g>
</g>
<!-- Node2&#45;&gt;Node4 -->
<g id="edge3_Node000002_Node000004" class="edge">
<title>Node2&#45;&gt;Node4</title>
<g id="a_edge3_Node000002_Node000004"><a xlink:title=" ">
<path fill="none" stroke="#63b8ff" d="M305.39,-54C313.19,-54 321.14,-54 329.04,-54"/>
<polygon fill="#63b8ff" stroke="#63b8ff" points="329.03,-57.5 339.03,-54 329.03,-50.5 329.03,-57.5"/>
</a>
</g>
</g>
<!-- Node4&#45;&gt;Node3 -->
<g id="edge4_Node000004_Node000003" class="edge">
<title>Node4&#45;&gt;Node3</title>
<g id="a_edge4_Node000004_Node000003"><a xlink:title=" ">
<path fill="none" stroke="#63b8ff" d="M492.55,-70.45C504.6,-73.21 517.2,-76.1 529.52,-78.93"/>
<polygon fill="#63b8ff" stroke="#63b8ff" points="528.71,-82.34 539.24,-81.16 530.28,-75.51 528.71,-82.34"/>
</a>
</g>
</g>
<!-- Node5 -->
<g id="Node000005" class="node">
<title>Node5</title>
<g id="a_Node000005"><a xlink:href="namespace_g_l_e_s_c_1_1_math.html#ab2316a2512c43c18e29709201adf3fe5" target="_top" xlink:title="Calculates the square root of a value.">
<polygon fill="white" stroke="#666666" points="663.25,-64 564,-64 564,-44 663.25,-44 663.25,-64"/>
<text text-anchor="middle" x="613.62" y="-50.5" font-family="Helvetica,sans-Serif" font-size="10.00">GLESC::Math::sqrt</text>
</a>
</g>
</g>
<!-- Node4&#45;&gt;Node5 -->
<g id="edge5_Node000004_Node000005" class="edge">
<title>Node4&#45;&gt;Node5</title>
<g id="a_edge5_Node000004_Node000005"><a xlink:title=" ">
<path fill="none" stroke="#63b8ff" d="M499.14,-54C516.9,-54 535.48,-54 552.36,-54"/>
<polygon fill="#63b8ff" stroke="#63b8ff" points="552.22,-57.5 562.22,-54 552.22,-50.5 552.22,-57.5"/>
</a>
</g>
</g>
<!-- Node7 -->
<g id="Node000007" class="node">
<title>Node7</title>
<g id="a_Node000007"><a xlink:href="namespace_g_l_e_s_c_1_1_math.html#a980ed967f85bef4bb539c9701701a877" target="_top" xlink:title="Converts degrees to radians.">
<polygon fill="white" stroke="#666666" points="477,-20 362.75,-20 362.75,0 477,0 477,-20"/>
<text text-anchor="middle" x="419.88" y="-6.5" font-family="Helvetica,sans-Serif" font-size="10.00">GLESC::Math::radians</text>
</a>
</g>
</g>
<!-- Node6&#45;&gt;Node7 -->
<g id="edge7_Node000006_Node000007" class="edge">
<title>Node6&#45;&gt;Node7</title>
<g id="a_edge7_Node000006_Node000007"><a xlink:title=" ">
<path fill="none" stroke="#63b8ff" d="M285.18,-3.74C305.92,-3.17 329.48,-3.1 350.97,-3.51"/>
<polygon fill="#63b8ff" stroke="#63b8ff" points="350.74,-7.01 360.83,-3.75 350.91,-0.01 350.74,-7.01"/>
</a>
</g>
</g>
<!-- Node7&#45;&gt;Node6 -->
<g id="edge8_Node000007_Node000006" class="edge">
<title>Node7&#45;&gt;Node6</title>
<g id="a_edge8_Node000007_Node000006"><a xlink:title=" ">
<path fill="none" stroke="#63b8ff" d="M362.34,-16.22C341.74,-16.81 318.2,-16.91 296.6,-16.52"/>
<polygon fill="#63b8ff" stroke="#63b8ff" points="296.77,-13.02 286.69,-16.29 296.61,-20.02 296.77,-13.02"/>
</a>
</g>
</g>
</g>
</svg>
