<?xml version="1.0" encoding="UTF-8" standalone="no"?>
<!DOCTYPE svg PUBLIC "-//W3C//DTD SVG 1.1//EN"
 "http://www.w3.org/Graphics/SVG/1.1/DTD/svg11.dtd">
<!-- Generated by graphviz version 11.0.0 (20240428.1522)
 -->
<!-- Title: AssertFailedException Pages: 1 -->
<svg width="130pt" height="444pt"
 viewBox="0.00 0.00 130.00 444.00" xmlns="http://www.w3.org/2000/svg" xmlns:xlink="http://www.w3.org/1999/xlink">

<svg id="main" version="1.1" xmlns="http://www.w3.org/2000/svg" xmlns:xlink="http://www.w3.org/1999/xlink" xml:space="preserve" onload="init(evt)">
<style type="text/css"><![CDATA[
.node, .edge {opacity: 0.7;}
.node.selected, .edge.selected {opacity: 1;}
.edge:hover path { stroke: red; }
.edge:hover polygon { stroke: red; fill: red; }
]]></style>
<script type="application/ecmascript" xlink:href="svg.min.js"/>
<svg id="graph" class="graph">
<g id="graph0" class="graph" transform="scale(1 1) rotate(0) translate(4 440)">
<title>AssertFailedException</title>
<!-- Node1 -->
<g id="Node000001" class="node">
<title>Node1</title>
<g id="a_Node000001"><a xlink:title=" ">
<polygon fill="#999999" stroke="none" points="122,-52 0,-52 0,0 122,0 122,-52"/>
<text text-anchor="start" x="11.88" y="-38.5" font-family="Helvetica,sans-Serif" font-size="10.00">AssertFailedException</text>
<text text-anchor="start" x="59.5" y="-22.5" font-family="Helvetica,sans-Serif" font-size="10.00"> </text>
<text text-anchor="start" x="4" y="-6.5" font-family="Helvetica,sans-Serif" font-size="10.00">+</text>
<text text-anchor="start" x="14" y="-6.5" font-family="Helvetica,sans-Serif" font-size="10.00">AssertFailedException()</text>
<polygon fill="#666666" stroke="#666666" points="0,-34 0,-34 122,-34 122,-34 0,-34"/>
<polygon fill="#666666" stroke="#666666" points="0,-18 0,-18 122,-18 122,-18 0,-18"/>
<polygon fill="none" stroke="#666666" points="0,0 0,-52 122,-52 122,0 0,0"/>
</a>
</g>
</g>
<!-- Node2 -->
<g id="Node000002" class="node">
<title>Node2</title>
<g id="a_Node000002"><a xlink:href="class_engine_exception.html" target="_top" xlink:title=" ">
<polygon fill="white" stroke="none" points="109.5,-140 12.5,-140 12.5,-88 109.5,-88 109.5,-140"/>
<text text-anchor="start" x="24.25" y="-126.5" font-family="Helvetica,sans-Serif" font-size="10.00">EngineException</text>
<text text-anchor="start" x="59.5" y="-110.5" font-family="Helvetica,sans-Serif" font-size="10.00"> </text>
<text text-anchor="start" x="16.5" y="-94.5" font-family="Helvetica,sans-Serif" font-size="10.00">+</text>
<text text-anchor="start" x="26.5" y="-94.5" font-family="Helvetica,sans-Serif" font-size="10.00">EngineException()</text>
<polygon fill="#666666" stroke="#666666" points="12.5,-122 12.5,-122 109.5,-122 109.5,-122 12.5,-122"/>
<polygon fill="#666666" stroke="#666666" points="12.5,-106 12.5,-106 109.5,-106 109.5,-106 12.5,-106"/>
<polygon fill="none" stroke="#666666" points="12.5,-88 12.5,-140 109.5,-140 109.5,-88 12.5,-88"/>
</a>
</g>
</g>
<!-- Node2&#45;&gt;Node1 -->
<g id="edge1_Node000001_Node000002" class="edge">
<title>Node2&#45;&gt;Node1</title>
<g id="a_edge1_Node000001_Node000002"><a xlink:title=" ">
<path fill="none" stroke="#63b8ff" d="M61,-76.66C61,-68.29 61,-59.57 61,-51.82"/>
<polygon fill="none" stroke="#63b8ff" points="57.5,-76.61 61,-86.61 64.5,-76.61 57.5,-76.61"/>
</a>
</g>
</g>
<!-- Node3 -->
<g id="Node000003" class="node">
<title>Node3</title>
<g id="a_Node000003"><a xlink:href="class_base_exception.html" target="_top" xlink:title=" ">
<polygon fill="white" stroke="none" points="105.5,-260 16.5,-260 16.5,-176 105.5,-176 105.5,-260"/>
<text text-anchor="start" x="28" y="-246.5" font-family="Helvetica,sans-Serif" font-size="10.00">BaseException</text>
<text text-anchor="start" x="20.38" y="-230.5" font-family="Helvetica,sans-Serif" font-size="10.00">#</text>
<text text-anchor="start" x="29.5" y="-230.5" font-family="Helvetica,sans-Serif" font-size="10.00">fullMessage</text>
<text text-anchor="start" x="20.38" y="-214.5" font-family="Helvetica,sans-Serif" font-size="10.00">#</text>
<text text-anchor="start" x="29.5" y="-214.5" font-family="Helvetica,sans-Serif" font-size="10.00">stacktrace</text>
<text text-anchor="start" x="20.38" y="-198.5" font-family="Helvetica,sans-Serif" font-size="10.00">#</text>
<text text-anchor="start" x="29.5" y="-198.5" font-family="Helvetica,sans-Serif" font-size="10.00">BaseException()</text>
<text text-anchor="start" x="20.38" y="-182.5" font-family="Helvetica,sans-Serif" font-size="10.00">#</text>
<text text-anchor="start" x="29.5" y="-182.5" font-family="Helvetica,sans-Serif" font-size="10.00">what()</text>
<polygon fill="#666666" stroke="#666666" points="16.5,-242 16.5,-242 105.5,-242 105.5,-242 16.5,-242"/>
<polygon fill="#666666" stroke="#666666" points="16.5,-210 16.5,-210 27.5,-210 27.5,-210 16.5,-210"/>
<polygon fill="#666666" stroke="#666666" points="27.5,-210 27.5,-210 105.5,-210 105.5,-210 27.5,-210"/>
<polygon fill="none" stroke="#666666" points="16.5,-176 16.5,-260 105.5,-260 105.5,-176 16.5,-176"/>
</a>
</g>
</g>
<!-- Node3&#45;&gt;Node2 -->
<g id="edge2_Node000002_Node000003" class="edge">
<title>Node3&#45;&gt;Node2</title>
<g id="a_edge2_Node000002_Node000003"><a xlink:title=" ">
<path fill="none" stroke="#63b8ff" d="M61,-164.71C61,-156.01 61,-147.35 61,-139.76"/>
<polygon fill="none" stroke="#63b8ff" points="57.5,-164.59 61,-174.59 64.5,-164.59 57.5,-164.59"/>
</a>
</g>
</g>
<!-- Node4 -->
<g id="Node000004" class="node">
<title>Node4</title>
<g id="a_Node000004"><a xlink:title=" ">
<polygon fill="white" stroke="none" points="104,-348 18,-348 18,-296 104,-296 104,-348"/>
<text text-anchor="start" x="22.75" y="-334.5" font-family="Helvetica,sans-Serif" font-size="10.00">std::runtime_error</text>
<text text-anchor="start" x="59.5" y="-318.5" font-family="Helvetica,sans-Serif" font-size="10.00"> </text>
<text text-anchor="start" x="59.5" y="-302.5" font-family="Helvetica,sans-Serif" font-size="10.00"> </text>
<polygon fill="#666666" stroke="#666666" points="18,-330 18,-330 104,-330 104,-330 18,-330"/>
<polygon fill="#666666" stroke="#666666" points="18,-314 18,-314 104,-314 104,-314 18,-314"/>
<polygon fill="none" stroke="#666666" points="18,-296 18,-348 104,-348 104,-296 18,-296"/>
</a>
</g>
</g>
<!-- Node4&#45;&gt;Node3 -->
<g id="edge3_Node000003_Node000004" class="edge">
<title>Node4&#45;&gt;Node3</title>
<g id="a_edge3_Node000003_Node000004"><a xlink:title=" ">
<path fill="none" stroke="#63b8ff" d="M61,-284.77C61,-276.75 61,-268.19 61,-259.99"/>
<polygon fill="none" stroke="#63b8ff" points="57.5,-284.53 61,-294.53 64.5,-284.53 57.5,-284.53"/>
</a>
</g>
</g>
<!-- Node5 -->
<g id="Node000005" class="node">
<title>Node5</title>
<g id="a_Node000005"><a xlink:title=" ">
<polygon fill="white" stroke="none" points="96.5,-436 25.5,-436 25.5,-384 96.5,-384 96.5,-436"/>
<text text-anchor="start" x="30.25" y="-422.5" font-family="Helvetica,sans-Serif" font-size="10.00">std::exception</text>
<text text-anchor="start" x="59.5" y="-406.5" font-family="Helvetica,sans-Serif" font-size="10.00"> </text>
<text text-anchor="start" x="59.5" y="-390.5" font-family="Helvetica,sans-Serif" font-size="10.00"> </text>
<polygon fill="#666666" stroke="#666666" points="25.5,-418 25.5,-418 96.5,-418 96.5,-418 25.5,-418"/>
<polygon fill="#666666" stroke="#666666" points="25.5,-402 25.5,-402 96.5,-402 96.5,-402 25.5,-402"/>
<polygon fill="none" stroke="#666666" points="25.5,-384 25.5,-436 96.5,-436 96.5,-384 25.5,-384"/>
</a>
</g>
</g>
<!-- Node5&#45;&gt;Node4 -->
<g id="edge4_Node000004_Node000005" class="edge">
<title>Node5&#45;&gt;Node4</title>
<g id="a_edge4_Node000004_Node000005"><a xlink:title=" ">
<path fill="none" stroke="#63b8ff" d="M61,-372.66C61,-364.29 61,-355.57 61,-347.82"/>
<polygon fill="none" stroke="#63b8ff" points="57.5,-372.61 61,-382.61 64.5,-372.61 57.5,-372.61"/>
</a>
</g>
</g>
</g>
</svg>
</svg>

<style type='text/css'>
<![CDATA[
[data-mouse-over-selected='false'] { opacity: 0.7; }
[data-mouse-over-selected='true']  { opacity: 1.0; }
]]>
</style>
<script type="application/ecmascript"><![CDATA[
document.addEventListener('DOMContentLoaded', (event) => {
  highlightEdges();
  highlightAdjacentNodes();
});
]]></script>
</svg>
