<?xml version="1.0" encoding="UTF-8" standalone="no"?>
<!DOCTYPE svg PUBLIC "-//W3C//DTD SVG 1.1//EN"
 "http://www.w3.org/Graphics/SVG/1.1/DTD/svg11.dtd">
<!-- Generated by graphviz version 11.0.0 (20240428.1522)
 -->
<!-- Title: HudLookAndFeel::apply Pages: 1 -->
<svg width="984pt" height="204pt"
 viewBox="0.00 0.00 983.75 204.00" xmlns="http://www.w3.org/2000/svg" xmlns:xlink="http://www.w3.org/1999/xlink">
<g id="graph0" class="graph" transform="scale(1 1) rotate(0) translate(4 200)">
<title>HudLookAndFeel::apply</title>
<!-- Node1 -->
<g id="Node000001" class="node">
<title>Node1</title>
<g id="a_Node000001"><a xlink:title="Applies the look and feel to ImGui.">
<polygon fill="#999999" stroke="#666666" points="119.5,-76 0,-76 0,-56 119.5,-56 119.5,-76"/>
<text text-anchor="middle" x="59.75" y="-62.5" font-family="Helvetica,sans-Serif" font-size="10.00">HudLookAndFeel::apply</text>
</a>
</g>
</g>
<!-- Node2 -->
<g id="Node000002" class="node">
<title>Node2</title>
<g id="a_Node000002"><a xlink:href="class_hud_look_and_feel.html#a815b718b209fe097df0cde4293dc39b8" target="_top" xlink:title=" ">
<polygon fill="white" stroke="#666666" points="284.75,-76 155.5,-76 155.5,-56 284.75,-56 284.75,-76"/>
<text text-anchor="middle" x="220.12" y="-62.5" font-family="Helvetica,sans-Serif" font-size="10.00">HudLookAndFeel::getFont</text>
</a>
</g>
</g>
<!-- Node1&#45;&gt;Node2 -->
<g id="edge1_Node000001_Node000002" class="edge">
<title>Node1&#45;&gt;Node2</title>
<g id="a_edge1_Node000001_Node000002"><a xlink:title=" ">
<path fill="none" stroke="#63b8ff" d="M119.72,-66C127.55,-66 135.67,-66 143.73,-66"/>
<polygon fill="#63b8ff" stroke="#63b8ff" points="143.54,-69.5 153.54,-66 143.54,-62.5 143.54,-69.5"/>
</a>
</g>
</g>
<!-- Node3 -->
<g id="Node000003" class="node">
<title>Node3</title>
<g id="a_Node000003"><a xlink:href="class_hud_look_and_feel.html#a1466001b2e5e8963e55ff4be372c3e0e" target="_top" xlink:title="Adds a font from a file with a size.">
<polygon fill="white" stroke="#666666" points="452.25,-117 320.75,-117 320.75,-97 452.25,-97 452.25,-117"/>
<text text-anchor="middle" x="386.5" y="-103.5" font-family="Helvetica,sans-Serif" font-size="10.00">HudLookAndFeel::addFont</text>
</a>
</g>
</g>
<!-- Node2&#45;&gt;Node3 -->
<g id="edge2_Node000002_Node000003" class="edge">
<title>Node2&#45;&gt;Node3</title>
<g id="a_edge2_Node000002_Node000003"><a xlink:title=" ">
<path fill="none" stroke="#63b8ff" d="M263.03,-76.45C284.19,-81.73 310.07,-88.19 332.59,-93.8"/>
<polygon fill="#63b8ff" stroke="#63b8ff" points="331.65,-97.18 342.2,-96.2 333.35,-90.38 331.65,-97.18"/>
</a>
</g>
</g>
<!-- Node12 -->
<g id="Node000012" class="node">
<title>Node12</title>
<g id="a_Node000012"><a xlink:href="class_hud_look_and_feel.html#a6186621c1bacc784027bfc788baa41c1" target="_top" xlink:title=" ">
<polygon fill="white" stroke="#666666" points="631.38,-82 502.88,-82 502.88,-50 631.38,-50 631.38,-82"/>
<text text-anchor="start" x="510.88" y="-68.5" font-family="Helvetica,sans-Serif" font-size="10.00">HudLookAndFeel::validate</text>
<text text-anchor="middle" x="567.12" y="-56.5" font-family="Helvetica,sans-Serif" font-size="10.00">FontName</text>
</a>
</g>
</g>
<!-- Node2&#45;&gt;Node12 -->
<g id="edge15_Node000002_Node000012" class="edge">
<title>Node2&#45;&gt;Node12</title>
<g id="a_edge15_Node000002_Node000012"><a xlink:title=" ">
<path fill="none" stroke="#63b8ff" d="M285.21,-66C343.54,-66 429.7,-66 491.2,-66"/>
<polygon fill="#63b8ff" stroke="#63b8ff" points="490.87,-69.5 500.87,-66 490.87,-62.5 490.87,-69.5"/>
</a>
</g>
</g>
<!-- Node14 -->
<g id="Node000014" class="node">
<title>Node14</title>
<g id="a_Node000014"><a xlink:href="class_hud_look_and_feel.html#a4149f1a2cdc165caa2973732e4960278" target="_top" xlink:title=" ">
<polygon fill="white" stroke="#666666" points="631.38,-32 502.88,-32 502.88,0 631.38,0 631.38,-32"/>
<text text-anchor="start" x="510.88" y="-18.5" font-family="Helvetica,sans-Serif" font-size="10.00">HudLookAndFeel::validate</text>
<text text-anchor="middle" x="567.12" y="-6.5" font-family="Helvetica,sans-Serif" font-size="10.00">FontSize</text>
</a>
</g>
</g>
<!-- Node2&#45;&gt;Node14 -->
<g id="edge16_Node000002_Node000014" class="edge">
<title>Node2&#45;&gt;Node14</title>
<g id="a_edge16_Node000002_Node000014"><a xlink:title=" ">
<path fill="none" stroke="#63b8ff" d="M285.21,-56.71C343.54,-48.26 429.7,-35.77 491.2,-26.86"/>
<polygon fill="#63b8ff" stroke="#63b8ff" points="491.49,-30.35 500.89,-25.45 490.49,-23.43 491.49,-30.35"/>
</a>
</g>
</g>
<!-- Node4 -->
<g id="Node000004" class="node">
<title>Node4</title>
<g id="a_Node000004"><a xlink:href="class_g_l_e_s_c_1_1_logger.html#a9b12ce53593be134b7d7dea62607d22d" target="_top" xlink:title=" ">
<polygon fill="white" stroke="#666666" points="619,-196 515.25,-196 515.25,-176 619,-176 619,-196"/>
<text text-anchor="middle" x="567.12" y="-182.5" font-family="Helvetica,sans-Serif" font-size="10.00">GLESC::Logger::get</text>
</a>
</g>
</g>
<!-- Node3&#45;&gt;Node4 -->
<g id="edge3_Node000003_Node000004" class="edge">
<title>Node3&#45;&gt;Node4</title>
<g id="a_edge3_Node000003_Node000004"><a xlink:title=" ">
<path fill="none" stroke="#63b8ff" d="M401.8,-117.4C420.7,-130.69 455.46,-153.59 488.25,-167 493.43,-169.12 498.91,-171.04 504.45,-172.78"/>
<polygon fill="#63b8ff" stroke="#63b8ff" points="503.13,-176.03 513.7,-175.46 505.08,-169.31 503.13,-176.03"/>
</a>
</g>
</g>
<!-- Node5 -->
<g id="Node000005" class="node">
<title>Node5</title>
<g id="a_Node000005"><a xlink:href="class_bin_path.html#a518dec5500f3666c8ecc54023e0c229d" target="_top" xlink:title=" ">
<polygon fill="white" stroke="#666666" points="646,-158 488.25,-158 488.25,-138 646,-138 646,-158"/>
<text text-anchor="middle" x="567.12" y="-144.5" font-family="Helvetica,sans-Serif" font-size="10.00">BinPath::getExecutableDirectory</text>
</a>
</g>
</g>
<!-- Node3&#45;&gt;Node5 -->
<g id="edge4_Node000003_Node000005" class="edge">
<title>Node3&#45;&gt;Node5</title>
<g id="a_edge4_Node000003_Node000005"><a xlink:title=" ">
<path fill="none" stroke="#63b8ff" d="M433.04,-117.45C456.34,-122.8 484.93,-129.36 509.63,-135.03"/>
<polygon fill="#63b8ff" stroke="#63b8ff" points="508.67,-138.4 519.2,-137.23 510.23,-131.58 508.67,-138.4"/>
</a>
</g>
</g>
<!-- Node7 -->
<g id="Node000007" class="node">
<title>Node7</title>
<g id="a_Node000007"><a xlink:href="class_g_l_e_s_c_1_1_logger.html#a5fa42012f212a31fe7eb06c5ba93caba" target="_top" xlink:title="Display basic information Background – Black Text – White.">
<polygon fill="white" stroke="#666666" points="619.75,-120 514.5,-120 514.5,-100 619.75,-100 619.75,-120"/>
<text text-anchor="middle" x="567.12" y="-106.5" font-family="Helvetica,sans-Serif" font-size="10.00">GLESC::Logger::info</text>
</a>
</g>
</g>
<!-- Node3&#45;&gt;Node7 -->
<g id="edge6_Node000003_Node000007" class="edge">
<title>Node3&#45;&gt;Node7</title>
<g id="a_edge6_Node000003_Node000007"><a xlink:title=" ">
<path fill="none" stroke="#63b8ff" d="M452.75,-108.1C469.18,-108.37 486.8,-108.67 503.12,-108.94"/>
<polygon fill="#63b8ff" stroke="#63b8ff" points="502.62,-112.43 512.68,-109.1 502.74,-105.43 502.62,-112.43"/>
</a>
</g>
</g>
<!-- Node3&#45;&gt;Node12 -->
<g id="edge12_Node000003_Node000012" class="edge">
<title>Node3&#45;&gt;Node12</title>
<g id="a_edge12_Node000003_Node000012"><a xlink:title=" ">
<path fill="none" stroke="#63b8ff" d="M433.04,-96.55C450.75,-92.48 471.51,-87.72 491.29,-83.18"/>
<polygon fill="#63b8ff" stroke="#63b8ff" points="492.04,-86.6 501,-80.95 490.47,-79.77 492.04,-86.6"/>
</a>
</g>
</g>
<!-- Node3&#45;&gt;Node14 -->
<g id="edge14_Node000003_Node000014" class="edge">
<title>Node3&#45;&gt;Node14</title>
<g id="a_edge14_Node000003_Node000014"><a xlink:title=" ">
<path fill="none" stroke="#63b8ff" d="M400.82,-96.58C419.47,-82.39 454.85,-56.94 488.25,-41 491.52,-39.44 494.91,-37.94 498.36,-36.51"/>
<polygon fill="#63b8ff" stroke="#63b8ff" points="499.41,-39.86 507.45,-32.97 496.87,-33.34 499.41,-39.86"/>
</a>
</g>
</g>
<!-- Node6 -->
<g id="Node000006" class="node">
<title>Node6</title>
<g id="a_Node000006"><a xlink:href="class_bin_path.html#afc63e7a8201f134535b3531659dd97a3" target="_top" xlink:title=" ">
<polygon fill="white" stroke="#666666" points="821,-196 682,-196 682,-176 821,-176 821,-196"/>
<text text-anchor="middle" x="751.5" y="-182.5" font-family="Helvetica,sans-Serif" font-size="10.00">BinPath::getExecutablePath</text>
</a>
</g>
</g>
<!-- Node5&#45;&gt;Node6 -->
<g id="edge5_Node000005_Node000006" class="edge">
<title>Node5&#45;&gt;Node6</title>
<g id="a_edge5_Node000005_Node000006"><a xlink:title=" ">
<path fill="none" stroke="#63b8ff" d="M618.44,-158.48C640.37,-163.05 666.27,-168.45 689.3,-173.25"/>
<polygon fill="#63b8ff" stroke="#63b8ff" points="688.36,-176.63 698.86,-175.24 689.79,-169.77 688.36,-176.63"/>
</a>
</g>
</g>
<!-- Node8 -->
<g id="Node000008" class="node">
<title>Node8</title>
<g id="a_Node000008"><a xlink:href="class_g_l_e_s_c_1_1_logger.html#adcc4730c087b2df0b97cccc15557e432" target="_top" xlink:title=" ">
<polygon fill="white" stroke="#666666" points="820.25,-82 682.75,-82 682.75,-50 820.25,-50 820.25,-82"/>
<text text-anchor="start" x="690.75" y="-68.5" font-family="Helvetica,sans-Serif" font-size="10.00">GLESC::Logger::executeOn</text>
<text text-anchor="middle" x="751.5" y="-56.5" font-family="Helvetica,sans-Serif" font-size="10.00">AllInputs</text>
</a>
</g>
</g>
<!-- Node7&#45;&gt;Node8 -->
<g id="edge7_Node000007_Node000008" class="edge">
<title>Node7&#45;&gt;Node8</title>
<g id="a_edge7_Node000007_Node000008"><a xlink:title=" ">
<path fill="none" stroke="#63b8ff" d="M611.35,-99.57C629.29,-95.24 650.7,-90.08 671.29,-85.11"/>
<polygon fill="#63b8ff" stroke="#63b8ff" points="671.91,-88.56 680.81,-82.81 670.27,-81.76 671.91,-88.56"/>
</a>
</g>
</g>
<!-- Node10 -->
<g id="Node000010" class="node">
<title>Node10</title>
<g id="a_Node000010"><a xlink:href="_debug_entity_data_h_u_d_8cpp.html#a9acf295be457442cac6bccc0bf75112c" target="_top" xlink:title=" ">
<polygon fill="white" stroke="#666666" points="932.62,-136 900.12,-136 900.12,-116 932.62,-116 932.62,-136"/>
<text text-anchor="middle" x="916.38" y="-122.5" font-family="Helvetica,sans-Serif" font-size="10.00">text</text>
</a>
</g>
</g>
<!-- Node7&#45;&gt;Node10 -->
<g id="edge11_Node000007_Node000010" class="edge">
<title>Node7&#45;&gt;Node10</title>
<g id="a_edge11_Node000007_Node000010"><a xlink:title=" ">
<path fill="none" stroke="#63b8ff" d="M619.77,-120.47C639.19,-123.92 661.53,-127.3 682,-129 743.57,-134.1 759.23,-129.98 821,-129 843.72,-128.64 869.51,-127.79 888.38,-127.09"/>
<polygon fill="#63b8ff" stroke="#63b8ff" points="888.31,-130.59 898.17,-126.71 888.04,-123.6 888.31,-130.59"/>
</a>
</g>
</g>
<!-- Node11 -->
<g id="Node000011" class="node">
<title>Node11</title>
<g id="a_Node000011"><a xlink:href="class_i_logger.html#af378b37a56de2bad5c4ce2d0f7572f9c" target="_top" xlink:title="Display basic information Background – Black Text – White.">
<polygon fill="white" stroke="#666666" points="785.75,-120 717.25,-120 717.25,-100 785.75,-100 785.75,-120"/>
<text text-anchor="middle" x="751.5" y="-106.5" font-family="Helvetica,sans-Serif" font-size="10.00">ILogger::info</text>
</a>
</g>
</g>
<!-- Node7&#45;&gt;Node11 -->
<g id="edge10_Node000007_Node000011" class="edge">
<title>Node7&#45;&gt;Node11</title>
<g id="a_edge10_Node000007_Node000011"><a xlink:title=" ">
<path fill="none" stroke="#63b8ff" d="M619.9,-110C646.93,-110 679.68,-110 705.63,-110"/>
<polygon fill="#63b8ff" stroke="#63b8ff" points="705.51,-113.5 715.51,-110 705.51,-106.5 705.51,-113.5"/>
</a>
</g>
</g>
<!-- Node9 -->
<g id="Node000009" class="node">
<title>Node9</title>
<g id="a_Node000009"><a xlink:href="class_concurrent_queue.html#a7d61d602747cee9adf97076d2781023c" target="_top" xlink:title=" ">
<polygon fill="white" stroke="#666666" points="975.75,-76 857,-76 857,-56 975.75,-56 975.75,-76"/>
<text text-anchor="middle" x="916.38" y="-62.5" font-family="Helvetica,sans-Serif" font-size="10.00">ConcurrentQueue::push</text>
</a>
</g>
</g>
<!-- Node8&#45;&gt;Node9 -->
<g id="edge8_Node000008_Node000009" class="edge">
<title>Node8&#45;&gt;Node9</title>
<g id="a_edge8_Node000008_Node000009"><a xlink:title=" ">
<path fill="none" stroke="#63b8ff" d="M820.63,-66C828.75,-66 837.05,-66 845.19,-66"/>
<polygon fill="#63b8ff" stroke="#63b8ff" points="845.06,-69.5 855.06,-66 845.06,-62.5 845.06,-69.5"/>
</a>
</g>
</g>
<!-- Node8&#45;&gt;Node10 -->
<g id="edge9_Node000008_Node000010" class="edge">
<title>Node8&#45;&gt;Node10</title>
<g id="a_edge9_Node000008_Node000010"><a xlink:title=" ">
<path fill="none" stroke="#63b8ff" d="M797.47,-82.37C805.31,-85.24 813.4,-88.2 821,-91 843.95,-99.44 870.02,-109.12 888.93,-116.15"/>
<polygon fill="#63b8ff" stroke="#63b8ff" points="887.68,-119.42 898.27,-119.63 890.12,-112.86 887.68,-119.42"/>
</a>
</g>
</g>
<!-- Node13 -->
<g id="Node000013" class="node">
<title>Node13</title>
<g id="a_Node000013"><a xlink:href="class_g_l_e_s_c_1_1_stringer.html#ae6ebbc41fe6bedb05cea879bb93fd378" target="_top" xlink:title="Checks if a string contains a substring.">
<polygon fill="white" stroke="#666666" points="817.25,-32 685.75,-32 685.75,-12 817.25,-12 817.25,-32"/>
<text text-anchor="middle" x="751.5" y="-18.5" font-family="Helvetica,sans-Serif" font-size="10.00">GLESC::Stringer::contains</text>
</a>
</g>
</g>
<!-- Node12&#45;&gt;Node13 -->
<g id="edge13_Node000012_Node000013" class="edge">
<title>Node12&#45;&gt;Node13</title>
<g id="a_edge13_Node000012_Node000013"><a xlink:title=" ">
<path fill="none" stroke="#63b8ff" d="M631.65,-50.67C652.73,-45.59 675.99,-39.98 696.29,-35.08"/>
<polygon fill="#63b8ff" stroke="#63b8ff" points="696.87,-38.54 705.77,-32.79 695.23,-31.73 696.87,-38.54"/>
</a>
</g>
</g>
</g>
</svg>
