<?xml version="1.0" encoding="UTF-8" standalone="no"?>
<!DOCTYPE svg PUBLIC "-//W3C//DTD SVG 1.1//EN"
 "http://www.w3.org/Graphics/SVG/1.1/DTD/svg11.dtd">
<!-- Generated by graphviz version 11.0.0 (20240428.1522)
 -->
<!-- Title: GLESC::Input::InputManager::setMouseRelative Pages: 1 -->
<svg width="307pt" height="66pt"
 viewBox="0.00 0.00 307.00 66.00" xmlns="http://www.w3.org/2000/svg" xmlns:xlink="http://www.w3.org/1999/xlink">
<g id="graph0" class="graph" transform="scale(1 1) rotate(0) translate(4 62)">
<title>GLESC::Input::InputManager::setMouseRelative</title>
<!-- Node1 -->
<g id="Node000001" class="node">
<title>Node1</title>
<g id="a_Node000001"><a xlink:title="Enables mouse If enabled mouse is visible and position is absolute (allows moving it across the windo...">
<polygon fill="#999999" stroke="#666666" points="140.5,-45 0,-45 0,-13 140.5,-13 140.5,-45"/>
<text text-anchor="start" x="8" y="-31.5" font-family="Helvetica,sans-Serif" font-size="10.00">GLESC::Input::InputManager</text>
<text text-anchor="middle" x="70.25" y="-19.5" font-family="Helvetica,sans-Serif" font-size="10.00">::setMouseRelative</text>
</a>
</g>
</g>
<!-- Node2 -->
<g id="Node000002" class="node">
<title>Node2</title>
<g id="a_Node000002"><a xlink:href="class_g_l_e_s_c_1_1_math_1_1_vector.html#a73cb0791e7c0aed79d07c35d2176394e" target="_top" xlink:title="Returns the x (reference) value of the vector.">
<polygon fill="white" stroke="#666666" points="299,-58 176.5,-58 176.5,-38 299,-38 299,-58"/>
<text text-anchor="middle" x="237.75" y="-44.5" font-family="Helvetica,sans-Serif" font-size="10.00">GLESC::Math::Vector::x</text>
</a>
</g>
</g>
<!-- Node1&#45;&gt;Node2 -->
<g id="edge1_Node000001_Node000002" class="edge">
<title>Node1&#45;&gt;Node2</title>
<g id="a_edge1_Node000001_Node000002"><a xlink:title=" ">
<path fill="none" stroke="#63b8ff" d="M140.96,-37C148.79,-37.9 156.79,-38.82 164.65,-39.72"/>
<polygon fill="#63b8ff" stroke="#63b8ff" points="164.21,-43.19 174.54,-40.86 165.01,-36.24 164.21,-43.19"/>
</a>
</g>
</g>
<!-- Node3 -->
<g id="Node000003" class="node">
<title>Node3</title>
<g id="a_Node000003"><a xlink:href="class_g_l_e_s_c_1_1_math_1_1_vector.html#a1db0ddecdb667904cff8c3ef7b23ef91" target="_top" xlink:title="Returns the y (second) value of the vector.">
<polygon fill="white" stroke="#666666" points="299,-20 176.5,-20 176.5,0 299,0 299,-20"/>
<text text-anchor="middle" x="237.75" y="-6.5" font-family="Helvetica,sans-Serif" font-size="10.00">GLESC::Math::Vector::y</text>
</a>
</g>
</g>
<!-- Node1&#45;&gt;Node3 -->
<g id="edge2_Node000001_Node000003" class="edge">
<title>Node1&#45;&gt;Node3</title>
<g id="a_edge2_Node000001_Node000003"><a xlink:title=" ">
<path fill="none" stroke="#63b8ff" d="M140.96,-21C148.79,-20.1 156.79,-19.18 164.65,-18.28"/>
<polygon fill="#63b8ff" stroke="#63b8ff" points="165.01,-21.76 174.54,-17.14 164.21,-14.81 165.01,-21.76"/>
</a>
</g>
</g>
</g>
</svg>
