<?xml version="1.0" encoding="UTF-8" standalone="no"?>
<!DOCTYPE svg PUBLIC "-//W3C//DTD SVG 1.1//EN"
 "http://www.w3.org/Graphics/SVG/1.1/DTD/svg11.dtd">
<!-- Generated by graphviz version 11.0.0 (20240428.1522)
 -->
<!-- Title: GLESC::ECS::ComponentManager::getComponent Pages: 1 -->
<svg width="585pt" height="40pt"
 viewBox="0.00 0.00 584.75 40.00" xmlns="http://www.w3.org/2000/svg" xmlns:xlink="http://www.w3.org/1999/xlink">
<g id="graph0" class="graph" transform="scale(1 1) rotate(0) translate(4 36)">
<title>GLESC::ECS::ComponentManager::getComponent</title>
<!-- Node1 -->
<g id="Node000001" class="node">
<title>Node1</title>
<g id="a_Node000001"><a xlink:title="Get the component of an entity by its ID.">
<polygon fill="#999999" stroke="#666666" points="168.25,-32 0,-32 0,0 168.25,0 168.25,-32"/>
<text text-anchor="start" x="8" y="-18.5" font-family="Helvetica,sans-Serif" font-size="10.00">GLESC::ECS::ComponentManager</text>
<text text-anchor="middle" x="84.12" y="-6.5" font-family="Helvetica,sans-Serif" font-size="10.00">::getComponent</text>
</a>
</g>
</g>
<!-- Node2 -->
<g id="Node000002" class="node">
<title>Node2</title>
<g id="a_Node000002"><a xlink:href="class_g_l_e_s_c_1_1_e_c_s_1_1_component_manager.html#ab06d3e4aecbf882b3f75fa4943f561f2" target="_top" xlink:title="Get the name of a component by its ID.">
<polygon fill="white" stroke="#666666" points="372.5,-32 204.25,-32 204.25,0 372.5,0 372.5,-32"/>
<text text-anchor="start" x="212.25" y="-18.5" font-family="Helvetica,sans-Serif" font-size="10.00">GLESC::ECS::ComponentManager</text>
<text text-anchor="middle" x="288.38" y="-6.5" font-family="Helvetica,sans-Serif" font-size="10.00">::getComponentName</text>
</a>
</g>
</g>
<!-- Node1&#45;&gt;Node2 -->
<g id="edge1_Node000001_Node000002" class="edge">
<title>Node1&#45;&gt;Node2</title>
<g id="a_edge1_Node000001_Node000002"><a xlink:title=" ">
<path fill="none" stroke="#63b8ff" d="M168.56,-16C176.47,-16 184.53,-16 192.54,-16"/>
<polygon fill="#63b8ff" stroke="#63b8ff" points="192.3,-19.5 202.3,-16 192.3,-12.5 192.3,-19.5"/>
</a>
</g>
</g>
<!-- Node3 -->
<g id="Node000003" class="node">
<title>Node3</title>
<g id="a_Node000003"><a xlink:href="class_g_l_e_s_c_1_1_e_c_s_1_1_component_manager.html#af4b8c65d69d17052413005a7402bf116" target="_top" xlink:title="Check if a component is registered.">
<polygon fill="white" stroke="#666666" points="576.75,-32 408.5,-32 408.5,0 576.75,0 576.75,-32"/>
<text text-anchor="start" x="416.5" y="-18.5" font-family="Helvetica,sans-Serif" font-size="10.00">GLESC::ECS::ComponentManager</text>
<text text-anchor="middle" x="492.62" y="-6.5" font-family="Helvetica,sans-Serif" font-size="10.00">::isComponentRegistered</text>
</a>
</g>
</g>
<!-- Node2&#45;&gt;Node3 -->
<g id="edge2_Node000002_Node000003" class="edge">
<title>Node2&#45;&gt;Node3</title>
<g id="a_edge2_Node000002_Node000003"><a xlink:title=" ">
<path fill="none" stroke="#63b8ff" d="M372.81,-16C380.72,-16 388.78,-16 396.79,-16"/>
<polygon fill="#63b8ff" stroke="#63b8ff" points="396.55,-19.5 406.55,-16 396.55,-12.5 396.55,-19.5"/>
</a>
</g>
</g>
</g>
</svg>
