<?xml version="1.0" encoding="UTF-8" standalone="no"?>
<!DOCTYPE svg PUBLIC "-//W3C//DTD SVG 1.1//EN"
 "http://www.w3.org/Graphics/SVG/1.1/DTD/svg11.dtd">
<!-- Generated by graphviz version 11.0.0 (20240428.1522)
 -->
<!-- Title: GLESC::Render::Mesh::addTris Pages: 1 -->
<svg width="768pt" height="96pt"
 viewBox="0.00 0.00 768.25 96.00" xmlns="http://www.w3.org/2000/svg" xmlns:xlink="http://www.w3.org/1999/xlink">
<g id="graph0" class="graph" transform="scale(1 1) rotate(0) translate(4 92)">
<title>GLESC::Render::Mesh::addTris</title>
<!-- Node1 -->
<g id="Node000001" class="node">
<title>Node1</title>
<g id="a_Node000001"><a xlink:title="Adds a tris to the mesh, tris are defined by 3 vertices.">
<polygon fill="#999999" stroke="#666666" points="115.75,-63 0,-63 0,-31 115.75,-31 115.75,-63"/>
<text text-anchor="start" x="8" y="-49.5" font-family="Helvetica,sans-Serif" font-size="10.00">GLESC::Render::Mesh</text>
<text text-anchor="middle" x="57.88" y="-37.5" font-family="Helvetica,sans-Serif" font-size="10.00">::addTris</text>
</a>
</g>
</g>
<!-- Node2 -->
<g id="Node000002" class="node">
<title>Node2</title>
<g id="a_Node000002"><a xlink:href="class_g_l_e_s_c_1_1_render_1_1_mesh.html#ad2308e9137f51614b5d46416bc01deef" target="_top" xlink:title="Adds a tris to the mesh, tris are defined by 3 vertices.">
<polygon fill="white" stroke="#666666" points="267.5,-32 151.75,-32 151.75,0 267.5,0 267.5,-32"/>
<text text-anchor="start" x="159.75" y="-18.5" font-family="Helvetica,sans-Serif" font-size="10.00">GLESC::Render::Mesh</text>
<text text-anchor="middle" x="209.62" y="-6.5" font-family="Helvetica,sans-Serif" font-size="10.00">::addTris</text>
</a>
</g>
</g>
<!-- Node1&#45;&gt;Node2 -->
<g id="edge1_Node000001_Node000002" class="edge">
<title>Node1&#45;&gt;Node2</title>
<g id="a_edge1_Node000001_Node000002"><a xlink:title=" ">
<path fill="none" stroke="#63b8ff" d="M115.92,-35.19C123.99,-33.52 132.35,-31.79 140.6,-30.08"/>
<polygon fill="#63b8ff" stroke="#63b8ff" points="141.18,-33.54 150.26,-28.08 139.76,-26.68 141.18,-33.54"/>
</a>
</g>
</g>
<!-- Node3 -->
<g id="Node000003" class="node">
<title>Node3</title>
<g id="a_Node000003"><a xlink:href="class_g_l_e_s_c_1_1_render_1_1_mesh.html#a7d4ee0ef7799514b465c2e4f1e6806dc" target="_top" xlink:title="Adds a vertex to the mesh.">
<polygon fill="white" stroke="#666666" points="419.25,-88 303.5,-88 303.5,-56 419.25,-56 419.25,-88"/>
<text text-anchor="start" x="311.5" y="-74.5" font-family="Helvetica,sans-Serif" font-size="10.00">GLESC::Render::Mesh</text>
<text text-anchor="middle" x="361.38" y="-62.5" font-family="Helvetica,sans-Serif" font-size="10.00">::addVertex</text>
</a>
</g>
</g>
<!-- Node1&#45;&gt;Node3 -->
<g id="edge7_Node000001_Node000003" class="edge">
<title>Node1&#45;&gt;Node3</title>
<g id="a_edge7_Node000001_Node000003"><a xlink:title=" ">
<path fill="none" stroke="#63b8ff" d="M115.78,-54.96C127.65,-56.45 140.1,-57.89 151.75,-59 198.37,-63.46 251.01,-66.73 291.75,-68.87"/>
<polygon fill="#63b8ff" stroke="#63b8ff" points="291.5,-72.36 301.67,-69.38 291.86,-65.37 291.5,-72.36"/>
</a>
</g>
</g>
<!-- Node2&#45;&gt;Node2 -->
<g id="edge2_Node000002_Node000002" class="edge">
<title>Node2&#45;&gt;Node2</title>
<g id="a_edge2_Node000002_Node000002"><a xlink:title=" ">
<path fill="none" stroke="#63b8ff" d="M182.53,-32.44C177.48,-41.58 186.51,-50 209.62,-50 222.27,-50 230.7,-47.48 234.91,-43.71"/>
<polygon fill="#63b8ff" stroke="#63b8ff" points="238.35,-44.36 236.48,-33.94 231.44,-43.26 238.35,-44.36"/>
</a>
</g>
</g>
<!-- Node2&#45;&gt;Node3 -->
<g id="edge3_Node000002_Node000003" class="edge">
<title>Node2&#45;&gt;Node3</title>
<g id="a_edge3_Node000002_Node000003"><a xlink:title=" ">
<path fill="none" stroke="#63b8ff" d="M254.74,-32.5C270.67,-38.45 288.84,-45.25 305.57,-51.5"/>
<polygon fill="#63b8ff" stroke="#63b8ff" points="304.3,-54.77 314.89,-54.99 306.75,-48.21 304.3,-54.77"/>
</a>
</g>
</g>
<!-- Node4 -->
<g id="Node000004" class="node">
<title>Node4</title>
<g id="a_Node000004"><a xlink:href="class_g_l_e_s_c_1_1_render_1_1_mesh.html#a78f09fa1a41f6e3ec496aae31c671e92" target="_top" xlink:title="Helper function to automatically calculate the normal of a face with 3 points.">
<polygon fill="white" stroke="#666666" points="419.25,-32 303.5,-32 303.5,0 419.25,0 419.25,-32"/>
<text text-anchor="start" x="311.5" y="-18.5" font-family="Helvetica,sans-Serif" font-size="10.00">GLESC::Render::Mesh</text>
<text text-anchor="middle" x="361.38" y="-6.5" font-family="Helvetica,sans-Serif" font-size="10.00">::calculateNormal</text>
</a>
</g>
</g>
<!-- Node2&#45;&gt;Node4 -->
<g id="edge4_Node000002_Node000004" class="edge">
<title>Node2&#45;&gt;Node4</title>
<g id="a_edge4_Node000002_Node000004"><a xlink:title=" ">
<path fill="none" stroke="#63b8ff" d="M267.67,-16C275.64,-16 283.91,-16 292.07,-16"/>
<polygon fill="#63b8ff" stroke="#63b8ff" points="291.98,-19.5 301.98,-16 291.98,-12.5 291.98,-19.5"/>
</a>
</g>
</g>
<!-- Node5 -->
<g id="Node000005" class="node">
<title>Node5</title>
<g id="a_Node000005"><a xlink:href="class_g_l_e_s_c_1_1_math_1_1_vector.html#ac4fe912b3001e4fad684c2cd4c56cf83" target="_top" xlink:title="Calculates the cross product of two vectors.">
<polygon fill="white" stroke="#666666" points="566.5,-32 455.25,-32 455.25,0 566.5,0 566.5,-32"/>
<text text-anchor="start" x="463.25" y="-18.5" font-family="Helvetica,sans-Serif" font-size="10.00">GLESC::Math::Vector</text>
<text text-anchor="middle" x="510.88" y="-6.5" font-family="Helvetica,sans-Serif" font-size="10.00">::cross</text>
</a>
</g>
</g>
<!-- Node4&#45;&gt;Node5 -->
<g id="edge5_Node000004_Node000005" class="edge">
<title>Node4&#45;&gt;Node5</title>
<g id="a_edge5_Node000004_Node000005"><a xlink:title=" ">
<path fill="none" stroke="#63b8ff" d="M419.4,-16C427.34,-16 435.54,-16 443.63,-16"/>
<polygon fill="#63b8ff" stroke="#63b8ff" points="443.42,-19.5 453.42,-16 443.42,-12.5 443.42,-19.5"/>
</a>
</g>
</g>
<!-- Node6 -->
<g id="Node000006" class="node">
<title>Node6</title>
<g id="a_Node000006"><a xlink:href="class_g_l_e_s_c_1_1_math_1_1_vector_algorithms.html#ab041da9d339dfe80b80c6f0bdf5dbfd4" target="_top" xlink:title="Computes the cross product of two vectors.">
<polygon fill="white" stroke="#666666" points="760.25,-32 602.5,-32 602.5,0 760.25,0 760.25,-32"/>
<text text-anchor="start" x="610.5" y="-18.5" font-family="Helvetica,sans-Serif" font-size="10.00">GLESC::Math::VectorAlgorithms</text>
<text text-anchor="middle" x="681.38" y="-6.5" font-family="Helvetica,sans-Serif" font-size="10.00">::crossProduct</text>
</a>
</g>
</g>
<!-- Node5&#45;&gt;Node6 -->
<g id="edge6_Node000005_Node000006" class="edge">
<title>Node5&#45;&gt;Node6</title>
<g id="a_edge6_Node000005_Node000006"><a xlink:title=" ">
<path fill="none" stroke="#63b8ff" d="M566.58,-16C574.38,-16 582.56,-16 590.81,-16"/>
<polygon fill="#63b8ff" stroke="#63b8ff" points="590.56,-19.5 600.56,-16 590.56,-12.5 590.56,-19.5"/>
</a>
</g>
</g>
</g>
</svg>
