<?xml version="1.0" encoding="UTF-8" standalone="no"?>
<!DOCTYPE svg PUBLIC "-//W3C//DTD SVG 1.1//EN"
 "http://www.w3.org/Graphics/SVG/1.1/DTD/svg11.dtd">
<!-- Generated by graphviz version 11.0.0 (20240428.1522)
 -->
<!-- Title: GLESC::Math::Line::setDirection Pages: 1 -->
<svg width="843pt" height="116pt"
 viewBox="0.00 0.00 843.25 116.00" xmlns="http://www.w3.org/2000/svg" xmlns:xlink="http://www.w3.org/1999/xlink">
<g id="graph0" class="graph" transform="scale(1 1) rotate(0) translate(4 112)">
<title>GLESC::Math::Line::setDirection</title>
<!-- Node1 -->
<g id="Node000001" class="node">
<title>Node1</title>
<g id="a_Node000001"><a xlink:title="Set the Direction vector.">
<polygon fill="#999999" stroke="#666666" points="106.75,-92 0,-92 0,-60 106.75,-60 106.75,-92"/>
<text text-anchor="start" x="8" y="-78.5" font-family="Helvetica,sans-Serif" font-size="10.00">GLESC::Math::Line::</text>
<text text-anchor="middle" x="53.38" y="-66.5" font-family="Helvetica,sans-Serif" font-size="10.00">setDirection</text>
</a>
</g>
</g>
<!-- Node2 -->
<g id="Node000002" class="node">
<title>Node2</title>
<g id="a_Node000002"><a xlink:href="class_g_l_e_s_c_1_1_math_1_1_vector.html#a921eb7e96f275d34d7f5f24906a66ec1" target="_top" xlink:title="Normalizes the vector.">
<polygon fill="white" stroke="#666666" points="254,-92 142.75,-92 142.75,-60 254,-60 254,-92"/>
<text text-anchor="start" x="150.75" y="-78.5" font-family="Helvetica,sans-Serif" font-size="10.00">GLESC::Math::Vector</text>
<text text-anchor="middle" x="198.38" y="-66.5" font-family="Helvetica,sans-Serif" font-size="10.00">::normalize</text>
</a>
</g>
</g>
<!-- Node1&#45;&gt;Node2 -->
<g id="edge1_Node000001_Node000002" class="edge">
<title>Node1&#45;&gt;Node2</title>
<g id="a_edge1_Node000001_Node000002"><a xlink:title=" ">
<path fill="none" stroke="#63b8ff" d="M107.22,-76C114.91,-76 122.92,-76 130.85,-76"/>
<polygon fill="#63b8ff" stroke="#63b8ff" points="130.84,-79.5 140.84,-76 130.84,-72.5 130.84,-79.5"/>
</a>
</g>
</g>
<!-- Node3 -->
<g id="Node000003" class="node">
<title>Node3</title>
<g id="a_Node000003"><a xlink:href="class_g_l_e_s_c_1_1_math_1_1_vector_algorithms.html#a7ee5da5ffdabacb6faa895af42dd78c3" target="_top" xlink:title="Normalizes a vector.">
<polygon fill="white" stroke="#666666" points="447.75,-92 290,-92 290,-60 447.75,-60 447.75,-92"/>
<text text-anchor="start" x="298" y="-78.5" font-family="Helvetica,sans-Serif" font-size="10.00">GLESC::Math::VectorAlgorithms</text>
<text text-anchor="middle" x="368.88" y="-66.5" font-family="Helvetica,sans-Serif" font-size="10.00">::normalize</text>
</a>
</g>
</g>
<!-- Node2&#45;&gt;Node3 -->
<g id="edge2_Node000002_Node000003" class="edge">
<title>Node2&#45;&gt;Node3</title>
<g id="a_edge2_Node000002_Node000003"><a xlink:title=" ">
<path fill="none" stroke="#63b8ff" d="M254.08,-76C261.88,-76 270.06,-76 278.31,-76"/>
<polygon fill="#63b8ff" stroke="#63b8ff" points="278.06,-79.5 288.06,-76 278.06,-72.5 278.06,-79.5"/>
</a>
</g>
</g>
<!-- Node4 -->
<g id="Node000004" class="node">
<title>Node4</title>
<g id="a_Node000004"><a xlink:href="namespace_g_l_e_s_c_1_1_math.html#aee25910dbba06d09d9df14d03933ace1" target="_top" xlink:title="Compares two values for equality.">
<polygon fill="white" stroke="#666666" points="609.25,-108 516,-108 516,-88 609.25,-88 609.25,-108"/>
<text text-anchor="middle" x="562.62" y="-94.5" font-family="Helvetica,sans-Serif" font-size="10.00">GLESC::Math::eq</text>
</a>
</g>
</g>
<!-- Node3&#45;&gt;Node4 -->
<g id="edge3_Node000003_Node000004" class="edge">
<title>Node3&#45;&gt;Node4</title>
<g id="a_edge3_Node000003_Node000004"><a xlink:title=" ">
<path fill="none" stroke="#63b8ff" d="M448.14,-84.98C467,-87.14 486.8,-89.42 504.49,-91.44"/>
<polygon fill="#63b8ff" stroke="#63b8ff" points="503.94,-94.9 514.27,-92.57 504.73,-87.95 503.94,-94.9"/>
</a>
</g>
</g>
<!-- Node6 -->
<g id="Node000006" class="node">
<title>Node6</title>
<g id="a_Node000006"><a xlink:href="class_g_l_e_s_c_1_1_math_1_1_vector_algorithms.html#a96acaa670e780132720dd3ea6a6cdf97" target="_top" xlink:title="Computes the length of a vector.">
<polygon fill="white" stroke="#666666" points="641.5,-70 483.75,-70 483.75,-38 641.5,-38 641.5,-70"/>
<text text-anchor="start" x="491.75" y="-56.5" font-family="Helvetica,sans-Serif" font-size="10.00">GLESC::Math::VectorAlgorithms</text>
<text text-anchor="middle" x="562.62" y="-44.5" font-family="Helvetica,sans-Serif" font-size="10.00">::length</text>
</a>
</g>
</g>
<!-- Node3&#45;&gt;Node6 -->
<g id="edge5_Node000003_Node000006" class="edge">
<title>Node3&#45;&gt;Node6</title>
<g id="a_edge5_Node000003_Node000006"><a xlink:title=" ">
<path fill="none" stroke="#63b8ff" d="M448.14,-67.02C456.03,-66.12 464.07,-65.19 472.06,-64.28"/>
<polygon fill="#63b8ff" stroke="#63b8ff" points="472.26,-67.78 481.79,-63.16 471.46,-60.82 472.26,-67.78"/>
</a>
</g>
</g>
<!-- Node5 -->
<g id="Node000005" class="node">
<title>Node5</title>
<g id="a_Node000005"><a xlink:href="namespace_g_l_e_s_c_1_1_math.html#acd429163efe906cd22916cc75ccb2421" target="_top" xlink:title="Epsilon getter with precision of a given template type.">
<polygon fill="white" stroke="#666666" points="813.12,-108 699.62,-108 699.62,-88 813.12,-88 813.12,-108"/>
<text text-anchor="middle" x="756.38" y="-94.5" font-family="Helvetica,sans-Serif" font-size="10.00">GLESC::Math::epsilon</text>
</a>
</g>
</g>
<!-- Node4&#45;&gt;Node5 -->
<g id="edge4_Node000004_Node000005" class="edge">
<title>Node4&#45;&gt;Node5</title>
<g id="a_edge4_Node000004_Node000005"><a xlink:title=" ">
<path fill="none" stroke="#63b8ff" d="M609.55,-98C633.01,-98 661.99,-98 687.93,-98"/>
<polygon fill="#63b8ff" stroke="#63b8ff" points="687.7,-101.5 697.7,-98 687.7,-94.5 687.7,-101.5"/>
</a>
</g>
</g>
<!-- Node7 -->
<g id="Node000007" class="node">
<title>Node7</title>
<g id="a_Node000007"><a xlink:href="class_g_l_e_s_c_1_1_math_1_1_vector_algorithms.html#ae45bcff9b53fb60d513c53823418d97b" target="_top" xlink:title="Computes the dot product of two vectors.">
<polygon fill="white" stroke="#666666" points="835.25,-70 677.5,-70 677.5,-38 835.25,-38 835.25,-70"/>
<text text-anchor="start" x="685.5" y="-56.5" font-family="Helvetica,sans-Serif" font-size="10.00">GLESC::Math::VectorAlgorithms</text>
<text text-anchor="middle" x="756.38" y="-44.5" font-family="Helvetica,sans-Serif" font-size="10.00">::dotProduct</text>
</a>
</g>
</g>
<!-- Node6&#45;&gt;Node7 -->
<g id="edge6_Node000006_Node000007" class="edge">
<title>Node6&#45;&gt;Node7</title>
<g id="a_edge6_Node000006_Node000007"><a xlink:title=" ">
<path fill="none" stroke="#63b8ff" d="M641.89,-54C649.69,-54 657.64,-54 665.54,-54"/>
<polygon fill="#63b8ff" stroke="#63b8ff" points="665.53,-57.5 675.53,-54 665.53,-50.5 665.53,-57.5"/>
</a>
</g>
</g>
<!-- Node8 -->
<g id="Node000008" class="node">
<title>Node8</title>
<g id="a_Node000008"><a xlink:href="namespace_g_l_e_s_c_1_1_math.html#ab2316a2512c43c18e29709201adf3fe5" target="_top" xlink:title="Calculates the square root of a value.">
<polygon fill="white" stroke="#666666" points="806,-20 706.75,-20 706.75,0 806,0 806,-20"/>
<text text-anchor="middle" x="756.38" y="-6.5" font-family="Helvetica,sans-Serif" font-size="10.00">GLESC::Math::sqrt</text>
</a>
</g>
</g>
<!-- Node6&#45;&gt;Node8 -->
<g id="edge7_Node000006_Node000008" class="edge">
<title>Node6&#45;&gt;Node8</title>
<g id="a_edge7_Node000006_Node000008"><a xlink:title=" ">
<path fill="none" stroke="#63b8ff" d="M635.3,-37.55C656.2,-32.76 678.75,-27.58 698.6,-23.03"/>
<polygon fill="#63b8ff" stroke="#63b8ff" points="699.19,-26.48 708.16,-20.84 697.63,-19.66 699.19,-26.48"/>
</a>
</g>
</g>
</g>
</svg>
