<?xml version="1.0" encoding="UTF-8" standalone="no"?>
<!DOCTYPE svg PUBLIC "-//W3C//DTD SVG 1.1//EN"
 "http://www.w3.org/Graphics/SVG/1.1/DTD/svg11.dtd">
<!-- Generated by graphviz version 11.0.0 (20240428.1522)
 -->
<!-- Title: GLESC::Render::MeshFactory::cube Pages: 1 -->
<!--zoomable 190 -->

<svg id="main" version="1.1" xmlns="http://www.w3.org/2000/svg" xmlns:xlink="http://www.w3.org/1999/xlink" xml:space="preserve" onload="init(evt)">
<style type="text/css"><![CDATA[
.node, .edge {opacity: 0.7;}
.node.selected, .edge.selected {opacity: 1;}
.edge:hover path { stroke: red; }
.edge:hover polygon { stroke: red; fill: red; }
]]></style>

<defs>
  <circle id="rim" cx="0" cy="0" r="7"/>
  <circle id="rim2" cx="0" cy="0" r="3.5"/>
  <g id="zoomPlus">
    <use xlink:href="#rim" fill="#404040"><set attributeName="fill" to="#808080" begin="zoomplus.mouseover" end="zoomplus.mouseout"/></use>
    <path d="M-4,0h8M0,-4v8" fill="none" stroke="white" stroke-width="1.5" pointer-events="none"/>
  </g>
  <g id="zoomMin">
    <use xlink:href="#rim" fill="#404040"><set attributeName="fill" to="#808080" begin="zoomminus.mouseover" end="zoomminus.mouseout"/></use>
    <path d="M-4,0h8" fill="none" stroke="white" stroke-width="1.5" pointer-events="none"/>
  </g>
  <g id="arrowUp" transform="translate(30 24)">
    <use xlink:href="#rim"/>
    <path pointer-events="none" fill="none" stroke="white" stroke-width="1.5" d="M0,-3.0v7 M-2.5,-0.5L0,-3.0L2.5,-0.5"/>
  </g>
  <g id="arrowRight" transform="rotate(90) translate(36 -43)">
    <use xlink:href="#rim"/>
    <path pointer-events="none" fill="none" stroke="white" stroke-width="1.5" d="M0,-3.0v7 M-2.5,-0.5L0,-3.0L2.5,-0.5"/>
  </g>
  <g id="arrowDown" transform="rotate(180) translate(-30 -48)">
    <use xlink:href="#rim"/>
    <path pointer-events="none" fill="none" stroke="white" stroke-width="1.5" d="M0,-3.0v7 M-2.5,-0.5L0,-3.0L2.5,-0.5"/>
  </g>
  <g id="arrowLeft" transform="rotate(270) translate(-36 17)">
    <use xlink:href="#rim"/>
    <path pointer-events="none" fill="none" stroke="white" stroke-width="1.5" d="M0,-3.0v7 M-2.5,-0.5L0,-3.0L2.5,-0.5"/>
  </g>
  <g id="resetDef">
    <use xlink:href="#rim2" fill="#404040"><set attributeName="fill" to="#808080" begin="reset.mouseover" end="reset.mouseout"/></use>
  </g>
</defs>
<script type="application/ecmascript">
var viewWidth = 1027;
var viewHeight = 190;
var sectionId = 'dynsection-0';
</script>
<script type="application/ecmascript" xlink:href="svg.min.js"/>
<svg id="graph" class="graph">
<g id="viewport">
<title>GLESC::Render::MeshFactory::cube</title>
<!-- Node1 -->
<g id="Node000001" class="node">
<title>Node1</title>
<g id="a_Node000001"><a xlink:title="Creates a cube mesh given a color and a radius.">
<polygon fill="#999999" stroke="#666666" points="148.75,-82 0,-82 0,-50 148.75,-50 148.75,-82"/>
<text text-anchor="start" x="8" y="-68.5" font-family="Helvetica,sans-Serif" font-size="10.00">GLESC::Render::MeshFactory</text>
<text text-anchor="middle" x="74.38" y="-56.5" font-family="Helvetica,sans-Serif" font-size="10.00">::cube</text>
</a>
</g>
</g>
<!-- Node2 -->
<g id="Node000002" class="node">
<title>Node2</title>
<g id="a_Node000002"><a xlink:href="class_g_l_e_s_c_1_1_render_1_1_mesh_factory.html#a871c80a56dc8888b526df44b1ac49dca" target="_top" xlink:title="Creates a cuboid mesh given a width, height, depth and a color.">
<polygon fill="white" stroke="#666666" points="333.5,-82 184.75,-82 184.75,-50 333.5,-50 333.5,-82"/>
<text text-anchor="start" x="192.75" y="-68.5" font-family="Helvetica,sans-Serif" font-size="10.00">GLESC::Render::MeshFactory</text>
<text text-anchor="middle" x="259.12" y="-56.5" font-family="Helvetica,sans-Serif" font-size="10.00">::cuboid</text>
</a>
</g>
</g>
<!-- Node1&#45;&gt;Node2 -->
<g id="edge1_Node000001_Node000002" class="edge">
<title>Node1&#45;&gt;Node2</title>
<g id="a_edge1_Node000001_Node000002"><a xlink:title=" ">
<path fill="none" stroke="#63b8ff" d="M149.18,-66C156.97,-66 164.93,-66 172.83,-66"/>
<polygon fill="#63b8ff" stroke="#63b8ff" points="172.83,-69.5 182.83,-66 172.83,-62.5 172.83,-69.5"/>
</a>
</g>
</g>
<!-- Node3 -->
<g id="Node000003" class="node">
<title>Node3</title>
<g id="a_Node000003"><a xlink:href="class_g_l_e_s_c_1_1_render_1_1_mesh.html#a2ad7899a1de4ee74a10854158b601a2c" target="_top" xlink:title="Adds a quad to the mesh, quads are defined by 4 vertices.">
<polygon fill="white" stroke="#666666" points="485.25,-132 369.5,-132 369.5,-100 485.25,-100 485.25,-132"/>
<text text-anchor="start" x="377.5" y="-118.5" font-family="Helvetica,sans-Serif" font-size="10.00">GLESC::Render::Mesh</text>
<text text-anchor="middle" x="427.38" y="-106.5" font-family="Helvetica,sans-Serif" font-size="10.00">::addQuad</text>
</a>
</g>
</g>
<!-- Node2&#45;&gt;Node3 -->
<g id="edge2_Node000002_Node000003" class="edge">
<title>Node2&#45;&gt;Node3</title>
<g id="a_edge2_Node000002_Node000003"><a xlink:title=" ">
<path fill="none" stroke="#63b8ff" d="M314.56,-82.37C329.27,-86.8 345.34,-91.63 360.6,-96.22"/>
<polygon fill="#63b8ff" stroke="#63b8ff" points="359.5,-99.54 370.08,-99.07 361.51,-92.84 359.5,-99.54"/>
</a>
</g>
</g>
<!-- Node8 -->
<g id="Node000008" class="node">
<title>Node8</title>
<g id="a_Node000008"><a xlink:href="class_g_l_e_s_c_1_1_render_1_1_mesh.html#ade8b0c4ff0b02d0484e7d0877880e918" target="_top" xlink:title=" ">
<polygon fill="white" stroke="#666666" points="485.25,-82 369.5,-82 369.5,-50 485.25,-50 485.25,-82"/>
<text text-anchor="start" x="377.5" y="-68.5" font-family="Helvetica,sans-Serif" font-size="10.00">GLESC::Render::Mesh</text>
<text text-anchor="middle" x="427.38" y="-56.5" font-family="Helvetica,sans-Serif" font-size="10.00">::finishBuilding</text>
</a>
</g>
</g>
<!-- Node2&#45;&gt;Node8 -->
<g id="edge8_Node000002_Node000008" class="edge">
<title>Node2&#45;&gt;Node8</title>
<g id="a_edge8_Node000002_Node000008"><a xlink:title=" ">
<path fill="none" stroke="#63b8ff" d="M333.53,-66C341.54,-66 349.66,-66 357.61,-66"/>
<polygon fill="#63b8ff" stroke="#63b8ff" points="357.58,-69.5 367.58,-66 357.58,-62.5 357.58,-69.5"/>
</a>
</g>
</g>
<!-- Node10 -->
<g id="Node000010" class="node">
<title>Node10</title>
<g id="a_Node000010"><a xlink:href="class_g_l_e_s_c_1_1_render_1_1_mesh.html#a9d11210ab41990859c0885c1e47603d9" target="_top" xlink:title="Starts the building of the mesh.">
<polygon fill="white" stroke="#666666" points="485.25,-32 369.5,-32 369.5,0 485.25,0 485.25,-32"/>
<text text-anchor="start" x="377.5" y="-18.5" font-family="Helvetica,sans-Serif" font-size="10.00">GLESC::Render::Mesh</text>
<text text-anchor="middle" x="427.38" y="-6.5" font-family="Helvetica,sans-Serif" font-size="10.00">::startBuilding</text>
</a>
</g>
</g>
<!-- Node2&#45;&gt;Node10 -->
<g id="edge10_Node000002_Node000010" class="edge">
<title>Node2&#45;&gt;Node10</title>
<g id="a_edge10_Node000002_Node000010"><a xlink:title=" ">
<path fill="none" stroke="#63b8ff" d="M314.56,-49.63C329.27,-45.2 345.34,-40.37 360.6,-35.78"/>
<polygon fill="#63b8ff" stroke="#63b8ff" points="361.51,-39.16 370.08,-32.93 359.5,-32.46 361.51,-39.16"/>
</a>
</g>
</g>
<!-- Node3&#45;&gt;Node3 -->
<g id="edge3_Node000003_Node000003" class="edge">
<title>Node3&#45;&gt;Node3</title>
<g id="a_edge3_Node000003_Node000003"><a xlink:title=" ">
<path fill="none" stroke="#63b8ff" d="M397.34,-132.44C391.73,-141.58 401.74,-150 427.38,-150 441.39,-150 450.74,-147.48 455.41,-143.71"/>
<polygon fill="#63b8ff" stroke="#63b8ff" points="458.85,-144.39 457.15,-133.93 451.95,-143.17 458.85,-144.39"/>
</a>
</g>
</g>
<!-- Node4 -->
<g id="Node000004" class="node">
<title>Node4</title>
<g id="a_Node000004"><a xlink:href="class_g_l_e_s_c_1_1_render_1_1_mesh.html#a7d4ee0ef7799514b465c2e4f1e6806dc" target="_top" xlink:title="Adds a vertex to the mesh.">
<polygon fill="white" stroke="#666666" points="657.25,-182 541.5,-182 541.5,-150 657.25,-150 657.25,-182"/>
<text text-anchor="start" x="549.5" y="-168.5" font-family="Helvetica,sans-Serif" font-size="10.00">GLESC::Render::Mesh</text>
<text text-anchor="middle" x="599.38" y="-156.5" font-family="Helvetica,sans-Serif" font-size="10.00">::addVertex</text>
</a>
</g>
</g>
<!-- Node3&#45;&gt;Node4 -->
<g id="edge4_Node000003_Node000004" class="edge">
<title>Node3&#45;&gt;Node4</title>
<g id="a_edge4_Node000003_Node000004"><a xlink:title=" ">
<path fill="none" stroke="#63b8ff" d="M484.04,-132.37C499.22,-136.84 515.83,-141.72 531.57,-146.35"/>
<polygon fill="#63b8ff" stroke="#63b8ff" points="530.26,-149.61 540.84,-149.08 532.24,-142.9 530.26,-149.61"/>
</a>
</g>
</g>
<!-- Node5 -->
<g id="Node000005" class="node">
<title>Node5</title>
<g id="a_Node000005"><a xlink:href="class_g_l_e_s_c_1_1_render_1_1_mesh.html#a78f09fa1a41f6e3ec496aae31c671e92" target="_top" xlink:title="Helper function to automatically calculate the normal of a face with 3 points.">
<polygon fill="white" stroke="#666666" points="657.25,-132 541.5,-132 541.5,-100 657.25,-100 657.25,-132"/>
<text text-anchor="start" x="549.5" y="-118.5" font-family="Helvetica,sans-Serif" font-size="10.00">GLESC::Render::Mesh</text>
<text text-anchor="middle" x="599.38" y="-106.5" font-family="Helvetica,sans-Serif" font-size="10.00">::calculateNormal</text>
</a>
</g>
</g>
<!-- Node3&#45;&gt;Node5 -->
<g id="edge5_Node000003_Node000005" class="edge">
<title>Node3&#45;&gt;Node5</title>
<g id="a_edge5_Node000003_Node000005"><a xlink:title=" ">
<path fill="none" stroke="#63b8ff" d="M485.46,-116C499.75,-116 515.23,-116 530.02,-116"/>
<polygon fill="#63b8ff" stroke="#63b8ff" points="529.64,-119.5 539.64,-116 529.64,-112.5 529.64,-119.5"/>
</a>
</g>
</g>
<!-- Node6 -->
<g id="Node000006" class="node">
<title>Node6</title>
<g id="a_Node000006"><a xlink:href="class_g_l_e_s_c_1_1_math_1_1_vector.html#ac4fe912b3001e4fad684c2cd4c56cf83" target="_top" xlink:title="Calculates the cross product of two vectors.">
<polygon fill="white" stroke="#666666" points="824.75,-132 713.5,-132 713.5,-100 824.75,-100 824.75,-132"/>
<text text-anchor="start" x="721.5" y="-118.5" font-family="Helvetica,sans-Serif" font-size="10.00">GLESC::Math::Vector</text>
<text text-anchor="middle" x="769.12" y="-106.5" font-family="Helvetica,sans-Serif" font-size="10.00">::cross</text>
</a>
</g>
</g>
<!-- Node5&#45;&gt;Node6 -->
<g id="edge6_Node000005_Node000006" class="edge">
<title>Node5&#45;&gt;Node6</title>
<g id="a_edge6_Node000005_Node000006"><a xlink:title=" ">
<path fill="none" stroke="#63b8ff" d="M657.64,-116C671.79,-116 687.07,-116 701.63,-116"/>
<polygon fill="#63b8ff" stroke="#63b8ff" points="701.59,-119.5 711.59,-116 701.59,-112.5 701.59,-119.5"/>
</a>
</g>
</g>
<!-- Node7 -->
<g id="Node000007" class="node">
<title>Node7</title>
<g id="a_Node000007"><a xlink:href="class_g_l_e_s_c_1_1_math_1_1_vector_algorithms.html#ab041da9d339dfe80b80c6f0bdf5dbfd4" target="_top" xlink:title="Computes the cross product of two vectors.">
<polygon fill="white" stroke="#666666" points="1018.5,-132 860.75,-132 860.75,-100 1018.5,-100 1018.5,-132"/>
<text text-anchor="start" x="868.75" y="-118.5" font-family="Helvetica,sans-Serif" font-size="10.00">GLESC::Math::VectorAlgorithms</text>
<text text-anchor="middle" x="939.62" y="-106.5" font-family="Helvetica,sans-Serif" font-size="10.00">::crossProduct</text>
</a>
</g>
</g>
<!-- Node6&#45;&gt;Node7 -->
<g id="edge7_Node000006_Node000007" class="edge">
<title>Node6&#45;&gt;Node7</title>
<g id="a_edge7_Node000006_Node000007"><a xlink:title=" ">
<path fill="none" stroke="#63b8ff" d="M824.83,-116C832.63,-116 840.81,-116 849.06,-116"/>
<polygon fill="#63b8ff" stroke="#63b8ff" points="848.81,-119.5 858.81,-116 848.81,-112.5 848.81,-119.5"/>
</a>
</g>
</g>
<!-- Node9 -->
<g id="Node000009" class="node">
<title>Node9</title>
<g id="a_Node000009"><a xlink:href="class_g_l_e_s_c_1_1_math_1_1_bounding_volume.html#a61c5ed29689b97d66a06eaf16b8dfc36" target="_top" xlink:title="Updates the bounding volume to fit the points it encloses.">
<polygon fill="white" stroke="#666666" points="677.5,-82 521.25,-82 521.25,-50 677.5,-50 677.5,-82"/>
<text text-anchor="start" x="529.25" y="-68.5" font-family="Helvetica,sans-Serif" font-size="10.00">GLESC::Math::BoundingVolume</text>
<text text-anchor="middle" x="599.38" y="-56.5" font-family="Helvetica,sans-Serif" font-size="10.00">::updateBoundingBox</text>
</a>
</g>
</g>
<!-- Node8&#45;&gt;Node9 -->
<g id="edge9_Node000008_Node000009" class="edge">
<title>Node8&#45;&gt;Node9</title>
<g id="a_edge9_Node000008_Node000009"><a xlink:title=" ">
<path fill="none" stroke="#63b8ff" d="M485.46,-66C493.19,-66 501.28,-66 509.41,-66"/>
<polygon fill="#63b8ff" stroke="#63b8ff" points="509.39,-69.5 519.39,-66 509.39,-62.5 509.39,-69.5"/>
</a>
</g>
</g>
</g>
</svg>

<g id="navigator" transform="translate(0 0)" fill="#404254">
  <rect fill="#f2f5e9" fill-opacity="0.5" stroke="#606060" stroke-width=".5" x="0" y="0" width="60" height="60"/>
  <use id="zoomplus" xlink:href="#zoomPlus" x="17" y="9" onmousedown="handleZoom(evt,'in')"/>
  <use id="zoomminus" xlink:href="#zoomMin" x="42" y="9" onmousedown="handleZoom(evt,'out')"/>
  <use id="reset" xlink:href="#resetDef" x="30" y="36" onmousedown="handleReset()"/>
   <use id="arrowup" xlink:href="#arrowUp" x="0" y="0" onmousedown="handlePan(0,-1)"/>
  <use id="arrowright" xlink:href="#arrowRight" x="0" y="0" onmousedown="handlePan(1,0)"/>
  <use id="arrowdown" xlink:href="#arrowDown" x="0" y="0" onmousedown="handlePan(0,1)"/>
  <use id="arrowleft" xlink:href="#arrowLeft" x="0" y="0" onmousedown="handlePan(-1,0)"/>
</g>
<svg viewBox="0 0 15 15" width="100%" height="30px" preserveAspectRatio="xMaxYMin meet">
 <g id="arrow_out" transform="scale(0.3 0.3)">
  <a xlink:href="class_g_l_e_s_c_1_1_render_1_1_mesh_factory_a4b07130768fe0a8e6720aa0550a7b5dd_cgraph_org.svg" target="_base">
   <rect id="button" ry="5" rx="5" y="6" x="6" height="38" width="38"
        fill="#f2f5e9" fill-opacity="0.5" stroke="#606060" stroke-width="1.0"/>
   <path id="arrow"
     d="M 11.500037,31.436501 C 11.940474,20.09759 22.043105,11.32322 32.158766,21.979434 L 37.068811,17.246167 C 37.068811,17.246167 37.088388,32 37.088388,32 L 22.160133,31.978069 C 22.160133,31.978069 26.997745,27.140456 26.997745,27.140456 C 18.528582,18.264221 13.291696,25.230495 11.500037,31.436501 z"
     style="fill:#404040;"/>
  </a>
 </g>
</svg>

<style type='text/css'>
<![CDATA[
[data-mouse-over-selected='false'] { opacity: 0.7; }
[data-mouse-over-selected='true']  { opacity: 1.0; }
]]>
</style>
<script type="application/ecmascript"><![CDATA[
document.addEventListener('DOMContentLoaded', (event) => {
  highlightEdges();
  highlightAdjacentNodes();
});
]]></script>
</svg>
