<?xml version="1.0" encoding="UTF-8" standalone="no"?>
<!DOCTYPE svg PUBLIC "-//W3C//DTD SVG 1.1//EN"
 "http://www.w3.org/Graphics/SVG/1.1/DTD/svg11.dtd">
<!-- Generated by graphviz version 11.0.0 (20240428.1522)
 -->
<!-- Title: GLESC::Math::MatrixAlgorithms::isValidViewMatrix Pages: 1 -->
<!--zoomable 228 -->

<svg id="main" version="1.1" xmlns="http://www.w3.org/2000/svg" xmlns:xlink="http://www.w3.org/1999/xlink" xml:space="preserve" onload="init(evt)">
<style type="text/css"><![CDATA[
.node, .edge {opacity: 0.7;}
.node.selected, .edge.selected {opacity: 1;}
.edge:hover path { stroke: red; }
.edge:hover polygon { stroke: red; fill: red; }
]]></style>

<defs>
  <circle id="rim" cx="0" cy="0" r="7"/>
  <circle id="rim2" cx="0" cy="0" r="3.5"/>
  <g id="zoomPlus">
    <use xlink:href="#rim" fill="#404040"><set attributeName="fill" to="#808080" begin="zoomplus.mouseover" end="zoomplus.mouseout"/></use>
    <path d="M-4,0h8M0,-4v8" fill="none" stroke="white" stroke-width="1.5" pointer-events="none"/>
  </g>
  <g id="zoomMin">
    <use xlink:href="#rim" fill="#404040"><set attributeName="fill" to="#808080" begin="zoomminus.mouseover" end="zoomminus.mouseout"/></use>
    <path d="M-4,0h8" fill="none" stroke="white" stroke-width="1.5" pointer-events="none"/>
  </g>
  <g id="arrowUp" transform="translate(30 24)">
    <use xlink:href="#rim"/>
    <path pointer-events="none" fill="none" stroke="white" stroke-width="1.5" d="M0,-3.0v7 M-2.5,-0.5L0,-3.0L2.5,-0.5"/>
  </g>
  <g id="arrowRight" transform="rotate(90) translate(36 -43)">
    <use xlink:href="#rim"/>
    <path pointer-events="none" fill="none" stroke="white" stroke-width="1.5" d="M0,-3.0v7 M-2.5,-0.5L0,-3.0L2.5,-0.5"/>
  </g>
  <g id="arrowDown" transform="rotate(180) translate(-30 -48)">
    <use xlink:href="#rim"/>
    <path pointer-events="none" fill="none" stroke="white" stroke-width="1.5" d="M0,-3.0v7 M-2.5,-0.5L0,-3.0L2.5,-0.5"/>
  </g>
  <g id="arrowLeft" transform="rotate(270) translate(-36 17)">
    <use xlink:href="#rim"/>
    <path pointer-events="none" fill="none" stroke="white" stroke-width="1.5" d="M0,-3.0v7 M-2.5,-0.5L0,-3.0L2.5,-0.5"/>
  </g>
  <g id="resetDef">
    <use xlink:href="#rim2" fill="#404040"><set attributeName="fill" to="#808080" begin="reset.mouseover" end="reset.mouseout"/></use>
  </g>
</defs>
<script type="application/ecmascript">
var viewWidth = 741;
var viewHeight = 228;
var sectionId = 'dynsection-26';
</script>
<script type="application/ecmascript" xlink:href="svg.min.js"/>
<svg id="graph" class="graph">
<g id="viewport">
<title>GLESC::Math::MatrixAlgorithms::isValidViewMatrix</title>
<!-- Node1 -->
<g id="Node000001" class="node">
<title>Node1</title>
<g id="a_Node000001"><a xlink:title="Checks if a matrix is a valid view matrix.">
<polygon fill="#999999" stroke="#666666" points="156.25,-179 0,-179 0,-147 156.25,-147 156.25,-179"/>
<text text-anchor="start" x="8" y="-165.5" font-family="Helvetica,sans-Serif" font-size="10.00">GLESC::Math::MatrixAlgorithms</text>
<text text-anchor="middle" x="78.12" y="-153.5" font-family="Helvetica,sans-Serif" font-size="10.00">::isValidViewMatrix</text>
</a>
</g>
</g>
<!-- Node2 -->
<g id="Node000002" class="node">
<title>Node2</title>
<g id="a_Node000002"><a xlink:href="class_g_l_e_s_c_1_1_math_1_1_matrix_algorithms.html#a5d9d986d19eb1ff929b7c9c8f8cdbcdc" target="_top" xlink:title="Checks if a matrix is invertible.">
<polygon fill="white" stroke="#666666" points="348.5,-179 192.25,-179 192.25,-147 348.5,-147 348.5,-179"/>
<text text-anchor="start" x="200.25" y="-165.5" font-family="Helvetica,sans-Serif" font-size="10.00">GLESC::Math::MatrixAlgorithms</text>
<text text-anchor="middle" x="270.38" y="-153.5" font-family="Helvetica,sans-Serif" font-size="10.00">::isInvertible</text>
</a>
</g>
</g>
<!-- Node1&#45;&gt;Node2 -->
<g id="edge1_Node000001_Node000002" class="edge">
<title>Node1&#45;&gt;Node2</title>
<g id="a_edge1_Node000001_Node000002"><a xlink:title=" ">
<path fill="none" stroke="#63b8ff" d="M156.51,-163C164.41,-163 172.48,-163 180.49,-163"/>
<polygon fill="#63b8ff" stroke="#63b8ff" points="180.24,-166.5 190.24,-163 180.24,-159.5 180.24,-166.5"/>
</a>
</g>
</g>
<!-- Node3 -->
<g id="Node000003" class="node">
<title>Node3</title>
<g id="a_Node000003"><a xlink:href="namespace_g_l_e_s_c_1_1_math.html#aee25910dbba06d09d9df14d03933ace1" target="_top" xlink:title="Compares two values for equality.">
<polygon fill="white" stroke="#666666" points="509.25,-207 416,-207 416,-187 509.25,-187 509.25,-207"/>
<text text-anchor="middle" x="462.62" y="-193.5" font-family="Helvetica,sans-Serif" font-size="10.00">GLESC::Math::eq</text>
</a>
</g>
</g>
<!-- Node2&#45;&gt;Node3 -->
<g id="edge2_Node000002_Node000003" class="edge">
<title>Node2&#45;&gt;Node3</title>
<g id="a_edge2_Node000002_Node000003"><a xlink:title=" ">
<path fill="none" stroke="#63b8ff" d="M348.76,-176.83C367.41,-180.16 387,-183.66 404.53,-186.8"/>
<polygon fill="#63b8ff" stroke="#63b8ff" points="403.77,-190.22 414.23,-188.53 405,-183.33 403.77,-190.22"/>
</a>
</g>
</g>
<!-- Node5 -->
<g id="Node000005" class="node">
<title>Node5</title>
<g id="a_Node000005"><a xlink:href="class_g_l_e_s_c_1_1_math_1_1_matrix_algorithms.html#a9670e25803284a303601766e75617acc" target="_top" xlink:title="Calculates the determinant of any matrix using Laplace expansion.">
<polygon fill="white" stroke="#666666" points="540.75,-157 384.5,-157 384.5,-125 540.75,-125 540.75,-157"/>
<text text-anchor="start" x="392.5" y="-143.5" font-family="Helvetica,sans-Serif" font-size="10.00">GLESC::Math::MatrixAlgorithms</text>
<text text-anchor="middle" x="462.62" y="-131.5" font-family="Helvetica,sans-Serif" font-size="10.00">::laplaceExpansionDeterminant</text>
</a>
</g>
</g>
<!-- Node2&#45;&gt;Node5 -->
<g id="edge4_Node000002_Node000005" class="edge">
<title>Node2&#45;&gt;Node5</title>
<g id="a_edge4_Node000002_Node000005"><a xlink:title=" ">
<path fill="none" stroke="#63b8ff" d="M348.76,-154.05C356.66,-153.14 364.73,-152.2 372.74,-151.28"/>
<polygon fill="#63b8ff" stroke="#63b8ff" points="372.97,-154.78 382.5,-150.15 372.16,-147.82 372.97,-154.78"/>
</a>
</g>
</g>
<!-- Node4 -->
<g id="Node000004" class="node">
<title>Node4</title>
<g id="a_Node000004"><a xlink:href="namespace_g_l_e_s_c_1_1_math.html#acd429163efe906cd22916cc75ccb2421" target="_top" xlink:title="Epsilon getter with precision of a given template type.">
<polygon fill="white" stroke="#666666" points="711.62,-220 598.12,-220 598.12,-200 711.62,-200 711.62,-220"/>
<text text-anchor="middle" x="654.88" y="-206.5" font-family="Helvetica,sans-Serif" font-size="10.00">GLESC::Math::epsilon</text>
</a>
</g>
</g>
<!-- Node3&#45;&gt;Node4 -->
<g id="edge3_Node000003_Node000004" class="edge">
<title>Node3&#45;&gt;Node4</title>
<g id="a_edge3_Node000003_Node000004"><a xlink:title=" ">
<path fill="none" stroke="#63b8ff" d="M509.68,-200.15C532.66,-201.72 560.91,-203.65 586.29,-205.38"/>
<polygon fill="#63b8ff" stroke="#63b8ff" points="586,-208.87 596.21,-206.06 586.47,-201.89 586,-208.87"/>
</a>
</g>
</g>
<!-- Node6 -->
<g id="Node000006" class="node">
<title>Node6</title>
<g id="a_Node000006"><a xlink:href="class_g_l_e_s_c_1_1_math_1_1_matrix_algorithms.html#a85f90015980f7ee665903d04b4b797d8" target="_top" xlink:title="Calculates the cofactor of a matrix element.">
<polygon fill="white" stroke="#666666" points="733,-182 576.75,-182 576.75,-150 733,-150 733,-182"/>
<text text-anchor="start" x="584.75" y="-168.5" font-family="Helvetica,sans-Serif" font-size="10.00">GLESC::Math::MatrixAlgorithms</text>
<text text-anchor="middle" x="654.88" y="-156.5" font-family="Helvetica,sans-Serif" font-size="10.00">::cofactor</text>
</a>
</g>
</g>
<!-- Node5&#45;&gt;Node6 -->
<g id="edge5_Node000005_Node000006" class="edge">
<title>Node5&#45;&gt;Node6</title>
<g id="a_edge5_Node000005_Node000006"><a xlink:title=" ">
<path fill="none" stroke="#63b8ff" d="M541.01,-144.52C549.76,-145.57 558.72,-146.72 567.58,-147.94"/>
<polygon fill="#63b8ff" stroke="#63b8ff" points="566.83,-151.36 577.22,-149.3 567.81,-144.43 566.83,-151.36"/>
</a>
</g>
</g>
<!-- Node7 -->
<g id="Node000007" class="node">
<title>Node7</title>
<g id="a_Node000007"><a xlink:href="class_g_l_e_s_c_1_1_math_1_1_matrix_algorithms.html#abd516042cc3d928eefae413db0725670" target="_top" xlink:title="Calculates the determinant of a 2x2 matrix.">
<polygon fill="white" stroke="#666666" points="733,-132 576.75,-132 576.75,-100 733,-100 733,-132"/>
<text text-anchor="start" x="584.75" y="-118.5" font-family="Helvetica,sans-Serif" font-size="10.00">GLESC::Math::MatrixAlgorithms</text>
<text text-anchor="middle" x="654.88" y="-106.5" font-family="Helvetica,sans-Serif" font-size="10.00">::determinant2x2</text>
</a>
</g>
</g>
<!-- Node5&#45;&gt;Node7 -->
<g id="edge7_Node000005_Node000007" class="edge">
<title>Node5&#45;&gt;Node7</title>
<g id="a_edge7_Node000005_Node000007"><a xlink:title=" ">
<path fill="none" stroke="#63b8ff" d="M541.01,-130.83C548.91,-129.79 556.98,-128.73 564.99,-127.68"/>
<polygon fill="#63b8ff" stroke="#63b8ff" points="565.29,-131.17 574.75,-126.4 564.38,-124.23 565.29,-131.17"/>
</a>
</g>
</g>
<!-- Node8 -->
<g id="Node000008" class="node">
<title>Node8</title>
<g id="a_Node000008"><a xlink:href="class_g_l_e_s_c_1_1_math_1_1_matrix_algorithms.html#a2217ee08c38b92c583d3f193b5a0da9b" target="_top" xlink:title="Computes the determinant of a matrix 3x3.">
<polygon fill="white" stroke="#666666" points="733,-82 576.75,-82 576.75,-50 733,-50 733,-82"/>
<text text-anchor="start" x="584.75" y="-68.5" font-family="Helvetica,sans-Serif" font-size="10.00">GLESC::Math::MatrixAlgorithms</text>
<text text-anchor="middle" x="654.88" y="-56.5" font-family="Helvetica,sans-Serif" font-size="10.00">::determinant3x3</text>
</a>
</g>
</g>
<!-- Node5&#45;&gt;Node8 -->
<g id="edge8_Node000005_Node000008" class="edge">
<title>Node5&#45;&gt;Node8</title>
<g id="a_edge8_Node000005_Node000008"><a xlink:title=" ">
<path fill="none" stroke="#63b8ff" d="M498.4,-124.52C520.58,-114.29 550.07,-101.19 576.75,-91 581.11,-89.33 585.64,-87.68 590.22,-86.06"/>
<polygon fill="#63b8ff" stroke="#63b8ff" points="591.19,-89.43 599.5,-82.86 588.91,-82.81 591.19,-89.43"/>
</a>
</g>
</g>
<!-- Node9 -->
<g id="Node000009" class="node">
<title>Node9</title>
<g id="a_Node000009"><a xlink:href="class_g_l_e_s_c_1_1_math_1_1_matrix_algorithms.html#a972ac9793d405d0a5daca41591c1fb8c" target="_top" xlink:title="Computes the determinant of a matrix 4x4.">
<polygon fill="white" stroke="#666666" points="733,-32 576.75,-32 576.75,0 733,0 733,-32"/>
<text text-anchor="start" x="584.75" y="-18.5" font-family="Helvetica,sans-Serif" font-size="10.00">GLESC::Math::MatrixAlgorithms</text>
<text text-anchor="middle" x="654.88" y="-6.5" font-family="Helvetica,sans-Serif" font-size="10.00">::determinant4x4</text>
</a>
</g>
</g>
<!-- Node5&#45;&gt;Node9 -->
<g id="edge9_Node000005_Node000009" class="edge">
<title>Node5&#45;&gt;Node9</title>
<g id="a_edge9_Node000005_Node000009"><a xlink:title=" ">
<path fill="none" stroke="#63b8ff" d="M478.12,-124.51C498.24,-102.56 536.68,-63.87 576.75,-41 579.21,-39.6 581.76,-38.26 584.37,-36.98"/>
<polygon fill="#63b8ff" stroke="#63b8ff" points="585.59,-40.27 593.3,-33.01 582.74,-33.88 585.59,-40.27"/>
</a>
</g>
</g>
<!-- Node6&#45;&gt;Node5 -->
<g id="edge6_Node000006_Node000005" class="edge">
<title>Node6&#45;&gt;Node5</title>
<g id="a_edge6_Node000006_Node000005"><a xlink:title=" ">
<path fill="none" stroke="#63b8ff" d="M576.42,-162.47C567.69,-161.42 558.76,-160.28 549.93,-159.06"/>
<polygon fill="#63b8ff" stroke="#63b8ff" points="550.71,-155.64 540.32,-157.71 549.73,-162.57 550.71,-155.64"/>
</a>
</g>
</g>
</g>
</svg>

<g id="navigator" transform="translate(0 0)" fill="#404254">
  <rect fill="#f2f5e9" fill-opacity="0.5" stroke="#606060" stroke-width=".5" x="0" y="0" width="60" height="60"/>
  <use id="zoomplus" xlink:href="#zoomPlus" x="17" y="9" onmousedown="handleZoom(evt,'in')"/>
  <use id="zoomminus" xlink:href="#zoomMin" x="42" y="9" onmousedown="handleZoom(evt,'out')"/>
  <use id="reset" xlink:href="#resetDef" x="30" y="36" onmousedown="handleReset()"/>
   <use id="arrowup" xlink:href="#arrowUp" x="0" y="0" onmousedown="handlePan(0,-1)"/>
  <use id="arrowright" xlink:href="#arrowRight" x="0" y="0" onmousedown="handlePan(1,0)"/>
  <use id="arrowdown" xlink:href="#arrowDown" x="0" y="0" onmousedown="handlePan(0,1)"/>
  <use id="arrowleft" xlink:href="#arrowLeft" x="0" y="0" onmousedown="handlePan(-1,0)"/>
</g>
<svg viewBox="0 0 15 15" width="100%" height="30px" preserveAspectRatio="xMaxYMin meet">
 <g id="arrow_out" transform="scale(0.3 0.3)">
  <a xlink:href="class_g_l_e_s_c_1_1_math_1_1_matrix_algorithms_a8f87a5cd712e5f47531965d3c0d620f8_cgraph_org.svg" target="_base">
   <rect id="button" ry="5" rx="5" y="6" x="6" height="38" width="38"
        fill="#f2f5e9" fill-opacity="0.5" stroke="#606060" stroke-width="1.0"/>
   <path id="arrow"
     d="M 11.500037,31.436501 C 11.940474,20.09759 22.043105,11.32322 32.158766,21.979434 L 37.068811,17.246167 C 37.068811,17.246167 37.088388,32 37.088388,32 L 22.160133,31.978069 C 22.160133,31.978069 26.997745,27.140456 26.997745,27.140456 C 18.528582,18.264221 13.291696,25.230495 11.500037,31.436501 z"
     style="fill:#404040;"/>
  </a>
 </g>
</svg>

<style type='text/css'>
<![CDATA[
[data-mouse-over-selected='false'] { opacity: 0.7; }
[data-mouse-over-selected='true']  { opacity: 1.0; }
]]>
</style>
<script type="application/ecmascript"><![CDATA[
document.addEventListener('DOMContentLoaded', (event) => {
  highlightEdges();
  highlightAdjacentNodes();
});
]]></script>
</svg>
