<?xml version="1.0" encoding="UTF-8" standalone="no"?>
<!DOCTYPE svg PUBLIC "-//W3C//DTD SVG 1.1//EN"
 "http://www.w3.org/Graphics/SVG/1.1/DTD/svg11.dtd">
<!-- Generated by graphviz version 11.0.0 (20240428.1522)
 -->
<!-- Title: GLESC::Math::Plane::calculateDistanceFromPointAndLine Pages: 1 -->
<svg width="513pt" height="90pt"
 viewBox="0.00 0.00 512.75 90.00" xmlns="http://www.w3.org/2000/svg" xmlns:xlink="http://www.w3.org/1999/xlink">
<g id="graph0" class="graph" transform="scale(1 1) rotate(0) translate(4 86)">
<title>GLESC::Math::Plane::calculateDistanceFromPointAndLine</title>
<!-- Node1 -->
<g id="Node000001" class="node">
<title>Node1</title>
<g id="a_Node000001"><a xlink:title="Calculate the distance from the origin to the plane defined by a point and a line.">
<polygon fill="#999999" stroke="#666666" points="144.25,-63 0,-63 0,-19 144.25,-19 144.25,-63"/>
<text text-anchor="start" x="8" y="-49.5" font-family="Helvetica,sans-Serif" font-size="10.00">GLESC::Math::Plane</text>
<text text-anchor="start" x="8" y="-37.5" font-family="Helvetica,sans-Serif" font-size="10.00">::calculateDistanceFromPoint</text>
<text text-anchor="middle" x="72.12" y="-25.5" font-family="Helvetica,sans-Serif" font-size="10.00">AndLine</text>
</a>
</g>
</g>
<!-- Node2 -->
<g id="Node000002" class="node">
<title>Node2</title>
<g id="a_Node000002"><a xlink:href="class_g_l_e_s_c_1_1_math_1_1_vector.html#ac4fe912b3001e4fad684c2cd4c56cf83" target="_top" xlink:title="Calculates the cross product of two vectors.">
<polygon fill="white" stroke="#666666" points="301.25,-80 190,-80 190,-48 301.25,-48 301.25,-80"/>
<text text-anchor="start" x="198" y="-66.5" font-family="Helvetica,sans-Serif" font-size="10.00">GLESC::Math::Vector</text>
<text text-anchor="middle" x="245.62" y="-54.5" font-family="Helvetica,sans-Serif" font-size="10.00">::cross</text>
</a>
</g>
</g>
<!-- Node1&#45;&gt;Node2 -->
<g id="edge1_Node000001_Node000002" class="edge">
<title>Node1&#45;&gt;Node2</title>
<g id="a_edge1_Node000001_Node000002"><a xlink:title=" ">
<path fill="none" stroke="#63b8ff" d="M144.37,-50.55C155.57,-52.06 167.11,-53.6 178.2,-55.09"/>
<polygon fill="#63b8ff" stroke="#63b8ff" points="177.68,-58.55 188.05,-56.41 178.61,-51.61 177.68,-58.55"/>
</a>
</g>
</g>
<!-- Node4 -->
<g id="Node000004" class="node">
<title>Node4</title>
<g id="a_Node000004"><a xlink:href="class_g_l_e_s_c_1_1_math_1_1_vector.html#ab7062a9b67c16d4e60413b625412b4eb" target="_top" xlink:title="Returns the dot product of two vectors.">
<polygon fill="white" stroke="#666666" points="311,-29 180.25,-29 180.25,-9 311,-9 311,-29"/>
<text text-anchor="middle" x="245.62" y="-15.5" font-family="Helvetica,sans-Serif" font-size="10.00">GLESC::Math::Vector::dot</text>
</a>
</g>
</g>
<!-- Node1&#45;&gt;Node4 -->
<g id="edge3_Node000001_Node000004" class="edge">
<title>Node1&#45;&gt;Node4</title>
<g id="a_edge3_Node000001_Node000004"><a xlink:title=" ">
<path fill="none" stroke="#63b8ff" d="M144.37,-31.86C152.37,-30.83 160.55,-29.78 168.62,-28.75"/>
<polygon fill="#63b8ff" stroke="#63b8ff" points="168.94,-32.24 178.41,-27.49 168.05,-25.3 168.94,-32.24"/>
</a>
</g>
</g>
<!-- Node3 -->
<g id="Node000003" class="node">
<title>Node3</title>
<g id="a_Node000003"><a xlink:href="class_g_l_e_s_c_1_1_math_1_1_vector_algorithms.html#ab041da9d339dfe80b80c6f0bdf5dbfd4" target="_top" xlink:title="Computes the cross product of two vectors.">
<polygon fill="white" stroke="#666666" points="504.75,-82 347,-82 347,-50 504.75,-50 504.75,-82"/>
<text text-anchor="start" x="355" y="-68.5" font-family="Helvetica,sans-Serif" font-size="10.00">GLESC::Math::VectorAlgorithms</text>
<text text-anchor="middle" x="425.88" y="-56.5" font-family="Helvetica,sans-Serif" font-size="10.00">::crossProduct</text>
</a>
</g>
</g>
<!-- Node2&#45;&gt;Node3 -->
<g id="edge2_Node000002_Node000003" class="edge">
<title>Node2&#45;&gt;Node3</title>
<g id="a_edge2_Node000002_Node000003"><a xlink:title=" ">
<path fill="none" stroke="#63b8ff" d="M301.56,-64.62C312.22,-64.74 323.66,-64.86 335.11,-64.99"/>
<polygon fill="#63b8ff" stroke="#63b8ff" points="334.98,-68.49 345.02,-65.1 335.06,-61.49 334.98,-68.49"/>
</a>
</g>
</g>
<!-- Node5 -->
<g id="Node000005" class="node">
<title>Node5</title>
<g id="a_Node000005"><a xlink:href="class_g_l_e_s_c_1_1_math_1_1_vector_algorithms.html#ae45bcff9b53fb60d513c53823418d97b" target="_top" xlink:title="Computes the dot product of two vectors.">
<polygon fill="white" stroke="#666666" points="504.75,-32 347,-32 347,0 504.75,0 504.75,-32"/>
<text text-anchor="start" x="355" y="-18.5" font-family="Helvetica,sans-Serif" font-size="10.00">GLESC::Math::VectorAlgorithms</text>
<text text-anchor="middle" x="425.88" y="-6.5" font-family="Helvetica,sans-Serif" font-size="10.00">::dotProduct</text>
</a>
</g>
</g>
<!-- Node4&#45;&gt;Node5 -->
<g id="edge4_Node000004_Node000005" class="edge">
<title>Node4&#45;&gt;Node5</title>
<g id="a_edge4_Node000004_Node000005"><a xlink:title=" ">
<path fill="none" stroke="#63b8ff" d="M311.48,-17.91C319.26,-17.78 327.31,-17.64 335.36,-17.51"/>
<polygon fill="#63b8ff" stroke="#63b8ff" points="335.27,-21.01 345.21,-17.34 335.15,-14.01 335.27,-21.01"/>
</a>
</g>
</g>
</g>
</svg>
