<?xml version="1.0" encoding="UTF-8" standalone="no"?>
<!DOCTYPE svg PUBLIC "-//W3C//DTD SVG 1.1//EN"
 "http://www.w3.org/Graphics/SVG/1.1/DTD/svg11.dtd">
<!-- Generated by graphviz version 11.0.0 (20240428.1522)
 -->
<!-- Title: GLESC::ECS::EntityManager::isEntityAlive Pages: 1 -->
<svg width="943pt" height="190pt"
 viewBox="0.00 0.00 942.50 190.00" xmlns="http://www.w3.org/2000/svg" xmlns:xlink="http://www.w3.org/1999/xlink">
<g id="graph0" class="graph" transform="scale(1 1) rotate(0) translate(4 186)">
<title>GLESC::ECS::EntityManager::isEntityAlive</title>
<!-- Node1 -->
<g id="Node000001" class="node">
<title>Node1</title>
<g id="a_Node000001"><a xlink:title="Check if the entity with the given ID is alive.">
<polygon fill="#999999" stroke="#666666" points="934.5,-107 790.25,-107 790.25,-75 934.5,-75 934.5,-107"/>
<text text-anchor="start" x="798.25" y="-93.5" font-family="Helvetica,sans-Serif" font-size="10.00">GLESC::ECS::EntityManager</text>
<text text-anchor="middle" x="862.38" y="-81.5" font-family="Helvetica,sans-Serif" font-size="10.00">::isEntityAlive</text>
</a>
</g>
</g>
<!-- Node2 -->
<g id="Node000002" class="node">
<title>Node2</title>
<g id="a_Node000002"><a xlink:href="class_g_l_e_s_c_1_1_e_c_s_1_1_entity_manager.html#a1a54b9843d83e416b479220d15f47230" target="_top" xlink:title="Destroy the entity with the given ID. The entity must exist.">
<polygon fill="white" stroke="#666666" points="750.88,-182 606.62,-182 606.62,-150 750.88,-150 750.88,-182"/>
<text text-anchor="start" x="614.62" y="-168.5" font-family="Helvetica,sans-Serif" font-size="10.00">GLESC::ECS::EntityManager</text>
<text text-anchor="middle" x="678.75" y="-156.5" font-family="Helvetica,sans-Serif" font-size="10.00">::destroyEntity</text>
</a>
</g>
</g>
<!-- Node1&#45;&gt;Node2 -->
<g id="edge1_Node000001_Node000002" class="edge">
<title>Node1&#45;&gt;Node2</title>
<g id="a_edge1_Node000001_Node000002"><a xlink:title=" ">
<path fill="none" stroke="#63b8ff" d="M818.63,-112.3C799.21,-121.63 775.8,-132.39 754.25,-141 746.9,-143.94 739.06,-146.83 731.32,-149.54"/>
<polygon fill="#63b8ff" stroke="#63b8ff" points="820.14,-115.46 827.61,-107.95 817.09,-109.16 820.14,-115.46"/>
</a>
</g>
</g>
<!-- Node7 -->
<g id="Node000007" class="node">
<title>Node7</title>
<g id="a_Node000007"><a xlink:href="class_g_l_e_s_c_1_1_e_c_s_1_1_entity_manager.html#a77367b7afcc6f27618cab7d49e504fb7" target="_top" xlink:title="Check if the entity with the given name is alive.">
<polygon fill="white" stroke="#666666" points="750.88,-132 606.62,-132 606.62,-100 750.88,-100 750.88,-132"/>
<text text-anchor="start" x="614.62" y="-118.5" font-family="Helvetica,sans-Serif" font-size="10.00">GLESC::ECS::EntityManager</text>
<text text-anchor="middle" x="678.75" y="-106.5" font-family="Helvetica,sans-Serif" font-size="10.00">::isEntityAlive</text>
</a>
</g>
</g>
<!-- Node1&#45;&gt;Node7 -->
<g id="edge6_Node000001_Node000007" class="edge">
<title>Node1&#45;&gt;Node7</title>
<g id="a_edge6_Node000001_Node000007"><a xlink:title=" ">
<path fill="none" stroke="#63b8ff" d="M778.73,-102.38C769.54,-103.64 760.24,-104.92 751.21,-106.16"/>
<polygon fill="#63b8ff" stroke="#63b8ff" points="778.92,-105.88 788.35,-101.05 777.97,-98.95 778.92,-105.88"/>
</a>
</g>
</g>
<!-- Node8 -->
<g id="Node000008" class="node">
<title>Node8</title>
<g id="a_Node000008"><a xlink:href="class_g_l_e_s_c_1_1_e_c_s_1_1_e_c_s_coordinator.html#a752199f3a60c3396f48873f904ec629e" target="_top" xlink:title=" ">
<polygon fill="white" stroke="#666666" points="754.25,-82 603.25,-82 603.25,-50 754.25,-50 754.25,-82"/>
<text text-anchor="start" x="611.25" y="-68.5" font-family="Helvetica,sans-Serif" font-size="10.00">GLESC::ECS::ECSCoordinator</text>
<text text-anchor="middle" x="678.75" y="-56.5" font-family="Helvetica,sans-Serif" font-size="10.00">::isEntityAlive</text>
</a>
</g>
</g>
<!-- Node1&#45;&gt;Node8 -->
<g id="edge7_Node000001_Node000008" class="edge">
<title>Node1&#45;&gt;Node8</title>
<g id="a_edge7_Node000001_Node000008"><a xlink:title=" ">
<path fill="none" stroke="#63b8ff" d="M778.58,-79.6C770.55,-78.5 762.44,-77.38 754.49,-76.29"/>
<polygon fill="#63b8ff" stroke="#63b8ff" points="777.97,-83.05 788.35,-80.95 778.92,-76.12 777.97,-83.05"/>
</a>
</g>
</g>
<!-- Node10 -->
<g id="Node000010" class="node">
<title>Node10</title>
<g id="a_Node000010"><a xlink:href="class_g_l_e_s_c_1_1_e_c_s_1_1_entity_manager.html#aa12eb5a78f90d23488324ee51e7dbd6c" target="_top" xlink:title="Remove a component from the entity. The entity must exist.">
<polygon fill="white" stroke="#666666" points="753.88,-32 603.62,-32 603.62,0 753.88,0 753.88,-32"/>
<text text-anchor="start" x="611.62" y="-18.5" font-family="Helvetica,sans-Serif" font-size="10.00">GLESC::ECS::EntityManager</text>
<text text-anchor="middle" x="678.75" y="-6.5" font-family="Helvetica,sans-Serif" font-size="10.00">::removeComponentFromEntity</text>
</a>
</g>
</g>
<!-- Node1&#45;&gt;Node10 -->
<g id="edge9_Node000001_Node000010" class="edge">
<title>Node1&#45;&gt;Node10</title>
<g id="a_edge9_Node000001_Node000010"><a xlink:title=" ">
<path fill="none" stroke="#63b8ff" d="M818.63,-69.7C799.21,-60.37 775.8,-49.61 754.25,-41 746.9,-38.06 739.06,-35.17 731.32,-32.46"/>
<polygon fill="#63b8ff" stroke="#63b8ff" points="817.09,-72.84 827.61,-74.05 820.14,-66.54 817.09,-72.84"/>
</a>
</g>
</g>
<!-- Node3 -->
<g id="Node000003" class="node">
<title>Node3</title>
<g id="a_Node000003"><a xlink:href="class_g_l_e_s_c_1_1_e_c_s_1_1_e_c_s_coordinator.html#a0fd4aa66232d93cfc50316d3093432ad" target="_top" xlink:title="Destroy an entity, destroying all the components and removing it from the systems.">
<polygon fill="white" stroke="#666666" points="567.25,-182 416.25,-182 416.25,-150 567.25,-150 567.25,-182"/>
<text text-anchor="start" x="424.25" y="-168.5" font-family="Helvetica,sans-Serif" font-size="10.00">GLESC::ECS::ECSCoordinator</text>
<text text-anchor="middle" x="491.75" y="-156.5" font-family="Helvetica,sans-Serif" font-size="10.00">::destroyEntity</text>
</a>
</g>
</g>
<!-- Node2&#45;&gt;Node3 -->
<g id="edge2_Node000002_Node000003" class="edge">
<title>Node2&#45;&gt;Node3</title>
<g id="a_edge2_Node000002_Node000003"><a xlink:title=" ">
<path fill="none" stroke="#63b8ff" d="M594.78,-166C585.68,-166 576.45,-166 567.45,-166"/>
<polygon fill="#63b8ff" stroke="#63b8ff" points="594.71,-169.5 604.71,-166 594.71,-162.5 594.71,-169.5"/>
</a>
</g>
</g>
<!-- Node4 -->
<g id="Node000004" class="node">
<title>Node4</title>
<g id="a_Node000004"><a xlink:href="class_g_l_e_s_c_1_1_e_c_s_1_1_e_c_s_coordinator.html#a8d5badb52aaa0afde587a347cbbd5de9" target="_top" xlink:title="Destroy all entities marked for destruction.">
<polygon fill="white" stroke="#666666" points="380.25,-182 229.25,-182 229.25,-150 380.25,-150 380.25,-182"/>
<text text-anchor="start" x="237.25" y="-168.5" font-family="Helvetica,sans-Serif" font-size="10.00">GLESC::ECS::ECSCoordinator</text>
<text text-anchor="middle" x="304.75" y="-156.5" font-family="Helvetica,sans-Serif" font-size="10.00">::destroyEntities</text>
</a>
</g>
</g>
<!-- Node3&#45;&gt;Node4 -->
<g id="edge3_Node000003_Node000004" class="edge">
<title>Node3&#45;&gt;Node4</title>
<g id="a_edge3_Node000003_Node000004"><a xlink:title=" ">
<path fill="none" stroke="#63b8ff" d="M404.51,-166C396.5,-166 388.43,-166 380.54,-166"/>
<polygon fill="#63b8ff" stroke="#63b8ff" points="404.26,-169.5 414.26,-166 404.26,-162.5 404.26,-169.5"/>
</a>
</g>
</g>
<!-- Node5 -->
<g id="Node000005" class="node">
<title>Node5</title>
<g id="a_Node000005"><a xlink:href="class_g_l_e_s_c_1_1_engine.html#ad2ff110d5a86c1cd60b541d65915ac48" target="_top" xlink:title="Processes the logic of the game Is called every frame, must be called at constant intervals of time a...">
<polygon fill="white" stroke="#666666" points="193.25,-176 73,-176 73,-156 193.25,-156 193.25,-176"/>
<text text-anchor="middle" x="133.12" y="-162.5" font-family="Helvetica,sans-Serif" font-size="10.00">GLESC::Engine::update</text>
</a>
</g>
</g>
<!-- Node4&#45;&gt;Node5 -->
<g id="edge4_Node000004_Node000005" class="edge">
<title>Node4&#45;&gt;Node5</title>
<g id="a_edge4_Node000004_Node000005"><a xlink:title=" ">
<path fill="none" stroke="#63b8ff" d="M217.46,-166C209.39,-166 201.34,-166 193.6,-166"/>
<polygon fill="#63b8ff" stroke="#63b8ff" points="217.34,-169.5 227.34,-166 217.34,-162.5 217.34,-169.5"/>
</a>
</g>
</g>
<!-- Node6 -->
<g id="Node000006" class="node">
<title>Node6</title>
<g id="a_Node000006"><a xlink:href="src_2engine_2main_8cpp.html#a0ddf1224851353fc92bfbff6f499fa97" target="_top" xlink:title=" ">
<polygon fill="white" stroke="#666666" points="37,-176 0,-176 0,-156 37,-156 37,-176"/>
<text text-anchor="middle" x="18.5" y="-162.5" font-family="Helvetica,sans-Serif" font-size="10.00">main</text>
</a>
</g>
</g>
<!-- Node5&#45;&gt;Node6 -->
<g id="edge5_Node000005_Node000006" class="edge">
<title>Node5&#45;&gt;Node6</title>
<g id="a_edge5_Node000005_Node000006"><a xlink:title=" ">
<path fill="none" stroke="#63b8ff" d="M61.18,-166C52.39,-166 44.11,-166 37.29,-166"/>
<polygon fill="#63b8ff" stroke="#63b8ff" points="61,-169.5 71,-166 61,-162.5 61,-169.5"/>
</a>
</g>
</g>
<!-- Node9 -->
<g id="Node000009" class="node">
<title>Node9</title>
<g id="a_Node000009"><a xlink:href="class_g_l_e_s_c_1_1_e_c_s_1_1_entity.html#abadcf5fb781cafa3a9779091e210b96f" target="_top" xlink:title="Checks if the entity is alive (if the ID of the entity is valid)">
<polygon fill="white" stroke="#666666" points="545.12,-82 438.38,-82 438.38,-50 545.12,-50 545.12,-82"/>
<text text-anchor="start" x="446.38" y="-68.5" font-family="Helvetica,sans-Serif" font-size="10.00">GLESC::ECS::Entity</text>
<text text-anchor="middle" x="491.75" y="-56.5" font-family="Helvetica,sans-Serif" font-size="10.00">::isAlive</text>
</a>
</g>
</g>
<!-- Node8&#45;&gt;Node9 -->
<g id="edge8_Node000008_Node000009" class="edge">
<title>Node8&#45;&gt;Node9</title>
<g id="a_edge8_Node000008_Node000009"><a xlink:title=" ">
<path fill="none" stroke="#63b8ff" d="M591.41,-66C575.71,-66 559.78,-66 545.42,-66"/>
<polygon fill="#63b8ff" stroke="#63b8ff" points="591.26,-69.5 601.26,-66 591.26,-62.5 591.26,-69.5"/>
</a>
</g>
</g>
<!-- Node11 -->
<g id="Node000011" class="node">
<title>Node11</title>
<g id="a_Node000011"><a xlink:href="class_g_l_e_s_c_1_1_e_c_s_1_1_e_c_s_coordinator.html#af2a3fb9a4f78b71f602de7f29bd7446f" target="_top" xlink:title="Remove a component from an entity.">
<polygon fill="white" stroke="#666666" points="567.25,-32 416.25,-32 416.25,0 567.25,0 567.25,-32"/>
<text text-anchor="start" x="424.25" y="-18.5" font-family="Helvetica,sans-Serif" font-size="10.00">GLESC::ECS::ECSCoordinator</text>
<text text-anchor="middle" x="491.75" y="-6.5" font-family="Helvetica,sans-Serif" font-size="10.00">::removeComponent</text>
</a>
</g>
</g>
<!-- Node10&#45;&gt;Node11 -->
<g id="edge10_Node000010_Node000011" class="edge">
<title>Node10&#45;&gt;Node11</title>
<g id="a_edge10_Node000010_Node000011"><a xlink:title=" ">
<path fill="none" stroke="#63b8ff" d="M591.92,-16C583.81,-16 575.64,-16 567.65,-16"/>
<polygon fill="#63b8ff" stroke="#63b8ff" points="591.79,-19.5 601.79,-16 591.79,-12.5 591.79,-19.5"/>
</a>
</g>
</g>
<!-- Node12 -->
<g id="Node000012" class="node">
<title>Node12</title>
<g id="a_Node000012"><a xlink:href="class_g_l_e_s_c_1_1_e_c_s_1_1_entity.html#a1ea00349d7b9b4eff7df34a75d2d64dd" target="_top" xlink:title="Removes a component from the entity The entity signature is updated to reflect the removed component.">
<polygon fill="white" stroke="#666666" points="358.12,-32 251.38,-32 251.38,0 358.12,0 358.12,-32"/>
<text text-anchor="start" x="259.38" y="-18.5" font-family="Helvetica,sans-Serif" font-size="10.00">GLESC::ECS::Entity</text>
<text text-anchor="middle" x="304.75" y="-6.5" font-family="Helvetica,sans-Serif" font-size="10.00">::removeComponent</text>
</a>
</g>
</g>
<!-- Node11&#45;&gt;Node12 -->
<g id="edge11_Node000011_Node000012" class="edge">
<title>Node11&#45;&gt;Node12</title>
<g id="a_edge11_Node000011_Node000012"><a xlink:title=" ">
<path fill="none" stroke="#63b8ff" d="M404.41,-16C388.71,-16 372.78,-16 358.42,-16"/>
<polygon fill="#63b8ff" stroke="#63b8ff" points="404.26,-19.5 414.26,-16 404.26,-12.5 404.26,-19.5"/>
</a>
</g>
</g>
</g>
</svg>
