<?xml version="1.0" encoding="UTF-8" standalone="no"?>
<!DOCTYPE svg PUBLIC "-//W3C//DTD SVG 1.1//EN"
 "http://www.w3.org/Graphics/SVG/1.1/DTD/svg11.dtd">
<!-- Generated by graphviz version 11.0.0 (20240428.1522)
 -->
<!-- Title: GLESC::Math::Vector&lt; Type, N &gt; Pages: 1 -->
<!--zoomable 676 -->

<svg id="main" version="1.1" xmlns="http://www.w3.org/2000/svg" xmlns:xlink="http://www.w3.org/1999/xlink" xml:space="preserve" onload="init(evt)">
<style type="text/css"><![CDATA[
.node, .edge {opacity: 0.7;}
.node.selected, .edge.selected {opacity: 1;}
.edge:hover path { stroke: red; }
.edge:hover polygon { stroke: red; fill: red; }
]]></style>

<defs>
  <circle id="rim" cx="0" cy="0" r="7"/>
  <circle id="rim2" cx="0" cy="0" r="3.5"/>
  <g id="zoomPlus">
    <use xlink:href="#rim" fill="#404040"><set attributeName="fill" to="#808080" begin="zoomplus.mouseover" end="zoomplus.mouseout"/></use>
    <path d="M-4,0h8M0,-4v8" fill="none" stroke="white" stroke-width="1.5" pointer-events="none"/>
  </g>
  <g id="zoomMin">
    <use xlink:href="#rim" fill="#404040"><set attributeName="fill" to="#808080" begin="zoomminus.mouseover" end="zoomminus.mouseout"/></use>
    <path d="M-4,0h8" fill="none" stroke="white" stroke-width="1.5" pointer-events="none"/>
  </g>
  <g id="arrowUp" transform="translate(30 24)">
    <use xlink:href="#rim"/>
    <path pointer-events="none" fill="none" stroke="white" stroke-width="1.5" d="M0,-3.0v7 M-2.5,-0.5L0,-3.0L2.5,-0.5"/>
  </g>
  <g id="arrowRight" transform="rotate(90) translate(36 -43)">
    <use xlink:href="#rim"/>
    <path pointer-events="none" fill="none" stroke="white" stroke-width="1.5" d="M0,-3.0v7 M-2.5,-0.5L0,-3.0L2.5,-0.5"/>
  </g>
  <g id="arrowDown" transform="rotate(180) translate(-30 -48)">
    <use xlink:href="#rim"/>
    <path pointer-events="none" fill="none" stroke="white" stroke-width="1.5" d="M0,-3.0v7 M-2.5,-0.5L0,-3.0L2.5,-0.5"/>
  </g>
  <g id="arrowLeft" transform="rotate(270) translate(-36 17)">
    <use xlink:href="#rim"/>
    <path pointer-events="none" fill="none" stroke="white" stroke-width="1.5" d="M0,-3.0v7 M-2.5,-0.5L0,-3.0L2.5,-0.5"/>
  </g>
  <g id="resetDef">
    <use xlink:href="#rim2" fill="#404040"><set attributeName="fill" to="#808080" begin="reset.mouseover" end="reset.mouseout"/></use>
  </g>
</defs>
<script type="application/ecmascript">
var viewWidth = 1001;
var viewHeight = 676;
var sectionId = 'dynsection-0';
</script>
<script type="application/ecmascript" xlink:href="svg.min.js"/>
<svg id="graph" class="graph">
<g id="viewport">
<title>GLESC::Math::Vector&lt; Type, N &gt;</title>
<!-- Node1 -->
<g id="Node000001" class="node">
<title>Node1</title>
<g id="a_Node000001"><a xlink:title=" ">
<polygon fill="#999999" stroke="none" points="575,-668 470,-668 470,-444 575,-444 575,-668"/>
<text text-anchor="start" x="474.88" y="-654.5" font-family="Helvetica,sans-Serif" font-size="10.00">GLESC::Math::Vector</text>
<text text-anchor="start" x="496.62" y="-642.5" font-family="Helvetica,sans-Serif" font-size="10.00">&lt; Type, N &gt;</text>
<text text-anchor="start" x="480" y="-626.5" font-family="Helvetica,sans-Serif" font-size="10.00">+</text>
<text text-anchor="start" x="496" y="-626.5" font-family="Helvetica,sans-Serif" font-size="10.00">data</text>
<text text-anchor="start" x="480" y="-610.5" font-family="Helvetica,sans-Serif" font-size="10.00">+</text>
<text text-anchor="start" x="496" y="-610.5" font-family="Helvetica,sans-Serif" font-size="10.00">Vector()</text>
<text text-anchor="start" x="480" y="-594.5" font-family="Helvetica,sans-Serif" font-size="10.00">+</text>
<text text-anchor="start" x="496" y="-594.5" font-family="Helvetica,sans-Serif" font-size="10.00">Vector()</text>
<text text-anchor="start" x="480" y="-578.5" font-family="Helvetica,sans-Serif" font-size="10.00">+</text>
<text text-anchor="start" x="496" y="-578.5" font-family="Helvetica,sans-Serif" font-size="10.00">Vector()</text>
<text text-anchor="start" x="480" y="-562.5" font-family="Helvetica,sans-Serif" font-size="10.00">+</text>
<text text-anchor="start" x="496" y="-562.5" font-family="Helvetica,sans-Serif" font-size="10.00">Vector()</text>
<text text-anchor="start" x="480" y="-546.5" font-family="Helvetica,sans-Serif" font-size="10.00">+</text>
<text text-anchor="start" x="496" y="-546.5" font-family="Helvetica,sans-Serif" font-size="10.00">Vector()</text>
<text text-anchor="start" x="480" y="-530.5" font-family="Helvetica,sans-Serif" font-size="10.00">+</text>
<text text-anchor="start" x="496" y="-530.5" font-family="Helvetica,sans-Serif" font-size="10.00">Vector()</text>
<text text-anchor="start" x="480" y="-514.5" font-family="Helvetica,sans-Serif" font-size="10.00">+</text>
<text text-anchor="start" x="496" y="-514.5" font-family="Helvetica,sans-Serif" font-size="10.00">Vector()</text>
<text text-anchor="start" x="480" y="-498.5" font-family="Helvetica,sans-Serif" font-size="10.00">+</text>
<text text-anchor="start" x="496" y="-498.5" font-family="Helvetica,sans-Serif" font-size="10.00">Vector()</text>
<text text-anchor="start" x="480" y="-482.5" font-family="Helvetica,sans-Serif" font-size="10.00">+</text>
<text text-anchor="start" x="496" y="-482.5" font-family="Helvetica,sans-Serif" font-size="10.00">Vector()</text>
<text text-anchor="start" x="480" y="-466.5" font-family="Helvetica,sans-Serif" font-size="10.00">+</text>
<text text-anchor="start" x="496" y="-466.5" font-family="Helvetica,sans-Serif" font-size="10.00">Vector()</text>
<text text-anchor="start" x="496" y="-450.5" font-family="Helvetica,sans-Serif" font-size="10.00">and 90 more...</text>
<polygon fill="#666666" stroke="#666666" points="470,-638 470,-638 575,-638 575,-638 470,-638"/>
<polygon fill="#666666" stroke="#666666" points="470,-622 470,-622 494,-622 494,-622 470,-622"/>
<polygon fill="#666666" stroke="#666666" points="494,-622 494,-622 575,-622 575,-622 494,-622"/>
<polygon fill="none" stroke="#666666" points="470,-444 470,-668 575,-668 575,-444 470,-444"/>
</a>
</g>
</g>
<!-- Node2 -->
<g id="Node000002" class="node">
<title>Node2</title>
<g id="a_Node000002"><a xlink:href="struct_g_l_e_s_c_1_1_render_1_1_color_rgb.html" target="_top" xlink:title="Color in RGB values.">
<polygon fill="white" stroke="none" points="125,-384 0,-384 0,0 125,0 125,-384"/>
<text text-anchor="start" x="4.75" y="-370.5" font-family="Helvetica,sans-Serif" font-size="10.00">GLESC::Render::ColorRgb</text>
<text text-anchor="start" x="38.88" y="-358.5" font-family="Helvetica,sans-Serif" font-size="10.00">&lt; float, 3 &gt;</text>
<text text-anchor="start" x="12" y="-342.5" font-family="Helvetica,sans-Serif" font-size="10.00">+</text>
<text text-anchor="start" x="30" y="-342.5" font-family="Helvetica,sans-Serif" font-size="10.00">Black</text>
<text text-anchor="start" x="12" y="-326.5" font-family="Helvetica,sans-Serif" font-size="10.00">+</text>
<text text-anchor="start" x="30" y="-326.5" font-family="Helvetica,sans-Serif" font-size="10.00">Blue</text>
<text text-anchor="start" x="12" y="-310.5" font-family="Helvetica,sans-Serif" font-size="10.00">+</text>
<text text-anchor="start" x="30" y="-310.5" font-family="Helvetica,sans-Serif" font-size="10.00">Brown</text>
<text text-anchor="start" x="12" y="-294.5" font-family="Helvetica,sans-Serif" font-size="10.00">+</text>
<text text-anchor="start" x="30" y="-294.5" font-family="Helvetica,sans-Serif" font-size="10.00">ClearSkin</text>
<text text-anchor="start" x="12" y="-278.5" font-family="Helvetica,sans-Serif" font-size="10.00">+</text>
<text text-anchor="start" x="30" y="-278.5" font-family="Helvetica,sans-Serif" font-size="10.00">Cyan</text>
<text text-anchor="start" x="12" y="-262.5" font-family="Helvetica,sans-Serif" font-size="10.00">+</text>
<text text-anchor="start" x="30" y="-262.5" font-family="Helvetica,sans-Serif" font-size="10.00">DarkBrown</text>
<text text-anchor="start" x="12" y="-246.5" font-family="Helvetica,sans-Serif" font-size="10.00">+</text>
<text text-anchor="start" x="30" y="-246.5" font-family="Helvetica,sans-Serif" font-size="10.00">DarkGreen</text>
<text text-anchor="start" x="12" y="-230.5" font-family="Helvetica,sans-Serif" font-size="10.00">+</text>
<text text-anchor="start" x="30" y="-230.5" font-family="Helvetica,sans-Serif" font-size="10.00">DarkGrey</text>
<text text-anchor="start" x="12" y="-214.5" font-family="Helvetica,sans-Serif" font-size="10.00">+</text>
<text text-anchor="start" x="30" y="-214.5" font-family="Helvetica,sans-Serif" font-size="10.00">Green</text>
<text text-anchor="start" x="12" y="-198.5" font-family="Helvetica,sans-Serif" font-size="10.00">+</text>
<text text-anchor="start" x="30" y="-198.5" font-family="Helvetica,sans-Serif" font-size="10.00">Grey</text>
<text text-anchor="start" x="30" y="-182.5" font-family="Helvetica,sans-Serif" font-size="10.00">and 8 more...</text>
<text text-anchor="start" x="12" y="-166.5" font-family="Helvetica,sans-Serif" font-size="10.00">+</text>
<text text-anchor="start" x="30" y="-166.5" font-family="Helvetica,sans-Serif" font-size="10.00">ColorRgb()</text>
<text text-anchor="start" x="12" y="-150.5" font-family="Helvetica,sans-Serif" font-size="10.00">+</text>
<text text-anchor="start" x="30" y="-150.5" font-family="Helvetica,sans-Serif" font-size="10.00">ColorRgb()</text>
<text text-anchor="start" x="12" y="-134.5" font-family="Helvetica,sans-Serif" font-size="10.00">+</text>
<text text-anchor="start" x="30" y="-134.5" font-family="Helvetica,sans-Serif" font-size="10.00">ColorRgb()</text>
<text text-anchor="start" x="12" y="-118.5" font-family="Helvetica,sans-Serif" font-size="10.00">+</text>
<text text-anchor="start" x="30" y="-118.5" font-family="Helvetica,sans-Serif" font-size="10.00">ColorRgb()</text>
<text text-anchor="start" x="12" y="-102.5" font-family="Helvetica,sans-Serif" font-size="10.00">+</text>
<text text-anchor="start" x="30" y="-102.5" font-family="Helvetica,sans-Serif" font-size="10.00">ColorRgb()</text>
<text text-anchor="start" x="12" y="-86.5" font-family="Helvetica,sans-Serif" font-size="10.00">+</text>
<text text-anchor="start" x="30" y="-86.5" font-family="Helvetica,sans-Serif" font-size="10.00">ColorRgb()</text>
<text text-anchor="start" x="12" y="-70.5" font-family="Helvetica,sans-Serif" font-size="10.00">+</text>
<text text-anchor="start" x="30" y="-70.5" font-family="Helvetica,sans-Serif" font-size="10.00">~ColorRgb()</text>
<text text-anchor="start" x="12" y="-54.5" font-family="Helvetica,sans-Serif" font-size="10.00">+</text>
<text text-anchor="start" x="30" y="-54.5" font-family="Helvetica,sans-Serif" font-size="10.00">getB()</text>
<text text-anchor="start" x="12" y="-38.5" font-family="Helvetica,sans-Serif" font-size="10.00">+</text>
<text text-anchor="start" x="30" y="-38.5" font-family="Helvetica,sans-Serif" font-size="10.00">getBNormalized()</text>
<text text-anchor="start" x="12" y="-22.5" font-family="Helvetica,sans-Serif" font-size="10.00">+</text>
<text text-anchor="start" x="30" y="-22.5" font-family="Helvetica,sans-Serif" font-size="10.00">getG()</text>
<text text-anchor="start" x="30" y="-6.5" font-family="Helvetica,sans-Serif" font-size="10.00">and 10 more...</text>
<polygon fill="#666666" stroke="#666666" points="0,-354 0,-354 125,-354 125,-354 0,-354"/>
<polygon fill="#666666" stroke="#666666" points="0,-178 0,-178 28,-178 28,-178 0,-178"/>
<polygon fill="#666666" stroke="#666666" points="28,-178 28,-178 125,-178 125,-178 28,-178"/>
<polygon fill="none" stroke="#666666" points="0,0 0,-384 125,-384 125,0 0,0"/>
</a>
</g>
</g>
<!-- Node1&#45;&gt;Node2 -->
<g id="edge1_Node000001_Node000002" class="edge">
<title>Node1&#45;&gt;Node2</title>
<g id="a_edge1_Node000001_Node000002"><a xlink:title=" ">
<path fill="none" stroke="#63b8ff" d="M459.09,-543.01C374.13,-523.8 223.74,-478.26 134.5,-384 131.09,-380.4 127.84,-376.62 124.73,-372.69"/>
<polygon fill="none" stroke="#63b8ff" points="458.13,-546.38 468.65,-545.12 459.63,-539.55 458.13,-546.38"/>
</a>
</g>
</g>
<!-- Node3 -->
<g id="Node000003" class="node">
<title>Node3</title>
<g id="a_Node000003"><a xlink:href="struct_g_l_e_s_c_1_1_render_1_1_color_rgb_norm.html" target="_top" xlink:title="Color in normalized values.">
<polygon fill="white" stroke="none" points="291.5,-296 143.5,-296 143.5,-88 291.5,-88 291.5,-296"/>
<text text-anchor="start" x="148.12" y="-282.5" font-family="Helvetica,sans-Serif" font-size="10.00">GLESC::Render::ColorRgbNorm</text>
<text text-anchor="start" x="193.88" y="-270.5" font-family="Helvetica,sans-Serif" font-size="10.00">&lt; float, 3 &gt;</text>
<text text-anchor="start" x="216" y="-254.5" font-family="Helvetica,sans-Serif" font-size="10.00"> </text>
<text text-anchor="start" x="162.5" y="-238.5" font-family="Helvetica,sans-Serif" font-size="10.00">+</text>
<text text-anchor="start" x="187.5" y="-238.5" font-family="Helvetica,sans-Serif" font-size="10.00">ColorRgbNorm()</text>
<text text-anchor="start" x="162.5" y="-222.5" font-family="Helvetica,sans-Serif" font-size="10.00">+</text>
<text text-anchor="start" x="187.5" y="-222.5" font-family="Helvetica,sans-Serif" font-size="10.00">ColorRgbNorm()</text>
<text text-anchor="start" x="162.5" y="-206.5" font-family="Helvetica,sans-Serif" font-size="10.00">+</text>
<text text-anchor="start" x="187.5" y="-206.5" font-family="Helvetica,sans-Serif" font-size="10.00">ColorRgbNorm()</text>
<text text-anchor="start" x="162.5" y="-190.5" font-family="Helvetica,sans-Serif" font-size="10.00">+</text>
<text text-anchor="start" x="187.5" y="-190.5" font-family="Helvetica,sans-Serif" font-size="10.00">getB()</text>
<text text-anchor="start" x="162.5" y="-174.5" font-family="Helvetica,sans-Serif" font-size="10.00">+</text>
<text text-anchor="start" x="187.5" y="-174.5" font-family="Helvetica,sans-Serif" font-size="10.00">getG()</text>
<text text-anchor="start" x="162.5" y="-158.5" font-family="Helvetica,sans-Serif" font-size="10.00">+</text>
<text text-anchor="start" x="187.5" y="-158.5" font-family="Helvetica,sans-Serif" font-size="10.00">getR()</text>
<text text-anchor="start" x="162.5" y="-142.5" font-family="Helvetica,sans-Serif" font-size="10.00">+</text>
<text text-anchor="start" x="187.5" y="-142.5" font-family="Helvetica,sans-Serif" font-size="10.00">operator=()</text>
<text text-anchor="start" x="162.5" y="-126.5" font-family="Helvetica,sans-Serif" font-size="10.00">+</text>
<text text-anchor="start" x="187.5" y="-126.5" font-family="Helvetica,sans-Serif" font-size="10.00">operator=()</text>
<text text-anchor="start" x="162.5" y="-110.5" font-family="Helvetica,sans-Serif" font-size="10.00">+</text>
<text text-anchor="start" x="187.5" y="-110.5" font-family="Helvetica,sans-Serif" font-size="10.00">operator==()</text>
<text text-anchor="start" x="162.5" y="-94.5" font-family="Helvetica,sans-Serif" font-size="10.00">+</text>
<text text-anchor="start" x="187.5" y="-94.5" font-family="Helvetica,sans-Serif" font-size="10.00">toString()</text>
<polygon fill="#666666" stroke="#666666" points="143.5,-266 143.5,-266 291.5,-266 291.5,-266 143.5,-266"/>
<polygon fill="#666666" stroke="#666666" points="143.5,-250 143.5,-250 291.5,-250 291.5,-250 143.5,-250"/>
<polygon fill="none" stroke="#666666" points="143.5,-88 143.5,-296 291.5,-296 291.5,-88 143.5,-88"/>
</a>
</g>
</g>
<!-- Node1&#45;&gt;Node3 -->
<g id="edge2_Node000001_Node000003" class="edge">
<title>Node1&#45;&gt;Node3</title>
<g id="a_edge2_Node000001_Node000003"><a xlink:title=" ">
<path fill="none" stroke="#63b8ff" d="M460.6,-519.48C411.74,-488.84 344.67,-440.65 300.5,-384 280.16,-357.91 263.76,-326.07 251.07,-295.92"/>
<polygon fill="none" stroke="#63b8ff" points="458.49,-522.29 468.83,-524.58 462.17,-516.34 458.49,-522.29"/>
</a>
</g>
</g>
<!-- Node4 -->
<g id="Node000004" class="node">
<title>Node4</title>
<g id="a_Node000004"><a xlink:href="struct_g_l_e_s_c_1_1_render_1_1_color_rgba.html" target="_top" xlink:title="Color in RGBA values (x = [0] = R, y = [1] = G, z = [2] = B, w = [3] = A)">
<polygon fill="white" stroke="none" points="439.5,-304 309.5,-304 309.5,-80 439.5,-80 439.5,-304"/>
<text text-anchor="start" x="314.12" y="-290.5" font-family="Helvetica,sans-Serif" font-size="10.00">GLESC::Render::ColorRgba</text>
<text text-anchor="start" x="350.88" y="-278.5" font-family="Helvetica,sans-Serif" font-size="10.00">&lt; float, 4 &gt;</text>
<text text-anchor="start" x="373" y="-262.5" font-family="Helvetica,sans-Serif" font-size="10.00"> </text>
<text text-anchor="start" x="322.5" y="-246.5" font-family="Helvetica,sans-Serif" font-size="10.00">+</text>
<text text-anchor="start" x="341.5" y="-246.5" font-family="Helvetica,sans-Serif" font-size="10.00">ColorRgba()</text>
<text text-anchor="start" x="322.5" y="-230.5" font-family="Helvetica,sans-Serif" font-size="10.00">+</text>
<text text-anchor="start" x="341.5" y="-230.5" font-family="Helvetica,sans-Serif" font-size="10.00">ColorRgba()</text>
<text text-anchor="start" x="322.5" y="-214.5" font-family="Helvetica,sans-Serif" font-size="10.00">+</text>
<text text-anchor="start" x="341.5" y="-214.5" font-family="Helvetica,sans-Serif" font-size="10.00">ColorRgba()</text>
<text text-anchor="start" x="322.5" y="-198.5" font-family="Helvetica,sans-Serif" font-size="10.00">+</text>
<text text-anchor="start" x="341.5" y="-198.5" font-family="Helvetica,sans-Serif" font-size="10.00">ColorRgba()</text>
<text text-anchor="start" x="322.5" y="-182.5" font-family="Helvetica,sans-Serif" font-size="10.00">+</text>
<text text-anchor="start" x="341.5" y="-182.5" font-family="Helvetica,sans-Serif" font-size="10.00">ColorRgba()</text>
<text text-anchor="start" x="322.5" y="-166.5" font-family="Helvetica,sans-Serif" font-size="10.00">+</text>
<text text-anchor="start" x="341.5" y="-166.5" font-family="Helvetica,sans-Serif" font-size="10.00">ColorRgba()</text>
<text text-anchor="start" x="322.5" y="-150.5" font-family="Helvetica,sans-Serif" font-size="10.00">+</text>
<text text-anchor="start" x="341.5" y="-150.5" font-family="Helvetica,sans-Serif" font-size="10.00">~ColorRgba()</text>
<text text-anchor="start" x="322.5" y="-134.5" font-family="Helvetica,sans-Serif" font-size="10.00">+</text>
<text text-anchor="start" x="341.5" y="-134.5" font-family="Helvetica,sans-Serif" font-size="10.00">getA()</text>
<text text-anchor="start" x="322.5" y="-118.5" font-family="Helvetica,sans-Serif" font-size="10.00">+</text>
<text text-anchor="start" x="341.5" y="-118.5" font-family="Helvetica,sans-Serif" font-size="10.00">getAModifiable()</text>
<text text-anchor="start" x="322.5" y="-102.5" font-family="Helvetica,sans-Serif" font-size="10.00">+</text>
<text text-anchor="start" x="341.5" y="-102.5" font-family="Helvetica,sans-Serif" font-size="10.00">getANormalized()</text>
<text text-anchor="start" x="341.5" y="-86.5" font-family="Helvetica,sans-Serif" font-size="10.00">and 17 more...</text>
<polygon fill="#666666" stroke="#666666" points="309.5,-274 309.5,-274 439.5,-274 439.5,-274 309.5,-274"/>
<polygon fill="#666666" stroke="#666666" points="309.5,-258 309.5,-258 439.5,-258 439.5,-258 309.5,-258"/>
<polygon fill="none" stroke="#666666" points="309.5,-80 309.5,-304 439.5,-304 439.5,-80 309.5,-80"/>
</a>
</g>
</g>
<!-- Node1&#45;&gt;Node4 -->
<g id="edge3_Node000001_Node000004" class="edge">
<title>Node1&#45;&gt;Node4</title>
<g id="a_edge3_Node000001_Node000004"><a xlink:title=" ">
<path fill="none" stroke="#63b8ff" d="M469.46,-434.03C462.31,-417.27 455.16,-400.24 448.5,-384 437.91,-358.17 426.86,-330.22 416.62,-303.88"/>
<polygon fill="none" stroke="#63b8ff" points="466.16,-435.21 473.31,-443.03 472.59,-432.46 466.16,-435.21"/>
</a>
</g>
</g>
<!-- Node5 -->
<g id="Node000005" class="node">
<title>Node5</title>
<g id="a_Node000005"><a xlink:href="struct_g_l_e_s_c_1_1_render_1_1_color_rgba_norm.html" target="_top" xlink:title="Color in normalized values.">
<polygon fill="white" stroke="none" points="587.5,-296 457.5,-296 457.5,-88 587.5,-88 587.5,-296"/>
<text text-anchor="start" x="462.12" y="-282.5" font-family="Helvetica,sans-Serif" font-size="10.00">GLESC::Render::ColorRgba</text>
<text text-anchor="start" x="487.25" y="-270.5" font-family="Helvetica,sans-Serif" font-size="10.00">Norm&lt; float, 4 &gt;</text>
<text text-anchor="start" x="521" y="-254.5" font-family="Helvetica,sans-Serif" font-size="10.00"> </text>
<text text-anchor="start" x="471" y="-238.5" font-family="Helvetica,sans-Serif" font-size="10.00">+</text>
<text text-anchor="start" x="490.5" y="-238.5" font-family="Helvetica,sans-Serif" font-size="10.00">ColorRgbaNorm()</text>
<text text-anchor="start" x="471" y="-222.5" font-family="Helvetica,sans-Serif" font-size="10.00">+</text>
<text text-anchor="start" x="490.5" y="-222.5" font-family="Helvetica,sans-Serif" font-size="10.00">ColorRgbaNorm()</text>
<text text-anchor="start" x="471" y="-206.5" font-family="Helvetica,sans-Serif" font-size="10.00">+</text>
<text text-anchor="start" x="490.5" y="-206.5" font-family="Helvetica,sans-Serif" font-size="10.00">getA()</text>
<text text-anchor="start" x="471" y="-190.5" font-family="Helvetica,sans-Serif" font-size="10.00">+</text>
<text text-anchor="start" x="490.5" y="-190.5" font-family="Helvetica,sans-Serif" font-size="10.00">getB()</text>
<text text-anchor="start" x="471" y="-174.5" font-family="Helvetica,sans-Serif" font-size="10.00">+</text>
<text text-anchor="start" x="490.5" y="-174.5" font-family="Helvetica,sans-Serif" font-size="10.00">getG()</text>
<text text-anchor="start" x="471" y="-158.5" font-family="Helvetica,sans-Serif" font-size="10.00">+</text>
<text text-anchor="start" x="490.5" y="-158.5" font-family="Helvetica,sans-Serif" font-size="10.00">getR()</text>
<text text-anchor="start" x="471" y="-142.5" font-family="Helvetica,sans-Serif" font-size="10.00">+</text>
<text text-anchor="start" x="490.5" y="-142.5" font-family="Helvetica,sans-Serif" font-size="10.00">operator=()</text>
<text text-anchor="start" x="471" y="-126.5" font-family="Helvetica,sans-Serif" font-size="10.00">+</text>
<text text-anchor="start" x="490.5" y="-126.5" font-family="Helvetica,sans-Serif" font-size="10.00">operator=()</text>
<text text-anchor="start" x="471" y="-110.5" font-family="Helvetica,sans-Serif" font-size="10.00">+</text>
<text text-anchor="start" x="490.5" y="-110.5" font-family="Helvetica,sans-Serif" font-size="10.00">operator==()</text>
<text text-anchor="start" x="471" y="-94.5" font-family="Helvetica,sans-Serif" font-size="10.00">+</text>
<text text-anchor="start" x="490.5" y="-94.5" font-family="Helvetica,sans-Serif" font-size="10.00">toString()</text>
<polygon fill="#666666" stroke="#666666" points="457.5,-266 457.5,-266 587.5,-266 587.5,-266 457.5,-266"/>
<polygon fill="#666666" stroke="#666666" points="457.5,-250 457.5,-250 587.5,-250 587.5,-250 457.5,-250"/>
<polygon fill="none" stroke="#666666" points="457.5,-88 457.5,-296 587.5,-296 587.5,-88 457.5,-88"/>
</a>
</g>
</g>
<!-- Node1&#45;&gt;Node5 -->
<g id="edge4_Node000001_Node000005" class="edge">
<title>Node1&#45;&gt;Node5</title>
<g id="a_edge4_Node000001_Node000005"><a xlink:title=" ">
<path fill="none" stroke="#63b8ff" d="M522.5,-432.92C522.5,-388.38 522.5,-338.5 522.5,-295.8"/>
<polygon fill="none" stroke="#63b8ff" points="519,-432.91 522.5,-442.91 526,-432.91 519,-432.91"/>
</a>
</g>
</g>
<!-- Node6 -->
<g id="Node000006" class="node">
<title>Node6</title>
<g id="a_Node000006"><a xlink:href="class_g_l_e_s_c_1_1_math_1_1_vector.html" target="_top" xlink:title=" ">
<polygon fill="white" stroke="none" points="711,-304 606,-304 606,-80 711,-80 711,-304"/>
<text text-anchor="start" x="610.88" y="-290.5" font-family="Helvetica,sans-Serif" font-size="10.00">GLESC::Math::Vector</text>
<text text-anchor="start" x="634.88" y="-278.5" font-family="Helvetica,sans-Serif" font-size="10.00">&lt; float, 3 &gt;</text>
<text text-anchor="start" x="616" y="-262.5" font-family="Helvetica,sans-Serif" font-size="10.00">+</text>
<text text-anchor="start" x="632" y="-262.5" font-family="Helvetica,sans-Serif" font-size="10.00">data</text>
<text text-anchor="start" x="616" y="-246.5" font-family="Helvetica,sans-Serif" font-size="10.00">+</text>
<text text-anchor="start" x="632" y="-246.5" font-family="Helvetica,sans-Serif" font-size="10.00">Vector()</text>
<text text-anchor="start" x="616" y="-230.5" font-family="Helvetica,sans-Serif" font-size="10.00">+</text>
<text text-anchor="start" x="632" y="-230.5" font-family="Helvetica,sans-Serif" font-size="10.00">Vector()</text>
<text text-anchor="start" x="616" y="-214.5" font-family="Helvetica,sans-Serif" font-size="10.00">+</text>
<text text-anchor="start" x="632" y="-214.5" font-family="Helvetica,sans-Serif" font-size="10.00">Vector()</text>
<text text-anchor="start" x="616" y="-198.5" font-family="Helvetica,sans-Serif" font-size="10.00">+</text>
<text text-anchor="start" x="632" y="-198.5" font-family="Helvetica,sans-Serif" font-size="10.00">Vector()</text>
<text text-anchor="start" x="616" y="-182.5" font-family="Helvetica,sans-Serif" font-size="10.00">+</text>
<text text-anchor="start" x="632" y="-182.5" font-family="Helvetica,sans-Serif" font-size="10.00">Vector()</text>
<text text-anchor="start" x="616" y="-166.5" font-family="Helvetica,sans-Serif" font-size="10.00">+</text>
<text text-anchor="start" x="632" y="-166.5" font-family="Helvetica,sans-Serif" font-size="10.00">Vector()</text>
<text text-anchor="start" x="616" y="-150.5" font-family="Helvetica,sans-Serif" font-size="10.00">+</text>
<text text-anchor="start" x="632" y="-150.5" font-family="Helvetica,sans-Serif" font-size="10.00">Vector()</text>
<text text-anchor="start" x="616" y="-134.5" font-family="Helvetica,sans-Serif" font-size="10.00">+</text>
<text text-anchor="start" x="632" y="-134.5" font-family="Helvetica,sans-Serif" font-size="10.00">Vector()</text>
<text text-anchor="start" x="616" y="-118.5" font-family="Helvetica,sans-Serif" font-size="10.00">+</text>
<text text-anchor="start" x="632" y="-118.5" font-family="Helvetica,sans-Serif" font-size="10.00">Vector()</text>
<text text-anchor="start" x="616" y="-102.5" font-family="Helvetica,sans-Serif" font-size="10.00">+</text>
<text text-anchor="start" x="632" y="-102.5" font-family="Helvetica,sans-Serif" font-size="10.00">Vector()</text>
<text text-anchor="start" x="632" y="-86.5" font-family="Helvetica,sans-Serif" font-size="10.00">and 90 more...</text>
<polygon fill="#666666" stroke="#666666" points="606,-274 606,-274 711,-274 711,-274 606,-274"/>
<polygon fill="#666666" stroke="#666666" points="606,-258 606,-258 630,-258 630,-258 606,-258"/>
<polygon fill="#666666" stroke="#666666" points="630,-258 630,-258 711,-258 711,-258 630,-258"/>
<polygon fill="none" stroke="#666666" points="606,-80 606,-304 711,-304 711,-80 606,-80"/>
</a>
</g>
</g>
<!-- Node1&#45;&gt;Node6 -->
<g id="edge5_Node000001_Node000006" class="edge">
<title>Node1&#45;&gt;Node6</title>
<g id="a_edge5_Node000001_Node000006"><a xlink:title=" ">
<path fill="none" stroke="orange" d="M576.55,-433.98C583.51,-417.29 590.35,-400.29 596.5,-384 606.2,-358.32 615.8,-330.36 624.44,-303.96"/>
<polygon fill="orange" stroke="orange" points="573.44,-432.35 572.79,-442.93 579.89,-435.06 573.44,-432.35"/>
</a>
</g>
<text text-anchor="middle" x="614.62" y="-410.5" font-family="Helvetica,sans-Serif" font-size="10.00" fill="grey"> &lt; float, 3 &gt;</text>
</g>
<!-- Node7 -->
<g id="Node000007" class="node">
<title>Node7</title>
<g id="a_Node000007"><a xlink:href="class_g_l_e_s_c_1_1_math_1_1_vector.html" target="_top" xlink:title=" ">
<polygon fill="white" stroke="none" points="834,-304 729,-304 729,-80 834,-80 834,-304"/>
<text text-anchor="start" x="733.88" y="-290.5" font-family="Helvetica,sans-Serif" font-size="10.00">GLESC::Math::Vector</text>
<text text-anchor="start" x="757.88" y="-278.5" font-family="Helvetica,sans-Serif" font-size="10.00">&lt; bool, 3 &gt;</text>
<text text-anchor="start" x="739" y="-262.5" font-family="Helvetica,sans-Serif" font-size="10.00">+</text>
<text text-anchor="start" x="755" y="-262.5" font-family="Helvetica,sans-Serif" font-size="10.00">data</text>
<text text-anchor="start" x="739" y="-246.5" font-family="Helvetica,sans-Serif" font-size="10.00">+</text>
<text text-anchor="start" x="755" y="-246.5" font-family="Helvetica,sans-Serif" font-size="10.00">Vector()</text>
<text text-anchor="start" x="739" y="-230.5" font-family="Helvetica,sans-Serif" font-size="10.00">+</text>
<text text-anchor="start" x="755" y="-230.5" font-family="Helvetica,sans-Serif" font-size="10.00">Vector()</text>
<text text-anchor="start" x="739" y="-214.5" font-family="Helvetica,sans-Serif" font-size="10.00">+</text>
<text text-anchor="start" x="755" y="-214.5" font-family="Helvetica,sans-Serif" font-size="10.00">Vector()</text>
<text text-anchor="start" x="739" y="-198.5" font-family="Helvetica,sans-Serif" font-size="10.00">+</text>
<text text-anchor="start" x="755" y="-198.5" font-family="Helvetica,sans-Serif" font-size="10.00">Vector()</text>
<text text-anchor="start" x="739" y="-182.5" font-family="Helvetica,sans-Serif" font-size="10.00">+</text>
<text text-anchor="start" x="755" y="-182.5" font-family="Helvetica,sans-Serif" font-size="10.00">Vector()</text>
<text text-anchor="start" x="739" y="-166.5" font-family="Helvetica,sans-Serif" font-size="10.00">+</text>
<text text-anchor="start" x="755" y="-166.5" font-family="Helvetica,sans-Serif" font-size="10.00">Vector()</text>
<text text-anchor="start" x="739" y="-150.5" font-family="Helvetica,sans-Serif" font-size="10.00">+</text>
<text text-anchor="start" x="755" y="-150.5" font-family="Helvetica,sans-Serif" font-size="10.00">Vector()</text>
<text text-anchor="start" x="739" y="-134.5" font-family="Helvetica,sans-Serif" font-size="10.00">+</text>
<text text-anchor="start" x="755" y="-134.5" font-family="Helvetica,sans-Serif" font-size="10.00">Vector()</text>
<text text-anchor="start" x="739" y="-118.5" font-family="Helvetica,sans-Serif" font-size="10.00">+</text>
<text text-anchor="start" x="755" y="-118.5" font-family="Helvetica,sans-Serif" font-size="10.00">Vector()</text>
<text text-anchor="start" x="739" y="-102.5" font-family="Helvetica,sans-Serif" font-size="10.00">+</text>
<text text-anchor="start" x="755" y="-102.5" font-family="Helvetica,sans-Serif" font-size="10.00">Vector()</text>
<text text-anchor="start" x="755" y="-86.5" font-family="Helvetica,sans-Serif" font-size="10.00">and 90 more...</text>
<polygon fill="#666666" stroke="#666666" points="729,-274 729,-274 834,-274 834,-274 729,-274"/>
<polygon fill="#666666" stroke="#666666" points="729,-258 729,-258 753,-258 753,-258 729,-258"/>
<polygon fill="#666666" stroke="#666666" points="753,-258 753,-258 834,-258 834,-258 753,-258"/>
<polygon fill="none" stroke="#666666" points="729,-80 729,-304 834,-304 834,-80 729,-80"/>
</a>
</g>
</g>
<!-- Node1&#45;&gt;Node7 -->
<g id="edge6_Node000001_Node000007" class="edge">
<title>Node1&#45;&gt;Node7</title>
<g id="a_edge6_Node000001_Node000007"><a xlink:title=" ">
<path fill="none" stroke="orange" d="M584.1,-515.54C627.86,-484.59 684.93,-437.84 720.5,-384 736.42,-359.89 748.44,-331.34 757.4,-303.76"/>
<polygon fill="orange" stroke="orange" points="582.15,-512.63 575.94,-521.22 586.15,-518.38 582.15,-512.63"/>
</a>
</g>
<text text-anchor="middle" x="728.62" y="-410.5" font-family="Helvetica,sans-Serif" font-size="10.00" fill="grey"> &lt; bool, 3 &gt;</text>
</g>
<!-- Node8 -->
<g id="Node000008" class="node">
<title>Node8</title>
<g id="a_Node000008"><a xlink:href="class_g_l_e_s_c_1_1_math_1_1_vector.html" target="_top" xlink:title=" ">
<polygon fill="white" stroke="none" points="992.5,-310 852.5,-310 852.5,-74 992.5,-74 992.5,-310"/>
<text text-anchor="start" x="857.25" y="-296.5" font-family="Helvetica,sans-Serif" font-size="10.00">GLESC::Math::Vector</text>
<text text-anchor="start" x="857.25" y="-284.5" font-family="Helvetica,sans-Serif" font-size="10.00">&lt; typename Type::ValueType,</text>
<text text-anchor="start" x="893.25" y="-272.5" font-family="Helvetica,sans-Serif" font-size="10.00"> Type::Size &gt;</text>
<text text-anchor="start" x="871" y="-256.5" font-family="Helvetica,sans-Serif" font-size="10.00">+</text>
<text text-anchor="start" x="895.5" y="-256.5" font-family="Helvetica,sans-Serif" font-size="10.00">data</text>
<text text-anchor="start" x="871" y="-240.5" font-family="Helvetica,sans-Serif" font-size="10.00">+</text>
<text text-anchor="start" x="895.5" y="-240.5" font-family="Helvetica,sans-Serif" font-size="10.00">Vector()</text>
<text text-anchor="start" x="871" y="-224.5" font-family="Helvetica,sans-Serif" font-size="10.00">+</text>
<text text-anchor="start" x="895.5" y="-224.5" font-family="Helvetica,sans-Serif" font-size="10.00">Vector()</text>
<text text-anchor="start" x="871" y="-208.5" font-family="Helvetica,sans-Serif" font-size="10.00">+</text>
<text text-anchor="start" x="895.5" y="-208.5" font-family="Helvetica,sans-Serif" font-size="10.00">Vector()</text>
<text text-anchor="start" x="871" y="-192.5" font-family="Helvetica,sans-Serif" font-size="10.00">+</text>
<text text-anchor="start" x="895.5" y="-192.5" font-family="Helvetica,sans-Serif" font-size="10.00">Vector()</text>
<text text-anchor="start" x="871" y="-176.5" font-family="Helvetica,sans-Serif" font-size="10.00">+</text>
<text text-anchor="start" x="895.5" y="-176.5" font-family="Helvetica,sans-Serif" font-size="10.00">Vector()</text>
<text text-anchor="start" x="871" y="-160.5" font-family="Helvetica,sans-Serif" font-size="10.00">+</text>
<text text-anchor="start" x="895.5" y="-160.5" font-family="Helvetica,sans-Serif" font-size="10.00">Vector()</text>
<text text-anchor="start" x="871" y="-144.5" font-family="Helvetica,sans-Serif" font-size="10.00">+</text>
<text text-anchor="start" x="895.5" y="-144.5" font-family="Helvetica,sans-Serif" font-size="10.00">Vector()</text>
<text text-anchor="start" x="871" y="-128.5" font-family="Helvetica,sans-Serif" font-size="10.00">+</text>
<text text-anchor="start" x="895.5" y="-128.5" font-family="Helvetica,sans-Serif" font-size="10.00">Vector()</text>
<text text-anchor="start" x="871" y="-112.5" font-family="Helvetica,sans-Serif" font-size="10.00">+</text>
<text text-anchor="start" x="895.5" y="-112.5" font-family="Helvetica,sans-Serif" font-size="10.00">Vector()</text>
<text text-anchor="start" x="871" y="-96.5" font-family="Helvetica,sans-Serif" font-size="10.00">+</text>
<text text-anchor="start" x="895.5" y="-96.5" font-family="Helvetica,sans-Serif" font-size="10.00">Vector()</text>
<text text-anchor="start" x="895.5" y="-80.5" font-family="Helvetica,sans-Serif" font-size="10.00">and 90 more...</text>
<polygon fill="#666666" stroke="#666666" points="852.5,-268 852.5,-268 992.5,-268 992.5,-268 852.5,-268"/>
<polygon fill="#666666" stroke="#666666" points="852.5,-252 852.5,-252 893.5,-252 893.5,-252 852.5,-252"/>
<polygon fill="#666666" stroke="#666666" points="893.5,-252 893.5,-252 992.5,-252 992.5,-252 893.5,-252"/>
<polygon fill="none" stroke="#666666" points="852.5,-74 852.5,-310 992.5,-310 992.5,-74 852.5,-74"/>
</a>
</g>
</g>
<!-- Node1&#45;&gt;Node8 -->
<g id="edge7_Node000001_Node000008" class="edge">
<title>Node1&#45;&gt;Node8</title>
<g id="a_edge7_Node000001_Node000008"><a xlink:title=" ">
<path fill="none" stroke="orange" d="M585.4,-535.97C656.75,-511.45 772.38,-462.4 843.5,-384 862.79,-362.74 877.74,-336.11 889.17,-309.55"/>
<polygon fill="orange" stroke="orange" points="584.57,-532.56 576.21,-539.07 586.81,-539.19 584.57,-532.56"/>
</a>
</g>
<text text-anchor="start" x="822.5" y="-416.5" font-family="Helvetica,sans-Serif" font-size="10.00" fill="grey"> &lt; typename Type::ValueType,</text>
<text text-anchor="middle" x="889.25" y="-404.5" font-family="Helvetica,sans-Serif" font-size="10.00" fill="grey"> Type::Size &gt;</text>
</g>
</g>
</svg>

<g id="navigator" transform="translate(0 0)" fill="#404254">
  <rect fill="#f2f5e9" fill-opacity="0.5" stroke="#606060" stroke-width=".5" x="0" y="0" width="60" height="60"/>
  <use id="zoomplus" xlink:href="#zoomPlus" x="17" y="9" onmousedown="handleZoom(evt,'in')"/>
  <use id="zoomminus" xlink:href="#zoomMin" x="42" y="9" onmousedown="handleZoom(evt,'out')"/>
  <use id="reset" xlink:href="#resetDef" x="30" y="36" onmousedown="handleReset()"/>
   <use id="arrowup" xlink:href="#arrowUp" x="0" y="0" onmousedown="handlePan(0,-1)"/>
  <use id="arrowright" xlink:href="#arrowRight" x="0" y="0" onmousedown="handlePan(1,0)"/>
  <use id="arrowdown" xlink:href="#arrowDown" x="0" y="0" onmousedown="handlePan(0,1)"/>
  <use id="arrowleft" xlink:href="#arrowLeft" x="0" y="0" onmousedown="handlePan(-1,0)"/>
</g>
<svg viewBox="0 0 15 15" width="100%" height="30px" preserveAspectRatio="xMaxYMin meet">
 <g id="arrow_out" transform="scale(0.3 0.3)">
  <a xlink:href="class_g_l_e_s_c_1_1_math_1_1_vector__inherit__graph_org.svg" target="_base">
   <rect id="button" ry="5" rx="5" y="6" x="6" height="38" width="38"
        fill="#f2f5e9" fill-opacity="0.5" stroke="#606060" stroke-width="1.0"/>
   <path id="arrow"
     d="M 11.500037,31.436501 C 11.940474,20.09759 22.043105,11.32322 32.158766,21.979434 L 37.068811,17.246167 C 37.068811,17.246167 37.088388,32 37.088388,32 L 22.160133,31.978069 C 22.160133,31.978069 26.997745,27.140456 26.997745,27.140456 C 18.528582,18.264221 13.291696,25.230495 11.500037,31.436501 z"
     style="fill:#404040;"/>
  </a>
 </g>
</svg>

<style type='text/css'>
<![CDATA[
[data-mouse-over-selected='false'] { opacity: 0.7; }
[data-mouse-over-selected='true']  { opacity: 1.0; }
]]>
</style>
<script type="application/ecmascript"><![CDATA[
document.addEventListener('DOMContentLoaded', (event) => {
  highlightEdges();
  highlightAdjacentNodes();
});
]]></script>
</svg>
