<?xml version="1.0" encoding="UTF-8" standalone="no"?>
<!DOCTYPE svg PUBLIC "-//W3C//DTD SVG 1.1//EN"
 "http://www.w3.org/Graphics/SVG/1.1/DTD/svg11.dtd">
<!-- Generated by graphviz version 11.0.0 (20240428.1522)
 -->
<!-- Title: GLESC::Math::VectorAlgorithms::homogenize Pages: 1 -->
<svg width="1088pt" height="248pt"
 viewBox="0.00 0.00 1088.25 248.00" xmlns="http://www.w3.org/2000/svg" xmlns:xlink="http://www.w3.org/1999/xlink">
<g id="graph0" class="graph" transform="scale(1 1) rotate(0) translate(4 244)">
<title>GLESC::Math::VectorAlgorithms::homogenize</title>
<!-- Node1 -->
<g id="Node000001" class="node">
<title>Node1</title>
<g id="a_Node000001"><a xlink:title="Homozenizes a vector.">
<polygon fill="#999999" stroke="#666666" points="1080.25,-83 922.5,-83 922.5,-51 1080.25,-51 1080.25,-83"/>
<text text-anchor="start" x="930.5" y="-69.5" font-family="Helvetica,sans-Serif" font-size="10.00">GLESC::Math::VectorAlgorithms</text>
<text text-anchor="middle" x="1001.38" y="-57.5" font-family="Helvetica,sans-Serif" font-size="10.00">::homogenize</text>
</a>
</g>
</g>
<!-- Node2 -->
<g id="Node000002" class="node">
<title>Node2</title>
<g id="a_Node000002"><a xlink:href="class_g_l_e_s_c_1_1_math_1_1_vector.html#ae97c63da7362348a91413c64256df459" target="_top" xlink:title="Homogenizes the vector.">
<polygon fill="white" stroke="#666666" points="886.5,-146 775.25,-146 775.25,-114 886.5,-114 886.5,-146"/>
<text text-anchor="start" x="783.25" y="-132.5" font-family="Helvetica,sans-Serif" font-size="10.00">GLESC::Math::Vector</text>
<text text-anchor="middle" x="830.88" y="-120.5" font-family="Helvetica,sans-Serif" font-size="10.00">::homogenize</text>
</a>
</g>
</g>
<!-- Node1&#45;&gt;Node2 -->
<g id="edge1_Node000001_Node000002" class="edge">
<title>Node1&#45;&gt;Node2</title>
<g id="a_edge1_Node000001_Node000002"><a xlink:title=" ">
<path fill="none" stroke="#63b8ff" d="M946.03,-87.32C923.31,-95.81 897.26,-105.56 875.78,-113.58"/>
<polygon fill="#63b8ff" stroke="#63b8ff" points="946.98,-90.7 955.13,-83.92 944.53,-84.14 946.98,-90.7"/>
</a>
</g>
</g>
<!-- Node12 -->
<g id="Node000012" class="node">
<title>Node12</title>
<g id="a_Node000012"><a xlink:href="_vector_algorithms_tests_8cpp.html#ae9a821962692985d3325b83c8036818b" target="_top" xlink:title=" ">
<polygon fill="white" stroke="#666666" points="869.62,-96 792.12,-96 792.12,-76 869.62,-76 869.62,-96"/>
<text text-anchor="middle" x="830.88" y="-82.5" font-family="Helvetica,sans-Serif" font-size="10.00">TYPED_TEST</text>
</a>
</g>
</g>
<!-- Node1&#45;&gt;Node12 -->
<g id="edge11_Node000001_Node000012" class="edge">
<title>Node1&#45;&gt;Node12</title>
<g id="a_edge11_Node000001_Node000012"><a xlink:title=" ">
<path fill="none" stroke="#63b8ff" d="M910.92,-77.09C896.4,-78.72 882.08,-80.34 869.7,-81.73"/>
<polygon fill="#63b8ff" stroke="#63b8ff" points="911,-80.6 920.54,-76 910.21,-73.64 911,-80.6"/>
</a>
</g>
</g>
<!-- Node13 -->
<g id="Node000013" class="node">
<title>Node13</title>
<g id="a_Node000013"><a xlink:href="_vector_tests_8cpp.html#a8b5781f5606e4a8924e1042cc714797b" target="_top" xlink:title=" ">
<polygon fill="white" stroke="#666666" points="869.62,-58 792.12,-58 792.12,-38 869.62,-38 869.62,-58"/>
<text text-anchor="middle" x="830.88" y="-44.5" font-family="Helvetica,sans-Serif" font-size="10.00">TYPED_TEST</text>
</a>
</g>
</g>
<!-- Node1&#45;&gt;Node13 -->
<g id="edge12_Node000001_Node000013" class="edge">
<title>Node1&#45;&gt;Node13</title>
<g id="a_edge12_Node000001_Node000013"><a xlink:title=" ">
<path fill="none" stroke="#63b8ff" d="M910.92,-56.91C896.4,-55.28 882.08,-53.66 869.7,-52.27"/>
<polygon fill="#63b8ff" stroke="#63b8ff" points="910.21,-60.36 920.54,-58 911,-53.4 910.21,-60.36"/>
</a>
</g>
</g>
<!-- Node14 -->
<g id="Node000014" class="node">
<title>Node14</title>
<g id="a_Node000014"><a xlink:href="_vector_tests_8cpp.html#aceaa296183b3198ffb75f8a3489ad4f0" target="_top" xlink:title=" ">
<polygon fill="white" stroke="#666666" points="869.62,-20 792.12,-20 792.12,0 869.62,0 869.62,-20"/>
<text text-anchor="middle" x="830.88" y="-6.5" font-family="Helvetica,sans-Serif" font-size="10.00">TYPED_TEST</text>
</a>
</g>
</g>
<!-- Node1&#45;&gt;Node14 -->
<g id="edge13_Node000001_Node000014" class="edge">
<title>Node1&#45;&gt;Node14</title>
<g id="a_edge13_Node000001_Node000014"><a xlink:title=" ">
<path fill="none" stroke="#63b8ff" d="M940.96,-46.9C914.55,-37.97 884.57,-27.82 862.73,-20.44"/>
<polygon fill="#63b8ff" stroke="#63b8ff" points="939.61,-50.14 950.2,-50.03 941.85,-43.51 939.61,-50.14"/>
</a>
</g>
</g>
<!-- Node3 -->
<g id="Node000003" class="node">
<title>Node3</title>
<g id="a_Node000003"><a xlink:href="class_g_l_e_s_c_1_1_transform_1_1_transformer.html#a0d20922989f21905e2113a48f4186c42" target="_top" xlink:title="Transforms a position by a given matrix.">
<polygon fill="white" stroke="#666666" points="739.25,-177 584.5,-177 584.5,-145 739.25,-145 739.25,-177"/>
<text text-anchor="start" x="592.5" y="-163.5" font-family="Helvetica,sans-Serif" font-size="10.00">GLESC::Transform::Transformer</text>
<text text-anchor="middle" x="661.88" y="-151.5" font-family="Helvetica,sans-Serif" font-size="10.00">::transformVector</text>
</a>
</g>
</g>
<!-- Node2&#45;&gt;Node3 -->
<g id="edge2_Node000002_Node000003" class="edge">
<title>Node2&#45;&gt;Node3</title>
<g id="a_edge2_Node000002_Node000003"><a xlink:title=" ">
<path fill="none" stroke="#63b8ff" d="M764,-142.23C755.96,-143.72 747.69,-145.26 739.5,-146.78"/>
<polygon fill="#63b8ff" stroke="#63b8ff" points="764.51,-145.69 773.7,-140.43 763.23,-138.81 764.51,-145.69"/>
</a>
</g>
</g>
<!-- Node10 -->
<g id="Node000010" class="node">
<title>Node10</title>
<g id="a_Node000010"><a xlink:href="class_g_l_e_s_c_1_1_transform_1_1_transformer.html#a867084113e8ae0eaaf7473f9c1d0a80b" target="_top" xlink:title="Transforms the world position to viewport coordinates.">
<polygon fill="white" stroke="#666666" points="739.25,-115 584.5,-115 584.5,-83 739.25,-83 739.25,-115"/>
<text text-anchor="start" x="592.5" y="-101.5" font-family="Helvetica,sans-Serif" font-size="10.00">GLESC::Transform::Transformer</text>
<text text-anchor="middle" x="661.88" y="-89.5" font-family="Helvetica,sans-Serif" font-size="10.00">::worldToViewport</text>
</a>
</g>
</g>
<!-- Node2&#45;&gt;Node10 -->
<g id="edge9_Node000002_Node000010" class="edge">
<title>Node2&#45;&gt;Node10</title>
<g id="a_edge9_Node000002_Node000010"><a xlink:title=" ">
<path fill="none" stroke="#63b8ff" d="M764,-117.77C755.96,-116.28 747.69,-114.74 739.5,-113.22"/>
<polygon fill="#63b8ff" stroke="#63b8ff" points="763.23,-121.19 773.7,-119.57 764.51,-114.31 763.23,-121.19"/>
</a>
</g>
</g>
<!-- Node4 -->
<g id="Node000004" class="node">
<title>Node4</title>
<g id="a_Node000004"><a xlink:href="class_g_l_e_s_c_1_1_render_1_1_renderer.html#aa1a9e1d79bb96f79ee1e421dd245bbf1" target="_top" xlink:title="This encapsulates the rendering of the lights, setting the uniforms.">
<polygon fill="white" stroke="#666666" points="536.5,-240 405.75,-240 405.75,-208 536.5,-208 536.5,-240"/>
<text text-anchor="start" x="413.75" y="-226.5" font-family="Helvetica,sans-Serif" font-size="10.00">GLESC::Render::Renderer</text>
<text text-anchor="middle" x="471.12" y="-214.5" font-family="Helvetica,sans-Serif" font-size="10.00">::renderLights</text>
</a>
</g>
</g>
<!-- Node3&#45;&gt;Node4 -->
<g id="edge3_Node000003_Node000004" class="edge">
<title>Node3&#45;&gt;Node4</title>
<g id="a_edge3_Node000003_Node000004"><a xlink:title=" ">
<path fill="none" stroke="#63b8ff" d="M602.02,-181.02C584.78,-186.85 565.9,-193.21 548.5,-199 540.16,-201.78 531.3,-204.7 522.68,-207.53"/>
<polygon fill="#63b8ff" stroke="#63b8ff" points="602.73,-184.48 611.08,-177.95 600.48,-177.85 602.73,-184.48"/>
</a>
</g>
</g>
<!-- Node8 -->
<g id="Node000008" class="node">
<title>Node8</title>
<g id="a_Node000008"><a xlink:href="class_g_l_e_s_c_1_1_transform_1_1_transformer.html#a179bf669dcc2ef0f72f369206f6f0f1d" target="_top" xlink:title="Transforms a bounding volume by a given matrix matrix.">
<polygon fill="white" stroke="#666666" points="548.5,-190 393.75,-190 393.75,-158 548.5,-158 548.5,-190"/>
<text text-anchor="start" x="401.75" y="-176.5" font-family="Helvetica,sans-Serif" font-size="10.00">GLESC::Transform::Transformer</text>
<text text-anchor="middle" x="471.12" y="-164.5" font-family="Helvetica,sans-Serif" font-size="10.00">::transformBoundingVolume</text>
</a>
</g>
</g>
<!-- Node3&#45;&gt;Node8 -->
<g id="edge7_Node000003_Node000008" class="edge">
<title>Node3&#45;&gt;Node8</title>
<g id="a_edge7_Node000003_Node000008"><a xlink:title=" ">
<path fill="none" stroke="#63b8ff" d="M572.83,-167.06C564.82,-167.62 556.74,-168.17 548.83,-168.72"/>
<polygon fill="#63b8ff" stroke="#63b8ff" points="572.86,-170.57 582.59,-166.39 572.38,-163.59 572.86,-170.57"/>
</a>
</g>
</g>
<!-- Node9 -->
<g id="Node000009" class="node">
<title>Node9</title>
<g id="a_Node000009"><a xlink:href="class_g_l_e_s_c_1_1_transform_1_1_transformer.html#ac4210d1b111a51d877cbe9187cc057f1" target="_top" xlink:title=" ">
<polygon fill="white" stroke="#666666" points="548.5,-140 393.75,-140 393.75,-108 548.5,-108 548.5,-140"/>
<text text-anchor="start" x="401.75" y="-126.5" font-family="Helvetica,sans-Serif" font-size="10.00">GLESC::Transform::Transformer</text>
<text text-anchor="middle" x="471.12" y="-114.5" font-family="Helvetica,sans-Serif" font-size="10.00">::transformMesh</text>
</a>
</g>
</g>
<!-- Node3&#45;&gt;Node9 -->
<g id="edge8_Node000003_Node000009" class="edge">
<title>Node3&#45;&gt;Node9</title>
<g id="a_edge8_Node000003_Node000009"><a xlink:title=" ">
<path fill="none" stroke="#63b8ff" d="M572.83,-143.74C564.82,-142.17 556.74,-140.59 548.83,-139.04"/>
<polygon fill="#63b8ff" stroke="#63b8ff" points="572.13,-147.17 582.62,-145.66 573.48,-140.3 572.13,-147.17"/>
</a>
</g>
</g>
<!-- Node5 -->
<g id="Node000005" class="node">
<title>Node5</title>
<g id="a_Node000005"><a xlink:href="class_g_l_e_s_c_1_1_render_1_1_renderer.html#a3244ebc15bf8310257ec613f62d00a33" target="_top" xlink:title="This renders the frame.">
<polygon fill="white" stroke="#666666" points="357.75,-240 227,-240 227,-208 357.75,-208 357.75,-240"/>
<text text-anchor="start" x="235" y="-226.5" font-family="Helvetica,sans-Serif" font-size="10.00">GLESC::Render::Renderer</text>
<text text-anchor="middle" x="292.38" y="-214.5" font-family="Helvetica,sans-Serif" font-size="10.00">::render</text>
</a>
</g>
</g>
<!-- Node4&#45;&gt;Node5 -->
<g id="edge4_Node000004_Node000005" class="edge">
<title>Node4&#45;&gt;Node5</title>
<g id="a_edge4_Node000004_Node000005"><a xlink:title=" ">
<path fill="none" stroke="#63b8ff" d="M394,-224C382.06,-224 369.83,-224 358.18,-224"/>
<polygon fill="#63b8ff" stroke="#63b8ff" points="393.8,-227.5 403.8,-224 393.8,-220.5 393.8,-227.5"/>
</a>
</g>
</g>
<!-- Node6 -->
<g id="Node000006" class="node">
<title>Node6</title>
<g id="a_Node000006"><a xlink:href="class_g_l_e_s_c_1_1_engine.html#ab0a886855ca341089947b36b9c6f6e15" target="_top" xlink:title="Processes the rendering of the game Can be called at variable intervals of time as it uses elapsed.">
<polygon fill="white" stroke="#666666" points="191,-234 73,-234 73,-214 191,-214 191,-234"/>
<text text-anchor="middle" x="132" y="-220.5" font-family="Helvetica,sans-Serif" font-size="10.00">GLESC::Engine::render</text>
</a>
</g>
</g>
<!-- Node5&#45;&gt;Node6 -->
<g id="edge5_Node000005_Node000006" class="edge">
<title>Node5&#45;&gt;Node6</title>
<g id="a_edge5_Node000005_Node000006"><a xlink:title=" ">
<path fill="none" stroke="#63b8ff" d="M215.24,-224C207.23,-224 199.18,-224 191.42,-224"/>
<polygon fill="#63b8ff" stroke="#63b8ff" points="214.99,-227.5 224.99,-224 214.99,-220.5 214.99,-227.5"/>
</a>
</g>
</g>
<!-- Node7 -->
<g id="Node000007" class="node">
<title>Node7</title>
<g id="a_Node000007"><a xlink:href="src_2engine_2main_8cpp.html#a0ddf1224851353fc92bfbff6f499fa97" target="_top" xlink:title=" ">
<polygon fill="white" stroke="#666666" points="37,-234 0,-234 0,-214 37,-214 37,-234"/>
<text text-anchor="middle" x="18.5" y="-220.5" font-family="Helvetica,sans-Serif" font-size="10.00">main</text>
</a>
</g>
</g>
<!-- Node6&#45;&gt;Node7 -->
<g id="edge6_Node000006_Node000007" class="edge">
<title>Node6&#45;&gt;Node7</title>
<g id="a_edge6_Node000006_Node000007"><a xlink:title=" ">
<path fill="none" stroke="#63b8ff" d="M61.31,-224C52.52,-224 44.22,-224 37.37,-224"/>
<polygon fill="#63b8ff" stroke="#63b8ff" points="61.12,-227.5 71.12,-224 61.12,-220.5 61.12,-227.5"/>
</a>
</g>
</g>
<!-- Node11 -->
<g id="Node000011" class="node">
<title>Node11</title>
<g id="a_Node000011"><a xlink:href="class_g_l_e_s_c_1_1_h_u_d_1_1_debug_items.html#a071eef410cb7de5482dd9df35d468b68" target="_top" xlink:title=" ">
<polygon fill="white" stroke="#666666" points="537.62,-90 404.62,-90 404.62,-58 537.62,-58 537.62,-90"/>
<text text-anchor="start" x="412.62" y="-76.5" font-family="Helvetica,sans-Serif" font-size="10.00">GLESC::HUD::DebugItems</text>
<text text-anchor="middle" x="471.12" y="-64.5" font-family="Helvetica,sans-Serif" font-size="10.00">::windowContent</text>
</a>
</g>
</g>
<!-- Node10&#45;&gt;Node11 -->
<g id="edge10_Node000010_Node000011" class="edge">
<title>Node10&#45;&gt;Node11</title>
<g id="a_edge10_Node000010_Node000011"><a xlink:title=" ">
<path fill="none" stroke="#63b8ff" d="M572.89,-87.35C561.13,-85.79 549.23,-84.21 537.94,-82.72"/>
<polygon fill="#63b8ff" stroke="#63b8ff" points="572.23,-90.79 582.6,-88.63 573.15,-83.85 572.23,-90.79"/>
</a>
</g>
</g>
</g>
</svg>
