<?xml version="1.0" encoding="UTF-8" standalone="no"?>
<!DOCTYPE svg PUBLIC "-//W3C//DTD SVG 1.1//EN"
 "http://www.w3.org/Graphics/SVG/1.1/DTD/svg11.dtd">
<!-- Generated by graphviz version 11.0.0 (20240428.1522)
 -->
<!-- Title: GLESC::Math::VectorAlgorithms::isZero Pages: 1 -->
<svg width="655pt" height="78pt"
 viewBox="0.00 0.00 654.75 78.00" xmlns="http://www.w3.org/2000/svg" xmlns:xlink="http://www.w3.org/1999/xlink">
<g id="graph0" class="graph" transform="scale(1 1) rotate(0) translate(4 74)">
<title>GLESC::Math::VectorAlgorithms::isZero</title>
<!-- Node1 -->
<g id="Node000001" class="node">
<title>Node1</title>
<g id="a_Node000001"><a xlink:title="Checks if a vector is zero.">
<polygon fill="#999999" stroke="#666666" points="157.75,-54 0,-54 0,-22 157.75,-22 157.75,-54"/>
<text text-anchor="start" x="8" y="-40.5" font-family="Helvetica,sans-Serif" font-size="10.00">GLESC::Math::VectorAlgorithms</text>
<text text-anchor="middle" x="78.88" y="-28.5" font-family="Helvetica,sans-Serif" font-size="10.00">::isZero</text>
</a>
</g>
</g>
<!-- Node2 -->
<g id="Node000002" class="node">
<title>Node2</title>
<g id="a_Node000002"><a xlink:href="class_g_l_e_s_c_1_1_math_1_1_vector_algorithms.html#a3249cf40f6140efca533d2f041f909d3" target="_top" xlink:title="Equality operator for vectors.">
<polygon fill="white" stroke="#666666" points="368,-70 193.75,-70 193.75,-50 368,-50 368,-70"/>
<text text-anchor="middle" x="280.88" y="-56.5" font-family="Helvetica,sans-Serif" font-size="10.00">GLESC::Math::VectorAlgorithms::eq</text>
</a>
</g>
</g>
<!-- Node1&#45;&gt;Node2 -->
<g id="edge1_Node000001_Node000002" class="edge">
<title>Node1&#45;&gt;Node2</title>
<g id="a_edge1_Node000001_Node000002"><a xlink:title=" ">
<path fill="none" stroke="#63b8ff" d="M158.06,-46.6C165.95,-47.47 174.04,-48.36 182.1,-49.24"/>
<polygon fill="#63b8ff" stroke="#63b8ff" points="181.64,-52.72 191.96,-50.33 182.41,-45.76 181.64,-52.72"/>
</a>
</g>
</g>
<!-- Node5 -->
<g id="Node000005" class="node">
<title>Node5</title>
<g id="a_Node000005"><a xlink:href="class_g_l_e_s_c_1_1_math_1_1_vector_algorithms.html#a2f0bed018a4d5856d507a85de181de62" target="_top" xlink:title=" ">
<polygon fill="white" stroke="#666666" points="359.75,-32 202,-32 202,0 359.75,0 359.75,-32"/>
<text text-anchor="start" x="210" y="-18.5" font-family="Helvetica,sans-Serif" font-size="10.00">GLESC::Math::VectorAlgorithms</text>
<text text-anchor="middle" x="280.88" y="-6.5" font-family="Helvetica,sans-Serif" font-size="10.00">::vectorFill</text>
</a>
</g>
</g>
<!-- Node1&#45;&gt;Node5 -->
<g id="edge4_Node000001_Node000005" class="edge">
<title>Node1&#45;&gt;Node5</title>
<g id="a_edge4_Node000001_Node000005"><a xlink:title=" ">
<path fill="none" stroke="#63b8ff" d="M158.06,-29.4C168.71,-28.23 179.71,-27.02 190.54,-25.83"/>
<polygon fill="#63b8ff" stroke="#63b8ff" points="190.68,-29.33 200.24,-24.76 189.92,-22.37 190.68,-29.33"/>
</a>
</g>
</g>
<!-- Node3 -->
<g id="Node000003" class="node">
<title>Node3</title>
<g id="a_Node000003"><a xlink:href="namespace_g_l_e_s_c_1_1_math.html#aee25910dbba06d09d9df14d03933ace1" target="_top" xlink:title="Compares two values for equality.">
<polygon fill="white" stroke="#666666" points="497.25,-70 404,-70 404,-50 497.25,-50 497.25,-70"/>
<text text-anchor="middle" x="450.62" y="-56.5" font-family="Helvetica,sans-Serif" font-size="10.00">GLESC::Math::eq</text>
</a>
</g>
</g>
<!-- Node2&#45;&gt;Node3 -->
<g id="edge2_Node000002_Node000003" class="edge">
<title>Node2&#45;&gt;Node3</title>
<g id="a_edge2_Node000002_Node000003"><a xlink:title=" ">
<path fill="none" stroke="#63b8ff" d="M368.21,-60C376.31,-60 384.38,-60 392.12,-60"/>
<polygon fill="#63b8ff" stroke="#63b8ff" points="392.06,-63.5 402.06,-60 392.06,-56.5 392.06,-63.5"/>
</a>
</g>
</g>
<!-- Node4 -->
<g id="Node000004" class="node">
<title>Node4</title>
<g id="a_Node000004"><a xlink:href="namespace_g_l_e_s_c_1_1_math.html#acd429163efe906cd22916cc75ccb2421" target="_top" xlink:title="Epsilon getter with precision of a given template type.">
<polygon fill="white" stroke="#666666" points="646.75,-70 533.25,-70 533.25,-50 646.75,-50 646.75,-70"/>
<text text-anchor="middle" x="590" y="-56.5" font-family="Helvetica,sans-Serif" font-size="10.00">GLESC::Math::epsilon</text>
</a>
</g>
</g>
<!-- Node3&#45;&gt;Node4 -->
<g id="edge3_Node000003_Node000004" class="edge">
<title>Node3&#45;&gt;Node4</title>
<g id="a_edge3_Node000003_Node000004"><a xlink:title=" ">
<path fill="none" stroke="#63b8ff" d="M497.37,-60C505.11,-60 513.3,-60 521.46,-60"/>
<polygon fill="#63b8ff" stroke="#63b8ff" points="521.43,-63.5 531.43,-60 521.43,-56.5 521.43,-63.5"/>
</a>
</g>
</g>
</g>
</svg>
