<?xml version="1.0" encoding="UTF-8" standalone="no"?>
<!DOCTYPE svg PUBLIC "-//W3C//DTD SVG 1.1//EN"
 "http://www.w3.org/Graphics/SVG/1.1/DTD/svg11.dtd">
<!-- Generated by graphviz version 11.0.0 (20240428.1522)
 -->
<!-- Title: GLESC::Math::Plane::intersects Pages: 1 -->
<svg width="844pt" height="154pt"
 viewBox="0.00 0.00 844.00 154.00" xmlns="http://www.w3.org/2000/svg" xmlns:xlink="http://www.w3.org/1999/xlink">
<g id="graph0" class="graph" transform="scale(1 1) rotate(0) translate(4 150)">
<title>GLESC::Math::Plane::intersects</title>
<!-- Node1 -->
<g id="Node000001" class="node">
<title>Node1</title>
<g id="a_Node000001"><a xlink:title=" ">
<polygon fill="#999999" stroke="#666666" points="107.5,-130 0,-130 0,-98 107.5,-98 107.5,-130"/>
<text text-anchor="start" x="8" y="-116.5" font-family="Helvetica,sans-Serif" font-size="10.00">GLESC::Math::Plane</text>
<text text-anchor="middle" x="53.75" y="-104.5" font-family="Helvetica,sans-Serif" font-size="10.00">::intersects</text>
</a>
</g>
</g>
<!-- Node2 -->
<g id="Node000002" class="node">
<title>Node2</title>
<g id="a_Node000002"><a xlink:href="namespace_g_l_e_s_c_1_1_math.html#aee25910dbba06d09d9df14d03933ace1" target="_top" xlink:title="Compares two values for equality.">
<polygon fill="white" stroke="#666666" points="610,-146 516.75,-146 516.75,-126 610,-126 610,-146"/>
<text text-anchor="middle" x="563.38" y="-132.5" font-family="Helvetica,sans-Serif" font-size="10.00">GLESC::Math::eq</text>
</a>
</g>
</g>
<!-- Node1&#45;&gt;Node2 -->
<g id="edge1_Node000001_Node000002" class="edge">
<title>Node1&#45;&gt;Node2</title>
<g id="a_edge1_Node000001_Node000002"><a xlink:title=" ">
<path fill="none" stroke="#63b8ff" d="M107.64,-116.29C203.63,-120.45 405.77,-129.21 504.99,-133.51"/>
<polygon fill="#63b8ff" stroke="#63b8ff" points="504.62,-137 514.76,-133.94 504.92,-130.01 504.62,-137"/>
</a>
</g>
</g>
<!-- Node4 -->
<g id="Node000004" class="node">
<title>Node4</title>
<g id="a_Node000004"><a xlink:href="class_g_l_e_s_c_1_1_math_1_1_vector.html#a04bde0db0fa6c404f5c9e1d6c0901c9a" target="_top" xlink:title="Checks if the vector is parallel to another vector.">
<polygon fill="white" stroke="#666666" points="254.75,-108 143.5,-108 143.5,-76 254.75,-76 254.75,-108"/>
<text text-anchor="start" x="151.5" y="-94.5" font-family="Helvetica,sans-Serif" font-size="10.00">GLESC::Math::Vector</text>
<text text-anchor="middle" x="199.12" y="-82.5" font-family="Helvetica,sans-Serif" font-size="10.00">::isParallel</text>
</a>
</g>
</g>
<!-- Node1&#45;&gt;Node4 -->
<g id="edge3_Node000001_Node000004" class="edge">
<title>Node1&#45;&gt;Node4</title>
<g id="a_edge3_Node000001_Node000004"><a xlink:title=" ">
<path fill="none" stroke="#63b8ff" d="M107.73,-105.87C115.74,-104.64 124.08,-103.36 132.32,-102.1"/>
<polygon fill="#63b8ff" stroke="#63b8ff" points="132.59,-105.6 141.95,-100.62 131.53,-98.68 132.59,-105.6"/>
</a>
</g>
</g>
<!-- Node3 -->
<g id="Node000003" class="node">
<title>Node3</title>
<g id="a_Node000003"><a xlink:href="namespace_g_l_e_s_c_1_1_math.html#acd429163efe906cd22916cc75ccb2421" target="_top" xlink:title="Epsilon getter with precision of a given template type.">
<polygon fill="white" stroke="#666666" points="813.88,-146 700.38,-146 700.38,-126 813.88,-126 813.88,-146"/>
<text text-anchor="middle" x="757.12" y="-132.5" font-family="Helvetica,sans-Serif" font-size="10.00">GLESC::Math::epsilon</text>
</a>
</g>
</g>
<!-- Node2&#45;&gt;Node3 -->
<g id="edge2_Node000002_Node000003" class="edge">
<title>Node2&#45;&gt;Node3</title>
<g id="a_edge2_Node000002_Node000003"><a xlink:title=" ">
<path fill="none" stroke="#63b8ff" d="M610.3,-136C633.76,-136 662.74,-136 688.68,-136"/>
<polygon fill="#63b8ff" stroke="#63b8ff" points="688.45,-139.5 698.45,-136 688.45,-132.5 688.45,-139.5"/>
</a>
</g>
</g>
<!-- Node5 -->
<g id="Node000005" class="node">
<title>Node5</title>
<g id="a_Node000005"><a xlink:href="class_g_l_e_s_c_1_1_math_1_1_vector_algorithms.html#abd445eb1a09f37b1dc51d28e9a7e6f28" target="_top" xlink:title="Checks if two vectors are parallel.">
<polygon fill="white" stroke="#666666" points="448.5,-108 290.75,-108 290.75,-76 448.5,-76 448.5,-108"/>
<text text-anchor="start" x="298.75" y="-94.5" font-family="Helvetica,sans-Serif" font-size="10.00">GLESC::Math::VectorAlgorithms</text>
<text text-anchor="middle" x="369.62" y="-82.5" font-family="Helvetica,sans-Serif" font-size="10.00">::areParallel</text>
</a>
</g>
</g>
<!-- Node4&#45;&gt;Node5 -->
<g id="edge4_Node000004_Node000005" class="edge">
<title>Node4&#45;&gt;Node5</title>
<g id="a_edge4_Node000004_Node000005"><a xlink:title=" ">
<path fill="none" stroke="#63b8ff" d="M254.83,-92C262.63,-92 270.81,-92 279.06,-92"/>
<polygon fill="#63b8ff" stroke="#63b8ff" points="278.81,-95.5 288.81,-92 278.81,-88.5 278.81,-95.5"/>
</a>
</g>
</g>
<!-- Node5&#45;&gt;Node2 -->
<g id="edge7_Node000005_Node000002" class="edge">
<title>Node5&#45;&gt;Node2</title>
<g id="a_edge7_Node000005_Node000002"><a xlink:title=" ">
<path fill="none" stroke="#63b8ff" d="M442.3,-108.45C463.2,-113.24 485.75,-118.42 505.6,-122.97"/>
<polygon fill="#63b8ff" stroke="#63b8ff" points="504.63,-126.34 515.16,-125.16 506.19,-119.52 504.63,-126.34"/>
</a>
</g>
</g>
<!-- Node6 -->
<g id="Node000006" class="node">
<title>Node6</title>
<g id="a_Node000006"><a xlink:href="namespace_g_l_e_s_c_1_1_math.html#a04db3782a0754ba2d22eb5d159dd681c" target="_top" xlink:title="Calculates the absolute value of a number.">
<polygon fill="white" stroke="#666666" points="612.62,-108 514.12,-108 514.12,-88 612.62,-88 612.62,-108"/>
<text text-anchor="middle" x="563.38" y="-94.5" font-family="Helvetica,sans-Serif" font-size="10.00">GLESC::Math::abs</text>
</a>
</g>
</g>
<!-- Node5&#45;&gt;Node6 -->
<g id="edge5_Node000005_Node000006" class="edge">
<title>Node5&#45;&gt;Node6</title>
<g id="a_edge5_Node000005_Node000006"><a xlink:title=" ">
<path fill="none" stroke="#63b8ff" d="M448.89,-94.45C466.73,-95.01 485.41,-95.59 502.35,-96.12"/>
<polygon fill="#63b8ff" stroke="#63b8ff" points="502.14,-99.62 512.25,-96.43 502.36,-92.62 502.14,-99.62"/>
</a>
</g>
</g>
<!-- Node7 -->
<g id="Node000007" class="node">
<title>Node7</title>
<g id="a_Node000007"><a xlink:href="class_g_l_e_s_c_1_1_math_1_1_vector_algorithms.html#ae45bcff9b53fb60d513c53823418d97b" target="_top" xlink:title="Computes the dot product of two vectors.">
<polygon fill="white" stroke="#666666" points="836,-76 678.25,-76 678.25,-44 836,-44 836,-76"/>
<text text-anchor="start" x="686.25" y="-62.5" font-family="Helvetica,sans-Serif" font-size="10.00">GLESC::Math::VectorAlgorithms</text>
<text text-anchor="middle" x="757.12" y="-50.5" font-family="Helvetica,sans-Serif" font-size="10.00">::dotProduct</text>
</a>
</g>
</g>
<!-- Node5&#45;&gt;Node7 -->
<g id="edge6_Node000005_Node000007" class="edge">
<title>Node5&#45;&gt;Node7</title>
<g id="a_edge6_Node000005_Node000007"><a xlink:title=" ">
<path fill="none" stroke="#63b8ff" d="M448.99,-82.6C460.88,-81.3 473.01,-80.06 484.5,-79 545.13,-73.42 613.51,-68.65 666.49,-65.28"/>
<polygon fill="#63b8ff" stroke="#63b8ff" points="666.63,-68.78 676.39,-64.66 666.19,-61.79 666.63,-68.78"/>
</a>
</g>
</g>
<!-- Node8 -->
<g id="Node000008" class="node">
<title>Node8</title>
<g id="a_Node000008"><a xlink:href="class_g_l_e_s_c_1_1_math_1_1_vector_algorithms.html#a96acaa670e780132720dd3ea6a6cdf97" target="_top" xlink:title="Computes the length of a vector.">
<polygon fill="white" stroke="#666666" points="642.25,-32 484.5,-32 484.5,0 642.25,0 642.25,-32"/>
<text text-anchor="start" x="492.5" y="-18.5" font-family="Helvetica,sans-Serif" font-size="10.00">GLESC::Math::VectorAlgorithms</text>
<text text-anchor="middle" x="563.38" y="-6.5" font-family="Helvetica,sans-Serif" font-size="10.00">::length</text>
</a>
</g>
</g>
<!-- Node5&#45;&gt;Node8 -->
<g id="edge8_Node000005_Node000008" class="edge">
<title>Node5&#45;&gt;Node8</title>
<g id="a_edge8_Node000005_Node000008"><a xlink:title=" ">
<path fill="none" stroke="#63b8ff" d="M410.88,-75.55C432.64,-66.71 460.01,-55.66 484.5,-46 492.37,-42.89 500.7,-39.64 508.88,-36.48"/>
<polygon fill="#63b8ff" stroke="#63b8ff" points="510,-39.79 518.07,-32.93 507.48,-33.27 510,-39.79"/>
</a>
</g>
</g>
<!-- Node8&#45;&gt;Node7 -->
<g id="edge9_Node000008_Node000007" class="edge">
<title>Node8&#45;&gt;Node7</title>
<g id="a_edge9_Node000008_Node000007"><a xlink:title=" ">
<path fill="none" stroke="#63b8ff" d="M636.05,-32.45C648.1,-35.21 660.7,-38.1 673.02,-40.93"/>
<polygon fill="#63b8ff" stroke="#63b8ff" points="672.21,-44.34 682.74,-43.16 673.78,-37.51 672.21,-44.34"/>
</a>
</g>
</g>
<!-- Node9 -->
<g id="Node000009" class="node">
<title>Node9</title>
<g id="a_Node000009"><a xlink:href="namespace_g_l_e_s_c_1_1_math.html#ab2316a2512c43c18e29709201adf3fe5" target="_top" xlink:title="Calculates the square root of a value.">
<polygon fill="white" stroke="#666666" points="806.75,-26 707.5,-26 707.5,-6 806.75,-6 806.75,-26"/>
<text text-anchor="middle" x="757.12" y="-12.5" font-family="Helvetica,sans-Serif" font-size="10.00">GLESC::Math::sqrt</text>
</a>
</g>
</g>
<!-- Node8&#45;&gt;Node9 -->
<g id="edge10_Node000008_Node000009" class="edge">
<title>Node8&#45;&gt;Node9</title>
<g id="a_edge10_Node000008_Node000009"><a xlink:title=" ">
<path fill="none" stroke="#63b8ff" d="M642.64,-16C660.4,-16 678.98,-16 695.86,-16"/>
<polygon fill="#63b8ff" stroke="#63b8ff" points="695.72,-19.5 705.72,-16 695.72,-12.5 695.72,-19.5"/>
</a>
</g>
</g>
</g>
</svg>
