<?xml version="1.0" encoding="UTF-8" standalone="no"?>
<!DOCTYPE svg PUBLIC "-//W3C//DTD SVG 1.1//EN"
 "http://www.w3.org/Graphics/SVG/1.1/DTD/svg11.dtd">
<!-- Generated by graphviz version 11.0.0 (20240428.1522)
 -->
<!-- Title: GLESC::InGameWindow::setMinSize Pages: 1 -->
<svg width="322pt" height="190pt"
 viewBox="0.00 0.00 322.00 190.00" xmlns="http://www.w3.org/2000/svg" xmlns:xlink="http://www.w3.org/1999/xlink">
<g id="graph0" class="graph" transform="scale(1 1) rotate(0) translate(4 186)">
<title>GLESC::InGameWindow::setMinSize</title>
<!-- Node1 -->
<g id="Node000001" class="node">
<title>Node1</title>
<g id="a_Node000001"><a xlink:title="Set the min size of the window.">
<polygon fill="#999999" stroke="#666666" points="314,-107 190.75,-107 190.75,-75 314,-75 314,-107"/>
<text text-anchor="start" x="198.75" y="-93.5" font-family="Helvetica,sans-Serif" font-size="10.00">GLESC::InGameWindow</text>
<text text-anchor="middle" x="252.38" y="-81.5" font-family="Helvetica,sans-Serif" font-size="10.00">::setMinSize</text>
</a>
</g>
</g>
<!-- Node2 -->
<g id="Node000002" class="node">
<title>Node2</title>
<g id="a_Node000002"><a xlink:href="class_g_l_e_s_c_1_1_h_u_d_1_1_debug_console_h_u_d.html#a7633f13651593f856843643b528c3e2a" target="_top" xlink:title=" ">
<polygon fill="white" stroke="#666666" points="149.5,-182 5.25,-182 5.25,-150 149.5,-150 149.5,-182"/>
<text text-anchor="start" x="13.25" y="-168.5" font-family="Helvetica,sans-Serif" font-size="10.00">GLESC::HUD::DebugConsole</text>
<text text-anchor="middle" x="77.38" y="-156.5" font-family="Helvetica,sans-Serif" font-size="10.00">HUD::DebugConsoleHUD</text>
</a>
</g>
</g>
<!-- Node1&#45;&gt;Node2 -->
<g id="edge1_Node000001_Node000002" class="edge">
<title>Node1&#45;&gt;Node2</title>
<g id="a_edge1_Node000001_Node000002"><a xlink:title=" ">
<path fill="none" stroke="#63b8ff" d="M212.97,-112.69C195.51,-122.07 174.41,-132.76 154.75,-141 147.54,-144.02 139.84,-146.92 132.19,-149.6"/>
<polygon fill="#63b8ff" stroke="#63b8ff" points="214.34,-115.92 221.45,-108.07 211,-109.77 214.34,-115.92"/>
</a>
</g>
</g>
<!-- Node3 -->
<g id="Node000003" class="node">
<title>Node3</title>
<g id="a_Node000003"><a xlink:href="class_g_l_e_s_c_1_1_h_u_d_1_1_debug_entity_data.html#a635df31020634d40f46b100f1791984b" target="_top" xlink:title=" ">
<polygon fill="white" stroke="#666666" points="154.75,-132 0,-132 0,-100 154.75,-100 154.75,-132"/>
<text text-anchor="start" x="8" y="-118.5" font-family="Helvetica,sans-Serif" font-size="10.00">GLESC::HUD::DebugEntityData</text>
<text text-anchor="middle" x="77.38" y="-106.5" font-family="Helvetica,sans-Serif" font-size="10.00">::DebugEntityData</text>
</a>
</g>
</g>
<!-- Node1&#45;&gt;Node3 -->
<g id="edge2_Node000001_Node000003" class="edge">
<title>Node1&#45;&gt;Node3</title>
<g id="a_edge2_Node000001_Node000003"><a xlink:title=" ">
<path fill="none" stroke="#63b8ff" d="M179,-101.46C171.13,-102.6 163.1,-103.76 155.19,-104.9"/>
<polygon fill="#63b8ff" stroke="#63b8ff" points="179.49,-104.92 188.88,-100.03 178.49,-98 179.49,-104.92"/>
</a>
</g>
</g>
<!-- Node4 -->
<g id="Node000004" class="node">
<title>Node4</title>
<g id="a_Node000004"><a xlink:href="class_g_l_e_s_c_1_1_h_u_d_1_1_debug_items.html#a5163026510e35d76ef05281b6fb2bc40" target="_top" xlink:title=" ">
<polygon fill="white" stroke="#666666" points="143.88,-82 10.88,-82 10.88,-50 143.88,-50 143.88,-82"/>
<text text-anchor="start" x="18.88" y="-68.5" font-family="Helvetica,sans-Serif" font-size="10.00">GLESC::HUD::DebugItems</text>
<text text-anchor="middle" x="77.38" y="-56.5" font-family="Helvetica,sans-Serif" font-size="10.00">::DebugItems</text>
</a>
</g>
</g>
<!-- Node1&#45;&gt;Node4 -->
<g id="edge3_Node000001_Node000004" class="edge">
<title>Node1&#45;&gt;Node4</title>
<g id="a_edge3_Node000001_Node000004"><a xlink:title=" ">
<path fill="none" stroke="#63b8ff" d="M179.33,-80.59C167.65,-78.9 155.62,-77.16 144.1,-75.5"/>
<polygon fill="#63b8ff" stroke="#63b8ff" points="178.49,-84 188.88,-81.97 179.49,-77.08 178.49,-84"/>
</a>
</g>
</g>
<!-- Node5 -->
<g id="Node000005" class="node">
<title>Node5</title>
<g id="a_Node000005"><a xlink:href="class_g_l_e_s_c_1_1_h_u_d_1_1_entity_list_h_u_d.html#a24db8d0e9b7b35208f0b4dbe5190b8d9" target="_top" xlink:title=" ">
<polygon fill="white" stroke="#666666" points="148.75,-32 6,-32 6,0 148.75,0 148.75,-32"/>
<text text-anchor="start" x="14" y="-18.5" font-family="Helvetica,sans-Serif" font-size="10.00">GLESC::HUD::EntityListHUD</text>
<text text-anchor="middle" x="77.38" y="-6.5" font-family="Helvetica,sans-Serif" font-size="10.00">::EntityListHUD</text>
</a>
</g>
</g>
<!-- Node1&#45;&gt;Node5 -->
<g id="edge4_Node000001_Node000005" class="edge">
<title>Node1&#45;&gt;Node5</title>
<g id="a_edge4_Node000001_Node000005"><a xlink:title=" ">
<path fill="none" stroke="#63b8ff" d="M212.97,-69.31C195.51,-59.93 174.41,-49.24 154.75,-41 147.54,-37.98 139.84,-35.08 132.19,-32.4"/>
<polygon fill="#63b8ff" stroke="#63b8ff" points="211,-72.23 221.45,-73.93 214.34,-66.08 211,-72.23"/>
</a>
</g>
</g>
</g>
</svg>
