<?xml version="1.0" encoding="UTF-8" standalone="no"?>
<!DOCTYPE svg PUBLIC "-//W3C//DTD SVG 1.1//EN"
 "http://www.w3.org/Graphics/SVG/1.1/DTD/svg11.dtd">
<!-- Generated by graphviz version 11.0.0 (20240428.1522)
 -->
<!-- Title: GLESC::Math::VectorAlgorithms::crossProduct Pages: 1 -->
<!--zoomable 602 -->

<svg id="main" version="1.1" xmlns="http://www.w3.org/2000/svg" xmlns:xlink="http://www.w3.org/1999/xlink" xml:space="preserve" onload="init(evt)">
<style type="text/css"><![CDATA[
.node, .edge {opacity: 0.7;}
.node.selected, .edge.selected {opacity: 1;}
.edge:hover path { stroke: red; }
.edge:hover polygon { stroke: red; fill: red; }
]]></style>

<defs>
  <circle id="rim" cx="0" cy="0" r="7"/>
  <circle id="rim2" cx="0" cy="0" r="3.5"/>
  <g id="zoomPlus">
    <use xlink:href="#rim" fill="#404040"><set attributeName="fill" to="#808080" begin="zoomplus.mouseover" end="zoomplus.mouseout"/></use>
    <path d="M-4,0h8M0,-4v8" fill="none" stroke="white" stroke-width="1.5" pointer-events="none"/>
  </g>
  <g id="zoomMin">
    <use xlink:href="#rim" fill="#404040"><set attributeName="fill" to="#808080" begin="zoomminus.mouseover" end="zoomminus.mouseout"/></use>
    <path d="M-4,0h8" fill="none" stroke="white" stroke-width="1.5" pointer-events="none"/>
  </g>
  <g id="arrowUp" transform="translate(30 24)">
    <use xlink:href="#rim"/>
    <path pointer-events="none" fill="none" stroke="white" stroke-width="1.5" d="M0,-3.0v7 M-2.5,-0.5L0,-3.0L2.5,-0.5"/>
  </g>
  <g id="arrowRight" transform="rotate(90) translate(36 -43)">
    <use xlink:href="#rim"/>
    <path pointer-events="none" fill="none" stroke="white" stroke-width="1.5" d="M0,-3.0v7 M-2.5,-0.5L0,-3.0L2.5,-0.5"/>
  </g>
  <g id="arrowDown" transform="rotate(180) translate(-30 -48)">
    <use xlink:href="#rim"/>
    <path pointer-events="none" fill="none" stroke="white" stroke-width="1.5" d="M0,-3.0v7 M-2.5,-0.5L0,-3.0L2.5,-0.5"/>
  </g>
  <g id="arrowLeft" transform="rotate(270) translate(-36 17)">
    <use xlink:href="#rim"/>
    <path pointer-events="none" fill="none" stroke="white" stroke-width="1.5" d="M0,-3.0v7 M-2.5,-0.5L0,-3.0L2.5,-0.5"/>
  </g>
  <g id="resetDef">
    <use xlink:href="#rim2" fill="#404040"><set attributeName="fill" to="#808080" begin="reset.mouseover" end="reset.mouseout"/></use>
  </g>
</defs>
<script type="application/ecmascript">
var viewWidth = 1201;
var viewHeight = 602;
var sectionId = 'dynsection-12';
</script>
<script type="application/ecmascript" xlink:href="svg.min.js"/>
<svg id="graph" class="graph">
<g id="viewport">
<title>GLESC::Math::VectorAlgorithms::crossProduct</title>
<!-- Node1 -->
<g id="Node000001" class="node">
<title>Node1</title>
<g id="a_Node000001"><a xlink:title="Computes the cross product of two vectors.">
<polygon fill="#999999" stroke="#666666" points="1192.75,-207 1035,-207 1035,-175 1192.75,-175 1192.75,-207"/>
<text text-anchor="start" x="1043" y="-193.5" font-family="Helvetica,sans-Serif" font-size="10.00">GLESC::Math::VectorAlgorithms</text>
<text text-anchor="middle" x="1113.88" y="-181.5" font-family="Helvetica,sans-Serif" font-size="10.00">::crossProduct</text>
</a>
</g>
</g>
<!-- Node2 -->
<g id="Node000002" class="node">
<title>Node2</title>
<g id="a_Node000002"><a xlink:href="class_g_l_e_s_c_1_1_math_1_1_vector_mixed_algorithms.html#a017c78aceeac4cc6bacc66d88f3ba7b4" target="_top" xlink:title="Checks if points are collinear.">
<polygon fill="white" stroke="#666666" points="988.88,-522 851.38,-522 851.38,-490 988.88,-490 988.88,-522"/>
<text text-anchor="start" x="859.38" y="-508.5" font-family="Helvetica,sans-Serif" font-size="10.00">GLESC::Math::VectorMixed</text>
<text text-anchor="middle" x="920.12" y="-496.5" font-family="Helvetica,sans-Serif" font-size="10.00">Algorithms::areCollinear</text>
</a>
</g>
</g>
<!-- Node1&#45;&gt;Node2 -->
<g id="edge1_Node000001_Node000002" class="edge">
<title>Node1&#45;&gt;Node2</title>
<g id="a_edge1_Node000001_Node000002"><a xlink:title=" ">
<path fill="none" stroke="#63b8ff" d="M1097.01,-217.06C1058.76,-279.9 962.32,-438.33 931.06,-489.67"/>
<polygon fill="#63b8ff" stroke="#63b8ff" points="1099.84,-219.15 1102.05,-208.79 1093.86,-215.51 1099.84,-219.15"/>
</a>
</g>
</g>
<!-- Node6 -->
<g id="Node000006" class="node">
<title>Node6</title>
<g id="a_Node000006"><a xlink:href="class_g_l_e_s_c_1_1_math_1_1_vector.html#ac4fe912b3001e4fad684c2cd4c56cf83" target="_top" xlink:title="Calculates the cross product of two vectors.">
<polygon fill="white" stroke="#666666" points="975.75,-282 864.5,-282 864.5,-250 975.75,-250 975.75,-282"/>
<text text-anchor="start" x="872.5" y="-268.5" font-family="Helvetica,sans-Serif" font-size="10.00">GLESC::Math::Vector</text>
<text text-anchor="middle" x="920.12" y="-256.5" font-family="Helvetica,sans-Serif" font-size="10.00">::cross</text>
</a>
</g>
</g>
<!-- Node1&#45;&gt;Node6 -->
<g id="edge5_Node000001_Node000006" class="edge">
<title>Node1&#45;&gt;Node6</title>
<g id="a_edge5_Node000001_Node000006"><a xlink:title=" ">
<path fill="none" stroke="#63b8ff" d="M1060.31,-211.56C1029.72,-223.52 991.68,-238.4 963.11,-249.58"/>
<polygon fill="#63b8ff" stroke="#63b8ff" points="1061.35,-214.91 1069.39,-208.01 1058.8,-208.39 1061.35,-214.91"/>
</a>
</g>
</g>
<!-- Node28 -->
<g id="Node000028" class="node">
<title>Node28</title>
<g id="a_Node000028"><a xlink:href="class_g_l_e_s_c_1_1_math_1_1_vector_algorithms.html#a404311d39e1e82c0ceef2a9c0e62d1fc" target="_top" xlink:title="Gets an orthogonal vector to the input vector.">
<polygon fill="white" stroke="#666666" points="999,-207 841.25,-207 841.25,-175 999,-175 999,-207"/>
<text text-anchor="start" x="849.25" y="-193.5" font-family="Helvetica,sans-Serif" font-size="10.00">GLESC::Math::VectorAlgorithms</text>
<text text-anchor="middle" x="920.12" y="-181.5" font-family="Helvetica,sans-Serif" font-size="10.00">::getOrthogonal</text>
</a>
</g>
</g>
<!-- Node1&#45;&gt;Node28 -->
<g id="edge35_Node000001_Node000028" class="edge">
<title>Node1&#45;&gt;Node28</title>
<g id="a_edge35_Node000001_Node000028"><a xlink:title=" ">
<path fill="none" stroke="#63b8ff" d="M1023.1,-191C1015.2,-191 1007.25,-191 999.45,-191"/>
<polygon fill="#63b8ff" stroke="#63b8ff" points="1023.09,-194.5 1033.09,-191 1023.09,-187.5 1023.09,-194.5"/>
</a>
</g>
</g>
<!-- Node30 -->
<g id="Node000030" class="node">
<title>Node30</title>
<g id="a_Node000030"><a xlink:href="class_g_l_e_s_c_1_1_math_1_1_matrix_mixed_algorithms.html#a7ededab6ed7bb33c8662b3b9ae8ab944" target="_top" xlink:title="Calculate the view matrix from the eye, target, and up vectors.">
<polygon fill="white" stroke="#666666" points="988.12,-157 852.12,-157 852.12,-125 988.12,-125 988.12,-157"/>
<text text-anchor="start" x="860.12" y="-143.5" font-family="Helvetica,sans-Serif" font-size="10.00">GLESC::Math::MatrixMixed</text>
<text text-anchor="middle" x="920.12" y="-131.5" font-family="Helvetica,sans-Serif" font-size="10.00">Algorithms::lookAt3D</text>
</a>
</g>
</g>
<!-- Node1&#45;&gt;Node30 -->
<g id="edge37_Node000001_Node000030" class="edge">
<title>Node1&#45;&gt;Node30</title>
<g id="a_edge37_Node000001_Node000030"><a xlink:title=" ">
<path fill="none" stroke="#63b8ff" d="M1038.77,-171.68C1020.76,-166.98 1001.66,-162 984.21,-157.45"/>
<polygon fill="#63b8ff" stroke="#63b8ff" points="1037.8,-175.04 1048.36,-174.18 1039.57,-168.27 1037.8,-175.04"/>
</a>
</g>
</g>
<!-- Node31 -->
<g id="Node000031" class="node">
<title>Node31</title>
<g id="a_Node000031"><a xlink:href="class_g_l_e_s_c_1_1_math_1_1_vector_algorithms.html#a21ad8abd8b4058b6510dfa819f629f73" target="_top" xlink:title="Converts a direction vector to Euler angles.">
<polygon fill="white" stroke="#666666" points="999,-82 841.25,-82 841.25,-50 999,-50 999,-82"/>
<text text-anchor="start" x="849.25" y="-68.5" font-family="Helvetica,sans-Serif" font-size="10.00">GLESC::Math::VectorAlgorithms</text>
<text text-anchor="middle" x="920.12" y="-56.5" font-family="Helvetica,sans-Serif" font-size="10.00">::vectorToEuler</text>
</a>
</g>
</g>
<!-- Node1&#45;&gt;Node31 -->
<g id="edge38_Node000001_Node000031" class="edge">
<title>Node1&#45;&gt;Node31</title>
<g id="a_edge38_Node000001_Node000031"><a xlink:title=" ">
<path fill="none" stroke="#63b8ff" d="M1078.57,-168.26C1056,-153.33 1025.8,-133.43 999,-116 981.62,-104.7 961.99,-92.09 946.78,-82.36"/>
<polygon fill="#63b8ff" stroke="#63b8ff" points="1076.52,-171.1 1086.79,-173.69 1080.38,-165.26 1076.52,-171.1"/>
</a>
</g>
</g>
<!-- Node3 -->
<g id="Node000003" class="node">
<title>Node3</title>
<g id="a_Node000003"><a xlink:href="class_g_l_e_s_c_1_1_math_1_1_plane.html#a503abb5ac4797527f02056f1223a0166" target="_top" xlink:title="Construct a new Plane object from three distinct points.">
<polygon fill="white" stroke="#666666" points="413.62,-433 306.12,-433 306.12,-401 413.62,-401 413.62,-433"/>
<text text-anchor="start" x="314.12" y="-419.5" font-family="Helvetica,sans-Serif" font-size="10.00">GLESC::Math::Plane</text>
<text text-anchor="middle" x="359.88" y="-407.5" font-family="Helvetica,sans-Serif" font-size="10.00">::Plane</text>
</a>
</g>
</g>
<!-- Node2&#45;&gt;Node3 -->
<g id="edge2_Node000002_Node000003" class="edge">
<title>Node2&#45;&gt;Node3</title>
<g id="a_edge2_Node000002_Node000003"><a xlink:title=" ">
<path fill="none" stroke="#63b8ff" d="M839.87,-501.46C749.55,-495.18 597.91,-481.25 470.25,-453 448.1,-448.1 424.09,-440.47 404.22,-433.49"/>
<polygon fill="#63b8ff" stroke="#63b8ff" points="839.39,-504.93 849.61,-502.12 839.87,-497.95 839.39,-504.93"/>
</a>
</g>
</g>
<!-- Node4 -->
<g id="Node000004" class="node">
<title>Node4</title>
<g id="a_Node000004"><a xlink:href="class_g_l_e_s_c_1_1_math_1_1_vector_mixed_algorithms.html#af98aa7b91b091b447e76b467d60a7114" target="_top" xlink:title="Checks if points are collinear.">
<polygon fill="white" stroke="#666666" points="801.88,-594 664.38,-594 664.38,-562 801.88,-562 801.88,-594"/>
<text text-anchor="start" x="672.38" y="-580.5" font-family="Helvetica,sans-Serif" font-size="10.00">GLESC::Math::VectorMixed</text>
<text text-anchor="middle" x="733.12" y="-568.5" font-family="Helvetica,sans-Serif" font-size="10.00">Algorithms::areCollinear</text>
</a>
</g>
</g>
<!-- Node2&#45;&gt;Node4 -->
<g id="edge3_Node000002_Node000004" class="edge">
<title>Node2&#45;&gt;Node4</title>
<g id="a_edge3_Node000002_Node000004"><a xlink:title=" ">
<path fill="none" stroke="#63b8ff" d="M870.39,-526.78C850.32,-535.17 826.76,-544.79 805.25,-553 797.79,-555.85 789.85,-558.76 782.08,-561.54"/>
<polygon fill="#63b8ff" stroke="#63b8ff" points="871.59,-530.08 879.45,-522.98 868.88,-523.62 871.59,-530.08"/>
</a>
</g>
</g>
<!-- Node5 -->
<g id="Node000005" class="node">
<title>Node5</title>
<g id="a_Node000005"><a xlink:href="class_g_l_e_s_c_1_1_math_1_1_vector.html#aa9d1c92dac095666f8eb521b1e5a541d" target="_top" xlink:title="Checks if the current vector is a scalar multiple of some vectors.">
<polygon fill="white" stroke="#666666" points="788.75,-544 677.5,-544 677.5,-512 788.75,-512 788.75,-544"/>
<text text-anchor="start" x="685.5" y="-530.5" font-family="Helvetica,sans-Serif" font-size="10.00">GLESC::Math::Vector</text>
<text text-anchor="middle" x="733.12" y="-518.5" font-family="Helvetica,sans-Serif" font-size="10.00">::isCollinear</text>
</a>
</g>
</g>
<!-- Node2&#45;&gt;Node5 -->
<g id="edge4_Node000002_Node000005" class="edge">
<title>Node2&#45;&gt;Node5</title>
<g id="a_edge4_Node000002_Node000005"><a xlink:title=" ">
<path fill="none" stroke="#63b8ff" d="M839.89,-515.42C822.77,-517.46 805.03,-519.57 789.08,-521.46"/>
<polygon fill="#63b8ff" stroke="#63b8ff" points="840.01,-518.93 849.52,-514.28 839.18,-511.98 840.01,-518.93"/>
</a>
</g>
</g>
<!-- Node7 -->
<g id="Node000007" class="node">
<title>Node7</title>
<g id="a_Node000007"><a xlink:href="class_g_l_e_s_c_1_1_math_1_1_plane.html#ad9d57dbea0508152f81cc191fac9a076" target="_top" xlink:title="Calculate the distance from the origin to the plane defined by a point and a line.">
<polygon fill="white" stroke="#666666" points="805.25,-456 661,-456 661,-412 805.25,-412 805.25,-456"/>
<text text-anchor="start" x="669" y="-442.5" font-family="Helvetica,sans-Serif" font-size="10.00">GLESC::Math::Plane</text>
<text text-anchor="start" x="669" y="-430.5" font-family="Helvetica,sans-Serif" font-size="10.00">::calculateDistanceFromPoint</text>
<text text-anchor="middle" x="733.12" y="-418.5" font-family="Helvetica,sans-Serif" font-size="10.00">AndLine</text>
</a>
</g>
</g>
<!-- Node6&#45;&gt;Node7 -->
<g id="edge6_Node000006_Node000007" class="edge">
<title>Node6&#45;&gt;Node7</title>
<g id="a_edge6_Node000006_Node000007"><a xlink:title=" ">
<path fill="none" stroke="#63b8ff" d="M903.06,-291.89C883.24,-322.01 847.02,-371.63 805.25,-403 801.16,-406.07 796.71,-408.92 792.11,-411.53"/>
<polygon fill="#63b8ff" stroke="#63b8ff" points="905.83,-294.04 908.31,-283.74 899.95,-290.25 905.83,-294.04"/>
</a>
</g>
</g>
<!-- Node9 -->
<g id="Node000009" class="node">
<title>Node9</title>
<g id="a_Node000009"><a xlink:href="class_g_l_e_s_c_1_1_render_1_1_mesh.html#a78f09fa1a41f6e3ec496aae31c671e92" target="_top" xlink:title="Helper function to automatically calculate the normal of a face with 3 points.">
<polygon fill="white" stroke="#666666" points="791,-282 675.25,-282 675.25,-250 791,-250 791,-282"/>
<text text-anchor="start" x="683.25" y="-268.5" font-family="Helvetica,sans-Serif" font-size="10.00">GLESC::Render::Mesh</text>
<text text-anchor="middle" x="733.12" y="-256.5" font-family="Helvetica,sans-Serif" font-size="10.00">::calculateNormal</text>
</a>
</g>
</g>
<!-- Node6&#45;&gt;Node9 -->
<g id="edge8_Node000006_Node000009" class="edge">
<title>Node6&#45;&gt;Node9</title>
<g id="a_edge8_Node000006_Node000009"><a xlink:title=" ">
<path fill="none" stroke="#63b8ff" d="M852.86,-266C832.79,-266 810.92,-266 791.49,-266"/>
<polygon fill="#63b8ff" stroke="#63b8ff" points="852.61,-269.5 862.61,-266 852.61,-262.5 852.61,-269.5"/>
</a>
</g>
</g>
<!-- Node22 -->
<g id="Node000022" class="node">
<title>Node22</title>
<g id="a_Node000022"><a xlink:href="class_g_l_e_s_c_1_1_math_1_1_plane.html#a1ee1ed3011c80d0b544d48ddefcd78a1" target="_top" xlink:title="Calculate the normal vector of the plane defined by a point and a line.">
<polygon fill="white" stroke="#666666" points="801.5,-394 664.75,-394 664.75,-350 801.5,-350 801.5,-394"/>
<text text-anchor="start" x="672.75" y="-380.5" font-family="Helvetica,sans-Serif" font-size="10.00">GLESC::Math::Plane</text>
<text text-anchor="start" x="672.75" y="-368.5" font-family="Helvetica,sans-Serif" font-size="10.00">::calculateNormalFromPoint</text>
<text text-anchor="middle" x="733.12" y="-356.5" font-family="Helvetica,sans-Serif" font-size="10.00">AndLine</text>
</a>
</g>
</g>
<!-- Node6&#45;&gt;Node22 -->
<g id="edge26_Node000006_Node000022" class="edge">
<title>Node6&#45;&gt;Node22</title>
<g id="a_edge26_Node000006_Node000022"><a xlink:title=" ">
<path fill="none" stroke="#63b8ff" d="M887.4,-289.02C865.04,-304.7 834.08,-325.38 805.25,-341 799.8,-343.95 794.02,-346.85 788.19,-349.6"/>
<polygon fill="#63b8ff" stroke="#63b8ff" points="889.35,-291.93 895.48,-283.29 885.3,-286.22 889.35,-291.93"/>
</a>
</g>
</g>
<!-- Node23 -->
<g id="Node000023" class="node">
<title>Node23</title>
<g id="a_Node000023"><a xlink:href="class_g_l_e_s_c_1_1_math_1_1_plane.html#aae9eef06b7ad6587a7d0f45eab38cdc8" target="_top" xlink:title="Calculate the normal vector of the plane defined by three distinct points.">
<polygon fill="white" stroke="#666666" points="804.12,-332 662.12,-332 662.12,-300 804.12,-300 804.12,-332"/>
<text text-anchor="start" x="670.12" y="-318.5" font-family="Helvetica,sans-Serif" font-size="10.00">GLESC::Math::Plane</text>
<text text-anchor="middle" x="733.12" y="-306.5" font-family="Helvetica,sans-Serif" font-size="10.00">::calculateNormalFromPoints</text>
</a>
</g>
</g>
<!-- Node6&#45;&gt;Node23 -->
<g id="edge28_Node000006_Node000023" class="edge">
<title>Node6&#45;&gt;Node23</title>
<g id="a_edge28_Node000006_Node000023"><a xlink:title=" ">
<path fill="none" stroke="#63b8ff" d="M853.18,-283.82C834.25,-288.94 813.69,-294.5 795.07,-299.53"/>
<polygon fill="#63b8ff" stroke="#63b8ff" points="853.92,-287.25 862.66,-281.26 852.09,-280.49 853.92,-287.25"/>
</a>
</g>
</g>
<!-- Node25 -->
<g id="Node000025" class="node">
<title>Node25</title>
<g id="a_Node000025"><a xlink:href="class_g_l_e_s_c_1_1_math_1_1_line.html#a4aaee09054357a0d63793ceec15b6f06" target="_top" xlink:title="Get the distance from a point to the line.">
<polygon fill="white" stroke="#666666" points="786.5,-232 679.75,-232 679.75,-200 786.5,-200 786.5,-232"/>
<text text-anchor="start" x="687.75" y="-218.5" font-family="Helvetica,sans-Serif" font-size="10.00">GLESC::Math::Line::</text>
<text text-anchor="middle" x="733.12" y="-206.5" font-family="Helvetica,sans-Serif" font-size="10.00">distance</text>
</a>
</g>
</g>
<!-- Node6&#45;&gt;Node25 -->
<g id="edge32_Node000006_Node000025" class="edge">
<title>Node6&#45;&gt;Node25</title>
<g id="a_edge32_Node000006_Node000025"><a xlink:title=" ">
<path fill="none" stroke="#63b8ff" d="M853.26,-248.2C831.41,-242.29 807.4,-235.8 786.7,-230.21"/>
<polygon fill="#63b8ff" stroke="#63b8ff" points="852.09,-251.51 862.66,-250.74 853.92,-244.75 852.09,-251.51"/>
</a>
</g>
</g>
<!-- Node27 -->
<g id="Node000027" class="node">
<title>Node27</title>
<g id="a_Node000027"><a xlink:href="class_g_l_e_s_c_1_1_math_1_1_line.html#a54ec550807f8b505f6aef9da336d60f7" target="_top" xlink:title="Check if a line intersects with another line.">
<polygon fill="white" stroke="#666666" points="786.5,-182 679.75,-182 679.75,-150 786.5,-150 786.5,-182"/>
<text text-anchor="start" x="687.75" y="-168.5" font-family="Helvetica,sans-Serif" font-size="10.00">GLESC::Math::Line::</text>
<text text-anchor="middle" x="733.12" y="-156.5" font-family="Helvetica,sans-Serif" font-size="10.00">intersects</text>
</a>
</g>
</g>
<!-- Node6&#45;&gt;Node27 -->
<g id="edge34_Node000006_Node000027" class="edge">
<title>Node6&#45;&gt;Node27</title>
<g id="a_edge34_Node000006_Node000027"><a xlink:title=" ">
<path fill="none" stroke="#63b8ff" d="M883.67,-243.62C870.31,-235.08 855.01,-225.19 841.25,-216 825.05,-205.18 822.6,-199.87 805.25,-191 799.19,-187.9 792.66,-185.03 786.09,-182.42"/>
<polygon fill="#63b8ff" stroke="#63b8ff" points="881.42,-246.34 891.74,-248.75 885.18,-240.43 881.42,-246.34"/>
</a>
</g>
</g>
<!-- Node8 -->
<g id="Node000008" class="node">
<title>Node8</title>
<g id="a_Node000008"><a xlink:href="class_g_l_e_s_c_1_1_math_1_1_plane.html#a468fe79f91e1aa6ebe498e6ab3ce7674" target="_top" xlink:title="Construct a new Plane object from a point and a line.">
<polygon fill="white" stroke="#666666" points="601.38,-444 493.88,-444 493.88,-412 601.38,-412 601.38,-444"/>
<text text-anchor="start" x="501.88" y="-430.5" font-family="Helvetica,sans-Serif" font-size="10.00">GLESC::Math::Plane</text>
<text text-anchor="middle" x="547.62" y="-418.5" font-family="Helvetica,sans-Serif" font-size="10.00">::Plane</text>
</a>
</g>
</g>
<!-- Node7&#45;&gt;Node8 -->
<g id="edge7_Node000007_Node000008" class="edge">
<title>Node7&#45;&gt;Node8</title>
<g id="a_edge7_Node000007_Node000008"><a xlink:title=" ">
<path fill="none" stroke="#63b8ff" d="M649.5,-431.3C633.27,-430.77 616.66,-430.22 601.71,-429.74"/>
<polygon fill="#63b8ff" stroke="#63b8ff" points="649.03,-434.78 659.14,-431.61 649.26,-427.79 649.03,-434.78"/>
</a>
</g>
</g>
<!-- Node10 -->
<g id="Node000010" class="node">
<title>Node10</title>
<g id="a_Node000010"><a xlink:href="class_g_l_e_s_c_1_1_render_1_1_mesh.html#a2ad7899a1de4ee74a10854158b601a2c" target="_top" xlink:title="Adds a quad to the mesh, quads are defined by 4 vertices.">
<polygon fill="white" stroke="#666666" points="605.5,-283 489.75,-283 489.75,-251 605.5,-251 605.5,-283"/>
<text text-anchor="start" x="497.75" y="-269.5" font-family="Helvetica,sans-Serif" font-size="10.00">GLESC::Render::Mesh</text>
<text text-anchor="middle" x="547.62" y="-257.5" font-family="Helvetica,sans-Serif" font-size="10.00">::addQuad</text>
</a>
</g>
</g>
<!-- Node9&#45;&gt;Node10 -->
<g id="edge9_Node000009_Node000010" class="edge">
<title>Node9&#45;&gt;Node10</title>
<g id="a_edge9_Node000009_Node000010"><a xlink:title=" ">
<path fill="none" stroke="#63b8ff" d="M663.51,-266.37C644.51,-266.48 624.09,-266.59 605.81,-266.69"/>
<polygon fill="#63b8ff" stroke="#63b8ff" points="663.32,-269.88 673.31,-266.32 663.29,-262.88 663.32,-269.88"/>
</a>
</g>
</g>
<!-- Node17 -->
<g id="Node000017" class="node">
<title>Node17</title>
<g id="a_Node000017"><a xlink:href="class_g_l_e_s_c_1_1_render_1_1_mesh.html#ad2308e9137f51614b5d46416bc01deef" target="_top" xlink:title="Adds a tris to the mesh, tris are defined by 3 vertices.">
<polygon fill="white" stroke="#666666" points="605.5,-199 489.75,-199 489.75,-167 605.5,-167 605.5,-199"/>
<text text-anchor="start" x="497.75" y="-185.5" font-family="Helvetica,sans-Serif" font-size="10.00">GLESC::Render::Mesh</text>
<text text-anchor="middle" x="547.62" y="-173.5" font-family="Helvetica,sans-Serif" font-size="10.00">::addTris</text>
</a>
</g>
</g>
<!-- Node9&#45;&gt;Node17 -->
<g id="edge18_Node000009_Node000017" class="edge">
<title>Node9&#45;&gt;Node17</title>
<g id="a_edge18_Node000009_Node000017"><a xlink:title=" ">
<path fill="none" stroke="#63b8ff" d="M671.9,-245.49C668.19,-244.03 664.53,-242.52 661,-241 631.97,-228.48 600.04,-211.69 577.66,-199.4"/>
<polygon fill="#63b8ff" stroke="#63b8ff" points="670.42,-248.68 681.01,-248.98 672.92,-242.14 670.42,-248.68"/>
</a>
</g>
</g>
<!-- Node10&#45;&gt;Node10 -->
<g id="edge10_Node000010_Node000010" class="edge">
<title>Node10&#45;&gt;Node10</title>
<g id="a_edge10_Node000010_Node000010"><a xlink:title=" ">
<path fill="none" stroke="#63b8ff" d="M578.54,-294.71C573.38,-298.48 563.08,-301 547.62,-301 519.37,-301 508.33,-292.58 514.51,-283.44"/>
<polygon fill="#63b8ff" stroke="#63b8ff" points="581.97,-295.41 580.45,-284.93 575.1,-294.07 581.97,-295.41"/>
</a>
</g>
</g>
<!-- Node11 -->
<g id="Node000011" class="node">
<title>Node11</title>
<g id="a_Node000011"><a xlink:href="class_g_l_e_s_c_1_1_render_1_1_mesh_factory.html#a871c80a56dc8888b526df44b1ac49dca" target="_top" xlink:title="Creates a cuboid mesh given a width, height, depth and a color.">
<polygon fill="white" stroke="#666666" points="434.25,-333 285.5,-333 285.5,-301 434.25,-301 434.25,-333"/>
<text text-anchor="start" x="293.5" y="-319.5" font-family="Helvetica,sans-Serif" font-size="10.00">GLESC::Render::MeshFactory</text>
<text text-anchor="middle" x="359.88" y="-307.5" font-family="Helvetica,sans-Serif" font-size="10.00">::cuboid</text>
</a>
</g>
</g>
<!-- Node10&#45;&gt;Node11 -->
<g id="edge11_Node000010_Node000011" class="edge">
<title>Node10&#45;&gt;Node11</title>
<g id="a_edge11_Node000010_Node000011"><a xlink:title=" ">
<path fill="none" stroke="#63b8ff" d="M478.41,-285.36C459.98,-290.32 440.15,-295.66 422.12,-300.51"/>
<polygon fill="#63b8ff" stroke="#63b8ff" points="479.17,-288.78 487.92,-282.8 477.35,-282.02 479.17,-288.78"/>
</a>
</g>
</g>
<!-- Node14 -->
<g id="Node000014" class="node">
<title>Node14</title>
<g id="a_Node000014"><a xlink:href="class_g_l_e_s_c_1_1_render_1_1_mesh_factory.html#aff179044917548ba91300a69ffb39256" target="_top" xlink:title=" ">
<polygon fill="white" stroke="#666666" points="434.25,-383 285.5,-383 285.5,-351 434.25,-351 434.25,-383"/>
<text text-anchor="start" x="293.5" y="-369.5" font-family="Helvetica,sans-Serif" font-size="10.00">GLESC::Render::MeshFactory</text>
<text text-anchor="middle" x="359.88" y="-357.5" font-family="Helvetica,sans-Serif" font-size="10.00">::plane</text>
</a>
</g>
</g>
<!-- Node10&#45;&gt;Node14 -->
<g id="edge14_Node000010_Node000014" class="edge">
<title>Node10&#45;&gt;Node14</title>
<g id="a_edge14_Node000010_Node000014"><a xlink:title=" ">
<path fill="none" stroke="#63b8ff" d="M507.5,-289.17C495.34,-296.43 482.04,-304.75 470.25,-313 453.41,-324.77 452.25,-332.09 434.25,-342 428.47,-345.18 422.22,-348.06 415.88,-350.64"/>
<polygon fill="#63b8ff" stroke="#63b8ff" points="509.24,-292.21 516.08,-284.12 505.69,-286.18 509.24,-292.21"/>
</a>
</g>
</g>
<!-- Node15 -->
<g id="Node000015" class="node">
<title>Node15</title>
<g id="a_Node000015"><a xlink:href="class_g_l_e_s_c_1_1_render_1_1_mesh_factory.html#aefd29f32b084155c54dd3d91fef99aba" target="_top" xlink:title=" ">
<polygon fill="white" stroke="#666666" points="434.25,-233 285.5,-233 285.5,-201 434.25,-201 434.25,-233"/>
<text text-anchor="start" x="293.5" y="-219.5" font-family="Helvetica,sans-Serif" font-size="10.00">GLESC::Render::MeshFactory</text>
<text text-anchor="middle" x="359.88" y="-207.5" font-family="Helvetica,sans-Serif" font-size="10.00">::pyramid</text>
</a>
</g>
</g>
<!-- Node10&#45;&gt;Node15 -->
<g id="edge15_Node000010_Node000015" class="edge">
<title>Node10&#45;&gt;Node15</title>
<g id="a_edge15_Node000010_Node000015"><a xlink:title=" ">
<path fill="none" stroke="#63b8ff" d="M478.41,-248.64C459.98,-243.68 440.15,-238.34 422.12,-233.49"/>
<polygon fill="#63b8ff" stroke="#63b8ff" points="477.35,-251.98 487.92,-251.2 479.17,-245.22 477.35,-251.98"/>
</a>
</g>
</g>
<!-- Node16 -->
<g id="Node000016" class="node">
<title>Node16</title>
<g id="a_Node000016"><a xlink:href="class_g_l_e_s_c_1_1_render_1_1_mesh_factory.html#ac34bbd39823c1d507524e1395305e310" target="_top" xlink:title="Creates a sphere mesh given a number of slices, stacks, a radius and a color.">
<polygon fill="white" stroke="#666666" points="434.25,-283 285.5,-283 285.5,-251 434.25,-251 434.25,-283"/>
<text text-anchor="start" x="293.5" y="-269.5" font-family="Helvetica,sans-Serif" font-size="10.00">GLESC::Render::MeshFactory</text>
<text text-anchor="middle" x="359.88" y="-257.5" font-family="Helvetica,sans-Serif" font-size="10.00">::sphere</text>
</a>
</g>
</g>
<!-- Node10&#45;&gt;Node16 -->
<g id="edge16_Node000010_Node000016" class="edge">
<title>Node10&#45;&gt;Node16</title>
<g id="a_edge16_Node000010_Node000016"><a xlink:title=" ">
<path fill="none" stroke="#63b8ff" d="M478.22,-267C464.05,-267 449.07,-267 434.72,-267"/>
<polygon fill="#63b8ff" stroke="#63b8ff" points="477.86,-270.5 487.86,-267 477.86,-263.5 477.86,-270.5"/>
</a>
</g>
</g>
<!-- Node12 -->
<g id="Node000012" class="node">
<title>Node12</title>
<g id="a_Node000012"><a xlink:href="class_g_l_e_s_c_1_1_render_1_1_mesh_factory.html#a4b07130768fe0a8e6720aa0550a7b5dd" target="_top" xlink:title="Creates a cube mesh given a color and a radius.">
<polygon fill="white" stroke="#666666" points="249.5,-331 100.75,-331 100.75,-299 249.5,-299 249.5,-331"/>
<text text-anchor="start" x="108.75" y="-317.5" font-family="Helvetica,sans-Serif" font-size="10.00">GLESC::Render::MeshFactory</text>
<text text-anchor="middle" x="175.12" y="-305.5" font-family="Helvetica,sans-Serif" font-size="10.00">::cube</text>
</a>
</g>
</g>
<!-- Node11&#45;&gt;Node12 -->
<g id="edge12_Node000011_Node000012" class="edge">
<title>Node11&#45;&gt;Node12</title>
<g id="a_edge12_Node000011_Node000012"><a xlink:title=" ">
<path fill="none" stroke="#63b8ff" d="M273.56,-316.07C265.66,-315.98 257.69,-315.89 249.91,-315.81"/>
<polygon fill="#63b8ff" stroke="#63b8ff" points="273.52,-319.57 283.56,-316.18 273.6,-312.57 273.52,-319.57"/>
</a>
</g>
</g>
<!-- Node13 -->
<g id="Node000013" class="node">
<title>Node13</title>
<g id="a_Node000013"><a xlink:href="class_default.html#a6e26da3ebf533b0f5d45266cd0ce9082" target="_top" xlink:title="Initializes the scene. Must be implemented by the derived class.">
<polygon fill="white" stroke="#666666" points="64.75,-302 0,-302 0,-282 64.75,-282 64.75,-302"/>
<text text-anchor="middle" x="32.38" y="-288.5" font-family="Helvetica,sans-Serif" font-size="10.00">Default::init</text>
</a>
</g>
</g>
<!-- Node12&#45;&gt;Node13 -->
<g id="edge13_Node000012_Node000013" class="edge">
<title>Node12&#45;&gt;Node13</title>
<g id="a_edge13_Node000012_Node000013"><a xlink:title=" ">
<path fill="none" stroke="#63b8ff" d="M89.11,-301.11C80.57,-299.71 72.34,-298.37 64.94,-297.16"/>
<polygon fill="#63b8ff" stroke="#63b8ff" points="88.52,-304.56 98.96,-302.72 89.65,-297.65 88.52,-304.56"/>
</a>
</g>
</g>
<!-- Node16&#45;&gt;Node13 -->
<g id="edge17_Node000016_Node000013" class="edge">
<title>Node16&#45;&gt;Node13</title>
<g id="a_edge17_Node000016_Node000013"><a xlink:title=" ">
<path fill="none" stroke="#63b8ff" d="M273.82,-273.53C205.38,-278.79 112.98,-285.89 65.1,-289.56"/>
<polygon fill="#63b8ff" stroke="#63b8ff" points="273.8,-277.04 283.5,-272.79 273.27,-270.06 273.8,-277.04"/>
</a>
</g>
</g>
<!-- Node17&#45;&gt;Node15 -->
<g id="edge23_Node000017_Node000015" class="edge">
<title>Node17&#45;&gt;Node15</title>
<g id="a_edge23_Node000017_Node000015"><a xlink:title=" ">
<path fill="none" stroke="#63b8ff" d="M478.22,-195.52C464.05,-198.11 449.07,-200.86 434.72,-203.48"/>
<polygon fill="#63b8ff" stroke="#63b8ff" points="478.68,-198.99 487.89,-193.75 477.42,-192.11 478.68,-198.99"/>
</a>
</g>
</g>
<!-- Node17&#45;&gt;Node16 -->
<g id="edge24_Node000017_Node000016" class="edge">
<title>Node17&#45;&gt;Node16</title>
<g id="a_edge24_Node000017_Node000016"><a xlink:title=" ">
<path fill="none" stroke="#63b8ff" d="M508.58,-204.86C487.15,-216.69 459.65,-231.08 434.25,-242 427.33,-244.98 419.92,-247.85 412.57,-250.51"/>
<polygon fill="#63b8ff" stroke="#63b8ff" points="510.23,-207.95 517.26,-200.02 506.82,-201.83 510.23,-207.95"/>
</a>
</g>
</g>
<!-- Node17&#45;&gt;Node17 -->
<g id="edge21_Node000017_Node000017" class="edge">
<title>Node17&#45;&gt;Node17</title>
<g id="a_edge21_Node000017_Node000017"><a xlink:title=" ">
<path fill="none" stroke="#63b8ff" d="M578.54,-210.71C573.38,-214.48 563.08,-217 547.62,-217 519.37,-217 508.33,-208.58 514.51,-199.44"/>
<polygon fill="#63b8ff" stroke="#63b8ff" points="581.97,-211.41 580.45,-200.93 575.1,-210.07 581.97,-211.41"/>
</a>
</g>
</g>
<!-- Node18 -->
<g id="Node000018" class="node">
<title>Node18</title>
<g id="a_Node000018"><a xlink:href="class_g_l_e_s_c_1_1_render_1_1_mesh.html#aae4b61c752ff29970ff6bb6a2b08abb2" target="_top" xlink:title="Adds a quad to the mesh, quads are defined by 4 vertices.">
<polygon fill="white" stroke="#666666" points="417.75,-33 302,-33 302,-1 417.75,-1 417.75,-33"/>
<text text-anchor="start" x="310" y="-19.5" font-family="Helvetica,sans-Serif" font-size="10.00">GLESC::Render::Mesh</text>
<text text-anchor="middle" x="359.88" y="-7.5" font-family="Helvetica,sans-Serif" font-size="10.00">::addQuad</text>
</a>
</g>
</g>
<!-- Node17&#45;&gt;Node18 -->
<g id="edge19_Node000017_Node000018" class="edge">
<title>Node17&#45;&gt;Node18</title>
<g id="a_edge19_Node000017_Node000018"><a xlink:title=" ">
<path fill="none" stroke="#63b8ff" d="M479.44,-165.54C476.12,-163.32 473.03,-160.82 470.25,-158 432.37,-119.54 471.89,-80.69 434.25,-42 429.65,-37.27 424.13,-33.44 418.19,-30.33"/>
<polygon fill="#63b8ff" stroke="#63b8ff" points="477.52,-168.48 487.95,-170.33 480.96,-162.38 477.52,-168.48"/>
</a>
</g>
</g>
<!-- Node19 -->
<g id="Node000019" class="node">
<title>Node19</title>
<g id="a_Node000019"><a xlink:href="class_g_l_e_s_c_1_1_render_1_1_mesh.html#aaae30a265886c96c91daa8e59f67b3ea" target="_top" xlink:title="Adds a tris to the mesh, tris are defined by 3 vertices.">
<polygon fill="white" stroke="#666666" points="417.75,-183 302,-183 302,-151 417.75,-151 417.75,-183"/>
<text text-anchor="start" x="310" y="-169.5" font-family="Helvetica,sans-Serif" font-size="10.00">GLESC::Render::Mesh</text>
<text text-anchor="middle" x="359.88" y="-157.5" font-family="Helvetica,sans-Serif" font-size="10.00">::addTris</text>
</a>
</g>
</g>
<!-- Node17&#45;&gt;Node19 -->
<g id="edge20_Node000017_Node000019" class="edge">
<title>Node17&#45;&gt;Node19</title>
<g id="a_edge20_Node000017_Node000019"><a xlink:title=" ">
<path fill="none" stroke="#63b8ff" d="M477.96,-177.09C458.21,-175.38 436.9,-173.55 417.93,-171.91"/>
<polygon fill="#63b8ff" stroke="#63b8ff" points="477.61,-180.57 487.87,-177.94 478.21,-173.59 477.61,-180.57"/>
</a>
</g>
</g>
<!-- Node20 -->
<g id="Node000020" class="node">
<title>Node20</title>
<g id="a_Node000020"><a xlink:href="class_g_l_e_s_c_1_1_render_1_1_mesh.html#aaeba541999c321e65620b52780298e14" target="_top" xlink:title="Attaches a mesh to the current mesh.">
<polygon fill="white" stroke="#666666" points="417.75,-133 302,-133 302,-101 417.75,-101 417.75,-133"/>
<text text-anchor="start" x="310" y="-119.5" font-family="Helvetica,sans-Serif" font-size="10.00">GLESC::Render::Mesh</text>
<text text-anchor="middle" x="359.88" y="-107.5" font-family="Helvetica,sans-Serif" font-size="10.00">::attatchMesh</text>
</a>
</g>
</g>
<!-- Node17&#45;&gt;Node20 -->
<g id="edge22_Node000017_Node000020" class="edge">
<title>Node17&#45;&gt;Node20</title>
<g id="a_edge22_Node000017_Node000020"><a xlink:title=" ">
<path fill="none" stroke="#63b8ff" d="M483.59,-162.93C479.06,-161.31 474.57,-159.66 470.25,-158 453.91,-151.71 450.55,-148.39 434.25,-142 426.86,-139.1 418.97,-136.22 411.22,-133.48"/>
<polygon fill="#63b8ff" stroke="#63b8ff" points="482.17,-166.14 492.77,-166.13 484.48,-159.53 482.17,-166.14"/>
</a>
</g>
</g>
<!-- Node21 -->
<g id="Node000021" class="node">
<title>Node21</title>
<g id="a_Node000021"><a xlink:href="class_g_l_e_s_c_1_1_render_1_1_mesh_factory.html#a1e3caaf52ad95406520b1ad999bd357b" target="_top" xlink:title=" ">
<polygon fill="white" stroke="#666666" points="434.25,-83 285.5,-83 285.5,-51 434.25,-51 434.25,-83"/>
<text text-anchor="start" x="293.5" y="-69.5" font-family="Helvetica,sans-Serif" font-size="10.00">GLESC::Render::MeshFactory</text>
<text text-anchor="middle" x="359.88" y="-57.5" font-family="Helvetica,sans-Serif" font-size="10.00">::tris</text>
</a>
</g>
</g>
<!-- Node17&#45;&gt;Node21 -->
<g id="edge25_Node000017_Node000021" class="edge">
<title>Node17&#45;&gt;Node21</title>
<g id="a_edge25_Node000017_Node000021"><a xlink:title=" ">
<path fill="none" stroke="#63b8ff" d="M479.39,-164.45C476.16,-162.51 473.09,-160.36 470.25,-158 444.56,-136.63 459.81,-113.52 434.25,-92 430.34,-88.71 425.97,-85.84 421.37,-83.34"/>
<polygon fill="#63b8ff" stroke="#63b8ff" points="477.61,-167.47 488.1,-168.99 480.85,-161.26 477.61,-167.47"/>
</a>
</g>
</g>
<!-- Node22&#45;&gt;Node8 -->
<g id="edge27_Node000022_Node000008" class="edge">
<title>Node22&#45;&gt;Node8</title>
<g id="a_edge27_Node000022_Node000008"><a xlink:title=" ">
<path fill="none" stroke="#63b8ff" d="M653.55,-395.98C636.09,-401.31 617.98,-406.83 601.82,-411.77"/>
<polygon fill="#63b8ff" stroke="#63b8ff" points="654.33,-399.4 662.87,-393.14 652.28,-392.71 654.33,-399.4"/>
</a>
</g>
</g>
<!-- Node23&#45;&gt;Node3 -->
<g id="edge29_Node000023_Node000003" class="edge">
<title>Node23&#45;&gt;Node3</title>
<g id="a_edge29_Node000023_Node000003"><a xlink:title=" ">
<path fill="none" stroke="#63b8ff" d="M670.55,-336.72C667.3,-338.1 664.09,-339.53 661,-341 644.06,-349.04 642.45,-356.13 625,-363 587.28,-377.85 479.64,-397.34 414,-408.38"/>
<polygon fill="#63b8ff" stroke="#63b8ff" points="671.72,-340.02 679.68,-333.04 669.1,-333.53 671.72,-340.02"/>
</a>
</g>
</g>
<!-- Node24 -->
<g id="Node000024" class="node">
<title>Node24</title>
<g id="a_Node000024"><a xlink:href="class_g_l_e_s_c_1_1_math_1_1_plane.html#ae96d9fee2db6f87847e5b65756d575f0" target="_top" xlink:title="Calculate the distance from the origin to the plane defined by three distinct points.">
<polygon fill="white" stroke="#666666" points="622.38,-354 472.88,-354 472.88,-322 622.38,-322 622.38,-354"/>
<text text-anchor="start" x="480.88" y="-340.5" font-family="Helvetica,sans-Serif" font-size="10.00">GLESC::Math::Plane</text>
<text text-anchor="middle" x="547.62" y="-328.5" font-family="Helvetica,sans-Serif" font-size="10.00">::calculateDistanceFromPoints</text>
</a>
</g>
</g>
<!-- Node23&#45;&gt;Node24 -->
<g id="edge30_Node000023_Node000024" class="edge">
<title>Node23&#45;&gt;Node24</title>
<g id="a_edge30_Node000023_Node000024"><a xlink:title=" ">
<path fill="none" stroke="#63b8ff" d="M650.54,-325.78C641.31,-326.89 631.94,-328.01 622.82,-329.11"/>
<polygon fill="#63b8ff" stroke="#63b8ff" points="650.69,-329.29 660.2,-324.62 649.86,-322.34 650.69,-329.29"/>
</a>
</g>
</g>
<!-- Node24&#45;&gt;Node3 -->
<g id="edge31_Node000024_Node000003" class="edge">
<title>Node24&#45;&gt;Node3</title>
<g id="a_edge31_Node000024_Node000003"><a xlink:title=" ">
<path fill="none" stroke="#63b8ff" d="M491.99,-358.75C484.58,-361.97 477.16,-365.43 470.25,-369 453.38,-377.72 451.36,-383.77 434.25,-392 427.82,-395.09 420.91,-397.98 413.99,-400.6"/>
<polygon fill="#63b8ff" stroke="#63b8ff" points="493.14,-362.06 500.99,-354.95 490.42,-355.61 493.14,-362.06"/>
</a>
</g>
</g>
<!-- Node26 -->
<g id="Node000026" class="node">
<title>Node26</title>
<g id="a_Node000026"><a xlink:href="class_g_l_e_s_c_1_1_math_1_1_line.html#a18a1fdcbcbd3c1055df4cbc67d46914d" target="_top" xlink:title="Check if a line intersects with a point.">
<polygon fill="white" stroke="#666666" points="601,-149 494.25,-149 494.25,-117 601,-117 601,-149"/>
<text text-anchor="start" x="502.25" y="-135.5" font-family="Helvetica,sans-Serif" font-size="10.00">GLESC::Math::Line::</text>
<text text-anchor="middle" x="547.62" y="-123.5" font-family="Helvetica,sans-Serif" font-size="10.00">intersects</text>
</a>
</g>
</g>
<!-- Node25&#45;&gt;Node26 -->
<g id="edge33_Node000025_Node000026" class="edge">
<title>Node25&#45;&gt;Node26</title>
<g id="a_edge33_Node000025_Node000026"><a xlink:title=" ">
<path fill="none" stroke="#63b8ff" d="M669.08,-195.44C666.3,-194.03 663.59,-192.56 661,-191 642.38,-179.84 643.74,-168.96 625,-158 617.65,-153.7 609.47,-150.04 601.27,-146.94"/>
<polygon fill="#63b8ff" stroke="#63b8ff" points="667.44,-198.53 677.98,-199.55 670.37,-192.18 667.44,-198.53"/>
</a>
</g>
</g>
<!-- Node29 -->
<g id="Node000029" class="node">
<title>Node29</title>
<g id="a_Node000029"><a xlink:href="class_g_l_e_s_c_1_1_math_1_1_vector.html#ac5484e71065fd5a499e3fc951a3d8261" target="_top" xlink:title="Get an orthogonal (or perpendicular) vector.">
<polygon fill="white" stroke="#666666" points="788.75,-132 677.5,-132 677.5,-100 788.75,-100 788.75,-132"/>
<text text-anchor="start" x="685.5" y="-118.5" font-family="Helvetica,sans-Serif" font-size="10.00">GLESC::Math::Vector</text>
<text text-anchor="middle" x="733.12" y="-106.5" font-family="Helvetica,sans-Serif" font-size="10.00">::getOrthogonal</text>
</a>
</g>
</g>
<!-- Node28&#45;&gt;Node29 -->
<g id="edge36_Node000028_Node000029" class="edge">
<title>Node28&#45;&gt;Node29</title>
<g id="a_edge36_Node000028_Node000029"><a xlink:title=" ">
<path fill="none" stroke="#63b8ff" d="M850.79,-170.37C847.53,-168.98 844.33,-167.52 841.25,-166 823.78,-157.37 822.6,-149.87 805.25,-141 799.19,-137.9 792.66,-135.03 786.09,-132.42"/>
<polygon fill="#63b8ff" stroke="#63b8ff" points="849.38,-173.58 859.96,-174.04 851.97,-167.08 849.38,-173.58"/>
</a>
</g>
</g>
<!-- Node32 -->
<g id="Node000032" class="node">
<title>Node32</title>
<g id="a_Node000032"><a xlink:href="class_g_l_e_s_c_1_1_math_1_1_vector.html#abafb1f7d66f1c7d8d624eb5fc9654d4c" target="_top" xlink:title="Converts the vector to euler angles.">
<polygon fill="white" stroke="#666666" points="791.38,-82 674.88,-82 674.88,-50 791.38,-50 791.38,-82"/>
<text text-anchor="start" x="682.88" y="-68.5" font-family="Helvetica,sans-Serif" font-size="10.00">GLESC::Math::Vector</text>
<text text-anchor="middle" x="733.12" y="-56.5" font-family="Helvetica,sans-Serif" font-size="10.00">::vectorToEulerRotation</text>
</a>
</g>
</g>
<!-- Node31&#45;&gt;Node32 -->
<g id="edge39_Node000031_Node000032" class="edge">
<title>Node31&#45;&gt;Node32</title>
<g id="a_edge39_Node000031_Node000032"><a xlink:title=" ">
<path fill="none" stroke="#63b8ff" d="M829.67,-66C816.8,-66 803.86,-66 791.83,-66"/>
<polygon fill="#63b8ff" stroke="#63b8ff" points="829.42,-69.5 839.42,-66 829.42,-62.5 829.42,-69.5"/>
</a>
</g>
</g>
<!-- Node34 -->
<g id="Node000034" class="node">
<title>Node34</title>
<g id="a_Node000034"><a xlink:href="class_g_l_e_s_c_1_1_math_1_1_vector.html#a2812d4af5876511454191857cab1d18b" target="_top" xlink:title="Converts the vector to euler angles.">
<polygon fill="white" stroke="#666666" points="791.38,-32 674.88,-32 674.88,0 791.38,0 791.38,-32"/>
<text text-anchor="start" x="682.88" y="-18.5" font-family="Helvetica,sans-Serif" font-size="10.00">GLESC::Math::Vector</text>
<text text-anchor="middle" x="733.12" y="-6.5" font-family="Helvetica,sans-Serif" font-size="10.00">::vectorToEulerRotation</text>
</a>
</g>
</g>
<!-- Node31&#45;&gt;Node34 -->
<g id="edge41_Node000031_Node000034" class="edge">
<title>Node31&#45;&gt;Node34</title>
<g id="a_edge41_Node000031_Node000034"><a xlink:title=" ">
<path fill="none" stroke="#63b8ff" d="M847.33,-46.6C828.95,-41.63 809.42,-36.35 791.85,-31.6"/>
<polygon fill="#63b8ff" stroke="#63b8ff" points="846.26,-49.93 856.83,-49.16 848.09,-43.18 846.26,-49.93"/>
</a>
</g>
</g>
<!-- Node33 -->
<g id="Node000033" class="node">
<title>Node33</title>
<g id="a_Node000033"><a xlink:href="class_g_l_e_s_c_1_1_transform_1_1_transformer.html#a4880807323f7c515dd37b15ba2a32acb" target="_top" xlink:title=" ">
<polygon fill="white" stroke="#666666" points="625,-82 470.25,-82 470.25,-50 625,-50 625,-82"/>
<text text-anchor="start" x="478.25" y="-68.5" font-family="Helvetica,sans-Serif" font-size="10.00">GLESC::Transform::Transformer</text>
<text text-anchor="middle" x="547.62" y="-56.5" font-family="Helvetica,sans-Serif" font-size="10.00">::lookAt</text>
</a>
</g>
</g>
<!-- Node32&#45;&gt;Node33 -->
<g id="edge40_Node000032_Node000033" class="edge">
<title>Node32&#45;&gt;Node33</title>
<g id="a_edge40_Node000032_Node000033"><a xlink:title=" ">
<path fill="none" stroke="#63b8ff" d="M663.41,-66C651.04,-66 638.07,-66 625.49,-66"/>
<polygon fill="#63b8ff" stroke="#63b8ff" points="663.05,-69.5 673.05,-66 663.05,-62.5 663.05,-69.5"/>
</a>
</g>
</g>
</g>
</svg>

<g id="navigator" transform="translate(0 0)" fill="#404254">
  <rect fill="#f2f5e9" fill-opacity="0.5" stroke="#606060" stroke-width=".5" x="0" y="0" width="60" height="60"/>
  <use id="zoomplus" xlink:href="#zoomPlus" x="17" y="9" onmousedown="handleZoom(evt,'in')"/>
  <use id="zoomminus" xlink:href="#zoomMin" x="42" y="9" onmousedown="handleZoom(evt,'out')"/>
  <use id="reset" xlink:href="#resetDef" x="30" y="36" onmousedown="handleReset()"/>
   <use id="arrowup" xlink:href="#arrowUp" x="0" y="0" onmousedown="handlePan(0,-1)"/>
  <use id="arrowright" xlink:href="#arrowRight" x="0" y="0" onmousedown="handlePan(1,0)"/>
  <use id="arrowdown" xlink:href="#arrowDown" x="0" y="0" onmousedown="handlePan(0,1)"/>
  <use id="arrowleft" xlink:href="#arrowLeft" x="0" y="0" onmousedown="handlePan(-1,0)"/>
</g>
<svg viewBox="0 0 15 15" width="100%" height="30px" preserveAspectRatio="xMaxYMin meet">
 <g id="arrow_out" transform="scale(0.3 0.3)">
  <a xlink:href="class_g_l_e_s_c_1_1_math_1_1_vector_algorithms_ab041da9d339dfe80b80c6f0bdf5dbfd4_icgraph_org.svg" target="_base">
   <rect id="button" ry="5" rx="5" y="6" x="6" height="38" width="38"
        fill="#f2f5e9" fill-opacity="0.5" stroke="#606060" stroke-width="1.0"/>
   <path id="arrow"
     d="M 11.500037,31.436501 C 11.940474,20.09759 22.043105,11.32322 32.158766,21.979434 L 37.068811,17.246167 C 37.068811,17.246167 37.088388,32 37.088388,32 L 22.160133,31.978069 C 22.160133,31.978069 26.997745,27.140456 26.997745,27.140456 C 18.528582,18.264221 13.291696,25.230495 11.500037,31.436501 z"
     style="fill:#404040;"/>
  </a>
 </g>
</svg>

<style type='text/css'>
<![CDATA[
[data-mouse-over-selected='false'] { opacity: 0.7; }
[data-mouse-over-selected='true']  { opacity: 1.0; }
]]>
</style>
<script type="application/ecmascript"><![CDATA[
document.addEventListener('DOMContentLoaded', (event) => {
  highlightEdges();
  highlightAdjacentNodes();
});
]]></script>
</svg>
