<?xml version="1.0" encoding="UTF-8" standalone="no"?>
<!DOCTYPE svg PUBLIC "-//W3C//DTD SVG 1.1//EN"
 "http://www.w3.org/Graphics/SVG/1.1/DTD/svg11.dtd">
<!-- Generated by graphviz version 11.0.0 (20240428.1522)
 -->
<!-- Title: GLESC::Stringer::nonIterableToString Pages: 1 -->
<svg width="871pt" height="504pt"
 viewBox="0.00 0.00 871.00 504.00" xmlns="http://www.w3.org/2000/svg" xmlns:xlink="http://www.w3.org/1999/xlink">
<g id="graph0" class="graph" transform="scale(1 1) rotate(0) translate(4 500)">
<title>GLESC::Stringer::nonIterableToString</title>
<!-- Node1 -->
<g id="Node000001" class="node">
<title>Node1</title>
<g id="a_Node000001"><a xlink:title="Converts a non&#45;iterable object to a string.">
<polygon fill="#999999" stroke="#666666" points="863,-304 721,-304 721,-272 863,-272 863,-304"/>
<text text-anchor="start" x="729" y="-290.5" font-family="Helvetica,sans-Serif" font-size="10.00">GLESC::Stringer::nonIterable</text>
<text text-anchor="middle" x="792" y="-278.5" font-family="Helvetica,sans-Serif" font-size="10.00">ToString</text>
</a>
</g>
</g>
<!-- Node1&#45;&gt;Node1 -->
<g id="edge1_Node000001_Node000001" class="edge">
<title>Node1&#45;&gt;Node1</title>
<g id="a_edge1_Node000001_Node000001"><a xlink:title=" ">
<path fill="none" stroke="#63b8ff" d="M820.54,-315.71C815.78,-319.48 806.27,-322 792,-322 765.91,-322 755.72,-313.58 761.43,-304.44"/>
<polygon fill="#63b8ff" stroke="#63b8ff" points="823.97,-316.4 822.3,-305.93 817.08,-315.15 823.97,-316.4"/>
</a>
</g>
</g>
<!-- Node2 -->
<g id="Node000002" class="node">
<title>Node2</title>
<g id="a_Node000002"><a xlink:href="class_g_l_e_s_c_1_1_stringer.html#acba5ca5265db3ba0cd968336f1428203" target="_top" xlink:title="Converts an object to a string.">
<polygon fill="white" stroke="#666666" points="685,-298 556.5,-298 556.5,-278 685,-278 685,-298"/>
<text text-anchor="middle" x="620.75" y="-284.5" font-family="Helvetica,sans-Serif" font-size="10.00">GLESC::Stringer::toString</text>
</a>
</g>
</g>
<!-- Node1&#45;&gt;Node2 -->
<g id="edge2_Node000001_Node000002" class="edge">
<title>Node1&#45;&gt;Node2</title>
<g id="a_edge2_Node000001_Node000002"><a xlink:title=" ">
<path fill="none" stroke="#63b8ff" d="M709.35,-288C701.29,-288 693.19,-288 685.35,-288"/>
<polygon fill="#63b8ff" stroke="#63b8ff" points="709.18,-291.5 719.18,-288 709.18,-284.5 709.18,-291.5"/>
</a>
</g>
</g>
<!-- Node3 -->
<g id="Node000003" class="node">
<title>Node3</title>
<g id="a_Node000003"><a xlink:href="_debugger_8h.html#aab71434b187ea1ca113462efcb8aefb5" target="_top" xlink:title="Converts the last argument of a variadic template into a string.">
<polygon fill="white" stroke="#666666" points="478.5,-496 407.75,-496 407.75,-476 478.5,-476 478.5,-496"/>
<text text-anchor="middle" x="443.12" y="-482.5" font-family="Helvetica,sans-Serif" font-size="10.00">argsToString</text>
</a>
</g>
</g>
<!-- Node2&#45;&gt;Node3 -->
<g id="edge3_Node000002_Node000003" class="edge">
<title>Node2&#45;&gt;Node3</title>
<g id="a_edge3_Node000002_Node000003"><a xlink:title=" ">
<path fill="none" stroke="#63b8ff" d="M613.37,-309.23C601.28,-345.83 571.58,-420.82 520.5,-462 508.6,-471.59 492.82,-477.38 478.7,-480.85"/>
<polygon fill="#63b8ff" stroke="#63b8ff" points="616.66,-310.43 616.34,-299.84 609.98,-308.32 616.66,-310.43"/>
</a>
</g>
</g>
<!-- Node4 -->
<g id="Node000004" class="node">
<title>Node4</title>
<g id="a_Node000004"><a xlink:href="_debugger_8h.html#a53bd0a9c7c7b254550fdb0119482334c" target="_top" xlink:title="Converts each argument of a variadic template into a string.">
<polygon fill="white" stroke="#666666" points="291.88,-477 221.12,-477 221.12,-457 291.88,-457 291.88,-477"/>
<text text-anchor="middle" x="256.5" y="-463.5" font-family="Helvetica,sans-Serif" font-size="10.00">argsToString</text>
</a>
</g>
</g>
<!-- Node2&#45;&gt;Node4 -->
<g id="edge5_Node000002_Node000004" class="edge">
<title>Node2&#45;&gt;Node4</title>
<g id="a_edge5_Node000002_Node000004"><a xlink:title=" ">
<path fill="none" stroke="#63b8ff" d="M611.64,-308.62C598,-340.3 567.31,-400.27 520.5,-429 482.85,-452.11 354.36,-461.91 292,-465.38"/>
<polygon fill="#63b8ff" stroke="#63b8ff" points="614.72,-310.32 615.31,-299.74 608.25,-307.65 614.72,-310.32"/>
</a>
</g>
</g>
<!-- Node5 -->
<g id="Node000005" class="node">
<title>Node5</title>
<g id="a_Node000005"><a xlink:href="class_g_l_e_s_c_1_1_stringer.html#acb7cc10341cef69e99362fa324fa1647" target="_top" xlink:title="Converts an iterable object to a string.">
<polygon fill="white" stroke="#666666" points="506.25,-420 380,-420 380,-388 506.25,-388 506.25,-420"/>
<text text-anchor="start" x="388" y="-406.5" font-family="Helvetica,sans-Serif" font-size="10.00">GLESC::Stringer::iterable</text>
<text text-anchor="middle" x="443.12" y="-394.5" font-family="Helvetica,sans-Serif" font-size="10.00">ToString</text>
</a>
</g>
</g>
<!-- Node2&#45;&gt;Node5 -->
<g id="edge6_Node000002_Node000005" class="edge">
<title>Node2&#45;&gt;Node5</title>
<g id="a_edge6_Node000002_Node000005"><a xlink:title=" ">
<path fill="none" stroke="#63b8ff" d="M597.46,-306.48C578.73,-324.99 550.29,-352.58 520.5,-370 507.85,-377.4 492.73,-382.93 479.3,-387.51"/>
<polygon fill="#63b8ff" stroke="#63b8ff" points="599.87,-309.02 604.53,-299.51 594.95,-304.04 599.87,-309.02"/>
</a>
</g>
</g>
<!-- Node6 -->
<g id="Node000006" class="node">
<title>Node6</title>
<g id="a_Node000006"><a xlink:href="class_g_l_e_s_c_1_1_e_c_s_1_1_e_c_s_coordinator.html#a511e3ef0ebeceb191a06db185e8fdc46" target="_top" xlink:title="Print the status of the ECS.">
<polygon fill="white" stroke="#666666" points="518.62,-370 367.62,-370 367.62,-338 518.62,-338 518.62,-370"/>
<text text-anchor="start" x="375.62" y="-356.5" font-family="Helvetica,sans-Serif" font-size="10.00">GLESC::ECS::ECSCoordinator</text>
<text text-anchor="middle" x="443.12" y="-344.5" font-family="Helvetica,sans-Serif" font-size="10.00">::printStatus</text>
</a>
</g>
</g>
<!-- Node2&#45;&gt;Node6 -->
<g id="edge8_Node000002_Node000006" class="edge">
<title>Node2&#45;&gt;Node6</title>
<g id="a_edge8_Node000002_Node000006"><a xlink:title=" ">
<path fill="none" stroke="#63b8ff" d="M581.5,-302.38C553.93,-312.74 516.67,-326.74 487.91,-337.55"/>
<polygon fill="#63b8ff" stroke="#63b8ff" points="582.38,-305.78 590.5,-298.99 579.91,-299.23 582.38,-305.78"/>
</a>
</g>
</g>
<!-- Node7 -->
<g id="Node000007" class="node">
<title>Node7</title>
<g id="a_Node000007"><a xlink:href="class_g_l_e_s_c_1_1_engine.html#a3bc0e4b7fb38c3d5f3c6241e2be66d63" target="_top" xlink:title=" ">
<polygon fill="white" stroke="#666666" points="329.75,-298 183.25,-298 183.25,-278 329.75,-278 329.75,-298"/>
<text text-anchor="middle" x="256.5" y="-284.5" font-family="Helvetica,sans-Serif" font-size="10.00">GLESC::Engine::registerStats</text>
</a>
</g>
</g>
<!-- Node2&#45;&gt;Node7 -->
<g id="edge9_Node000002_Node000007" class="edge">
<title>Node2&#45;&gt;Node7</title>
<g id="a_edge9_Node000002_Node000007"><a xlink:title=" ">
<path fill="none" stroke="#63b8ff" d="M544.72,-290.51C536.55,-290.71 528.35,-290.88 520.5,-291 451.73,-292.04 434.52,-291.95 365.75,-291 354.19,-290.84 341.93,-290.58 329.99,-290.29"/>
<polygon fill="#63b8ff" stroke="#63b8ff" points="544.8,-294.01 554.71,-290.25 544.62,-287.01 544.8,-294.01"/>
</a>
</g>
</g>
<!-- Node9 -->
<g id="Node000009" class="node">
<title>Node9</title>
<g id="a_Node000009"><a xlink:href="class_g_l_e_s_c_1_1_stats_manager.html#a672d1fe0cf1a75d9ff5588436585e4f3" target="_top" xlink:title=" ">
<polygon fill="white" stroke="#666666" points="501,-282 385.25,-282 385.25,-250 501,-250 501,-282"/>
<text text-anchor="start" x="393.25" y="-268.5" font-family="Helvetica,sans-Serif" font-size="10.00">GLESC::StatsManager</text>
<text text-anchor="middle" x="443.12" y="-256.5" font-family="Helvetica,sans-Serif" font-size="10.00">::registerStatSource</text>
</a>
</g>
</g>
<!-- Node2&#45;&gt;Node9 -->
<g id="edge11_Node000002_Node000009" class="edge">
<title>Node2&#45;&gt;Node9</title>
<g id="a_edge11_Node000002_Node000009"><a xlink:title=" ">
<path fill="none" stroke="#63b8ff" d="M545.23,-278.67C530.54,-276.82 515.33,-274.92 501.31,-273.16"/>
<polygon fill="#63b8ff" stroke="#63b8ff" points="544.49,-282.1 554.84,-279.87 545.36,-275.15 544.49,-282.1"/>
</a>
</g>
</g>
<!-- Node10 -->
<g id="Node000010" class="node">
<title>Node10</title>
<g id="a_Node000010"><a xlink:href="class_g_l_e_s_c_1_1_render_1_1_intensity.html#a1c006680630f6f857e4f09fd9e7f6fac" target="_top" xlink:title=" ">
<polygon fill="white" stroke="#666666" points="507.38,-232 378.88,-232 378.88,-200 507.38,-200 507.38,-232"/>
<text text-anchor="start" x="386.88" y="-218.5" font-family="Helvetica,sans-Serif" font-size="10.00">GLESC::Render::Intensity</text>
<text text-anchor="middle" x="443.12" y="-206.5" font-family="Helvetica,sans-Serif" font-size="10.00">::toString</text>
</a>
</g>
</g>
<!-- Node2&#45;&gt;Node10 -->
<g id="edge13_Node000002_Node000010" class="edge">
<title>Node2&#45;&gt;Node10</title>
<g id="a_edge13_Node000002_Node000010"><a xlink:title=" ">
<path fill="none" stroke="#63b8ff" d="M589.48,-272.45C570.04,-262.77 544.11,-250.41 520.5,-241 513.11,-238.06 505.23,-235.18 497.44,-232.5"/>
<polygon fill="#63b8ff" stroke="#63b8ff" points="587.7,-275.47 598.2,-276.83 590.84,-269.21 587.7,-275.47"/>
</a>
</g>
</g>
<!-- Node11 -->
<g id="Node000011" class="node">
<title>Node11</title>
<g id="a_Node000011"><a xlink:href="struct_g_l_e_s_c_1_1_render_1_1_color_rgb.html#ad7eceb0ec3625b11d378ca2a474327b8" target="_top" xlink:title=" ">
<polygon fill="white" stroke="#666666" points="508.88,-182 377.38,-182 377.38,-150 508.88,-150 508.88,-182"/>
<text text-anchor="start" x="385.38" y="-168.5" font-family="Helvetica,sans-Serif" font-size="10.00">GLESC::Render::ColorRgb</text>
<text text-anchor="middle" x="443.12" y="-156.5" font-family="Helvetica,sans-Serif" font-size="10.00">::toString</text>
</a>
</g>
</g>
<!-- Node2&#45;&gt;Node11 -->
<g id="edge14_Node000002_Node000011" class="edge">
<title>Node2&#45;&gt;Node11</title>
<g id="a_edge14_Node000002_Node000011"><a xlink:title=" ">
<path fill="none" stroke="#63b8ff" d="M604.7,-268.69C586.8,-246.94 554.98,-211.91 520.5,-191 515.25,-187.82 509.55,-184.99 503.71,-182.49"/>
<polygon fill="#63b8ff" stroke="#63b8ff" points="601.96,-270.87 610.95,-276.47 607.41,-266.48 601.96,-270.87"/>
</a>
</g>
</g>
<!-- Node14 -->
<g id="Node000014" class="node">
<title>Node14</title>
<g id="a_Node000014"><a xlink:href="struct_g_l_e_s_c_1_1_render_1_1_color_rgba.html#a5ecc02d9d04790a49bd9be20aea0bf3e" target="_top" xlink:title=" ">
<polygon fill="white" stroke="#666666" points="511.5,-132 374.75,-132 374.75,-100 511.5,-100 511.5,-132"/>
<text text-anchor="start" x="382.75" y="-118.5" font-family="Helvetica,sans-Serif" font-size="10.00">GLESC::Render::ColorRgba</text>
<text text-anchor="middle" x="443.12" y="-106.5" font-family="Helvetica,sans-Serif" font-size="10.00">::toString</text>
</a>
</g>
</g>
<!-- Node2&#45;&gt;Node14 -->
<g id="edge17_Node000002_Node000014" class="edge">
<title>Node2&#45;&gt;Node14</title>
<g id="a_edge17_Node000002_Node000014"><a xlink:title=" ">
<path fill="none" stroke="#63b8ff" d="M611.22,-267.48C597.03,-235.79 565.59,-175.04 520.5,-141 516.16,-137.72 511.37,-134.86 506.36,-132.37"/>
<polygon fill="#63b8ff" stroke="#63b8ff" points="607.88,-268.57 615.06,-276.35 614.3,-265.79 607.88,-268.57"/>
</a>
</g>
</g>
<!-- Node15 -->
<g id="Node000015" class="node">
<title>Node15</title>
<g id="a_Node000015"><a xlink:href="struct_g_l_e_s_c_1_1_render_1_1_color_rgb_norm.html#a4672b6654596975e57f8ec6c6fab0395" target="_top" xlink:title=" ">
<polygon fill="white" stroke="#666666" points="520.5,-82 365.75,-82 365.75,-50 520.5,-50 520.5,-82"/>
<text text-anchor="start" x="373.75" y="-68.5" font-family="Helvetica,sans-Serif" font-size="10.00">GLESC::Render::ColorRgbNorm</text>
<text text-anchor="middle" x="443.12" y="-56.5" font-family="Helvetica,sans-Serif" font-size="10.00">::toString</text>
</a>
</g>
</g>
<!-- Node2&#45;&gt;Node15 -->
<g id="edge18_Node000002_Node000015" class="edge">
<title>Node2&#45;&gt;Node15</title>
<g id="a_edge18_Node000002_Node000015"><a xlink:title=" ">
<path fill="none" stroke="#63b8ff" d="M614.8,-266.59C604.38,-226.34 576.43,-139.1 520.5,-91 516.69,-87.73 512.44,-84.88 507.96,-82.4"/>
<polygon fill="#63b8ff" stroke="#63b8ff" points="611.38,-267.35 617.16,-276.22 618.17,-265.68 611.38,-267.35"/>
</a>
</g>
</g>
<!-- Node16 -->
<g id="Node000016" class="node">
<title>Node16</title>
<g id="a_Node000016"><a xlink:href="struct_g_l_e_s_c_1_1_render_1_1_color_rgba_norm.html#aa00d47a37b6494f1b3b1e7cdcd64b9b4" target="_top" xlink:title=" ">
<polygon fill="white" stroke="#666666" points="511.5,-32 374.75,-32 374.75,0 511.5,0 511.5,-32"/>
<text text-anchor="start" x="382.75" y="-18.5" font-family="Helvetica,sans-Serif" font-size="10.00">GLESC::Render::ColorRgba</text>
<text text-anchor="middle" x="443.12" y="-6.5" font-family="Helvetica,sans-Serif" font-size="10.00">Norm::toString</text>
</a>
</g>
</g>
<!-- Node2&#45;&gt;Node16 -->
<g id="edge19_Node000002_Node000016" class="edge">
<title>Node2&#45;&gt;Node16</title>
<g id="a_edge19_Node000002_Node000016"><a xlink:title=" ">
<path fill="none" stroke="#63b8ff" d="M617.19,-266.23C610.42,-218.51 587.71,-103.93 520.5,-41 517.04,-37.76 513.15,-34.94 509,-32.48"/>
<polygon fill="#63b8ff" stroke="#63b8ff" points="613.71,-266.62 618.47,-276.08 620.65,-265.71 613.71,-266.62"/>
</a>
</g>
</g>
<!-- Node3&#45;&gt;Node4 -->
<g id="edge4_Node000003_Node000004" class="edge">
<title>Node3&#45;&gt;Node4</title>
<g id="a_edge4_Node000003_Node000004"><a xlink:title=" ">
<path fill="none" stroke="#63b8ff" d="M396.02,-481.26C363.79,-477.94 321.42,-473.58 292.07,-470.56"/>
<polygon fill="#63b8ff" stroke="#63b8ff" points="395.59,-484.73 405.89,-482.27 396.3,-477.77 395.59,-484.73"/>
</a>
</g>
</g>
<!-- Node5&#45;&gt;Node2 -->
<g id="edge7_Node000005_Node000002" class="edge">
<title>Node5&#45;&gt;Node2</title>
<g id="a_edge7_Node000005_Node000002"><a xlink:title=" ">
<path fill="none" stroke="#63b8ff" d="M516.67,-390.14C517.97,-389.45 519.25,-388.73 520.5,-388 562.27,-363.57 601.38,-319.15 614.82,-298.28"/>
<polygon fill="#63b8ff" stroke="#63b8ff" points="515.24,-386.95 507.75,-394.45 518.28,-393.25 515.24,-386.95"/>
</a>
</g>
</g>
<!-- Node8 -->
<g id="Node000008" class="node">
<title>Node8</title>
<g id="a_Node000008"><a xlink:href="class_g_l_e_s_c_1_1_engine.html#a93e1621f9daf326a7c45d3b2a4c826c1" target="_top" xlink:title="The constructor is private, the engine can only be created by the main function.">
<polygon fill="white" stroke="#666666" points="134.12,-298 13.12,-298 13.12,-278 134.12,-278 134.12,-298"/>
<text text-anchor="middle" x="73.62" y="-284.5" font-family="Helvetica,sans-Serif" font-size="10.00">GLESC::Engine::Engine</text>
</a>
</g>
</g>
<!-- Node7&#45;&gt;Node8 -->
<g id="edge10_Node000007_Node000008" class="edge">
<title>Node7&#45;&gt;Node8</title>
<g id="a_edge10_Node000007_Node000008"><a xlink:title=" ">
<path fill="none" stroke="#63b8ff" d="M171.54,-288C159,-288 146.3,-288 134.41,-288"/>
<polygon fill="#63b8ff" stroke="#63b8ff" points="171.46,-291.5 181.46,-288 171.46,-284.5 171.46,-291.5"/>
</a>
</g>
</g>
<!-- Node9&#45;&gt;Node7 -->
<g id="edge12_Node000009_Node000007" class="edge">
<title>Node9&#45;&gt;Node7</title>
<g id="a_edge12_Node000009_Node000007"><a xlink:title=" ">
<path fill="none" stroke="#63b8ff" d="M373.75,-274.15C359.5,-275.85 344.44,-277.64 330.04,-279.36"/>
<polygon fill="#63b8ff" stroke="#63b8ff" points="373.95,-277.65 383.47,-272.99 373.13,-270.7 373.95,-277.65"/>
</a>
</g>
</g>
<!-- Node12 -->
<g id="Node000012" class="node">
<title>Node12</title>
<g id="a_Node000012"><a xlink:href="class_g_l_e_s_c_1_1_render_1_1_fog.html#af49dd56c8f6a9af557de0e72590efca0" target="_top" xlink:title=" ">
<polygon fill="white" stroke="#666666" points="310.62,-182 202.38,-182 202.38,-150 310.62,-150 310.62,-182"/>
<text text-anchor="start" x="210.38" y="-168.5" font-family="Helvetica,sans-Serif" font-size="10.00">GLESC::Render::Fog</text>
<text text-anchor="middle" x="256.5" y="-156.5" font-family="Helvetica,sans-Serif" font-size="10.00">::toString</text>
</a>
</g>
</g>
<!-- Node11&#45;&gt;Node12 -->
<g id="edge15_Node000011_Node000012" class="edge">
<title>Node11&#45;&gt;Node12</title>
<g id="a_edge15_Node000011_Node000012"><a xlink:title=" ">
<path fill="none" stroke="#63b8ff" d="M365.73,-166C347.36,-166 328.12,-166 311.04,-166"/>
<polygon fill="#63b8ff" stroke="#63b8ff" points="365.52,-169.5 375.52,-166 365.52,-162.5 365.52,-169.5"/>
</a>
</g>
</g>
<!-- Node13 -->
<g id="Node000013" class="node">
<title>Node13</title>
<g id="a_Node000013"><a xlink:href="class_g_l_e_s_c_1_1_e_c_s_1_1_fog_component.html#a2f20c06e3d69e024f2548d7cc01923b9" target="_top" xlink:title="Each component must have a toString function.">
<polygon fill="white" stroke="#666666" points="147.25,-182 0,-182 0,-150 147.25,-150 147.25,-182"/>
<text text-anchor="start" x="8" y="-168.5" font-family="Helvetica,sans-Serif" font-size="10.00">GLESC::ECS::FogComponent</text>
<text text-anchor="middle" x="73.62" y="-156.5" font-family="Helvetica,sans-Serif" font-size="10.00">::toString</text>
</a>
</g>
</g>
<!-- Node12&#45;&gt;Node13 -->
<g id="edge16_Node000012_Node000013" class="edge">
<title>Node12&#45;&gt;Node13</title>
<g id="a_edge16_Node000012_Node000013"><a xlink:title=" ">
<path fill="none" stroke="#63b8ff" d="M190.72,-166C176.75,-166 161.9,-166 147.64,-166"/>
<polygon fill="#63b8ff" stroke="#63b8ff" points="190.7,-169.5 200.7,-166 190.7,-162.5 190.7,-169.5"/>
</a>
</g>
</g>
<!-- Node17 -->
<g id="Node000017" class="node">
<title>Node17</title>
<g id="a_Node000017"><a xlink:href="class_g_l_e_s_c_1_1_render_1_1_color_vertex.html#a4b1ab1a73feb263350743a0393de6059" target="_top" xlink:title=" ">
<polygon fill="white" stroke="#666666" points="327.88,-32 185.12,-32 185.12,0 327.88,0 327.88,-32"/>
<text text-anchor="start" x="193.12" y="-18.5" font-family="Helvetica,sans-Serif" font-size="10.00">GLESC::Render::ColorVertex</text>
<text text-anchor="middle" x="256.5" y="-6.5" font-family="Helvetica,sans-Serif" font-size="10.00">::toString</text>
</a>
</g>
</g>
<!-- Node16&#45;&gt;Node17 -->
<g id="edge20_Node000016_Node000017" class="edge">
<title>Node16&#45;&gt;Node17</title>
<g id="a_edge20_Node000016_Node000017"><a xlink:title=" ">
<path fill="none" stroke="#63b8ff" d="M363.01,-16C351.47,-16 339.65,-16 328.29,-16"/>
<polygon fill="#63b8ff" stroke="#63b8ff" points="362.91,-19.5 372.91,-16 362.91,-12.5 362.91,-19.5"/>
</a>
</g>
</g>
</g>
</svg>
