<?xml version="1.0" encoding="UTF-8" standalone="no"?>
<!DOCTYPE svg PUBLIC "-//W3C//DTD SVG 1.1//EN"
 "http://www.w3.org/Graphics/SVG/1.1/DTD/svg11.dtd">
<!-- Generated by graphviz version 11.0.0 (20240428.1522)
 -->
<!-- Title: GLESC::Transform::Transformer::rotateMesh Pages: 1 -->
<svg width="662pt" height="140pt"
 viewBox="0.00 0.00 661.50 140.00" xmlns="http://www.w3.org/2000/svg" xmlns:xlink="http://www.w3.org/1999/xlink">
<g id="graph0" class="graph" transform="scale(1 1) rotate(0) translate(4 136)">
<title>GLESC::Transform::Transformer::rotateMesh</title>
<!-- Node1 -->
<g id="Node000001" class="node">
<title>Node1</title>
<g id="a_Node000001"><a xlink:title="Rotates a mesh by a given rotation.">
<polygon fill="#999999" stroke="#666666" points="154.75,-82 0,-82 0,-50 154.75,-50 154.75,-82"/>
<text text-anchor="start" x="8" y="-68.5" font-family="Helvetica,sans-Serif" font-size="10.00">GLESC::Transform::Transformer</text>
<text text-anchor="middle" x="77.38" y="-56.5" font-family="Helvetica,sans-Serif" font-size="10.00">::rotateMesh</text>
</a>
</g>
</g>
<!-- Node2 -->
<g id="Node000002" class="node">
<title>Node2</title>
<g id="a_Node000002"><a xlink:href="class_g_l_e_s_c_1_1_render_1_1_mesh.html#a9dc629631bd4e02c59259d6995b28633" target="_top" xlink:title=" ">
<polygon fill="white" stroke="#666666" points="306.5,-132 190.75,-132 190.75,-100 306.5,-100 306.5,-132"/>
<text text-anchor="start" x="198.75" y="-118.5" font-family="Helvetica,sans-Serif" font-size="10.00">GLESC::Render::Mesh</text>
<text text-anchor="middle" x="248.62" y="-106.5" font-family="Helvetica,sans-Serif" font-size="10.00">::getModifiableVertices</text>
</a>
</g>
</g>
<!-- Node1&#45;&gt;Node2 -->
<g id="edge1_Node000001_Node000002" class="edge">
<title>Node1&#45;&gt;Node2</title>
<g id="a_edge1_Node000001_Node000002"><a xlink:title=" ">
<path fill="none" stroke="#63b8ff" d="M133.79,-82.37C148.91,-86.84 165.45,-91.72 181.11,-96.35"/>
<polygon fill="#63b8ff" stroke="#63b8ff" points="179.76,-99.6 190.34,-99.08 181.74,-92.89 179.76,-99.6"/>
</a>
</g>
</g>
<!-- Node3 -->
<g id="Node000003" class="node">
<title>Node3</title>
<g id="a_Node000003"><a xlink:href="class_g_l_e_s_c_1_1_math_1_1_vector.html#a59e384ea5a54361b8d985f67f7e3397c" target="_top" xlink:title="Rotates the vector by a given rotation.">
<polygon fill="white" stroke="#666666" points="304.25,-82 193,-82 193,-50 304.25,-50 304.25,-82"/>
<text text-anchor="start" x="201" y="-68.5" font-family="Helvetica,sans-Serif" font-size="10.00">GLESC::Math::Vector</text>
<text text-anchor="middle" x="248.62" y="-56.5" font-family="Helvetica,sans-Serif" font-size="10.00">::rotate</text>
</a>
</g>
</g>
<!-- Node1&#45;&gt;Node3 -->
<g id="edge2_Node000001_Node000003" class="edge">
<title>Node1&#45;&gt;Node3</title>
<g id="a_edge2_Node000001_Node000003"><a xlink:title=" ">
<path fill="none" stroke="#63b8ff" d="M155.08,-66C163.96,-66 172.95,-66 181.67,-66"/>
<polygon fill="#63b8ff" stroke="#63b8ff" points="181.42,-69.5 191.42,-66 181.42,-62.5 181.42,-69.5"/>
</a>
</g>
</g>
<!-- Node7 -->
<g id="Node000007" class="node">
<title>Node7</title>
<g id="a_Node000007"><a xlink:href="class_g_l_e_s_c_1_1_math_1_1_vector.html#a058dd167ea8c84edda5fdeccdeebd5d5" target="_top" xlink:title="Converts the vector to radians.">
<polygon fill="white" stroke="#666666" points="304.25,-32 193,-32 193,0 304.25,0 304.25,-32"/>
<text text-anchor="start" x="201" y="-18.5" font-family="Helvetica,sans-Serif" font-size="10.00">GLESC::Math::Vector</text>
<text text-anchor="middle" x="248.62" y="-6.5" font-family="Helvetica,sans-Serif" font-size="10.00">::toRads</text>
</a>
</g>
</g>
<!-- Node1&#45;&gt;Node7 -->
<g id="edge6_Node000001_Node000007" class="edge">
<title>Node1&#45;&gt;Node7</title>
<g id="a_edge6_Node000001_Node000007"><a xlink:title=" ">
<path fill="none" stroke="#63b8ff" d="M133.79,-49.63C149.15,-45.09 165.96,-40.13 181.84,-35.43"/>
<polygon fill="#63b8ff" stroke="#63b8ff" points="182.61,-38.86 191.21,-32.67 180.63,-32.14 182.61,-38.86"/>
</a>
</g>
</g>
<!-- Node4 -->
<g id="Node000004" class="node">
<title>Node4</title>
<g id="a_Node000004"><a xlink:href="class_g_l_e_s_c_1_1_math_1_1_vector_algorithms.html#a6ca52869ac900565e8b829736d266ea5" target="_top" xlink:title="Rotates a 3D vector by the given rotation angles.">
<polygon fill="white" stroke="#666666" points="500.25,-82 342.5,-82 342.5,-50 500.25,-50 500.25,-82"/>
<text text-anchor="start" x="350.5" y="-68.5" font-family="Helvetica,sans-Serif" font-size="10.00">GLESC::Math::VectorAlgorithms</text>
<text text-anchor="middle" x="421.38" y="-56.5" font-family="Helvetica,sans-Serif" font-size="10.00">::rotateVector3D</text>
</a>
</g>
</g>
<!-- Node3&#45;&gt;Node4 -->
<g id="edge3_Node000003_Node000004" class="edge">
<title>Node3&#45;&gt;Node4</title>
<g id="a_edge3_Node000003_Node000004"><a xlink:title=" ">
<path fill="none" stroke="#63b8ff" d="M304.59,-66C313.02,-66 321.91,-66 330.86,-66"/>
<polygon fill="#63b8ff" stroke="#63b8ff" points="330.68,-69.5 340.68,-66 330.68,-62.5 330.68,-69.5"/>
</a>
</g>
</g>
<!-- Node5 -->
<g id="Node000005" class="node">
<title>Node5</title>
<g id="a_Node000005"><a xlink:href="namespace_g_l_e_s_c_1_1_math.html#ac72fdbfd43b6a5770385dbfd805b687b" target="_top" xlink:title="Calculates the cosine of a value.">
<polygon fill="white" stroke="#666666" points="644.12,-108 545.62,-108 545.62,-88 644.12,-88 644.12,-108"/>
<text text-anchor="middle" x="594.88" y="-94.5" font-family="Helvetica,sans-Serif" font-size="10.00">GLESC::Math::cos</text>
</a>
</g>
</g>
<!-- Node4&#45;&gt;Node5 -->
<g id="edge4_Node000004_Node000005" class="edge">
<title>Node4&#45;&gt;Node5</title>
<g id="a_edge4_Node000004_Node000005"><a xlink:title=" ">
<path fill="none" stroke="#63b8ff" d="M500.6,-80.6C511.87,-82.7 523.33,-84.84 534.17,-86.86"/>
<polygon fill="#63b8ff" stroke="#63b8ff" points="533.25,-90.25 543.72,-88.64 534.53,-83.37 533.25,-90.25"/>
</a>
</g>
</g>
<!-- Node6 -->
<g id="Node000006" class="node">
<title>Node6</title>
<g id="a_Node000006"><a xlink:href="namespace_g_l_e_s_c_1_1_math.html#aa21a1aeaaa25e280f941221e165dffa4" target="_top" xlink:title="Calculates the sine of a value.">
<polygon fill="white" stroke="#666666" points="642.62,-70 547.12,-70 547.12,-50 642.62,-50 642.62,-70"/>
<text text-anchor="middle" x="594.88" y="-56.5" font-family="Helvetica,sans-Serif" font-size="10.00">GLESC::Math::sin</text>
</a>
</g>
</g>
<!-- Node4&#45;&gt;Node6 -->
<g id="edge5_Node000004_Node000006" class="edge">
<title>Node4&#45;&gt;Node6</title>
<g id="a_edge5_Node000004_Node000006"><a xlink:title=" ">
<path fill="none" stroke="#63b8ff" d="M500.6,-63.26C512.27,-62.86 524.13,-62.44 535.3,-62.05"/>
<polygon fill="#63b8ff" stroke="#63b8ff" points="535.27,-65.55 545.14,-61.7 535.03,-58.56 535.27,-65.55"/>
</a>
</g>
</g>
<!-- Node8 -->
<g id="Node000008" class="node">
<title>Node8</title>
<g id="a_Node000008"><a xlink:href="namespace_g_l_e_s_c_1_1_math.html#a980ed967f85bef4bb539c9701701a877" target="_top" xlink:title="Converts degrees to radians.">
<polygon fill="white" stroke="#666666" points="478.5,-26 364.25,-26 364.25,-6 478.5,-6 478.5,-26"/>
<text text-anchor="middle" x="421.38" y="-12.5" font-family="Helvetica,sans-Serif" font-size="10.00">GLESC::Math::radians</text>
</a>
</g>
</g>
<!-- Node7&#45;&gt;Node8 -->
<g id="edge7_Node000007_Node000008" class="edge">
<title>Node7&#45;&gt;Node8</title>
<g id="a_edge7_Node000007_Node000008"><a xlink:title=" ">
<path fill="none" stroke="#63b8ff" d="M304.59,-16C319.81,-16 336.51,-16 352.38,-16"/>
<polygon fill="#63b8ff" stroke="#63b8ff" points="352.24,-19.5 362.24,-16 352.24,-12.5 352.24,-19.5"/>
</a>
</g>
</g>
<!-- Node9 -->
<g id="Node000009" class="node">
<title>Node9</title>
<g id="a_Node000009"><a xlink:href="namespace_g_l_e_s_c_1_1_math.html#a69598a72ef2c06e1caba0ea9613d65e6" target="_top" xlink:title="Converts radians to degrees.">
<polygon fill="white" stroke="#666666" points="653.5,-26 536.25,-26 536.25,-6 653.5,-6 653.5,-26"/>
<text text-anchor="middle" x="594.88" y="-12.5" font-family="Helvetica,sans-Serif" font-size="10.00">GLESC::Math::degrees</text>
</a>
</g>
</g>
<!-- Node8&#45;&gt;Node9 -->
<g id="edge8_Node000008_Node000009" class="edge">
<title>Node8&#45;&gt;Node9</title>
<g id="a_edge8_Node000008_Node000009"><a xlink:title=" ">
<path fill="none" stroke="#63b8ff" d="M478.53,-9.62C493.17,-9.24 509.11,-9.15 524.35,-9.36"/>
<polygon fill="#63b8ff" stroke="#63b8ff" points="524.25,-12.86 534.31,-9.55 524.38,-5.86 524.25,-12.86"/>
</a>
</g>
</g>
<!-- Node9&#45;&gt;Node8 -->
<g id="edge9_Node000009_Node000008" class="edge">
<title>Node9&#45;&gt;Node8</title>
<g id="a_edge9_Node000009_Node000008"><a xlink:title=" ">
<path fill="none" stroke="#63b8ff" d="M535.83,-22.43C521.08,-22.78 505.12,-22.84 489.94,-22.61"/>
<polygon fill="#63b8ff" stroke="#63b8ff" points="490.11,-19.12 480.04,-22.41 489.97,-26.11 490.11,-19.12"/>
</a>
</g>
</g>
</g>
</svg>
