<?xml version="1.0" encoding="UTF-8" standalone="no"?>
<!DOCTYPE svg PUBLIC "-//W3C//DTD SVG 1.1//EN"
 "http://www.w3.org/Graphics/SVG/1.1/DTD/svg11.dtd">
<!-- Generated by graphviz version 11.0.0 (20240428.1522)
 -->
<!-- Title: GLESC::Transform::Transformer::worldToViewport Pages: 1 -->
<svg width="741pt" height="140pt"
 viewBox="0.00 0.00 741.00 140.00" xmlns="http://www.w3.org/2000/svg" xmlns:xlink="http://www.w3.org/1999/xlink">
<g id="graph0" class="graph" transform="scale(1 1) rotate(0) translate(4 136)">
<title>GLESC::Transform::Transformer::worldToViewport</title>
<!-- Node1 -->
<g id="Node000001" class="node">
<title>Node1</title>
<g id="a_Node000001"><a xlink:title="Transforms the world position to viewport coordinates.">
<polygon fill="#999999" stroke="#666666" points="154.75,-82 0,-82 0,-50 154.75,-50 154.75,-82"/>
<text text-anchor="start" x="8" y="-68.5" font-family="Helvetica,sans-Serif" font-size="10.00">GLESC::Transform::Transformer</text>
<text text-anchor="middle" x="77.38" y="-56.5" font-family="Helvetica,sans-Serif" font-size="10.00">::worldToViewport</text>
</a>
</g>
</g>
<!-- Node2 -->
<g id="Node000002" class="node">
<title>Node2</title>
<g id="a_Node000002"><a xlink:href="class_g_l_e_s_c_1_1_transform_1_1_transformer.html#a9539ec619440203589c9a2cc13145500" target="_top" xlink:title="Transforms the clip position to normalized device coordinates.">
<polygon fill="white" stroke="#666666" points="345.5,-132 190.75,-132 190.75,-100 345.5,-100 345.5,-132"/>
<text text-anchor="start" x="198.75" y="-118.5" font-family="Helvetica,sans-Serif" font-size="10.00">GLESC::Transform::Transformer</text>
<text text-anchor="middle" x="268.12" y="-106.5" font-family="Helvetica,sans-Serif" font-size="10.00">::clipToNDC</text>
</a>
</g>
</g>
<!-- Node1&#45;&gt;Node2 -->
<g id="edge1_Node000001_Node000002" class="edge">
<title>Node1&#45;&gt;Node2</title>
<g id="a_edge1_Node000001_Node000002"><a xlink:title=" ">
<path fill="none" stroke="#63b8ff" d="M140.44,-82.44C157.61,-86.99 176.41,-91.97 194.14,-96.67"/>
<polygon fill="#63b8ff" stroke="#63b8ff" points="193,-99.98 203.56,-99.16 194.79,-93.22 193,-99.98"/>
</a>
</g>
</g>
<!-- Node5 -->
<g id="Node000005" class="node">
<title>Node5</title>
<g id="a_Node000005"><a xlink:href="class_g_l_e_s_c_1_1_math_1_1_vector.html#ae97c63da7362348a91413c64256df459" target="_top" xlink:title="Homogenizes the vector.">
<polygon fill="white" stroke="#666666" points="323.75,-82 212.5,-82 212.5,-50 323.75,-50 323.75,-82"/>
<text text-anchor="start" x="220.5" y="-68.5" font-family="Helvetica,sans-Serif" font-size="10.00">GLESC::Math::Vector</text>
<text text-anchor="middle" x="268.12" y="-56.5" font-family="Helvetica,sans-Serif" font-size="10.00">::homogenize</text>
</a>
</g>
</g>
<!-- Node1&#45;&gt;Node5 -->
<g id="edge4_Node000001_Node000005" class="edge">
<title>Node1&#45;&gt;Node5</title>
<g id="a_edge4_Node000001_Node000005"><a xlink:title=" ">
<path fill="none" stroke="#63b8ff" d="M155.15,-66C170.36,-66 186.2,-66 201.01,-66"/>
<polygon fill="#63b8ff" stroke="#63b8ff" points="200.61,-69.5 210.6,-66 200.6,-62.5 200.61,-69.5"/>
</a>
</g>
</g>
<!-- Node8 -->
<g id="Node000008" class="node">
<title>Node8</title>
<g id="a_Node000008"><a xlink:href="class_g_l_e_s_c_1_1_transform_1_1_transformer.html#ac4648154cefca78120d8bab23006d885" target="_top" xlink:title="Transforms the normalized device coordinates to viewport coordinates.">
<polygon fill="white" stroke="#666666" points="345.5,-32 190.75,-32 190.75,0 345.5,0 345.5,-32"/>
<text text-anchor="start" x="198.75" y="-18.5" font-family="Helvetica,sans-Serif" font-size="10.00">GLESC::Transform::Transformer</text>
<text text-anchor="middle" x="268.12" y="-6.5" font-family="Helvetica,sans-Serif" font-size="10.00">::NDCToViewport</text>
</a>
</g>
</g>
<!-- Node1&#45;&gt;Node8 -->
<g id="edge7_Node000001_Node000008" class="edge">
<title>Node1&#45;&gt;Node8</title>
<g id="a_edge7_Node000001_Node000008"><a xlink:title=" ">
<path fill="none" stroke="#63b8ff" d="M140.44,-49.56C157.61,-45.01 176.41,-40.03 194.14,-35.33"/>
<polygon fill="#63b8ff" stroke="#63b8ff" points="194.79,-38.78 203.56,-32.84 193,-32.02 194.79,-38.78"/>
</a>
</g>
</g>
<!-- Node3 -->
<g id="Node000003" class="node">
<title>Node3</title>
<g id="a_Node000003"><a xlink:href="class_g_l_e_s_c_1_1_math_1_1_vector.html#a8913aa86e1b8a6453aacb419120a3857" target="_top" xlink:title="Dehomogenizes the vector.">
<polygon fill="white" stroke="#666666" points="516,-132 404.75,-132 404.75,-100 516,-100 516,-132"/>
<text text-anchor="start" x="412.75" y="-118.5" font-family="Helvetica,sans-Serif" font-size="10.00">GLESC::Math::Vector</text>
<text text-anchor="middle" x="460.38" y="-106.5" font-family="Helvetica,sans-Serif" font-size="10.00">::dehomogenize</text>
</a>
</g>
</g>
<!-- Node2&#45;&gt;Node3 -->
<g id="edge2_Node000002_Node000003" class="edge">
<title>Node2&#45;&gt;Node3</title>
<g id="a_edge2_Node000002_Node000003"><a xlink:title=" ">
<path fill="none" stroke="#63b8ff" d="M345.96,-116C361.57,-116 377.87,-116 393.08,-116"/>
<polygon fill="#63b8ff" stroke="#63b8ff" points="392.96,-119.5 402.96,-116 392.96,-112.5 392.96,-119.5"/>
</a>
</g>
</g>
<!-- Node4 -->
<g id="Node000004" class="node">
<title>Node4</title>
<g id="a_Node000004"><a xlink:href="class_g_l_e_s_c_1_1_math_1_1_vector_algorithms.html#af4cdeacecee1abea0c1c9e50e7765340" target="_top" xlink:title="Dehomogenizes a vector.">
<polygon fill="white" stroke="#666666" points="733,-132 575.25,-132 575.25,-100 733,-100 733,-132"/>
<text text-anchor="start" x="583.25" y="-118.5" font-family="Helvetica,sans-Serif" font-size="10.00">GLESC::Math::VectorAlgorithms</text>
<text text-anchor="middle" x="654.12" y="-106.5" font-family="Helvetica,sans-Serif" font-size="10.00">::dehomogenize</text>
</a>
</g>
</g>
<!-- Node3&#45;&gt;Node4 -->
<g id="edge3_Node000003_Node000004" class="edge">
<title>Node3&#45;&gt;Node4</title>
<g id="a_edge3_Node000003_Node000004"><a xlink:title=" ">
<path fill="none" stroke="#63b8ff" d="M516.32,-116C531.16,-116 547.61,-116 563.8,-116"/>
<polygon fill="#63b8ff" stroke="#63b8ff" points="563.44,-119.5 573.44,-116 563.44,-112.5 563.44,-119.5"/>
</a>
</g>
</g>
<!-- Node6 -->
<g id="Node000006" class="node">
<title>Node6</title>
<g id="a_Node000006"><a xlink:href="class_g_l_e_s_c_1_1_math_1_1_vector_algorithms.html#a0ac2336be4653468291125421bfb96ed" target="_top" xlink:title="Homozenizes a vector.">
<polygon fill="white" stroke="#666666" points="539.25,-82 381.5,-82 381.5,-50 539.25,-50 539.25,-82"/>
<text text-anchor="start" x="389.5" y="-68.5" font-family="Helvetica,sans-Serif" font-size="10.00">GLESC::Math::VectorAlgorithms</text>
<text text-anchor="middle" x="460.38" y="-56.5" font-family="Helvetica,sans-Serif" font-size="10.00">::homogenize</text>
</a>
</g>
</g>
<!-- Node5&#45;&gt;Node6 -->
<g id="edge5_Node000005_Node000006" class="edge">
<title>Node5&#45;&gt;Node6</title>
<g id="a_edge5_Node000005_Node000006"><a xlink:title=" ">
<path fill="none" stroke="#63b8ff" d="M324.15,-66C338.46,-66 354.25,-66 369.83,-66"/>
<polygon fill="#63b8ff" stroke="#63b8ff" points="369.61,-69.5 379.61,-66 369.61,-62.5 369.61,-69.5"/>
</a>
</g>
</g>
<!-- Node7 -->
<g id="Node000007" class="node">
<title>Node7</title>
<g id="a_Node000007"><a xlink:href="class_g_l_e_s_c_1_1_math_1_1_vector_algorithms.html#a93326a041053cabfc137c40f2f19b874" target="_top" xlink:title=" ">
<polygon fill="white" stroke="#666666" points="733,-82 575.25,-82 575.25,-50 733,-50 733,-82"/>
<text text-anchor="start" x="583.25" y="-68.5" font-family="Helvetica,sans-Serif" font-size="10.00">GLESC::Math::VectorAlgorithms</text>
<text text-anchor="middle" x="654.12" y="-56.5" font-family="Helvetica,sans-Serif" font-size="10.00">::vectorCopy</text>
</a>
</g>
</g>
<!-- Node6&#45;&gt;Node7 -->
<g id="edge6_Node000006_Node000007" class="edge">
<title>Node6&#45;&gt;Node7</title>
<g id="a_edge6_Node000006_Node000007"><a xlink:title=" ">
<path fill="none" stroke="#63b8ff" d="M539.64,-66C547.44,-66 555.39,-66 563.29,-66"/>
<polygon fill="#63b8ff" stroke="#63b8ff" points="563.28,-69.5 573.28,-66 563.28,-62.5 563.28,-69.5"/>
</a>
</g>
</g>
</g>
</svg>
