<?xml version="1.0" encoding="UTF-8" standalone="no"?>
<!DOCTYPE svg PUBLIC "-//W3C//DTD SVG 1.1//EN"
 "http://www.w3.org/Graphics/SVG/1.1/DTD/svg11.dtd">
<!-- Generated by graphviz version 11.0.0 (20240428.1522)
 -->
<!-- Title: GLESC::ECS::RenderSystem::update Pages: 1 -->
<svg width="926pt" height="371pt"
 viewBox="0.00 0.00 925.75 371.37" xmlns="http://www.w3.org/2000/svg" xmlns:xlink="http://www.w3.org/1999/xlink">
<g id="graph0" class="graph" transform="scale(1 1) rotate(0) translate(4 367.37)">
<title>GLESC::ECS::RenderSystem::update</title>
<!-- Node1 -->
<g id="Node000001" class="node">
<title>Node1</title>
<g id="a_Node000001"><a xlink:title="Updates the system.">
<polygon fill="#999999" stroke="#666666" points="145.75,-224 0,-224 0,-192 145.75,-192 145.75,-224"/>
<text text-anchor="start" x="8" y="-210.5" font-family="Helvetica,sans-Serif" font-size="10.00">GLESC::ECS::RenderSystem</text>
<text text-anchor="middle" x="72.88" y="-198.5" font-family="Helvetica,sans-Serif" font-size="10.00">::update</text>
</a>
</g>
</g>
<!-- Node2 -->
<g id="Node000002" class="node">
<title>Node2</title>
<g id="a_Node000002"><a xlink:href="class_g_l_e_s_c_1_1_render_1_1_renderer.html#a3f570b376aca16fe45ed093405e80134" target="_top" xlink:title="This empties all the data from the renderer. Nothing will be rendered.">
<polygon fill="white" stroke="#666666" points="329,-324 198.25,-324 198.25,-292 329,-292 329,-324"/>
<text text-anchor="start" x="206.25" y="-310.5" font-family="Helvetica,sans-Serif" font-size="10.00">GLESC::Render::Renderer</text>
<text text-anchor="middle" x="263.62" y="-298.5" font-family="Helvetica,sans-Serif" font-size="10.00">::clearMeshData</text>
</a>
</g>
</g>
<!-- Node1&#45;&gt;Node2 -->
<g id="edge1_Node000001_Node000002" class="edge">
<title>Node1&#45;&gt;Node2</title>
<g id="a_edge1_Node000001_Node000002"><a xlink:title=" ">
<path fill="none" stroke="#63b8ff" d="M93.39,-224.36C114.16,-241.07 148.54,-266.81 181.75,-283 184.99,-284.58 188.34,-286.08 191.77,-287.51"/>
<polygon fill="#63b8ff" stroke="#63b8ff" points="190.2,-290.66 200.79,-291.04 192.75,-284.14 190.2,-290.66"/>
</a>
</g>
</g>
<!-- Node3 -->
<g id="Node000003" class="node">
<title>Node3</title>
<g id="a_Node000003"><a xlink:href="class_g_l_e_s_c_1_1_e_c_s_1_1_system.html#a9b4f36ba29354a976dc23a598ec85952" target="_top" xlink:title="Gets the entities associated with the system.">
<polygon fill="white" stroke="#666666" points="322.25,-274 205,-274 205,-242 322.25,-242 322.25,-274"/>
<text text-anchor="start" x="213" y="-260.5" font-family="Helvetica,sans-Serif" font-size="10.00">GLESC::ECS::System</text>
<text text-anchor="middle" x="263.62" y="-248.5" font-family="Helvetica,sans-Serif" font-size="10.00">::getAssociatedEntities</text>
</a>
</g>
</g>
<!-- Node1&#45;&gt;Node3 -->
<g id="edge2_Node000001_Node000003" class="edge">
<title>Node1&#45;&gt;Node3</title>
<g id="a_edge2_Node000001_Node000003"><a xlink:title=" ">
<path fill="none" stroke="#63b8ff" d="M135.94,-224.44C154.44,-229.34 174.83,-234.74 193.74,-239.75"/>
<polygon fill="#63b8ff" stroke="#63b8ff" points="192.65,-243.09 203.22,-242.26 194.45,-236.32 192.65,-243.09"/>
</a>
</g>
</g>
<!-- Node9 -->
<g id="Node000009" class="node">
<title>Node9</title>
<g id="a_Node000009"><a xlink:href="class_g_l_e_s_c_1_1_e_c_s_1_1_system.html#adbd8144d4b95771844546e2391cd49ad" target="_top" xlink:title="Gets the name of an entity.">
<polygon fill="white" stroke="#666666" points="321.12,-224 206.12,-224 206.12,-192 321.12,-192 321.12,-224"/>
<text text-anchor="start" x="214.12" y="-210.5" font-family="Helvetica,sans-Serif" font-size="10.00">GLESC::ECS::System</text>
<text text-anchor="middle" x="263.62" y="-198.5" font-family="Helvetica,sans-Serif" font-size="10.00">::getEntityName</text>
</a>
</g>
</g>
<!-- Node1&#45;&gt;Node9 -->
<g id="edge9_Node000001_Node000009" class="edge">
<title>Node1&#45;&gt;Node9</title>
<g id="a_edge9_Node000001_Node000009"><a xlink:title=" ">
<path fill="none" stroke="#63b8ff" d="M146.04,-208C161.95,-208 178.76,-208 194.5,-208"/>
<polygon fill="#63b8ff" stroke="#63b8ff" points="194.24,-211.5 204.24,-208 194.24,-204.5 194.24,-211.5"/>
</a>
</g>
</g>
<!-- Node12 -->
<g id="Node000012" class="node">
<title>Node12</title>
<g id="a_Node000012"><a xlink:href="class_g_l_e_s_c_1_1_render_1_1_renderer.html#a23d2e380d523e7de98bc73c91881d306" target="_top" xlink:title=" ">
<polygon fill="white" stroke="#666666" points="345.5,-174 181.75,-174 181.75,-142 345.5,-142 345.5,-174"/>
<text text-anchor="start" x="189.75" y="-160.5" font-family="Helvetica,sans-Serif" font-size="10.00">GLESC::Render::Renderer</text>
<text text-anchor="middle" x="263.62" y="-148.5" font-family="Helvetica,sans-Serif" font-size="10.00">::hasRenderBeenCalledThisFrame</text>
</a>
</g>
</g>
<!-- Node1&#45;&gt;Node12 -->
<g id="edge13_Node000001_Node000012" class="edge">
<title>Node1&#45;&gt;Node12</title>
<g id="a_edge13_Node000001_Node000012"><a xlink:title=" ">
<path fill="none" stroke="#63b8ff" d="M135.94,-191.56C153.11,-187.01 171.91,-182.03 189.64,-177.33"/>
<polygon fill="#63b8ff" stroke="#63b8ff" points="190.29,-180.78 199.06,-174.84 188.5,-174.02 190.29,-180.78"/>
</a>
</g>
</g>
<!-- Node13 -->
<g id="Node000013" class="node">
<title>Node13</title>
<g id="a_Node000013"><a xlink:href="class_g_l_e_s_c_1_1_render_1_1_renderer.html#a91180f2e65fa787ef13cfd9dde7b749c" target="_top" xlink:title="This sends the mesh data to the renderer so it can be rendered.">
<polygon fill="white" stroke="#666666" points="329,-124 198.25,-124 198.25,-92 329,-92 329,-124"/>
<text text-anchor="start" x="206.25" y="-110.5" font-family="Helvetica,sans-Serif" font-size="10.00">GLESC::Render::Renderer</text>
<text text-anchor="middle" x="263.62" y="-98.5" font-family="Helvetica,sans-Serif" font-size="10.00">::sendMeshData</text>
</a>
</g>
</g>
<!-- Node1&#45;&gt;Node13 -->
<g id="edge14_Node000001_Node000013" class="edge">
<title>Node1&#45;&gt;Node13</title>
<g id="a_edge14_Node000001_Node000013"><a xlink:title=" ">
<path fill="none" stroke="#63b8ff" d="M93.39,-191.64C114.16,-174.93 148.54,-149.19 181.75,-133 184.99,-131.42 188.34,-129.92 191.77,-128.49"/>
<polygon fill="#63b8ff" stroke="#63b8ff" points="192.75,-131.86 200.79,-124.96 190.2,-125.34 192.75,-131.86"/>
</a>
</g>
</g>
<!-- Node4 -->
<g id="Node000004" class="node">
<title>Node4</title>
<g id="a_Node000004"><a xlink:href="class_g_l_e_s_c_1_1_e_c_s_1_1_e_c_s_coordinator.html#a73636f46c1a9f0bd7f380524210cf4b4" target="_top" xlink:title="Get the entities associated with a system.">
<polygon fill="white" stroke="#666666" points="532.5,-293 381.5,-293 381.5,-261 532.5,-261 532.5,-293"/>
<text text-anchor="start" x="389.5" y="-279.5" font-family="Helvetica,sans-Serif" font-size="10.00">GLESC::ECS::ECSCoordinator</text>
<text text-anchor="middle" x="457" y="-267.5" font-family="Helvetica,sans-Serif" font-size="10.00">::getAssociatedEntities</text>
</a>
</g>
</g>
<!-- Node3&#45;&gt;Node4 -->
<g id="edge3_Node000003_Node000004" class="edge">
<title>Node3&#45;&gt;Node4</title>
<g id="a_edge3_Node000003_Node000004"><a xlink:title=" ">
<path fill="none" stroke="#63b8ff" d="M322.56,-263.75C337.58,-265.24 354.07,-266.88 370.19,-268.48"/>
<polygon fill="#63b8ff" stroke="#63b8ff" points="369.46,-271.93 379.76,-269.43 370.15,-264.96 369.46,-271.93"/>
</a>
</g>
</g>
<!-- Node5 -->
<g id="Node000005" class="node">
<title>Node5</title>
<g id="a_Node000005"><a xlink:href="class_g_l_e_s_c_1_1_e_c_s_1_1_entity_manager.html#a5145504091eb26170aa219acb60aca71" target="_top" xlink:title="Check if the entity with the given name exists.">
<polygon fill="white" stroke="#666666" points="913.62,-224 769.38,-224 769.38,-192 913.62,-192 913.62,-224"/>
<text text-anchor="start" x="777.38" y="-210.5" font-family="Helvetica,sans-Serif" font-size="10.00">GLESC::ECS::EntityManager</text>
<text text-anchor="middle" x="841.5" y="-198.5" font-family="Helvetica,sans-Serif" font-size="10.00">::doesEntityExist</text>
</a>
</g>
</g>
<!-- Node4&#45;&gt;Node5 -->
<g id="edge4_Node000004_Node000005" class="edge">
<title>Node4&#45;&gt;Node5</title>
<g id="a_edge4_Node000004_Node000005"><a xlink:title=" ">
<path fill="none" stroke="#63b8ff" d="M527.71,-260.54C541.21,-257.55 555.27,-254.56 568.5,-252 631.74,-239.74 703.72,-228.2 757.74,-220.02"/>
<polygon fill="#63b8ff" stroke="#63b8ff" points="758.12,-223.5 767.49,-218.55 757.08,-216.58 758.12,-223.5"/>
</a>
</g>
</g>
<!-- Node6 -->
<g id="Node000006" class="node">
<title>Node6</title>
<g id="a_Node000006"><a xlink:href="class_g_l_e_s_c_1_1_e_c_s_1_1_system_manager.html#a283c04f81e82970a822c9696ddab2319" target="_top" xlink:title="Gets the entities associated with a system. The system must be registered.">
<polygon fill="white" stroke="#666666" points="729.25,-293 568.5,-293 568.5,-261 729.25,-261 729.25,-293"/>
<text text-anchor="start" x="576.5" y="-279.5" font-family="Helvetica,sans-Serif" font-size="10.00">GLESC::ECS::SystemManager</text>
<text text-anchor="middle" x="648.88" y="-267.5" font-family="Helvetica,sans-Serif" font-size="10.00">::getAssociatedEntitiesOfSystem</text>
</a>
</g>
</g>
<!-- Node4&#45;&gt;Node6 -->
<g id="edge5_Node000004_Node000006" class="edge">
<title>Node4&#45;&gt;Node6</title>
<g id="a_edge5_Node000004_Node000006"><a xlink:title=" ">
<path fill="none" stroke="#63b8ff" d="M532.77,-277C540.67,-277 548.77,-277 556.82,-277"/>
<polygon fill="#63b8ff" stroke="#63b8ff" points="556.65,-280.5 566.65,-277 556.65,-273.5 556.65,-280.5"/>
</a>
</g>
</g>
<!-- Node7 -->
<g id="Node000007" class="node">
<title>Node7</title>
<g id="a_Node000007"><a xlink:href="class_g_l_e_s_c_1_1_e_c_s_1_1_system_manager.html#a32f415d7a7e0cefc9e1b5c71a4dc1be4" target="_top" xlink:title="Checks if a system is registered.">
<polygon fill="white" stroke="#666666" points="917.75,-340 765.25,-340 765.25,-308 917.75,-308 917.75,-340"/>
<text text-anchor="start" x="773.25" y="-326.5" font-family="Helvetica,sans-Serif" font-size="10.00">GLESC::ECS::SystemManager</text>
<text text-anchor="middle" x="841.5" y="-314.5" font-family="Helvetica,sans-Serif" font-size="10.00">::isSystemRegistered</text>
</a>
</g>
</g>
<!-- Node4&#45;&gt;Node7 -->
<g id="edge8_Node000004_Node000007" class="edge">
<title>Node4&#45;&gt;Node7</title>
<g id="a_edge8_Node000004_Node000007"><a xlink:title=" ">
<path fill="none" stroke="#63b8ff" d="M475,-293.44C495.31,-311.83 531.27,-340.56 568.5,-352 639.33,-373.77 724.91,-358.58 780.92,-343.41"/>
<polygon fill="#63b8ff" stroke="#63b8ff" points="781.57,-346.86 790.26,-340.8 779.68,-340.12 781.57,-346.86"/>
</a>
</g>
</g>
<!-- Node8 -->
<g id="Node000008" class="node">
<title>Node8</title>
<g id="a_Node000008"><a xlink:href="class_g_l_e_s_c_1_1_e_c_s_1_1_system_manager.html#abe8641c2514be36e652e7f77d0ed87a5" target="_top" xlink:title="Checks if an entity is associated with a system.">
<polygon fill="white" stroke="#666666" points="727.75,-343 570,-343 570,-311 727.75,-311 727.75,-343"/>
<text text-anchor="start" x="578" y="-329.5" font-family="Helvetica,sans-Serif" font-size="10.00">GLESC::ECS::SystemManager</text>
<text text-anchor="middle" x="648.88" y="-317.5" font-family="Helvetica,sans-Serif" font-size="10.00">::isEntityAssociatedWithSystem</text>
</a>
</g>
</g>
<!-- Node4&#45;&gt;Node8 -->
<g id="edge7_Node000004_Node000008" class="edge">
<title>Node4&#45;&gt;Node8</title>
<g id="a_edge7_Node000004_Node000008"><a xlink:title=" ">
<path fill="none" stroke="#63b8ff" d="M520.44,-293.44C537.71,-297.99 556.62,-302.97 574.46,-307.67"/>
<polygon fill="#63b8ff" stroke="#63b8ff" points="573.38,-311 583.94,-310.16 575.16,-304.23 573.38,-311"/>
</a>
</g>
</g>
<!-- Node6&#45;&gt;Node7 -->
<g id="edge6_Node000006_Node000007" class="edge">
<title>Node6&#45;&gt;Node7</title>
<g id="a_edge6_Node000006_Node000007"><a xlink:title=" ">
<path fill="none" stroke="#63b8ff" d="M716.55,-293.44C731.49,-297.12 747.47,-301.06 762.82,-304.85"/>
<polygon fill="#63b8ff" stroke="#63b8ff" points="761.85,-308.21 772.4,-307.21 763.53,-301.42 761.85,-308.21"/>
</a>
</g>
</g>
<!-- Node10 -->
<g id="Node000010" class="node">
<title>Node10</title>
<g id="a_Node000010"><a xlink:href="class_g_l_e_s_c_1_1_e_c_s_1_1_e_c_s_coordinator.html#a2c49b6ec20626dd4f84c939ec3750812" target="_top" xlink:title="Get the name of the entity given the ID.">
<polygon fill="white" stroke="#666666" points="532.5,-223 381.5,-223 381.5,-191 532.5,-191 532.5,-223"/>
<text text-anchor="start" x="389.5" y="-209.5" font-family="Helvetica,sans-Serif" font-size="10.00">GLESC::ECS::ECSCoordinator</text>
<text text-anchor="middle" x="457" y="-197.5" font-family="Helvetica,sans-Serif" font-size="10.00">::getEntityName</text>
</a>
</g>
</g>
<!-- Node9&#45;&gt;Node10 -->
<g id="edge10_Node000009_Node000010" class="edge">
<title>Node9&#45;&gt;Node10</title>
<g id="a_edge10_Node000009_Node000010"><a xlink:title=" ">
<path fill="none" stroke="#63b8ff" d="M321.53,-207.7C336.74,-207.62 353.54,-207.54 369.95,-207.45"/>
<polygon fill="#63b8ff" stroke="#63b8ff" points="369.73,-210.95 379.71,-207.4 369.7,-203.95 369.73,-210.95"/>
</a>
</g>
</g>
<!-- Node11 -->
<g id="Node000011" class="node">
<title>Node11</title>
<g id="a_Node000011"><a xlink:href="class_g_l_e_s_c_1_1_e_c_s_1_1_entity_manager.html#ad75636a479815b1d3e5b1b26d2a1245c" target="_top" xlink:title="Get the entity name from the entity ID. The entity must exist.">
<polygon fill="white" stroke="#666666" points="721,-205 576.75,-205 576.75,-173 721,-173 721,-205"/>
<text text-anchor="start" x="584.75" y="-191.5" font-family="Helvetica,sans-Serif" font-size="10.00">GLESC::ECS::EntityManager</text>
<text text-anchor="middle" x="648.88" y="-179.5" font-family="Helvetica,sans-Serif" font-size="10.00">::getEntityName</text>
</a>
</g>
</g>
<!-- Node10&#45;&gt;Node11 -->
<g id="edge11_Node000010_Node000011" class="edge">
<title>Node10&#45;&gt;Node11</title>
<g id="a_edge11_Node000010_Node000011"><a xlink:title=" ">
<path fill="none" stroke="#63b8ff" d="M532.77,-199.91C543.29,-198.91 554.15,-197.88 564.81,-196.87"/>
<polygon fill="#63b8ff" stroke="#63b8ff" points="565.14,-200.36 574.77,-195.93 564.48,-193.39 565.14,-200.36"/>
</a>
</g>
</g>
<!-- Node11&#45;&gt;Node5 -->
<g id="edge12_Node000011_Node000005" class="edge">
<title>Node11&#45;&gt;Node5</title>
<g id="a_edge12_Node000011_Node000005"><a xlink:title=" ">
<path fill="none" stroke="#63b8ff" d="M721.4,-196.13C733.17,-197.3 745.45,-198.53 757.47,-199.72"/>
<polygon fill="#63b8ff" stroke="#63b8ff" points="757.09,-203.2 767.39,-200.71 757.78,-196.24 757.09,-203.2"/>
</a>
</g>
</g>
<!-- Node14 -->
<g id="Node000014" class="node">
<title>Node14</title>
<g id="a_Node000014"><a xlink:href="class_g_l_e_s_c_1_1_render_1_1_mesh.html#a6e11ed4a4df7573e35af2eb1841501f3" target="_top" xlink:title=" ">
<polygon fill="white" stroke="#666666" points="514.88,-82 399.12,-82 399.12,-50 514.88,-50 514.88,-82"/>
<text text-anchor="start" x="407.12" y="-68.5" font-family="Helvetica,sans-Serif" font-size="10.00">GLESC::Render::Mesh</text>
<text text-anchor="middle" x="457" y="-56.5" font-family="Helvetica,sans-Serif" font-size="10.00">::getRenderType</text>
</a>
</g>
</g>
<!-- Node13&#45;&gt;Node14 -->
<g id="edge15_Node000013_Node000014" class="edge">
<title>Node13&#45;&gt;Node14</title>
<g id="a_edge15_Node000013_Node000014"><a xlink:title=" ">
<path fill="none" stroke="#63b8ff" d="M329.42,-93.78C348.09,-89.68 368.53,-85.2 387.42,-81.05"/>
<polygon fill="#63b8ff" stroke="#63b8ff" points="388.16,-84.47 397.18,-78.91 386.66,-77.63 388.16,-84.47"/>
</a>
</g>
</g>
<!-- Node15 -->
<g id="Node000015" class="node">
<title>Node15</title>
<g id="a_Node000015"><a xlink:href="class_g_l_e_s_c_1_1_render_1_1_mesh.html#a863d2c05d8b7b9d10fe946ca1c5f1c21" target="_top" xlink:title=" ">
<polygon fill="white" stroke="#666666" points="514.88,-32 399.12,-32 399.12,0 514.88,0 514.88,-32"/>
<text text-anchor="start" x="407.12" y="-18.5" font-family="Helvetica,sans-Serif" font-size="10.00">GLESC::Render::Mesh</text>
<text text-anchor="middle" x="457" y="-6.5" font-family="Helvetica,sans-Serif" font-size="10.00">::getVertices</text>
</a>
</g>
</g>
<!-- Node13&#45;&gt;Node15 -->
<g id="edge16_Node000013_Node000015" class="edge">
<title>Node13&#45;&gt;Node15</title>
<g id="a_edge16_Node000013_Node000015"><a xlink:title=" ">
<path fill="none" stroke="#63b8ff" d="M289.85,-91.59C313.02,-77.01 348.64,-55.76 381.5,-41 384.86,-39.49 388.34,-38.02 391.88,-36.6"/>
<polygon fill="#63b8ff" stroke="#63b8ff" points="393.1,-39.88 401.19,-33.04 390.6,-33.34 393.1,-39.88"/>
</a>
</g>
</g>
<!-- Node16 -->
<g id="Node000016" class="node">
<title>Node16</title>
<g id="a_Node000016"><a xlink:href="class_g_l_e_s_c_1_1_render_1_1_mesh.html#a9ddd143cc0aea52acf7649b1dc7f1d07" target="_top" xlink:title=" ">
<polygon fill="white" stroke="#666666" points="514.88,-170 399.12,-170 399.12,-138 514.88,-138 514.88,-170"/>
<text text-anchor="start" x="407.12" y="-156.5" font-family="Helvetica,sans-Serif" font-size="10.00">GLESC::Render::Mesh</text>
<text text-anchor="middle" x="457" y="-144.5" font-family="Helvetica,sans-Serif" font-size="10.00">::isBeingBuilt</text>
</a>
</g>
</g>
<!-- Node13&#45;&gt;Node16 -->
<g id="edge17_Node000013_Node000016" class="edge">
<title>Node13&#45;&gt;Node16</title>
<g id="a_edge17_Node000013_Node000016"><a xlink:title=" ">
<path fill="none" stroke="#63b8ff" d="M329.42,-123.57C348.18,-128.08 368.72,-133.02 387.69,-137.58"/>
<polygon fill="#63b8ff" stroke="#63b8ff" points="386.64,-140.93 397.18,-139.86 388.28,-134.12 386.64,-140.93"/>
</a>
</g>
</g>
<!-- Node17 -->
<g id="Node000017" class="node">
<title>Node17</title>
<g id="a_Node000017"><a xlink:href="class_g_l_e_s_c_1_1_console.html#a7ed2e6be9021ff98197fe923266d007f" target="_top" xlink:title=" ">
<polygon fill="white" stroke="#666666" points="515.25,-120 398.75,-120 398.75,-100 515.25,-100 515.25,-120"/>
<text text-anchor="middle" x="457" y="-106.5" font-family="Helvetica,sans-Serif" font-size="10.00">GLESC::Console::warn</text>
</a>
</g>
</g>
<!-- Node13&#45;&gt;Node17 -->
<g id="edge18_Node000013_Node000017" class="edge">
<title>Node13&#45;&gt;Node17</title>
<g id="a_edge18_Node000013_Node000017"><a xlink:title=" ">
<path fill="none" stroke="#63b8ff" d="M329.42,-108.68C347.91,-108.87 368.14,-109.08 386.89,-109.28"/>
<polygon fill="#63b8ff" stroke="#63b8ff" points="386.79,-112.78 396.82,-109.38 386.86,-105.78 386.79,-112.78"/>
</a>
</g>
</g>
<!-- Node18 -->
<g id="Node000018" class="node">
<title>Node18</title>
<g id="a_Node000018"><a xlink:href="class_g_l_e_s_c_1_1_console.html#ad13451bc6828bdceeafdb89a56d66c44" target="_top" xlink:title=" ">
<polygon fill="white" stroke="#666666" points="724.75,-120 573,-120 573,-100 724.75,-100 724.75,-120"/>
<text text-anchor="middle" x="648.88" y="-106.5" font-family="Helvetica,sans-Serif" font-size="10.00">GLESC::Console::addMessage</text>
</a>
</g>
</g>
<!-- Node17&#45;&gt;Node18 -->
<g id="edge19_Node000017_Node000018" class="edge">
<title>Node17&#45;&gt;Node18</title>
<g id="a_edge19_Node000017_Node000018"><a xlink:title=" ">
<path fill="none" stroke="#63b8ff" d="M515.74,-110C530.14,-110 545.9,-110 561.35,-110"/>
<polygon fill="#63b8ff" stroke="#63b8ff" points="561.01,-113.5 571.01,-110 561.01,-106.5 561.01,-113.5"/>
</a>
</g>
</g>
</g>
</svg>
