<?xml version="1.0" encoding="UTF-8" standalone="no"?>
<!DOCTYPE svg PUBLIC "-//W3C//DTD SVG 1.1//EN"
 "http://www.w3.org/Graphics/SVG/1.1/DTD/svg11.dtd">
<!-- Generated by graphviz version 11.0.0 (20240428.1522)
 -->
<!-- Title: GLESC::Render::Renderer::start Pages: 1 -->
<!--zoomable 614 -->

<svg id="main" version="1.1" xmlns="http://www.w3.org/2000/svg" xmlns:xlink="http://www.w3.org/1999/xlink" xml:space="preserve" onload="init(evt)">
<style type="text/css"><![CDATA[
.node, .edge {opacity: 0.7;}
.node.selected, .edge.selected {opacity: 1;}
.edge:hover path { stroke: red; }
.edge:hover polygon { stroke: red; fill: red; }
]]></style>

<defs>
  <circle id="rim" cx="0" cy="0" r="7"/>
  <circle id="rim2" cx="0" cy="0" r="3.5"/>
  <g id="zoomPlus">
    <use xlink:href="#rim" fill="#404040"><set attributeName="fill" to="#808080" begin="zoomplus.mouseover" end="zoomplus.mouseout"/></use>
    <path d="M-4,0h8M0,-4v8" fill="none" stroke="white" stroke-width="1.5" pointer-events="none"/>
  </g>
  <g id="zoomMin">
    <use xlink:href="#rim" fill="#404040"><set attributeName="fill" to="#808080" begin="zoomminus.mouseover" end="zoomminus.mouseout"/></use>
    <path d="M-4,0h8" fill="none" stroke="white" stroke-width="1.5" pointer-events="none"/>
  </g>
  <g id="arrowUp" transform="translate(30 24)">
    <use xlink:href="#rim"/>
    <path pointer-events="none" fill="none" stroke="white" stroke-width="1.5" d="M0,-3.0v7 M-2.5,-0.5L0,-3.0L2.5,-0.5"/>
  </g>
  <g id="arrowRight" transform="rotate(90) translate(36 -43)">
    <use xlink:href="#rim"/>
    <path pointer-events="none" fill="none" stroke="white" stroke-width="1.5" d="M0,-3.0v7 M-2.5,-0.5L0,-3.0L2.5,-0.5"/>
  </g>
  <g id="arrowDown" transform="rotate(180) translate(-30 -48)">
    <use xlink:href="#rim"/>
    <path pointer-events="none" fill="none" stroke="white" stroke-width="1.5" d="M0,-3.0v7 M-2.5,-0.5L0,-3.0L2.5,-0.5"/>
  </g>
  <g id="arrowLeft" transform="rotate(270) translate(-36 17)">
    <use xlink:href="#rim"/>
    <path pointer-events="none" fill="none" stroke="white" stroke-width="1.5" d="M0,-3.0v7 M-2.5,-0.5L0,-3.0L2.5,-0.5"/>
  </g>
  <g id="resetDef">
    <use xlink:href="#rim2" fill="#404040"><set attributeName="fill" to="#808080" begin="reset.mouseover" end="reset.mouseout"/></use>
  </g>
</defs>
<script type="application/ecmascript">
var viewWidth = 1317;
var viewHeight = 614;
var sectionId = 'dynsection-45';
</script>
<script type="application/ecmascript" xlink:href="svg.min.js"/>
<svg id="graph" class="graph">
<g id="viewport">
<title>GLESC::Render::Renderer::start</title>
<!-- Node1 -->
<g id="Node000001" class="node">
<title>Node1</title>
<g id="a_Node000001"><a xlink:title="This starts the frame of rendering.">
<polygon fill="#999999" stroke="#666666" points="130.75,-393 0,-393 0,-361 130.75,-361 130.75,-393"/>
<text text-anchor="start" x="8" y="-379.5" font-family="Helvetica,sans-Serif" font-size="10.00">GLESC::Render::Renderer</text>
<text text-anchor="middle" x="65.38" y="-367.5" font-family="Helvetica,sans-Serif" font-size="10.00">::start</text>
</a>
</g>
</g>
<!-- Node2 -->
<g id="Node000002" class="node">
<title>Node2</title>
<g id="a_Node000002"><a xlink:href="class_g_l_e_s_c_1_1_render_1_1_camera_perspective.html#adedcf6d9099c9d30f01d7b34558c41c4" target="_top" xlink:title=" ">
<polygon fill="white" stroke="#666666" points="342.5,-606 166.75,-606 166.75,-574 342.5,-574 342.5,-606"/>
<text text-anchor="start" x="174.75" y="-592.5" font-family="Helvetica,sans-Serif" font-size="10.00">GLESC::Render::CameraPerspective</text>
<text text-anchor="middle" x="254.62" y="-580.5" font-family="Helvetica,sans-Serif" font-size="10.00">::getFarPlane</text>
</a>
</g>
</g>
<!-- Node1&#45;&gt;Node2 -->
<g id="edge1_Node000001_Node000002" class="edge">
<title>Node1&#45;&gt;Node2</title>
<g id="a_edge1_Node000001_Node000002"><a xlink:title=" ">
<path fill="none" stroke="#63b8ff" d="M70.42,-393.37C80.32,-429.89 109.22,-518.45 166.75,-565 167.88,-565.92 169.05,-566.8 170.24,-567.65"/>
<polygon fill="#63b8ff" stroke="#63b8ff" points="168.23,-570.52 178.58,-572.76 171.89,-564.55 168.23,-570.52"/>
</a>
</g>
</g>
<!-- Node3 -->
<g id="Node000003" class="node">
<title>Node3</title>
<g id="a_Node000003"><a xlink:href="class_g_l_e_s_c_1_1_render_1_1_camera_perspective.html#a172737214536a135b9593d565e67d184" target="_top" xlink:title=" ">
<polygon fill="white" stroke="#666666" points="342.5,-556 166.75,-556 166.75,-524 342.5,-524 342.5,-556"/>
<text text-anchor="start" x="174.75" y="-542.5" font-family="Helvetica,sans-Serif" font-size="10.00">GLESC::Render::CameraPerspective</text>
<text text-anchor="middle" x="254.62" y="-530.5" font-family="Helvetica,sans-Serif" font-size="10.00">::getFovDegrees</text>
</a>
</g>
</g>
<!-- Node1&#45;&gt;Node3 -->
<g id="edge2_Node000001_Node000003" class="edge">
<title>Node1&#45;&gt;Node3</title>
<g id="a_edge2_Node000001_Node000003"><a xlink:title=" ">
<path fill="none" stroke="#63b8ff" d="M73.76,-393.35C87.69,-422.33 120.65,-482.7 166.75,-515 168.34,-516.11 169.98,-517.18 171.66,-518.2"/>
<polygon fill="#63b8ff" stroke="#63b8ff" points="169.87,-521.21 180.34,-522.82 173.15,-515.03 169.87,-521.21"/>
</a>
</g>
</g>
<!-- Node4 -->
<g id="Node000004" class="node">
<title>Node4</title>
<g id="a_Node000004"><a xlink:href="_gapi_8h.html#ab7514d88e65656ffa15ca33256518fe5" target="_top" xlink:title="Returns the graphic API used by the engine.">
<polygon fill="white" stroke="#666666" points="281,-506 228.25,-506 228.25,-486 281,-486 281,-506"/>
<text text-anchor="middle" x="254.62" y="-492.5" font-family="Helvetica,sans-Serif" font-size="10.00">getGAPI</text>
</a>
</g>
</g>
<!-- Node1&#45;&gt;Node4 -->
<g id="edge3_Node000001_Node000004" class="edge">
<title>Node1&#45;&gt;Node4</title>
<g id="a_edge3_Node000001_Node000004"><a xlink:title=" ">
<path fill="none" stroke="#63b8ff" d="M77.95,-393.35C94.8,-415.88 128.31,-456.03 166.75,-477 182.02,-485.33 200.67,-490.01 216.78,-492.63"/>
<polygon fill="#63b8ff" stroke="#63b8ff" points="216.08,-496.07 226.47,-494 217.05,-489.14 216.08,-496.07"/>
</a>
</g>
</g>
<!-- Node5 -->
<g id="Node000005" class="node">
<title>Node5</title>
<g id="a_Node000005"><a xlink:href="class_g_l_e_s_c_1_1_render_1_1_camera_perspective.html#ab80a59b98d29b63042ab46ed84c23e53" target="_top" xlink:title=" ">
<polygon fill="white" stroke="#666666" points="342.5,-468 166.75,-468 166.75,-436 342.5,-436 342.5,-468"/>
<text text-anchor="start" x="174.75" y="-454.5" font-family="Helvetica,sans-Serif" font-size="10.00">GLESC::Render::CameraPerspective</text>
<text text-anchor="middle" x="254.62" y="-442.5" font-family="Helvetica,sans-Serif" font-size="10.00">::getNearPlane</text>
</a>
</g>
</g>
<!-- Node1&#45;&gt;Node5 -->
<g id="edge4_Node000001_Node000005" class="edge">
<title>Node1&#45;&gt;Node5</title>
<g id="a_edge4_Node000001_Node000005"><a xlink:title=" ">
<path fill="none" stroke="#63b8ff" d="M95.6,-393.33C115.29,-403.89 142.08,-417.4 166.75,-427 171.32,-428.78 176.06,-430.49 180.87,-432.14"/>
<polygon fill="#63b8ff" stroke="#63b8ff" points="179.44,-435.35 190.03,-435.14 181.62,-428.7 179.44,-435.35"/>
</a>
</g>
</g>
<!-- Node6 -->
<g id="Node000006" class="node">
<title>Node6</title>
<g id="a_Node000006"><a xlink:href="class_g_l_e_s_c_1_1_render_1_1_camera_perspective.html#a20b18041f1508284444aba580f2b6d28" target="_top" xlink:title=" ">
<polygon fill="white" stroke="#666666" points="342.5,-418 166.75,-418 166.75,-386 342.5,-386 342.5,-418"/>
<text text-anchor="start" x="174.75" y="-404.5" font-family="Helvetica,sans-Serif" font-size="10.00">GLESC::Render::CameraPerspective</text>
<text text-anchor="middle" x="254.62" y="-392.5" font-family="Helvetica,sans-Serif" font-size="10.00">::getViewHeight</text>
</a>
</g>
</g>
<!-- Node1&#45;&gt;Node6 -->
<g id="edge5_Node000001_Node000006" class="edge">
<title>Node1&#45;&gt;Node6</title>
<g id="a_edge5_Node000001_Node000006"><a xlink:title=" ">
<path fill="none" stroke="#63b8ff" d="M131.08,-385.64C138.93,-386.69 147.08,-387.77 155.27,-388.87"/>
<polygon fill="#63b8ff" stroke="#63b8ff" points="154.59,-392.31 164.96,-390.16 155.51,-385.37 154.59,-392.31"/>
</a>
</g>
</g>
<!-- Node7 -->
<g id="Node000007" class="node">
<title>Node7</title>
<g id="a_Node000007"><a xlink:href="class_g_l_e_s_c_1_1_render_1_1_camera_perspective.html#a9fdb327a964db68846b9e6ad9ce4c4ad" target="_top" xlink:title=" ">
<polygon fill="white" stroke="#666666" points="342.5,-368 166.75,-368 166.75,-336 342.5,-336 342.5,-368"/>
<text text-anchor="start" x="174.75" y="-354.5" font-family="Helvetica,sans-Serif" font-size="10.00">GLESC::Render::CameraPerspective</text>
<text text-anchor="middle" x="254.62" y="-342.5" font-family="Helvetica,sans-Serif" font-size="10.00">::getViewWidth</text>
</a>
</g>
</g>
<!-- Node1&#45;&gt;Node7 -->
<g id="edge6_Node000001_Node000007" class="edge">
<title>Node1&#45;&gt;Node7</title>
<g id="a_edge6_Node000001_Node000007"><a xlink:title=" ">
<path fill="none" stroke="#63b8ff" d="M131.08,-368.36C138.93,-367.31 147.08,-366.23 155.27,-365.13"/>
<polygon fill="#63b8ff" stroke="#63b8ff" points="155.51,-368.63 164.96,-363.84 154.59,-361.69 155.51,-368.63"/>
</a>
</g>
</g>
<!-- Node8 -->
<g id="Node000008" class="node">
<title>Node8</title>
<g id="a_Node000008"><a xlink:href="class_g_l_e_s_c_1_1_math_1_1_matrix.html#ab2583de6ae9c51915c51e0900e55caad" target="_top" xlink:title="Creates a projection matrix from the given fov, aspect ratio, near and far planes.">
<polygon fill="white" stroke="#666666" points="312.88,-318 196.38,-318 196.38,-286 312.88,-286 312.88,-318"/>
<text text-anchor="start" x="204.38" y="-304.5" font-family="Helvetica,sans-Serif" font-size="10.00">GLESC::Math::Matrix</text>
<text text-anchor="middle" x="254.62" y="-292.5" font-family="Helvetica,sans-Serif" font-size="10.00">::makeProjectionMatrix</text>
</a>
</g>
</g>
<!-- Node1&#45;&gt;Node8 -->
<g id="edge7_Node000001_Node000008" class="edge">
<title>Node1&#45;&gt;Node8</title>
<g id="a_edge7_Node000001_Node000008"><a xlink:title=" ">
<path fill="none" stroke="#63b8ff" d="M95.6,-360.67C115.29,-350.11 142.08,-336.6 166.75,-327 172.75,-324.67 179.05,-322.44 185.41,-320.34"/>
<polygon fill="#63b8ff" stroke="#63b8ff" points="186.2,-323.76 194.68,-317.4 184.09,-317.09 186.2,-323.76"/>
</a>
</g>
</g>
<!-- Node11 -->
<g id="Node000011" class="node">
<title>Node11</title>
<g id="a_Node000011"><a xlink:href="class_g_l_e_s_c_1_1_math_1_1_matrix.html#a3c0812b3a24431dfc5bc68f394910d61" target="_top" xlink:title="Creates a view matrix from the given position and rotation vectors.">
<polygon fill="white" stroke="#666666" points="317.75,-268 191.5,-268 191.5,-236 317.75,-236 317.75,-268"/>
<text text-anchor="start" x="199.5" y="-254.5" font-family="Helvetica,sans-Serif" font-size="10.00">GLESC::Math::Matrix</text>
<text text-anchor="middle" x="254.62" y="-242.5" font-family="Helvetica,sans-Serif" font-size="10.00">::makeViewMatrixPosRot</text>
</a>
</g>
</g>
<!-- Node1&#45;&gt;Node11 -->
<g id="edge11_Node000001_Node000011" class="edge">
<title>Node1&#45;&gt;Node11</title>
<g id="a_edge11_Node000001_Node000011"><a xlink:title=" ">
<path fill="none" stroke="#63b8ff" d="M78.43,-360.62C95.61,-338.43 129.23,-299.08 166.75,-277 171.13,-274.42 175.79,-272.1 180.59,-270"/>
<polygon fill="#63b8ff" stroke="#63b8ff" points="181.86,-273.27 189.87,-266.33 179.28,-266.76 181.86,-273.27"/>
</a>
</g>
</g>
<!-- Node33 -->
<g id="Node000033" class="node">
<title>Node33</title>
<g id="a_Node000033"><a xlink:href="class_g_l_e_s_c_1_1_render_1_1_renderer.html#a82c52ba1cfd98dbe2106e463959970b0" target="_top" xlink:title=" ">
<polygon fill="white" stroke="#666666" points="320,-218 189.25,-218 189.25,-186 320,-186 320,-218"/>
<text text-anchor="start" x="197.25" y="-204.5" font-family="Helvetica,sans-Serif" font-size="10.00">GLESC::Render::Renderer</text>
<text text-anchor="middle" x="254.62" y="-192.5" font-family="Helvetica,sans-Serif" font-size="10.00">::setProjection</text>
</a>
</g>
</g>
<!-- Node1&#45;&gt;Node33 -->
<g id="edge36_Node000001_Node000033" class="edge">
<title>Node1&#45;&gt;Node33</title>
<g id="a_edge36_Node000001_Node000033"><a xlink:title=" ">
<path fill="none" stroke="#63b8ff" d="M72.75,-360.7C85.66,-329.81 117.91,-262.66 166.75,-227 170.53,-224.24 174.61,-221.79 178.86,-219.6"/>
<polygon fill="#63b8ff" stroke="#63b8ff" points="180.01,-222.92 187.67,-215.6 177.12,-216.55 180.01,-222.92"/>
</a>
</g>
</g>
<!-- Node34 -->
<g id="Node000034" class="node">
<title>Node34</title>
<g id="a_Node000034"><a xlink:href="class_g_l_e_s_c_1_1_render_1_1_renderer.html#a431b747e9cd0014044e7219d094315b4" target="_top" xlink:title=" ">
<polygon fill="white" stroke="#666666" points="320,-168 189.25,-168 189.25,-136 320,-136 320,-168"/>
<text text-anchor="start" x="197.25" y="-154.5" font-family="Helvetica,sans-Serif" font-size="10.00">GLESC::Render::Renderer</text>
<text text-anchor="middle" x="254.62" y="-142.5" font-family="Helvetica,sans-Serif" font-size="10.00">::setView</text>
</a>
</g>
</g>
<!-- Node1&#45;&gt;Node34 -->
<g id="edge37_Node000001_Node000034" class="edge">
<title>Node1&#45;&gt;Node34</title>
<g id="a_edge37_Node000001_Node000034"><a xlink:title=" ">
<path fill="none" stroke="#63b8ff" d="M69.83,-360.75C78.78,-322.67 106.37,-227.13 166.75,-177 170.42,-173.95 174.44,-171.28 178.68,-168.93"/>
<polygon fill="#63b8ff" stroke="#63b8ff" points="180.03,-172.16 187.53,-164.68 177,-165.85 180.03,-172.16"/>
</a>
</g>
</g>
<!-- Node9 -->
<g id="Node000009" class="node">
<title>Node9</title>
<g id="a_Node000009"><a xlink:href="namespace_g_l_e_s_c_1_1_math.html#a980ed967f85bef4bb539c9701701a877" target="_top" xlink:title="Converts degrees to radians.">
<polygon fill="white" stroke="#666666" points="513.38,-373 399.12,-373 399.12,-353 513.38,-353 513.38,-373"/>
<text text-anchor="middle" x="456.25" y="-359.5" font-family="Helvetica,sans-Serif" font-size="10.00">GLESC::Math::radians</text>
</a>
</g>
</g>
<!-- Node8&#45;&gt;Node9 -->
<g id="edge8_Node000008_Node000009" class="edge">
<title>Node8&#45;&gt;Node9</title>
<g id="a_edge8_Node000008_Node000009"><a xlink:title=" ">
<path fill="none" stroke="#63b8ff" d="M313.17,-318.31C322.97,-321.16 333.04,-324.13 342.5,-327 365.67,-334.03 391.39,-342.22 412.41,-349"/>
<polygon fill="#63b8ff" stroke="#63b8ff" points="411.22,-352.29 421.81,-352.05 413.38,-345.63 411.22,-352.29"/>
</a>
</g>
</g>
<!-- Node10 -->
<g id="Node000010" class="node">
<title>Node10</title>
<g id="a_Node000010"><a xlink:href="namespace_g_l_e_s_c_1_1_math.html#a69598a72ef2c06e1caba0ea9613d65e6" target="_top" xlink:title="Converts radians to degrees.">
<polygon fill="white" stroke="#666666" points="707.5,-373 590.25,-373 590.25,-353 707.5,-353 707.5,-373"/>
<text text-anchor="middle" x="648.88" y="-359.5" font-family="Helvetica,sans-Serif" font-size="10.00">GLESC::Math::degrees</text>
</a>
</g>
</g>
<!-- Node9&#45;&gt;Node10 -->
<g id="edge9_Node000009_Node000010" class="edge">
<title>Node9&#45;&gt;Node10</title>
<g id="a_edge9_Node000009_Node000010"><a xlink:title=" ">
<path fill="none" stroke="#63b8ff" d="M513.67,-356.78C534.05,-356.19 557.29,-356.09 578.65,-356.48"/>
<polygon fill="#63b8ff" stroke="#63b8ff" points="578.36,-359.97 588.43,-356.7 578.52,-352.98 578.36,-359.97"/>
</a>
</g>
</g>
<!-- Node10&#45;&gt;Node9 -->
<g id="edge10_Node000010_Node000009" class="edge">
<title>Node10&#45;&gt;Node9</title>
<g id="a_edge10_Node000010_Node000009"><a xlink:title=" ">
<path fill="none" stroke="#63b8ff" d="M589.95,-369.27C569.43,-369.82 546.16,-369.9 524.91,-369.49"/>
<polygon fill="#63b8ff" stroke="#63b8ff" points="525.26,-366 515.18,-369.26 525.1,-373 525.26,-366"/>
</a>
</g>
</g>
<!-- Node12 -->
<g id="Node000012" class="node">
<title>Node12</title>
<g id="a_Node000012"><a xlink:href="class_g_l_e_s_c_1_1_math_1_1_matrix_mixed_algorithms.html#a67bdda15ead970e5074845bdf3fcf085" target="_top" xlink:title=" ">
<polygon fill="white" stroke="#666666" points="534,-213 378.5,-213 378.5,-169 534,-169 534,-213"/>
<text text-anchor="start" x="386.5" y="-199.5" font-family="Helvetica,sans-Serif" font-size="10.00">GLESC::Math::MatrixMixed</text>
<text text-anchor="start" x="386.5" y="-187.5" font-family="Helvetica,sans-Serif" font-size="10.00">Algorithms::calculateViewMatrix</text>
<text text-anchor="middle" x="456.25" y="-175.5" font-family="Helvetica,sans-Serif" font-size="10.00">PosRot</text>
</a>
</g>
</g>
<!-- Node11&#45;&gt;Node12 -->
<g id="edge12_Node000011_Node000012" class="edge">
<title>Node11&#45;&gt;Node12</title>
<g id="a_edge12_Node000011_Node000012"><a xlink:title=" ">
<path fill="none" stroke="#63b8ff" d="M313.64,-235.56C323.29,-232.75 333.19,-229.83 342.5,-227 353.04,-223.8 364.12,-220.36 375.04,-216.92"/>
<polygon fill="#63b8ff" stroke="#63b8ff" points="375.96,-220.3 384.44,-213.95 373.85,-213.63 375.96,-220.3"/>
</a>
</g>
</g>
<!-- Node13 -->
<g id="Node000013" class="node">
<title>Node13</title>
<g id="a_Node000013"><a xlink:href="class_g_l_e_s_c_1_1_math_1_1_matrix_mixed_algorithms.html#a88aadedf958ac6e320f73137e81aaf37" target="_top" xlink:title="Rotate a 3D matrix around the X, Y, and Z axis.">
<polygon fill="white" stroke="#666666" points="723.62,-335 574.12,-335 574.12,-291 723.62,-291 723.62,-335"/>
<text text-anchor="start" x="582.12" y="-321.5" font-family="Helvetica,sans-Serif" font-size="10.00">GLESC::Math::MatrixMixed</text>
<text text-anchor="start" x="582.12" y="-309.5" font-family="Helvetica,sans-Serif" font-size="10.00">Algorithms::getRotate3DMatrix</text>
<text text-anchor="middle" x="648.88" y="-297.5" font-family="Helvetica,sans-Serif" font-size="10.00">ForAxis</text>
</a>
</g>
</g>
<!-- Node12&#45;&gt;Node13 -->
<g id="edge13_Node000012_Node000013" class="edge">
<title>Node12&#45;&gt;Node13</title>
<g id="a_edge13_Node000012_Node000013"><a xlink:title=" ">
<path fill="none" stroke="#63b8ff" d="M480.33,-213.13C502.11,-233.12 536.34,-262.32 570,-282 572.01,-283.18 574.08,-284.33 576.18,-285.45"/>
<polygon fill="#63b8ff" stroke="#63b8ff" points="574.39,-288.47 584.9,-289.82 577.53,-282.21 574.39,-288.47"/>
</a>
</g>
</g>
<!-- Node23 -->
<g id="Node000023" class="node">
<title>Node23</title>
<g id="a_Node000023"><a xlink:href="class_g_l_e_s_c_1_1_math_1_1_matrix_algorithms.html#ac2a4e16d39a3e40fed2b4d7362c012a6" target="_top" xlink:title="Gets the scale matrix.">
<polygon fill="white" stroke="#666666" points="727,-273 570.75,-273 570.75,-241 727,-241 727,-273"/>
<text text-anchor="start" x="578.75" y="-259.5" font-family="Helvetica,sans-Serif" font-size="10.00">GLESC::Math::MatrixAlgorithms</text>
<text text-anchor="middle" x="648.88" y="-247.5" font-family="Helvetica,sans-Serif" font-size="10.00">::getScaleMatrix</text>
</a>
</g>
</g>
<!-- Node12&#45;&gt;Node23 -->
<g id="edge23_Node000012_Node000023" class="edge">
<title>Node12&#45;&gt;Node23</title>
<g id="a_edge23_Node000012_Node000023"><a xlink:title=" ">
<path fill="none" stroke="#63b8ff" d="M522.05,-213.44C543.93,-221.01 568.2,-229.41 589.54,-236.8"/>
<polygon fill="#63b8ff" stroke="#63b8ff" points="588.39,-240.11 598.98,-240.07 590.68,-233.49 588.39,-240.11"/>
</a>
</g>
</g>
<!-- Node24 -->
<g id="Node000024" class="node">
<title>Node24</title>
<g id="a_Node000024"><a xlink:href="class_g_l_e_s_c_1_1_math_1_1_matrix_algorithms.html#a053f9441ed78e43be28efcca0fc34283" target="_top" xlink:title="Sets the values of a matrix to zero.">
<polygon fill="white" stroke="#666666" points="920.75,-232 764.5,-232 764.5,-200 920.75,-200 920.75,-232"/>
<text text-anchor="start" x="772.5" y="-218.5" font-family="Helvetica,sans-Serif" font-size="10.00">GLESC::Math::MatrixAlgorithms</text>
<text text-anchor="middle" x="842.62" y="-206.5" font-family="Helvetica,sans-Serif" font-size="10.00">::setMatrixZero</text>
</a>
</g>
</g>
<!-- Node12&#45;&gt;Node24 -->
<g id="edge34_Node000012_Node000024" class="edge">
<title>Node12&#45;&gt;Node24</title>
<g id="a_edge34_Node000012_Node000024"><a xlink:title=" ">
<path fill="none" stroke="#63b8ff" d="M534.11,-196C597.28,-200.11 686.82,-205.93 753,-210.24"/>
<polygon fill="#63b8ff" stroke="#63b8ff" points="752.52,-213.71 762.73,-210.87 752.98,-206.73 752.52,-213.71"/>
</a>
</g>
</g>
<!-- Node26 -->
<g id="Node000026" class="node">
<title>Node26</title>
<g id="a_Node000026"><a xlink:href="class_g_l_e_s_c_1_1_math_1_1_matrix_algorithms.html#a0366e789adbfca31ea7a2bd82c77d676" target="_top" xlink:title="Applies the translation to a model matrix.">
<polygon fill="white" stroke="#666666" points="727,-185 570.75,-185 570.75,-153 727,-153 727,-185"/>
<text text-anchor="start" x="578.75" y="-171.5" font-family="Helvetica,sans-Serif" font-size="10.00">GLESC::Math::MatrixAlgorithms</text>
<text text-anchor="middle" x="648.88" y="-159.5" font-family="Helvetica,sans-Serif" font-size="10.00">::getTranslationMatrix</text>
</a>
</g>
</g>
<!-- Node12&#45;&gt;Node26 -->
<g id="edge26_Node000012_Node000026" class="edge">
<title>Node12&#45;&gt;Node26</title>
<g id="a_edge26_Node000012_Node000026"><a xlink:title=" ">
<path fill="none" stroke="#63b8ff" d="M534.24,-182.12C542.4,-181.17 550.76,-180.21 559.05,-179.25"/>
<polygon fill="#63b8ff" stroke="#63b8ff" points="559.26,-182.75 568.79,-178.13 558.45,-175.8 559.26,-182.75"/>
</a>
</g>
</g>
<!-- Node27 -->
<g id="Node000027" class="node">
<title>Node27</title>
<g id="a_Node000027"><a xlink:href="class_g_l_e_s_c_1_1_math_1_1_matrix_algorithms.html#a5cea58a2eb5207b8282360179774f17b" target="_top" xlink:title="Sets the diagonal of a matrix to a specific value.">
<polygon fill="white" stroke="#666666" points="920.75,-182 764.5,-182 764.5,-150 920.75,-150 920.75,-182"/>
<text text-anchor="start" x="772.5" y="-168.5" font-family="Helvetica,sans-Serif" font-size="10.00">GLESC::Math::MatrixAlgorithms</text>
<text text-anchor="middle" x="842.62" y="-156.5" font-family="Helvetica,sans-Serif" font-size="10.00">::setMatrixDiagonal</text>
</a>
</g>
</g>
<!-- Node12&#45;&gt;Node27 -->
<g id="edge33_Node000012_Node000027" class="edge">
<title>Node12&#45;&gt;Node27</title>
<g id="a_edge33_Node000012_Node000027"><a xlink:title=" ">
<path fill="none" stroke="#63b8ff" d="M499.89,-168.54C520.47,-158.93 545.88,-148.83 570,-144 632.69,-131.46 704.89,-138.29 759.08,-147.53"/>
<polygon fill="#63b8ff" stroke="#63b8ff" points="758.42,-150.97 768.87,-149.27 759.64,-144.08 758.42,-150.97"/>
</a>
</g>
</g>
<!-- Node28 -->
<g id="Node000028" class="node">
<title>Node28</title>
<g id="a_Node000028"><a xlink:href="class_g_l_e_s_c_1_1_math_1_1_matrix_algorithms.html#aa04e41ebccb8934ec715c81742f0d11f" target="_top" xlink:title="Dot product matrix multiplication in place.">
<polygon fill="white" stroke="#666666" points="727,-97 570.75,-97 570.75,-65 727,-65 727,-97"/>
<text text-anchor="start" x="578.75" y="-83.5" font-family="Helvetica,sans-Serif" font-size="10.00">GLESC::Math::MatrixAlgorithms</text>
<text text-anchor="middle" x="648.88" y="-71.5" font-family="Helvetica,sans-Serif" font-size="10.00">::matrixMatrixMulInPlace</text>
</a>
</g>
</g>
<!-- Node12&#45;&gt;Node28 -->
<g id="edge29_Node000012_Node000028" class="edge">
<title>Node12&#45;&gt;Node28</title>
<g id="a_edge29_Node000012_Node000028"><a xlink:title=" ">
<path fill="none" stroke="#63b8ff" d="M484.71,-168.56C506.79,-151.26 539.12,-127.57 570,-111 576.12,-107.72 582.67,-104.61 589.28,-101.74"/>
<polygon fill="#63b8ff" stroke="#63b8ff" points="590.39,-105.07 598.28,-97.99 587.7,-98.61 590.39,-105.07"/>
</a>
</g>
</g>
<!-- Node32 -->
<g id="Node000032" class="node">
<title>Node32</title>
<g id="a_Node000032"><a xlink:href="class_g_l_e_s_c_1_1_math_1_1_vector_algorithms.html#a7b10d54bc647ac05d41a9e025d5c9410" target="_top" xlink:title="Negates a vector.">
<polygon fill="white" stroke="#666666" points="727.75,-47 570,-47 570,-15 727.75,-15 727.75,-47"/>
<text text-anchor="start" x="578" y="-33.5" font-family="Helvetica,sans-Serif" font-size="10.00">GLESC::Math::VectorAlgorithms</text>
<text text-anchor="middle" x="648.88" y="-21.5" font-family="Helvetica,sans-Serif" font-size="10.00">::vectorNegate</text>
</a>
</g>
</g>
<!-- Node12&#45;&gt;Node32 -->
<g id="edge35_Node000012_Node000032" class="edge">
<title>Node12&#45;&gt;Node32</title>
<g id="a_edge35_Node000012_Node000032"><a xlink:title=" ">
<path fill="none" stroke="#63b8ff" d="M470.18,-168.74C488.64,-138.87 525.3,-86.11 570,-56 571.81,-54.78 573.68,-53.62 575.61,-52.51"/>
<polygon fill="#63b8ff" stroke="#63b8ff" points="576.92,-55.77 584.22,-48.09 573.73,-49.54 576.92,-55.77"/>
</a>
</g>
</g>
<!-- Node14 -->
<g id="Node000014" class="node">
<title>Node14</title>
<g id="a_Node000014"><a xlink:href="namespace_g_l_e_s_c_1_1_math.html#ac72fdbfd43b6a5770385dbfd805b687b" target="_top" xlink:title="Calculates the cosine of a value.">
<polygon fill="white" stroke="#666666" points="891.88,-409 793.38,-409 793.38,-389 891.88,-389 891.88,-409"/>
<text text-anchor="middle" x="842.62" y="-395.5" font-family="Helvetica,sans-Serif" font-size="10.00">GLESC::Math::cos</text>
</a>
</g>
</g>
<!-- Node13&#45;&gt;Node14 -->
<g id="edge14_Node000013_Node000014" class="edge">
<title>Node13&#45;&gt;Node14</title>
<g id="a_edge14_Node000013_Node000014"><a xlink:title=" ">
<path fill="none" stroke="#63b8ff" d="M712.66,-335.34C717.91,-337.99 723.01,-340.88 727.75,-344 746.65,-356.44 744.03,-368.91 763.75,-380 769.5,-383.23 775.79,-385.92 782.23,-388.16"/>
<polygon fill="#63b8ff" stroke="#63b8ff" points="781.09,-391.47 791.67,-391.06 783.14,-384.77 781.09,-391.47"/>
</a>
</g>
</g>
<!-- Node15 -->
<g id="Node000015" class="node">
<title>Node15</title>
<g id="a_Node000015"><a xlink:href="class_g_l_e_s_c_1_1_math_1_1_vector_algorithms.html#a7ee5da5ffdabacb6faa895af42dd78c3" target="_top" xlink:title="Normalizes a vector.">
<polygon fill="white" stroke="#666666" points="921.5,-371 763.75,-371 763.75,-339 921.5,-339 921.5,-371"/>
<text text-anchor="start" x="771.75" y="-357.5" font-family="Helvetica,sans-Serif" font-size="10.00">GLESC::Math::VectorAlgorithms</text>
<text text-anchor="middle" x="842.62" y="-345.5" font-family="Helvetica,sans-Serif" font-size="10.00">::normalize</text>
</a>
</g>
</g>
<!-- Node13&#45;&gt;Node15 -->
<g id="edge15_Node000013_Node000015" class="edge">
<title>Node13&#45;&gt;Node15</title>
<g id="a_edge15_Node000013_Node000015"><a xlink:title=" ">
<path fill="none" stroke="#63b8ff" d="M724.01,-329.24C734.23,-331.48 744.79,-333.79 755.2,-336.07"/>
<polygon fill="#63b8ff" stroke="#63b8ff" points="754.42,-339.48 764.94,-338.2 755.92,-332.65 754.42,-339.48"/>
</a>
</g>
</g>
<!-- Node21 -->
<g id="Node000021" class="node">
<title>Node21</title>
<g id="a_Node000021"><a xlink:href="namespace_g_l_e_s_c_1_1_math.html#aa21a1aeaaa25e280f941221e165dffa4" target="_top" xlink:title="Calculates the sine of a value.">
<polygon fill="white" stroke="#666666" points="890.38,-321 794.88,-321 794.88,-301 890.38,-301 890.38,-321"/>
<text text-anchor="middle" x="842.62" y="-307.5" font-family="Helvetica,sans-Serif" font-size="10.00">GLESC::Math::sin</text>
</a>
</g>
</g>
<!-- Node13&#45;&gt;Node21 -->
<g id="edge21_Node000013_Node000021" class="edge">
<title>Node13&#45;&gt;Node21</title>
<g id="a_edge21_Node000013_Node000021"><a xlink:title=" ">
<path fill="none" stroke="#63b8ff" d="M724.01,-312.23C743.65,-312.02 764.57,-311.8 783.24,-311.61"/>
<polygon fill="#63b8ff" stroke="#63b8ff" points="783.06,-315.11 793.03,-311.51 782.99,-308.11 783.06,-315.11"/>
</a>
</g>
</g>
<!-- Node22 -->
<g id="Node000022" class="node">
<title>Node22</title>
<g id="a_Node000022"><a xlink:href="class_g_l_e_s_c_1_1_math_1_1_vector_algorithms.html#ae39d3eeb6fa078e77bb563ebc318e43a" target="_top" xlink:title="Multiplies a vector by a scalar.">
<polygon fill="white" stroke="#666666" points="921.5,-283 763.75,-283 763.75,-251 921.5,-251 921.5,-283"/>
<text text-anchor="start" x="771.75" y="-269.5" font-family="Helvetica,sans-Serif" font-size="10.00">GLESC::Math::VectorAlgorithms</text>
<text text-anchor="middle" x="842.62" y="-257.5" font-family="Helvetica,sans-Serif" font-size="10.00">::vectorScalarMul</text>
</a>
</g>
</g>
<!-- Node13&#45;&gt;Node22 -->
<g id="edge22_Node000013_Node000022" class="edge">
<title>Node13&#45;&gt;Node22</title>
<g id="a_edge22_Node000013_Node000022"><a xlink:title=" ">
<path fill="none" stroke="#63b8ff" d="M724.01,-295.22C736.48,-292.22 749.47,-289.11 762.07,-286.08"/>
<polygon fill="#63b8ff" stroke="#63b8ff" points="762.64,-289.55 771.55,-283.81 761.01,-282.74 762.64,-289.55"/>
</a>
</g>
</g>
<!-- Node16 -->
<g id="Node000016" class="node">
<title>Node16</title>
<g id="a_Node000016"><a xlink:href="namespace_g_l_e_s_c_1_1_math.html#aee25910dbba06d09d9df14d03933ace1" target="_top" xlink:title="Compares two values for equality.">
<polygon fill="white" stroke="#666666" points="1083,-387 989.75,-387 989.75,-367 1083,-367 1083,-387"/>
<text text-anchor="middle" x="1036.38" y="-373.5" font-family="Helvetica,sans-Serif" font-size="10.00">GLESC::Math::eq</text>
</a>
</g>
</g>
<!-- Node15&#45;&gt;Node16 -->
<g id="edge16_Node000015_Node000016" class="edge">
<title>Node15&#45;&gt;Node16</title>
<g id="a_edge16_Node000015_Node000016"><a xlink:title=" ">
<path fill="none" stroke="#63b8ff" d="M921.89,-363.98C940.75,-366.14 960.55,-368.42 978.24,-370.44"/>
<polygon fill="#63b8ff" stroke="#63b8ff" points="977.69,-373.9 988.02,-371.57 978.48,-366.95 977.69,-373.9"/>
</a>
</g>
</g>
<!-- Node18 -->
<g id="Node000018" class="node">
<title>Node18</title>
<g id="a_Node000018"><a xlink:href="class_g_l_e_s_c_1_1_math_1_1_vector_algorithms.html#a96acaa670e780132720dd3ea6a6cdf97" target="_top" xlink:title="Computes the length of a vector.">
<polygon fill="white" stroke="#666666" points="1115.25,-349 957.5,-349 957.5,-317 1115.25,-317 1115.25,-349"/>
<text text-anchor="start" x="965.5" y="-335.5" font-family="Helvetica,sans-Serif" font-size="10.00">GLESC::Math::VectorAlgorithms</text>
<text text-anchor="middle" x="1036.38" y="-323.5" font-family="Helvetica,sans-Serif" font-size="10.00">::length</text>
</a>
</g>
</g>
<!-- Node15&#45;&gt;Node18 -->
<g id="edge18_Node000015_Node000018" class="edge">
<title>Node15&#45;&gt;Node18</title>
<g id="a_edge18_Node000015_Node000018"><a xlink:title=" ">
<path fill="none" stroke="#63b8ff" d="M921.89,-346.02C929.78,-345.12 937.82,-344.19 945.81,-343.28"/>
<polygon fill="#63b8ff" stroke="#63b8ff" points="946.01,-346.78 955.54,-342.16 945.21,-339.82 946.01,-346.78"/>
</a>
</g>
</g>
<!-- Node17 -->
<g id="Node000017" class="node">
<title>Node17</title>
<g id="a_Node000017"><a xlink:href="namespace_g_l_e_s_c_1_1_math.html#acd429163efe906cd22916cc75ccb2421" target="_top" xlink:title="Epsilon getter with precision of a given template type.">
<polygon fill="white" stroke="#666666" points="1286.88,-387 1173.38,-387 1173.38,-367 1286.88,-367 1286.88,-387"/>
<text text-anchor="middle" x="1230.12" y="-373.5" font-family="Helvetica,sans-Serif" font-size="10.00">GLESC::Math::epsilon</text>
</a>
</g>
</g>
<!-- Node16&#45;&gt;Node17 -->
<g id="edge17_Node000016_Node000017" class="edge">
<title>Node16&#45;&gt;Node17</title>
<g id="a_edge17_Node000016_Node000017"><a xlink:title=" ">
<path fill="none" stroke="#63b8ff" d="M1083.3,-377C1106.76,-377 1135.74,-377 1161.68,-377"/>
<polygon fill="#63b8ff" stroke="#63b8ff" points="1161.45,-380.5 1171.45,-377 1161.45,-373.5 1161.45,-380.5"/>
</a>
</g>
</g>
<!-- Node19 -->
<g id="Node000019" class="node">
<title>Node19</title>
<g id="a_Node000019"><a xlink:href="class_g_l_e_s_c_1_1_math_1_1_vector_algorithms.html#ae45bcff9b53fb60d513c53823418d97b" target="_top" xlink:title="Computes the dot product of two vectors.">
<polygon fill="white" stroke="#666666" points="1309,-349 1151.25,-349 1151.25,-317 1309,-317 1309,-349"/>
<text text-anchor="start" x="1159.25" y="-335.5" font-family="Helvetica,sans-Serif" font-size="10.00">GLESC::Math::VectorAlgorithms</text>
<text text-anchor="middle" x="1230.12" y="-323.5" font-family="Helvetica,sans-Serif" font-size="10.00">::dotProduct</text>
</a>
</g>
</g>
<!-- Node18&#45;&gt;Node19 -->
<g id="edge19_Node000018_Node000019" class="edge">
<title>Node18&#45;&gt;Node19</title>
<g id="a_edge19_Node000018_Node000019"><a xlink:title=" ">
<path fill="none" stroke="#63b8ff" d="M1115.64,-333C1123.44,-333 1131.39,-333 1139.29,-333"/>
<polygon fill="#63b8ff" stroke="#63b8ff" points="1139.28,-336.5 1149.28,-333 1139.28,-329.5 1139.28,-336.5"/>
</a>
</g>
</g>
<!-- Node20 -->
<g id="Node000020" class="node">
<title>Node20</title>
<g id="a_Node000020"><a xlink:href="namespace_g_l_e_s_c_1_1_math.html#ab2316a2512c43c18e29709201adf3fe5" target="_top" xlink:title="Calculates the square root of a value.">
<polygon fill="white" stroke="#666666" points="1279.75,-299 1180.5,-299 1180.5,-279 1279.75,-279 1279.75,-299"/>
<text text-anchor="middle" x="1230.12" y="-285.5" font-family="Helvetica,sans-Serif" font-size="10.00">GLESC::Math::sqrt</text>
</a>
</g>
</g>
<!-- Node18&#45;&gt;Node20 -->
<g id="edge20_Node000018_Node000020" class="edge">
<title>Node18&#45;&gt;Node20</title>
<g id="a_edge20_Node000018_Node000020"><a xlink:title=" ">
<path fill="none" stroke="#63b8ff" d="M1109.05,-316.55C1129.95,-311.76 1152.5,-306.58 1172.35,-302.03"/>
<polygon fill="#63b8ff" stroke="#63b8ff" points="1172.94,-305.48 1181.91,-299.84 1171.38,-298.66 1172.94,-305.48"/>
</a>
</g>
</g>
<!-- Node23&#45;&gt;Node24 -->
<g id="edge24_Node000023_Node000024" class="edge">
<title>Node23&#45;&gt;Node24</title>
<g id="a_edge24_Node000023_Node000024"><a xlink:title=" ">
<path fill="none" stroke="#63b8ff" d="M727.04,-240.5C735.75,-238.64 744.67,-236.73 753.5,-234.84"/>
<polygon fill="#63b8ff" stroke="#63b8ff" points="754.09,-238.3 763.14,-232.78 752.63,-231.45 754.09,-238.3"/>
</a>
</g>
</g>
<!-- Node25 -->
<g id="Node000025" class="node">
<title>Node25</title>
<g id="a_Node000025"><a xlink:href="class_g_l_e_s_c_1_1_math_1_1_matrix_algorithms.html#a555b3e0f1eb9a546ec47951fa0f5e8da" target="_top" xlink:title="Sets the values of a matrix to one.">
<polygon fill="white" stroke="#666666" points="1114.5,-232 958.25,-232 958.25,-200 1114.5,-200 1114.5,-232"/>
<text text-anchor="start" x="966.25" y="-218.5" font-family="Helvetica,sans-Serif" font-size="10.00">GLESC::Math::MatrixAlgorithms</text>
<text text-anchor="middle" x="1036.38" y="-206.5" font-family="Helvetica,sans-Serif" font-size="10.00">::fillMatrix</text>
</a>
</g>
</g>
<!-- Node24&#45;&gt;Node25 -->
<g id="edge25_Node000024_Node000025" class="edge">
<title>Node24&#45;&gt;Node25</title>
<g id="a_edge25_Node000024_Node000025"><a xlink:title=" ">
<path fill="none" stroke="#63b8ff" d="M921.06,-216C929.43,-216 937.98,-216 946.46,-216"/>
<polygon fill="#63b8ff" stroke="#63b8ff" points="946.44,-219.5 956.44,-216 946.44,-212.5 946.44,-219.5"/>
</a>
</g>
</g>
<!-- Node26&#45;&gt;Node24 -->
<g id="edge28_Node000026_Node000024" class="edge">
<title>Node26&#45;&gt;Node24</title>
<g id="a_edge28_Node000026_Node000024"><a xlink:title=" ">
<path fill="none" stroke="#63b8ff" d="M716.94,-185.44C731.97,-189.12 748.05,-193.06 763.49,-196.85"/>
<polygon fill="#63b8ff" stroke="#63b8ff" points="762.58,-200.23 773.13,-199.21 764.25,-193.43 762.58,-200.23"/>
</a>
</g>
</g>
<!-- Node26&#45;&gt;Node27 -->
<g id="edge27_Node000026_Node000027" class="edge">
<title>Node26&#45;&gt;Node27</title>
<g id="a_edge27_Node000026_Node000027"><a xlink:title=" ">
<path fill="none" stroke="#63b8ff" d="M727.31,-167.79C735.68,-167.66 744.23,-167.52 752.71,-167.39"/>
<polygon fill="#63b8ff" stroke="#63b8ff" points="752.75,-170.89 762.69,-167.23 752.64,-163.89 752.75,-170.89"/>
</a>
</g>
</g>
<!-- Node29 -->
<g id="Node000029" class="node">
<title>Node29</title>
<g id="a_Node000029"><a xlink:href="class_g_l_e_s_c_1_1_math_1_1_matrix_algorithms.html#ab4ffc1744770577aea3a32c00c41b976" target="_top" xlink:title="Copies the data from one matrix to another.">
<polygon fill="white" stroke="#666666" points="920.75,-132 764.5,-132 764.5,-100 920.75,-100 920.75,-132"/>
<text text-anchor="start" x="772.5" y="-118.5" font-family="Helvetica,sans-Serif" font-size="10.00">GLESC::Math::MatrixAlgorithms</text>
<text text-anchor="middle" x="842.62" y="-106.5" font-family="Helvetica,sans-Serif" font-size="10.00">::copyMatrix</text>
</a>
</g>
</g>
<!-- Node28&#45;&gt;Node29 -->
<g id="edge30_Node000028_Node000029" class="edge">
<title>Node28&#45;&gt;Node29</title>
<g id="a_edge30_Node000028_Node000029"><a xlink:title=" ">
<path fill="none" stroke="#63b8ff" d="M727.31,-95.13C735.77,-96.68 744.42,-98.26 753,-99.82"/>
<polygon fill="#63b8ff" stroke="#63b8ff" points="752.25,-103.24 762.72,-101.6 753.51,-96.36 752.25,-103.24"/>
</a>
</g>
</g>
<!-- Node30 -->
<g id="Node000030" class="node">
<title>Node30</title>
<g id="a_Node000030"><a xlink:href="class_g_l_e_s_c_1_1_math_1_1_matrix_algorithms.html#a0b865437ed01525b5afafb74f755ffbb" target="_top" xlink:title=" ">
<polygon fill="white" stroke="#666666" points="920.75,-82 764.5,-82 764.5,-50 920.75,-50 920.75,-82"/>
<text text-anchor="start" x="772.5" y="-68.5" font-family="Helvetica,sans-Serif" font-size="10.00">GLESC::Math::MatrixAlgorithms</text>
<text text-anchor="middle" x="842.62" y="-56.5" font-family="Helvetica,sans-Serif" font-size="10.00">::matrixMatrixMulColMaj</text>
</a>
</g>
</g>
<!-- Node28&#45;&gt;Node30 -->
<g id="edge31_Node000028_Node000030" class="edge">
<title>Node28&#45;&gt;Node30</title>
<g id="a_edge31_Node000028_Node000030"><a xlink:title=" ">
<path fill="none" stroke="#63b8ff" d="M727.31,-74.94C735.77,-74.28 744.42,-73.6 753,-72.93"/>
<polygon fill="#63b8ff" stroke="#63b8ff" points="753,-76.44 762.7,-72.17 752.46,-69.46 753,-76.44"/>
</a>
</g>
</g>
<!-- Node31 -->
<g id="Node000031" class="node">
<title>Node31</title>
<g id="a_Node000031"><a xlink:href="class_g_l_e_s_c_1_1_math_1_1_matrix_algorithms.html#ac339994676b91c61876ce07d0f2c1b88" target="_top" xlink:title=" ">
<polygon fill="white" stroke="#666666" points="920.75,-32 764.5,-32 764.5,0 920.75,0 920.75,-32"/>
<text text-anchor="start" x="772.5" y="-18.5" font-family="Helvetica,sans-Serif" font-size="10.00">GLESC::Math::MatrixAlgorithms</text>
<text text-anchor="middle" x="842.62" y="-6.5" font-family="Helvetica,sans-Serif" font-size="10.00">::matrixMatrixMulRowMaj</text>
</a>
</g>
</g>
<!-- Node28&#45;&gt;Node31 -->
<g id="edge32_Node000028_Node000031" class="edge">
<title>Node28&#45;&gt;Node31</title>
<g id="a_edge32_Node000028_Node000031"><a xlink:title=" ">
<path fill="none" stroke="#63b8ff" d="M703.28,-64.51C711.51,-61.78 719.89,-58.89 727.75,-56 744.02,-50.01 747.48,-46.99 763.75,-41 768.17,-39.37 772.76,-37.75 777.39,-36.15"/>
<polygon fill="#63b8ff" stroke="#63b8ff" points="778.43,-39.49 786.79,-32.97 776.19,-32.86 778.43,-39.49"/>
</a>
</g>
</g>
</g>
</svg>

<g id="navigator" transform="translate(0 0)" fill="#404254">
  <rect fill="#f2f5e9" fill-opacity="0.5" stroke="#606060" stroke-width=".5" x="0" y="0" width="60" height="60"/>
  <use id="zoomplus" xlink:href="#zoomPlus" x="17" y="9" onmousedown="handleZoom(evt,'in')"/>
  <use id="zoomminus" xlink:href="#zoomMin" x="42" y="9" onmousedown="handleZoom(evt,'out')"/>
  <use id="reset" xlink:href="#resetDef" x="30" y="36" onmousedown="handleReset()"/>
   <use id="arrowup" xlink:href="#arrowUp" x="0" y="0" onmousedown="handlePan(0,-1)"/>
  <use id="arrowright" xlink:href="#arrowRight" x="0" y="0" onmousedown="handlePan(1,0)"/>
  <use id="arrowdown" xlink:href="#arrowDown" x="0" y="0" onmousedown="handlePan(0,1)"/>
  <use id="arrowleft" xlink:href="#arrowLeft" x="0" y="0" onmousedown="handlePan(-1,0)"/>
</g>
<svg viewBox="0 0 15 15" width="100%" height="30px" preserveAspectRatio="xMaxYMin meet">
 <g id="arrow_out" transform="scale(0.3 0.3)">
  <a xlink:href="class_g_l_e_s_c_1_1_render_1_1_renderer_a0f562e14a9fb4e13e03bc108b5dd1111_cgraph_org.svg" target="_base">
   <rect id="button" ry="5" rx="5" y="6" x="6" height="38" width="38"
        fill="#f2f5e9" fill-opacity="0.5" stroke="#606060" stroke-width="1.0"/>
   <path id="arrow"
     d="M 11.500037,31.436501 C 11.940474,20.09759 22.043105,11.32322 32.158766,21.979434 L 37.068811,17.246167 C 37.068811,17.246167 37.088388,32 37.088388,32 L 22.160133,31.978069 C 22.160133,31.978069 26.997745,27.140456 26.997745,27.140456 C 18.528582,18.264221 13.291696,25.230495 11.500037,31.436501 z"
     style="fill:#404040;"/>
  </a>
 </g>
</svg>

<style type='text/css'>
<![CDATA[
[data-mouse-over-selected='false'] { opacity: 0.7; }
[data-mouse-over-selected='true']  { opacity: 1.0; }
]]>
</style>
<script type="application/ecmascript"><![CDATA[
document.addEventListener('DOMContentLoaded', (event) => {
  highlightEdges();
  highlightAdjacentNodes();
});
]]></script>
</svg>
