<?xml version="1.0" encoding="UTF-8" standalone="no"?>
<!DOCTYPE svg PUBLIC "-//W3C//DTD SVG 1.1//EN"
 "http://www.w3.org/Graphics/SVG/1.1/DTD/svg11.dtd">
<!-- Generated by graphviz version 11.0.0 (20240428.1522)
 -->
<!-- Title: GLESC::HUD::HUDManager::HUDManager Pages: 1 -->
<!--zoomable 249 -->

<svg id="main" version="1.1" xmlns="http://www.w3.org/2000/svg" xmlns:xlink="http://www.w3.org/1999/xlink" xml:space="preserve" onload="init(evt)">
<style type="text/css"><![CDATA[
.node, .edge {opacity: 0.7;}
.node.selected, .edge.selected {opacity: 1;}
.edge:hover path { stroke: red; }
.edge:hover polygon { stroke: red; fill: red; }
]]></style>

<defs>
  <circle id="rim" cx="0" cy="0" r="7"/>
  <circle id="rim2" cx="0" cy="0" r="3.5"/>
  <g id="zoomPlus">
    <use xlink:href="#rim" fill="#404040"><set attributeName="fill" to="#808080" begin="zoomplus.mouseover" end="zoomplus.mouseout"/></use>
    <path d="M-4,0h8M0,-4v8" fill="none" stroke="white" stroke-width="1.5" pointer-events="none"/>
  </g>
  <g id="zoomMin">
    <use xlink:href="#rim" fill="#404040"><set attributeName="fill" to="#808080" begin="zoomminus.mouseover" end="zoomminus.mouseout"/></use>
    <path d="M-4,0h8" fill="none" stroke="white" stroke-width="1.5" pointer-events="none"/>
  </g>
  <g id="arrowUp" transform="translate(30 24)">
    <use xlink:href="#rim"/>
    <path pointer-events="none" fill="none" stroke="white" stroke-width="1.5" d="M0,-3.0v7 M-2.5,-0.5L0,-3.0L2.5,-0.5"/>
  </g>
  <g id="arrowRight" transform="rotate(90) translate(36 -43)">
    <use xlink:href="#rim"/>
    <path pointer-events="none" fill="none" stroke="white" stroke-width="1.5" d="M0,-3.0v7 M-2.5,-0.5L0,-3.0L2.5,-0.5"/>
  </g>
  <g id="arrowDown" transform="rotate(180) translate(-30 -48)">
    <use xlink:href="#rim"/>
    <path pointer-events="none" fill="none" stroke="white" stroke-width="1.5" d="M0,-3.0v7 M-2.5,-0.5L0,-3.0L2.5,-0.5"/>
  </g>
  <g id="arrowLeft" transform="rotate(270) translate(-36 17)">
    <use xlink:href="#rim"/>
    <path pointer-events="none" fill="none" stroke="white" stroke-width="1.5" d="M0,-3.0v7 M-2.5,-0.5L0,-3.0L2.5,-0.5"/>
  </g>
  <g id="resetDef">
    <use xlink:href="#rim2" fill="#404040"><set attributeName="fill" to="#808080" begin="reset.mouseover" end="reset.mouseout"/></use>
  </g>
</defs>
<script type="application/ecmascript">
var viewWidth = 1372;
var viewHeight = 249;
var sectionId = 'dynsection-0';
</script>
<script type="application/ecmascript" xlink:href="svg.min.js"/>
<svg id="graph" class="graph">
<g id="viewport">
<title>GLESC::HUD::HUDManager::HUDManager</title>
<!-- Node1 -->
<g id="Node000001" class="node">
<title>Node1</title>
<g id="a_Node000001"><a xlink:title="Constructor for the HUDManager.">
<polygon fill="#999999" stroke="#666666" points="139,-121 0,-121 0,-89 139,-89 139,-121"/>
<text text-anchor="start" x="8" y="-107.5" font-family="Helvetica,sans-Serif" font-size="10.00">GLESC::HUD::HUDManager</text>
<text text-anchor="middle" x="69.5" y="-95.5" font-family="Helvetica,sans-Serif" font-size="10.00">::HUDManager</text>
</a>
</g>
</g>
<!-- Node2 -->
<g id="Node000002" class="node">
<title>Node2</title>
<g id="a_Node000002"><a xlink:href="class_g_l_e_s_c_1_1_h_u_d_1_1_h_u_d_manager.html#a4ff8b120db6eecaaa5e619b1477f58ed" target="_top" xlink:title=" ">
<polygon fill="white" stroke="#666666" points="314,-121 175,-121 175,-89 314,-89 314,-121"/>
<text text-anchor="start" x="183" y="-107.5" font-family="Helvetica,sans-Serif" font-size="10.00">GLESC::HUD::HUDManager</text>
<text text-anchor="middle" x="244.5" y="-95.5" font-family="Helvetica,sans-Serif" font-size="10.00">::initImGUI</text>
</a>
</g>
</g>
<!-- Node1&#45;&gt;Node2 -->
<g id="edge1_Node000001_Node000002" class="edge">
<title>Node1&#45;&gt;Node2</title>
<g id="a_edge1_Node000001_Node000002"><a xlink:title=" ">
<path fill="none" stroke="#63b8ff" d="M139.37,-105C147.25,-105 155.33,-105 163.34,-105"/>
<polygon fill="#63b8ff" stroke="#63b8ff" points="163.07,-108.5 173.07,-105 163.07,-101.5 163.07,-108.5"/>
</a>
</g>
</g>
<!-- Node3 -->
<g id="Node000003" class="node">
<title>Node3</title>
<g id="a_Node000003"><a xlink:href="class_hud_look_and_feel.html#a1466001b2e5e8963e55ff4be372c3e0e" target="_top" xlink:title="Adds a font from a file with a size.">
<polygon fill="white" stroke="#666666" points="836.38,-153 704.88,-153 704.88,-133 836.38,-133 836.38,-153"/>
<text text-anchor="middle" x="770.62" y="-139.5" font-family="Helvetica,sans-Serif" font-size="10.00">HudLookAndFeel::addFont</text>
</a>
</g>
</g>
<!-- Node2&#45;&gt;Node3 -->
<g id="edge2_Node000002_Node000003" class="edge">
<title>Node2&#45;&gt;Node3</title>
<g id="a_edge2_Node000002_Node000003"><a xlink:title=" ">
<path fill="none" stroke="#63b8ff" d="M314.29,-109.99C412.17,-117.08 591.03,-130.05 693.02,-137.45"/>
<polygon fill="#63b8ff" stroke="#63b8ff" points="692.73,-140.93 702.95,-138.17 693.23,-133.95 692.73,-140.93"/>
</a>
</g>
</g>
<!-- Node15 -->
<g id="Node000015" class="node">
<title>Node15</title>
<g id="a_Node000015"><a xlink:href="class_hud_look_and_feel.html#ae1d994a42a7915cfa11a72a664dabc79" target="_top" xlink:title="Applies the look and feel to ImGui.">
<polygon fill="white" stroke="#666666" points="469.5,-172 350,-172 350,-152 469.5,-152 469.5,-172"/>
<text text-anchor="middle" x="409.75" y="-158.5" font-family="Helvetica,sans-Serif" font-size="10.00">HudLookAndFeel::apply</text>
</a>
</g>
</g>
<!-- Node2&#45;&gt;Node15 -->
<g id="edge15_Node000002_Node000015" class="edge">
<title>Node2&#45;&gt;Node15</title>
<g id="a_edge15_Node000002_Node000015"><a xlink:title=" ">
<path fill="none" stroke="#63b8ff" d="M292.72,-121.49C316.67,-129.85 345.47,-139.9 368.38,-147.9"/>
<polygon fill="#63b8ff" stroke="#63b8ff" points="367.08,-151.16 377.67,-151.15 369.39,-144.55 367.08,-151.16"/>
</a>
</g>
</g>
<!-- Node17 -->
<g id="Node000017" class="node">
<title>Node17</title>
<g id="a_Node000017"><a xlink:href="class_hud_look_and_feel.html#a0ee2f510aa90c638dbac3b132d5da122" target="_top" xlink:title="Returns the singleton instance of the class.">
<polygon fill="white" stroke="#666666" points="464.62,-58 354.88,-58 354.88,-38 464.62,-38 464.62,-58"/>
<text text-anchor="middle" x="409.75" y="-44.5" font-family="Helvetica,sans-Serif" font-size="10.00">HudLookAndFeel::get</text>
</a>
</g>
</g>
<!-- Node2&#45;&gt;Node17 -->
<g id="edge20_Node000002_Node000017" class="edge">
<title>Node2&#45;&gt;Node17</title>
<g id="a_edge20_Node000002_Node000017"><a xlink:title=" ">
<path fill="none" stroke="#63b8ff" d="M292.72,-88.51C316.67,-80.15 345.47,-70.1 368.38,-62.1"/>
<polygon fill="#63b8ff" stroke="#63b8ff" points="369.39,-65.45 377.67,-58.85 367.08,-58.84 369.39,-65.45"/>
</a>
</g>
</g>
<!-- Node18 -->
<g id="Node000018" class="node">
<title>Node18</title>
<g id="a_Node000018"><a xlink:href="_gapi_8h.html#ab7514d88e65656ffa15ca33256518fe5" target="_top" xlink:title="Returns the graphic API used by the engine.">
<polygon fill="white" stroke="#666666" points="436.12,-20 383.38,-20 383.38,0 436.12,0 436.12,-20"/>
<text text-anchor="middle" x="409.75" y="-6.5" font-family="Helvetica,sans-Serif" font-size="10.00">getGAPI</text>
</a>
</g>
</g>
<!-- Node2&#45;&gt;Node18 -->
<g id="edge21_Node000002_Node000018" class="edge">
<title>Node2&#45;&gt;Node18</title>
<g id="a_edge21_Node000002_Node000018"><a xlink:title=" ">
<path fill="none" stroke="#63b8ff" d="M263.95,-88.76C283.96,-71.86 317.41,-45.59 350,-29 356.93,-25.47 364.65,-22.42 372.16,-19.85"/>
<polygon fill="#63b8ff" stroke="#63b8ff" points="372.98,-23.26 381.45,-16.9 370.86,-16.59 372.98,-23.26"/>
</a>
</g>
</g>
<!-- Node19 -->
<g id="Node000019" class="node">
<title>Node19</title>
<g id="a_Node000019"><a xlink:href="class_hud_look_and_feel.html#a35c49a50988ddee5c65494d503b1ee0f" target="_top" xlink:title="Sets the default font.">
<polygon fill="white" stroke="#666666" points="664.75,-85 505.5,-85 505.5,-65 664.75,-65 664.75,-85"/>
<text text-anchor="middle" x="585.12" y="-71.5" font-family="Helvetica,sans-Serif" font-size="10.00">HudLookAndFeel::setDefaultFont</text>
</a>
</g>
</g>
<!-- Node2&#45;&gt;Node19 -->
<g id="edge22_Node000002_Node000019" class="edge">
<title>Node2&#45;&gt;Node19</title>
<g id="a_edge22_Node000002_Node000019"><a xlink:title=" ">
<path fill="none" stroke="#63b8ff" d="M314.43,-98.89C366.18,-94.31 437.49,-87.99 493.79,-83"/>
<polygon fill="#63b8ff" stroke="#63b8ff" points="494.04,-86.49 503.69,-82.13 493.42,-79.52 494.04,-86.49"/>
</a>
</g>
</g>
<!-- Node20 -->
<g id="Node000020" class="node">
<title>Node20</title>
<g id="a_Node000020"><a xlink:href="class_hud_look_and_feel.html#aa631dd52d2ffbad2778d5813e357449e" target="_top" xlink:title="Sets the default font size.">
<polygon fill="white" stroke="#666666" points="840.5,-241 700.75,-241 700.75,-209 840.5,-209 840.5,-241"/>
<text text-anchor="start" x="708.75" y="-227.5" font-family="Helvetica,sans-Serif" font-size="10.00">HudLookAndFeel::setDefault</text>
<text text-anchor="middle" x="770.62" y="-215.5" font-family="Helvetica,sans-Serif" font-size="10.00">FontSize</text>
</a>
</g>
</g>
<!-- Node2&#45;&gt;Node20 -->
<g id="edge24_Node000002_Node000020" class="edge">
<title>Node2&#45;&gt;Node20</title>
<g id="a_edge24_Node000002_Node000020"><a xlink:title=" ">
<path fill="none" stroke="#63b8ff" d="M261.93,-121.3C281.21,-139.32 315.03,-167.57 350,-181 462.07,-224.04 602.63,-230 689.27,-228.72"/>
<polygon fill="#63b8ff" stroke="#63b8ff" points="689.16,-232.23 699.1,-228.54 689.03,-225.23 689.16,-232.23"/>
</a>
</g>
</g>
<!-- Node4 -->
<g id="Node000004" class="node">
<title>Node4</title>
<g id="a_Node000004"><a xlink:href="class_g_l_e_s_c_1_1_logger.html#a9b12ce53593be134b7d7dea62607d22d" target="_top" xlink:title=" ">
<polygon fill="white" stroke="#666666" points="1007.25,-115 903.5,-115 903.5,-95 1007.25,-95 1007.25,-115"/>
<text text-anchor="middle" x="955.38" y="-101.5" font-family="Helvetica,sans-Serif" font-size="10.00">GLESC::Logger::get</text>
</a>
</g>
</g>
<!-- Node3&#45;&gt;Node4 -->
<g id="edge3_Node000003_Node000004" class="edge">
<title>Node3&#45;&gt;Node4</title>
<g id="a_edge3_Node000003_Node000004"><a xlink:title=" ">
<path fill="none" stroke="#63b8ff" d="M822.05,-132.52C844.02,-127.95 869.97,-122.55 893.05,-117.75"/>
<polygon fill="#63b8ff" stroke="#63b8ff" points="893.56,-121.22 902.64,-115.76 892.13,-114.37 893.56,-121.22"/>
</a>
</g>
</g>
<!-- Node5 -->
<g id="Node000005" class="node">
<title>Node5</title>
<g id="a_Node000005"><a xlink:href="class_bin_path.html#a518dec5500f3666c8ecc54023e0c229d" target="_top" xlink:title=" ">
<polygon fill="white" stroke="#666666" points="1034.25,-191 876.5,-191 876.5,-171 1034.25,-171 1034.25,-191"/>
<text text-anchor="middle" x="955.38" y="-177.5" font-family="Helvetica,sans-Serif" font-size="10.00">BinPath::getExecutableDirectory</text>
</a>
</g>
</g>
<!-- Node3&#45;&gt;Node5 -->
<g id="edge4_Node000003_Node000005" class="edge">
<title>Node3&#45;&gt;Node5</title>
<g id="a_edge4_Node000003_Node000005"><a xlink:title=" ">
<path fill="none" stroke="#63b8ff" d="M822.05,-153.48C844.02,-158.05 869.97,-163.45 893.05,-168.25"/>
<polygon fill="#63b8ff" stroke="#63b8ff" points="892.13,-171.63 902.64,-170.24 893.56,-164.78 892.13,-171.63"/>
</a>
</g>
</g>
<!-- Node7 -->
<g id="Node000007" class="node">
<title>Node7</title>
<g id="a_Node000007"><a xlink:href="class_g_l_e_s_c_1_1_logger.html#a5fa42012f212a31fe7eb06c5ba93caba" target="_top" xlink:title="Display basic information Background – Black Text – White.">
<polygon fill="white" stroke="#666666" points="1008,-153 902.75,-153 902.75,-133 1008,-133 1008,-153"/>
<text text-anchor="middle" x="955.38" y="-139.5" font-family="Helvetica,sans-Serif" font-size="10.00">GLESC::Logger::info</text>
</a>
</g>
</g>
<!-- Node3&#45;&gt;Node7 -->
<g id="edge6_Node000003_Node000007" class="edge">
<title>Node3&#45;&gt;Node7</title>
<g id="a_edge6_Node000003_Node000007"><a xlink:title=" ">
<path fill="none" stroke="#63b8ff" d="M836.83,-143C854.49,-143 873.57,-143 891.12,-143"/>
<polygon fill="#63b8ff" stroke="#63b8ff" points="890.89,-146.5 900.89,-143 890.89,-139.5 890.89,-146.5"/>
</a>
</g>
</g>
<!-- Node12 -->
<g id="Node000012" class="node">
<title>Node12</title>
<g id="a_Node000012"><a xlink:href="class_hud_look_and_feel.html#a6186621c1bacc784027bfc788baa41c1" target="_top" xlink:title=" ">
<polygon fill="white" stroke="#666666" points="1019.62,-77 891.12,-77 891.12,-45 1019.62,-45 1019.62,-77"/>
<text text-anchor="start" x="899.12" y="-63.5" font-family="Helvetica,sans-Serif" font-size="10.00">HudLookAndFeel::validate</text>
<text text-anchor="middle" x="955.38" y="-51.5" font-family="Helvetica,sans-Serif" font-size="10.00">FontName</text>
</a>
</g>
</g>
<!-- Node3&#45;&gt;Node12 -->
<g id="edge12_Node000003_Node000012" class="edge">
<title>Node3&#45;&gt;Node12</title>
<g id="a_edge12_Node000003_Node000012"><a xlink:title=" ">
<path fill="none" stroke="#63b8ff" d="M808.19,-132.62C818.98,-128.8 830.56,-123.93 840.5,-118 858.89,-107.04 857.91,-96.61 876.5,-86 878.84,-84.66 881.26,-83.39 883.74,-82.17"/>
<polygon fill="#63b8ff" stroke="#63b8ff" points="885.1,-85.4 892.8,-78.12 882.24,-79.01 885.1,-85.4"/>
</a>
</g>
</g>
<!-- Node14 -->
<g id="Node000014" class="node">
<title>Node14</title>
<g id="a_Node000014"><a xlink:href="class_hud_look_and_feel.html#a4149f1a2cdc165caa2973732e4960278" target="_top" xlink:title=" ">
<polygon fill="white" stroke="#666666" points="1019.62,-241 891.12,-241 891.12,-209 1019.62,-209 1019.62,-241"/>
<text text-anchor="start" x="899.12" y="-227.5" font-family="Helvetica,sans-Serif" font-size="10.00">HudLookAndFeel::validate</text>
<text text-anchor="middle" x="955.38" y="-215.5" font-family="Helvetica,sans-Serif" font-size="10.00">FontSize</text>
</a>
</g>
</g>
<!-- Node3&#45;&gt;Node14 -->
<g id="edge14_Node000003_Node000014" class="edge">
<title>Node3&#45;&gt;Node14</title>
<g id="a_edge14_Node000003_Node000014"><a xlink:title=" ">
<path fill="none" stroke="#63b8ff" d="M810.4,-153.43C820.56,-156.98 831.26,-161.48 840.5,-167 859.13,-178.13 857.73,-189.1 876.5,-200 878.83,-201.35 881.24,-202.64 883.72,-203.87"/>
<polygon fill="#63b8ff" stroke="#63b8ff" points="882.2,-207.03 892.75,-207.96 885.09,-200.65 882.2,-207.03"/>
</a>
</g>
</g>
<!-- Node6 -->
<g id="Node000006" class="node">
<title>Node6</title>
<g id="a_Node000006"><a xlink:href="class_bin_path.html#afc63e7a8201f134535b3531659dd97a3" target="_top" xlink:title=" ">
<polygon fill="white" stroke="#666666" points="1209.25,-235 1070.25,-235 1070.25,-215 1209.25,-215 1209.25,-235"/>
<text text-anchor="middle" x="1139.75" y="-221.5" font-family="Helvetica,sans-Serif" font-size="10.00">BinPath::getExecutablePath</text>
</a>
</g>
</g>
<!-- Node5&#45;&gt;Node6 -->
<g id="edge5_Node000005_Node000006" class="edge">
<title>Node5&#45;&gt;Node6</title>
<g id="a_edge5_Node000005_Node000006"><a xlink:title=" ">
<path fill="none" stroke="#63b8ff" d="M999.6,-191.43C1025.05,-197.57 1057.49,-205.39 1084.64,-211.94"/>
<polygon fill="#63b8ff" stroke="#63b8ff" points="1083.51,-215.27 1094.05,-214.22 1085.15,-208.47 1083.51,-215.27"/>
</a>
</g>
</g>
<!-- Node8 -->
<g id="Node000008" class="node">
<title>Node8</title>
<g id="a_Node000008"><a xlink:href="class_g_l_e_s_c_1_1_logger.html#adcc4730c087b2df0b97cccc15557e432" target="_top" xlink:title=" ">
<polygon fill="white" stroke="#666666" points="1208.5,-159 1071,-159 1071,-127 1208.5,-127 1208.5,-159"/>
<text text-anchor="start" x="1079" y="-145.5" font-family="Helvetica,sans-Serif" font-size="10.00">GLESC::Logger::executeOn</text>
<text text-anchor="middle" x="1139.75" y="-133.5" font-family="Helvetica,sans-Serif" font-size="10.00">AllInputs</text>
</a>
</g>
</g>
<!-- Node7&#45;&gt;Node8 -->
<g id="edge7_Node000007_Node000008" class="edge">
<title>Node7&#45;&gt;Node8</title>
<g id="a_edge7_Node000007_Node000008"><a xlink:title=" ">
<path fill="none" stroke="#63b8ff" d="M1008.15,-143C1024.13,-143 1042.11,-143 1059.5,-143"/>
<polygon fill="#63b8ff" stroke="#63b8ff" points="1059.31,-146.5 1069.31,-143 1059.31,-139.5 1059.31,-146.5"/>
</a>
</g>
</g>
<!-- Node10 -->
<g id="Node000010" class="node">
<title>Node10</title>
<g id="a_Node000010"><a xlink:href="_debug_entity_data_h_u_d_8cpp.html#a9acf295be457442cac6bccc0bf75112c" target="_top" xlink:title=" ">
<polygon fill="white" stroke="#666666" points="1320.88,-112 1288.38,-112 1288.38,-92 1320.88,-92 1320.88,-112"/>
<text text-anchor="middle" x="1304.62" y="-98.5" font-family="Helvetica,sans-Serif" font-size="10.00">text</text>
</a>
</g>
</g>
<!-- Node7&#45;&gt;Node10 -->
<g id="edge11_Node000007_Node000010" class="edge">
<title>Node7&#45;&gt;Node10</title>
<g id="a_edge11_Node000007_Node000010"><a xlink:title=" ">
<path fill="none" stroke="#63b8ff" d="M996.96,-132.56C1018.58,-127.39 1045.71,-121.52 1070.25,-118 1144.5,-107.36 1233.09,-103.75 1276.68,-102.56"/>
<polygon fill="#63b8ff" stroke="#63b8ff" points="1276.55,-106.06 1286.46,-102.31 1276.38,-99.06 1276.55,-106.06"/>
</a>
</g>
</g>
<!-- Node11 -->
<g id="Node000011" class="node">
<title>Node11</title>
<g id="a_Node000011"><a xlink:href="class_i_logger.html#af378b37a56de2bad5c4ce2d0f7572f9c" target="_top" xlink:title="Display basic information Background – Black Text – White.">
<polygon fill="white" stroke="#666666" points="1174,-197 1105.5,-197 1105.5,-177 1174,-177 1174,-197"/>
<text text-anchor="middle" x="1139.75" y="-183.5" font-family="Helvetica,sans-Serif" font-size="10.00">ILogger::info</text>
</a>
</g>
</g>
<!-- Node7&#45;&gt;Node11 -->
<g id="edge10_Node000007_Node000011" class="edge">
<title>Node7&#45;&gt;Node11</title>
<g id="a_edge10_Node000007_Node000011"><a xlink:title=" ">
<path fill="none" stroke="#63b8ff" d="M999.6,-153.43C1028.14,-160.31 1065.46,-169.32 1094.26,-176.27"/>
<polygon fill="#63b8ff" stroke="#63b8ff" points="1093.23,-179.62 1103.77,-178.56 1094.87,-172.81 1093.23,-179.62"/>
</a>
</g>
</g>
<!-- Node9 -->
<g id="Node000009" class="node">
<title>Node9</title>
<g id="a_Node000009"><a xlink:href="class_concurrent_queue.html#a7d61d602747cee9adf97076d2781023c" target="_top" xlink:title=" ">
<polygon fill="white" stroke="#666666" points="1364,-153 1245.25,-153 1245.25,-133 1364,-133 1364,-153"/>
<text text-anchor="middle" x="1304.62" y="-139.5" font-family="Helvetica,sans-Serif" font-size="10.00">ConcurrentQueue::push</text>
</a>
</g>
</g>
<!-- Node8&#45;&gt;Node9 -->
<g id="edge8_Node000008_Node000009" class="edge">
<title>Node8&#45;&gt;Node9</title>
<g id="a_edge8_Node000008_Node000009"><a xlink:title=" ">
<path fill="none" stroke="#63b8ff" d="M1208.88,-143C1217,-143 1225.3,-143 1233.44,-143"/>
<polygon fill="#63b8ff" stroke="#63b8ff" points="1233.31,-146.5 1243.31,-143 1233.31,-139.5 1233.31,-146.5"/>
</a>
</g>
</g>
<!-- Node8&#45;&gt;Node10 -->
<g id="edge9_Node000008_Node000010" class="edge">
<title>Node8&#45;&gt;Node10</title>
<g id="a_edge9_Node000008_Node000010"><a xlink:title=" ">
<path fill="none" stroke="#63b8ff" d="M1206.06,-126.56C1230.98,-120.29 1258,-113.49 1277.27,-108.63"/>
<polygon fill="#63b8ff" stroke="#63b8ff" points="1277.87,-112.09 1286.71,-106.26 1276.16,-105.3 1277.87,-112.09"/>
</a>
</g>
</g>
<!-- Node13 -->
<g id="Node000013" class="node">
<title>Node13</title>
<g id="a_Node000013"><a xlink:href="class_g_l_e_s_c_1_1_stringer.html#ae6ebbc41fe6bedb05cea879bb93fd378" target="_top" xlink:title="Checks if a string contains a substring.">
<polygon fill="white" stroke="#666666" points="1205.5,-71 1074,-71 1074,-51 1205.5,-51 1205.5,-71"/>
<text text-anchor="middle" x="1139.75" y="-57.5" font-family="Helvetica,sans-Serif" font-size="10.00">GLESC::Stringer::contains</text>
</a>
</g>
</g>
<!-- Node12&#45;&gt;Node13 -->
<g id="edge13_Node000012_Node000013" class="edge">
<title>Node12&#45;&gt;Node13</title>
<g id="a_edge13_Node000012_Node000013"><a xlink:title=" ">
<path fill="none" stroke="#63b8ff" d="M1019.9,-61C1033.61,-61 1048.24,-61 1062.38,-61"/>
<polygon fill="#63b8ff" stroke="#63b8ff" points="1062.08,-64.5 1072.08,-61 1062.08,-57.5 1062.08,-64.5"/>
</a>
</g>
</g>
<!-- Node16 -->
<g id="Node000016" class="node">
<title>Node16</title>
<g id="a_Node000016"><a xlink:href="class_hud_look_and_feel.html#a815b718b209fe097df0cde4293dc39b8" target="_top" xlink:title=" ">
<polygon fill="white" stroke="#666666" points="649.75,-172 520.5,-172 520.5,-152 649.75,-152 649.75,-172"/>
<text text-anchor="middle" x="585.12" y="-158.5" font-family="Helvetica,sans-Serif" font-size="10.00">HudLookAndFeel::getFont</text>
</a>
</g>
</g>
<!-- Node15&#45;&gt;Node16 -->
<g id="edge16_Node000015_Node000016" class="edge">
<title>Node15&#45;&gt;Node16</title>
<g id="a_edge16_Node000015_Node000016"><a xlink:title=" ">
<path fill="none" stroke="#63b8ff" d="M469.93,-162C482.45,-162 495.82,-162 508.85,-162"/>
<polygon fill="#63b8ff" stroke="#63b8ff" points="508.66,-165.5 518.66,-162 508.66,-158.5 508.66,-165.5"/>
</a>
</g>
</g>
<!-- Node16&#45;&gt;Node3 -->
<g id="edge17_Node000016_Node000003" class="edge">
<title>Node16&#45;&gt;Node3</title>
<g id="a_edge17_Node000016_Node000003"><a xlink:title=" ">
<path fill="none" stroke="#63b8ff" d="M650.05,-155.38C663.92,-153.94 678.73,-152.41 693.04,-150.93"/>
<polygon fill="#63b8ff" stroke="#63b8ff" points="693.29,-154.42 702.87,-149.91 692.56,-147.46 693.29,-154.42"/>
</a>
</g>
</g>
<!-- Node16&#45;&gt;Node12 -->
<g id="edge18_Node000016_Node000012" class="edge">
<title>Node16&#45;&gt;Node12</title>
<g id="a_edge18_Node000016_Node000012"><a xlink:title=" ">
<path fill="none" stroke="#63b8ff" d="M615.62,-151.53C638.65,-143.52 671.55,-132.45 700.75,-124 760.41,-106.73 828.79,-89.91 879.5,-78.01"/>
<polygon fill="#63b8ff" stroke="#63b8ff" points="880.28,-81.42 889.22,-75.73 878.69,-74.6 880.28,-81.42"/>
</a>
</g>
</g>
<!-- Node16&#45;&gt;Node14 -->
<g id="edge19_Node000016_Node000014" class="edge">
<title>Node16&#45;&gt;Node14</title>
<g id="a_edge19_Node000016_Node000014"><a xlink:title=" ">
<path fill="none" stroke="#63b8ff" d="M650.09,-170.33C701.66,-177.34 775.95,-188.11 840.5,-200 853.12,-202.33 866.48,-205.03 879.44,-207.79"/>
<polygon fill="#63b8ff" stroke="#63b8ff" points="878.7,-211.21 889.21,-209.9 880.17,-204.37 878.7,-211.21"/>
</a>
</g>
</g>
<!-- Node19&#45;&gt;Node12 -->
<g id="edge23_Node000019_Node000012" class="edge">
<title>Node19&#45;&gt;Node12</title>
<g id="a_edge23_Node000019_Node000012"><a xlink:title=" ">
<path fill="none" stroke="#63b8ff" d="M665.12,-72C728.59,-69.58 817.12,-66.22 879.47,-63.85"/>
<polygon fill="#63b8ff" stroke="#63b8ff" points="879.42,-67.35 889.28,-63.47 879.16,-60.36 879.42,-67.35"/>
</a>
</g>
</g>
<!-- Node20&#45;&gt;Node14 -->
<g id="edge25_Node000020_Node000014" class="edge">
<title>Node20&#45;&gt;Node14</title>
<g id="a_edge25_Node000020_Node000014"><a xlink:title=" ">
<path fill="none" stroke="#63b8ff" d="M840.98,-225C853.5,-225 866.61,-225 879.29,-225"/>
<polygon fill="#63b8ff" stroke="#63b8ff" points="879.27,-228.5 889.27,-225 879.27,-221.5 879.27,-228.5"/>
</a>
</g>
</g>
</g>
</svg>

<g id="navigator" transform="translate(0 0)" fill="#404254">
  <rect fill="#f2f5e9" fill-opacity="0.5" stroke="#606060" stroke-width=".5" x="0" y="0" width="60" height="60"/>
  <use id="zoomplus" xlink:href="#zoomPlus" x="17" y="9" onmousedown="handleZoom(evt,'in')"/>
  <use id="zoomminus" xlink:href="#zoomMin" x="42" y="9" onmousedown="handleZoom(evt,'out')"/>
  <use id="reset" xlink:href="#resetDef" x="30" y="36" onmousedown="handleReset()"/>
   <use id="arrowup" xlink:href="#arrowUp" x="0" y="0" onmousedown="handlePan(0,-1)"/>
  <use id="arrowright" xlink:href="#arrowRight" x="0" y="0" onmousedown="handlePan(1,0)"/>
  <use id="arrowdown" xlink:href="#arrowDown" x="0" y="0" onmousedown="handlePan(0,1)"/>
  <use id="arrowleft" xlink:href="#arrowLeft" x="0" y="0" onmousedown="handlePan(-1,0)"/>
</g>
<svg viewBox="0 0 15 15" width="100%" height="30px" preserveAspectRatio="xMaxYMin meet">
 <g id="arrow_out" transform="scale(0.3 0.3)">
  <a xlink:href="class_g_l_e_s_c_1_1_h_u_d_1_1_h_u_d_manager_a025f565a5346b1cfdd80ce5fd79f8046_cgraph_org.svg" target="_base">
   <rect id="button" ry="5" rx="5" y="6" x="6" height="38" width="38"
        fill="#f2f5e9" fill-opacity="0.5" stroke="#606060" stroke-width="1.0"/>
   <path id="arrow"
     d="M 11.500037,31.436501 C 11.940474,20.09759 22.043105,11.32322 32.158766,21.979434 L 37.068811,17.246167 C 37.068811,17.246167 37.088388,32 37.088388,32 L 22.160133,31.978069 C 22.160133,31.978069 26.997745,27.140456 26.997745,27.140456 C 18.528582,18.264221 13.291696,25.230495 11.500037,31.436501 z"
     style="fill:#404040;"/>
  </a>
 </g>
</svg>

<style type='text/css'>
<![CDATA[
[data-mouse-over-selected='false'] { opacity: 0.7; }
[data-mouse-over-selected='true']  { opacity: 1.0; }
]]>
</style>
<script type="application/ecmascript"><![CDATA[
document.addEventListener('DOMContentLoaded', (event) => {
  highlightEdges();
  highlightAdjacentNodes();
});
]]></script>
</svg>
