<?xml version="1.0" encoding="UTF-8" standalone="no"?>
<!DOCTYPE svg PUBLIC "-//W3C//DTD SVG 1.1//EN"
 "http://www.w3.org/Graphics/SVG/1.1/DTD/svg11.dtd">
<!-- Generated by graphviz version 11.0.0 (20240428.1522)
 -->
<!-- Title: GLESC::Math::VectorMixedAlgorithms::areCollinear Pages: 1 -->
<svg width="1002pt" height="140pt"
 viewBox="0.00 0.00 1001.75 140.00" xmlns="http://www.w3.org/2000/svg" xmlns:xlink="http://www.w3.org/1999/xlink">
<g id="graph0" class="graph" transform="scale(1 1) rotate(0) translate(4 136)">
<title>GLESC::Math::VectorMixedAlgorithms::areCollinear</title>
<!-- Node1 -->
<g id="Node000001" class="node">
<title>Node1</title>
<g id="a_Node000001"><a xlink:title="Checks if points are collinear.">
<polygon fill="#999999" stroke="#666666" points="137.5,-82 0,-82 0,-50 137.5,-50 137.5,-82"/>
<text text-anchor="start" x="8" y="-68.5" font-family="Helvetica,sans-Serif" font-size="10.00">GLESC::Math::VectorMixed</text>
<text text-anchor="middle" x="68.75" y="-56.5" font-family="Helvetica,sans-Serif" font-size="10.00">Algorithms::areCollinear</text>
</a>
</g>
</g>
<!-- Node2 -->
<g id="Node000002" class="node">
<title>Node2</title>
<g id="a_Node000002"><a xlink:href="class_g_l_e_s_c_1_1_math_1_1_vector_mixed_algorithms.html#a017c78aceeac4cc6bacc66d88f3ba7b4" target="_top" xlink:title="Checks if points are collinear.">
<polygon fill="white" stroke="#666666" points="311,-82 173.5,-82 173.5,-50 311,-50 311,-82"/>
<text text-anchor="start" x="181.5" y="-68.5" font-family="Helvetica,sans-Serif" font-size="10.00">GLESC::Math::VectorMixed</text>
<text text-anchor="middle" x="242.25" y="-56.5" font-family="Helvetica,sans-Serif" font-size="10.00">Algorithms::areCollinear</text>
</a>
</g>
</g>
<!-- Node1&#45;&gt;Node2 -->
<g id="edge1_Node000001_Node000002" class="edge">
<title>Node1&#45;&gt;Node2</title>
<g id="a_edge1_Node000001_Node000002"><a xlink:title=" ">
<path fill="none" stroke="#63b8ff" d="M137.53,-66C145.49,-66 153.66,-66 161.75,-66"/>
<polygon fill="#63b8ff" stroke="#63b8ff" points="161.6,-69.5 171.6,-66 161.6,-62.5 161.6,-69.5"/>
</a>
</g>
</g>
<!-- Node3 -->
<g id="Node000003" class="node">
<title>Node3</title>
<g id="a_Node000003"><a xlink:href="class_g_l_e_s_c_1_1_math_1_1_vector_algorithms.html#ab041da9d339dfe80b80c6f0bdf5dbfd4" target="_top" xlink:title="Computes the cross product of two vectors.">
<polygon fill="white" stroke="#666666" points="504.75,-132 347,-132 347,-100 504.75,-100 504.75,-132"/>
<text text-anchor="start" x="355" y="-118.5" font-family="Helvetica,sans-Serif" font-size="10.00">GLESC::Math::VectorAlgorithms</text>
<text text-anchor="middle" x="425.88" y="-106.5" font-family="Helvetica,sans-Serif" font-size="10.00">::crossProduct</text>
</a>
</g>
</g>
<!-- Node2&#45;&gt;Node3 -->
<g id="edge2_Node000002_Node000003" class="edge">
<title>Node2&#45;&gt;Node3</title>
<g id="a_edge2_Node000002_Node000003"><a xlink:title=" ">
<path fill="none" stroke="#63b8ff" d="M302.97,-82.44C319.34,-86.95 337.24,-91.88 354.16,-96.53"/>
<polygon fill="#63b8ff" stroke="#63b8ff" points="353.09,-99.87 363.66,-99.15 354.95,-93.12 353.09,-99.87"/>
</a>
</g>
</g>
<!-- Node4 -->
<g id="Node000004" class="node">
<title>Node4</title>
<g id="a_Node000004"><a xlink:href="class_g_l_e_s_c_1_1_math_1_1_vector_algorithms.html#a679d94d73e405dc11ea9140e71f4ef4f" target="_top" xlink:title="Checks if a vector is zero.">
<polygon fill="white" stroke="#666666" points="504.75,-82 347,-82 347,-50 504.75,-50 504.75,-82"/>
<text text-anchor="start" x="355" y="-68.5" font-family="Helvetica,sans-Serif" font-size="10.00">GLESC::Math::VectorAlgorithms</text>
<text text-anchor="middle" x="425.88" y="-56.5" font-family="Helvetica,sans-Serif" font-size="10.00">::isZero</text>
</a>
</g>
</g>
<!-- Node2&#45;&gt;Node4 -->
<g id="edge3_Node000002_Node000004" class="edge">
<title>Node2&#45;&gt;Node4</title>
<g id="a_edge3_Node000002_Node000004"><a xlink:title=" ">
<path fill="none" stroke="#63b8ff" d="M311.4,-66C319.2,-66 327.23,-66 335.26,-66"/>
<polygon fill="#63b8ff" stroke="#63b8ff" points="335.06,-69.5 345.06,-66 335.06,-62.5 335.06,-69.5"/>
</a>
</g>
</g>
<!-- Node9 -->
<g id="Node000009" class="node">
<title>Node9</title>
<g id="a_Node000009"><a xlink:href="class_g_l_e_s_c_1_1_math_1_1_vector_algorithms.html#a3d7793a7054aae76fe23e92368659e0b" target="_top" xlink:title="Subtracts two vectors.">
<polygon fill="white" stroke="#666666" points="504.75,-32 347,-32 347,0 504.75,0 504.75,-32"/>
<text text-anchor="start" x="355" y="-18.5" font-family="Helvetica,sans-Serif" font-size="10.00">GLESC::Math::VectorAlgorithms</text>
<text text-anchor="middle" x="425.88" y="-6.5" font-family="Helvetica,sans-Serif" font-size="10.00">::vectorSub</text>
</a>
</g>
</g>
<!-- Node2&#45;&gt;Node9 -->
<g id="edge8_Node000002_Node000009" class="edge">
<title>Node2&#45;&gt;Node9</title>
<g id="a_edge8_Node000002_Node000009"><a xlink:title=" ">
<path fill="none" stroke="#63b8ff" d="M302.97,-49.56C319.34,-45.05 337.24,-40.12 354.16,-35.47"/>
<polygon fill="#63b8ff" stroke="#63b8ff" points="354.95,-38.88 363.66,-32.85 353.09,-32.13 354.95,-38.88"/>
</a>
</g>
</g>
<!-- Node5 -->
<g id="Node000005" class="node">
<title>Node5</title>
<g id="a_Node000005"><a xlink:href="class_g_l_e_s_c_1_1_math_1_1_vector_algorithms.html#a3249cf40f6140efca533d2f041f909d3" target="_top" xlink:title="Equality operator for vectors.">
<polygon fill="white" stroke="#666666" points="715,-98 540.75,-98 540.75,-78 715,-78 715,-98"/>
<text text-anchor="middle" x="627.88" y="-84.5" font-family="Helvetica,sans-Serif" font-size="10.00">GLESC::Math::VectorAlgorithms::eq</text>
</a>
</g>
</g>
<!-- Node4&#45;&gt;Node5 -->
<g id="edge4_Node000004_Node000005" class="edge">
<title>Node4&#45;&gt;Node5</title>
<g id="a_edge4_Node000004_Node000005"><a xlink:title=" ">
<path fill="none" stroke="#63b8ff" d="M505.06,-74.6C512.95,-75.47 521.04,-76.36 529.1,-77.24"/>
<polygon fill="#63b8ff" stroke="#63b8ff" points="528.64,-80.72 538.96,-78.33 529.41,-73.76 528.64,-80.72"/>
</a>
</g>
</g>
<!-- Node8 -->
<g id="Node000008" class="node">
<title>Node8</title>
<g id="a_Node000008"><a xlink:href="class_g_l_e_s_c_1_1_math_1_1_vector_algorithms.html#a2f0bed018a4d5856d507a85de181de62" target="_top" xlink:title=" ">
<polygon fill="white" stroke="#666666" points="706.75,-60 549,-60 549,-28 706.75,-28 706.75,-60"/>
<text text-anchor="start" x="557" y="-46.5" font-family="Helvetica,sans-Serif" font-size="10.00">GLESC::Math::VectorAlgorithms</text>
<text text-anchor="middle" x="627.88" y="-34.5" font-family="Helvetica,sans-Serif" font-size="10.00">::vectorFill</text>
</a>
</g>
</g>
<!-- Node4&#45;&gt;Node8 -->
<g id="edge7_Node000004_Node000008" class="edge">
<title>Node4&#45;&gt;Node8</title>
<g id="a_edge7_Node000004_Node000008"><a xlink:title=" ">
<path fill="none" stroke="#63b8ff" d="M505.06,-57.4C515.71,-56.23 526.71,-55.02 537.54,-53.83"/>
<polygon fill="#63b8ff" stroke="#63b8ff" points="537.68,-57.33 547.24,-52.76 536.92,-50.37 537.68,-57.33"/>
</a>
</g>
</g>
<!-- Node6 -->
<g id="Node000006" class="node">
<title>Node6</title>
<g id="a_Node000006"><a xlink:href="namespace_g_l_e_s_c_1_1_math.html#aee25910dbba06d09d9df14d03933ace1" target="_top" xlink:title="Compares two values for equality.">
<polygon fill="white" stroke="#666666" points="844.25,-98 751,-98 751,-78 844.25,-78 844.25,-98"/>
<text text-anchor="middle" x="797.62" y="-84.5" font-family="Helvetica,sans-Serif" font-size="10.00">GLESC::Math::eq</text>
</a>
</g>
</g>
<!-- Node5&#45;&gt;Node6 -->
<g id="edge5_Node000005_Node000006" class="edge">
<title>Node5&#45;&gt;Node6</title>
<g id="a_edge5_Node000005_Node000006"><a xlink:title=" ">
<path fill="none" stroke="#63b8ff" d="M715.21,-88C723.31,-88 731.38,-88 739.12,-88"/>
<polygon fill="#63b8ff" stroke="#63b8ff" points="739.06,-91.5 749.06,-88 739.06,-84.5 739.06,-91.5"/>
</a>
</g>
</g>
<!-- Node7 -->
<g id="Node000007" class="node">
<title>Node7</title>
<g id="a_Node000007"><a xlink:href="namespace_g_l_e_s_c_1_1_math.html#acd429163efe906cd22916cc75ccb2421" target="_top" xlink:title="Epsilon getter with precision of a given template type.">
<polygon fill="white" stroke="#666666" points="993.75,-98 880.25,-98 880.25,-78 993.75,-78 993.75,-98"/>
<text text-anchor="middle" x="937" y="-84.5" font-family="Helvetica,sans-Serif" font-size="10.00">GLESC::Math::epsilon</text>
</a>
</g>
</g>
<!-- Node6&#45;&gt;Node7 -->
<g id="edge6_Node000006_Node000007" class="edge">
<title>Node6&#45;&gt;Node7</title>
<g id="a_edge6_Node000006_Node000007"><a xlink:title=" ">
<path fill="none" stroke="#63b8ff" d="M844.37,-88C852.11,-88 860.3,-88 868.46,-88"/>
<polygon fill="#63b8ff" stroke="#63b8ff" points="868.43,-91.5 878.43,-88 868.43,-84.5 868.43,-91.5"/>
</a>
</g>
</g>
</g>
</svg>
