<?xml version="1.0" encoding="UTF-8" standalone="no"?>
<!DOCTYPE svg PUBLIC "-//W3C//DTD SVG 1.1//EN"
 "http://www.w3.org/Graphics/SVG/1.1/DTD/svg11.dtd">
<!-- Generated by graphviz version 11.0.0 (20240428.1522)
 -->
<!-- Title: GLESC::Math::VectorAlgorithms::vectorSub Pages: 1 -->
<svg width="762pt" height="390pt"
 viewBox="0.00 0.00 762.25 390.00" xmlns="http://www.w3.org/2000/svg" xmlns:xlink="http://www.w3.org/1999/xlink">
<g id="graph0" class="graph" transform="scale(1 1) rotate(0) translate(4 386)">
<title>GLESC::Math::VectorAlgorithms::vectorSub</title>
<!-- Node1 -->
<g id="Node000001" class="node">
<title>Node1</title>
<g id="a_Node000001"><a xlink:title="Subtracts two vectors.">
<polygon fill="#999999" stroke="#666666" points="754.25,-157 596.5,-157 596.5,-125 754.25,-125 754.25,-157"/>
<text text-anchor="start" x="604.5" y="-143.5" font-family="Helvetica,sans-Serif" font-size="10.00">GLESC::Math::VectorAlgorithms</text>
<text text-anchor="middle" x="675.38" y="-131.5" font-family="Helvetica,sans-Serif" font-size="10.00">::vectorSub</text>
</a>
</g>
</g>
<!-- Node2 -->
<g id="Node000002" class="node">
<title>Node2</title>
<g id="a_Node000002"><a xlink:href="class_g_l_e_s_c_1_1_math_1_1_vector_mixed_algorithms.html#a017c78aceeac4cc6bacc66d88f3ba7b4" target="_top" xlink:title="Checks if points are collinear.">
<polygon fill="white" stroke="#666666" points="550.38,-307 412.88,-307 412.88,-275 550.38,-275 550.38,-307"/>
<text text-anchor="start" x="420.88" y="-293.5" font-family="Helvetica,sans-Serif" font-size="10.00">GLESC::Math::VectorMixed</text>
<text text-anchor="middle" x="481.62" y="-281.5" font-family="Helvetica,sans-Serif" font-size="10.00">Algorithms::areCollinear</text>
</a>
</g>
</g>
<!-- Node1&#45;&gt;Node2 -->
<g id="edge1_Node000001_Node000002" class="edge">
<title>Node1&#45;&gt;Node2</title>
<g id="a_edge1_Node000001_Node000002"><a xlink:title=" ">
<path fill="none" stroke="#63b8ff" d="M649.01,-165.25C626.53,-186.26 592.41,-216.96 560.5,-241 544.46,-253.09 525.52,-265.29 510.33,-274.62"/>
<polygon fill="#63b8ff" stroke="#63b8ff" points="651.33,-167.88 656.21,-158.48 646.53,-162.78 651.33,-167.88"/>
</a>
</g>
</g>
<!-- Node6 -->
<g id="Node000006" class="node">
<title>Node6</title>
<g id="a_Node000006"><a xlink:href="class_g_l_e_s_c_1_1_math_1_1_vector_algorithms.html#a7ebf0b6ba478ecc9c795cc178c80256d" target="_top" xlink:title="Computes the distance between two vectors.">
<polygon fill="white" stroke="#666666" points="560.5,-232 402.75,-232 402.75,-200 560.5,-200 560.5,-232"/>
<text text-anchor="start" x="410.75" y="-218.5" font-family="Helvetica,sans-Serif" font-size="10.00">GLESC::Math::VectorAlgorithms</text>
<text text-anchor="middle" x="481.62" y="-206.5" font-family="Helvetica,sans-Serif" font-size="10.00">::distance</text>
</a>
</g>
</g>
<!-- Node1&#45;&gt;Node6 -->
<g id="edge5_Node000001_Node000006" class="edge">
<title>Node1&#45;&gt;Node6</title>
<g id="a_edge5_Node000001_Node000006"><a xlink:title=" ">
<path fill="none" stroke="#63b8ff" d="M628.97,-162.22C608.29,-171.55 583.37,-182.34 560.5,-191 552.8,-193.92 544.59,-196.8 536.5,-199.51"/>
<polygon fill="#63b8ff" stroke="#63b8ff" points="630.34,-165.44 637.99,-158.12 627.44,-159.07 630.34,-165.44"/>
</a>
</g>
</g>
<!-- Node10 -->
<g id="Node000010" class="node">
<title>Node10</title>
<g id="a_Node000010"><a xlink:href="class_g_l_e_s_c_1_1_math_1_1_vector_algorithms.html#aac1a177987e059f58c0ff6829cc6efc8" target="_top" xlink:title="Computes the squared distance between two vectors.">
<polygon fill="white" stroke="#666666" points="560.5,-182 402.75,-182 402.75,-150 560.5,-150 560.5,-182"/>
<text text-anchor="start" x="410.75" y="-168.5" font-family="Helvetica,sans-Serif" font-size="10.00">GLESC::Math::VectorAlgorithms</text>
<text text-anchor="middle" x="481.62" y="-156.5" font-family="Helvetica,sans-Serif" font-size="10.00">::distanceSquared</text>
</a>
</g>
</g>
<!-- Node1&#45;&gt;Node10 -->
<g id="edge9_Node000001_Node000010" class="edge">
<title>Node1&#45;&gt;Node10</title>
<g id="a_edge9_Node000001_Node000010"><a xlink:title=" ">
<path fill="none" stroke="#63b8ff" d="M584.87,-152.67C576.89,-153.71 568.84,-154.76 560.95,-155.79"/>
<polygon fill="#63b8ff" stroke="#63b8ff" points="585.14,-156.16 594.61,-151.4 584.24,-149.22 585.14,-156.16"/>
</a>
</g>
</g>
<!-- Node12 -->
<g id="Node000012" class="node">
<title>Node12</title>
<g id="a_Node000012"><a xlink:href="class_g_l_e_s_c_1_1_math_1_1_matrix_mixed_algorithms.html#a7ededab6ed7bb33c8662b3b9ae8ab944" target="_top" xlink:title="Calculate the view matrix from the eye, target, and up vectors.">
<polygon fill="white" stroke="#666666" points="549.62,-132 413.62,-132 413.62,-100 549.62,-100 549.62,-132"/>
<text text-anchor="start" x="421.62" y="-118.5" font-family="Helvetica,sans-Serif" font-size="10.00">GLESC::Math::MatrixMixed</text>
<text text-anchor="middle" x="481.62" y="-106.5" font-family="Helvetica,sans-Serif" font-size="10.00">Algorithms::lookAt3D</text>
</a>
</g>
</g>
<!-- Node1&#45;&gt;Node12 -->
<g id="edge11_Node000001_Node000012" class="edge">
<title>Node1&#45;&gt;Node12</title>
<g id="a_edge11_Node000001_Node000012"><a xlink:title=" ">
<path fill="none" stroke="#63b8ff" d="M584.88,-129.33C573.11,-127.8 561.22,-126.25 549.9,-124.77"/>
<polygon fill="#63b8ff" stroke="#63b8ff" points="584.24,-132.78 594.61,-130.6 585.14,-125.84 584.24,-132.78"/>
</a>
</g>
</g>
<!-- Node13 -->
<g id="Node000013" class="node">
<title>Node13</title>
<g id="a_Node000013"><a xlink:href="class_g_l_e_s_c_1_1_math_1_1_vector.html#a34b5bb657f11e1cb62c3653b8cf9d295" target="_top" xlink:title="Overloads the &#39;&#45;&#39; operator for vector subtraction.">
<polygon fill="white" stroke="#666666" points="537.25,-82 426,-82 426,-50 537.25,-50 537.25,-82"/>
<text text-anchor="start" x="434" y="-68.5" font-family="Helvetica,sans-Serif" font-size="10.00">GLESC::Math::Vector</text>
<text text-anchor="middle" x="481.62" y="-56.5" font-family="Helvetica,sans-Serif" font-size="10.00">::operator&#45;</text>
</a>
</g>
</g>
<!-- Node1&#45;&gt;Node13 -->
<g id="edge12_Node000001_Node000013" class="edge">
<title>Node1&#45;&gt;Node13</title>
<g id="a_edge12_Node000001_Node000013"><a xlink:title=" ">
<path fill="none" stroke="#63b8ff" d="M628.97,-119.78C608.29,-110.45 583.37,-99.66 560.5,-91 552.8,-88.08 544.59,-85.2 536.5,-82.49"/>
<polygon fill="#63b8ff" stroke="#63b8ff" points="627.44,-122.93 637.99,-123.88 630.34,-116.56 627.44,-122.93"/>
</a>
</g>
</g>
<!-- Node14 -->
<g id="Node000014" class="node">
<title>Node14</title>
<g id="a_Node000014"><a xlink:href="class_g_l_e_s_c_1_1_math_1_1_vector.html#aa22858a880933e1e2925bb7242ecadc1" target="_top" xlink:title="In&#45;place subtraction with another vector.">
<polygon fill="white" stroke="#666666" points="537.25,-32 426,-32 426,0 537.25,0 537.25,-32"/>
<text text-anchor="start" x="434" y="-18.5" font-family="Helvetica,sans-Serif" font-size="10.00">GLESC::Math::Vector</text>
<text text-anchor="middle" x="481.62" y="-6.5" font-family="Helvetica,sans-Serif" font-size="10.00">::operator&#45;=</text>
</a>
</g>
</g>
<!-- Node1&#45;&gt;Node14 -->
<g id="edge13_Node000001_Node000014" class="edge">
<title>Node1&#45;&gt;Node14</title>
<g id="a_edge13_Node000001_Node000014"><a xlink:title=" ">
<path fill="none" stroke="#63b8ff" d="M652.27,-116.52C630.8,-94.05 596.27,-61.27 560.5,-41 553.34,-36.94 545.42,-33.44 537.46,-30.44"/>
<polygon fill="#63b8ff" stroke="#63b8ff" points="649.68,-118.87 659.07,-123.77 654.78,-114.08 649.68,-118.87"/>
</a>
</g>
</g>
<!-- Node3 -->
<g id="Node000003" class="node">
<title>Node3</title>
<g id="a_Node000003"><a xlink:href="class_g_l_e_s_c_1_1_math_1_1_plane.html#a503abb5ac4797527f02056f1223a0166" target="_top" xlink:title="Construct a new Plane object from three distinct points.">
<polygon fill="white" stroke="#666666" points="351.75,-382 244.25,-382 244.25,-350 351.75,-350 351.75,-382"/>
<text text-anchor="start" x="252.25" y="-368.5" font-family="Helvetica,sans-Serif" font-size="10.00">GLESC::Math::Plane</text>
<text text-anchor="middle" x="298" y="-356.5" font-family="Helvetica,sans-Serif" font-size="10.00">::Plane</text>
</a>
</g>
</g>
<!-- Node2&#45;&gt;Node3 -->
<g id="edge2_Node000002_Node000003" class="edge">
<title>Node2&#45;&gt;Node3</title>
<g id="a_edge2_Node000002_Node000003"><a xlink:title=" ">
<path fill="none" stroke="#63b8ff" d="M434.34,-312.08C413.77,-321.25 389.17,-331.95 366.75,-341 359.66,-343.86 352.1,-346.78 344.7,-349.56"/>
<polygon fill="#63b8ff" stroke="#63b8ff" points="435.63,-315.34 443.32,-308.05 432.77,-308.95 435.63,-315.34"/>
</a>
</g>
</g>
<!-- Node4 -->
<g id="Node000004" class="node">
<title>Node4</title>
<g id="a_Node000004"><a xlink:href="class_g_l_e_s_c_1_1_math_1_1_vector_mixed_algorithms.html#af98aa7b91b091b447e76b467d60a7114" target="_top" xlink:title="Checks if points are collinear.">
<polygon fill="white" stroke="#666666" points="366.75,-332 229.25,-332 229.25,-300 366.75,-300 366.75,-332"/>
<text text-anchor="start" x="237.25" y="-318.5" font-family="Helvetica,sans-Serif" font-size="10.00">GLESC::Math::VectorMixed</text>
<text text-anchor="middle" x="298" y="-306.5" font-family="Helvetica,sans-Serif" font-size="10.00">Algorithms::areCollinear</text>
</a>
</g>
</g>
<!-- Node2&#45;&gt;Node4 -->
<g id="edge3_Node000002_Node000004" class="edge">
<title>Node2&#45;&gt;Node4</title>
<g id="a_edge3_Node000002_Node000004"><a xlink:title=" ">
<path fill="none" stroke="#63b8ff" d="M401.25,-301.93C389.91,-303.49 378.33,-305.08 367.23,-306.61"/>
<polygon fill="#63b8ff" stroke="#63b8ff" points="401.55,-305.42 410.98,-300.59 400.59,-298.48 401.55,-305.42"/>
</a>
</g>
</g>
<!-- Node5 -->
<g id="Node000005" class="node">
<title>Node5</title>
<g id="a_Node000005"><a xlink:href="class_g_l_e_s_c_1_1_math_1_1_vector.html#aa9d1c92dac095666f8eb521b1e5a541d" target="_top" xlink:title="Checks if the current vector is a scalar multiple of some vectors.">
<polygon fill="white" stroke="#666666" points="353.62,-282 242.38,-282 242.38,-250 353.62,-250 353.62,-282"/>
<text text-anchor="start" x="250.38" y="-268.5" font-family="Helvetica,sans-Serif" font-size="10.00">GLESC::Math::Vector</text>
<text text-anchor="middle" x="298" y="-256.5" font-family="Helvetica,sans-Serif" font-size="10.00">::isCollinear</text>
</a>
</g>
</g>
<!-- Node2&#45;&gt;Node5 -->
<g id="edge4_Node000002_Node000005" class="edge">
<title>Node2&#45;&gt;Node5</title>
<g id="a_edge4_Node000002_Node000005"><a xlink:title=" ">
<path fill="none" stroke="#63b8ff" d="M401.48,-280.11C385.44,-277.9 368.91,-275.62 353.92,-273.56"/>
<polygon fill="#63b8ff" stroke="#63b8ff" points="400.59,-283.52 410.98,-281.41 401.55,-276.58 400.59,-283.52"/>
</a>
</g>
</g>
<!-- Node7 -->
<g id="Node000007" class="node">
<title>Node7</title>
<g id="a_Node000007"><a xlink:href="class_g_l_e_s_c_1_1_math_1_1_vector.html#a1c6191d691ecd08db7806279439305ef" target="_top" xlink:title="Gives the distance between two vectors.">
<polygon fill="white" stroke="#666666" points="353.62,-232 242.38,-232 242.38,-200 353.62,-200 353.62,-232"/>
<text text-anchor="start" x="250.38" y="-218.5" font-family="Helvetica,sans-Serif" font-size="10.00">GLESC::Math::Vector</text>
<text text-anchor="middle" x="298" y="-206.5" font-family="Helvetica,sans-Serif" font-size="10.00">::distance</text>
</a>
</g>
</g>
<!-- Node6&#45;&gt;Node7 -->
<g id="edge6_Node000006_Node000007" class="edge">
<title>Node6&#45;&gt;Node7</title>
<g id="a_edge6_Node000006_Node000007"><a xlink:title=" ">
<path fill="none" stroke="#63b8ff" d="M390.81,-216C378.28,-216 365.73,-216 354.11,-216"/>
<polygon fill="#63b8ff" stroke="#63b8ff" points="390.77,-219.5 400.77,-216 390.77,-212.5 390.77,-219.5"/>
</a>
</g>
</g>
<!-- Node8 -->
<g id="Node000008" class="node">
<title>Node8</title>
<g id="a_Node000008"><a xlink:href="class_g_l_e_s_c_1_1_engine.html#ad2ff110d5a86c1cd60b541d65915ac48" target="_top" xlink:title="Processes the logic of the game Is called every frame, must be called at constant intervals of time a...">
<polygon fill="white" stroke="#666666" points="193.25,-226 73,-226 73,-206 193.25,-206 193.25,-226"/>
<text text-anchor="middle" x="133.12" y="-212.5" font-family="Helvetica,sans-Serif" font-size="10.00">GLESC::Engine::update</text>
</a>
</g>
</g>
<!-- Node7&#45;&gt;Node8 -->
<g id="edge7_Node000007_Node000008" class="edge">
<title>Node7&#45;&gt;Node8</title>
<g id="a_edge7_Node000007_Node000008"><a xlink:title=" ">
<path fill="none" stroke="#63b8ff" d="M231.12,-216C218.75,-216 205.87,-216 193.7,-216"/>
<polygon fill="#63b8ff" stroke="#63b8ff" points="230.8,-219.5 240.8,-216 230.8,-212.5 230.8,-219.5"/>
</a>
</g>
</g>
<!-- Node9 -->
<g id="Node000009" class="node">
<title>Node9</title>
<g id="a_Node000009"><a xlink:href="main_8cpp.html#a0ddf1224851353fc92bfbff6f499fa97" target="_top" xlink:title=" ">
<polygon fill="white" stroke="#666666" points="37,-226 0,-226 0,-206 37,-206 37,-226"/>
<text text-anchor="middle" x="18.5" y="-212.5" font-family="Helvetica,sans-Serif" font-size="10.00">main</text>
</a>
</g>
</g>
<!-- Node8&#45;&gt;Node9 -->
<g id="edge8_Node000008_Node000009" class="edge">
<title>Node8&#45;&gt;Node9</title>
<g id="a_edge8_Node000008_Node000009"><a xlink:title=" ">
<path fill="none" stroke="#63b8ff" d="M61.18,-216C52.39,-216 44.11,-216 37.29,-216"/>
<polygon fill="#63b8ff" stroke="#63b8ff" points="61,-219.5 71,-216 61,-212.5 61,-219.5"/>
</a>
</g>
</g>
<!-- Node11 -->
<g id="Node000011" class="node">
<title>Node11</title>
<g id="a_Node000011"><a xlink:href="class_g_l_e_s_c_1_1_math_1_1_vector.html#aa9d2cf1021e68de567a6df2ca104c473" target="_top" xlink:title="Gives the squared distance between two vectors.">
<polygon fill="white" stroke="#666666" points="353.62,-182 242.38,-182 242.38,-150 353.62,-150 353.62,-182"/>
<text text-anchor="start" x="250.38" y="-168.5" font-family="Helvetica,sans-Serif" font-size="10.00">GLESC::Math::Vector</text>
<text text-anchor="middle" x="298" y="-156.5" font-family="Helvetica,sans-Serif" font-size="10.00">::distanceSquared</text>
</a>
</g>
</g>
<!-- Node10&#45;&gt;Node11 -->
<g id="edge10_Node000010_Node000011" class="edge">
<title>Node10&#45;&gt;Node11</title>
<g id="a_edge10_Node000010_Node000011"><a xlink:title=" ">
<path fill="none" stroke="#63b8ff" d="M390.81,-166C378.28,-166 365.73,-166 354.11,-166"/>
<polygon fill="#63b8ff" stroke="#63b8ff" points="390.77,-169.5 400.77,-166 390.77,-162.5 390.77,-169.5"/>
</a>
</g>
</g>
</g>
</svg>
