<?xml version="1.0" encoding="UTF-8" standalone="no"?>
<!DOCTYPE svg PUBLIC "-//W3C//DTD SVG 1.1//EN"
 "http://www.w3.org/Graphics/SVG/1.1/DTD/svg11.dtd">
<!-- Generated by graphviz version 11.0.0 (20240428.1522)
 -->
<!-- Title: GLESC::ECS::EntityManager::getSignature Pages: 1 -->
<svg width="914pt" height="272pt"
 viewBox="0.00 0.00 913.75 272.00" xmlns="http://www.w3.org/2000/svg" xmlns:xlink="http://www.w3.org/1999/xlink">
<g id="graph0" class="graph" transform="scale(1 1) rotate(0) translate(4 268)">
<title>GLESC::ECS::EntityManager::getSignature</title>
<!-- Node1 -->
<g id="Node000001" class="node">
<title>Node1</title>
<g id="a_Node000001"><a xlink:title="Get the signature of the entity. The entity must exist.">
<polygon fill="#999999" stroke="#666666" points="905.75,-107 761.5,-107 761.5,-75 905.75,-75 905.75,-107"/>
<text text-anchor="start" x="769.5" y="-93.5" font-family="Helvetica,sans-Serif" font-size="10.00">GLESC::ECS::EntityManager</text>
<text text-anchor="middle" x="833.62" y="-81.5" font-family="Helvetica,sans-Serif" font-size="10.00">::getSignature</text>
</a>
</g>
</g>
<!-- Node2 -->
<g id="Node000002" class="node">
<title>Node2</title>
<g id="a_Node000002"><a xlink:href="class_g_l_e_s_c_1_1_e_c_s_1_1_e_c_s_coordinator.html#ac174f3ade2ce8ea1a240c49385409942" target="_top" xlink:title="Add a component to an entity.">
<polygon fill="white" stroke="#666666" points="725.5,-204 574.5,-204 574.5,-172 725.5,-172 725.5,-204"/>
<text text-anchor="start" x="582.5" y="-190.5" font-family="Helvetica,sans-Serif" font-size="10.00">GLESC::ECS::ECSCoordinator</text>
<text text-anchor="middle" x="650" y="-178.5" font-family="Helvetica,sans-Serif" font-size="10.00">::addComponent</text>
</a>
</g>
</g>
<!-- Node1&#45;&gt;Node2 -->
<g id="edge1_Node000001_Node000002" class="edge">
<title>Node1&#45;&gt;Node2</title>
<g id="a_edge1_Node000001_Node000002"><a xlink:title=" ">
<path fill="none" stroke="#63b8ff" d="M791.91,-112.75C758.51,-130.58 711.96,-155.44 681.66,-171.63"/>
<polygon fill="#63b8ff" stroke="#63b8ff" points="793.31,-115.97 800.48,-108.17 790.01,-109.79 793.31,-115.97"/>
</a>
</g>
</g>
<!-- Node8 -->
<g id="Node000008" class="node">
<title>Node8</title>
<g id="a_Node000008"><a xlink:href="class_g_l_e_s_c_1_1_e_c_s_1_1_e_c_s_coordinator.html#a6cd97a4b3b3617b8cef2e62493b59574" target="_top" xlink:title="Get the components of an entity.">
<polygon fill="white" stroke="#666666" points="725.5,-132 574.5,-132 574.5,-100 725.5,-100 725.5,-132"/>
<text text-anchor="start" x="582.5" y="-118.5" font-family="Helvetica,sans-Serif" font-size="10.00">GLESC::ECS::ECSCoordinator</text>
<text text-anchor="middle" x="650" y="-106.5" font-family="Helvetica,sans-Serif" font-size="10.00">::getComponents</text>
</a>
</g>
</g>
<!-- Node1&#45;&gt;Node8 -->
<g id="edge8_Node000001_Node000008" class="edge">
<title>Node1&#45;&gt;Node8</title>
<g id="a_edge8_Node000001_Node000008"><a xlink:title=" ">
<path fill="none" stroke="#63b8ff" d="M749.83,-102.4C741.8,-103.5 733.69,-104.62 725.74,-105.71"/>
<polygon fill="#63b8ff" stroke="#63b8ff" points="750.17,-105.88 759.6,-101.05 749.22,-98.95 750.17,-105.88"/>
</a>
</g>
</g>
<!-- Node12 -->
<g id="Node000012" class="node">
<title>Node12</title>
<g id="a_Node000012"><a xlink:href="class_g_l_e_s_c_1_1_e_c_s_1_1_e_c_s_coordinator.html#a9986f9753dd8fc73c69787f3723d44b8" target="_top" xlink:title="Print the status of the entity.">
<polygon fill="white" stroke="#666666" points="725.5,-82 574.5,-82 574.5,-50 725.5,-50 725.5,-82"/>
<text text-anchor="start" x="582.5" y="-68.5" font-family="Helvetica,sans-Serif" font-size="10.00">GLESC::ECS::ECSCoordinator</text>
<text text-anchor="middle" x="650" y="-56.5" font-family="Helvetica,sans-Serif" font-size="10.00">::printEntity</text>
</a>
</g>
</g>
<!-- Node1&#45;&gt;Node12 -->
<g id="edge12_Node000001_Node000012" class="edge">
<title>Node1&#45;&gt;Node12</title>
<g id="a_edge12_Node000001_Node000012"><a xlink:title=" ">
<path fill="none" stroke="#63b8ff" d="M749.83,-79.6C741.8,-78.5 733.69,-77.38 725.74,-76.29"/>
<polygon fill="#63b8ff" stroke="#63b8ff" points="749.22,-83.05 759.6,-80.95 750.17,-76.12 749.22,-83.05"/>
</a>
</g>
</g>
<!-- Node14 -->
<g id="Node000014" class="node">
<title>Node14</title>
<g id="a_Node000014"><a xlink:href="class_g_l_e_s_c_1_1_e_c_s_1_1_e_c_s_coordinator.html#af2a3fb9a4f78b71f602de7f29bd7446f" target="_top" xlink:title="Remove a component from an entity.">
<polygon fill="white" stroke="#666666" points="725.5,-32 574.5,-32 574.5,0 725.5,0 725.5,-32"/>
<text text-anchor="start" x="582.5" y="-18.5" font-family="Helvetica,sans-Serif" font-size="10.00">GLESC::ECS::ECSCoordinator</text>
<text text-anchor="middle" x="650" y="-6.5" font-family="Helvetica,sans-Serif" font-size="10.00">::removeComponent</text>
</a>
</g>
</g>
<!-- Node1&#45;&gt;Node14 -->
<g id="edge14_Node000001_Node000014" class="edge">
<title>Node1&#45;&gt;Node14</title>
<g id="a_edge14_Node000001_Node000014"><a xlink:title=" ">
<path fill="none" stroke="#63b8ff" d="M789.88,-69.7C770.46,-60.37 747.05,-49.61 725.5,-41 718.15,-38.06 710.31,-35.17 702.57,-32.46"/>
<polygon fill="#63b8ff" stroke="#63b8ff" points="788.34,-72.84 798.86,-74.05 791.39,-66.54 788.34,-72.84"/>
</a>
</g>
</g>
<!-- Node3 -->
<g id="Node000003" class="node">
<title>Node3</title>
<g id="a_Node000003"><a xlink:href="class_g_l_e_s_c_1_1_e_c_s_1_1_entity.html#a9e9f27d8c519ebe4c50e3463608d06b2" target="_top" xlink:title="Adds a component to the entity and returns a reference to it The components is registered to the ECSM...">
<polygon fill="white" stroke="#666666" points="516.38,-215 409.62,-215 409.62,-183 516.38,-183 516.38,-215"/>
<text text-anchor="start" x="417.62" y="-201.5" font-family="Helvetica,sans-Serif" font-size="10.00">GLESC::ECS::Entity</text>
<text text-anchor="middle" x="463" y="-189.5" font-family="Helvetica,sans-Serif" font-size="10.00">::addComponent</text>
</a>
</g>
</g>
<!-- Node2&#45;&gt;Node3 -->
<g id="edge2_Node000002_Node000003" class="edge">
<title>Node2&#45;&gt;Node3</title>
<g id="a_edge2_Node000002_Node000003"><a xlink:title=" ">
<path fill="none" stroke="#63b8ff" d="M562.66,-193.13C546.96,-194.07 531.03,-195.01 516.67,-195.87"/>
<polygon fill="#63b8ff" stroke="#63b8ff" points="562.73,-196.64 572.51,-192.55 562.32,-189.65 562.73,-196.64"/>
</a>
</g>
</g>
<!-- Node4 -->
<g id="Node000004" class="node">
<title>Node4</title>
<g id="a_Node000004"><a xlink:href="class_g_l_e_s_c_1_1_engine.html#adb0bb222b1e702be0a95d55d8cfc915f" target="_top" xlink:title=" ">
<polygon fill="white" stroke="#666666" points="346.62,-264 198.62,-264 198.62,-232 346.62,-232 346.62,-264"/>
<text text-anchor="start" x="206.62" y="-250.5" font-family="Helvetica,sans-Serif" font-size="10.00">GLESC::Engine::createEngine</text>
<text text-anchor="middle" x="272.62" y="-238.5" font-family="Helvetica,sans-Serif" font-size="10.00">Entities</text>
</a>
</g>
</g>
<!-- Node3&#45;&gt;Node4 -->
<g id="edge3_Node000003_Node000004" class="edge">
<title>Node3&#45;&gt;Node4</title>
<g id="a_edge3_Node000003_Node000004"><a xlink:title=" ">
<path fill="none" stroke="#63b8ff" d="M398.23,-215.59C378.49,-220.72 356.76,-226.38 337.04,-231.5"/>
<polygon fill="#63b8ff" stroke="#63b8ff" points="399.01,-219 407.81,-213.1 397.25,-212.23 399.01,-219"/>
</a>
</g>
</g>
<!-- Node6 -->
<g id="Node000006" class="node">
<title>Node6</title>
<g id="a_Node000006"><a xlink:href="class_default.html#a6e26da3ebf533b0f5d45266cd0ce9082" target="_top" xlink:title="Initializes the scene. Must be implemented by the derived class.">
<polygon fill="white" stroke="#666666" points="305,-214 240.25,-214 240.25,-194 305,-194 305,-214"/>
<text text-anchor="middle" x="272.62" y="-200.5" font-family="Helvetica,sans-Serif" font-size="10.00">Default::init</text>
</a>
</g>
</g>
<!-- Node3&#45;&gt;Node6 -->
<g id="edge5_Node000003_Node000006" class="edge">
<title>Node3&#45;&gt;Node6</title>
<g id="a_edge5_Node000003_Node000006"><a xlink:title=" ">
<path fill="none" stroke="#63b8ff" d="M398.03,-200.7C366.81,-201.53 330.64,-202.49 305.38,-203.16"/>
<polygon fill="#63b8ff" stroke="#63b8ff" points="397.86,-204.2 407.76,-200.44 397.67,-197.21 397.86,-204.2"/>
</a>
</g>
</g>
<!-- Node7 -->
<g id="Node000007" class="node">
<title>Node7</title>
<g id="a_Node000007"><a xlink:href="class_g_l_e_s_c_1_1_engine_camera.html#a3f37b288117cbbf684843bf4b88acb72" target="_top" xlink:title="Prepares the camera entity with its components and it&#39;s initial values.">
<polygon fill="white" stroke="#666666" points="332,-176 213.25,-176 213.25,-144 332,-144 332,-176"/>
<text text-anchor="start" x="221.25" y="-162.5" font-family="Helvetica,sans-Serif" font-size="10.00">GLESC::EngineCamera</text>
<text text-anchor="middle" x="272.62" y="-150.5" font-family="Helvetica,sans-Serif" font-size="10.00">::setupCamera</text>
</a>
</g>
</g>
<!-- Node3&#45;&gt;Node7 -->
<g id="edge6_Node000003_Node000007" class="edge">
<title>Node3&#45;&gt;Node7</title>
<g id="a_edge6_Node000003_Node000007"><a xlink:title=" ">
<path fill="none" stroke="#63b8ff" d="M398.05,-185.76C376.76,-181.35 353.17,-176.47 332.3,-172.15"/>
<polygon fill="#63b8ff" stroke="#63b8ff" points="397.29,-189.18 407.79,-187.78 398.71,-182.32 397.29,-189.18"/>
</a>
</g>
</g>
<!-- Node5 -->
<g id="Node000005" class="node">
<title>Node5</title>
<g id="a_Node000005"><a xlink:href="class_g_l_e_s_c_1_1_engine.html#a93e1621f9daf326a7c45d3b2a4c826c1" target="_top" xlink:title="The constructor is private, the engine can only be created by the main function.">
<polygon fill="white" stroke="#666666" points="139.38,-214 18.38,-214 18.38,-194 139.38,-194 139.38,-214"/>
<text text-anchor="middle" x="78.88" y="-200.5" font-family="Helvetica,sans-Serif" font-size="10.00">GLESC::Engine::Engine</text>
</a>
</g>
</g>
<!-- Node4&#45;&gt;Node5 -->
<g id="edge4_Node000004_Node000005" class="edge">
<title>Node4&#45;&gt;Node5</title>
<g id="a_edge4_Node000004_Node000005"><a xlink:title=" ">
<path fill="none" stroke="#63b8ff" d="M188.74,-228.98C167.09,-224.01 144.54,-218.84 125.62,-214.5"/>
<polygon fill="#63b8ff" stroke="#63b8ff" points="187.95,-232.39 198.48,-231.21 189.51,-225.57 187.95,-232.39"/>
</a>
</g>
</g>
<!-- Node7&#45;&gt;Node5 -->
<g id="edge7_Node000007_Node000005" class="edge">
<title>Node7&#45;&gt;Node5</title>
<g id="a_edge7_Node000007_Node000005"><a xlink:title=" ">
<path fill="none" stroke="#63b8ff" d="M201.71,-176.04C176.3,-181.87 148.27,-188.31 125.5,-193.53"/>
<polygon fill="#63b8ff" stroke="#63b8ff" points="202.35,-179.49 211.32,-173.84 200.79,-172.66 202.35,-179.49"/>
</a>
</g>
</g>
<!-- Node9 -->
<g id="Node000009" class="node">
<title>Node9</title>
<g id="a_Node000009"><a xlink:href="class_g_l_e_s_c_1_1_e_c_s_1_1_system.html#a0f0beac61bee827158f9d8ed8b2ddaca" target="_top" xlink:title="Gets the components of an entity.">
<polygon fill="white" stroke="#666666" points="520.5,-132 405.5,-132 405.5,-100 520.5,-100 520.5,-132"/>
<text text-anchor="start" x="413.5" y="-118.5" font-family="Helvetica,sans-Serif" font-size="10.00">GLESC::ECS::System</text>
<text text-anchor="middle" x="463" y="-106.5" font-family="Helvetica,sans-Serif" font-size="10.00">::getComponents</text>
</a>
</g>
</g>
<!-- Node8&#45;&gt;Node9 -->
<g id="edge9_Node000008_Node000009" class="edge">
<title>Node8&#45;&gt;Node9</title>
<g id="a_edge9_Node000008_Node000009"><a xlink:title=" ">
<path fill="none" stroke="#63b8ff" d="M562.71,-116C548.52,-116 534.13,-116 520.9,-116"/>
<polygon fill="#63b8ff" stroke="#63b8ff" points="562.51,-119.5 572.51,-116 562.51,-112.5 562.51,-119.5"/>
</a>
</g>
</g>
<!-- Node10 -->
<g id="Node000010" class="node">
<title>Node10</title>
<g id="a_Node000010"><a xlink:href="class_g_l_e_s_c_1_1_e_c_s_1_1_debug_info_system.html#ab3dac8d716449db82bd6f95f55077d1c" target="_top" xlink:title=" ">
<polygon fill="white" stroke="#666666" points="351.5,-126 193.75,-126 193.75,-94 351.5,-94 351.5,-126"/>
<text text-anchor="start" x="201.75" y="-112.5" font-family="Helvetica,sans-Serif" font-size="10.00">GLESC::ECS::DebugInfoSystem</text>
<text text-anchor="middle" x="272.62" y="-100.5" font-family="Helvetica,sans-Serif" font-size="10.00">::setEntityData</text>
</a>
</g>
</g>
<!-- Node9&#45;&gt;Node10 -->
<g id="edge10_Node000009_Node000010" class="edge">
<title>Node9&#45;&gt;Node10</title>
<g id="a_edge10_Node000009_Node000010"><a xlink:title=" ">
<path fill="none" stroke="#63b8ff" d="M393.96,-113.83C380.3,-113.4 365.83,-112.94 351.85,-112.49"/>
<polygon fill="#63b8ff" stroke="#63b8ff" points="393.61,-117.32 403.71,-114.14 393.83,-110.33 393.61,-117.32"/>
</a>
</g>
</g>
<!-- Node11 -->
<g id="Node000011" class="node">
<title>Node11</title>
<g id="a_Node000011"><a xlink:href="class_g_l_e_s_c_1_1_e_c_s_1_1_debug_info_system.html#af0f60d4a863a70a744d562649e26c394" target="_top" xlink:title="Updates the system.">
<polygon fill="white" stroke="#666666" points="157.75,-126 0,-126 0,-94 157.75,-94 157.75,-126"/>
<text text-anchor="start" x="8" y="-112.5" font-family="Helvetica,sans-Serif" font-size="10.00">GLESC::ECS::DebugInfoSystem</text>
<text text-anchor="middle" x="78.88" y="-100.5" font-family="Helvetica,sans-Serif" font-size="10.00">::update</text>
</a>
</g>
</g>
<!-- Node10&#45;&gt;Node11 -->
<g id="edge11_Node000010_Node000011" class="edge">
<title>Node10&#45;&gt;Node11</title>
<g id="a_edge11_Node000010_Node000011"><a xlink:title=" ">
<path fill="none" stroke="#63b8ff" d="M181.85,-110C173.95,-110 166,-110 158.2,-110"/>
<polygon fill="#63b8ff" stroke="#63b8ff" points="181.84,-113.5 191.84,-110 181.84,-106.5 181.84,-113.5"/>
</a>
</g>
</g>
<!-- Node13 -->
<g id="Node000013" class="node">
<title>Node13</title>
<g id="a_Node000013"><a xlink:href="class_g_l_e_s_c_1_1_e_c_s_1_1_e_c_s_coordinator.html#a511e3ef0ebeceb191a06db185e8fdc46" target="_top" xlink:title="Print the status of the ECS.">
<polygon fill="white" stroke="#666666" points="538.5,-82 387.5,-82 387.5,-50 538.5,-50 538.5,-82"/>
<text text-anchor="start" x="395.5" y="-68.5" font-family="Helvetica,sans-Serif" font-size="10.00">GLESC::ECS::ECSCoordinator</text>
<text text-anchor="middle" x="463" y="-56.5" font-family="Helvetica,sans-Serif" font-size="10.00">::printStatus</text>
</a>
</g>
</g>
<!-- Node12&#45;&gt;Node13 -->
<g id="edge13_Node000012_Node000013" class="edge">
<title>Node12&#45;&gt;Node13</title>
<g id="a_edge13_Node000012_Node000013"><a xlink:title=" ">
<path fill="none" stroke="#63b8ff" d="M562.76,-66C554.75,-66 546.68,-66 538.79,-66"/>
<polygon fill="#63b8ff" stroke="#63b8ff" points="562.51,-69.5 572.51,-66 562.51,-62.5 562.51,-69.5"/>
</a>
</g>
</g>
<!-- Node15 -->
<g id="Node000015" class="node">
<title>Node15</title>
<g id="a_Node000015"><a xlink:href="class_g_l_e_s_c_1_1_e_c_s_1_1_entity.html#a1ea00349d7b9b4eff7df34a75d2d64dd" target="_top" xlink:title="Removes a component from the entity The entity signature is updated to reflect the removed component.">
<polygon fill="white" stroke="#666666" points="516.38,-32 409.62,-32 409.62,0 516.38,0 516.38,-32"/>
<text text-anchor="start" x="417.62" y="-18.5" font-family="Helvetica,sans-Serif" font-size="10.00">GLESC::ECS::Entity</text>
<text text-anchor="middle" x="463" y="-6.5" font-family="Helvetica,sans-Serif" font-size="10.00">::removeComponent</text>
</a>
</g>
</g>
<!-- Node14&#45;&gt;Node15 -->
<g id="edge15_Node000014_Node000015" class="edge">
<title>Node14&#45;&gt;Node15</title>
<g id="a_edge15_Node000014_Node000015"><a xlink:title=" ">
<path fill="none" stroke="#63b8ff" d="M562.66,-16C546.96,-16 531.03,-16 516.67,-16"/>
<polygon fill="#63b8ff" stroke="#63b8ff" points="562.51,-19.5 572.51,-16 562.51,-12.5 562.51,-19.5"/>
</a>
</g>
</g>
</g>
</svg>
