<?xml version="1.0" encoding="UTF-8" standalone="no"?>
<!DOCTYPE svg PUBLIC "-//W3C//DTD SVG 1.1//EN"
 "http://www.w3.org/Graphics/SVG/1.1/DTD/svg11.dtd">
<!-- Generated by graphviz version 11.0.0 (20240428.1522)
 -->
<!-- Title: GLESC::ECS::EntityManager::canEntityBeCreated Pages: 1 -->
<svg width="520pt" height="90pt"
 viewBox="0.00 0.00 519.50 90.00" xmlns="http://www.w3.org/2000/svg" xmlns:xlink="http://www.w3.org/1999/xlink">
<g id="graph0" class="graph" transform="scale(1 1) rotate(0) translate(4 86)">
<title>GLESC::ECS::EntityManager::canEntityBeCreated</title>
<!-- Node1 -->
<g id="Node000001" class="node">
<title>Node1</title>
<g id="a_Node000001"><a xlink:title="Check if the entity can be created with the given name and the current state of the entity manager.">
<polygon fill="#999999" stroke="#666666" points="511.5,-57 367.25,-57 367.25,-25 511.5,-25 511.5,-57"/>
<text text-anchor="start" x="375.25" y="-43.5" font-family="Helvetica,sans-Serif" font-size="10.00">GLESC::ECS::EntityManager</text>
<text text-anchor="middle" x="439.38" y="-31.5" font-family="Helvetica,sans-Serif" font-size="10.00">::canEntityBeCreated</text>
</a>
</g>
</g>
<!-- Node2 -->
<g id="Node000002" class="node">
<title>Node2</title>
<g id="a_Node000002"><a xlink:href="class_g_l_e_s_c_1_1_e_c_s_1_1_entity_manager.html#a9606d421c8a8a12ce9adf25b792138c6" target="_top" xlink:title="Create an entity with the given name. The name must be unique.">
<polygon fill="white" stroke="#666666" points="331.25,-57 187,-57 187,-25 331.25,-25 331.25,-57"/>
<text text-anchor="start" x="195" y="-43.5" font-family="Helvetica,sans-Serif" font-size="10.00">GLESC::ECS::EntityManager</text>
<text text-anchor="middle" x="259.12" y="-31.5" font-family="Helvetica,sans-Serif" font-size="10.00">::createNextEntity</text>
</a>
</g>
</g>
<!-- Node1&#45;&gt;Node2 -->
<g id="edge1_Node000001_Node000002" class="edge">
<title>Node1&#45;&gt;Node2</title>
<g id="a_edge1_Node000001_Node000002"><a xlink:title=" ">
<path fill="none" stroke="#63b8ff" d="M355.63,-41C347.61,-41 339.52,-41 331.62,-41"/>
<polygon fill="#63b8ff" stroke="#63b8ff" points="355.39,-44.5 365.39,-41 355.39,-37.5 355.39,-44.5"/>
</a>
</g>
</g>
<!-- Node3 -->
<g id="Node000003" class="node">
<title>Node3</title>
<g id="a_Node000003"><a xlink:href="class_g_l_e_s_c_1_1_e_c_s_1_1_e_c_s_coordinator.html#a37fc560602929be3b0548cfeb936703d" target="_top" xlink:title="Create an entity with a default name.">
<polygon fill="white" stroke="#666666" points="151,-82 0,-82 0,-50 151,-50 151,-82"/>
<text text-anchor="start" x="8" y="-68.5" font-family="Helvetica,sans-Serif" font-size="10.00">GLESC::ECS::ECSCoordinator</text>
<text text-anchor="middle" x="75.5" y="-56.5" font-family="Helvetica,sans-Serif" font-size="10.00">::createEntity</text>
</a>
</g>
</g>
<!-- Node2&#45;&gt;Node3 -->
<g id="edge2_Node000002_Node000003" class="edge">
<title>Node2&#45;&gt;Node3</title>
<g id="a_edge2_Node000002_Node000003"><a xlink:title=" ">
<path fill="none" stroke="#63b8ff" d="M175.33,-52.4C167.3,-53.5 159.19,-54.62 151.24,-55.71"/>
<polygon fill="#63b8ff" stroke="#63b8ff" points="175.67,-55.88 185.1,-51.05 174.72,-48.95 175.67,-55.88"/>
</a>
</g>
</g>
<!-- Node4 -->
<g id="Node000004" class="node">
<title>Node4</title>
<g id="a_Node000004"><a xlink:href="class_g_l_e_s_c_1_1_e_c_s_1_1_e_c_s_coordinator.html#ab666a1e72517798b3bf19c81739581f5" target="_top" xlink:title="Create an entity with the given name. The name must be unique.">
<polygon fill="white" stroke="#666666" points="151,-32 0,-32 0,0 151,0 151,-32"/>
<text text-anchor="start" x="8" y="-18.5" font-family="Helvetica,sans-Serif" font-size="10.00">GLESC::ECS::ECSCoordinator</text>
<text text-anchor="middle" x="75.5" y="-6.5" font-family="Helvetica,sans-Serif" font-size="10.00">::createEntity</text>
</a>
</g>
</g>
<!-- Node2&#45;&gt;Node4 -->
<g id="edge3_Node000002_Node000004" class="edge">
<title>Node2&#45;&gt;Node4</title>
<g id="a_edge3_Node000002_Node000004"><a xlink:title=" ">
<path fill="none" stroke="#63b8ff" d="M175.33,-29.6C167.3,-28.5 159.19,-27.38 151.24,-26.29"/>
<polygon fill="#63b8ff" stroke="#63b8ff" points="174.72,-33.05 185.1,-30.95 175.67,-26.12 174.72,-33.05"/>
</a>
</g>
</g>
</g>
</svg>
