<?xml version="1.0" encoding="UTF-8" standalone="no"?>
<!DOCTYPE svg PUBLIC "-//W3C//DTD SVG 1.1//EN"
 "http://www.w3.org/Graphics/SVG/1.1/DTD/svg11.dtd">
<!-- Generated by graphviz version 11.0.0 (20240428.1522)
 -->
<!-- Title: GLESC::Logger Pages: 1 -->
<!--zoomable 1032 -->

<svg id="main" version="1.1" xmlns="http://www.w3.org/2000/svg" xmlns:xlink="http://www.w3.org/1999/xlink" xml:space="preserve" onload="init(evt)">
<style type="text/css"><![CDATA[
.node, .edge {opacity: 0.7;}
.node.selected, .edge.selected {opacity: 1;}
.edge:hover path { stroke: red; }
.edge:hover polygon { stroke: red; fill: red; }
]]></style>

<defs>
  <circle id="rim" cx="0" cy="0" r="7"/>
  <circle id="rim2" cx="0" cy="0" r="3.5"/>
  <g id="zoomPlus">
    <use xlink:href="#rim" fill="#404040"><set attributeName="fill" to="#808080" begin="zoomplus.mouseover" end="zoomplus.mouseout"/></use>
    <path d="M-4,0h8M0,-4v8" fill="none" stroke="white" stroke-width="1.5" pointer-events="none"/>
  </g>
  <g id="zoomMin">
    <use xlink:href="#rim" fill="#404040"><set attributeName="fill" to="#808080" begin="zoomminus.mouseover" end="zoomminus.mouseout"/></use>
    <path d="M-4,0h8" fill="none" stroke="white" stroke-width="1.5" pointer-events="none"/>
  </g>
  <g id="arrowUp" transform="translate(30 24)">
    <use xlink:href="#rim"/>
    <path pointer-events="none" fill="none" stroke="white" stroke-width="1.5" d="M0,-3.0v7 M-2.5,-0.5L0,-3.0L2.5,-0.5"/>
  </g>
  <g id="arrowRight" transform="rotate(90) translate(36 -43)">
    <use xlink:href="#rim"/>
    <path pointer-events="none" fill="none" stroke="white" stroke-width="1.5" d="M0,-3.0v7 M-2.5,-0.5L0,-3.0L2.5,-0.5"/>
  </g>
  <g id="arrowDown" transform="rotate(180) translate(-30 -48)">
    <use xlink:href="#rim"/>
    <path pointer-events="none" fill="none" stroke="white" stroke-width="1.5" d="M0,-3.0v7 M-2.5,-0.5L0,-3.0L2.5,-0.5"/>
  </g>
  <g id="arrowLeft" transform="rotate(270) translate(-36 17)">
    <use xlink:href="#rim"/>
    <path pointer-events="none" fill="none" stroke="white" stroke-width="1.5" d="M0,-3.0v7 M-2.5,-0.5L0,-3.0L2.5,-0.5"/>
  </g>
  <g id="resetDef">
    <use xlink:href="#rim2" fill="#404040"><set attributeName="fill" to="#808080" begin="reset.mouseover" end="reset.mouseout"/></use>
  </g>
</defs>
<script type="application/ecmascript">
var viewWidth = 806;
var viewHeight = 1032;
var sectionId = 'dynsection-1';
</script>
<script type="application/ecmascript" xlink:href="svg.min.js"/>
<svg id="graph" class="graph">
<g id="viewport">
<title>GLESC::Logger</title>
<!-- Node1 -->
<g id="Node000001" class="node">
<title>Node1</title>
<g id="a_Node000001"><a xlink:title=" ">
<polygon fill="#999999" stroke="none" points="426.5,-276 318.5,-276 318.5,0 426.5,0 426.5,-276"/>
<text text-anchor="start" x="338.38" y="-262.5" font-family="Helvetica,sans-Serif" font-size="10.00">GLESC::Logger</text>
<text text-anchor="start" x="371" y="-246.5" font-family="Helvetica,sans-Serif" font-size="10.00"> </text>
<text text-anchor="start" x="322.5" y="-230.5" font-family="Helvetica,sans-Serif" font-size="10.00">+</text>
<text text-anchor="start" x="332.5" y="-230.5" font-family="Helvetica,sans-Serif" font-size="10.00">Logger()</text>
<text text-anchor="start" x="322.5" y="-214.5" font-family="Helvetica,sans-Serif" font-size="10.00">+</text>
<text text-anchor="start" x="332.5" y="-214.5" font-family="Helvetica,sans-Serif" font-size="10.00">addLogger()</text>
<text text-anchor="start" x="322.5" y="-198.5" font-family="Helvetica,sans-Serif" font-size="10.00">+</text>
<text text-anchor="start" x="332.5" y="-198.5" font-family="Helvetica,sans-Serif" font-size="10.00">error()</text>
<text text-anchor="start" x="322.5" y="-182.5" font-family="Helvetica,sans-Serif" font-size="10.00">+</text>
<text text-anchor="start" x="332.5" y="-182.5" font-family="Helvetica,sans-Serif" font-size="10.00">executeOnAllInputs()</text>
<text text-anchor="start" x="322.5" y="-166.5" font-family="Helvetica,sans-Serif" font-size="10.00">+</text>
<text text-anchor="start" x="332.5" y="-166.5" font-family="Helvetica,sans-Serif" font-size="10.00">importantInfo()</text>
<text text-anchor="start" x="322.5" y="-150.5" font-family="Helvetica,sans-Serif" font-size="10.00">+</text>
<text text-anchor="start" x="332.5" y="-150.5" font-family="Helvetica,sans-Serif" font-size="10.00">importantInfoBlue()</text>
<text text-anchor="start" x="322.5" y="-134.5" font-family="Helvetica,sans-Serif" font-size="10.00">+</text>
<text text-anchor="start" x="332.5" y="-134.5" font-family="Helvetica,sans-Serif" font-size="10.00">importantInfoPurple()</text>
<text text-anchor="start" x="322.5" y="-118.5" font-family="Helvetica,sans-Serif" font-size="10.00">+</text>
<text text-anchor="start" x="332.5" y="-118.5" font-family="Helvetica,sans-Serif" font-size="10.00">importantInfoWhite()</text>
<text text-anchor="start" x="322.5" y="-102.5" font-family="Helvetica,sans-Serif" font-size="10.00">+</text>
<text text-anchor="start" x="332.5" y="-102.5" font-family="Helvetica,sans-Serif" font-size="10.00">importantSuccess()</text>
<text text-anchor="start" x="322.5" y="-86.5" font-family="Helvetica,sans-Serif" font-size="10.00">+</text>
<text text-anchor="start" x="332.5" y="-86.5" font-family="Helvetica,sans-Serif" font-size="10.00">info()</text>
<text text-anchor="start" x="332.5" y="-70.5" font-family="Helvetica,sans-Serif" font-size="10.00">and 7 more...</text>
<text text-anchor="start" x="322.5" y="-54.5" font-family="Helvetica,sans-Serif" font-size="10.00">+</text>
<text text-anchor="start" x="332.5" y="-54.5" font-family="Helvetica,sans-Serif" font-size="10.00">get()</text>
<text text-anchor="start" x="324" y="-38.5" font-family="Helvetica,sans-Serif" font-size="10.00">&#45;</text>
<text text-anchor="start" x="332.5" y="-38.5" font-family="Helvetica,sans-Serif" font-size="10.00">Logger()</text>
<text text-anchor="start" x="324" y="-22.5" font-family="Helvetica,sans-Serif" font-size="10.00">&#45;</text>
<text text-anchor="start" x="332.5" y="-22.5" font-family="Helvetica,sans-Serif" font-size="10.00">~Logger()</text>
<text text-anchor="start" x="324" y="-6.5" font-family="Helvetica,sans-Serif" font-size="10.00">&#45;</text>
<text text-anchor="start" x="332.5" y="-6.5" font-family="Helvetica,sans-Serif" font-size="10.00">processQueue()</text>
<polygon fill="#666666" stroke="#666666" points="318.5,-258 318.5,-258 426.5,-258 426.5,-258 318.5,-258"/>
<polygon fill="#666666" stroke="#666666" points="318.5,-242 318.5,-242 426.5,-242 426.5,-242 318.5,-242"/>
<polygon fill="none" stroke="#666666" points="318.5,0 318.5,-276 426.5,-276 426.5,0 318.5,0"/>
</a>
</g>
</g>
<!-- Node2 -->
<g id="Node000002" class="node">
<title>Node2</title>
<g id="a_Node000002"><a xlink:href="class_i_logger.html" target="_top" xlink:title=" ">
<polygon fill="white" stroke="none" points="107,-924 0,-924 0,-664 107,-664 107,-924"/>
<text text-anchor="start" x="37.75" y="-910.5" font-family="Helvetica,sans-Serif" font-size="10.00">ILogger</text>
<text text-anchor="start" x="52" y="-894.5" font-family="Helvetica,sans-Serif" font-size="10.00"> </text>
<text text-anchor="start" x="4" y="-878.5" font-family="Helvetica,sans-Serif" font-size="10.00">+</text>
<text text-anchor="start" x="14" y="-878.5" font-family="Helvetica,sans-Serif" font-size="10.00">~ILogger()</text>
<text text-anchor="start" x="4" y="-862.5" font-family="Helvetica,sans-Serif" font-size="10.00">+</text>
<text text-anchor="start" x="14" y="-862.5" font-family="Helvetica,sans-Serif" font-size="10.00">error()</text>
<text text-anchor="start" x="4" y="-846.5" font-family="Helvetica,sans-Serif" font-size="10.00">+</text>
<text text-anchor="start" x="14" y="-846.5" font-family="Helvetica,sans-Serif" font-size="10.00">importantInfo()</text>
<text text-anchor="start" x="4" y="-830.5" font-family="Helvetica,sans-Serif" font-size="10.00">+</text>
<text text-anchor="start" x="14" y="-830.5" font-family="Helvetica,sans-Serif" font-size="10.00">importantInfoBlue()</text>
<text text-anchor="start" x="4" y="-814.5" font-family="Helvetica,sans-Serif" font-size="10.00">+</text>
<text text-anchor="start" x="14" y="-814.5" font-family="Helvetica,sans-Serif" font-size="10.00">importantInfoPurple()</text>
<text text-anchor="start" x="4" y="-798.5" font-family="Helvetica,sans-Serif" font-size="10.00">+</text>
<text text-anchor="start" x="14" y="-798.5" font-family="Helvetica,sans-Serif" font-size="10.00">importantInfoWhite()</text>
<text text-anchor="start" x="4" y="-782.5" font-family="Helvetica,sans-Serif" font-size="10.00">+</text>
<text text-anchor="start" x="14" y="-782.5" font-family="Helvetica,sans-Serif" font-size="10.00">importantSuccess()</text>
<text text-anchor="start" x="4" y="-766.5" font-family="Helvetica,sans-Serif" font-size="10.00">+</text>
<text text-anchor="start" x="14" y="-766.5" font-family="Helvetica,sans-Serif" font-size="10.00">info()</text>
<text text-anchor="start" x="4" y="-750.5" font-family="Helvetica,sans-Serif" font-size="10.00">+</text>
<text text-anchor="start" x="14" y="-750.5" font-family="Helvetica,sans-Serif" font-size="10.00">infoBlue()</text>
<text text-anchor="start" x="4" y="-734.5" font-family="Helvetica,sans-Serif" font-size="10.00">+</text>
<text text-anchor="start" x="14" y="-734.5" font-family="Helvetica,sans-Serif" font-size="10.00">infoPurple()</text>
<text text-anchor="start" x="4" y="-718.5" font-family="Helvetica,sans-Serif" font-size="10.00">+</text>
<text text-anchor="start" x="14" y="-718.5" font-family="Helvetica,sans-Serif" font-size="10.00">log()</text>
<text text-anchor="start" x="4" y="-702.5" font-family="Helvetica,sans-Serif" font-size="10.00">+</text>
<text text-anchor="start" x="14" y="-702.5" font-family="Helvetica,sans-Serif" font-size="10.00">nonImportantInfo()</text>
<text text-anchor="start" x="4" y="-686.5" font-family="Helvetica,sans-Serif" font-size="10.00">+</text>
<text text-anchor="start" x="14" y="-686.5" font-family="Helvetica,sans-Serif" font-size="10.00">success()</text>
<text text-anchor="start" x="4" y="-670.5" font-family="Helvetica,sans-Serif" font-size="10.00">+</text>
<text text-anchor="start" x="14" y="-670.5" font-family="Helvetica,sans-Serif" font-size="10.00">warning()</text>
<polygon fill="#666666" stroke="#666666" points="0,-906 0,-906 107,-906 107,-906 0,-906"/>
<polygon fill="#666666" stroke="#666666" points="0,-890 0,-890 107,-890 107,-890 0,-890"/>
<polygon fill="none" stroke="#666666" points="0,-664 0,-924 107,-924 107,-664 0,-664"/>
</a>
</g>
</g>
<!-- Node2&#45;&gt;Node1 -->
<g id="edge1_Node000001_Node000002" class="edge">
<title>Node2&#45;&gt;Node1</title>
<g id="a_edge1_Node000001_Node000002"><a xlink:title=" ">
<path fill="none" stroke="#63b8ff" d="M47.67,-652.91C49.2,-601.31 55.32,-543.02 71.5,-492 115.01,-354.77 244.51,-237.08 318.7,-178.54"/>
<polygon fill="none" stroke="#63b8ff" points="44.18,-652.56 47.45,-662.64 51.18,-652.73 44.18,-652.56"/>
</a>
</g>
</g>
<!-- Node4 -->
<g id="Node000004" class="node">
<title>Node4</title>
<g id="a_Node000004"><a xlink:title=" ">
<polygon fill="white" stroke="none" points="204.5,-560 80.5,-560 80.5,-508 204.5,-508 204.5,-560"/>
<text text-anchor="start" x="85.5" y="-546.5" font-family="Helvetica,sans-Serif" font-size="10.00">std::unique_ptr&lt; ILogger &gt;</text>
<text text-anchor="start" x="141" y="-530.5" font-family="Helvetica,sans-Serif" font-size="10.00"> </text>
<text text-anchor="start" x="98.5" y="-514.5" font-family="Helvetica,sans-Serif" font-size="10.00">+</text>
<text text-anchor="start" x="122.5" y="-514.5" font-family="Helvetica,sans-Serif" font-size="10.00">operator&#45;&gt;()</text>
<polygon fill="#666666" stroke="#666666" points="80.5,-542 80.5,-542 204.5,-542 204.5,-542 80.5,-542"/>
<polygon fill="#666666" stroke="#666666" points="80.5,-526 80.5,-526 204.5,-526 204.5,-526 80.5,-526"/>
<polygon fill="none" stroke="#666666" points="80.5,-508 80.5,-560 204.5,-560 204.5,-508 80.5,-508"/>
</a>
</g>
</g>
<!-- Node2&#45;&gt;Node4 -->
<g id="edge4_Node000004_Node000002" class="edge">
<title>Node2&#45;&gt;Node4</title>
<g id="a_edge4_Node000004_Node000002"><a xlink:title=" ">
<path fill="none" stroke="#63b8ff" d="M98,-664C109.64,-630.26 121.28,-596.51 129.74,-572"/>
<polygon fill="none" stroke="#63b8ff" points="129.76,-571.93 127.93,-564.96 133.67,-560.59 135.5,-567.57 129.76,-571.93"/>
</a>
</g>
<text text-anchor="middle" x="131.62" y="-616.5" font-family="Helvetica,sans-Serif" font-size="10.00" fill="grey"> +ptr</text>
</g>
<!-- Node3 -->
<g id="Node000003" class="node">
<title>Node3</title>
<g id="a_Node000003"><a xlink:title=" ">
<polygon fill="white" stroke="none" points="296.5,-396 184.5,-396 184.5,-332 296.5,-332 296.5,-396"/>
<text text-anchor="start" x="189.5" y="-382.5" font-family="Helvetica,sans-Serif" font-size="10.00">std::vector&lt; std::unique</text>
<text text-anchor="start" x="203" y="-370.5" font-family="Helvetica,sans-Serif" font-size="10.00">_ptr&lt; ILogger &gt; &gt;</text>
<text text-anchor="start" x="239" y="-354.5" font-family="Helvetica,sans-Serif" font-size="10.00"> </text>
<text text-anchor="start" x="239" y="-338.5" font-family="Helvetica,sans-Serif" font-size="10.00"> </text>
<polygon fill="#666666" stroke="#666666" points="184.5,-366 184.5,-366 296.5,-366 296.5,-366 184.5,-366"/>
<polygon fill="#666666" stroke="#666666" points="184.5,-350 184.5,-350 296.5,-350 296.5,-350 184.5,-350"/>
<polygon fill="none" stroke="#666666" points="184.5,-332 184.5,-396 296.5,-396 296.5,-332 184.5,-332"/>
</a>
</g>
</g>
<!-- Node3&#45;&gt;Node1 -->
<g id="edge2_Node000001_Node000003" class="edge">
<title>Node3&#45;&gt;Node1</title>
<g id="a_edge2_Node000001_Node000003"><a xlink:title=" ">
<path fill="none" stroke="#63b8ff" d="M258.58,-332.32C272.53,-308.64 292.69,-274.43 312.18,-241.35"/>
<polygon fill="none" stroke="#63b8ff" points="312.21,-241.31 311.81,-234.11 318.3,-230.97 318.7,-238.17 312.21,-241.31"/>
</a>
</g>
<text text-anchor="middle" x="299.25" y="-296.5" font-family="Helvetica,sans-Serif" font-size="10.00" fill="grey"> &#45;loggers</text>
</g>
<!-- Node4&#45;&gt;Node3 -->
<g id="edge3_Node000003_Node000004" class="edge">
<title>Node4&#45;&gt;Node3</title>
<g id="a_edge3_Node000003_Node000004"><a xlink:title=" ">
<path fill="none" stroke="#63b8ff" d="M146.55,-508.03C151.23,-484.41 160.61,-448.72 177.75,-422 181.53,-416.12 186.06,-410.45 190.94,-405.13"/>
<polygon fill="none" stroke="#63b8ff" points="190.95,-405.13 192.32,-398.05 199.38,-396.59 198.01,-403.67 190.95,-405.13"/>
</a>
</g>
<text text-anchor="middle" x="202.88" y="-444.5" font-family="Helvetica,sans-Serif" font-size="10.00" fill="grey"> +elements</text>
</g>
<!-- Node5 -->
<g id="Node000005" class="node">
<title>Node5</title>
<g id="a_Node000005"><a xlink:title=" ">
<polygon fill="white" stroke="none" points="237,-820 140,-820 140,-768 237,-768 237,-820"/>
<text text-anchor="start" x="144.62" y="-806.5" font-family="Helvetica,sans-Serif" font-size="10.00">std::unique_ptr&lt; T &gt;</text>
<text text-anchor="start" x="187" y="-790.5" font-family="Helvetica,sans-Serif" font-size="10.00"> </text>
<text text-anchor="start" x="151" y="-774.5" font-family="Helvetica,sans-Serif" font-size="10.00">+</text>
<text text-anchor="start" x="168" y="-774.5" font-family="Helvetica,sans-Serif" font-size="10.00">operator&#45;&gt;()</text>
<polygon fill="#666666" stroke="#666666" points="140,-802 140,-802 237,-802 237,-802 140,-802"/>
<polygon fill="#666666" stroke="#666666" points="140,-786 140,-786 237,-786 237,-786 140,-786"/>
<polygon fill="none" stroke="#666666" points="140,-768 140,-820 237,-820 237,-768 140,-768"/>
</a>
</g>
</g>
<!-- Node5&#45;&gt;Node4 -->
<g id="edge5_Node000004_Node000005" class="edge">
<title>Node5&#45;&gt;Node4</title>
<g id="a_edge5_Node000004_Node000005"><a xlink:title=" ">
<path fill="none" stroke="orange" d="M179.55,-757.13C172.4,-727.49 162.53,-684.21 156,-646 150.96,-616.53 147.1,-582.35 144.82,-559.79"/>
<polygon fill="orange" stroke="orange" points="176.12,-757.82 181.88,-766.7 182.92,-756.16 176.12,-757.82"/>
</a>
</g>
<text text-anchor="middle" x="182.75" y="-616.5" font-family="Helvetica,sans-Serif" font-size="10.00" fill="grey"> &lt; ILogger &gt;</text>
</g>
<!-- Node6 -->
<g id="Node000006" class="node">
<title>Node6</title>
<g id="a_Node000006"><a xlink:title=" ">
<polygon fill="white" stroke="none" points="316,-1024 301,-1024 301,-972 316,-972 316,-1024"/>
<text text-anchor="start" x="305.88" y="-1010.5" font-family="Helvetica,sans-Serif" font-size="10.00">T</text>
<text text-anchor="start" x="307" y="-994.5" font-family="Helvetica,sans-Serif" font-size="10.00"> </text>
<text text-anchor="start" x="307" y="-978.5" font-family="Helvetica,sans-Serif" font-size="10.00"> </text>
<polygon fill="#666666" stroke="#666666" points="301,-1006 301,-1006 316,-1006 316,-1006 301,-1006"/>
<polygon fill="#666666" stroke="#666666" points="301,-990 301,-990 316,-990 316,-990 301,-990"/>
<polygon fill="none" stroke="#666666" points="301,-972 301,-1024 316,-1024 316,-972 301,-972"/>
</a>
</g>
</g>
<!-- Node6&#45;&gt;Node5 -->
<g id="edge6_Node000005_Node000006" class="edge">
<title>Node6&#45;&gt;Node5</title>
<g id="a_edge6_Node000005_Node000006"><a xlink:title=" ">
<path fill="none" stroke="#63b8ff" d="M301.18,-995.1C285.61,-990.69 249.13,-978.2 230.25,-954 202.9,-918.94 193.37,-867.65 190.11,-832.88"/>
<polygon fill="none" stroke="#63b8ff" points="190.11,-832.85 185.66,-827.18 189.18,-820.89 193.63,-826.56 190.11,-832.85"/>
</a>
</g>
<text text-anchor="middle" x="240.62" y="-944.5" font-family="Helvetica,sans-Serif" font-size="10.00" fill="grey"> +ptr</text>
</g>
<!-- Node7 -->
<g id="Node000007" class="node">
<title>Node7</title>
<g id="a_Node000007"><a xlink:title=" ">
<polygon fill="white" stroke="none" points="295.5,-646 217.5,-646 217.5,-594 295.5,-594 295.5,-646"/>
<text text-anchor="start" x="222.38" y="-632.5" font-family="Helvetica,sans-Serif" font-size="10.00">std::vector&lt; T &gt;</text>
<text text-anchor="start" x="255" y="-616.5" font-family="Helvetica,sans-Serif" font-size="10.00"> </text>
<text text-anchor="start" x="255" y="-600.5" font-family="Helvetica,sans-Serif" font-size="10.00"> </text>
<polygon fill="#666666" stroke="#666666" points="217.5,-628 217.5,-628 295.5,-628 295.5,-628 217.5,-628"/>
<polygon fill="#666666" stroke="#666666" points="217.5,-612 217.5,-612 295.5,-612 295.5,-612 217.5,-612"/>
<polygon fill="none" stroke="#666666" points="217.5,-594 217.5,-646 295.5,-646 295.5,-594 217.5,-594"/>
</a>
</g>
</g>
<!-- Node6&#45;&gt;Node7 -->
<g id="edge8_Node000007_Node000006" class="edge">
<title>Node6&#45;&gt;Node7</title>
<g id="a_edge8_Node000007_Node000006"><a xlink:title=" ">
<path fill="none" stroke="#63b8ff" d="M301.03,-991.27C291.97,-983.82 277.11,-969.86 270.75,-954 249.65,-901.42 252.49,-734.45 254.99,-658.85"/>
<polygon fill="none" stroke="#63b8ff" points="255,-658.73 251.21,-652.6 255.42,-646.74 259.21,-652.88 255,-658.73"/>
</a>
</g>
<text text-anchor="middle" x="295.88" y="-944.5" font-family="Helvetica,sans-Serif" font-size="10.00" fill="grey"> +elements</text>
</g>
<!-- Node10 -->
<g id="Node000010" class="node">
<title>Node10</title>
<g id="a_Node000010"><a xlink:title=" ">
<polygon fill="white" stroke="none" points="661,-820 582,-820 582,-768 661,-768 661,-820"/>
<text text-anchor="start" x="587" y="-806.5" font-family="Helvetica,sans-Serif" font-size="10.00">std::queue&lt; T &gt;</text>
<text text-anchor="start" x="620" y="-790.5" font-family="Helvetica,sans-Serif" font-size="10.00"> </text>
<text text-anchor="start" x="620" y="-774.5" font-family="Helvetica,sans-Serif" font-size="10.00"> </text>
<polygon fill="#666666" stroke="#666666" points="582,-802 582,-802 661,-802 661,-802 582,-802"/>
<polygon fill="#666666" stroke="#666666" points="582,-786 582,-786 661,-786 661,-786 582,-786"/>
<polygon fill="none" stroke="#666666" points="582,-768 582,-820 661,-820 661,-768 582,-768"/>
</a>
</g>
</g>
<!-- Node6&#45;&gt;Node10 -->
<g id="edge12_Node000010_Node000006" class="edge">
<title>Node6&#45;&gt;Node10</title>
<g id="a_edge12_Node000010_Node000006"><a xlink:title=" ">
<path fill="none" stroke="#63b8ff" d="M315.97,-996.12C345.33,-992.36 454.73,-975.36 525.5,-924 559.06,-899.65 585.99,-860.12 602.69,-831.24"/>
<polygon fill="none" stroke="#63b8ff" points="602.7,-831.22 602.14,-824.04 608.56,-820.75 609.12,-827.94 602.7,-831.22"/>
</a>
</g>
<text text-anchor="middle" x="517.88" y="-944.5" font-family="Helvetica,sans-Serif" font-size="10.00" fill="grey"> +elements</text>
</g>
<!-- Node15 -->
<g id="Node000015" class="node">
<title>Node15</title>
<g id="a_Node000015"><a xlink:title=" ">
<polygon fill="white" stroke="none" points="388.5,-820 306.5,-820 306.5,-768 388.5,-768 388.5,-820"/>
<text text-anchor="start" x="311.5" y="-806.5" font-family="Helvetica,sans-Serif" font-size="10.00">std::atomic&lt; T &gt;</text>
<text text-anchor="start" x="346" y="-790.5" font-family="Helvetica,sans-Serif" font-size="10.00"> </text>
<text text-anchor="start" x="346" y="-774.5" font-family="Helvetica,sans-Serif" font-size="10.00"> </text>
<polygon fill="#666666" stroke="#666666" points="306.5,-802 306.5,-802 388.5,-802 388.5,-802 306.5,-802"/>
<polygon fill="#666666" stroke="#666666" points="306.5,-786 306.5,-786 388.5,-786 388.5,-786 306.5,-786"/>
<polygon fill="none" stroke="#666666" points="306.5,-768 306.5,-820 388.5,-820 388.5,-768 306.5,-768"/>
</a>
</g>
</g>
<!-- Node6&#45;&gt;Node15 -->
<g id="edge19_Node000015_Node000006" class="edge">
<title>Node6&#45;&gt;Node15</title>
<g id="a_edge19_Node000015_Node000006"><a xlink:title=" ">
<path fill="none" stroke="#63b8ff" d="M315.99,-977.97C318.68,-970.57 321.52,-961.98 323.5,-954 333.63,-913.1 340.16,-865.15 343.81,-832.69"/>
<polygon fill="none" stroke="#63b8ff" points="343.82,-832.62 340.48,-826.23 345.1,-820.69 348.44,-827.08 343.82,-832.62"/>
</a>
</g>
<text text-anchor="middle" x="336.62" y="-944.5" font-family="Helvetica,sans-Serif" font-size="10.00" fill="grey"> +ptr</text>
</g>
<!-- Node7&#45;&gt;Node3 -->
<g id="edge7_Node000003_Node000007" class="edge">
<title>Node7&#45;&gt;Node3</title>
<g id="a_edge7_Node000003_Node000007"><a xlink:title=" ">
<path fill="none" stroke="orange" d="M251.66,-582.72C251.42,-580.45 251.19,-578.19 251,-576 245.33,-512.07 242.5,-436.94 241.29,-395.8"/>
<polygon fill="orange" stroke="orange" points="248.17,-582.99 252.8,-592.52 255.12,-582.18 248.17,-582.99"/>
</a>
</g>
<text text-anchor="start" x="251.5" y="-536.5" font-family="Helvetica,sans-Serif" font-size="10.00" fill="grey"> &lt; std::unique_ptr&lt;</text>
<text text-anchor="middle" x="292.75" y="-524.5" font-family="Helvetica,sans-Serif" font-size="10.00" fill="grey"> ILogger &gt; &gt;</text>
</g>
<!-- Node8 -->
<g id="Node000008" class="node">
<title>Node8</title>
<g id="a_Node000008"><a xlink:href="class_concurrent_queue.html" target="_top" xlink:title=" ">
<polygon fill="white" stroke="none" points="541.5,-404 433.5,-404 433.5,-324 541.5,-324 541.5,-404"/>
<text text-anchor="start" x="438.38" y="-390.5" font-family="Helvetica,sans-Serif" font-size="10.00">ConcurrentQueue&lt; std</text>
<text text-anchor="start" x="444.38" y="-378.5" font-family="Helvetica,sans-Serif" font-size="10.00">::function&lt; void()&gt; &gt;</text>
<text text-anchor="start" x="450.5" y="-362.5" font-family="Helvetica,sans-Serif" font-size="10.00">&#45;</text>
<text text-anchor="start" x="470.5" y="-362.5" font-family="Helvetica,sans-Serif" font-size="10.00">cond_var_</text>
<text text-anchor="start" x="449" y="-346.5" font-family="Helvetica,sans-Serif" font-size="10.00">+</text>
<text text-anchor="start" x="470.5" y="-346.5" font-family="Helvetica,sans-Serif" font-size="10.00">pop()</text>
<text text-anchor="start" x="449" y="-330.5" font-family="Helvetica,sans-Serif" font-size="10.00">+</text>
<text text-anchor="start" x="470.5" y="-330.5" font-family="Helvetica,sans-Serif" font-size="10.00">push()</text>
<polygon fill="#666666" stroke="#666666" points="433.5,-374 433.5,-374 541.5,-374 541.5,-374 433.5,-374"/>
<polygon fill="#666666" stroke="#666666" points="433.5,-358 433.5,-358 468.5,-358 468.5,-358 433.5,-358"/>
<polygon fill="#666666" stroke="#666666" points="468.5,-358 468.5,-358 541.5,-358 541.5,-358 468.5,-358"/>
<polygon fill="none" stroke="#666666" points="433.5,-324 433.5,-404 541.5,-404 541.5,-324 433.5,-324"/>
</a>
</g>
</g>
<!-- Node8&#45;&gt;Node1 -->
<g id="edge9_Node000001_Node000008" class="edge">
<title>Node8&#45;&gt;Node1</title>
<g id="a_edge9_Node000001_Node000008"><a xlink:title=" ">
<path fill="none" stroke="#63b8ff" d="M467.6,-324.24C457.62,-304.8 444.95,-280.12 432.14,-255.17"/>
<polygon fill="none" stroke="#63b8ff" points="432.15,-255.18 425.85,-251.67 426.66,-244.5 432.96,-248.01 432.15,-255.18"/>
</a>
</g>
<text text-anchor="middle" x="475.25" y="-296.5" font-family="Helvetica,sans-Serif" font-size="10.00" fill="grey"> &#45;queue_</text>
</g>
<!-- Node9 -->
<g id="Node000009" class="node">
<title>Node9</title>
<g id="a_Node000009"><a xlink:title=" ">
<polygon fill="white" stroke="none" points="767.5,-566 649.5,-566 649.5,-502 767.5,-502 767.5,-566"/>
<text text-anchor="start" x="654.5" y="-552.5" font-family="Helvetica,sans-Serif" font-size="10.00">std::queue&lt; std::function</text>
<text text-anchor="start" x="685.25" y="-540.5" font-family="Helvetica,sans-Serif" font-size="10.00">&lt; void()&gt; &gt;</text>
<text text-anchor="start" x="668.5" y="-524.5" font-family="Helvetica,sans-Serif" font-size="10.00">+</text>
<text text-anchor="start" x="693.5" y="-524.5" font-family="Helvetica,sans-Serif" font-size="10.00">elements</text>
<text text-anchor="start" x="707" y="-508.5" font-family="Helvetica,sans-Serif" font-size="10.00"> </text>
<polygon fill="#666666" stroke="#666666" points="649.5,-536 649.5,-536 767.5,-536 767.5,-536 649.5,-536"/>
<polygon fill="#666666" stroke="#666666" points="649.5,-520 649.5,-520 691.5,-520 691.5,-520 649.5,-520"/>
<polygon fill="#666666" stroke="#666666" points="691.5,-520 691.5,-520 767.5,-520 767.5,-520 691.5,-520"/>
<polygon fill="none" stroke="#666666" points="649.5,-502 649.5,-566 767.5,-566 767.5,-502 649.5,-502"/>
</a>
</g>
</g>
<!-- Node9&#45;&gt;Node8 -->
<g id="edge10_Node000008_Node000009" class="edge">
<title>Node9&#45;&gt;Node8</title>
<g id="a_edge10_Node000008_Node000009"><a xlink:title=" ">
<path fill="none" stroke="#63b8ff" d="M687.45,-502C669.05,-477.09 640.2,-442.92 607.5,-422 588.01,-409.53 577.55,-413.53 553.14,-404.47"/>
<polygon fill="none" stroke="#63b8ff" points="553.21,-404.5 546.13,-405.86 542.15,-399.85 549.23,-398.49 553.21,-404.5"/>
</a>
</g>
<text text-anchor="middle" x="683.25" y="-444.5" font-family="Helvetica,sans-Serif" font-size="10.00" fill="grey"> &#45;queue_</text>
</g>
<!-- Node10&#45;&gt;Node9 -->
<g id="edge11_Node000009_Node000010" class="edge">
<title>Node10&#45;&gt;Node9</title>
<g id="a_edge11_Node000009_Node000010"><a xlink:title=" ">
<path fill="none" stroke="orange" d="M633.48,-757.46C650.66,-706.53 681.98,-613.64 698.18,-565.59"/>
<polygon fill="orange" stroke="orange" points="630.2,-756.23 630.33,-766.83 636.84,-758.47 630.2,-756.23"/>
</a>
</g>
<text text-anchor="middle" x="742.38" y="-616.5" font-family="Helvetica,sans-Serif" font-size="10.00" fill="grey"> &lt; std::function&lt; void()&gt; &gt;</text>
</g>
<!-- Node11 -->
<g id="Node000011" class="node">
<title>Node11</title>
<g id="a_Node000011"><a xlink:title=" ">
<polygon fill="white" stroke="none" points="516.5,-820 460.5,-820 460.5,-768 516.5,-768 516.5,-820"/>
<text text-anchor="start" x="465.25" y="-806.5" font-family="Helvetica,sans-Serif" font-size="10.00">std::mutex</text>
<text text-anchor="start" x="487" y="-790.5" font-family="Helvetica,sans-Serif" font-size="10.00"> </text>
<text text-anchor="start" x="487" y="-774.5" font-family="Helvetica,sans-Serif" font-size="10.00"> </text>
<polygon fill="#666666" stroke="#666666" points="460.5,-802 460.5,-802 516.5,-802 516.5,-802 460.5,-802"/>
<polygon fill="#666666" stroke="#666666" points="460.5,-786 460.5,-786 516.5,-786 516.5,-786 460.5,-786"/>
<polygon fill="none" stroke="#666666" points="460.5,-768 460.5,-820 516.5,-820 516.5,-768 460.5,-768"/>
</a>
</g>
</g>
<!-- Node11&#45;&gt;Node1 -->
<g id="edge20_Node000001_Node000011" class="edge">
<title>Node11&#45;&gt;Node1</title>
<g id="a_edge20_Node000001_Node000011"><a xlink:title=" ">
<path fill="none" stroke="#63b8ff" d="M479.89,-768.27C466.32,-728.32 439.99,-646.91 425.5,-576 406.14,-481.28 392.97,-373.46 384.6,-288.62"/>
<polygon fill="none" stroke="#63b8ff" points="384.6,-288.58 380.04,-282.99 383.44,-276.63 388,-282.22 384.6,-288.58"/>
</a>
</g>
<text text-anchor="middle" x="425.62" y="-444.5" font-family="Helvetica,sans-Serif" font-size="10.00" fill="grey"> &#45;mutex_</text>
</g>
<!-- Node11&#45;&gt;Node8 -->
<g id="edge13_Node000008_Node000011" class="edge">
<title>Node11&#45;&gt;Node8</title>
<g id="a_edge13_Node000008_Node000011"><a xlink:title=" ">
<path fill="none" stroke="#63b8ff" d="M506.08,-768.38C547.98,-706.42 645.48,-540.49 579.5,-422 579.47,-421.94 567.52,-414.53 552.25,-405.07"/>
<polygon fill="none" stroke="#63b8ff" points="552.21,-405.05 545.01,-405.29 542.01,-398.73 549.22,-398.49 552.21,-405.05"/>
</a>
</g>
<text text-anchor="middle" x="620.62" y="-530.5" font-family="Helvetica,sans-Serif" font-size="10.00" fill="grey"> &#45;mutex_</text>
</g>
<!-- Node12 -->
<g id="Node000012" class="node">
<title>Node12</title>
<g id="a_Node000012"><a xlink:href="class_concurrent_queue.html" target="_top" xlink:title=" ">
<polygon fill="white" stroke="none" points="543,-576 434,-576 434,-492 543,-492 543,-576"/>
<text text-anchor="start" x="439" y="-562.5" font-family="Helvetica,sans-Serif" font-size="10.00">ConcurrentQueue&lt; T &gt;</text>
<text text-anchor="start" x="451.5" y="-546.5" font-family="Helvetica,sans-Serif" font-size="10.00">&#45;</text>
<text text-anchor="start" x="472" y="-546.5" font-family="Helvetica,sans-Serif" font-size="10.00">cond_var_</text>
<text text-anchor="start" x="451.5" y="-530.5" font-family="Helvetica,sans-Serif" font-size="10.00">&#45;</text>
<text text-anchor="start" x="472" y="-530.5" font-family="Helvetica,sans-Serif" font-size="10.00">queue_</text>
<text text-anchor="start" x="450" y="-514.5" font-family="Helvetica,sans-Serif" font-size="10.00">+</text>
<text text-anchor="start" x="472" y="-514.5" font-family="Helvetica,sans-Serif" font-size="10.00">pop()</text>
<text text-anchor="start" x="450" y="-498.5" font-family="Helvetica,sans-Serif" font-size="10.00">+</text>
<text text-anchor="start" x="472" y="-498.5" font-family="Helvetica,sans-Serif" font-size="10.00">push()</text>
<polygon fill="#666666" stroke="#666666" points="434,-558 434,-558 543,-558 543,-558 434,-558"/>
<polygon fill="#666666" stroke="#666666" points="434,-526 434,-526 470,-526 470,-526 434,-526"/>
<polygon fill="#666666" stroke="#666666" points="470,-526 470,-526 543,-526 543,-526 470,-526"/>
<polygon fill="none" stroke="#666666" points="434,-492 434,-576 543,-576 543,-492 434,-492"/>
</a>
</g>
</g>
<!-- Node11&#45;&gt;Node12 -->
<g id="edge15_Node000012_Node000011" class="edge">
<title>Node11&#45;&gt;Node12</title>
<g id="a_edge15_Node000012_Node000011"><a xlink:title=" ">
<path fill="none" stroke="#63b8ff" d="M488.5,-768.26C488.5,-727.13 488.5,-643.76 488.5,-588.65"/>
<polygon fill="none" stroke="#63b8ff" points="488.5,-588.54 484.5,-582.54 488.5,-576.54 492.5,-582.54 488.5,-588.54"/>
</a>
</g>
<text text-anchor="middle" x="507.62" y="-616.5" font-family="Helvetica,sans-Serif" font-size="10.00" fill="grey"> &#45;mutex_</text>
</g>
<!-- Node12&#45;&gt;Node8 -->
<g id="edge14_Node000008_Node000012" class="edge">
<title>Node12&#45;&gt;Node8</title>
<g id="a_edge14_Node000008_Node000012"><a xlink:title=" ">
<path fill="none" stroke="orange" d="M469.18,-481.09C468.63,-478.71 468.15,-476.34 467.75,-474 463.86,-451.22 463.91,-444.79 467.75,-422 468.76,-416.01 470.32,-409.81 472.14,-403.8"/>
<polygon fill="orange" stroke="orange" points="465.8,-482 471.78,-490.75 472.56,-480.18 465.8,-482"/>
</a>
</g>
<text text-anchor="middle" x="523.38" y="-444.5" font-family="Helvetica,sans-Serif" font-size="10.00" fill="grey"> &lt; std::function&lt; void()&gt; &gt;</text>
</g>
<!-- Node13 -->
<g id="Node000013" class="node">
<title>Node13</title>
<g id="a_Node000013"><a xlink:title=" ">
<polygon fill="white" stroke="none" points="615.5,-390 559.5,-390 559.5,-338 615.5,-338 615.5,-390"/>
<text text-anchor="start" x="564.25" y="-376.5" font-family="Helvetica,sans-Serif" font-size="10.00">std::thread</text>
<text text-anchor="start" x="586" y="-360.5" font-family="Helvetica,sans-Serif" font-size="10.00"> </text>
<text text-anchor="start" x="586" y="-344.5" font-family="Helvetica,sans-Serif" font-size="10.00"> </text>
<polygon fill="#666666" stroke="#666666" points="559.5,-372 559.5,-372 615.5,-372 615.5,-372 559.5,-372"/>
<polygon fill="#666666" stroke="#666666" points="559.5,-356 559.5,-356 615.5,-356 615.5,-356 559.5,-356"/>
<polygon fill="none" stroke="#666666" points="559.5,-338 559.5,-390 615.5,-390 615.5,-338 559.5,-338"/>
</a>
</g>
</g>
<!-- Node13&#45;&gt;Node1 -->
<g id="edge16_Node000001_Node000013" class="edge">
<title>Node13&#45;&gt;Node1</title>
<g id="a_edge16_Node000001_Node000013"><a xlink:title=" ">
<path fill="none" stroke="#63b8ff" d="M564.04,-338.22C559.55,-333.49 554.88,-328.59 550.5,-324 512.34,-284.06 469.42,-239.44 435.28,-204.03"/>
<polygon fill="none" stroke="#63b8ff" points="435.3,-204.05 428.26,-202.51 426.97,-195.41 434.02,-196.95 435.3,-204.05"/>
</a>
</g>
<text text-anchor="middle" x="550.38" y="-296.5" font-family="Helvetica,sans-Serif" font-size="10.00" fill="grey"> &#45;worker_</text>
</g>
<!-- Node14 -->
<g id="Node000014" class="node">
<title>Node14</title>
<g id="a_Node000014"><a xlink:title=" ">
<polygon fill="white" stroke="none" points="382.5,-474 288.5,-474 288.5,-422 382.5,-422 382.5,-474"/>
<text text-anchor="start" x="293.12" y="-460.5" font-family="Helvetica,sans-Serif" font-size="10.00">std::atomic&lt; bool &gt;</text>
<text text-anchor="start" x="308.5" y="-444.5" font-family="Helvetica,sans-Serif" font-size="10.00">+</text>
<text text-anchor="start" x="334.5" y="-444.5" font-family="Helvetica,sans-Serif" font-size="10.00">ptr</text>
<text text-anchor="start" x="334" y="-428.5" font-family="Helvetica,sans-Serif" font-size="10.00"> </text>
<polygon fill="#666666" stroke="#666666" points="288.5,-456 288.5,-456 382.5,-456 382.5,-456 288.5,-456"/>
<polygon fill="#666666" stroke="#666666" points="288.5,-440 288.5,-440 332.5,-440 332.5,-440 288.5,-440"/>
<polygon fill="#666666" stroke="#666666" points="332.5,-440 332.5,-440 382.5,-440 382.5,-440 332.5,-440"/>
<polygon fill="none" stroke="#666666" points="288.5,-422 288.5,-474 382.5,-474 382.5,-422 288.5,-422"/>
</a>
</g>
</g>
<!-- Node14&#45;&gt;Node1 -->
<g id="edge17_Node000001_Node000014" class="edge">
<title>Node14&#45;&gt;Node1</title>
<g id="a_edge17_Node000001_Node000014"><a xlink:title=" ">
<path fill="none" stroke="#63b8ff" d="M338.5,-422.06C342.07,-392.29 348.35,-340.04 354.54,-288.47"/>
<polygon fill="none" stroke="#63b8ff" points="354.54,-288.54 351.28,-282.11 355.97,-276.63 359.22,-283.06 354.54,-288.54"/>
</a>
</g>
<text text-anchor="middle" x="366.62" y="-360.5" font-family="Helvetica,sans-Serif" font-size="10.00" fill="grey"> &#45;done_</text>
</g>
<!-- Node15&#45;&gt;Node14 -->
<g id="edge18_Node000014_Node000015" class="edge">
<title>Node15&#45;&gt;Node14</title>
<g id="a_edge18_Node000014_Node000015"><a xlink:title=" ">
<path fill="none" stroke="orange" d="M346.24,-756.97C343.8,-686.95 338.47,-534.08 336.37,-473.98"/>
<polygon fill="orange" stroke="orange" points="342.74,-756.88 346.58,-766.75 349.73,-756.63 342.74,-756.88"/>
</a>
</g>
<text text-anchor="middle" x="362" y="-616.5" font-family="Helvetica,sans-Serif" font-size="10.00" fill="grey"> &lt; bool &gt;</text>
</g>
</g>
</svg>

<g id="navigator" transform="translate(0 0)" fill="#404254">
  <rect fill="#f2f5e9" fill-opacity="0.5" stroke="#606060" stroke-width=".5" x="0" y="0" width="60" height="60"/>
  <use id="zoomplus" xlink:href="#zoomPlus" x="17" y="9" onmousedown="handleZoom(evt,'in')"/>
  <use id="zoomminus" xlink:href="#zoomMin" x="42" y="9" onmousedown="handleZoom(evt,'out')"/>
  <use id="reset" xlink:href="#resetDef" x="30" y="36" onmousedown="handleReset()"/>
   <use id="arrowup" xlink:href="#arrowUp" x="0" y="0" onmousedown="handlePan(0,-1)"/>
  <use id="arrowright" xlink:href="#arrowRight" x="0" y="0" onmousedown="handlePan(1,0)"/>
  <use id="arrowdown" xlink:href="#arrowDown" x="0" y="0" onmousedown="handlePan(0,1)"/>
  <use id="arrowleft" xlink:href="#arrowLeft" x="0" y="0" onmousedown="handlePan(-1,0)"/>
</g>
<svg viewBox="0 0 15 15" width="100%" height="30px" preserveAspectRatio="xMaxYMin meet">
 <g id="arrow_out" transform="scale(0.3 0.3)">
  <a xlink:href="class_g_l_e_s_c_1_1_logger__coll__graph_org.svg" target="_base">
   <rect id="button" ry="5" rx="5" y="6" x="6" height="38" width="38"
        fill="#f2f5e9" fill-opacity="0.5" stroke="#606060" stroke-width="1.0"/>
   <path id="arrow"
     d="M 11.500037,31.436501 C 11.940474,20.09759 22.043105,11.32322 32.158766,21.979434 L 37.068811,17.246167 C 37.068811,17.246167 37.088388,32 37.088388,32 L 22.160133,31.978069 C 22.160133,31.978069 26.997745,27.140456 26.997745,27.140456 C 18.528582,18.264221 13.291696,25.230495 11.500037,31.436501 z"
     style="fill:#404040;"/>
  </a>
 </g>
</svg>

<style type='text/css'>
<![CDATA[
[data-mouse-over-selected='false'] { opacity: 0.7; }
[data-mouse-over-selected='true']  { opacity: 1.0; }
]]>
</style>
<script type="application/ecmascript"><![CDATA[
document.addEventListener('DOMContentLoaded', (event) => {
  highlightEdges();
  highlightAdjacentNodes();
});
]]></script>
</svg>
