<?xml version="1.0" encoding="UTF-8" standalone="no"?>
<!DOCTYPE svg PUBLIC "-//W3C//DTD SVG 1.1//EN"
 "http://www.w3.org/Graphics/SVG/1.1/DTD/svg11.dtd">
<!-- Generated by graphviz version 11.0.0 (20240428.1522)
 -->
<!-- Title: GLESC::Math::Vector::isZero Pages: 1 -->
<svg width="406pt" height="190pt"
 viewBox="0.00 0.00 406.25 190.00" xmlns="http://www.w3.org/2000/svg" xmlns:xlink="http://www.w3.org/1999/xlink">

<svg id="main" version="1.1" xmlns="http://www.w3.org/2000/svg" xmlns:xlink="http://www.w3.org/1999/xlink" xml:space="preserve" onload="init(evt)">
<style type="text/css"><![CDATA[
.node, .edge {opacity: 0.7;}
.node.selected, .edge.selected {opacity: 1;}
.edge:hover path { stroke: red; }
.edge:hover polygon { stroke: red; fill: red; }
]]></style>
<script type="application/ecmascript" xlink:href="svg.min.js"/>
<svg id="graph" class="graph">
<g id="graph0" class="graph" transform="scale(1 1) rotate(0) translate(4 186)">
<title>GLESC::Math::Vector::isZero</title>
<!-- Node1 -->
<g id="Node000001" class="node">
<title>Node1</title>
<g id="a_Node000001"><a xlink:title="Checks if the vector is a zero vector.">
<polygon fill="#999999" stroke="#666666" points="398.25,-107 287,-107 287,-75 398.25,-75 398.25,-107"/>
<text text-anchor="start" x="295" y="-93.5" font-family="Helvetica,sans-Serif" font-size="10.00">GLESC::Math::Vector</text>
<text text-anchor="middle" x="342.62" y="-81.5" font-family="Helvetica,sans-Serif" font-size="10.00">::isZero</text>
</a>
</g>
</g>
<!-- Node2 -->
<g id="Node000002" class="node">
<title>Node2</title>
<g id="a_Node000002"><a xlink:href="class_g_l_e_s_c_1_1_math_1_1_plane.html#a08b064d3e2e9da2ceeeb7ddd9c68e6a6" target="_top" xlink:title="Set the normal vector of the plane.">
<polygon fill="white" stroke="#666666" points="251,-107 143.5,-107 143.5,-75 251,-75 251,-107"/>
<text text-anchor="start" x="151.5" y="-93.5" font-family="Helvetica,sans-Serif" font-size="10.00">GLESC::Math::Plane</text>
<text text-anchor="middle" x="197.25" y="-81.5" font-family="Helvetica,sans-Serif" font-size="10.00">::setNormal</text>
</a>
</g>
</g>
<!-- Node1&#45;&gt;Node2 -->
<g id="edge1_Node000001_Node000002" class="edge">
<title>Node1&#45;&gt;Node2</title>
<g id="a_edge1_Node000001_Node000002"><a xlink:title=" ">
<path fill="none" stroke="#63b8ff" d="M275.1,-91C267.18,-91 259.17,-91 251.47,-91"/>
<polygon fill="#63b8ff" stroke="#63b8ff" points="275.09,-94.5 285.09,-91 275.09,-87.5 275.09,-94.5"/>
</a>
</g>
</g>
<!-- Node3 -->
<g id="Node000003" class="node">
<title>Node3</title>
<g id="a_Node000003"><a xlink:href="class_g_l_e_s_c_1_1_math_1_1_plane.html#a45a29d0f34d028e4f34ec5cf772f2ff2" target="_top" xlink:title="Construct a new Plane object from a normal vector and a distance.">
<polygon fill="white" stroke="#666666" points="107.5,-182 0,-182 0,-150 107.5,-150 107.5,-182"/>
<text text-anchor="start" x="8" y="-168.5" font-family="Helvetica,sans-Serif" font-size="10.00">GLESC::Math::Plane</text>
<text text-anchor="middle" x="53.75" y="-156.5" font-family="Helvetica,sans-Serif" font-size="10.00">::Plane</text>
</a>
</g>
</g>
<!-- Node2&#45;&gt;Node3 -->
<g id="edge2_Node000002_Node000003" class="edge">
<title>Node2&#45;&gt;Node3</title>
<g id="a_edge2_Node000002_Node000003"><a xlink:title=" ">
<path fill="none" stroke="#63b8ff" d="M158.69,-112.94C143,-121.89 124.5,-132.19 107.5,-141 102.01,-143.84 96.14,-146.75 90.39,-149.53"/>
<polygon fill="#63b8ff" stroke="#63b8ff" points="160.3,-116.04 167.23,-108.03 156.82,-109.97 160.3,-116.04"/>
</a>
</g>
</g>
<!-- Node4 -->
<g id="Node000004" class="node">
<title>Node4</title>
<g id="a_Node000004"><a xlink:href="class_g_l_e_s_c_1_1_math_1_1_plane.html#affc081045f970df73ea1a7e5bca2841f" target="_top" xlink:title="Construct a new Plane object from a point and a normal vector.">
<polygon fill="white" stroke="#666666" points="107.5,-132 0,-132 0,-100 107.5,-100 107.5,-132"/>
<text text-anchor="start" x="8" y="-118.5" font-family="Helvetica,sans-Serif" font-size="10.00">GLESC::Math::Plane</text>
<text text-anchor="middle" x="53.75" y="-106.5" font-family="Helvetica,sans-Serif" font-size="10.00">::Plane</text>
</a>
</g>
</g>
<!-- Node2&#45;&gt;Node4 -->
<g id="edge3_Node000002_Node000004" class="edge">
<title>Node2&#45;&gt;Node4</title>
<g id="a_edge3_Node000002_Node000004"><a xlink:title=" ">
<path fill="none" stroke="#63b8ff" d="M131.84,-102.38C123.75,-103.81 115.55,-105.26 107.67,-106.65"/>
<polygon fill="#63b8ff" stroke="#63b8ff" points="132.43,-105.83 141.67,-100.64 131.21,-98.94 132.43,-105.83"/>
</a>
</g>
</g>
<!-- Node5 -->
<g id="Node000005" class="node">
<title>Node5</title>
<g id="a_Node000005"><a xlink:href="class_g_l_e_s_c_1_1_math_1_1_plane.html#a468fe79f91e1aa6ebe498e6ab3ce7674" target="_top" xlink:title="Construct a new Plane object from a point and a line.">
<polygon fill="white" stroke="#666666" points="107.5,-82 0,-82 0,-50 107.5,-50 107.5,-82"/>
<text text-anchor="start" x="8" y="-68.5" font-family="Helvetica,sans-Serif" font-size="10.00">GLESC::Math::Plane</text>
<text text-anchor="middle" x="53.75" y="-56.5" font-family="Helvetica,sans-Serif" font-size="10.00">::Plane</text>
</a>
</g>
</g>
<!-- Node2&#45;&gt;Node5 -->
<g id="edge4_Node000002_Node000005" class="edge">
<title>Node2&#45;&gt;Node5</title>
<g id="a_edge4_Node000002_Node000005"><a xlink:title=" ">
<path fill="none" stroke="#63b8ff" d="M131.84,-79.62C123.75,-78.19 115.55,-76.74 107.67,-75.35"/>
<polygon fill="#63b8ff" stroke="#63b8ff" points="131.21,-83.06 141.67,-81.36 132.43,-76.17 131.21,-83.06"/>
</a>
</g>
</g>
<!-- Node6 -->
<g id="Node000006" class="node">
<title>Node6</title>
<g id="a_Node000006"><a xlink:href="class_g_l_e_s_c_1_1_math_1_1_plane.html#a503abb5ac4797527f02056f1223a0166" target="_top" xlink:title="Construct a new Plane object from three distinct points.">
<polygon fill="white" stroke="#666666" points="107.5,-32 0,-32 0,0 107.5,0 107.5,-32"/>
<text text-anchor="start" x="8" y="-18.5" font-family="Helvetica,sans-Serif" font-size="10.00">GLESC::Math::Plane</text>
<text text-anchor="middle" x="53.75" y="-6.5" font-family="Helvetica,sans-Serif" font-size="10.00">::Plane</text>
</a>
</g>
</g>
<!-- Node2&#45;&gt;Node6 -->
<g id="edge5_Node000002_Node000006" class="edge">
<title>Node2&#45;&gt;Node6</title>
<g id="a_edge5_Node000002_Node000006"><a xlink:title=" ">
<path fill="none" stroke="#63b8ff" d="M158.69,-69.06C143,-60.11 124.5,-49.81 107.5,-41 102.01,-38.16 96.14,-35.25 90.39,-32.47"/>
<polygon fill="#63b8ff" stroke="#63b8ff" points="156.82,-72.03 167.23,-73.97 160.3,-65.96 156.82,-72.03"/>
</a>
</g>
</g>
</g>
</svg>
</svg>

<style type='text/css'>
<![CDATA[
[data-mouse-over-selected='false'] { opacity: 0.7; }
[data-mouse-over-selected='true']  { opacity: 1.0; }
]]>
</style>
<script type="application/ecmascript"><![CDATA[
document.addEventListener('DOMContentLoaded', (event) => {
  highlightEdges();
  highlightAdjacentNodes();
});
]]></script>
</svg>
