<?xml version="1.0" encoding="UTF-8" standalone="no"?>
<!DOCTYPE svg PUBLIC "-//W3C//DTD SVG 1.1//EN"
 "http://www.w3.org/Graphics/SVG/1.1/DTD/svg11.dtd">
<!-- Generated by graphviz version 11.0.0 (20240428.1522)
 -->
<!-- Title: GLESC::Math::VectorAlgorithms::vectorScalarSub Pages: 1 -->
<svg width="313pt" height="204pt"
 viewBox="0.00 0.00 313.00 204.00" xmlns="http://www.w3.org/2000/svg" xmlns:xlink="http://www.w3.org/1999/xlink">
<g id="graph0" class="graph" transform="scale(1 1) rotate(0) translate(4 200)">
<title>GLESC::Math::VectorAlgorithms::vectorScalarSub</title>
<!-- Node1 -->
<g id="Node000001" class="node">
<title>Node1</title>
<g id="a_Node000001"><a xlink:title="Subtracts a scalar from a vector.">
<polygon fill="#999999" stroke="#666666" points="305,-102 147.25,-102 147.25,-70 305,-70 305,-102"/>
<text text-anchor="start" x="155.25" y="-88.5" font-family="Helvetica,sans-Serif" font-size="10.00">GLESC::Math::VectorAlgorithms</text>
<text text-anchor="middle" x="226.12" y="-76.5" font-family="Helvetica,sans-Serif" font-size="10.00">::vectorScalarSub</text>
</a>
</g>
</g>
<!-- Node2 -->
<g id="Node000002" class="node">
<title>Node2</title>
<g id="a_Node000002"><a xlink:href="class_g_l_e_s_c_1_1_math_1_1_vector.html#a4af393f3c2a49b31865e71752d34abdd" target="_top" xlink:title="Overloads the &#39;&#45;&#39; operator for scalar subtraction.">
<polygon fill="white" stroke="#666666" points="111.25,-196 0,-196 0,-164 111.25,-164 111.25,-196"/>
<text text-anchor="start" x="8" y="-182.5" font-family="Helvetica,sans-Serif" font-size="10.00">GLESC::Math::Vector</text>
<text text-anchor="middle" x="55.62" y="-170.5" font-family="Helvetica,sans-Serif" font-size="10.00">::operator&#45;</text>
</a>
</g>
</g>
<!-- Node1&#45;&gt;Node2 -->
<g id="edge1_Node000001_Node000002" class="edge">
<title>Node1&#45;&gt;Node2</title>
<g id="a_edge1_Node000001_Node000002"><a xlink:title=" ">
<path fill="none" stroke="#63b8ff" d="M190.18,-108.62C167.95,-122.64 138.35,-140.65 111.25,-155 105.72,-157.93 99.78,-160.86 93.93,-163.63"/>
<polygon fill="#63b8ff" stroke="#63b8ff" points="191.99,-111.61 198.56,-103.29 188.24,-105.7 191.99,-111.61"/>
</a>
</g>
</g>
<!-- Node3 -->
<g id="Node000003" class="node">
<title>Node3</title>
<g id="a_Node000003"><a xlink:href="class_g_l_e_s_c_1_1_math_1_1_vector.html#abe3d4276bcb4f8d78bbcb62bcc83482e" target="_top" xlink:title="In&#45;place subtraction with a scalar.">
<polygon fill="white" stroke="#666666" points="111.25,-146 0,-146 0,-114 111.25,-114 111.25,-146"/>
<text text-anchor="start" x="8" y="-132.5" font-family="Helvetica,sans-Serif" font-size="10.00">GLESC::Math::Vector</text>
<text text-anchor="middle" x="55.62" y="-120.5" font-family="Helvetica,sans-Serif" font-size="10.00">::operator&#45;=</text>
</a>
</g>
</g>
<!-- Node1&#45;&gt;Node3 -->
<g id="edge2_Node000001_Node000003" class="edge">
<title>Node1&#45;&gt;Node3</title>
<g id="a_edge2_Node000001_Node000003"><a xlink:title=" ">
<path fill="none" stroke="#63b8ff" d="M151.31,-105.28C137.99,-108.75 124.32,-112.32 111.66,-115.63"/>
<polygon fill="#63b8ff" stroke="#63b8ff" points="152.13,-108.68 160.92,-102.77 150.36,-101.91 152.13,-108.68"/>
</a>
</g>
</g>
<!-- Node4 -->
<g id="Node000004" class="node">
<title>Node4</title>
<g id="a_Node000004"><a xlink:href="_vector_algorithms_tests_8cpp.html#a8e9026320cad55a96eaa429500f7e475" target="_top" xlink:title=" ">
<polygon fill="white" stroke="#666666" points="94.38,-96 16.88,-96 16.88,-76 94.38,-76 94.38,-96"/>
<text text-anchor="middle" x="55.62" y="-82.5" font-family="Helvetica,sans-Serif" font-size="10.00">TYPED_TEST</text>
</a>
</g>
</g>
<!-- Node1&#45;&gt;Node4 -->
<g id="edge3_Node000001_Node000004" class="edge">
<title>Node1&#45;&gt;Node4</title>
<g id="a_edge3_Node000001_Node000004"><a xlink:title=" ">
<path fill="none" stroke="#63b8ff" d="M135.67,-86C121.15,-86 106.83,-86 94.45,-86"/>
<polygon fill="#63b8ff" stroke="#63b8ff" points="135.28,-89.5 145.28,-86 135.28,-82.5 135.28,-89.5"/>
</a>
</g>
</g>
<!-- Node5 -->
<g id="Node000005" class="node">
<title>Node5</title>
<g id="a_Node000005"><a xlink:href="_vector_tests_8cpp.html#afaf546047f7dc8c75e449d5ebe2a73be" target="_top" xlink:title=" ">
<polygon fill="white" stroke="#666666" points="94.38,-58 16.88,-58 16.88,-38 94.38,-38 94.38,-58"/>
<text text-anchor="middle" x="55.62" y="-44.5" font-family="Helvetica,sans-Serif" font-size="10.00">TYPED_TEST</text>
</a>
</g>
</g>
<!-- Node1&#45;&gt;Node5 -->
<g id="edge4_Node000001_Node000005" class="edge">
<title>Node1&#45;&gt;Node5</title>
<g id="a_edge4_Node000001_Node000005"><a xlink:title=" ">
<path fill="none" stroke="#63b8ff" d="M141.03,-67.04C124.86,-63.39 108.68,-59.74 94.87,-56.63"/>
<polygon fill="#63b8ff" stroke="#63b8ff" points="140.2,-70.43 150.72,-69.22 141.74,-63.61 140.2,-70.43"/>
</a>
</g>
</g>
<!-- Node6 -->
<g id="Node000006" class="node">
<title>Node6</title>
<g id="a_Node000006"><a xlink:href="_vector_tests_8cpp.html#ab3f5e2aacb2cc7706c36aa8c1f74ccdb" target="_top" xlink:title=" ">
<polygon fill="white" stroke="#666666" points="94.38,-20 16.88,-20 16.88,0 94.38,0 94.38,-20"/>
<text text-anchor="middle" x="55.62" y="-6.5" font-family="Helvetica,sans-Serif" font-size="10.00">TYPED_TEST</text>
</a>
</g>
</g>
<!-- Node1&#45;&gt;Node6 -->
<g id="edge5_Node000001_Node000006" class="edge">
<title>Node1&#45;&gt;Node6</title>
<g id="a_edge5_Node000001_Node000006"><a xlink:title=" ">
<path fill="none" stroke="#63b8ff" d="M185.08,-64.36C163.52,-53.12 136.28,-39.57 111.25,-29 104.13,-25.99 96.35,-23.08 88.95,-20.47"/>
<polygon fill="#63b8ff" stroke="#63b8ff" points="183.36,-67.41 193.84,-68.97 186.61,-61.22 183.36,-67.41"/>
</a>
</g>
</g>
</g>
</svg>
