<?xml version="1.0" encoding="UTF-8" standalone="no"?>
<!DOCTYPE svg PUBLIC "-//W3C//DTD SVG 1.1//EN"
 "http://www.w3.org/Graphics/SVG/1.1/DTD/svg11.dtd">
<!-- Generated by graphviz version 11.0.0 (20240428.1522)
 -->
<!-- Title: GLESC::ResMng::Texture::TextureSurface::load Pages: 1 -->
<svg width="492pt" height="108pt"
 viewBox="0.00 0.00 491.75 108.00" xmlns="http://www.w3.org/2000/svg" xmlns:xlink="http://www.w3.org/1999/xlink">

<svg id="main" version="1.1" xmlns="http://www.w3.org/2000/svg" xmlns:xlink="http://www.w3.org/1999/xlink" xml:space="preserve" onload="init(evt)">
<style type="text/css"><![CDATA[
.node, .edge {opacity: 0.7;}
.node.selected, .edge.selected {opacity: 1;}
.edge:hover path { stroke: red; }
.edge:hover polygon { stroke: red; fill: red; }
]]></style>
<script type="application/ecmascript" xlink:href="svg.min.js"/>
<svg id="graph" class="graph">
<g id="graph0" class="graph" transform="scale(1 1) rotate(0) translate(4 104)">
<title>GLESC::ResMng::Texture::TextureSurface::load</title>
<!-- Node1 -->
<g id="Node000001" class="node">
<title>Node1</title>
<g id="a_Node000001"><a xlink:title="Loads the texture from the file system.">
<polygon fill="#999999" stroke="#666666" points="483.75,-66 354.5,-66 354.5,-34 483.75,-34 483.75,-66"/>
<text text-anchor="start" x="362.5" y="-52.5" font-family="Helvetica,sans-Serif" font-size="10.00">GLESC::ResMng::Texture</text>
<text text-anchor="middle" x="419.12" y="-40.5" font-family="Helvetica,sans-Serif" font-size="10.00">::TextureSurface::load</text>
</a>
</g>
</g>
<!-- Node2 -->
<g id="Node000002" class="node">
<title>Node2</title>
<g id="a_Node000002"><a xlink:href="class_g_l_e_s_c_1_1_res_mng_1_1_texture_1_1_texture_surface.html#aa2655d9f545c8a3bec0a33da2d80f775" target="_top" xlink:title="Loader constructor. This constructor will initialize the texture with the data from the file.">
<polygon fill="white" stroke="#666666" points="318.5,-100 160,-100 160,-68 318.5,-68 318.5,-100"/>
<text text-anchor="start" x="168" y="-86.5" font-family="Helvetica,sans-Serif" font-size="10.00">GLESC::ResMng::Texture</text>
<text text-anchor="middle" x="239.25" y="-74.5" font-family="Helvetica,sans-Serif" font-size="10.00">::TextureSurface::TextureSurface</text>
</a>
</g>
</g>
<!-- Node1&#45;&gt;Node2 -->
<g id="edge1_Node000001_Node000002" class="edge">
<title>Node1&#45;&gt;Node2</title>
<g id="a_edge1_Node000001_Node000002"><a xlink:title=" ">
<path fill="none" stroke="#63b8ff" d="M343,-64.36C335.01,-65.89 326.87,-67.44 318.84,-68.98"/>
<polygon fill="#63b8ff" stroke="#63b8ff" points="343.51,-67.83 352.67,-62.51 342.19,-60.95 343.51,-67.83"/>
</a>
</g>
</g>
<!-- Node3 -->
<g id="Node000003" class="node">
<title>Node3</title>
<g id="a_Node000003"><a xlink:href="class_g_l_e_s_c_1_1_render_1_1_texture.html#a884764b058185fdde8104fd43939b63c" target="_top" xlink:title=" ">
<polygon fill="white" stroke="#666666" points="301.25,-32 177.25,-32 177.25,0 301.25,0 301.25,-32"/>
<text text-anchor="start" x="185.25" y="-18.5" font-family="Helvetica,sans-Serif" font-size="10.00">GLESC::Render::Texture</text>
<text text-anchor="middle" x="239.25" y="-6.5" font-family="Helvetica,sans-Serif" font-size="10.00">::load</text>
</a>
</g>
</g>
<!-- Node1&#45;&gt;Node3 -->
<g id="edge2_Node000001_Node000003" class="edge">
<title>Node1&#45;&gt;Node3</title>
<g id="a_edge2_Node000001_Node000003"><a xlink:title=" ">
<path fill="none" stroke="#63b8ff" d="M343.17,-35.67C329.3,-33.02 314.97,-30.28 301.57,-27.72"/>
<polygon fill="#63b8ff" stroke="#63b8ff" points="342.19,-39.05 352.67,-37.49 343.51,-32.17 342.19,-39.05"/>
</a>
</g>
</g>
<!-- Node3&#45;&gt;Node3 -->
<g id="edge4_Node000003_Node000003" class="edge">
<title>Node3&#45;&gt;Node3</title>
<g id="a_edge4_Node000003_Node000003"><a xlink:title=" ">
<path fill="none" stroke="#63b8ff" d="M268.79,-43.71C263.86,-47.48 254.02,-50 239.25,-50 212.25,-50 201.7,-41.58 207.61,-32.44"/>
<polygon fill="#63b8ff" stroke="#63b8ff" points="272.22,-44.4 270.62,-33.93 265.34,-43.12 272.22,-44.4"/>
</a>
</g>
</g>
<!-- Node4 -->
<g id="Node000004" class="node">
<title>Node4</title>
<g id="a_Node000004"><a xlink:href="class_g_l_e_s_c_1_1_render_1_1_texture.html#a00586ad6722116b48ff87d409eda8125" target="_top" xlink:title=" ">
<polygon fill="white" stroke="#666666" points="124,-32 0,-32 0,0 124,0 124,-32"/>
<text text-anchor="start" x="8" y="-18.5" font-family="Helvetica,sans-Serif" font-size="10.00">GLESC::Render::Texture</text>
<text text-anchor="middle" x="62" y="-6.5" font-family="Helvetica,sans-Serif" font-size="10.00">::Texture</text>
</a>
</g>
</g>
<!-- Node3&#45;&gt;Node4 -->
<g id="edge3_Node000003_Node000004" class="edge">
<title>Node3&#45;&gt;Node4</title>
<g id="a_edge3_Node000003_Node000004"><a xlink:title=" ">
<path fill="none" stroke="#63b8ff" d="M165.57,-16C151.84,-16 137.6,-16 124.26,-16"/>
<polygon fill="#63b8ff" stroke="#63b8ff" points="165.44,-19.5 175.44,-16 165.44,-12.5 165.44,-19.5"/>
</a>
</g>
</g>
</g>
</svg>
</svg>

<style type='text/css'>
<![CDATA[
[data-mouse-over-selected='false'] { opacity: 0.7; }
[data-mouse-over-selected='true']  { opacity: 1.0; }
]]>
</style>
<script type="application/ecmascript"><![CDATA[
document.addEventListener('DOMContentLoaded', (event) => {
  highlightEdges();
  highlightAdjacentNodes();
});
]]></script>
</svg>
