<?xml version="1.0" encoding="UTF-8" standalone="no"?>
<!DOCTYPE svg PUBLIC "-//W3C//DTD SVG 1.1//EN"
 "http://www.w3.org/Graphics/SVG/1.1/DTD/svg11.dtd">
<!-- Generated by graphviz version 11.0.0 (20240428.1522)
 -->
<!-- Title: GLESC::GAPI::OpenGLDebugger::enableGlDebugCallback Pages: 1 -->
<!--zoomable 140 -->

<svg id="main" version="1.1" xmlns="http://www.w3.org/2000/svg" xmlns:xlink="http://www.w3.org/1999/xlink" xml:space="preserve" onload="init(evt)">
<style type="text/css"><![CDATA[
.node, .edge {opacity: 0.7;}
.node.selected, .edge.selected {opacity: 1;}
.edge:hover path { stroke: red; }
.edge:hover polygon { stroke: red; fill: red; }
]]></style>

<defs>
  <circle id="rim" cx="0" cy="0" r="7"/>
  <circle id="rim2" cx="0" cy="0" r="3.5"/>
  <g id="zoomPlus">
    <use xlink:href="#rim" fill="#404040"><set attributeName="fill" to="#808080" begin="zoomplus.mouseover" end="zoomplus.mouseout"/></use>
    <path d="M-4,0h8M0,-4v8" fill="none" stroke="white" stroke-width="1.5" pointer-events="none"/>
  </g>
  <g id="zoomMin">
    <use xlink:href="#rim" fill="#404040"><set attributeName="fill" to="#808080" begin="zoomminus.mouseover" end="zoomminus.mouseout"/></use>
    <path d="M-4,0h8" fill="none" stroke="white" stroke-width="1.5" pointer-events="none"/>
  </g>
  <g id="arrowUp" transform="translate(30 24)">
    <use xlink:href="#rim"/>
    <path pointer-events="none" fill="none" stroke="white" stroke-width="1.5" d="M0,-3.0v7 M-2.5,-0.5L0,-3.0L2.5,-0.5"/>
  </g>
  <g id="arrowRight" transform="rotate(90) translate(36 -43)">
    <use xlink:href="#rim"/>
    <path pointer-events="none" fill="none" stroke="white" stroke-width="1.5" d="M0,-3.0v7 M-2.5,-0.5L0,-3.0L2.5,-0.5"/>
  </g>
  <g id="arrowDown" transform="rotate(180) translate(-30 -48)">
    <use xlink:href="#rim"/>
    <path pointer-events="none" fill="none" stroke="white" stroke-width="1.5" d="M0,-3.0v7 M-2.5,-0.5L0,-3.0L2.5,-0.5"/>
  </g>
  <g id="arrowLeft" transform="rotate(270) translate(-36 17)">
    <use xlink:href="#rim"/>
    <path pointer-events="none" fill="none" stroke="white" stroke-width="1.5" d="M0,-3.0v7 M-2.5,-0.5L0,-3.0L2.5,-0.5"/>
  </g>
  <g id="resetDef">
    <use xlink:href="#rim2" fill="#404040"><set attributeName="fill" to="#808080" begin="reset.mouseover" end="reset.mouseout"/></use>
  </g>
</defs>
<script type="application/ecmascript">
var viewWidth = 565;
var viewHeight = 140;
var sectionId = 'dynsection-1';
</script>
<script type="application/ecmascript" xlink:href="svg.min.js"/>
<svg id="graph" class="graph">
<g id="viewport">
<title>GLESC::GAPI::OpenGLDebugger::enableGlDebugCallback</title>
<!-- Node1 -->
<g id="Node000001" class="node">
<title>Node1</title>
<g id="a_Node000001"><a xlink:title="Enables the OpenGL debug callback.">
<polygon fill="#999999" stroke="#666666" points="161.5,-82 0,-82 0,-50 161.5,-50 161.5,-82"/>
<text text-anchor="start" x="8" y="-68.5" font-family="Helvetica,sans-Serif" font-size="10.00">GLESC::GAPI::OpenGLDebugger</text>
<text text-anchor="middle" x="80.75" y="-56.5" font-family="Helvetica,sans-Serif" font-size="10.00">::enableGlDebugCallback</text>
</a>
</g>
</g>
<!-- Node2 -->
<g id="Node000002" class="node">
<title>Node2</title>
<g id="a_Node000002"><a xlink:href="class_g_l_e_s_c_1_1_g_a_p_i_1_1_open_g_l_debugger.html#a302c60ac82d43fc3b4d16d3d2721dba9" target="_top" xlink:title="The OpenGL debug callback.">
<polygon fill="white" stroke="#666666" points="359,-82 197.5,-82 197.5,-50 359,-50 359,-82"/>
<text text-anchor="start" x="205.5" y="-68.5" font-family="Helvetica,sans-Serif" font-size="10.00">GLESC::GAPI::OpenGLDebugger</text>
<text text-anchor="middle" x="278.25" y="-56.5" font-family="Helvetica,sans-Serif" font-size="10.00">::glDebugCallback</text>
</a>
</g>
</g>
<!-- Node1&#45;&gt;Node2 -->
<g id="edge1_Node000001_Node000002" class="edge">
<title>Node1&#45;&gt;Node2</title>
<g id="a_edge1_Node000001_Node000002"><a xlink:title=" ">
<path fill="none" stroke="#63b8ff" d="M161.83,-66C169.79,-66 177.9,-66 185.96,-66"/>
<polygon fill="#63b8ff" stroke="#63b8ff" points="185.78,-69.5 195.78,-66 185.78,-62.5 185.78,-69.5"/>
</a>
</g>
</g>
<!-- Node3 -->
<g id="Node000003" class="node">
<title>Node3</title>
<g id="a_Node000003"><a xlink:href="class_g_l_e_s_c_1_1_g_a_p_i_1_1_open_g_l_debugger.html#a4130228f3d734d7a2425b88462917c27" target="_top" xlink:title="Returns a string representation of the OpenGL error severity.">
<polygon fill="white" stroke="#666666" points="556.5,-132 395,-132 395,-100 556.5,-100 556.5,-132"/>
<text text-anchor="start" x="403" y="-118.5" font-family="Helvetica,sans-Serif" font-size="10.00">GLESC::GAPI::OpenGLDebugger</text>
<text text-anchor="middle" x="475.75" y="-106.5" font-family="Helvetica,sans-Serif" font-size="10.00">::errorStringFromSeverity</text>
</a>
</g>
</g>
<!-- Node2&#45;&gt;Node3 -->
<g id="edge2_Node000002_Node000003" class="edge">
<title>Node2&#45;&gt;Node3</title>
<g id="a_edge2_Node000002_Node000003"><a xlink:title=" ">
<path fill="none" stroke="#63b8ff" d="M343.53,-82.44C361.41,-87.01 380.97,-92.02 399.42,-96.73"/>
<polygon fill="#63b8ff" stroke="#63b8ff" points="398.4,-100.09 408.96,-99.17 400.14,-93.31 398.4,-100.09"/>
</a>
</g>
</g>
<!-- Node4 -->
<g id="Node000004" class="node">
<title>Node4</title>
<g id="a_Node000004"><a xlink:href="class_g_l_e_s_c_1_1_g_a_p_i_1_1_open_g_l_debugger.html#aa289fc434e30ea0bcd7d2b3edc302df7" target="_top" xlink:title="Returns a string representation of the OpenGL error source.">
<polygon fill="white" stroke="#666666" points="556.5,-82 395,-82 395,-50 556.5,-50 556.5,-82"/>
<text text-anchor="start" x="403" y="-68.5" font-family="Helvetica,sans-Serif" font-size="10.00">GLESC::GAPI::OpenGLDebugger</text>
<text text-anchor="middle" x="475.75" y="-56.5" font-family="Helvetica,sans-Serif" font-size="10.00">::errorStringFromSource</text>
</a>
</g>
</g>
<!-- Node2&#45;&gt;Node4 -->
<g id="edge3_Node000002_Node000004" class="edge">
<title>Node2&#45;&gt;Node4</title>
<g id="a_edge3_Node000002_Node000004"><a xlink:title=" ">
<path fill="none" stroke="#63b8ff" d="M359.33,-66C367.29,-66 375.4,-66 383.46,-66"/>
<polygon fill="#63b8ff" stroke="#63b8ff" points="383.28,-69.5 393.28,-66 383.28,-62.5 383.28,-69.5"/>
</a>
</g>
</g>
<!-- Node5 -->
<g id="Node000005" class="node">
<title>Node5</title>
<g id="a_Node000005"><a xlink:href="class_g_l_e_s_c_1_1_g_a_p_i_1_1_open_g_l_debugger.html#a9fe3e29756a02664f9ccd64558ea5468" target="_top" xlink:title="Returns a string representation of the OpenGL error type.">
<polygon fill="white" stroke="#666666" points="556.5,-32 395,-32 395,0 556.5,0 556.5,-32"/>
<text text-anchor="start" x="403" y="-18.5" font-family="Helvetica,sans-Serif" font-size="10.00">GLESC::GAPI::OpenGLDebugger</text>
<text text-anchor="middle" x="475.75" y="-6.5" font-family="Helvetica,sans-Serif" font-size="10.00">::errorStringFromType</text>
</a>
</g>
</g>
<!-- Node2&#45;&gt;Node5 -->
<g id="edge4_Node000002_Node000005" class="edge">
<title>Node2&#45;&gt;Node5</title>
<g id="a_edge4_Node000002_Node000005"><a xlink:title=" ">
<path fill="none" stroke="#63b8ff" d="M343.53,-49.56C361.41,-44.99 380.97,-39.98 399.42,-35.27"/>
<polygon fill="#63b8ff" stroke="#63b8ff" points="400.14,-38.69 408.96,-32.83 398.4,-31.91 400.14,-38.69"/>
</a>
</g>
</g>
</g>
</svg>

<g id="navigator" transform="translate(0 0)" fill="#404254">
  <rect fill="#f2f5e9" fill-opacity="0.5" stroke="#606060" stroke-width=".5" x="0" y="0" width="60" height="60"/>
  <use id="zoomplus" xlink:href="#zoomPlus" x="17" y="9" onmousedown="handleZoom(evt,'in')"/>
  <use id="zoomminus" xlink:href="#zoomMin" x="42" y="9" onmousedown="handleZoom(evt,'out')"/>
  <use id="reset" xlink:href="#resetDef" x="30" y="36" onmousedown="handleReset()"/>
   <use id="arrowup" xlink:href="#arrowUp" x="0" y="0" onmousedown="handlePan(0,-1)"/>
  <use id="arrowright" xlink:href="#arrowRight" x="0" y="0" onmousedown="handlePan(1,0)"/>
  <use id="arrowdown" xlink:href="#arrowDown" x="0" y="0" onmousedown="handlePan(0,1)"/>
  <use id="arrowleft" xlink:href="#arrowLeft" x="0" y="0" onmousedown="handlePan(-1,0)"/>
</g>
<svg viewBox="0 0 15 15" width="100%" height="30px" preserveAspectRatio="xMaxYMin meet">
 <g id="arrow_out" transform="scale(0.3 0.3)">
  <a xlink:href="class_g_l_e_s_c_1_1_g_a_p_i_1_1_open_g_l_debugger_aee37f4f6a63aa68f43c35124df235f76_cgraph_org.svg" target="_base">
   <rect id="button" ry="5" rx="5" y="6" x="6" height="38" width="38"
        fill="#f2f5e9" fill-opacity="0.5" stroke="#606060" stroke-width="1.0"/>
   <path id="arrow"
     d="M 11.500037,31.436501 C 11.940474,20.09759 22.043105,11.32322 32.158766,21.979434 L 37.068811,17.246167 C 37.068811,17.246167 37.088388,32 37.088388,32 L 22.160133,31.978069 C 22.160133,31.978069 26.997745,27.140456 26.997745,27.140456 C 18.528582,18.264221 13.291696,25.230495 11.500037,31.436501 z"
     style="fill:#404040;"/>
  </a>
 </g>
</svg>

<style type='text/css'>
<![CDATA[
[data-mouse-over-selected='false'] { opacity: 0.7; }
[data-mouse-over-selected='true']  { opacity: 1.0; }
]]>
</style>
<script type="application/ecmascript"><![CDATA[
document.addEventListener('DOMContentLoaded', (event) => {
  highlightEdges();
  highlightAdjacentNodes();
});
]]></script>
</svg>
