<?xml version="1.0" encoding="UTF-8" standalone="no"?>
<!DOCTYPE svg PUBLIC "-//W3C//DTD SVG 1.1//EN"
 "http://www.w3.org/Graphics/SVG/1.1/DTD/svg11.dtd">
<!-- Generated by graphviz version 11.0.0 (20240428.1522)
 -->
<!-- Title: Cubemap::Cubemap Pages: 1 -->
<svg width="379pt" height="104pt"
 viewBox="0.00 0.00 379.25 104.00" xmlns="http://www.w3.org/2000/svg" xmlns:xlink="http://www.w3.org/1999/xlink">
<g id="graph0" class="graph" transform="scale(1 1) rotate(0) translate(4 100)">
<title>Cubemap::Cubemap</title>
<!-- Node1 -->
<g id="Node000001" class="node">
<title>Node1</title>
<g id="a_Node000001"><a xlink:title=" ">
<polygon fill="#999999" stroke="#666666" points="104.5,-58 0,-58 0,-38 104.5,-38 104.5,-58"/>
<text text-anchor="middle" x="52.25" y="-44.5" font-family="Helvetica,sans-Serif" font-size="10.00">Cubemap::Cubemap</text>
</a>
</g>
</g>
<!-- Node2 -->
<g id="Node000002" class="node">
<title>Node2</title>
<g id="a_Node000002"><a xlink:href="class_cubemap.html#abc04a2e84f22090e7a268343398e9a38" target="_top" xlink:title=" ">
<polygon fill="white" stroke="#666666" points="221.75,-58 140.5,-58 140.5,-38 221.75,-38 221.75,-58"/>
<text text-anchor="middle" x="181.12" y="-44.5" font-family="Helvetica,sans-Serif" font-size="10.00">Cubemap::load</text>
</a>
</g>
</g>
<!-- Node1&#45;&gt;Node2 -->
<g id="edge1_Node000001_Node000002" class="edge">
<title>Node1&#45;&gt;Node2</title>
<g id="a_edge1_Node000001_Node000002"><a xlink:title=" ">
<path fill="none" stroke="#63b8ff" d="M104.85,-48C112.78,-48 120.97,-48 128.89,-48"/>
<polygon fill="#63b8ff" stroke="#63b8ff" points="128.73,-51.5 138.73,-48 128.73,-44.5 128.73,-51.5"/>
</a>
</g>
</g>
<!-- Node3 -->
<g id="Node000003" class="node">
<title>Node3</title>
<g id="a_Node000003"><a xlink:href="_gapi_8h.html#ab7514d88e65656ffa15ca33256518fe5" target="_top" xlink:title="Returns the graphic API used by the engine.">
<polygon fill="white" stroke="#666666" points="340.88,-96 288.12,-96 288.12,-76 340.88,-76 340.88,-96"/>
<text text-anchor="middle" x="314.5" y="-82.5" font-family="Helvetica,sans-Serif" font-size="10.00">getGAPI</text>
</a>
</g>
</g>
<!-- Node2&#45;&gt;Node3 -->
<g id="edge2_Node000002_Node000003" class="edge">
<title>Node2&#45;&gt;Node3</title>
<g id="a_edge2_Node000002_Node000003"><a xlink:title=" ">
<path fill="none" stroke="#63b8ff" d="M218.37,-58.48C236.61,-63.76 258.67,-70.14 276.95,-75.43"/>
<polygon fill="#63b8ff" stroke="#63b8ff" points="275.75,-78.72 286.32,-78.14 277.69,-72 275.75,-78.72"/>
</a>
</g>
</g>
<!-- Node4 -->
<g id="Node000004" class="node">
<title>Node4</title>
<g id="a_Node000004"><a xlink:href="_texture_adapter_8h.html#a57abcbbb65504dda9db17f4e8074ddb9" target="_top" xlink:title=" ">
<polygon fill="white" stroke="#666666" points="364.12,-58 264.88,-58 264.88,-38 364.12,-38 364.12,-58"/>
<text text-anchor="middle" x="314.5" y="-44.5" font-family="Helvetica,sans-Serif" font-size="10.00">getTextureBitDepth</text>
</a>
</g>
</g>
<!-- Node2&#45;&gt;Node4 -->
<g id="edge3_Node000002_Node000004" class="edge">
<title>Node2&#45;&gt;Node4</title>
<g id="a_edge3_Node000002_Node000004"><a xlink:title=" ">
<path fill="none" stroke="#63b8ff" d="M221.9,-48C231.77,-48 242.57,-48 253.19,-48"/>
<polygon fill="#63b8ff" stroke="#63b8ff" points="253.06,-51.5 263.06,-48 253.06,-44.5 253.06,-51.5"/>
</a>
</g>
</g>
<!-- Node5 -->
<g id="Node000005" class="node">
<title>Node5</title>
<g id="a_Node000005"><a xlink:href="_texture_adapter_8h.html#af8df9c072d5a12970464e59e90e63707" target="_top" xlink:title=" ">
<polygon fill="white" stroke="#666666" points="371.25,-20 257.75,-20 257.75,0 371.25,0 371.25,-20"/>
<text text-anchor="middle" x="314.5" y="-6.5" font-family="Helvetica,sans-Serif" font-size="10.00">getTextureInputFormat</text>
</a>
</g>
</g>
<!-- Node2&#45;&gt;Node5 -->
<g id="edge4_Node000002_Node000005" class="edge">
<title>Node2&#45;&gt;Node5</title>
<g id="a_edge4_Node000002_Node000005"><a xlink:title=" ">
<path fill="none" stroke="#63b8ff" d="M218.37,-37.52C233.31,-33.2 250.8,-28.14 266.68,-23.54"/>
<polygon fill="#63b8ff" stroke="#63b8ff" points="267.28,-27.01 275.92,-20.87 265.34,-20.29 267.28,-27.01"/>
</a>
</g>
</g>
</g>
</svg>
