<?xml version="1.0" encoding="UTF-8" standalone="no"?>
<!DOCTYPE svg PUBLIC "-//W3C//DTD SVG 1.1//EN"
 "http://www.w3.org/Graphics/SVG/1.1/DTD/svg11.dtd">
<!-- Generated by graphviz version 11.0.0 (20240428.1522)
 -->
<!-- Title: GLESC::ECS::ComponentManager::getComponentID Pages: 1 -->
<!--zoomable 284 -->

<svg id="main" version="1.1" xmlns="http://www.w3.org/2000/svg" xmlns:xlink="http://www.w3.org/1999/xlink" xml:space="preserve" onload="init(evt)">
<style type="text/css"><![CDATA[
.node, .edge {opacity: 0.7;}
.node.selected, .edge.selected {opacity: 1;}
.edge:hover path { stroke: red; }
.edge:hover polygon { stroke: red; fill: red; }
]]></style>

<defs>
  <circle id="rim" cx="0" cy="0" r="7"/>
  <circle id="rim2" cx="0" cy="0" r="3.5"/>
  <g id="zoomPlus">
    <use xlink:href="#rim" fill="#404040"><set attributeName="fill" to="#808080" begin="zoomplus.mouseover" end="zoomplus.mouseout"/></use>
    <path d="M-4,0h8M0,-4v8" fill="none" stroke="white" stroke-width="1.5" pointer-events="none"/>
  </g>
  <g id="zoomMin">
    <use xlink:href="#rim" fill="#404040"><set attributeName="fill" to="#808080" begin="zoomminus.mouseover" end="zoomminus.mouseout"/></use>
    <path d="M-4,0h8" fill="none" stroke="white" stroke-width="1.5" pointer-events="none"/>
  </g>
  <g id="arrowUp" transform="translate(30 24)">
    <use xlink:href="#rim"/>
    <path pointer-events="none" fill="none" stroke="white" stroke-width="1.5" d="M0,-3.0v7 M-2.5,-0.5L0,-3.0L2.5,-0.5"/>
  </g>
  <g id="arrowRight" transform="rotate(90) translate(36 -43)">
    <use xlink:href="#rim"/>
    <path pointer-events="none" fill="none" stroke="white" stroke-width="1.5" d="M0,-3.0v7 M-2.5,-0.5L0,-3.0L2.5,-0.5"/>
  </g>
  <g id="arrowDown" transform="rotate(180) translate(-30 -48)">
    <use xlink:href="#rim"/>
    <path pointer-events="none" fill="none" stroke="white" stroke-width="1.5" d="M0,-3.0v7 M-2.5,-0.5L0,-3.0L2.5,-0.5"/>
  </g>
  <g id="arrowLeft" transform="rotate(270) translate(-36 17)">
    <use xlink:href="#rim"/>
    <path pointer-events="none" fill="none" stroke="white" stroke-width="1.5" d="M0,-3.0v7 M-2.5,-0.5L0,-3.0L2.5,-0.5"/>
  </g>
  <g id="resetDef">
    <use xlink:href="#rim2" fill="#404040"><set attributeName="fill" to="#808080" begin="reset.mouseover" end="reset.mouseout"/></use>
  </g>
</defs>
<script type="application/ecmascript">
var viewWidth = 918;
var viewHeight = 284;
var sectionId = 'dynsection-4';
</script>
<script type="application/ecmascript" xlink:href="svg.min.js"/>
<svg id="graph" class="graph">
<g id="viewport">
<title>GLESC::ECS::ComponentManager::getComponentID</title>
<!-- Node1 -->
<g id="Node000001" class="node">
<title>Node1</title>
<g id="a_Node000001"><a xlink:title="Get the ID of a component by its type.">
<polygon fill="#999999" stroke="#666666" points="909.5,-132 741.25,-132 741.25,-100 909.5,-100 909.5,-132"/>
<text text-anchor="start" x="749.25" y="-118.5" font-family="Helvetica,sans-Serif" font-size="10.00">GLESC::ECS::ComponentManager</text>
<text text-anchor="middle" x="825.38" y="-106.5" font-family="Helvetica,sans-Serif" font-size="10.00">::getComponentID</text>
</a>
</g>
</g>
<!-- Node2 -->
<g id="Node000002" class="node">
<title>Node2</title>
<g id="a_Node000002"><a xlink:href="class_g_l_e_s_c_1_1_e_c_s_1_1_e_c_s_coordinator.html#ac174f3ade2ce8ea1a240c49385409942" target="_top" xlink:title="Add a component to an entity.">
<polygon fill="white" stroke="#666666" points="687.62,-232 536.62,-232 536.62,-200 687.62,-200 687.62,-232"/>
<text text-anchor="start" x="544.62" y="-218.5" font-family="Helvetica,sans-Serif" font-size="10.00">GLESC::ECS::ECSCoordinator</text>
<text text-anchor="middle" x="612.12" y="-206.5" font-family="Helvetica,sans-Serif" font-size="10.00">::addComponent</text>
</a>
</g>
</g>
<!-- Node1&#45;&gt;Node2 -->
<g id="edge1_Node000001_Node000002" class="edge">
<title>Node1&#45;&gt;Node2</title>
<g id="a_edge1_Node000001_Node000002"><a xlink:title=" ">
<path fill="none" stroke="#63b8ff" d="M793.33,-139.16C770.09,-155.58 736.97,-177.08 705.25,-191 697.97,-194.2 690.17,-197.07 682.32,-199.64"/>
<polygon fill="#63b8ff" stroke="#63b8ff" points="795.34,-142.03 801.42,-133.36 791.26,-136.34 795.34,-142.03"/>
</a>
</g>
</g>
<!-- Node8 -->
<g id="Node000008" class="node">
<title>Node8</title>
<g id="a_Node000008"><a xlink:href="class_g_l_e_s_c_1_1_e_c_s_1_1_e_c_s_coordinator.html#afc6745aeaaed8ea7dba4874542afdb19" target="_top" xlink:title="Add a component requirement to the system.">
<polygon fill="white" stroke="#666666" points="705.25,-182 519,-182 519,-150 705.25,-150 705.25,-182"/>
<text text-anchor="start" x="527" y="-168.5" font-family="Helvetica,sans-Serif" font-size="10.00">GLESC::ECS::ECSCoordinator</text>
<text text-anchor="middle" x="612.12" y="-156.5" font-family="Helvetica,sans-Serif" font-size="10.00">::addComponentRequirementToSystem</text>
</a>
</g>
</g>
<!-- Node1&#45;&gt;Node8 -->
<g id="edge8_Node000001_Node000008" class="edge">
<title>Node1&#45;&gt;Node8</title>
<g id="a_edge8_Node000001_Node000008"><a xlink:title=" ">
<path fill="none" stroke="#63b8ff" d="M743.86,-135.06C723.69,-139.83 702.22,-144.91 682.63,-149.55"/>
<polygon fill="#63b8ff" stroke="#63b8ff" points="744.51,-138.5 753.44,-132.79 742.9,-131.69 744.51,-138.5"/>
</a>
</g>
</g>
<!-- Node10 -->
<g id="Node000010" class="node">
<title>Node10</title>
<g id="a_Node000010"><a xlink:href="class_g_l_e_s_c_1_1_e_c_s_1_1_e_c_s_coordinator.html#a6efa8fa864d9eab4db6d85aba4657927" target="_top" xlink:title="Get the ID of a component.">
<polygon fill="white" stroke="#666666" points="687.62,-132 536.62,-132 536.62,-100 687.62,-100 687.62,-132"/>
<text text-anchor="start" x="544.62" y="-118.5" font-family="Helvetica,sans-Serif" font-size="10.00">GLESC::ECS::ECSCoordinator</text>
<text text-anchor="middle" x="612.12" y="-106.5" font-family="Helvetica,sans-Serif" font-size="10.00">::getComponentID</text>
</a>
</g>
</g>
<!-- Node1&#45;&gt;Node10 -->
<g id="edge10_Node000001_Node000010" class="edge">
<title>Node1&#45;&gt;Node10</title>
<g id="a_edge10_Node000001_Node000010"><a xlink:title=" ">
<path fill="none" stroke="#63b8ff" d="M729.7,-116C715.65,-116 701.35,-116 687.79,-116"/>
<polygon fill="#63b8ff" stroke="#63b8ff" points="729.37,-119.5 739.37,-116 729.37,-112.5 729.37,-119.5"/>
</a>
</g>
</g>
<!-- Node12 -->
<g id="Node000012" class="node">
<title>Node12</title>
<g id="a_Node000012"><a xlink:href="class_g_l_e_s_c_1_1_e_c_s_1_1_e_c_s_coordinator.html#a5aa06f9e5c8d53dfaa2cce1616eec531" target="_top" xlink:title="Check if an entity has a component, checking it&#39;s signature.">
<polygon fill="white" stroke="#666666" points="687.62,-82 536.62,-82 536.62,-50 687.62,-50 687.62,-82"/>
<text text-anchor="start" x="544.62" y="-68.5" font-family="Helvetica,sans-Serif" font-size="10.00">GLESC::ECS::ECSCoordinator</text>
<text text-anchor="middle" x="612.12" y="-56.5" font-family="Helvetica,sans-Serif" font-size="10.00">::hasComponent</text>
</a>
</g>
</g>
<!-- Node1&#45;&gt;Node12 -->
<g id="edge12_Node000001_Node000012" class="edge">
<title>Node1&#45;&gt;Node12</title>
<g id="a_edge12_Node000001_Node000012"><a xlink:title=" ">
<path fill="none" stroke="#63b8ff" d="M743.86,-96.94C723.69,-92.17 702.22,-87.09 682.63,-82.45"/>
<polygon fill="#63b8ff" stroke="#63b8ff" points="742.9,-100.31 753.44,-99.21 744.51,-93.5 742.9,-100.31"/>
</a>
</g>
</g>
<!-- Node15 -->
<g id="Node000015" class="node">
<title>Node15</title>
<g id="a_Node000015"><a xlink:href="class_g_l_e_s_c_1_1_e_c_s_1_1_e_c_s_coordinator.html#af2a3fb9a4f78b71f602de7f29bd7446f" target="_top" xlink:title="Remove a component from an entity.">
<polygon fill="white" stroke="#666666" points="687.62,-32 536.62,-32 536.62,0 687.62,0 687.62,-32"/>
<text text-anchor="start" x="544.62" y="-18.5" font-family="Helvetica,sans-Serif" font-size="10.00">GLESC::ECS::ECSCoordinator</text>
<text text-anchor="middle" x="612.12" y="-6.5" font-family="Helvetica,sans-Serif" font-size="10.00">::removeComponent</text>
</a>
</g>
</g>
<!-- Node1&#45;&gt;Node15 -->
<g id="edge16_Node000001_Node000015" class="edge">
<title>Node1&#45;&gt;Node15</title>
<g id="a_edge16_Node000001_Node000015"><a xlink:title=" ">
<path fill="none" stroke="#63b8ff" d="M793.33,-92.84C770.09,-76.42 736.97,-54.92 705.25,-41 697.97,-37.8 690.17,-34.93 682.32,-32.36"/>
<polygon fill="#63b8ff" stroke="#63b8ff" points="791.26,-95.66 801.42,-98.64 795.34,-89.97 791.26,-95.66"/>
</a>
</g>
</g>
<!-- Node3 -->
<g id="Node000003" class="node">
<title>Node3</title>
<g id="a_Node000003"><a xlink:href="class_g_l_e_s_c_1_1_e_c_s_1_1_entity.html#a9e9f27d8c519ebe4c50e3463608d06b2" target="_top" xlink:title="Adds a component to the entity and returns a reference to it The components is registered to the ECSM...">
<polygon fill="white" stroke="#666666" points="465.38,-232 358.62,-232 358.62,-200 465.38,-200 465.38,-232"/>
<text text-anchor="start" x="366.62" y="-218.5" font-family="Helvetica,sans-Serif" font-size="10.00">GLESC::ECS::Entity</text>
<text text-anchor="middle" x="412" y="-206.5" font-family="Helvetica,sans-Serif" font-size="10.00">::addComponent</text>
</a>
</g>
</g>
<!-- Node2&#45;&gt;Node3 -->
<g id="edge2_Node000002_Node000003" class="edge">
<title>Node2&#45;&gt;Node3</title>
<g id="a_edge2_Node000002_Node000003"><a xlink:title=" ">
<path fill="none" stroke="#63b8ff" d="M524.83,-216C504.74,-216 483.94,-216 465.81,-216"/>
<polygon fill="#63b8ff" stroke="#63b8ff" points="524.71,-219.5 534.71,-216 524.71,-212.5 524.71,-219.5"/>
</a>
</g>
</g>
<!-- Node4 -->
<g id="Node000004" class="node">
<title>Node4</title>
<g id="a_Node000004"><a xlink:href="class_g_l_e_s_c_1_1_engine.html#adb0bb222b1e702be0a95d55d8cfc915f" target="_top" xlink:title=" ">
<polygon fill="white" stroke="#666666" points="305,-276 157,-276 157,-244 305,-244 305,-276"/>
<text text-anchor="start" x="165" y="-262.5" font-family="Helvetica,sans-Serif" font-size="10.00">GLESC::Engine::createEngine</text>
<text text-anchor="middle" x="231" y="-250.5" font-family="Helvetica,sans-Serif" font-size="10.00">Entities</text>
</a>
</g>
</g>
<!-- Node3&#45;&gt;Node4 -->
<g id="edge3_Node000003_Node000004" class="edge">
<title>Node3&#45;&gt;Node4</title>
<g id="a_edge3_Node000003_Node000004"><a xlink:title=" ">
<path fill="none" stroke="#63b8ff" d="M347.12,-231.7C331.51,-235.54 314.76,-239.66 299,-243.53"/>
<polygon fill="#63b8ff" stroke="#63b8ff" points="347.92,-235.11 356.79,-229.32 346.25,-228.31 347.92,-235.11"/>
</a>
</g>
</g>
<!-- Node6 -->
<g id="Node000006" class="node">
<title>Node6</title>
<g id="a_Node000006"><a xlink:href="class_default.html#a6e26da3ebf533b0f5d45266cd0ce9082" target="_top" xlink:title="Initializes the scene. Must be implemented by the derived class.">
<polygon fill="white" stroke="#666666" points="263.38,-226 198.62,-226 198.62,-206 263.38,-206 263.38,-226"/>
<text text-anchor="middle" x="231" y="-212.5" font-family="Helvetica,sans-Serif" font-size="10.00">Default::init</text>
</a>
</g>
</g>
<!-- Node3&#45;&gt;Node6 -->
<g id="edge5_Node000003_Node000006" class="edge">
<title>Node3&#45;&gt;Node6</title>
<g id="a_edge5_Node000003_Node000006"><a xlink:title=" ">
<path fill="none" stroke="#63b8ff" d="M346.82,-216C318.56,-216 286.63,-216 263.63,-216"/>
<polygon fill="#63b8ff" stroke="#63b8ff" points="346.75,-219.5 356.75,-216 346.75,-212.5 346.75,-219.5"/>
</a>
</g>
</g>
<!-- Node7 -->
<g id="Node000007" class="node">
<title>Node7</title>
<g id="a_Node000007"><a xlink:href="class_g_l_e_s_c_1_1_engine_camera.html#a3f37b288117cbbf684843bf4b88acb72" target="_top" xlink:title="Prepares the camera entity with its components and it&#39;s initial values.">
<polygon fill="white" stroke="#666666" points="290.38,-188 171.62,-188 171.62,-156 290.38,-156 290.38,-188"/>
<text text-anchor="start" x="179.62" y="-174.5" font-family="Helvetica,sans-Serif" font-size="10.00">GLESC::EngineCamera</text>
<text text-anchor="middle" x="231" y="-162.5" font-family="Helvetica,sans-Serif" font-size="10.00">::setupCamera</text>
</a>
</g>
</g>
<!-- Node3&#45;&gt;Node7 -->
<g id="edge6_Node000003_Node000007" class="edge">
<title>Node3&#45;&gt;Node7</title>
<g id="a_edge6_Node000003_Node000007"><a xlink:title=" ">
<path fill="none" stroke="#63b8ff" d="M347.3,-200.34C328.84,-195.8 308.77,-190.87 290.63,-186.41"/>
<polygon fill="#63b8ff" stroke="#63b8ff" points="346.25,-203.69 356.79,-202.68 347.92,-196.89 346.25,-203.69"/>
</a>
</g>
</g>
<!-- Node5 -->
<g id="Node000005" class="node">
<title>Node5</title>
<g id="a_Node000005"><a xlink:href="class_g_l_e_s_c_1_1_engine.html#a93e1621f9daf326a7c45d3b2a4c826c1" target="_top" xlink:title="The constructor is private, the engine can only be created by the main function.">
<polygon fill="white" stroke="#666666" points="121,-226 0,-226 0,-206 121,-206 121,-226"/>
<text text-anchor="middle" x="60.5" y="-212.5" font-family="Helvetica,sans-Serif" font-size="10.00">GLESC::Engine::Engine</text>
</a>
</g>
</g>
<!-- Node4&#45;&gt;Node5 -->
<g id="edge4_Node000004_Node000005" class="edge">
<title>Node4&#45;&gt;Node5</title>
<g id="a_edge4_Node000004_Node000005"><a xlink:title=" ">
<path fill="none" stroke="#63b8ff" d="M156.29,-240.75C137.49,-235.84 117.97,-230.74 101.56,-226.46"/>
<polygon fill="#63b8ff" stroke="#63b8ff" points="155.23,-244.09 165.79,-243.23 157,-237.32 155.23,-244.09"/>
</a>
</g>
</g>
<!-- Node7&#45;&gt;Node5 -->
<g id="edge7_Node000007_Node000005" class="edge">
<title>Node7&#45;&gt;Node5</title>
<g id="a_edge7_Node000007_Node000005"><a xlink:title=" ">
<path fill="none" stroke="#63b8ff" d="M160.53,-190.14C140.45,-195.38 119.22,-200.93 101.58,-205.53"/>
<polygon fill="#63b8ff" stroke="#63b8ff" points="161.28,-193.56 170.08,-187.65 159.52,-186.79 161.28,-193.56"/>
</a>
</g>
</g>
<!-- Node9 -->
<g id="Node000009" class="node">
<title>Node9</title>
<g id="a_Node000009"><a xlink:href="class_g_l_e_s_c_1_1_e_c_s_1_1_system.html#a7c6981a1f23a88bfc222ef37d5380dcd" target="_top" xlink:title="Adds a component requirement to the system.">
<polygon fill="white" stroke="#666666" points="483,-182 341,-182 341,-150 483,-150 483,-182"/>
<text text-anchor="start" x="349" y="-168.5" font-family="Helvetica,sans-Serif" font-size="10.00">GLESC::ECS::System</text>
<text text-anchor="middle" x="412" y="-156.5" font-family="Helvetica,sans-Serif" font-size="10.00">::addComponentRequirement</text>
</a>
</g>
</g>
<!-- Node8&#45;&gt;Node9 -->
<g id="edge9_Node000008_Node000009" class="edge">
<title>Node8&#45;&gt;Node9</title>
<g id="a_edge9_Node000008_Node000009"><a xlink:title=" ">
<path fill="none" stroke="#63b8ff" d="M507.28,-166C499.18,-166 491.12,-166 483.33,-166"/>
<polygon fill="#63b8ff" stroke="#63b8ff" points="507.22,-169.5 517.22,-166 507.22,-162.5 507.22,-169.5"/>
</a>
</g>
</g>
<!-- Node11 -->
<g id="Node000011" class="node">
<title>Node11</title>
<g id="a_Node000011"><a xlink:href="class_g_l_e_s_c_1_1_e_c_s_1_1_entity.html#a49f91266990cd9ae566c793684b0d447" target="_top" xlink:title="Checks if the entity has a component.">
<polygon fill="white" stroke="#666666" points="465.38,-129 358.62,-129 358.62,-97 465.38,-97 465.38,-129"/>
<text text-anchor="start" x="366.62" y="-115.5" font-family="Helvetica,sans-Serif" font-size="10.00">GLESC::ECS::Entity</text>
<text text-anchor="middle" x="412" y="-103.5" font-family="Helvetica,sans-Serif" font-size="10.00">::hasComponent</text>
</a>
</g>
</g>
<!-- Node10&#45;&gt;Node11 -->
<g id="edge11_Node000010_Node000011" class="edge">
<title>Node10&#45;&gt;Node11</title>
<g id="a_edge11_Node000010_Node000011"><a xlink:title=" ">
<path fill="none" stroke="#63b8ff" d="M524.83,-114.69C504.74,-114.39 483.94,-114.07 465.81,-113.8"/>
<polygon fill="#63b8ff" stroke="#63b8ff" points="524.66,-118.19 534.71,-114.84 524.76,-111.19 524.66,-118.19"/>
</a>
</g>
</g>
<!-- Node12&#45;&gt;Node11 -->
<g id="edge13_Node000012_Node000011" class="edge">
<title>Node12&#45;&gt;Node11</title>
<g id="a_edge13_Node000012_Node000011"><a xlink:title=" ">
<path fill="none" stroke="#63b8ff" d="M530.84,-85.05C508.9,-90.25 485.68,-95.76 465.7,-100.5"/>
<polygon fill="#63b8ff" stroke="#63b8ff" points="531.44,-88.5 540.36,-82.79 529.82,-81.69 531.44,-88.5"/>
</a>
</g>
</g>
<!-- Node13 -->
<g id="Node000013" class="node">
<title>Node13</title>
<g id="a_Node000013"><a xlink:href="class_g_l_e_s_c_1_1_engine.html#ad2ff110d5a86c1cd60b541d65915ac48" target="_top" xlink:title="Processes the logic of the game Is called every frame, must be called at constant intervals of time a...">
<polygon fill="white" stroke="#666666" points="472.12,-76 351.88,-76 351.88,-56 472.12,-56 472.12,-76"/>
<text text-anchor="middle" x="412" y="-62.5" font-family="Helvetica,sans-Serif" font-size="10.00">GLESC::Engine::update</text>
</a>
</g>
</g>
<!-- Node12&#45;&gt;Node13 -->
<g id="edge14_Node000012_Node000013" class="edge">
<title>Node12&#45;&gt;Node13</title>
<g id="a_edge14_Node000012_Node000013"><a xlink:title=" ">
<path fill="none" stroke="#63b8ff" d="M524.75,-66C507.15,-66 489,-66 472.58,-66"/>
<polygon fill="#63b8ff" stroke="#63b8ff" points="524.71,-69.5 534.71,-66 524.71,-62.5 524.71,-69.5"/>
</a>
</g>
</g>
<!-- Node14 -->
<g id="Node000014" class="node">
<title>Node14</title>
<g id="a_Node000014"><a xlink:href="main_8cpp.html#a0ddf1224851353fc92bfbff6f499fa97" target="_top" xlink:title=" ">
<polygon fill="white" stroke="#666666" points="249.5,-76 212.5,-76 212.5,-56 249.5,-56 249.5,-76"/>
<text text-anchor="middle" x="231" y="-62.5" font-family="Helvetica,sans-Serif" font-size="10.00">main</text>
</a>
</g>
</g>
<!-- Node13&#45;&gt;Node14 -->
<g id="edge15_Node000013_Node000014" class="edge">
<title>Node13&#45;&gt;Node14</title>
<g id="a_edge15_Node000013_Node000014"><a xlink:title=" ">
<path fill="none" stroke="#63b8ff" d="M339.93,-66C307,-66 270.6,-66 249.6,-66"/>
<polygon fill="#63b8ff" stroke="#63b8ff" points="339.88,-69.5 349.88,-66 339.88,-62.5 339.88,-69.5"/>
</a>
</g>
</g>
<!-- Node16 -->
<g id="Node000016" class="node">
<title>Node16</title>
<g id="a_Node000016"><a xlink:href="class_g_l_e_s_c_1_1_e_c_s_1_1_entity.html#a1ea00349d7b9b4eff7df34a75d2d64dd" target="_top" xlink:title="Removes a component from the entity The entity signature is updated to reflect the removed component.">
<polygon fill="white" stroke="#666666" points="465.38,-32 358.62,-32 358.62,0 465.38,0 465.38,-32"/>
<text text-anchor="start" x="366.62" y="-18.5" font-family="Helvetica,sans-Serif" font-size="10.00">GLESC::ECS::Entity</text>
<text text-anchor="middle" x="412" y="-6.5" font-family="Helvetica,sans-Serif" font-size="10.00">::removeComponent</text>
</a>
</g>
</g>
<!-- Node15&#45;&gt;Node16 -->
<g id="edge17_Node000015_Node000016" class="edge">
<title>Node15&#45;&gt;Node16</title>
<g id="a_edge17_Node000015_Node000016"><a xlink:title=" ">
<path fill="none" stroke="#63b8ff" d="M524.83,-16C504.74,-16 483.94,-16 465.81,-16"/>
<polygon fill="#63b8ff" stroke="#63b8ff" points="524.71,-19.5 534.71,-16 524.71,-12.5 524.71,-19.5"/>
</a>
</g>
</g>
</g>
</svg>

<g id="navigator" transform="translate(0 0)" fill="#404254">
  <rect fill="#f2f5e9" fill-opacity="0.5" stroke="#606060" stroke-width=".5" x="0" y="0" width="60" height="60"/>
  <use id="zoomplus" xlink:href="#zoomPlus" x="17" y="9" onmousedown="handleZoom(evt,'in')"/>
  <use id="zoomminus" xlink:href="#zoomMin" x="42" y="9" onmousedown="handleZoom(evt,'out')"/>
  <use id="reset" xlink:href="#resetDef" x="30" y="36" onmousedown="handleReset()"/>
   <use id="arrowup" xlink:href="#arrowUp" x="0" y="0" onmousedown="handlePan(0,-1)"/>
  <use id="arrowright" xlink:href="#arrowRight" x="0" y="0" onmousedown="handlePan(1,0)"/>
  <use id="arrowdown" xlink:href="#arrowDown" x="0" y="0" onmousedown="handlePan(0,1)"/>
  <use id="arrowleft" xlink:href="#arrowLeft" x="0" y="0" onmousedown="handlePan(-1,0)"/>
</g>
<svg viewBox="0 0 15 15" width="100%" height="30px" preserveAspectRatio="xMaxYMin meet">
 <g id="arrow_out" transform="scale(0.3 0.3)">
  <a xlink:href="class_g_l_e_s_c_1_1_e_c_s_1_1_component_manager_aa81ef6c48acdf07190ada035bfa9bd59_icgraph_org.svg" target="_base">
   <rect id="button" ry="5" rx="5" y="6" x="6" height="38" width="38"
        fill="#f2f5e9" fill-opacity="0.5" stroke="#606060" stroke-width="1.0"/>
   <path id="arrow"
     d="M 11.500037,31.436501 C 11.940474,20.09759 22.043105,11.32322 32.158766,21.979434 L 37.068811,17.246167 C 37.068811,17.246167 37.088388,32 37.088388,32 L 22.160133,31.978069 C 22.160133,31.978069 26.997745,27.140456 26.997745,27.140456 C 18.528582,18.264221 13.291696,25.230495 11.500037,31.436501 z"
     style="fill:#404040;"/>
  </a>
 </g>
</svg>

<style type='text/css'>
<![CDATA[
[data-mouse-over-selected='false'] { opacity: 0.7; }
[data-mouse-over-selected='true']  { opacity: 1.0; }
]]>
</style>
<script type="application/ecmascript"><![CDATA[
document.addEventListener('DOMContentLoaded', (event) => {
  highlightEdges();
  highlightAdjacentNodes();
});
]]></script>
</svg>
