<?xml version="1.0" encoding="UTF-8" standalone="no"?>
<!DOCTYPE svg PUBLIC "-//W3C//DTD SVG 1.1//EN"
 "http://www.w3.org/Graphics/SVG/1.1/DTD/svg11.dtd">
<!-- Generated by graphviz version 11.0.0 (20240428.1522)
 -->
<!-- Title: GLESC::ResMng::Texture::TextureSurface Pages: 1 -->
<!--zoomable 836 -->

<svg id="main" version="1.1" xmlns="http://www.w3.org/2000/svg" xmlns:xlink="http://www.w3.org/1999/xlink" xml:space="preserve" onload="init(evt)">
<style type="text/css"><![CDATA[
.node, .edge {opacity: 0.7;}
.node.selected, .edge.selected {opacity: 1;}
.edge:hover path { stroke: red; }
.edge:hover polygon { stroke: red; fill: red; }
]]></style>

<defs>
  <circle id="rim" cx="0" cy="0" r="7"/>
  <circle id="rim2" cx="0" cy="0" r="3.5"/>
  <g id="zoomPlus">
    <use xlink:href="#rim" fill="#404040"><set attributeName="fill" to="#808080" begin="zoomplus.mouseover" end="zoomplus.mouseout"/></use>
    <path d="M-4,0h8M0,-4v8" fill="none" stroke="white" stroke-width="1.5" pointer-events="none"/>
  </g>
  <g id="zoomMin">
    <use xlink:href="#rim" fill="#404040"><set attributeName="fill" to="#808080" begin="zoomminus.mouseover" end="zoomminus.mouseout"/></use>
    <path d="M-4,0h8" fill="none" stroke="white" stroke-width="1.5" pointer-events="none"/>
  </g>
  <g id="arrowUp" transform="translate(30 24)">
    <use xlink:href="#rim"/>
    <path pointer-events="none" fill="none" stroke="white" stroke-width="1.5" d="M0,-3.0v7 M-2.5,-0.5L0,-3.0L2.5,-0.5"/>
  </g>
  <g id="arrowRight" transform="rotate(90) translate(36 -43)">
    <use xlink:href="#rim"/>
    <path pointer-events="none" fill="none" stroke="white" stroke-width="1.5" d="M0,-3.0v7 M-2.5,-0.5L0,-3.0L2.5,-0.5"/>
  </g>
  <g id="arrowDown" transform="rotate(180) translate(-30 -48)">
    <use xlink:href="#rim"/>
    <path pointer-events="none" fill="none" stroke="white" stroke-width="1.5" d="M0,-3.0v7 M-2.5,-0.5L0,-3.0L2.5,-0.5"/>
  </g>
  <g id="arrowLeft" transform="rotate(270) translate(-36 17)">
    <use xlink:href="#rim"/>
    <path pointer-events="none" fill="none" stroke="white" stroke-width="1.5" d="M0,-3.0v7 M-2.5,-0.5L0,-3.0L2.5,-0.5"/>
  </g>
  <g id="resetDef">
    <use xlink:href="#rim2" fill="#404040"><set attributeName="fill" to="#808080" begin="reset.mouseover" end="reset.mouseout"/></use>
  </g>
</defs>
<script type="application/ecmascript">
var viewWidth = 196;
var viewHeight = 836;
var sectionId = 'dynsection-0';
</script>
<script type="application/ecmascript" xlink:href="svg.min.js"/>
<svg id="graph" class="graph">
<g id="viewport">
<title>GLESC::ResMng::Texture::TextureSurface</title>
<!-- Node1 -->
<g id="Node000001" class="node">
<title>Node1</title>
<g id="a_Node000001"><a xlink:title="Class that represents a texture surface. This class will hold the data of the texture and will be use...">
<polygon fill="#999999" stroke="none" points="162.5,-304 39.5,-304 39.5,0 162.5,0 162.5,-304"/>
<text text-anchor="start" x="44.38" y="-290.5" font-family="Helvetica,sans-Serif" font-size="10.00">GLESC::ResMng::Texture</text>
<text text-anchor="start" x="65.38" y="-278.5" font-family="Helvetica,sans-Serif" font-size="10.00">::TextureSurface</text>
<text text-anchor="start" x="52" y="-262.5" font-family="Helvetica,sans-Serif" font-size="10.00">&#45;</text>
<text text-anchor="start" x="67.5" y="-262.5" font-family="Helvetica,sans-Serif" font-size="10.00">hasLoaded</text>
<text text-anchor="start" x="52" y="-246.5" font-family="Helvetica,sans-Serif" font-size="10.00">&#45;</text>
<text text-anchor="start" x="67.5" y="-246.5" font-family="Helvetica,sans-Serif" font-size="10.00">height</text>
<text text-anchor="start" x="52" y="-230.5" font-family="Helvetica,sans-Serif" font-size="10.00">&#45;</text>
<text text-anchor="start" x="67.5" y="-230.5" font-family="Helvetica,sans-Serif" font-size="10.00">width</text>
<text text-anchor="start" x="50.5" y="-214.5" font-family="Helvetica,sans-Serif" font-size="10.00">+</text>
<text text-anchor="start" x="67.5" y="-214.5" font-family="Helvetica,sans-Serif" font-size="10.00">TextureSurface()</text>
<text text-anchor="start" x="50.5" y="-198.5" font-family="Helvetica,sans-Serif" font-size="10.00">+</text>
<text text-anchor="start" x="67.5" y="-198.5" font-family="Helvetica,sans-Serif" font-size="10.00">TextureSurface()</text>
<text text-anchor="start" x="50.5" y="-182.5" font-family="Helvetica,sans-Serif" font-size="10.00">+</text>
<text text-anchor="start" x="67.5" y="-182.5" font-family="Helvetica,sans-Serif" font-size="10.00">~TextureSurface()</text>
<text text-anchor="start" x="50.5" y="-166.5" font-family="Helvetica,sans-Serif" font-size="10.00">+</text>
<text text-anchor="start" x="67.5" y="-166.5" font-family="Helvetica,sans-Serif" font-size="10.00">getFormat()</text>
<text text-anchor="start" x="50.5" y="-150.5" font-family="Helvetica,sans-Serif" font-size="10.00">+</text>
<text text-anchor="start" x="67.5" y="-150.5" font-family="Helvetica,sans-Serif" font-size="10.00">getHeight()</text>
<text text-anchor="start" x="50.5" y="-134.5" font-family="Helvetica,sans-Serif" font-size="10.00">+</text>
<text text-anchor="start" x="67.5" y="-134.5" font-family="Helvetica,sans-Serif" font-size="10.00">getPixel()</text>
<text text-anchor="start" x="50.5" y="-118.5" font-family="Helvetica,sans-Serif" font-size="10.00">+</text>
<text text-anchor="start" x="67.5" y="-118.5" font-family="Helvetica,sans-Serif" font-size="10.00">getPixels()</text>
<text text-anchor="start" x="50.5" y="-102.5" font-family="Helvetica,sans-Serif" font-size="10.00">+</text>
<text text-anchor="start" x="67.5" y="-102.5" font-family="Helvetica,sans-Serif" font-size="10.00">getTotalOfPixels()</text>
<text text-anchor="start" x="50.5" y="-86.5" font-family="Helvetica,sans-Serif" font-size="10.00">+</text>
<text text-anchor="start" x="67.5" y="-86.5" font-family="Helvetica,sans-Serif" font-size="10.00">getWidth()</text>
<text text-anchor="start" x="50.5" y="-70.5" font-family="Helvetica,sans-Serif" font-size="10.00">+</text>
<text text-anchor="start" x="67.5" y="-70.5" font-family="Helvetica,sans-Serif" font-size="10.00">initializeData()</text>
<text text-anchor="start" x="50.5" y="-54.5" font-family="Helvetica,sans-Serif" font-size="10.00">+</text>
<text text-anchor="start" x="67.5" y="-54.5" font-family="Helvetica,sans-Serif" font-size="10.00">load()</text>
<text text-anchor="start" x="50.5" y="-38.5" font-family="Helvetica,sans-Serif" font-size="10.00">+</text>
<text text-anchor="start" x="67.5" y="-38.5" font-family="Helvetica,sans-Serif" font-size="10.00">release()</text>
<text text-anchor="start" x="50.5" y="-22.5" font-family="Helvetica,sans-Serif" font-size="10.00">+</text>
<text text-anchor="start" x="67.5" y="-22.5" font-family="Helvetica,sans-Serif" font-size="10.00">toString()</text>
<text text-anchor="start" x="52" y="-6.5" font-family="Helvetica,sans-Serif" font-size="10.00">&#45;</text>
<text text-anchor="start" x="67.5" y="-6.5" font-family="Helvetica,sans-Serif" font-size="10.00">isDppCorrect()</text>
<polygon fill="#666666" stroke="#666666" points="39.5,-274 39.5,-274 162.5,-274 162.5,-274 39.5,-274"/>
<polygon fill="#666666" stroke="#666666" points="39.5,-226 39.5,-226 65.5,-226 65.5,-226 39.5,-226"/>
<polygon fill="#666666" stroke="#666666" points="65.5,-226 65.5,-226 162.5,-226 162.5,-226 65.5,-226"/>
<polygon fill="none" stroke="#666666" points="39.5,0 39.5,-304 162.5,-304 162.5,0 39.5,0"/>
</a>
</g>
</g>
<!-- Node2 -->
<g id="Node000002" class="node">
<title>Node2</title>
<g id="a_Node000002"><a xlink:title=" ">
<polygon fill="white" stroke="none" points="100,-516 0,-516 0,-464 100,-464 100,-516"/>
<text text-anchor="start" x="5" y="-502.5" font-family="Helvetica,sans-Serif" font-size="10.00">std::vector&lt; UByte &gt;</text>
<text text-anchor="start" x="14.5" y="-486.5" font-family="Helvetica,sans-Serif" font-size="10.00">+</text>
<text text-anchor="start" x="35" y="-486.5" font-family="Helvetica,sans-Serif" font-size="10.00">elements</text>
<text text-anchor="start" x="48.5" y="-470.5" font-family="Helvetica,sans-Serif" font-size="10.00"> </text>
<polygon fill="#666666" stroke="#666666" points="0,-498 0,-498 100,-498 100,-498 0,-498"/>
<polygon fill="#666666" stroke="#666666" points="0,-482 0,-482 33,-482 33,-482 0,-482"/>
<polygon fill="#666666" stroke="#666666" points="33,-482 33,-482 100,-482 100,-482 33,-482"/>
<polygon fill="none" stroke="#666666" points="0,-464 0,-516 100,-516 100,-464 0,-464"/>
</a>
</g>
</g>
<!-- Node2&#45;&gt;Node1 -->
<g id="edge1_Node000001_Node000002" class="edge">
<title>Node2&#45;&gt;Node1</title>
<g id="a_edge1_Node000001_Node000002"><a xlink:title=" ">
<path fill="none" stroke="#63b8ff" d="M53.79,-464.02C58.64,-432.07 67.46,-373.97 76.17,-316.57"/>
<polygon fill="none" stroke="#63b8ff" points="76.15,-316.71 73.1,-310.18 77.95,-304.85 81.01,-311.38 76.15,-316.71"/>
</a>
</g>
<text text-anchor="middle" x="89.75" y="-324.5" font-family="Helvetica,sans-Serif" font-size="10.00" fill="grey"> &#45;pixels</text>
</g>
<!-- Node3 -->
<g id="Node000003" class="node">
<title>Node3</title>
<g id="a_Node000003"><a xlink:title=" ">
<polygon fill="white" stroke="none" points="89,-728 11,-728 11,-676 89,-676 89,-728"/>
<text text-anchor="start" x="15.88" y="-714.5" font-family="Helvetica,sans-Serif" font-size="10.00">std::vector&lt; T &gt;</text>
<text text-anchor="start" x="48.5" y="-698.5" font-family="Helvetica,sans-Serif" font-size="10.00"> </text>
<text text-anchor="start" x="48.5" y="-682.5" font-family="Helvetica,sans-Serif" font-size="10.00"> </text>
<polygon fill="#666666" stroke="#666666" points="11,-710 11,-710 89,-710 89,-710 11,-710"/>
<polygon fill="#666666" stroke="#666666" points="11,-694 11,-694 89,-694 89,-694 11,-694"/>
<polygon fill="none" stroke="#666666" points="11,-676 11,-728 89,-728 89,-676 11,-676"/>
</a>
</g>
</g>
<!-- Node3&#45;&gt;Node2 -->
<g id="edge2_Node000002_Node000003" class="edge">
<title>Node3&#45;&gt;Node2</title>
<g id="a_edge2_Node000002_Node000003"><a xlink:title=" ">
<path fill="none" stroke="orange" d="M50,-664.58C50,-622.01 50,-552.73 50,-515.88"/>
<polygon fill="orange" stroke="orange" points="46.5,-664.57 50,-674.57 53.5,-664.57 46.5,-664.57"/>
</a>
</g>
<text text-anchor="middle" x="74" y="-648.5" font-family="Helvetica,sans-Serif" font-size="10.00" fill="grey"> &lt; UByte &gt;</text>
</g>
<!-- Node4 -->
<g id="Node000004" class="node">
<title>Node4</title>
<g id="a_Node000004"><a xlink:title=" ">
<polygon fill="white" stroke="none" points="57.5,-828 42.5,-828 42.5,-776 57.5,-776 57.5,-828"/>
<text text-anchor="start" x="47.38" y="-814.5" font-family="Helvetica,sans-Serif" font-size="10.00">T</text>
<text text-anchor="start" x="48.5" y="-798.5" font-family="Helvetica,sans-Serif" font-size="10.00"> </text>
<text text-anchor="start" x="48.5" y="-782.5" font-family="Helvetica,sans-Serif" font-size="10.00"> </text>
<polygon fill="#666666" stroke="#666666" points="42.5,-810 42.5,-810 57.5,-810 57.5,-810 42.5,-810"/>
<polygon fill="#666666" stroke="#666666" points="42.5,-794 42.5,-794 57.5,-794 57.5,-794 42.5,-794"/>
<polygon fill="none" stroke="#666666" points="42.5,-776 42.5,-828 57.5,-828 57.5,-776 42.5,-776"/>
</a>
</g>
</g>
<!-- Node4&#45;&gt;Node3 -->
<g id="edge3_Node000003_Node000004" class="edge">
<title>Node4&#45;&gt;Node3</title>
<g id="a_edge3_Node000003_Node000004"><a xlink:title=" ">
<path fill="none" stroke="#63b8ff" d="M50,-776.02C50,-765.3 50,-752.56 50,-740.73"/>
<polygon fill="none" stroke="#63b8ff" points="50,-740.84 46,-734.84 50,-728.84 54,-734.84 50,-740.84"/>
</a>
</g>
<text text-anchor="middle" x="74.38" y="-748.5" font-family="Helvetica,sans-Serif" font-size="10.00" fill="grey"> +elements</text>
</g>
<!-- Node5 -->
<g id="Node000005" class="node">
<title>Node5</title>
<g id="a_Node000005"><a xlink:href="struct_format.html" target="_top" xlink:title="A struct that holds the format of a texture.">
<polygon fill="white" stroke="none" points="187.5,-628 118.5,-628 118.5,-352 187.5,-352 187.5,-628"/>
<text text-anchor="start" x="137.62" y="-614.5" font-family="Helvetica,sans-Serif" font-size="10.00">Format</text>
<text text-anchor="start" x="122.5" y="-598.5" font-family="Helvetica,sans-Serif" font-size="10.00">+</text>
<text text-anchor="start" x="132.5" y="-598.5" font-family="Helvetica,sans-Serif" font-size="10.00">aLoss</text>
<text text-anchor="start" x="122.5" y="-582.5" font-family="Helvetica,sans-Serif" font-size="10.00">+</text>
<text text-anchor="start" x="132.5" y="-582.5" font-family="Helvetica,sans-Serif" font-size="10.00">aMask</text>
<text text-anchor="start" x="122.5" y="-566.5" font-family="Helvetica,sans-Serif" font-size="10.00">+</text>
<text text-anchor="start" x="132.5" y="-566.5" font-family="Helvetica,sans-Serif" font-size="10.00">aShift</text>
<text text-anchor="start" x="122.5" y="-550.5" font-family="Helvetica,sans-Serif" font-size="10.00">+</text>
<text text-anchor="start" x="132.5" y="-550.5" font-family="Helvetica,sans-Serif" font-size="10.00">bitDepth</text>
<text text-anchor="start" x="122.5" y="-534.5" font-family="Helvetica,sans-Serif" font-size="10.00">+</text>
<text text-anchor="start" x="132.5" y="-534.5" font-family="Helvetica,sans-Serif" font-size="10.00">bLoss</text>
<text text-anchor="start" x="122.5" y="-518.5" font-family="Helvetica,sans-Serif" font-size="10.00">+</text>
<text text-anchor="start" x="132.5" y="-518.5" font-family="Helvetica,sans-Serif" font-size="10.00">bMask</text>
<text text-anchor="start" x="122.5" y="-502.5" font-family="Helvetica,sans-Serif" font-size="10.00">+</text>
<text text-anchor="start" x="132.5" y="-502.5" font-family="Helvetica,sans-Serif" font-size="10.00">bShift</text>
<text text-anchor="start" x="122.5" y="-486.5" font-family="Helvetica,sans-Serif" font-size="10.00">+</text>
<text text-anchor="start" x="132.5" y="-486.5" font-family="Helvetica,sans-Serif" font-size="10.00">colorFormat</text>
<text text-anchor="start" x="122.5" y="-470.5" font-family="Helvetica,sans-Serif" font-size="10.00">+</text>
<text text-anchor="start" x="132.5" y="-470.5" font-family="Helvetica,sans-Serif" font-size="10.00">gLoss</text>
<text text-anchor="start" x="122.5" y="-454.5" font-family="Helvetica,sans-Serif" font-size="10.00">+</text>
<text text-anchor="start" x="132.5" y="-454.5" font-family="Helvetica,sans-Serif" font-size="10.00">gMask</text>
<text text-anchor="start" x="122.5" y="-438.5" font-family="Helvetica,sans-Serif" font-size="10.00">+</text>
<text text-anchor="start" x="132.5" y="-438.5" font-family="Helvetica,sans-Serif" font-size="10.00">gShift</text>
<text text-anchor="start" x="122.5" y="-422.5" font-family="Helvetica,sans-Serif" font-size="10.00">+</text>
<text text-anchor="start" x="132.5" y="-422.5" font-family="Helvetica,sans-Serif" font-size="10.00">rLoss</text>
<text text-anchor="start" x="122.5" y="-406.5" font-family="Helvetica,sans-Serif" font-size="10.00">+</text>
<text text-anchor="start" x="132.5" y="-406.5" font-family="Helvetica,sans-Serif" font-size="10.00">rMask</text>
<text text-anchor="start" x="122.5" y="-390.5" font-family="Helvetica,sans-Serif" font-size="10.00">+</text>
<text text-anchor="start" x="132.5" y="-390.5" font-family="Helvetica,sans-Serif" font-size="10.00">rShift</text>
<text text-anchor="start" x="122.5" y="-374.5" font-family="Helvetica,sans-Serif" font-size="10.00">+</text>
<text text-anchor="start" x="132.5" y="-374.5" font-family="Helvetica,sans-Serif" font-size="10.00">Format()</text>
<text text-anchor="start" x="122.5" y="-358.5" font-family="Helvetica,sans-Serif" font-size="10.00">+</text>
<text text-anchor="start" x="132.5" y="-358.5" font-family="Helvetica,sans-Serif" font-size="10.00">toString()</text>
<polygon fill="#666666" stroke="#666666" points="118.5,-610 118.5,-610 187.5,-610 187.5,-610 118.5,-610"/>
<polygon fill="#666666" stroke="#666666" points="118.5,-386 118.5,-386 130.5,-386 130.5,-386 118.5,-386"/>
<polygon fill="#666666" stroke="#666666" points="130.5,-386 130.5,-386 187.5,-386 187.5,-386 130.5,-386"/>
<polygon fill="none" stroke="#666666" points="118.5,-352 118.5,-628 187.5,-628 187.5,-352 118.5,-352"/>
</a>
</g>
</g>
<!-- Node5&#45;&gt;Node1 -->
<g id="edge4_Node000001_Node000005" class="edge">
<title>Node5&#45;&gt;Node1</title>
<g id="a_edge4_Node000001_Node000005"><a xlink:title=" ">
<path fill="none" stroke="#63b8ff" d="M131.85,-352.34C130.01,-340.47 128.14,-328.39 126.28,-316.34"/>
<polygon fill="none" stroke="#63b8ff" points="126.31,-316.55 121.44,-311.23 124.48,-304.69 129.35,-310.01 126.31,-316.55"/>
</a>
</g>
<text text-anchor="middle" x="144.5" y="-324.5" font-family="Helvetica,sans-Serif" font-size="10.00" fill="grey"> &#45;format</text>
</g>
</g>
</svg>

<g id="navigator" transform="translate(0 0)" fill="#404254">
  <rect fill="#f2f5e9" fill-opacity="0.5" stroke="#606060" stroke-width=".5" x="0" y="0" width="60" height="60"/>
  <use id="zoomplus" xlink:href="#zoomPlus" x="17" y="9" onmousedown="handleZoom(evt,'in')"/>
  <use id="zoomminus" xlink:href="#zoomMin" x="42" y="9" onmousedown="handleZoom(evt,'out')"/>
  <use id="reset" xlink:href="#resetDef" x="30" y="36" onmousedown="handleReset()"/>
   <use id="arrowup" xlink:href="#arrowUp" x="0" y="0" onmousedown="handlePan(0,-1)"/>
  <use id="arrowright" xlink:href="#arrowRight" x="0" y="0" onmousedown="handlePan(1,0)"/>
  <use id="arrowdown" xlink:href="#arrowDown" x="0" y="0" onmousedown="handlePan(0,1)"/>
  <use id="arrowleft" xlink:href="#arrowLeft" x="0" y="0" onmousedown="handlePan(-1,0)"/>
</g>
<svg viewBox="0 0 15 15" width="100%" height="30px" preserveAspectRatio="xMaxYMin meet">
 <g id="arrow_out" transform="scale(0.3 0.3)">
  <a xlink:href="class_g_l_e_s_c_1_1_res_mng_1_1_texture_1_1_texture_surface__coll__graph_org.svg" target="_base">
   <rect id="button" ry="5" rx="5" y="6" x="6" height="38" width="38"
        fill="#f2f5e9" fill-opacity="0.5" stroke="#606060" stroke-width="1.0"/>
   <path id="arrow"
     d="M 11.500037,31.436501 C 11.940474,20.09759 22.043105,11.32322 32.158766,21.979434 L 37.068811,17.246167 C 37.068811,17.246167 37.088388,32 37.088388,32 L 22.160133,31.978069 C 22.160133,31.978069 26.997745,27.140456 26.997745,27.140456 C 18.528582,18.264221 13.291696,25.230495 11.500037,31.436501 z"
     style="fill:#404040;"/>
  </a>
 </g>
</svg>

<style type='text/css'>
<![CDATA[
[data-mouse-over-selected='false'] { opacity: 0.7; }
[data-mouse-over-selected='true']  { opacity: 1.0; }
]]>
</style>
<script type="application/ecmascript"><![CDATA[
document.addEventListener('DOMContentLoaded', (event) => {
  highlightEdges();
  highlightAdjacentNodes();
});
]]></script>
</svg>
