<?xml version="1.0" encoding="UTF-8" standalone="no"?>
<!DOCTYPE svg PUBLIC "-//W3C//DTD SVG 1.1//EN"
 "http://www.w3.org/Graphics/SVG/1.1/DTD/svg11.dtd">
<!-- Generated by graphviz version 11.0.0 (20240428.1522)
 -->
<!-- Title: GLESC::Console::addMessage Pages: 1 -->
<svg width="661pt" height="128pt"
 viewBox="0.00 0.00 660.75 128.00" xmlns="http://www.w3.org/2000/svg" xmlns:xlink="http://www.w3.org/1999/xlink">
<g id="graph0" class="graph" transform="scale(1 1) rotate(0) translate(4 124)">
<title>GLESC::Console::addMessage</title>
<!-- Node1 -->
<g id="Node000001" class="node">
<title>Node1</title>
<g id="a_Node000001"><a xlink:title=" ">
<polygon fill="#999999" stroke="#666666" points="652.75,-70 501,-70 501,-50 652.75,-50 652.75,-70"/>
<text text-anchor="middle" x="576.88" y="-56.5" font-family="Helvetica,sans-Serif" font-size="10.00">GLESC::Console::addMessage</text>
</a>
</g>
</g>
<!-- Node2 -->
<g id="Node000002" class="node">
<title>Node2</title>
<g id="a_Node000002"><a xlink:href="class_g_l_e_s_c_1_1_console.html#a91c693f8708bc40b80b737be16f86499" target="_top" xlink:title=" ">
<polygon fill="white" stroke="#666666" points="464.62,-70 348.88,-70 348.88,-50 464.62,-50 464.62,-70"/>
<text text-anchor="middle" x="406.75" y="-56.5" font-family="Helvetica,sans-Serif" font-size="10.00">GLESC::Console::error</text>
</a>
</g>
</g>
<!-- Node1&#45;&gt;Node2 -->
<g id="edge1_Node000001_Node000002" class="edge">
<title>Node1&#45;&gt;Node2</title>
<g id="a_edge1_Node000001_Node000002"><a xlink:title=" ">
<path fill="none" stroke="#63b8ff" d="M489.39,-60C481.12,-60 472.88,-60 464.99,-60"/>
<polygon fill="#63b8ff" stroke="#63b8ff" points="489.15,-63.5 499.15,-60 489.15,-56.5 489.15,-63.5"/>
</a>
</g>
</g>
<!-- Node5 -->
<g id="Node000005" class="node">
<title>Node5</title>
<g id="a_Node000005"><a xlink:href="class_g_l_e_s_c_1_1_console.html#a7d6ade614a335406b76613b104478caa" target="_top" xlink:title=" ">
<polygon fill="white" stroke="#666666" points="461.25,-108 352.25,-108 352.25,-88 461.25,-88 461.25,-108"/>
<text text-anchor="middle" x="406.75" y="-94.5" font-family="Helvetica,sans-Serif" font-size="10.00">GLESC::Console::log</text>
</a>
</g>
</g>
<!-- Node1&#45;&gt;Node5 -->
<g id="edge4_Node000001_Node000005" class="edge">
<title>Node1&#45;&gt;Node5</title>
<g id="a_edge4_Node000001_Node000005"><a xlink:title=" ">
<path fill="none" stroke="#63b8ff" d="M518.43,-72.98C497.4,-77.74 473.9,-83.05 453.98,-87.55"/>
<polygon fill="#63b8ff" stroke="#63b8ff" points="519.03,-76.44 528.01,-70.82 517.49,-69.61 519.03,-76.44"/>
</a>
</g>
</g>
<!-- Node7 -->
<g id="Node000007" class="node">
<title>Node7</title>
<g id="a_Node000007"><a xlink:href="class_g_l_e_s_c_1_1_console.html#a7ed2e6be9021ff98197fe923266d007f" target="_top" xlink:title=" ">
<polygon fill="white" stroke="#666666" points="465,-32 348.5,-32 348.5,-12 465,-12 465,-32"/>
<text text-anchor="middle" x="406.75" y="-18.5" font-family="Helvetica,sans-Serif" font-size="10.00">GLESC::Console::warn</text>
</a>
</g>
</g>
<!-- Node1&#45;&gt;Node7 -->
<g id="edge7_Node000001_Node000007" class="edge">
<title>Node1&#45;&gt;Node7</title>
<g id="a_edge7_Node000001_Node000007"><a xlink:title=" ">
<path fill="none" stroke="#63b8ff" d="M518.43,-47.02C497.4,-42.26 473.9,-36.95 453.98,-32.45"/>
<polygon fill="#63b8ff" stroke="#63b8ff" points="517.49,-50.39 528.01,-49.18 519.03,-43.56 517.49,-50.39"/>
</a>
</g>
</g>
<!-- Node3 -->
<g id="Node000003" class="node">
<title>Node3</title>
<g id="a_Node000003"><a xlink:href="class_g_l_e_s_c_1_1_engine.html#ad2ff110d5a86c1cd60b541d65915ac48" target="_top" xlink:title="Processes the logic of the game Is called every frame, must be called at constant intervals of time a...">
<polygon fill="white" stroke="#666666" points="307.25,-70 187,-70 187,-50 307.25,-50 307.25,-70"/>
<text text-anchor="middle" x="247.12" y="-56.5" font-family="Helvetica,sans-Serif" font-size="10.00">GLESC::Engine::update</text>
</a>
</g>
</g>
<!-- Node2&#45;&gt;Node3 -->
<g id="edge2_Node000002_Node000003" class="edge">
<title>Node2&#45;&gt;Node3</title>
<g id="a_edge2_Node000002_Node000003"><a xlink:title=" ">
<path fill="none" stroke="#63b8ff" d="M337.01,-60C327.2,-60 317.17,-60 307.55,-60"/>
<polygon fill="#63b8ff" stroke="#63b8ff" points="336.88,-63.5 346.88,-60 336.88,-56.5 336.88,-63.5"/>
</a>
</g>
</g>
<!-- Node4 -->
<g id="Node000004" class="node">
<title>Node4</title>
<g id="a_Node000004"><a xlink:href="src_2engine_2main_8cpp.html#a0ddf1224851353fc92bfbff6f499fa97" target="_top" xlink:title=" ">
<polygon fill="white" stroke="#666666" points="91.38,-70 54.38,-70 54.38,-50 91.38,-50 91.38,-70"/>
<text text-anchor="middle" x="72.88" y="-56.5" font-family="Helvetica,sans-Serif" font-size="10.00">main</text>
</a>
</g>
</g>
<!-- Node3&#45;&gt;Node4 -->
<g id="edge3_Node000003_Node000004" class="edge">
<title>Node3&#45;&gt;Node4</title>
<g id="a_edge3_Node000003_Node000004"><a xlink:title=" ">
<path fill="none" stroke="#63b8ff" d="M175.68,-60C144.94,-60 111.44,-60 91.57,-60"/>
<polygon fill="#63b8ff" stroke="#63b8ff" points="175.33,-63.5 185.33,-60 175.33,-56.5 175.33,-63.5"/>
</a>
</g>
</g>
<!-- Node5&#45;&gt;Node3 -->
<g id="edge6_Node000005_Node000003" class="edge">
<title>Node5&#45;&gt;Node3</title>
<g id="a_edge6_Node000005_Node000003"><a xlink:title=" ">
<path fill="none" stroke="#63b8ff" d="M351.07,-84.82C331.57,-80.12 309.89,-74.89 291.47,-70.45"/>
<polygon fill="#63b8ff" stroke="#63b8ff" points="350.25,-88.22 360.79,-87.16 351.89,-81.41 350.25,-88.22"/>
</a>
</g>
</g>
<!-- Node6 -->
<g id="Node000006" class="node">
<title>Node6</title>
<g id="a_Node000006"><a xlink:href="class_g_l_e_s_c_1_1_in_game_window.html#aee5f8d22dc2c5b0a1014f6bcb1197441" target="_top" xlink:title="Render the window.">
<polygon fill="white" stroke="#666666" points="308.75,-120 185.5,-120 185.5,-88 308.75,-88 308.75,-120"/>
<text text-anchor="start" x="193.5" y="-106.5" font-family="Helvetica,sans-Serif" font-size="10.00">GLESC::InGameWindow</text>
<text text-anchor="middle" x="247.12" y="-94.5" font-family="Helvetica,sans-Serif" font-size="10.00">::render</text>
</a>
</g>
</g>
<!-- Node5&#45;&gt;Node6 -->
<g id="edge5_Node000005_Node000006" class="edge">
<title>Node5&#45;&gt;Node6</title>
<g id="a_edge5_Node000005_Node000006"><a xlink:title=" ">
<path fill="none" stroke="#63b8ff" d="M340.72,-100.48C330.23,-100.87 319.39,-101.29 309,-101.68"/>
<polygon fill="#63b8ff" stroke="#63b8ff" points="340.57,-103.98 350.43,-100.11 340.31,-96.99 340.57,-103.98"/>
</a>
</g>
</g>
<!-- Node7&#45;&gt;Node3 -->
<g id="edge10_Node000007_Node000003" class="edge">
<title>Node7&#45;&gt;Node3</title>
<g id="a_edge10_Node000007_Node000003"><a xlink:title=" ">
<path fill="none" stroke="#63b8ff" d="M351.07,-35.18C331.57,-39.88 309.89,-45.11 291.47,-49.55"/>
<polygon fill="#63b8ff" stroke="#63b8ff" points="351.89,-38.59 360.79,-32.84 350.25,-31.78 351.89,-38.59"/>
</a>
</g>
</g>
<!-- Node8 -->
<g id="Node000008" class="node">
<title>Node8</title>
<g id="a_Node000008"><a xlink:href="class_g_l_e_s_c_1_1_render_1_1_renderer.html#a91180f2e65fa787ef13cfd9dde7b749c" target="_top" xlink:title="This sends the mesh data to the renderer so it can be rendered.">
<polygon fill="white" stroke="#666666" points="312.5,-32 181.75,-32 181.75,0 312.5,0 312.5,-32"/>
<text text-anchor="start" x="189.75" y="-18.5" font-family="Helvetica,sans-Serif" font-size="10.00">GLESC::Render::Renderer</text>
<text text-anchor="middle" x="247.12" y="-6.5" font-family="Helvetica,sans-Serif" font-size="10.00">::sendMeshData</text>
</a>
</g>
</g>
<!-- Node7&#45;&gt;Node8 -->
<g id="edge8_Node000007_Node000008" class="edge">
<title>Node7&#45;&gt;Node8</title>
<g id="a_edge8_Node000007_Node000008"><a xlink:title=" ">
<path fill="none" stroke="#63b8ff" d="M337.15,-19.39C329.1,-19.08 320.9,-18.77 312.91,-18.47"/>
<polygon fill="#63b8ff" stroke="#63b8ff" points="336.76,-22.88 346.89,-19.76 337.03,-15.88 336.76,-22.88"/>
</a>
</g>
</g>
<!-- Node9 -->
<g id="Node000009" class="node">
<title>Node9</title>
<g id="a_Node000009"><a xlink:href="class_g_l_e_s_c_1_1_e_c_s_1_1_render_system.html#a3d3b423c0c5bf7a1e67e31e069374f93" target="_top" xlink:title="Updates the system.">
<polygon fill="white" stroke="#666666" points="145.75,-32 0,-32 0,0 145.75,0 145.75,-32"/>
<text text-anchor="start" x="8" y="-18.5" font-family="Helvetica,sans-Serif" font-size="10.00">GLESC::ECS::RenderSystem</text>
<text text-anchor="middle" x="72.88" y="-6.5" font-family="Helvetica,sans-Serif" font-size="10.00">::update</text>
</a>
</g>
</g>
<!-- Node8&#45;&gt;Node9 -->
<g id="edge9_Node000008_Node000009" class="edge">
<title>Node8&#45;&gt;Node9</title>
<g id="a_edge9_Node000008_Node000009"><a xlink:title=" ">
<path fill="none" stroke="#63b8ff" d="M170.26,-16C162.23,-16 154.08,-16 146.09,-16"/>
<polygon fill="#63b8ff" stroke="#63b8ff" points="169.98,-19.5 179.98,-16 169.98,-12.5 169.98,-19.5"/>
</a>
</g>
</g>
</g>
</svg>
