<?xml version="1.0" encoding="UTF-8" standalone="no"?>
<!DOCTYPE svg PUBLIC "-//W3C//DTD SVG 1.1//EN"
 "http://www.w3.org/Graphics/SVG/1.1/DTD/svg11.dtd">
<!-- Generated by graphviz version 11.0.0 (20240428.1522)
 -->
<!-- Title: GLESC::Math::MatrixAlgorithms::calculateNormalMatrix Pages: 1 -->
<!--zoomable 228 -->

<svg id="main" version="1.1" xmlns="http://www.w3.org/2000/svg" xmlns:xlink="http://www.w3.org/1999/xlink" xml:space="preserve" onload="init(evt)">
<style type="text/css"><![CDATA[
.node, .edge {opacity: 0.7;}
.node.selected, .edge.selected {opacity: 1;}
.edge:hover path { stroke: red; }
.edge:hover polygon { stroke: red; fill: red; }
]]></style>

<defs>
  <circle id="rim" cx="0" cy="0" r="7"/>
  <circle id="rim2" cx="0" cy="0" r="3.5"/>
  <g id="zoomPlus">
    <use xlink:href="#rim" fill="#404040"><set attributeName="fill" to="#808080" begin="zoomplus.mouseover" end="zoomplus.mouseout"/></use>
    <path d="M-4,0h8M0,-4v8" fill="none" stroke="white" stroke-width="1.5" pointer-events="none"/>
  </g>
  <g id="zoomMin">
    <use xlink:href="#rim" fill="#404040"><set attributeName="fill" to="#808080" begin="zoomminus.mouseover" end="zoomminus.mouseout"/></use>
    <path d="M-4,0h8" fill="none" stroke="white" stroke-width="1.5" pointer-events="none"/>
  </g>
  <g id="arrowUp" transform="translate(30 24)">
    <use xlink:href="#rim"/>
    <path pointer-events="none" fill="none" stroke="white" stroke-width="1.5" d="M0,-3.0v7 M-2.5,-0.5L0,-3.0L2.5,-0.5"/>
  </g>
  <g id="arrowRight" transform="rotate(90) translate(36 -43)">
    <use xlink:href="#rim"/>
    <path pointer-events="none" fill="none" stroke="white" stroke-width="1.5" d="M0,-3.0v7 M-2.5,-0.5L0,-3.0L2.5,-0.5"/>
  </g>
  <g id="arrowDown" transform="rotate(180) translate(-30 -48)">
    <use xlink:href="#rim"/>
    <path pointer-events="none" fill="none" stroke="white" stroke-width="1.5" d="M0,-3.0v7 M-2.5,-0.5L0,-3.0L2.5,-0.5"/>
  </g>
  <g id="arrowLeft" transform="rotate(270) translate(-36 17)">
    <use xlink:href="#rim"/>
    <path pointer-events="none" fill="none" stroke="white" stroke-width="1.5" d="M0,-3.0v7 M-2.5,-0.5L0,-3.0L2.5,-0.5"/>
  </g>
  <g id="resetDef">
    <use xlink:href="#rim2" fill="#404040"><set attributeName="fill" to="#808080" begin="reset.mouseover" end="reset.mouseout"/></use>
  </g>
</defs>
<script type="application/ecmascript">
var viewWidth = 933;
var viewHeight = 228;
var sectionId = 'dynsection-0';
</script>
<script type="application/ecmascript" xlink:href="svg.min.js"/>
<svg id="graph" class="graph">
<g id="viewport">
<title>GLESC::Math::MatrixAlgorithms::calculateNormalMatrix</title>
<!-- Node1 -->
<g id="Node000001" class="node">
<title>Node1</title>
<g id="a_Node000001"><a xlink:title="Calculates the normal matrix given the model&#45;view matrix.">
<polygon fill="#999999" stroke="#666666" points="156.25,-106 0,-106 0,-74 156.25,-74 156.25,-106"/>
<text text-anchor="start" x="8" y="-92.5" font-family="Helvetica,sans-Serif" font-size="10.00">GLESC::Math::MatrixAlgorithms</text>
<text text-anchor="middle" x="78.12" y="-80.5" font-family="Helvetica,sans-Serif" font-size="10.00">::calculateNormalMatrix</text>
</a>
</g>
</g>
<!-- Node2 -->
<g id="Node000002" class="node">
<title>Node2</title>
<g id="a_Node000002"><a xlink:href="class_g_l_e_s_c_1_1_math_1_1_matrix_algorithms.html#a1380aa1364ae38a37a7e710d20cf90ec" target="_top" xlink:title="Calculates the inverse of a 4x4 matrix.">
<polygon fill="white" stroke="#666666" points="348.5,-156 192.25,-156 192.25,-124 348.5,-124 348.5,-156"/>
<text text-anchor="start" x="200.25" y="-142.5" font-family="Helvetica,sans-Serif" font-size="10.00">GLESC::Math::MatrixAlgorithms</text>
<text text-anchor="middle" x="270.38" y="-130.5" font-family="Helvetica,sans-Serif" font-size="10.00">::inverse4x4</text>
</a>
</g>
</g>
<!-- Node1&#45;&gt;Node2 -->
<g id="edge1_Node000001_Node000002" class="edge">
<title>Node1&#45;&gt;Node2</title>
<g id="a_edge1_Node000001_Node000002"><a xlink:title=" ">
<path fill="none" stroke="#63b8ff" d="M141.68,-106.44C158.99,-110.99 177.94,-115.97 195.81,-120.67"/>
<polygon fill="#63b8ff" stroke="#63b8ff" points="194.75,-124.01 205.32,-123.16 196.53,-117.24 194.75,-124.01"/>
</a>
</g>
</g>
<!-- Node11 -->
<g id="Node000011" class="node">
<title>Node11</title>
<g id="a_Node000011"><a xlink:href="class_g_l_e_s_c_1_1_math_1_1_matrix_algorithms.html#ac9c8254e9cef4455b19199963ed4be7e" target="_top" xlink:title="Resizes a matrix.">
<polygon fill="white" stroke="#666666" points="348.5,-106 192.25,-106 192.25,-74 348.5,-74 348.5,-106"/>
<text text-anchor="start" x="200.25" y="-92.5" font-family="Helvetica,sans-Serif" font-size="10.00">GLESC::Math::MatrixAlgorithms</text>
<text text-anchor="middle" x="270.38" y="-80.5" font-family="Helvetica,sans-Serif" font-size="10.00">::resizeMatrix</text>
</a>
</g>
</g>
<!-- Node1&#45;&gt;Node11 -->
<g id="edge12_Node000001_Node000011" class="edge">
<title>Node1&#45;&gt;Node11</title>
<g id="a_edge12_Node000001_Node000011"><a xlink:title=" ">
<path fill="none" stroke="#63b8ff" d="M156.51,-90C164.41,-90 172.48,-90 180.49,-90"/>
<polygon fill="#63b8ff" stroke="#63b8ff" points="180.24,-93.5 190.24,-90 180.24,-86.5 180.24,-93.5"/>
</a>
</g>
</g>
<!-- Node12 -->
<g id="Node000012" class="node">
<title>Node12</title>
<g id="a_Node000012"><a xlink:href="class_g_l_e_s_c_1_1_math_1_1_matrix_algorithms.html#a132bed6acafb41906a156dae5f6f4d1f" target="_top" xlink:title="Transposes a matrix.">
<polygon fill="white" stroke="#666666" points="348.5,-56 192.25,-56 192.25,-24 348.5,-24 348.5,-56"/>
<text text-anchor="start" x="200.25" y="-42.5" font-family="Helvetica,sans-Serif" font-size="10.00">GLESC::Math::MatrixAlgorithms</text>
<text text-anchor="middle" x="270.38" y="-30.5" font-family="Helvetica,sans-Serif" font-size="10.00">::transpose</text>
</a>
</g>
</g>
<!-- Node1&#45;&gt;Node12 -->
<g id="edge13_Node000001_Node000012" class="edge">
<title>Node1&#45;&gt;Node12</title>
<g id="a_edge13_Node000001_Node000012"><a xlink:title=" ">
<path fill="none" stroke="#63b8ff" d="M141.68,-73.56C158.99,-69.01 177.94,-64.03 195.81,-59.33"/>
<polygon fill="#63b8ff" stroke="#63b8ff" points="196.53,-62.76 205.32,-56.84 194.75,-55.99 196.53,-62.76"/>
</a>
</g>
</g>
<!-- Node3 -->
<g id="Node000003" class="node">
<title>Node3</title>
<g id="a_Node000003"><a xlink:href="class_g_l_e_s_c_1_1_math_1_1_matrix_algorithms.html#a972ac9793d405d0a5daca41591c1fb8c" target="_top" xlink:title="Computes the determinant of a matrix 4x4.">
<polygon fill="white" stroke="#666666" points="925.25,-220 769,-220 769,-188 925.25,-188 925.25,-220"/>
<text text-anchor="start" x="777" y="-206.5" font-family="Helvetica,sans-Serif" font-size="10.00">GLESC::Math::MatrixAlgorithms</text>
<text text-anchor="middle" x="847.12" y="-194.5" font-family="Helvetica,sans-Serif" font-size="10.00">::determinant4x4</text>
</a>
</g>
</g>
<!-- Node2&#45;&gt;Node3 -->
<g id="edge2_Node000002_Node000003" class="edge">
<title>Node2&#45;&gt;Node3</title>
<g id="a_edge2_Node000002_Node000003"><a xlink:title=" ">
<path fill="none" stroke="#63b8ff" d="M348.89,-148.63C455.24,-160.47 645.9,-181.7 757.69,-194.15"/>
<polygon fill="#63b8ff" stroke="#63b8ff" points="757.09,-197.61 767.42,-195.24 757.87,-190.65 757.09,-197.61"/>
</a>
</g>
</g>
<!-- Node4 -->
<g id="Node000004" class="node">
<title>Node4</title>
<g id="a_Node000004"><a xlink:href="class_g_l_e_s_c_1_1_math_1_1_matrix_algorithms.html#a5d9d986d19eb1ff929b7c9c8f8cdbcdc" target="_top" xlink:title="Checks if a matrix is invertible.">
<polygon fill="white" stroke="#666666" points="540.75,-120 384.5,-120 384.5,-88 540.75,-88 540.75,-120"/>
<text text-anchor="start" x="392.5" y="-106.5" font-family="Helvetica,sans-Serif" font-size="10.00">GLESC::Math::MatrixAlgorithms</text>
<text text-anchor="middle" x="462.62" y="-94.5" font-family="Helvetica,sans-Serif" font-size="10.00">::isInvertible</text>
</a>
</g>
</g>
<!-- Node2&#45;&gt;Node4 -->
<g id="edge3_Node000002_Node000004" class="edge">
<title>Node2&#45;&gt;Node4</title>
<g id="a_edge3_Node000002_Node000004"><a xlink:title=" ">
<path fill="none" stroke="#63b8ff" d="M348.76,-125.36C356.66,-123.86 364.73,-122.34 372.74,-120.82"/>
<polygon fill="#63b8ff" stroke="#63b8ff" points="373.34,-124.27 382.52,-118.97 372.04,-117.39 373.34,-124.27"/>
</a>
</g>
</g>
<!-- Node5 -->
<g id="Node000005" class="node">
<title>Node5</title>
<g id="a_Node000005"><a xlink:href="namespace_g_l_e_s_c_1_1_math.html#aee25910dbba06d09d9df14d03933ace1" target="_top" xlink:title="Compares two values for equality.">
<polygon fill="white" stroke="#666666" points="701.5,-45 608.25,-45 608.25,-25 701.5,-25 701.5,-45"/>
<text text-anchor="middle" x="654.88" y="-31.5" font-family="Helvetica,sans-Serif" font-size="10.00">GLESC::Math::eq</text>
</a>
</g>
</g>
<!-- Node4&#45;&gt;Node5 -->
<g id="edge4_Node000004_Node000005" class="edge">
<title>Node4&#45;&gt;Node5</title>
<g id="a_edge4_Node000004_Node000005"><a xlink:title=" ">
<path fill="none" stroke="#63b8ff" d="M508.71,-87.65C540.81,-76.01 583.54,-60.51 614.31,-49.35"/>
<polygon fill="#63b8ff" stroke="#63b8ff" points="615.44,-52.66 623.65,-45.96 613.05,-46.08 615.44,-52.66"/>
</a>
</g>
</g>
<!-- Node7 -->
<g id="Node000007" class="node">
<title>Node7</title>
<g id="a_Node000007"><a xlink:href="class_g_l_e_s_c_1_1_math_1_1_matrix_algorithms.html#a9670e25803284a303601766e75617acc" target="_top" xlink:title="Calculates the determinant of any matrix using Laplace expansion.">
<polygon fill="white" stroke="#666666" points="733,-120 576.75,-120 576.75,-88 733,-88 733,-120"/>
<text text-anchor="start" x="584.75" y="-106.5" font-family="Helvetica,sans-Serif" font-size="10.00">GLESC::Math::MatrixAlgorithms</text>
<text text-anchor="middle" x="654.88" y="-94.5" font-family="Helvetica,sans-Serif" font-size="10.00">::laplaceExpansionDeterminant</text>
</a>
</g>
</g>
<!-- Node4&#45;&gt;Node7 -->
<g id="edge6_Node000004_Node000007" class="edge">
<title>Node4&#45;&gt;Node7</title>
<g id="a_edge6_Node000004_Node000007"><a xlink:title=" ">
<path fill="none" stroke="#63b8ff" d="M541.01,-104C548.91,-104 556.98,-104 564.99,-104"/>
<polygon fill="#63b8ff" stroke="#63b8ff" points="564.74,-107.5 574.74,-104 564.74,-100.5 564.74,-107.5"/>
</a>
</g>
</g>
<!-- Node6 -->
<g id="Node000006" class="node">
<title>Node6</title>
<g id="a_Node000006"><a xlink:href="namespace_g_l_e_s_c_1_1_math.html#acd429163efe906cd22916cc75ccb2421" target="_top" xlink:title="Epsilon getter with precision of a given template type.">
<polygon fill="white" stroke="#666666" points="903.88,-20 790.38,-20 790.38,0 903.88,0 903.88,-20"/>
<text text-anchor="middle" x="847.12" y="-6.5" font-family="Helvetica,sans-Serif" font-size="10.00">GLESC::Math::epsilon</text>
</a>
</g>
</g>
<!-- Node5&#45;&gt;Node6 -->
<g id="edge5_Node000005_Node000006" class="edge">
<title>Node5&#45;&gt;Node6</title>
<g id="a_edge5_Node000005_Node000006"><a xlink:title=" ">
<path fill="none" stroke="#63b8ff" d="M701.93,-28.95C725.02,-25.91 753.41,-22.18 778.88,-18.84"/>
<polygon fill="#63b8ff" stroke="#63b8ff" points="779.01,-22.35 788.47,-17.58 778.1,-15.41 779.01,-22.35"/>
</a>
</g>
</g>
<!-- Node7&#45;&gt;Node3 -->
<g id="edge11_Node000007_Node000003" class="edge">
<title>Node7&#45;&gt;Node3</title>
<g id="a_edge11_Node000007_Node000003"><a xlink:title=" ">
<path fill="none" stroke="#63b8ff" d="M676.52,-120.2C698.45,-136.79 734.62,-162.41 769,-179 772.23,-180.56 775.59,-182.06 779.01,-183.49"/>
<polygon fill="#63b8ff" stroke="#63b8ff" points="777.41,-186.62 787.99,-187.03 779.97,-180.11 777.41,-186.62"/>
</a>
</g>
</g>
<!-- Node8 -->
<g id="Node000008" class="node">
<title>Node8</title>
<g id="a_Node000008"><a xlink:href="class_g_l_e_s_c_1_1_math_1_1_matrix_algorithms.html#a85f90015980f7ee665903d04b4b797d8" target="_top" xlink:title="Calculates the cofactor of a matrix element.">
<polygon fill="white" stroke="#666666" points="925.25,-70 769,-70 769,-38 925.25,-38 925.25,-70"/>
<text text-anchor="start" x="777" y="-56.5" font-family="Helvetica,sans-Serif" font-size="10.00">GLESC::Math::MatrixAlgorithms</text>
<text text-anchor="middle" x="847.12" y="-44.5" font-family="Helvetica,sans-Serif" font-size="10.00">::cofactor</text>
</a>
</g>
</g>
<!-- Node7&#45;&gt;Node8 -->
<g id="edge7_Node000007_Node000008" class="edge">
<title>Node7&#45;&gt;Node8</title>
<g id="a_edge7_Node000007_Node000008"><a xlink:title=" ">
<path fill="none" stroke="#63b8ff" d="M696.69,-87.62C714.54,-82.11 736.23,-76.05 757.48,-70.56"/>
<polygon fill="#63b8ff" stroke="#63b8ff" points="758.24,-73.98 767.07,-68.12 756.52,-67.19 758.24,-73.98"/>
</a>
</g>
</g>
<!-- Node9 -->
<g id="Node000009" class="node">
<title>Node9</title>
<g id="a_Node000009"><a xlink:href="class_g_l_e_s_c_1_1_math_1_1_matrix_algorithms.html#abd516042cc3d928eefae413db0725670" target="_top" xlink:title="Calculates the determinant of a 2x2 matrix.">
<polygon fill="white" stroke="#666666" points="925.25,-170 769,-170 769,-138 925.25,-138 925.25,-170"/>
<text text-anchor="start" x="777" y="-156.5" font-family="Helvetica,sans-Serif" font-size="10.00">GLESC::Math::MatrixAlgorithms</text>
<text text-anchor="middle" x="847.12" y="-144.5" font-family="Helvetica,sans-Serif" font-size="10.00">::determinant2x2</text>
</a>
</g>
</g>
<!-- Node7&#45;&gt;Node9 -->
<g id="edge9_Node000007_Node000009" class="edge">
<title>Node7&#45;&gt;Node9</title>
<g id="a_edge9_Node000007_Node000009"><a xlink:title=" ">
<path fill="none" stroke="#63b8ff" d="M718.43,-120.44C735.74,-124.99 754.69,-129.97 772.56,-134.67"/>
<polygon fill="#63b8ff" stroke="#63b8ff" points="771.5,-138.01 782.07,-137.16 773.28,-131.24 771.5,-138.01"/>
</a>
</g>
</g>
<!-- Node10 -->
<g id="Node000010" class="node">
<title>Node10</title>
<g id="a_Node000010"><a xlink:href="class_g_l_e_s_c_1_1_math_1_1_matrix_algorithms.html#a2217ee08c38b92c583d3f193b5a0da9b" target="_top" xlink:title="Computes the determinant of a matrix 3x3.">
<polygon fill="white" stroke="#666666" points="925.25,-120 769,-120 769,-88 925.25,-88 925.25,-120"/>
<text text-anchor="start" x="777" y="-106.5" font-family="Helvetica,sans-Serif" font-size="10.00">GLESC::Math::MatrixAlgorithms</text>
<text text-anchor="middle" x="847.12" y="-94.5" font-family="Helvetica,sans-Serif" font-size="10.00">::determinant3x3</text>
</a>
</g>
</g>
<!-- Node7&#45;&gt;Node10 -->
<g id="edge10_Node000007_Node000010" class="edge">
<title>Node7&#45;&gt;Node10</title>
<g id="a_edge10_Node000007_Node000010"><a xlink:title=" ">
<path fill="none" stroke="#63b8ff" d="M733.26,-104C741.16,-104 749.23,-104 757.24,-104"/>
<polygon fill="#63b8ff" stroke="#63b8ff" points="756.99,-107.5 766.99,-104 756.99,-100.5 756.99,-107.5"/>
</a>
</g>
</g>
<!-- Node8&#45;&gt;Node7 -->
<g id="edge8_Node000008_Node000007" class="edge">
<title>Node8&#45;&gt;Node7</title>
<g id="a_edge8_Node000008_Node000007"><a xlink:title=" ">
<path fill="none" stroke="#63b8ff" d="M805.05,-70.46C787.18,-75.96 765.51,-82.02 744.29,-87.5"/>
<polygon fill="#63b8ff" stroke="#63b8ff" points="743.55,-84.07 734.72,-89.93 745.28,-90.86 743.55,-84.07"/>
</a>
</g>
</g>
</g>
</svg>

<g id="navigator" transform="translate(0 0)" fill="#404254">
  <rect fill="#f2f5e9" fill-opacity="0.5" stroke="#606060" stroke-width=".5" x="0" y="0" width="60" height="60"/>
  <use id="zoomplus" xlink:href="#zoomPlus" x="17" y="9" onmousedown="handleZoom(evt,'in')"/>
  <use id="zoomminus" xlink:href="#zoomMin" x="42" y="9" onmousedown="handleZoom(evt,'out')"/>
  <use id="reset" xlink:href="#resetDef" x="30" y="36" onmousedown="handleReset()"/>
   <use id="arrowup" xlink:href="#arrowUp" x="0" y="0" onmousedown="handlePan(0,-1)"/>
  <use id="arrowright" xlink:href="#arrowRight" x="0" y="0" onmousedown="handlePan(1,0)"/>
  <use id="arrowdown" xlink:href="#arrowDown" x="0" y="0" onmousedown="handlePan(0,1)"/>
  <use id="arrowleft" xlink:href="#arrowLeft" x="0" y="0" onmousedown="handlePan(-1,0)"/>
</g>
<svg viewBox="0 0 15 15" width="100%" height="30px" preserveAspectRatio="xMaxYMin meet">
 <g id="arrow_out" transform="scale(0.3 0.3)">
  <a xlink:href="class_g_l_e_s_c_1_1_math_1_1_matrix_algorithms_af1fa0338a019e92e6bc2f76d521b4b6f_cgraph_org.svg" target="_base">
   <rect id="button" ry="5" rx="5" y="6" x="6" height="38" width="38"
        fill="#f2f5e9" fill-opacity="0.5" stroke="#606060" stroke-width="1.0"/>
   <path id="arrow"
     d="M 11.500037,31.436501 C 11.940474,20.09759 22.043105,11.32322 32.158766,21.979434 L 37.068811,17.246167 C 37.068811,17.246167 37.088388,32 37.088388,32 L 22.160133,31.978069 C 22.160133,31.978069 26.997745,27.140456 26.997745,27.140456 C 18.528582,18.264221 13.291696,25.230495 11.500037,31.436501 z"
     style="fill:#404040;"/>
  </a>
 </g>
</svg>

<style type='text/css'>
<![CDATA[
[data-mouse-over-selected='false'] { opacity: 0.7; }
[data-mouse-over-selected='true']  { opacity: 1.0; }
]]>
</style>
<script type="application/ecmascript"><![CDATA[
document.addEventListener('DOMContentLoaded', (event) => {
  highlightEdges();
  highlightAdjacentNodes();
});
]]></script>
</svg>
