<?xml version="1.0" encoding="UTF-8" standalone="no"?>
<!DOCTYPE svg PUBLIC "-//W3C//DTD SVG 1.1//EN"
 "http://www.w3.org/Graphics/SVG/1.1/DTD/svg11.dtd">
<!-- Generated by graphviz version 11.0.0 (20240428.1522)
 -->
<!-- Title: GLESC::WindowManager::createWindow Pages: 1 -->
<svg width="626pt" height="154pt"
 viewBox="0.00 0.00 626.25 154.00" xmlns="http://www.w3.org/2000/svg" xmlns:xlink="http://www.w3.org/1999/xlink">
<g id="graph0" class="graph" transform="scale(1 1) rotate(0) translate(4 150)">
<title>GLESC::WindowManager::createWindow</title>
<!-- Node1 -->
<g id="Node000001" class="node">
<title>Node1</title>
<g id="a_Node000001"><a xlink:title="Initialize the windowManager with its title, setting its flags Checks if there is any error while doi...">
<polygon fill="#999999" stroke="#666666" points="127,-108 0,-108 0,-76 127,-76 127,-108"/>
<text text-anchor="start" x="8" y="-94.5" font-family="Helvetica,sans-Serif" font-size="10.00">GLESC::WindowManager</text>
<text text-anchor="middle" x="63.5" y="-82.5" font-family="Helvetica,sans-Serif" font-size="10.00">::createWindow</text>
</a>
</g>
</g>
<!-- Node2 -->
<g id="Node000002" class="node">
<title>Node2</title>
<g id="a_Node000002"><a xlink:href="class_g_l_e_s_c_1_1_logger.html#a9b12ce53593be134b7d7dea62607d22d" target="_top" xlink:title=" ">
<polygon fill="white" stroke="#666666" points="278.38,-146 174.62,-146 174.62,-126 278.38,-126 278.38,-146"/>
<text text-anchor="middle" x="226.5" y="-132.5" font-family="Helvetica,sans-Serif" font-size="10.00">GLESC::Logger::get</text>
</a>
</g>
</g>
<!-- Node1&#45;&gt;Node2 -->
<g id="edge1_Node000001_Node000002" class="edge">
<title>Node1&#45;&gt;Node2</title>
<g id="a_edge1_Node000001_Node000002"><a xlink:title=" ">
<path fill="none" stroke="#63b8ff" d="M124.45,-108.38C141.59,-113.07 160.07,-118.12 176.47,-122.6"/>
<polygon fill="#63b8ff" stroke="#63b8ff" points="175.43,-125.94 186,-125.2 177.28,-119.19 175.43,-125.94"/>
</a>
</g>
</g>
<!-- Node3 -->
<g id="Node000003" class="node">
<title>Node3</title>
<g id="a_Node000003"><a xlink:href="class_g_l_e_s_c_1_1_window_manager.html#a5fa6909bbbde941a8f87de1cc77a1cd2" target="_top" xlink:title="Initialize SDL_Window flags.">
<polygon fill="white" stroke="#666666" points="290,-108 163,-108 163,-76 290,-76 290,-108"/>
<text text-anchor="start" x="171" y="-94.5" font-family="Helvetica,sans-Serif" font-size="10.00">GLESC::WindowManager</text>
<text text-anchor="middle" x="226.5" y="-82.5" font-family="Helvetica,sans-Serif" font-size="10.00">::getRaisedFlags</text>
</a>
</g>
</g>
<!-- Node1&#45;&gt;Node3 -->
<g id="edge2_Node000001_Node000003" class="edge">
<title>Node1&#45;&gt;Node3</title>
<g id="a_edge2_Node000001_Node000003"><a xlink:title=" ">
<path fill="none" stroke="#63b8ff" d="M127.21,-92C135.13,-92 143.29,-92 151.37,-92"/>
<polygon fill="#63b8ff" stroke="#63b8ff" points="151.18,-95.5 161.18,-92 151.18,-88.5 151.18,-95.5"/>
</a>
</g>
</g>
<!-- Node4 -->
<g id="Node000004" class="node">
<title>Node4</title>
<g id="a_Node000004"><a xlink:href="class_g_l_e_s_c_1_1_logger.html#accab43e8aa76342c5e58ac869f2f32d5" target="_top" xlink:title="Display success information Background – Green Text – White Bold.">
<polygon fill="white" stroke="#666666" points="290,-58 163,-58 163,-38 290,-38 290,-58"/>
<text text-anchor="middle" x="226.5" y="-44.5" font-family="Helvetica,sans-Serif" font-size="10.00">GLESC::Logger::success</text>
</a>
</g>
</g>
<!-- Node1&#45;&gt;Node4 -->
<g id="edge3_Node000001_Node000004" class="edge">
<title>Node1&#45;&gt;Node4</title>
<g id="a_edge3_Node000001_Node000004"><a xlink:title=" ">
<path fill="none" stroke="#63b8ff" d="M124.45,-75.62C141.59,-70.93 160.07,-65.88 176.47,-61.4"/>
<polygon fill="#63b8ff" stroke="#63b8ff" points="177.28,-64.81 186,-58.8 175.43,-58.06 177.28,-64.81"/>
</a>
</g>
</g>
<!-- Node5 -->
<g id="Node000005" class="node">
<title>Node5</title>
<g id="a_Node000005"><a xlink:href="class_g_l_e_s_c_1_1_logger.html#adcc4730c087b2df0b97cccc15557e432" target="_top" xlink:title=" ">
<polygon fill="white" stroke="#666666" points="463.5,-108 326,-108 326,-76 463.5,-76 463.5,-108"/>
<text text-anchor="start" x="334" y="-94.5" font-family="Helvetica,sans-Serif" font-size="10.00">GLESC::Logger::executeOn</text>
<text text-anchor="middle" x="394.75" y="-82.5" font-family="Helvetica,sans-Serif" font-size="10.00">AllInputs</text>
</a>
</g>
</g>
<!-- Node4&#45;&gt;Node5 -->
<g id="edge4_Node000004_Node000005" class="edge">
<title>Node4&#45;&gt;Node5</title>
<g id="a_edge4_Node000004_Node000005"><a xlink:title=" ">
<path fill="none" stroke="#63b8ff" d="M266.9,-58.43C282.96,-62.68 302.06,-67.73 320.5,-72.61"/>
<polygon fill="#63b8ff" stroke="#63b8ff" points="319.54,-75.98 330.1,-75.15 321.33,-69.21 319.54,-75.98"/>
</a>
</g>
</g>
<!-- Node7 -->
<g id="Node000007" class="node">
<title>Node7</title>
<g id="a_Node000007"><a xlink:href="_debug_entity_data_h_u_d_8cpp.html#a9acf295be457442cac6bccc0bf75112c" target="_top" xlink:title=" ">
<polygon fill="white" stroke="#666666" points="575.12,-61 542.62,-61 542.62,-41 575.12,-41 575.12,-61"/>
<text text-anchor="middle" x="558.88" y="-47.5" font-family="Helvetica,sans-Serif" font-size="10.00">text</text>
</a>
</g>
</g>
<!-- Node4&#45;&gt;Node7 -->
<g id="edge8_Node000004_Node000007" class="edge">
<title>Node4&#45;&gt;Node7</title>
<g id="a_edge8_Node000004_Node000007"><a xlink:title=" ">
<path fill="none" stroke="#63b8ff" d="M290.42,-48.57C363.04,-49.23 479.14,-50.29 531.15,-50.76"/>
<polygon fill="#63b8ff" stroke="#63b8ff" points="530.83,-54.25 540.86,-50.85 530.89,-47.25 530.83,-54.25"/>
</a>
</g>
</g>
<!-- Node8 -->
<g id="Node000008" class="node">
<title>Node8</title>
<g id="a_Node000008"><a xlink:href="class_i_logger.html#a08a2761c749b766cb789f0dc8e256f95" target="_top" xlink:title="Display success information Background – Green Text – White Bold.">
<polygon fill="white" stroke="#666666" points="439.88,-20 349.62,-20 349.62,0 439.88,0 439.88,-20"/>
<text text-anchor="middle" x="394.75" y="-6.5" font-family="Helvetica,sans-Serif" font-size="10.00">ILogger::success</text>
</a>
</g>
</g>
<!-- Node4&#45;&gt;Node8 -->
<g id="edge7_Node000004_Node000008" class="edge">
<title>Node4&#45;&gt;Node8</title>
<g id="a_edge7_Node000004_Node000008"><a xlink:title=" ">
<path fill="none" stroke="#63b8ff" d="M273.37,-37.52C293.41,-32.93 317.09,-27.52 338.13,-22.71"/>
<polygon fill="#63b8ff" stroke="#63b8ff" points="338.74,-26.17 347.7,-20.52 337.18,-19.34 338.74,-26.17"/>
</a>
</g>
</g>
<!-- Node6 -->
<g id="Node000006" class="node">
<title>Node6</title>
<g id="a_Node000006"><a xlink:href="class_concurrent_queue.html#a7d61d602747cee9adf97076d2781023c" target="_top" xlink:title=" ">
<polygon fill="white" stroke="#666666" points="618.25,-102 499.5,-102 499.5,-82 618.25,-82 618.25,-102"/>
<text text-anchor="middle" x="558.88" y="-88.5" font-family="Helvetica,sans-Serif" font-size="10.00">ConcurrentQueue::push</text>
</a>
</g>
</g>
<!-- Node5&#45;&gt;Node6 -->
<g id="edge5_Node000005_Node000006" class="edge">
<title>Node5&#45;&gt;Node6</title>
<g id="a_edge5_Node000005_Node000006"><a xlink:title=" ">
<path fill="none" stroke="#63b8ff" d="M463.57,-92C471.59,-92 479.79,-92 487.84,-92"/>
<polygon fill="#63b8ff" stroke="#63b8ff" points="487.57,-95.5 497.57,-92 487.57,-88.5 487.57,-95.5"/>
</a>
</g>
</g>
<!-- Node5&#45;&gt;Node7 -->
<g id="edge6_Node000005_Node000007" class="edge">
<title>Node5&#45;&gt;Node7</title>
<g id="a_edge6_Node000005_Node000007"><a xlink:title=" ">
<path fill="none" stroke="#63b8ff" d="M460.76,-75.56C485.3,-69.35 511.89,-62.63 531.03,-57.79"/>
<polygon fill="#63b8ff" stroke="#63b8ff" points="531.86,-61.19 540.7,-55.34 530.15,-54.4 531.86,-61.19"/>
</a>
</g>
</g>
</g>
</svg>
