<?xml version="1.0" encoding="UTF-8" standalone="no"?>
<!DOCTYPE svg PUBLIC "-//W3C//DTD SVG 1.1//EN"
 "http://www.w3.org/Graphics/SVG/1.1/DTD/svg11.dtd">
<!-- Generated by graphviz version 11.0.0 (20240428.1522)
 -->
<!-- Title: GLESC::TextureLoader::loadTexture Pages: 1 -->
<!--zoomable 230 -->

<svg id="main" version="1.1" xmlns="http://www.w3.org/2000/svg" xmlns:xlink="http://www.w3.org/1999/xlink" xml:space="preserve" onload="init(evt)">
<style type="text/css"><![CDATA[
.node, .edge {opacity: 0.7;}
.node.selected, .edge.selected {opacity: 1;}
.edge:hover path { stroke: red; }
.edge:hover polygon { stroke: red; fill: red; }
]]></style>

<defs>
  <circle id="rim" cx="0" cy="0" r="7"/>
  <circle id="rim2" cx="0" cy="0" r="3.5"/>
  <g id="zoomPlus">
    <use xlink:href="#rim" fill="#404040"><set attributeName="fill" to="#808080" begin="zoomplus.mouseover" end="zoomplus.mouseout"/></use>
    <path d="M-4,0h8M0,-4v8" fill="none" stroke="white" stroke-width="1.5" pointer-events="none"/>
  </g>
  <g id="zoomMin">
    <use xlink:href="#rim" fill="#404040"><set attributeName="fill" to="#808080" begin="zoomminus.mouseover" end="zoomminus.mouseout"/></use>
    <path d="M-4,0h8" fill="none" stroke="white" stroke-width="1.5" pointer-events="none"/>
  </g>
  <g id="arrowUp" transform="translate(30 24)">
    <use xlink:href="#rim"/>
    <path pointer-events="none" fill="none" stroke="white" stroke-width="1.5" d="M0,-3.0v7 M-2.5,-0.5L0,-3.0L2.5,-0.5"/>
  </g>
  <g id="arrowRight" transform="rotate(90) translate(36 -43)">
    <use xlink:href="#rim"/>
    <path pointer-events="none" fill="none" stroke="white" stroke-width="1.5" d="M0,-3.0v7 M-2.5,-0.5L0,-3.0L2.5,-0.5"/>
  </g>
  <g id="arrowDown" transform="rotate(180) translate(-30 -48)">
    <use xlink:href="#rim"/>
    <path pointer-events="none" fill="none" stroke="white" stroke-width="1.5" d="M0,-3.0v7 M-2.5,-0.5L0,-3.0L2.5,-0.5"/>
  </g>
  <g id="arrowLeft" transform="rotate(270) translate(-36 17)">
    <use xlink:href="#rim"/>
    <path pointer-events="none" fill="none" stroke="white" stroke-width="1.5" d="M0,-3.0v7 M-2.5,-0.5L0,-3.0L2.5,-0.5"/>
  </g>
  <g id="resetDef">
    <use xlink:href="#rim2" fill="#404040"><set attributeName="fill" to="#808080" begin="reset.mouseover" end="reset.mouseout"/></use>
  </g>
</defs>
<script type="application/ecmascript">
var viewWidth = 801;
var viewHeight = 230;
var sectionId = 'dynsection-4';
</script>
<script type="application/ecmascript" xlink:href="svg.min.js"/>
<svg id="graph" class="graph">
<g id="viewport">
<title>GLESC::TextureLoader::loadTexture</title>
<!-- Node1 -->
<g id="Node000001" class="node">
<title>Node1</title>
<g id="a_Node000001"><a xlink:title="Loads a texture from the file system.">
<polygon fill="#999999" stroke="#666666" points="116.5,-130 0,-130 0,-98 116.5,-98 116.5,-130"/>
<text text-anchor="start" x="8" y="-116.5" font-family="Helvetica,sans-Serif" font-size="10.00">GLESC::TextureLoader</text>
<text text-anchor="middle" x="58.25" y="-104.5" font-family="Helvetica,sans-Serif" font-size="10.00">::loadTexture</text>
</a>
</g>
</g>
<!-- Node2 -->
<g id="Node000002" class="node">
<title>Node2</title>
<g id="a_Node000002"><a xlink:href="class_g_l_e_s_c_1_1_texture_loader.html#aeaa6885a18099e63a698e0104874aa12" target="_top" xlink:title="Creates a surface from a file, it is called by loadTexture.">
<polygon fill="white" stroke="#666666" points="269,-105 152.5,-105 152.5,-73 269,-73 269,-105"/>
<text text-anchor="start" x="160.5" y="-91.5" font-family="Helvetica,sans-Serif" font-size="10.00">GLESC::TextureLoader</text>
<text text-anchor="middle" x="210.75" y="-79.5" font-family="Helvetica,sans-Serif" font-size="10.00">::createSurface</text>
</a>
</g>
</g>
<!-- Node1&#45;&gt;Node2 -->
<g id="edge1_Node000001_Node000002" class="edge">
<title>Node1&#45;&gt;Node2</title>
<g id="a_edge1_Node000001_Node000002"><a xlink:title=" ">
<path fill="none" stroke="#63b8ff" d="M116.58,-104.48C124.48,-103.16 132.67,-101.8 140.75,-100.46"/>
<polygon fill="#63b8ff" stroke="#63b8ff" points="141.3,-103.92 150.59,-98.83 140.15,-97.01 141.3,-103.92"/>
</a>
</g>
</g>
<!-- Node13 -->
<g id="Node000013" class="node">
<title>Node13</title>
<g id="a_Node000013"><a xlink:href="class_g_l_e_s_c_1_1_texture_loader.html#ac979d955b5fe7728c23e6bf142dd127c" target="_top" xlink:title="Flips a surface.">
<polygon fill="white" stroke="#666666" points="269,-155 152.5,-155 152.5,-123 269,-123 269,-155"/>
<text text-anchor="start" x="160.5" y="-141.5" font-family="Helvetica,sans-Serif" font-size="10.00">GLESC::TextureLoader</text>
<text text-anchor="middle" x="210.75" y="-129.5" font-family="Helvetica,sans-Serif" font-size="10.00">::flipSurface</text>
</a>
</g>
</g>
<!-- Node1&#45;&gt;Node13 -->
<g id="edge15_Node000001_Node000013" class="edge">
<title>Node1&#45;&gt;Node13</title>
<g id="a_edge15_Node000001_Node000013"><a xlink:title=" ">
<path fill="none" stroke="#63b8ff" d="M116.58,-123.52C124.48,-124.84 132.67,-126.2 140.75,-127.54"/>
<polygon fill="#63b8ff" stroke="#63b8ff" points="140.15,-130.99 150.59,-129.17 141.3,-124.08 140.15,-130.99"/>
</a>
</g>
</g>
<!-- Node3 -->
<g id="Node000003" class="node">
<title>Node3</title>
<g id="a_Node000003"><a xlink:href="class_g_l_e_s_c_1_1_logger.html#a9b12ce53593be134b7d7dea62607d22d" target="_top" xlink:title=" ">
<polygon fill="white" stroke="#666666" points="435.75,-178 332,-178 332,-158 435.75,-158 435.75,-178"/>
<text text-anchor="middle" x="383.88" y="-164.5" font-family="Helvetica,sans-Serif" font-size="10.00">GLESC::Logger::get</text>
</a>
</g>
</g>
<!-- Node2&#45;&gt;Node3 -->
<g id="edge2_Node000002_Node000003" class="edge">
<title>Node2&#45;&gt;Node3</title>
<g id="a_edge2_Node000002_Node000003"><a xlink:title=" ">
<path fill="none" stroke="#63b8ff" d="M254.26,-105.49C259.37,-108.07 264.41,-110.92 269,-114 287.52,-126.44 285.47,-138.2 305,-149 309.97,-151.75 315.34,-154.11 320.85,-156.13"/>
<polygon fill="#63b8ff" stroke="#63b8ff" points="319.52,-159.37 330.11,-159.14 321.68,-152.72 319.52,-159.37"/>
</a>
</g>
</g>
<!-- Node4 -->
<g id="Node000004" class="node">
<title>Node4</title>
<g id="a_Node000004"><a xlink:href="class_bin_path.html#a518dec5500f3666c8ecc54023e0c229d" target="_top" xlink:title=" ">
<polygon fill="white" stroke="#666666" points="462.75,-42 305,-42 305,-22 462.75,-22 462.75,-42"/>
<text text-anchor="middle" x="383.88" y="-28.5" font-family="Helvetica,sans-Serif" font-size="10.00">BinPath::getExecutableDirectory</text>
</a>
</g>
</g>
<!-- Node2&#45;&gt;Node4 -->
<g id="edge3_Node000002_Node000004" class="edge">
<title>Node2&#45;&gt;Node4</title>
<g id="a_edge3_Node000002_Node000004"><a xlink:title=" ">
<path fill="none" stroke="#63b8ff" d="M261.25,-72.51C286.38,-64.14 316.61,-54.07 340.64,-46.07"/>
<polygon fill="#63b8ff" stroke="#63b8ff" points="341.73,-49.4 350.11,-42.91 339.51,-42.75 341.73,-49.4"/>
</a>
</g>
</g>
<!-- Node6 -->
<g id="Node000006" class="node">
<title>Node6</title>
<g id="a_Node000006"><a xlink:href="class_g_l_e_s_c_1_1_logger.html#a5fa42012f212a31fe7eb06c5ba93caba" target="_top" xlink:title="Display basic information Background – Black Text – White.">
<polygon fill="white" stroke="#666666" points="436.5,-99 331.25,-99 331.25,-79 436.5,-79 436.5,-99"/>
<text text-anchor="middle" x="383.88" y="-85.5" font-family="Helvetica,sans-Serif" font-size="10.00">GLESC::Logger::info</text>
</a>
</g>
</g>
<!-- Node2&#45;&gt;Node6 -->
<g id="edge5_Node000002_Node000006" class="edge">
<title>Node2&#45;&gt;Node6</title>
<g id="a_edge5_Node000002_Node000006"><a xlink:title=" ">
<path fill="none" stroke="#63b8ff" d="M269.21,-89C285.38,-89 303.06,-89 319.56,-89"/>
<polygon fill="#63b8ff" stroke="#63b8ff" points="319.24,-92.5 329.24,-89 319.24,-85.5 319.24,-92.5"/>
</a>
</g>
</g>
<!-- Node11 -->
<g id="Node000011" class="node">
<title>Node11</title>
<g id="a_Node000011"><a xlink:href="class_g_l_e_s_c_1_1_logger.html#accab43e8aa76342c5e58ac869f2f32d5" target="_top" xlink:title="Display success information Background – Green Text – White Bold.">
<polygon fill="white" stroke="#666666" points="447.38,-140 320.38,-140 320.38,-120 447.38,-120 447.38,-140"/>
<text text-anchor="middle" x="383.88" y="-126.5" font-family="Helvetica,sans-Serif" font-size="10.00">GLESC::Logger::success</text>
</a>
</g>
</g>
<!-- Node2&#45;&gt;Node11 -->
<g id="edge11_Node000002_Node000011" class="edge">
<title>Node2&#45;&gt;Node11</title>
<g id="a_edge11_Node000002_Node000011"><a xlink:title=" ">
<path fill="none" stroke="#63b8ff" d="M269.21,-102.77C288.19,-107.32 309.26,-112.36 328.04,-116.86"/>
<polygon fill="#63b8ff" stroke="#63b8ff" points="327.09,-120.23 337.63,-119.16 328.72,-113.43 327.09,-120.23"/>
</a>
</g>
</g>
<!-- Node5 -->
<g id="Node000005" class="node">
<title>Node5</title>
<g id="a_Node000005"><a xlink:href="class_bin_path.html#afc63e7a8201f134535b3531659dd97a3" target="_top" xlink:title=" ">
<polygon fill="white" stroke="#666666" points="637.75,-20 498.75,-20 498.75,0 637.75,0 637.75,-20"/>
<text text-anchor="middle" x="568.25" y="-6.5" font-family="Helvetica,sans-Serif" font-size="10.00">BinPath::getExecutablePath</text>
</a>
</g>
</g>
<!-- Node4&#45;&gt;Node5 -->
<g id="edge4_Node000004_Node000005" class="edge">
<title>Node4&#45;&gt;Node5</title>
<g id="a_edge4_Node000004_Node000005"><a xlink:title=" ">
<path fill="none" stroke="#63b8ff" d="M463.01,-22.57C471.03,-21.61 479.18,-20.62 487.22,-19.65"/>
<polygon fill="#63b8ff" stroke="#63b8ff" points="487.47,-23.15 496.97,-18.48 486.63,-16.2 487.47,-23.15"/>
</a>
</g>
</g>
<!-- Node7 -->
<g id="Node000007" class="node">
<title>Node7</title>
<g id="a_Node000007"><a xlink:href="class_g_l_e_s_c_1_1_logger.html#adcc4730c087b2df0b97cccc15557e432" target="_top" xlink:title=" ">
<polygon fill="white" stroke="#666666" points="637,-146 499.5,-146 499.5,-114 637,-114 637,-146"/>
<text text-anchor="start" x="507.5" y="-132.5" font-family="Helvetica,sans-Serif" font-size="10.00">GLESC::Logger::executeOn</text>
<text text-anchor="middle" x="568.25" y="-120.5" font-family="Helvetica,sans-Serif" font-size="10.00">AllInputs</text>
</a>
</g>
</g>
<!-- Node6&#45;&gt;Node7 -->
<g id="edge6_Node000006_Node000007" class="edge">
<title>Node6&#45;&gt;Node7</title>
<g id="a_edge6_Node000006_Node000007"><a xlink:title=" ">
<path fill="none" stroke="#63b8ff" d="M431.37,-99.45C448.65,-103.34 468.78,-107.86 488.17,-112.22"/>
<polygon fill="#63b8ff" stroke="#63b8ff" points="487.15,-115.58 497.67,-114.36 488.69,-108.75 487.15,-115.58"/>
</a>
</g>
</g>
<!-- Node9 -->
<g id="Node000009" class="node">
<title>Node9</title>
<g id="a_Node000009"><a xlink:href="_debug_entity_data_h_u_d_8cpp.html#a9acf295be457442cac6bccc0bf75112c" target="_top" xlink:title=" ">
<polygon fill="white" stroke="#666666" points="749.38,-159 716.88,-159 716.88,-139 749.38,-139 749.38,-159"/>
<text text-anchor="middle" x="733.12" y="-145.5" font-family="Helvetica,sans-Serif" font-size="10.00">text</text>
</a>
</g>
</g>
<!-- Node6&#45;&gt;Node9 -->
<g id="edge10_Node000006_Node000009" class="edge">
<title>Node6&#45;&gt;Node9</title>
<g id="a_edge10_Node000006_Node000009"><a xlink:title=" ">
<path fill="none" stroke="#63b8ff" d="M436.84,-84.3C489.12,-81.39 571.28,-81.85 637.75,-105 656.15,-111.41 656.3,-121.34 673.75,-130 683.88,-135.03 695.63,-139.15 705.93,-142.26"/>
<polygon fill="#63b8ff" stroke="#63b8ff" points="704.74,-145.56 715.32,-144.91 706.65,-138.82 704.74,-145.56"/>
</a>
</g>
</g>
<!-- Node10 -->
<g id="Node000010" class="node">
<title>Node10</title>
<g id="a_Node000010"><a xlink:href="class_i_logger.html#af378b37a56de2bad5c4ce2d0f7572f9c" target="_top" xlink:title="Display basic information Background – Black Text – White.">
<polygon fill="white" stroke="#666666" points="602.5,-58 534,-58 534,-38 602.5,-38 602.5,-58"/>
<text text-anchor="middle" x="568.25" y="-44.5" font-family="Helvetica,sans-Serif" font-size="10.00">ILogger::info</text>
</a>
</g>
</g>
<!-- Node6&#45;&gt;Node10 -->
<g id="edge9_Node000006_Node000010" class="edge">
<title>Node6&#45;&gt;Node10</title>
<g id="a_edge9_Node000006_Node000010"><a xlink:title=" ">
<path fill="none" stroke="#63b8ff" d="M431.37,-78.55C459.38,-72.25 494.87,-64.27 522.55,-58.05"/>
<polygon fill="#63b8ff" stroke="#63b8ff" points="523.04,-61.53 532.03,-55.92 521.51,-54.7 523.04,-61.53"/>
</a>
</g>
</g>
<!-- Node8 -->
<g id="Node000008" class="node">
<title>Node8</title>
<g id="a_Node000008"><a xlink:href="class_concurrent_queue.html#a7d61d602747cee9adf97076d2781023c" target="_top" xlink:title=" ">
<polygon fill="white" stroke="#666666" points="792.5,-121 673.75,-121 673.75,-101 792.5,-101 792.5,-121"/>
<text text-anchor="middle" x="733.12" y="-107.5" font-family="Helvetica,sans-Serif" font-size="10.00">ConcurrentQueue::push</text>
</a>
</g>
</g>
<!-- Node7&#45;&gt;Node8 -->
<g id="edge7_Node000007_Node000008" class="edge">
<title>Node7&#45;&gt;Node8</title>
<g id="a_edge7_Node000007_Node000008"><a xlink:title=" ">
<path fill="none" stroke="#63b8ff" d="M637.38,-122.05C645.5,-121.11 653.8,-120.14 661.94,-119.19"/>
<polygon fill="#63b8ff" stroke="#63b8ff" points="662.29,-122.67 671.82,-118.04 661.48,-115.72 662.29,-122.67"/>
</a>
</g>
</g>
<!-- Node7&#45;&gt;Node9 -->
<g id="edge8_Node000007_Node000009" class="edge">
<title>Node7&#45;&gt;Node9</title>
<g id="a_edge8_Node000007_Node000009"><a xlink:title=" ">
<path fill="none" stroke="#63b8ff" d="M637.38,-137.95C661.29,-140.74 686.78,-143.71 705.29,-145.87"/>
<polygon fill="#63b8ff" stroke="#63b8ff" points="704.78,-149.33 715.12,-147.02 705.59,-142.38 704.78,-149.33"/>
</a>
</g>
</g>
<!-- Node11&#45;&gt;Node7 -->
<g id="edge12_Node000011_Node000007" class="edge">
<title>Node11&#45;&gt;Node7</title>
<g id="a_edge12_Node000011_Node000007"><a xlink:title=" ">
<path fill="none" stroke="#63b8ff" d="M447.64,-130C460.6,-130 474.41,-130 487.87,-130"/>
<polygon fill="#63b8ff" stroke="#63b8ff" points="487.56,-133.5 497.56,-130 487.56,-126.5 487.56,-133.5"/>
</a>
</g>
</g>
<!-- Node11&#45;&gt;Node9 -->
<g id="edge14_Node000011_Node000009" class="edge">
<title>Node11&#45;&gt;Node9</title>
<g id="a_edge14_Node000011_Node000009"><a xlink:title=" ">
<path fill="none" stroke="#63b8ff" d="M428.04,-140.49C454.24,-146.65 485.17,-153.53 498.75,-155 560.17,-161.66 576,-156.96 637.75,-155 660.5,-154.28 686.29,-152.58 705.15,-151.17"/>
<polygon fill="#63b8ff" stroke="#63b8ff" points="705.23,-154.68 714.93,-150.42 704.69,-147.7 705.23,-154.68"/>
</a>
</g>
</g>
<!-- Node12 -->
<g id="Node000012" class="node">
<title>Node12</title>
<g id="a_Node000012"><a xlink:href="class_i_logger.html#a08a2761c749b766cb789f0dc8e256f95" target="_top" xlink:title="Display success information Background – Green Text – White Bold.">
<polygon fill="white" stroke="#666666" points="613.38,-222 523.12,-222 523.12,-202 613.38,-202 613.38,-222"/>
<text text-anchor="middle" x="568.25" y="-208.5" font-family="Helvetica,sans-Serif" font-size="10.00">ILogger::success</text>
</a>
</g>
</g>
<!-- Node11&#45;&gt;Node12 -->
<g id="edge13_Node000011_Node000012" class="edge">
<title>Node11&#45;&gt;Node12</title>
<g id="a_edge13_Node000011_Node000012"><a xlink:title=" ">
<path fill="none" stroke="#63b8ff" d="M443.76,-140.39C450.4,-142.71 456.87,-145.54 462.75,-149 483.07,-160.97 479.03,-175.05 498.75,-188 504.22,-191.59 510.28,-194.71 516.47,-197.4"/>
<polygon fill="#63b8ff" stroke="#63b8ff" points="514.95,-200.57 525.54,-200.99 517.52,-194.06 514.95,-200.57"/>
</a>
</g>
</g>
<!-- Node13&#45;&gt;Node3 -->
<g id="edge16_Node000013_Node000003" class="edge">
<title>Node13&#45;&gt;Node3</title>
<g id="a_edge16_Node000013_Node000003"><a xlink:title=" ">
<path fill="none" stroke="#63b8ff" d="M269.21,-148.74C285.62,-151.52 303.58,-154.56 320.28,-157.39"/>
<polygon fill="#63b8ff" stroke="#63b8ff" points="319.67,-160.84 330.11,-159.06 320.84,-153.94 319.67,-160.84"/>
</a>
</g>
</g>
<!-- Node13&#45;&gt;Node6 -->
<g id="edge17_Node000013_Node000006" class="edge">
<title>Node13&#45;&gt;Node6</title>
<g id="a_edge17_Node000013_Node000006"><a xlink:title=" ">
<path fill="none" stroke="#63b8ff" d="M265.95,-122.56C278.74,-118.73 292.34,-114.69 305,-111 314.6,-108.2 324.89,-105.26 334.74,-102.47"/>
<polygon fill="#63b8ff" stroke="#63b8ff" points="335.48,-105.89 344.15,-99.81 333.57,-99.16 335.48,-105.89"/>
</a>
</g>
</g>
<!-- Node13&#45;&gt;Node11 -->
<g id="edge18_Node000013_Node000011" class="edge">
<title>Node13&#45;&gt;Node11</title>
<g id="a_edge18_Node000013_Node000011"><a xlink:title=" ">
<path fill="none" stroke="#63b8ff" d="M269.21,-135.98C281.82,-135.31 295.36,-134.6 308.53,-133.91"/>
<polygon fill="#63b8ff" stroke="#63b8ff" points="308.67,-137.41 318.47,-133.39 308.3,-130.42 308.67,-137.41"/>
</a>
</g>
</g>
</g>
</svg>

<g id="navigator" transform="translate(0 0)" fill="#404254">
  <rect fill="#f2f5e9" fill-opacity="0.5" stroke="#606060" stroke-width=".5" x="0" y="0" width="60" height="60"/>
  <use id="zoomplus" xlink:href="#zoomPlus" x="17" y="9" onmousedown="handleZoom(evt,'in')"/>
  <use id="zoomminus" xlink:href="#zoomMin" x="42" y="9" onmousedown="handleZoom(evt,'out')"/>
  <use id="reset" xlink:href="#resetDef" x="30" y="36" onmousedown="handleReset()"/>
   <use id="arrowup" xlink:href="#arrowUp" x="0" y="0" onmousedown="handlePan(0,-1)"/>
  <use id="arrowright" xlink:href="#arrowRight" x="0" y="0" onmousedown="handlePan(1,0)"/>
  <use id="arrowdown" xlink:href="#arrowDown" x="0" y="0" onmousedown="handlePan(0,1)"/>
  <use id="arrowleft" xlink:href="#arrowLeft" x="0" y="0" onmousedown="handlePan(-1,0)"/>
</g>
<svg viewBox="0 0 15 15" width="100%" height="30px" preserveAspectRatio="xMaxYMin meet">
 <g id="arrow_out" transform="scale(0.3 0.3)">
  <a xlink:href="class_g_l_e_s_c_1_1_texture_loader_aac677f140b0677673fe359a58bb962ac_cgraph_org.svg" target="_base">
   <rect id="button" ry="5" rx="5" y="6" x="6" height="38" width="38"
        fill="#f2f5e9" fill-opacity="0.5" stroke="#606060" stroke-width="1.0"/>
   <path id="arrow"
     d="M 11.500037,31.436501 C 11.940474,20.09759 22.043105,11.32322 32.158766,21.979434 L 37.068811,17.246167 C 37.068811,17.246167 37.088388,32 37.088388,32 L 22.160133,31.978069 C 22.160133,31.978069 26.997745,27.140456 26.997745,27.140456 C 18.528582,18.264221 13.291696,25.230495 11.500037,31.436501 z"
     style="fill:#404040;"/>
  </a>
 </g>
</svg>

<style type='text/css'>
<![CDATA[
[data-mouse-over-selected='false'] { opacity: 0.7; }
[data-mouse-over-selected='true']  { opacity: 1.0; }
]]>
</style>
<script type="application/ecmascript"><![CDATA[
document.addEventListener('DOMContentLoaded', (event) => {
  highlightEdges();
  highlightAdjacentNodes();
});
]]></script>
</svg>
