<?xml version="1.0" encoding="UTF-8" standalone="no"?>
<!DOCTYPE svg PUBLIC "-//W3C//DTD SVG 1.1//EN"
 "http://www.w3.org/Graphics/SVG/1.1/DTD/svg11.dtd">
<!-- Generated by graphviz version 11.0.0 (20240428.1522)
 -->
<!-- Title: GLESC::ECS::Entity::removeComponent Pages: 1 -->
<svg width="867pt" height="254pt"
 viewBox="0.00 0.00 866.50 254.00" xmlns="http://www.w3.org/2000/svg" xmlns:xlink="http://www.w3.org/1999/xlink">
<g id="graph0" class="graph" transform="scale(1 1) rotate(0) translate(4 250)">
<title>GLESC::ECS::Entity::removeComponent</title>
<!-- Node1 -->
<g id="Node000001" class="node">
<title>Node1</title>
<g id="a_Node000001"><a xlink:title="Removes a component from the entity The entity signature is updated to reflect the removed component.">
<polygon fill="#999999" stroke="#666666" points="106.75,-152 0,-152 0,-120 106.75,-120 106.75,-152"/>
<text text-anchor="start" x="8" y="-138.5" font-family="Helvetica,sans-Serif" font-size="10.00">GLESC::ECS::Entity</text>
<text text-anchor="middle" x="53.38" y="-126.5" font-family="Helvetica,sans-Serif" font-size="10.00">::removeComponent</text>
</a>
</g>
</g>
<!-- Node2 -->
<g id="Node000002" class="node">
<title>Node2</title>
<g id="a_Node000002"><a xlink:href="class_g_l_e_s_c_1_1_e_c_s_1_1_e_c_s_coordinator.html#af2a3fb9a4f78b71f602de7f29bd7446f" target="_top" xlink:title="Remove a component from an entity.">
<polygon fill="white" stroke="#666666" points="293.75,-152 142.75,-152 142.75,-120 293.75,-120 293.75,-152"/>
<text text-anchor="start" x="150.75" y="-138.5" font-family="Helvetica,sans-Serif" font-size="10.00">GLESC::ECS::ECSCoordinator</text>
<text text-anchor="middle" x="218.25" y="-126.5" font-family="Helvetica,sans-Serif" font-size="10.00">::removeComponent</text>
</a>
</g>
</g>
<!-- Node1&#45;&gt;Node2 -->
<g id="edge1_Node000001_Node000002" class="edge">
<title>Node1&#45;&gt;Node2</title>
<g id="a_edge1_Node000001_Node000002"><a xlink:title=" ">
<path fill="none" stroke="#63b8ff" d="M106.81,-136C114.61,-136 122.81,-136 131.09,-136"/>
<polygon fill="#63b8ff" stroke="#63b8ff" points="130.86,-139.5 140.86,-136 130.86,-132.5 130.86,-139.5"/>
</a>
</g>
</g>
<!-- Node3 -->
<g id="Node000003" class="node">
<title>Node3</title>
<g id="a_Node000003"><a xlink:href="class_g_l_e_s_c_1_1_e_c_s_1_1_system_manager.html#a69e2b35d930bdb4505587279d31b9400" target="_top" xlink:title="Adds the entity to the systems it is associated with and removes it from the systems it is no longer ...">
<polygon fill="white" stroke="#666666" points="490.12,-246 337.62,-246 337.62,-214 490.12,-214 490.12,-246"/>
<text text-anchor="start" x="345.62" y="-232.5" font-family="Helvetica,sans-Serif" font-size="10.00">GLESC::ECS::SystemManager</text>
<text text-anchor="middle" x="413.88" y="-220.5" font-family="Helvetica,sans-Serif" font-size="10.00">::entitySignatureChanged</text>
</a>
</g>
</g>
<!-- Node2&#45;&gt;Node3 -->
<g id="edge2_Node000002_Node000003" class="edge">
<title>Node2&#45;&gt;Node3</title>
<g id="a_edge2_Node000002_Node000003"><a xlink:title=" ">
<path fill="none" stroke="#63b8ff" d="M241.53,-152.4C263.17,-167.72 297.4,-190.35 329.75,-205 333.29,-206.6 336.96,-208.14 340.7,-209.6"/>
<polygon fill="#63b8ff" stroke="#63b8ff" points="339.34,-212.83 349.94,-213 341.76,-206.26 339.34,-212.83"/>
</a>
</g>
</g>
<!-- Node4 -->
<g id="Node000004" class="node">
<title>Node4</title>
<g id="a_Node000004"><a xlink:href="class_g_l_e_s_c_1_1_e_c_s_1_1_component_manager.html#aa81ef6c48acdf07190ada035bfa9bd59" target="_top" xlink:title="Get the ID of a component by its type.">
<polygon fill="white" stroke="#666666" points="498,-196 329.75,-196 329.75,-164 498,-164 498,-196"/>
<text text-anchor="start" x="337.75" y="-182.5" font-family="Helvetica,sans-Serif" font-size="10.00">GLESC::ECS::ComponentManager</text>
<text text-anchor="middle" x="413.88" y="-170.5" font-family="Helvetica,sans-Serif" font-size="10.00">::getComponentID</text>
</a>
</g>
</g>
<!-- Node2&#45;&gt;Node4 -->
<g id="edge3_Node000002_Node000004" class="edge">
<title>Node2&#45;&gt;Node4</title>
<g id="a_edge3_Node000002_Node000004"><a xlink:title=" ">
<path fill="none" stroke="#63b8ff" d="M291.62,-152.45C303.92,-155.24 316.78,-158.16 329.33,-161.02"/>
<polygon fill="#63b8ff" stroke="#63b8ff" points="328.26,-164.36 338.79,-163.16 329.81,-157.54 328.26,-164.36"/>
</a>
</g>
</g>
<!-- Node5 -->
<g id="Node000005" class="node">
<title>Node5</title>
<g id="a_Node000005"><a xlink:href="class_g_l_e_s_c_1_1_e_c_s_1_1_entity_manager.html#afed1028adc518bc27c8cc190832f2bf9" target="_top" xlink:title="Get the signature of the entity. The entity must exist.">
<polygon fill="white" stroke="#666666" points="678.25,-154 534,-154 534,-122 678.25,-122 678.25,-154"/>
<text text-anchor="start" x="542" y="-140.5" font-family="Helvetica,sans-Serif" font-size="10.00">GLESC::ECS::EntityManager</text>
<text text-anchor="middle" x="606.12" y="-128.5" font-family="Helvetica,sans-Serif" font-size="10.00">::getSignature</text>
</a>
</g>
</g>
<!-- Node2&#45;&gt;Node5 -->
<g id="edge4_Node000002_Node000005" class="edge">
<title>Node2&#45;&gt;Node5</title>
<g id="a_edge4_Node000002_Node000005"><a xlink:title=" ">
<path fill="none" stroke="#63b8ff" d="M294.11,-136.39C359.58,-136.73 454.52,-137.22 522.26,-137.57"/>
<polygon fill="#63b8ff" stroke="#63b8ff" points="522.2,-141.07 532.22,-137.62 522.24,-134.07 522.2,-141.07"/>
</a>
</g>
</g>
<!-- Node7 -->
<g id="Node000007" class="node">
<title>Node7</title>
<g id="a_Node000007"><a xlink:href="class_g_l_e_s_c_1_1_e_c_s_1_1_component_manager.html#a312d4ae6954e391d77e79fd4a2180c8f" target="_top" xlink:title="Remove a component from an entity.">
<polygon fill="white" stroke="#666666" points="498,-108 329.75,-108 329.75,-76 498,-76 498,-108"/>
<text text-anchor="start" x="337.75" y="-94.5" font-family="Helvetica,sans-Serif" font-size="10.00">GLESC::ECS::ComponentManager</text>
<text text-anchor="middle" x="413.88" y="-82.5" font-family="Helvetica,sans-Serif" font-size="10.00">::removeComponent</text>
</a>
</g>
</g>
<!-- Node2&#45;&gt;Node7 -->
<g id="edge6_Node000002_Node000007" class="edge">
<title>Node2&#45;&gt;Node7</title>
<g id="a_edge6_Node000002_Node000007"><a xlink:title=" ">
<path fill="none" stroke="#63b8ff" d="M291.62,-119.55C303.92,-116.76 316.78,-113.84 329.33,-110.98"/>
<polygon fill="#63b8ff" stroke="#63b8ff" points="329.81,-114.46 338.79,-108.84 328.26,-107.64 329.81,-114.46"/>
</a>
</g>
</g>
<!-- Node8 -->
<g id="Node000008" class="node">
<title>Node8</title>
<g id="a_Node000008"><a xlink:href="class_g_l_e_s_c_1_1_e_c_s_1_1_entity_manager.html#aa12eb5a78f90d23488324ee51e7dbd6c" target="_top" xlink:title="Remove a component from the entity. The entity must exist.">
<polygon fill="white" stroke="#666666" points="489,-57 338.75,-57 338.75,-25 489,-25 489,-57"/>
<text text-anchor="start" x="346.75" y="-43.5" font-family="Helvetica,sans-Serif" font-size="10.00">GLESC::ECS::EntityManager</text>
<text text-anchor="middle" x="413.88" y="-31.5" font-family="Helvetica,sans-Serif" font-size="10.00">::removeComponentFromEntity</text>
</a>
</g>
</g>
<!-- Node2&#45;&gt;Node8 -->
<g id="edge7_Node000002_Node000008" class="edge">
<title>Node2&#45;&gt;Node8</title>
<g id="a_edge7_Node000002_Node000008"><a xlink:title=" ">
<path fill="none" stroke="#63b8ff" d="M241.57,-119.67C263.23,-104.42 297.48,-81.82 329.75,-67 334,-65.05 338.44,-63.19 342.96,-61.42"/>
<polygon fill="#63b8ff" stroke="#63b8ff" points="344,-64.77 352.17,-58.02 341.58,-58.2 344,-64.77"/>
</a>
</g>
</g>
<!-- Node6 -->
<g id="Node000006" class="node">
<title>Node6</title>
<g id="a_Node000006"><a xlink:href="class_g_l_e_s_c_1_1_e_c_s_1_1_entity_manager.html#a5145504091eb26170aa219acb60aca71" target="_top" xlink:title="Check if the entity with the given name exists.">
<polygon fill="white" stroke="#666666" points="858.5,-104 714.25,-104 714.25,-72 858.5,-72 858.5,-104"/>
<text text-anchor="start" x="722.25" y="-90.5" font-family="Helvetica,sans-Serif" font-size="10.00">GLESC::ECS::EntityManager</text>
<text text-anchor="middle" x="786.38" y="-78.5" font-family="Helvetica,sans-Serif" font-size="10.00">::doesEntityExist</text>
</a>
</g>
</g>
<!-- Node5&#45;&gt;Node6 -->
<g id="edge5_Node000005_Node000006" class="edge">
<title>Node5&#45;&gt;Node6</title>
<g id="a_edge5_Node000005_Node000006"><a xlink:title=" ">
<path fill="none" stroke="#63b8ff" d="M665.49,-121.63C681.57,-117.12 699.16,-112.18 715.8,-107.52"/>
<polygon fill="#63b8ff" stroke="#63b8ff" points="716.43,-110.97 725.12,-104.9 714.54,-104.23 716.43,-110.97"/>
</a>
</g>
</g>
<!-- Node9 -->
<g id="Node000009" class="node">
<title>Node9</title>
<g id="a_Node000009"><a xlink:href="class_g_l_e_s_c_1_1_e_c_s_1_1_entity_manager.html#aab28983bdd04e1acf2dd7d94dbe4639d" target="_top" xlink:title="Check if the entity has the given component. The entity must exist and the component must be in the r...">
<polygon fill="white" stroke="#666666" points="678.25,-54 534,-54 534,-22 678.25,-22 678.25,-54"/>
<text text-anchor="start" x="542" y="-40.5" font-family="Helvetica,sans-Serif" font-size="10.00">GLESC::ECS::EntityManager</text>
<text text-anchor="middle" x="606.12" y="-28.5" font-family="Helvetica,sans-Serif" font-size="10.00">::doesEntityHaveComponent</text>
</a>
</g>
</g>
<!-- Node8&#45;&gt;Node9 -->
<g id="edge8_Node000008_Node000009" class="edge">
<title>Node8&#45;&gt;Node9</title>
<g id="a_edge8_Node000008_Node000009"><a xlink:title=" ">
<path fill="none" stroke="#63b8ff" d="M489.25,-39.83C500.08,-39.66 511.28,-39.48 522.27,-39.31"/>
<polygon fill="#63b8ff" stroke="#63b8ff" points="522.15,-42.81 532.09,-39.15 522.04,-35.81 522.15,-42.81"/>
</a>
</g>
</g>
<!-- Node10 -->
<g id="Node000010" class="node">
<title>Node10</title>
<g id="a_Node000010"><a xlink:href="class_g_l_e_s_c_1_1_e_c_s_1_1_entity_manager.html#a54e81951030afee74dd6ea3c4e2b74e5" target="_top" xlink:title="Check if the component ID is in the range of the signature.">
<polygon fill="white" stroke="#666666" points="858.5,-32 714.25,-32 714.25,0 858.5,0 858.5,-32"/>
<text text-anchor="start" x="722.25" y="-18.5" font-family="Helvetica,sans-Serif" font-size="10.00">GLESC::ECS::EntityManager</text>
<text text-anchor="middle" x="786.38" y="-6.5" font-family="Helvetica,sans-Serif" font-size="10.00">::isComponentInRange</text>
</a>
</g>
</g>
<!-- Node8&#45;&gt;Node10 -->
<g id="edge11_Node000008_Node000010" class="edge">
<title>Node8&#45;&gt;Node10</title>
<g id="a_edge11_Node000008_Node000010"><a xlink:title=" ">
<path fill="none" stroke="#63b8ff" d="M472.87,-24.54C492.15,-19.83 513.85,-15.34 534,-13 597.68,-5.62 614.15,-12.1 678.25,-13 686.18,-13.11 694.44,-13.27 702.7,-13.45"/>
<polygon fill="#63b8ff" stroke="#63b8ff" points="702.33,-16.95 712.42,-13.68 702.5,-9.95 702.33,-16.95"/>
</a>
</g>
</g>
<!-- Node11 -->
<g id="Node000011" class="node">
<title>Node11</title>
<g id="a_Node000011"><a xlink:href="class_g_l_e_s_c_1_1_e_c_s_1_1_entity_manager.html#af174dceb6b3d4ec490f5812ba128dd51" target="_top" xlink:title="Check if the entity with the given ID is alive.">
<polygon fill="white" stroke="#666666" points="678.25,-104 534,-104 534,-72 678.25,-72 678.25,-104"/>
<text text-anchor="start" x="542" y="-90.5" font-family="Helvetica,sans-Serif" font-size="10.00">GLESC::ECS::EntityManager</text>
<text text-anchor="middle" x="606.12" y="-78.5" font-family="Helvetica,sans-Serif" font-size="10.00">::isEntityAlive</text>
</a>
</g>
</g>
<!-- Node8&#45;&gt;Node11 -->
<g id="edge12_Node000008_Node000011" class="edge">
<title>Node8&#45;&gt;Node11</title>
<g id="a_edge12_Node000008_Node000011"><a xlink:title=" ">
<path fill="none" stroke="#63b8ff" d="M481.42,-57.44C496.33,-61.12 512.28,-65.06 527.6,-68.85"/>
<polygon fill="#63b8ff" stroke="#63b8ff" points="526.61,-72.21 537.15,-71.21 528.28,-65.41 526.61,-72.21"/>
</a>
</g>
</g>
<!-- Node9&#45;&gt;Node6 -->
<g id="edge9_Node000009_Node000006" class="edge">
<title>Node9&#45;&gt;Node6</title>
<g id="a_edge9_Node000009_Node000006"><a xlink:title=" ">
<path fill="none" stroke="#63b8ff" d="M665.49,-54.37C681.57,-58.88 699.16,-63.82 715.8,-68.48"/>
<polygon fill="#63b8ff" stroke="#63b8ff" points="714.54,-71.77 725.12,-71.1 716.43,-65.03 714.54,-71.77"/>
</a>
</g>
</g>
<!-- Node9&#45;&gt;Node10 -->
<g id="edge10_Node000009_Node000010" class="edge">
<title>Node9&#45;&gt;Node10</title>
<g id="a_edge10_Node000009_Node000010"><a xlink:title=" ">
<path fill="none" stroke="#63b8ff" d="M678.6,-29.18C686.5,-28.2 694.59,-27.2 702.61,-26.21"/>
<polygon fill="#63b8ff" stroke="#63b8ff" points="702.89,-29.71 712.38,-25.01 702.03,-22.76 702.89,-29.71"/>
</a>
</g>
</g>
<!-- Node11&#45;&gt;Node6 -->
<g id="edge13_Node000011_Node000006" class="edge">
<title>Node11&#45;&gt;Node6</title>
<g id="a_edge13_Node000011_Node000006"><a xlink:title=" ">
<path fill="none" stroke="#63b8ff" d="M678.6,-88C686.5,-88 694.59,-88 702.61,-88"/>
<polygon fill="#63b8ff" stroke="#63b8ff" points="702.37,-91.5 712.37,-88 702.37,-84.5 702.37,-91.5"/>
</a>
</g>
</g>
</g>
</svg>
