<?xml version="1.0" encoding="UTF-8" standalone="no"?>
<!DOCTYPE svg PUBLIC "-//W3C//DTD SVG 1.1//EN"
 "http://www.w3.org/Graphics/SVG/1.1/DTD/svg11.dtd">
<!-- Generated by graphviz version 11.0.0 (20240428.1522)
 -->
<!-- Title: HudLookAndFeel::validateFontSize Pages: 1 -->
<!--zoomable 116 -->

<svg id="main" version="1.1" xmlns="http://www.w3.org/2000/svg" xmlns:xlink="http://www.w3.org/1999/xlink" xml:space="preserve" onload="init(evt)">
<style type="text/css"><![CDATA[
.node, .edge {opacity: 0.7;}
.node.selected, .edge.selected {opacity: 1;}
.edge:hover path { stroke: red; }
.edge:hover polygon { stroke: red; fill: red; }
]]></style>

<defs>
  <circle id="rim" cx="0" cy="0" r="7"/>
  <circle id="rim2" cx="0" cy="0" r="3.5"/>
  <g id="zoomPlus">
    <use xlink:href="#rim" fill="#404040"><set attributeName="fill" to="#808080" begin="zoomplus.mouseover" end="zoomplus.mouseout"/></use>
    <path d="M-4,0h8M0,-4v8" fill="none" stroke="white" stroke-width="1.5" pointer-events="none"/>
  </g>
  <g id="zoomMin">
    <use xlink:href="#rim" fill="#404040"><set attributeName="fill" to="#808080" begin="zoomminus.mouseover" end="zoomminus.mouseout"/></use>
    <path d="M-4,0h8" fill="none" stroke="white" stroke-width="1.5" pointer-events="none"/>
  </g>
  <g id="arrowUp" transform="translate(30 24)">
    <use xlink:href="#rim"/>
    <path pointer-events="none" fill="none" stroke="white" stroke-width="1.5" d="M0,-3.0v7 M-2.5,-0.5L0,-3.0L2.5,-0.5"/>
  </g>
  <g id="arrowRight" transform="rotate(90) translate(36 -43)">
    <use xlink:href="#rim"/>
    <path pointer-events="none" fill="none" stroke="white" stroke-width="1.5" d="M0,-3.0v7 M-2.5,-0.5L0,-3.0L2.5,-0.5"/>
  </g>
  <g id="arrowDown" transform="rotate(180) translate(-30 -48)">
    <use xlink:href="#rim"/>
    <path pointer-events="none" fill="none" stroke="white" stroke-width="1.5" d="M0,-3.0v7 M-2.5,-0.5L0,-3.0L2.5,-0.5"/>
  </g>
  <g id="arrowLeft" transform="rotate(270) translate(-36 17)">
    <use xlink:href="#rim"/>
    <path pointer-events="none" fill="none" stroke="white" stroke-width="1.5" d="M0,-3.0v7 M-2.5,-0.5L0,-3.0L2.5,-0.5"/>
  </g>
  <g id="resetDef">
    <use xlink:href="#rim2" fill="#404040"><set attributeName="fill" to="#808080" begin="reset.mouseover" end="reset.mouseout"/></use>
  </g>
</defs>
<script type="application/ecmascript">
var viewWidth = 985;
var viewHeight = 116;
var sectionId = 'dynsection-14';
</script>
<script type="application/ecmascript" xlink:href="svg.min.js"/>
<svg id="graph" class="graph">
<g id="viewport">
<title>HudLookAndFeel::validateFontSize</title>
<!-- Node1 -->
<g id="Node000001" class="node">
<title>Node1</title>
<g id="a_Node000001"><a xlink:title=" ">
<polygon fill="#999999" stroke="#666666" points="977.25,-76 848.75,-76 848.75,-44 977.25,-44 977.25,-76"/>
<text text-anchor="start" x="856.75" y="-62.5" font-family="Helvetica,sans-Serif" font-size="10.00">HudLookAndFeel::validate</text>
<text text-anchor="middle" x="913" y="-50.5" font-family="Helvetica,sans-Serif" font-size="10.00">FontSize</text>
</a>
</g>
</g>
<!-- Node2 -->
<g id="Node000002" class="node">
<title>Node2</title>
<g id="a_Node000002"><a xlink:href="class_hud_look_and_feel.html#a1466001b2e5e8963e55ff4be372c3e0e" target="_top" xlink:title="Adds a font from a file with a size.">
<polygon fill="white" stroke="#666666" points="812.75,-70 681.25,-70 681.25,-50 812.75,-50 812.75,-70"/>
<text text-anchor="middle" x="747" y="-56.5" font-family="Helvetica,sans-Serif" font-size="10.00">HudLookAndFeel::addFont</text>
</a>
</g>
</g>
<!-- Node1&#45;&gt;Node2 -->
<g id="edge1_Node000001_Node000002" class="edge">
<title>Node1&#45;&gt;Node2</title>
<g id="a_edge1_Node000001_Node000002"><a xlink:title=" ">
<path fill="none" stroke="#63b8ff" d="M837.29,-60C829.23,-60 821.07,-60 813.13,-60"/>
<polygon fill="#63b8ff" stroke="#63b8ff" points="837.08,-63.5 847.08,-60 837.08,-56.5 837.08,-63.5"/>
</a>
</g>
</g>
<!-- Node3 -->
<g id="Node000003" class="node">
<title>Node3</title>
<g id="a_Node000003"><a xlink:href="class_hud_look_and_feel.html#a815b718b209fe097df0cde4293dc39b8" target="_top" xlink:title=" ">
<polygon fill="white" stroke="#666666" points="640,-108 510.75,-108 510.75,-88 640,-88 640,-108"/>
<text text-anchor="middle" x="575.38" y="-94.5" font-family="Helvetica,sans-Serif" font-size="10.00">HudLookAndFeel::getFont</text>
</a>
</g>
</g>
<!-- Node1&#45;&gt;Node3 -->
<g id="edge7_Node000001_Node000003" class="edge">
<title>Node1&#45;&gt;Node3</title>
<g id="a_edge7_Node000001_Node000003"><a xlink:title=" ">
<path fill="none" stroke="#63b8ff" d="M837.2,-75.22C828.97,-76.62 820.7,-77.92 812.75,-79 754.61,-86.88 687.96,-91.87 640.28,-94.75"/>
<polygon fill="#63b8ff" stroke="#63b8ff" points="837.64,-78.7 846.88,-73.51 836.42,-71.8 837.64,-78.7"/>
</a>
</g>
</g>
<!-- Node7 -->
<g id="Node000007" class="node">
<title>Node7</title>
<g id="a_Node000007"><a xlink:href="class_hud_look_and_feel.html#aa631dd52d2ffbad2778d5813e357449e" target="_top" xlink:title="Sets the default font size.">
<polygon fill="white" stroke="#666666" points="645.25,-32 505.5,-32 505.5,0 645.25,0 645.25,-32"/>
<text text-anchor="start" x="513.5" y="-18.5" font-family="Helvetica,sans-Serif" font-size="10.00">HudLookAndFeel::setDefault</text>
<text text-anchor="middle" x="575.38" y="-6.5" font-family="Helvetica,sans-Serif" font-size="10.00">FontSize</text>
</a>
</g>
</g>
<!-- Node1&#45;&gt;Node7 -->
<g id="edge8_Node000001_Node000007" class="edge">
<title>Node1&#45;&gt;Node7</title>
<g id="a_edge8_Node000001_Node000007"><a xlink:title=" ">
<path fill="none" stroke="#63b8ff" d="M837.18,-44.98C828.95,-43.54 820.68,-42.18 812.75,-41 756.73,-32.69 692.83,-26.1 645.61,-21.78"/>
<polygon fill="#63b8ff" stroke="#63b8ff" points="836.38,-48.4 846.84,-46.73 837.62,-41.51 836.38,-48.4"/>
</a>
</g>
</g>
<!-- Node2&#45;&gt;Node3 -->
<g id="edge2_Node000002_Node000003" class="edge">
<title>Node2&#45;&gt;Node3</title>
<g id="a_edge2_Node000002_Node000003"><a xlink:title=" ">
<path fill="none" stroke="#63b8ff" d="M688.04,-72.98C666.83,-77.74 643.12,-83.05 623.02,-87.55"/>
<polygon fill="#63b8ff" stroke="#63b8ff" points="688.73,-76.42 697.72,-70.82 687.2,-69.59 688.73,-76.42"/>
</a>
</g>
</g>
<!-- Node5 -->
<g id="Node000005" class="node">
<title>Node5</title>
<g id="a_Node000005"><a xlink:href="class_g_l_e_s_c_1_1_h_u_d_1_1_h_u_d_manager.html#a4ff8b120db6eecaaa5e619b1477f58ed" target="_top" xlink:title=" ">
<polygon fill="white" stroke="#666666" points="314,-76 175,-76 175,-44 314,-44 314,-76"/>
<text text-anchor="start" x="183" y="-62.5" font-family="Helvetica,sans-Serif" font-size="10.00">GLESC::HUD::HUDManager</text>
<text text-anchor="middle" x="244.5" y="-50.5" font-family="Helvetica,sans-Serif" font-size="10.00">::initImGUI</text>
</a>
</g>
</g>
<!-- Node2&#45;&gt;Node5 -->
<g id="edge6_Node000002_Node000005" class="edge">
<title>Node2&#45;&gt;Node5</title>
<g id="a_edge6_Node000002_Node000005"><a xlink:title=" ">
<path fill="none" stroke="#63b8ff" d="M669.36,-60C572.49,-60 407.2,-60 314.24,-60"/>
<polygon fill="#63b8ff" stroke="#63b8ff" points="669.31,-63.5 679.31,-60 669.31,-56.5 669.31,-63.5"/>
</a>
</g>
</g>
<!-- Node4 -->
<g id="Node000004" class="node">
<title>Node4</title>
<g id="a_Node000004"><a xlink:href="class_hud_look_and_feel.html#ae1d994a42a7915cfa11a72a664dabc79" target="_top" xlink:title="Applies the look and feel to ImGui.">
<polygon fill="white" stroke="#666666" points="469.5,-108 350,-108 350,-88 469.5,-88 469.5,-108"/>
<text text-anchor="middle" x="409.75" y="-94.5" font-family="Helvetica,sans-Serif" font-size="10.00">HudLookAndFeel::apply</text>
</a>
</g>
</g>
<!-- Node3&#45;&gt;Node4 -->
<g id="edge3_Node000003_Node000004" class="edge">
<title>Node3&#45;&gt;Node4</title>
<g id="a_edge3_Node000003_Node000004"><a xlink:title=" ">
<path fill="none" stroke="#63b8ff" d="M499.16,-98C489.3,-98 479.3,-98 469.76,-98"/>
<polygon fill="#63b8ff" stroke="#63b8ff" points="499.13,-101.5 509.13,-98 499.13,-94.5 499.13,-101.5"/>
</a>
</g>
</g>
<!-- Node4&#45;&gt;Node5 -->
<g id="edge4_Node000004_Node000005" class="edge">
<title>Node4&#45;&gt;Node5</title>
<g id="a_edge4_Node000004_Node000005"><a xlink:title=" ">
<path fill="none" stroke="#63b8ff" d="M352.64,-84.94C340.28,-82.06 327.06,-78.98 314.26,-76.01"/>
<polygon fill="#63b8ff" stroke="#63b8ff" points="351.7,-88.31 362.23,-87.17 353.29,-81.5 351.7,-88.31"/>
</a>
</g>
</g>
<!-- Node6 -->
<g id="Node000006" class="node">
<title>Node6</title>
<g id="a_Node000006"><a xlink:href="class_g_l_e_s_c_1_1_h_u_d_1_1_h_u_d_manager.html#a025f565a5346b1cfdd80ce5fd79f8046" target="_top" xlink:title="Constructor for the HUDManager.">
<polygon fill="white" stroke="#666666" points="139,-76 0,-76 0,-44 139,-44 139,-76"/>
<text text-anchor="start" x="8" y="-62.5" font-family="Helvetica,sans-Serif" font-size="10.00">GLESC::HUD::HUDManager</text>
<text text-anchor="middle" x="69.5" y="-50.5" font-family="Helvetica,sans-Serif" font-size="10.00">::HUDManager</text>
</a>
</g>
</g>
<!-- Node5&#45;&gt;Node6 -->
<g id="edge5_Node000005_Node000006" class="edge">
<title>Node5&#45;&gt;Node6</title>
<g id="a_edge5_Node000005_Node000006"><a xlink:title=" ">
<path fill="none" stroke="#63b8ff" d="M163.38,-60C155.38,-60 147.3,-60 139.42,-60"/>
<polygon fill="#63b8ff" stroke="#63b8ff" points="163.12,-63.5 173.12,-60 163.12,-56.5 163.12,-63.5"/>
</a>
</g>
</g>
<!-- Node7&#45;&gt;Node5 -->
<g id="edge9_Node000007_Node000005" class="edge">
<title>Node7&#45;&gt;Node5</title>
<g id="a_edge9_Node000007_Node000005"><a xlink:title=" ">
<path fill="none" stroke="#63b8ff" d="M493.94,-26.75C451.19,-32.46 397.74,-39.61 350,-46 338.48,-47.54 326.24,-49.18 314.36,-50.77"/>
<polygon fill="#63b8ff" stroke="#63b8ff" points="494.19,-30.25 503.64,-25.45 493.26,-23.31 494.19,-30.25"/>
</a>
</g>
</g>
</g>
</svg>

<g id="navigator" transform="translate(0 0)" fill="#404254">
  <rect fill="#f2f5e9" fill-opacity="0.5" stroke="#606060" stroke-width=".5" x="0" y="0" width="60" height="60"/>
  <use id="zoomplus" xlink:href="#zoomPlus" x="17" y="9" onmousedown="handleZoom(evt,'in')"/>
  <use id="zoomminus" xlink:href="#zoomMin" x="42" y="9" onmousedown="handleZoom(evt,'out')"/>
  <use id="reset" xlink:href="#resetDef" x="30" y="36" onmousedown="handleReset()"/>
   <use id="arrowup" xlink:href="#arrowUp" x="0" y="0" onmousedown="handlePan(0,-1)"/>
  <use id="arrowright" xlink:href="#arrowRight" x="0" y="0" onmousedown="handlePan(1,0)"/>
  <use id="arrowdown" xlink:href="#arrowDown" x="0" y="0" onmousedown="handlePan(0,1)"/>
  <use id="arrowleft" xlink:href="#arrowLeft" x="0" y="0" onmousedown="handlePan(-1,0)"/>
</g>
<svg viewBox="0 0 15 15" width="100%" height="30px" preserveAspectRatio="xMaxYMin meet">
 <g id="arrow_out" transform="scale(0.3 0.3)">
  <a xlink:href="class_hud_look_and_feel_a4149f1a2cdc165caa2973732e4960278_icgraph_org.svg" target="_base">
   <rect id="button" ry="5" rx="5" y="6" x="6" height="38" width="38"
        fill="#f2f5e9" fill-opacity="0.5" stroke="#606060" stroke-width="1.0"/>
   <path id="arrow"
     d="M 11.500037,31.436501 C 11.940474,20.09759 22.043105,11.32322 32.158766,21.979434 L 37.068811,17.246167 C 37.068811,17.246167 37.088388,32 37.088388,32 L 22.160133,31.978069 C 22.160133,31.978069 26.997745,27.140456 26.997745,27.140456 C 18.528582,18.264221 13.291696,25.230495 11.500037,31.436501 z"
     style="fill:#404040;"/>
  </a>
 </g>
</svg>

<style type='text/css'>
<![CDATA[
[data-mouse-over-selected='false'] { opacity: 0.7; }
[data-mouse-over-selected='true']  { opacity: 1.0; }
]]>
</style>
<script type="application/ecmascript"><![CDATA[
document.addEventListener('DOMContentLoaded', (event) => {
  highlightEdges();
  highlightAdjacentNodes();
});
]]></script>
</svg>
