<?xml version="1.0" encoding="UTF-8" standalone="no"?>
<!DOCTYPE svg PUBLIC "-//W3C//DTD SVG 1.1//EN"
 "http://www.w3.org/Graphics/SVG/1.1/DTD/svg11.dtd">
<!-- Generated by graphviz version 11.0.0 (20240428.1522)
 -->
<!-- Title: GLESC::Math::Vector::distanceSquared Pages: 1 -->
<svg width="701pt" height="90pt"
 viewBox="0.00 0.00 700.50 90.00" xmlns="http://www.w3.org/2000/svg" xmlns:xlink="http://www.w3.org/1999/xlink">
<g id="graph0" class="graph" transform="scale(1 1) rotate(0) translate(4 86)">
<title>GLESC::Math::Vector::distanceSquared</title>
<!-- Node1 -->
<g id="Node000001" class="node">
<title>Node1</title>
<g id="a_Node000001"><a xlink:title="Gives the squared distance between two vectors.">
<polygon fill="#999999" stroke="#666666" points="111.25,-57 0,-57 0,-25 111.25,-25 111.25,-57"/>
<text text-anchor="start" x="8" y="-43.5" font-family="Helvetica,sans-Serif" font-size="10.00">GLESC::Math::Vector</text>
<text text-anchor="middle" x="55.62" y="-31.5" font-family="Helvetica,sans-Serif" font-size="10.00">::distanceSquared</text>
</a>
</g>
</g>
<!-- Node2 -->
<g id="Node000002" class="node">
<title>Node2</title>
<g id="a_Node000002"><a xlink:href="class_g_l_e_s_c_1_1_math_1_1_vector_algorithms.html#aac1a177987e059f58c0ff6829cc6efc8" target="_top" xlink:title="Computes the squared distance between two vectors.">
<polygon fill="white" stroke="#666666" points="305,-57 147.25,-57 147.25,-25 305,-25 305,-57"/>
<text text-anchor="start" x="155.25" y="-43.5" font-family="Helvetica,sans-Serif" font-size="10.00">GLESC::Math::VectorAlgorithms</text>
<text text-anchor="middle" x="226.12" y="-31.5" font-family="Helvetica,sans-Serif" font-size="10.00">::distanceSquared</text>
</a>
</g>
</g>
<!-- Node1&#45;&gt;Node2 -->
<g id="edge1_Node000001_Node000002" class="edge">
<title>Node1&#45;&gt;Node2</title>
<g id="a_edge1_Node000001_Node000002"><a xlink:title=" ">
<path fill="none" stroke="#63b8ff" d="M111.33,-41C119.13,-41 127.31,-41 135.56,-41"/>
<polygon fill="#63b8ff" stroke="#63b8ff" points="135.31,-44.5 145.31,-41 135.31,-37.5 135.31,-44.5"/>
</a>
</g>
</g>
<!-- Node3 -->
<g id="Node000003" class="node">
<title>Node3</title>
<g id="a_Node000003"><a xlink:href="class_g_l_e_s_c_1_1_math_1_1_vector_algorithms.html#a7d3edb478e5c7ee1c3e026753efb230f" target="_top" xlink:title="Computes the squared length of a vector.">
<polygon fill="white" stroke="#666666" points="498.75,-82 341,-82 341,-50 498.75,-50 498.75,-82"/>
<text text-anchor="start" x="349" y="-68.5" font-family="Helvetica,sans-Serif" font-size="10.00">GLESC::Math::VectorAlgorithms</text>
<text text-anchor="middle" x="419.88" y="-56.5" font-family="Helvetica,sans-Serif" font-size="10.00">::lengthSquared</text>
</a>
</g>
</g>
<!-- Node2&#45;&gt;Node3 -->
<g id="edge2_Node000002_Node000003" class="edge">
<title>Node2&#45;&gt;Node3</title>
<g id="a_edge2_Node000002_Node000003"><a xlink:title=" ">
<path fill="none" stroke="#63b8ff" d="M305.39,-51.2C313.28,-52.23 321.32,-53.28 329.31,-54.32"/>
<polygon fill="#63b8ff" stroke="#63b8ff" points="328.68,-57.77 339.05,-55.59 329.58,-50.83 328.68,-57.77"/>
</a>
</g>
</g>
<!-- Node5 -->
<g id="Node000005" class="node">
<title>Node5</title>
<g id="a_Node000005"><a xlink:href="class_g_l_e_s_c_1_1_math_1_1_vector_algorithms.html#a3d7793a7054aae76fe23e92368659e0b" target="_top" xlink:title="Subtracts two vectors.">
<polygon fill="white" stroke="#666666" points="498.75,-32 341,-32 341,0 498.75,0 498.75,-32"/>
<text text-anchor="start" x="349" y="-18.5" font-family="Helvetica,sans-Serif" font-size="10.00">GLESC::Math::VectorAlgorithms</text>
<text text-anchor="middle" x="419.88" y="-6.5" font-family="Helvetica,sans-Serif" font-size="10.00">::vectorSub</text>
</a>
</g>
</g>
<!-- Node2&#45;&gt;Node5 -->
<g id="edge4_Node000002_Node000005" class="edge">
<title>Node2&#45;&gt;Node5</title>
<g id="a_edge4_Node000002_Node000005"><a xlink:title=" ">
<path fill="none" stroke="#63b8ff" d="M305.39,-30.8C313.28,-29.77 321.32,-28.72 329.31,-27.68"/>
<polygon fill="#63b8ff" stroke="#63b8ff" points="329.58,-31.17 339.05,-26.41 328.68,-24.23 329.58,-31.17"/>
</a>
</g>
</g>
<!-- Node4 -->
<g id="Node000004" class="node">
<title>Node4</title>
<g id="a_Node000004"><a xlink:href="class_g_l_e_s_c_1_1_math_1_1_vector_algorithms.html#ae45bcff9b53fb60d513c53823418d97b" target="_top" xlink:title="Computes the dot product of two vectors.">
<polygon fill="white" stroke="#666666" points="692.5,-82 534.75,-82 534.75,-50 692.5,-50 692.5,-82"/>
<text text-anchor="start" x="542.75" y="-68.5" font-family="Helvetica,sans-Serif" font-size="10.00">GLESC::Math::VectorAlgorithms</text>
<text text-anchor="middle" x="613.62" y="-56.5" font-family="Helvetica,sans-Serif" font-size="10.00">::dotProduct</text>
</a>
</g>
</g>
<!-- Node3&#45;&gt;Node4 -->
<g id="edge3_Node000003_Node000004" class="edge">
<title>Node3&#45;&gt;Node4</title>
<g id="a_edge3_Node000003_Node000004"><a xlink:title=" ">
<path fill="none" stroke="#63b8ff" d="M499.14,-66C506.94,-66 514.89,-66 522.79,-66"/>
<polygon fill="#63b8ff" stroke="#63b8ff" points="522.78,-69.5 532.78,-66 522.78,-62.5 522.78,-69.5"/>
</a>
</g>
</g>
</g>
</svg>
