<?xml version="1.0" encoding="UTF-8" standalone="no"?>
<!DOCTYPE svg PUBLIC "-//W3C//DTD SVG 1.1//EN"
 "http://www.w3.org/Graphics/SVG/1.1/DTD/svg11.dtd">
<!-- Generated by graphviz version 11.0.0 (20240428.1522)
 -->
<!-- Title: GLESC::ECS::SystemManager Pages: 1 -->
<!--zoomable 708 -->

<svg id="main" version="1.1" xmlns="http://www.w3.org/2000/svg" xmlns:xlink="http://www.w3.org/1999/xlink" xml:space="preserve" onload="init(evt)">
<style type="text/css"><![CDATA[
.node, .edge {opacity: 0.7;}
.node.selected, .edge.selected {opacity: 1;}
.edge:hover path { stroke: red; }
.edge:hover polygon { stroke: red; fill: red; }
]]></style>

<defs>
  <circle id="rim" cx="0" cy="0" r="7"/>
  <circle id="rim2" cx="0" cy="0" r="3.5"/>
  <g id="zoomPlus">
    <use xlink:href="#rim" fill="#404040"><set attributeName="fill" to="#808080" begin="zoomplus.mouseover" end="zoomplus.mouseout"/></use>
    <path d="M-4,0h8M0,-4v8" fill="none" stroke="white" stroke-width="1.5" pointer-events="none"/>
  </g>
  <g id="zoomMin">
    <use xlink:href="#rim" fill="#404040"><set attributeName="fill" to="#808080" begin="zoomminus.mouseover" end="zoomminus.mouseout"/></use>
    <path d="M-4,0h8" fill="none" stroke="white" stroke-width="1.5" pointer-events="none"/>
  </g>
  <g id="arrowUp" transform="translate(30 24)">
    <use xlink:href="#rim"/>
    <path pointer-events="none" fill="none" stroke="white" stroke-width="1.5" d="M0,-3.0v7 M-2.5,-0.5L0,-3.0L2.5,-0.5"/>
  </g>
  <g id="arrowRight" transform="rotate(90) translate(36 -43)">
    <use xlink:href="#rim"/>
    <path pointer-events="none" fill="none" stroke="white" stroke-width="1.5" d="M0,-3.0v7 M-2.5,-0.5L0,-3.0L2.5,-0.5"/>
  </g>
  <g id="arrowDown" transform="rotate(180) translate(-30 -48)">
    <use xlink:href="#rim"/>
    <path pointer-events="none" fill="none" stroke="white" stroke-width="1.5" d="M0,-3.0v7 M-2.5,-0.5L0,-3.0L2.5,-0.5"/>
  </g>
  <g id="arrowLeft" transform="rotate(270) translate(-36 17)">
    <use xlink:href="#rim"/>
    <path pointer-events="none" fill="none" stroke="white" stroke-width="1.5" d="M0,-3.0v7 M-2.5,-0.5L0,-3.0L2.5,-0.5"/>
  </g>
  <g id="resetDef">
    <use xlink:href="#rim2" fill="#404040"><set attributeName="fill" to="#808080" begin="reset.mouseover" end="reset.mouseout"/></use>
  </g>
</defs>
<script type="application/ecmascript">
var viewWidth = 549;
var viewHeight = 708;
var sectionId = 'dynsection-0';
</script>
<script type="application/ecmascript" xlink:href="svg.min.js"/>
<svg id="graph" class="graph">
<g id="viewport">
<title>GLESC::ECS::SystemManager</title>
<!-- Node1 -->
<g id="Node000001" class="node">
<title>Node1</title>
<g id="a_Node000001"><a xlink:title=" ">
<polygon fill="#999999" stroke="none" points="315,-240 150,-240 150,0 315,0 315,-240"/>
<text text-anchor="start" x="164.25" y="-226.5" font-family="Helvetica,sans-Serif" font-size="10.00">GLESC::ECS::SystemManager</text>
<text text-anchor="start" x="231" y="-210.5" font-family="Helvetica,sans-Serif" font-size="10.00"> </text>
<text text-anchor="start" x="154" y="-194.5" font-family="Helvetica,sans-Serif" font-size="10.00">+</text>
<text text-anchor="start" x="164" y="-194.5" font-family="Helvetica,sans-Serif" font-size="10.00">SystemManager()</text>
<text text-anchor="start" x="154" y="-178.5" font-family="Helvetica,sans-Serif" font-size="10.00">+</text>
<text text-anchor="start" x="164" y="-178.5" font-family="Helvetica,sans-Serif" font-size="10.00">~SystemManager()</text>
<text text-anchor="start" x="154" y="-162.5" font-family="Helvetica,sans-Serif" font-size="10.00">+</text>
<text text-anchor="start" x="164" y="-162.5" font-family="Helvetica,sans-Serif" font-size="10.00">addComponentRequirementTo</text>
<text text-anchor="start" x="164" y="-150.5" font-family="Helvetica,sans-Serif" font-size="10.00">System()</text>
<text text-anchor="start" x="154" y="-134.5" font-family="Helvetica,sans-Serif" font-size="10.00">+</text>
<text text-anchor="start" x="164" y="-134.5" font-family="Helvetica,sans-Serif" font-size="10.00">entityDestroyed()</text>
<text text-anchor="start" x="154" y="-118.5" font-family="Helvetica,sans-Serif" font-size="10.00">+</text>
<text text-anchor="start" x="164" y="-118.5" font-family="Helvetica,sans-Serif" font-size="10.00">entitySignatureChanged()</text>
<text text-anchor="start" x="154" y="-102.5" font-family="Helvetica,sans-Serif" font-size="10.00">+</text>
<text text-anchor="start" x="164" y="-102.5" font-family="Helvetica,sans-Serif" font-size="10.00">getAllAssociatedEntities()</text>
<text text-anchor="start" x="154" y="-86.5" font-family="Helvetica,sans-Serif" font-size="10.00">+</text>
<text text-anchor="start" x="164" y="-86.5" font-family="Helvetica,sans-Serif" font-size="10.00">getAssociatedEntitiesOfSystem()</text>
<text text-anchor="start" x="154" y="-70.5" font-family="Helvetica,sans-Serif" font-size="10.00">+</text>
<text text-anchor="start" x="164" y="-70.5" font-family="Helvetica,sans-Serif" font-size="10.00">getSystemSignatures()</text>
<text text-anchor="start" x="154" y="-54.5" font-family="Helvetica,sans-Serif" font-size="10.00">+</text>
<text text-anchor="start" x="164" y="-54.5" font-family="Helvetica,sans-Serif" font-size="10.00">isComponentRequiredBySystem()</text>
<text text-anchor="start" x="154" y="-38.5" font-family="Helvetica,sans-Serif" font-size="10.00">+</text>
<text text-anchor="start" x="164" y="-38.5" font-family="Helvetica,sans-Serif" font-size="10.00">isEntityAssociatedWithSystem()</text>
<text text-anchor="start" x="154" y="-22.5" font-family="Helvetica,sans-Serif" font-size="10.00">+</text>
<text text-anchor="start" x="164" y="-22.5" font-family="Helvetica,sans-Serif" font-size="10.00">isSystemRegistered()</text>
<text text-anchor="start" x="154" y="-6.5" font-family="Helvetica,sans-Serif" font-size="10.00">+</text>
<text text-anchor="start" x="164" y="-6.5" font-family="Helvetica,sans-Serif" font-size="10.00">registerSystem()</text>
<polygon fill="#666666" stroke="#666666" points="150,-222 150,-222 315,-222 315,-222 150,-222"/>
<polygon fill="#666666" stroke="#666666" points="150,-206 150,-206 315,-206 315,-206 150,-206"/>
<polygon fill="none" stroke="#666666" points="150,0 150,-240 315,-240 315,0 150,0"/>
</a>
</g>
</g>
<!-- Node2 -->
<g id="Node000002" class="node">
<title>Node2</title>
<g id="a_Node000002"><a xlink:title=" ">
<polygon fill="white" stroke="none" points="219,-364 102,-364 102,-288 219,-288 219,-364"/>
<text text-anchor="start" x="106.88" y="-350.5" font-family="Helvetica,sans-Serif" font-size="10.00">std::unordered_map</text>
<text text-anchor="start" x="106.88" y="-338.5" font-family="Helvetica,sans-Serif" font-size="10.00">&lt; SystemName, std::set</text>
<text text-anchor="start" x="129.75" y="-326.5" font-family="Helvetica,sans-Serif" font-size="10.00">&lt; EntityID &gt; &gt;</text>
<text text-anchor="start" x="159" y="-310.5" font-family="Helvetica,sans-Serif" font-size="10.00"> </text>
<text text-anchor="start" x="159" y="-294.5" font-family="Helvetica,sans-Serif" font-size="10.00"> </text>
<polygon fill="#666666" stroke="#666666" points="102,-322 102,-322 219,-322 219,-322 102,-322"/>
<polygon fill="#666666" stroke="#666666" points="102,-306 102,-306 219,-306 219,-306 102,-306"/>
<polygon fill="none" stroke="#666666" points="102,-288 102,-364 219,-364 219,-288 102,-288"/>
</a>
</g>
</g>
<!-- Node2&#45;&gt;Node1 -->
<g id="edge1_Node000001_Node000002" class="edge">
<title>Node2&#45;&gt;Node1</title>
<g id="a_edge1_Node000001_Node000002"><a xlink:title=" ">
<path fill="none" stroke="#63b8ff" d="M173.54,-288.06C177.32,-277.33 181.69,-264.96 186.3,-251.9"/>
<polygon fill="none" stroke="#63b8ff" points="186.3,-251.91 184.52,-244.92 190.29,-240.59 192.07,-247.58 186.3,-251.91"/>
</a>
</g>
<text text-anchor="middle" x="227.75" y="-260.5" font-family="Helvetica,sans-Serif" font-size="10.00" fill="grey"> #associatedEntities</text>
</g>
<!-- Node3 -->
<g id="Node000003" class="node">
<title>Node3</title>
<g id="a_Node000003"><a xlink:title=" ">
<polygon fill="white" stroke="none" points="170,-482 117,-482 117,-430 170,-430 170,-482"/>
<text text-anchor="start" x="121.75" y="-468.5" font-family="Helvetica,sans-Serif" font-size="10.00">std::string</text>
<text text-anchor="start" x="142" y="-452.5" font-family="Helvetica,sans-Serif" font-size="10.00"> </text>
<text text-anchor="start" x="142" y="-436.5" font-family="Helvetica,sans-Serif" font-size="10.00"> </text>
<polygon fill="#666666" stroke="#666666" points="117,-464 117,-464 170,-464 170,-464 117,-464"/>
<polygon fill="#666666" stroke="#666666" points="117,-448 117,-448 170,-448 170,-448 117,-448"/>
<polygon fill="none" stroke="#666666" points="117,-430 117,-482 170,-482 170,-430 117,-430"/>
</a>
</g>
</g>
<!-- Node3&#45;&gt;Node2 -->
<g id="edge2_Node000002_Node000003" class="edge">
<title>Node3&#45;&gt;Node2</title>
<g id="a_edge2_Node000002_Node000003"><a xlink:title=" ">
<path fill="none" stroke="#63b8ff" d="M127.89,-430.3C120.9,-416.14 115.28,-398.05 120.5,-382 121.23,-379.74 122.1,-377.5 123.07,-375.28"/>
<polygon fill="none" stroke="#63b8ff" points="123.14,-375.16 122.39,-367.99 128.73,-364.54 129.47,-371.71 123.14,-375.16"/>
</a>
</g>
<text text-anchor="middle" x="135.5" y="-390.5" font-family="Helvetica,sans-Serif" font-size="10.00" fill="grey"> +keys</text>
</g>
<!-- Node10 -->
<g id="Node000010" class="node">
<title>Node10</title>
<g id="a_Node000010"><a xlink:title=" ">
<polygon fill="white" stroke="none" points="391.5,-358 257.5,-358 257.5,-294 391.5,-294 391.5,-358"/>
<text text-anchor="start" x="262.25" y="-344.5" font-family="Helvetica,sans-Serif" font-size="10.00">std::unordered_map</text>
<text text-anchor="start" x="262.25" y="-332.5" font-family="Helvetica,sans-Serif" font-size="10.00">&lt; SystemName, Signature &gt;</text>
<text text-anchor="start" x="323" y="-316.5" font-family="Helvetica,sans-Serif" font-size="10.00"> </text>
<text text-anchor="start" x="323" y="-300.5" font-family="Helvetica,sans-Serif" font-size="10.00"> </text>
<polygon fill="#666666" stroke="#666666" points="257.5,-328 257.5,-328 391.5,-328 391.5,-328 257.5,-328"/>
<polygon fill="#666666" stroke="#666666" points="257.5,-312 257.5,-312 391.5,-312 391.5,-312 257.5,-312"/>
<polygon fill="none" stroke="#666666" points="257.5,-294 257.5,-358 391.5,-358 391.5,-294 257.5,-294"/>
</a>
</g>
</g>
<!-- Node3&#45;&gt;Node10 -->
<g id="edge11_Node000010_Node000003" class="edge">
<title>Node3&#45;&gt;Node10</title>
<g id="a_edge11_Node000010_Node000003"><a xlink:title=" ">
<path fill="none" stroke="#63b8ff" d="M146.56,-430.25C149.76,-414.45 156.27,-394.64 169.5,-382 189.33,-363.07 202.58,-372.94 228.5,-364 234.11,-362.06 239.89,-360.01 245.69,-357.89"/>
<polygon fill="none" stroke="#63b8ff" points="245.49,-357.97 249.73,-352.14 256.74,-353.81 252.5,-359.64 245.49,-357.97"/>
</a>
</g>
<text text-anchor="middle" x="184.5" y="-390.5" font-family="Helvetica,sans-Serif" font-size="10.00" fill="grey"> +keys</text>
</g>
<!-- Node4 -->
<g id="Node000004" class="node">
<title>Node4</title>
<g id="a_Node000004"><a xlink:title=" ">
<polygon fill="white" stroke="none" points="187.5,-600 99.5,-600 99.5,-536 187.5,-536 187.5,-600"/>
<text text-anchor="start" x="104.5" y="-586.5" font-family="Helvetica,sans-Serif" font-size="10.00">std::basic_string&lt;</text>
<text text-anchor="start" x="127.38" y="-574.5" font-family="Helvetica,sans-Serif" font-size="10.00"> Char &gt;</text>
<text text-anchor="start" x="142" y="-558.5" font-family="Helvetica,sans-Serif" font-size="10.00"> </text>
<text text-anchor="start" x="142" y="-542.5" font-family="Helvetica,sans-Serif" font-size="10.00"> </text>
<polygon fill="#666666" stroke="#666666" points="99.5,-570 99.5,-570 187.5,-570 187.5,-570 99.5,-570"/>
<polygon fill="#666666" stroke="#666666" points="99.5,-554 99.5,-554 187.5,-554 187.5,-554 99.5,-554"/>
<polygon fill="none" stroke="#666666" points="99.5,-536 99.5,-600 187.5,-600 187.5,-536 99.5,-536"/>
</a>
</g>
</g>
<!-- Node4&#45;&gt;Node3 -->
<g id="edge3_Node000003_Node000004" class="edge">
<title>Node4&#45;&gt;Node3</title>
<g id="a_edge3_Node000003_Node000004"><a xlink:title=" ">
<path fill="none" stroke="#63b8ff" d="M143.5,-524.77C143.5,-510.25 143.5,-494.47 143.5,-481.79"/>
<polygon fill="none" stroke="#63b8ff" points="140,-524.55 143.5,-534.55 147,-524.55 140,-524.55"/>
</a>
</g>
</g>
<!-- Node5 -->
<g id="Node000005" class="node">
<title>Node5</title>
<g id="a_Node000005"><a xlink:title=" ">
<polygon fill="white" stroke="none" points="95,-482 0,-482 0,-430 95,-430 95,-482"/>
<text text-anchor="start" x="4.75" y="-468.5" font-family="Helvetica,sans-Serif" font-size="10.00">std::set&lt; EntityID &gt;</text>
<text text-anchor="start" x="18" y="-452.5" font-family="Helvetica,sans-Serif" font-size="10.00">+</text>
<text text-anchor="start" x="42" y="-452.5" font-family="Helvetica,sans-Serif" font-size="10.00">keys</text>
<text text-anchor="start" x="46" y="-436.5" font-family="Helvetica,sans-Serif" font-size="10.00"> </text>
<polygon fill="#666666" stroke="#666666" points="0,-464 0,-464 95,-464 95,-464 0,-464"/>
<polygon fill="#666666" stroke="#666666" points="0,-448 0,-448 40,-448 40,-448 0,-448"/>
<polygon fill="#666666" stroke="#666666" points="40,-448 40,-448 95,-448 95,-448 40,-448"/>
<polygon fill="none" stroke="#666666" points="0,-430 0,-482 95,-482 95,-430 0,-430"/>
</a>
</g>
</g>
<!-- Node5&#45;&gt;Node2 -->
<g id="edge4_Node000002_Node000005" class="edge">
<title>Node5&#45;&gt;Node2</title>
<g id="a_edge4_Node000002_Node000005"><a xlink:title=" ">
<path fill="none" stroke="#63b8ff" d="M48.45,-430.25C50.14,-415.05 54.4,-395.88 64.75,-382 71.98,-372.3 81.46,-364.05 91.64,-357.11"/>
<polygon fill="none" stroke="#63b8ff" points="91.51,-357.19 94.47,-350.62 101.68,-350.83 98.72,-357.4 91.51,-357.19"/>
</a>
</g>
<text text-anchor="middle" x="88.88" y="-390.5" font-family="Helvetica,sans-Serif" font-size="10.00" fill="grey"> +elements</text>
</g>
<!-- Node6 -->
<g id="Node000006" class="node">
<title>Node6</title>
<g id="a_Node000006"><a xlink:title=" ">
<polygon fill="white" stroke="none" points="81,-594 14,-594 14,-542 81,-542 81,-594"/>
<text text-anchor="start" x="18.62" y="-580.5" font-family="Helvetica,sans-Serif" font-size="10.00">std::set&lt; K &gt;</text>
<text text-anchor="start" x="46" y="-564.5" font-family="Helvetica,sans-Serif" font-size="10.00"> </text>
<text text-anchor="start" x="46" y="-548.5" font-family="Helvetica,sans-Serif" font-size="10.00"> </text>
<polygon fill="#666666" stroke="#666666" points="14,-576 14,-576 81,-576 81,-576 14,-576"/>
<polygon fill="#666666" stroke="#666666" points="14,-560 14,-560 81,-560 81,-560 14,-560"/>
<polygon fill="none" stroke="#666666" points="14,-542 14,-594 81,-594 81,-542 14,-542"/>
</a>
</g>
</g>
<!-- Node6&#45;&gt;Node5 -->
<g id="edge5_Node000005_Node000006" class="edge">
<title>Node6&#45;&gt;Node5</title>
<g id="a_edge5_Node000005_Node000006"><a xlink:title=" ">
<path fill="none" stroke="orange" d="M47.5,-530.87C47.5,-514.82 47.5,-496.33 47.5,-481.86"/>
<polygon fill="orange" stroke="orange" points="44,-530.53 47.5,-540.53 51,-530.53 44,-530.53"/>
</a>
</g>
<text text-anchor="middle" x="75.25" y="-508.5" font-family="Helvetica,sans-Serif" font-size="10.00" fill="grey"> &lt; EntityID &gt;</text>
</g>
<!-- Node7 -->
<g id="Node000007" class="node">
<title>Node7</title>
<g id="a_Node000007"><a xlink:title=" ">
<polygon fill="white" stroke="none" points="143.5,-700 127.5,-700 127.5,-648 143.5,-648 143.5,-700"/>
<text text-anchor="start" x="132.12" y="-686.5" font-family="Helvetica,sans-Serif" font-size="10.00">K</text>
<text text-anchor="start" x="134" y="-670.5" font-family="Helvetica,sans-Serif" font-size="10.00"> </text>
<text text-anchor="start" x="134" y="-654.5" font-family="Helvetica,sans-Serif" font-size="10.00"> </text>
<polygon fill="#666666" stroke="#666666" points="127.5,-682 127.5,-682 143.5,-682 143.5,-682 127.5,-682"/>
<polygon fill="#666666" stroke="#666666" points="127.5,-666 127.5,-666 143.5,-666 143.5,-666 127.5,-666"/>
<polygon fill="none" stroke="#666666" points="127.5,-648 127.5,-700 143.5,-700 143.5,-648 127.5,-648"/>
</a>
</g>
</g>
<!-- Node7&#45;&gt;Node6 -->
<g id="edge6_Node000006_Node000007" class="edge">
<title>Node7&#45;&gt;Node6</title>
<g id="a_edge6_Node000006_Node000007"><a xlink:title=" ">
<path fill="none" stroke="#63b8ff" d="M127.69,-663.77C116.41,-650.44 94.95,-625.08 77.07,-603.95"/>
<polygon fill="none" stroke="#63b8ff" points="76.97,-603.83 70.05,-601.84 69.22,-594.67 76.15,-596.67 76.97,-603.83"/>
</a>
</g>
<text text-anchor="middle" x="111.5" y="-620.5" font-family="Helvetica,sans-Serif" font-size="10.00" fill="grey"> +keys</text>
</g>
<!-- Node8 -->
<g id="Node000008" class="node">
<title>Node8</title>
<g id="a_Node000008"><a xlink:title=" ">
<polygon fill="white" stroke="none" points="306.5,-488 210.5,-488 210.5,-424 306.5,-424 306.5,-488"/>
<text text-anchor="start" x="215.38" y="-474.5" font-family="Helvetica,sans-Serif" font-size="10.00">std::unordered_map</text>
<text text-anchor="start" x="240.5" y="-462.5" font-family="Helvetica,sans-Serif" font-size="10.00">&lt; K, T &gt;</text>
<text text-anchor="start" x="257" y="-446.5" font-family="Helvetica,sans-Serif" font-size="10.00"> </text>
<text text-anchor="start" x="257" y="-430.5" font-family="Helvetica,sans-Serif" font-size="10.00"> </text>
<polygon fill="#666666" stroke="#666666" points="210.5,-458 210.5,-458 306.5,-458 306.5,-458 210.5,-458"/>
<polygon fill="#666666" stroke="#666666" points="210.5,-442 210.5,-442 306.5,-442 306.5,-442 210.5,-442"/>
<polygon fill="none" stroke="#666666" points="210.5,-424 210.5,-488 306.5,-488 306.5,-424 210.5,-424"/>
</a>
</g>
</g>
<!-- Node7&#45;&gt;Node8 -->
<g id="edge8_Node000008_Node000007" class="edge">
<title>Node7&#45;&gt;Node8</title>
<g id="a_edge8_Node000008_Node000007"><a xlink:title=" ">
<path fill="none" stroke="#63b8ff" d="M143.48,-665.06C156.01,-652.26 180.55,-625.87 196.5,-600 216.14,-568.16 232.65,-529 243.68,-499.72"/>
<polygon fill="none" stroke="#63b8ff" points="243.6,-499.93 241.92,-492.92 247.75,-488.67 249.43,-495.68 243.6,-499.93"/>
</a>
</g>
<text text-anchor="middle" x="243.5" y="-564.5" font-family="Helvetica,sans-Serif" font-size="10.00" fill="grey"> +keys</text>
</g>
<!-- Node8&#45;&gt;Node2 -->
<g id="edge7_Node000002_Node000008" class="edge">
<title>Node8&#45;&gt;Node2</title>
<g id="a_edge7_Node000002_Node000008"><a xlink:title=" ">
<path fill="none" stroke="orange" d="M228.46,-414.86C220.39,-404.15 211.65,-392.61 203.5,-382 199,-376.13 194.2,-369.94 189.5,-363.91"/>
<polygon fill="orange" stroke="orange" points="225.62,-416.91 234.43,-422.8 231.21,-412.7 225.62,-416.91"/>
</a>
</g>
<text text-anchor="start" x="221.5" y="-396.5" font-family="Helvetica,sans-Serif" font-size="10.00" fill="grey"> &lt; SystemName, std::</text>
<text text-anchor="middle" x="269.88" y="-384.5" font-family="Helvetica,sans-Serif" font-size="10.00" fill="grey">set&lt; EntityID &gt; &gt;</text>
</g>
<!-- Node8&#45;&gt;Node10 -->
<g id="edge13_Node000010_Node000008" class="edge">
<title>Node8&#45;&gt;Node10</title>
<g id="a_edge13_Node000010_Node000008"><a xlink:title=" ">
<path fill="none" stroke="orange" d="M314.35,-419.34C317.94,-415.24 321.07,-410.79 323.5,-406 330.94,-391.32 331.62,-373.04 330.25,-357.77"/>
<polygon fill="orange" stroke="orange" points="312.1,-416.65 307.52,-426.2 317.05,-421.59 312.1,-416.65"/>
</a>
</g>
<text text-anchor="middle" x="393.25" y="-390.5" font-family="Helvetica,sans-Serif" font-size="10.00" fill="grey"> &lt; SystemName, Signature &gt;</text>
</g>
<!-- Node9 -->
<g id="Node000009" class="node">
<title>Node9</title>
<g id="a_Node000009"><a xlink:title=" ">
<polygon fill="white" stroke="none" points="287,-594 272,-594 272,-542 287,-542 287,-594"/>
<text text-anchor="start" x="276.88" y="-580.5" font-family="Helvetica,sans-Serif" font-size="10.00">T</text>
<text text-anchor="start" x="278" y="-564.5" font-family="Helvetica,sans-Serif" font-size="10.00"> </text>
<text text-anchor="start" x="278" y="-548.5" font-family="Helvetica,sans-Serif" font-size="10.00"> </text>
<polygon fill="#666666" stroke="#666666" points="272,-576 272,-576 287,-576 287,-576 272,-576"/>
<polygon fill="#666666" stroke="#666666" points="272,-560 272,-560 287,-560 287,-560 272,-560"/>
<polygon fill="none" stroke="#666666" points="272,-542 272,-594 287,-594 287,-542 272,-542"/>
</a>
</g>
</g>
<!-- Node9&#45;&gt;Node8 -->
<g id="edge9_Node000008_Node000009" class="edge">
<title>Node9&#45;&gt;Node8</title>
<g id="a_edge9_Node000008_Node000009"><a xlink:title=" ">
<path fill="none" stroke="#63b8ff" d="M274.73,-542.04C272.38,-529.71 269.47,-514.48 266.77,-500.33"/>
<polygon fill="none" stroke="#63b8ff" points="266.79,-500.43 261.74,-495.28 264.54,-488.64 269.59,-493.78 266.79,-500.43"/>
</a>
</g>
<text text-anchor="middle" x="293.88" y="-508.5" font-family="Helvetica,sans-Serif" font-size="10.00" fill="grey"> +elements</text>
</g>
<!-- Node10&#45;&gt;Node1 -->
<g id="edge10_Node000001_Node000010" class="edge">
<title>Node10&#45;&gt;Node1</title>
<g id="a_edge10_Node000001_Node000010"><a xlink:title=" ">
<path fill="none" stroke="#63b8ff" d="M310.53,-294.02C305.07,-281.91 298.41,-267.15 291.31,-251.41"/>
<polygon fill="none" stroke="#63b8ff" points="291.38,-251.56 285.27,-247.73 286.45,-240.62 292.56,-244.45 291.38,-251.56"/>
</a>
</g>
<text text-anchor="middle" x="340" y="-260.5" font-family="Helvetica,sans-Serif" font-size="10.00" fill="grey"> #systemSignatures</text>
</g>
<!-- Node11 -->
<g id="Node000011" class="node">
<title>Node11</title>
<g id="a_Node000011"><a xlink:title=" ">
<polygon fill="white" stroke="none" points="540.5,-482 452.5,-482 452.5,-430 540.5,-430 540.5,-482"/>
<text text-anchor="start" x="457.12" y="-468.5" font-family="Helvetica,sans-Serif" font-size="10.00">std::bitset&lt; Bits &gt;</text>
<text text-anchor="start" x="495" y="-452.5" font-family="Helvetica,sans-Serif" font-size="10.00"> </text>
<text text-anchor="start" x="495" y="-436.5" font-family="Helvetica,sans-Serif" font-size="10.00"> </text>
<polygon fill="#666666" stroke="#666666" points="452.5,-464 452.5,-464 540.5,-464 540.5,-464 452.5,-464"/>
<polygon fill="#666666" stroke="#666666" points="452.5,-448 452.5,-448 540.5,-448 540.5,-448 452.5,-448"/>
<polygon fill="none" stroke="#666666" points="452.5,-430 452.5,-482 540.5,-482 540.5,-430 452.5,-430"/>
</a>
</g>
</g>
<!-- Node11&#45;&gt;Node10 -->
<g id="edge12_Node000010_Node000011" class="edge">
<title>Node11&#45;&gt;Node10</title>
<g id="a_edge12_Node000010_Node000011"><a xlink:title=" ">
<path fill="none" stroke="#63b8ff" d="M489.72,-430.18C484.32,-414.56 475.35,-394.97 461.5,-382 445.24,-366.77 424.22,-355.54 403.55,-347.35"/>
<polygon fill="none" stroke="#63b8ff" points="403.56,-347.35 396.55,-349.02 392.31,-343.18 399.33,-341.52 403.56,-347.35"/>
</a>
</g>
<text text-anchor="middle" x="502.88" y="-390.5" font-family="Helvetica,sans-Serif" font-size="10.00" fill="grey"> +elements</text>
</g>
</g>
</svg>

<g id="navigator" transform="translate(0 0)" fill="#404254">
  <rect fill="#f2f5e9" fill-opacity="0.5" stroke="#606060" stroke-width=".5" x="0" y="0" width="60" height="60"/>
  <use id="zoomplus" xlink:href="#zoomPlus" x="17" y="9" onmousedown="handleZoom(evt,'in')"/>
  <use id="zoomminus" xlink:href="#zoomMin" x="42" y="9" onmousedown="handleZoom(evt,'out')"/>
  <use id="reset" xlink:href="#resetDef" x="30" y="36" onmousedown="handleReset()"/>
   <use id="arrowup" xlink:href="#arrowUp" x="0" y="0" onmousedown="handlePan(0,-1)"/>
  <use id="arrowright" xlink:href="#arrowRight" x="0" y="0" onmousedown="handlePan(1,0)"/>
  <use id="arrowdown" xlink:href="#arrowDown" x="0" y="0" onmousedown="handlePan(0,1)"/>
  <use id="arrowleft" xlink:href="#arrowLeft" x="0" y="0" onmousedown="handlePan(-1,0)"/>
</g>
<svg viewBox="0 0 15 15" width="100%" height="30px" preserveAspectRatio="xMaxYMin meet">
 <g id="arrow_out" transform="scale(0.3 0.3)">
  <a xlink:href="class_g_l_e_s_c_1_1_e_c_s_1_1_system_manager__coll__graph_org.svg" target="_base">
   <rect id="button" ry="5" rx="5" y="6" x="6" height="38" width="38"
        fill="#f2f5e9" fill-opacity="0.5" stroke="#606060" stroke-width="1.0"/>
   <path id="arrow"
     d="M 11.500037,31.436501 C 11.940474,20.09759 22.043105,11.32322 32.158766,21.979434 L 37.068811,17.246167 C 37.068811,17.246167 37.088388,32 37.088388,32 L 22.160133,31.978069 C 22.160133,31.978069 26.997745,27.140456 26.997745,27.140456 C 18.528582,18.264221 13.291696,25.230495 11.500037,31.436501 z"
     style="fill:#404040;"/>
  </a>
 </g>
</svg>

<style type='text/css'>
<![CDATA[
[data-mouse-over-selected='false'] { opacity: 0.7; }
[data-mouse-over-selected='true']  { opacity: 1.0; }
]]>
</style>
<script type="application/ecmascript"><![CDATA[
document.addEventListener('DOMContentLoaded', (event) => {
  highlightEdges();
  highlightAdjacentNodes();
});
]]></script>
</svg>
