<?xml version="1.0" encoding="UTF-8" standalone="no"?>
<!DOCTYPE svg PUBLIC "-//W3C//DTD SVG 1.1//EN"
 "http://www.w3.org/Graphics/SVG/1.1/DTD/svg11.dtd">
<!-- Generated by graphviz version 11.0.0 (20240428.1522)
 -->
<!-- Title: GLESC::ECS::EntityManager::isEntityAlive Pages: 1 -->
<!--zoomable 190 -->

<svg id="main" version="1.1" xmlns="http://www.w3.org/2000/svg" xmlns:xlink="http://www.w3.org/1999/xlink" xml:space="preserve" onload="init(evt)">
<style type="text/css"><![CDATA[
.node, .edge {opacity: 0.7;}
.node.selected, .edge.selected {opacity: 1;}
.edge:hover path { stroke: red; }
.edge:hover polygon { stroke: red; fill: red; }
]]></style>

<defs>
  <circle id="rim" cx="0" cy="0" r="7"/>
  <circle id="rim2" cx="0" cy="0" r="3.5"/>
  <g id="zoomPlus">
    <use xlink:href="#rim" fill="#404040"><set attributeName="fill" to="#808080" begin="zoomplus.mouseover" end="zoomplus.mouseout"/></use>
    <path d="M-4,0h8M0,-4v8" fill="none" stroke="white" stroke-width="1.5" pointer-events="none"/>
  </g>
  <g id="zoomMin">
    <use xlink:href="#rim" fill="#404040"><set attributeName="fill" to="#808080" begin="zoomminus.mouseover" end="zoomminus.mouseout"/></use>
    <path d="M-4,0h8" fill="none" stroke="white" stroke-width="1.5" pointer-events="none"/>
  </g>
  <g id="arrowUp" transform="translate(30 24)">
    <use xlink:href="#rim"/>
    <path pointer-events="none" fill="none" stroke="white" stroke-width="1.5" d="M0,-3.0v7 M-2.5,-0.5L0,-3.0L2.5,-0.5"/>
  </g>
  <g id="arrowRight" transform="rotate(90) translate(36 -43)">
    <use xlink:href="#rim"/>
    <path pointer-events="none" fill="none" stroke="white" stroke-width="1.5" d="M0,-3.0v7 M-2.5,-0.5L0,-3.0L2.5,-0.5"/>
  </g>
  <g id="arrowDown" transform="rotate(180) translate(-30 -48)">
    <use xlink:href="#rim"/>
    <path pointer-events="none" fill="none" stroke="white" stroke-width="1.5" d="M0,-3.0v7 M-2.5,-0.5L0,-3.0L2.5,-0.5"/>
  </g>
  <g id="arrowLeft" transform="rotate(270) translate(-36 17)">
    <use xlink:href="#rim"/>
    <path pointer-events="none" fill="none" stroke="white" stroke-width="1.5" d="M0,-3.0v7 M-2.5,-0.5L0,-3.0L2.5,-0.5"/>
  </g>
  <g id="resetDef">
    <use xlink:href="#rim2" fill="#404040"><set attributeName="fill" to="#808080" begin="reset.mouseover" end="reset.mouseout"/></use>
  </g>
</defs>
<script type="application/ecmascript">
var viewWidth = 943;
var viewHeight = 190;
var sectionId = 'dynsection-25';
</script>
<script type="application/ecmascript" xlink:href="svg.min.js"/>
<svg id="graph" class="graph">
<g id="viewport">
<title>GLESC::ECS::EntityManager::isEntityAlive</title>
<!-- Node1 -->
<g id="Node000001" class="node">
<title>Node1</title>
<g id="a_Node000001"><a xlink:title="Check if the entity with the given ID is alive.">
<polygon fill="#999999" stroke="#666666" points="934.5,-107 790.25,-107 790.25,-75 934.5,-75 934.5,-107"/>
<text text-anchor="start" x="798.25" y="-93.5" font-family="Helvetica,sans-Serif" font-size="10.00">GLESC::ECS::EntityManager</text>
<text text-anchor="middle" x="862.38" y="-81.5" font-family="Helvetica,sans-Serif" font-size="10.00">::isEntityAlive</text>
</a>
</g>
</g>
<!-- Node2 -->
<g id="Node000002" class="node">
<title>Node2</title>
<g id="a_Node000002"><a xlink:href="class_g_l_e_s_c_1_1_e_c_s_1_1_entity_manager.html#a1a54b9843d83e416b479220d15f47230" target="_top" xlink:title="Destroy the entity with the given ID. The entity must exist.">
<polygon fill="white" stroke="#666666" points="750.88,-182 606.62,-182 606.62,-150 750.88,-150 750.88,-182"/>
<text text-anchor="start" x="614.62" y="-168.5" font-family="Helvetica,sans-Serif" font-size="10.00">GLESC::ECS::EntityManager</text>
<text text-anchor="middle" x="678.75" y="-156.5" font-family="Helvetica,sans-Serif" font-size="10.00">::destroyEntity</text>
</a>
</g>
</g>
<!-- Node1&#45;&gt;Node2 -->
<g id="edge1_Node000001_Node000002" class="edge">
<title>Node1&#45;&gt;Node2</title>
<g id="a_edge1_Node000001_Node000002"><a xlink:title=" ">
<path fill="none" stroke="#63b8ff" d="M818.63,-112.3C799.21,-121.63 775.8,-132.39 754.25,-141 746.9,-143.94 739.06,-146.83 731.32,-149.54"/>
<polygon fill="#63b8ff" stroke="#63b8ff" points="820.14,-115.46 827.61,-107.95 817.09,-109.16 820.14,-115.46"/>
</a>
</g>
</g>
<!-- Node7 -->
<g id="Node000007" class="node">
<title>Node7</title>
<g id="a_Node000007"><a xlink:href="class_g_l_e_s_c_1_1_e_c_s_1_1_entity_manager.html#a77367b7afcc6f27618cab7d49e504fb7" target="_top" xlink:title="Check if the entity with the given name is alive.">
<polygon fill="white" stroke="#666666" points="750.88,-132 606.62,-132 606.62,-100 750.88,-100 750.88,-132"/>
<text text-anchor="start" x="614.62" y="-118.5" font-family="Helvetica,sans-Serif" font-size="10.00">GLESC::ECS::EntityManager</text>
<text text-anchor="middle" x="678.75" y="-106.5" font-family="Helvetica,sans-Serif" font-size="10.00">::isEntityAlive</text>
</a>
</g>
</g>
<!-- Node1&#45;&gt;Node7 -->
<g id="edge6_Node000001_Node000007" class="edge">
<title>Node1&#45;&gt;Node7</title>
<g id="a_edge6_Node000001_Node000007"><a xlink:title=" ">
<path fill="none" stroke="#63b8ff" d="M778.73,-102.38C769.54,-103.64 760.24,-104.92 751.21,-106.16"/>
<polygon fill="#63b8ff" stroke="#63b8ff" points="778.92,-105.88 788.35,-101.05 777.97,-98.95 778.92,-105.88"/>
</a>
</g>
</g>
<!-- Node8 -->
<g id="Node000008" class="node">
<title>Node8</title>
<g id="a_Node000008"><a xlink:href="class_g_l_e_s_c_1_1_e_c_s_1_1_e_c_s_coordinator.html#a752199f3a60c3396f48873f904ec629e" target="_top" xlink:title=" ">
<polygon fill="white" stroke="#666666" points="754.25,-82 603.25,-82 603.25,-50 754.25,-50 754.25,-82"/>
<text text-anchor="start" x="611.25" y="-68.5" font-family="Helvetica,sans-Serif" font-size="10.00">GLESC::ECS::ECSCoordinator</text>
<text text-anchor="middle" x="678.75" y="-56.5" font-family="Helvetica,sans-Serif" font-size="10.00">::isEntityAlive</text>
</a>
</g>
</g>
<!-- Node1&#45;&gt;Node8 -->
<g id="edge7_Node000001_Node000008" class="edge">
<title>Node1&#45;&gt;Node8</title>
<g id="a_edge7_Node000001_Node000008"><a xlink:title=" ">
<path fill="none" stroke="#63b8ff" d="M778.58,-79.6C770.55,-78.5 762.44,-77.38 754.49,-76.29"/>
<polygon fill="#63b8ff" stroke="#63b8ff" points="777.97,-83.05 788.35,-80.95 778.92,-76.12 777.97,-83.05"/>
</a>
</g>
</g>
<!-- Node10 -->
<g id="Node000010" class="node">
<title>Node10</title>
<g id="a_Node000010"><a xlink:href="class_g_l_e_s_c_1_1_e_c_s_1_1_entity_manager.html#aa12eb5a78f90d23488324ee51e7dbd6c" target="_top" xlink:title="Remove a component from the entity. The entity must exist.">
<polygon fill="white" stroke="#666666" points="753.88,-32 603.62,-32 603.62,0 753.88,0 753.88,-32"/>
<text text-anchor="start" x="611.62" y="-18.5" font-family="Helvetica,sans-Serif" font-size="10.00">GLESC::ECS::EntityManager</text>
<text text-anchor="middle" x="678.75" y="-6.5" font-family="Helvetica,sans-Serif" font-size="10.00">::removeComponentFromEntity</text>
</a>
</g>
</g>
<!-- Node1&#45;&gt;Node10 -->
<g id="edge9_Node000001_Node000010" class="edge">
<title>Node1&#45;&gt;Node10</title>
<g id="a_edge9_Node000001_Node000010"><a xlink:title=" ">
<path fill="none" stroke="#63b8ff" d="M818.63,-69.7C799.21,-60.37 775.8,-49.61 754.25,-41 746.9,-38.06 739.06,-35.17 731.32,-32.46"/>
<polygon fill="#63b8ff" stroke="#63b8ff" points="817.09,-72.84 827.61,-74.05 820.14,-66.54 817.09,-72.84"/>
</a>
</g>
</g>
<!-- Node3 -->
<g id="Node000003" class="node">
<title>Node3</title>
<g id="a_Node000003"><a xlink:href="class_g_l_e_s_c_1_1_e_c_s_1_1_e_c_s_coordinator.html#a0fd4aa66232d93cfc50316d3093432ad" target="_top" xlink:title="Destroy an entity, destroying all the components and removing it from the systems.">
<polygon fill="white" stroke="#666666" points="567.25,-182 416.25,-182 416.25,-150 567.25,-150 567.25,-182"/>
<text text-anchor="start" x="424.25" y="-168.5" font-family="Helvetica,sans-Serif" font-size="10.00">GLESC::ECS::ECSCoordinator</text>
<text text-anchor="middle" x="491.75" y="-156.5" font-family="Helvetica,sans-Serif" font-size="10.00">::destroyEntity</text>
</a>
</g>
</g>
<!-- Node2&#45;&gt;Node3 -->
<g id="edge2_Node000002_Node000003" class="edge">
<title>Node2&#45;&gt;Node3</title>
<g id="a_edge2_Node000002_Node000003"><a xlink:title=" ">
<path fill="none" stroke="#63b8ff" d="M594.78,-166C585.68,-166 576.45,-166 567.45,-166"/>
<polygon fill="#63b8ff" stroke="#63b8ff" points="594.71,-169.5 604.71,-166 594.71,-162.5 594.71,-169.5"/>
</a>
</g>
</g>
<!-- Node4 -->
<g id="Node000004" class="node">
<title>Node4</title>
<g id="a_Node000004"><a xlink:href="class_g_l_e_s_c_1_1_e_c_s_1_1_e_c_s_coordinator.html#a8d5badb52aaa0afde587a347cbbd5de9" target="_top" xlink:title="Destroy all entities marked for destruction.">
<polygon fill="white" stroke="#666666" points="380.25,-182 229.25,-182 229.25,-150 380.25,-150 380.25,-182"/>
<text text-anchor="start" x="237.25" y="-168.5" font-family="Helvetica,sans-Serif" font-size="10.00">GLESC::ECS::ECSCoordinator</text>
<text text-anchor="middle" x="304.75" y="-156.5" font-family="Helvetica,sans-Serif" font-size="10.00">::destroyEntities</text>
</a>
</g>
</g>
<!-- Node3&#45;&gt;Node4 -->
<g id="edge3_Node000003_Node000004" class="edge">
<title>Node3&#45;&gt;Node4</title>
<g id="a_edge3_Node000003_Node000004"><a xlink:title=" ">
<path fill="none" stroke="#63b8ff" d="M404.51,-166C396.5,-166 388.43,-166 380.54,-166"/>
<polygon fill="#63b8ff" stroke="#63b8ff" points="404.26,-169.5 414.26,-166 404.26,-162.5 404.26,-169.5"/>
</a>
</g>
</g>
<!-- Node5 -->
<g id="Node000005" class="node">
<title>Node5</title>
<g id="a_Node000005"><a xlink:href="class_g_l_e_s_c_1_1_engine.html#ad2ff110d5a86c1cd60b541d65915ac48" target="_top" xlink:title="Processes the logic of the game Is called every frame, must be called at constant intervals of time a...">
<polygon fill="white" stroke="#666666" points="193.25,-176 73,-176 73,-156 193.25,-156 193.25,-176"/>
<text text-anchor="middle" x="133.12" y="-162.5" font-family="Helvetica,sans-Serif" font-size="10.00">GLESC::Engine::update</text>
</a>
</g>
</g>
<!-- Node4&#45;&gt;Node5 -->
<g id="edge4_Node000004_Node000005" class="edge">
<title>Node4&#45;&gt;Node5</title>
<g id="a_edge4_Node000004_Node000005"><a xlink:title=" ">
<path fill="none" stroke="#63b8ff" d="M217.46,-166C209.39,-166 201.34,-166 193.6,-166"/>
<polygon fill="#63b8ff" stroke="#63b8ff" points="217.34,-169.5 227.34,-166 217.34,-162.5 217.34,-169.5"/>
</a>
</g>
</g>
<!-- Node6 -->
<g id="Node000006" class="node">
<title>Node6</title>
<g id="a_Node000006"><a xlink:href="main_8cpp.html#a0ddf1224851353fc92bfbff6f499fa97" target="_top" xlink:title=" ">
<polygon fill="white" stroke="#666666" points="37,-176 0,-176 0,-156 37,-156 37,-176"/>
<text text-anchor="middle" x="18.5" y="-162.5" font-family="Helvetica,sans-Serif" font-size="10.00">main</text>
</a>
</g>
</g>
<!-- Node5&#45;&gt;Node6 -->
<g id="edge5_Node000005_Node000006" class="edge">
<title>Node5&#45;&gt;Node6</title>
<g id="a_edge5_Node000005_Node000006"><a xlink:title=" ">
<path fill="none" stroke="#63b8ff" d="M61.18,-166C52.39,-166 44.11,-166 37.29,-166"/>
<polygon fill="#63b8ff" stroke="#63b8ff" points="61,-169.5 71,-166 61,-162.5 61,-169.5"/>
</a>
</g>
</g>
<!-- Node9 -->
<g id="Node000009" class="node">
<title>Node9</title>
<g id="a_Node000009"><a xlink:href="class_g_l_e_s_c_1_1_e_c_s_1_1_entity.html#abadcf5fb781cafa3a9779091e210b96f" target="_top" xlink:title="Checks if the entity is alive (if the ID of the entity is valid)">
<polygon fill="white" stroke="#666666" points="545.12,-82 438.38,-82 438.38,-50 545.12,-50 545.12,-82"/>
<text text-anchor="start" x="446.38" y="-68.5" font-family="Helvetica,sans-Serif" font-size="10.00">GLESC::ECS::Entity</text>
<text text-anchor="middle" x="491.75" y="-56.5" font-family="Helvetica,sans-Serif" font-size="10.00">::isAlive</text>
</a>
</g>
</g>
<!-- Node8&#45;&gt;Node9 -->
<g id="edge8_Node000008_Node000009" class="edge">
<title>Node8&#45;&gt;Node9</title>
<g id="a_edge8_Node000008_Node000009"><a xlink:title=" ">
<path fill="none" stroke="#63b8ff" d="M591.41,-66C575.71,-66 559.78,-66 545.42,-66"/>
<polygon fill="#63b8ff" stroke="#63b8ff" points="591.26,-69.5 601.26,-66 591.26,-62.5 591.26,-69.5"/>
</a>
</g>
</g>
<!-- Node11 -->
<g id="Node000011" class="node">
<title>Node11</title>
<g id="a_Node000011"><a xlink:href="class_g_l_e_s_c_1_1_e_c_s_1_1_e_c_s_coordinator.html#af2a3fb9a4f78b71f602de7f29bd7446f" target="_top" xlink:title="Remove a component from an entity.">
<polygon fill="white" stroke="#666666" points="567.25,-32 416.25,-32 416.25,0 567.25,0 567.25,-32"/>
<text text-anchor="start" x="424.25" y="-18.5" font-family="Helvetica,sans-Serif" font-size="10.00">GLESC::ECS::ECSCoordinator</text>
<text text-anchor="middle" x="491.75" y="-6.5" font-family="Helvetica,sans-Serif" font-size="10.00">::removeComponent</text>
</a>
</g>
</g>
<!-- Node10&#45;&gt;Node11 -->
<g id="edge10_Node000010_Node000011" class="edge">
<title>Node10&#45;&gt;Node11</title>
<g id="a_edge10_Node000010_Node000011"><a xlink:title=" ">
<path fill="none" stroke="#63b8ff" d="M591.92,-16C583.81,-16 575.64,-16 567.65,-16"/>
<polygon fill="#63b8ff" stroke="#63b8ff" points="591.79,-19.5 601.79,-16 591.79,-12.5 591.79,-19.5"/>
</a>
</g>
</g>
<!-- Node12 -->
<g id="Node000012" class="node">
<title>Node12</title>
<g id="a_Node000012"><a xlink:href="class_g_l_e_s_c_1_1_e_c_s_1_1_entity.html#a1ea00349d7b9b4eff7df34a75d2d64dd" target="_top" xlink:title="Removes a component from the entity The entity signature is updated to reflect the removed component.">
<polygon fill="white" stroke="#666666" points="358.12,-32 251.38,-32 251.38,0 358.12,0 358.12,-32"/>
<text text-anchor="start" x="259.38" y="-18.5" font-family="Helvetica,sans-Serif" font-size="10.00">GLESC::ECS::Entity</text>
<text text-anchor="middle" x="304.75" y="-6.5" font-family="Helvetica,sans-Serif" font-size="10.00">::removeComponent</text>
</a>
</g>
</g>
<!-- Node11&#45;&gt;Node12 -->
<g id="edge11_Node000011_Node000012" class="edge">
<title>Node11&#45;&gt;Node12</title>
<g id="a_edge11_Node000011_Node000012"><a xlink:title=" ">
<path fill="none" stroke="#63b8ff" d="M404.41,-16C388.71,-16 372.78,-16 358.42,-16"/>
<polygon fill="#63b8ff" stroke="#63b8ff" points="404.26,-19.5 414.26,-16 404.26,-12.5 404.26,-19.5"/>
</a>
</g>
</g>
</g>
</svg>

<g id="navigator" transform="translate(0 0)" fill="#404254">
  <rect fill="#f2f5e9" fill-opacity="0.5" stroke="#606060" stroke-width=".5" x="0" y="0" width="60" height="60"/>
  <use id="zoomplus" xlink:href="#zoomPlus" x="17" y="9" onmousedown="handleZoom(evt,'in')"/>
  <use id="zoomminus" xlink:href="#zoomMin" x="42" y="9" onmousedown="handleZoom(evt,'out')"/>
  <use id="reset" xlink:href="#resetDef" x="30" y="36" onmousedown="handleReset()"/>
   <use id="arrowup" xlink:href="#arrowUp" x="0" y="0" onmousedown="handlePan(0,-1)"/>
  <use id="arrowright" xlink:href="#arrowRight" x="0" y="0" onmousedown="handlePan(1,0)"/>
  <use id="arrowdown" xlink:href="#arrowDown" x="0" y="0" onmousedown="handlePan(0,1)"/>
  <use id="arrowleft" xlink:href="#arrowLeft" x="0" y="0" onmousedown="handlePan(-1,0)"/>
</g>
<svg viewBox="0 0 15 15" width="100%" height="30px" preserveAspectRatio="xMaxYMin meet">
 <g id="arrow_out" transform="scale(0.3 0.3)">
  <a xlink:href="class_g_l_e_s_c_1_1_e_c_s_1_1_entity_manager_af174dceb6b3d4ec490f5812ba128dd51_icgraph_org.svg" target="_base">
   <rect id="button" ry="5" rx="5" y="6" x="6" height="38" width="38"
        fill="#f2f5e9" fill-opacity="0.5" stroke="#606060" stroke-width="1.0"/>
   <path id="arrow"
     d="M 11.500037,31.436501 C 11.940474,20.09759 22.043105,11.32322 32.158766,21.979434 L 37.068811,17.246167 C 37.068811,17.246167 37.088388,32 37.088388,32 L 22.160133,31.978069 C 22.160133,31.978069 26.997745,27.140456 26.997745,27.140456 C 18.528582,18.264221 13.291696,25.230495 11.500037,31.436501 z"
     style="fill:#404040;"/>
  </a>
 </g>
</svg>

<style type='text/css'>
<![CDATA[
[data-mouse-over-selected='false'] { opacity: 0.7; }
[data-mouse-over-selected='true']  { opacity: 1.0; }
]]>
</style>
<script type="application/ecmascript"><![CDATA[
document.addEventListener('DOMContentLoaded', (event) => {
  highlightEdges();
  highlightAdjacentNodes();
});
]]></script>
</svg>
