<?xml version="1.0" encoding="UTF-8" standalone="no"?>
<!DOCTYPE svg PUBLIC "-//W3C//DTD SVG 1.1//EN"
 "http://www.w3.org/Graphics/SVG/1.1/DTD/svg11.dtd">
<!-- Generated by graphviz version 11.0.0 (20240428.1522)
 -->
<!-- Title: ILogger Pages: 1 -->
<svg width="367pt" height="644pt"
 viewBox="0.00 0.00 367.00 644.00" xmlns="http://www.w3.org/2000/svg" xmlns:xlink="http://www.w3.org/1999/xlink">
<g id="graph0" class="graph" transform="scale(1 1) rotate(0) translate(4 640)">
<title>ILogger</title>
<!-- Node1 -->
<g id="Node000001" class="node">
<title>Node1</title>
<g id="a_Node000001"><a xlink:title=" ">
<polygon fill="#999999" stroke="none" points="233,-636 126,-636 126,-376 233,-376 233,-636"/>
<text text-anchor="start" x="163.75" y="-622.5" font-family="Helvetica,sans-Serif" font-size="10.00">ILogger</text>
<text text-anchor="start" x="178" y="-606.5" font-family="Helvetica,sans-Serif" font-size="10.00"> </text>
<text text-anchor="start" x="130" y="-590.5" font-family="Helvetica,sans-Serif" font-size="10.00">+</text>
<text text-anchor="start" x="140" y="-590.5" font-family="Helvetica,sans-Serif" font-size="10.00">~ILogger()</text>
<text text-anchor="start" x="130" y="-574.5" font-family="Helvetica,sans-Serif" font-size="10.00">+</text>
<text text-anchor="start" x="140" y="-574.5" font-family="Helvetica,sans-Serif" font-size="10.00">error()</text>
<text text-anchor="start" x="130" y="-558.5" font-family="Helvetica,sans-Serif" font-size="10.00">+</text>
<text text-anchor="start" x="140" y="-558.5" font-family="Helvetica,sans-Serif" font-size="10.00">importantInfo()</text>
<text text-anchor="start" x="130" y="-542.5" font-family="Helvetica,sans-Serif" font-size="10.00">+</text>
<text text-anchor="start" x="140" y="-542.5" font-family="Helvetica,sans-Serif" font-size="10.00">importantInfoBlue()</text>
<text text-anchor="start" x="130" y="-526.5" font-family="Helvetica,sans-Serif" font-size="10.00">+</text>
<text text-anchor="start" x="140" y="-526.5" font-family="Helvetica,sans-Serif" font-size="10.00">importantInfoPurple()</text>
<text text-anchor="start" x="130" y="-510.5" font-family="Helvetica,sans-Serif" font-size="10.00">+</text>
<text text-anchor="start" x="140" y="-510.5" font-family="Helvetica,sans-Serif" font-size="10.00">importantInfoWhite()</text>
<text text-anchor="start" x="130" y="-494.5" font-family="Helvetica,sans-Serif" font-size="10.00">+</text>
<text text-anchor="start" x="140" y="-494.5" font-family="Helvetica,sans-Serif" font-size="10.00">importantSuccess()</text>
<text text-anchor="start" x="130" y="-478.5" font-family="Helvetica,sans-Serif" font-size="10.00">+</text>
<text text-anchor="start" x="140" y="-478.5" font-family="Helvetica,sans-Serif" font-size="10.00">info()</text>
<text text-anchor="start" x="130" y="-462.5" font-family="Helvetica,sans-Serif" font-size="10.00">+</text>
<text text-anchor="start" x="140" y="-462.5" font-family="Helvetica,sans-Serif" font-size="10.00">infoBlue()</text>
<text text-anchor="start" x="130" y="-446.5" font-family="Helvetica,sans-Serif" font-size="10.00">+</text>
<text text-anchor="start" x="140" y="-446.5" font-family="Helvetica,sans-Serif" font-size="10.00">infoPurple()</text>
<text text-anchor="start" x="130" y="-430.5" font-family="Helvetica,sans-Serif" font-size="10.00">+</text>
<text text-anchor="start" x="140" y="-430.5" font-family="Helvetica,sans-Serif" font-size="10.00">log()</text>
<text text-anchor="start" x="130" y="-414.5" font-family="Helvetica,sans-Serif" font-size="10.00">+</text>
<text text-anchor="start" x="140" y="-414.5" font-family="Helvetica,sans-Serif" font-size="10.00">nonImportantInfo()</text>
<text text-anchor="start" x="130" y="-398.5" font-family="Helvetica,sans-Serif" font-size="10.00">+</text>
<text text-anchor="start" x="140" y="-398.5" font-family="Helvetica,sans-Serif" font-size="10.00">success()</text>
<text text-anchor="start" x="130" y="-382.5" font-family="Helvetica,sans-Serif" font-size="10.00">+</text>
<text text-anchor="start" x="140" y="-382.5" font-family="Helvetica,sans-Serif" font-size="10.00">warning()</text>
<polygon fill="#666666" stroke="#666666" points="126,-618 126,-618 233,-618 233,-618 126,-618"/>
<polygon fill="#666666" stroke="#666666" points="126,-602 126,-602 233,-602 233,-602 126,-602"/>
<polygon fill="none" stroke="#666666" points="126,-376 126,-636 233,-636 233,-376 126,-376"/>
</a>
</g>
</g>
<!-- Node2 -->
<g id="Node000002" class="node">
<title>Node2</title>
<g id="a_Node000002"><a xlink:href="class_file_logger.html" target="_top" xlink:title=" ">
<polygon fill="white" stroke="none" points="107,-316 0,-316 0,-24 107,-24 107,-316"/>
<text text-anchor="start" x="31" y="-302.5" font-family="Helvetica,sans-Serif" font-size="10.00">FileLogger</text>
<text text-anchor="start" x="5.5" y="-286.5" font-family="Helvetica,sans-Serif" font-size="10.00">&#45;</text>
<text text-anchor="start" x="14" y="-286.5" font-family="Helvetica,sans-Serif" font-size="10.00">logFile</text>
<text text-anchor="start" x="4" y="-270.5" font-family="Helvetica,sans-Serif" font-size="10.00">+</text>
<text text-anchor="start" x="14" y="-270.5" font-family="Helvetica,sans-Serif" font-size="10.00">FileLogger()</text>
<text text-anchor="start" x="4" y="-254.5" font-family="Helvetica,sans-Serif" font-size="10.00">+</text>
<text text-anchor="start" x="14" y="-254.5" font-family="Helvetica,sans-Serif" font-size="10.00">~FileLogger()</text>
<text text-anchor="start" x="4" y="-238.5" font-family="Helvetica,sans-Serif" font-size="10.00">+</text>
<text text-anchor="start" x="14" y="-238.5" font-family="Helvetica,sans-Serif" font-size="10.00">error()</text>
<text text-anchor="start" x="4" y="-222.5" font-family="Helvetica,sans-Serif" font-size="10.00">+</text>
<text text-anchor="start" x="14" y="-222.5" font-family="Helvetica,sans-Serif" font-size="10.00">importantInfo()</text>
<text text-anchor="start" x="4" y="-206.5" font-family="Helvetica,sans-Serif" font-size="10.00">+</text>
<text text-anchor="start" x="14" y="-206.5" font-family="Helvetica,sans-Serif" font-size="10.00">importantInfoBlue()</text>
<text text-anchor="start" x="4" y="-190.5" font-family="Helvetica,sans-Serif" font-size="10.00">+</text>
<text text-anchor="start" x="14" y="-190.5" font-family="Helvetica,sans-Serif" font-size="10.00">importantInfoPurple()</text>
<text text-anchor="start" x="4" y="-174.5" font-family="Helvetica,sans-Serif" font-size="10.00">+</text>
<text text-anchor="start" x="14" y="-174.5" font-family="Helvetica,sans-Serif" font-size="10.00">importantInfoWhite()</text>
<text text-anchor="start" x="4" y="-158.5" font-family="Helvetica,sans-Serif" font-size="10.00">+</text>
<text text-anchor="start" x="14" y="-158.5" font-family="Helvetica,sans-Serif" font-size="10.00">importantSuccess()</text>
<text text-anchor="start" x="4" y="-142.5" font-family="Helvetica,sans-Serif" font-size="10.00">+</text>
<text text-anchor="start" x="14" y="-142.5" font-family="Helvetica,sans-Serif" font-size="10.00">info()</text>
<text text-anchor="start" x="4" y="-126.5" font-family="Helvetica,sans-Serif" font-size="10.00">+</text>
<text text-anchor="start" x="14" y="-126.5" font-family="Helvetica,sans-Serif" font-size="10.00">infoBlue()</text>
<text text-anchor="start" x="4" y="-110.5" font-family="Helvetica,sans-Serif" font-size="10.00">+</text>
<text text-anchor="start" x="14" y="-110.5" font-family="Helvetica,sans-Serif" font-size="10.00">infoPurple()</text>
<text text-anchor="start" x="4" y="-94.5" font-family="Helvetica,sans-Serif" font-size="10.00">+</text>
<text text-anchor="start" x="14" y="-94.5" font-family="Helvetica,sans-Serif" font-size="10.00">log()</text>
<text text-anchor="start" x="4" y="-78.5" font-family="Helvetica,sans-Serif" font-size="10.00">+</text>
<text text-anchor="start" x="14" y="-78.5" font-family="Helvetica,sans-Serif" font-size="10.00">nonImportantInfo()</text>
<text text-anchor="start" x="4" y="-62.5" font-family="Helvetica,sans-Serif" font-size="10.00">+</text>
<text text-anchor="start" x="14" y="-62.5" font-family="Helvetica,sans-Serif" font-size="10.00">success()</text>
<text text-anchor="start" x="4" y="-46.5" font-family="Helvetica,sans-Serif" font-size="10.00">+</text>
<text text-anchor="start" x="14" y="-46.5" font-family="Helvetica,sans-Serif" font-size="10.00">warning()</text>
<text text-anchor="start" x="5.5" y="-30.5" font-family="Helvetica,sans-Serif" font-size="10.00">&#45;</text>
<text text-anchor="start" x="14" y="-30.5" font-family="Helvetica,sans-Serif" font-size="10.00">clearFileContent()</text>
<polygon fill="#666666" stroke="#666666" points="0,-298 0,-298 107,-298 107,-298 0,-298"/>
<polygon fill="#666666" stroke="#666666" points="0,-282 0,-282 12,-282 12,-282 0,-282"/>
<polygon fill="#666666" stroke="#666666" points="12,-282 12,-282 107,-282 107,-282 12,-282"/>
<polygon fill="none" stroke="#666666" points="0,-24 0,-316 107,-316 107,-24 0,-24"/>
</a>
</g>
</g>
<!-- Node1&#45;&gt;Node2 -->
<g id="edge1_Node000001_Node000002" class="edge">
<title>Node1&#45;&gt;Node2</title>
<g id="a_edge1_Node000001_Node000002"><a xlink:title=" ">
<path fill="none" stroke="#63b8ff" d="M126.2,-365.63C122.91,-356.96 119.66,-348.36 116.5,-340 113.35,-331.65 110.12,-323.07 106.87,-314.4"/>
<polygon fill="none" stroke="#63b8ff" points="122.86,-366.71 129.68,-374.82 129.41,-364.22 122.86,-366.71"/>
</a>
</g>
</g>
<!-- Node3 -->
<g id="Node000003" class="node">
<title>Node3</title>
<g id="a_Node000003"><a xlink:href="class_g_l_e_s_c_1_1_logger.html" target="_top" xlink:title=" ">
<polygon fill="white" stroke="none" points="233.5,-340 125.5,-340 125.5,0 233.5,0 233.5,-340"/>
<text text-anchor="start" x="145.38" y="-326.5" font-family="Helvetica,sans-Serif" font-size="10.00">GLESC::Logger</text>
<text text-anchor="start" x="131" y="-310.5" font-family="Helvetica,sans-Serif" font-size="10.00">&#45;</text>
<text text-anchor="start" x="139.5" y="-310.5" font-family="Helvetica,sans-Serif" font-size="10.00">done_</text>
<text text-anchor="start" x="131" y="-294.5" font-family="Helvetica,sans-Serif" font-size="10.00">&#45;</text>
<text text-anchor="start" x="139.5" y="-294.5" font-family="Helvetica,sans-Serif" font-size="10.00">loggers</text>
<text text-anchor="start" x="131" y="-278.5" font-family="Helvetica,sans-Serif" font-size="10.00">&#45;</text>
<text text-anchor="start" x="139.5" y="-278.5" font-family="Helvetica,sans-Serif" font-size="10.00">mutex_</text>
<text text-anchor="start" x="131" y="-262.5" font-family="Helvetica,sans-Serif" font-size="10.00">&#45;</text>
<text text-anchor="start" x="139.5" y="-262.5" font-family="Helvetica,sans-Serif" font-size="10.00">queue_</text>
<text text-anchor="start" x="131" y="-246.5" font-family="Helvetica,sans-Serif" font-size="10.00">&#45;</text>
<text text-anchor="start" x="139.5" y="-246.5" font-family="Helvetica,sans-Serif" font-size="10.00">worker_</text>
<text text-anchor="start" x="129.5" y="-230.5" font-family="Helvetica,sans-Serif" font-size="10.00">+</text>
<text text-anchor="start" x="139.5" y="-230.5" font-family="Helvetica,sans-Serif" font-size="10.00">Logger()</text>
<text text-anchor="start" x="129.5" y="-214.5" font-family="Helvetica,sans-Serif" font-size="10.00">+</text>
<text text-anchor="start" x="139.5" y="-214.5" font-family="Helvetica,sans-Serif" font-size="10.00">addLogger()</text>
<text text-anchor="start" x="129.5" y="-198.5" font-family="Helvetica,sans-Serif" font-size="10.00">+</text>
<text text-anchor="start" x="139.5" y="-198.5" font-family="Helvetica,sans-Serif" font-size="10.00">error()</text>
<text text-anchor="start" x="129.5" y="-182.5" font-family="Helvetica,sans-Serif" font-size="10.00">+</text>
<text text-anchor="start" x="139.5" y="-182.5" font-family="Helvetica,sans-Serif" font-size="10.00">executeOnAllInputs()</text>
<text text-anchor="start" x="129.5" y="-166.5" font-family="Helvetica,sans-Serif" font-size="10.00">+</text>
<text text-anchor="start" x="139.5" y="-166.5" font-family="Helvetica,sans-Serif" font-size="10.00">importantInfo()</text>
<text text-anchor="start" x="129.5" y="-150.5" font-family="Helvetica,sans-Serif" font-size="10.00">+</text>
<text text-anchor="start" x="139.5" y="-150.5" font-family="Helvetica,sans-Serif" font-size="10.00">importantInfoBlue()</text>
<text text-anchor="start" x="129.5" y="-134.5" font-family="Helvetica,sans-Serif" font-size="10.00">+</text>
<text text-anchor="start" x="139.5" y="-134.5" font-family="Helvetica,sans-Serif" font-size="10.00">importantInfoPurple()</text>
<text text-anchor="start" x="129.5" y="-118.5" font-family="Helvetica,sans-Serif" font-size="10.00">+</text>
<text text-anchor="start" x="139.5" y="-118.5" font-family="Helvetica,sans-Serif" font-size="10.00">importantInfoWhite()</text>
<text text-anchor="start" x="129.5" y="-102.5" font-family="Helvetica,sans-Serif" font-size="10.00">+</text>
<text text-anchor="start" x="139.5" y="-102.5" font-family="Helvetica,sans-Serif" font-size="10.00">importantSuccess()</text>
<text text-anchor="start" x="129.5" y="-86.5" font-family="Helvetica,sans-Serif" font-size="10.00">+</text>
<text text-anchor="start" x="139.5" y="-86.5" font-family="Helvetica,sans-Serif" font-size="10.00">info()</text>
<text text-anchor="start" x="139.5" y="-70.5" font-family="Helvetica,sans-Serif" font-size="10.00">and 7 more...</text>
<text text-anchor="start" x="129.5" y="-54.5" font-family="Helvetica,sans-Serif" font-size="10.00">+</text>
<text text-anchor="start" x="139.5" y="-54.5" font-family="Helvetica,sans-Serif" font-size="10.00">get()</text>
<text text-anchor="start" x="131" y="-38.5" font-family="Helvetica,sans-Serif" font-size="10.00">&#45;</text>
<text text-anchor="start" x="139.5" y="-38.5" font-family="Helvetica,sans-Serif" font-size="10.00">Logger()</text>
<text text-anchor="start" x="131" y="-22.5" font-family="Helvetica,sans-Serif" font-size="10.00">&#45;</text>
<text text-anchor="start" x="139.5" y="-22.5" font-family="Helvetica,sans-Serif" font-size="10.00">~Logger()</text>
<text text-anchor="start" x="131" y="-6.5" font-family="Helvetica,sans-Serif" font-size="10.00">&#45;</text>
<text text-anchor="start" x="139.5" y="-6.5" font-family="Helvetica,sans-Serif" font-size="10.00">processQueue()</text>
<polygon fill="#666666" stroke="#666666" points="125.5,-322 125.5,-322 233.5,-322 233.5,-322 125.5,-322"/>
<polygon fill="#666666" stroke="#666666" points="125.5,-242 125.5,-242 137.5,-242 137.5,-242 125.5,-242"/>
<polygon fill="#666666" stroke="#666666" points="137.5,-242 137.5,-242 233.5,-242 233.5,-242 137.5,-242"/>
<polygon fill="none" stroke="#666666" points="125.5,0 125.5,-340 233.5,-340 233.5,0 125.5,0"/>
</a>
</g>
</g>
<!-- Node1&#45;&gt;Node3 -->
<g id="edge2_Node000001_Node000003" class="edge">
<title>Node1&#45;&gt;Node3</title>
<g id="a_edge2_Node000001_Node000003"><a xlink:title=" ">
<path fill="none" stroke="#63b8ff" d="M179.5,-365.07C179.5,-356.76 179.5,-348.35 179.5,-339.94"/>
<polygon fill="none" stroke="#63b8ff" points="176,-364.83 179.5,-374.83 183,-364.83 176,-364.83"/>
</a>
</g>
</g>
<!-- Node4 -->
<g id="Node000004" class="node">
<title>Node4</title>
<g id="a_Node000004"><a xlink:href="class_terminal_logger.html" target="_top" xlink:title=" ">
<polygon fill="white" stroke="none" points="359,-300 252,-300 252,-40 359,-40 359,-300"/>
<text text-anchor="start" x="272.5" y="-286.5" font-family="Helvetica,sans-Serif" font-size="10.00">TerminalLogger</text>
<text text-anchor="start" x="304" y="-270.5" font-family="Helvetica,sans-Serif" font-size="10.00"> </text>
<text text-anchor="start" x="256" y="-254.5" font-family="Helvetica,sans-Serif" font-size="10.00">+</text>
<text text-anchor="start" x="266" y="-254.5" font-family="Helvetica,sans-Serif" font-size="10.00">TerminalLogger()</text>
<text text-anchor="start" x="256" y="-238.5" font-family="Helvetica,sans-Serif" font-size="10.00">+</text>
<text text-anchor="start" x="266" y="-238.5" font-family="Helvetica,sans-Serif" font-size="10.00">error()</text>
<text text-anchor="start" x="256" y="-222.5" font-family="Helvetica,sans-Serif" font-size="10.00">+</text>
<text text-anchor="start" x="266" y="-222.5" font-family="Helvetica,sans-Serif" font-size="10.00">importantInfo()</text>
<text text-anchor="start" x="256" y="-206.5" font-family="Helvetica,sans-Serif" font-size="10.00">+</text>
<text text-anchor="start" x="266" y="-206.5" font-family="Helvetica,sans-Serif" font-size="10.00">importantInfoBlue()</text>
<text text-anchor="start" x="256" y="-190.5" font-family="Helvetica,sans-Serif" font-size="10.00">+</text>
<text text-anchor="start" x="266" y="-190.5" font-family="Helvetica,sans-Serif" font-size="10.00">importantInfoPurple()</text>
<text text-anchor="start" x="256" y="-174.5" font-family="Helvetica,sans-Serif" font-size="10.00">+</text>
<text text-anchor="start" x="266" y="-174.5" font-family="Helvetica,sans-Serif" font-size="10.00">importantInfoWhite()</text>
<text text-anchor="start" x="256" y="-158.5" font-family="Helvetica,sans-Serif" font-size="10.00">+</text>
<text text-anchor="start" x="266" y="-158.5" font-family="Helvetica,sans-Serif" font-size="10.00">importantSuccess()</text>
<text text-anchor="start" x="256" y="-142.5" font-family="Helvetica,sans-Serif" font-size="10.00">+</text>
<text text-anchor="start" x="266" y="-142.5" font-family="Helvetica,sans-Serif" font-size="10.00">info()</text>
<text text-anchor="start" x="256" y="-126.5" font-family="Helvetica,sans-Serif" font-size="10.00">+</text>
<text text-anchor="start" x="266" y="-126.5" font-family="Helvetica,sans-Serif" font-size="10.00">infoBlue()</text>
<text text-anchor="start" x="256" y="-110.5" font-family="Helvetica,sans-Serif" font-size="10.00">+</text>
<text text-anchor="start" x="266" y="-110.5" font-family="Helvetica,sans-Serif" font-size="10.00">infoPurple()</text>
<text text-anchor="start" x="256" y="-94.5" font-family="Helvetica,sans-Serif" font-size="10.00">+</text>
<text text-anchor="start" x="266" y="-94.5" font-family="Helvetica,sans-Serif" font-size="10.00">log()</text>
<text text-anchor="start" x="256" y="-78.5" font-family="Helvetica,sans-Serif" font-size="10.00">+</text>
<text text-anchor="start" x="266" y="-78.5" font-family="Helvetica,sans-Serif" font-size="10.00">nonImportantInfo()</text>
<text text-anchor="start" x="256" y="-62.5" font-family="Helvetica,sans-Serif" font-size="10.00">+</text>
<text text-anchor="start" x="266" y="-62.5" font-family="Helvetica,sans-Serif" font-size="10.00">success()</text>
<text text-anchor="start" x="256" y="-46.5" font-family="Helvetica,sans-Serif" font-size="10.00">+</text>
<text text-anchor="start" x="266" y="-46.5" font-family="Helvetica,sans-Serif" font-size="10.00">warning()</text>
<polygon fill="#666666" stroke="#666666" points="252,-282 252,-282 359,-282 359,-282 252,-282"/>
<polygon fill="#666666" stroke="#666666" points="252,-266 252,-266 359,-266 359,-266 252,-266"/>
<polygon fill="none" stroke="#666666" points="252,-40 252,-300 359,-300 359,-40 252,-40"/>
</a>
</g>
</g>
<!-- Node1&#45;&gt;Node4 -->
<g id="edge3_Node000001_Node000004" class="edge">
<title>Node1&#45;&gt;Node4</title>
<g id="a_edge3_Node000001_Node000004"><a xlink:title=" ">
<path fill="none" stroke="#63b8ff" d="M232.8,-365.63C236.09,-356.96 239.34,-348.36 242.5,-340 247.42,-326.96 252.53,-313.35 257.62,-299.76"/>
<polygon fill="none" stroke="#63b8ff" points="229.59,-364.22 229.32,-374.82 236.14,-366.71 229.59,-364.22"/>
</a>
</g>
</g>
</g>
</svg>
