<?xml version="1.0" encoding="UTF-8" standalone="no"?>
<!DOCTYPE svg PUBLIC "-//W3C//DTD SVG 1.1//EN"
 "http://www.w3.org/Graphics/SVG/1.1/DTD/svg11.dtd">
<!-- Generated by graphviz version 11.0.0 (20240428.1522)
 -->
<!-- Title: GLESC::Input::InputManager::lerpMousePos Pages: 1 -->
<svg width="581pt" height="40pt"
 viewBox="0.00 0.00 580.50 40.00" xmlns="http://www.w3.org/2000/svg" xmlns:xlink="http://www.w3.org/1999/xlink">
<g id="graph0" class="graph" transform="scale(1 1) rotate(0) translate(4 36)">
<title>GLESC::Input::InputManager::lerpMousePos</title>
<!-- Node1 -->
<g id="Node000001" class="node">
<title>Node1</title>
<g id="a_Node000001"><a xlink:title="Linearly interpolates the mouse position to smooth out the mouse movement.">
<polygon fill="#999999" stroke="#666666" points="572.5,-32 432,-32 432,0 572.5,0 572.5,-32"/>
<text text-anchor="start" x="440" y="-18.5" font-family="Helvetica,sans-Serif" font-size="10.00">GLESC::Input::InputManager</text>
<text text-anchor="middle" x="502.25" y="-6.5" font-family="Helvetica,sans-Serif" font-size="10.00">::lerpMousePos</text>
</a>
</g>
</g>
<!-- Node2 -->
<g id="Node000002" class="node">
<title>Node2</title>
<g id="a_Node000002"><a xlink:href="class_g_l_e_s_c_1_1_input_1_1_input_manager.html#a2088e82ea6410ae3534a4fb8f7a0d891" target="_top" xlink:title="Updates the input manager by processing the current input state.">
<polygon fill="white" stroke="#666666" points="396,-32 255.5,-32 255.5,0 396,0 396,-32"/>
<text text-anchor="start" x="263.5" y="-18.5" font-family="Helvetica,sans-Serif" font-size="10.00">GLESC::Input::InputManager</text>
<text text-anchor="middle" x="325.75" y="-6.5" font-family="Helvetica,sans-Serif" font-size="10.00">::update</text>
</a>
</g>
</g>
<!-- Node1&#45;&gt;Node2 -->
<g id="edge1_Node000001_Node000002" class="edge">
<title>Node1&#45;&gt;Node2</title>
<g id="a_edge1_Node000001_Node000002"><a xlink:title=" ">
<path fill="none" stroke="#63b8ff" d="M420.02,-16C412.11,-16 404.14,-16 396.36,-16"/>
<polygon fill="#63b8ff" stroke="#63b8ff" points="420.02,-19.5 430.02,-16 420.02,-12.5 420.02,-19.5"/>
</a>
</g>
</g>
<!-- Node3 -->
<g id="Node000003" class="node">
<title>Node3</title>
<g id="a_Node000003"><a xlink:href="class_g_l_e_s_c_1_1_engine.html#aa1aec35d59f1364a79c7a62c29640226" target="_top" xlink:title="Processes the input of the game.">
<polygon fill="white" stroke="#666666" points="219.5,-26 73,-26 73,-6 219.5,-6 219.5,-26"/>
<text text-anchor="middle" x="146.25" y="-12.5" font-family="Helvetica,sans-Serif" font-size="10.00">GLESC::Engine::processInput</text>
</a>
</g>
</g>
<!-- Node2&#45;&gt;Node3 -->
<g id="edge2_Node000002_Node000003" class="edge">
<title>Node2&#45;&gt;Node3</title>
<g id="a_edge2_Node000002_Node000003"><a xlink:title=" ">
<path fill="none" stroke="#63b8ff" d="M243.61,-16C235.71,-16 227.72,-16 219.91,-16"/>
<polygon fill="#63b8ff" stroke="#63b8ff" points="243.59,-19.5 253.59,-16 243.59,-12.5 243.59,-19.5"/>
</a>
</g>
</g>
<!-- Node4 -->
<g id="Node000004" class="node">
<title>Node4</title>
<g id="a_Node000004"><a xlink:href="src_2engine_2main_8cpp.html#a0ddf1224851353fc92bfbff6f499fa97" target="_top" xlink:title=" ">
<polygon fill="white" stroke="#666666" points="37,-26 0,-26 0,-6 37,-6 37,-26"/>
<text text-anchor="middle" x="18.5" y="-12.5" font-family="Helvetica,sans-Serif" font-size="10.00">main</text>
</a>
</g>
</g>
<!-- Node3&#45;&gt;Node4 -->
<g id="edge3_Node000003_Node000004" class="edge">
<title>Node3&#45;&gt;Node4</title>
<g id="a_edge3_Node000003_Node000004"><a xlink:title=" ">
<path fill="none" stroke="#63b8ff" d="M61.48,-16C52.4,-16 43.97,-16 37.09,-16"/>
<polygon fill="#63b8ff" stroke="#63b8ff" points="61.32,-19.5 71.32,-16 61.32,-12.5 61.32,-19.5"/>
</a>
</g>
</g>
</g>
</svg>
