<?xml version="1.0" encoding="UTF-8" standalone="no"?>
<!DOCTYPE svg PUBLIC "-//W3C//DTD SVG 1.1//EN"
 "http://www.w3.org/Graphics/SVG/1.1/DTD/svg11.dtd">
<!-- Generated by graphviz version 11.0.0 (20240428.1522)
 -->
<!-- Title: ILogger::importantInfoWhite Pages: 1 -->
<svg width="569pt" height="78pt"
 viewBox="0.00 0.00 569.25 78.00" xmlns="http://www.w3.org/2000/svg" xmlns:xlink="http://www.w3.org/1999/xlink">
<g id="graph0" class="graph" transform="scale(1 1) rotate(0) translate(4 74)">
<title>ILogger::importantInfoWhite</title>
<!-- Node1 -->
<g id="Node000001" class="node">
<title>Node1</title>
<g id="a_Node000001"><a xlink:title="Display important information Background – White Text – Black.">
<polygon fill="#999999" stroke="#666666" points="561.25,-42 426.75,-42 426.75,-22 561.25,-22 561.25,-42"/>
<text text-anchor="middle" x="494" y="-28.5" font-family="Helvetica,sans-Serif" font-size="10.00">ILogger::importantInfoWhite</text>
</a>
</g>
</g>
<!-- Node2 -->
<g id="Node000002" class="node">
<title>Node2</title>
<g id="a_Node000002"><a xlink:href="class_g_l_e_s_c_1_1_logger.html#a71599c25da6f38408c0bf8caf994cda8" target="_top" xlink:title="Display important information Background – White Text – Black.">
<polygon fill="white" stroke="#666666" points="390.75,-48 260,-48 260,-16 390.75,-16 390.75,-48"/>
<text text-anchor="start" x="268" y="-34.5" font-family="Helvetica,sans-Serif" font-size="10.00">GLESC::Logger::important</text>
<text text-anchor="middle" x="325.38" y="-22.5" font-family="Helvetica,sans-Serif" font-size="10.00">InfoWhite</text>
</a>
</g>
</g>
<!-- Node1&#45;&gt;Node2 -->
<g id="edge1_Node000001_Node000002" class="edge">
<title>Node1&#45;&gt;Node2</title>
<g id="a_edge1_Node000001_Node000002"><a xlink:title=" ">
<path fill="none" stroke="#63b8ff" d="M415.3,-32C407.21,-32 399.05,-32 391.12,-32"/>
<polygon fill="#63b8ff" stroke="#63b8ff" points="415.15,-35.5 425.15,-32 415.15,-28.5 415.15,-35.5"/>
</a>
</g>
</g>
<!-- Node3 -->
<g id="Node000003" class="node">
<title>Node3</title>
<g id="a_Node000003"><a xlink:href="class_g_l_e_s_c_1_1_e_c_s_1_1_e_c_s_coordinator.html#a511e3ef0ebeceb191a06db185e8fdc46" target="_top" xlink:title="Print the status of the ECS.">
<polygon fill="white" stroke="#666666" points="224,-70 73,-70 73,-38 224,-38 224,-70"/>
<text text-anchor="start" x="81" y="-56.5" font-family="Helvetica,sans-Serif" font-size="10.00">GLESC::ECS::ECSCoordinator</text>
<text text-anchor="middle" x="148.5" y="-44.5" font-family="Helvetica,sans-Serif" font-size="10.00">::printStatus</text>
</a>
</g>
</g>
<!-- Node2&#45;&gt;Node3 -->
<g id="edge2_Node000002_Node000003" class="edge">
<title>Node2&#45;&gt;Node3</title>
<g id="a_edge2_Node000002_Node000003"><a xlink:title=" ">
<path fill="none" stroke="#63b8ff" d="M248.58,-41.54C240.59,-42.54 232.47,-43.56 224.49,-44.57"/>
<polygon fill="#63b8ff" stroke="#63b8ff" points="248.77,-45.04 258.25,-40.32 247.89,-38.09 248.77,-45.04"/>
</a>
</g>
</g>
<!-- Node4 -->
<g id="Node000004" class="node">
<title>Node4</title>
<g id="a_Node000004"><a xlink:href="class_g_l_e_s_c_1_1_engine.html#ad2ff110d5a86c1cd60b541d65915ac48" target="_top" xlink:title="Processes the logic of the game Is called every frame, must be called at constant intervals of time a...">
<polygon fill="white" stroke="#666666" points="208.62,-20 88.38,-20 88.38,0 208.62,0 208.62,-20"/>
<text text-anchor="middle" x="148.5" y="-6.5" font-family="Helvetica,sans-Serif" font-size="10.00">GLESC::Engine::update</text>
</a>
</g>
</g>
<!-- Node2&#45;&gt;Node4 -->
<g id="edge3_Node000002_Node000004" class="edge">
<title>Node2&#45;&gt;Node4</title>
<g id="a_edge3_Node000002_Node000004"><a xlink:title=" ">
<path fill="none" stroke="#63b8ff" d="M248.69,-22.48C235.39,-20.81 221.72,-19.09 208.93,-17.48"/>
<polygon fill="#63b8ff" stroke="#63b8ff" points="247.89,-25.91 258.25,-23.68 248.77,-18.96 247.89,-25.91"/>
</a>
</g>
</g>
<!-- Node5 -->
<g id="Node000005" class="node">
<title>Node5</title>
<g id="a_Node000005"><a xlink:href="src_2engine_2main_8cpp.html#a0ddf1224851353fc92bfbff6f499fa97" target="_top" xlink:title=" ">
<polygon fill="white" stroke="#666666" points="37,-20 0,-20 0,0 37,0 37,-20"/>
<text text-anchor="middle" x="18.5" y="-6.5" font-family="Helvetica,sans-Serif" font-size="10.00">main</text>
</a>
</g>
</g>
<!-- Node4&#45;&gt;Node5 -->
<g id="edge4_Node000004_Node000005" class="edge">
<title>Node4&#45;&gt;Node5</title>
<g id="a_edge4_Node000004_Node000005"><a xlink:title=" ">
<path fill="none" stroke="#63b8ff" d="M76.77,-10C62.14,-10 47.98,-10 37.4,-10"/>
<polygon fill="#63b8ff" stroke="#63b8ff" points="76.48,-13.5 86.48,-10 76.48,-6.5 76.48,-13.5"/>
</a>
</g>
</g>
</g>
</svg>
