<?xml version="1.0" encoding="UTF-8" standalone="no"?>
<!DOCTYPE svg PUBLIC "-//W3C//DTD SVG 1.1//EN"
 "http://www.w3.org/Graphics/SVG/1.1/DTD/svg11.dtd">
<!-- Generated by graphviz version 11.0.0 (20240428.1522)
 -->
<!-- Title: GLESC::Math::Matrix::operator*= Pages: 1 -->
<svg width="502pt" height="140pt"
 viewBox="0.00 0.00 502.25 140.00" xmlns="http://www.w3.org/2000/svg" xmlns:xlink="http://www.w3.org/1999/xlink">
<g id="graph0" class="graph" transform="scale(1 1) rotate(0) translate(4 136)">
<title>GLESC::Math::Matrix::operator*=</title>
<!-- Node1 -->
<g id="Node000001" class="node">
<title>Node1</title>
<g id="a_Node000001"><a xlink:title="In&#45;place element&#45;wise multiplication with another matrix.">
<polygon fill="#999999" stroke="#666666" points="109.75,-82 0,-82 0,-50 109.75,-50 109.75,-82"/>
<text text-anchor="start" x="8" y="-68.5" font-family="Helvetica,sans-Serif" font-size="10.00">GLESC::Math::Matrix</text>
<text text-anchor="middle" x="54.88" y="-56.5" font-family="Helvetica,sans-Serif" font-size="10.00">::operator*=</text>
</a>
</g>
</g>
<!-- Node2 -->
<g id="Node000002" class="node">
<title>Node2</title>
<g id="a_Node000002"><a xlink:href="class_g_l_e_s_c_1_1_math_1_1_matrix_algorithms.html#aa04e41ebccb8934ec715c81742f0d11f" target="_top" xlink:title="Dot product matrix multiplication in place.">
<polygon fill="white" stroke="#666666" points="302,-82 145.75,-82 145.75,-50 302,-50 302,-82"/>
<text text-anchor="start" x="153.75" y="-68.5" font-family="Helvetica,sans-Serif" font-size="10.00">GLESC::Math::MatrixAlgorithms</text>
<text text-anchor="middle" x="223.88" y="-56.5" font-family="Helvetica,sans-Serif" font-size="10.00">::matrixMatrixMulInPlace</text>
</a>
</g>
</g>
<!-- Node1&#45;&gt;Node2 -->
<g id="edge1_Node000001_Node000002" class="edge">
<title>Node1&#45;&gt;Node2</title>
<g id="a_edge1_Node000001_Node000002"><a xlink:title=" ">
<path fill="none" stroke="#63b8ff" d="M110.1,-66C117.73,-66 125.75,-66 133.83,-66"/>
<polygon fill="#63b8ff" stroke="#63b8ff" points="133.76,-69.5 143.76,-66 133.76,-62.5 133.76,-69.5"/>
</a>
</g>
</g>
<!-- Node3 -->
<g id="Node000003" class="node">
<title>Node3</title>
<g id="a_Node000003"><a xlink:href="class_g_l_e_s_c_1_1_math_1_1_matrix_algorithms.html#ab4ffc1744770577aea3a32c00c41b976" target="_top" xlink:title="Copies the data from one matrix to another.">
<polygon fill="white" stroke="#666666" points="494.25,-132 338,-132 338,-100 494.25,-100 494.25,-132"/>
<text text-anchor="start" x="346" y="-118.5" font-family="Helvetica,sans-Serif" font-size="10.00">GLESC::Math::MatrixAlgorithms</text>
<text text-anchor="middle" x="416.12" y="-106.5" font-family="Helvetica,sans-Serif" font-size="10.00">::copyMatrix</text>
</a>
</g>
</g>
<!-- Node2&#45;&gt;Node3 -->
<g id="edge2_Node000002_Node000003" class="edge">
<title>Node2&#45;&gt;Node3</title>
<g id="a_edge2_Node000002_Node000003"><a xlink:title=" ">
<path fill="none" stroke="#63b8ff" d="M287.43,-82.44C304.74,-86.99 323.69,-91.97 341.56,-96.67"/>
<polygon fill="#63b8ff" stroke="#63b8ff" points="340.5,-100.01 351.07,-99.16 342.28,-93.24 340.5,-100.01"/>
</a>
</g>
</g>
<!-- Node4 -->
<g id="Node000004" class="node">
<title>Node4</title>
<g id="a_Node000004"><a xlink:href="class_g_l_e_s_c_1_1_math_1_1_matrix_algorithms.html#a0b865437ed01525b5afafb74f755ffbb" target="_top" xlink:title=" ">
<polygon fill="white" stroke="#666666" points="494.25,-82 338,-82 338,-50 494.25,-50 494.25,-82"/>
<text text-anchor="start" x="346" y="-68.5" font-family="Helvetica,sans-Serif" font-size="10.00">GLESC::Math::MatrixAlgorithms</text>
<text text-anchor="middle" x="416.12" y="-56.5" font-family="Helvetica,sans-Serif" font-size="10.00">::matrixMatrixMulColMaj</text>
</a>
</g>
</g>
<!-- Node2&#45;&gt;Node4 -->
<g id="edge3_Node000002_Node000004" class="edge">
<title>Node2&#45;&gt;Node4</title>
<g id="a_edge3_Node000002_Node000004"><a xlink:title=" ">
<path fill="none" stroke="#63b8ff" d="M302.26,-66C310.16,-66 318.23,-66 326.24,-66"/>
<polygon fill="#63b8ff" stroke="#63b8ff" points="325.99,-69.5 335.99,-66 325.99,-62.5 325.99,-69.5"/>
</a>
</g>
</g>
<!-- Node5 -->
<g id="Node000005" class="node">
<title>Node5</title>
<g id="a_Node000005"><a xlink:href="class_g_l_e_s_c_1_1_math_1_1_matrix_algorithms.html#ac339994676b91c61876ce07d0f2c1b88" target="_top" xlink:title=" ">
<polygon fill="white" stroke="#666666" points="494.25,-32 338,-32 338,0 494.25,0 494.25,-32"/>
<text text-anchor="start" x="346" y="-18.5" font-family="Helvetica,sans-Serif" font-size="10.00">GLESC::Math::MatrixAlgorithms</text>
<text text-anchor="middle" x="416.12" y="-6.5" font-family="Helvetica,sans-Serif" font-size="10.00">::matrixMatrixMulRowMaj</text>
</a>
</g>
</g>
<!-- Node2&#45;&gt;Node5 -->
<g id="edge4_Node000002_Node000005" class="edge">
<title>Node2&#45;&gt;Node5</title>
<g id="a_edge4_Node000002_Node000005"><a xlink:title=" ">
<path fill="none" stroke="#63b8ff" d="M287.43,-49.56C304.74,-45.01 323.69,-40.03 341.56,-35.33"/>
<polygon fill="#63b8ff" stroke="#63b8ff" points="342.28,-38.76 351.07,-32.84 340.5,-31.99 342.28,-38.76"/>
</a>
</g>
</g>
</g>
</svg>
