<?xml version="1.0" encoding="UTF-8" standalone="no"?>
<!DOCTYPE svg PUBLIC "-//W3C//DTD SVG 1.1//EN"
 "http://www.w3.org/Graphics/SVG/1.1/DTD/svg11.dtd">
<!-- Generated by graphviz version 11.0.0 (20240428.1522)
 -->
<!-- Title: GLESC::Math::PolyhedronFace Pages: 1 -->
<svg width="417pt" height="984pt"
 viewBox="0.00 0.00 416.50 984.00" xmlns="http://www.w3.org/2000/svg" xmlns:xlink="http://www.w3.org/1999/xlink">
<g id="graph0" class="graph" transform="scale(1 1) rotate(0) translate(4 980)">
<title>GLESC::Math::PolyhedronFace</title>
<!-- Node1 -->
<g id="Node000001" class="node">
<title>Node1</title>
<g id="a_Node000001"><a xlink:title=" ">
<polygon fill="#999999" stroke="none" points="259.5,-228 112.5,-228 112.5,0 259.5,0 259.5,-228"/>
<text text-anchor="start" x="117.38" y="-214.5" font-family="Helvetica,sans-Serif" font-size="10.00">GLESC::Math::PolyhedronFace</text>
<text text-anchor="start" x="184.5" y="-198.5" font-family="Helvetica,sans-Serif" font-size="10.00"> </text>
<text text-anchor="start" x="122.5" y="-182.5" font-family="Helvetica,sans-Serif" font-size="10.00">+</text>
<text text-anchor="start" x="138.5" y="-182.5" font-family="Helvetica,sans-Serif" font-size="10.00">PolyhedronFace()</text>
<text text-anchor="start" x="122.5" y="-166.5" font-family="Helvetica,sans-Serif" font-size="10.00">+</text>
<text text-anchor="start" x="138.5" y="-166.5" font-family="Helvetica,sans-Serif" font-size="10.00">PolyhedronFace()</text>
<text text-anchor="start" x="122.5" y="-150.5" font-family="Helvetica,sans-Serif" font-size="10.00">+</text>
<text text-anchor="start" x="138.5" y="-150.5" font-family="Helvetica,sans-Serif" font-size="10.00">~PolyhedronFace()</text>
<text text-anchor="start" x="122.5" y="-134.5" font-family="Helvetica,sans-Serif" font-size="10.00">+</text>
<text text-anchor="start" x="138.5" y="-134.5" font-family="Helvetica,sans-Serif" font-size="10.00">getNormal()</text>
<text text-anchor="start" x="122.5" y="-118.5" font-family="Helvetica,sans-Serif" font-size="10.00">+</text>
<text text-anchor="start" x="138.5" y="-118.5" font-family="Helvetica,sans-Serif" font-size="10.00">getPlane()</text>
<text text-anchor="start" x="122.5" y="-102.5" font-family="Helvetica,sans-Serif" font-size="10.00">+</text>
<text text-anchor="start" x="138.5" y="-102.5" font-family="Helvetica,sans-Serif" font-size="10.00">getPolyhedronVertices()</text>
<text text-anchor="start" x="122.5" y="-86.5" font-family="Helvetica,sans-Serif" font-size="10.00">+</text>
<text text-anchor="start" x="138.5" y="-86.5" font-family="Helvetica,sans-Serif" font-size="10.00">getVertexIndices()</text>
<text text-anchor="start" x="122.5" y="-70.5" font-family="Helvetica,sans-Serif" font-size="10.00">+</text>
<text text-anchor="start" x="138.5" y="-70.5" font-family="Helvetica,sans-Serif" font-size="10.00">intersects()</text>
<text text-anchor="start" x="122.5" y="-54.5" font-family="Helvetica,sans-Serif" font-size="10.00">+</text>
<text text-anchor="start" x="138.5" y="-54.5" font-family="Helvetica,sans-Serif" font-size="10.00">intersects()</text>
<text text-anchor="start" x="122.5" y="-38.5" font-family="Helvetica,sans-Serif" font-size="10.00">+</text>
<text text-anchor="start" x="138.5" y="-38.5" font-family="Helvetica,sans-Serif" font-size="10.00">intersects()</text>
<text text-anchor="start" x="122.5" y="-22.5" font-family="Helvetica,sans-Serif" font-size="10.00">+</text>
<text text-anchor="start" x="138.5" y="-22.5" font-family="Helvetica,sans-Serif" font-size="10.00">intersects()</text>
<text text-anchor="start" x="122.5" y="-6.5" font-family="Helvetica,sans-Serif" font-size="10.00">+</text>
<text text-anchor="start" x="138.5" y="-6.5" font-family="Helvetica,sans-Serif" font-size="10.00">operator=()</text>
<polygon fill="#666666" stroke="#666666" points="112.5,-210 112.5,-210 259.5,-210 259.5,-210 112.5,-210"/>
<polygon fill="#666666" stroke="#666666" points="112.5,-194 112.5,-194 259.5,-194 259.5,-194 112.5,-194"/>
<polygon fill="none" stroke="#666666" points="112.5,0 112.5,-228 259.5,-228 259.5,0 112.5,0"/>
</a>
</g>
</g>
<!-- Node2 -->
<g id="Node000002" class="node">
<title>Node2</title>
<g id="a_Node000002"><a xlink:title=" ">
<polygon fill="white" stroke="none" points="110.5,-466 7.5,-466 7.5,-414 110.5,-414 110.5,-466"/>
<text text-anchor="start" x="12.12" y="-452.5" font-family="Helvetica,sans-Serif" font-size="10.00">std::array&lt; Index, 3 &gt;</text>
<text text-anchor="start" x="23" y="-436.5" font-family="Helvetica,sans-Serif" font-size="10.00">+</text>
<text text-anchor="start" x="44.5" y="-436.5" font-family="Helvetica,sans-Serif" font-size="10.00">elements</text>
<text text-anchor="start" x="57.5" y="-420.5" font-family="Helvetica,sans-Serif" font-size="10.00"> </text>
<polygon fill="#666666" stroke="#666666" points="7.5,-448 7.5,-448 110.5,-448 110.5,-448 7.5,-448"/>
<polygon fill="#666666" stroke="#666666" points="7.5,-432 7.5,-432 42.5,-432 42.5,-432 7.5,-432"/>
<polygon fill="#666666" stroke="#666666" points="42.5,-432 42.5,-432 110.5,-432 110.5,-432 42.5,-432"/>
<polygon fill="none" stroke="#666666" points="7.5,-414 7.5,-466 110.5,-466 110.5,-414 7.5,-414"/>
</a>
</g>
</g>
<!-- Node2&#45;&gt;Node1 -->
<g id="edge1_Node000001_Node000002" class="edge">
<title>Node2&#45;&gt;Node1</title>
<g id="a_edge1_Node000001_Node000002"><a xlink:title=" ">
<path fill="none" stroke="#63b8ff" d="M68.75,-414.11C83.35,-376.87 111.88,-304.1 137.13,-239.67"/>
<polygon fill="none" stroke="#63b8ff" points="137.1,-239.76 135.56,-232.71 141.48,-228.58 143.01,-235.63 137.1,-239.76"/>
</a>
</g>
<text text-anchor="middle" x="152.38" y="-248.5" font-family="Helvetica,sans-Serif" font-size="10.00" fill="grey"> &#45;indices</text>
</g>
<!-- Node3 -->
<g id="Node000003" class="node">
<title>Node3</title>
<g id="a_Node000003"><a xlink:title=" ">
<polygon fill="white" stroke="none" points="74,-790 0,-790 0,-738 74,-738 74,-790"/>
<text text-anchor="start" x="4.75" y="-776.5" font-family="Helvetica,sans-Serif" font-size="10.00">std::array&lt; T &gt;</text>
<text text-anchor="start" x="35.5" y="-760.5" font-family="Helvetica,sans-Serif" font-size="10.00"> </text>
<text text-anchor="start" x="35.5" y="-744.5" font-family="Helvetica,sans-Serif" font-size="10.00"> </text>
<polygon fill="#666666" stroke="#666666" points="0,-772 0,-772 74,-772 74,-772 0,-772"/>
<polygon fill="#666666" stroke="#666666" points="0,-756 0,-756 74,-756 74,-756 0,-756"/>
<polygon fill="none" stroke="#666666" points="0,-738 0,-790 74,-790 74,-738 0,-738"/>
</a>
</g>
</g>
<!-- Node3&#45;&gt;Node2 -->
<g id="edge2_Node000002_Node000003" class="edge">
<title>Node3&#45;&gt;Node2</title>
<g id="a_edge2_Node000002_Node000003"><a xlink:title=" ">
<path fill="none" stroke="orange" d="M39.49,-726.52C44.01,-660.34 53.46,-522.15 57.31,-465.76"/>
<polygon fill="orange" stroke="orange" points="36,-726.28 38.81,-736.49 42.98,-726.75 36,-726.28"/>
</a>
</g>
<text text-anchor="middle" x="74.75" y="-624.5" font-family="Helvetica,sans-Serif" font-size="10.00" fill="grey"> &lt; Index, 3 &gt;</text>
</g>
<!-- Node4 -->
<g id="Node000004" class="node">
<title>Node4</title>
<g id="a_Node000004"><a xlink:title=" ">
<polygon fill="white" stroke="none" points="91.5,-976 76.5,-976 76.5,-924 91.5,-924 91.5,-976"/>
<text text-anchor="start" x="81.38" y="-962.5" font-family="Helvetica,sans-Serif" font-size="10.00">T</text>
<text text-anchor="start" x="82.5" y="-946.5" font-family="Helvetica,sans-Serif" font-size="10.00"> </text>
<text text-anchor="start" x="82.5" y="-930.5" font-family="Helvetica,sans-Serif" font-size="10.00"> </text>
<polygon fill="#666666" stroke="#666666" points="76.5,-958 76.5,-958 91.5,-958 91.5,-958 76.5,-958"/>
<polygon fill="#666666" stroke="#666666" points="76.5,-942 76.5,-942 91.5,-942 91.5,-942 76.5,-942"/>
<polygon fill="none" stroke="#666666" points="76.5,-924 76.5,-976 91.5,-976 91.5,-924 76.5,-924"/>
</a>
</g>
</g>
<!-- Node4&#45;&gt;Node3 -->
<g id="edge3_Node000003_Node000004" class="edge">
<title>Node4&#45;&gt;Node3</title>
<g id="a_edge3_Node000003_Node000004"><a xlink:title=" ">
<path fill="none" stroke="#63b8ff" d="M76.5,-940.81C69.49,-932.64 59.35,-919.41 54.25,-906 41.53,-872.57 37.69,-831.76 36.75,-802.67"/>
<polygon fill="none" stroke="#63b8ff" points="36.75,-802.7 32.63,-796.78 36.51,-790.7 40.63,-796.62 36.75,-802.7"/>
</a>
</g>
<text text-anchor="middle" x="79.38" y="-896.5" font-family="Helvetica,sans-Serif" font-size="10.00" fill="grey"> +elements</text>
</g>
<!-- Node8 -->
<g id="Node000008" class="node">
<title>Node8</title>
<g id="a_Node000008"><a xlink:title=" ">
<polygon fill="white" stroke="none" points="170,-790 92,-790 92,-738 170,-738 170,-790"/>
<text text-anchor="start" x="96.88" y="-776.5" font-family="Helvetica,sans-Serif" font-size="10.00">std::vector&lt; T &gt;</text>
<text text-anchor="start" x="129.5" y="-760.5" font-family="Helvetica,sans-Serif" font-size="10.00"> </text>
<text text-anchor="start" x="129.5" y="-744.5" font-family="Helvetica,sans-Serif" font-size="10.00"> </text>
<polygon fill="#666666" stroke="#666666" points="92,-772 92,-772 170,-772 170,-772 92,-772"/>
<polygon fill="#666666" stroke="#666666" points="92,-756 92,-756 170,-756 170,-756 92,-756"/>
<polygon fill="none" stroke="#666666" points="92,-738 92,-790 170,-790 170,-738 92,-738"/>
</a>
</g>
</g>
<!-- Node4&#45;&gt;Node8 -->
<g id="edge9_Node000008_Node000004" class="edge">
<title>Node4&#45;&gt;Node8</title>
<g id="a_edge9_Node000008_Node000004"><a xlink:title=" ">
<path fill="none" stroke="#63b8ff" d="M91.33,-934.58C95.25,-926.38 99.9,-915.81 103,-906 113.84,-871.69 121.35,-831.31 125.84,-802.57"/>
<polygon fill="none" stroke="#63b8ff" points="125.84,-802.62 122.77,-796.1 127.62,-790.76 130.68,-797.29 125.84,-802.62"/>
</a>
</g>
<text text-anchor="middle" x="131.38" y="-896.5" font-family="Helvetica,sans-Serif" font-size="10.00" fill="grey"> +elements</text>
</g>
<!-- Node5 -->
<g id="Node000005" class="node">
<title>Node5</title>
<g id="a_Node000005"><a xlink:href="class_g_l_e_s_c_1_1_math_1_1_plane.html" target="_top" xlink:title=" ">
<polygon fill="white" stroke="none" points="408.5,-604 257.5,-604 257.5,-276 408.5,-276 408.5,-604"/>
<text text-anchor="start" x="287.25" y="-590.5" font-family="Helvetica,sans-Serif" font-size="10.00">GLESC::Math::Plane</text>
<text text-anchor="start" x="263" y="-574.5" font-family="Helvetica,sans-Serif" font-size="10.00">&#45;</text>
<text text-anchor="start" x="271.5" y="-574.5" font-family="Helvetica,sans-Serif" font-size="10.00">distance</text>
<text text-anchor="start" x="261.5" y="-558.5" font-family="Helvetica,sans-Serif" font-size="10.00">+</text>
<text text-anchor="start" x="271.5" y="-558.5" font-family="Helvetica,sans-Serif" font-size="10.00">Plane()</text>
<text text-anchor="start" x="261.5" y="-542.5" font-family="Helvetica,sans-Serif" font-size="10.00">+</text>
<text text-anchor="start" x="271.5" y="-542.5" font-family="Helvetica,sans-Serif" font-size="10.00">Plane()</text>
<text text-anchor="start" x="261.5" y="-526.5" font-family="Helvetica,sans-Serif" font-size="10.00">+</text>
<text text-anchor="start" x="271.5" y="-526.5" font-family="Helvetica,sans-Serif" font-size="10.00">Plane()</text>
<text text-anchor="start" x="261.5" y="-510.5" font-family="Helvetica,sans-Serif" font-size="10.00">+</text>
<text text-anchor="start" x="271.5" y="-510.5" font-family="Helvetica,sans-Serif" font-size="10.00">Plane()</text>
<text text-anchor="start" x="261.5" y="-494.5" font-family="Helvetica,sans-Serif" font-size="10.00">+</text>
<text text-anchor="start" x="271.5" y="-494.5" font-family="Helvetica,sans-Serif" font-size="10.00">Plane()</text>
<text text-anchor="start" x="261.5" y="-478.5" font-family="Helvetica,sans-Serif" font-size="10.00">+</text>
<text text-anchor="start" x="271.5" y="-478.5" font-family="Helvetica,sans-Serif" font-size="10.00">Plane()</text>
<text text-anchor="start" x="261.5" y="-462.5" font-family="Helvetica,sans-Serif" font-size="10.00">+</text>
<text text-anchor="start" x="271.5" y="-462.5" font-family="Helvetica,sans-Serif" font-size="10.00">Plane()</text>
<text text-anchor="start" x="261.5" y="-446.5" font-family="Helvetica,sans-Serif" font-size="10.00">+</text>
<text text-anchor="start" x="271.5" y="-446.5" font-family="Helvetica,sans-Serif" font-size="10.00">~Plane()</text>
<text text-anchor="start" x="261.5" y="-430.5" font-family="Helvetica,sans-Serif" font-size="10.00">+</text>
<text text-anchor="start" x="271.5" y="-430.5" font-family="Helvetica,sans-Serif" font-size="10.00">distanceToPoint()</text>
<text text-anchor="start" x="261.5" y="-414.5" font-family="Helvetica,sans-Serif" font-size="10.00">+</text>
<text text-anchor="start" x="271.5" y="-414.5" font-family="Helvetica,sans-Serif" font-size="10.00">getDistance()</text>
<text text-anchor="start" x="271.5" y="-398.5" font-family="Helvetica,sans-Serif" font-size="10.00">and 13 more...</text>
<text text-anchor="start" x="263" y="-382.5" font-family="Helvetica,sans-Serif" font-size="10.00">&#45;</text>
<text text-anchor="start" x="271.5" y="-382.5" font-family="Helvetica,sans-Serif" font-size="10.00">calculateDistanceFromPoint</text>
<text text-anchor="start" x="271.5" y="-370.5" font-family="Helvetica,sans-Serif" font-size="10.00">AndLine()</text>
<text text-anchor="start" x="263" y="-354.5" font-family="Helvetica,sans-Serif" font-size="10.00">&#45;</text>
<text text-anchor="start" x="271.5" y="-354.5" font-family="Helvetica,sans-Serif" font-size="10.00">calculateDistanceFromPoint</text>
<text text-anchor="start" x="271.5" y="-342.5" font-family="Helvetica,sans-Serif" font-size="10.00">AndNormal()</text>
<text text-anchor="start" x="263" y="-326.5" font-family="Helvetica,sans-Serif" font-size="10.00">&#45;</text>
<text text-anchor="start" x="271.5" y="-326.5" font-family="Helvetica,sans-Serif" font-size="10.00">calculateDistanceFromPoints()</text>
<text text-anchor="start" x="263" y="-310.5" font-family="Helvetica,sans-Serif" font-size="10.00">&#45;</text>
<text text-anchor="start" x="271.5" y="-310.5" font-family="Helvetica,sans-Serif" font-size="10.00">calculateNormalFromPoint</text>
<text text-anchor="start" x="271.5" y="-298.5" font-family="Helvetica,sans-Serif" font-size="10.00">AndLine()</text>
<text text-anchor="start" x="263" y="-282.5" font-family="Helvetica,sans-Serif" font-size="10.00">&#45;</text>
<text text-anchor="start" x="271.5" y="-282.5" font-family="Helvetica,sans-Serif" font-size="10.00">calculateNormalFromPoints()</text>
<polygon fill="#666666" stroke="#666666" points="257.5,-586 257.5,-586 408.5,-586 408.5,-586 257.5,-586"/>
<polygon fill="#666666" stroke="#666666" points="257.5,-570 257.5,-570 269.5,-570 269.5,-570 257.5,-570"/>
<polygon fill="#666666" stroke="#666666" points="269.5,-570 269.5,-570 408.5,-570 408.5,-570 269.5,-570"/>
<polygon fill="none" stroke="#666666" points="257.5,-276 257.5,-604 408.5,-604 408.5,-276 257.5,-276"/>
</a>
</g>
</g>
<!-- Node5&#45;&gt;Node1 -->
<g id="edge4_Node000001_Node000005" class="edge">
<title>Node5&#45;&gt;Node1</title>
<g id="a_edge4_Node000001_Node000005"><a xlink:title=" ">
<path fill="none" stroke="#63b8ff" d="M291.85,-276.11C287.89,-265.78 283.61,-255.66 279,-246 275.12,-237.87 270.74,-229.7 266.04,-221.63"/>
<polygon fill="none" stroke="#63b8ff" points="266.12,-221.77 259.6,-218.69 259.93,-211.49 266.45,-214.56 266.12,-221.77"/>
</a>
</g>
<text text-anchor="middle" x="297.62" y="-248.5" font-family="Helvetica,sans-Serif" font-size="10.00" fill="grey"> &#45;plane</text>
</g>
<!-- Node6 -->
<g id="Node000006" class="node">
<title>Node6</title>
<g id="a_Node000006"><a xlink:href="class_g_l_e_s_c_1_1_math_1_1_vector.html" target="_top" xlink:title=" ">
<polygon fill="white" stroke="none" points="354.5,-876 249.5,-876 249.5,-652 354.5,-652 354.5,-876"/>
<text text-anchor="start" x="254.38" y="-862.5" font-family="Helvetica,sans-Serif" font-size="10.00">GLESC::Math::Vector</text>
<text text-anchor="start" x="276.12" y="-850.5" font-family="Helvetica,sans-Serif" font-size="10.00">&lt; Type, N &gt;</text>
<text text-anchor="start" x="259.5" y="-834.5" font-family="Helvetica,sans-Serif" font-size="10.00">+</text>
<text text-anchor="start" x="275.5" y="-834.5" font-family="Helvetica,sans-Serif" font-size="10.00">data</text>
<text text-anchor="start" x="259.5" y="-818.5" font-family="Helvetica,sans-Serif" font-size="10.00">+</text>
<text text-anchor="start" x="275.5" y="-818.5" font-family="Helvetica,sans-Serif" font-size="10.00">Vector()</text>
<text text-anchor="start" x="259.5" y="-802.5" font-family="Helvetica,sans-Serif" font-size="10.00">+</text>
<text text-anchor="start" x="275.5" y="-802.5" font-family="Helvetica,sans-Serif" font-size="10.00">Vector()</text>
<text text-anchor="start" x="259.5" y="-786.5" font-family="Helvetica,sans-Serif" font-size="10.00">+</text>
<text text-anchor="start" x="275.5" y="-786.5" font-family="Helvetica,sans-Serif" font-size="10.00">Vector()</text>
<text text-anchor="start" x="259.5" y="-770.5" font-family="Helvetica,sans-Serif" font-size="10.00">+</text>
<text text-anchor="start" x="275.5" y="-770.5" font-family="Helvetica,sans-Serif" font-size="10.00">Vector()</text>
<text text-anchor="start" x="259.5" y="-754.5" font-family="Helvetica,sans-Serif" font-size="10.00">+</text>
<text text-anchor="start" x="275.5" y="-754.5" font-family="Helvetica,sans-Serif" font-size="10.00">Vector()</text>
<text text-anchor="start" x="259.5" y="-738.5" font-family="Helvetica,sans-Serif" font-size="10.00">+</text>
<text text-anchor="start" x="275.5" y="-738.5" font-family="Helvetica,sans-Serif" font-size="10.00">Vector()</text>
<text text-anchor="start" x="259.5" y="-722.5" font-family="Helvetica,sans-Serif" font-size="10.00">+</text>
<text text-anchor="start" x="275.5" y="-722.5" font-family="Helvetica,sans-Serif" font-size="10.00">Vector()</text>
<text text-anchor="start" x="259.5" y="-706.5" font-family="Helvetica,sans-Serif" font-size="10.00">+</text>
<text text-anchor="start" x="275.5" y="-706.5" font-family="Helvetica,sans-Serif" font-size="10.00">Vector()</text>
<text text-anchor="start" x="259.5" y="-690.5" font-family="Helvetica,sans-Serif" font-size="10.00">+</text>
<text text-anchor="start" x="275.5" y="-690.5" font-family="Helvetica,sans-Serif" font-size="10.00">Vector()</text>
<text text-anchor="start" x="259.5" y="-674.5" font-family="Helvetica,sans-Serif" font-size="10.00">+</text>
<text text-anchor="start" x="275.5" y="-674.5" font-family="Helvetica,sans-Serif" font-size="10.00">Vector()</text>
<text text-anchor="start" x="275.5" y="-658.5" font-family="Helvetica,sans-Serif" font-size="10.00">and 90 more...</text>
<polygon fill="#666666" stroke="#666666" points="249.5,-846 249.5,-846 354.5,-846 354.5,-846 249.5,-846"/>
<polygon fill="#666666" stroke="#666666" points="249.5,-830 249.5,-830 273.5,-830 273.5,-830 249.5,-830"/>
<polygon fill="#666666" stroke="#666666" points="273.5,-830 273.5,-830 354.5,-830 354.5,-830 273.5,-830"/>
<polygon fill="none" stroke="#666666" points="249.5,-652 249.5,-876 354.5,-876 354.5,-652 249.5,-652"/>
</a>
</g>
</g>
<!-- Node6&#45;&gt;Node5 -->
<g id="edge5_Node000005_Node000006" class="edge">
<title>Node6&#45;&gt;Node5</title>
<g id="a_edge5_Node000005_Node000006"><a xlink:title=" ">
<path fill="none" stroke="#63b8ff" d="M314.17,-652.19C314.8,-646.03 315.42,-639.94 316,-634 316.56,-628.34 317.11,-622.58 317.67,-616.77"/>
<polygon fill="none" stroke="#63b8ff" points="317.66,-616.82 314.25,-610.47 318.8,-604.87 322.21,-611.22 317.66,-616.82"/>
</a>
</g>
<text text-anchor="middle" x="334.62" y="-624.5" font-family="Helvetica,sans-Serif" font-size="10.00" fill="grey"> &#45;normal</text>
</g>
<!-- Node7 -->
<g id="Node000007" class="node">
<title>Node7</title>
<g id="a_Node000007"><a xlink:title=" ">
<polygon fill="white" stroke="none" points="234.5,-472 137.5,-472 137.5,-408 234.5,-408 234.5,-472"/>
<text text-anchor="start" x="142.5" y="-458.5" font-family="Helvetica,sans-Serif" font-size="10.00">std::vector&lt; GLESC</text>
<text text-anchor="start" x="150.38" y="-446.5" font-family="Helvetica,sans-Serif" font-size="10.00">::Math::Vector &gt;</text>
<text text-anchor="start" x="184.5" y="-430.5" font-family="Helvetica,sans-Serif" font-size="10.00"> </text>
<text text-anchor="start" x="184.5" y="-414.5" font-family="Helvetica,sans-Serif" font-size="10.00"> </text>
<polygon fill="#666666" stroke="#666666" points="137.5,-442 137.5,-442 234.5,-442 234.5,-442 137.5,-442"/>
<polygon fill="#666666" stroke="#666666" points="137.5,-426 137.5,-426 234.5,-426 234.5,-426 137.5,-426"/>
<polygon fill="none" stroke="#666666" points="137.5,-408 137.5,-472 234.5,-472 234.5,-408 137.5,-408"/>
</a>
</g>
</g>
<!-- Node6&#45;&gt;Node7 -->
<g id="edge7_Node000007_Node000006" class="edge">
<title>Node6&#45;&gt;Node7</title>
<g id="a_edge7_Node000007_Node000006"><a xlink:title=" ">
<path fill="none" stroke="#63b8ff" d="M262.08,-652.19C241.25,-594.36 216.96,-526.93 201.53,-484.12"/>
<polygon fill="none" stroke="#63b8ff" points="201.51,-484.06 195.72,-479.77 197.45,-472.77 203.24,-477.06 201.51,-484.06"/>
</a>
</g>
<text text-anchor="middle" x="278.38" y="-624.5" font-family="Helvetica,sans-Serif" font-size="10.00" fill="grey"> +elements</text>
</g>
<!-- Node7&#45;&gt;Node1 -->
<g id="edge6_Node000001_Node000007" class="edge">
<title>Node7&#45;&gt;Node1</title>
<g id="a_edge6_Node000001_Node000007"><a xlink:title=" ">
<path fill="none" stroke="#63b8ff" d="M186,-408.23C186,-369.81 186,-301.73 186,-240.83"/>
<polygon fill="none" stroke="#63b8ff" points="186,-240.86 182,-234.86 186,-228.86 190,-234.86 186,-240.86"/>
</a>
</g>
<text text-anchor="middle" x="230.62" y="-248.5" font-family="Helvetica,sans-Serif" font-size="10.00" fill="grey"> &#45;polyhedronVertices</text>
</g>
<!-- Node8&#45;&gt;Node7 -->
<g id="edge8_Node000007_Node000008" class="edge">
<title>Node8&#45;&gt;Node7</title>
<g id="a_edge8_Node000007_Node000008"><a xlink:title=" ">
<path fill="none" stroke="orange" d="M129.84,-726.78C129.08,-700.93 128.14,-665.33 127.75,-634 127.68,-628.67 126.92,-627.27 127.75,-622 136.27,-567.7 158.35,-507.47 172.74,-471.99"/>
<polygon fill="orange" stroke="orange" points="126.34,-726.87 130.15,-736.76 133.34,-726.66 126.34,-726.87"/>
</a>
</g>
<text text-anchor="middle" x="186.12" y="-624.5" font-family="Helvetica,sans-Serif" font-size="10.00" fill="grey"> &lt; GLESC::Math::Vector &gt;</text>
</g>
</g>
</svg>
