<?xml version="1.0" encoding="UTF-8" standalone="no"?>
<!DOCTYPE svg PUBLIC "-//W3C//DTD SVG 1.1//EN"
 "http://www.w3.org/Graphics/SVG/1.1/DTD/svg11.dtd">
<!-- Generated by graphviz version 11.0.0 (20240428.1522)
 -->
<!-- Title: GLESC::Math::MatrixAlgorithms::moveMatrix Pages: 1 -->
<svg width="310pt" height="216pt"
 viewBox="0.00 0.00 310.00 216.00" xmlns="http://www.w3.org/2000/svg" xmlns:xlink="http://www.w3.org/1999/xlink">
<g id="graph0" class="graph" transform="scale(1 1) rotate(0) translate(4 212)">
<title>GLESC::Math::MatrixAlgorithms::moveMatrix</title>
<!-- Node1 -->
<g id="Node000001" class="node">
<title>Node1</title>
<g id="a_Node000001"><a xlink:title="Moves the data from one matrix to another. @deatails This function moves the data from the source mat...">
<polygon fill="#999999" stroke="#666666" points="302,-108 145.75,-108 145.75,-76 302,-76 302,-108"/>
<text text-anchor="start" x="153.75" y="-94.5" font-family="Helvetica,sans-Serif" font-size="10.00">GLESC::Math::MatrixAlgorithms</text>
<text text-anchor="middle" x="223.88" y="-82.5" font-family="Helvetica,sans-Serif" font-size="10.00">::moveMatrix</text>
</a>
</g>
</g>
<!-- Node2 -->
<g id="Node000002" class="node">
<title>Node2</title>
<g id="a_Node000002"><a xlink:href="class_g_l_e_s_c_1_1_math_1_1_matrix.html#a20789f482f4771ba1e119e3a3c503bba" target="_top" xlink:title="Move constructor.">
<polygon fill="white" stroke="#666666" points="109.75,-208 0,-208 0,-176 109.75,-176 109.75,-208"/>
<text text-anchor="start" x="8" y="-194.5" font-family="Helvetica,sans-Serif" font-size="10.00">GLESC::Math::Matrix</text>
<text text-anchor="middle" x="54.88" y="-182.5" font-family="Helvetica,sans-Serif" font-size="10.00">::Matrix</text>
</a>
</g>
</g>
<!-- Node1&#45;&gt;Node2 -->
<g id="edge1_Node000001_Node000002" class="edge">
<title>Node1&#45;&gt;Node2</title>
<g id="a_edge1_Node000001_Node000002"><a xlink:title=" ">
<path fill="none" stroke="#63b8ff" d="M191.26,-114.83C169.01,-130.42 138.23,-151.07 109.75,-167 104.53,-169.92 98.91,-172.8 93.34,-175.51"/>
<polygon fill="#63b8ff" stroke="#63b8ff" points="193.16,-117.77 199.31,-109.14 189.12,-112.05 193.16,-117.77"/>
</a>
</g>
</g>
<!-- Node3 -->
<g id="Node000003" class="node">
<title>Node3</title>
<g id="a_Node000003"><a xlink:href="class_g_l_e_s_c_1_1_math_1_1_matrix.html#add0279ab5f38702a97e974298568c61c" target="_top" xlink:title="Move assignment operator.">
<polygon fill="white" stroke="#666666" points="109.75,-158 0,-158 0,-126 109.75,-126 109.75,-158"/>
<text text-anchor="start" x="8" y="-144.5" font-family="Helvetica,sans-Serif" font-size="10.00">GLESC::Math::Matrix</text>
<text text-anchor="middle" x="54.88" y="-132.5" font-family="Helvetica,sans-Serif" font-size="10.00">::operator=</text>
</a>
</g>
</g>
<!-- Node1&#45;&gt;Node3 -->
<g id="edge2_Node000001_Node000003" class="edge">
<title>Node1&#45;&gt;Node3</title>
<g id="a_edge2_Node000001_Node000003"><a xlink:title=" ">
<path fill="none" stroke="#63b8ff" d="M157.5,-111.57C141.82,-116.27 125.23,-121.24 110.11,-125.76"/>
<polygon fill="#63b8ff" stroke="#63b8ff" points="158.17,-115.03 166.74,-108.81 156.16,-108.32 158.17,-115.03"/>
</a>
</g>
</g>
<!-- Node4 -->
<g id="Node000004" class="node">
<title>Node4</title>
<g id="a_Node000004"><a xlink:href="class_g_l_e_s_c_1_1_math_1_1_matrix.html#aff594d6ca99e77245be43a2d1a833917" target="_top" xlink:title=" ">
<polygon fill="white" stroke="#666666" points="109.75,-108 0,-108 0,-76 109.75,-76 109.75,-108"/>
<text text-anchor="start" x="8" y="-94.5" font-family="Helvetica,sans-Serif" font-size="10.00">GLESC::Math::Matrix</text>
<text text-anchor="middle" x="54.88" y="-82.5" font-family="Helvetica,sans-Serif" font-size="10.00">::operator=</text>
</a>
</g>
</g>
<!-- Node1&#45;&gt;Node4 -->
<g id="edge3_Node000001_Node000004" class="edge">
<title>Node1&#45;&gt;Node4</title>
<g id="a_edge3_Node000001_Node000004"><a xlink:title=" ">
<path fill="none" stroke="#63b8ff" d="M134.33,-92C125.98,-92 117.7,-92 109.82,-92"/>
<polygon fill="#63b8ff" stroke="#63b8ff" points="134.22,-95.5 144.22,-92 134.22,-88.5 134.22,-95.5"/>
</a>
</g>
</g>
<!-- Node5 -->
<g id="Node000005" class="node">
<title>Node5</title>
<g id="a_Node000005"><a xlink:href="_matrix_algorithms_tests_8cpp.html#a9b53cd3c81f5135321e61bd53ba40dd3" target="_top" xlink:title=" ">
<polygon fill="white" stroke="#666666" points="93.62,-58 16.12,-58 16.12,-38 93.62,-38 93.62,-58"/>
<text text-anchor="middle" x="54.88" y="-44.5" font-family="Helvetica,sans-Serif" font-size="10.00">TYPED_TEST</text>
</a>
</g>
</g>
<!-- Node1&#45;&gt;Node5 -->
<g id="edge4_Node000001_Node000005" class="edge">
<title>Node1&#45;&gt;Node5</title>
<g id="a_edge4_Node000001_Node000005"><a xlink:title=" ">
<path fill="none" stroke="#63b8ff" d="M149.77,-72.74C130.48,-67.66 110.44,-62.38 93.85,-58.01"/>
<polygon fill="#63b8ff" stroke="#63b8ff" points="148.67,-76.07 159.23,-75.23 150.45,-69.3 148.67,-76.07"/>
</a>
</g>
</g>
<!-- Node6 -->
<g id="Node000006" class="node">
<title>Node6</title>
<g id="a_Node000006"><a xlink:href="_matrix_algorithms_tests_8cpp.html#ae82bcdeeed90a56f025ed74ef1a5d0dc" target="_top" xlink:title=" ">
<polygon fill="white" stroke="#666666" points="93.62,-20 16.12,-20 16.12,0 93.62,0 93.62,-20"/>
<text text-anchor="middle" x="54.88" y="-6.5" font-family="Helvetica,sans-Serif" font-size="10.00">TYPED_TEST</text>
</a>
</g>
</g>
<!-- Node1&#45;&gt;Node6 -->
<g id="edge5_Node000001_Node000006" class="edge">
<title>Node1&#45;&gt;Node6</title>
<g id="a_edge5_Node000001_Node000006"><a xlink:title=" ">
<path fill="none" stroke="#63b8ff" d="M186.74,-69.82C164.92,-56.95 136.29,-40.97 109.75,-29 102.97,-25.94 95.54,-23.05 88.42,-20.48"/>
<polygon fill="#63b8ff" stroke="#63b8ff" points="184.88,-72.78 195.26,-74.89 188.46,-66.77 184.88,-72.78"/>
</a>
</g>
</g>
</g>
</svg>
