<?xml version="1.0" encoding="UTF-8" standalone="no"?>
<!DOCTYPE svg PUBLIC "-//W3C//DTD SVG 1.1//EN"
 "http://www.w3.org/Graphics/SVG/1.1/DTD/svg11.dtd">
<!-- Generated by graphviz version 11.0.0 (20240428.1522)
 -->
<!-- Title: GLESC::Math::BoundingVolume::updateBoundingBox Pages: 1 -->
<!--zoomable 228 -->

<svg id="main" version="1.1" xmlns="http://www.w3.org/2000/svg" xmlns:xlink="http://www.w3.org/1999/xlink" xml:space="preserve" onload="init(evt)">
<style type="text/css"><![CDATA[
.node, .edge {opacity: 0.7;}
.node.selected, .edge.selected {opacity: 1;}
.edge:hover path { stroke: red; }
.edge:hover polygon { stroke: red; fill: red; }
]]></style>

<defs>
  <circle id="rim" cx="0" cy="0" r="7"/>
  <circle id="rim2" cx="0" cy="0" r="3.5"/>
  <g id="zoomPlus">
    <use xlink:href="#rim" fill="#404040"><set attributeName="fill" to="#808080" begin="zoomplus.mouseover" end="zoomplus.mouseout"/></use>
    <path d="M-4,0h8M0,-4v8" fill="none" stroke="white" stroke-width="1.5" pointer-events="none"/>
  </g>
  <g id="zoomMin">
    <use xlink:href="#rim" fill="#404040"><set attributeName="fill" to="#808080" begin="zoomminus.mouseover" end="zoomminus.mouseout"/></use>
    <path d="M-4,0h8" fill="none" stroke="white" stroke-width="1.5" pointer-events="none"/>
  </g>
  <g id="arrowUp" transform="translate(30 24)">
    <use xlink:href="#rim"/>
    <path pointer-events="none" fill="none" stroke="white" stroke-width="1.5" d="M0,-3.0v7 M-2.5,-0.5L0,-3.0L2.5,-0.5"/>
  </g>
  <g id="arrowRight" transform="rotate(90) translate(36 -43)">
    <use xlink:href="#rim"/>
    <path pointer-events="none" fill="none" stroke="white" stroke-width="1.5" d="M0,-3.0v7 M-2.5,-0.5L0,-3.0L2.5,-0.5"/>
  </g>
  <g id="arrowDown" transform="rotate(180) translate(-30 -48)">
    <use xlink:href="#rim"/>
    <path pointer-events="none" fill="none" stroke="white" stroke-width="1.5" d="M0,-3.0v7 M-2.5,-0.5L0,-3.0L2.5,-0.5"/>
  </g>
  <g id="arrowLeft" transform="rotate(270) translate(-36 17)">
    <use xlink:href="#rim"/>
    <path pointer-events="none" fill="none" stroke="white" stroke-width="1.5" d="M0,-3.0v7 M-2.5,-0.5L0,-3.0L2.5,-0.5"/>
  </g>
  <g id="resetDef">
    <use xlink:href="#rim2" fill="#404040"><set attributeName="fill" to="#808080" begin="reset.mouseover" end="reset.mouseout"/></use>
  </g>
</defs>
<script type="application/ecmascript">
var viewWidth = 786;
var viewHeight = 228;
var sectionId = 'dynsection-8';
</script>
<script type="application/ecmascript" xlink:href="svg.min.js"/>
<svg id="graph" class="graph">
<g id="viewport">
<title>GLESC::Math::BoundingVolume::updateBoundingBox</title>
<!-- Node1 -->
<g id="Node000001" class="node">
<title>Node1</title>
<g id="a_Node000001"><a xlink:title="Updates the bounding volume to fit the points it encloses.">
<polygon fill="#999999" stroke="#666666" points="778.25,-120 622,-120 622,-88 778.25,-88 778.25,-120"/>
<text text-anchor="start" x="630" y="-106.5" font-family="Helvetica,sans-Serif" font-size="10.00">GLESC::Math::BoundingVolume</text>
<text text-anchor="middle" x="700.12" y="-94.5" font-family="Helvetica,sans-Serif" font-size="10.00">::updateBoundingBox</text>
</a>
</g>
</g>
<!-- Node2 -->
<g id="Node000002" class="node">
<title>Node2</title>
<g id="a_Node000002"><a xlink:href="class_g_l_e_s_c_1_1_render_1_1_mesh.html#ade8b0c4ff0b02d0484e7d0877880e918" target="_top" xlink:title=" ">
<polygon fill="white" stroke="#666666" points="586,-120 470.25,-120 470.25,-88 586,-88 586,-120"/>
<text text-anchor="start" x="478.25" y="-106.5" font-family="Helvetica,sans-Serif" font-size="10.00">GLESC::Render::Mesh</text>
<text text-anchor="middle" x="528.12" y="-94.5" font-family="Helvetica,sans-Serif" font-size="10.00">::finishBuilding</text>
</a>
</g>
</g>
<!-- Node1&#45;&gt;Node2 -->
<g id="edge1_Node000001_Node000002" class="edge">
<title>Node1&#45;&gt;Node2</title>
<g id="a_edge1_Node000001_Node000002"><a xlink:title=" ">
<path fill="none" stroke="#63b8ff" d="M610.2,-104C602.14,-104 594.13,-104 586.46,-104"/>
<polygon fill="#63b8ff" stroke="#63b8ff" points="610.07,-107.5 620.07,-104 610.07,-100.5 610.07,-107.5"/>
</a>
</g>
</g>
<!-- Node3 -->
<g id="Node000003" class="node">
<title>Node3</title>
<g id="a_Node000003"><a xlink:href="class_g_l_e_s_c_1_1_render_1_1_mesh_factory.html#a871c80a56dc8888b526df44b1ac49dca" target="_top" xlink:title="Creates a cuboid mesh given a width, height, depth and a color.">
<polygon fill="white" stroke="#666666" points="434.25,-220 285.5,-220 285.5,-188 434.25,-188 434.25,-220"/>
<text text-anchor="start" x="293.5" y="-206.5" font-family="Helvetica,sans-Serif" font-size="10.00">GLESC::Render::MeshFactory</text>
<text text-anchor="middle" x="359.88" y="-194.5" font-family="Helvetica,sans-Serif" font-size="10.00">::cuboid</text>
</a>
</g>
</g>
<!-- Node2&#45;&gt;Node3 -->
<g id="edge2_Node000002_Node000003" class="edge">
<title>Node2&#45;&gt;Node3</title>
<g id="a_edge2_Node000002_Node000003"><a xlink:title=" ">
<path fill="none" stroke="#63b8ff" d="M502.55,-127.89C484.77,-144.11 459.52,-165.07 434.25,-179 428.48,-182.18 422.22,-185.06 415.89,-187.64"/>
<polygon fill="#63b8ff" stroke="#63b8ff" points="504.6,-130.76 509.54,-121.38 499.83,-125.63 504.6,-130.76"/>
</a>
</g>
</g>
<!-- Node6 -->
<g id="Node000006" class="node">
<title>Node6</title>
<g id="a_Node000006"><a xlink:href="class_g_l_e_s_c_1_1_render_1_1_mesh_factory.html#aff179044917548ba91300a69ffb39256" target="_top" xlink:title=" ">
<polygon fill="white" stroke="#666666" points="434.25,-170 285.5,-170 285.5,-138 434.25,-138 434.25,-170"/>
<text text-anchor="start" x="293.5" y="-156.5" font-family="Helvetica,sans-Serif" font-size="10.00">GLESC::Render::MeshFactory</text>
<text text-anchor="middle" x="359.88" y="-144.5" font-family="Helvetica,sans-Serif" font-size="10.00">::plane</text>
</a>
</g>
</g>
<!-- Node2&#45;&gt;Node6 -->
<g id="edge5_Node000002_Node000006" class="edge">
<title>Node2&#45;&gt;Node6</title>
<g id="a_edge5_Node000002_Node000006"><a xlink:title=" ">
<path fill="none" stroke="#63b8ff" d="M461.77,-123.66C446.53,-128.24 430.45,-133.08 415.72,-137.51"/>
<polygon fill="#63b8ff" stroke="#63b8ff" points="462.67,-127.04 471.24,-120.81 460.65,-120.34 462.67,-127.04"/>
</a>
</g>
</g>
<!-- Node7 -->
<g id="Node000007" class="node">
<title>Node7</title>
<g id="a_Node000007"><a xlink:href="class_g_l_e_s_c_1_1_render_1_1_mesh_factory.html#aefd29f32b084155c54dd3d91fef99aba" target="_top" xlink:title=" ">
<polygon fill="white" stroke="#666666" points="434.25,-120 285.5,-120 285.5,-88 434.25,-88 434.25,-120"/>
<text text-anchor="start" x="293.5" y="-106.5" font-family="Helvetica,sans-Serif" font-size="10.00">GLESC::Render::MeshFactory</text>
<text text-anchor="middle" x="359.88" y="-94.5" font-family="Helvetica,sans-Serif" font-size="10.00">::pyramid</text>
</a>
</g>
</g>
<!-- Node2&#45;&gt;Node7 -->
<g id="edge6_Node000002_Node000007" class="edge">
<title>Node2&#45;&gt;Node7</title>
<g id="a_edge6_Node000002_Node000007"><a xlink:title=" ">
<path fill="none" stroke="#63b8ff" d="M458.53,-104C450.64,-104 442.58,-104 434.64,-104"/>
<polygon fill="#63b8ff" stroke="#63b8ff" points="458.4,-107.5 468.4,-104 458.4,-100.5 458.4,-107.5"/>
</a>
</g>
</g>
<!-- Node8 -->
<g id="Node000008" class="node">
<title>Node8</title>
<g id="a_Node000008"><a xlink:href="class_g_l_e_s_c_1_1_render_1_1_mesh_factory.html#ac34bbd39823c1d507524e1395305e310" target="_top" xlink:title="Creates a sphere mesh given a number of slices, stacks, a radius and a color.">
<polygon fill="white" stroke="#666666" points="249.5,-123 100.75,-123 100.75,-91 249.5,-91 249.5,-123"/>
<text text-anchor="start" x="108.75" y="-109.5" font-family="Helvetica,sans-Serif" font-size="10.00">GLESC::Render::MeshFactory</text>
<text text-anchor="middle" x="175.12" y="-97.5" font-family="Helvetica,sans-Serif" font-size="10.00">::sphere</text>
</a>
</g>
</g>
<!-- Node2&#45;&gt;Node8 -->
<g id="edge7_Node000002_Node000008" class="edge">
<title>Node2&#45;&gt;Node8</title>
<g id="a_edge7_Node000002_Node000008"><a xlink:title=" ">
<path fill="none" stroke="#63b8ff" d="M464.42,-84.74C454.41,-82.36 444.11,-80.3 434.25,-79 368.71,-70.33 351.09,-70.74 285.5,-79 266.93,-81.34 246.99,-85.83 229.29,-90.54"/>
<polygon fill="#63b8ff" stroke="#63b8ff" points="463.53,-88.12 474.08,-87.17 465.24,-81.33 463.53,-88.12"/>
</a>
</g>
</g>
<!-- Node9 -->
<g id="Node000009" class="node">
<title>Node9</title>
<g id="a_Node000009"><a xlink:href="class_g_l_e_s_c_1_1_render_1_1_mesh_factory.html#a1e3caaf52ad95406520b1ad999bd357b" target="_top" xlink:title=" ">
<polygon fill="white" stroke="#666666" points="434.25,-32 285.5,-32 285.5,0 434.25,0 434.25,-32"/>
<text text-anchor="start" x="293.5" y="-18.5" font-family="Helvetica,sans-Serif" font-size="10.00">GLESC::Render::MeshFactory</text>
<text text-anchor="middle" x="359.88" y="-6.5" font-family="Helvetica,sans-Serif" font-size="10.00">::tris</text>
</a>
</g>
</g>
<!-- Node2&#45;&gt;Node9 -->
<g id="edge9_Node000002_Node000009" class="edge">
<title>Node2&#45;&gt;Node9</title>
<g id="a_edge9_Node000002_Node000009"><a xlink:title=" ">
<path fill="none" stroke="#63b8ff" d="M494.18,-81.51C476.77,-70.13 454.81,-56.53 434.25,-46 424.82,-41.17 414.42,-36.53 404.49,-32.41"/>
<polygon fill="#63b8ff" stroke="#63b8ff" points="491.81,-84.14 502.08,-86.74 495.67,-78.3 491.81,-84.14"/>
</a>
</g>
</g>
<!-- Node4 -->
<g id="Node000004" class="node">
<title>Node4</title>
<g id="a_Node000004"><a xlink:href="class_g_l_e_s_c_1_1_render_1_1_mesh_factory.html#a4b07130768fe0a8e6720aa0550a7b5dd" target="_top" xlink:title="Creates a cube mesh given a color and a radius.">
<polygon fill="white" stroke="#666666" points="249.5,-196 100.75,-196 100.75,-164 249.5,-164 249.5,-196"/>
<text text-anchor="start" x="108.75" y="-182.5" font-family="Helvetica,sans-Serif" font-size="10.00">GLESC::Render::MeshFactory</text>
<text text-anchor="middle" x="175.12" y="-170.5" font-family="Helvetica,sans-Serif" font-size="10.00">::cube</text>
</a>
</g>
</g>
<!-- Node3&#45;&gt;Node4 -->
<g id="edge3_Node000003_Node000004" class="edge">
<title>Node3&#45;&gt;Node4</title>
<g id="a_edge3_Node000003_Node000004"><a xlink:title=" ">
<path fill="none" stroke="#63b8ff" d="M273.84,-192.83C265.84,-191.78 257.79,-190.72 249.91,-189.69"/>
<polygon fill="#63b8ff" stroke="#63b8ff" points="273.2,-196.28 283.57,-194.11 274.11,-189.34 273.2,-196.28"/>
</a>
</g>
</g>
<!-- Node5 -->
<g id="Node000005" class="node">
<title>Node5</title>
<g id="a_Node000005"><a xlink:href="class_default.html#a6e26da3ebf533b0f5d45266cd0ce9082" target="_top" xlink:title="Initializes the scene. Must be implemented by the derived class.">
<polygon fill="white" stroke="#666666" points="64.75,-142 0,-142 0,-122 64.75,-122 64.75,-142"/>
<text text-anchor="middle" x="32.38" y="-128.5" font-family="Helvetica,sans-Serif" font-size="10.00">Default::init</text>
</a>
</g>
</g>
<!-- Node4&#45;&gt;Node5 -->
<g id="edge4_Node000004_Node000005" class="edge">
<title>Node4&#45;&gt;Node5</title>
<g id="a_edge4_Node000004_Node000005"><a xlink:title=" ">
<path fill="none" stroke="#63b8ff" d="M115.28,-159.93C97.65,-153.92 79.04,-147.57 64.01,-142.45"/>
<polygon fill="#63b8ff" stroke="#63b8ff" points="114.05,-163.21 124.65,-163.13 116.31,-156.59 114.05,-163.21"/>
</a>
</g>
</g>
<!-- Node8&#45;&gt;Node5 -->
<g id="edge8_Node000008_Node000005" class="edge">
<title>Node8&#45;&gt;Node5</title>
<g id="a_edge8_Node000008_Node000005"><a xlink:title=" ">
<path fill="none" stroke="#63b8ff" d="M89.39,-122.05C80.76,-123.58 72.42,-125.06 64.94,-126.39"/>
<polygon fill="#63b8ff" stroke="#63b8ff" points="89.73,-125.55 98.96,-120.35 88.5,-118.65 89.73,-125.55"/>
</a>
</g>
</g>
</g>
</svg>

<g id="navigator" transform="translate(0 0)" fill="#404254">
  <rect fill="#f2f5e9" fill-opacity="0.5" stroke="#606060" stroke-width=".5" x="0" y="0" width="60" height="60"/>
  <use id="zoomplus" xlink:href="#zoomPlus" x="17" y="9" onmousedown="handleZoom(evt,'in')"/>
  <use id="zoomminus" xlink:href="#zoomMin" x="42" y="9" onmousedown="handleZoom(evt,'out')"/>
  <use id="reset" xlink:href="#resetDef" x="30" y="36" onmousedown="handleReset()"/>
   <use id="arrowup" xlink:href="#arrowUp" x="0" y="0" onmousedown="handlePan(0,-1)"/>
  <use id="arrowright" xlink:href="#arrowRight" x="0" y="0" onmousedown="handlePan(1,0)"/>
  <use id="arrowdown" xlink:href="#arrowDown" x="0" y="0" onmousedown="handlePan(0,1)"/>
  <use id="arrowleft" xlink:href="#arrowLeft" x="0" y="0" onmousedown="handlePan(-1,0)"/>
</g>
<svg viewBox="0 0 15 15" width="100%" height="30px" preserveAspectRatio="xMaxYMin meet">
 <g id="arrow_out" transform="scale(0.3 0.3)">
  <a xlink:href="class_g_l_e_s_c_1_1_math_1_1_bounding_volume_a61c5ed29689b97d66a06eaf16b8dfc36_icgraph_org.svg" target="_base">
   <rect id="button" ry="5" rx="5" y="6" x="6" height="38" width="38"
        fill="#f2f5e9" fill-opacity="0.5" stroke="#606060" stroke-width="1.0"/>
   <path id="arrow"
     d="M 11.500037,31.436501 C 11.940474,20.09759 22.043105,11.32322 32.158766,21.979434 L 37.068811,17.246167 C 37.068811,17.246167 37.088388,32 37.088388,32 L 22.160133,31.978069 C 22.160133,31.978069 26.997745,27.140456 26.997745,27.140456 C 18.528582,18.264221 13.291696,25.230495 11.500037,31.436501 z"
     style="fill:#404040;"/>
  </a>
 </g>
</svg>

<style type='text/css'>
<![CDATA[
[data-mouse-over-selected='false'] { opacity: 0.7; }
[data-mouse-over-selected='true']  { opacity: 1.0; }
]]>
</style>
<script type="application/ecmascript"><![CDATA[
document.addEventListener('DOMContentLoaded', (event) => {
  highlightEdges();
  highlightAdjacentNodes();
});
]]></script>
</svg>
