<?xml version="1.0" encoding="UTF-8" standalone="no"?>
<!DOCTYPE svg PUBLIC "-//W3C//DTD SVG 1.1//EN"
 "http://www.w3.org/Graphics/SVG/1.1/DTD/svg11.dtd">
<!-- Generated by graphviz version 11.0.0 (20240428.1522)
 -->
<!-- Title: GLESC::ECS::ECSCoordinator::registerSystem Pages: 1 -->
<svg width="536pt" height="62pt"
 viewBox="0.00 0.00 536.00 62.00" xmlns="http://www.w3.org/2000/svg" xmlns:xlink="http://www.w3.org/1999/xlink">
<g id="graph0" class="graph" transform="scale(1 1) rotate(0) translate(4 58)">
<title>GLESC::ECS::ECSCoordinator::registerSystem</title>
<!-- Node1 -->
<g id="Node000001" class="node">
<title>Node1</title>
<g id="a_Node000001"><a xlink:title="Registers the system in the system manager so it can be used and updated. If the system is already re...">
<polygon fill="#999999" stroke="#666666" points="151,-54 0,-54 0,-22 151,-22 151,-54"/>
<text text-anchor="start" x="8" y="-40.5" font-family="Helvetica,sans-Serif" font-size="10.00">GLESC::ECS::ECSCoordinator</text>
<text text-anchor="middle" x="75.5" y="-28.5" font-family="Helvetica,sans-Serif" font-size="10.00">::registerSystem</text>
</a>
</g>
</g>
<!-- Node2 -->
<g id="Node000002" class="node">
<title>Node2</title>
<g id="a_Node000002"><a xlink:href="class_g_l_e_s_c_1_1_e_c_s_1_1_system_manager.html#a32f415d7a7e0cefc9e1b5c71a4dc1be4" target="_top" xlink:title="Checks if a system is registered.">
<polygon fill="white" stroke="#666666" points="528,-54 375.5,-54 375.5,-22 528,-22 528,-54"/>
<text text-anchor="start" x="383.5" y="-40.5" font-family="Helvetica,sans-Serif" font-size="10.00">GLESC::ECS::SystemManager</text>
<text text-anchor="middle" x="451.75" y="-28.5" font-family="Helvetica,sans-Serif" font-size="10.00">::isSystemRegistered</text>
</a>
</g>
</g>
<!-- Node1&#45;&gt;Node2 -->
<g id="edge1_Node000001_Node000002" class="edge">
<title>Node1&#45;&gt;Node2</title>
<g id="a_edge1_Node000001_Node000002"><a xlink:title=" ">
<path fill="none" stroke="#63b8ff" d="M151.39,-40.31C163.3,-40.6 175.49,-40.84 187,-41 254.77,-41.92 271.73,-41.91 339.5,-41 347.31,-40.89 355.43,-40.75 363.57,-40.58"/>
<polygon fill="#63b8ff" stroke="#63b8ff" points="363.62,-44.07 373.54,-40.35 363.46,-37.08 363.62,-44.07"/>
</a>
</g>
</g>
<!-- Node3 -->
<g id="Node000003" class="node">
<title>Node3</title>
<g id="a_Node000003"><a xlink:href="class_g_l_e_s_c_1_1_e_c_s_1_1_system_manager.html#aff492e867275d4474b3adbca6798f4b0" target="_top" xlink:title="Registers a system in the system manager. It initializes the system data such as the signature and th...">
<polygon fill="white" stroke="#666666" points="339.5,-32 187,-32 187,0 339.5,0 339.5,-32"/>
<text text-anchor="start" x="195" y="-18.5" font-family="Helvetica,sans-Serif" font-size="10.00">GLESC::ECS::SystemManager</text>
<text text-anchor="middle" x="263.25" y="-6.5" font-family="Helvetica,sans-Serif" font-size="10.00">::registerSystem</text>
</a>
</g>
</g>
<!-- Node1&#45;&gt;Node3 -->
<g id="edge2_Node000001_Node000003" class="edge">
<title>Node1&#45;&gt;Node3</title>
<g id="a_edge2_Node000001_Node000003"><a xlink:title=" ">
<path fill="none" stroke="#63b8ff" d="M151.25,-29.15C159.2,-28.21 167.33,-27.24 175.4,-26.29"/>
<polygon fill="#63b8ff" stroke="#63b8ff" points="175.72,-29.77 185.24,-25.12 174.9,-22.82 175.72,-29.77"/>
</a>
</g>
</g>
<!-- Node3&#45;&gt;Node2 -->
<g id="edge3_Node000003_Node000002" class="edge">
<title>Node3&#45;&gt;Node2</title>
<g id="a_edge3_Node000003_Node000002"><a xlink:title=" ">
<path fill="none" stroke="#63b8ff" d="M339.84,-24.92C347.73,-25.85 355.8,-26.8 363.8,-27.74"/>
<polygon fill="#63b8ff" stroke="#63b8ff" points="363.21,-31.2 373.55,-28.89 364.03,-24.25 363.21,-31.2"/>
</a>
</g>
</g>
</g>
</svg>
