<?xml version="1.0" encoding="UTF-8" standalone="no"?>
<!DOCTYPE svg PUBLIC "-//W3C//DTD SVG 1.1//EN"
 "http://www.w3.org/Graphics/SVG/1.1/DTD/svg11.dtd">
<!-- Generated by graphviz version 11.0.0 (20240428.1522)
 -->
<!-- Title: GLESC::Engine::createEngineEntities Pages: 1 -->
<!--zoomable 316 -->

<svg id="main" version="1.1" xmlns="http://www.w3.org/2000/svg" xmlns:xlink="http://www.w3.org/1999/xlink" xml:space="preserve" onload="init(evt)">
<style type="text/css"><![CDATA[
.node, .edge {opacity: 0.7;}
.node.selected, .edge.selected {opacity: 1;}
.edge:hover path { stroke: red; }
.edge:hover polygon { stroke: red; fill: red; }
]]></style>

<defs>
  <circle id="rim" cx="0" cy="0" r="7"/>
  <circle id="rim2" cx="0" cy="0" r="3.5"/>
  <g id="zoomPlus">
    <use xlink:href="#rim" fill="#404040"><set attributeName="fill" to="#808080" begin="zoomplus.mouseover" end="zoomplus.mouseout"/></use>
    <path d="M-4,0h8M0,-4v8" fill="none" stroke="white" stroke-width="1.5" pointer-events="none"/>
  </g>
  <g id="zoomMin">
    <use xlink:href="#rim" fill="#404040"><set attributeName="fill" to="#808080" begin="zoomminus.mouseover" end="zoomminus.mouseout"/></use>
    <path d="M-4,0h8" fill="none" stroke="white" stroke-width="1.5" pointer-events="none"/>
  </g>
  <g id="arrowUp" transform="translate(30 24)">
    <use xlink:href="#rim"/>
    <path pointer-events="none" fill="none" stroke="white" stroke-width="1.5" d="M0,-3.0v7 M-2.5,-0.5L0,-3.0L2.5,-0.5"/>
  </g>
  <g id="arrowRight" transform="rotate(90) translate(36 -43)">
    <use xlink:href="#rim"/>
    <path pointer-events="none" fill="none" stroke="white" stroke-width="1.5" d="M0,-3.0v7 M-2.5,-0.5L0,-3.0L2.5,-0.5"/>
  </g>
  <g id="arrowDown" transform="rotate(180) translate(-30 -48)">
    <use xlink:href="#rim"/>
    <path pointer-events="none" fill="none" stroke="white" stroke-width="1.5" d="M0,-3.0v7 M-2.5,-0.5L0,-3.0L2.5,-0.5"/>
  </g>
  <g id="arrowLeft" transform="rotate(270) translate(-36 17)">
    <use xlink:href="#rim"/>
    <path pointer-events="none" fill="none" stroke="white" stroke-width="1.5" d="M0,-3.0v7 M-2.5,-0.5L0,-3.0L2.5,-0.5"/>
  </g>
  <g id="resetDef">
    <use xlink:href="#rim2" fill="#404040"><set attributeName="fill" to="#808080" begin="reset.mouseover" end="reset.mouseout"/></use>
  </g>
</defs>
<script type="application/ecmascript">
var viewWidth = 1132;
var viewHeight = 316;
var sectionId = 'dynsection-3';
</script>
<script type="application/ecmascript" xlink:href="svg.min.js"/>
<svg id="graph" class="graph">
<g id="viewport">
<title>GLESC::Engine::createEngineEntities</title>
<!-- Node1 -->
<g id="Node000001" class="node">
<title>Node1</title>
<g id="a_Node000001"><a xlink:title=" ">
<polygon fill="#999999" stroke="#666666" points="148,-150 0,-150 0,-118 148,-118 148,-150"/>
<text text-anchor="start" x="8" y="-136.5" font-family="Helvetica,sans-Serif" font-size="10.00">GLESC::Engine::createEngine</text>
<text text-anchor="middle" x="74" y="-124.5" font-family="Helvetica,sans-Serif" font-size="10.00">Entities</text>
</a>
</g>
</g>
<!-- Node2 -->
<g id="Node000002" class="node">
<title>Node2</title>
<g id="a_Node000002"><a xlink:href="class_g_l_e_s_c_1_1_e_c_s_1_1_entity.html#a9e9f27d8c519ebe4c50e3463608d06b2" target="_top" xlink:title="Adds a component to the entity and returns a reference to it The components is registered to the ECSM...">
<polygon fill="white" stroke="#666666" points="307.25,-204 200.5,-204 200.5,-172 307.25,-172 307.25,-204"/>
<text text-anchor="start" x="208.5" y="-190.5" font-family="Helvetica,sans-Serif" font-size="10.00">GLESC::ECS::Entity</text>
<text text-anchor="middle" x="253.88" y="-178.5" font-family="Helvetica,sans-Serif" font-size="10.00">::addComponent</text>
</a>
</g>
</g>
<!-- Node1&#45;&gt;Node2 -->
<g id="edge1_Node000001_Node000002" class="edge">
<title>Node1&#45;&gt;Node2</title>
<g id="a_edge1_Node000001_Node000002"><a xlink:title=" ">
<path fill="none" stroke="#63b8ff" d="M129.33,-150.5C148.21,-156.23 169.55,-162.7 189.12,-168.65"/>
<polygon fill="#63b8ff" stroke="#63b8ff" points="188.06,-171.98 198.65,-171.54 190.09,-165.28 188.06,-171.98"/>
</a>
</g>
</g>
<!-- Node12 -->
<g id="Node000012" class="node">
<title>Node12</title>
<g id="a_Node000012"><a xlink:href="class_g_l_e_s_c_1_1_e_c_s_1_1_entity_factory.html#ad221fc5ee0b013516db800c6940e7d94" target="_top" xlink:title="Creates an entity with a name and metadata.">
<polygon fill="white" stroke="#666666" points="323.75,-150 184,-150 184,-118 323.75,-118 323.75,-150"/>
<text text-anchor="start" x="192" y="-136.5" font-family="Helvetica,sans-Serif" font-size="10.00">GLESC::ECS::EntityFactory</text>
<text text-anchor="middle" x="253.88" y="-124.5" font-family="Helvetica,sans-Serif" font-size="10.00">::createEntity</text>
</a>
</g>
</g>
<!-- Node1&#45;&gt;Node12 -->
<g id="edge14_Node000001_Node000012" class="edge">
<title>Node1&#45;&gt;Node12</title>
<g id="a_edge14_Node000001_Node000012"><a xlink:title=" ">
<path fill="none" stroke="#63b8ff" d="M148.38,-134C156.31,-134 164.42,-134 172.43,-134"/>
<polygon fill="#63b8ff" stroke="#63b8ff" points="172.16,-137.5 182.16,-134 172.16,-130.5 172.16,-137.5"/>
</a>
</g>
</g>
<!-- Node13 -->
<g id="Node000013" class="node">
<title>Node13</title>
<g id="a_Node000013"><a xlink:href="class_g_l_e_s_c_1_1_e_c_s_1_1_entity.html#a14143b00be0701d787f043955c449e22" target="_top" xlink:title="Returns a reference to the component.">
<polygon fill="white" stroke="#666666" points="307.25,-92 200.5,-92 200.5,-60 307.25,-60 307.25,-92"/>
<text text-anchor="start" x="208.5" y="-78.5" font-family="Helvetica,sans-Serif" font-size="10.00">GLESC::ECS::Entity</text>
<text text-anchor="middle" x="253.88" y="-66.5" font-family="Helvetica,sans-Serif" font-size="10.00">::getComponent</text>
</a>
</g>
</g>
<!-- Node1&#45;&gt;Node13 -->
<g id="edge15_Node000001_Node000013" class="edge">
<title>Node1&#45;&gt;Node13</title>
<g id="a_edge15_Node000001_Node000013"><a xlink:title=" ">
<path fill="none" stroke="#63b8ff" d="M125.5,-117.53C146.14,-110.8 170.22,-102.95 191.84,-95.9"/>
<polygon fill="#63b8ff" stroke="#63b8ff" points="192.7,-99.3 201.12,-92.88 190.53,-92.65 192.7,-99.3"/>
</a>
</g>
</g>
<!-- Node3 -->
<g id="Node000003" class="node">
<title>Node3</title>
<g id="a_Node000003"><a xlink:href="class_g_l_e_s_c_1_1_e_c_s_1_1_e_c_s_coordinator.html#ac174f3ade2ce8ea1a240c49385409942" target="_top" xlink:title="Add a component to an entity.">
<polygon fill="white" stroke="#666666" points="510.75,-206 359.75,-206 359.75,-174 510.75,-174 510.75,-206"/>
<text text-anchor="start" x="367.75" y="-192.5" font-family="Helvetica,sans-Serif" font-size="10.00">GLESC::ECS::ECSCoordinator</text>
<text text-anchor="middle" x="435.25" y="-180.5" font-family="Helvetica,sans-Serif" font-size="10.00">::addComponent</text>
</a>
</g>
</g>
<!-- Node2&#45;&gt;Node3 -->
<g id="edge2_Node000002_Node000003" class="edge">
<title>Node2&#45;&gt;Node3</title>
<g id="a_edge2_Node000002_Node000003"><a xlink:title=" ">
<path fill="none" stroke="#63b8ff" d="M307.72,-188.59C320.4,-188.73 334.26,-188.89 348.02,-189.04"/>
<polygon fill="#63b8ff" stroke="#63b8ff" points="347.97,-192.54 358,-189.15 348.04,-185.54 347.97,-192.54"/>
</a>
</g>
</g>
<!-- Node4 -->
<g id="Node000004" class="node">
<title>Node4</title>
<g id="a_Node000004"><a xlink:href="class_g_l_e_s_c_1_1_e_c_s_1_1_entity_manager.html#a8c54c83144ea6f6e27660aac346f1fa7" target="_top" xlink:title="Add a component to the entity. The entity must exist.">
<polygon fill="white" stroke="#666666" points="703,-308 558.75,-308 558.75,-276 703,-276 703,-308"/>
<text text-anchor="start" x="566.75" y="-294.5" font-family="Helvetica,sans-Serif" font-size="10.00">GLESC::ECS::EntityManager</text>
<text text-anchor="middle" x="630.88" y="-282.5" font-family="Helvetica,sans-Serif" font-size="10.00">::addComponentToEntity</text>
</a>
</g>
</g>
<!-- Node3&#45;&gt;Node4 -->
<g id="edge3_Node000003_Node000004" class="edge">
<title>Node3&#45;&gt;Node4</title>
<g id="a_edge3_Node000003_Node000004"><a xlink:title=" ">
<path fill="none" stroke="#63b8ff" d="M455.43,-206.22C476.59,-223.4 512.23,-250.31 546.75,-267 550.01,-268.57 553.38,-270.07 556.83,-271.5"/>
<polygon fill="#63b8ff" stroke="#63b8ff" points="555.32,-274.67 565.91,-275 557.84,-268.13 555.32,-274.67"/>
</a>
</g>
</g>
<!-- Node8 -->
<g id="Node000008" class="node">
<title>Node8</title>
<g id="a_Node000008"><a xlink:href="class_g_l_e_s_c_1_1_e_c_s_1_1_component_manager.html#a74683fbd748d8c01e27b63a5eeab010d" target="_top" xlink:title="Add a component to an entity.">
<polygon fill="white" stroke="#666666" points="715,-258 546.75,-258 546.75,-226 715,-226 715,-258"/>
<text text-anchor="start" x="554.75" y="-244.5" font-family="Helvetica,sans-Serif" font-size="10.00">GLESC::ECS::ComponentManager</text>
<text text-anchor="middle" x="630.88" y="-232.5" font-family="Helvetica,sans-Serif" font-size="10.00">::addComponentToEntity</text>
</a>
</g>
</g>
<!-- Node3&#45;&gt;Node8 -->
<g id="edge9_Node000003_Node000008" class="edge">
<title>Node3&#45;&gt;Node8</title>
<g id="a_edge9_Node000003_Node000008"><a xlink:title=" ">
<path fill="none" stroke="#63b8ff" d="M497.51,-206.45C516.59,-211.58 537.8,-217.27 557.56,-222.58"/>
<polygon fill="#63b8ff" stroke="#63b8ff" points="556.65,-225.96 567.22,-225.17 558.47,-219.2 556.65,-225.96"/>
</a>
</g>
</g>
<!-- Node9 -->
<g id="Node000009" class="node">
<title>Node9</title>
<g id="a_Node000009"><a xlink:href="class_g_l_e_s_c_1_1_e_c_s_1_1_system_manager.html#a69e2b35d930bdb4505587279d31b9400" target="_top" xlink:title="Adds the entity to the systems it is associated with and removes it from the systems it is no longer ...">
<polygon fill="white" stroke="#666666" points="707.12,-208 554.62,-208 554.62,-176 707.12,-176 707.12,-208"/>
<text text-anchor="start" x="562.62" y="-194.5" font-family="Helvetica,sans-Serif" font-size="10.00">GLESC::ECS::SystemManager</text>
<text text-anchor="middle" x="630.88" y="-182.5" font-family="Helvetica,sans-Serif" font-size="10.00">::entitySignatureChanged</text>
</a>
</g>
</g>
<!-- Node3&#45;&gt;Node9 -->
<g id="edge10_Node000003_Node000009" class="edge">
<title>Node3&#45;&gt;Node9</title>
<g id="a_edge10_Node000003_Node000009"><a xlink:title=" ">
<path fill="none" stroke="#63b8ff" d="M511.11,-190.77C521.5,-190.88 532.25,-190.99 542.85,-191.1"/>
<polygon fill="#63b8ff" stroke="#63b8ff" points="542.71,-194.6 552.74,-191.2 542.78,-187.6 542.71,-194.6"/>
</a>
</g>
</g>
<!-- Node10 -->
<g id="Node000010" class="node">
<title>Node10</title>
<g id="a_Node000010"><a xlink:href="class_g_l_e_s_c_1_1_e_c_s_1_1_component_manager.html#aa81ef6c48acdf07190ada035bfa9bd59" target="_top" xlink:title="Get the ID of a component by its type.">
<polygon fill="white" stroke="#666666" points="715,-158 546.75,-158 546.75,-126 715,-126 715,-158"/>
<text text-anchor="start" x="554.75" y="-144.5" font-family="Helvetica,sans-Serif" font-size="10.00">GLESC::ECS::ComponentManager</text>
<text text-anchor="middle" x="630.88" y="-132.5" font-family="Helvetica,sans-Serif" font-size="10.00">::getComponentID</text>
</a>
</g>
</g>
<!-- Node3&#45;&gt;Node10 -->
<g id="edge11_Node000003_Node000010" class="edge">
<title>Node3&#45;&gt;Node10</title>
<g id="a_edge11_Node000003_Node000010"><a xlink:title=" ">
<path fill="none" stroke="#63b8ff" d="M502.61,-173.55C518.78,-169.54 536.2,-165.22 552.82,-161.1"/>
<polygon fill="#63b8ff" stroke="#63b8ff" points="553.26,-164.6 562.13,-158.79 551.58,-157.8 553.26,-164.6"/>
</a>
</g>
</g>
<!-- Node11 -->
<g id="Node000011" class="node">
<title>Node11</title>
<g id="a_Node000011"><a xlink:href="class_g_l_e_s_c_1_1_e_c_s_1_1_entity_manager.html#afed1028adc518bc27c8cc190832f2bf9" target="_top" xlink:title="Get the signature of the entity. The entity must exist.">
<polygon fill="white" stroke="#666666" points="907.25,-142 763,-142 763,-110 907.25,-110 907.25,-142"/>
<text text-anchor="start" x="771" y="-128.5" font-family="Helvetica,sans-Serif" font-size="10.00">GLESC::ECS::EntityManager</text>
<text text-anchor="middle" x="835.12" y="-116.5" font-family="Helvetica,sans-Serif" font-size="10.00">::getSignature</text>
</a>
</g>
</g>
<!-- Node3&#45;&gt;Node11 -->
<g id="edge12_Node000003_Node000011" class="edge">
<title>Node3&#45;&gt;Node11</title>
<g id="a_edge12_Node000003_Node000011"><a xlink:title=" ">
<path fill="none" stroke="#63b8ff" d="M453.7,-173.67C474.16,-155.75 509.98,-128.05 546.75,-117 613.55,-96.93 693.06,-101.45 751.49,-109.7"/>
<polygon fill="#63b8ff" stroke="#63b8ff" points="750.61,-113.11 761.02,-111.11 751.64,-106.18 750.61,-113.11"/>
</a>
</g>
</g>
<!-- Node5 -->
<g id="Node000005" class="node">
<title>Node5</title>
<g id="a_Node000005"><a xlink:href="class_g_l_e_s_c_1_1_e_c_s_1_1_entity_manager.html#a5145504091eb26170aa219acb60aca71" target="_top" xlink:title="Check if the entity with the given name exists.">
<polygon fill="white" stroke="#666666" points="1111.5,-207 967.25,-207 967.25,-175 1111.5,-175 1111.5,-207"/>
<text text-anchor="start" x="975.25" y="-193.5" font-family="Helvetica,sans-Serif" font-size="10.00">GLESC::ECS::EntityManager</text>
<text text-anchor="middle" x="1039.38" y="-181.5" font-family="Helvetica,sans-Serif" font-size="10.00">::doesEntityExist</text>
</a>
</g>
</g>
<!-- Node4&#45;&gt;Node5 -->
<g id="edge4_Node000004_Node000005" class="edge">
<title>Node4&#45;&gt;Node5</title>
<g id="a_edge4_Node000004_Node000005"><a xlink:title=" ">
<path fill="none" stroke="#63b8ff" d="M699.26,-275.6C704.78,-273.11 710.11,-270.26 715,-267 736.01,-252.97 728.8,-235.07 751,-223 813.67,-188.93 895.3,-182.82 955.54,-184.13"/>
<polygon fill="#63b8ff" stroke="#63b8ff" points="955.3,-187.63 965.4,-184.43 955.51,-180.63 955.3,-187.63"/>
</a>
</g>
</g>
<!-- Node6 -->
<g id="Node000006" class="node">
<title>Node6</title>
<g id="a_Node000006"><a xlink:href="class_g_l_e_s_c_1_1_e_c_s_1_1_entity_manager.html#aab28983bdd04e1acf2dd7d94dbe4639d" target="_top" xlink:title="Check if the entity has the given component. The entity must exist and the component must be in the r...">
<polygon fill="white" stroke="#666666" points="907.25,-264 763,-264 763,-232 907.25,-232 907.25,-264"/>
<text text-anchor="start" x="771" y="-250.5" font-family="Helvetica,sans-Serif" font-size="10.00">GLESC::ECS::EntityManager</text>
<text text-anchor="middle" x="835.12" y="-238.5" font-family="Helvetica,sans-Serif" font-size="10.00">::doesEntityHaveComponent</text>
</a>
</g>
</g>
<!-- Node4&#45;&gt;Node6 -->
<g id="edge5_Node000004_Node000006" class="edge">
<title>Node4&#45;&gt;Node6</title>
<g id="a_edge5_Node000004_Node000006"><a xlink:title=" ">
<path fill="none" stroke="#63b8ff" d="M703.47,-276.43C719.07,-273.03 735.7,-269.41 751.69,-265.93"/>
<polygon fill="#63b8ff" stroke="#63b8ff" points="752.12,-269.42 761.15,-263.88 750.64,-262.58 752.12,-269.42"/>
</a>
</g>
</g>
<!-- Node7 -->
<g id="Node000007" class="node">
<title>Node7</title>
<g id="a_Node000007"><a xlink:href="class_g_l_e_s_c_1_1_e_c_s_1_1_entity_manager.html#a54e81951030afee74dd6ea3c4e2b74e5" target="_top" xlink:title="Check if the component ID is in the range of the signature.">
<polygon fill="white" stroke="#666666" points="1111.5,-276 967.25,-276 967.25,-244 1111.5,-244 1111.5,-276"/>
<text text-anchor="start" x="975.25" y="-262.5" font-family="Helvetica,sans-Serif" font-size="10.00">GLESC::ECS::EntityManager</text>
<text text-anchor="middle" x="1039.38" y="-250.5" font-family="Helvetica,sans-Serif" font-size="10.00">::isComponentInRange</text>
</a>
</g>
</g>
<!-- Node4&#45;&gt;Node7 -->
<g id="edge8_Node000004_Node000007" class="edge">
<title>Node4&#45;&gt;Node7</title>
<g id="a_edge8_Node000004_Node000007"><a xlink:title=" ">
<path fill="none" stroke="#63b8ff" d="M703.39,-288.12C761.57,-284.76 845.78,-279.43 919.25,-273 931.07,-271.96 943.54,-270.75 955.78,-269.48"/>
<polygon fill="#63b8ff" stroke="#63b8ff" points="955.84,-272.99 965.42,-268.46 955.11,-266.03 955.84,-272.99"/>
</a>
</g>
</g>
<!-- Node6&#45;&gt;Node5 -->
<g id="edge6_Node000006_Node000005" class="edge">
<title>Node6&#45;&gt;Node5</title>
<g id="a_edge6_Node000006_Node000005"><a xlink:title=" ">
<path fill="none" stroke="#63b8ff" d="M894.62,-231.51C917.89,-224.96 944.85,-217.36 969.09,-210.53"/>
<polygon fill="#63b8ff" stroke="#63b8ff" points="969.87,-213.94 978.55,-207.86 967.98,-207.2 969.87,-213.94"/>
</a>
</g>
</g>
<!-- Node6&#45;&gt;Node7 -->
<g id="edge7_Node000006_Node000007" class="edge">
<title>Node6&#45;&gt;Node7</title>
<g id="a_edge7_Node000006_Node000007"><a xlink:title=" ">
<path fill="none" stroke="#63b8ff" d="M907.72,-252.25C923.17,-253.16 939.63,-254.14 955.48,-255.08"/>
<polygon fill="#63b8ff" stroke="#63b8ff" points="955.18,-258.57 965.37,-255.67 955.59,-251.58 955.18,-258.57"/>
</a>
</g>
</g>
<!-- Node11&#45;&gt;Node5 -->
<g id="edge13_Node000011_Node000005" class="edge">
<title>Node11&#45;&gt;Node5</title>
<g id="a_edge13_Node000011_Node000005"><a xlink:title=" ">
<path fill="none" stroke="#63b8ff" d="M887.42,-142.49C914.51,-151.19 947.95,-161.94 976.47,-171.1"/>
<polygon fill="#63b8ff" stroke="#63b8ff" points="975.1,-174.34 985.69,-174.07 977.24,-167.68 975.1,-174.34"/>
</a>
</g>
</g>
<!-- Node14 -->
<g id="Node000014" class="node">
<title>Node14</title>
<g id="a_Node000014"><a xlink:href="class_g_l_e_s_c_1_1_e_c_s_1_1_e_c_s_coordinator.html#a70c1d7a354e40af5426372cb3daaaaf1" target="_top" xlink:title="Get the component of an entity by its Id.">
<polygon fill="white" stroke="#666666" points="510.75,-76 359.75,-76 359.75,-44 510.75,-44 510.75,-76"/>
<text text-anchor="start" x="367.75" y="-62.5" font-family="Helvetica,sans-Serif" font-size="10.00">GLESC::ECS::ECSCoordinator</text>
<text text-anchor="middle" x="435.25" y="-50.5" font-family="Helvetica,sans-Serif" font-size="10.00">::getComponent</text>
</a>
</g>
</g>
<!-- Node13&#45;&gt;Node14 -->
<g id="edge16_Node000013_Node000014" class="edge">
<title>Node13&#45;&gt;Node14</title>
<g id="a_edge16_Node000013_Node000014"><a xlink:title=" ">
<path fill="none" stroke="#63b8ff" d="M307.72,-71.29C320.53,-70.14 334.54,-68.89 348.43,-67.65"/>
<polygon fill="#63b8ff" stroke="#63b8ff" points="348.36,-71.18 358.01,-66.8 347.74,-64.2 348.36,-71.18"/>
</a>
</g>
</g>
<!-- Node14&#45;&gt;Node5 -->
<g id="edge17_Node000014_Node000005" class="edge">
<title>Node14&#45;&gt;Node5</title>
<g id="a_edge17_Node000014_Node000005"><a xlink:title=" ">
<path fill="none" stroke="#63b8ff" d="M511.08,-53.8C608.52,-48.5 782.51,-48.62 919.25,-101 956.64,-115.33 992.29,-145.14 1014.68,-166.53"/>
<polygon fill="#63b8ff" stroke="#63b8ff" points="1012.19,-168.99 1021.78,-173.49 1017.09,-163.99 1012.19,-168.99"/>
</a>
</g>
</g>
<!-- Node15 -->
<g id="Node000015" class="node">
<title>Node15</title>
<g id="a_Node000015"><a xlink:href="class_g_l_e_s_c_1_1_e_c_s_1_1_component_manager.html#ac63a277ed5aed0640e808f20480d01a1" target="_top" xlink:title="Get the component of an entity by its ID.">
<polygon fill="white" stroke="#666666" points="715,-32 546.75,-32 546.75,0 715,0 715,-32"/>
<text text-anchor="start" x="554.75" y="-18.5" font-family="Helvetica,sans-Serif" font-size="10.00">GLESC::ECS::ComponentManager</text>
<text text-anchor="middle" x="630.88" y="-6.5" font-family="Helvetica,sans-Serif" font-size="10.00">::getComponent</text>
</a>
</g>
</g>
<!-- Node14&#45;&gt;Node15 -->
<g id="edge18_Node000014_Node000015" class="edge">
<title>Node14&#45;&gt;Node15</title>
<g id="a_edge18_Node000014_Node000015"><a xlink:title=" ">
<path fill="none" stroke="#63b8ff" d="M508.62,-43.55C520.92,-40.76 533.78,-37.84 546.33,-34.98"/>
<polygon fill="#63b8ff" stroke="#63b8ff" points="546.81,-38.46 555.79,-32.84 545.26,-31.64 546.81,-38.46"/>
</a>
</g>
</g>
<!-- Node16 -->
<g id="Node000016" class="node">
<title>Node16</title>
<g id="a_Node000016"><a xlink:href="class_g_l_e_s_c_1_1_e_c_s_1_1_component_manager.html#ab06d3e4aecbf882b3f75fa4943f561f2" target="_top" xlink:title="Get the name of a component by its ID.">
<polygon fill="white" stroke="#666666" points="919.25,-32 751,-32 751,0 919.25,0 919.25,-32"/>
<text text-anchor="start" x="759" y="-18.5" font-family="Helvetica,sans-Serif" font-size="10.00">GLESC::ECS::ComponentManager</text>
<text text-anchor="middle" x="835.12" y="-6.5" font-family="Helvetica,sans-Serif" font-size="10.00">::getComponentName</text>
</a>
</g>
</g>
<!-- Node15&#45;&gt;Node16 -->
<g id="edge19_Node000015_Node000016" class="edge">
<title>Node15&#45;&gt;Node16</title>
<g id="a_edge19_Node000015_Node000016"><a xlink:title=" ">
<path fill="none" stroke="#63b8ff" d="M715.31,-16C723.22,-16 731.28,-16 739.29,-16"/>
<polygon fill="#63b8ff" stroke="#63b8ff" points="739.05,-19.5 749.05,-16 739.05,-12.5 739.05,-19.5"/>
</a>
</g>
</g>
<!-- Node17 -->
<g id="Node000017" class="node">
<title>Node17</title>
<g id="a_Node000017"><a xlink:href="class_g_l_e_s_c_1_1_e_c_s_1_1_component_manager.html#af4b8c65d69d17052413005a7402bf116" target="_top" xlink:title="Check if a component is registered.">
<polygon fill="white" stroke="#666666" points="1123.5,-32 955.25,-32 955.25,0 1123.5,0 1123.5,-32"/>
<text text-anchor="start" x="963.25" y="-18.5" font-family="Helvetica,sans-Serif" font-size="10.00">GLESC::ECS::ComponentManager</text>
<text text-anchor="middle" x="1039.38" y="-6.5" font-family="Helvetica,sans-Serif" font-size="10.00">::isComponentRegistered</text>
</a>
</g>
</g>
<!-- Node16&#45;&gt;Node17 -->
<g id="edge20_Node000016_Node000017" class="edge">
<title>Node16&#45;&gt;Node17</title>
<g id="a_edge20_Node000016_Node000017"><a xlink:title=" ">
<path fill="none" stroke="#63b8ff" d="M919.56,-16C927.47,-16 935.53,-16 943.54,-16"/>
<polygon fill="#63b8ff" stroke="#63b8ff" points="943.3,-19.5 953.3,-16 943.3,-12.5 943.3,-19.5"/>
</a>
</g>
</g>
</g>
</svg>

<g id="navigator" transform="translate(0 0)" fill="#404254">
  <rect fill="#f2f5e9" fill-opacity="0.5" stroke="#606060" stroke-width=".5" x="0" y="0" width="60" height="60"/>
  <use id="zoomplus" xlink:href="#zoomPlus" x="17" y="9" onmousedown="handleZoom(evt,'in')"/>
  <use id="zoomminus" xlink:href="#zoomMin" x="42" y="9" onmousedown="handleZoom(evt,'out')"/>
  <use id="reset" xlink:href="#resetDef" x="30" y="36" onmousedown="handleReset()"/>
   <use id="arrowup" xlink:href="#arrowUp" x="0" y="0" onmousedown="handlePan(0,-1)"/>
  <use id="arrowright" xlink:href="#arrowRight" x="0" y="0" onmousedown="handlePan(1,0)"/>
  <use id="arrowdown" xlink:href="#arrowDown" x="0" y="0" onmousedown="handlePan(0,1)"/>
  <use id="arrowleft" xlink:href="#arrowLeft" x="0" y="0" onmousedown="handlePan(-1,0)"/>
</g>
<svg viewBox="0 0 15 15" width="100%" height="30px" preserveAspectRatio="xMaxYMin meet">
 <g id="arrow_out" transform="scale(0.3 0.3)">
  <a xlink:href="class_g_l_e_s_c_1_1_engine_adb0bb222b1e702be0a95d55d8cfc915f_cgraph_org.svg" target="_base">
   <rect id="button" ry="5" rx="5" y="6" x="6" height="38" width="38"
        fill="#f2f5e9" fill-opacity="0.5" stroke="#606060" stroke-width="1.0"/>
   <path id="arrow"
     d="M 11.500037,31.436501 C 11.940474,20.09759 22.043105,11.32322 32.158766,21.979434 L 37.068811,17.246167 C 37.068811,17.246167 37.088388,32 37.088388,32 L 22.160133,31.978069 C 22.160133,31.978069 26.997745,27.140456 26.997745,27.140456 C 18.528582,18.264221 13.291696,25.230495 11.500037,31.436501 z"
     style="fill:#404040;"/>
  </a>
 </g>
</svg>

<style type='text/css'>
<![CDATA[
[data-mouse-over-selected='false'] { opacity: 0.7; }
[data-mouse-over-selected='true']  { opacity: 1.0; }
]]>
</style>
<script type="application/ecmascript"><![CDATA[
document.addEventListener('DOMContentLoaded', (event) => {
  highlightEdges();
  highlightAdjacentNodes();
});
]]></script>
</svg>
