<?xml version="1.0" encoding="UTF-8" standalone="no"?>
<!DOCTYPE svg PUBLIC "-//W3C//DTD SVG 1.1//EN"
 "http://www.w3.org/Graphics/SVG/1.1/DTD/svg11.dtd">
<!-- Generated by graphviz version 11.0.0 (20240428.1522)
 -->
<!-- Title: GLESC::StatsManager Pages: 1 -->
<svg width="235pt" height="424pt"
 viewBox="0.00 0.00 235.25 424.00" xmlns="http://www.w3.org/2000/svg" xmlns:xlink="http://www.w3.org/1999/xlink">

<svg id="main" version="1.1" xmlns="http://www.w3.org/2000/svg" xmlns:xlink="http://www.w3.org/1999/xlink" xml:space="preserve" onload="init(evt)">
<style type="text/css"><![CDATA[
.node, .edge {opacity: 0.7;}
.node.selected, .edge.selected {opacity: 1;}
.edge:hover path { stroke: red; }
.edge:hover polygon { stroke: red; fill: red; }
]]></style>
<script type="application/ecmascript" xlink:href="svg.min.js"/>
<svg id="graph" class="graph">
<g id="graph0" class="graph" transform="scale(1 1) rotate(0) translate(4 420)">
<title>GLESC::StatsManager</title>
<!-- Node1 -->
<g id="Node000001" class="node">
<title>Node1</title>
<g id="a_Node000001"><a xlink:title="Class to manage the stats of the game.">
<polygon fill="#999999" stroke="none" points="141.5,-68 32.5,-68 32.5,0 141.5,0 141.5,-68"/>
<text text-anchor="start" x="37.12" y="-54.5" font-family="Helvetica,sans-Serif" font-size="10.00">GLESC::StatsManager</text>
<text text-anchor="start" x="85.5" y="-38.5" font-family="Helvetica,sans-Serif" font-size="10.00"> </text>
<text text-anchor="start" x="37.5" y="-22.5" font-family="Helvetica,sans-Serif" font-size="10.00">+</text>
<text text-anchor="start" x="48.5" y="-22.5" font-family="Helvetica,sans-Serif" font-size="10.00">getStats()</text>
<text text-anchor="start" x="37.5" y="-6.5" font-family="Helvetica,sans-Serif" font-size="10.00">+</text>
<text text-anchor="start" x="48.5" y="-6.5" font-family="Helvetica,sans-Serif" font-size="10.00">registerStatSource()</text>
<polygon fill="#666666" stroke="#666666" points="32.5,-50 32.5,-50 141.5,-50 141.5,-50 32.5,-50"/>
<polygon fill="#666666" stroke="#666666" points="32.5,-34 32.5,-34 141.5,-34 141.5,-34 32.5,-34"/>
<polygon fill="none" stroke="#666666" points="32.5,0 32.5,-68 141.5,-68 141.5,0 32.5,0"/>
</a>
</g>
</g>
<!-- Node2 -->
<g id="Node000002" class="node">
<title>Node2</title>
<g id="a_Node000002"><a xlink:title=" ">
<polygon fill="white" stroke="none" points="138.5,-192 35.5,-192 35.5,-116 138.5,-116 138.5,-192"/>
<text text-anchor="start" x="40.12" y="-178.5" font-family="Helvetica,sans-Serif" font-size="10.00">std::map&lt; std::string,</text>
<text text-anchor="start" x="40.12" y="-166.5" font-family="Helvetica,sans-Serif" font-size="10.00"> std::function&lt; std::</text>
<text text-anchor="start" x="64.5" y="-154.5" font-family="Helvetica,sans-Serif" font-size="10.00">string()&gt; &gt;</text>
<text text-anchor="start" x="51" y="-138.5" font-family="Helvetica,sans-Serif" font-size="10.00">+</text>
<text text-anchor="start" x="72.5" y="-138.5" font-family="Helvetica,sans-Serif" font-size="10.00">elements</text>
<text text-anchor="start" x="85.5" y="-122.5" font-family="Helvetica,sans-Serif" font-size="10.00"> </text>
<polygon fill="#666666" stroke="#666666" points="35.5,-150 35.5,-150 138.5,-150 138.5,-150 35.5,-150"/>
<polygon fill="#666666" stroke="#666666" points="35.5,-134 35.5,-134 70.5,-134 70.5,-134 35.5,-134"/>
<polygon fill="#666666" stroke="#666666" points="70.5,-134 70.5,-134 138.5,-134 138.5,-134 70.5,-134"/>
<polygon fill="none" stroke="#666666" points="35.5,-116 35.5,-192 138.5,-192 138.5,-116 35.5,-116"/>
</a>
</g>
</g>
<!-- Node2&#45;&gt;Node1 -->
<g id="edge1_Node000001_Node000002" class="edge">
<title>Node2&#45;&gt;Node1</title>
<g id="a_edge1_Node000001_Node000002"><a xlink:title=" ">
<path fill="none" stroke="#63b8ff" d="M87,-116.31C87,-105.01 87,-92.42 87,-80.59"/>
<polygon fill="none" stroke="#63b8ff" points="87,-80.57 83,-74.57 87,-68.57 91,-74.57 87,-80.57"/>
</a>
</g>
<text text-anchor="middle" x="107.25" y="-88.5" font-family="Helvetica,sans-Serif" font-size="10.00" fill="grey"> &#45;sources</text>
</g>
<!-- Node3 -->
<g id="Node000003" class="node">
<title>Node3</title>
<g id="a_Node000003"><a xlink:title=" ">
<polygon fill="white" stroke="none" points="70.5,-304 17.5,-304 17.5,-252 70.5,-252 70.5,-304"/>
<text text-anchor="start" x="22.25" y="-290.5" font-family="Helvetica,sans-Serif" font-size="10.00">std::string</text>
<text text-anchor="start" x="42.5" y="-274.5" font-family="Helvetica,sans-Serif" font-size="10.00"> </text>
<text text-anchor="start" x="42.5" y="-258.5" font-family="Helvetica,sans-Serif" font-size="10.00"> </text>
<polygon fill="#666666" stroke="#666666" points="17.5,-286 17.5,-286 70.5,-286 70.5,-286 17.5,-286"/>
<polygon fill="#666666" stroke="#666666" points="17.5,-270 17.5,-270 70.5,-270 70.5,-270 17.5,-270"/>
<polygon fill="none" stroke="#666666" points="17.5,-252 17.5,-304 70.5,-304 70.5,-252 17.5,-252"/>
</a>
</g>
</g>
<!-- Node3&#45;&gt;Node2 -->
<g id="edge2_Node000002_Node000003" class="edge">
<title>Node3&#45;&gt;Node2</title>
<g id="a_edge2_Node000002_Node000003"><a xlink:title=" ">
<path fill="none" stroke="#63b8ff" d="M52.81,-252.02C57.66,-238.24 63.86,-220.64 69.65,-204.23"/>
<polygon fill="none" stroke="#63b8ff" points="69.67,-204.16 67.9,-197.17 73.66,-192.84 75.44,-199.83 69.67,-204.16"/>
</a>
</g>
<text text-anchor="middle" x="82" y="-218.5" font-family="Helvetica,sans-Serif" font-size="10.00" fill="grey"> +keys</text>
</g>
<!-- Node4 -->
<g id="Node000004" class="node">
<title>Node4</title>
<g id="a_Node000004"><a xlink:title=" ">
<polygon fill="white" stroke="none" points="88,-416 0,-416 0,-352 88,-352 88,-416"/>
<text text-anchor="start" x="5" y="-402.5" font-family="Helvetica,sans-Serif" font-size="10.00">std::basic_string&lt;</text>
<text text-anchor="start" x="27.88" y="-390.5" font-family="Helvetica,sans-Serif" font-size="10.00"> Char &gt;</text>
<text text-anchor="start" x="42.5" y="-374.5" font-family="Helvetica,sans-Serif" font-size="10.00"> </text>
<text text-anchor="start" x="42.5" y="-358.5" font-family="Helvetica,sans-Serif" font-size="10.00"> </text>
<polygon fill="#666666" stroke="#666666" points="0,-386 0,-386 88,-386 88,-386 0,-386"/>
<polygon fill="#666666" stroke="#666666" points="0,-370 0,-370 88,-370 88,-370 0,-370"/>
<polygon fill="none" stroke="#666666" points="0,-352 0,-416 88,-416 88,-352 0,-352"/>
</a>
</g>
</g>
<!-- Node4&#45;&gt;Node3 -->
<g id="edge3_Node000003_Node000004" class="edge">
<title>Node4&#45;&gt;Node3</title>
<g id="a_edge3_Node000003_Node000004"><a xlink:title=" ">
<path fill="none" stroke="#63b8ff" d="M44,-340.81C44,-328.21 44,-314.8 44,-303.71"/>
<polygon fill="none" stroke="#63b8ff" points="40.5,-340.56 44,-350.56 47.5,-340.56 40.5,-340.56"/>
</a>
</g>
</g>
<!-- Node5 -->
<g id="Node000005" class="node">
<title>Node5</title>
<g id="a_Node000005"><a xlink:title=" ">
<polygon fill="white" stroke="none" points="173,-304 89,-304 89,-252 173,-252 173,-304"/>
<text text-anchor="start" x="93.88" y="-290.5" font-family="Helvetica,sans-Serif" font-size="10.00">std::map&lt; K, T &gt;</text>
<text text-anchor="start" x="129.5" y="-274.5" font-family="Helvetica,sans-Serif" font-size="10.00"> </text>
<text text-anchor="start" x="129.5" y="-258.5" font-family="Helvetica,sans-Serif" font-size="10.00"> </text>
<polygon fill="#666666" stroke="#666666" points="89,-286 89,-286 173,-286 173,-286 89,-286"/>
<polygon fill="#666666" stroke="#666666" points="89,-270 89,-270 173,-270 173,-270 89,-270"/>
<polygon fill="none" stroke="#666666" points="89,-252 89,-304 173,-304 173,-252 89,-252"/>
</a>
</g>
</g>
<!-- Node5&#45;&gt;Node2 -->
<g id="edge4_Node000002_Node000005" class="edge">
<title>Node5&#45;&gt;Node2</title>
<g id="a_edge4_Node000002_Node000005"><a xlink:title=" ">
<path fill="none" stroke="orange" d="M118.11,-241.27C112.52,-225.77 105.98,-207.63 100.34,-191.99"/>
<polygon fill="orange" stroke="orange" points="114.79,-242.37 121.48,-250.59 121.38,-240 114.79,-242.37"/>
</a>
</g>
<text text-anchor="start" x="114" y="-224.5" font-family="Helvetica,sans-Serif" font-size="10.00" fill="grey"> &lt; std::string, std</text>
<text text-anchor="middle" x="170.62" y="-212.5" font-family="Helvetica,sans-Serif" font-size="10.00" fill="grey">::function&lt; std::string()&gt; &gt;</text>
</g>
<!-- Node6 -->
<g id="Node000006" class="node">
<title>Node6</title>
<g id="a_Node000006"><a xlink:title=" ">
<polygon fill="white" stroke="none" points="130,-410 114,-410 114,-358 130,-358 130,-410"/>
<text text-anchor="start" x="118.62" y="-396.5" font-family="Helvetica,sans-Serif" font-size="10.00">K</text>
<text text-anchor="start" x="120.5" y="-380.5" font-family="Helvetica,sans-Serif" font-size="10.00"> </text>
<text text-anchor="start" x="120.5" y="-364.5" font-family="Helvetica,sans-Serif" font-size="10.00"> </text>
<polygon fill="#666666" stroke="#666666" points="114,-392 114,-392 130,-392 130,-392 114,-392"/>
<polygon fill="#666666" stroke="#666666" points="114,-376 114,-376 130,-376 130,-376 114,-376"/>
<polygon fill="none" stroke="#666666" points="114,-358 114,-410 130,-410 130,-358 114,-358"/>
</a>
</g>
</g>
<!-- Node6&#45;&gt;Node5 -->
<g id="edge5_Node000005_Node000006" class="edge">
<title>Node6&#45;&gt;Node5</title>
<g id="a_edge5_Node000005_Node000006"><a xlink:title=" ">
<path fill="none" stroke="#63b8ff" d="M121.47,-358.01C121.47,-346.95 121.81,-333.8 123,-322 123.18,-320.25 123.39,-318.47 123.62,-316.67"/>
<polygon fill="none" stroke="#63b8ff" points="123.62,-316.65 120.61,-310.1 125.49,-304.8 128.51,-311.35 123.62,-316.65"/>
</a>
</g>
<text text-anchor="middle" x="138" y="-324.5" font-family="Helvetica,sans-Serif" font-size="10.00" fill="grey"> +keys</text>
</g>
<!-- Node7 -->
<g id="Node000007" class="node">
<title>Node7</title>
<g id="a_Node000007"><a xlink:title=" ">
<polygon fill="white" stroke="none" points="182.5,-410 167.5,-410 167.5,-358 182.5,-358 182.5,-410"/>
<text text-anchor="start" x="172.38" y="-396.5" font-family="Helvetica,sans-Serif" font-size="10.00">T</text>
<text text-anchor="start" x="173.5" y="-380.5" font-family="Helvetica,sans-Serif" font-size="10.00"> </text>
<text text-anchor="start" x="173.5" y="-364.5" font-family="Helvetica,sans-Serif" font-size="10.00"> </text>
<polygon fill="#666666" stroke="#666666" points="167.5,-392 167.5,-392 182.5,-392 182.5,-392 167.5,-392"/>
<polygon fill="#666666" stroke="#666666" points="167.5,-376 167.5,-376 182.5,-376 182.5,-376 167.5,-376"/>
<polygon fill="none" stroke="#666666" points="167.5,-358 167.5,-410 182.5,-410 182.5,-358 167.5,-358"/>
</a>
</g>
</g>
<!-- Node7&#45;&gt;Node5 -->
<g id="edge6_Node000005_Node000007" class="edge">
<title>Node7&#45;&gt;Node5</title>
<g id="a_edge6_Node000005_Node000007"><a xlink:title=" ">
<path fill="none" stroke="#63b8ff" d="M167.52,-360.14C163.55,-348.57 158.38,-334.39 153,-322 152.06,-319.84 151.07,-317.64 150.04,-315.44"/>
<polygon fill="none" stroke="#63b8ff" points="150,-315.35 143.77,-311.71 144.74,-304.56 150.96,-308.2 150,-315.35"/>
</a>
</g>
<text text-anchor="middle" x="181.38" y="-324.5" font-family="Helvetica,sans-Serif" font-size="10.00" fill="grey"> +elements</text>
</g>
</g>
</svg>
</svg>

<style type='text/css'>
<![CDATA[
[data-mouse-over-selected='false'] { opacity: 0.7; }
[data-mouse-over-selected='true']  { opacity: 1.0; }
]]>
</style>
<script type="application/ecmascript"><![CDATA[
document.addEventListener('DOMContentLoaded', (event) => {
  highlightEdges();
  highlightAdjacentNodes();
});
]]></script>
</svg>
