<?xml version="1.0" encoding="UTF-8" standalone="no"?>
<!DOCTYPE svg PUBLIC "-//W3C//DTD SVG 1.1//EN"
 "http://www.w3.org/Graphics/SVG/1.1/DTD/svg11.dtd">
<!-- Generated by graphviz version 11.0.0 (20240428.1522)
 -->
<!-- Title: GLESC::StatsManager::registerStatSource Pages: 1 -->
<svg width="466pt" height="108pt"
 viewBox="0.00 0.00 466.25 108.00" xmlns="http://www.w3.org/2000/svg" xmlns:xlink="http://www.w3.org/1999/xlink">
<g id="graph0" class="graph" transform="scale(1 1) rotate(0) translate(4 104)">
<title>GLESC::StatsManager::registerStatSource</title>
<!-- Node1 -->
<g id="Node000001" class="node">
<title>Node1</title>
<g id="a_Node000001"><a xlink:title=" ">
<polygon fill="#999999" stroke="#666666" points="115.75,-100 0,-100 0,-68 115.75,-68 115.75,-100"/>
<text text-anchor="start" x="8" y="-86.5" font-family="Helvetica,sans-Serif" font-size="10.00">GLESC::StatsManager</text>
<text text-anchor="middle" x="57.88" y="-74.5" font-family="Helvetica,sans-Serif" font-size="10.00">::registerStatSource</text>
</a>
</g>
</g>
<!-- Node2 -->
<g id="Node000002" class="node">
<title>Node2</title>
<g id="a_Node000002"><a xlink:href="class_g_l_e_s_c_1_1_stringer.html#acba5ca5265db3ba0cd968336f1428203" target="_top" xlink:title="Converts an object to a string.">
<polygon fill="white" stroke="#666666" points="280.25,-94 151.75,-94 151.75,-74 280.25,-74 280.25,-94"/>
<text text-anchor="middle" x="216" y="-80.5" font-family="Helvetica,sans-Serif" font-size="10.00">GLESC::Stringer::toString</text>
</a>
</g>
</g>
<!-- Node1&#45;&gt;Node2 -->
<g id="edge1_Node000001_Node000002" class="edge">
<title>Node1&#45;&gt;Node2</title>
<g id="a_edge1_Node000001_Node000002"><a xlink:title=" ">
<path fill="none" stroke="#63b8ff" d="M116.12,-84C123.93,-84 132.04,-84 140.1,-84"/>
<polygon fill="#63b8ff" stroke="#63b8ff" points="139.92,-87.5 149.92,-84 139.92,-80.5 139.92,-87.5"/>
</a>
</g>
</g>
<!-- Node3 -->
<g id="Node000003" class="node">
<title>Node3</title>
<g id="a_Node000003"><a xlink:href="class_g_l_e_s_c_1_1_stringer.html#acb7cc10341cef69e99362fa324fa1647" target="_top" xlink:title="Converts an iterable object to a string.">
<polygon fill="white" stroke="#666666" points="450.38,-100 324.12,-100 324.12,-68 450.38,-68 450.38,-100"/>
<text text-anchor="start" x="332.12" y="-86.5" font-family="Helvetica,sans-Serif" font-size="10.00">GLESC::Stringer::iterable</text>
<text text-anchor="middle" x="387.25" y="-74.5" font-family="Helvetica,sans-Serif" font-size="10.00">ToString</text>
</a>
</g>
</g>
<!-- Node2&#45;&gt;Node3 -->
<g id="edge2_Node000002_Node000003" class="edge">
<title>Node2&#45;&gt;Node3</title>
<g id="a_edge2_Node000002_Node000003"><a xlink:title=" ">
<path fill="none" stroke="#63b8ff" d="M280.5,-77.44C290.91,-77.25 301.76,-77.2 312.39,-77.3"/>
<polygon fill="#63b8ff" stroke="#63b8ff" points="312.23,-80.8 322.28,-77.44 312.33,-73.8 312.23,-80.8"/>
</a>
</g>
</g>
<!-- Node4 -->
<g id="Node000004" class="node">
<title>Node4</title>
<g id="a_Node000004"><a xlink:href="class_g_l_e_s_c_1_1_stringer.html#afa7028acf6b8eec53203e8a91774da85" target="_top" xlink:title="Converts a non&#45;iterable object to a string.">
<polygon fill="white" stroke="#666666" points="458.25,-32 316.25,-32 316.25,0 458.25,0 458.25,-32"/>
<text text-anchor="start" x="324.25" y="-18.5" font-family="Helvetica,sans-Serif" font-size="10.00">GLESC::Stringer::nonIterable</text>
<text text-anchor="middle" x="387.25" y="-6.5" font-family="Helvetica,sans-Serif" font-size="10.00">ToString</text>
</a>
</g>
</g>
<!-- Node2&#45;&gt;Node4 -->
<g id="edge4_Node000002_Node000004" class="edge">
<title>Node2&#45;&gt;Node4</title>
<g id="a_edge4_Node000002_Node000004"><a xlink:title=" ">
<path fill="none" stroke="#63b8ff" d="M243.07,-73.52C267.46,-63.73 304.57,-48.82 334.9,-36.63"/>
<polygon fill="#63b8ff" stroke="#63b8ff" points="335.93,-39.99 343.91,-33.01 333.32,-33.49 335.93,-39.99"/>
</a>
</g>
</g>
<!-- Node3&#45;&gt;Node2 -->
<g id="edge3_Node000003_Node000002" class="edge">
<title>Node3&#45;&gt;Node2</title>
<g id="a_edge3_Node000003_Node000002"><a xlink:title=" ">
<path fill="none" stroke="#63b8ff" d="M323.8,-90.54C313.43,-90.74 302.58,-90.8 291.94,-90.71"/>
<polygon fill="#63b8ff" stroke="#63b8ff" points="292.06,-87.21 282.02,-90.58 291.97,-94.21 292.06,-87.21"/>
</a>
</g>
</g>
<!-- Node4&#45;&gt;Node4 -->
<g id="edge5_Node000004_Node000004" class="edge">
<title>Node4&#45;&gt;Node4</title>
<g id="a_edge5_Node000004_Node000004"><a xlink:title=" ">
<path fill="none" stroke="#63b8ff" d="M356.68,-32.44C350.97,-41.58 361.16,-50 387.25,-50 401.52,-50 411.03,-47.48 415.79,-43.71"/>
<polygon fill="#63b8ff" stroke="#63b8ff" points="419.22,-44.4 417.55,-33.93 412.33,-43.15 419.22,-44.4"/>
</a>
</g>
</g>
</g>
</svg>
