<?xml version="1.0" encoding="UTF-8" standalone="no"?>
<!DOCTYPE svg PUBLIC "-//W3C//DTD SVG 1.1//EN"
 "http://www.w3.org/Graphics/SVG/1.1/DTD/svg11.dtd">
<!-- Generated by graphviz version 11.0.0 (20240428.1522)
 -->
<!-- Title: GLESC::Render::GlobalSun::setDirty Pages: 1 -->
<svg width="318pt" height="140pt"
 viewBox="0.00 0.00 317.50 140.00" xmlns="http://www.w3.org/2000/svg" xmlns:xlink="http://www.w3.org/1999/xlink">
<g id="graph0" class="graph" transform="scale(1 1) rotate(0) translate(4 136)">
<title>GLESC::Render::GlobalSun::setDirty</title>
<!-- Node1 -->
<g id="Node000001" class="node">
<title>Node1</title>
<g id="a_Node000001"><a xlink:title=" ">
<polygon fill="#999999" stroke="#666666" points="309.5,-82 172.75,-82 172.75,-50 309.5,-50 309.5,-82"/>
<text text-anchor="start" x="180.75" y="-68.5" font-family="Helvetica,sans-Serif" font-size="10.00">GLESC::Render::GlobalSun</text>
<text text-anchor="middle" x="241.12" y="-56.5" font-family="Helvetica,sans-Serif" font-size="10.00">::setDirty</text>
</a>
</g>
</g>
<!-- Node2 -->
<g id="Node000002" class="node">
<title>Node2</title>
<g id="a_Node000002"><a xlink:href="class_g_l_e_s_c_1_1_render_1_1_global_sun.html#a8d3ca9f6652595e72460cb45c506069a" target="_top" xlink:title=" ">
<polygon fill="white" stroke="#666666" points="136.75,-132 0,-132 0,-100 136.75,-100 136.75,-132"/>
<text text-anchor="start" x="8" y="-118.5" font-family="Helvetica,sans-Serif" font-size="10.00">GLESC::Render::GlobalSun</text>
<text text-anchor="middle" x="68.38" y="-106.5" font-family="Helvetica,sans-Serif" font-size="10.00">::setColor</text>
</a>
</g>
</g>
<!-- Node1&#45;&gt;Node2 -->
<g id="edge1_Node000001_Node000002" class="edge">
<title>Node1&#45;&gt;Node2</title>
<g id="a_edge1_Node000001_Node000002"><a xlink:title=" ">
<path fill="none" stroke="#63b8ff" d="M173.46,-85.52C157.67,-90.15 140.98,-95.03 125.7,-99.51"/>
<polygon fill="#63b8ff" stroke="#63b8ff" points="174.15,-88.97 182.76,-82.8 172.18,-82.25 174.15,-88.97"/>
</a>
</g>
</g>
<!-- Node3 -->
<g id="Node000003" class="node">
<title>Node3</title>
<g id="a_Node000003"><a xlink:href="class_g_l_e_s_c_1_1_render_1_1_global_sun.html#ac2dea0a9eb60072bb8e896fe19959047" target="_top" xlink:title=" ">
<polygon fill="white" stroke="#666666" points="136.75,-82 0,-82 0,-50 136.75,-50 136.75,-82"/>
<text text-anchor="start" x="8" y="-68.5" font-family="Helvetica,sans-Serif" font-size="10.00">GLESC::Render::GlobalSun</text>
<text text-anchor="middle" x="68.38" y="-56.5" font-family="Helvetica,sans-Serif" font-size="10.00">::setDirection</text>
</a>
</g>
</g>
<!-- Node1&#45;&gt;Node3 -->
<g id="edge2_Node000001_Node000003" class="edge">
<title>Node1&#45;&gt;Node3</title>
<g id="a_edge2_Node000001_Node000003"><a xlink:title=" ">
<path fill="none" stroke="#63b8ff" d="M161.33,-66C153.27,-66 145.13,-66 137.21,-66"/>
<polygon fill="#63b8ff" stroke="#63b8ff" points="161.13,-69.5 171.13,-66 161.13,-62.5 161.13,-69.5"/>
</a>
</g>
</g>
<!-- Node4 -->
<g id="Node000004" class="node">
<title>Node4</title>
<g id="a_Node000004"><a xlink:href="class_g_l_e_s_c_1_1_render_1_1_global_sun.html#aec0440baa781478cad725d73d5337107" target="_top" xlink:title=" ">
<polygon fill="white" stroke="#666666" points="136.75,-32 0,-32 0,0 136.75,0 136.75,-32"/>
<text text-anchor="start" x="8" y="-18.5" font-family="Helvetica,sans-Serif" font-size="10.00">GLESC::Render::GlobalSun</text>
<text text-anchor="middle" x="68.38" y="-6.5" font-family="Helvetica,sans-Serif" font-size="10.00">::setIntensity</text>
</a>
</g>
</g>
<!-- Node1&#45;&gt;Node4 -->
<g id="edge3_Node000001_Node000004" class="edge">
<title>Node1&#45;&gt;Node4</title>
<g id="a_edge3_Node000001_Node000004"><a xlink:title=" ">
<path fill="none" stroke="#63b8ff" d="M173.46,-46.48C157.67,-41.85 140.98,-36.97 125.7,-32.49"/>
<polygon fill="#63b8ff" stroke="#63b8ff" points="172.18,-49.75 182.76,-49.2 174.15,-43.03 172.18,-49.75"/>
</a>
</g>
</g>
</g>
</svg>
