<?xml version="1.0" encoding="UTF-8" standalone="no"?>
<!DOCTYPE svg PUBLIC "-//W3C//DTD SVG 1.1//EN"
 "http://www.w3.org/Graphics/SVG/1.1/DTD/svg11.dtd">
<!-- Generated by graphviz version 11.0.0 (20240428.1522)
 -->
<!-- Title: ILogger::importantInfoBlue Pages: 1 -->
<svg width="566pt" height="128pt"
 viewBox="0.00 0.00 566.25 128.00" xmlns="http://www.w3.org/2000/svg" xmlns:xlink="http://www.w3.org/1999/xlink">
<g id="graph0" class="graph" transform="scale(1 1) rotate(0) translate(4 124)">
<title>ILogger::importantInfoBlue</title>
<!-- Node1 -->
<g id="Node000001" class="node">
<title>Node1</title>
<g id="a_Node000001"><a xlink:title="Display important information Background – Light Blue Text – Black.">
<polygon fill="#999999" stroke="#666666" points="558.25,-64 429.75,-64 429.75,-44 558.25,-44 558.25,-64"/>
<text text-anchor="middle" x="494" y="-50.5" font-family="Helvetica,sans-Serif" font-size="10.00">ILogger::importantInfoBlue</text>
</a>
</g>
</g>
<!-- Node2 -->
<g id="Node000002" class="node">
<title>Node2</title>
<g id="a_Node000002"><a xlink:href="class_g_l_e_s_c_1_1_logger.html#a2e78e5eb40e0fad6ac6fc1c3843f146e" target="_top" xlink:title="Display important information Background – Light Blue Text – Black.">
<polygon fill="white" stroke="#666666" points="393.75,-70 263,-70 263,-38 393.75,-38 393.75,-70"/>
<text text-anchor="start" x="271" y="-56.5" font-family="Helvetica,sans-Serif" font-size="10.00">GLESC::Logger::important</text>
<text text-anchor="middle" x="328.38" y="-44.5" font-family="Helvetica,sans-Serif" font-size="10.00">InfoBlue</text>
</a>
</g>
</g>
<!-- Node1&#45;&gt;Node2 -->
<g id="edge1_Node000001_Node000002" class="edge">
<title>Node1&#45;&gt;Node2</title>
<g id="a_edge1_Node000001_Node000002"><a xlink:title=" ">
<path fill="none" stroke="#63b8ff" d="M418.02,-54C410,-54 401.89,-54 394.01,-54"/>
<polygon fill="#63b8ff" stroke="#63b8ff" points="417.76,-57.5 427.76,-54 417.76,-50.5 417.76,-57.5"/>
</a>
</g>
</g>
<!-- Node3 -->
<g id="Node000003" class="node">
<title>Node3</title>
<g id="a_Node000003"><a xlink:href="class_g_l_e_s_c_1_1_e_c_s_1_1_component_array.html#a374b3773c7b1c5e3b49e55cac9082434" target="_top" xlink:title="Print the status of the component array.">
<polygon fill="white" stroke="#666666" points="227,-120 73,-120 73,-88 227,-88 227,-120"/>
<text text-anchor="start" x="81" y="-106.5" font-family="Helvetica,sans-Serif" font-size="10.00">GLESC::ECS::ComponentArray</text>
<text text-anchor="middle" x="150" y="-94.5" font-family="Helvetica,sans-Serif" font-size="10.00">::printStatus</text>
</a>
</g>
</g>
<!-- Node2&#45;&gt;Node3 -->
<g id="edge2_Node000002_Node000003" class="edge">
<title>Node2&#45;&gt;Node3</title>
<g id="a_edge2_Node000002_Node000003"><a xlink:title=" ">
<path fill="none" stroke="#63b8ff" d="M258.98,-73.39C242.53,-78.05 225.12,-82.99 209.18,-87.51"/>
<polygon fill="#63b8ff" stroke="#63b8ff" points="259.5,-76.88 268.17,-70.78 257.59,-70.14 259.5,-76.88"/>
</a>
</g>
</g>
<!-- Node4 -->
<g id="Node000004" class="node">
<title>Node4</title>
<g id="a_Node000004"><a xlink:href="class_g_l_e_s_c_1_1_e_c_s_1_1_e_c_s_coordinator.html#a511e3ef0ebeceb191a06db185e8fdc46" target="_top" xlink:title="Print the status of the ECS.">
<polygon fill="white" stroke="#666666" points="225.5,-70 74.5,-70 74.5,-38 225.5,-38 225.5,-70"/>
<text text-anchor="start" x="82.5" y="-56.5" font-family="Helvetica,sans-Serif" font-size="10.00">GLESC::ECS::ECSCoordinator</text>
<text text-anchor="middle" x="150" y="-44.5" font-family="Helvetica,sans-Serif" font-size="10.00">::printStatus</text>
</a>
</g>
</g>
<!-- Node2&#45;&gt;Node4 -->
<g id="edge3_Node000002_Node000004" class="edge">
<title>Node2&#45;&gt;Node4</title>
<g id="a_edge3_Node000002_Node000004"><a xlink:title=" ">
<path fill="none" stroke="#63b8ff" d="M251.3,-54C242.85,-54 234.25,-54 225.82,-54"/>
<polygon fill="#63b8ff" stroke="#63b8ff" points="251.19,-57.5 261.19,-54 251.19,-50.5 251.19,-57.5"/>
</a>
</g>
</g>
<!-- Node5 -->
<g id="Node000005" class="node">
<title>Node5</title>
<g id="a_Node000005"><a xlink:href="class_g_l_e_s_c_1_1_engine.html#aa1aec35d59f1364a79c7a62c29640226" target="_top" xlink:title="Processes the input of the game.">
<polygon fill="white" stroke="#666666" points="223.25,-20 76.75,-20 76.75,0 223.25,0 223.25,-20"/>
<text text-anchor="middle" x="150" y="-6.5" font-family="Helvetica,sans-Serif" font-size="10.00">GLESC::Engine::processInput</text>
</a>
</g>
</g>
<!-- Node2&#45;&gt;Node5 -->
<g id="edge4_Node000002_Node000005" class="edge">
<title>Node2&#45;&gt;Node5</title>
<g id="a_edge4_Node000002_Node000005"><a xlink:title=" ">
<path fill="none" stroke="#63b8ff" d="M251.63,-35.1C231.5,-30.08 210.48,-24.84 192.89,-20.45"/>
<polygon fill="#63b8ff" stroke="#63b8ff" points="250.68,-38.47 261.23,-37.5 252.38,-31.68 250.68,-38.47"/>
</a>
</g>
</g>
<!-- Node6 -->
<g id="Node000006" class="node">
<title>Node6</title>
<g id="a_Node000006"><a xlink:href="src_2engine_2main_8cpp.html#a0ddf1224851353fc92bfbff6f499fa97" target="_top" xlink:title=" ">
<polygon fill="white" stroke="#666666" points="37,-20 0,-20 0,0 37,0 37,-20"/>
<text text-anchor="middle" x="18.5" y="-6.5" font-family="Helvetica,sans-Serif" font-size="10.00">main</text>
</a>
</g>
</g>
<!-- Node5&#45;&gt;Node6 -->
<g id="edge5_Node000005_Node000006" class="edge">
<title>Node5&#45;&gt;Node6</title>
<g id="a_edge5_Node000005_Node000006"><a xlink:title=" ">
<path fill="none" stroke="#63b8ff" d="M64.89,-10C54.59,-10 45.01,-10 37.33,-10"/>
<polygon fill="#63b8ff" stroke="#63b8ff" points="64.79,-13.5 74.79,-10 64.79,-6.5 64.79,-13.5"/>
</a>
</g>
</g>
</g>
</svg>
