<?xml version="1.0" encoding="UTF-8" standalone="no"?>
<!DOCTYPE svg PUBLIC "-//W3C//DTD SVG 1.1//EN"
 "http://www.w3.org/Graphics/SVG/1.1/DTD/svg11.dtd">
<!-- Generated by graphviz version 11.0.0 (20240428.1522)
 -->
<!-- Title: GLESC::Render::Mesh::startBuilding Pages: 1 -->
<svg width="594pt" height="157pt"
 viewBox="0.00 0.00 594.00 157.40" xmlns="http://www.w3.org/2000/svg" xmlns:xlink="http://www.w3.org/1999/xlink">
<g id="graph0" class="graph" transform="scale(1 1) rotate(0) translate(4 153.4)">
<title>GLESC::Render::Mesh::startBuilding</title>
<!-- Node1 -->
<g id="Node000001" class="node">
<title>Node1</title>
<g id="a_Node000001"><a xlink:title="Starts the building of the mesh.">
<polygon fill="#999999" stroke="#666666" points="586,-74.4 470.25,-74.4 470.25,-42.4 586,-42.4 586,-74.4"/>
<text text-anchor="start" x="478.25" y="-60.9" font-family="Helvetica,sans-Serif" font-size="10.00">GLESC::Render::Mesh</text>
<text text-anchor="middle" x="528.12" y="-48.9" font-family="Helvetica,sans-Serif" font-size="10.00">::startBuilding</text>
</a>
</g>
</g>
<!-- Node2 -->
<g id="Node000002" class="node">
<title>Node2</title>
<g id="a_Node000002"><a xlink:href="class_g_l_e_s_c_1_1_render_1_1_mesh_factory.html#a871c80a56dc8888b526df44b1ac49dca" target="_top" xlink:title="Creates a cuboid mesh given a width, height, depth and a color.">
<polygon fill="white" stroke="#666666" points="434.25,-149.4 285.5,-149.4 285.5,-117.4 434.25,-117.4 434.25,-149.4"/>
<text text-anchor="start" x="293.5" y="-135.9" font-family="Helvetica,sans-Serif" font-size="10.00">GLESC::Render::MeshFactory</text>
<text text-anchor="middle" x="359.88" y="-123.9" font-family="Helvetica,sans-Serif" font-size="10.00">::cuboid</text>
</a>
</g>
</g>
<!-- Node1&#45;&gt;Node2 -->
<g id="edge1_Node000001_Node000002" class="edge">
<title>Node1&#45;&gt;Node2</title>
<g id="a_edge1_Node000001_Node000002"><a xlink:title=" ">
<path fill="none" stroke="#63b8ff" d="M489.78,-80.33C473.1,-89.64 453.02,-100.21 434.25,-108.4 427.34,-111.41 419.94,-114.3 412.6,-116.98"/>
<polygon fill="#63b8ff" stroke="#63b8ff" points="491.39,-83.44 498.36,-75.47 487.94,-77.35 491.39,-83.44"/>
</a>
</g>
</g>
<!-- Node5 -->
<g id="Node000005" class="node">
<title>Node5</title>
<g id="a_Node000005"><a xlink:href="class_g_l_e_s_c_1_1_render_1_1_mesh_factory.html#aff179044917548ba91300a69ffb39256" target="_top" xlink:title=" ">
<polygon fill="white" stroke="#666666" points="434.25,-99.4 285.5,-99.4 285.5,-67.4 434.25,-67.4 434.25,-99.4"/>
<text text-anchor="start" x="293.5" y="-85.9" font-family="Helvetica,sans-Serif" font-size="10.00">GLESC::Render::MeshFactory</text>
<text text-anchor="middle" x="359.88" y="-73.9" font-family="Helvetica,sans-Serif" font-size="10.00">::plane</text>
</a>
</g>
</g>
<!-- Node1&#45;&gt;Node5 -->
<g id="edge4_Node000001_Node000005" class="edge">
<title>Node1&#45;&gt;Node5</title>
<g id="a_edge4_Node000001_Node000005"><a xlink:title=" ">
<path fill="none" stroke="#63b8ff" d="M458.53,-68.71C450.64,-69.9 442.58,-71.11 434.64,-72.3"/>
<polygon fill="#63b8ff" stroke="#63b8ff" points="459.05,-72.17 468.41,-67.23 458.01,-65.25 459.05,-72.17"/>
</a>
</g>
</g>
<!-- Node6 -->
<g id="Node000006" class="node">
<title>Node6</title>
<g id="a_Node000006"><a xlink:href="class_g_l_e_s_c_1_1_render_1_1_mesh_factory.html#aefd29f32b084155c54dd3d91fef99aba" target="_top" xlink:title=" ">
<polygon fill="white" stroke="#666666" points="434.25,-49.4 285.5,-49.4 285.5,-17.4 434.25,-17.4 434.25,-49.4"/>
<text text-anchor="start" x="293.5" y="-35.9" font-family="Helvetica,sans-Serif" font-size="10.00">GLESC::Render::MeshFactory</text>
<text text-anchor="middle" x="359.88" y="-23.9" font-family="Helvetica,sans-Serif" font-size="10.00">::pyramid</text>
</a>
</g>
</g>
<!-- Node1&#45;&gt;Node6 -->
<g id="edge5_Node000001_Node000006" class="edge">
<title>Node1&#45;&gt;Node6</title>
<g id="a_edge5_Node000001_Node000006"><a xlink:title=" ">
<path fill="none" stroke="#63b8ff" d="M458.53,-48.08C450.64,-46.9 442.58,-45.68 434.64,-44.49"/>
<polygon fill="#63b8ff" stroke="#63b8ff" points="458.01,-51.54 468.41,-49.57 459.05,-44.62 458.01,-51.54"/>
</a>
</g>
</g>
<!-- Node7 -->
<g id="Node000007" class="node">
<title>Node7</title>
<g id="a_Node000007"><a xlink:href="class_g_l_e_s_c_1_1_render_1_1_mesh_factory.html#ac34bbd39823c1d507524e1395305e310" target="_top" xlink:title="Creates a sphere mesh given a number of slices, stacks, a radius and a color.">
<polygon fill="white" stroke="#666666" points="249.5,-52.4 100.75,-52.4 100.75,-20.4 249.5,-20.4 249.5,-52.4"/>
<text text-anchor="start" x="108.75" y="-38.9" font-family="Helvetica,sans-Serif" font-size="10.00">GLESC::Render::MeshFactory</text>
<text text-anchor="middle" x="175.12" y="-26.9" font-family="Helvetica,sans-Serif" font-size="10.00">::sphere</text>
</a>
</g>
</g>
<!-- Node1&#45;&gt;Node7 -->
<g id="edge6_Node000001_Node000007" class="edge">
<title>Node1&#45;&gt;Node7</title>
<g id="a_edge6_Node000001_Node000007"><a xlink:title=" ">
<path fill="none" stroke="#63b8ff" d="M494.9,-35.92C477.74,-25.32 455.77,-13.82 434.25,-8.4 364.53,9.18 281.49,-6.02 228.79,-19.97"/>
<polygon fill="#63b8ff" stroke="#63b8ff" points="492.82,-38.75 503.13,-41.19 496.6,-32.85 492.82,-38.75"/>
</a>
</g>
</g>
<!-- Node3 -->
<g id="Node000003" class="node">
<title>Node3</title>
<g id="a_Node000003"><a xlink:href="class_g_l_e_s_c_1_1_render_1_1_mesh_factory.html#a4b07130768fe0a8e6720aa0550a7b5dd" target="_top" xlink:title="Creates a cube mesh given a color and a radius.">
<polygon fill="white" stroke="#666666" points="249.5,-125.4 100.75,-125.4 100.75,-93.4 249.5,-93.4 249.5,-125.4"/>
<text text-anchor="start" x="108.75" y="-111.9" font-family="Helvetica,sans-Serif" font-size="10.00">GLESC::Render::MeshFactory</text>
<text text-anchor="middle" x="175.12" y="-99.9" font-family="Helvetica,sans-Serif" font-size="10.00">::cube</text>
</a>
</g>
</g>
<!-- Node2&#45;&gt;Node3 -->
<g id="edge2_Node000002_Node000003" class="edge">
<title>Node2&#45;&gt;Node3</title>
<g id="a_edge2_Node000002_Node000003"><a xlink:title=" ">
<path fill="none" stroke="#63b8ff" d="M273.84,-122.23C265.84,-121.18 257.79,-120.12 249.91,-119.09"/>
<polygon fill="#63b8ff" stroke="#63b8ff" points="273.2,-125.67 283.57,-123.51 274.11,-118.73 273.2,-125.67"/>
</a>
</g>
</g>
<!-- Node4 -->
<g id="Node000004" class="node">
<title>Node4</title>
<g id="a_Node000004"><a xlink:href="class_default.html#a6e26da3ebf533b0f5d45266cd0ce9082" target="_top" xlink:title="Initializes the scene. Must be implemented by the derived class.">
<polygon fill="white" stroke="#666666" points="64.75,-71.4 0,-71.4 0,-51.4 64.75,-51.4 64.75,-71.4"/>
<text text-anchor="middle" x="32.38" y="-57.9" font-family="Helvetica,sans-Serif" font-size="10.00">Default::init</text>
</a>
</g>
</g>
<!-- Node3&#45;&gt;Node4 -->
<g id="edge3_Node000003_Node000004" class="edge">
<title>Node3&#45;&gt;Node4</title>
<g id="a_edge3_Node000003_Node000004"><a xlink:title=" ">
<path fill="none" stroke="#63b8ff" d="M115.28,-89.33C97.65,-83.32 79.04,-76.97 64.01,-71.85"/>
<polygon fill="#63b8ff" stroke="#63b8ff" points="114.05,-92.61 124.65,-92.52 116.31,-85.98 114.05,-92.61"/>
</a>
</g>
</g>
<!-- Node7&#45;&gt;Node4 -->
<g id="edge7_Node000007_Node000004" class="edge">
<title>Node7&#45;&gt;Node4</title>
<g id="a_edge7_Node000007_Node000004"><a xlink:title=" ">
<path fill="none" stroke="#63b8ff" d="M89.39,-51.45C80.76,-52.98 72.42,-54.46 64.94,-55.79"/>
<polygon fill="#63b8ff" stroke="#63b8ff" points="89.73,-54.94 98.96,-49.75 88.5,-48.05 89.73,-54.94"/>
</a>
</g>
</g>
</g>
</svg>
