<?xml version="1.0" encoding="UTF-8" standalone="no"?>
<!DOCTYPE svg PUBLIC "-//W3C//DTD SVG 1.1//EN"
 "http://www.w3.org/Graphics/SVG/1.1/DTD/svg11.dtd">
<!-- Generated by graphviz version 11.0.0 (20240428.1522)
 -->
<!-- Title: GLESC::Scene::Scene::switchScene Pages: 1 -->
<svg width="478pt" height="78pt"
 viewBox="0.00 0.00 477.50 78.00" xmlns="http://www.w3.org/2000/svg" xmlns:xlink="http://www.w3.org/1999/xlink">
<g id="graph0" class="graph" transform="scale(1 1) rotate(0) translate(4 74)">
<title>GLESC::Scene::Scene::switchScene</title>
<!-- Node1 -->
<g id="Node000001" class="node">
<title>Node1</title>
<g id="a_Node000001"><a xlink:title="Switches to another scene.">
<polygon fill="#999999" stroke="#666666" points="116.5,-54 0,-54 0,-22 116.5,-22 116.5,-54"/>
<text text-anchor="start" x="8" y="-40.5" font-family="Helvetica,sans-Serif" font-size="10.00">GLESC::Scene::Scene</text>
<text text-anchor="middle" x="58.25" y="-28.5" font-family="Helvetica,sans-Serif" font-size="10.00">::switchScene</text>
</a>
</g>
</g>
<!-- Node2 -->
<g id="Node000002" class="node">
<title>Node2</title>
<g id="a_Node000002"><a xlink:href="class_g_l_e_s_c_1_1_scene_1_1_scene_manager.html#a70d54b978b5452ed9659f01a2970ac7e" target="_top" xlink:title=" ">
<polygon fill="white" stroke="#666666" points="306.5,-54 152.5,-54 152.5,-22 306.5,-22 306.5,-54"/>
<text text-anchor="start" x="160.5" y="-40.5" font-family="Helvetica,sans-Serif" font-size="10.00">GLESC::Scene::SceneManager</text>
<text text-anchor="middle" x="229.5" y="-28.5" font-family="Helvetica,sans-Serif" font-size="10.00">::switchScene</text>
</a>
</g>
</g>
<!-- Node1&#45;&gt;Node2 -->
<g id="edge1_Node000001_Node000002" class="edge">
<title>Node1&#45;&gt;Node2</title>
<g id="a_edge1_Node000001_Node000002"><a xlink:title=" ">
<path fill="none" stroke="#63b8ff" d="M116.55,-38C124.31,-38 132.41,-38 140.55,-38"/>
<polygon fill="#63b8ff" stroke="#63b8ff" points="140.54,-41.5 150.54,-38 140.54,-34.5 140.54,-41.5"/>
</a>
</g>
</g>
<!-- Node3 -->
<g id="Node000003" class="node">
<title>Node3</title>
<g id="a_Node000003"><a xlink:href="namespace_g_l_e_s_c_1_1_hasher.html#ab698a0c9b11ea6e42ab7739d75da38f2" target="_top" xlink:title=" ">
<polygon fill="white" stroke="#666666" points="462.38,-70 349.62,-70 349.62,-50 462.38,-50 462.38,-70"/>
<text text-anchor="middle" x="406" y="-56.5" font-family="Helvetica,sans-Serif" font-size="10.00">GLESC::Hasher::hash</text>
</a>
</g>
</g>
<!-- Node2&#45;&gt;Node3 -->
<g id="edge2_Node000002_Node000003" class="edge">
<title>Node2&#45;&gt;Node3</title>
<g id="a_edge2_Node000002_Node000003"><a xlink:title=" ">
<path fill="none" stroke="#63b8ff" d="M306.78,-47.62C317.18,-48.93 327.78,-50.27 338,-51.55"/>
<polygon fill="#63b8ff" stroke="#63b8ff" points="337.47,-55.01 347.83,-52.79 338.35,-48.07 337.47,-55.01"/>
</a>
</g>
</g>
<!-- Node4 -->
<g id="Node000004" class="node">
<title>Node4</title>
<g id="a_Node000004"><a xlink:href="class_g_l_e_s_c_1_1_window_manager.html#a2c3864d9a5b567c83b4799d97b38383a" target="_top" xlink:title="Set the window title. Changes the title of the window.">
<polygon fill="white" stroke="#666666" points="469.5,-32 342.5,-32 342.5,0 469.5,0 469.5,-32"/>
<text text-anchor="start" x="350.5" y="-18.5" font-family="Helvetica,sans-Serif" font-size="10.00">GLESC::WindowManager</text>
<text text-anchor="middle" x="406" y="-6.5" font-family="Helvetica,sans-Serif" font-size="10.00">::setWindowTitle</text>
</a>
</g>
</g>
<!-- Node2&#45;&gt;Node4 -->
<g id="edge3_Node000002_Node000004" class="edge">
<title>Node2&#45;&gt;Node4</title>
<g id="a_edge3_Node000002_Node000004"><a xlink:title=" ">
<path fill="none" stroke="#63b8ff" d="M306.78,-28.38C314.83,-27.37 322.99,-26.34 331.01,-25.33"/>
<polygon fill="#63b8ff" stroke="#63b8ff" points="331.22,-28.83 340.71,-24.11 330.35,-21.88 331.22,-28.83"/>
</a>
</g>
</g>
</g>
</svg>
