<?xml version="1.0" encoding="UTF-8" standalone="no"?>
<!DOCTYPE svg PUBLIC "-//W3C//DTD SVG 1.1//EN"
 "http://www.w3.org/Graphics/SVG/1.1/DTD/svg11.dtd">
<!-- Generated by graphviz version 11.0.0 (20240428.1522)
 -->
<!-- Title: GLESC::Render::Renderer::sendMeshData Pages: 1 -->
<svg width="479pt" height="178pt"
 viewBox="0.00 0.00 479.00 178.00" xmlns="http://www.w3.org/2000/svg" xmlns:xlink="http://www.w3.org/1999/xlink">

<svg id="main" version="1.1" xmlns="http://www.w3.org/2000/svg" xmlns:xlink="http://www.w3.org/1999/xlink" xml:space="preserve" onload="init(evt)">
<style type="text/css"><![CDATA[
.node, .edge {opacity: 0.7;}
.node.selected, .edge.selected {opacity: 1;}
.edge:hover path { stroke: red; }
.edge:hover polygon { stroke: red; fill: red; }
]]></style>
<script type="application/ecmascript" xlink:href="svg.min.js"/>
<svg id="graph" class="graph">
<g id="graph0" class="graph" transform="scale(1 1) rotate(0) translate(4 174)">
<title>GLESC::Render::Renderer::sendMeshData</title>
<!-- Node1 -->
<g id="Node000001" class="node">
<title>Node1</title>
<g id="a_Node000001"><a xlink:title="This sends the mesh data to the renderer so it can be rendered.">
<polygon fill="#999999" stroke="#666666" points="130.75,-95 0,-95 0,-63 130.75,-63 130.75,-95"/>
<text text-anchor="start" x="8" y="-81.5" font-family="Helvetica,sans-Serif" font-size="10.00">GLESC::Render::Renderer</text>
<text text-anchor="middle" x="65.38" y="-69.5" font-family="Helvetica,sans-Serif" font-size="10.00">::sendMeshData</text>
</a>
</g>
</g>
<!-- Node2 -->
<g id="Node000002" class="node">
<title>Node2</title>
<g id="a_Node000002"><a xlink:href="class_g_l_e_s_c_1_1_render_1_1_mesh.html#a6e11ed4a4df7573e35af2eb1841501f3" target="_top" xlink:title=" ">
<polygon fill="white" stroke="#666666" points="282.88,-170 167.12,-170 167.12,-138 282.88,-138 282.88,-170"/>
<text text-anchor="start" x="175.12" y="-156.5" font-family="Helvetica,sans-Serif" font-size="10.00">GLESC::Render::Mesh</text>
<text text-anchor="middle" x="225" y="-144.5" font-family="Helvetica,sans-Serif" font-size="10.00">::getRenderType</text>
</a>
</g>
</g>
<!-- Node1&#45;&gt;Node2 -->
<g id="edge1_Node000001_Node000002" class="edge">
<title>Node1&#45;&gt;Node2</title>
<g id="a_edge1_Node000001_Node000002"><a xlink:title=" ">
<path fill="none" stroke="#63b8ff" d="M98.27,-95.4C117.9,-105.37 143.64,-118.21 166.75,-129 169.51,-130.29 172.35,-131.6 175.23,-132.9"/>
<polygon fill="#63b8ff" stroke="#63b8ff" points="173.76,-136.08 184.31,-136.97 176.62,-129.69 173.76,-136.08"/>
</a>
</g>
</g>
<!-- Node3 -->
<g id="Node000003" class="node">
<title>Node3</title>
<g id="a_Node000003"><a xlink:href="class_g_l_e_s_c_1_1_render_1_1_mesh.html#a863d2c05d8b7b9d10fe946ca1c5f1c21" target="_top" xlink:title=" ">
<polygon fill="white" stroke="#666666" points="282.88,-120 167.12,-120 167.12,-88 282.88,-88 282.88,-120"/>
<text text-anchor="start" x="175.12" y="-106.5" font-family="Helvetica,sans-Serif" font-size="10.00">GLESC::Render::Mesh</text>
<text text-anchor="middle" x="225" y="-94.5" font-family="Helvetica,sans-Serif" font-size="10.00">::getVertices</text>
</a>
</g>
</g>
<!-- Node1&#45;&gt;Node3 -->
<g id="edge2_Node000001_Node000003" class="edge">
<title>Node1&#45;&gt;Node3</title>
<g id="a_edge2_Node000001_Node000003"><a xlink:title=" ">
<path fill="none" stroke="#63b8ff" d="M130.94,-89.24C139.13,-90.54 147.52,-91.87 155.76,-93.18"/>
<polygon fill="#63b8ff" stroke="#63b8ff" points="154.94,-96.59 165.37,-94.7 156.04,-89.68 154.94,-96.59"/>
</a>
</g>
</g>
<!-- Node4 -->
<g id="Node000004" class="node">
<title>Node4</title>
<g id="a_Node000004"><a xlink:href="class_g_l_e_s_c_1_1_render_1_1_mesh.html#a9ddd143cc0aea52acf7649b1dc7f1d07" target="_top" xlink:title=" ">
<polygon fill="white" stroke="#666666" points="282.88,-70 167.12,-70 167.12,-38 282.88,-38 282.88,-70"/>
<text text-anchor="start" x="175.12" y="-56.5" font-family="Helvetica,sans-Serif" font-size="10.00">GLESC::Render::Mesh</text>
<text text-anchor="middle" x="225" y="-44.5" font-family="Helvetica,sans-Serif" font-size="10.00">::isBeingBuilt</text>
</a>
</g>
</g>
<!-- Node1&#45;&gt;Node4 -->
<g id="edge3_Node000001_Node000004" class="edge">
<title>Node1&#45;&gt;Node4</title>
<g id="a_edge3_Node000001_Node000004"><a xlink:title=" ">
<path fill="none" stroke="#63b8ff" d="M130.94,-68.76C139.13,-67.46 147.52,-66.13 155.76,-64.82"/>
<polygon fill="#63b8ff" stroke="#63b8ff" points="156.04,-68.32 165.37,-63.3 154.94,-61.41 156.04,-68.32"/>
</a>
</g>
</g>
<!-- Node5 -->
<g id="Node000005" class="node">
<title>Node5</title>
<g id="a_Node000005"><a xlink:href="class_g_l_e_s_c_1_1_console.html#a7ed2e6be9021ff98197fe923266d007f" target="_top" xlink:title=" ">
<polygon fill="white" stroke="#666666" points="283.25,-20 166.75,-20 166.75,0 283.25,0 283.25,-20"/>
<text text-anchor="middle" x="225" y="-6.5" font-family="Helvetica,sans-Serif" font-size="10.00">GLESC::Console::warn</text>
</a>
</g>
</g>
<!-- Node1&#45;&gt;Node5 -->
<g id="edge4_Node000001_Node000005" class="edge">
<title>Node1&#45;&gt;Node5</title>
<g id="a_edge4_Node000001_Node000005"><a xlink:title=" ">
<path fill="none" stroke="#63b8ff" d="M96.61,-62.54C116.26,-52.18 142.63,-38.95 166.75,-29 170.77,-27.34 175,-25.72 179.26,-24.17"/>
<polygon fill="#63b8ff" stroke="#63b8ff" points="180.1,-27.58 188.38,-20.97 177.78,-20.97 180.1,-27.58"/>
</a>
</g>
</g>
<!-- Node6 -->
<g id="Node000006" class="node">
<title>Node6</title>
<g id="a_Node000006"><a xlink:href="class_g_l_e_s_c_1_1_console.html#ad13451bc6828bdceeafdb89a56d66c44" target="_top" xlink:title=" ">
<polygon fill="white" stroke="#666666" points="471,-20 319.25,-20 319.25,0 471,0 471,-20"/>
<text text-anchor="middle" x="395.12" y="-6.5" font-family="Helvetica,sans-Serif" font-size="10.00">GLESC::Console::addMessage</text>
</a>
</g>
</g>
<!-- Node5&#45;&gt;Node6 -->
<g id="edge5_Node000005_Node000006" class="edge">
<title>Node5&#45;&gt;Node6</title>
<g id="a_edge5_Node000005_Node000006"><a xlink:title=" ">
<path fill="none" stroke="#63b8ff" d="M283.39,-10C291.15,-10 299.24,-10 307.37,-10"/>
<polygon fill="#63b8ff" stroke="#63b8ff" points="307.35,-13.5 317.35,-10 307.35,-6.5 307.35,-13.5"/>
</a>
</g>
</g>
</g>
</svg>
</svg>

<style type='text/css'>
<![CDATA[
[data-mouse-over-selected='false'] { opacity: 0.7; }
[data-mouse-over-selected='true']  { opacity: 1.0; }
]]>
</style>
<script type="application/ecmascript"><![CDATA[
document.addEventListener('DOMContentLoaded', (event) => {
  highlightEdges();
  highlightAdjacentNodes();
});
]]></script>
</svg>
