<?xml version="1.0" encoding="UTF-8" standalone="no"?>
<!DOCTYPE svg PUBLIC "-//W3C//DTD SVG 1.1//EN"
 "http://www.w3.org/Graphics/SVG/1.1/DTD/svg11.dtd">
<!-- Generated by graphviz version 11.0.0 (20240428.1522)
 -->
<!-- Title: GLESC::ECS::EntityManager::getEntityID Pages: 1 -->
<!--zoomable 340 -->

<svg id="main" version="1.1" xmlns="http://www.w3.org/2000/svg" xmlns:xlink="http://www.w3.org/1999/xlink" xml:space="preserve" onload="init(evt)">
<style type="text/css"><![CDATA[
.node, .edge {opacity: 0.7;}
.node.selected, .edge.selected {opacity: 1;}
.edge:hover path { stroke: red; }
.edge:hover polygon { stroke: red; fill: red; }
]]></style>

<defs>
  <circle id="rim" cx="0" cy="0" r="7"/>
  <circle id="rim2" cx="0" cy="0" r="3.5"/>
  <g id="zoomPlus">
    <use xlink:href="#rim" fill="#404040"><set attributeName="fill" to="#808080" begin="zoomplus.mouseover" end="zoomplus.mouseout"/></use>
    <path d="M-4,0h8M0,-4v8" fill="none" stroke="white" stroke-width="1.5" pointer-events="none"/>
  </g>
  <g id="zoomMin">
    <use xlink:href="#rim" fill="#404040"><set attributeName="fill" to="#808080" begin="zoomminus.mouseover" end="zoomminus.mouseout"/></use>
    <path d="M-4,0h8" fill="none" stroke="white" stroke-width="1.5" pointer-events="none"/>
  </g>
  <g id="arrowUp" transform="translate(30 24)">
    <use xlink:href="#rim"/>
    <path pointer-events="none" fill="none" stroke="white" stroke-width="1.5" d="M0,-3.0v7 M-2.5,-0.5L0,-3.0L2.5,-0.5"/>
  </g>
  <g id="arrowRight" transform="rotate(90) translate(36 -43)">
    <use xlink:href="#rim"/>
    <path pointer-events="none" fill="none" stroke="white" stroke-width="1.5" d="M0,-3.0v7 M-2.5,-0.5L0,-3.0L2.5,-0.5"/>
  </g>
  <g id="arrowDown" transform="rotate(180) translate(-30 -48)">
    <use xlink:href="#rim"/>
    <path pointer-events="none" fill="none" stroke="white" stroke-width="1.5" d="M0,-3.0v7 M-2.5,-0.5L0,-3.0L2.5,-0.5"/>
  </g>
  <g id="arrowLeft" transform="rotate(270) translate(-36 17)">
    <use xlink:href="#rim"/>
    <path pointer-events="none" fill="none" stroke="white" stroke-width="1.5" d="M0,-3.0v7 M-2.5,-0.5L0,-3.0L2.5,-0.5"/>
  </g>
  <g id="resetDef">
    <use xlink:href="#rim2" fill="#404040"><set attributeName="fill" to="#808080" begin="reset.mouseover" end="reset.mouseout"/></use>
  </g>
</defs>
<script type="application/ecmascript">
var viewWidth = 903;
var viewHeight = 340;
var sectionId = 'dynsection-14';
</script>
<script type="application/ecmascript" xlink:href="svg.min.js"/>
<svg id="graph" class="graph">
<g id="viewport">
<title>GLESC::ECS::EntityManager::getEntityID</title>
<!-- Node1 -->
<g id="Node000001" class="node">
<title>Node1</title>
<g id="a_Node000001"><a xlink:title="Get the entity ID from the entity name.">
<polygon fill="#999999" stroke="#666666" points="894.5,-207 750.25,-207 750.25,-175 894.5,-175 894.5,-207"/>
<text text-anchor="start" x="758.25" y="-193.5" font-family="Helvetica,sans-Serif" font-size="10.00">GLESC::ECS::EntityManager</text>
<text text-anchor="middle" x="822.38" y="-181.5" font-family="Helvetica,sans-Serif" font-size="10.00">::getEntityID</text>
</a>
</g>
</g>
<!-- Node2 -->
<g id="Node000002" class="node">
<title>Node2</title>
<g id="a_Node000002"><a xlink:href="class_g_l_e_s_c_1_1_e_c_s_1_1_e_c_s_coordinator.html#ac50027c90385da038caeb27371d3dde6" target="_top" xlink:title="Get the entity ID from the entity name.">
<polygon fill="white" stroke="#666666" points="714.25,-232 563.25,-232 563.25,-200 714.25,-200 714.25,-232"/>
<text text-anchor="start" x="571.25" y="-218.5" font-family="Helvetica,sans-Serif" font-size="10.00">GLESC::ECS::ECSCoordinator</text>
<text text-anchor="middle" x="638.75" y="-206.5" font-family="Helvetica,sans-Serif" font-size="10.00">::getEntityID</text>
</a>
</g>
</g>
<!-- Node1&#45;&gt;Node2 -->
<g id="edge1_Node000001_Node000002" class="edge">
<title>Node1&#45;&gt;Node2</title>
<g id="a_edge1_Node000001_Node000002"><a xlink:title=" ">
<path fill="none" stroke="#63b8ff" d="M738.58,-202.4C730.55,-203.5 722.44,-204.62 714.49,-205.71"/>
<polygon fill="#63b8ff" stroke="#63b8ff" points="738.92,-205.88 748.35,-201.05 737.97,-198.95 738.92,-205.88"/>
</a>
</g>
</g>
<!-- Node14 -->
<g id="Node000014" class="node">
<title>Node14</title>
<g id="a_Node000014"><a xlink:href="class_g_l_e_s_c_1_1_e_c_s_1_1_entity_manager.html#a77367b7afcc6f27618cab7d49e504fb7" target="_top" xlink:title="Check if the entity with the given name is alive.">
<polygon fill="white" stroke="#666666" points="710.88,-182 566.62,-182 566.62,-150 710.88,-150 710.88,-182"/>
<text text-anchor="start" x="574.62" y="-168.5" font-family="Helvetica,sans-Serif" font-size="10.00">GLESC::ECS::EntityManager</text>
<text text-anchor="middle" x="638.75" y="-156.5" font-family="Helvetica,sans-Serif" font-size="10.00">::isEntityAlive</text>
</a>
</g>
</g>
<!-- Node1&#45;&gt;Node14 -->
<g id="edge13_Node000001_Node000014" class="edge">
<title>Node1&#45;&gt;Node14</title>
<g id="a_edge13_Node000001_Node000014"><a xlink:title=" ">
<path fill="none" stroke="#63b8ff" d="M738.73,-179.62C729.54,-178.36 720.24,-177.08 711.21,-175.84"/>
<polygon fill="#63b8ff" stroke="#63b8ff" points="737.97,-183.05 748.35,-180.95 738.92,-176.12 737.97,-183.05"/>
</a>
</g>
</g>
<!-- Node3 -->
<g id="Node000003" class="node">
<title>Node3</title>
<g id="a_Node000003"><a xlink:href="class_g_l_e_s_c_1_1_e_c_s_1_1_system.html#a81ed17feea0e3794322faed7f37f3b0c" target="_top" xlink:title="Gets the ID of an entity.">
<polygon fill="white" stroke="#666666" points="514.88,-282 399.88,-282 399.88,-250 514.88,-250 514.88,-282"/>
<text text-anchor="start" x="407.88" y="-268.5" font-family="Helvetica,sans-Serif" font-size="10.00">GLESC::ECS::System</text>
<text text-anchor="middle" x="457.38" y="-256.5" font-family="Helvetica,sans-Serif" font-size="10.00">::getEntity</text>
</a>
</g>
</g>
<!-- Node2&#45;&gt;Node3 -->
<g id="edge2_Node000002_Node000003" class="edge">
<title>Node2&#45;&gt;Node3</title>
<g id="a_edge2_Node000002_Node000003"><a xlink:title=" ">
<path fill="none" stroke="#63b8ff" d="M568.23,-235.38C550.65,-240.28 531.97,-245.48 515.1,-250.19"/>
<polygon fill="#63b8ff" stroke="#63b8ff" points="568.86,-238.83 577.56,-232.78 566.99,-232.09 568.86,-238.83"/>
</a>
</g>
</g>
<!-- Node6 -->
<g id="Node000006" class="node">
<title>Node6</title>
<g id="a_Node000006"><a xlink:href="class_g_l_e_s_c_1_1_e_c_s_1_1_entity_factory.html#a12a9f6adc2559286d8e0cc2cc9a42fb3" target="_top" xlink:title="Gets an entity by its name.">
<polygon fill="white" stroke="#666666" points="527.25,-182 387.5,-182 387.5,-150 527.25,-150 527.25,-182"/>
<text text-anchor="start" x="395.5" y="-168.5" font-family="Helvetica,sans-Serif" font-size="10.00">GLESC::ECS::EntityFactory</text>
<text text-anchor="middle" x="457.38" y="-156.5" font-family="Helvetica,sans-Serif" font-size="10.00">::getEntity</text>
</a>
</g>
</g>
<!-- Node2&#45;&gt;Node6 -->
<g id="edge5_Node000002_Node000006" class="edge">
<title>Node2&#45;&gt;Node6</title>
<g id="a_edge5_Node000002_Node000006"><a xlink:title=" ">
<path fill="none" stroke="#63b8ff" d="M568.19,-196.61C551.46,-191.95 533.75,-187.01 517.55,-182.49"/>
<polygon fill="#63b8ff" stroke="#63b8ff" points="566.99,-199.91 577.56,-199.22 568.86,-193.17 566.99,-199.91"/>
</a>
</g>
</g>
<!-- Node4 -->
<g id="Node000004" class="node">
<title>Node4</title>
<g id="a_Node000004"><a xlink:href="class_g_l_e_s_c_1_1_e_c_s_1_1_debug_info_system.html#ab3dac8d716449db82bd6f95f55077d1c" target="_top" xlink:title=" ">
<polygon fill="white" stroke="#666666" points="351.5,-332 193.75,-332 193.75,-300 351.5,-300 351.5,-332"/>
<text text-anchor="start" x="201.75" y="-318.5" font-family="Helvetica,sans-Serif" font-size="10.00">GLESC::ECS::DebugInfoSystem</text>
<text text-anchor="middle" x="272.62" y="-306.5" font-family="Helvetica,sans-Serif" font-size="10.00">::setEntityData</text>
</a>
</g>
</g>
<!-- Node3&#45;&gt;Node4 -->
<g id="edge3_Node000003_Node000004" class="edge">
<title>Node3&#45;&gt;Node4</title>
<g id="a_edge3_Node000003_Node000004"><a xlink:title=" ">
<path fill="none" stroke="#63b8ff" d="M388.58,-284.55C370.64,-289.46 351.4,-294.72 333.89,-299.51"/>
<polygon fill="#63b8ff" stroke="#63b8ff" points="389.37,-287.96 398.09,-281.95 387.52,-281.21 389.37,-287.96"/>
</a>
</g>
</g>
<!-- Node5 -->
<g id="Node000005" class="node">
<title>Node5</title>
<g id="a_Node000005"><a xlink:href="class_g_l_e_s_c_1_1_e_c_s_1_1_debug_info_system.html#af0f60d4a863a70a744d562649e26c394" target="_top" xlink:title="Updates the system.">
<polygon fill="white" stroke="#666666" points="157.75,-332 0,-332 0,-300 157.75,-300 157.75,-332"/>
<text text-anchor="start" x="8" y="-318.5" font-family="Helvetica,sans-Serif" font-size="10.00">GLESC::ECS::DebugInfoSystem</text>
<text text-anchor="middle" x="78.88" y="-306.5" font-family="Helvetica,sans-Serif" font-size="10.00">::update</text>
</a>
</g>
</g>
<!-- Node4&#45;&gt;Node5 -->
<g id="edge4_Node000004_Node000005" class="edge">
<title>Node4&#45;&gt;Node5</title>
<g id="a_edge4_Node000004_Node000005"><a xlink:title=" ">
<path fill="none" stroke="#63b8ff" d="M181.85,-316C173.95,-316 166,-316 158.2,-316"/>
<polygon fill="#63b8ff" stroke="#63b8ff" points="181.84,-319.5 191.84,-316 181.84,-312.5 181.84,-319.5"/>
</a>
</g>
</g>
<!-- Node7 -->
<g id="Node000007" class="node">
<title>Node7</title>
<g id="a_Node000007"><a xlink:href="class_g_l_e_s_c_1_1_scene_1_1_scene.html#ab44f2a6b0a556aced1bbd39e3426be7a" target="_top" xlink:title="Creates an entity and adds it to the scene.">
<polygon fill="white" stroke="#666666" points="330.88,-282 214.38,-282 214.38,-250 330.88,-250 330.88,-282"/>
<text text-anchor="start" x="222.38" y="-268.5" font-family="Helvetica,sans-Serif" font-size="10.00">GLESC::Scene::Scene</text>
<text text-anchor="middle" x="272.62" y="-256.5" font-family="Helvetica,sans-Serif" font-size="10.00">::createEntity</text>
</a>
</g>
</g>
<!-- Node6&#45;&gt;Node7 -->
<g id="edge6_Node000006_Node000007" class="edge">
<title>Node6&#45;&gt;Node7</title>
<g id="a_edge6_Node000006_Node000007"><a xlink:title=" ">
<path fill="none" stroke="#63b8ff" d="M428.75,-189.41C408.44,-205.67 379.6,-226.88 351.5,-241 345.03,-244.25 338.05,-247.2 331.01,-249.84"/>
<polygon fill="#63b8ff" stroke="#63b8ff" points="430.73,-192.31 436.27,-183.28 426.31,-186.88 430.73,-192.31"/>
</a>
</g>
</g>
<!-- Node9 -->
<g id="Node000009" class="node">
<title>Node9</title>
<g id="a_Node000009"><a xlink:href="class_g_l_e_s_c_1_1_scene_1_1_scene.html#ab7907f74548ba185b79eeee2fe01a632" target="_top" xlink:title="Destroys all entities in the scene.">
<polygon fill="white" stroke="#666666" points="330.88,-232 214.38,-232 214.38,-200 330.88,-200 330.88,-232"/>
<text text-anchor="start" x="222.38" y="-218.5" font-family="Helvetica,sans-Serif" font-size="10.00">GLESC::Scene::Scene</text>
<text text-anchor="middle" x="272.62" y="-206.5" font-family="Helvetica,sans-Serif" font-size="10.00">::destroyEntities</text>
</a>
</g>
</g>
<!-- Node6&#45;&gt;Node9 -->
<g id="edge8_Node000006_Node000009" class="edge">
<title>Node6&#45;&gt;Node9</title>
<g id="a_edge8_Node000006_Node000009"><a xlink:title=" ">
<path fill="none" stroke="#63b8ff" d="M385.31,-185.44C367.41,-190.34 348.42,-195.54 331.27,-200.23"/>
<polygon fill="#63b8ff" stroke="#63b8ff" points="386.1,-188.86 394.82,-182.84 384.25,-182.1 386.1,-188.86"/>
</a>
</g>
</g>
<!-- Node10 -->
<g id="Node000010" class="node">
<title>Node10</title>
<g id="a_Node000010"><a xlink:href="class_g_l_e_s_c_1_1_scene_1_1_scene.html#a86dac6c3276278aa4ea0e813c05669da" target="_top" xlink:title="Destroys an entity by ID.">
<polygon fill="white" stroke="#666666" points="330.88,-182 214.38,-182 214.38,-150 330.88,-150 330.88,-182"/>
<text text-anchor="start" x="222.38" y="-168.5" font-family="Helvetica,sans-Serif" font-size="10.00">GLESC::Scene::Scene</text>
<text text-anchor="middle" x="272.62" y="-156.5" font-family="Helvetica,sans-Serif" font-size="10.00">::destroyEntity</text>
</a>
</g>
</g>
<!-- Node6&#45;&gt;Node10 -->
<g id="edge9_Node000006_Node000010" class="edge">
<title>Node6&#45;&gt;Node10</title>
<g id="a_edge9_Node000006_Node000010"><a xlink:title=" ">
<path fill="none" stroke="#63b8ff" d="M375.7,-166C360.75,-166 345.41,-166 331.32,-166"/>
<polygon fill="#63b8ff" stroke="#63b8ff" points="375.51,-169.5 385.51,-166 375.51,-162.5 375.51,-169.5"/>
</a>
</g>
</g>
<!-- Node11 -->
<g id="Node000011" class="node">
<title>Node11</title>
<g id="a_Node000011"><a xlink:href="class_g_l_e_s_c_1_1_scene_1_1_scene.html#aa60003c3501c2d08c156e738f86f2588" target="_top" xlink:title="Destroys an entity by name.">
<polygon fill="white" stroke="#666666" points="330.88,-132 214.38,-132 214.38,-100 330.88,-100 330.88,-132"/>
<text text-anchor="start" x="222.38" y="-118.5" font-family="Helvetica,sans-Serif" font-size="10.00">GLESC::Scene::Scene</text>
<text text-anchor="middle" x="272.62" y="-106.5" font-family="Helvetica,sans-Serif" font-size="10.00">::destroyEntity</text>
</a>
</g>
</g>
<!-- Node6&#45;&gt;Node11 -->
<g id="edge10_Node000006_Node000011" class="edge">
<title>Node6&#45;&gt;Node11</title>
<g id="a_edge10_Node000006_Node000011"><a xlink:title=" ">
<path fill="none" stroke="#63b8ff" d="M385.31,-146.56C367.41,-141.66 348.42,-136.46 331.27,-131.77"/>
<polygon fill="#63b8ff" stroke="#63b8ff" points="384.25,-149.9 394.82,-149.16 386.1,-143.14 384.25,-149.9"/>
</a>
</g>
</g>
<!-- Node12 -->
<g id="Node000012" class="node">
<title>Node12</title>
<g id="a_Node000012"><a xlink:href="class_g_l_e_s_c_1_1_scene_1_1_scene.html#adccff352c1e8f278b471f7c9cecebd35" target="_top" xlink:title="Gets an entity by ID.">
<polygon fill="white" stroke="#666666" points="330.88,-82 214.38,-82 214.38,-50 330.88,-50 330.88,-82"/>
<text text-anchor="start" x="222.38" y="-68.5" font-family="Helvetica,sans-Serif" font-size="10.00">GLESC::Scene::Scene</text>
<text text-anchor="middle" x="272.62" y="-56.5" font-family="Helvetica,sans-Serif" font-size="10.00">::getEntity</text>
</a>
</g>
</g>
<!-- Node6&#45;&gt;Node12 -->
<g id="edge11_Node000006_Node000012" class="edge">
<title>Node6&#45;&gt;Node12</title>
<g id="a_edge11_Node000006_Node000012"><a xlink:title=" ">
<path fill="none" stroke="#63b8ff" d="M428.75,-142.59C408.44,-126.33 379.6,-105.12 351.5,-91 345.03,-87.75 338.05,-84.8 331.01,-82.16"/>
<polygon fill="#63b8ff" stroke="#63b8ff" points="426.31,-145.12 436.27,-148.72 430.73,-139.69 426.31,-145.12"/>
</a>
</g>
</g>
<!-- Node13 -->
<g id="Node000013" class="node">
<title>Node13</title>
<g id="a_Node000013"><a xlink:href="class_g_l_e_s_c_1_1_scene_1_1_scene.html#abddfa0c1727c02f0a67fc761088131f8" target="_top" xlink:title="Gets an entity by name.">
<polygon fill="white" stroke="#666666" points="330.88,-32 214.38,-32 214.38,0 330.88,0 330.88,-32"/>
<text text-anchor="start" x="222.38" y="-18.5" font-family="Helvetica,sans-Serif" font-size="10.00">GLESC::Scene::Scene</text>
<text text-anchor="middle" x="272.62" y="-6.5" font-family="Helvetica,sans-Serif" font-size="10.00">::getEntity</text>
</a>
</g>
</g>
<!-- Node6&#45;&gt;Node13 -->
<g id="edge12_Node000006_Node000013" class="edge">
<title>Node6&#45;&gt;Node13</title>
<g id="a_edge12_Node000006_Node000013"><a xlink:title=" ">
<path fill="none" stroke="#63b8ff" d="M440.96,-140.06C422.91,-111.82 390.45,-67.17 351.5,-41 345.25,-36.8 338.26,-33.27 331.09,-30.31"/>
<polygon fill="#63b8ff" stroke="#63b8ff" points="437.89,-141.75 446.15,-148.38 443.83,-138.04 437.89,-141.75"/>
</a>
</g>
</g>
<!-- Node8 -->
<g id="Node000008" class="node">
<title>Node8</title>
<g id="a_Node000008"><a xlink:href="class_default.html#a6e26da3ebf533b0f5d45266cd0ce9082" target="_top" xlink:title="Initializes the scene. Must be implemented by the derived class.">
<polygon fill="white" stroke="#666666" points="111.25,-276 46.5,-276 46.5,-256 111.25,-256 111.25,-276"/>
<text text-anchor="middle" x="78.88" y="-262.5" font-family="Helvetica,sans-Serif" font-size="10.00">Default::init</text>
</a>
</g>
</g>
<!-- Node7&#45;&gt;Node8 -->
<g id="edge7_Node000007_Node000008" class="edge">
<title>Node7&#45;&gt;Node8</title>
<g id="a_edge7_Node000007_Node000008"><a xlink:title=" ">
<path fill="none" stroke="#63b8ff" d="M202.85,-266C171.74,-266 136.49,-266 111.73,-266"/>
<polygon fill="#63b8ff" stroke="#63b8ff" points="202.58,-269.5 212.58,-266 202.58,-262.5 202.58,-269.5"/>
</a>
</g>
</g>
</g>
</svg>

<g id="navigator" transform="translate(0 0)" fill="#404254">
  <rect fill="#f2f5e9" fill-opacity="0.5" stroke="#606060" stroke-width=".5" x="0" y="0" width="60" height="60"/>
  <use id="zoomplus" xlink:href="#zoomPlus" x="17" y="9" onmousedown="handleZoom(evt,'in')"/>
  <use id="zoomminus" xlink:href="#zoomMin" x="42" y="9" onmousedown="handleZoom(evt,'out')"/>
  <use id="reset" xlink:href="#resetDef" x="30" y="36" onmousedown="handleReset()"/>
   <use id="arrowup" xlink:href="#arrowUp" x="0" y="0" onmousedown="handlePan(0,-1)"/>
  <use id="arrowright" xlink:href="#arrowRight" x="0" y="0" onmousedown="handlePan(1,0)"/>
  <use id="arrowdown" xlink:href="#arrowDown" x="0" y="0" onmousedown="handlePan(0,1)"/>
  <use id="arrowleft" xlink:href="#arrowLeft" x="0" y="0" onmousedown="handlePan(-1,0)"/>
</g>
<svg viewBox="0 0 15 15" width="100%" height="30px" preserveAspectRatio="xMaxYMin meet">
 <g id="arrow_out" transform="scale(0.3 0.3)">
  <a xlink:href="class_g_l_e_s_c_1_1_e_c_s_1_1_entity_manager_a331b9b5711f516647e4de67f9a256db3_icgraph_org.svg" target="_base">
   <rect id="button" ry="5" rx="5" y="6" x="6" height="38" width="38"
        fill="#f2f5e9" fill-opacity="0.5" stroke="#606060" stroke-width="1.0"/>
   <path id="arrow"
     d="M 11.500037,31.436501 C 11.940474,20.09759 22.043105,11.32322 32.158766,21.979434 L 37.068811,17.246167 C 37.068811,17.246167 37.088388,32 37.088388,32 L 22.160133,31.978069 C 22.160133,31.978069 26.997745,27.140456 26.997745,27.140456 C 18.528582,18.264221 13.291696,25.230495 11.500037,31.436501 z"
     style="fill:#404040;"/>
  </a>
 </g>
</svg>

<style type='text/css'>
<![CDATA[
[data-mouse-over-selected='false'] { opacity: 0.7; }
[data-mouse-over-selected='true']  { opacity: 1.0; }
]]>
</style>
<script type="application/ecmascript"><![CDATA[
document.addEventListener('DOMContentLoaded', (event) => {
  highlightEdges();
  highlightAdjacentNodes();
});
]]></script>
</svg>
