<?xml version="1.0" encoding="UTF-8" standalone="no"?>
<!DOCTYPE svg PUBLIC "-//W3C//DTD SVG 1.1//EN"
 "http://www.w3.org/Graphics/SVG/1.1/DTD/svg11.dtd">
<!-- Generated by graphviz version 11.0.0 (20240428.1522)
 -->
<!-- Title: GLESC::ECS::ECSCoordinator::getComponent Pages: 1 -->
<svg width="807pt" height="479pt"
 viewBox="0.00 0.00 807.25 478.88" xmlns="http://www.w3.org/2000/svg" xmlns:xlink="http://www.w3.org/1999/xlink">
<g id="graph0" class="graph" transform="scale(1 1) rotate(0) translate(4 474.88)">
<title>GLESC::ECS::ECSCoordinator::getComponent</title>
<!-- Node1 -->
<g id="Node000001" class="node">
<title>Node1</title>
<g id="a_Node000001"><a xlink:title="Get the component of an entity by its Id.">
<polygon fill="#999999" stroke="#666666" points="799.25,-126 648.25,-126 648.25,-94 799.25,-94 799.25,-126"/>
<text text-anchor="start" x="656.25" y="-112.5" font-family="Helvetica,sans-Serif" font-size="10.00">GLESC::ECS::ECSCoordinator</text>
<text text-anchor="middle" x="723.75" y="-100.5" font-family="Helvetica,sans-Serif" font-size="10.00">::getComponent</text>
</a>
</g>
</g>
<!-- Node2 -->
<g id="Node000002" class="node">
<title>Node2</title>
<g id="a_Node000002"><a xlink:href="class_g_l_e_s_c_1_1_e_c_s_1_1_entity.html#a14143b00be0701d787f043955c449e22" target="_top" xlink:title="Returns a reference to the component.">
<polygon fill="white" stroke="#666666" points="608.12,-245 501.38,-245 501.38,-213 608.12,-213 608.12,-245"/>
<text text-anchor="start" x="509.38" y="-231.5" font-family="Helvetica,sans-Serif" font-size="10.00">GLESC::ECS::Entity</text>
<text text-anchor="middle" x="554.75" y="-219.5" font-family="Helvetica,sans-Serif" font-size="10.00">::getComponent</text>
</a>
</g>
</g>
<!-- Node1&#45;&gt;Node2 -->
<g id="edge1_Node000001_Node000002" class="edge">
<title>Node1&#45;&gt;Node2</title>
<g id="a_edge1_Node000001_Node000002"><a xlink:title=" ">
<path fill="none" stroke="#63b8ff" d="M690.73,-132.82C657.99,-156.14 607.95,-191.8 578.88,-212.52"/>
<polygon fill="#63b8ff" stroke="#63b8ff" points="692.53,-135.83 698.65,-127.18 688.47,-130.13 692.53,-135.83"/>
</a>
</g>
</g>
<!-- Node14 -->
<g id="Node000014" class="node">
<title>Node14</title>
<g id="a_Node000014"><a xlink:href="class_g_l_e_s_c_1_1_engine.html#ad2ff110d5a86c1cd60b541d65915ac48" target="_top" xlink:title="Processes the logic of the game Is called every frame, must be called at constant intervals of time a...">
<polygon fill="white" stroke="#666666" points="461.25,-20 341,-20 341,0 461.25,0 461.25,-20"/>
<text text-anchor="middle" x="401.12" y="-6.5" font-family="Helvetica,sans-Serif" font-size="10.00">GLESC::Engine::update</text>
</a>
</g>
</g>
<!-- Node1&#45;&gt;Node14 -->
<g id="edge24_Node000001_Node000014" class="edge">
<title>Node1&#45;&gt;Node14</title>
<g id="a_edge24_Node000001_Node000014"><a xlink:title=" ">
<path fill="none" stroke="#63b8ff" d="M636.5,-120.87C591.77,-122.25 538.09,-116.86 497.25,-91 470.33,-73.96 486.07,-48.98 461.25,-29 456.97,-25.55 452.04,-22.72 446.91,-20.4"/>
<polygon fill="#63b8ff" stroke="#63b8ff" points="636.62,-124.37 646.45,-120.44 636.31,-117.38 636.62,-124.37"/>
</a>
</g>
</g>
<!-- Node16 -->
<g id="Node000016" class="node">
<title>Node16</title>
<g id="a_Node000016"><a xlink:href="class_g_l_e_s_c_1_1_e_c_s_1_1_system.html#ac82c9a21b62935e81ade0e6b98b466d3" target="_top" xlink:title="Gets the component of an entity.">
<polygon fill="white" stroke="#666666" points="612.25,-82 497.25,-82 497.25,-50 612.25,-50 612.25,-82"/>
<text text-anchor="start" x="505.25" y="-68.5" font-family="Helvetica,sans-Serif" font-size="10.00">GLESC::ECS::System</text>
<text text-anchor="middle" x="554.75" y="-56.5" font-family="Helvetica,sans-Serif" font-size="10.00">::getComponent</text>
</a>
</g>
</g>
<!-- Node1&#45;&gt;Node16 -->
<g id="edge23_Node000001_Node000016" class="edge">
<title>Node1&#45;&gt;Node16</title>
<g id="a_edge23_Node000001_Node000016"><a xlink:title=" ">
<path fill="none" stroke="#63b8ff" d="M649.78,-90.77C637.37,-87.51 624.66,-84.16 612.74,-81.02"/>
<polygon fill="#63b8ff" stroke="#63b8ff" points="648.54,-94.07 659.1,-93.23 650.32,-87.3 648.54,-94.07"/>
</a>
</g>
</g>
<!-- Node3 -->
<g id="Node000003" class="node">
<title>Node3</title>
<g id="a_Node000003"><a xlink:href="class_g_l_e_s_c_1_1_engine.html#adb0bb222b1e702be0a95d55d8cfc915f" target="_top" xlink:title=" ">
<polygon fill="white" stroke="#666666" points="305,-405 157,-405 157,-373 305,-373 305,-405"/>
<text text-anchor="start" x="165" y="-391.5" font-family="Helvetica,sans-Serif" font-size="10.00">GLESC::Engine::createEngine</text>
<text text-anchor="middle" x="231" y="-379.5" font-family="Helvetica,sans-Serif" font-size="10.00">Entities</text>
</a>
</g>
</g>
<!-- Node2&#45;&gt;Node3 -->
<g id="edge2_Node000002_Node000003" class="edge">
<title>Node2&#45;&gt;Node3</title>
<g id="a_edge2_Node000002_Node000003"><a xlink:title=" ">
<path fill="none" stroke="#63b8ff" d="M551.88,-256.72C546.85,-306.47 528.42,-409.91 461.25,-455 393.68,-500.36 294.77,-437.2 252.44,-405.39"/>
<polygon fill="#63b8ff" stroke="#63b8ff" points="555.36,-257.07 552.76,-246.8 548.39,-256.45 555.36,-257.07"/>
</a>
</g>
</g>
<!-- Node5 -->
<g id="Node000005" class="node">
<title>Node5</title>
<g id="a_Node000005"><a xlink:href="class_default.html#a6e26da3ebf533b0f5d45266cd0ce9082" target="_top" xlink:title="Initializes the scene. Must be implemented by the derived class.">
<polygon fill="white" stroke="#666666" points="433.5,-446 368.75,-446 368.75,-426 433.5,-426 433.5,-446"/>
<text text-anchor="middle" x="401.12" y="-432.5" font-family="Helvetica,sans-Serif" font-size="10.00">Default::init</text>
</a>
</g>
</g>
<!-- Node2&#45;&gt;Node5 -->
<g id="edge4_Node000002_Node000005" class="edge">
<title>Node2&#45;&gt;Node5</title>
<g id="a_edge4_Node000002_Node000005"><a xlink:title=" ">
<path fill="none" stroke="#63b8ff" d="M547.52,-256.48C536.85,-297.32 511.24,-373.83 461.25,-417 453.58,-423.62 443.57,-427.94 433.97,-430.76"/>
<polygon fill="#63b8ff" stroke="#63b8ff" points="550.87,-257.52 549.88,-246.97 544.07,-255.83 550.87,-257.52"/>
</a>
</g>
</g>
<!-- Node6 -->
<g id="Node000006" class="node">
<title>Node6</title>
<g id="a_Node000006"><a xlink:href="class_g_l_e_s_c_1_1_engine_camera.html#a97a3af009cfc6a81b42d4a61d43e36e2" target="_top" xlink:title="Moves the camera backwards.">
<polygon fill="white" stroke="#666666" points="460.5,-408 341.75,-408 341.75,-376 460.5,-376 460.5,-408"/>
<text text-anchor="start" x="349.75" y="-394.5" font-family="Helvetica,sans-Serif" font-size="10.00">GLESC::EngineCamera</text>
<text text-anchor="middle" x="401.12" y="-382.5" font-family="Helvetica,sans-Serif" font-size="10.00">::moveBackward</text>
</a>
</g>
</g>
<!-- Node2&#45;&gt;Node6 -->
<g id="edge5_Node000002_Node000006" class="edge">
<title>Node2&#45;&gt;Node6</title>
<g id="a_edge5_Node000002_Node000006"><a xlink:title=" ">
<path fill="none" stroke="#63b8ff" d="M540.7,-255.1C525.09,-284.21 496.58,-331.24 461.25,-362 455.35,-367.14 448.41,-371.67 441.4,-375.54"/>
<polygon fill="#63b8ff" stroke="#63b8ff" points="543.62,-257.07 545.16,-246.59 537.42,-253.83 543.62,-257.07"/>
</a>
</g>
</g>
<!-- Node7 -->
<g id="Node000007" class="node">
<title>Node7</title>
<g id="a_Node000007"><a xlink:href="class_g_l_e_s_c_1_1_engine_camera.html#a3f37b288117cbbf684843bf4b88acb72" target="_top" xlink:title="Prepares the camera entity with its components and it&#39;s initial values.">
<polygon fill="white" stroke="#666666" points="290.38,-270 171.62,-270 171.62,-238 290.38,-238 290.38,-270"/>
<text text-anchor="start" x="179.62" y="-256.5" font-family="Helvetica,sans-Serif" font-size="10.00">GLESC::EngineCamera</text>
<text text-anchor="middle" x="231" y="-244.5" font-family="Helvetica,sans-Serif" font-size="10.00">::setupCamera</text>
</a>
</g>
</g>
<!-- Node2&#45;&gt;Node7 -->
<g id="edge20_Node000002_Node000007" class="edge">
<title>Node2&#45;&gt;Node7</title>
<g id="a_edge20_Node000002_Node000007"><a xlink:title=" ">
<path fill="none" stroke="#63b8ff" d="M538.63,-254.99C522.83,-279.28 495.57,-314 461.25,-329 412.28,-350.41 392.04,-344.86 341,-329 304.15,-317.55 268.72,-288.83 248.72,-270.43"/>
<polygon fill="#63b8ff" stroke="#63b8ff" points="541.55,-256.92 543.88,-246.59 535.61,-253.21 541.55,-256.92"/>
</a>
</g>
</g>
<!-- Node8 -->
<g id="Node000008" class="node">
<title>Node8</title>
<g id="a_Node000008"><a xlink:href="class_g_l_e_s_c_1_1_engine_camera.html#ab1754eb155a149e9ee93e62e9b1b2002" target="_top" xlink:title="Moves the camera downwards.">
<polygon fill="white" stroke="#666666" points="460.5,-320 341.75,-320 341.75,-288 460.5,-288 460.5,-320"/>
<text text-anchor="start" x="349.75" y="-306.5" font-family="Helvetica,sans-Serif" font-size="10.00">GLESC::EngineCamera</text>
<text text-anchor="middle" x="401.12" y="-294.5" font-family="Helvetica,sans-Serif" font-size="10.00">::moveDown</text>
</a>
</g>
</g>
<!-- Node2&#45;&gt;Node8 -->
<g id="edge8_Node000002_Node000008" class="edge">
<title>Node2&#45;&gt;Node8</title>
<g id="a_edge8_Node000002_Node000008"><a xlink:title=" ">
<path fill="none" stroke="#63b8ff" d="M515.16,-250.93C498.73,-259.98 479.24,-270.36 461.25,-279 455.22,-281.9 448.77,-284.81 442.43,-287.57"/>
<polygon fill="#63b8ff" stroke="#63b8ff" points="516.59,-254.14 523.63,-246.22 513.19,-248.02 516.59,-254.14"/>
</a>
</g>
</g>
<!-- Node9 -->
<g id="Node000009" class="node">
<title>Node9</title>
<g id="a_Node000009"><a xlink:href="class_g_l_e_s_c_1_1_engine_camera.html#a335ed43ca73bdbc5527ea0ec49a00dd2" target="_top" xlink:title="Moves the camera forwards.">
<polygon fill="white" stroke="#666666" points="460.5,-270 341.75,-270 341.75,-238 460.5,-238 460.5,-270"/>
<text text-anchor="start" x="349.75" y="-256.5" font-family="Helvetica,sans-Serif" font-size="10.00">GLESC::EngineCamera</text>
<text text-anchor="middle" x="401.12" y="-244.5" font-family="Helvetica,sans-Serif" font-size="10.00">::moveForward</text>
</a>
</g>
</g>
<!-- Node2&#45;&gt;Node9 -->
<g id="edge10_Node000002_Node000009" class="edge">
<title>Node2&#45;&gt;Node9</title>
<g id="a_edge10_Node000002_Node000009"><a xlink:title=" ">
<path fill="none" stroke="#63b8ff" d="M489.97,-239.52C480.32,-241.11 470.4,-242.74 460.86,-244.32"/>
<polygon fill="#63b8ff" stroke="#63b8ff" points="490.35,-243 499.65,-237.92 489.21,-236.09 490.35,-243"/>
</a>
</g>
</g>
<!-- Node10 -->
<g id="Node000010" class="node">
<title>Node10</title>
<g id="a_Node000010"><a xlink:href="class_g_l_e_s_c_1_1_engine_camera.html#acd6cb2233c367b37d1888d8c6fa743db" target="_top" xlink:title="Moves the camera to the left.">
<polygon fill="white" stroke="#666666" points="460.5,-220 341.75,-220 341.75,-188 460.5,-188 460.5,-220"/>
<text text-anchor="start" x="349.75" y="-206.5" font-family="Helvetica,sans-Serif" font-size="10.00">GLESC::EngineCamera</text>
<text text-anchor="middle" x="401.12" y="-194.5" font-family="Helvetica,sans-Serif" font-size="10.00">::moveLeft</text>
</a>
</g>
</g>
<!-- Node2&#45;&gt;Node10 -->
<g id="edge12_Node000002_Node000010" class="edge">
<title>Node2&#45;&gt;Node10</title>
<g id="a_edge12_Node000002_Node000010"><a xlink:title=" ">
<path fill="none" stroke="#63b8ff" d="M489.97,-218.48C480.32,-216.89 470.4,-215.26 460.86,-213.68"/>
<polygon fill="#63b8ff" stroke="#63b8ff" points="489.21,-221.91 499.65,-220.08 490.35,-215 489.21,-221.91"/>
</a>
</g>
</g>
<!-- Node11 -->
<g id="Node000011" class="node">
<title>Node11</title>
<g id="a_Node000011"><a xlink:href="class_g_l_e_s_c_1_1_engine_camera.html#a26c75b09b36ddc554f1d8cabd314a9be" target="_top" xlink:title="Moves the camera to the right.">
<polygon fill="white" stroke="#666666" points="460.5,-170 341.75,-170 341.75,-138 460.5,-138 460.5,-170"/>
<text text-anchor="start" x="349.75" y="-156.5" font-family="Helvetica,sans-Serif" font-size="10.00">GLESC::EngineCamera</text>
<text text-anchor="middle" x="401.12" y="-144.5" font-family="Helvetica,sans-Serif" font-size="10.00">::moveRight</text>
</a>
</g>
</g>
<!-- Node2&#45;&gt;Node11 -->
<g id="edge14_Node000002_Node000011" class="edge">
<title>Node2&#45;&gt;Node11</title>
<g id="a_edge14_Node000002_Node000011"><a xlink:title=" ">
<path fill="none" stroke="#63b8ff" d="M515.16,-207.07C498.73,-198.02 479.24,-187.64 461.25,-179 455.22,-176.1 448.77,-173.19 442.43,-170.43"/>
<polygon fill="#63b8ff" stroke="#63b8ff" points="513.19,-209.98 523.63,-211.78 516.59,-203.86 513.19,-209.98"/>
</a>
</g>
</g>
<!-- Node12 -->
<g id="Node000012" class="node">
<title>Node12</title>
<g id="a_Node000012"><a xlink:href="class_g_l_e_s_c_1_1_engine_camera.html#ad7633b5892a3e8d8490642726e3bb0a9" target="_top" xlink:title="Moves the camera upwards.">
<polygon fill="white" stroke="#666666" points="460.5,-120 341.75,-120 341.75,-88 460.5,-88 460.5,-120"/>
<text text-anchor="start" x="349.75" y="-106.5" font-family="Helvetica,sans-Serif" font-size="10.00">GLESC::EngineCamera</text>
<text text-anchor="middle" x="401.12" y="-94.5" font-family="Helvetica,sans-Serif" font-size="10.00">::moveUp</text>
</a>
</g>
</g>
<!-- Node2&#45;&gt;Node12 -->
<g id="edge16_Node000002_Node000012" class="edge">
<title>Node2&#45;&gt;Node12</title>
<g id="a_edge16_Node000002_Node000012"><a xlink:title=" ">
<path fill="none" stroke="#63b8ff" d="M535.36,-203.7C518.23,-181.58 490.92,-149.84 461.25,-129 456.78,-125.86 451.86,-123.01 446.81,-120.45"/>
<polygon fill="#63b8ff" stroke="#63b8ff" points="532.53,-205.75 541.36,-211.61 538.11,-201.52 532.53,-205.75"/>
</a>
</g>
</g>
<!-- Node13 -->
<g id="Node000013" class="node">
<title>Node13</title>
<g id="a_Node000013"><a xlink:href="class_g_l_e_s_c_1_1_engine_camera.html#a63dae1933350d3e10798719c19db2870" target="_top" xlink:title="Rotates the camera based on the mouse movement.">
<polygon fill="white" stroke="#666666" points="460.5,-70 341.75,-70 341.75,-38 460.5,-38 460.5,-70"/>
<text text-anchor="start" x="349.75" y="-56.5" font-family="Helvetica,sans-Serif" font-size="10.00">GLESC::EngineCamera</text>
<text text-anchor="middle" x="401.12" y="-44.5" font-family="Helvetica,sans-Serif" font-size="10.00">::rotate</text>
</a>
</g>
</g>
<!-- Node2&#45;&gt;Node13 -->
<g id="edge18_Node000002_Node000013" class="edge">
<title>Node2&#45;&gt;Node13</title>
<g id="a_edge18_Node000002_Node000013"><a xlink:title=" ">
<path fill="none" stroke="#63b8ff" d="M540.14,-202.84C519.99,-164.88 482.32,-97.07 461.25,-79 457.53,-75.81 453.34,-72.97 448.95,-70.47"/>
<polygon fill="#63b8ff" stroke="#63b8ff" points="536.87,-204.14 544.63,-211.35 543.06,-200.87 536.87,-204.14"/>
</a>
</g>
</g>
<!-- Node2&#45;&gt;Node14 -->
<g id="edge21_Node000002_Node000014" class="edge">
<title>Node2&#45;&gt;Node14</title>
<g id="a_edge21_Node000002_Node000014"><a xlink:title=" ">
<path fill="none" stroke="#63b8ff" d="M538.44,-202.85C526.47,-181.9 509.82,-151.55 497.25,-124 478.51,-82.92 493.99,-60.1 461.25,-29 457.65,-25.58 453.44,-22.78 448.95,-20.48"/>
<polygon fill="#63b8ff" stroke="#63b8ff" points="535.28,-204.38 543.3,-211.3 541.34,-200.89 535.28,-204.38"/>
</a>
</g>
</g>
<!-- Node4 -->
<g id="Node000004" class="node">
<title>Node4</title>
<g id="a_Node000004"><a xlink:href="class_g_l_e_s_c_1_1_engine.html#a93e1621f9daf326a7c45d3b2a4c826c1" target="_top" xlink:title="The constructor is private, the engine can only be created by the main function.">
<polygon fill="white" stroke="#666666" points="121,-331 0,-331 0,-311 121,-311 121,-331"/>
<text text-anchor="middle" x="60.5" y="-317.5" font-family="Helvetica,sans-Serif" font-size="10.00">GLESC::Engine::Engine</text>
</a>
</g>
</g>
<!-- Node3&#45;&gt;Node4 -->
<g id="edge3_Node000003_Node000004" class="edge">
<title>Node3&#45;&gt;Node4</title>
<g id="a_edge3_Node000003_Node000004"><a xlink:title=" ">
<path fill="none" stroke="#63b8ff" d="M178.85,-368.36C148.68,-356.18 111.77,-341.29 87.5,-331.49"/>
<polygon fill="#63b8ff" stroke="#63b8ff" points="177.22,-371.48 187.81,-371.97 179.84,-364.98 177.22,-371.48"/>
</a>
</g>
</g>
<!-- Node6&#45;&gt;Node7 -->
<g id="edge6_Node000006_Node000007" class="edge">
<title>Node6&#45;&gt;Node7</title>
<g id="a_edge6_Node000006_Node000007"><a xlink:title=" ">
<path fill="none" stroke="#63b8ff" d="M353.71,-370.23C349.3,-367.64 344.99,-364.88 341,-362 302.55,-334.25 264.87,-292.88 245.48,-270.24"/>
<polygon fill="#63b8ff" stroke="#63b8ff" points="351.67,-373.1 362.11,-374.89 355.07,-366.98 351.67,-373.1"/>
</a>
</g>
</g>
<!-- Node7&#45;&gt;Node4 -->
<g id="edge7_Node000007_Node000004" class="edge">
<title>Node7&#45;&gt;Node4</title>
<g id="a_edge7_Node000007_Node000004"><a xlink:title=" ">
<path fill="none" stroke="#63b8ff" d="M178.1,-274.64C148.22,-286.52 111.93,-300.95 87.86,-310.52"/>
<polygon fill="#63b8ff" stroke="#63b8ff" points="179.37,-277.9 187.37,-270.95 176.79,-271.39 179.37,-277.9"/>
</a>
</g>
</g>
<!-- Node8&#45;&gt;Node7 -->
<g id="edge9_Node000008_Node000007" class="edge">
<title>Node8&#45;&gt;Node7</title>
<g id="a_edge9_Node000008_Node000007"><a xlink:title=" ">
<path fill="none" stroke="#63b8ff" d="M334.48,-284.48C318.93,-279.85 302.5,-274.97 287.46,-270.49"/>
<polygon fill="#63b8ff" stroke="#63b8ff" points="333.04,-287.7 343.62,-287.2 335.04,-280.99 333.04,-287.7"/>
</a>
</g>
</g>
<!-- Node9&#45;&gt;Node7 -->
<g id="edge11_Node000009_Node000007" class="edge">
<title>Node9&#45;&gt;Node7</title>
<g id="a_edge11_Node000009_Node000007"><a xlink:title=" ">
<path fill="none" stroke="#63b8ff" d="M330,-254C316.95,-254 303.44,-254 290.77,-254"/>
<polygon fill="#63b8ff" stroke="#63b8ff" points="329.81,-257.5 339.81,-254 329.81,-250.5 329.81,-257.5"/>
</a>
</g>
</g>
<!-- Node10&#45;&gt;Node7 -->
<g id="edge13_Node000010_Node000007" class="edge">
<title>Node10&#45;&gt;Node7</title>
<g id="a_edge13_Node000010_Node000007"><a xlink:title=" ">
<path fill="none" stroke="#63b8ff" d="M334.48,-223.52C318.93,-228.15 302.5,-233.03 287.46,-237.51"/>
<polygon fill="#63b8ff" stroke="#63b8ff" points="335.04,-227.01 343.62,-220.8 333.04,-220.3 335.04,-227.01"/>
</a>
</g>
</g>
<!-- Node11&#45;&gt;Node7 -->
<g id="edge15_Node000011_Node000007" class="edge">
<title>Node11&#45;&gt;Node7</title>
<g id="a_edge15_Node000011_Node000007"><a xlink:title=" ">
<path fill="none" stroke="#63b8ff" d="M348.12,-175.27C345.7,-176.49 343.31,-177.73 341,-179 308.77,-196.66 274.25,-221.54 252.89,-237.72"/>
<polygon fill="#63b8ff" stroke="#63b8ff" points="349.38,-178.55 356.9,-171.09 346.37,-172.23 349.38,-178.55"/>
</a>
</g>
</g>
<!-- Node12&#45;&gt;Node7 -->
<g id="edge17_Node000012_Node000007" class="edge">
<title>Node12&#45;&gt;Node7</title>
<g id="a_edge17_Node000012_Node000007"><a xlink:title=" ">
<path fill="none" stroke="#63b8ff" d="M345.18,-126.15C343.75,-127.07 342.35,-128.02 341,-129 297.86,-160.25 260.15,-211.61 242.55,-237.7"/>
<polygon fill="#63b8ff" stroke="#63b8ff" points="346.8,-129.25 353.72,-121.23 343.31,-123.19 346.8,-129.25"/>
</a>
</g>
</g>
<!-- Node13&#45;&gt;Node7 -->
<g id="edge19_Node000013_Node000007" class="edge">
<title>Node13&#45;&gt;Node7</title>
<g id="a_edge19_Node000013_Node000007"><a xlink:title=" ">
<path fill="none" stroke="#63b8ff" d="M343.88,-76.68C342.89,-77.43 341.93,-78.2 341,-79 287.38,-124.8 251.74,-203.74 238.16,-237.7"/>
<polygon fill="#63b8ff" stroke="#63b8ff" points="345.61,-79.73 352.05,-71.32 341.77,-73.88 345.61,-79.73"/>
</a>
</g>
</g>
<!-- Node15 -->
<g id="Node000015" class="node">
<title>Node15</title>
<g id="a_Node000015"><a xlink:href="src_2engine_2main_8cpp.html#a0ddf1224851353fc92bfbff6f499fa97" target="_top" xlink:title=" ">
<polygon fill="white" stroke="#666666" points="249.5,-20 212.5,-20 212.5,0 249.5,0 249.5,-20"/>
<text text-anchor="middle" x="231" y="-6.5" font-family="Helvetica,sans-Serif" font-size="10.00">main</text>
</a>
</g>
</g>
<!-- Node14&#45;&gt;Node15 -->
<g id="edge22_Node000014_Node000015" class="edge">
<title>Node14&#45;&gt;Node15</title>
<g id="a_edge22_Node000014_Node000015"><a xlink:title=" ">
<path fill="none" stroke="#63b8ff" d="M329.37,-10C300.15,-10 268.73,-10 249.72,-10"/>
<polygon fill="#63b8ff" stroke="#63b8ff" points="329.34,-13.5 339.34,-10 329.34,-6.5 329.34,-13.5"/>
</a>
</g>
</g>
</g>
</svg>
