<?xml version="1.0" encoding="UTF-8" standalone="no"?>
<!DOCTYPE svg PUBLIC "-//W3C//DTD SVG 1.1//EN"
 "http://www.w3.org/Graphics/SVG/1.1/DTD/svg11.dtd">
<!-- Generated by graphviz version 11.0.0 (20240428.1522)
 -->
<!-- Title: GLESC::Math::VectorAlgorithms::project Pages: 1 -->
<svg width="463pt" height="40pt"
 viewBox="0.00 0.00 462.50 40.00" xmlns="http://www.w3.org/2000/svg" xmlns:xlink="http://www.w3.org/1999/xlink">
<g id="graph0" class="graph" transform="scale(1 1) rotate(0) translate(4 36)">
<title>GLESC::Math::VectorAlgorithms::project</title>
<!-- Node1 -->
<g id="Node000001" class="node">
<title>Node1</title>
<g id="a_Node000001"><a xlink:title="Projects a vector onto another vector.">
<polygon fill="#999999" stroke="#666666" points="454.5,-32 296.75,-32 296.75,0 454.5,0 454.5,-32"/>
<text text-anchor="start" x="304.75" y="-18.5" font-family="Helvetica,sans-Serif" font-size="10.00">GLESC::Math::VectorAlgorithms</text>
<text text-anchor="middle" x="375.62" y="-6.5" font-family="Helvetica,sans-Serif" font-size="10.00">::project</text>
</a>
</g>
</g>
<!-- Node2 -->
<g id="Node000002" class="node">
<title>Node2</title>
<g id="a_Node000002"><a xlink:href="class_g_l_e_s_c_1_1_math_1_1_vector.html#afe0496b857816e05a61744e6a8c852bb" target="_top" xlink:title="Projects the vector onto another vector.">
<polygon fill="white" stroke="#666666" points="260.75,-32 149.5,-32 149.5,0 260.75,0 260.75,-32"/>
<text text-anchor="start" x="157.5" y="-18.5" font-family="Helvetica,sans-Serif" font-size="10.00">GLESC::Math::Vector</text>
<text text-anchor="middle" x="205.12" y="-6.5" font-family="Helvetica,sans-Serif" font-size="10.00">::project</text>
</a>
</g>
</g>
<!-- Node1&#45;&gt;Node2 -->
<g id="edge1_Node000001_Node000002" class="edge">
<title>Node1&#45;&gt;Node2</title>
<g id="a_edge1_Node000001_Node000002"><a xlink:title=" ">
<path fill="none" stroke="#63b8ff" d="M284.88,-16C276.82,-16 268.82,-16 261.19,-16"/>
<polygon fill="#63b8ff" stroke="#63b8ff" points="284.78,-19.5 294.78,-16 284.78,-12.5 284.78,-19.5"/>
</a>
</g>
</g>
<!-- Node3 -->
<g id="Node000003" class="node">
<title>Node3</title>
<g id="a_Node000003"><a xlink:href="class_g_l_e_s_c_1_1_math_1_1_sphere.html#af57e36ca525f974ffbf5bb25f041a3b0" target="_top" xlink:title="Checks if the figure intersects with the given line.">
<polygon fill="white" stroke="#666666" points="113.5,-32 0,-32 0,0 113.5,0 113.5,-32"/>
<text text-anchor="start" x="8" y="-18.5" font-family="Helvetica,sans-Serif" font-size="10.00">GLESC::Math::Sphere</text>
<text text-anchor="middle" x="56.75" y="-6.5" font-family="Helvetica,sans-Serif" font-size="10.00">::intersects</text>
</a>
</g>
</g>
<!-- Node2&#45;&gt;Node3 -->
<g id="edge2_Node000002_Node000003" class="edge">
<title>Node2&#45;&gt;Node3</title>
<g id="a_edge2_Node000002_Node000003"><a xlink:title=" ">
<path fill="none" stroke="#63b8ff" d="M137.7,-16C129.77,-16 121.73,-16 113.95,-16"/>
<polygon fill="#63b8ff" stroke="#63b8ff" points="137.69,-19.5 147.69,-16 137.69,-12.5 137.69,-19.5"/>
</a>
</g>
</g>
</g>
</svg>
