<?xml version="1.0" encoding="UTF-8" standalone="no"?>
<!DOCTYPE svg PUBLIC "-//W3C//DTD SVG 1.1//EN"
 "http://www.w3.org/Graphics/SVG/1.1/DTD/svg11.dtd">
<!-- Generated by graphviz version 11.0.0 (20240428.1522)
 -->
<!-- Title: GLESC::Render::Fog Pages: 1 -->
<!--zoomable 832 -->

<svg id="main" version="1.1" xmlns="http://www.w3.org/2000/svg" xmlns:xlink="http://www.w3.org/1999/xlink" xml:space="preserve" onload="init(evt)">
<style type="text/css"><![CDATA[
.node, .edge {opacity: 0.7;}
.node.selected, .edge.selected {opacity: 1;}
.edge:hover path { stroke: red; }
.edge:hover polygon { stroke: red; fill: red; }
]]></style>

<defs>
  <circle id="rim" cx="0" cy="0" r="7"/>
  <circle id="rim2" cx="0" cy="0" r="3.5"/>
  <g id="zoomPlus">
    <use xlink:href="#rim" fill="#404040"><set attributeName="fill" to="#808080" begin="zoomplus.mouseover" end="zoomplus.mouseout"/></use>
    <path d="M-4,0h8M0,-4v8" fill="none" stroke="white" stroke-width="1.5" pointer-events="none"/>
  </g>
  <g id="zoomMin">
    <use xlink:href="#rim" fill="#404040"><set attributeName="fill" to="#808080" begin="zoomminus.mouseover" end="zoomminus.mouseout"/></use>
    <path d="M-4,0h8" fill="none" stroke="white" stroke-width="1.5" pointer-events="none"/>
  </g>
  <g id="arrowUp" transform="translate(30 24)">
    <use xlink:href="#rim"/>
    <path pointer-events="none" fill="none" stroke="white" stroke-width="1.5" d="M0,-3.0v7 M-2.5,-0.5L0,-3.0L2.5,-0.5"/>
  </g>
  <g id="arrowRight" transform="rotate(90) translate(36 -43)">
    <use xlink:href="#rim"/>
    <path pointer-events="none" fill="none" stroke="white" stroke-width="1.5" d="M0,-3.0v7 M-2.5,-0.5L0,-3.0L2.5,-0.5"/>
  </g>
  <g id="arrowDown" transform="rotate(180) translate(-30 -48)">
    <use xlink:href="#rim"/>
    <path pointer-events="none" fill="none" stroke="white" stroke-width="1.5" d="M0,-3.0v7 M-2.5,-0.5L0,-3.0L2.5,-0.5"/>
  </g>
  <g id="arrowLeft" transform="rotate(270) translate(-36 17)">
    <use xlink:href="#rim"/>
    <path pointer-events="none" fill="none" stroke="white" stroke-width="1.5" d="M0,-3.0v7 M-2.5,-0.5L0,-3.0L2.5,-0.5"/>
  </g>
  <g id="resetDef">
    <use xlink:href="#rim2" fill="#404040"><set attributeName="fill" to="#808080" begin="reset.mouseover" end="reset.mouseout"/></use>
  </g>
</defs>
<script type="application/ecmascript">
var viewWidth = 345;
var viewHeight = 832;
var sectionId = 'dynsection-0';
</script>
<script type="application/ecmascript" xlink:href="svg.min.js"/>
<svg id="graph" class="graph">
<g id="viewport">
<title>GLESC::Render::Fog</title>
<!-- Node1 -->
<g id="Node000001" class="node">
<title>Node1</title>
<g id="a_Node000001"><a xlink:title=" ">
<polygon fill="#999999" stroke="none" points="187.5,-180 74.5,-180 74.5,0 187.5,0 187.5,-180"/>
<text text-anchor="start" x="84.88" y="-166.5" font-family="Helvetica,sans-Serif" font-size="10.00">GLESC::Render::Fog</text>
<text text-anchor="start" x="80" y="-150.5" font-family="Helvetica,sans-Serif" font-size="10.00">&#45;</text>
<text text-anchor="start" x="88.5" y="-150.5" font-family="Helvetica,sans-Serif" font-size="10.00">end</text>
<text text-anchor="start" x="78.5" y="-134.5" font-family="Helvetica,sans-Serif" font-size="10.00">+</text>
<text text-anchor="start" x="88.5" y="-134.5" font-family="Helvetica,sans-Serif" font-size="10.00">Fog()</text>
<text text-anchor="start" x="78.5" y="-118.5" font-family="Helvetica,sans-Serif" font-size="10.00">+</text>
<text text-anchor="start" x="88.5" y="-118.5" font-family="Helvetica,sans-Serif" font-size="10.00">getColor()</text>
<text text-anchor="start" x="78.5" y="-102.5" font-family="Helvetica,sans-Serif" font-size="10.00">+</text>
<text text-anchor="start" x="88.5" y="-102.5" font-family="Helvetica,sans-Serif" font-size="10.00">getDebuggingValues()</text>
<text text-anchor="start" x="78.5" y="-86.5" font-family="Helvetica,sans-Serif" font-size="10.00">+</text>
<text text-anchor="start" x="88.5" y="-86.5" font-family="Helvetica,sans-Serif" font-size="10.00">getDensity()</text>
<text text-anchor="start" x="78.5" y="-70.5" font-family="Helvetica,sans-Serif" font-size="10.00">+</text>
<text text-anchor="start" x="88.5" y="-70.5" font-family="Helvetica,sans-Serif" font-size="10.00">getEnd()</text>
<text text-anchor="start" x="78.5" y="-54.5" font-family="Helvetica,sans-Serif" font-size="10.00">+</text>
<text text-anchor="start" x="88.5" y="-54.5" font-family="Helvetica,sans-Serif" font-size="10.00">setColor()</text>
<text text-anchor="start" x="78.5" y="-38.5" font-family="Helvetica,sans-Serif" font-size="10.00">+</text>
<text text-anchor="start" x="88.5" y="-38.5" font-family="Helvetica,sans-Serif" font-size="10.00">setDensity()</text>
<text text-anchor="start" x="78.5" y="-22.5" font-family="Helvetica,sans-Serif" font-size="10.00">+</text>
<text text-anchor="start" x="88.5" y="-22.5" font-family="Helvetica,sans-Serif" font-size="10.00">setEnd()</text>
<text text-anchor="start" x="78.5" y="-6.5" font-family="Helvetica,sans-Serif" font-size="10.00">+</text>
<text text-anchor="start" x="88.5" y="-6.5" font-family="Helvetica,sans-Serif" font-size="10.00">toString()</text>
<polygon fill="#666666" stroke="#666666" points="74.5,-162 74.5,-162 187.5,-162 187.5,-162 74.5,-162"/>
<polygon fill="#666666" stroke="#666666" points="74.5,-146 74.5,-146 86.5,-146 86.5,-146 74.5,-146"/>
<polygon fill="#666666" stroke="#666666" points="86.5,-146 86.5,-146 187.5,-146 187.5,-146 86.5,-146"/>
<polygon fill="none" stroke="#666666" points="74.5,0 74.5,-180 187.5,-180 187.5,0 74.5,0"/>
</a>
</g>
</g>
<!-- Node2 -->
<g id="Node000002" class="node">
<title>Node2</title>
<g id="a_Node000002"><a xlink:href="class_g_l_e_s_c_1_1_render_1_1_intensity.html" target="_top" xlink:title=" ">
<polygon fill="white" stroke="none" points="122,-502 0,-502 0,-278 122,-278 122,-502"/>
<text text-anchor="start" x="4.75" y="-488.5" font-family="Helvetica,sans-Serif" font-size="10.00">GLESC::Render::Intensity</text>
<text text-anchor="start" x="43" y="-476.5" font-family="Helvetica,sans-Serif" font-size="10.00">&lt; float &gt;</text>
<text text-anchor="start" x="15.5" y="-460.5" font-family="Helvetica,sans-Serif" font-size="10.00">&#45;</text>
<text text-anchor="start" x="34" y="-460.5" font-family="Helvetica,sans-Serif" font-size="10.00">intensity</text>
<text text-anchor="start" x="14" y="-444.5" font-family="Helvetica,sans-Serif" font-size="10.00">+</text>
<text text-anchor="start" x="34" y="-444.5" font-family="Helvetica,sans-Serif" font-size="10.00">Intensity()</text>
<text text-anchor="start" x="14" y="-428.5" font-family="Helvetica,sans-Serif" font-size="10.00">+</text>
<text text-anchor="start" x="34" y="-428.5" font-family="Helvetica,sans-Serif" font-size="10.00">Intensity()</text>
<text text-anchor="start" x="14" y="-412.5" font-family="Helvetica,sans-Serif" font-size="10.00">+</text>
<text text-anchor="start" x="34" y="-412.5" font-family="Helvetica,sans-Serif" font-size="10.00">Intensity()</text>
<text text-anchor="start" x="14" y="-396.5" font-family="Helvetica,sans-Serif" font-size="10.00">+</text>
<text text-anchor="start" x="34" y="-396.5" font-family="Helvetica,sans-Serif" font-size="10.00">Intensity()</text>
<text text-anchor="start" x="14" y="-380.5" font-family="Helvetica,sans-Serif" font-size="10.00">+</text>
<text text-anchor="start" x="34" y="-380.5" font-family="Helvetica,sans-Serif" font-size="10.00">~Intensity()</text>
<text text-anchor="start" x="14" y="-364.5" font-family="Helvetica,sans-Serif" font-size="10.00">+</text>
<text text-anchor="start" x="34" y="-364.5" font-family="Helvetica,sans-Serif" font-size="10.00">get()</text>
<text text-anchor="start" x="14" y="-348.5" font-family="Helvetica,sans-Serif" font-size="10.00">+</text>
<text text-anchor="start" x="34" y="-348.5" font-family="Helvetica,sans-Serif" font-size="10.00">getModifiable()</text>
<text text-anchor="start" x="14" y="-332.5" font-family="Helvetica,sans-Serif" font-size="10.00">+</text>
<text text-anchor="start" x="34" y="-332.5" font-family="Helvetica,sans-Serif" font-size="10.00">operator*()</text>
<text text-anchor="start" x="14" y="-316.5" font-family="Helvetica,sans-Serif" font-size="10.00">+</text>
<text text-anchor="start" x="34" y="-316.5" font-family="Helvetica,sans-Serif" font-size="10.00">operator+()</text>
<text text-anchor="start" x="14" y="-300.5" font-family="Helvetica,sans-Serif" font-size="10.00">+</text>
<text text-anchor="start" x="34" y="-300.5" font-family="Helvetica,sans-Serif" font-size="10.00">operator&#45;()</text>
<text text-anchor="start" x="34" y="-284.5" font-family="Helvetica,sans-Serif" font-size="10.00">and 9 more...</text>
<polygon fill="#666666" stroke="#666666" points="0,-472 0,-472 122,-472 122,-472 0,-472"/>
<polygon fill="#666666" stroke="#666666" points="0,-456 0,-456 32,-456 32,-456 0,-456"/>
<polygon fill="#666666" stroke="#666666" points="32,-456 32,-456 122,-456 122,-456 32,-456"/>
<polygon fill="none" stroke="#666666" points="0,-278 0,-502 122,-502 122,-278 0,-278"/>
</a>
</g>
</g>
<!-- Node2&#45;&gt;Node1 -->
<g id="edge1_Node000001_Node000002" class="edge">
<title>Node2&#45;&gt;Node1</title>
<g id="a_edge1_Node000001_Node000002"><a xlink:title=" ">
<path fill="none" stroke="#63b8ff" d="M87.07,-278.04C93.67,-249.91 100.73,-219.85 107.22,-192.23"/>
<polygon fill="none" stroke="#63b8ff" points="107.21,-192.29 104.69,-185.53 109.95,-180.61 112.47,-187.36 107.21,-192.29"/>
</a>
</g>
<text text-anchor="middle" x="123.75" y="-200.5" font-family="Helvetica,sans-Serif" font-size="10.00" fill="grey"> &#45;density</text>
</g>
<!-- Node3 -->
<g id="Node000003" class="node">
<title>Node3</title>
<g id="a_Node000003"><a xlink:href="class_g_l_e_s_c_1_1_render_1_1_intensity.html" target="_top" xlink:title="Intensity class, to encapsulate values between 0 and 1.">
<polygon fill="white" stroke="none" points="122,-824 0,-824 0,-600 122,-600 122,-824"/>
<text text-anchor="start" x="4.75" y="-810.5" font-family="Helvetica,sans-Serif" font-size="10.00">GLESC::Render::Intensity</text>
<text text-anchor="start" x="23.12" y="-798.5" font-family="Helvetica,sans-Serif" font-size="10.00">&lt; IntensityType &gt;</text>
<text text-anchor="start" x="15.5" y="-782.5" font-family="Helvetica,sans-Serif" font-size="10.00">&#45;</text>
<text text-anchor="start" x="34" y="-782.5" font-family="Helvetica,sans-Serif" font-size="10.00">intensity</text>
<text text-anchor="start" x="14" y="-766.5" font-family="Helvetica,sans-Serif" font-size="10.00">+</text>
<text text-anchor="start" x="34" y="-766.5" font-family="Helvetica,sans-Serif" font-size="10.00">Intensity()</text>
<text text-anchor="start" x="14" y="-750.5" font-family="Helvetica,sans-Serif" font-size="10.00">+</text>
<text text-anchor="start" x="34" y="-750.5" font-family="Helvetica,sans-Serif" font-size="10.00">Intensity()</text>
<text text-anchor="start" x="14" y="-734.5" font-family="Helvetica,sans-Serif" font-size="10.00">+</text>
<text text-anchor="start" x="34" y="-734.5" font-family="Helvetica,sans-Serif" font-size="10.00">Intensity()</text>
<text text-anchor="start" x="14" y="-718.5" font-family="Helvetica,sans-Serif" font-size="10.00">+</text>
<text text-anchor="start" x="34" y="-718.5" font-family="Helvetica,sans-Serif" font-size="10.00">Intensity()</text>
<text text-anchor="start" x="14" y="-702.5" font-family="Helvetica,sans-Serif" font-size="10.00">+</text>
<text text-anchor="start" x="34" y="-702.5" font-family="Helvetica,sans-Serif" font-size="10.00">~Intensity()</text>
<text text-anchor="start" x="14" y="-686.5" font-family="Helvetica,sans-Serif" font-size="10.00">+</text>
<text text-anchor="start" x="34" y="-686.5" font-family="Helvetica,sans-Serif" font-size="10.00">get()</text>
<text text-anchor="start" x="14" y="-670.5" font-family="Helvetica,sans-Serif" font-size="10.00">+</text>
<text text-anchor="start" x="34" y="-670.5" font-family="Helvetica,sans-Serif" font-size="10.00">getModifiable()</text>
<text text-anchor="start" x="14" y="-654.5" font-family="Helvetica,sans-Serif" font-size="10.00">+</text>
<text text-anchor="start" x="34" y="-654.5" font-family="Helvetica,sans-Serif" font-size="10.00">operator*()</text>
<text text-anchor="start" x="14" y="-638.5" font-family="Helvetica,sans-Serif" font-size="10.00">+</text>
<text text-anchor="start" x="34" y="-638.5" font-family="Helvetica,sans-Serif" font-size="10.00">operator+()</text>
<text text-anchor="start" x="14" y="-622.5" font-family="Helvetica,sans-Serif" font-size="10.00">+</text>
<text text-anchor="start" x="34" y="-622.5" font-family="Helvetica,sans-Serif" font-size="10.00">operator&#45;()</text>
<text text-anchor="start" x="34" y="-606.5" font-family="Helvetica,sans-Serif" font-size="10.00">and 9 more...</text>
<polygon fill="#666666" stroke="#666666" points="0,-794 0,-794 122,-794 122,-794 0,-794"/>
<polygon fill="#666666" stroke="#666666" points="0,-778 0,-778 32,-778 32,-778 0,-778"/>
<polygon fill="#666666" stroke="#666666" points="32,-778 32,-778 122,-778 122,-778 32,-778"/>
<polygon fill="none" stroke="#666666" points="0,-600 0,-824 122,-824 122,-600 0,-600"/>
</a>
</g>
</g>
<!-- Node3&#45;&gt;Node2 -->
<g id="edge2_Node000002_Node000003" class="edge">
<title>Node3&#45;&gt;Node2</title>
<g id="a_edge2_Node000002_Node000003"><a xlink:title=" ">
<path fill="none" stroke="orange" d="M61,-589.11C61,-560.43 61,-530.01 61,-501.85"/>
<polygon fill="orange" stroke="orange" points="57.5,-588.91 61,-598.91 64.5,-588.91 57.5,-588.91"/>
</a>
</g>
<text text-anchor="middle" x="80.5" y="-572.5" font-family="Helvetica,sans-Serif" font-size="10.00" fill="grey"> &lt; float &gt;</text>
</g>
<!-- Node4 -->
<g id="Node000004" class="node">
<title>Node4</title>
<g id="a_Node000004"><a xlink:href="struct_g_l_e_s_c_1_1_render_1_1_color_rgb.html" target="_top" xlink:title="Color in RGB values.">
<polygon fill="white" stroke="none" points="265.5,-552 140.5,-552 140.5,-228 265.5,-228 265.5,-552"/>
<text text-anchor="start" x="145.25" y="-538.5" font-family="Helvetica,sans-Serif" font-size="10.00">GLESC::Render::ColorRgb</text>
<text text-anchor="start" x="152.5" y="-522.5" font-family="Helvetica,sans-Serif" font-size="10.00">+</text>
<text text-anchor="start" x="170.5" y="-522.5" font-family="Helvetica,sans-Serif" font-size="10.00">LightGrey</text>
<text text-anchor="start" x="152.5" y="-506.5" font-family="Helvetica,sans-Serif" font-size="10.00">+</text>
<text text-anchor="start" x="170.5" y="-506.5" font-family="Helvetica,sans-Serif" font-size="10.00">Magenta</text>
<text text-anchor="start" x="152.5" y="-490.5" font-family="Helvetica,sans-Serif" font-size="10.00">+</text>
<text text-anchor="start" x="170.5" y="-490.5" font-family="Helvetica,sans-Serif" font-size="10.00">Orange</text>
<text text-anchor="start" x="152.5" y="-474.5" font-family="Helvetica,sans-Serif" font-size="10.00">+</text>
<text text-anchor="start" x="170.5" y="-474.5" font-family="Helvetica,sans-Serif" font-size="10.00">Pink</text>
<text text-anchor="start" x="152.5" y="-458.5" font-family="Helvetica,sans-Serif" font-size="10.00">+</text>
<text text-anchor="start" x="170.5" y="-458.5" font-family="Helvetica,sans-Serif" font-size="10.00">Purple</text>
<text text-anchor="start" x="152.5" y="-442.5" font-family="Helvetica,sans-Serif" font-size="10.00">+</text>
<text text-anchor="start" x="170.5" y="-442.5" font-family="Helvetica,sans-Serif" font-size="10.00">Red</text>
<text text-anchor="start" x="152.5" y="-426.5" font-family="Helvetica,sans-Serif" font-size="10.00">+</text>
<text text-anchor="start" x="170.5" y="-426.5" font-family="Helvetica,sans-Serif" font-size="10.00">White</text>
<text text-anchor="start" x="152.5" y="-410.5" font-family="Helvetica,sans-Serif" font-size="10.00">+</text>
<text text-anchor="start" x="170.5" y="-410.5" font-family="Helvetica,sans-Serif" font-size="10.00">Yellow</text>
<text text-anchor="start" x="152.5" y="-394.5" font-family="Helvetica,sans-Serif" font-size="10.00">+</text>
<text text-anchor="start" x="170.5" y="-394.5" font-family="Helvetica,sans-Serif" font-size="10.00">ColorRgb()</text>
<text text-anchor="start" x="152.5" y="-378.5" font-family="Helvetica,sans-Serif" font-size="10.00">+</text>
<text text-anchor="start" x="170.5" y="-378.5" font-family="Helvetica,sans-Serif" font-size="10.00">ColorRgb()</text>
<text text-anchor="start" x="152.5" y="-362.5" font-family="Helvetica,sans-Serif" font-size="10.00">+</text>
<text text-anchor="start" x="170.5" y="-362.5" font-family="Helvetica,sans-Serif" font-size="10.00">ColorRgb()</text>
<text text-anchor="start" x="152.5" y="-346.5" font-family="Helvetica,sans-Serif" font-size="10.00">+</text>
<text text-anchor="start" x="170.5" y="-346.5" font-family="Helvetica,sans-Serif" font-size="10.00">ColorRgb()</text>
<text text-anchor="start" x="152.5" y="-330.5" font-family="Helvetica,sans-Serif" font-size="10.00">+</text>
<text text-anchor="start" x="170.5" y="-330.5" font-family="Helvetica,sans-Serif" font-size="10.00">ColorRgb()</text>
<text text-anchor="start" x="152.5" y="-314.5" font-family="Helvetica,sans-Serif" font-size="10.00">+</text>
<text text-anchor="start" x="170.5" y="-314.5" font-family="Helvetica,sans-Serif" font-size="10.00">ColorRgb()</text>
<text text-anchor="start" x="152.5" y="-298.5" font-family="Helvetica,sans-Serif" font-size="10.00">+</text>
<text text-anchor="start" x="170.5" y="-298.5" font-family="Helvetica,sans-Serif" font-size="10.00">~ColorRgb()</text>
<text text-anchor="start" x="152.5" y="-282.5" font-family="Helvetica,sans-Serif" font-size="10.00">+</text>
<text text-anchor="start" x="170.5" y="-282.5" font-family="Helvetica,sans-Serif" font-size="10.00">getB()</text>
<text text-anchor="start" x="152.5" y="-266.5" font-family="Helvetica,sans-Serif" font-size="10.00">+</text>
<text text-anchor="start" x="170.5" y="-266.5" font-family="Helvetica,sans-Serif" font-size="10.00">getBNormalized()</text>
<text text-anchor="start" x="152.5" y="-250.5" font-family="Helvetica,sans-Serif" font-size="10.00">+</text>
<text text-anchor="start" x="170.5" y="-250.5" font-family="Helvetica,sans-Serif" font-size="10.00">getG()</text>
<text text-anchor="start" x="170.5" y="-234.5" font-family="Helvetica,sans-Serif" font-size="10.00">and 10 more...</text>
<polygon fill="#666666" stroke="#666666" points="140.5,-534 140.5,-534 265.5,-534 265.5,-534 140.5,-534"/>
<polygon fill="#666666" stroke="#666666" points="140.5,-406 140.5,-406 168.5,-406 168.5,-406 140.5,-406"/>
<polygon fill="#666666" stroke="#666666" points="168.5,-406 168.5,-406 265.5,-406 265.5,-406 168.5,-406"/>
<polygon fill="none" stroke="#666666" points="140.5,-228 140.5,-552 265.5,-552 265.5,-228 140.5,-228"/>
</a>
</g>
</g>
<!-- Node4&#45;&gt;Node1 -->
<g id="edge3_Node000001_Node000004" class="edge">
<title>Node4&#45;&gt;Node1</title>
<g id="a_edge3_Node000001_Node000004"><a xlink:title=" ">
<path fill="none" stroke="#63b8ff" d="M164.15,-228.22C161.2,-216.01 158.28,-203.9 155.46,-192.23"/>
<polygon fill="none" stroke="#63b8ff" points="155.47,-192.3 150.18,-187.4 152.66,-180.63 157.95,-185.53 155.47,-192.3"/>
</a>
</g>
<text text-anchor="middle" x="171.5" y="-200.5" font-family="Helvetica,sans-Serif" font-size="10.00" fill="grey"> &#45;color</text>
</g>
<!-- Node4&#45;&gt;Node4 -->
<g id="edge5_Node000004_Node000004" class="edge">
<title>Node4&#45;&gt;Node4</title>
<g id="a_edge5_Node000004_Node000004"><a xlink:title=" ">
<path fill="none" stroke="#63b8ff" d="M265.44,-422.56C276.11,-418.11 283.5,-407.26 283.5,-390 283.5,-379.22 280.61,-370.93 275.84,-365.15"/>
<polygon fill="none" stroke="#63b8ff" points="275.81,-365.12 268.61,-364.77 266.17,-357.98 273.37,-358.34 275.81,-365.12"/>
</a>
</g>
<text text-anchor="middle" x="310.12" y="-446.5" font-family="Helvetica,sans-Serif" font-size="10.00" fill="grey"> +Black</text>
<text text-anchor="middle" x="310.12" y="-434.5" font-family="Helvetica,sans-Serif" font-size="10.00" fill="grey">+Blue</text>
<text text-anchor="middle" x="310.12" y="-422.5" font-family="Helvetica,sans-Serif" font-size="10.00" fill="grey">+Brown</text>
<text text-anchor="middle" x="310.12" y="-410.5" font-family="Helvetica,sans-Serif" font-size="10.00" fill="grey">+ClearSkin</text>
<text text-anchor="middle" x="310.12" y="-398.5" font-family="Helvetica,sans-Serif" font-size="10.00" fill="grey">+Cyan</text>
<text text-anchor="middle" x="310.12" y="-386.5" font-family="Helvetica,sans-Serif" font-size="10.00" fill="grey">+DarkBrown</text>
<text text-anchor="middle" x="310.12" y="-374.5" font-family="Helvetica,sans-Serif" font-size="10.00" fill="grey">+DarkGreen</text>
<text text-anchor="middle" x="310.12" y="-362.5" font-family="Helvetica,sans-Serif" font-size="10.00" fill="grey">+DarkGrey</text>
<text text-anchor="middle" x="310.12" y="-350.5" font-family="Helvetica,sans-Serif" font-size="10.00" fill="grey">+Green</text>
<text text-anchor="middle" x="310.12" y="-338.5" font-family="Helvetica,sans-Serif" font-size="10.00" fill="grey">+Grey</text>
<text text-anchor="middle" x="310.12" y="-326.5" font-family="Helvetica,sans-Serif" font-size="10.00" fill="grey">...</text>
</g>
<!-- Node5 -->
<g id="Node000005" class="node">
<title>Node5</title>
<g id="a_Node000005"><a xlink:href="class_g_l_e_s_c_1_1_math_1_1_vector.html" target="_top" xlink:title=" ">
<polygon fill="white" stroke="none" points="243.5,-818 162.5,-818 162.5,-606 243.5,-606 243.5,-818"/>
<text text-anchor="start" x="188.75" y="-804.5" font-family="Helvetica,sans-Serif" font-size="10.00">Vec3F</text>
<text text-anchor="start" x="166.5" y="-788.5" font-family="Helvetica,sans-Serif" font-size="10.00">+</text>
<text text-anchor="start" x="176.5" y="-788.5" font-family="Helvetica,sans-Serif" font-size="10.00">data</text>
<text text-anchor="start" x="166.5" y="-772.5" font-family="Helvetica,sans-Serif" font-size="10.00">+</text>
<text text-anchor="start" x="176.5" y="-772.5" font-family="Helvetica,sans-Serif" font-size="10.00">Vector()</text>
<text text-anchor="start" x="166.5" y="-756.5" font-family="Helvetica,sans-Serif" font-size="10.00">+</text>
<text text-anchor="start" x="176.5" y="-756.5" font-family="Helvetica,sans-Serif" font-size="10.00">Vector()</text>
<text text-anchor="start" x="166.5" y="-740.5" font-family="Helvetica,sans-Serif" font-size="10.00">+</text>
<text text-anchor="start" x="176.5" y="-740.5" font-family="Helvetica,sans-Serif" font-size="10.00">Vector()</text>
<text text-anchor="start" x="166.5" y="-724.5" font-family="Helvetica,sans-Serif" font-size="10.00">+</text>
<text text-anchor="start" x="176.5" y="-724.5" font-family="Helvetica,sans-Serif" font-size="10.00">Vector()</text>
<text text-anchor="start" x="166.5" y="-708.5" font-family="Helvetica,sans-Serif" font-size="10.00">+</text>
<text text-anchor="start" x="176.5" y="-708.5" font-family="Helvetica,sans-Serif" font-size="10.00">Vector()</text>
<text text-anchor="start" x="166.5" y="-692.5" font-family="Helvetica,sans-Serif" font-size="10.00">+</text>
<text text-anchor="start" x="176.5" y="-692.5" font-family="Helvetica,sans-Serif" font-size="10.00">Vector()</text>
<text text-anchor="start" x="166.5" y="-676.5" font-family="Helvetica,sans-Serif" font-size="10.00">+</text>
<text text-anchor="start" x="176.5" y="-676.5" font-family="Helvetica,sans-Serif" font-size="10.00">Vector()</text>
<text text-anchor="start" x="166.5" y="-660.5" font-family="Helvetica,sans-Serif" font-size="10.00">+</text>
<text text-anchor="start" x="176.5" y="-660.5" font-family="Helvetica,sans-Serif" font-size="10.00">Vector()</text>
<text text-anchor="start" x="166.5" y="-644.5" font-family="Helvetica,sans-Serif" font-size="10.00">+</text>
<text text-anchor="start" x="176.5" y="-644.5" font-family="Helvetica,sans-Serif" font-size="10.00">Vector()</text>
<text text-anchor="start" x="166.5" y="-628.5" font-family="Helvetica,sans-Serif" font-size="10.00">+</text>
<text text-anchor="start" x="176.5" y="-628.5" font-family="Helvetica,sans-Serif" font-size="10.00">Vector()</text>
<text text-anchor="start" x="176.5" y="-612.5" font-family="Helvetica,sans-Serif" font-size="10.00">and 90 more...</text>
<polygon fill="#666666" stroke="#666666" points="162.5,-800 162.5,-800 243.5,-800 243.5,-800 162.5,-800"/>
<polygon fill="#666666" stroke="#666666" points="162.5,-784 162.5,-784 174.5,-784 174.5,-784 162.5,-784"/>
<polygon fill="#666666" stroke="#666666" points="174.5,-784 174.5,-784 243.5,-784 243.5,-784 174.5,-784"/>
<polygon fill="none" stroke="#666666" points="162.5,-606 162.5,-818 243.5,-818 243.5,-606 162.5,-606"/>
</a>
</g>
</g>
<!-- Node5&#45;&gt;Node4 -->
<g id="edge4_Node000004_Node000005" class="edge">
<title>Node5&#45;&gt;Node4</title>
<g id="a_edge4_Node000004_Node000005"><a xlink:title=" ">
<path fill="none" stroke="#63b8ff" d="M203,-595.08C203,-581.05 203,-566.53 203,-551.99"/>
<polygon fill="none" stroke="#63b8ff" points="199.5,-594.71 203,-604.71 206.5,-594.71 199.5,-594.71"/>
</a>
</g>
</g>
</g>
</svg>

<g id="navigator" transform="translate(0 0)" fill="#404254">
  <rect fill="#f2f5e9" fill-opacity="0.5" stroke="#606060" stroke-width=".5" x="0" y="0" width="60" height="60"/>
  <use id="zoomplus" xlink:href="#zoomPlus" x="17" y="9" onmousedown="handleZoom(evt,'in')"/>
  <use id="zoomminus" xlink:href="#zoomMin" x="42" y="9" onmousedown="handleZoom(evt,'out')"/>
  <use id="reset" xlink:href="#resetDef" x="30" y="36" onmousedown="handleReset()"/>
   <use id="arrowup" xlink:href="#arrowUp" x="0" y="0" onmousedown="handlePan(0,-1)"/>
  <use id="arrowright" xlink:href="#arrowRight" x="0" y="0" onmousedown="handlePan(1,0)"/>
  <use id="arrowdown" xlink:href="#arrowDown" x="0" y="0" onmousedown="handlePan(0,1)"/>
  <use id="arrowleft" xlink:href="#arrowLeft" x="0" y="0" onmousedown="handlePan(-1,0)"/>
</g>
<svg viewBox="0 0 15 15" width="100%" height="30px" preserveAspectRatio="xMaxYMin meet">
 <g id="arrow_out" transform="scale(0.3 0.3)">
  <a xlink:href="class_g_l_e_s_c_1_1_render_1_1_fog__coll__graph_org.svg" target="_base">
   <rect id="button" ry="5" rx="5" y="6" x="6" height="38" width="38"
        fill="#f2f5e9" fill-opacity="0.5" stroke="#606060" stroke-width="1.0"/>
   <path id="arrow"
     d="M 11.500037,31.436501 C 11.940474,20.09759 22.043105,11.32322 32.158766,21.979434 L 37.068811,17.246167 C 37.068811,17.246167 37.088388,32 37.088388,32 L 22.160133,31.978069 C 22.160133,31.978069 26.997745,27.140456 26.997745,27.140456 C 18.528582,18.264221 13.291696,25.230495 11.500037,31.436501 z"
     style="fill:#404040;"/>
  </a>
 </g>
</svg>

<style type='text/css'>
<![CDATA[
[data-mouse-over-selected='false'] { opacity: 0.7; }
[data-mouse-over-selected='true']  { opacity: 1.0; }
]]>
</style>
<script type="application/ecmascript"><![CDATA[
document.addEventListener('DOMContentLoaded', (event) => {
  highlightEdges();
  highlightAdjacentNodes();
});
]]></script>
</svg>
