<?xml version="1.0" encoding="UTF-8" standalone="no"?>
<!DOCTYPE svg PUBLIC "-//W3C//DTD SVG 1.1//EN"
 "http://www.w3.org/Graphics/SVG/1.1/DTD/svg11.dtd">
<!-- Generated by graphviz version 11.0.0 (20240428.1522)
 -->
<!-- Title: GLESC::Math::VectorAlgorithms Pages: 1 -->
<svg width="159pt" height="220pt"
 viewBox="0.00 0.00 159.00 220.00" xmlns="http://www.w3.org/2000/svg" xmlns:xlink="http://www.w3.org/1999/xlink">
<g id="graph0" class="graph" transform="scale(1 1) rotate(0) translate(4 216)">
<title>GLESC::Math::VectorAlgorithms</title>
<!-- Node1 -->
<g id="Node000001" class="node">
<title>Node1</title>
<g id="a_Node000001"><a xlink:title=" ">
<polygon fill="#999999" stroke="none" points="151,-212 0,-212 0,0 151,0 151,-212"/>
<text text-anchor="start" x="4.62" y="-198.5" font-family="Helvetica,sans-Serif" font-size="10.00">GLESC::Math::VectorAlgorithms</text>
<text text-anchor="start" x="74" y="-182.5" font-family="Helvetica,sans-Serif" font-size="10.00"> </text>
<text text-anchor="start" x="15.5" y="-166.5" font-family="Helvetica,sans-Serif" font-size="10.00">+</text>
<text text-anchor="start" x="37" y="-166.5" font-family="Helvetica,sans-Serif" font-size="10.00">abs()</text>
<text text-anchor="start" x="15.5" y="-150.5" font-family="Helvetica,sans-Serif" font-size="10.00">+</text>
<text text-anchor="start" x="37" y="-150.5" font-family="Helvetica,sans-Serif" font-size="10.00">angle()</text>
<text text-anchor="start" x="15.5" y="-134.5" font-family="Helvetica,sans-Serif" font-size="10.00">+</text>
<text text-anchor="start" x="37" y="-134.5" font-family="Helvetica,sans-Serif" font-size="10.00">areOrthogonal()</text>
<text text-anchor="start" x="15.5" y="-118.5" font-family="Helvetica,sans-Serif" font-size="10.00">+</text>
<text text-anchor="start" x="37" y="-118.5" font-family="Helvetica,sans-Serif" font-size="10.00">areParallel()</text>
<text text-anchor="start" x="15.5" y="-102.5" font-family="Helvetica,sans-Serif" font-size="10.00">+</text>
<text text-anchor="start" x="37" y="-102.5" font-family="Helvetica,sans-Serif" font-size="10.00">clampWithValues()</text>
<text text-anchor="start" x="15.5" y="-86.5" font-family="Helvetica,sans-Serif" font-size="10.00">+</text>
<text text-anchor="start" x="37" y="-86.5" font-family="Helvetica,sans-Serif" font-size="10.00">clampWithVectors()</text>
<text text-anchor="start" x="15.5" y="-70.5" font-family="Helvetica,sans-Serif" font-size="10.00">+</text>
<text text-anchor="start" x="37" y="-70.5" font-family="Helvetica,sans-Serif" font-size="10.00">crossProduct()</text>
<text text-anchor="start" x="15.5" y="-54.5" font-family="Helvetica,sans-Serif" font-size="10.00">+</text>
<text text-anchor="start" x="37" y="-54.5" font-family="Helvetica,sans-Serif" font-size="10.00">dehomogenize()</text>
<text text-anchor="start" x="15.5" y="-38.5" font-family="Helvetica,sans-Serif" font-size="10.00">+</text>
<text text-anchor="start" x="37" y="-38.5" font-family="Helvetica,sans-Serif" font-size="10.00">distance()</text>
<text text-anchor="start" x="15.5" y="-22.5" font-family="Helvetica,sans-Serif" font-size="10.00">+</text>
<text text-anchor="start" x="37" y="-22.5" font-family="Helvetica,sans-Serif" font-size="10.00">distanceSquared()</text>
<text text-anchor="start" x="37" y="-6.5" font-family="Helvetica,sans-Serif" font-size="10.00">and 39 more...</text>
<polygon fill="#666666" stroke="#666666" points="0,-194 0,-194 151,-194 151,-194 0,-194"/>
<polygon fill="#666666" stroke="#666666" points="0,-178 0,-178 151,-178 151,-178 0,-178"/>
<polygon fill="none" stroke="#666666" points="0,0 0,-212 151,-212 151,0 0,0"/>
</a>
</g>
</g>
</g>
</svg>
