<?xml version="1.0" encoding="UTF-8" standalone="no"?>
<!DOCTYPE svg PUBLIC "-//W3C//DTD SVG 1.1//EN"
 "http://www.w3.org/Graphics/SVG/1.1/DTD/svg11.dtd">
<!-- Generated by graphviz version 11.0.0 (20240428.1522)
 -->
<!-- Title: GLESC::Scene::Scene::destroyEntities Pages: 1 -->
<svg width="848pt" height="140pt"
 viewBox="0.00 0.00 847.75 140.00" xmlns="http://www.w3.org/2000/svg" xmlns:xlink="http://www.w3.org/1999/xlink">
<g id="graph0" class="graph" transform="scale(1 1) rotate(0) translate(4 136)">
<title>GLESC::Scene::Scene::destroyEntities</title>
<!-- Node1 -->
<g id="Node000001" class="node">
<title>Node1</title>
<g id="a_Node000001"><a xlink:title="Destroys all entities in the scene.">
<polygon fill="#999999" stroke="#666666" points="116.5,-82 0,-82 0,-50 116.5,-50 116.5,-82"/>
<text text-anchor="start" x="8" y="-68.5" font-family="Helvetica,sans-Serif" font-size="10.00">GLESC::Scene::Scene</text>
<text text-anchor="middle" x="58.25" y="-56.5" font-family="Helvetica,sans-Serif" font-size="10.00">::destroyEntities</text>
</a>
</g>
</g>
<!-- Node2 -->
<g id="Node000002" class="node">
<title>Node2</title>
<g id="a_Node000002"><a xlink:href="class_g_l_e_s_c_1_1_e_c_s_1_1_entity.html#a691dbe5f9ec930c27af2af0b97907a9e" target="_top" xlink:title=" ">
<polygon fill="white" stroke="#666666" points="275.75,-132 169,-132 169,-100 275.75,-100 275.75,-132"/>
<text text-anchor="start" x="177" y="-118.5" font-family="Helvetica,sans-Serif" font-size="10.00">GLESC::ECS::Entity</text>
<text text-anchor="middle" x="222.38" y="-106.5" font-family="Helvetica,sans-Serif" font-size="10.00">::destroy</text>
</a>
</g>
</g>
<!-- Node1&#45;&gt;Node2 -->
<g id="edge1_Node000001_Node000002" class="edge">
<title>Node1&#45;&gt;Node2</title>
<g id="a_edge1_Node000001_Node000002"><a xlink:title=" ">
<path fill="none" stroke="#63b8ff" d="M112.34,-82.37C126.9,-86.86 142.84,-91.78 157.92,-96.43"/>
<polygon fill="#63b8ff" stroke="#63b8ff" points="156.69,-99.71 167.28,-99.32 158.75,-93.02 156.69,-99.71"/>
</a>
</g>
</g>
<!-- Node4 -->
<g id="Node000004" class="node">
<title>Node4</title>
<g id="a_Node000004"><a xlink:href="class_g_l_e_s_c_1_1_e_c_s_1_1_entity_factory.html#a12a9f6adc2559286d8e0cc2cc9a42fb3" target="_top" xlink:title="Gets an entity by its name.">
<polygon fill="white" stroke="#666666" points="292.25,-82 152.5,-82 152.5,-50 292.25,-50 292.25,-82"/>
<text text-anchor="start" x="160.5" y="-68.5" font-family="Helvetica,sans-Serif" font-size="10.00">GLESC::ECS::EntityFactory</text>
<text text-anchor="middle" x="222.38" y="-56.5" font-family="Helvetica,sans-Serif" font-size="10.00">::getEntity</text>
</a>
</g>
</g>
<!-- Node1&#45;&gt;Node4 -->
<g id="edge3_Node000001_Node000004" class="edge">
<title>Node1&#45;&gt;Node4</title>
<g id="a_edge3_Node000001_Node000004"><a xlink:title=" ">
<path fill="none" stroke="#63b8ff" d="M116.87,-66C124.6,-66 132.64,-66 140.68,-66"/>
<polygon fill="#63b8ff" stroke="#63b8ff" points="140.5,-69.5 150.5,-66 140.5,-62.5 140.5,-69.5"/>
</a>
</g>
</g>
<!-- Node8 -->
<g id="Node000008" class="node">
<title>Node8</title>
<g id="a_Node000008"><a xlink:href="class_g_l_e_s_c_1_1_scene_1_1_scene.html#a0f7f9077261b0b2d560f8a4978738489" target="_top" xlink:title="Gets the scene entities.">
<polygon fill="white" stroke="#666666" points="280.62,-32 164.12,-32 164.12,0 280.62,0 280.62,-32"/>
<text text-anchor="start" x="172.12" y="-18.5" font-family="Helvetica,sans-Serif" font-size="10.00">GLESC::Scene::Scene</text>
<text text-anchor="middle" x="222.38" y="-6.5" font-family="Helvetica,sans-Serif" font-size="10.00">::getSceneEntities</text>
</a>
</g>
</g>
<!-- Node1&#45;&gt;Node8 -->
<g id="edge7_Node000001_Node000008" class="edge">
<title>Node1&#45;&gt;Node8</title>
<g id="a_edge7_Node000001_Node000008"><a xlink:title=" ">
<path fill="none" stroke="#63b8ff" d="M112.34,-49.63C126.68,-45.2 142.35,-40.37 157.23,-35.78"/>
<polygon fill="#63b8ff" stroke="#63b8ff" points="157.92,-39.23 166.45,-32.94 155.86,-32.54 157.92,-39.23"/>
</a>
</g>
</g>
<!-- Node3 -->
<g id="Node000003" class="node">
<title>Node3</title>
<g id="a_Node000003"><a xlink:href="class_g_l_e_s_c_1_1_e_c_s_1_1_e_c_s_coordinator.html#a25e94dc748db47f3a75490a135c015a1" target="_top" xlink:title="Mark entity to be destroyed.">
<polygon fill="white" stroke="#666666" points="479.25,-132 328.25,-132 328.25,-100 479.25,-100 479.25,-132"/>
<text text-anchor="start" x="336.25" y="-118.5" font-family="Helvetica,sans-Serif" font-size="10.00">GLESC::ECS::ECSCoordinator</text>
<text text-anchor="middle" x="403.75" y="-106.5" font-family="Helvetica,sans-Serif" font-size="10.00">::markForDestruction</text>
</a>
</g>
</g>
<!-- Node2&#45;&gt;Node3 -->
<g id="edge2_Node000002_Node000003" class="edge">
<title>Node2&#45;&gt;Node3</title>
<g id="a_edge2_Node000002_Node000003"><a xlink:title=" ">
<path fill="none" stroke="#63b8ff" d="M276.22,-116C288.9,-116 302.76,-116 316.52,-116"/>
<polygon fill="#63b8ff" stroke="#63b8ff" points="316.5,-119.5 326.5,-116 316.5,-112.5 316.5,-119.5"/>
</a>
</g>
</g>
<!-- Node5 -->
<g id="Node000005" class="node">
<title>Node5</title>
<g id="a_Node000005"><a xlink:href="class_g_l_e_s_c_1_1_e_c_s_1_1_e_c_s_coordinator.html#ac50027c90385da038caeb27371d3dde6" target="_top" xlink:title="Get the entity ID from the entity name.">
<polygon fill="white" stroke="#666666" points="479.25,-82 328.25,-82 328.25,-50 479.25,-50 479.25,-82"/>
<text text-anchor="start" x="336.25" y="-68.5" font-family="Helvetica,sans-Serif" font-size="10.00">GLESC::ECS::ECSCoordinator</text>
<text text-anchor="middle" x="403.75" y="-56.5" font-family="Helvetica,sans-Serif" font-size="10.00">::getEntityID</text>
</a>
</g>
</g>
<!-- Node4&#45;&gt;Node5 -->
<g id="edge4_Node000004_Node000005" class="edge">
<title>Node4&#45;&gt;Node5</title>
<g id="a_edge4_Node000004_Node000005"><a xlink:title=" ">
<path fill="none" stroke="#63b8ff" d="M292.73,-66C300.57,-66 308.62,-66 316.65,-66"/>
<polygon fill="#63b8ff" stroke="#63b8ff" points="316.42,-69.5 326.42,-66 316.42,-62.5 316.42,-69.5"/>
</a>
</g>
</g>
<!-- Node6 -->
<g id="Node000006" class="node">
<title>Node6</title>
<g id="a_Node000006"><a xlink:href="class_g_l_e_s_c_1_1_e_c_s_1_1_entity_manager.html#a331b9b5711f516647e4de67f9a256db3" target="_top" xlink:title="Get the entity ID from the entity name.">
<polygon fill="white" stroke="#666666" points="659.5,-82 515.25,-82 515.25,-50 659.5,-50 659.5,-82"/>
<text text-anchor="start" x="523.25" y="-68.5" font-family="Helvetica,sans-Serif" font-size="10.00">GLESC::ECS::EntityManager</text>
<text text-anchor="middle" x="587.38" y="-56.5" font-family="Helvetica,sans-Serif" font-size="10.00">::getEntityID</text>
</a>
</g>
</g>
<!-- Node5&#45;&gt;Node6 -->
<g id="edge5_Node000005_Node000006" class="edge">
<title>Node5&#45;&gt;Node6</title>
<g id="a_edge5_Node000005_Node000006"><a xlink:title=" ">
<path fill="none" stroke="#63b8ff" d="M479.67,-66C487.49,-66 495.46,-66 503.36,-66"/>
<polygon fill="#63b8ff" stroke="#63b8ff" points="503.32,-69.5 513.32,-66 503.32,-62.5 503.32,-69.5"/>
</a>
</g>
</g>
<!-- Node7 -->
<g id="Node000007" class="node">
<title>Node7</title>
<g id="a_Node000007"><a xlink:href="class_g_l_e_s_c_1_1_e_c_s_1_1_entity_manager.html#a5145504091eb26170aa219acb60aca71" target="_top" xlink:title="Check if the entity with the given name exists.">
<polygon fill="white" stroke="#666666" points="839.75,-82 695.5,-82 695.5,-50 839.75,-50 839.75,-82"/>
<text text-anchor="start" x="703.5" y="-68.5" font-family="Helvetica,sans-Serif" font-size="10.00">GLESC::ECS::EntityManager</text>
<text text-anchor="middle" x="767.62" y="-56.5" font-family="Helvetica,sans-Serif" font-size="10.00">::doesEntityExist</text>
</a>
</g>
</g>
<!-- Node6&#45;&gt;Node7 -->
<g id="edge6_Node000006_Node000007" class="edge">
<title>Node6&#45;&gt;Node7</title>
<g id="a_edge6_Node000006_Node000007"><a xlink:title=" ">
<path fill="none" stroke="#63b8ff" d="M659.85,-66C667.75,-66 675.84,-66 683.86,-66"/>
<polygon fill="#63b8ff" stroke="#63b8ff" points="683.62,-69.5 693.62,-66 683.62,-62.5 683.62,-69.5"/>
</a>
</g>
</g>
</g>
</svg>
