<?xml version="1.0" encoding="UTF-8" standalone="no"?>
<!DOCTYPE svg PUBLIC "-//W3C//DTD SVG 1.1//EN"
 "http://www.w3.org/Graphics/SVG/1.1/DTD/svg11.dtd">
<!-- Generated by graphviz version 11.0.0 (20240428.1522)
 -->
<!-- Title: GLESC::Math::Vector::isParallel Pages: 1 -->
<svg width="701pt" height="154pt"
 viewBox="0.00 0.00 700.50 154.00" xmlns="http://www.w3.org/2000/svg" xmlns:xlink="http://www.w3.org/1999/xlink">
<g id="graph0" class="graph" transform="scale(1 1) rotate(0) translate(4 150)">
<title>GLESC::Math::Vector::isParallel</title>
<!-- Node1 -->
<g id="Node000001" class="node">
<title>Node1</title>
<g id="a_Node000001"><a xlink:title="Checks if the vector is parallel to another vector.">
<polygon fill="#999999" stroke="#666666" points="111.25,-95 0,-95 0,-63 111.25,-63 111.25,-95"/>
<text text-anchor="start" x="8" y="-81.5" font-family="Helvetica,sans-Serif" font-size="10.00">GLESC::Math::Vector</text>
<text text-anchor="middle" x="55.62" y="-69.5" font-family="Helvetica,sans-Serif" font-size="10.00">::isParallel</text>
</a>
</g>
</g>
<!-- Node2 -->
<g id="Node000002" class="node">
<title>Node2</title>
<g id="a_Node000002"><a xlink:href="class_g_l_e_s_c_1_1_math_1_1_vector_algorithms.html#abd445eb1a09f37b1dc51d28e9a7e6f28" target="_top" xlink:title="Checks if two vectors are parallel.">
<polygon fill="white" stroke="#666666" points="305,-95 147.25,-95 147.25,-63 305,-63 305,-95"/>
<text text-anchor="start" x="155.25" y="-81.5" font-family="Helvetica,sans-Serif" font-size="10.00">GLESC::Math::VectorAlgorithms</text>
<text text-anchor="middle" x="226.12" y="-69.5" font-family="Helvetica,sans-Serif" font-size="10.00">::areParallel</text>
</a>
</g>
</g>
<!-- Node1&#45;&gt;Node2 -->
<g id="edge1_Node000001_Node000002" class="edge">
<title>Node1&#45;&gt;Node2</title>
<g id="a_edge1_Node000001_Node000002"><a xlink:title=" ">
<path fill="none" stroke="#63b8ff" d="M111.33,-79C119.13,-79 127.31,-79 135.56,-79"/>
<polygon fill="#63b8ff" stroke="#63b8ff" points="135.31,-82.5 145.31,-79 135.31,-75.5 135.31,-82.5"/>
</a>
</g>
</g>
<!-- Node3 -->
<g id="Node000003" class="node">
<title>Node3</title>
<g id="a_Node000003"><a xlink:href="namespace_g_l_e_s_c_1_1_math.html#a04db3782a0754ba2d22eb5d159dd681c" target="_top" xlink:title="Calculates the absolute value of a number.">
<polygon fill="white" stroke="#666666" points="469.12,-146 370.62,-146 370.62,-126 469.12,-126 469.12,-146"/>
<text text-anchor="middle" x="419.88" y="-132.5" font-family="Helvetica,sans-Serif" font-size="10.00">GLESC::Math::abs</text>
</a>
</g>
</g>
<!-- Node2&#45;&gt;Node3 -->
<g id="edge2_Node000002_Node000003" class="edge">
<title>Node2&#45;&gt;Node3</title>
<g id="a_edge2_Node000002_Node000003"><a xlink:title=" ">
<path fill="none" stroke="#63b8ff" d="M273.39,-95.41C293.97,-102.45 318.57,-110.53 341,-117 347.93,-119 355.24,-120.96 362.5,-122.83"/>
<polygon fill="#63b8ff" stroke="#63b8ff" points="361.39,-126.16 371.94,-125.21 363.1,-119.37 361.39,-126.16"/>
</a>
</g>
</g>
<!-- Node4 -->
<g id="Node000004" class="node">
<title>Node4</title>
<g id="a_Node000004"><a xlink:href="class_g_l_e_s_c_1_1_math_1_1_vector_algorithms.html#ae45bcff9b53fb60d513c53823418d97b" target="_top" xlink:title="Computes the dot product of two vectors.">
<polygon fill="white" stroke="#666666" points="692.5,-73 534.75,-73 534.75,-41 692.5,-41 692.5,-73"/>
<text text-anchor="start" x="542.75" y="-59.5" font-family="Helvetica,sans-Serif" font-size="10.00">GLESC::Math::VectorAlgorithms</text>
<text text-anchor="middle" x="613.62" y="-47.5" font-family="Helvetica,sans-Serif" font-size="10.00">::dotProduct</text>
</a>
</g>
</g>
<!-- Node2&#45;&gt;Node4 -->
<g id="edge3_Node000002_Node000004" class="edge">
<title>Node2&#45;&gt;Node4</title>
<g id="a_edge3_Node000002_Node000004"><a xlink:title=" ">
<path fill="none" stroke="#63b8ff" d="M305.14,-74.55C368.26,-70.95 457.19,-65.87 523.19,-62.1"/>
<polygon fill="#63b8ff" stroke="#63b8ff" points="523.1,-65.61 532.89,-61.55 522.7,-58.63 523.1,-65.61"/>
</a>
</g>
</g>
<!-- Node5 -->
<g id="Node000005" class="node">
<title>Node5</title>
<g id="a_Node000005"><a xlink:href="namespace_g_l_e_s_c_1_1_math.html#aee25910dbba06d09d9df14d03933ace1" target="_top" xlink:title="Compares two values for equality.">
<polygon fill="white" stroke="#666666" points="466.5,-108 373.25,-108 373.25,-88 466.5,-88 466.5,-108"/>
<text text-anchor="middle" x="419.88" y="-94.5" font-family="Helvetica,sans-Serif" font-size="10.00">GLESC::Math::eq</text>
</a>
</g>
</g>
<!-- Node2&#45;&gt;Node5 -->
<g id="edge4_Node000002_Node000005" class="edge">
<title>Node2&#45;&gt;Node5</title>
<g id="a_edge4_Node000002_Node000005"><a xlink:title=" ">
<path fill="none" stroke="#63b8ff" d="M305.39,-86.76C324.25,-88.62 344.05,-90.59 361.74,-92.34"/>
<polygon fill="#63b8ff" stroke="#63b8ff" points="361.22,-95.8 371.52,-93.31 361.91,-88.84 361.22,-95.8"/>
</a>
</g>
</g>
<!-- Node7 -->
<g id="Node000007" class="node">
<title>Node7</title>
<g id="a_Node000007"><a xlink:href="class_g_l_e_s_c_1_1_math_1_1_vector_algorithms.html#a96acaa670e780132720dd3ea6a6cdf97" target="_top" xlink:title="Computes the length of a vector.">
<polygon fill="white" stroke="#666666" points="498.75,-32 341,-32 341,0 498.75,0 498.75,-32"/>
<text text-anchor="start" x="349" y="-18.5" font-family="Helvetica,sans-Serif" font-size="10.00">GLESC::Math::VectorAlgorithms</text>
<text text-anchor="middle" x="419.88" y="-6.5" font-family="Helvetica,sans-Serif" font-size="10.00">::length</text>
</a>
</g>
</g>
<!-- Node2&#45;&gt;Node7 -->
<g id="edge6_Node000002_Node000007" class="edge">
<title>Node2&#45;&gt;Node7</title>
<g id="a_edge6_Node000002_Node000007"><a xlink:title=" ">
<path fill="none" stroke="#63b8ff" d="M277,-62.61C301.76,-54.48 331.89,-44.58 358,-36"/>
<polygon fill="#63b8ff" stroke="#63b8ff" points="359.07,-39.33 367.47,-32.89 356.88,-32.68 359.07,-39.33"/>
</a>
</g>
</g>
<!-- Node6 -->
<g id="Node000006" class="node">
<title>Node6</title>
<g id="a_Node000006"><a xlink:href="namespace_g_l_e_s_c_1_1_math.html#acd429163efe906cd22916cc75ccb2421" target="_top" xlink:title="Epsilon getter with precision of a given template type.">
<polygon fill="white" stroke="#666666" points="670.38,-111 556.88,-111 556.88,-91 670.38,-91 670.38,-111"/>
<text text-anchor="middle" x="613.62" y="-97.5" font-family="Helvetica,sans-Serif" font-size="10.00">GLESC::Math::epsilon</text>
</a>
</g>
</g>
<!-- Node5&#45;&gt;Node6 -->
<g id="edge5_Node000005_Node000006" class="edge">
<title>Node5&#45;&gt;Node6</title>
<g id="a_edge5_Node000005_Node000006"><a xlink:title=" ">
<path fill="none" stroke="#63b8ff" d="M466.8,-98.72C490.26,-99.09 519.24,-99.54 545.18,-99.94"/>
<polygon fill="#63b8ff" stroke="#63b8ff" points="544.89,-103.44 554.95,-100.1 545,-96.44 544.89,-103.44"/>
</a>
</g>
</g>
<!-- Node7&#45;&gt;Node4 -->
<g id="edge7_Node000007_Node000004" class="edge">
<title>Node7&#45;&gt;Node4</title>
<g id="a_edge7_Node000007_Node000004"><a xlink:title=" ">
<path fill="none" stroke="#63b8ff" d="M498.04,-32.5C506.75,-34.36 515.67,-36.27 524.5,-38.16"/>
<polygon fill="#63b8ff" stroke="#63b8ff" points="523.63,-41.55 534.14,-40.22 525.09,-34.7 523.63,-41.55"/>
</a>
</g>
</g>
<!-- Node8 -->
<g id="Node000008" class="node">
<title>Node8</title>
<g id="a_Node000008"><a xlink:href="namespace_g_l_e_s_c_1_1_math.html#ab2316a2512c43c18e29709201adf3fe5" target="_top" xlink:title="Calculates the square root of a value.">
<polygon fill="white" stroke="#666666" points="663.25,-23 564,-23 564,-3 663.25,-3 663.25,-23"/>
<text text-anchor="middle" x="613.62" y="-9.5" font-family="Helvetica,sans-Serif" font-size="10.00">GLESC::Math::sqrt</text>
</a>
</g>
</g>
<!-- Node7&#45;&gt;Node8 -->
<g id="edge8_Node000007_Node000008" class="edge">
<title>Node7&#45;&gt;Node8</title>
<g id="a_edge8_Node000007_Node000008"><a xlink:title=" ">
<path fill="none" stroke="#63b8ff" d="M499.14,-14.78C516.9,-14.5 535.48,-14.21 552.36,-13.94"/>
<polygon fill="#63b8ff" stroke="#63b8ff" points="552.28,-17.44 562.22,-13.79 552.17,-10.45 552.28,-17.44"/>
</a>
</g>
</g>
</g>
</svg>
