<?xml version="1.0" encoding="UTF-8" standalone="no"?>
<!DOCTYPE svg PUBLIC "-//W3C//DTD SVG 1.1//EN"
 "http://www.w3.org/Graphics/SVG/1.1/DTD/svg11.dtd">
<!-- Generated by graphviz version 11.0.0 (20240428.1522)
 -->
<!-- Title: GLESC::Math::Line::Line Pages: 1 -->
<svg width="1015pt" height="140pt"
 viewBox="0.00 0.00 1015.25 140.00" xmlns="http://www.w3.org/2000/svg" xmlns:xlink="http://www.w3.org/1999/xlink">
<g id="graph0" class="graph" transform="scale(1 1) rotate(0) translate(4 136)">
<title>GLESC::Math::Line::Line</title>
<!-- Node1 -->
<g id="Node000001" class="node">
<title>Node1</title>
<g id="a_Node000001"><a xlink:title="Construct a new Line object.">
<polygon fill="#999999" stroke="#666666" points="124.75,-76 0,-76 0,-56 124.75,-56 124.75,-76"/>
<text text-anchor="middle" x="62.38" y="-62.5" font-family="Helvetica,sans-Serif" font-size="10.00">GLESC::Math::Line::Line</text>
</a>
</g>
</g>
<!-- Node2 -->
<g id="Node000002" class="node">
<title>Node2</title>
<g id="a_Node000002"><a xlink:href="class_g_l_e_s_c_1_1_math_1_1_line.html#a748af27a9162eb49e70e7ced1761c5a3" target="_top" xlink:title="Set the Direction vector.">
<polygon fill="white" stroke="#666666" points="273.12,-132 166.38,-132 166.38,-100 273.12,-100 273.12,-132"/>
<text text-anchor="start" x="174.38" y="-118.5" font-family="Helvetica,sans-Serif" font-size="10.00">GLESC::Math::Line::</text>
<text text-anchor="middle" x="219.75" y="-106.5" font-family="Helvetica,sans-Serif" font-size="10.00">setDirection</text>
</a>
</g>
</g>
<!-- Node1&#45;&gt;Node2 -->
<g id="edge1_Node000001_Node000002" class="edge">
<title>Node1&#45;&gt;Node2</title>
<g id="a_edge1_Node000001_Node000002"><a xlink:title=" ">
<path fill="none" stroke="#63b8ff" d="M95.95,-76.48C113.6,-82.16 136.02,-89.38 156.85,-96.08"/>
<polygon fill="#63b8ff" stroke="#63b8ff" points="155.53,-99.33 166.13,-99.07 157.68,-92.67 155.53,-99.33"/>
</a>
</g>
</g>
<!-- Node10 -->
<g id="Node000010" class="node">
<title>Node10</title>
<g id="a_Node000010"><a xlink:href="class_g_l_e_s_c_1_1_math_1_1_line.html#a1be2dab9cf99b95192d64da68aa3a939" target="_top" xlink:title="Set the direction of the line from two points.">
<polygon fill="white" stroke="#666666" points="278.75,-82 160.75,-82 160.75,-50 278.75,-50 278.75,-82"/>
<text text-anchor="start" x="168.75" y="-68.5" font-family="Helvetica,sans-Serif" font-size="10.00">GLESC::Math::Line::</text>
<text text-anchor="middle" x="219.75" y="-56.5" font-family="Helvetica,sans-Serif" font-size="10.00">setDirectionFromPoints</text>
</a>
</g>
</g>
<!-- Node1&#45;&gt;Node10 -->
<g id="edge9_Node000001_Node000010" class="edge">
<title>Node1&#45;&gt;Node10</title>
<g id="a_edge9_Node000001_Node000010"><a xlink:title=" ">
<path fill="none" stroke="#63b8ff" d="M125.23,-66C133.02,-66 141.03,-66 148.93,-66"/>
<polygon fill="#63b8ff" stroke="#63b8ff" points="148.88,-69.5 158.88,-66 148.88,-62.5 148.88,-69.5"/>
</a>
</g>
</g>
<!-- Node11 -->
<g id="Node000011" class="node">
<title>Node11</title>
<g id="a_Node000011"><a xlink:href="class_g_l_e_s_c_1_1_math_1_1_line.html#a13bdc3053a2bee5480864188b39ca489" target="_top" xlink:title=" ">
<polygon fill="white" stroke="#666666" points="273.12,-32 166.38,-32 166.38,0 273.12,0 273.12,-32"/>
<text text-anchor="start" x="174.38" y="-18.5" font-family="Helvetica,sans-Serif" font-size="10.00">GLESC::Math::Line::</text>
<text text-anchor="middle" x="219.75" y="-6.5" font-family="Helvetica,sans-Serif" font-size="10.00">setPoint</text>
</a>
</g>
</g>
<!-- Node1&#45;&gt;Node11 -->
<g id="edge11_Node000001_Node000011" class="edge">
<title>Node1&#45;&gt;Node11</title>
<g id="a_edge11_Node000001_Node000011"><a xlink:title=" ">
<path fill="none" stroke="#63b8ff" d="M95.95,-55.52C113.6,-49.84 136.02,-42.62 156.85,-35.92"/>
<polygon fill="#63b8ff" stroke="#63b8ff" points="157.68,-39.33 166.13,-32.93 155.53,-32.67 157.68,-39.33"/>
</a>
</g>
</g>
<!-- Node3 -->
<g id="Node000003" class="node">
<title>Node3</title>
<g id="a_Node000003"><a xlink:href="class_g_l_e_s_c_1_1_math_1_1_vector.html#a921eb7e96f275d34d7f5f24906a66ec1" target="_top" xlink:title="Normalizes the vector.">
<polygon fill="white" stroke="#666666" points="426,-107 314.75,-107 314.75,-75 426,-75 426,-107"/>
<text text-anchor="start" x="322.75" y="-93.5" font-family="Helvetica,sans-Serif" font-size="10.00">GLESC::Math::Vector</text>
<text text-anchor="middle" x="370.38" y="-81.5" font-family="Helvetica,sans-Serif" font-size="10.00">::normalize</text>
</a>
</g>
</g>
<!-- Node2&#45;&gt;Node3 -->
<g id="edge2_Node000002_Node000003" class="edge">
<title>Node2&#45;&gt;Node3</title>
<g id="a_edge2_Node000002_Node000003"><a xlink:title=" ">
<path fill="none" stroke="#63b8ff" d="M273.57,-107.12C283.21,-105.49 293.37,-103.78 303.34,-102.11"/>
<polygon fill="#63b8ff" stroke="#63b8ff" points="303.69,-105.6 312.97,-100.49 302.53,-98.69 303.69,-105.6"/>
</a>
</g>
</g>
<!-- Node4 -->
<g id="Node000004" class="node">
<title>Node4</title>
<g id="a_Node000004"><a xlink:href="class_g_l_e_s_c_1_1_math_1_1_vector_algorithms.html#a7ee5da5ffdabacb6faa895af42dd78c3" target="_top" xlink:title="Normalizes a vector.">
<polygon fill="white" stroke="#666666" points="619.75,-107 462,-107 462,-75 619.75,-75 619.75,-107"/>
<text text-anchor="start" x="470" y="-93.5" font-family="Helvetica,sans-Serif" font-size="10.00">GLESC::Math::VectorAlgorithms</text>
<text text-anchor="middle" x="540.88" y="-81.5" font-family="Helvetica,sans-Serif" font-size="10.00">::normalize</text>
</a>
</g>
</g>
<!-- Node3&#45;&gt;Node4 -->
<g id="edge3_Node000003_Node000004" class="edge">
<title>Node3&#45;&gt;Node4</title>
<g id="a_edge3_Node000003_Node000004"><a xlink:title=" ">
<path fill="none" stroke="#63b8ff" d="M426.08,-91C433.88,-91 442.06,-91 450.31,-91"/>
<polygon fill="#63b8ff" stroke="#63b8ff" points="450.06,-94.5 460.06,-91 450.06,-87.5 450.06,-94.5"/>
</a>
</g>
</g>
<!-- Node5 -->
<g id="Node000005" class="node">
<title>Node5</title>
<g id="a_Node000005"><a xlink:href="namespace_g_l_e_s_c_1_1_math.html#aee25910dbba06d09d9df14d03933ace1" target="_top" xlink:title="Compares two values for equality.">
<polygon fill="white" stroke="#666666" points="781.25,-123 688,-123 688,-103 781.25,-103 781.25,-123"/>
<text text-anchor="middle" x="734.62" y="-109.5" font-family="Helvetica,sans-Serif" font-size="10.00">GLESC::Math::eq</text>
</a>
</g>
</g>
<!-- Node4&#45;&gt;Node5 -->
<g id="edge4_Node000004_Node000005" class="edge">
<title>Node4&#45;&gt;Node5</title>
<g id="a_edge4_Node000004_Node000005"><a xlink:title=" ">
<path fill="none" stroke="#63b8ff" d="M620.14,-99.98C639,-102.14 658.8,-104.42 676.49,-106.44"/>
<polygon fill="#63b8ff" stroke="#63b8ff" points="675.94,-109.9 686.27,-107.57 676.73,-102.95 675.94,-109.9"/>
</a>
</g>
</g>
<!-- Node7 -->
<g id="Node000007" class="node">
<title>Node7</title>
<g id="a_Node000007"><a xlink:href="class_g_l_e_s_c_1_1_math_1_1_vector_algorithms.html#a96acaa670e780132720dd3ea6a6cdf97" target="_top" xlink:title="Computes the length of a vector.">
<polygon fill="white" stroke="#666666" points="813.5,-85 655.75,-85 655.75,-53 813.5,-53 813.5,-85"/>
<text text-anchor="start" x="663.75" y="-71.5" font-family="Helvetica,sans-Serif" font-size="10.00">GLESC::Math::VectorAlgorithms</text>
<text text-anchor="middle" x="734.62" y="-59.5" font-family="Helvetica,sans-Serif" font-size="10.00">::length</text>
</a>
</g>
</g>
<!-- Node4&#45;&gt;Node7 -->
<g id="edge6_Node000004_Node000007" class="edge">
<title>Node4&#45;&gt;Node7</title>
<g id="a_edge6_Node000004_Node000007"><a xlink:title=" ">
<path fill="none" stroke="#63b8ff" d="M620.14,-82.02C628.03,-81.12 636.07,-80.19 644.06,-79.28"/>
<polygon fill="#63b8ff" stroke="#63b8ff" points="644.26,-82.78 653.79,-78.16 643.46,-75.82 644.26,-82.78"/>
</a>
</g>
</g>
<!-- Node6 -->
<g id="Node000006" class="node">
<title>Node6</title>
<g id="a_Node000006"><a xlink:href="namespace_g_l_e_s_c_1_1_math.html#acd429163efe906cd22916cc75ccb2421" target="_top" xlink:title="Epsilon getter with precision of a given template type.">
<polygon fill="white" stroke="#666666" points="985.12,-123 871.62,-123 871.62,-103 985.12,-103 985.12,-123"/>
<text text-anchor="middle" x="928.38" y="-109.5" font-family="Helvetica,sans-Serif" font-size="10.00">GLESC::Math::epsilon</text>
</a>
</g>
</g>
<!-- Node5&#45;&gt;Node6 -->
<g id="edge5_Node000005_Node000006" class="edge">
<title>Node5&#45;&gt;Node6</title>
<g id="a_edge5_Node000005_Node000006"><a xlink:title=" ">
<path fill="none" stroke="#63b8ff" d="M781.55,-113C805.01,-113 833.99,-113 859.93,-113"/>
<polygon fill="#63b8ff" stroke="#63b8ff" points="859.7,-116.5 869.7,-113 859.7,-109.5 859.7,-116.5"/>
</a>
</g>
</g>
<!-- Node8 -->
<g id="Node000008" class="node">
<title>Node8</title>
<g id="a_Node000008"><a xlink:href="class_g_l_e_s_c_1_1_math_1_1_vector_algorithms.html#ae45bcff9b53fb60d513c53823418d97b" target="_top" xlink:title="Computes the dot product of two vectors.">
<polygon fill="white" stroke="#666666" points="1007.25,-85 849.5,-85 849.5,-53 1007.25,-53 1007.25,-85"/>
<text text-anchor="start" x="857.5" y="-71.5" font-family="Helvetica,sans-Serif" font-size="10.00">GLESC::Math::VectorAlgorithms</text>
<text text-anchor="middle" x="928.38" y="-59.5" font-family="Helvetica,sans-Serif" font-size="10.00">::dotProduct</text>
</a>
</g>
</g>
<!-- Node7&#45;&gt;Node8 -->
<g id="edge7_Node000007_Node000008" class="edge">
<title>Node7&#45;&gt;Node8</title>
<g id="a_edge7_Node000007_Node000008"><a xlink:title=" ">
<path fill="none" stroke="#63b8ff" d="M813.89,-69C821.69,-69 829.64,-69 837.54,-69"/>
<polygon fill="#63b8ff" stroke="#63b8ff" points="837.53,-72.5 847.53,-69 837.53,-65.5 837.53,-72.5"/>
</a>
</g>
</g>
<!-- Node9 -->
<g id="Node000009" class="node">
<title>Node9</title>
<g id="a_Node000009"><a xlink:href="namespace_g_l_e_s_c_1_1_math.html#ab2316a2512c43c18e29709201adf3fe5" target="_top" xlink:title="Calculates the square root of a value.">
<polygon fill="white" stroke="#666666" points="978,-35 878.75,-35 878.75,-15 978,-15 978,-35"/>
<text text-anchor="middle" x="928.38" y="-21.5" font-family="Helvetica,sans-Serif" font-size="10.00">GLESC::Math::sqrt</text>
</a>
</g>
</g>
<!-- Node7&#45;&gt;Node9 -->
<g id="edge8_Node000007_Node000009" class="edge">
<title>Node7&#45;&gt;Node9</title>
<g id="a_edge8_Node000007_Node000009"><a xlink:title=" ">
<path fill="none" stroke="#63b8ff" d="M807.3,-52.55C828.2,-47.76 850.75,-42.58 870.6,-38.03"/>
<polygon fill="#63b8ff" stroke="#63b8ff" points="871.19,-41.48 880.16,-35.84 869.63,-34.66 871.19,-41.48"/>
</a>
</g>
</g>
<!-- Node10&#45;&gt;Node3 -->
<g id="edge10_Node000010_Node000003" class="edge">
<title>Node10&#45;&gt;Node3</title>
<g id="a_edge10_Node000010_Node000003"><a xlink:title=" ">
<path fill="none" stroke="#63b8ff" d="M279.06,-75.81C287.02,-77.15 295.24,-78.53 303.32,-79.89"/>
<polygon fill="#63b8ff" stroke="#63b8ff" points="302.69,-83.33 313.13,-81.54 303.85,-76.43 302.69,-83.33"/>
</a>
</g>
</g>
</g>
</svg>
