<?xml version="1.0" encoding="UTF-8" standalone="no"?>
<!DOCTYPE svg PUBLIC "-//W3C//DTD SVG 1.1//EN"
 "http://www.w3.org/Graphics/SVG/1.1/DTD/svg11.dtd">
<!-- Generated by graphviz version 11.0.0 (20240428.1522)
 -->
<!-- Title: GLESC::Physics::PhysicsManager::applyForces Pages: 1 -->
<!--zoomable 590 -->

<svg id="main" version="1.1" xmlns="http://www.w3.org/2000/svg" xmlns:xlink="http://www.w3.org/1999/xlink" xml:space="preserve" onload="init(evt)">
<style type="text/css"><![CDATA[
.node, .edge {opacity: 0.7;}
.node.selected, .edge.selected {opacity: 1;}
.edge:hover path { stroke: red; }
.edge:hover polygon { stroke: red; fill: red; }
]]></style>

<defs>
  <circle id="rim" cx="0" cy="0" r="7"/>
  <circle id="rim2" cx="0" cy="0" r="3.5"/>
  <g id="zoomPlus">
    <use xlink:href="#rim" fill="#404040"><set attributeName="fill" to="#808080" begin="zoomplus.mouseover" end="zoomplus.mouseout"/></use>
    <path d="M-4,0h8M0,-4v8" fill="none" stroke="white" stroke-width="1.5" pointer-events="none"/>
  </g>
  <g id="zoomMin">
    <use xlink:href="#rim" fill="#404040"><set attributeName="fill" to="#808080" begin="zoomminus.mouseover" end="zoomminus.mouseout"/></use>
    <path d="M-4,0h8" fill="none" stroke="white" stroke-width="1.5" pointer-events="none"/>
  </g>
  <g id="arrowUp" transform="translate(30 24)">
    <use xlink:href="#rim"/>
    <path pointer-events="none" fill="none" stroke="white" stroke-width="1.5" d="M0,-3.0v7 M-2.5,-0.5L0,-3.0L2.5,-0.5"/>
  </g>
  <g id="arrowRight" transform="rotate(90) translate(36 -43)">
    <use xlink:href="#rim"/>
    <path pointer-events="none" fill="none" stroke="white" stroke-width="1.5" d="M0,-3.0v7 M-2.5,-0.5L0,-3.0L2.5,-0.5"/>
  </g>
  <g id="arrowDown" transform="rotate(180) translate(-30 -48)">
    <use xlink:href="#rim"/>
    <path pointer-events="none" fill="none" stroke="white" stroke-width="1.5" d="M0,-3.0v7 M-2.5,-0.5L0,-3.0L2.5,-0.5"/>
  </g>
  <g id="arrowLeft" transform="rotate(270) translate(-36 17)">
    <use xlink:href="#rim"/>
    <path pointer-events="none" fill="none" stroke="white" stroke-width="1.5" d="M0,-3.0v7 M-2.5,-0.5L0,-3.0L2.5,-0.5"/>
  </g>
  <g id="resetDef">
    <use xlink:href="#rim2" fill="#404040"><set attributeName="fill" to="#808080" begin="reset.mouseover" end="reset.mouseout"/></use>
  </g>
</defs>
<script type="application/ecmascript">
var viewWidth = 345;
var viewHeight = 590;
var sectionId = 'dynsection-1';
</script>
<script type="application/ecmascript" xlink:href="svg.min.js"/>
<svg id="graph" class="graph">
<g id="viewport">
<title>GLESC::Physics::PhysicsManager::applyForces</title>
<!-- Node1 -->
<g id="Node000001" class="node">
<title>Node1</title>
<g id="a_Node000001"><a xlink:title=" ">
<polygon fill="#999999" stroke="#666666" points="169,-307 0,-307 0,-275 169,-275 169,-307"/>
<text text-anchor="start" x="8" y="-293.5" font-family="Helvetica,sans-Serif" font-size="10.00">GLESC::Physics::PhysicsManager</text>
<text text-anchor="middle" x="84.5" y="-281.5" font-family="Helvetica,sans-Serif" font-size="10.00">::applyForces</text>
</a>
</g>
</g>
<!-- Node2 -->
<g id="Node000002" class="node">
<title>Node2</title>
<g id="a_Node000002"><a xlink:href="class_g_l_e_s_c_1_1_physics_1_1_physics.html#a43dc7ff04706273c73fcbed1fd362308" target="_top" xlink:title=" ">
<polygon fill="white" stroke="#666666" points="336.5,-582 205,-582 205,-550 336.5,-550 336.5,-582"/>
<text text-anchor="start" x="213" y="-568.5" font-family="Helvetica,sans-Serif" font-size="10.00">GLESC::Physics::Physics</text>
<text text-anchor="middle" x="270.75" y="-556.5" font-family="Helvetica,sans-Serif" font-size="10.00">::addAcceleration</text>
</a>
</g>
</g>
<!-- Node1&#45;&gt;Node2 -->
<g id="edge1_Node000001_Node000002" class="edge">
<title>Node1&#45;&gt;Node2</title>
<g id="a_edge1_Node000001_Node000002"><a xlink:title=" ">
<path fill="none" stroke="#63b8ff" d="M88.85,-307.22C98.73,-351.06 131.74,-473.2 205,-541 205.77,-541.72 206.57,-542.41 207.39,-543.09"/>
<polygon fill="#63b8ff" stroke="#63b8ff" points="205.35,-545.94 215.56,-548.77 209.35,-540.19 205.35,-545.94"/>
</a>
</g>
</g>
<!-- Node3 -->
<g id="Node000003" class="node">
<title>Node3</title>
<g id="a_Node000003"><a xlink:href="class_g_l_e_s_c_1_1_physics_1_1_physics.html#a95ef23b3ccfa25157b1b605664a760be" target="_top" xlink:title=" ">
<polygon fill="white" stroke="#666666" points="336.5,-532 205,-532 205,-500 336.5,-500 336.5,-532"/>
<text text-anchor="start" x="213" y="-518.5" font-family="Helvetica,sans-Serif" font-size="10.00">GLESC::Physics::Physics</text>
<text text-anchor="middle" x="270.75" y="-506.5" font-family="Helvetica,sans-Serif" font-size="10.00">::addVelocity</text>
</a>
</g>
</g>
<!-- Node1&#45;&gt;Node3 -->
<g id="edge2_Node000001_Node000003" class="edge">
<title>Node1&#45;&gt;Node3</title>
<g id="a_edge2_Node000001_Node000003"><a xlink:title=" ">
<path fill="none" stroke="#63b8ff" d="M91.07,-307.47C104.62,-345.19 142.84,-438.6 205,-491 206.09,-491.92 207.21,-492.8 208.37,-493.66"/>
<polygon fill="#63b8ff" stroke="#63b8ff" points="206.18,-496.41 216.49,-498.82 209.93,-490.5 206.18,-496.41"/>
</a>
</g>
</g>
<!-- Node4 -->
<g id="Node000004" class="node">
<title>Node4</title>
<g id="a_Node000004"><a xlink:href="class_g_l_e_s_c_1_1_physics_1_1_physics.html#ab15872b83afc4a3bed06cc6799c11015" target="_top" xlink:title=" ">
<polygon fill="white" stroke="#666666" points="336.5,-482 205,-482 205,-450 336.5,-450 336.5,-482"/>
<text text-anchor="start" x="213" y="-468.5" font-family="Helvetica,sans-Serif" font-size="10.00">GLESC::Physics::Physics</text>
<text text-anchor="middle" x="270.75" y="-456.5" font-family="Helvetica,sans-Serif" font-size="10.00">::getAcceleration</text>
</a>
</g>
</g>
<!-- Node1&#45;&gt;Node4 -->
<g id="edge3_Node000001_Node000004" class="edge">
<title>Node1&#45;&gt;Node4</title>
<g id="a_edge3_Node000001_Node000004"><a xlink:title=" ">
<path fill="none" stroke="#63b8ff" d="M94.51,-307.34C112.02,-337.71 153.47,-403.17 205,-441 206.37,-442 207.78,-442.97 209.22,-443.91"/>
<polygon fill="#63b8ff" stroke="#63b8ff" points="207.47,-446.93 217.89,-448.84 210.93,-440.85 207.47,-446.93"/>
</a>
</g>
</g>
<!-- Node5 -->
<g id="Node000005" class="node">
<title>Node5</title>
<g id="a_Node000005"><a xlink:href="class_g_l_e_s_c_1_1_physics_1_1_physics.html#acc9ffbfd9d7efe9912a2dcf97e3c9a92" target="_top" xlink:title=" ">
<polygon fill="white" stroke="#666666" points="336.5,-432 205,-432 205,-400 336.5,-400 336.5,-432"/>
<text text-anchor="start" x="213" y="-418.5" font-family="Helvetica,sans-Serif" font-size="10.00">GLESC::Physics::Physics</text>
<text text-anchor="middle" x="270.75" y="-406.5" font-family="Helvetica,sans-Serif" font-size="10.00">::getAirFriction</text>
</a>
</g>
</g>
<!-- Node1&#45;&gt;Node5 -->
<g id="edge4_Node000001_Node000005" class="edge">
<title>Node1&#45;&gt;Node5</title>
<g id="a_edge4_Node000001_Node000005"><a xlink:title=" ">
<path fill="none" stroke="#63b8ff" d="M101.57,-307.48C123.35,-329.06 164.22,-366.96 205,-391 207.15,-392.27 209.38,-393.49 211.65,-394.68"/>
<polygon fill="#63b8ff" stroke="#63b8ff" points="209.98,-397.75 220.51,-398.93 213.01,-391.44 209.98,-397.75"/>
</a>
</g>
</g>
<!-- Node6 -->
<g id="Node000006" class="node">
<title>Node6</title>
<g id="a_Node000006"><a xlink:href="class_g_l_e_s_c_1_1_physics_1_1_physics.html#a773297212554430f835e10158077f123" target="_top" xlink:title=" ">
<polygon fill="white" stroke="#666666" points="336.5,-382 205,-382 205,-350 336.5,-350 336.5,-382"/>
<text text-anchor="start" x="213" y="-368.5" font-family="Helvetica,sans-Serif" font-size="10.00">GLESC::Physics::Physics</text>
<text text-anchor="middle" x="270.75" y="-356.5" font-family="Helvetica,sans-Serif" font-size="10.00">::getForce</text>
</a>
</g>
</g>
<!-- Node1&#45;&gt;Node6 -->
<g id="edge5_Node000001_Node000006" class="edge">
<title>Node1&#45;&gt;Node6</title>
<g id="a_edge5_Node000001_Node000006"><a xlink:title=" ">
<path fill="none" stroke="#63b8ff" d="M124.14,-307.49C147.48,-317.37 177.88,-330.09 205,-341 208.63,-342.46 212.38,-343.95 216.17,-345.45"/>
<polygon fill="#63b8ff" stroke="#63b8ff" points="214.85,-348.69 225.43,-349.07 217.4,-342.17 214.85,-348.69"/>
</a>
</g>
</g>
<!-- Node7 -->
<g id="Node000007" class="node">
<title>Node7</title>
<g id="a_Node000007"><a xlink:href="class_g_l_e_s_c_1_1_physics_1_1_physics.html#af20497987041c033490ea2925471fb85" target="_top" xlink:title=" ">
<polygon fill="white" stroke="#666666" points="336.5,-332 205,-332 205,-300 336.5,-300 336.5,-332"/>
<text text-anchor="start" x="213" y="-318.5" font-family="Helvetica,sans-Serif" font-size="10.00">GLESC::Physics::Physics</text>
<text text-anchor="middle" x="270.75" y="-306.5" font-family="Helvetica,sans-Serif" font-size="10.00">::getMass</text>
</a>
</g>
</g>
<!-- Node1&#45;&gt;Node7 -->
<g id="edge6_Node000001_Node000007" class="edge">
<title>Node1&#45;&gt;Node7</title>
<g id="a_edge6_Node000001_Node000007"><a xlink:title=" ">
<path fill="none" stroke="#63b8ff" d="M169.27,-302.37C177.35,-303.46 185.51,-304.57 193.51,-305.65"/>
<polygon fill="#63b8ff" stroke="#63b8ff" points="192.8,-309.09 203.18,-306.97 193.74,-302.15 192.8,-309.09"/>
</a>
</g>
</g>
<!-- Node8 -->
<g id="Node000008" class="node">
<title>Node8</title>
<g id="a_Node000008"><a xlink:href="class_g_l_e_s_c_1_1_physics_1_1_physics.html#aeed383c88b7de8cd6711a4ee390516f1" target="_top" xlink:title=" ">
<polygon fill="white" stroke="#666666" points="336.5,-282 205,-282 205,-250 336.5,-250 336.5,-282"/>
<text text-anchor="start" x="213" y="-268.5" font-family="Helvetica,sans-Serif" font-size="10.00">GLESC::Physics::Physics</text>
<text text-anchor="middle" x="270.75" y="-256.5" font-family="Helvetica,sans-Serif" font-size="10.00">::getVelocity</text>
</a>
</g>
</g>
<!-- Node1&#45;&gt;Node8 -->
<g id="edge7_Node000001_Node000008" class="edge">
<title>Node1&#45;&gt;Node8</title>
<g id="a_edge7_Node000001_Node000008"><a xlink:title=" ">
<path fill="none" stroke="#63b8ff" d="M169.27,-279.63C177.35,-278.54 185.51,-277.43 193.51,-276.35"/>
<polygon fill="#63b8ff" stroke="#63b8ff" points="193.74,-279.85 203.18,-275.03 192.8,-272.91 193.74,-279.85"/>
</a>
</g>
</g>
<!-- Node9 -->
<g id="Node000009" class="node">
<title>Node9</title>
<g id="a_Node000009"><a xlink:href="class_g_l_e_s_c_1_1_physics_1_1_physics.html#a91de5d378ee31aaa79e59862a66d59dc" target="_top" xlink:title=" ">
<polygon fill="white" stroke="#666666" points="336.5,-232 205,-232 205,-200 336.5,-200 336.5,-232"/>
<text text-anchor="start" x="213" y="-218.5" font-family="Helvetica,sans-Serif" font-size="10.00">GLESC::Physics::Physics</text>
<text text-anchor="middle" x="270.75" y="-206.5" font-family="Helvetica,sans-Serif" font-size="10.00">::isAffectedByGravity</text>
</a>
</g>
</g>
<!-- Node1&#45;&gt;Node9 -->
<g id="edge8_Node000001_Node000009" class="edge">
<title>Node1&#45;&gt;Node9</title>
<g id="a_edge8_Node000001_Node000009"><a xlink:title=" ">
<path fill="none" stroke="#63b8ff" d="M124.14,-274.51C147.48,-264.63 177.88,-251.91 205,-241 208.63,-239.54 212.38,-238.05 216.17,-236.55"/>
<polygon fill="#63b8ff" stroke="#63b8ff" points="217.4,-239.83 225.43,-232.93 214.85,-233.31 217.4,-239.83"/>
</a>
</g>
</g>
<!-- Node10 -->
<g id="Node000010" class="node">
<title>Node10</title>
<g id="a_Node000010"><a xlink:href="class_g_l_e_s_c_1_1_physics_1_1_physics.html#a5b219f3bad20152277aa986c50d9a827" target="_top" xlink:title=" ">
<polygon fill="white" stroke="#666666" points="336.5,-182 205,-182 205,-150 336.5,-150 336.5,-182"/>
<text text-anchor="start" x="213" y="-168.5" font-family="Helvetica,sans-Serif" font-size="10.00">GLESC::Physics::Physics</text>
<text text-anchor="middle" x="270.75" y="-156.5" font-family="Helvetica,sans-Serif" font-size="10.00">::isStatic</text>
</a>
</g>
</g>
<!-- Node1&#45;&gt;Node10 -->
<g id="edge9_Node000001_Node000010" class="edge">
<title>Node1&#45;&gt;Node10</title>
<g id="a_edge9_Node000001_Node000010"><a xlink:title=" ">
<path fill="none" stroke="#63b8ff" d="M101.57,-274.52C123.35,-252.94 164.22,-215.04 205,-191 207.15,-189.73 209.38,-188.51 211.65,-187.32"/>
<polygon fill="#63b8ff" stroke="#63b8ff" points="213.01,-190.56 220.51,-183.07 209.98,-184.25 213.01,-190.56"/>
</a>
</g>
</g>
<!-- Node11 -->
<g id="Node000011" class="node">
<title>Node11</title>
<g id="a_Node000011"><a xlink:href="class_g_l_e_s_c_1_1_physics_1_1_physics.html#ada4e4ed5e76c8615ef54ba392cb2ed23" target="_top" xlink:title=" ">
<polygon fill="white" stroke="#666666" points="336.5,-132 205,-132 205,-100 336.5,-100 336.5,-132"/>
<text text-anchor="start" x="213" y="-118.5" font-family="Helvetica,sans-Serif" font-size="10.00">GLESC::Physics::Physics</text>
<text text-anchor="middle" x="270.75" y="-106.5" font-family="Helvetica,sans-Serif" font-size="10.00">::setAcceleration</text>
</a>
</g>
</g>
<!-- Node1&#45;&gt;Node11 -->
<g id="edge10_Node000001_Node000011" class="edge">
<title>Node1&#45;&gt;Node11</title>
<g id="a_edge10_Node000001_Node000011"><a xlink:title=" ">
<path fill="none" stroke="#63b8ff" d="M94.51,-274.66C112.02,-244.29 153.47,-178.83 205,-141 206.37,-140 207.78,-139.03 209.22,-138.09"/>
<polygon fill="#63b8ff" stroke="#63b8ff" points="210.93,-141.15 217.89,-133.16 207.47,-135.07 210.93,-141.15"/>
</a>
</g>
</g>
<!-- Node12 -->
<g id="Node000012" class="node">
<title>Node12</title>
<g id="a_Node000012"><a xlink:href="class_g_l_e_s_c_1_1_physics_1_1_physics.html#a07201d9b062d3282415a37a02dfcf7ba" target="_top" xlink:title=" ">
<polygon fill="white" stroke="#666666" points="336.5,-82 205,-82 205,-50 336.5,-50 336.5,-82"/>
<text text-anchor="start" x="213" y="-68.5" font-family="Helvetica,sans-Serif" font-size="10.00">GLESC::Physics::Physics</text>
<text text-anchor="middle" x="270.75" y="-56.5" font-family="Helvetica,sans-Serif" font-size="10.00">::setForce</text>
</a>
</g>
</g>
<!-- Node1&#45;&gt;Node12 -->
<g id="edge11_Node000001_Node000012" class="edge">
<title>Node1&#45;&gt;Node12</title>
<g id="a_edge11_Node000001_Node000012"><a xlink:title=" ">
<path fill="none" stroke="#63b8ff" d="M91.07,-274.53C104.62,-236.81 142.84,-143.4 205,-91 206.09,-90.08 207.21,-89.2 208.37,-88.34"/>
<polygon fill="#63b8ff" stroke="#63b8ff" points="209.93,-91.5 216.49,-83.18 206.18,-85.59 209.93,-91.5"/>
</a>
</g>
</g>
<!-- Node13 -->
<g id="Node000013" class="node">
<title>Node13</title>
<g id="a_Node000013"><a xlink:href="class_g_l_e_s_c_1_1_physics_1_1_physics.html#a287320c54b7811781366b7e65f071cc5" target="_top" xlink:title=" ">
<polygon fill="white" stroke="#666666" points="336.5,-32 205,-32 205,0 336.5,0 336.5,-32"/>
<text text-anchor="start" x="213" y="-18.5" font-family="Helvetica,sans-Serif" font-size="10.00">GLESC::Physics::Physics</text>
<text text-anchor="middle" x="270.75" y="-6.5" font-family="Helvetica,sans-Serif" font-size="10.00">::setVelocity</text>
</a>
</g>
</g>
<!-- Node1&#45;&gt;Node13 -->
<g id="edge12_Node000001_Node000013" class="edge">
<title>Node1&#45;&gt;Node13</title>
<g id="a_edge12_Node000001_Node000013"><a xlink:title=" ">
<path fill="none" stroke="#63b8ff" d="M88.85,-274.78C98.73,-230.94 131.74,-108.8 205,-41 205.77,-40.28 206.57,-39.59 207.39,-38.91"/>
<polygon fill="#63b8ff" stroke="#63b8ff" points="209.35,-41.81 215.56,-33.23 205.35,-36.06 209.35,-41.81"/>
</a>
</g>
</g>
</g>
</svg>

<g id="navigator" transform="translate(0 0)" fill="#404254">
  <rect fill="#f2f5e9" fill-opacity="0.5" stroke="#606060" stroke-width=".5" x="0" y="0" width="60" height="60"/>
  <use id="zoomplus" xlink:href="#zoomPlus" x="17" y="9" onmousedown="handleZoom(evt,'in')"/>
  <use id="zoomminus" xlink:href="#zoomMin" x="42" y="9" onmousedown="handleZoom(evt,'out')"/>
  <use id="reset" xlink:href="#resetDef" x="30" y="36" onmousedown="handleReset()"/>
   <use id="arrowup" xlink:href="#arrowUp" x="0" y="0" onmousedown="handlePan(0,-1)"/>
  <use id="arrowright" xlink:href="#arrowRight" x="0" y="0" onmousedown="handlePan(1,0)"/>
  <use id="arrowdown" xlink:href="#arrowDown" x="0" y="0" onmousedown="handlePan(0,1)"/>
  <use id="arrowleft" xlink:href="#arrowLeft" x="0" y="0" onmousedown="handlePan(-1,0)"/>
</g>
<svg viewBox="0 0 15 15" width="100%" height="30px" preserveAspectRatio="xMaxYMin meet">
 <g id="arrow_out" transform="scale(0.3 0.3)">
  <a xlink:href="class_g_l_e_s_c_1_1_physics_1_1_physics_manager_aff94c29e196b44f7b59dce720b427379_cgraph_org.svg" target="_base">
   <rect id="button" ry="5" rx="5" y="6" x="6" height="38" width="38"
        fill="#f2f5e9" fill-opacity="0.5" stroke="#606060" stroke-width="1.0"/>
   <path id="arrow"
     d="M 11.500037,31.436501 C 11.940474,20.09759 22.043105,11.32322 32.158766,21.979434 L 37.068811,17.246167 C 37.068811,17.246167 37.088388,32 37.088388,32 L 22.160133,31.978069 C 22.160133,31.978069 26.997745,27.140456 26.997745,27.140456 C 18.528582,18.264221 13.291696,25.230495 11.500037,31.436501 z"
     style="fill:#404040;"/>
  </a>
 </g>
</svg>

<style type='text/css'>
<![CDATA[
[data-mouse-over-selected='false'] { opacity: 0.7; }
[data-mouse-over-selected='true']  { opacity: 1.0; }
]]>
</style>
<script type="application/ecmascript"><![CDATA[
document.addEventListener('DOMContentLoaded', (event) => {
  highlightEdges();
  highlightAdjacentNodes();
});
]]></script>
</svg>
