<?xml version="1.0" encoding="UTF-8" standalone="no"?>
<!DOCTYPE svg PUBLIC "-//W3C//DTD SVG 1.1//EN"
 "http://www.w3.org/Graphics/SVG/1.1/DTD/svg11.dtd">
<!-- Generated by graphviz version 11.0.0 (20240428.1522)
 -->
<!-- Title: GLESC::Math::MatrixAlgorithms::calculateProjectionMatrix Pages: 1 -->
<svg width="741pt" height="119pt"
 viewBox="0.00 0.00 741.00 119.00" xmlns="http://www.w3.org/2000/svg" xmlns:xlink="http://www.w3.org/1999/xlink">
<g id="graph0" class="graph" transform="scale(1 1) rotate(0) translate(4 115)">
<title>GLESC::Math::MatrixAlgorithms::calculateProjectionMatrix</title>
<!-- Node1 -->
<g id="Node000001" class="node">
<title>Node1</title>
<g id="a_Node000001"><a xlink:title="Calculates the perspective projection matrix.">
<polygon fill="#999999" stroke="#666666" points="156.25,-48 0,-48 0,-16 156.25,-16 156.25,-48"/>
<text text-anchor="start" x="8" y="-34.5" font-family="Helvetica,sans-Serif" font-size="10.00">GLESC::Math::MatrixAlgorithms</text>
<text text-anchor="middle" x="78.12" y="-22.5" font-family="Helvetica,sans-Serif" font-size="10.00">::calculateProjectionMatrix</text>
</a>
</g>
</g>
<!-- Node2 -->
<g id="Node000002" class="node">
<title>Node2</title>
<g id="a_Node000002"><a xlink:href="class_g_l_e_s_c_1_1_math_1_1_matrix_algorithms.html#a7d6f055c4124609ce2807b3d9d7b4330" target="_top" xlink:title="Calculates the perspective projection matrix.">
<polygon fill="white" stroke="#666666" points="348.5,-70 192.25,-70 192.25,-38 348.5,-38 348.5,-70"/>
<text text-anchor="start" x="200.25" y="-56.5" font-family="Helvetica,sans-Serif" font-size="10.00">GLESC::Math::MatrixAlgorithms</text>
<text text-anchor="middle" x="270.38" y="-44.5" font-family="Helvetica,sans-Serif" font-size="10.00">::perspective</text>
</a>
</g>
</g>
<!-- Node1&#45;&gt;Node2 -->
<g id="edge1_Node000001_Node000002" class="edge">
<title>Node1&#45;&gt;Node2</title>
<g id="a_edge1_Node000001_Node000002"><a xlink:title=" ">
<path fill="none" stroke="#63b8ff" d="M156.51,-40.95C164.41,-41.86 172.48,-42.8 180.49,-43.72"/>
<polygon fill="#63b8ff" stroke="#63b8ff" points="179.91,-47.18 190.25,-44.85 180.72,-40.22 179.91,-47.18"/>
</a>
</g>
</g>
<!-- Node6 -->
<g id="Node000006" class="node">
<title>Node6</title>
<g id="a_Node000006"><a xlink:href="namespace_g_l_e_s_c_1_1_math.html#a980ed967f85bef4bb539c9701701a877" target="_top" xlink:title="Converts degrees to radians.">
<polygon fill="white" stroke="#666666" points="327.5,-20 213.25,-20 213.25,0 327.5,0 327.5,-20"/>
<text text-anchor="middle" x="270.38" y="-6.5" font-family="Helvetica,sans-Serif" font-size="10.00">GLESC::Math::radians</text>
</a>
</g>
</g>
<!-- Node1&#45;&gt;Node6 -->
<g id="edge5_Node000001_Node000006" class="edge">
<title>Node1&#45;&gt;Node6</title>
<g id="a_edge5_Node000001_Node000006"><a xlink:title=" ">
<path fill="none" stroke="#63b8ff" d="M156.51,-23.05C171.36,-21.33 186.82,-19.55 201.35,-17.87"/>
<polygon fill="#63b8ff" stroke="#63b8ff" points="201.74,-21.34 211.27,-16.72 200.94,-14.39 201.74,-21.34"/>
</a>
</g>
</g>
<!-- Node3 -->
<g id="Node000003" class="node">
<title>Node3</title>
<g id="a_Node000003"><a xlink:href="class_g_l_e_s_c_1_1_math_1_1_matrix_algorithms.html#a053f9441ed78e43be28efcca0fc34283" target="_top" xlink:title="Sets the values of a matrix to zero.">
<polygon fill="white" stroke="#666666" points="540.75,-111 384.5,-111 384.5,-79 540.75,-79 540.75,-111"/>
<text text-anchor="start" x="392.5" y="-97.5" font-family="Helvetica,sans-Serif" font-size="10.00">GLESC::Math::MatrixAlgorithms</text>
<text text-anchor="middle" x="462.62" y="-85.5" font-family="Helvetica,sans-Serif" font-size="10.00">::setMatrixZero</text>
</a>
</g>
</g>
<!-- Node2&#45;&gt;Node3 -->
<g id="edge2_Node000002_Node000003" class="edge">
<title>Node2&#45;&gt;Node3</title>
<g id="a_edge2_Node000002_Node000003"><a xlink:title=" ">
<path fill="none" stroke="#63b8ff" d="M347.93,-70.5C356.57,-72.36 365.43,-74.27 374.19,-76.16"/>
<polygon fill="#63b8ff" stroke="#63b8ff" points="373.23,-79.53 383.74,-78.22 374.7,-72.69 373.23,-79.53"/>
</a>
</g>
</g>
<!-- Node5 -->
<g id="Node000005" class="node">
<title>Node5</title>
<g id="a_Node000005"><a xlink:href="namespace_g_l_e_s_c_1_1_math.html#ae2c49469cf208bcce223d30a293d1f0a" target="_top" xlink:title="Calculates the tangent of a value.">
<polygon fill="white" stroke="#666666" points="510.75,-61 414.5,-61 414.5,-41 510.75,-41 510.75,-61"/>
<text text-anchor="middle" x="462.62" y="-47.5" font-family="Helvetica,sans-Serif" font-size="10.00">GLESC::Math::tan</text>
</a>
</g>
</g>
<!-- Node2&#45;&gt;Node5 -->
<g id="edge4_Node000002_Node000005" class="edge">
<title>Node2&#45;&gt;Node5</title>
<g id="a_edge4_Node000002_Node000005"><a xlink:title=" ">
<path fill="none" stroke="#63b8ff" d="M348.76,-52.78C366.73,-52.5 385.57,-52.2 402.61,-51.93"/>
<polygon fill="#63b8ff" stroke="#63b8ff" points="402.62,-55.43 412.56,-51.77 402.51,-48.43 402.62,-55.43"/>
</a>
</g>
</g>
<!-- Node4 -->
<g id="Node000004" class="node">
<title>Node4</title>
<g id="a_Node000004"><a xlink:href="class_g_l_e_s_c_1_1_math_1_1_matrix_algorithms.html#a555b3e0f1eb9a546ec47951fa0f5e8da" target="_top" xlink:title="Sets the values of a matrix to one.">
<polygon fill="white" stroke="#666666" points="733,-111 576.75,-111 576.75,-79 733,-79 733,-111"/>
<text text-anchor="start" x="584.75" y="-97.5" font-family="Helvetica,sans-Serif" font-size="10.00">GLESC::Math::MatrixAlgorithms</text>
<text text-anchor="middle" x="654.88" y="-85.5" font-family="Helvetica,sans-Serif" font-size="10.00">::fillMatrix</text>
</a>
</g>
</g>
<!-- Node3&#45;&gt;Node4 -->
<g id="edge3_Node000003_Node000004" class="edge">
<title>Node3&#45;&gt;Node4</title>
<g id="a_edge3_Node000003_Node000004"><a xlink:title=" ">
<path fill="none" stroke="#63b8ff" d="M541.01,-95C548.91,-95 556.98,-95 564.99,-95"/>
<polygon fill="#63b8ff" stroke="#63b8ff" points="564.74,-98.5 574.74,-95 564.74,-91.5 564.74,-98.5"/>
</a>
</g>
</g>
<!-- Node7 -->
<g id="Node000007" class="node">
<title>Node7</title>
<g id="a_Node000007"><a xlink:href="namespace_g_l_e_s_c_1_1_math.html#a69598a72ef2c06e1caba0ea9613d65e6" target="_top" xlink:title="Converts radians to degrees.">
<polygon fill="white" stroke="#666666" points="521.25,-20 404,-20 404,0 521.25,0 521.25,-20"/>
<text text-anchor="middle" x="462.62" y="-6.5" font-family="Helvetica,sans-Serif" font-size="10.00">GLESC::Math::degrees</text>
</a>
</g>
</g>
<!-- Node6&#45;&gt;Node7 -->
<g id="edge6_Node000006_Node000007" class="edge">
<title>Node6&#45;&gt;Node7</title>
<g id="a_edge6_Node000006_Node000007"><a xlink:title=" ">
<path fill="none" stroke="#63b8ff" d="M327.94,-3.77C348.09,-3.2 371.01,-3.1 392.12,-3.47"/>
<polygon fill="#63b8ff" stroke="#63b8ff" points="392.04,-6.97 402.12,-3.7 392.2,0.03 392.04,-6.97"/>
</a>
</g>
</g>
<!-- Node7&#45;&gt;Node6 -->
<g id="edge7_Node000007_Node000006" class="edge">
<title>Node7&#45;&gt;Node6</title>
<g id="a_edge7_Node000007_Node000006"><a xlink:title=" ">
<path fill="none" stroke="#63b8ff" d="M403.63,-16.27C383.35,-16.82 360.41,-16.9 339.39,-16.5"/>
<polygon fill="#63b8ff" stroke="#63b8ff" points="339.53,-13 329.45,-16.27 339.37,-20 339.53,-13"/>
</a>
</g>
</g>
</g>
</svg>
