<?xml version="1.0" encoding="UTF-8" standalone="no"?>
<!DOCTYPE svg PUBLIC "-//W3C//DTD SVG 1.1//EN"
 "http://www.w3.org/Graphics/SVG/1.1/DTD/svg11.dtd">
<!-- Generated by graphviz version 11.0.0 (20240428.1522)
 -->
<!-- Title: BaseException Pages: 1 -->
<svg width="190pt" height="288pt"
 viewBox="0.00 0.00 190.00 288.00" xmlns="http://www.w3.org/2000/svg" xmlns:xlink="http://www.w3.org/1999/xlink">

<svg id="main" version="1.1" xmlns="http://www.w3.org/2000/svg" xmlns:xlink="http://www.w3.org/1999/xlink" xml:space="preserve" onload="init(evt)">
<style type="text/css"><![CDATA[
.node, .edge {opacity: 0.7;}
.node.selected, .edge.selected {opacity: 1;}
.edge:hover path { stroke: red; }
.edge:hover polygon { stroke: red; fill: red; }
]]></style>
<script type="application/ecmascript" xlink:href="svg.min.js"/>
<svg id="graph" class="graph">
<g id="graph0" class="graph" transform="scale(1 1) rotate(0) translate(4 284)">
<title>BaseException</title>
<!-- Node1 -->
<g id="Node000001" class="node">
<title>Node1</title>
<g id="a_Node000001"><a xlink:title=" ">
<polygon fill="#999999" stroke="none" points="130.5,-68 41.5,-68 41.5,0 130.5,0 130.5,-68"/>
<text text-anchor="start" x="53" y="-54.5" font-family="Helvetica,sans-Serif" font-size="10.00">BaseException</text>
<text text-anchor="start" x="84.5" y="-38.5" font-family="Helvetica,sans-Serif" font-size="10.00"> </text>
<text text-anchor="start" x="45.38" y="-22.5" font-family="Helvetica,sans-Serif" font-size="10.00">#</text>
<text text-anchor="start" x="54.5" y="-22.5" font-family="Helvetica,sans-Serif" font-size="10.00">BaseException()</text>
<text text-anchor="start" x="45.38" y="-6.5" font-family="Helvetica,sans-Serif" font-size="10.00">#</text>
<text text-anchor="start" x="54.5" y="-6.5" font-family="Helvetica,sans-Serif" font-size="10.00">what()</text>
<polygon fill="#666666" stroke="#666666" points="41.5,-50 41.5,-50 130.5,-50 130.5,-50 41.5,-50"/>
<polygon fill="#666666" stroke="#666666" points="41.5,-34 41.5,-34 130.5,-34 130.5,-34 41.5,-34"/>
<polygon fill="none" stroke="#666666" points="41.5,0 41.5,-68 130.5,-68 130.5,0 41.5,0"/>
</a>
</g>
</g>
<!-- Node2 -->
<g id="Node000002" class="node">
<title>Node2</title>
<g id="a_Node000002"><a xlink:title=" ">
<polygon fill="white" stroke="none" points="86,-180 0,-180 0,-128 86,-128 86,-180"/>
<text text-anchor="start" x="4.75" y="-166.5" font-family="Helvetica,sans-Serif" font-size="10.00">std::runtime_error</text>
<text text-anchor="start" x="41.5" y="-150.5" font-family="Helvetica,sans-Serif" font-size="10.00"> </text>
<text text-anchor="start" x="41.5" y="-134.5" font-family="Helvetica,sans-Serif" font-size="10.00"> </text>
<polygon fill="#666666" stroke="#666666" points="0,-162 0,-162 86,-162 86,-162 0,-162"/>
<polygon fill="#666666" stroke="#666666" points="0,-146 0,-146 86,-146 86,-146 0,-146"/>
<polygon fill="none" stroke="#666666" points="0,-128 0,-180 86,-180 86,-128 0,-128"/>
</a>
</g>
</g>
<!-- Node2&#45;&gt;Node1 -->
<g id="edge1_Node000001_Node000002" class="edge">
<title>Node2&#45;&gt;Node1</title>
<g id="a_edge1_Node000001_Node000002"><a xlink:title=" ">
<path fill="none" stroke="#63b8ff" d="M55.83,-117.8C61.61,-101.94 68.39,-83.33 74.06,-67.77"/>
<polygon fill="none" stroke="#63b8ff" points="52.67,-116.25 52.53,-126.84 59.24,-118.64 52.67,-116.25"/>
</a>
</g>
</g>
<!-- Node3 -->
<g id="Node000003" class="node">
<title>Node3</title>
<g id="a_Node000003"><a xlink:title=" ">
<polygon fill="white" stroke="none" points="75.5,-274 4.5,-274 4.5,-222 75.5,-222 75.5,-274"/>
<text text-anchor="start" x="9.25" y="-260.5" font-family="Helvetica,sans-Serif" font-size="10.00">std::exception</text>
<text text-anchor="start" x="38.5" y="-244.5" font-family="Helvetica,sans-Serif" font-size="10.00"> </text>
<text text-anchor="start" x="38.5" y="-228.5" font-family="Helvetica,sans-Serif" font-size="10.00"> </text>
<polygon fill="#666666" stroke="#666666" points="4.5,-256 4.5,-256 75.5,-256 75.5,-256 4.5,-256"/>
<polygon fill="#666666" stroke="#666666" points="4.5,-240 4.5,-240 75.5,-240 75.5,-240 4.5,-240"/>
<polygon fill="none" stroke="#666666" points="4.5,-222 4.5,-274 75.5,-274 75.5,-222 4.5,-222"/>
</a>
</g>
</g>
<!-- Node3&#45;&gt;Node2 -->
<g id="edge2_Node000002_Node000003" class="edge">
<title>Node3&#45;&gt;Node2</title>
<g id="a_edge2_Node000002_Node000003"><a xlink:title=" ">
<path fill="none" stroke="#63b8ff" d="M41.18,-210.96C41.52,-200.5 41.88,-189.32 42.19,-179.72"/>
<polygon fill="none" stroke="#63b8ff" points="37.68,-210.72 40.85,-220.83 44.68,-210.95 37.68,-210.72"/>
</a>
</g>
</g>
<!-- Node4 -->
<g id="Node000004" class="node">
<title>Node4</title>
<g id="a_Node000004"><a xlink:title=" ">
<polygon fill="white" stroke="none" points="162.5,-180 109.5,-180 109.5,-128 162.5,-128 162.5,-180"/>
<text text-anchor="start" x="114.25" y="-166.5" font-family="Helvetica,sans-Serif" font-size="10.00">std::string</text>
<text text-anchor="start" x="134.5" y="-150.5" font-family="Helvetica,sans-Serif" font-size="10.00"> </text>
<text text-anchor="start" x="134.5" y="-134.5" font-family="Helvetica,sans-Serif" font-size="10.00"> </text>
<polygon fill="#666666" stroke="#666666" points="109.5,-162 109.5,-162 162.5,-162 162.5,-162 109.5,-162"/>
<polygon fill="#666666" stroke="#666666" points="109.5,-146 109.5,-146 162.5,-146 162.5,-146 109.5,-146"/>
<polygon fill="none" stroke="#666666" points="109.5,-128 109.5,-180 162.5,-180 162.5,-128 109.5,-128"/>
</a>
</g>
</g>
<!-- Node4&#45;&gt;Node1 -->
<g id="edge3_Node000001_Node000004" class="edge">
<title>Node4&#45;&gt;Node1</title>
<g id="a_edge3_Node000001_Node000004"><a xlink:title=" ">
<path fill="none" stroke="#63b8ff" d="M125.52,-128.26C119.53,-114.12 111.83,-95.97 104.83,-79.44"/>
<polygon fill="none" stroke="#63b8ff" points="104.92,-79.65 98.89,-75.68 100.24,-68.6 106.26,-72.56 104.92,-79.65"/>
</a>
</g>
<text text-anchor="middle" x="146" y="-100.5" font-family="Helvetica,sans-Serif" font-size="10.00" fill="grey"> #fullMessage</text>
<text text-anchor="middle" x="146" y="-88.5" font-family="Helvetica,sans-Serif" font-size="10.00" fill="grey">#stacktrace</text>
</g>
<!-- Node5 -->
<g id="Node000005" class="node">
<title>Node5</title>
<g id="a_Node000005"><a xlink:title=" ">
<polygon fill="white" stroke="none" points="182,-280 94,-280 94,-216 182,-216 182,-280"/>
<text text-anchor="start" x="99" y="-266.5" font-family="Helvetica,sans-Serif" font-size="10.00">std::basic_string&lt;</text>
<text text-anchor="start" x="121.88" y="-254.5" font-family="Helvetica,sans-Serif" font-size="10.00"> Char &gt;</text>
<text text-anchor="start" x="136.5" y="-238.5" font-family="Helvetica,sans-Serif" font-size="10.00"> </text>
<text text-anchor="start" x="136.5" y="-222.5" font-family="Helvetica,sans-Serif" font-size="10.00"> </text>
<polygon fill="#666666" stroke="#666666" points="94,-250 94,-250 182,-250 182,-250 94,-250"/>
<polygon fill="#666666" stroke="#666666" points="94,-234 94,-234 182,-234 182,-234 94,-234"/>
<polygon fill="none" stroke="#666666" points="94,-216 94,-280 182,-280 182,-216 94,-216"/>
</a>
</g>
</g>
<!-- Node5&#45;&gt;Node4 -->
<g id="edge4_Node000004_Node000005" class="edge">
<title>Node5&#45;&gt;Node4</title>
<g id="a_edge4_Node000004_Node000005"><a xlink:title=" ">
<path fill="none" stroke="#63b8ff" d="M137.08,-204.72C136.9,-196.21 136.71,-187.53 136.54,-179.86"/>
<polygon fill="none" stroke="#63b8ff" points="133.58,-204.67 137.3,-214.6 140.58,-204.52 133.58,-204.67"/>
</a>
</g>
</g>
</g>
</svg>
</svg>

<style type='text/css'>
<![CDATA[
[data-mouse-over-selected='false'] { opacity: 0.7; }
[data-mouse-over-selected='true']  { opacity: 1.0; }
]]>
</style>
<script type="application/ecmascript"><![CDATA[
document.addEventListener('DOMContentLoaded', (event) => {
  highlightEdges();
  highlightAdjacentNodes();
});
]]></script>
</svg>
