<?xml version="1.0" encoding="UTF-8" standalone="no"?>
<!DOCTYPE svg PUBLIC "-//W3C//DTD SVG 1.1//EN"
 "http://www.w3.org/Graphics/SVG/1.1/DTD/svg11.dtd">
<!-- Generated by graphviz version 11.0.0 (20240428.1522)
 -->
<!-- Title: GLESC::Math::MatrixAlgorithms::getTranslationMatrix Pages: 1 -->
<svg width="917pt" height="121pt"
 viewBox="0.00 0.00 917.00 121.00" xmlns="http://www.w3.org/2000/svg" xmlns:xlink="http://www.w3.org/1999/xlink">
<g id="graph0" class="graph" transform="scale(1 1) rotate(0) translate(4 117)">
<title>GLESC::Math::MatrixAlgorithms::getTranslationMatrix</title>
<!-- Node1 -->
<g id="Node000001" class="node">
<title>Node1</title>
<g id="a_Node000001"><a xlink:title="Applies the translation to a model matrix.">
<polygon fill="#999999" stroke="#666666" points="909,-85 752.75,-85 752.75,-53 909,-53 909,-85"/>
<text text-anchor="start" x="760.75" y="-71.5" font-family="Helvetica,sans-Serif" font-size="10.00">GLESC::Math::MatrixAlgorithms</text>
<text text-anchor="middle" x="830.88" y="-59.5" font-family="Helvetica,sans-Serif" font-size="10.00">::getTranslationMatrix</text>
</a>
</g>
</g>
<!-- Node2 -->
<g id="Node000002" class="node">
<title>Node2</title>
<g id="a_Node000002"><a xlink:href="class_g_l_e_s_c_1_1_math_1_1_matrix_mixed_algorithms.html#a485f02d22191da3635105401351ec519" target="_top" xlink:title="Calculate the model matrix from the position, rotation, and scale.">
<polygon fill="white" stroke="#666666" points="716.75,-113 556,-113 556,-81 716.75,-81 716.75,-113"/>
<text text-anchor="start" x="564" y="-99.5" font-family="Helvetica,sans-Serif" font-size="10.00">GLESC::Math::MatrixMixed</text>
<text text-anchor="middle" x="636.38" y="-87.5" font-family="Helvetica,sans-Serif" font-size="10.00">Algorithms::calculateModelMatrix</text>
</a>
</g>
</g>
<!-- Node1&#45;&gt;Node2 -->
<g id="edge1_Node000001_Node000002" class="edge">
<title>Node1&#45;&gt;Node2</title>
<g id="a_edge1_Node000001_Node000002"><a xlink:title=" ">
<path fill="none" stroke="#63b8ff" d="M741.17,-81.9C733.18,-83.07 725.11,-84.24 717.19,-85.39"/>
<polygon fill="#63b8ff" stroke="#63b8ff" points="741.52,-85.39 750.91,-80.49 740.51,-78.46 741.52,-85.39"/>
</a>
</g>
</g>
<!-- Node3 -->
<g id="Node000003" class="node">
<title>Node3</title>
<g id="a_Node000003"><a xlink:href="class_g_l_e_s_c_1_1_math_1_1_matrix_mixed_algorithms.html#a67bdda15ead970e5074845bdf3fcf085" target="_top" xlink:title=" ">
<polygon fill="white" stroke="#666666" points="714.12,-63 558.62,-63 558.62,-19 714.12,-19 714.12,-63"/>
<text text-anchor="start" x="566.62" y="-49.5" font-family="Helvetica,sans-Serif" font-size="10.00">GLESC::Math::MatrixMixed</text>
<text text-anchor="start" x="566.62" y="-37.5" font-family="Helvetica,sans-Serif" font-size="10.00">Algorithms::calculateViewMatrix</text>
<text text-anchor="middle" x="636.38" y="-25.5" font-family="Helvetica,sans-Serif" font-size="10.00">PosRot</text>
</a>
</g>
</g>
<!-- Node1&#45;&gt;Node3 -->
<g id="edge2_Node000001_Node000003" class="edge">
<title>Node1&#45;&gt;Node3</title>
<g id="a_edge2_Node000001_Node000003"><a xlink:title=" ">
<path fill="none" stroke="#63b8ff" d="M741.15,-56.09C732.21,-54.79 723.18,-53.48 714.37,-52.2"/>
<polygon fill="#63b8ff" stroke="#63b8ff" points="740.51,-59.54 750.91,-57.51 741.52,-52.61 740.51,-59.54"/>
</a>
</g>
</g>
<!-- Node4 -->
<g id="Node000004" class="node">
<title>Node4</title>
<g id="a_Node000004"><a xlink:href="class_g_l_e_s_c_1_1_math_1_1_matrix.html#a3c0812b3a24431dfc5bc68f394910d61" target="_top" xlink:title="Creates a view matrix from the given position and rotation vectors.">
<polygon fill="white" stroke="#666666" points="520,-57 393.75,-57 393.75,-25 520,-25 520,-57"/>
<text text-anchor="start" x="401.75" y="-43.5" font-family="Helvetica,sans-Serif" font-size="10.00">GLESC::Math::Matrix</text>
<text text-anchor="middle" x="456.88" y="-31.5" font-family="Helvetica,sans-Serif" font-size="10.00">::makeViewMatrixPosRot</text>
</a>
</g>
</g>
<!-- Node3&#45;&gt;Node4 -->
<g id="edge3_Node000003_Node000004" class="edge">
<title>Node3&#45;&gt;Node4</title>
<g id="a_edge3_Node000003_Node000004"><a xlink:title=" ">
<path fill="none" stroke="#63b8ff" d="M546.99,-41C538.04,-41 529.08,-41 520.49,-41"/>
<polygon fill="#63b8ff" stroke="#63b8ff" points="546.78,-44.5 556.78,-41 546.78,-37.5 546.78,-44.5"/>
</a>
</g>
</g>
<!-- Node5 -->
<g id="Node000005" class="node">
<title>Node5</title>
<g id="a_Node000005"><a xlink:href="class_g_l_e_s_c_1_1_render_1_1_renderer.html#aaa4f270fc41e2f2a1f9ce7b979376eb1" target="_top" xlink:title="Static method that creates the view matrix from a transform (transform of the camera)">
<polygon fill="white" stroke="#666666" points="357.75,-82 227,-82 227,-50 357.75,-50 357.75,-82"/>
<text text-anchor="start" x="235" y="-68.5" font-family="Helvetica,sans-Serif" font-size="10.00">GLESC::Render::Renderer</text>
<text text-anchor="middle" x="292.38" y="-56.5" font-family="Helvetica,sans-Serif" font-size="10.00">::createViewMatrix</text>
</a>
</g>
</g>
<!-- Node4&#45;&gt;Node5 -->
<g id="edge4_Node000004_Node000005" class="edge">
<title>Node4&#45;&gt;Node5</title>
<g id="a_edge4_Node000004_Node000005"><a xlink:title=" ">
<path fill="none" stroke="#63b8ff" d="M382.2,-52.34C374.12,-53.58 365.95,-54.84 357.99,-56.06"/>
<polygon fill="#63b8ff" stroke="#63b8ff" points="382.67,-55.8 392.02,-50.82 381.6,-48.89 382.67,-55.8"/>
</a>
</g>
</g>
<!-- Node6 -->
<g id="Node000006" class="node">
<title>Node6</title>
<g id="a_Node000006"><a xlink:href="class_g_l_e_s_c_1_1_render_1_1_renderer.html#a0f562e14a9fb4e13e03bc108b5dd1111" target="_top" xlink:title="This starts the frame of rendering.">
<polygon fill="white" stroke="#666666" points="357.75,-32 227,-32 227,0 357.75,0 357.75,-32"/>
<text text-anchor="start" x="235" y="-18.5" font-family="Helvetica,sans-Serif" font-size="10.00">GLESC::Render::Renderer</text>
<text text-anchor="middle" x="292.38" y="-6.5" font-family="Helvetica,sans-Serif" font-size="10.00">::start</text>
</a>
</g>
</g>
<!-- Node4&#45;&gt;Node6 -->
<g id="edge5_Node000004_Node000006" class="edge">
<title>Node4&#45;&gt;Node6</title>
<g id="a_edge5_Node000004_Node000006"><a xlink:title=" ">
<path fill="none" stroke="#63b8ff" d="M382.2,-29.66C374.12,-28.42 365.95,-27.16 357.99,-25.94"/>
<polygon fill="#63b8ff" stroke="#63b8ff" points="381.6,-33.11 392.02,-31.18 382.67,-26.2 381.6,-33.11"/>
</a>
</g>
</g>
<!-- Node7 -->
<g id="Node000007" class="node">
<title>Node7</title>
<g id="a_Node000007"><a xlink:href="class_g_l_e_s_c_1_1_engine.html#ab0a886855ca341089947b36b9c6f6e15" target="_top" xlink:title="Processes the rendering of the game Can be called at variable intervals of time as it uses elapsed.">
<polygon fill="white" stroke="#666666" points="191,-26 73,-26 73,-6 191,-6 191,-26"/>
<text text-anchor="middle" x="132" y="-12.5" font-family="Helvetica,sans-Serif" font-size="10.00">GLESC::Engine::render</text>
</a>
</g>
</g>
<!-- Node6&#45;&gt;Node7 -->
<g id="edge6_Node000006_Node000007" class="edge">
<title>Node6&#45;&gt;Node7</title>
<g id="a_edge6_Node000006_Node000007"><a xlink:title=" ">
<path fill="none" stroke="#63b8ff" d="M215.24,-16C207.23,-16 199.18,-16 191.42,-16"/>
<polygon fill="#63b8ff" stroke="#63b8ff" points="214.99,-19.5 224.99,-16 214.99,-12.5 214.99,-19.5"/>
</a>
</g>
</g>
<!-- Node8 -->
<g id="Node000008" class="node">
<title>Node8</title>
<g id="a_Node000008"><a xlink:href="main_8cpp.html#a0ddf1224851353fc92bfbff6f499fa97" target="_top" xlink:title=" ">
<polygon fill="white" stroke="#666666" points="37,-26 0,-26 0,-6 37,-6 37,-26"/>
<text text-anchor="middle" x="18.5" y="-12.5" font-family="Helvetica,sans-Serif" font-size="10.00">main</text>
</a>
</g>
</g>
<!-- Node7&#45;&gt;Node8 -->
<g id="edge7_Node000007_Node000008" class="edge">
<title>Node7&#45;&gt;Node8</title>
<g id="a_edge7_Node000007_Node000008"><a xlink:title=" ">
<path fill="none" stroke="#63b8ff" d="M61.31,-16C52.52,-16 44.22,-16 37.37,-16"/>
<polygon fill="#63b8ff" stroke="#63b8ff" points="61.12,-19.5 71.12,-16 61.12,-12.5 61.12,-19.5"/>
</a>
</g>
</g>
</g>
</svg>
