<?xml version="1.0" encoding="UTF-8" standalone="no"?>
<!DOCTYPE svg PUBLIC "-//W3C//DTD SVG 1.1//EN"
 "http://www.w3.org/Graphics/SVG/1.1/DTD/svg11.dtd">
<!-- Generated by graphviz version 11.0.0 (20240428.1522)
 -->
<!-- Title: GLESC::SoundPlayer::playSound Pages: 1 -->
<svg width="415pt" height="90pt"
 viewBox="0.00 0.00 415.25 90.00" xmlns="http://www.w3.org/2000/svg" xmlns:xlink="http://www.w3.org/1999/xlink">
<g id="graph0" class="graph" transform="scale(1 1) rotate(0) translate(4 86)">
<title>GLESC::SoundPlayer::playSound</title>
<!-- Node1 -->
<g id="Node000001" class="node">
<title>Node1</title>
<g id="a_Node000001"><a xlink:title="Play a sound.">
<polygon fill="#999999" stroke="#666666" points="110.5,-57 0,-57 0,-25 110.5,-25 110.5,-57"/>
<text text-anchor="start" x="8" y="-43.5" font-family="Helvetica,sans-Serif" font-size="10.00">GLESC::SoundPlayer</text>
<text text-anchor="middle" x="55.25" y="-31.5" font-family="Helvetica,sans-Serif" font-size="10.00">::playSound</text>
</a>
</g>
</g>
<!-- Node2 -->
<g id="Node000002" class="node">
<title>Node2</title>
<g id="a_Node000002"><a xlink:href="class_g_l_e_s_c_1_1_sound_loader.html#a7d8f17c839c3aeed9e1f39d7a0c9b7d2" target="_top" xlink:title="Gets a sound by name.">
<polygon fill="white" stroke="#666666" points="258.5,-82 146.5,-82 146.5,-50 258.5,-50 258.5,-82"/>
<text text-anchor="start" x="154.5" y="-68.5" font-family="Helvetica,sans-Serif" font-size="10.00">GLESC::SoundLoader</text>
<text text-anchor="middle" x="202.5" y="-56.5" font-family="Helvetica,sans-Serif" font-size="10.00">::getSound</text>
</a>
</g>
</g>
<!-- Node1&#45;&gt;Node2 -->
<g id="edge1_Node000001_Node000002" class="edge">
<title>Node1&#45;&gt;Node2</title>
<g id="a_edge1_Node000001_Node000002"><a xlink:title=" ">
<path fill="none" stroke="#63b8ff" d="M110.75,-50.38C118.63,-51.74 126.81,-53.14 134.89,-54.54"/>
<polygon fill="#63b8ff" stroke="#63b8ff" points="134.27,-57.98 144.72,-56.23 135.46,-51.08 134.27,-57.98"/>
</a>
</g>
</g>
<!-- Node4 -->
<g id="Node000004" class="node">
<title>Node4</title>
<g id="a_Node000004"><a xlink:href="class_g_l_e_s_c_1_1_sound_player.html#a27978a079c31197b1079bbdc9ac5eecd" target="_top" xlink:title="Set the volume of the music.">
<polygon fill="white" stroke="#666666" points="257.75,-32 147.25,-32 147.25,0 257.75,0 257.75,-32"/>
<text text-anchor="start" x="155.25" y="-18.5" font-family="Helvetica,sans-Serif" font-size="10.00">GLESC::SoundPlayer</text>
<text text-anchor="middle" x="202.5" y="-6.5" font-family="Helvetica,sans-Serif" font-size="10.00">::setMusicVolume</text>
</a>
</g>
</g>
<!-- Node1&#45;&gt;Node4 -->
<g id="edge3_Node000001_Node000004" class="edge">
<title>Node1&#45;&gt;Node4</title>
<g id="a_edge3_Node000001_Node000004"><a xlink:title=" ">
<path fill="none" stroke="#63b8ff" d="M110.75,-31.62C118.94,-30.21 127.46,-28.74 135.85,-27.3"/>
<polygon fill="#63b8ff" stroke="#63b8ff" points="136.43,-30.75 145.69,-25.61 135.24,-23.85 136.43,-30.75"/>
</a>
</g>
</g>
<!-- Node3 -->
<g id="Node000003" class="node">
<title>Node3</title>
<g id="a_Node000003"><a xlink:href="namespace_g_l_e_s_c_1_1_hasher.html#ab698a0c9b11ea6e42ab7739d75da38f2" target="_top" xlink:title=" ">
<polygon fill="white" stroke="#666666" points="407.25,-76 294.5,-76 294.5,-56 407.25,-56 407.25,-76"/>
<text text-anchor="middle" x="350.88" y="-62.5" font-family="Helvetica,sans-Serif" font-size="10.00">GLESC::Hasher::hash</text>
</a>
</g>
</g>
<!-- Node2&#45;&gt;Node3 -->
<g id="edge2_Node000002_Node000003" class="edge">
<title>Node2&#45;&gt;Node3</title>
<g id="a_edge2_Node000002_Node000003"><a xlink:title=" ">
<path fill="none" stroke="#63b8ff" d="M258.84,-66C266.76,-66 274.98,-66 283.1,-66"/>
<polygon fill="#63b8ff" stroke="#63b8ff" points="282.95,-69.5 292.95,-66 282.95,-62.5 282.95,-69.5"/>
</a>
</g>
</g>
</g>
</svg>
