<?xml version="1.0" encoding="UTF-8" standalone="no"?>
<!DOCTYPE svg PUBLIC "-//W3C//DTD SVG 1.1//EN"
 "http://www.w3.org/Graphics/SVG/1.1/DTD/svg11.dtd">
<!-- Generated by graphviz version 11.0.0 (20240428.1522)
 -->
<!-- Title: GLESC::Render::MeshFactory::sphere Pages: 1 -->
<!--zoomable 302 -->

<svg id="main" version="1.1" xmlns="http://www.w3.org/2000/svg" xmlns:xlink="http://www.w3.org/1999/xlink" xml:space="preserve" onload="init(evt)">
<style type="text/css"><![CDATA[
.node, .edge {opacity: 0.7;}
.node.selected, .edge.selected {opacity: 1;}
.edge:hover path { stroke: red; }
.edge:hover polygon { stroke: red; fill: red; }
]]></style>

<defs>
  <circle id="rim" cx="0" cy="0" r="7"/>
  <circle id="rim2" cx="0" cy="0" r="3.5"/>
  <g id="zoomPlus">
    <use xlink:href="#rim" fill="#404040"><set attributeName="fill" to="#808080" begin="zoomplus.mouseover" end="zoomplus.mouseout"/></use>
    <path d="M-4,0h8M0,-4v8" fill="none" stroke="white" stroke-width="1.5" pointer-events="none"/>
  </g>
  <g id="zoomMin">
    <use xlink:href="#rim" fill="#404040"><set attributeName="fill" to="#808080" begin="zoomminus.mouseover" end="zoomminus.mouseout"/></use>
    <path d="M-4,0h8" fill="none" stroke="white" stroke-width="1.5" pointer-events="none"/>
  </g>
  <g id="arrowUp" transform="translate(30 24)">
    <use xlink:href="#rim"/>
    <path pointer-events="none" fill="none" stroke="white" stroke-width="1.5" d="M0,-3.0v7 M-2.5,-0.5L0,-3.0L2.5,-0.5"/>
  </g>
  <g id="arrowRight" transform="rotate(90) translate(36 -43)">
    <use xlink:href="#rim"/>
    <path pointer-events="none" fill="none" stroke="white" stroke-width="1.5" d="M0,-3.0v7 M-2.5,-0.5L0,-3.0L2.5,-0.5"/>
  </g>
  <g id="arrowDown" transform="rotate(180) translate(-30 -48)">
    <use xlink:href="#rim"/>
    <path pointer-events="none" fill="none" stroke="white" stroke-width="1.5" d="M0,-3.0v7 M-2.5,-0.5L0,-3.0L2.5,-0.5"/>
  </g>
  <g id="arrowLeft" transform="rotate(270) translate(-36 17)">
    <use xlink:href="#rim"/>
    <path pointer-events="none" fill="none" stroke="white" stroke-width="1.5" d="M0,-3.0v7 M-2.5,-0.5L0,-3.0L2.5,-0.5"/>
  </g>
  <g id="resetDef">
    <use xlink:href="#rim2" fill="#404040"><set attributeName="fill" to="#808080" begin="reset.mouseover" end="reset.mouseout"/></use>
  </g>
</defs>
<script type="application/ecmascript">
var viewWidth = 842;
var viewHeight = 302;
var sectionId = 'dynsection-6';
</script>
<script type="application/ecmascript" xlink:href="svg.min.js"/>
<svg id="graph" class="graph">
<g id="viewport">
<title>GLESC::Render::MeshFactory::sphere</title>
<!-- Node1 -->
<g id="Node000001" class="node">
<title>Node1</title>
<g id="a_Node000001"><a xlink:title="Creates a sphere mesh given a number of slices, stacks, a radius and a color.">
<polygon fill="#999999" stroke="#666666" points="148.75,-142 0,-142 0,-110 148.75,-110 148.75,-142"/>
<text text-anchor="start" x="8" y="-128.5" font-family="Helvetica,sans-Serif" font-size="10.00">GLESC::Render::MeshFactory</text>
<text text-anchor="middle" x="74.38" y="-116.5" font-family="Helvetica,sans-Serif" font-size="10.00">::sphere</text>
</a>
</g>
</g>
<!-- Node2 -->
<g id="Node000002" class="node">
<title>Node2</title>
<g id="a_Node000002"><a xlink:href="class_g_l_e_s_c_1_1_render_1_1_mesh.html#a2ad7899a1de4ee74a10854158b601a2c" target="_top" xlink:title="Adds a quad to the mesh, quads are defined by 4 vertices.">
<polygon fill="white" stroke="#666666" points="300.5,-276 184.75,-276 184.75,-244 300.5,-244 300.5,-276"/>
<text text-anchor="start" x="192.75" y="-262.5" font-family="Helvetica,sans-Serif" font-size="10.00">GLESC::Render::Mesh</text>
<text text-anchor="middle" x="242.62" y="-250.5" font-family="Helvetica,sans-Serif" font-size="10.00">::addQuad</text>
</a>
</g>
</g>
<!-- Node1&#45;&gt;Node2 -->
<g id="edge1_Node000001_Node000002" class="edge">
<title>Node1&#45;&gt;Node2</title>
<g id="a_edge1_Node000001_Node000002"><a xlink:title=" ">
<path fill="none" stroke="#63b8ff" d="M88.35,-142.31C107.43,-165.44 145.12,-207.95 184.75,-235 186.31,-236.07 187.93,-237.1 189.58,-238.11"/>
<polygon fill="#63b8ff" stroke="#63b8ff" points="187.6,-241.01 198.04,-242.81 191,-234.9 187.6,-241.01"/>
</a>
</g>
</g>
<!-- Node7 -->
<g id="Node000007" class="node">
<title>Node7</title>
<g id="a_Node000007"><a xlink:href="class_g_l_e_s_c_1_1_render_1_1_mesh.html#ad2308e9137f51614b5d46416bc01deef" target="_top" xlink:title="Adds a tris to the mesh, tris are defined by 3 vertices.">
<polygon fill="white" stroke="#666666" points="300.5,-208 184.75,-208 184.75,-176 300.5,-176 300.5,-208"/>
<text text-anchor="start" x="192.75" y="-194.5" font-family="Helvetica,sans-Serif" font-size="10.00">GLESC::Render::Mesh</text>
<text text-anchor="middle" x="242.62" y="-182.5" font-family="Helvetica,sans-Serif" font-size="10.00">::addTris</text>
</a>
</g>
</g>
<!-- Node1&#45;&gt;Node7 -->
<g id="edge7_Node000001_Node000007" class="edge">
<title>Node1&#45;&gt;Node7</title>
<g id="a_edge7_Node000001_Node000007"><a xlink:title=" ">
<path fill="none" stroke="#63b8ff" d="M116.9,-142.48C139,-151.26 166.39,-162.13 189.87,-171.45"/>
<polygon fill="#63b8ff" stroke="#63b8ff" points="188.35,-174.62 198.94,-175.05 190.93,-168.11 188.35,-174.62"/>
</a>
</g>
</g>
<!-- Node8 -->
<g id="Node000008" class="node">
<title>Node8</title>
<g id="a_Node000008"><a xlink:href="namespace_g_l_e_s_c_1_1_math.html#ac72fdbfd43b6a5770385dbfd805b687b" target="_top" xlink:title="Calculates the cosine of a value.">
<polygon fill="white" stroke="#666666" points="291.88,-158 193.38,-158 193.38,-138 291.88,-138 291.88,-158"/>
<text text-anchor="middle" x="242.62" y="-144.5" font-family="Helvetica,sans-Serif" font-size="10.00">GLESC::Math::cos</text>
</a>
</g>
</g>
<!-- Node1&#45;&gt;Node8 -->
<g id="edge11_Node000001_Node000008" class="edge">
<title>Node1&#45;&gt;Node8</title>
<g id="a_edge11_Node000001_Node000008"><a xlink:title=" ">
<path fill="none" stroke="#63b8ff" d="M148.78,-135.71C159.77,-137.17 170.98,-138.65 181.65,-140.06"/>
<polygon fill="#63b8ff" stroke="#63b8ff" points="181.09,-143.52 191.47,-141.36 182.01,-136.58 181.09,-143.52"/>
</a>
</g>
</g>
<!-- Node9 -->
<g id="Node000009" class="node">
<title>Node9</title>
<g id="a_Node000009"><a xlink:href="class_g_l_e_s_c_1_1_render_1_1_mesh.html#ade8b0c4ff0b02d0484e7d0877880e918" target="_top" xlink:title=" ">
<polygon fill="white" stroke="#666666" points="300.5,-120 184.75,-120 184.75,-88 300.5,-88 300.5,-120"/>
<text text-anchor="start" x="192.75" y="-106.5" font-family="Helvetica,sans-Serif" font-size="10.00">GLESC::Render::Mesh</text>
<text text-anchor="middle" x="242.62" y="-94.5" font-family="Helvetica,sans-Serif" font-size="10.00">::finishBuilding</text>
</a>
</g>
</g>
<!-- Node1&#45;&gt;Node9 -->
<g id="edge12_Node000001_Node000009" class="edge">
<title>Node1&#45;&gt;Node9</title>
<g id="a_edge12_Node000001_Node000009"><a xlink:title=" ">
<path fill="none" stroke="#63b8ff" d="M148.78,-116.29C156.88,-115.21 165.1,-114.13 173.14,-113.06"/>
<polygon fill="#63b8ff" stroke="#63b8ff" points="173.39,-116.56 182.84,-111.78 172.47,-109.62 173.39,-116.56"/>
</a>
</g>
</g>
<!-- Node11 -->
<g id="Node000011" class="node">
<title>Node11</title>
<g id="a_Node000011"><a xlink:href="namespace_g_l_e_s_c_1_1_math.html#aa21a1aeaaa25e280f941221e165dffa4" target="_top" xlink:title="Calculates the sine of a value.">
<polygon fill="white" stroke="#666666" points="290.38,-70 194.88,-70 194.88,-50 290.38,-50 290.38,-70"/>
<text text-anchor="middle" x="242.62" y="-56.5" font-family="Helvetica,sans-Serif" font-size="10.00">GLESC::Math::sin</text>
</a>
</g>
</g>
<!-- Node1&#45;&gt;Node11 -->
<g id="edge14_Node000001_Node000011" class="edge">
<title>Node1&#45;&gt;Node11</title>
<g id="a_edge14_Node000001_Node000011"><a xlink:title=" ">
<path fill="none" stroke="#63b8ff" d="M111.52,-109.57C132.69,-100.17 160.03,-88.42 184.75,-79 189.07,-77.35 193.61,-75.7 198.15,-74.11"/>
<polygon fill="#63b8ff" stroke="#63b8ff" points="198.93,-77.54 207.25,-70.98 196.65,-70.92 198.93,-77.54"/>
</a>
</g>
</g>
<!-- Node12 -->
<g id="Node000012" class="node">
<title>Node12</title>
<g id="a_Node000012"><a xlink:href="class_g_l_e_s_c_1_1_render_1_1_mesh.html#a9d11210ab41990859c0885c1e47603d9" target="_top" xlink:title="Starts the building of the mesh.">
<polygon fill="white" stroke="#666666" points="300.5,-32 184.75,-32 184.75,0 300.5,0 300.5,-32"/>
<text text-anchor="start" x="192.75" y="-18.5" font-family="Helvetica,sans-Serif" font-size="10.00">GLESC::Render::Mesh</text>
<text text-anchor="middle" x="242.62" y="-6.5" font-family="Helvetica,sans-Serif" font-size="10.00">::startBuilding</text>
</a>
</g>
</g>
<!-- Node1&#45;&gt;Node12 -->
<g id="edge15_Node000001_Node000012" class="edge">
<title>Node1&#45;&gt;Node12</title>
<g id="a_edge15_Node000001_Node000012"><a xlink:title=" ">
<path fill="none" stroke="#63b8ff" d="M93.33,-109.78C114.22,-91.47 150.25,-61.56 184.75,-41 186.74,-39.81 188.8,-38.65 190.9,-37.51"/>
<polygon fill="#63b8ff" stroke="#63b8ff" points="192.25,-40.76 199.57,-33.1 189.07,-34.52 192.25,-40.76"/>
</a>
</g>
</g>
<!-- Node2&#45;&gt;Node2 -->
<g id="edge2_Node000002_Node000002" class="edge">
<title>Node2&#45;&gt;Node2</title>
<g id="a_edge2_Node000002_Node000002"><a xlink:title=" ">
<path fill="none" stroke="#63b8ff" d="M212.59,-276.44C206.98,-285.58 216.99,-294 242.62,-294 256.64,-294 265.99,-291.48 270.66,-287.71"/>
<polygon fill="#63b8ff" stroke="#63b8ff" points="274.1,-288.39 272.4,-277.93 267.2,-287.17 274.1,-288.39"/>
</a>
</g>
</g>
<!-- Node3 -->
<g id="Node000003" class="node">
<title>Node3</title>
<g id="a_Node000003"><a xlink:href="class_g_l_e_s_c_1_1_render_1_1_mesh.html#a7d4ee0ef7799514b465c2e4f1e6806dc" target="_top" xlink:title="Adds a vertex to the mesh.">
<polygon fill="white" stroke="#666666" points="472.5,-217 356.75,-217 356.75,-185 472.5,-185 472.5,-217"/>
<text text-anchor="start" x="364.75" y="-203.5" font-family="Helvetica,sans-Serif" font-size="10.00">GLESC::Render::Mesh</text>
<text text-anchor="middle" x="414.62" y="-191.5" font-family="Helvetica,sans-Serif" font-size="10.00">::addVertex</text>
</a>
</g>
</g>
<!-- Node2&#45;&gt;Node3 -->
<g id="edge3_Node000002_Node000003" class="edge">
<title>Node2&#45;&gt;Node3</title>
<g id="a_edge3_Node000002_Node000003"><a xlink:title=" ">
<path fill="none" stroke="#63b8ff" d="M290.98,-243.57C310.97,-236.63 334.45,-228.48 355.49,-221.18"/>
<polygon fill="#63b8ff" stroke="#63b8ff" points="356.5,-224.53 364.8,-217.95 354.21,-217.92 356.5,-224.53"/>
</a>
</g>
</g>
<!-- Node4 -->
<g id="Node000004" class="node">
<title>Node4</title>
<g id="a_Node000004"><a xlink:href="class_g_l_e_s_c_1_1_render_1_1_mesh.html#a78f09fa1a41f6e3ec496aae31c671e92" target="_top" xlink:title="Helper function to automatically calculate the normal of a face with 3 points.">
<polygon fill="white" stroke="#666666" points="472.5,-271 356.75,-271 356.75,-239 472.5,-239 472.5,-271"/>
<text text-anchor="start" x="364.75" y="-257.5" font-family="Helvetica,sans-Serif" font-size="10.00">GLESC::Render::Mesh</text>
<text text-anchor="middle" x="414.62" y="-245.5" font-family="Helvetica,sans-Serif" font-size="10.00">::calculateNormal</text>
</a>
</g>
</g>
<!-- Node2&#45;&gt;Node4 -->
<g id="edge4_Node000002_Node000004" class="edge">
<title>Node2&#45;&gt;Node4</title>
<g id="a_edge4_Node000002_Node000004"><a xlink:title=" ">
<path fill="none" stroke="#63b8ff" d="M300.71,-258.32C315,-257.9 330.48,-257.45 345.27,-257.01"/>
<polygon fill="#63b8ff" stroke="#63b8ff" points="345,-260.52 354.89,-256.73 344.79,-253.52 345,-260.52"/>
</a>
</g>
</g>
<!-- Node5 -->
<g id="Node000005" class="node">
<title>Node5</title>
<g id="a_Node000005"><a xlink:href="class_g_l_e_s_c_1_1_math_1_1_vector.html#ac4fe912b3001e4fad684c2cd4c56cf83" target="_top" xlink:title="Calculates the cross product of two vectors.">
<polygon fill="white" stroke="#666666" points="640,-271 528.75,-271 528.75,-239 640,-239 640,-271"/>
<text text-anchor="start" x="536.75" y="-257.5" font-family="Helvetica,sans-Serif" font-size="10.00">GLESC::Math::Vector</text>
<text text-anchor="middle" x="584.38" y="-245.5" font-family="Helvetica,sans-Serif" font-size="10.00">::cross</text>
</a>
</g>
</g>
<!-- Node4&#45;&gt;Node5 -->
<g id="edge5_Node000004_Node000005" class="edge">
<title>Node4&#45;&gt;Node5</title>
<g id="a_edge5_Node000004_Node000005"><a xlink:title=" ">
<path fill="none" stroke="#63b8ff" d="M472.89,-255C487.04,-255 502.32,-255 516.88,-255"/>
<polygon fill="#63b8ff" stroke="#63b8ff" points="516.84,-258.5 526.84,-255 516.84,-251.5 516.84,-258.5"/>
</a>
</g>
</g>
<!-- Node6 -->
<g id="Node000006" class="node">
<title>Node6</title>
<g id="a_Node000006"><a xlink:href="class_g_l_e_s_c_1_1_math_1_1_vector_algorithms.html#ab041da9d339dfe80b80c6f0bdf5dbfd4" target="_top" xlink:title="Computes the cross product of two vectors.">
<polygon fill="white" stroke="#666666" points="833.75,-271 676,-271 676,-239 833.75,-239 833.75,-271"/>
<text text-anchor="start" x="684" y="-257.5" font-family="Helvetica,sans-Serif" font-size="10.00">GLESC::Math::VectorAlgorithms</text>
<text text-anchor="middle" x="754.88" y="-245.5" font-family="Helvetica,sans-Serif" font-size="10.00">::crossProduct</text>
</a>
</g>
</g>
<!-- Node5&#45;&gt;Node6 -->
<g id="edge6_Node000005_Node000006" class="edge">
<title>Node5&#45;&gt;Node6</title>
<g id="a_edge6_Node000005_Node000006"><a xlink:title=" ">
<path fill="none" stroke="#63b8ff" d="M640.08,-255C647.88,-255 656.06,-255 664.31,-255"/>
<polygon fill="#63b8ff" stroke="#63b8ff" points="664.06,-258.5 674.06,-255 664.06,-251.5 664.06,-258.5"/>
</a>
</g>
</g>
<!-- Node7&#45;&gt;Node3 -->
<g id="edge9_Node000007_Node000003" class="edge">
<title>Node7&#45;&gt;Node3</title>
<g id="a_edge9_Node000007_Node000003"><a xlink:title=" ">
<path fill="none" stroke="#63b8ff" d="M300.71,-195.02C315,-195.78 330.48,-196.6 345.27,-197.38"/>
<polygon fill="#63b8ff" stroke="#63b8ff" points="344.72,-200.86 354.89,-197.89 345.09,-193.87 344.72,-200.86"/>
</a>
</g>
</g>
<!-- Node7&#45;&gt;Node4 -->
<g id="edge10_Node000007_Node000004" class="edge">
<title>Node7&#45;&gt;Node4</title>
<g id="a_edge10_Node000007_Node000004"><a xlink:title=" ">
<path fill="none" stroke="#63b8ff" d="M287.85,-208.39C309.5,-216.41 335.79,-226.15 358.72,-234.65"/>
<polygon fill="#63b8ff" stroke="#63b8ff" points="357.32,-237.87 367.91,-238.06 359.75,-231.3 357.32,-237.87"/>
</a>
</g>
</g>
<!-- Node7&#45;&gt;Node7 -->
<g id="edge8_Node000007_Node000007" class="edge">
<title>Node7&#45;&gt;Node7</title>
<g id="a_edge8_Node000007_Node000007"><a xlink:title=" ">
<path fill="none" stroke="#63b8ff" d="M212.59,-208.44C206.98,-217.58 216.99,-226 242.62,-226 256.64,-226 265.99,-223.48 270.66,-219.71"/>
<polygon fill="#63b8ff" stroke="#63b8ff" points="274.1,-220.39 272.4,-209.93 267.2,-219.17 274.1,-220.39"/>
</a>
</g>
</g>
<!-- Node10 -->
<g id="Node000010" class="node">
<title>Node10</title>
<g id="a_Node000010"><a xlink:href="class_g_l_e_s_c_1_1_math_1_1_bounding_volume.html#a61c5ed29689b97d66a06eaf16b8dfc36" target="_top" xlink:title="Updates the bounding volume to fit the points it encloses.">
<polygon fill="white" stroke="#666666" points="492.75,-120 336.5,-120 336.5,-88 492.75,-88 492.75,-120"/>
<text text-anchor="start" x="344.5" y="-106.5" font-family="Helvetica,sans-Serif" font-size="10.00">GLESC::Math::BoundingVolume</text>
<text text-anchor="middle" x="414.62" y="-94.5" font-family="Helvetica,sans-Serif" font-size="10.00">::updateBoundingBox</text>
</a>
</g>
</g>
<!-- Node9&#45;&gt;Node10 -->
<g id="edge13_Node000009_Node000010" class="edge">
<title>Node9&#45;&gt;Node10</title>
<g id="a_edge13_Node000009_Node000010"><a xlink:title=" ">
<path fill="none" stroke="#63b8ff" d="M300.71,-104C308.44,-104 316.53,-104 324.66,-104"/>
<polygon fill="#63b8ff" stroke="#63b8ff" points="324.64,-107.5 334.64,-104 324.64,-100.5 324.64,-107.5"/>
</a>
</g>
</g>
</g>
</svg>

<g id="navigator" transform="translate(0 0)" fill="#404254">
  <rect fill="#f2f5e9" fill-opacity="0.5" stroke="#606060" stroke-width=".5" x="0" y="0" width="60" height="60"/>
  <use id="zoomplus" xlink:href="#zoomPlus" x="17" y="9" onmousedown="handleZoom(evt,'in')"/>
  <use id="zoomminus" xlink:href="#zoomMin" x="42" y="9" onmousedown="handleZoom(evt,'out')"/>
  <use id="reset" xlink:href="#resetDef" x="30" y="36" onmousedown="handleReset()"/>
   <use id="arrowup" xlink:href="#arrowUp" x="0" y="0" onmousedown="handlePan(0,-1)"/>
  <use id="arrowright" xlink:href="#arrowRight" x="0" y="0" onmousedown="handlePan(1,0)"/>
  <use id="arrowdown" xlink:href="#arrowDown" x="0" y="0" onmousedown="handlePan(0,1)"/>
  <use id="arrowleft" xlink:href="#arrowLeft" x="0" y="0" onmousedown="handlePan(-1,0)"/>
</g>
<svg viewBox="0 0 15 15" width="100%" height="30px" preserveAspectRatio="xMaxYMin meet">
 <g id="arrow_out" transform="scale(0.3 0.3)">
  <a xlink:href="class_g_l_e_s_c_1_1_render_1_1_mesh_factory_ac34bbd39823c1d507524e1395305e310_cgraph_org.svg" target="_base">
   <rect id="button" ry="5" rx="5" y="6" x="6" height="38" width="38"
        fill="#f2f5e9" fill-opacity="0.5" stroke="#606060" stroke-width="1.0"/>
   <path id="arrow"
     d="M 11.500037,31.436501 C 11.940474,20.09759 22.043105,11.32322 32.158766,21.979434 L 37.068811,17.246167 C 37.068811,17.246167 37.088388,32 37.088388,32 L 22.160133,31.978069 C 22.160133,31.978069 26.997745,27.140456 26.997745,27.140456 C 18.528582,18.264221 13.291696,25.230495 11.500037,31.436501 z"
     style="fill:#404040;"/>
  </a>
 </g>
</svg>

<style type='text/css'>
<![CDATA[
[data-mouse-over-selected='false'] { opacity: 0.7; }
[data-mouse-over-selected='true']  { opacity: 1.0; }
]]>
</style>
<script type="application/ecmascript"><![CDATA[
document.addEventListener('DOMContentLoaded', (event) => {
  highlightEdges();
  highlightAdjacentNodes();
});
]]></script>
</svg>
