<?xml version="1.0" encoding="UTF-8" standalone="no"?>
<!DOCTYPE svg PUBLIC "-//W3C//DTD SVG 1.1//EN"
 "http://www.w3.org/Graphics/SVG/1.1/DTD/svg11.dtd">
<!-- Generated by graphviz version 11.0.0 (20240428.1522)
 -->
<!-- Title: GLESC::HUD::CrosshairHUD::CrosshairHUD Pages: 1 -->
<svg width="310pt" height="190pt"
 viewBox="0.00 0.00 310.00 190.00" xmlns="http://www.w3.org/2000/svg" xmlns:xlink="http://www.w3.org/1999/xlink">
<g id="graph0" class="graph" transform="scale(1 1) rotate(0) translate(4 186)">
<title>GLESC::HUD::CrosshairHUD::CrosshairHUD</title>
<!-- Node1 -->
<g id="Node000001" class="node">
<title>Node1</title>
<g id="a_Node000001"><a xlink:title=" ">
<polygon fill="#999999" stroke="#666666" points="142.75,-107 0,-107 0,-75 142.75,-75 142.75,-107"/>
<text text-anchor="start" x="8" y="-93.5" font-family="Helvetica,sans-Serif" font-size="10.00">GLESC::HUD::CrosshairHUD</text>
<text text-anchor="middle" x="71.38" y="-81.5" font-family="Helvetica,sans-Serif" font-size="10.00">::CrosshairHUD</text>
</a>
</g>
</g>
<!-- Node2 -->
<g id="Node000002" class="node">
<title>Node2</title>
<g id="a_Node000002"><a xlink:href="class_g_l_e_s_c_1_1_in_game_window.html#aeb67baa3459917edf2c8a40eaf889075" target="_top" xlink:title=" ">
<polygon fill="white" stroke="#666666" points="302,-182 178.75,-182 178.75,-150 302,-150 302,-182"/>
<text text-anchor="start" x="186.75" y="-168.5" font-family="Helvetica,sans-Serif" font-size="10.00">GLESC::InGameWindow</text>
<text text-anchor="middle" x="240.38" y="-156.5" font-family="Helvetica,sans-Serif" font-size="10.00">::addFlag</text>
</a>
</g>
</g>
<!-- Node1&#45;&gt;Node2 -->
<g id="edge1_Node000001_Node000002" class="edge">
<title>Node1&#45;&gt;Node2</title>
<g id="a_edge1_Node000001_Node000002"><a xlink:title=" ">
<path fill="none" stroke="#63b8ff" d="M106.2,-107.41C127.01,-117.38 154.29,-130.22 178.75,-141 181.88,-142.38 185.11,-143.78 188.37,-145.18"/>
<polygon fill="#63b8ff" stroke="#63b8ff" points="186.86,-148.34 197.43,-149.01 189.58,-141.89 186.86,-148.34"/>
</a>
</g>
</g>
<!-- Node3 -->
<g id="Node000003" class="node">
<title>Node3</title>
<g id="a_Node000003"><a xlink:href="class_g_l_e_s_c_1_1_in_game_window.html#a1c5d730cac88e6109f725d06a9ae1102" target="_top" xlink:title="Set the center of the window.">
<polygon fill="white" stroke="#666666" points="302,-132 178.75,-132 178.75,-100 302,-100 302,-132"/>
<text text-anchor="start" x="186.75" y="-118.5" font-family="Helvetica,sans-Serif" font-size="10.00">GLESC::InGameWindow</text>
<text text-anchor="middle" x="240.38" y="-106.5" font-family="Helvetica,sans-Serif" font-size="10.00">::setCenter</text>
</a>
</g>
</g>
<!-- Node1&#45;&gt;Node3 -->
<g id="edge2_Node000001_Node000003" class="edge">
<title>Node1&#45;&gt;Node3</title>
<g id="a_edge2_Node000001_Node000003"><a xlink:title=" ">
<path fill="none" stroke="#63b8ff" d="M143.2,-101.6C151.17,-102.8 159.31,-104.01 167.3,-105.21"/>
<polygon fill="#63b8ff" stroke="#63b8ff" points="166.57,-108.64 176.97,-106.66 167.6,-101.72 166.57,-108.64"/>
</a>
</g>
</g>
<!-- Node4 -->
<g id="Node000004" class="node">
<title>Node4</title>
<g id="a_Node000004"><a xlink:href="class_g_l_e_s_c_1_1_in_game_window.html#a02919a86639b476e23aa8a06c20f879c" target="_top" xlink:title="Set the layout position of the window.">
<polygon fill="white" stroke="#666666" points="302,-82 178.75,-82 178.75,-50 302,-50 302,-82"/>
<text text-anchor="start" x="186.75" y="-68.5" font-family="Helvetica,sans-Serif" font-size="10.00">GLESC::InGameWindow</text>
<text text-anchor="middle" x="240.38" y="-56.5" font-family="Helvetica,sans-Serif" font-size="10.00">::setLayoutPosition</text>
</a>
</g>
</g>
<!-- Node1&#45;&gt;Node4 -->
<g id="edge3_Node000001_Node000004" class="edge">
<title>Node1&#45;&gt;Node4</title>
<g id="a_edge3_Node000001_Node000004"><a xlink:title=" ">
<path fill="none" stroke="#63b8ff" d="M143.2,-80.4C151.17,-79.2 159.31,-77.99 167.3,-76.79"/>
<polygon fill="#63b8ff" stroke="#63b8ff" points="167.6,-80.28 176.97,-75.34 166.57,-73.36 167.6,-80.28"/>
</a>
</g>
</g>
<!-- Node5 -->
<g id="Node000005" class="node">
<title>Node5</title>
<g id="a_Node000005"><a xlink:href="class_g_l_e_s_c_1_1_in_game_window.html#ad53c4781df5e967788027a706dfa5121" target="_top" xlink:title="Set the size of the window as a fraction of the screen size.">
<polygon fill="white" stroke="#666666" points="302,-32 178.75,-32 178.75,0 302,0 302,-32"/>
<text text-anchor="start" x="186.75" y="-18.5" font-family="Helvetica,sans-Serif" font-size="10.00">GLESC::InGameWindow</text>
<text text-anchor="middle" x="240.38" y="-6.5" font-family="Helvetica,sans-Serif" font-size="10.00">::setSizeFraction</text>
</a>
</g>
</g>
<!-- Node1&#45;&gt;Node5 -->
<g id="edge4_Node000001_Node000005" class="edge">
<title>Node1&#45;&gt;Node5</title>
<g id="a_edge4_Node000001_Node000005"><a xlink:title=" ">
<path fill="none" stroke="#63b8ff" d="M106.2,-74.59C127.01,-64.62 154.29,-51.78 178.75,-41 181.88,-39.62 185.11,-38.22 188.37,-36.82"/>
<polygon fill="#63b8ff" stroke="#63b8ff" points="189.58,-40.11 197.43,-32.99 186.86,-33.66 189.58,-40.11"/>
</a>
</g>
</g>
</g>
</svg>
