<?xml version="1.0" encoding="UTF-8" standalone="no"?>
<!DOCTYPE svg PUBLIC "-//W3C//DTD SVG 1.1//EN"
 "http://www.w3.org/Graphics/SVG/1.1/DTD/svg11.dtd">
<!-- Generated by graphviz version 11.0.0 (20240428.1522)
 -->
<!-- Title: GLESC::Physics::Collider::getCollisionInformation Pages: 1 -->
<svg width="716pt" height="102pt"
 viewBox="0.00 0.00 715.50 102.00" xmlns="http://www.w3.org/2000/svg" xmlns:xlink="http://www.w3.org/1999/xlink">
<g id="graph0" class="graph" transform="scale(1 1) rotate(0) translate(4 98)">
<title>GLESC::Physics::Collider::getCollisionInformation</title>
<!-- Node1 -->
<g id="Node000001" class="node">
<title>Node1</title>
<g id="a_Node000001"><a xlink:title=" ">
<polygon fill="#999999" stroke="#666666" points="707.5,-50 579,-50 579,-18 707.5,-18 707.5,-50"/>
<text text-anchor="start" x="587" y="-36.5" font-family="Helvetica,sans-Serif" font-size="10.00">GLESC::Physics::Collider</text>
<text text-anchor="middle" x="643.25" y="-24.5" font-family="Helvetica,sans-Serif" font-size="10.00">::getCollisionInformation</text>
</a>
</g>
</g>
<!-- Node2 -->
<g id="Node000002" class="node">
<title>Node2</title>
<g id="a_Node000002"><a xlink:href="class_g_l_e_s_c_1_1_physics_1_1_collision_manager.html#a3e36f52b42d71e2e6adf6a61626e196a" target="_top" xlink:title=" ">
<polygon fill="white" stroke="#666666" points="356.75,-94 190.75,-94 190.75,-50 356.75,-50 356.75,-94"/>
<text text-anchor="start" x="198.75" y="-80.5" font-family="Helvetica,sans-Serif" font-size="10.00">GLESC::Physics::Collision</text>
<text text-anchor="start" x="198.75" y="-68.5" font-family="Helvetica,sans-Serif" font-size="10.00">Manager::checkAndUpdateCollider</text>
<text text-anchor="middle" x="273.75" y="-56.5" font-family="Helvetica,sans-Serif" font-size="10.00">Information</text>
</a>
</g>
</g>
<!-- Node1&#45;&gt;Node2 -->
<g id="edge1_Node000001_Node000002" class="edge">
<title>Node1&#45;&gt;Node2</title>
<g id="a_edge1_Node000001_Node000002"><a xlink:title=" ">
<path fill="none" stroke="#63b8ff" d="M567.46,-49.29C559.23,-50.69 550.95,-51.96 543,-53 480.97,-61.11 410.38,-65.93 357.19,-68.69"/>
<polygon fill="#63b8ff" stroke="#63b8ff" points="567.89,-52.77 577.14,-47.6 566.68,-45.88 567.89,-52.77"/>
</a>
</g>
</g>
<!-- Node4 -->
<g id="Node000004" class="node">
<title>Node4</title>
<g id="a_Node000004"><a xlink:href="namespace_g_l_e_s_c_1_1_physics.html#a1621e2a03fff6c4be0436391e2bc6ef5" target="_top" xlink:title=" ">
<polygon fill="white" stroke="#666666" points="543,-44 394.25,-44 394.25,-24 543,-24 543,-44"/>
<text text-anchor="middle" x="468.62" y="-30.5" font-family="Helvetica,sans-Serif" font-size="10.00">GLESC::Physics::getAxisFree</text>
</a>
</g>
</g>
<!-- Node1&#45;&gt;Node4 -->
<g id="edge3_Node000001_Node000004" class="edge">
<title>Node1&#45;&gt;Node4</title>
<g id="a_edge3_Node000001_Node000004"><a xlink:title=" ">
<path fill="none" stroke="#63b8ff" d="M567.7,-34C559.66,-34 551.48,-34 543.44,-34"/>
<polygon fill="#63b8ff" stroke="#63b8ff" points="567.44,-37.5 577.44,-34 567.44,-30.5 567.44,-37.5"/>
</a>
</g>
</g>
<!-- Node5 -->
<g id="Node000005" class="node">
<title>Node5</title>
<g id="a_Node000005"><a xlink:href="class_g_l_e_s_c_1_1_physics_1_1_physics_manager.html#a989f5035ba226da4a55a192cb42b8675" target="_top" xlink:title=" ">
<polygon fill="white" stroke="#666666" points="358.25,-32 189.25,-32 189.25,0 358.25,0 358.25,-32"/>
<text text-anchor="start" x="197.25" y="-18.5" font-family="Helvetica,sans-Serif" font-size="10.00">GLESC::Physics::PhysicsManager</text>
<text text-anchor="middle" x="273.75" y="-6.5" font-family="Helvetica,sans-Serif" font-size="10.00">::handleCollisions</text>
</a>
</g>
</g>
<!-- Node1&#45;&gt;Node5 -->
<g id="edge6_Node000001_Node000005" class="edge">
<title>Node1&#45;&gt;Node5</title>
<g id="a_edge6_Node000001_Node000005"><a xlink:title=" ">
<path fill="none" stroke="#63b8ff" d="M567.53,-18.13C559.28,-16.85 550.98,-15.76 543,-15 481.45,-9.16 411.6,-9.65 358.61,-11.47"/>
<polygon fill="#63b8ff" stroke="#63b8ff" points="566.77,-21.56 577.21,-19.74 567.92,-14.65 566.77,-21.56"/>
</a>
</g>
</g>
<!-- Node3 -->
<g id="Node000003" class="node">
<title>Node3</title>
<g id="a_Node000003"><a xlink:href="class_g_l_e_s_c_1_1_e_c_s_1_1_physics_collision_system.html#a01af297180e01be8c9d22d955bfb11b3" target="_top" xlink:title="Updates the system.">
<polygon fill="white" stroke="#666666" points="153.25,-60 0,-60 0,-28 153.25,-28 153.25,-60"/>
<text text-anchor="start" x="8" y="-46.5" font-family="Helvetica,sans-Serif" font-size="10.00">GLESC::ECS::PhysicsCollision</text>
<text text-anchor="middle" x="76.62" y="-34.5" font-family="Helvetica,sans-Serif" font-size="10.00">System::update</text>
</a>
</g>
</g>
<!-- Node2&#45;&gt;Node3 -->
<g id="edge2_Node000002_Node000003" class="edge">
<title>Node2&#45;&gt;Node3</title>
<g id="a_edge2_Node000002_Node000003"><a xlink:title=" ">
<path fill="none" stroke="#63b8ff" d="M179.09,-58.56C170.54,-57.33 161.96,-56.1 153.59,-54.9"/>
<polygon fill="#63b8ff" stroke="#63b8ff" points="178.39,-62 188.78,-59.95 179.38,-55.07 178.39,-62"/>
</a>
</g>
</g>
<!-- Node4&#45;&gt;Node5 -->
<g id="edge4_Node000004_Node000005" class="edge">
<title>Node4&#45;&gt;Node5</title>
<g id="a_edge4_Node000004_Node000005"><a xlink:title=" ">
<path fill="none" stroke="#63b8ff" d="M382.62,-26.07C374.59,-25.32 366.46,-24.56 358.44,-23.81"/>
<polygon fill="#63b8ff" stroke="#63b8ff" points="382.09,-29.53 392.37,-26.98 382.74,-22.56 382.09,-29.53"/>
</a>
</g>
</g>
<!-- Node5&#45;&gt;Node3 -->
<g id="edge5_Node000005_Node000003" class="edge">
<title>Node5&#45;&gt;Node3</title>
<g id="a_edge5_Node000005_Node000003"><a xlink:title=" ">
<path fill="none" stroke="#63b8ff" d="M177.59,-29.66C169.59,-30.8 161.57,-31.95 153.74,-33.08"/>
<polygon fill="#63b8ff" stroke="#63b8ff" points="177.97,-33.14 187.37,-28.25 176.97,-26.21 177.97,-33.14"/>
</a>
</g>
</g>
</g>
</svg>
