<?xml version="1.0" encoding="UTF-8" standalone="no"?>
<!DOCTYPE svg PUBLIC "-//W3C//DTD SVG 1.1//EN"
 "http://www.w3.org/Graphics/SVG/1.1/DTD/svg11.dtd">
<!-- Generated by graphviz version 11.0.0 (20240428.1522)
 -->
<!-- Title: GLESC::Math::Vector::clamp Pages: 1 -->
<svg width="596pt" height="107pt"
 viewBox="0.00 0.00 595.50 107.00" xmlns="http://www.w3.org/2000/svg" xmlns:xlink="http://www.w3.org/1999/xlink">
<g id="graph0" class="graph" transform="scale(1 1) rotate(0) translate(4 103)">
<title>GLESC::Math::Vector::clamp</title>
<!-- Node1 -->
<g id="Node000001" class="node">
<title>Node1</title>
<g id="a_Node000001"><a xlink:title="Clamps the vector to a given range.">
<polygon fill="#999999" stroke="#666666" points="111.25,-32 0,-32 0,0 111.25,0 111.25,-32"/>
<text text-anchor="start" x="8" y="-18.5" font-family="Helvetica,sans-Serif" font-size="10.00">GLESC::Math::Vector</text>
<text text-anchor="middle" x="55.62" y="-6.5" font-family="Helvetica,sans-Serif" font-size="10.00">::clamp</text>
</a>
</g>
</g>
<!-- Node2 -->
<g id="Node000002" class="node">
<title>Node2</title>
<g id="a_Node000002"><a xlink:href="class_g_l_e_s_c_1_1_math_1_1_vector_algorithms.html#ac725a821c1720b206c7e6b75390be67c" target="_top" xlink:title=" ">
<polygon fill="white" stroke="#666666" points="305,-70 147.25,-70 147.25,-38 305,-38 305,-70"/>
<text text-anchor="start" x="155.25" y="-56.5" font-family="Helvetica,sans-Serif" font-size="10.00">GLESC::Math::VectorAlgorithms</text>
<text text-anchor="middle" x="226.12" y="-44.5" font-family="Helvetica,sans-Serif" font-size="10.00">::clampWithValues</text>
</a>
</g>
</g>
<!-- Node1&#45;&gt;Node2 -->
<g id="edge1_Node000001_Node000002" class="edge">
<title>Node1&#45;&gt;Node2</title>
<g id="a_edge1_Node000001_Node000002"><a xlink:title=" ">
<path fill="none" stroke="#63b8ff" d="M111.33,-28.34C120.86,-30.49 130.96,-32.76 141.06,-35.04"/>
<polygon fill="#63b8ff" stroke="#63b8ff" points="139.99,-38.39 150.52,-37.17 141.53,-31.56 139.99,-38.39"/>
</a>
</g>
</g>
<!-- Node4 -->
<g id="Node000004" class="node">
<title>Node4</title>
<g id="a_Node000004"><a xlink:href="namespace_g_l_e_s_c_1_1_math.html#a522e4f8e000cccddbf9d2f92280cfb6c" target="_top" xlink:title="Calculates the max of two values.">
<polygon fill="white" stroke="#666666" points="587.5,-42 486,-42 486,-22 587.5,-22 587.5,-42"/>
<text text-anchor="middle" x="536.75" y="-28.5" font-family="Helvetica,sans-Serif" font-size="10.00">GLESC::Math::max</text>
</a>
</g>
</g>
<!-- Node1&#45;&gt;Node4 -->
<g id="edge7_Node000001_Node000004" class="edge">
<title>Node1&#45;&gt;Node4</title>
<g id="a_edge7_Node000001_Node000004"><a xlink:title=" ">
<path fill="none" stroke="#63b8ff" d="M111.59,-17.84C201.72,-20.85 380.33,-26.81 474.44,-29.95"/>
<polygon fill="#63b8ff" stroke="#63b8ff" points="474.14,-33.44 484.25,-30.28 474.37,-26.45 474.14,-33.44"/>
</a>
</g>
</g>
<!-- Node3 -->
<g id="Node000003" class="node">
<title>Node3</title>
<g id="a_Node000003"><a xlink:href="namespace_g_l_e_s_c_1_1_math.html#ae9816249dbbdbb7c7affd0c3be77b8e2" target="_top" xlink:title="Clamps a value between a minimum and maximum value.">
<polygon fill="white" stroke="#666666" points="450,-80 341,-80 341,-60 450,-60 450,-80"/>
<text text-anchor="middle" x="395.5" y="-66.5" font-family="Helvetica,sans-Serif" font-size="10.00">GLESC::Math::clamp</text>
</a>
</g>
</g>
<!-- Node2&#45;&gt;Node3 -->
<g id="edge2_Node000002_Node000003" class="edge">
<title>Node2&#45;&gt;Node3</title>
<g id="a_edge2_Node000002_Node000003"><a xlink:title=" ">
<path fill="none" stroke="#63b8ff" d="M305.42,-61.48C313.42,-62.25 321.49,-63.02 329.33,-63.77"/>
<polygon fill="#63b8ff" stroke="#63b8ff" points="328.83,-67.24 339.12,-64.71 329.5,-60.27 328.83,-67.24"/>
</a>
</g>
</g>
<!-- Node2&#45;&gt;Node4 -->
<g id="edge5_Node000002_Node000004" class="edge">
<title>Node2&#45;&gt;Node4</title>
<g id="a_edge5_Node000002_Node000004"><a xlink:title=" ">
<path fill="none" stroke="#63b8ff" d="M305.4,-48.42C357.81,-44.68 425.82,-39.84 474.33,-36.38"/>
<polygon fill="#63b8ff" stroke="#63b8ff" points="474.36,-39.88 484.09,-35.68 473.86,-32.9 474.36,-39.88"/>
</a>
</g>
</g>
<!-- Node5 -->
<g id="Node000005" class="node">
<title>Node5</title>
<g id="a_Node000005"><a xlink:href="namespace_g_l_e_s_c_1_1_math.html#ad2df75a6181d9d1d318d20d224a2866b" target="_top" xlink:title="Calculates the min of two values.">
<polygon fill="white" stroke="#666666" points="586,-99 487.5,-99 487.5,-79 586,-79 586,-99"/>
<text text-anchor="middle" x="536.75" y="-85.5" font-family="Helvetica,sans-Serif" font-size="10.00">GLESC::Math::min</text>
</a>
</g>
</g>
<!-- Node2&#45;&gt;Node5 -->
<g id="edge6_Node000002_Node000005" class="edge">
<title>Node2&#45;&gt;Node5</title>
<g id="a_edge6_Node000002_Node000005"><a xlink:title=" ">
<path fill="none" stroke="#63b8ff" d="M269.95,-70.48C291.01,-77.72 316.97,-85.39 341,-89 385.89,-95.74 437.25,-95.41 475.96,-93.58"/>
<polygon fill="#63b8ff" stroke="#63b8ff" points="475.72,-97.09 485.52,-93.07 475.35,-90.1 475.72,-97.09"/>
</a>
</g>
</g>
<!-- Node3&#45;&gt;Node4 -->
<g id="edge3_Node000003_Node000004" class="edge">
<title>Node3&#45;&gt;Node4</title>
<g id="a_edge3_Node000003_Node000004"><a xlink:title=" ">
<path fill="none" stroke="#63b8ff" d="M434.92,-59.52C450.9,-55.15 469.65,-50.04 486.61,-45.41"/>
<polygon fill="#63b8ff" stroke="#63b8ff" points="487.27,-48.86 496,-42.85 485.43,-42.1 487.27,-48.86"/>
</a>
</g>
</g>
<!-- Node3&#45;&gt;Node5 -->
<g id="edge4_Node000003_Node000005" class="edge">
<title>Node3&#45;&gt;Node5</title>
<g id="a_edge4_Node000003_Node000005"><a xlink:title=" ">
<path fill="none" stroke="#63b8ff" d="M450.34,-77.35C458.65,-78.48 467.28,-79.66 475.72,-80.81"/>
<polygon fill="#63b8ff" stroke="#63b8ff" points="475.18,-84.27 485.56,-82.15 476.13,-77.33 475.18,-84.27"/>
</a>
</g>
</g>
</g>
</svg>
