<?xml version="1.0" encoding="UTF-8" standalone="no"?>
<!DOCTYPE svg PUBLIC "-//W3C//DTD SVG 1.1//EN"
 "http://www.w3.org/Graphics/SVG/1.1/DTD/svg11.dtd">
<!-- Generated by graphviz version 11.0.0 (20240428.1522)
 -->
<!-- Title: GLESC::Math::VectorAlgorithms::homogenize Pages: 1 -->
<!--zoomable 190 -->

<svg id="main" version="1.1" xmlns="http://www.w3.org/2000/svg" xmlns:xlink="http://www.w3.org/1999/xlink" xml:space="preserve" onload="init(evt)">
<style type="text/css"><![CDATA[
.node, .edge {opacity: 0.7;}
.node.selected, .edge.selected {opacity: 1;}
.edge:hover path { stroke: red; }
.edge:hover polygon { stroke: red; fill: red; }
]]></style>

<defs>
  <circle id="rim" cx="0" cy="0" r="7"/>
  <circle id="rim2" cx="0" cy="0" r="3.5"/>
  <g id="zoomPlus">
    <use xlink:href="#rim" fill="#404040"><set attributeName="fill" to="#808080" begin="zoomplus.mouseover" end="zoomplus.mouseout"/></use>
    <path d="M-4,0h8M0,-4v8" fill="none" stroke="white" stroke-width="1.5" pointer-events="none"/>
  </g>
  <g id="zoomMin">
    <use xlink:href="#rim" fill="#404040"><set attributeName="fill" to="#808080" begin="zoomminus.mouseover" end="zoomminus.mouseout"/></use>
    <path d="M-4,0h8" fill="none" stroke="white" stroke-width="1.5" pointer-events="none"/>
  </g>
  <g id="arrowUp" transform="translate(30 24)">
    <use xlink:href="#rim"/>
    <path pointer-events="none" fill="none" stroke="white" stroke-width="1.5" d="M0,-3.0v7 M-2.5,-0.5L0,-3.0L2.5,-0.5"/>
  </g>
  <g id="arrowRight" transform="rotate(90) translate(36 -43)">
    <use xlink:href="#rim"/>
    <path pointer-events="none" fill="none" stroke="white" stroke-width="1.5" d="M0,-3.0v7 M-2.5,-0.5L0,-3.0L2.5,-0.5"/>
  </g>
  <g id="arrowDown" transform="rotate(180) translate(-30 -48)">
    <use xlink:href="#rim"/>
    <path pointer-events="none" fill="none" stroke="white" stroke-width="1.5" d="M0,-3.0v7 M-2.5,-0.5L0,-3.0L2.5,-0.5"/>
  </g>
  <g id="arrowLeft" transform="rotate(270) translate(-36 17)">
    <use xlink:href="#rim"/>
    <path pointer-events="none" fill="none" stroke="white" stroke-width="1.5" d="M0,-3.0v7 M-2.5,-0.5L0,-3.0L2.5,-0.5"/>
  </g>
  <g id="resetDef">
    <use xlink:href="#rim2" fill="#404040"><set attributeName="fill" to="#808080" begin="reset.mouseover" end="reset.mouseout"/></use>
  </g>
</defs>
<script type="application/ecmascript">
var viewWidth = 1088;
var viewHeight = 190;
var sectionId = 'dynsection-24';
</script>
<script type="application/ecmascript" xlink:href="svg.min.js"/>
<svg id="graph" class="graph">
<g id="viewport">
<title>GLESC::Math::VectorAlgorithms::homogenize</title>
<!-- Node1 -->
<g id="Node000001" class="node">
<title>Node1</title>
<g id="a_Node000001"><a xlink:title="Homozenizes a vector.">
<polygon fill="#999999" stroke="#666666" points="1080.25,-82 922.5,-82 922.5,-50 1080.25,-50 1080.25,-82"/>
<text text-anchor="start" x="930.5" y="-68.5" font-family="Helvetica,sans-Serif" font-size="10.00">GLESC::Math::VectorAlgorithms</text>
<text text-anchor="middle" x="1001.38" y="-56.5" font-family="Helvetica,sans-Serif" font-size="10.00">::homogenize</text>
</a>
</g>
</g>
<!-- Node2 -->
<g id="Node000002" class="node">
<title>Node2</title>
<g id="a_Node000002"><a xlink:href="class_g_l_e_s_c_1_1_math_1_1_vector.html#ae97c63da7362348a91413c64256df459" target="_top" xlink:title="Homogenizes the vector.">
<polygon fill="white" stroke="#666666" points="886.5,-82 775.25,-82 775.25,-50 886.5,-50 886.5,-82"/>
<text text-anchor="start" x="783.25" y="-68.5" font-family="Helvetica,sans-Serif" font-size="10.00">GLESC::Math::Vector</text>
<text text-anchor="middle" x="830.88" y="-56.5" font-family="Helvetica,sans-Serif" font-size="10.00">::homogenize</text>
</a>
</g>
</g>
<!-- Node1&#45;&gt;Node2 -->
<g id="edge1_Node000001_Node000002" class="edge">
<title>Node1&#45;&gt;Node2</title>
<g id="a_edge1_Node000001_Node000002"><a xlink:title=" ">
<path fill="none" stroke="#63b8ff" d="M910.63,-66C902.57,-66 894.57,-66 886.94,-66"/>
<polygon fill="#63b8ff" stroke="#63b8ff" points="910.53,-69.5 920.53,-66 910.53,-62.5 910.53,-69.5"/>
</a>
</g>
</g>
<!-- Node3 -->
<g id="Node000003" class="node">
<title>Node3</title>
<g id="a_Node000003"><a xlink:href="class_g_l_e_s_c_1_1_transform_1_1_transformer.html#a0d20922989f21905e2113a48f4186c42" target="_top" xlink:title="Transforms a position by a given matrix.">
<polygon fill="white" stroke="#666666" points="739.25,-119 584.5,-119 584.5,-87 739.25,-87 739.25,-119"/>
<text text-anchor="start" x="592.5" y="-105.5" font-family="Helvetica,sans-Serif" font-size="10.00">GLESC::Transform::Transformer</text>
<text text-anchor="middle" x="661.88" y="-93.5" font-family="Helvetica,sans-Serif" font-size="10.00">::transformVector</text>
</a>
</g>
</g>
<!-- Node2&#45;&gt;Node3 -->
<g id="edge2_Node000002_Node000003" class="edge">
<title>Node2&#45;&gt;Node3</title>
<g id="a_edge2_Node000002_Node000003"><a xlink:title=" ">
<path fill="none" stroke="#63b8ff" d="M764.13,-80.57C755.26,-82.53 746.11,-84.56 737.1,-86.56"/>
<polygon fill="#63b8ff" stroke="#63b8ff" points="764.71,-84.02 773.72,-78.44 763.19,-77.19 764.71,-84.02"/>
</a>
</g>
</g>
<!-- Node10 -->
<g id="Node000010" class="node">
<title>Node10</title>
<g id="a_Node000010"><a xlink:href="class_g_l_e_s_c_1_1_transform_1_1_transformer.html#a867084113e8ae0eaaf7473f9c1d0a80b" target="_top" xlink:title="Transforms the world position to viewport coordinates.">
<polygon fill="white" stroke="#666666" points="739.25,-57 584.5,-57 584.5,-25 739.25,-25 739.25,-57"/>
<text text-anchor="start" x="592.5" y="-43.5" font-family="Helvetica,sans-Serif" font-size="10.00">GLESC::Transform::Transformer</text>
<text text-anchor="middle" x="661.88" y="-31.5" font-family="Helvetica,sans-Serif" font-size="10.00">::worldToViewport</text>
</a>
</g>
</g>
<!-- Node2&#45;&gt;Node10 -->
<g id="edge9_Node000002_Node000010" class="edge">
<title>Node2&#45;&gt;Node10</title>
<g id="a_edge9_Node000002_Node000010"><a xlink:title=" ">
<path fill="none" stroke="#63b8ff" d="M764,-56.14C755.96,-54.93 747.69,-53.7 739.5,-52.47"/>
<polygon fill="#63b8ff" stroke="#63b8ff" points="763.29,-59.57 773.7,-57.59 764.32,-52.65 763.29,-59.57"/>
</a>
</g>
</g>
<!-- Node4 -->
<g id="Node000004" class="node">
<title>Node4</title>
<g id="a_Node000004"><a xlink:href="class_g_l_e_s_c_1_1_render_1_1_renderer.html#aa1a9e1d79bb96f79ee1e421dd245bbf1" target="_top" xlink:title="This encapsulates the rendering of the lights, setting the uniforms.">
<polygon fill="white" stroke="#666666" points="536.5,-182 405.75,-182 405.75,-150 536.5,-150 536.5,-182"/>
<text text-anchor="start" x="413.75" y="-168.5" font-family="Helvetica,sans-Serif" font-size="10.00">GLESC::Render::Renderer</text>
<text text-anchor="middle" x="471.12" y="-156.5" font-family="Helvetica,sans-Serif" font-size="10.00">::renderLights</text>
</a>
</g>
</g>
<!-- Node3&#45;&gt;Node4 -->
<g id="edge3_Node000003_Node000004" class="edge">
<title>Node3&#45;&gt;Node4</title>
<g id="a_edge3_Node000003_Node000004"><a xlink:title=" ">
<path fill="none" stroke="#63b8ff" d="M602.02,-123.02C584.78,-128.85 565.9,-135.21 548.5,-141 540.16,-143.78 531.3,-146.7 522.68,-149.53"/>
<polygon fill="#63b8ff" stroke="#63b8ff" points="602.73,-126.48 611.08,-119.95 600.48,-119.85 602.73,-126.48"/>
</a>
</g>
</g>
<!-- Node8 -->
<g id="Node000008" class="node">
<title>Node8</title>
<g id="a_Node000008"><a xlink:href="class_g_l_e_s_c_1_1_transform_1_1_transformer.html#a179bf669dcc2ef0f72f369206f6f0f1d" target="_top" xlink:title="Transforms a bounding volume by a given matrix matrix.">
<polygon fill="white" stroke="#666666" points="548.5,-132 393.75,-132 393.75,-100 548.5,-100 548.5,-132"/>
<text text-anchor="start" x="401.75" y="-118.5" font-family="Helvetica,sans-Serif" font-size="10.00">GLESC::Transform::Transformer</text>
<text text-anchor="middle" x="471.12" y="-106.5" font-family="Helvetica,sans-Serif" font-size="10.00">::transformBoundingVolume</text>
</a>
</g>
</g>
<!-- Node3&#45;&gt;Node8 -->
<g id="edge7_Node000003_Node000008" class="edge">
<title>Node3&#45;&gt;Node8</title>
<g id="a_edge7_Node000003_Node000008"><a xlink:title=" ">
<path fill="none" stroke="#63b8ff" d="M572.83,-109.06C564.82,-109.62 556.74,-110.17 548.83,-110.72"/>
<polygon fill="#63b8ff" stroke="#63b8ff" points="572.86,-112.57 582.59,-108.39 572.38,-105.59 572.86,-112.57"/>
</a>
</g>
</g>
<!-- Node9 -->
<g id="Node000009" class="node">
<title>Node9</title>
<g id="a_Node000009"><a xlink:href="class_g_l_e_s_c_1_1_transform_1_1_transformer.html#ac4210d1b111a51d877cbe9187cc057f1" target="_top" xlink:title=" ">
<polygon fill="white" stroke="#666666" points="548.5,-82 393.75,-82 393.75,-50 548.5,-50 548.5,-82"/>
<text text-anchor="start" x="401.75" y="-68.5" font-family="Helvetica,sans-Serif" font-size="10.00">GLESC::Transform::Transformer</text>
<text text-anchor="middle" x="471.12" y="-56.5" font-family="Helvetica,sans-Serif" font-size="10.00">::transformMesh</text>
</a>
</g>
</g>
<!-- Node3&#45;&gt;Node9 -->
<g id="edge8_Node000003_Node000009" class="edge">
<title>Node3&#45;&gt;Node9</title>
<g id="a_edge8_Node000003_Node000009"><a xlink:title=" ">
<path fill="none" stroke="#63b8ff" d="M572.83,-85.74C564.82,-84.17 556.74,-82.59 548.83,-81.04"/>
<polygon fill="#63b8ff" stroke="#63b8ff" points="572.13,-89.17 582.62,-87.66 573.48,-82.3 572.13,-89.17"/>
</a>
</g>
</g>
<!-- Node5 -->
<g id="Node000005" class="node">
<title>Node5</title>
<g id="a_Node000005"><a xlink:href="class_g_l_e_s_c_1_1_render_1_1_renderer.html#a3244ebc15bf8310257ec613f62d00a33" target="_top" xlink:title="This renders the frame.">
<polygon fill="white" stroke="#666666" points="357.75,-182 227,-182 227,-150 357.75,-150 357.75,-182"/>
<text text-anchor="start" x="235" y="-168.5" font-family="Helvetica,sans-Serif" font-size="10.00">GLESC::Render::Renderer</text>
<text text-anchor="middle" x="292.38" y="-156.5" font-family="Helvetica,sans-Serif" font-size="10.00">::render</text>
</a>
</g>
</g>
<!-- Node4&#45;&gt;Node5 -->
<g id="edge4_Node000004_Node000005" class="edge">
<title>Node4&#45;&gt;Node5</title>
<g id="a_edge4_Node000004_Node000005"><a xlink:title=" ">
<path fill="none" stroke="#63b8ff" d="M394,-166C382.06,-166 369.83,-166 358.18,-166"/>
<polygon fill="#63b8ff" stroke="#63b8ff" points="393.8,-169.5 403.8,-166 393.8,-162.5 393.8,-169.5"/>
</a>
</g>
</g>
<!-- Node6 -->
<g id="Node000006" class="node">
<title>Node6</title>
<g id="a_Node000006"><a xlink:href="class_g_l_e_s_c_1_1_engine.html#ab0a886855ca341089947b36b9c6f6e15" target="_top" xlink:title="Processes the rendering of the game Can be called at variable intervals of time as it uses elapsed.">
<polygon fill="white" stroke="#666666" points="191,-176 73,-176 73,-156 191,-156 191,-176"/>
<text text-anchor="middle" x="132" y="-162.5" font-family="Helvetica,sans-Serif" font-size="10.00">GLESC::Engine::render</text>
</a>
</g>
</g>
<!-- Node5&#45;&gt;Node6 -->
<g id="edge5_Node000005_Node000006" class="edge">
<title>Node5&#45;&gt;Node6</title>
<g id="a_edge5_Node000005_Node000006"><a xlink:title=" ">
<path fill="none" stroke="#63b8ff" d="M215.24,-166C207.23,-166 199.18,-166 191.42,-166"/>
<polygon fill="#63b8ff" stroke="#63b8ff" points="214.99,-169.5 224.99,-166 214.99,-162.5 214.99,-169.5"/>
</a>
</g>
</g>
<!-- Node7 -->
<g id="Node000007" class="node">
<title>Node7</title>
<g id="a_Node000007"><a xlink:href="main_8cpp.html#a0ddf1224851353fc92bfbff6f499fa97" target="_top" xlink:title=" ">
<polygon fill="white" stroke="#666666" points="37,-176 0,-176 0,-156 37,-156 37,-176"/>
<text text-anchor="middle" x="18.5" y="-162.5" font-family="Helvetica,sans-Serif" font-size="10.00">main</text>
</a>
</g>
</g>
<!-- Node6&#45;&gt;Node7 -->
<g id="edge6_Node000006_Node000007" class="edge">
<title>Node6&#45;&gt;Node7</title>
<g id="a_edge6_Node000006_Node000007"><a xlink:title=" ">
<path fill="none" stroke="#63b8ff" d="M61.31,-166C52.52,-166 44.22,-166 37.37,-166"/>
<polygon fill="#63b8ff" stroke="#63b8ff" points="61.12,-169.5 71.12,-166 61.12,-162.5 61.12,-169.5"/>
</a>
</g>
</g>
<!-- Node11 -->
<g id="Node000011" class="node">
<title>Node11</title>
<g id="a_Node000011"><a xlink:href="class_g_l_e_s_c_1_1_h_u_d_1_1_debug_items.html#a071eef410cb7de5482dd9df35d468b68" target="_top" xlink:title=" ">
<polygon fill="white" stroke="#666666" points="537.62,-32 404.62,-32 404.62,0 537.62,0 537.62,-32"/>
<text text-anchor="start" x="412.62" y="-18.5" font-family="Helvetica,sans-Serif" font-size="10.00">GLESC::HUD::DebugItems</text>
<text text-anchor="middle" x="471.12" y="-6.5" font-family="Helvetica,sans-Serif" font-size="10.00">::windowContent</text>
</a>
</g>
</g>
<!-- Node10&#45;&gt;Node11 -->
<g id="edge10_Node000010_Node000011" class="edge">
<title>Node10&#45;&gt;Node11</title>
<g id="a_edge10_Node000010_Node000011"><a xlink:title=" ">
<path fill="none" stroke="#63b8ff" d="M572.89,-29.35C561.13,-27.79 549.23,-26.21 537.94,-24.72"/>
<polygon fill="#63b8ff" stroke="#63b8ff" points="572.23,-32.79 582.6,-30.63 573.15,-25.85 572.23,-32.79"/>
</a>
</g>
</g>
</g>
</svg>

<g id="navigator" transform="translate(0 0)" fill="#404254">
  <rect fill="#f2f5e9" fill-opacity="0.5" stroke="#606060" stroke-width=".5" x="0" y="0" width="60" height="60"/>
  <use id="zoomplus" xlink:href="#zoomPlus" x="17" y="9" onmousedown="handleZoom(evt,'in')"/>
  <use id="zoomminus" xlink:href="#zoomMin" x="42" y="9" onmousedown="handleZoom(evt,'out')"/>
  <use id="reset" xlink:href="#resetDef" x="30" y="36" onmousedown="handleReset()"/>
   <use id="arrowup" xlink:href="#arrowUp" x="0" y="0" onmousedown="handlePan(0,-1)"/>
  <use id="arrowright" xlink:href="#arrowRight" x="0" y="0" onmousedown="handlePan(1,0)"/>
  <use id="arrowdown" xlink:href="#arrowDown" x="0" y="0" onmousedown="handlePan(0,1)"/>
  <use id="arrowleft" xlink:href="#arrowLeft" x="0" y="0" onmousedown="handlePan(-1,0)"/>
</g>
<svg viewBox="0 0 15 15" width="100%" height="30px" preserveAspectRatio="xMaxYMin meet">
 <g id="arrow_out" transform="scale(0.3 0.3)">
  <a xlink:href="class_g_l_e_s_c_1_1_math_1_1_vector_algorithms_a0ac2336be4653468291125421bfb96ed_icgraph_org.svg" target="_base">
   <rect id="button" ry="5" rx="5" y="6" x="6" height="38" width="38"
        fill="#f2f5e9" fill-opacity="0.5" stroke="#606060" stroke-width="1.0"/>
   <path id="arrow"
     d="M 11.500037,31.436501 C 11.940474,20.09759 22.043105,11.32322 32.158766,21.979434 L 37.068811,17.246167 C 37.068811,17.246167 37.088388,32 37.088388,32 L 22.160133,31.978069 C 22.160133,31.978069 26.997745,27.140456 26.997745,27.140456 C 18.528582,18.264221 13.291696,25.230495 11.500037,31.436501 z"
     style="fill:#404040;"/>
  </a>
 </g>
</svg>

<style type='text/css'>
<![CDATA[
[data-mouse-over-selected='false'] { opacity: 0.7; }
[data-mouse-over-selected='true']  { opacity: 1.0; }
]]>
</style>
<script type="application/ecmascript"><![CDATA[
document.addEventListener('DOMContentLoaded', (event) => {
  highlightEdges();
  highlightAdjacentNodes();
});
]]></script>
</svg>
