<?xml version="1.0" encoding="UTF-8" standalone="no"?>
<!DOCTYPE svg PUBLIC "-//W3C//DTD SVG 1.1//EN"
 "http://www.w3.org/Graphics/SVG/1.1/DTD/svg11.dtd">
<!-- Generated by graphviz version 11.0.0 (20240428.1522)
 -->
<!-- Title: GLESC::Math::Vector::getX Pages: 1 -->
<!--zoomable 240 -->

<svg id="main" version="1.1" xmlns="http://www.w3.org/2000/svg" xmlns:xlink="http://www.w3.org/1999/xlink" xml:space="preserve" onload="init(evt)">
<style type="text/css"><![CDATA[
.node, .edge {opacity: 0.7;}
.node.selected, .edge.selected {opacity: 1;}
.edge:hover path { stroke: red; }
.edge:hover polygon { stroke: red; fill: red; }
]]></style>

<defs>
  <circle id="rim" cx="0" cy="0" r="7"/>
  <circle id="rim2" cx="0" cy="0" r="3.5"/>
  <g id="zoomPlus">
    <use xlink:href="#rim" fill="#404040"><set attributeName="fill" to="#808080" begin="zoomplus.mouseover" end="zoomplus.mouseout"/></use>
    <path d="M-4,0h8M0,-4v8" fill="none" stroke="white" stroke-width="1.5" pointer-events="none"/>
  </g>
  <g id="zoomMin">
    <use xlink:href="#rim" fill="#404040"><set attributeName="fill" to="#808080" begin="zoomminus.mouseover" end="zoomminus.mouseout"/></use>
    <path d="M-4,0h8" fill="none" stroke="white" stroke-width="1.5" pointer-events="none"/>
  </g>
  <g id="arrowUp" transform="translate(30 24)">
    <use xlink:href="#rim"/>
    <path pointer-events="none" fill="none" stroke="white" stroke-width="1.5" d="M0,-3.0v7 M-2.5,-0.5L0,-3.0L2.5,-0.5"/>
  </g>
  <g id="arrowRight" transform="rotate(90) translate(36 -43)">
    <use xlink:href="#rim"/>
    <path pointer-events="none" fill="none" stroke="white" stroke-width="1.5" d="M0,-3.0v7 M-2.5,-0.5L0,-3.0L2.5,-0.5"/>
  </g>
  <g id="arrowDown" transform="rotate(180) translate(-30 -48)">
    <use xlink:href="#rim"/>
    <path pointer-events="none" fill="none" stroke="white" stroke-width="1.5" d="M0,-3.0v7 M-2.5,-0.5L0,-3.0L2.5,-0.5"/>
  </g>
  <g id="arrowLeft" transform="rotate(270) translate(-36 17)">
    <use xlink:href="#rim"/>
    <path pointer-events="none" fill="none" stroke="white" stroke-width="1.5" d="M0,-3.0v7 M-2.5,-0.5L0,-3.0L2.5,-0.5"/>
  </g>
  <g id="resetDef">
    <use xlink:href="#rim2" fill="#404040"><set attributeName="fill" to="#808080" begin="reset.mouseover" end="reset.mouseout"/></use>
  </g>
</defs>
<script type="application/ecmascript">
var viewWidth = 769;
var viewHeight = 240;
var sectionId = 'dynsection-27';
</script>
<script type="application/ecmascript" xlink:href="svg.min.js"/>
<svg id="graph" class="graph">
<g id="viewport">
<title>GLESC::Math::Vector::getX</title>
<!-- Node1 -->
<g id="Node000001" class="node">
<title>Node1</title>
<g id="a_Node000001"><a xlink:title="Returns the x (first) value of the vector.">
<polygon fill="#999999" stroke="#666666" points="761,-132 649.75,-132 649.75,-100 761,-100 761,-132"/>
<text text-anchor="start" x="657.75" y="-118.5" font-family="Helvetica,sans-Serif" font-size="10.00">GLESC::Math::Vector</text>
<text text-anchor="middle" x="705.38" y="-106.5" font-family="Helvetica,sans-Serif" font-size="10.00">::getX</text>
</a>
</g>
</g>
<!-- Node2 -->
<g id="Node000002" class="node">
<title>Node2</title>
<g id="a_Node000002"><a xlink:href="class_g_l_e_s_c_1_1_input_1_1_input_manager.html#a8796655cbd47657f1d277bbedf4c0d4c" target="_top" xlink:title="Calculates the average postion of the mouse from the delta buffer. If the position is less than the d...">
<polygon fill="white" stroke="#666666" points="599.5,-232 459,-232 459,-200 599.5,-200 599.5,-232"/>
<text text-anchor="start" x="467" y="-218.5" font-family="Helvetica,sans-Serif" font-size="10.00">GLESC::Input::InputManager</text>
<text text-anchor="middle" x="529.25" y="-206.5" font-family="Helvetica,sans-Serif" font-size="10.00">::getAvgMousePos</text>
</a>
</g>
</g>
<!-- Node1&#45;&gt;Node2 -->
<g id="edge1_Node000001_Node000002" class="edge">
<title>Node1&#45;&gt;Node2</title>
<g id="a_edge1_Node000001_Node000002"><a xlink:title=" ">
<path fill="none" stroke="#63b8ff" d="M680.97,-139.91C663.73,-156.33 638.98,-177.51 613.75,-191 607.75,-194.21 601.27,-197.07 594.68,-199.59"/>
<polygon fill="#63b8ff" stroke="#63b8ff" points="683,-142.83 687.72,-133.34 678.11,-137.81 683,-142.83"/>
</a>
</g>
</g>
<!-- Node6 -->
<g id="Node000006" class="node">
<title>Node6</title>
<g id="a_Node000006"><a xlink:href="class_g_l_e_s_c_1_1_physics_1_1_physics_manager.html#a989f5035ba226da4a55a192cb42b8675" target="_top" xlink:title=" ">
<polygon fill="white" stroke="#666666" points="613.75,-182 444.75,-182 444.75,-150 613.75,-150 613.75,-182"/>
<text text-anchor="start" x="452.75" y="-168.5" font-family="Helvetica,sans-Serif" font-size="10.00">GLESC::Physics::PhysicsManager</text>
<text text-anchor="middle" x="529.25" y="-156.5" font-family="Helvetica,sans-Serif" font-size="10.00">::handleCollisions</text>
</a>
</g>
</g>
<!-- Node1&#45;&gt;Node6 -->
<g id="edge5_Node000001_Node000006" class="edge">
<title>Node1&#45;&gt;Node6</title>
<g id="a_edge5_Node000001_Node000006"><a xlink:title=" ">
<path fill="none" stroke="#63b8ff" d="M638.48,-134.92C621.77,-139.72 603.95,-144.84 587.69,-149.51"/>
<polygon fill="#63b8ff" stroke="#63b8ff" points="639.18,-138.36 647.83,-132.24 637.25,-131.63 639.18,-138.36"/>
</a>
</g>
</g>
<!-- Node8 -->
<g id="Node000008" class="node">
<title>Node8</title>
<g id="a_Node000008"><a xlink:href="class_g_l_e_s_c_1_1_math_1_1_plane.html#ac40b6fef3f9e3b9115bafd1f5a5b6e17" target="_top" xlink:title="Check if a point is inside the plane.">
<polygon fill="white" stroke="#666666" points="583,-132 475.5,-132 475.5,-100 583,-100 583,-132"/>
<text text-anchor="start" x="483.5" y="-118.5" font-family="Helvetica,sans-Serif" font-size="10.00">GLESC::Math::Plane</text>
<text text-anchor="middle" x="529.25" y="-106.5" font-family="Helvetica,sans-Serif" font-size="10.00">::hasInside</text>
</a>
</g>
</g>
<!-- Node1&#45;&gt;Node8 -->
<g id="edge7_Node000001_Node000008" class="edge">
<title>Node1&#45;&gt;Node8</title>
<g id="a_edge7_Node000001_Node000008"><a xlink:title=" ">
<path fill="none" stroke="#63b8ff" d="M637.96,-116C619.95,-116 600.68,-116 583.5,-116"/>
<polygon fill="#63b8ff" stroke="#63b8ff" points="637.77,-119.5 647.77,-116 637.77,-112.5 637.77,-119.5"/>
</a>
</g>
</g>
<!-- Node9 -->
<g id="Node000009" class="node">
<title>Node9</title>
<g id="a_Node000009"><a xlink:href="class_g_l_e_s_c_1_1_math_1_1_bounding_volume.html#aa9c922ad5b3176ab74bf96467b833e22" target="_top" xlink:title="Checks if the bounding volume contains the given point.">
<polygon fill="white" stroke="#666666" points="607.38,-82 451.12,-82 451.12,-50 607.38,-50 607.38,-82"/>
<text text-anchor="start" x="459.12" y="-68.5" font-family="Helvetica,sans-Serif" font-size="10.00">GLESC::Math::BoundingVolume</text>
<text text-anchor="middle" x="529.25" y="-56.5" font-family="Helvetica,sans-Serif" font-size="10.00">::hasInside</text>
</a>
</g>
</g>
<!-- Node1&#45;&gt;Node9 -->
<g id="edge8_Node000001_Node000009" class="edge">
<title>Node1&#45;&gt;Node9</title>
<g id="a_edge8_Node000001_Node000009"><a xlink:title=" ">
<path fill="none" stroke="#63b8ff" d="M638.48,-97.08C621.77,-92.28 603.95,-87.16 587.69,-82.49"/>
<polygon fill="#63b8ff" stroke="#63b8ff" points="637.25,-100.37 647.83,-99.76 639.18,-93.64 637.25,-100.37"/>
</a>
</g>
</g>
<!-- Node10 -->
<g id="Node000010" class="node">
<title>Node10</title>
<g id="a_Node000010"><a xlink:href="struct_g_l_e_s_c_1_1_transform_1_1_interpolator.html#ac421b853892d9700f61a4f55d6f5582e" target="_top" xlink:title="Interpolates between the current and the last transform.">
<polygon fill="white" stroke="#666666" points="605.12,-32 453.38,-32 453.38,0 605.12,0 605.12,-32"/>
<text text-anchor="start" x="461.38" y="-18.5" font-family="Helvetica,sans-Serif" font-size="10.00">GLESC::Transform::Interpolator</text>
<text text-anchor="middle" x="529.25" y="-6.5" font-family="Helvetica,sans-Serif" font-size="10.00">::interpolate</text>
</a>
</g>
</g>
<!-- Node1&#45;&gt;Node10 -->
<g id="edge9_Node000001_Node000010" class="edge">
<title>Node1&#45;&gt;Node10</title>
<g id="a_edge9_Node000001_Node000010"><a xlink:title=" ">
<path fill="none" stroke="#63b8ff" d="M680.97,-92.09C663.73,-75.67 638.98,-54.49 613.75,-41 607.75,-37.79 601.27,-34.93 594.68,-32.41"/>
<polygon fill="#63b8ff" stroke="#63b8ff" points="678.11,-94.19 687.72,-98.66 683,-89.17 678.11,-94.19"/>
</a>
</g>
</g>
<!-- Node3 -->
<g id="Node000003" class="node">
<title>Node3</title>
<g id="a_Node000003"><a xlink:href="class_g_l_e_s_c_1_1_input_1_1_input_manager.html#a2088e82ea6410ae3534a4fb8f7a0d891" target="_top" xlink:title="Updates the input manager by processing the current input state.">
<polygon fill="white" stroke="#666666" points="402.38,-232 261.88,-232 261.88,-200 402.38,-200 402.38,-232"/>
<text text-anchor="start" x="269.88" y="-218.5" font-family="Helvetica,sans-Serif" font-size="10.00">GLESC::Input::InputManager</text>
<text text-anchor="middle" x="332.12" y="-206.5" font-family="Helvetica,sans-Serif" font-size="10.00">::update</text>
</a>
</g>
</g>
<!-- Node2&#45;&gt;Node3 -->
<g id="edge2_Node000002_Node000003" class="edge">
<title>Node2&#45;&gt;Node3</title>
<g id="a_edge2_Node000002_Node000003"><a xlink:title=" ">
<path fill="none" stroke="#63b8ff" d="M447.41,-216C432.57,-216 417.19,-216 402.72,-216"/>
<polygon fill="#63b8ff" stroke="#63b8ff" points="447.12,-219.5 457.12,-216 447.12,-212.5 447.12,-219.5"/>
</a>
</g>
</g>
<!-- Node4 -->
<g id="Node000004" class="node">
<title>Node4</title>
<g id="a_Node000004"><a xlink:href="class_g_l_e_s_c_1_1_engine.html#aa1aec35d59f1364a79c7a62c29640226" target="_top" xlink:title="Processes the input of the game.">
<polygon fill="white" stroke="#666666" points="219.5,-226 73,-226 73,-206 219.5,-206 219.5,-226"/>
<text text-anchor="middle" x="146.25" y="-212.5" font-family="Helvetica,sans-Serif" font-size="10.00">GLESC::Engine::processInput</text>
</a>
</g>
</g>
<!-- Node3&#45;&gt;Node4 -->
<g id="edge3_Node000003_Node000004" class="edge">
<title>Node3&#45;&gt;Node4</title>
<g id="a_edge3_Node000003_Node000004"><a xlink:title=" ">
<path fill="none" stroke="#63b8ff" d="M250.3,-216C240.19,-216 229.9,-216 219.93,-216"/>
<polygon fill="#63b8ff" stroke="#63b8ff" points="250.1,-219.5 260.1,-216 250.1,-212.5 250.1,-219.5"/>
</a>
</g>
</g>
<!-- Node5 -->
<g id="Node000005" class="node">
<title>Node5</title>
<g id="a_Node000005"><a xlink:href="src_2engine_2main_8cpp.html#a0ddf1224851353fc92bfbff6f499fa97" target="_top" xlink:title=" ">
<polygon fill="white" stroke="#666666" points="37,-226 0,-226 0,-206 37,-206 37,-226"/>
<text text-anchor="middle" x="18.5" y="-212.5" font-family="Helvetica,sans-Serif" font-size="10.00">main</text>
</a>
</g>
</g>
<!-- Node4&#45;&gt;Node5 -->
<g id="edge4_Node000004_Node000005" class="edge">
<title>Node4&#45;&gt;Node5</title>
<g id="a_edge4_Node000004_Node000005"><a xlink:title=" ">
<path fill="none" stroke="#63b8ff" d="M61.48,-216C52.4,-216 43.97,-216 37.09,-216"/>
<polygon fill="#63b8ff" stroke="#63b8ff" points="61.32,-219.5 71.32,-216 61.32,-212.5 61.32,-219.5"/>
</a>
</g>
</g>
<!-- Node7 -->
<g id="Node000007" class="node">
<title>Node7</title>
<g id="a_Node000007"><a xlink:href="class_g_l_e_s_c_1_1_e_c_s_1_1_physics_collision_system.html#a01af297180e01be8c9d22d955bfb11b3" target="_top" xlink:title="Updates the system.">
<polygon fill="white" stroke="#666666" points="408.75,-182 255.5,-182 255.5,-150 408.75,-150 408.75,-182"/>
<text text-anchor="start" x="263.5" y="-168.5" font-family="Helvetica,sans-Serif" font-size="10.00">GLESC::ECS::PhysicsCollision</text>
<text text-anchor="middle" x="332.12" y="-156.5" font-family="Helvetica,sans-Serif" font-size="10.00">System::update</text>
</a>
</g>
</g>
<!-- Node6&#45;&gt;Node7 -->
<g id="edge6_Node000006_Node000007" class="edge">
<title>Node6&#45;&gt;Node7</title>
<g id="a_edge6_Node000006_Node000007"><a xlink:title=" ">
<path fill="none" stroke="#63b8ff" d="M433.09,-166C425.09,-166 417.07,-166 409.24,-166"/>
<polygon fill="#63b8ff" stroke="#63b8ff" points="432.85,-169.5 442.85,-166 432.85,-162.5 432.85,-169.5"/>
</a>
</g>
</g>
</g>
</svg>

<g id="navigator" transform="translate(0 0)" fill="#404254">
  <rect fill="#f2f5e9" fill-opacity="0.5" stroke="#606060" stroke-width=".5" x="0" y="0" width="60" height="60"/>
  <use id="zoomplus" xlink:href="#zoomPlus" x="17" y="9" onmousedown="handleZoom(evt,'in')"/>
  <use id="zoomminus" xlink:href="#zoomMin" x="42" y="9" onmousedown="handleZoom(evt,'out')"/>
  <use id="reset" xlink:href="#resetDef" x="30" y="36" onmousedown="handleReset()"/>
   <use id="arrowup" xlink:href="#arrowUp" x="0" y="0" onmousedown="handlePan(0,-1)"/>
  <use id="arrowright" xlink:href="#arrowRight" x="0" y="0" onmousedown="handlePan(1,0)"/>
  <use id="arrowdown" xlink:href="#arrowDown" x="0" y="0" onmousedown="handlePan(0,1)"/>
  <use id="arrowleft" xlink:href="#arrowLeft" x="0" y="0" onmousedown="handlePan(-1,0)"/>
</g>
<svg viewBox="0 0 15 15" width="100%" height="30px" preserveAspectRatio="xMaxYMin meet">
 <g id="arrow_out" transform="scale(0.3 0.3)">
  <a xlink:href="class_g_l_e_s_c_1_1_math_1_1_vector_a2641be423d1cbbe4654f30ad8ac671a1_icgraph_org.svg" target="_base">
   <rect id="button" ry="5" rx="5" y="6" x="6" height="38" width="38"
        fill="#f2f5e9" fill-opacity="0.5" stroke="#606060" stroke-width="1.0"/>
   <path id="arrow"
     d="M 11.500037,31.436501 C 11.940474,20.09759 22.043105,11.32322 32.158766,21.979434 L 37.068811,17.246167 C 37.068811,17.246167 37.088388,32 37.088388,32 L 22.160133,31.978069 C 22.160133,31.978069 26.997745,27.140456 26.997745,27.140456 C 18.528582,18.264221 13.291696,25.230495 11.500037,31.436501 z"
     style="fill:#404040;"/>
  </a>
 </g>
</svg>

<style type='text/css'>
<![CDATA[
[data-mouse-over-selected='false'] { opacity: 0.7; }
[data-mouse-over-selected='true']  { opacity: 1.0; }
]]>
</style>
<script type="application/ecmascript"><![CDATA[
document.addEventListener('DOMContentLoaded', (event) => {
  highlightEdges();
  highlightAdjacentNodes();
});
]]></script>
</svg>
