<?xml version="1.0" encoding="UTF-8" standalone="no"?>
<!DOCTYPE svg PUBLIC "-//W3C//DTD SVG 1.1//EN"
 "http://www.w3.org/Graphics/SVG/1.1/DTD/svg11.dtd">
<!-- Generated by graphviz version 11.0.0 (20240428.1522)
 -->
<!-- Title: GLESC::Math::Plane::distanceToPoint Pages: 1 -->
<svg width="476pt" height="40pt"
 viewBox="0.00 0.00 476.00 40.00" xmlns="http://www.w3.org/2000/svg" xmlns:xlink="http://www.w3.org/1999/xlink">
<g id="graph0" class="graph" transform="scale(1 1) rotate(0) translate(4 36)">
<title>GLESC::Math::Plane::distanceToPoint</title>
<!-- Node1 -->
<g id="Node000001" class="node">
<title>Node1</title>
<g id="a_Node000001"><a xlink:title="Calculate the distance from the plane to a point.">
<polygon fill="#999999" stroke="#666666" points="107.5,-32 0,-32 0,0 107.5,0 107.5,-32"/>
<text text-anchor="start" x="8" y="-18.5" font-family="Helvetica,sans-Serif" font-size="10.00">GLESC::Math::Plane</text>
<text text-anchor="middle" x="53.75" y="-6.5" font-family="Helvetica,sans-Serif" font-size="10.00">::distanceToPoint</text>
</a>
</g>
</g>
<!-- Node2 -->
<g id="Node000002" class="node">
<title>Node2</title>
<g id="a_Node000002"><a xlink:href="class_g_l_e_s_c_1_1_math_1_1_vector.html#ab7062a9b67c16d4e60413b625412b4eb" target="_top" xlink:title="Returns the dot product of two vectors.">
<polygon fill="white" stroke="#666666" points="274.25,-26 143.5,-26 143.5,-6 274.25,-6 274.25,-26"/>
<text text-anchor="middle" x="208.88" y="-12.5" font-family="Helvetica,sans-Serif" font-size="10.00">GLESC::Math::Vector::dot</text>
</a>
</g>
</g>
<!-- Node1&#45;&gt;Node2 -->
<g id="edge1_Node000001_Node000002" class="edge">
<title>Node1&#45;&gt;Node2</title>
<g id="a_edge1_Node000001_Node000002"><a xlink:title=" ">
<path fill="none" stroke="#63b8ff" d="M107.88,-16C115.63,-16 123.73,-16 131.83,-16"/>
<polygon fill="#63b8ff" stroke="#63b8ff" points="131.72,-19.5 141.72,-16 131.72,-12.5 131.72,-19.5"/>
</a>
</g>
</g>
<!-- Node3 -->
<g id="Node000003" class="node">
<title>Node3</title>
<g id="a_Node000003"><a xlink:href="class_g_l_e_s_c_1_1_math_1_1_vector_algorithms.html#ae45bcff9b53fb60d513c53823418d97b" target="_top" xlink:title="Computes the dot product of two vectors.">
<polygon fill="white" stroke="#666666" points="468,-32 310.25,-32 310.25,0 468,0 468,-32"/>
<text text-anchor="start" x="318.25" y="-18.5" font-family="Helvetica,sans-Serif" font-size="10.00">GLESC::Math::VectorAlgorithms</text>
<text text-anchor="middle" x="389.12" y="-6.5" font-family="Helvetica,sans-Serif" font-size="10.00">::dotProduct</text>
</a>
</g>
</g>
<!-- Node2&#45;&gt;Node3 -->
<g id="edge2_Node000002_Node000003" class="edge">
<title>Node2&#45;&gt;Node3</title>
<g id="a_edge2_Node000002_Node000003"><a xlink:title=" ">
<path fill="none" stroke="#63b8ff" d="M274.73,-16C282.51,-16 290.56,-16 298.61,-16"/>
<polygon fill="#63b8ff" stroke="#63b8ff" points="298.46,-19.5 308.46,-16 298.46,-12.5 298.46,-19.5"/>
</a>
</g>
</g>
</g>
</svg>
