<?xml version="1.0" encoding="UTF-8" standalone="no"?>
<!DOCTYPE svg PUBLIC "-//W3C//DTD SVG 1.1//EN"
 "http://www.w3.org/Graphics/SVG/1.1/DTD/svg11.dtd">
<!-- Generated by graphviz version 11.0.0 (20240428.1522)
 -->
<!-- Title: GLESC::ECS::EntityFactory::tryGetEntity Pages: 1 -->
<svg width="695pt" height="40pt"
 viewBox="0.00 0.00 695.25 40.00" xmlns="http://www.w3.org/2000/svg" xmlns:xlink="http://www.w3.org/1999/xlink">
<g id="graph0" class="graph" transform="scale(1 1) rotate(0) translate(4 36)">
<title>GLESC::ECS::EntityFactory::tryGetEntity</title>
<!-- Node1 -->
<g id="Node000001" class="node">
<title>Node1</title>
<g id="a_Node000001"><a xlink:title="Tries to get an entity by its name.">
<polygon fill="#999999" stroke="#666666" points="139.75,-32 0,-32 0,0 139.75,0 139.75,-32"/>
<text text-anchor="start" x="8" y="-18.5" font-family="Helvetica,sans-Serif" font-size="10.00">GLESC::ECS::EntityFactory</text>
<text text-anchor="middle" x="69.88" y="-6.5" font-family="Helvetica,sans-Serif" font-size="10.00">::tryGetEntity</text>
</a>
</g>
</g>
<!-- Node2 -->
<g id="Node000002" class="node">
<title>Node2</title>
<g id="a_Node000002"><a xlink:href="class_g_l_e_s_c_1_1_e_c_s_1_1_e_c_s_coordinator.html#a5521a94c59c0d93511a953011cb13227" target="_top" xlink:title="Tries to get the entity ID from the entity name.">
<polygon fill="white" stroke="#666666" points="326.75,-32 175.75,-32 175.75,0 326.75,0 326.75,-32"/>
<text text-anchor="start" x="183.75" y="-18.5" font-family="Helvetica,sans-Serif" font-size="10.00">GLESC::ECS::ECSCoordinator</text>
<text text-anchor="middle" x="251.25" y="-6.5" font-family="Helvetica,sans-Serif" font-size="10.00">::tryGetEntityID</text>
</a>
</g>
</g>
<!-- Node1&#45;&gt;Node2 -->
<g id="edge1_Node000001_Node000002" class="edge">
<title>Node1&#45;&gt;Node2</title>
<g id="a_edge1_Node000001_Node000002"><a xlink:title=" ">
<path fill="none" stroke="#63b8ff" d="M140.23,-16C148.07,-16 156.12,-16 164.15,-16"/>
<polygon fill="#63b8ff" stroke="#63b8ff" points="163.92,-19.5 173.92,-16 163.92,-12.5 163.92,-19.5"/>
</a>
</g>
</g>
<!-- Node3 -->
<g id="Node000003" class="node">
<title>Node3</title>
<g id="a_Node000003"><a xlink:href="class_g_l_e_s_c_1_1_e_c_s_1_1_entity_manager.html#a95435313352faa0c2917e1297b4a0058" target="_top" xlink:title="Tries to get the entity ID from the entity name.">
<polygon fill="white" stroke="#666666" points="507,-32 362.75,-32 362.75,0 507,0 507,-32"/>
<text text-anchor="start" x="370.75" y="-18.5" font-family="Helvetica,sans-Serif" font-size="10.00">GLESC::ECS::EntityManager</text>
<text text-anchor="middle" x="434.88" y="-6.5" font-family="Helvetica,sans-Serif" font-size="10.00">::tryGetEntity</text>
</a>
</g>
</g>
<!-- Node2&#45;&gt;Node3 -->
<g id="edge2_Node000002_Node000003" class="edge">
<title>Node2&#45;&gt;Node3</title>
<g id="a_edge2_Node000002_Node000003"><a xlink:title=" ">
<path fill="none" stroke="#63b8ff" d="M327.17,-16C334.99,-16 342.96,-16 350.86,-16"/>
<polygon fill="#63b8ff" stroke="#63b8ff" points="350.82,-19.5 360.82,-16 350.82,-12.5 350.82,-19.5"/>
</a>
</g>
</g>
<!-- Node4 -->
<g id="Node000004" class="node">
<title>Node4</title>
<g id="a_Node000004"><a xlink:href="class_g_l_e_s_c_1_1_e_c_s_1_1_entity_manager.html#a5145504091eb26170aa219acb60aca71" target="_top" xlink:title="Check if the entity with the given name exists.">
<polygon fill="white" stroke="#666666" points="687.25,-32 543,-32 543,0 687.25,0 687.25,-32"/>
<text text-anchor="start" x="551" y="-18.5" font-family="Helvetica,sans-Serif" font-size="10.00">GLESC::ECS::EntityManager</text>
<text text-anchor="middle" x="615.12" y="-6.5" font-family="Helvetica,sans-Serif" font-size="10.00">::doesEntityExist</text>
</a>
</g>
</g>
<!-- Node3&#45;&gt;Node4 -->
<g id="edge3_Node000003_Node000004" class="edge">
<title>Node3&#45;&gt;Node4</title>
<g id="a_edge3_Node000003_Node000004"><a xlink:title=" ">
<path fill="none" stroke="#63b8ff" d="M507.35,-16C515.25,-16 523.34,-16 531.36,-16"/>
<polygon fill="#63b8ff" stroke="#63b8ff" points="531.12,-19.5 541.12,-16 531.12,-12.5 531.12,-19.5"/>
</a>
</g>
</g>
</g>
</svg>
