<?xml version="1.0" encoding="UTF-8" standalone="no"?>
<!DOCTYPE svg PUBLIC "-//W3C//DTD SVG 1.1//EN"
 "http://www.w3.org/Graphics/SVG/1.1/DTD/svg11.dtd">
<!-- Generated by graphviz version 11.0.0 (20240428.1522)
 -->
<!-- Title: GLESC::SoundPlayer Pages: 1 -->
<!--zoomable 724 -->

<svg id="main" version="1.1" xmlns="http://www.w3.org/2000/svg" xmlns:xlink="http://www.w3.org/1999/xlink" xml:space="preserve" onload="init(evt)">
<style type="text/css"><![CDATA[
.node, .edge {opacity: 0.7;}
.node.selected, .edge.selected {opacity: 1;}
.edge:hover path { stroke: red; }
.edge:hover polygon { stroke: red; fill: red; }
]]></style>

<defs>
  <circle id="rim" cx="0" cy="0" r="7"/>
  <circle id="rim2" cx="0" cy="0" r="3.5"/>
  <g id="zoomPlus">
    <use xlink:href="#rim" fill="#404040"><set attributeName="fill" to="#808080" begin="zoomplus.mouseover" end="zoomplus.mouseout"/></use>
    <path d="M-4,0h8M0,-4v8" fill="none" stroke="white" stroke-width="1.5" pointer-events="none"/>
  </g>
  <g id="zoomMin">
    <use xlink:href="#rim" fill="#404040"><set attributeName="fill" to="#808080" begin="zoomminus.mouseover" end="zoomminus.mouseout"/></use>
    <path d="M-4,0h8" fill="none" stroke="white" stroke-width="1.5" pointer-events="none"/>
  </g>
  <g id="arrowUp" transform="translate(30 24)">
    <use xlink:href="#rim"/>
    <path pointer-events="none" fill="none" stroke="white" stroke-width="1.5" d="M0,-3.0v7 M-2.5,-0.5L0,-3.0L2.5,-0.5"/>
  </g>
  <g id="arrowRight" transform="rotate(90) translate(36 -43)">
    <use xlink:href="#rim"/>
    <path pointer-events="none" fill="none" stroke="white" stroke-width="1.5" d="M0,-3.0v7 M-2.5,-0.5L0,-3.0L2.5,-0.5"/>
  </g>
  <g id="arrowDown" transform="rotate(180) translate(-30 -48)">
    <use xlink:href="#rim"/>
    <path pointer-events="none" fill="none" stroke="white" stroke-width="1.5" d="M0,-3.0v7 M-2.5,-0.5L0,-3.0L2.5,-0.5"/>
  </g>
  <g id="arrowLeft" transform="rotate(270) translate(-36 17)">
    <use xlink:href="#rim"/>
    <path pointer-events="none" fill="none" stroke="white" stroke-width="1.5" d="M0,-3.0v7 M-2.5,-0.5L0,-3.0L2.5,-0.5"/>
  </g>
  <g id="resetDef">
    <use xlink:href="#rim2" fill="#404040"><set attributeName="fill" to="#808080" begin="reset.mouseover" end="reset.mouseout"/></use>
  </g>
</defs>
<script type="application/ecmascript">
var viewWidth = 281;
var viewHeight = 724;
var sectionId = 'dynsection-0';
</script>
<script type="application/ecmascript" xlink:href="svg.min.js"/>
<svg id="graph" class="graph">
<g id="viewport">
<title>GLESC::SoundPlayer</title>
<!-- Node1 -->
<g id="Node000001" class="node">
<title>Node1</title>
<g id="a_Node000001"><a xlink:title="Class that handles sound playing.">
<polygon fill="#999999" stroke="none" points="179.5,-196 75.5,-196 75.5,0 179.5,0 179.5,-196"/>
<text text-anchor="start" x="80.25" y="-182.5" font-family="Helvetica,sans-Serif" font-size="10.00">GLESC::SoundPlayer</text>
<text text-anchor="start" x="83" y="-166.5" font-family="Helvetica,sans-Serif" font-size="10.00">&#45;</text>
<text text-anchor="start" x="93.5" y="-166.5" font-family="Helvetica,sans-Serif" font-size="10.00">currentMusic</text>
<text text-anchor="start" x="83" y="-150.5" font-family="Helvetica,sans-Serif" font-size="10.00">&#45;</text>
<text text-anchor="start" x="93.5" y="-150.5" font-family="Helvetica,sans-Serif" font-size="10.00">maxDistance</text>
<text text-anchor="start" x="81.5" y="-134.5" font-family="Helvetica,sans-Serif" font-size="10.00">+</text>
<text text-anchor="start" x="93.5" y="-134.5" font-family="Helvetica,sans-Serif" font-size="10.00">cleanup()</text>
<text text-anchor="start" x="81.5" y="-118.5" font-family="Helvetica,sans-Serif" font-size="10.00">+</text>
<text text-anchor="start" x="93.5" y="-118.5" font-family="Helvetica,sans-Serif" font-size="10.00">init()</text>
<text text-anchor="start" x="81.5" y="-102.5" font-family="Helvetica,sans-Serif" font-size="10.00">+</text>
<text text-anchor="start" x="93.5" y="-102.5" font-family="Helvetica,sans-Serif" font-size="10.00">loadSong()</text>
<text text-anchor="start" x="81.5" y="-86.5" font-family="Helvetica,sans-Serif" font-size="10.00">+</text>
<text text-anchor="start" x="93.5" y="-86.5" font-family="Helvetica,sans-Serif" font-size="10.00">loadSound()</text>
<text text-anchor="start" x="81.5" y="-70.5" font-family="Helvetica,sans-Serif" font-size="10.00">+</text>
<text text-anchor="start" x="93.5" y="-70.5" font-family="Helvetica,sans-Serif" font-size="10.00">play3DSound()</text>
<text text-anchor="start" x="81.5" y="-54.5" font-family="Helvetica,sans-Serif" font-size="10.00">+</text>
<text text-anchor="start" x="93.5" y="-54.5" font-family="Helvetica,sans-Serif" font-size="10.00">playMusic()</text>
<text text-anchor="start" x="81.5" y="-38.5" font-family="Helvetica,sans-Serif" font-size="10.00">+</text>
<text text-anchor="start" x="93.5" y="-38.5" font-family="Helvetica,sans-Serif" font-size="10.00">playSound()</text>
<text text-anchor="start" x="81.5" y="-22.5" font-family="Helvetica,sans-Serif" font-size="10.00">+</text>
<text text-anchor="start" x="93.5" y="-22.5" font-family="Helvetica,sans-Serif" font-size="10.00">setMusic()</text>
<text text-anchor="start" x="81.5" y="-6.5" font-family="Helvetica,sans-Serif" font-size="10.00">+</text>
<text text-anchor="start" x="93.5" y="-6.5" font-family="Helvetica,sans-Serif" font-size="10.00">setMusicVolume()</text>
<polygon fill="#666666" stroke="#666666" points="75.5,-178 75.5,-178 179.5,-178 179.5,-178 75.5,-178"/>
<polygon fill="#666666" stroke="#666666" points="75.5,-146 75.5,-146 91.5,-146 91.5,-146 75.5,-146"/>
<polygon fill="#666666" stroke="#666666" points="91.5,-146 91.5,-146 179.5,-146 179.5,-146 91.5,-146"/>
<polygon fill="none" stroke="#666666" points="75.5,0 75.5,-196 179.5,-196 179.5,0 75.5,0"/>
</a>
</g>
</g>
<!-- Node2 -->
<g id="Node000002" class="node">
<title>Node2</title>
<g id="a_Node000002"><a xlink:href="class_g_l_e_s_c_1_1_sound_loader.html" target="_top" xlink:title="Class that loads and stores sounds and music.">
<polygon fill="white" stroke="none" points="180.5,-376 74.5,-376 74.5,-244 180.5,-244 180.5,-376"/>
<text text-anchor="start" x="79.5" y="-362.5" font-family="Helvetica,sans-Serif" font-size="10.00">GLESC::SoundLoader</text>
<text text-anchor="start" x="88.5" y="-346.5" font-family="Helvetica,sans-Serif" font-size="10.00">&#45;</text>
<text text-anchor="start" x="105.5" y="-346.5" font-family="Helvetica,sans-Serif" font-size="10.00">soundsPath</text>
<text text-anchor="start" x="88.5" y="-330.5" font-family="Helvetica,sans-Serif" font-size="10.00">&#45;</text>
<text text-anchor="start" x="105.5" y="-330.5" font-family="Helvetica,sans-Serif" font-size="10.00">cleanup()</text>
<text text-anchor="start" x="88.5" y="-314.5" font-family="Helvetica,sans-Serif" font-size="10.00">&#45;</text>
<text text-anchor="start" x="105.5" y="-314.5" font-family="Helvetica,sans-Serif" font-size="10.00">getMusic()</text>
<text text-anchor="start" x="88.5" y="-298.5" font-family="Helvetica,sans-Serif" font-size="10.00">&#45;</text>
<text text-anchor="start" x="105.5" y="-298.5" font-family="Helvetica,sans-Serif" font-size="10.00">getSound()</text>
<text text-anchor="start" x="88.5" y="-282.5" font-family="Helvetica,sans-Serif" font-size="10.00">&#45;</text>
<text text-anchor="start" x="105.5" y="-282.5" font-family="Helvetica,sans-Serif" font-size="10.00">loadMusic()</text>
<text text-anchor="start" x="88.5" y="-266.5" font-family="Helvetica,sans-Serif" font-size="10.00">&#45;</text>
<text text-anchor="start" x="105.5" y="-266.5" font-family="Helvetica,sans-Serif" font-size="10.00">loadSound()</text>
<text text-anchor="start" x="88.5" y="-250.5" font-family="Helvetica,sans-Serif" font-size="10.00">&#45;</text>
<text text-anchor="start" x="105.5" y="-250.5" font-family="Helvetica,sans-Serif" font-size="10.00">init()</text>
<polygon fill="#666666" stroke="#666666" points="74.5,-358 74.5,-358 180.5,-358 180.5,-358 74.5,-358"/>
<polygon fill="#666666" stroke="#666666" points="74.5,-342 74.5,-342 103.5,-342 103.5,-342 74.5,-342"/>
<polygon fill="#666666" stroke="#666666" points="103.5,-342 103.5,-342 180.5,-342 180.5,-342 103.5,-342"/>
<polygon fill="none" stroke="#666666" points="74.5,-244 74.5,-376 180.5,-376 180.5,-244 74.5,-244"/>
</a>
</g>
</g>
<!-- Node2&#45;&gt;Node1 -->
<g id="edge1_Node000001_Node000002" class="edge">
<title>Node2&#45;&gt;Node1</title>
<g id="a_edge1_Node000001_Node000002"><a xlink:title=" ">
<path fill="none" stroke="#63b8ff" d="M127.5,-244.28C127.5,-232.92 127.5,-220.82 127.5,-208.64"/>
<polygon fill="none" stroke="#63b8ff" points="127.5,-208.84 123.5,-202.84 127.5,-196.84 131.5,-202.84 127.5,-208.84"/>
</a>
</g>
<text text-anchor="middle" x="158.25" y="-216.5" font-family="Helvetica,sans-Serif" font-size="10.00" fill="grey"> &#45;soundLoader</text>
</g>
<!-- Node3 -->
<g id="Node000003" class="node">
<title>Node3</title>
<g id="a_Node000003"><a xlink:title=" ">
<polygon fill="white" stroke="none" points="119,-504 0,-504 0,-424 119,-424 119,-504"/>
<text text-anchor="start" x="4.75" y="-490.5" font-family="Helvetica,sans-Serif" font-size="10.00">std::map&lt; Hasher::Hash,</text>
<text text-anchor="start" x="25.75" y="-478.5" font-family="Helvetica,sans-Serif" font-size="10.00"> Mix_Chunk * &gt;</text>
<text text-anchor="start" x="19.5" y="-462.5" font-family="Helvetica,sans-Serif" font-size="10.00">+</text>
<text text-anchor="start" x="45" y="-462.5" font-family="Helvetica,sans-Serif" font-size="10.00">elements</text>
<text text-anchor="start" x="19.5" y="-446.5" font-family="Helvetica,sans-Serif" font-size="10.00">+</text>
<text text-anchor="start" x="45" y="-446.5" font-family="Helvetica,sans-Serif" font-size="10.00">keys</text>
<text text-anchor="start" x="58" y="-430.5" font-family="Helvetica,sans-Serif" font-size="10.00"> </text>
<polygon fill="#666666" stroke="#666666" points="0,-474 0,-474 119,-474 119,-474 0,-474"/>
<polygon fill="#666666" stroke="#666666" points="0,-442 0,-442 43,-442 43,-442 0,-442"/>
<polygon fill="#666666" stroke="#666666" points="43,-442 43,-442 119,-442 119,-442 43,-442"/>
<polygon fill="none" stroke="#666666" points="0,-424 0,-504 119,-504 119,-424 0,-424"/>
</a>
</g>
</g>
<!-- Node3&#45;&gt;Node2 -->
<g id="edge2_Node000002_Node000003" class="edge">
<title>Node3&#45;&gt;Node2</title>
<g id="a_edge2_Node000002_Node000003"><a xlink:title=" ">
<path fill="none" stroke="#63b8ff" d="M76.84,-424.25C81.87,-413 87.54,-400.31 93.23,-387.6"/>
<polygon fill="none" stroke="#63b8ff" points="93.17,-387.73 91.97,-380.62 98.07,-376.78 99.27,-383.89 93.17,-387.73"/>
</a>
</g>
<text text-anchor="middle" x="108.25" y="-396.5" font-family="Helvetica,sans-Serif" font-size="10.00" fill="grey"> &#45;sounds</text>
</g>
<!-- Node4 -->
<g id="Node000004" class="node">
<title>Node4</title>
<g id="a_Node000004"><a xlink:title=" ">
<polygon fill="white" stroke="none" points="169.5,-616 85.5,-616 85.5,-564 169.5,-564 169.5,-616"/>
<text text-anchor="start" x="90.38" y="-602.5" font-family="Helvetica,sans-Serif" font-size="10.00">std::map&lt; K, T &gt;</text>
<text text-anchor="start" x="126" y="-586.5" font-family="Helvetica,sans-Serif" font-size="10.00"> </text>
<text text-anchor="start" x="126" y="-570.5" font-family="Helvetica,sans-Serif" font-size="10.00"> </text>
<polygon fill="#666666" stroke="#666666" points="85.5,-598 85.5,-598 169.5,-598 169.5,-598 85.5,-598"/>
<polygon fill="#666666" stroke="#666666" points="85.5,-582 85.5,-582 169.5,-582 169.5,-582 85.5,-582"/>
<polygon fill="none" stroke="#666666" points="85.5,-564 85.5,-616 169.5,-616 169.5,-564 85.5,-564"/>
</a>
</g>
</g>
<!-- Node4&#45;&gt;Node3 -->
<g id="edge3_Node000003_Node000004" class="edge">
<title>Node4&#45;&gt;Node3</title>
<g id="a_edge3_Node000003_Node000004"><a xlink:title=" ">
<path fill="none" stroke="orange" d="M82.86,-556.08C80.1,-552.9 77.6,-549.53 75.5,-546 67.94,-533.32 63.88,-517.73 61.71,-503.62"/>
<polygon fill="orange" stroke="orange" points="80.09,-558.26 89.57,-562.99 85.11,-553.38 80.09,-558.26"/>
</a>
</g>
<text text-anchor="start" x="75.5" y="-536.5" font-family="Helvetica,sans-Serif" font-size="10.00" fill="grey"> &lt; Hasher::Hash, Mix</text>
<text text-anchor="middle" x="122" y="-524.5" font-family="Helvetica,sans-Serif" font-size="10.00" fill="grey">_Chunk * &gt;</text>
</g>
<!-- Node7 -->
<g id="Node000007" class="node">
<title>Node7</title>
<g id="a_Node000007"><a xlink:title=" ">
<polygon fill="white" stroke="none" points="256,-504 137,-504 137,-424 256,-424 256,-504"/>
<text text-anchor="start" x="141.75" y="-490.5" font-family="Helvetica,sans-Serif" font-size="10.00">std::map&lt; Hasher::Hash,</text>
<text text-anchor="start" x="163.5" y="-478.5" font-family="Helvetica,sans-Serif" font-size="10.00"> Mix_Music * &gt;</text>
<text text-anchor="start" x="156.5" y="-462.5" font-family="Helvetica,sans-Serif" font-size="10.00">+</text>
<text text-anchor="start" x="182" y="-462.5" font-family="Helvetica,sans-Serif" font-size="10.00">elements</text>
<text text-anchor="start" x="156.5" y="-446.5" font-family="Helvetica,sans-Serif" font-size="10.00">+</text>
<text text-anchor="start" x="182" y="-446.5" font-family="Helvetica,sans-Serif" font-size="10.00">keys</text>
<text text-anchor="start" x="195" y="-430.5" font-family="Helvetica,sans-Serif" font-size="10.00"> </text>
<polygon fill="#666666" stroke="#666666" points="137,-474 137,-474 256,-474 256,-474 137,-474"/>
<polygon fill="#666666" stroke="#666666" points="137,-442 137,-442 180,-442 180,-442 137,-442"/>
<polygon fill="#666666" stroke="#666666" points="180,-442 180,-442 256,-442 256,-442 180,-442"/>
<polygon fill="none" stroke="#666666" points="137,-424 137,-504 256,-504 256,-424 137,-424"/>
</a>
</g>
</g>
<!-- Node4&#45;&gt;Node7 -->
<g id="edge7_Node000007_Node000004" class="edge">
<title>Node4&#45;&gt;Node7</title>
<g id="a_edge7_Node000007_Node000004"><a xlink:title=" ">
<path fill="none" stroke="orange" d="M162.01,-555.34C164.37,-552.3 166.57,-549.17 168.5,-546 176.4,-533.04 182.45,-517.55 186.87,-503.6"/>
<polygon fill="orange" stroke="orange" points="159.35,-553.06 155.58,-562.96 164.71,-557.58 159.35,-553.06"/>
</a>
</g>
<text text-anchor="start" x="179.5" y="-536.5" font-family="Helvetica,sans-Serif" font-size="10.00" fill="grey"> &lt; Hasher::Hash, Mix</text>
<text text-anchor="middle" x="226" y="-524.5" font-family="Helvetica,sans-Serif" font-size="10.00" fill="grey">_Music * &gt;</text>
</g>
<!-- Node5 -->
<g id="Node000005" class="node">
<title>Node5</title>
<g id="a_Node000005"><a xlink:title=" ">
<polygon fill="white" stroke="none" points="109.5,-716 93.5,-716 93.5,-664 109.5,-664 109.5,-716"/>
<text text-anchor="start" x="98.12" y="-702.5" font-family="Helvetica,sans-Serif" font-size="10.00">K</text>
<text text-anchor="start" x="100" y="-686.5" font-family="Helvetica,sans-Serif" font-size="10.00"> </text>
<text text-anchor="start" x="100" y="-670.5" font-family="Helvetica,sans-Serif" font-size="10.00"> </text>
<polygon fill="#666666" stroke="#666666" points="93.5,-698 93.5,-698 109.5,-698 109.5,-698 93.5,-698"/>
<polygon fill="#666666" stroke="#666666" points="93.5,-682 93.5,-682 109.5,-682 109.5,-682 93.5,-682"/>
<polygon fill="none" stroke="#666666" points="93.5,-664 93.5,-716 109.5,-716 109.5,-664 93.5,-664"/>
</a>
</g>
</g>
<!-- Node5&#45;&gt;Node4 -->
<g id="edge4_Node000004_Node000005" class="edge">
<title>Node5&#45;&gt;Node4</title>
<g id="a_edge4_Node000004_Node000005"><a xlink:title=" ">
<path fill="none" stroke="#63b8ff" d="M99.32,-664.25C99.15,-654.65 99.8,-643.66 102.5,-634 103.09,-631.88 103.81,-629.76 104.63,-627.66"/>
<polygon fill="none" stroke="#63b8ff" points="104.65,-627.63 103.6,-620.49 109.78,-616.78 110.83,-623.92 104.65,-627.63"/>
</a>
</g>
<text text-anchor="middle" x="117.5" y="-636.5" font-family="Helvetica,sans-Serif" font-size="10.00" fill="grey"> +keys</text>
</g>
<!-- Node6 -->
<g id="Node000006" class="node">
<title>Node6</title>
<g id="a_Node000006"><a xlink:title=" ">
<polygon fill="white" stroke="none" points="162,-716 147,-716 147,-664 162,-664 162,-716"/>
<text text-anchor="start" x="151.88" y="-702.5" font-family="Helvetica,sans-Serif" font-size="10.00">T</text>
<text text-anchor="start" x="153" y="-686.5" font-family="Helvetica,sans-Serif" font-size="10.00"> </text>
<text text-anchor="start" x="153" y="-670.5" font-family="Helvetica,sans-Serif" font-size="10.00"> </text>
<polygon fill="#666666" stroke="#666666" points="147,-698 147,-698 162,-698 162,-698 147,-698"/>
<polygon fill="#666666" stroke="#666666" points="147,-682 147,-682 162,-682 162,-682 147,-682"/>
<polygon fill="none" stroke="#666666" points="147,-664 147,-716 162,-716 162,-664 147,-664"/>
</a>
</g>
</g>
<!-- Node6&#45;&gt;Node4 -->
<g id="edge5_Node000004_Node000006" class="edge">
<title>Node6&#45;&gt;Node4</title>
<g id="a_edge5_Node000004_Node000006"><a xlink:title=" ">
<path fill="none" stroke="#63b8ff" d="M147.62,-664.02C144.63,-653.19 141.08,-640.28 137.79,-628.35"/>
<polygon fill="none" stroke="#63b8ff" points="137.8,-628.38 132.35,-623.65 134.61,-616.81 140.06,-621.53 137.8,-628.38"/>
</a>
</g>
<text text-anchor="middle" x="166.88" y="-636.5" font-family="Helvetica,sans-Serif" font-size="10.00" fill="grey"> +elements</text>
</g>
<!-- Node7&#45;&gt;Node2 -->
<g id="edge6_Node000002_Node000007" class="edge">
<title>Node7&#45;&gt;Node2</title>
<g id="a_edge6_Node000002_Node000007"><a xlink:title=" ">
<path fill="none" stroke="#63b8ff" d="M178.91,-424.25C173.8,-413 168.04,-400.31 162.27,-387.6"/>
<polygon fill="none" stroke="#63b8ff" points="162.32,-387.7 156.2,-383.89 157.36,-376.78 163.48,-380.59 162.32,-387.7"/>
</a>
</g>
<text text-anchor="middle" x="185.62" y="-396.5" font-family="Helvetica,sans-Serif" font-size="10.00" fill="grey"> &#45;music</text>
</g>
</g>
</svg>

<g id="navigator" transform="translate(0 0)" fill="#404254">
  <rect fill="#f2f5e9" fill-opacity="0.5" stroke="#606060" stroke-width=".5" x="0" y="0" width="60" height="60"/>
  <use id="zoomplus" xlink:href="#zoomPlus" x="17" y="9" onmousedown="handleZoom(evt,'in')"/>
  <use id="zoomminus" xlink:href="#zoomMin" x="42" y="9" onmousedown="handleZoom(evt,'out')"/>
  <use id="reset" xlink:href="#resetDef" x="30" y="36" onmousedown="handleReset()"/>
   <use id="arrowup" xlink:href="#arrowUp" x="0" y="0" onmousedown="handlePan(0,-1)"/>
  <use id="arrowright" xlink:href="#arrowRight" x="0" y="0" onmousedown="handlePan(1,0)"/>
  <use id="arrowdown" xlink:href="#arrowDown" x="0" y="0" onmousedown="handlePan(0,1)"/>
  <use id="arrowleft" xlink:href="#arrowLeft" x="0" y="0" onmousedown="handlePan(-1,0)"/>
</g>
<svg viewBox="0 0 15 15" width="100%" height="30px" preserveAspectRatio="xMaxYMin meet">
 <g id="arrow_out" transform="scale(0.3 0.3)">
  <a xlink:href="class_g_l_e_s_c_1_1_sound_player__coll__graph_org.svg" target="_base">
   <rect id="button" ry="5" rx="5" y="6" x="6" height="38" width="38"
        fill="#f2f5e9" fill-opacity="0.5" stroke="#606060" stroke-width="1.0"/>
   <path id="arrow"
     d="M 11.500037,31.436501 C 11.940474,20.09759 22.043105,11.32322 32.158766,21.979434 L 37.068811,17.246167 C 37.068811,17.246167 37.088388,32 37.088388,32 L 22.160133,31.978069 C 22.160133,31.978069 26.997745,27.140456 26.997745,27.140456 C 18.528582,18.264221 13.291696,25.230495 11.500037,31.436501 z"
     style="fill:#404040;"/>
  </a>
 </g>
</svg>

<style type='text/css'>
<![CDATA[
[data-mouse-over-selected='false'] { opacity: 0.7; }
[data-mouse-over-selected='true']  { opacity: 1.0; }
]]>
</style>
<script type="application/ecmascript"><![CDATA[
document.addEventListener('DOMContentLoaded', (event) => {
  highlightEdges();
  highlightAdjacentNodes();
});
]]></script>
</svg>
