<?xml version="1.0" encoding="UTF-8" standalone="no"?>
<!DOCTYPE svg PUBLIC "-//W3C//DTD SVG 1.1//EN"
 "http://www.w3.org/Graphics/SVG/1.1/DTD/svg11.dtd">
<!-- Generated by graphviz version 11.0.0 (20240428.1522)
 -->
<!-- Title: GLESC::Math::BoundingVolume::getMin Pages: 1 -->
<svg width="896pt" height="52pt"
 viewBox="0.00 0.00 895.75 52.00" xmlns="http://www.w3.org/2000/svg" xmlns:xlink="http://www.w3.org/1999/xlink">
<g id="graph0" class="graph" transform="scale(1 1) rotate(0) translate(4 48)">
<title>GLESC::Math::BoundingVolume::getMin</title>
<!-- Node1 -->
<g id="Node000001" class="node">
<title>Node1</title>
<g id="a_Node000001"><a xlink:title="Get the minimum point of the bounding volume.">
<polygon fill="#999999" stroke="#666666" points="887.75,-38 731.5,-38 731.5,-6 887.75,-6 887.75,-38"/>
<text text-anchor="start" x="739.5" y="-24.5" font-family="Helvetica,sans-Serif" font-size="10.00">GLESC::Math::BoundingVolume</text>
<text text-anchor="middle" x="809.62" y="-12.5" font-family="Helvetica,sans-Serif" font-size="10.00">::getMin</text>
</a>
</g>
</g>
<!-- Node2 -->
<g id="Node000002" class="node">
<title>Node2</title>
<g id="a_Node000002"><a xlink:href="class_g_l_e_s_c_1_1_physics_1_1_collision_manager.html#a08b533dc5dcfccae52648f2b7fa0c9b4" target="_top" xlink:title=" ">
<polygon fill="white" stroke="#666666" points="695.5,-38 560.25,-38 560.25,-6 695.5,-6 695.5,-38"/>
<text text-anchor="start" x="568.25" y="-24.5" font-family="Helvetica,sans-Serif" font-size="10.00">GLESC::Physics::Collision</text>
<text text-anchor="middle" x="627.88" y="-12.5" font-family="Helvetica,sans-Serif" font-size="10.00">Manager::getCollisionDepth</text>
</a>
</g>
</g>
<!-- Node1&#45;&gt;Node2 -->
<g id="edge1_Node000001_Node000002" class="edge">
<title>Node1&#45;&gt;Node2</title>
<g id="a_edge1_Node000001_Node000002"><a xlink:title=" ">
<path fill="none" stroke="#63b8ff" d="M719.8,-22C711.79,-22 703.77,-22 695.99,-22"/>
<polygon fill="#63b8ff" stroke="#63b8ff" points="719.58,-25.5 729.58,-22 719.58,-18.5 719.58,-25.5"/>
</a>
</g>
</g>
<!-- Node3 -->
<g id="Node000003" class="node">
<title>Node3</title>
<g id="a_Node000003"><a xlink:href="class_g_l_e_s_c_1_1_physics_1_1_collision_manager.html#a27c5c28ac5363d15ea2f149fa618bb4f" target="_top" xlink:title=" ">
<polygon fill="white" stroke="#666666" points="524.25,-38 391.25,-38 391.25,-6 524.25,-6 524.25,-38"/>
<text text-anchor="start" x="399.25" y="-24.5" font-family="Helvetica,sans-Serif" font-size="10.00">GLESC::Physics::Collision</text>
<text text-anchor="middle" x="457.75" y="-12.5" font-family="Helvetica,sans-Serif" font-size="10.00">Manager::updateCollider</text>
</a>
</g>
</g>
<!-- Node2&#45;&gt;Node3 -->
<g id="edge2_Node000002_Node000003" class="edge">
<title>Node2&#45;&gt;Node3</title>
<g id="a_edge2_Node000002_Node000003"><a xlink:title=" ">
<path fill="none" stroke="#63b8ff" d="M548.66,-22C540.62,-22 532.51,-22 524.63,-22"/>
<polygon fill="#63b8ff" stroke="#63b8ff" points="548.43,-25.5 558.43,-22 548.43,-18.5 548.43,-25.5"/>
</a>
</g>
</g>
<!-- Node4 -->
<g id="Node000004" class="node">
<title>Node4</title>
<g id="a_Node000004"><a xlink:href="class_g_l_e_s_c_1_1_physics_1_1_collision_manager.html#a3e36f52b42d71e2e6adf6a61626e196a" target="_top" xlink:title=" ">
<polygon fill="white" stroke="#666666" points="355.25,-44 189.25,-44 189.25,0 355.25,0 355.25,-44"/>
<text text-anchor="start" x="197.25" y="-30.5" font-family="Helvetica,sans-Serif" font-size="10.00">GLESC::Physics::Collision</text>
<text text-anchor="start" x="197.25" y="-18.5" font-family="Helvetica,sans-Serif" font-size="10.00">Manager::checkAndUpdateCollider</text>
<text text-anchor="middle" x="272.25" y="-6.5" font-family="Helvetica,sans-Serif" font-size="10.00">Information</text>
</a>
</g>
</g>
<!-- Node3&#45;&gt;Node4 -->
<g id="edge3_Node000003_Node000004" class="edge">
<title>Node3&#45;&gt;Node4</title>
<g id="a_edge3_Node000003_Node000004"><a xlink:title=" ">
<path fill="none" stroke="#63b8ff" d="M379.38,-22C371.51,-22 363.51,-22 355.6,-22"/>
<polygon fill="#63b8ff" stroke="#63b8ff" points="379.25,-25.5 389.25,-22 379.25,-18.5 379.25,-25.5"/>
</a>
</g>
</g>
<!-- Node5 -->
<g id="Node000005" class="node">
<title>Node5</title>
<g id="a_Node000005"><a xlink:href="class_g_l_e_s_c_1_1_e_c_s_1_1_physics_collision_system.html#a01af297180e01be8c9d22d955bfb11b3" target="_top" xlink:title="Updates the system.">
<polygon fill="white" stroke="#666666" points="153.25,-38 0,-38 0,-6 153.25,-6 153.25,-38"/>
<text text-anchor="start" x="8" y="-24.5" font-family="Helvetica,sans-Serif" font-size="10.00">GLESC::ECS::PhysicsCollision</text>
<text text-anchor="middle" x="76.62" y="-12.5" font-family="Helvetica,sans-Serif" font-size="10.00">System::update</text>
</a>
</g>
</g>
<!-- Node4&#45;&gt;Node5 -->
<g id="edge4_Node000004_Node000005" class="edge">
<title>Node4&#45;&gt;Node5</title>
<g id="a_edge4_Node000004_Node000005"><a xlink:title=" ">
<path fill="none" stroke="#63b8ff" d="M177.51,-22C169.46,-22 161.38,-22 153.5,-22"/>
<polygon fill="#63b8ff" stroke="#63b8ff" points="177.34,-25.5 187.34,-22 177.34,-18.5 177.34,-25.5"/>
</a>
</g>
</g>
</g>
</svg>
