<?xml version="1.0" encoding="UTF-8" standalone="no"?>
<!DOCTYPE svg PUBLIC "-//W3C//DTD SVG 1.1//EN"
 "http://www.w3.org/Graphics/SVG/1.1/DTD/svg11.dtd">
<!-- Generated by graphviz version 11.0.0 (20240428.1522)
 -->
<!-- Title: GLESC::Math::MatrixAlgorithms::matrixInverse Pages: 1 -->
<svg width="502pt" height="115pt"
 viewBox="0.00 0.00 502.25 115.00" xmlns="http://www.w3.org/2000/svg" xmlns:xlink="http://www.w3.org/1999/xlink">
<g id="graph0" class="graph" transform="scale(1 1) rotate(0) translate(4 111)">
<title>GLESC::Math::MatrixAlgorithms::matrixInverse</title>
<!-- Node1 -->
<g id="Node000001" class="node">
<title>Node1</title>
<g id="a_Node000001"><a xlink:title="Calculates the inverse of any square matrix.">
<polygon fill="#999999" stroke="#666666" points="494.25,-82 338,-82 338,-50 494.25,-50 494.25,-82"/>
<text text-anchor="start" x="346" y="-68.5" font-family="Helvetica,sans-Serif" font-size="10.00">GLESC::Math::MatrixAlgorithms</text>
<text text-anchor="middle" x="416.12" y="-56.5" font-family="Helvetica,sans-Serif" font-size="10.00">::matrixInverse</text>
</a>
</g>
</g>
<!-- Node2 -->
<g id="Node000002" class="node">
<title>Node2</title>
<g id="a_Node000002"><a xlink:href="class_g_l_e_s_c_1_1_math_1_1_matrix.html#a3509fbaa0df9cb3def4bd2adaa9a0600" target="_top" xlink:title="Calculates the inverse of the matrix.">
<polygon fill="white" stroke="#666666" points="278.75,-107 169,-107 169,-75 278.75,-75 278.75,-107"/>
<text text-anchor="start" x="177" y="-93.5" font-family="Helvetica,sans-Serif" font-size="10.00">GLESC::Math::Matrix</text>
<text text-anchor="middle" x="223.88" y="-81.5" font-family="Helvetica,sans-Serif" font-size="10.00">::inverse</text>
</a>
</g>
</g>
<!-- Node1&#45;&gt;Node2 -->
<g id="edge1_Node000001_Node000002" class="edge">
<title>Node1&#45;&gt;Node2</title>
<g id="a_edge1_Node000001_Node000002"><a xlink:title=" ">
<path fill="none" stroke="#63b8ff" d="M326.6,-77.63C310.42,-79.76 293.98,-81.92 279.17,-83.87"/>
<polygon fill="#63b8ff" stroke="#63b8ff" points="326.78,-81.14 336.24,-76.37 325.87,-74.2 326.78,-81.14"/>
</a>
</g>
</g>
<!-- Node3 -->
<g id="Node000003" class="node">
<title>Node3</title>
<g id="a_Node000003"><a xlink:href="class_g_l_e_s_c_1_1_math_1_1_matrix_algorithms.html#a9a320568d4cd85a382cb80f773e6e98f" target="_top" xlink:title="Matrix division.">
<polygon fill="white" stroke="#666666" points="302,-57 145.75,-57 145.75,-25 302,-25 302,-57"/>
<text text-anchor="start" x="153.75" y="-43.5" font-family="Helvetica,sans-Serif" font-size="10.00">GLESC::Math::MatrixAlgorithms</text>
<text text-anchor="middle" x="223.88" y="-31.5" font-family="Helvetica,sans-Serif" font-size="10.00">::matrixMatrixDiv</text>
</a>
</g>
</g>
<!-- Node1&#45;&gt;Node3 -->
<g id="edge2_Node000001_Node000003" class="edge">
<title>Node1&#45;&gt;Node3</title>
<g id="a_edge2_Node000001_Node000003"><a xlink:title=" ">
<path fill="none" stroke="#63b8ff" d="M326.48,-54.35C318.47,-53.3 310.4,-52.24 302.5,-51.2"/>
<polygon fill="#63b8ff" stroke="#63b8ff" points="325.87,-57.8 336.24,-55.63 326.78,-50.86 325.87,-57.8"/>
</a>
</g>
</g>
<!-- Node4 -->
<g id="Node000004" class="node">
<title>Node4</title>
<g id="a_Node000004"><a xlink:href="class_g_l_e_s_c_1_1_math_1_1_matrix.html#aadc4dae081d04d6df913d882ab4c7bb5" target="_top" xlink:title="Matrix division by matrix.">
<polygon fill="white" stroke="#666666" points="109.75,-82 0,-82 0,-50 109.75,-50 109.75,-82"/>
<text text-anchor="start" x="8" y="-68.5" font-family="Helvetica,sans-Serif" font-size="10.00">GLESC::Math::Matrix</text>
<text text-anchor="middle" x="54.88" y="-56.5" font-family="Helvetica,sans-Serif" font-size="10.00">::operator/</text>
</a>
</g>
</g>
<!-- Node3&#45;&gt;Node4 -->
<g id="edge3_Node000003_Node000004" class="edge">
<title>Node3&#45;&gt;Node4</title>
<g id="a_edge3_Node000003_Node000004"><a xlink:title=" ">
<path fill="none" stroke="#63b8ff" d="M134.62,-54.21C126.17,-55.48 117.79,-56.73 109.82,-57.93"/>
<polygon fill="#63b8ff" stroke="#63b8ff" points="134.86,-57.71 144.23,-52.77 133.83,-50.79 134.86,-57.71"/>
</a>
</g>
</g>
<!-- Node5 -->
<g id="Node000005" class="node">
<title>Node5</title>
<g id="a_Node000005"><a xlink:href="class_g_l_e_s_c_1_1_math_1_1_matrix.html#ae49bdfe2f706c9c73080948a9faa8114" target="_top" xlink:title="In&#45;place division by another matrix.">
<polygon fill="white" stroke="#666666" points="109.75,-32 0,-32 0,0 109.75,0 109.75,-32"/>
<text text-anchor="start" x="8" y="-18.5" font-family="Helvetica,sans-Serif" font-size="10.00">GLESC::Math::Matrix</text>
<text text-anchor="middle" x="54.88" y="-6.5" font-family="Helvetica,sans-Serif" font-size="10.00">::operator/=</text>
</a>
</g>
</g>
<!-- Node3&#45;&gt;Node5 -->
<g id="edge4_Node000003_Node000005" class="edge">
<title>Node3&#45;&gt;Node5</title>
<g id="a_edge4_Node000003_Node000005"><a xlink:title=" ">
<path fill="none" stroke="#63b8ff" d="M134.62,-27.79C126.17,-26.52 117.79,-25.27 109.82,-24.07"/>
<polygon fill="#63b8ff" stroke="#63b8ff" points="133.83,-31.21 144.23,-29.23 134.86,-24.29 133.83,-31.21"/>
</a>
</g>
</g>
</g>
</svg>
