<?xml version="1.0" encoding="UTF-8" standalone="no"?>
<!DOCTYPE svg PUBLIC "-//W3C//DTD SVG 1.1//EN"
 "http://www.w3.org/Graphics/SVG/1.1/DTD/svg11.dtd">
<!-- Generated by graphviz version 11.0.0 (20240428.1522)
 -->
<!-- Title: GLESC::WindowManager::setIcon Pages: 1 -->
<!--zoomable 178 -->

<svg id="main" version="1.1" xmlns="http://www.w3.org/2000/svg" xmlns:xlink="http://www.w3.org/1999/xlink" xml:space="preserve" onload="init(evt)">
<style type="text/css"><![CDATA[
.node, .edge {opacity: 0.7;}
.node.selected, .edge.selected {opacity: 1;}
.edge:hover path { stroke: red; }
.edge:hover polygon { stroke: red; fill: red; }
]]></style>

<defs>
  <circle id="rim" cx="0" cy="0" r="7"/>
  <circle id="rim2" cx="0" cy="0" r="3.5"/>
  <g id="zoomPlus">
    <use xlink:href="#rim" fill="#404040"><set attributeName="fill" to="#808080" begin="zoomplus.mouseover" end="zoomplus.mouseout"/></use>
    <path d="M-4,0h8M0,-4v8" fill="none" stroke="white" stroke-width="1.5" pointer-events="none"/>
  </g>
  <g id="zoomMin">
    <use xlink:href="#rim" fill="#404040"><set attributeName="fill" to="#808080" begin="zoomminus.mouseover" end="zoomminus.mouseout"/></use>
    <path d="M-4,0h8" fill="none" stroke="white" stroke-width="1.5" pointer-events="none"/>
  </g>
  <g id="arrowUp" transform="translate(30 24)">
    <use xlink:href="#rim"/>
    <path pointer-events="none" fill="none" stroke="white" stroke-width="1.5" d="M0,-3.0v7 M-2.5,-0.5L0,-3.0L2.5,-0.5"/>
  </g>
  <g id="arrowRight" transform="rotate(90) translate(36 -43)">
    <use xlink:href="#rim"/>
    <path pointer-events="none" fill="none" stroke="white" stroke-width="1.5" d="M0,-3.0v7 M-2.5,-0.5L0,-3.0L2.5,-0.5"/>
  </g>
  <g id="arrowDown" transform="rotate(180) translate(-30 -48)">
    <use xlink:href="#rim"/>
    <path pointer-events="none" fill="none" stroke="white" stroke-width="1.5" d="M0,-3.0v7 M-2.5,-0.5L0,-3.0L2.5,-0.5"/>
  </g>
  <g id="arrowLeft" transform="rotate(270) translate(-36 17)">
    <use xlink:href="#rim"/>
    <path pointer-events="none" fill="none" stroke="white" stroke-width="1.5" d="M0,-3.0v7 M-2.5,-0.5L0,-3.0L2.5,-0.5"/>
  </g>
  <g id="resetDef">
    <use xlink:href="#rim2" fill="#404040"><set attributeName="fill" to="#808080" begin="reset.mouseover" end="reset.mouseout"/></use>
  </g>
</defs>
<script type="application/ecmascript">
var viewWidth = 659;
var viewHeight = 178;
var sectionId = 'dynsection-14';
</script>
<script type="application/ecmascript" xlink:href="svg.min.js"/>
<svg id="graph" class="graph">
<g id="viewport">
<title>GLESC::WindowManager::setIcon</title>
<!-- Node1 -->
<g id="Node000001" class="node">
<title>Node1</title>
<g id="a_Node000001"><a xlink:title="Set the window icon. Updates the icon displayed in the window&#39;s title bar.">
<polygon fill="#999999" stroke="#666666" points="127,-138 0,-138 0,-106 127,-106 127,-138"/>
<text text-anchor="start" x="8" y="-124.5" font-family="Helvetica,sans-Serif" font-size="10.00">GLESC::WindowManager</text>
<text text-anchor="middle" x="63.5" y="-112.5" font-family="Helvetica,sans-Serif" font-size="10.00">::setIcon</text>
</a>
</g>
</g>
<!-- Node2 -->
<g id="Node000002" class="node">
<title>Node2</title>
<g id="a_Node000002"><a xlink:href="class_g_l_e_s_c_1_1_logger.html#a9b12ce53593be134b7d7dea62607d22d" target="_top" xlink:title=" ">
<polygon fill="white" stroke="#666666" points="293.75,-170 190,-170 190,-150 293.75,-150 293.75,-170"/>
<text text-anchor="middle" x="241.88" y="-156.5" font-family="Helvetica,sans-Serif" font-size="10.00">GLESC::Logger::get</text>
</a>
</g>
</g>
<!-- Node1&#45;&gt;Node2 -->
<g id="edge1_Node000001_Node000002" class="edge">
<title>Node1&#45;&gt;Node2</title>
<g id="a_edge1_Node000001_Node000002"><a xlink:title=" ">
<path fill="none" stroke="#63b8ff" d="M127.18,-135.5C144.72,-139.28 163.74,-143.38 181.11,-147.12"/>
<polygon fill="#63b8ff" stroke="#63b8ff" points="180.26,-150.52 190.78,-149.21 181.74,-143.68 180.26,-150.52"/>
</a>
</g>
</g>
<!-- Node3 -->
<g id="Node000003" class="node">
<title>Node3</title>
<g id="a_Node000003"><a xlink:href="class_bin_path.html#a518dec5500f3666c8ecc54023e0c229d" target="_top" xlink:title=" ">
<polygon fill="white" stroke="#666666" points="320.75,-132 163,-132 163,-112 320.75,-112 320.75,-132"/>
<text text-anchor="middle" x="241.88" y="-118.5" font-family="Helvetica,sans-Serif" font-size="10.00">BinPath::getExecutableDirectory</text>
</a>
</g>
</g>
<!-- Node1&#45;&gt;Node3 -->
<g id="edge2_Node000001_Node000003" class="edge">
<title>Node1&#45;&gt;Node3</title>
<g id="a_edge2_Node000001_Node000003"><a xlink:title=" ">
<path fill="none" stroke="#63b8ff" d="M127.18,-122C134.99,-122 143.08,-122 151.2,-122"/>
<polygon fill="#63b8ff" stroke="#63b8ff" points="151.14,-125.5 161.14,-122 151.14,-118.5 151.14,-125.5"/>
</a>
</g>
</g>
<!-- Node5 -->
<g id="Node000005" class="node">
<title>Node5</title>
<g id="a_Node000005"><a xlink:href="class_g_l_e_s_c_1_1_logger.html#a5fa42012f212a31fe7eb06c5ba93caba" target="_top" xlink:title="Display basic information Background – Black Text – White.">
<polygon fill="white" stroke="#666666" points="294.5,-80 189.25,-80 189.25,-60 294.5,-60 294.5,-80"/>
<text text-anchor="middle" x="241.88" y="-66.5" font-family="Helvetica,sans-Serif" font-size="10.00">GLESC::Logger::info</text>
</a>
</g>
</g>
<!-- Node1&#45;&gt;Node5 -->
<g id="edge4_Node000001_Node000005" class="edge">
<title>Node1&#45;&gt;Node5</title>
<g id="a_edge4_Node000001_Node000005"><a xlink:title=" ">
<path fill="none" stroke="#63b8ff" d="M120.31,-105.55C144.24,-98.49 171.88,-90.34 194.65,-83.63"/>
<polygon fill="#63b8ff" stroke="#63b8ff" points="195.34,-87.07 203.94,-80.89 193.36,-80.36 195.34,-87.07"/>
</a>
</g>
</g>
<!-- Node4 -->
<g id="Node000004" class="node">
<title>Node4</title>
<g id="a_Node000004"><a xlink:href="class_bin_path.html#afc63e7a8201f134535b3531659dd97a3" target="_top" xlink:title=" ">
<polygon fill="white" stroke="#666666" points="495.75,-146 356.75,-146 356.75,-126 495.75,-126 495.75,-146"/>
<text text-anchor="middle" x="426.25" y="-132.5" font-family="Helvetica,sans-Serif" font-size="10.00">BinPath::getExecutablePath</text>
</a>
</g>
</g>
<!-- Node3&#45;&gt;Node4 -->
<g id="edge3_Node000003_Node000004" class="edge">
<title>Node3&#45;&gt;Node4</title>
<g id="a_edge3_Node000003_Node000004"><a xlink:title=" ">
<path fill="none" stroke="#63b8ff" d="M321.01,-128C329.03,-128.61 337.18,-129.24 345.22,-129.86"/>
<polygon fill="#63b8ff" stroke="#63b8ff" points="344.73,-133.33 354.97,-130.6 345.27,-126.35 344.73,-133.33"/>
</a>
</g>
</g>
<!-- Node6 -->
<g id="Node000006" class="node">
<title>Node6</title>
<g id="a_Node000006"><a xlink:href="class_g_l_e_s_c_1_1_logger.html#adcc4730c087b2df0b97cccc15557e432" target="_top" xlink:title=" ">
<polygon fill="white" stroke="#666666" points="495,-108 357.5,-108 357.5,-76 495,-76 495,-108"/>
<text text-anchor="start" x="365.5" y="-94.5" font-family="Helvetica,sans-Serif" font-size="10.00">GLESC::Logger::executeOn</text>
<text text-anchor="middle" x="426.25" y="-82.5" font-family="Helvetica,sans-Serif" font-size="10.00">AllInputs</text>
</a>
</g>
</g>
<!-- Node5&#45;&gt;Node6 -->
<g id="edge5_Node000005_Node000006" class="edge">
<title>Node5&#45;&gt;Node6</title>
<g id="a_edge5_Node000005_Node000006"><a xlink:title=" ">
<path fill="none" stroke="#63b8ff" d="M294.65,-76.25C310.63,-78.17 328.61,-80.34 346,-82.44"/>
<polygon fill="#63b8ff" stroke="#63b8ff" points="345.47,-85.9 355.82,-83.62 346.31,-78.95 345.47,-85.9"/>
</a>
</g>
</g>
<!-- Node8 -->
<g id="Node000008" class="node">
<title>Node8</title>
<g id="a_Node000008"><a xlink:href="_debug_entity_data_h_u_d_8cpp.html#a9acf295be457442cac6bccc0bf75112c" target="_top" xlink:title=" ">
<polygon fill="white" stroke="#666666" points="607.38,-61 574.88,-61 574.88,-41 607.38,-41 607.38,-61"/>
<text text-anchor="middle" x="591.12" y="-47.5" font-family="Helvetica,sans-Serif" font-size="10.00">text</text>
</a>
</g>
</g>
<!-- Node5&#45;&gt;Node8 -->
<g id="edge9_Node000005_Node000008" class="edge">
<title>Node5&#45;&gt;Node8</title>
<g id="a_edge9_Node000005_Node000008"><a xlink:title=" ">
<path fill="none" stroke="#63b8ff" d="M294.86,-67.16C369.78,-63.06 505.4,-55.64 563.04,-52.48"/>
<polygon fill="#63b8ff" stroke="#63b8ff" points="563.11,-55.98 572.9,-51.94 562.72,-48.99 563.11,-55.98"/>
</a>
</g>
</g>
<!-- Node9 -->
<g id="Node000009" class="node">
<title>Node9</title>
<g id="a_Node000009"><a xlink:href="class_i_logger.html#af378b37a56de2bad5c4ce2d0f7572f9c" target="_top" xlink:title="Display basic information Background – Black Text – White.">
<polygon fill="white" stroke="#666666" points="460.5,-20 392,-20 392,0 460.5,0 460.5,-20"/>
<text text-anchor="middle" x="426.25" y="-6.5" font-family="Helvetica,sans-Serif" font-size="10.00">ILogger::info</text>
</a>
</g>
</g>
<!-- Node5&#45;&gt;Node9 -->
<g id="edge8_Node000005_Node000009" class="edge">
<title>Node5&#45;&gt;Node9</title>
<g id="a_edge8_Node000005_Node000009"><a xlink:title=" ">
<path fill="none" stroke="#63b8ff" d="M274.64,-59.55C304.62,-49.68 349.79,-34.83 382.84,-23.95"/>
<polygon fill="#63b8ff" stroke="#63b8ff" points="383.7,-27.35 392.1,-20.9 381.51,-20.71 383.7,-27.35"/>
</a>
</g>
</g>
<!-- Node7 -->
<g id="Node000007" class="node">
<title>Node7</title>
<g id="a_Node000007"><a xlink:href="class_concurrent_queue.html#a7d61d602747cee9adf97076d2781023c" target="_top" xlink:title=" ">
<polygon fill="white" stroke="#666666" points="650.5,-102 531.75,-102 531.75,-82 650.5,-82 650.5,-102"/>
<text text-anchor="middle" x="591.12" y="-88.5" font-family="Helvetica,sans-Serif" font-size="10.00">ConcurrentQueue::push</text>
</a>
</g>
</g>
<!-- Node6&#45;&gt;Node7 -->
<g id="edge6_Node000006_Node000007" class="edge">
<title>Node6&#45;&gt;Node7</title>
<g id="a_edge6_Node000006_Node000007"><a xlink:title=" ">
<path fill="none" stroke="#63b8ff" d="M495.38,-92C503.5,-92 511.8,-92 519.94,-92"/>
<polygon fill="#63b8ff" stroke="#63b8ff" points="519.81,-95.5 529.81,-92 519.81,-88.5 519.81,-95.5"/>
</a>
</g>
</g>
<!-- Node6&#45;&gt;Node8 -->
<g id="edge7_Node000006_Node000008" class="edge">
<title>Node6&#45;&gt;Node8</title>
<g id="a_edge7_Node000006_Node000008"><a xlink:title=" ">
<path fill="none" stroke="#63b8ff" d="M492.56,-75.56C517.48,-69.29 544.5,-62.49 563.77,-57.63"/>
<polygon fill="#63b8ff" stroke="#63b8ff" points="564.37,-61.09 573.21,-55.26 562.66,-54.3 564.37,-61.09"/>
</a>
</g>
</g>
</g>
</svg>

<g id="navigator" transform="translate(0 0)" fill="#404254">
  <rect fill="#f2f5e9" fill-opacity="0.5" stroke="#606060" stroke-width=".5" x="0" y="0" width="60" height="60"/>
  <use id="zoomplus" xlink:href="#zoomPlus" x="17" y="9" onmousedown="handleZoom(evt,'in')"/>
  <use id="zoomminus" xlink:href="#zoomMin" x="42" y="9" onmousedown="handleZoom(evt,'out')"/>
  <use id="reset" xlink:href="#resetDef" x="30" y="36" onmousedown="handleReset()"/>
   <use id="arrowup" xlink:href="#arrowUp" x="0" y="0" onmousedown="handlePan(0,-1)"/>
  <use id="arrowright" xlink:href="#arrowRight" x="0" y="0" onmousedown="handlePan(1,0)"/>
  <use id="arrowdown" xlink:href="#arrowDown" x="0" y="0" onmousedown="handlePan(0,1)"/>
  <use id="arrowleft" xlink:href="#arrowLeft" x="0" y="0" onmousedown="handlePan(-1,0)"/>
</g>
<svg viewBox="0 0 15 15" width="100%" height="30px" preserveAspectRatio="xMaxYMin meet">
 <g id="arrow_out" transform="scale(0.3 0.3)">
  <a xlink:href="class_g_l_e_s_c_1_1_window_manager_a868610be619fc4bc72a387b7efc15ee4_cgraph_org.svg" target="_base">
   <rect id="button" ry="5" rx="5" y="6" x="6" height="38" width="38"
        fill="#f2f5e9" fill-opacity="0.5" stroke="#606060" stroke-width="1.0"/>
   <path id="arrow"
     d="M 11.500037,31.436501 C 11.940474,20.09759 22.043105,11.32322 32.158766,21.979434 L 37.068811,17.246167 C 37.068811,17.246167 37.088388,32 37.088388,32 L 22.160133,31.978069 C 22.160133,31.978069 26.997745,27.140456 26.997745,27.140456 C 18.528582,18.264221 13.291696,25.230495 11.500037,31.436501 z"
     style="fill:#404040;"/>
  </a>
 </g>
</svg>

<style type='text/css'>
<![CDATA[
[data-mouse-over-selected='false'] { opacity: 0.7; }
[data-mouse-over-selected='true']  { opacity: 1.0; }
]]>
</style>
<script type="application/ecmascript"><![CDATA[
document.addEventListener('DOMContentLoaded', (event) => {
  highlightEdges();
  highlightAdjacentNodes();
});
]]></script>
</svg>
