<?xml version="1.0" encoding="UTF-8" standalone="no"?>
<!DOCTYPE svg PUBLIC "-//W3C//DTD SVG 1.1//EN"
 "http://www.w3.org/Graphics/SVG/1.1/DTD/svg11.dtd">
<!-- Generated by graphviz version 11.0.0 (20240428.1522)
 -->
<!-- Title: GLESC::Render::Mesh::sendToGpuBuffers Pages: 1 -->
<svg width="297pt" height="290pt"
 viewBox="0.00 0.00 297.25 290.00" xmlns="http://www.w3.org/2000/svg" xmlns:xlink="http://www.w3.org/1999/xlink">

<svg id="main" version="1.1" xmlns="http://www.w3.org/2000/svg" xmlns:xlink="http://www.w3.org/1999/xlink" xml:space="preserve" onload="init(evt)">
<style type="text/css"><![CDATA[
.node, .edge {opacity: 0.7;}
.node.selected, .edge.selected {opacity: 1;}
.edge:hover path { stroke: red; }
.edge:hover polygon { stroke: red; fill: red; }
]]></style>
<script type="application/ecmascript" xlink:href="svg.min.js"/>
<svg id="graph" class="graph">
<g id="graph0" class="graph" transform="scale(1 1) rotate(0) translate(4 286)">
<title>GLESC::Render::Mesh::sendToGpuBuffers</title>
<!-- Node1 -->
<g id="Node000001" class="node">
<title>Node1</title>
<g id="a_Node000001"><a xlink:title="This method creates GPU buffers and sends the data to the GPU.">
<polygon fill="#999999" stroke="#666666" points="115.75,-157 0,-157 0,-125 115.75,-125 115.75,-157"/>
<text text-anchor="start" x="8" y="-143.5" font-family="Helvetica,sans-Serif" font-size="10.00">GLESC::Render::Mesh</text>
<text text-anchor="middle" x="57.88" y="-131.5" font-family="Helvetica,sans-Serif" font-size="10.00">::sendToGpuBuffers</text>
</a>
</g>
</g>
<!-- Node2 -->
<g id="Node000002" class="node">
<title>Node2</title>
<g id="a_Node000002"><a xlink:href="namespace_g_l_e_s_c_1_1_render.html#abf0ba7a8a1d7a71fc7140708adcbaf55" target="_top" xlink:title="This maps the enum of the renderer to the enum of the graphic api.">
<polygon fill="white" stroke="#666666" points="285.5,-282 155.5,-282 155.5,-250 285.5,-250 285.5,-282"/>
<text text-anchor="start" x="163.5" y="-268.5" font-family="Helvetica,sans-Serif" font-size="10.00">GLESC::Render::getBuffer</text>
<text text-anchor="middle" x="220.5" y="-256.5" font-family="Helvetica,sans-Serif" font-size="10.00">Usage</text>
</a>
</g>
</g>
<!-- Node1&#45;&gt;Node2 -->
<g id="edge1_Node000001_Node000002" class="edge">
<title>Node1&#45;&gt;Node2</title>
<g id="a_edge1_Node000001_Node000002"><a xlink:title=" ">
<path fill="none" stroke="#63b8ff" d="M70.25,-157.42C86.16,-179.28 117.05,-217.87 151.75,-241 153.55,-242.2 155.41,-243.35 157.33,-244.46"/>
<polygon fill="#63b8ff" stroke="#63b8ff" points="155.38,-247.39 165.87,-248.89 158.61,-241.18 155.38,-247.39"/>
</a>
</g>
</g>
<!-- Node3 -->
<g id="Node000003" class="node">
<title>Node3</title>
<g id="a_Node000003"><a xlink:href="class_g_l_e_s_c_1_1_render_1_1_mesh.html#a381eebee8232da309c65aa1942ac1756" target="_top" xlink:title=" ">
<polygon fill="white" stroke="#666666" points="278.38,-232 162.62,-232 162.62,-200 278.38,-200 278.38,-232"/>
<text text-anchor="start" x="170.62" y="-218.5" font-family="Helvetica,sans-Serif" font-size="10.00">GLESC::Render::Mesh</text>
<text text-anchor="middle" x="220.5" y="-206.5" font-family="Helvetica,sans-Serif" font-size="10.00">::getIndices</text>
</a>
</g>
</g>
<!-- Node1&#45;&gt;Node3 -->
<g id="edge2_Node000001_Node000003" class="edge">
<title>Node1&#45;&gt;Node3</title>
<g id="a_edge2_Node000001_Node000003"><a xlink:title=" ">
<path fill="none" stroke="#63b8ff" d="M86.81,-157.37C104.98,-167.69 129.38,-180.91 151.75,-191 155.06,-192.49 158.5,-193.97 161.98,-195.42"/>
<polygon fill="#63b8ff" stroke="#63b8ff" points="160.51,-198.6 171.1,-199.07 163.12,-192.1 160.51,-198.6"/>
</a>
</g>
</g>
<!-- Node4 -->
<g id="Node000004" class="node">
<title>Node4</title>
<g id="a_Node000004"><a xlink:href="class_g_l_e_s_c_1_1_render_1_1_mesh.html#a6e11ed4a4df7573e35af2eb1841501f3" target="_top" xlink:title=" ">
<polygon fill="white" stroke="#666666" points="278.38,-182 162.62,-182 162.62,-150 278.38,-150 278.38,-182"/>
<text text-anchor="start" x="170.62" y="-168.5" font-family="Helvetica,sans-Serif" font-size="10.00">GLESC::Render::Mesh</text>
<text text-anchor="middle" x="220.5" y="-156.5" font-family="Helvetica,sans-Serif" font-size="10.00">::getRenderType</text>
</a>
</g>
</g>
<!-- Node1&#45;&gt;Node4 -->
<g id="edge3_Node000001_Node000004" class="edge">
<title>Node1&#45;&gt;Node4</title>
<g id="a_edge3_Node000001_Node000004"><a xlink:title=" ">
<path fill="none" stroke="#63b8ff" d="M115.96,-149.88C127.37,-151.66 139.47,-153.54 151.21,-155.37"/>
<polygon fill="#63b8ff" stroke="#63b8ff" points="150.42,-158.79 160.84,-156.87 151.49,-151.87 150.42,-158.79"/>
</a>
</g>
</g>
<!-- Node5 -->
<g id="Node000005" class="node">
<title>Node5</title>
<g id="a_Node000005"><a xlink:href="class_g_l_e_s_c_1_1_render_1_1_mesh.html#ab475354d57affde05d36bcd71668d9aa" target="_top" xlink:title=" ">
<polygon fill="white" stroke="#666666" points="278.38,-132 162.62,-132 162.62,-100 278.38,-100 278.38,-132"/>
<text text-anchor="start" x="170.62" y="-118.5" font-family="Helvetica,sans-Serif" font-size="10.00">GLESC::Render::Mesh</text>
<text text-anchor="middle" x="220.5" y="-106.5" font-family="Helvetica,sans-Serif" font-size="10.00">::getVertexLayout</text>
</a>
</g>
</g>
<!-- Node1&#45;&gt;Node5 -->
<g id="edge4_Node000001_Node000005" class="edge">
<title>Node1&#45;&gt;Node5</title>
<g id="a_edge4_Node000001_Node000005"><a xlink:title=" ">
<path fill="none" stroke="#63b8ff" d="M115.96,-132.12C127.37,-130.34 139.47,-128.46 151.21,-126.63"/>
<polygon fill="#63b8ff" stroke="#63b8ff" points="151.49,-130.13 160.84,-125.13 150.42,-123.21 151.49,-130.13"/>
</a>
</g>
</g>
<!-- Node6 -->
<g id="Node000006" class="node">
<title>Node6</title>
<g id="a_Node000006"><a xlink:href="class_g_l_e_s_c_1_1_render_1_1_mesh.html#a863d2c05d8b7b9d10fe946ca1c5f1c21" target="_top" xlink:title=" ">
<polygon fill="white" stroke="#666666" points="278.38,-82 162.62,-82 162.62,-50 278.38,-50 278.38,-82"/>
<text text-anchor="start" x="170.62" y="-68.5" font-family="Helvetica,sans-Serif" font-size="10.00">GLESC::Render::Mesh</text>
<text text-anchor="middle" x="220.5" y="-56.5" font-family="Helvetica,sans-Serif" font-size="10.00">::getVertices</text>
</a>
</g>
</g>
<!-- Node1&#45;&gt;Node6 -->
<g id="edge5_Node000001_Node000006" class="edge">
<title>Node1&#45;&gt;Node6</title>
<g id="a_edge5_Node000001_Node000006"><a xlink:title=" ">
<path fill="none" stroke="#63b8ff" d="M86.81,-124.63C104.98,-114.31 129.38,-101.09 151.75,-91 155.06,-89.51 158.5,-88.03 161.98,-86.58"/>
<polygon fill="#63b8ff" stroke="#63b8ff" points="163.12,-89.9 171.1,-82.93 160.51,-83.4 163.12,-89.9"/>
</a>
</g>
</g>
<!-- Node7 -->
<g id="Node000007" class="node">
<title>Node7</title>
<g id="a_Node000007"><a xlink:href="class_g_l_e_s_c_1_1_g_a_p_i_1_1_vertex_buffer_layout.html#a768342e4b77057309288e192fce23031" target="_top" xlink:title=" ">
<polygon fill="white" stroke="#666666" points="289.25,-32 151.75,-32 151.75,0 289.25,0 289.25,-32"/>
<text text-anchor="start" x="159.75" y="-18.5" font-family="Helvetica,sans-Serif" font-size="10.00">GLESC::GAPI::VertexBuffer</text>
<text text-anchor="middle" x="220.5" y="-6.5" font-family="Helvetica,sans-Serif" font-size="10.00">Layout::push</text>
</a>
</g>
</g>
<!-- Node1&#45;&gt;Node7 -->
<g id="edge6_Node000001_Node000007" class="edge">
<title>Node1&#45;&gt;Node7</title>
<g id="a_edge6_Node000001_Node000007"><a xlink:title=" ">
<path fill="none" stroke="#63b8ff" d="M70.25,-124.58C86.16,-102.72 117.05,-64.13 151.75,-41 153.55,-39.8 155.41,-38.65 157.33,-37.54"/>
<polygon fill="#63b8ff" stroke="#63b8ff" points="158.61,-40.82 165.87,-33.11 155.38,-34.61 158.61,-40.82"/>
</a>
</g>
</g>
</g>
</svg>
</svg>

<style type='text/css'>
<![CDATA[
[data-mouse-over-selected='false'] { opacity: 0.7; }
[data-mouse-over-selected='true']  { opacity: 1.0; }
]]>
</style>
<script type="application/ecmascript"><![CDATA[
document.addEventListener('DOMContentLoaded', (event) => {
  highlightEdges();
  highlightAdjacentNodes();
});
]]></script>
</svg>
