<?xml version="1.0" encoding="UTF-8" standalone="no"?>
<!DOCTYPE svg PUBLIC "-//W3C//DTD SVG 1.1//EN"
 "http://www.w3.org/Graphics/SVG/1.1/DTD/svg11.dtd">
<!-- Generated by graphviz version 11.0.0 (20240428.1522)
 -->
<!-- Title: GLESC::ECS::TransformSystem::update Pages: 1 -->
<!--zoomable 199 -->

<svg id="main" version="1.1" xmlns="http://www.w3.org/2000/svg" xmlns:xlink="http://www.w3.org/1999/xlink" xml:space="preserve" onload="init(evt)">
<style type="text/css"><![CDATA[
.node, .edge {opacity: 0.7;}
.node.selected, .edge.selected {opacity: 1;}
.edge:hover path { stroke: red; }
.edge:hover polygon { stroke: red; fill: red; }
]]></style>

<defs>
  <circle id="rim" cx="0" cy="0" r="7"/>
  <circle id="rim2" cx="0" cy="0" r="3.5"/>
  <g id="zoomPlus">
    <use xlink:href="#rim" fill="#404040"><set attributeName="fill" to="#808080" begin="zoomplus.mouseover" end="zoomplus.mouseout"/></use>
    <path d="M-4,0h8M0,-4v8" fill="none" stroke="white" stroke-width="1.5" pointer-events="none"/>
  </g>
  <g id="zoomMin">
    <use xlink:href="#rim" fill="#404040"><set attributeName="fill" to="#808080" begin="zoomminus.mouseover" end="zoomminus.mouseout"/></use>
    <path d="M-4,0h8" fill="none" stroke="white" stroke-width="1.5" pointer-events="none"/>
  </g>
  <g id="arrowUp" transform="translate(30 24)">
    <use xlink:href="#rim"/>
    <path pointer-events="none" fill="none" stroke="white" stroke-width="1.5" d="M0,-3.0v7 M-2.5,-0.5L0,-3.0L2.5,-0.5"/>
  </g>
  <g id="arrowRight" transform="rotate(90) translate(36 -43)">
    <use xlink:href="#rim"/>
    <path pointer-events="none" fill="none" stroke="white" stroke-width="1.5" d="M0,-3.0v7 M-2.5,-0.5L0,-3.0L2.5,-0.5"/>
  </g>
  <g id="arrowDown" transform="rotate(180) translate(-30 -48)">
    <use xlink:href="#rim"/>
    <path pointer-events="none" fill="none" stroke="white" stroke-width="1.5" d="M0,-3.0v7 M-2.5,-0.5L0,-3.0L2.5,-0.5"/>
  </g>
  <g id="arrowLeft" transform="rotate(270) translate(-36 17)">
    <use xlink:href="#rim"/>
    <path pointer-events="none" fill="none" stroke="white" stroke-width="1.5" d="M0,-3.0v7 M-2.5,-0.5L0,-3.0L2.5,-0.5"/>
  </g>
  <g id="resetDef">
    <use xlink:href="#rim2" fill="#404040"><set attributeName="fill" to="#808080" begin="reset.mouseover" end="reset.mouseout"/></use>
  </g>
</defs>
<script type="application/ecmascript">
var viewWidth = 891;
var viewHeight = 199;
var sectionId = 'dynsection-2';
</script>
<script type="application/ecmascript" xlink:href="svg.min.js"/>
<svg id="graph" class="graph">
<g id="viewport">
<title>GLESC::ECS::TransformSystem::update</title>
<!-- Node1 -->
<g id="Node000001" class="node">
<title>Node1</title>
<g id="a_Node000001"><a xlink:title="Updates the system.">
<polygon fill="#999999" stroke="#666666" points="157.75,-144.35 0,-144.35 0,-112.35 157.75,-112.35 157.75,-144.35"/>
<text text-anchor="start" x="8" y="-130.85" font-family="Helvetica,sans-Serif" font-size="10.00">GLESC::ECS::TransformSystem</text>
<text text-anchor="middle" x="78.88" y="-118.85" font-family="Helvetica,sans-Serif" font-size="10.00">::update</text>
</a>
</g>
</g>
<!-- Node2 -->
<g id="Node000002" class="node">
<title>Node2</title>
<g id="a_Node000002"><a xlink:href="class_g_l_e_s_c_1_1_e_c_s_1_1_system.html#a9b4f36ba29354a976dc23a598ec85952" target="_top" xlink:title="Gets the entities associated with the system.">
<polygon fill="white" stroke="#666666" points="311,-119.35 193.75,-119.35 193.75,-87.35 311,-87.35 311,-119.35"/>
<text text-anchor="start" x="201.75" y="-105.85" font-family="Helvetica,sans-Serif" font-size="10.00">GLESC::ECS::System</text>
<text text-anchor="middle" x="252.38" y="-93.85" font-family="Helvetica,sans-Serif" font-size="10.00">::getAssociatedEntities</text>
</a>
</g>
</g>
<!-- Node1&#45;&gt;Node2 -->
<g id="edge1_Node000001_Node000002" class="edge">
<title>Node1&#45;&gt;Node2</title>
<g id="a_edge1_Node000001_Node000002"><a xlink:title=" ">
<path fill="none" stroke="#63b8ff" d="M158.1,-116.94C166.05,-115.78 174.09,-114.61 181.94,-113.47"/>
<polygon fill="#63b8ff" stroke="#63b8ff" points="182.39,-116.94 191.78,-112.03 181.38,-110.01 182.39,-116.94"/>
</a>
</g>
</g>
<!-- Node8 -->
<g id="Node000008" class="node">
<title>Node8</title>
<g id="a_Node000008"><a xlink:href="class_g_l_e_s_c_1_1_e_c_s_1_1_system.html#adbd8144d4b95771844546e2391cd49ad" target="_top" xlink:title="Gets the name of an entity.">
<polygon fill="white" stroke="#666666" points="309.88,-180.35 194.88,-180.35 194.88,-148.35 309.88,-148.35 309.88,-180.35"/>
<text text-anchor="start" x="202.88" y="-166.85" font-family="Helvetica,sans-Serif" font-size="10.00">GLESC::ECS::System</text>
<text text-anchor="middle" x="252.38" y="-154.85" font-family="Helvetica,sans-Serif" font-size="10.00">::getEntityName</text>
</a>
</g>
</g>
<!-- Node1&#45;&gt;Node8 -->
<g id="edge8_Node000001_Node000008" class="edge">
<title>Node1&#45;&gt;Node8</title>
<g id="a_edge8_Node000001_Node000008"><a xlink:title=" ">
<path fill="none" stroke="#63b8ff" d="M158.1,-144.77C166.54,-146.54 175.08,-148.33 183.39,-150.07"/>
<polygon fill="#63b8ff" stroke="#63b8ff" points="182.55,-153.48 193.06,-152.1 183.99,-146.62 182.55,-153.48"/>
</a>
</g>
</g>
<!-- Node3 -->
<g id="Node000003" class="node">
<title>Node3</title>
<g id="a_Node000003"><a xlink:href="class_g_l_e_s_c_1_1_e_c_s_1_1_e_c_s_coordinator.html#a73636f46c1a9f0bd7f380524210cf4b4" target="_top" xlink:title="Get the entities associated with a system.">
<polygon fill="white" stroke="#666666" points="498,-97.35 347,-97.35 347,-65.35 498,-65.35 498,-97.35"/>
<text text-anchor="start" x="355" y="-83.85" font-family="Helvetica,sans-Serif" font-size="10.00">GLESC::ECS::ECSCoordinator</text>
<text text-anchor="middle" x="422.5" y="-71.85" font-family="Helvetica,sans-Serif" font-size="10.00">::getAssociatedEntities</text>
</a>
</g>
</g>
<!-- Node2&#45;&gt;Node3 -->
<g id="edge2_Node000002_Node000003" class="edge">
<title>Node2&#45;&gt;Node3</title>
<g id="a_edge2_Node000002_Node000003"><a xlink:title=" ">
<path fill="none" stroke="#63b8ff" d="M311.23,-95.77C319.07,-94.75 327.24,-93.68 335.44,-92.61"/>
<polygon fill="#63b8ff" stroke="#63b8ff" points="335.65,-96.11 345.11,-91.34 334.74,-89.17 335.65,-96.11"/>
</a>
</g>
</g>
<!-- Node4 -->
<g id="Node000004" class="node">
<title>Node4</title>
<g id="a_Node000004"><a xlink:href="class_g_l_e_s_c_1_1_e_c_s_1_1_entity_manager.html#a5145504091eb26170aa219acb60aca71" target="_top" xlink:title="Check if the entity with the given name exists.">
<polygon fill="white" stroke="#666666" points="879.12,-109.35 734.88,-109.35 734.88,-77.35 879.12,-77.35 879.12,-109.35"/>
<text text-anchor="start" x="742.88" y="-95.85" font-family="Helvetica,sans-Serif" font-size="10.00">GLESC::ECS::EntityManager</text>
<text text-anchor="middle" x="807" y="-83.85" font-family="Helvetica,sans-Serif" font-size="10.00">::doesEntityExist</text>
</a>
</g>
</g>
<!-- Node3&#45;&gt;Node4 -->
<g id="edge3_Node000003_Node000004" class="edge">
<title>Node3&#45;&gt;Node4</title>
<g id="a_edge3_Node000003_Node000004"><a xlink:title=" ">
<path fill="none" stroke="#63b8ff" d="M498.16,-83.69C562.79,-85.72 656.16,-88.65 723.1,-90.75"/>
<polygon fill="#63b8ff" stroke="#63b8ff" points="722.83,-94.24 732.93,-91.05 723.04,-87.24 722.83,-94.24"/>
</a>
</g>
</g>
<!-- Node5 -->
<g id="Node000005" class="node">
<title>Node5</title>
<g id="a_Node000005"><a xlink:href="class_g_l_e_s_c_1_1_e_c_s_1_1_system_manager.html#a283c04f81e82970a822c9696ddab2319" target="_top" xlink:title="Gets the entities associated with a system. The system must be registered.">
<polygon fill="white" stroke="#666666" points="694.75,-53.35 534,-53.35 534,-21.35 694.75,-21.35 694.75,-53.35"/>
<text text-anchor="start" x="542" y="-39.85" font-family="Helvetica,sans-Serif" font-size="10.00">GLESC::ECS::SystemManager</text>
<text text-anchor="middle" x="614.38" y="-27.85" font-family="Helvetica,sans-Serif" font-size="10.00">::getAssociatedEntitiesOfSystem</text>
</a>
</g>
</g>
<!-- Node3&#45;&gt;Node5 -->
<g id="edge4_Node000003_Node000005" class="edge">
<title>Node3&#45;&gt;Node5</title>
<g id="a_edge4_Node000003_Node000005"><a xlink:title=" ">
<path fill="none" stroke="#63b8ff" d="M494.47,-64.9C506.41,-62.13 518.88,-59.24 531.08,-56.42"/>
<polygon fill="#63b8ff" stroke="#63b8ff" points="531.75,-59.85 540.7,-54.19 530.17,-53.04 531.75,-59.85"/>
</a>
</g>
</g>
<!-- Node6 -->
<g id="Node000006" class="node">
<title>Node6</title>
<g id="a_Node000006"><a xlink:href="class_g_l_e_s_c_1_1_e_c_s_1_1_system_manager.html#a32f415d7a7e0cefc9e1b5c71a4dc1be4" target="_top" xlink:title="Checks if a system is registered.">
<polygon fill="white" stroke="#666666" points="883.25,-40.35 730.75,-40.35 730.75,-8.35 883.25,-8.35 883.25,-40.35"/>
<text text-anchor="start" x="738.75" y="-26.85" font-family="Helvetica,sans-Serif" font-size="10.00">GLESC::ECS::SystemManager</text>
<text text-anchor="middle" x="807" y="-14.85" font-family="Helvetica,sans-Serif" font-size="10.00">::isSystemRegistered</text>
</a>
</g>
</g>
<!-- Node3&#45;&gt;Node6 -->
<g id="edge7_Node000003_Node000006" class="edge">
<title>Node3&#45;&gt;Node6</title>
<g id="a_edge7_Node000003_Node000006"><a xlink:title=" ">
<path fill="none" stroke="#63b8ff" d="M442.24,-64.98C463.02,-48.01 498.34,-22.56 534,-12.35 594.13,4.89 664.78,1.1 719,-6.59"/>
<polygon fill="#63b8ff" stroke="#63b8ff" points="718.41,-10.04 728.82,-8.06 719.45,-3.11 718.41,-10.04"/>
</a>
</g>
</g>
<!-- Node7 -->
<g id="Node000007" class="node">
<title>Node7</title>
<g id="a_Node000007"><a xlink:href="class_g_l_e_s_c_1_1_e_c_s_1_1_system_manager.html#abe8641c2514be36e652e7f77d0ed87a5" target="_top" xlink:title="Checks if an entity is associated with a system.">
<polygon fill="white" stroke="#666666" points="693.25,-141.35 535.5,-141.35 535.5,-109.35 693.25,-109.35 693.25,-141.35"/>
<text text-anchor="start" x="543.5" y="-127.85" font-family="Helvetica,sans-Serif" font-size="10.00">GLESC::ECS::SystemManager</text>
<text text-anchor="middle" x="614.38" y="-115.85" font-family="Helvetica,sans-Serif" font-size="10.00">::isEntityAssociatedWithSystem</text>
</a>
</g>
</g>
<!-- Node3&#45;&gt;Node7 -->
<g id="edge6_Node000003_Node000007" class="edge">
<title>Node3&#45;&gt;Node7</title>
<g id="a_edge6_Node000003_Node000007"><a xlink:title=" ">
<path fill="none" stroke="#63b8ff" d="M494.47,-97.79C506.41,-100.56 518.88,-103.45 531.08,-106.27"/>
<polygon fill="#63b8ff" stroke="#63b8ff" points="530.17,-109.66 540.7,-108.5 531.75,-102.84 530.17,-109.66"/>
</a>
</g>
</g>
<!-- Node5&#45;&gt;Node6 -->
<g id="edge5_Node000005_Node000006" class="edge">
<title>Node5&#45;&gt;Node6</title>
<g id="a_edge5_Node000005_Node000006"><a xlink:title=" ">
<path fill="none" stroke="#63b8ff" d="M695.11,-31.91C703.09,-31.36 711.21,-30.81 719.25,-30.26"/>
<polygon fill="#63b8ff" stroke="#63b8ff" points="719.3,-33.77 729.03,-29.59 718.82,-26.78 719.3,-33.77"/>
</a>
</g>
</g>
<!-- Node9 -->
<g id="Node000009" class="node">
<title>Node9</title>
<g id="a_Node000009"><a xlink:href="class_g_l_e_s_c_1_1_e_c_s_1_1_e_c_s_coordinator.html#a2c49b6ec20626dd4f84c939ec3750812" target="_top" xlink:title="Get the name of the entity given the ID.">
<polygon fill="white" stroke="#666666" points="498,-185.35 347,-185.35 347,-153.35 498,-153.35 498,-185.35"/>
<text text-anchor="start" x="355" y="-171.85" font-family="Helvetica,sans-Serif" font-size="10.00">GLESC::ECS::ECSCoordinator</text>
<text text-anchor="middle" x="422.5" y="-159.85" font-family="Helvetica,sans-Serif" font-size="10.00">::getEntityName</text>
</a>
</g>
</g>
<!-- Node8&#45;&gt;Node9 -->
<g id="edge9_Node000008_Node000009" class="edge">
<title>Node8&#45;&gt;Node9</title>
<g id="a_edge9_Node000008_Node000009"><a xlink:title=" ">
<path fill="none" stroke="#63b8ff" d="M310.29,-166.04C318.44,-166.28 326.97,-166.53 335.52,-166.79"/>
<polygon fill="#63b8ff" stroke="#63b8ff" points="335.14,-170.28 345.24,-167.08 335.35,-163.28 335.14,-170.28"/>
</a>
</g>
</g>
<!-- Node10 -->
<g id="Node000010" class="node">
<title>Node10</title>
<g id="a_Node000010"><a xlink:href="class_g_l_e_s_c_1_1_e_c_s_1_1_entity_manager.html#ad75636a479815b1d3e5b1b26d2a1245c" target="_top" xlink:title="Get the entity name from the entity ID. The entity must exist.">
<polygon fill="white" stroke="#666666" points="686.5,-191.35 542.25,-191.35 542.25,-159.35 686.5,-159.35 686.5,-191.35"/>
<text text-anchor="start" x="550.25" y="-177.85" font-family="Helvetica,sans-Serif" font-size="10.00">GLESC::ECS::EntityManager</text>
<text text-anchor="middle" x="614.38" y="-165.85" font-family="Helvetica,sans-Serif" font-size="10.00">::getEntityName</text>
</a>
</g>
</g>
<!-- Node9&#45;&gt;Node10 -->
<g id="edge10_Node000009_Node000010" class="edge">
<title>Node9&#45;&gt;Node10</title>
<g id="a_edge10_Node000009_Node000010"><a xlink:title=" ">
<path fill="none" stroke="#63b8ff" d="M498.27,-171.71C508.79,-172.04 519.65,-172.38 530.31,-172.72"/>
<polygon fill="#63b8ff" stroke="#63b8ff" points="530.16,-176.22 540.26,-173.04 530.38,-169.22 530.16,-176.22"/>
</a>
</g>
</g>
<!-- Node10&#45;&gt;Node4 -->
<g id="edge11_Node000010_Node000004" class="edge">
<title>Node10&#45;&gt;Node4</title>
<g id="a_edge11_Node000010_Node000004"><a xlink:title=" ">
<path fill="none" stroke="#63b8ff" d="M671.74,-158.89C679.54,-156.24 687.4,-153.36 694.75,-150.35 719.6,-140.15 746.42,-126.49 767.5,-115.1"/>
<polygon fill="#63b8ff" stroke="#63b8ff" points="768.93,-118.31 776.02,-110.44 765.57,-112.17 768.93,-118.31"/>
</a>
</g>
</g>
</g>
</svg>

<g id="navigator" transform="translate(0 0)" fill="#404254">
  <rect fill="#f2f5e9" fill-opacity="0.5" stroke="#606060" stroke-width=".5" x="0" y="0" width="60" height="60"/>
  <use id="zoomplus" xlink:href="#zoomPlus" x="17" y="9" onmousedown="handleZoom(evt,'in')"/>
  <use id="zoomminus" xlink:href="#zoomMin" x="42" y="9" onmousedown="handleZoom(evt,'out')"/>
  <use id="reset" xlink:href="#resetDef" x="30" y="36" onmousedown="handleReset()"/>
   <use id="arrowup" xlink:href="#arrowUp" x="0" y="0" onmousedown="handlePan(0,-1)"/>
  <use id="arrowright" xlink:href="#arrowRight" x="0" y="0" onmousedown="handlePan(1,0)"/>
  <use id="arrowdown" xlink:href="#arrowDown" x="0" y="0" onmousedown="handlePan(0,1)"/>
  <use id="arrowleft" xlink:href="#arrowLeft" x="0" y="0" onmousedown="handlePan(-1,0)"/>
</g>
<svg viewBox="0 0 15 15" width="100%" height="30px" preserveAspectRatio="xMaxYMin meet">
 <g id="arrow_out" transform="scale(0.3 0.3)">
  <a xlink:href="class_g_l_e_s_c_1_1_e_c_s_1_1_transform_system_a43d246de9f05a6c8a5a46f9b48493830_cgraph_org.svg" target="_base">
   <rect id="button" ry="5" rx="5" y="6" x="6" height="38" width="38"
        fill="#f2f5e9" fill-opacity="0.5" stroke="#606060" stroke-width="1.0"/>
   <path id="arrow"
     d="M 11.500037,31.436501 C 11.940474,20.09759 22.043105,11.32322 32.158766,21.979434 L 37.068811,17.246167 C 37.068811,17.246167 37.088388,32 37.088388,32 L 22.160133,31.978069 C 22.160133,31.978069 26.997745,27.140456 26.997745,27.140456 C 18.528582,18.264221 13.291696,25.230495 11.500037,31.436501 z"
     style="fill:#404040;"/>
  </a>
 </g>
</svg>

<style type='text/css'>
<![CDATA[
[data-mouse-over-selected='false'] { opacity: 0.7; }
[data-mouse-over-selected='true']  { opacity: 1.0; }
]]>
</style>
<script type="application/ecmascript"><![CDATA[
document.addEventListener('DOMContentLoaded', (event) => {
  highlightEdges();
  highlightAdjacentNodes();
});
]]></script>
</svg>
