<?xml version="1.0" encoding="UTF-8" standalone="no"?>
<!DOCTYPE svg PUBLIC "-//W3C//DTD SVG 1.1//EN"
 "http://www.w3.org/Graphics/SVG/1.1/DTD/svg11.dtd">
<!-- Generated by graphviz version 11.0.0 (20240428.1522)
 -->
<!-- Title: GLESC::Math::Plane::Plane Pages: 1 -->
<svg width="1048pt" height="322pt"
 viewBox="0.00 0.00 1048.25 322.00" xmlns="http://www.w3.org/2000/svg" xmlns:xlink="http://www.w3.org/1999/xlink">
<g id="graph0" class="graph" transform="scale(1 1) rotate(0) translate(4 318)">
<title>GLESC::Math::Plane::Plane</title>
<!-- Node1 -->
<g id="Node000001" class="node">
<title>Node1</title>
<g id="a_Node000001"><a xlink:title="Construct a new Plane object from three distinct points.">
<polygon fill="#999999" stroke="#666666" points="107.5,-132 0,-132 0,-100 107.5,-100 107.5,-132"/>
<text text-anchor="start" x="8" y="-118.5" font-family="Helvetica,sans-Serif" font-size="10.00">GLESC::Math::Plane</text>
<text text-anchor="middle" x="53.75" y="-106.5" font-family="Helvetica,sans-Serif" font-size="10.00">::Plane</text>
</a>
</g>
</g>
<!-- Node2 -->
<g id="Node000002" class="node">
<title>Node2</title>
<g id="a_Node000002"><a xlink:href="class_g_l_e_s_c_1_1_math_1_1_vector_mixed_algorithms.html#a017c78aceeac4cc6bacc66d88f3ba7b4" target="_top" xlink:title="Checks if points are collinear.">
<polygon fill="white" stroke="#666666" points="287,-231 149.5,-231 149.5,-199 287,-199 287,-231"/>
<text text-anchor="start" x="157.5" y="-217.5" font-family="Helvetica,sans-Serif" font-size="10.00">GLESC::Math::VectorMixed</text>
<text text-anchor="middle" x="218.25" y="-205.5" font-family="Helvetica,sans-Serif" font-size="10.00">Algorithms::areCollinear</text>
</a>
</g>
</g>
<!-- Node1&#45;&gt;Node2 -->
<g id="edge1_Node000001_Node000002" class="edge">
<title>Node1&#45;&gt;Node2</title>
<g id="a_edge1_Node000001_Node000002"><a xlink:title=" ">
<path fill="none" stroke="#63b8ff" d="M78.94,-132.48C96.61,-144.35 121.28,-160.59 143.5,-174 154.05,-180.37 165.63,-186.98 176.42,-192.98"/>
<polygon fill="#63b8ff" stroke="#63b8ff" points="174.7,-196.03 185.14,-197.8 178.08,-189.9 174.7,-196.03"/>
</a>
</g>
</g>
<!-- Node10 -->
<g id="Node000010" class="node">
<title>Node10</title>
<g id="a_Node000010"><a xlink:href="class_g_l_e_s_c_1_1_math_1_1_plane.html#ae96d9fee2db6f87847e5b65756d575f0" target="_top" xlink:title="Calculate the distance from the origin to the plane defined by three distinct points.">
<polygon fill="white" stroke="#666666" points="293,-132 143.5,-132 143.5,-100 293,-100 293,-132"/>
<text text-anchor="start" x="151.5" y="-118.5" font-family="Helvetica,sans-Serif" font-size="10.00">GLESC::Math::Plane</text>
<text text-anchor="middle" x="218.25" y="-106.5" font-family="Helvetica,sans-Serif" font-size="10.00">::calculateDistanceFromPoints</text>
</a>
</g>
</g>
<!-- Node1&#45;&gt;Node10 -->
<g id="edge9_Node000001_Node000010" class="edge">
<title>Node1&#45;&gt;Node10</title>
<g id="a_edge9_Node000001_Node000010"><a xlink:title=" ">
<path fill="none" stroke="#63b8ff" d="M107.96,-116C115.63,-116 123.69,-116 131.8,-116"/>
<polygon fill="#63b8ff" stroke="#63b8ff" points="131.76,-119.5 141.76,-116 131.76,-112.5 131.76,-119.5"/>
</a>
</g>
</g>
<!-- Node11 -->
<g id="Node000011" class="node">
<title>Node11</title>
<g id="a_Node000011"><a xlink:href="class_g_l_e_s_c_1_1_math_1_1_plane.html#aae9eef06b7ad6587a7d0f45eab38cdc8" target="_top" xlink:title="Calculate the normal vector of the plane defined by three distinct points.">
<polygon fill="white" stroke="#666666" points="478.88,-154 336.88,-154 336.88,-122 478.88,-122 478.88,-154"/>
<text text-anchor="start" x="344.88" y="-140.5" font-family="Helvetica,sans-Serif" font-size="10.00">GLESC::Math::Plane</text>
<text text-anchor="middle" x="407.88" y="-128.5" font-family="Helvetica,sans-Serif" font-size="10.00">::calculateNormalFromPoints</text>
</a>
</g>
</g>
<!-- Node1&#45;&gt;Node11 -->
<g id="edge15_Node000001_Node000011" class="edge">
<title>Node1&#45;&gt;Node11</title>
<g id="a_edge15_Node000001_Node000011"><a xlink:title=" ">
<path fill="none" stroke="#63b8ff" d="M104,-132.46C116.72,-135.99 130.5,-139.2 143.5,-141 204.06,-149.37 273.19,-148.18 325.43,-145.13"/>
<polygon fill="#63b8ff" stroke="#63b8ff" points="325.38,-148.64 335.14,-144.53 324.94,-141.65 325.38,-148.64"/>
</a>
</g>
</g>
<!-- Node15 -->
<g id="Node000015" class="node">
<title>Node15</title>
<g id="a_Node000015"><a xlink:href="class_g_l_e_s_c_1_1_math_1_1_plane.html#aff56a2b955d40562e5a3c239d04e1e58" target="_top" xlink:title="Set the distance from the origin to the plane.">
<polygon fill="white" stroke="#666666" points="272,-82 164.5,-82 164.5,-50 272,-50 272,-82"/>
<text text-anchor="start" x="172.5" y="-68.5" font-family="Helvetica,sans-Serif" font-size="10.00">GLESC::Math::Plane</text>
<text text-anchor="middle" x="218.25" y="-56.5" font-family="Helvetica,sans-Serif" font-size="10.00">::setDistance</text>
</a>
</g>
</g>
<!-- Node1&#45;&gt;Node15 -->
<g id="edge16_Node000001_Node000015" class="edge">
<title>Node1&#45;&gt;Node15</title>
<g id="a_edge16_Node000001_Node000015"><a xlink:title=" ">
<path fill="none" stroke="#63b8ff" d="M107.96,-99.63C122.48,-95.16 138.37,-90.27 153.42,-85.64"/>
<polygon fill="#63b8ff" stroke="#63b8ff" points="154.22,-89.05 162.75,-82.77 152.17,-82.36 154.22,-89.05"/>
</a>
</g>
</g>
<!-- Node16 -->
<g id="Node000016" class="node">
<title>Node16</title>
<g id="a_Node000016"><a xlink:href="class_g_l_e_s_c_1_1_math_1_1_plane.html#a08b064d3e2e9da2ceeeb7ddd9c68e6a6" target="_top" xlink:title="Set the normal vector of the plane.">
<polygon fill="white" stroke="#666666" points="272,-32 164.5,-32 164.5,0 272,0 272,-32"/>
<text text-anchor="start" x="172.5" y="-18.5" font-family="Helvetica,sans-Serif" font-size="10.00">GLESC::Math::Plane</text>
<text text-anchor="middle" x="218.25" y="-6.5" font-family="Helvetica,sans-Serif" font-size="10.00">::setNormal</text>
</a>
</g>
</g>
<!-- Node1&#45;&gt;Node16 -->
<g id="edge17_Node000001_Node000016" class="edge">
<title>Node1&#45;&gt;Node16</title>
<g id="a_edge17_Node000001_Node000016"><a xlink:title=" ">
<path fill="none" stroke="#63b8ff" d="M70.35,-99.59C87.06,-82.84 115.05,-57.07 143.5,-41 146.84,-39.11 150.34,-37.34 153.93,-35.67"/>
<polygon fill="#63b8ff" stroke="#63b8ff" points="155.02,-39.02 162.83,-31.87 152.26,-32.58 155.02,-39.02"/>
</a>
</g>
</g>
<!-- Node3 -->
<g id="Node000003" class="node">
<title>Node3</title>
<g id="a_Node000003"><a xlink:href="class_g_l_e_s_c_1_1_math_1_1_vector_algorithms.html#ab041da9d339dfe80b80c6f0bdf5dbfd4" target="_top" xlink:title="Computes the cross product of two vectors.">
<polygon fill="white" stroke="#666666" points="890.75,-176 733,-176 733,-144 890.75,-144 890.75,-176"/>
<text text-anchor="start" x="741" y="-162.5" font-family="Helvetica,sans-Serif" font-size="10.00">GLESC::Math::VectorAlgorithms</text>
<text text-anchor="middle" x="811.88" y="-150.5" font-family="Helvetica,sans-Serif" font-size="10.00">::crossProduct</text>
</a>
</g>
</g>
<!-- Node2&#45;&gt;Node3 -->
<g id="edge2_Node000002_Node000003" class="edge">
<title>Node2&#45;&gt;Node3</title>
<g id="a_edge2_Node000002_Node000003"><a xlink:title=" ">
<path fill="none" stroke="#63b8ff" d="M287.4,-205.85C301.16,-204.14 315.53,-202.43 329,-201 465.73,-186.47 624.72,-173.75 721.54,-166.47"/>
<polygon fill="#63b8ff" stroke="#63b8ff" points="721.52,-169.98 731.23,-165.75 721,-163 721.52,-169.98"/>
</a>
</g>
</g>
<!-- Node4 -->
<g id="Node000004" class="node">
<title>Node4</title>
<g id="a_Node000004"><a xlink:href="class_g_l_e_s_c_1_1_math_1_1_vector_algorithms.html#a679d94d73e405dc11ea9140e71f4ef4f" target="_top" xlink:title="Checks if a vector is zero.">
<polygon fill="white" stroke="#666666" points="486.75,-292 329,-292 329,-260 486.75,-260 486.75,-292"/>
<text text-anchor="start" x="337" y="-278.5" font-family="Helvetica,sans-Serif" font-size="10.00">GLESC::Math::VectorAlgorithms</text>
<text text-anchor="middle" x="407.88" y="-266.5" font-family="Helvetica,sans-Serif" font-size="10.00">::isZero</text>
</a>
</g>
</g>
<!-- Node2&#45;&gt;Node4 -->
<g id="edge3_Node000002_Node000004" class="edge">
<title>Node2&#45;&gt;Node4</title>
<g id="a_edge3_Node000002_Node000004"><a xlink:title=" ">
<path fill="none" stroke="#63b8ff" d="M269.22,-231.46C287.96,-237.62 309.45,-244.66 329,-251 334.05,-252.64 339.29,-254.33 344.55,-256.03"/>
<polygon fill="#63b8ff" stroke="#63b8ff" points="343.3,-259.31 353.9,-259.04 345.45,-252.64 343.3,-259.31"/>
</a>
</g>
</g>
<!-- Node9 -->
<g id="Node000009" class="node">
<title>Node9</title>
<g id="a_Node000009"><a xlink:href="class_g_l_e_s_c_1_1_math_1_1_vector_algorithms.html#a3d7793a7054aae76fe23e92368659e0b" target="_top" xlink:title="Subtracts two vectors.">
<polygon fill="white" stroke="#666666" points="486.75,-242 329,-242 329,-210 486.75,-210 486.75,-242"/>
<text text-anchor="start" x="337" y="-228.5" font-family="Helvetica,sans-Serif" font-size="10.00">GLESC::Math::VectorAlgorithms</text>
<text text-anchor="middle" x="407.88" y="-216.5" font-family="Helvetica,sans-Serif" font-size="10.00">::vectorSub</text>
</a>
</g>
</g>
<!-- Node2&#45;&gt;Node9 -->
<g id="edge8_Node000002_Node000009" class="edge">
<title>Node2&#45;&gt;Node9</title>
<g id="a_edge8_Node000002_Node000009"><a xlink:title=" ">
<path fill="none" stroke="#63b8ff" d="M287.25,-218.99C297.01,-219.56 307.16,-220.15 317.25,-220.75"/>
<polygon fill="#63b8ff" stroke="#63b8ff" points="316.9,-224.23 327.08,-221.32 317.31,-217.24 316.9,-224.23"/>
</a>
</g>
</g>
<!-- Node5 -->
<g id="Node000005" class="node">
<title>Node5</title>
<g id="a_Node000005"><a xlink:href="class_g_l_e_s_c_1_1_math_1_1_vector_algorithms.html#a3249cf40f6140efca533d2f041f909d3" target="_top" xlink:title="Equality operator for vectors.">
<polygon fill="white" stroke="#666666" points="697,-264 522.75,-264 522.75,-244 697,-244 697,-264"/>
<text text-anchor="middle" x="609.88" y="-250.5" font-family="Helvetica,sans-Serif" font-size="10.00">GLESC::Math::VectorAlgorithms::eq</text>
</a>
</g>
</g>
<!-- Node4&#45;&gt;Node5 -->
<g id="edge4_Node000004_Node000005" class="edge">
<title>Node4&#45;&gt;Node5</title>
<g id="a_edge4_Node000004_Node000005"><a xlink:title=" ">
<path fill="none" stroke="#63b8ff" d="M487.06,-267.4C494.95,-266.53 503.04,-265.64 511.1,-264.76"/>
<polygon fill="#63b8ff" stroke="#63b8ff" points="511.41,-268.24 520.96,-263.67 510.64,-261.28 511.41,-268.24"/>
</a>
</g>
</g>
<!-- Node8 -->
<g id="Node000008" class="node">
<title>Node8</title>
<g id="a_Node000008"><a xlink:href="class_g_l_e_s_c_1_1_math_1_1_vector_algorithms.html#a2f0bed018a4d5856d507a85de181de62" target="_top" xlink:title=" ">
<polygon fill="white" stroke="#666666" points="688.75,-314 531,-314 531,-282 688.75,-282 688.75,-314"/>
<text text-anchor="start" x="539" y="-300.5" font-family="Helvetica,sans-Serif" font-size="10.00">GLESC::Math::VectorAlgorithms</text>
<text text-anchor="middle" x="609.88" y="-288.5" font-family="Helvetica,sans-Serif" font-size="10.00">::vectorFill</text>
</a>
</g>
</g>
<!-- Node4&#45;&gt;Node8 -->
<g id="edge7_Node000004_Node000008" class="edge">
<title>Node4&#45;&gt;Node8</title>
<g id="a_edge7_Node000004_Node000008"><a xlink:title=" ">
<path fill="none" stroke="#63b8ff" d="M487.06,-284.6C497.71,-285.77 508.71,-286.98 519.54,-288.17"/>
<polygon fill="#63b8ff" stroke="#63b8ff" points="518.92,-291.63 529.24,-289.24 519.68,-284.67 518.92,-291.63"/>
</a>
</g>
</g>
<!-- Node6 -->
<g id="Node000006" class="node">
<title>Node6</title>
<g id="a_Node000006"><a xlink:href="namespace_g_l_e_s_c_1_1_math.html#aee25910dbba06d09d9df14d03933ace1" target="_top" xlink:title="Compares two values for equality.">
<polygon fill="white" stroke="#666666" points="858.5,-264 765.25,-264 765.25,-244 858.5,-244 858.5,-264"/>
<text text-anchor="middle" x="811.88" y="-250.5" font-family="Helvetica,sans-Serif" font-size="10.00">GLESC::Math::eq</text>
</a>
</g>
</g>
<!-- Node5&#45;&gt;Node6 -->
<g id="edge5_Node000005_Node000006" class="edge">
<title>Node5&#45;&gt;Node6</title>
<g id="a_edge5_Node000005_Node000006"><a xlink:title=" ">
<path fill="none" stroke="#63b8ff" d="M697.43,-254C716.4,-254 736.01,-254 753.5,-254"/>
<polygon fill="#63b8ff" stroke="#63b8ff" points="753.42,-257.5 763.42,-254 753.42,-250.5 753.42,-257.5"/>
</a>
</g>
</g>
<!-- Node7 -->
<g id="Node000007" class="node">
<title>Node7</title>
<g id="a_Node000007"><a xlink:href="namespace_g_l_e_s_c_1_1_math.html#acd429163efe906cd22916cc75ccb2421" target="_top" xlink:title="Epsilon getter with precision of a given template type.">
<polygon fill="white" stroke="#666666" points="1040.25,-264 926.75,-264 926.75,-244 1040.25,-244 1040.25,-264"/>
<text text-anchor="middle" x="983.5" y="-250.5" font-family="Helvetica,sans-Serif" font-size="10.00">GLESC::Math::epsilon</text>
</a>
</g>
</g>
<!-- Node6&#45;&gt;Node7 -->
<g id="edge6_Node000006_Node000007" class="edge">
<title>Node6&#45;&gt;Node7</title>
<g id="a_edge6_Node000006_Node000007"><a xlink:title=" ">
<path fill="none" stroke="#63b8ff" d="M858.78,-254C876.08,-254 896.15,-254 915.02,-254"/>
<polygon fill="#63b8ff" stroke="#63b8ff" points="914.76,-257.5 924.76,-254 914.76,-250.5 914.76,-257.5"/>
</a>
</g>
</g>
<!-- Node10&#45;&gt;Node11 -->
<g id="edge10_Node000010_Node000011" class="edge">
<title>Node10&#45;&gt;Node11</title>
<g id="a_edge10_Node000010_Node000011"><a xlink:title=" ">
<path fill="none" stroke="#63b8ff" d="M293.4,-124.69C303.86,-125.92 314.66,-127.19 325.24,-128.43"/>
<polygon fill="#63b8ff" stroke="#63b8ff" points="324.78,-131.9 335.12,-129.59 325.6,-124.95 324.78,-131.9"/>
</a>
</g>
</g>
<!-- Node13 -->
<g id="Node000013" class="node">
<title>Node13</title>
<g id="a_Node000013"><a xlink:href="class_g_l_e_s_c_1_1_math_1_1_vector.html#ab7062a9b67c16d4e60413b625412b4eb" target="_top" xlink:title="Returns the dot product of two vectors.">
<polygon fill="white" stroke="#666666" points="473.25,-101 342.5,-101 342.5,-81 473.25,-81 473.25,-101"/>
<text text-anchor="middle" x="407.88" y="-87.5" font-family="Helvetica,sans-Serif" font-size="10.00">GLESC::Math::Vector::dot</text>
</a>
</g>
</g>
<!-- Node10&#45;&gt;Node13 -->
<g id="edge13_Node000010_Node000013" class="edge">
<title>Node10&#45;&gt;Node13</title>
<g id="a_edge13_Node000010_Node000013"><a xlink:title=" ">
<path fill="none" stroke="#63b8ff" d="M293.4,-106.12C305.72,-104.48 318.5,-102.78 330.86,-101.13"/>
<polygon fill="#63b8ff" stroke="#63b8ff" points="331.11,-104.63 340.56,-99.84 330.19,-97.69 331.11,-104.63"/>
</a>
</g>
</g>
<!-- Node12 -->
<g id="Node000012" class="node">
<title>Node12</title>
<g id="a_Node000012"><a xlink:href="class_g_l_e_s_c_1_1_math_1_1_vector.html#ac4fe912b3001e4fad684c2cd4c56cf83" target="_top" xlink:title="Calculates the cross product of two vectors.">
<polygon fill="white" stroke="#666666" points="665.5,-154 554.25,-154 554.25,-122 665.5,-122 665.5,-154"/>
<text text-anchor="start" x="562.25" y="-140.5" font-family="Helvetica,sans-Serif" font-size="10.00">GLESC::Math::Vector</text>
<text text-anchor="middle" x="609.88" y="-128.5" font-family="Helvetica,sans-Serif" font-size="10.00">::cross</text>
</a>
</g>
</g>
<!-- Node11&#45;&gt;Node12 -->
<g id="edge11_Node000011_Node000012" class="edge">
<title>Node11&#45;&gt;Node12</title>
<g id="a_edge11_Node000011_Node000012"><a xlink:title=" ">
<path fill="none" stroke="#63b8ff" d="M479.11,-138C499.71,-138 522.18,-138 542.53,-138"/>
<polygon fill="#63b8ff" stroke="#63b8ff" points="542.41,-141.5 552.41,-138 542.41,-134.5 542.41,-141.5"/>
</a>
</g>
</g>
<!-- Node12&#45;&gt;Node3 -->
<g id="edge12_Node000012_Node000003" class="edge">
<title>Node12&#45;&gt;Node3</title>
<g id="a_edge12_Node000012_Node000003"><a xlink:title=" ">
<path fill="none" stroke="#63b8ff" d="M665.79,-144.04C683.01,-145.94 702.49,-148.08 721.46,-150.16"/>
<polygon fill="#63b8ff" stroke="#63b8ff" points="721.03,-153.64 731.35,-151.25 721.8,-146.68 721.03,-153.64"/>
</a>
</g>
</g>
<!-- Node14 -->
<g id="Node000014" class="node">
<title>Node14</title>
<g id="a_Node000014"><a xlink:href="class_g_l_e_s_c_1_1_math_1_1_vector_algorithms.html#ae45bcff9b53fb60d513c53823418d97b" target="_top" xlink:title="Computes the dot product of two vectors.">
<polygon fill="white" stroke="#666666" points="688.75,-104 531,-104 531,-72 688.75,-72 688.75,-104"/>
<text text-anchor="start" x="539" y="-90.5" font-family="Helvetica,sans-Serif" font-size="10.00">GLESC::Math::VectorAlgorithms</text>
<text text-anchor="middle" x="609.88" y="-78.5" font-family="Helvetica,sans-Serif" font-size="10.00">::dotProduct</text>
</a>
</g>
</g>
<!-- Node13&#45;&gt;Node14 -->
<g id="edge14_Node000013_Node000014" class="edge">
<title>Node13&#45;&gt;Node14</title>
<g id="a_edge14_Node000013_Node000014"><a xlink:title=" ">
<path fill="none" stroke="#63b8ff" d="M473.53,-90.03C488.23,-89.81 504.09,-89.57 519.6,-89.34"/>
<polygon fill="#63b8ff" stroke="#63b8ff" points="519.36,-92.84 529.3,-89.19 519.25,-85.84 519.36,-92.84"/>
</a>
</g>
</g>
</g>
</svg>
