<?xml version="1.0" encoding="UTF-8" standalone="no"?>
<!DOCTYPE svg PUBLIC "-//W3C//DTD SVG 1.1//EN"
 "http://www.w3.org/Graphics/SVG/1.1/DTD/svg11.dtd">
<!-- Generated by graphviz version 11.0.0 (20240428.1522)
 -->
<!-- Title: GLESC::GAPI::VertexInstanceBuffer::setupInstanceAttributes Pages: 1 -->
<svg width="420pt" height="178pt"
 viewBox="0.00 0.00 419.75 178.00" xmlns="http://www.w3.org/2000/svg" xmlns:xlink="http://www.w3.org/1999/xlink">

<svg id="main" version="1.1" xmlns="http://www.w3.org/2000/svg" xmlns:xlink="http://www.w3.org/1999/xlink" xml:space="preserve" onload="init(evt)">
<style type="text/css"><![CDATA[
.node, .edge {opacity: 0.7;}
.node.selected, .edge.selected {opacity: 1;}
.edge:hover path { stroke: red; }
.edge:hover polygon { stroke: red; fill: red; }
]]></style>
<script type="application/ecmascript" xlink:href="svg.min.js"/>
<svg id="graph" class="graph">
<g id="graph0" class="graph" transform="scale(1 1) rotate(0) translate(4 174)">
<title>GLESC::GAPI::VertexInstanceBuffer::setupInstanceAttributes</title>
<!-- Node1 -->
<g id="Node000001" class="node">
<title>Node1</title>
<g id="a_Node000001"><a xlink:title=" ">
<polygon fill="#999999" stroke="#666666" points="149.5,-104 0,-104 0,-72 149.5,-72 149.5,-104"/>
<text text-anchor="start" x="8" y="-90.5" font-family="Helvetica,sans-Serif" font-size="10.00">GLESC::GAPI::VertexInstance</text>
<text text-anchor="middle" x="74.75" y="-78.5" font-family="Helvetica,sans-Serif" font-size="10.00">Buffer::setupInstanceAttributes</text>
</a>
</g>
</g>
<!-- Node2 -->
<g id="Node000002" class="node">
<title>Node2</title>
<g id="a_Node000002"><a xlink:href="class_g_l_e_s_c_1_1_g_a_p_i_1_1_vertex_buffer.html#afc06aa70b14e2379e8565afb2e017bd2" target="_top" xlink:title=" ">
<polygon fill="white" stroke="#666666" points="323,-170 185.5,-170 185.5,-138 323,-138 323,-170"/>
<text text-anchor="start" x="193.5" y="-156.5" font-family="Helvetica,sans-Serif" font-size="10.00">GLESC::GAPI::VertexBuffer</text>
<text text-anchor="middle" x="254.25" y="-144.5" font-family="Helvetica,sans-Serif" font-size="10.00">::bind</text>
</a>
</g>
</g>
<!-- Node1&#45;&gt;Node2 -->
<g id="edge1_Node000001_Node000002" class="edge">
<title>Node1&#45;&gt;Node2</title>
<g id="a_edge1_Node000001_Node000002"><a xlink:title=" ">
<path fill="none" stroke="#63b8ff" d="M120.08,-104.48C143.89,-113.34 173.45,-124.33 198.66,-133.7"/>
<polygon fill="#63b8ff" stroke="#63b8ff" points="197.16,-136.88 207.76,-137.08 199.6,-130.32 197.16,-136.88"/>
</a>
</g>
</g>
<!-- Node3 -->
<g id="Node000003" class="node">
<title>Node3</title>
<g id="a_Node000003"><a xlink:href="_gapi_8h.html#ab7514d88e65656ffa15ca33256518fe5" target="_top" xlink:title="Returns the graphic API used by the engine.">
<polygon fill="white" stroke="#666666" points="411.75,-142 359,-142 359,-122 411.75,-122 411.75,-142"/>
<text text-anchor="middle" x="385.38" y="-128.5" font-family="Helvetica,sans-Serif" font-size="10.00">getGAPI</text>
</a>
</g>
</g>
<!-- Node1&#45;&gt;Node3 -->
<g id="edge4_Node000001_Node000003" class="edge">
<title>Node1&#45;&gt;Node3</title>
<g id="a_edge4_Node000001_Node000003"><a xlink:title=" ">
<path fill="none" stroke="#63b8ff" d="M149.67,-98.54C212.11,-107.44 298.91,-119.82 347.55,-126.75"/>
<polygon fill="#63b8ff" stroke="#63b8ff" points="346.88,-130.19 357.27,-128.14 347.87,-123.26 346.88,-130.19"/>
</a>
</g>
</g>
<!-- Node4 -->
<g id="Node000004" class="node">
<title>Node4</title>
<g id="a_Node000004"><a xlink:href="class_g_l_e_s_c_1_1_g_a_p_i_1_1_vertex_buffer_layout.html#a47ec1d7e83e66bd93aa9a268b1c55264" target="_top" xlink:title=" ">
<polygon fill="white" stroke="#666666" points="323,-82 185.5,-82 185.5,-50 323,-50 323,-82"/>
<text text-anchor="start" x="193.5" y="-68.5" font-family="Helvetica,sans-Serif" font-size="10.00">GLESC::GAPI::VertexBuffer</text>
<text text-anchor="middle" x="254.25" y="-56.5" font-family="Helvetica,sans-Serif" font-size="10.00">Layout::getElements</text>
</a>
</g>
</g>
<!-- Node1&#45;&gt;Node4 -->
<g id="edge3_Node000001_Node000004" class="edge">
<title>Node1&#45;&gt;Node4</title>
<g id="a_edge3_Node000001_Node000004"><a xlink:title=" ">
<path fill="none" stroke="#63b8ff" d="M150,-78.8C157.94,-77.81 166.04,-76.81 174.04,-75.82"/>
<polygon fill="#63b8ff" stroke="#63b8ff" points="174.25,-79.32 183.74,-74.61 173.39,-72.37 174.25,-79.32"/>
</a>
</g>
</g>
<!-- Node5 -->
<g id="Node000005" class="node">
<title>Node5</title>
<g id="a_Node000005"><a xlink:href="class_g_l_e_s_c_1_1_g_a_p_i_1_1_vertex_buffer_layout.html#ad5fcdb714b2b1552644475dffc81ab07" target="_top" xlink:title=" ">
<polygon fill="white" stroke="#666666" points="323,-32 185.5,-32 185.5,0 323,0 323,-32"/>
<text text-anchor="start" x="193.5" y="-18.5" font-family="Helvetica,sans-Serif" font-size="10.00">GLESC::GAPI::VertexBuffer</text>
<text text-anchor="middle" x="254.25" y="-6.5" font-family="Helvetica,sans-Serif" font-size="10.00">Layout::getStride</text>
</a>
</g>
</g>
<!-- Node1&#45;&gt;Node5 -->
<g id="edge5_Node000001_Node000005" class="edge">
<title>Node1&#45;&gt;Node5</title>
<g id="a_edge5_Node000001_Node000005"><a xlink:title=" ">
<path fill="none" stroke="#63b8ff" d="M112.89,-71.54C134.06,-62.29 161.14,-50.7 185.5,-41 189.27,-39.5 193.18,-37.97 197.12,-36.46"/>
<polygon fill="#63b8ff" stroke="#63b8ff" points="198.05,-39.85 206.16,-33.03 195.57,-33.3 198.05,-39.85"/>
</a>
</g>
</g>
<!-- Node2&#45;&gt;Node3 -->
<g id="edge2_Node000002_Node000003" class="edge">
<title>Node2&#45;&gt;Node3</title>
<g id="a_edge2_Node000002_Node000003"><a xlink:title=" ">
<path fill="none" stroke="#63b8ff" d="M323.22,-142.42C331.51,-141.01 339.73,-139.61 347.32,-138.31"/>
<polygon fill="#63b8ff" stroke="#63b8ff" points="347.9,-141.77 357.17,-136.64 346.72,-134.86 347.9,-141.77"/>
</a>
</g>
</g>
</g>
</svg>
</svg>

<style type='text/css'>
<![CDATA[
[data-mouse-over-selected='false'] { opacity: 0.7; }
[data-mouse-over-selected='true']  { opacity: 1.0; }
]]>
</style>
<script type="application/ecmascript"><![CDATA[
document.addEventListener('DOMContentLoaded', (event) => {
  highlightEdges();
  highlightAdjacentNodes();
});
]]></script>
</svg>
