<?xml version="1.0" encoding="UTF-8" standalone="no"?>
<!DOCTYPE svg PUBLIC "-//W3C//DTD SVG 1.1//EN"
 "http://www.w3.org/Graphics/SVG/1.1/DTD/svg11.dtd">
<!-- Generated by graphviz version 11.0.0 (20240428.1522)
 -->
<!-- Title: GLESC::Render::Mesh::getVertexArray Pages: 1 -->
<svg width="732pt" height="90pt"
 viewBox="0.00 0.00 731.50 90.00" xmlns="http://www.w3.org/2000/svg" xmlns:xlink="http://www.w3.org/1999/xlink">
<g id="graph0" class="graph" transform="scale(1 1) rotate(0) translate(4 86)">
<title>GLESC::Render::Mesh::getVertexArray</title>
<!-- Node1 -->
<g id="Node000001" class="node">
<title>Node1</title>
<g id="a_Node000001"><a xlink:title=" ">
<polygon fill="#999999" stroke="#666666" points="723.5,-57 607.75,-57 607.75,-25 723.5,-25 723.5,-57"/>
<text text-anchor="start" x="615.75" y="-43.5" font-family="Helvetica,sans-Serif" font-size="10.00">GLESC::Render::Mesh</text>
<text text-anchor="middle" x="665.62" y="-31.5" font-family="Helvetica,sans-Serif" font-size="10.00">::getVertexArray</text>
</a>
</g>
</g>
<!-- Node2 -->
<g id="Node000002" class="node">
<title>Node2</title>
<g id="a_Node000002"><a xlink:href="class_g_l_e_s_c_1_1_render_1_1_mesh.html#a8782a2a59ff7d90495631db68ab52b78" target="_top" xlink:title="Get the updated debugging values of the component.">
<polygon fill="white" stroke="#666666" points="571.75,-82 424.5,-82 424.5,-50 571.75,-50 571.75,-82"/>
<text text-anchor="start" x="432.5" y="-68.5" font-family="Helvetica,sans-Serif" font-size="10.00">GLESC::Render::Mesh</text>
<text text-anchor="middle" x="498.12" y="-56.5" font-family="Helvetica,sans-Serif" font-size="10.00">::getUpdatedDebuggingValues</text>
</a>
</g>
</g>
<!-- Node1&#45;&gt;Node2 -->
<g id="edge1_Node000001_Node000002" class="edge">
<title>Node1&#45;&gt;Node2</title>
<g id="a_edge1_Node000001_Node000002"><a xlink:title=" ">
<path fill="none" stroke="#63b8ff" d="M596.42,-51.3C588.36,-52.52 580.1,-53.77 571.97,-55"/>
<polygon fill="#63b8ff" stroke="#63b8ff" points="596.81,-54.78 606.17,-49.83 595.76,-47.86 596.81,-54.78"/>
</a>
</g>
</g>
<!-- Node4 -->
<g id="Node000004" class="node">
<title>Node4</title>
<g id="a_Node000004"><a xlink:href="class_g_l_e_s_c_1_1_render_1_1_renderer.html#a445e45c77c81c35c264a04a3fd07eb52" target="_top" xlink:title="This encapsulates the rendering of the mesh, calling the draw method from the GAPI with the VAO of th...">
<polygon fill="white" stroke="#666666" points="563.5,-32 432.75,-32 432.75,0 563.5,0 563.5,-32"/>
<text text-anchor="start" x="440.75" y="-18.5" font-family="Helvetica,sans-Serif" font-size="10.00">GLESC::Render::Renderer</text>
<text text-anchor="middle" x="498.12" y="-6.5" font-family="Helvetica,sans-Serif" font-size="10.00">::renderMesh</text>
</a>
</g>
</g>
<!-- Node1&#45;&gt;Node4 -->
<g id="edge3_Node000001_Node000004" class="edge">
<title>Node1&#45;&gt;Node4</title>
<g id="a_edge3_Node000001_Node000004"><a xlink:title=" ">
<path fill="none" stroke="#63b8ff" d="M596.56,-30.72C585.75,-29.08 574.59,-27.4 563.86,-25.78"/>
<polygon fill="#63b8ff" stroke="#63b8ff" points="595.76,-34.14 606.17,-32.17 596.81,-27.22 595.76,-34.14"/>
</a>
</g>
</g>
<!-- Node3 -->
<g id="Node000003" class="node">
<title>Node3</title>
<g id="a_Node000003"><a xlink:href="struct_g_l_e_s_c_1_1_e_c_s_1_1_render_component.html#a1123090073f521beb86480471c0f4029" target="_top" xlink:title="Set the updated debugging values of the component.">
<polygon fill="white" stroke="#666666" points="388.5,-82 227,-82 227,-50 388.5,-50 388.5,-82"/>
<text text-anchor="start" x="235" y="-68.5" font-family="Helvetica,sans-Serif" font-size="10.00">GLESC::ECS::RenderComponent</text>
<text text-anchor="middle" x="307.75" y="-56.5" font-family="Helvetica,sans-Serif" font-size="10.00">::setUpdatedDebuggingValues</text>
</a>
</g>
</g>
<!-- Node2&#45;&gt;Node3 -->
<g id="edge2_Node000002_Node000003" class="edge">
<title>Node2&#45;&gt;Node3</title>
<g id="a_edge2_Node000002_Node000003"><a xlink:title=" ">
<path fill="none" stroke="#63b8ff" d="M412.61,-66C404.75,-66 396.81,-66 388.99,-66"/>
<polygon fill="#63b8ff" stroke="#63b8ff" points="412.51,-69.5 422.51,-66 412.51,-62.5 412.51,-69.5"/>
</a>
</g>
</g>
<!-- Node5 -->
<g id="Node000005" class="node">
<title>Node5</title>
<g id="a_Node000005"><a xlink:href="class_g_l_e_s_c_1_1_render_1_1_renderer.html#a3244ebc15bf8310257ec613f62d00a33" target="_top" xlink:title="This renders the frame.">
<polygon fill="white" stroke="#666666" points="373.12,-32 242.38,-32 242.38,0 373.12,0 373.12,-32"/>
<text text-anchor="start" x="250.38" y="-18.5" font-family="Helvetica,sans-Serif" font-size="10.00">GLESC::Render::Renderer</text>
<text text-anchor="middle" x="307.75" y="-6.5" font-family="Helvetica,sans-Serif" font-size="10.00">::render</text>
</a>
</g>
</g>
<!-- Node4&#45;&gt;Node5 -->
<g id="edge4_Node000004_Node000005" class="edge">
<title>Node4&#45;&gt;Node5</title>
<g id="a_edge4_Node000004_Node000005"><a xlink:title=" ">
<path fill="none" stroke="#63b8ff" d="M420.96,-16C405.18,-16 388.7,-16 373.38,-16"/>
<polygon fill="#63b8ff" stroke="#63b8ff" points="420.78,-19.5 430.78,-16 420.78,-12.5 420.78,-19.5"/>
</a>
</g>
</g>
<!-- Node6 -->
<g id="Node000006" class="node">
<title>Node6</title>
<g id="a_Node000006"><a xlink:href="class_g_l_e_s_c_1_1_engine.html#ab0a886855ca341089947b36b9c6f6e15" target="_top" xlink:title="Processes the rendering of the game Can be called at variable intervals of time as it uses elapsed.">
<polygon fill="white" stroke="#666666" points="191,-26 73,-26 73,-6 191,-6 191,-26"/>
<text text-anchor="middle" x="132" y="-12.5" font-family="Helvetica,sans-Serif" font-size="10.00">GLESC::Engine::render</text>
</a>
</g>
</g>
<!-- Node5&#45;&gt;Node6 -->
<g id="edge5_Node000005_Node000006" class="edge">
<title>Node5&#45;&gt;Node6</title>
<g id="a_edge5_Node000005_Node000006"><a xlink:title=" ">
<path fill="none" stroke="#63b8ff" d="M230.63,-16C217.49,-16 204.02,-16 191.45,-16"/>
<polygon fill="#63b8ff" stroke="#63b8ff" points="230.54,-19.5 240.54,-16 230.54,-12.5 230.54,-19.5"/>
</a>
</g>
</g>
<!-- Node7 -->
<g id="Node000007" class="node">
<title>Node7</title>
<g id="a_Node000007"><a xlink:href="src_2engine_2main_8cpp.html#a0ddf1224851353fc92bfbff6f499fa97" target="_top" xlink:title=" ">
<polygon fill="white" stroke="#666666" points="37,-26 0,-26 0,-6 37,-6 37,-26"/>
<text text-anchor="middle" x="18.5" y="-12.5" font-family="Helvetica,sans-Serif" font-size="10.00">main</text>
</a>
</g>
</g>
<!-- Node6&#45;&gt;Node7 -->
<g id="edge6_Node000006_Node000007" class="edge">
<title>Node6&#45;&gt;Node7</title>
<g id="a_edge6_Node000006_Node000007"><a xlink:title=" ">
<path fill="none" stroke="#63b8ff" d="M61.31,-16C52.52,-16 44.22,-16 37.37,-16"/>
<polygon fill="#63b8ff" stroke="#63b8ff" points="61.12,-19.5 71.12,-16 61.12,-12.5 61.12,-19.5"/>
</a>
</g>
</g>
</g>
</svg>
