<?xml version="1.0" encoding="UTF-8" standalone="no"?>
<!DOCTYPE svg PUBLIC "-//W3C//DTD SVG 1.1//EN"
 "http://www.w3.org/Graphics/SVG/1.1/DTD/svg11.dtd">
<!-- Generated by graphviz version 11.0.0 (20240428.1522)
 -->
<!-- Title: GLESC::Render::MeshFactory::pyramid Pages: 1 -->
<!--zoomable 226 -->

<svg id="main" version="1.1" xmlns="http://www.w3.org/2000/svg" xmlns:xlink="http://www.w3.org/1999/xlink" xml:space="preserve" onload="init(evt)">
<style type="text/css"><![CDATA[
.node, .edge {opacity: 0.7;}
.node.selected, .edge.selected {opacity: 1;}
.edge:hover path { stroke: red; }
.edge:hover polygon { stroke: red; fill: red; }
]]></style>

<defs>
  <circle id="rim" cx="0" cy="0" r="7"/>
  <circle id="rim2" cx="0" cy="0" r="3.5"/>
  <g id="zoomPlus">
    <use xlink:href="#rim" fill="#404040"><set attributeName="fill" to="#808080" begin="zoomplus.mouseover" end="zoomplus.mouseout"/></use>
    <path d="M-4,0h8M0,-4v8" fill="none" stroke="white" stroke-width="1.5" pointer-events="none"/>
  </g>
  <g id="zoomMin">
    <use xlink:href="#rim" fill="#404040"><set attributeName="fill" to="#808080" begin="zoomminus.mouseover" end="zoomminus.mouseout"/></use>
    <path d="M-4,0h8" fill="none" stroke="white" stroke-width="1.5" pointer-events="none"/>
  </g>
  <g id="arrowUp" transform="translate(30 24)">
    <use xlink:href="#rim"/>
    <path pointer-events="none" fill="none" stroke="white" stroke-width="1.5" d="M0,-3.0v7 M-2.5,-0.5L0,-3.0L2.5,-0.5"/>
  </g>
  <g id="arrowRight" transform="rotate(90) translate(36 -43)">
    <use xlink:href="#rim"/>
    <path pointer-events="none" fill="none" stroke="white" stroke-width="1.5" d="M0,-3.0v7 M-2.5,-0.5L0,-3.0L2.5,-0.5"/>
  </g>
  <g id="arrowDown" transform="rotate(180) translate(-30 -48)">
    <use xlink:href="#rim"/>
    <path pointer-events="none" fill="none" stroke="white" stroke-width="1.5" d="M0,-3.0v7 M-2.5,-0.5L0,-3.0L2.5,-0.5"/>
  </g>
  <g id="arrowLeft" transform="rotate(270) translate(-36 17)">
    <use xlink:href="#rim"/>
    <path pointer-events="none" fill="none" stroke="white" stroke-width="1.5" d="M0,-3.0v7 M-2.5,-0.5L0,-3.0L2.5,-0.5"/>
  </g>
  <g id="resetDef">
    <use xlink:href="#rim2" fill="#404040"><set attributeName="fill" to="#808080" begin="reset.mouseover" end="reset.mouseout"/></use>
  </g>
</defs>
<script type="application/ecmascript">
var viewWidth = 842;
var viewHeight = 226;
var sectionId = 'dynsection-5';
</script>
<script type="application/ecmascript" xlink:href="svg.min.js"/>
<svg id="graph" class="graph">
<g id="viewport">
<title>GLESC::Render::MeshFactory::pyramid</title>
<!-- Node1 -->
<g id="Node000001" class="node">
<title>Node1</title>
<g id="a_Node000001"><a xlink:title=" ">
<polygon fill="#999999" stroke="#666666" points="148.75,-107 0,-107 0,-75 148.75,-75 148.75,-107"/>
<text text-anchor="start" x="8" y="-93.5" font-family="Helvetica,sans-Serif" font-size="10.00">GLESC::Render::MeshFactory</text>
<text text-anchor="middle" x="74.38" y="-81.5" font-family="Helvetica,sans-Serif" font-size="10.00">::pyramid</text>
</a>
</g>
</g>
<!-- Node2 -->
<g id="Node000002" class="node">
<title>Node2</title>
<g id="a_Node000002"><a xlink:href="class_g_l_e_s_c_1_1_render_1_1_mesh.html#a2ad7899a1de4ee74a10854158b601a2c" target="_top" xlink:title="Adds a quad to the mesh, quads are defined by 4 vertices.">
<polygon fill="white" stroke="#666666" points="300.5,-200 184.75,-200 184.75,-168 300.5,-168 300.5,-200"/>
<text text-anchor="start" x="192.75" y="-186.5" font-family="Helvetica,sans-Serif" font-size="10.00">GLESC::Render::Mesh</text>
<text text-anchor="middle" x="242.62" y="-174.5" font-family="Helvetica,sans-Serif" font-size="10.00">::addQuad</text>
</a>
</g>
</g>
<!-- Node1&#45;&gt;Node2 -->
<g id="edge1_Node000001_Node000002" class="edge">
<title>Node1&#45;&gt;Node2</title>
<g id="a_edge1_Node000001_Node000002"><a xlink:title=" ">
<path fill="none" stroke="#63b8ff" d="M99.55,-107.42C121.33,-121.87 154.49,-143.05 184.75,-159 187.08,-160.23 189.49,-161.45 191.94,-162.66"/>
<polygon fill="#63b8ff" stroke="#63b8ff" points="190.22,-165.72 200.75,-166.85 193.22,-159.4 190.22,-165.72"/>
</a>
</g>
</g>
<!-- Node7 -->
<g id="Node000007" class="node">
<title>Node7</title>
<g id="a_Node000007"><a xlink:href="class_g_l_e_s_c_1_1_render_1_1_mesh.html#ad2308e9137f51614b5d46416bc01deef" target="_top" xlink:title="Adds a tris to the mesh, tris are defined by 3 vertices.">
<polygon fill="white" stroke="#666666" points="300.5,-132 184.75,-132 184.75,-100 300.5,-100 300.5,-132"/>
<text text-anchor="start" x="192.75" y="-118.5" font-family="Helvetica,sans-Serif" font-size="10.00">GLESC::Render::Mesh</text>
<text text-anchor="middle" x="242.62" y="-106.5" font-family="Helvetica,sans-Serif" font-size="10.00">::addTris</text>
</a>
</g>
</g>
<!-- Node1&#45;&gt;Node7 -->
<g id="edge7_Node000001_Node000007" class="edge">
<title>Node1&#45;&gt;Node7</title>
<g id="a_edge7_Node000001_Node000007"><a xlink:title=" ">
<path fill="none" stroke="#63b8ff" d="M148.78,-102.04C156.88,-103.26 165.1,-104.49 173.14,-105.7"/>
<polygon fill="#63b8ff" stroke="#63b8ff" points="172.44,-109.13 182.85,-107.16 173.48,-102.21 172.44,-109.13"/>
</a>
</g>
</g>
<!-- Node8 -->
<g id="Node000008" class="node">
<title>Node8</title>
<g id="a_Node000008"><a xlink:href="class_g_l_e_s_c_1_1_render_1_1_mesh.html#ade8b0c4ff0b02d0484e7d0877880e918" target="_top" xlink:title=" ">
<polygon fill="white" stroke="#666666" points="300.5,-82 184.75,-82 184.75,-50 300.5,-50 300.5,-82"/>
<text text-anchor="start" x="192.75" y="-68.5" font-family="Helvetica,sans-Serif" font-size="10.00">GLESC::Render::Mesh</text>
<text text-anchor="middle" x="242.62" y="-56.5" font-family="Helvetica,sans-Serif" font-size="10.00">::finishBuilding</text>
</a>
</g>
</g>
<!-- Node1&#45;&gt;Node8 -->
<g id="edge11_Node000001_Node000008" class="edge">
<title>Node1&#45;&gt;Node8</title>
<g id="a_edge11_Node000001_Node000008"><a xlink:title=" ">
<path fill="none" stroke="#63b8ff" d="M148.78,-79.96C156.88,-78.74 165.1,-77.51 173.14,-76.3"/>
<polygon fill="#63b8ff" stroke="#63b8ff" points="173.48,-79.79 182.85,-74.84 172.44,-72.87 173.48,-79.79"/>
</a>
</g>
</g>
<!-- Node10 -->
<g id="Node000010" class="node">
<title>Node10</title>
<g id="a_Node000010"><a xlink:href="class_g_l_e_s_c_1_1_render_1_1_mesh.html#a9d11210ab41990859c0885c1e47603d9" target="_top" xlink:title="Starts the building of the mesh.">
<polygon fill="white" stroke="#666666" points="300.5,-32 184.75,-32 184.75,0 300.5,0 300.5,-32"/>
<text text-anchor="start" x="192.75" y="-18.5" font-family="Helvetica,sans-Serif" font-size="10.00">GLESC::Render::Mesh</text>
<text text-anchor="middle" x="242.62" y="-6.5" font-family="Helvetica,sans-Serif" font-size="10.00">::startBuilding</text>
</a>
</g>
</g>
<!-- Node1&#45;&gt;Node10 -->
<g id="edge13_Node000001_Node000010" class="edge">
<title>Node1&#45;&gt;Node10</title>
<g id="a_edge13_Node000001_Node000010"><a xlink:title=" ">
<path fill="none" stroke="#63b8ff" d="M110.78,-74.66C132.16,-64.82 159.98,-52.1 184.75,-41 187.66,-39.7 190.65,-38.36 193.67,-37.02"/>
<polygon fill="#63b8ff" stroke="#63b8ff" points="194.85,-40.32 202.58,-33.08 192.02,-33.92 194.85,-40.32"/>
</a>
</g>
</g>
<!-- Node2&#45;&gt;Node2 -->
<g id="edge2_Node000002_Node000002" class="edge">
<title>Node2&#45;&gt;Node2</title>
<g id="a_edge2_Node000002_Node000002"><a xlink:title=" ">
<path fill="none" stroke="#63b8ff" d="M212.59,-200.44C206.98,-209.58 216.99,-218 242.62,-218 256.64,-218 265.99,-215.48 270.66,-211.71"/>
<polygon fill="#63b8ff" stroke="#63b8ff" points="274.1,-212.39 272.4,-201.93 267.2,-211.17 274.1,-212.39"/>
</a>
</g>
</g>
<!-- Node3 -->
<g id="Node000003" class="node">
<title>Node3</title>
<g id="a_Node000003"><a xlink:href="class_g_l_e_s_c_1_1_render_1_1_mesh.html#a7d4ee0ef7799514b465c2e4f1e6806dc" target="_top" xlink:title="Adds a vertex to the mesh.">
<polygon fill="white" stroke="#666666" points="472.5,-141 356.75,-141 356.75,-109 472.5,-109 472.5,-141"/>
<text text-anchor="start" x="364.75" y="-127.5" font-family="Helvetica,sans-Serif" font-size="10.00">GLESC::Render::Mesh</text>
<text text-anchor="middle" x="414.62" y="-115.5" font-family="Helvetica,sans-Serif" font-size="10.00">::addVertex</text>
</a>
</g>
</g>
<!-- Node2&#45;&gt;Node3 -->
<g id="edge3_Node000002_Node000003" class="edge">
<title>Node2&#45;&gt;Node3</title>
<g id="a_edge3_Node000002_Node000003"><a xlink:title=" ">
<path fill="none" stroke="#63b8ff" d="M290.98,-167.57C310.97,-160.63 334.45,-152.48 355.49,-145.18"/>
<polygon fill="#63b8ff" stroke="#63b8ff" points="356.5,-148.53 364.8,-141.95 354.21,-141.92 356.5,-148.53"/>
</a>
</g>
</g>
<!-- Node4 -->
<g id="Node000004" class="node">
<title>Node4</title>
<g id="a_Node000004"><a xlink:href="class_g_l_e_s_c_1_1_render_1_1_mesh.html#a78f09fa1a41f6e3ec496aae31c671e92" target="_top" xlink:title="Helper function to automatically calculate the normal of a face with 3 points.">
<polygon fill="white" stroke="#666666" points="472.5,-195 356.75,-195 356.75,-163 472.5,-163 472.5,-195"/>
<text text-anchor="start" x="364.75" y="-181.5" font-family="Helvetica,sans-Serif" font-size="10.00">GLESC::Render::Mesh</text>
<text text-anchor="middle" x="414.62" y="-169.5" font-family="Helvetica,sans-Serif" font-size="10.00">::calculateNormal</text>
</a>
</g>
</g>
<!-- Node2&#45;&gt;Node4 -->
<g id="edge4_Node000002_Node000004" class="edge">
<title>Node2&#45;&gt;Node4</title>
<g id="a_edge4_Node000002_Node000004"><a xlink:title=" ">
<path fill="none" stroke="#63b8ff" d="M300.71,-182.32C315,-181.9 330.48,-181.45 345.27,-181.01"/>
<polygon fill="#63b8ff" stroke="#63b8ff" points="345,-184.52 354.89,-180.73 344.79,-177.52 345,-184.52"/>
</a>
</g>
</g>
<!-- Node5 -->
<g id="Node000005" class="node">
<title>Node5</title>
<g id="a_Node000005"><a xlink:href="class_g_l_e_s_c_1_1_math_1_1_vector.html#ac4fe912b3001e4fad684c2cd4c56cf83" target="_top" xlink:title="Calculates the cross product of two vectors.">
<polygon fill="white" stroke="#666666" points="640,-195 528.75,-195 528.75,-163 640,-163 640,-195"/>
<text text-anchor="start" x="536.75" y="-181.5" font-family="Helvetica,sans-Serif" font-size="10.00">GLESC::Math::Vector</text>
<text text-anchor="middle" x="584.38" y="-169.5" font-family="Helvetica,sans-Serif" font-size="10.00">::cross</text>
</a>
</g>
</g>
<!-- Node4&#45;&gt;Node5 -->
<g id="edge5_Node000004_Node000005" class="edge">
<title>Node4&#45;&gt;Node5</title>
<g id="a_edge5_Node000004_Node000005"><a xlink:title=" ">
<path fill="none" stroke="#63b8ff" d="M472.89,-179C487.04,-179 502.32,-179 516.88,-179"/>
<polygon fill="#63b8ff" stroke="#63b8ff" points="516.84,-182.5 526.84,-179 516.84,-175.5 516.84,-182.5"/>
</a>
</g>
</g>
<!-- Node6 -->
<g id="Node000006" class="node">
<title>Node6</title>
<g id="a_Node000006"><a xlink:href="class_g_l_e_s_c_1_1_math_1_1_vector_algorithms.html#ab041da9d339dfe80b80c6f0bdf5dbfd4" target="_top" xlink:title="Computes the cross product of two vectors.">
<polygon fill="white" stroke="#666666" points="833.75,-195 676,-195 676,-163 833.75,-163 833.75,-195"/>
<text text-anchor="start" x="684" y="-181.5" font-family="Helvetica,sans-Serif" font-size="10.00">GLESC::Math::VectorAlgorithms</text>
<text text-anchor="middle" x="754.88" y="-169.5" font-family="Helvetica,sans-Serif" font-size="10.00">::crossProduct</text>
</a>
</g>
</g>
<!-- Node5&#45;&gt;Node6 -->
<g id="edge6_Node000005_Node000006" class="edge">
<title>Node5&#45;&gt;Node6</title>
<g id="a_edge6_Node000005_Node000006"><a xlink:title=" ">
<path fill="none" stroke="#63b8ff" d="M640.08,-179C647.88,-179 656.06,-179 664.31,-179"/>
<polygon fill="#63b8ff" stroke="#63b8ff" points="664.06,-182.5 674.06,-179 664.06,-175.5 664.06,-182.5"/>
</a>
</g>
</g>
<!-- Node7&#45;&gt;Node3 -->
<g id="edge9_Node000007_Node000003" class="edge">
<title>Node7&#45;&gt;Node3</title>
<g id="a_edge9_Node000007_Node000003"><a xlink:title=" ">
<path fill="none" stroke="#63b8ff" d="M300.71,-119.02C315,-119.78 330.48,-120.6 345.27,-121.38"/>
<polygon fill="#63b8ff" stroke="#63b8ff" points="344.72,-124.86 354.89,-121.89 345.09,-117.87 344.72,-124.86"/>
</a>
</g>
</g>
<!-- Node7&#45;&gt;Node4 -->
<g id="edge10_Node000007_Node000004" class="edge">
<title>Node7&#45;&gt;Node4</title>
<g id="a_edge10_Node000007_Node000004"><a xlink:title=" ">
<path fill="none" stroke="#63b8ff" d="M287.85,-132.39C309.5,-140.41 335.79,-150.15 358.72,-158.65"/>
<polygon fill="#63b8ff" stroke="#63b8ff" points="357.32,-161.87 367.91,-162.06 359.75,-155.3 357.32,-161.87"/>
</a>
</g>
</g>
<!-- Node7&#45;&gt;Node7 -->
<g id="edge8_Node000007_Node000007" class="edge">
<title>Node7&#45;&gt;Node7</title>
<g id="a_edge8_Node000007_Node000007"><a xlink:title=" ">
<path fill="none" stroke="#63b8ff" d="M212.59,-132.44C206.98,-141.58 216.99,-150 242.62,-150 256.64,-150 265.99,-147.48 270.66,-143.71"/>
<polygon fill="#63b8ff" stroke="#63b8ff" points="274.1,-144.39 272.4,-133.93 267.2,-143.17 274.1,-144.39"/>
</a>
</g>
</g>
<!-- Node9 -->
<g id="Node000009" class="node">
<title>Node9</title>
<g id="a_Node000009"><a xlink:href="class_g_l_e_s_c_1_1_math_1_1_bounding_volume.html#a61c5ed29689b97d66a06eaf16b8dfc36" target="_top" xlink:title="Updates the bounding volume to fit the points it encloses.">
<polygon fill="white" stroke="#666666" points="492.75,-82 336.5,-82 336.5,-50 492.75,-50 492.75,-82"/>
<text text-anchor="start" x="344.5" y="-68.5" font-family="Helvetica,sans-Serif" font-size="10.00">GLESC::Math::BoundingVolume</text>
<text text-anchor="middle" x="414.62" y="-56.5" font-family="Helvetica,sans-Serif" font-size="10.00">::updateBoundingBox</text>
</a>
</g>
</g>
<!-- Node8&#45;&gt;Node9 -->
<g id="edge12_Node000008_Node000009" class="edge">
<title>Node8&#45;&gt;Node9</title>
<g id="a_edge12_Node000008_Node000009"><a xlink:title=" ">
<path fill="none" stroke="#63b8ff" d="M300.71,-66C308.44,-66 316.53,-66 324.66,-66"/>
<polygon fill="#63b8ff" stroke="#63b8ff" points="324.64,-69.5 334.64,-66 324.64,-62.5 324.64,-69.5"/>
</a>
</g>
</g>
</g>
</svg>

<g id="navigator" transform="translate(0 0)" fill="#404254">
  <rect fill="#f2f5e9" fill-opacity="0.5" stroke="#606060" stroke-width=".5" x="0" y="0" width="60" height="60"/>
  <use id="zoomplus" xlink:href="#zoomPlus" x="17" y="9" onmousedown="handleZoom(evt,'in')"/>
  <use id="zoomminus" xlink:href="#zoomMin" x="42" y="9" onmousedown="handleZoom(evt,'out')"/>
  <use id="reset" xlink:href="#resetDef" x="30" y="36" onmousedown="handleReset()"/>
   <use id="arrowup" xlink:href="#arrowUp" x="0" y="0" onmousedown="handlePan(0,-1)"/>
  <use id="arrowright" xlink:href="#arrowRight" x="0" y="0" onmousedown="handlePan(1,0)"/>
  <use id="arrowdown" xlink:href="#arrowDown" x="0" y="0" onmousedown="handlePan(0,1)"/>
  <use id="arrowleft" xlink:href="#arrowLeft" x="0" y="0" onmousedown="handlePan(-1,0)"/>
</g>
<svg viewBox="0 0 15 15" width="100%" height="30px" preserveAspectRatio="xMaxYMin meet">
 <g id="arrow_out" transform="scale(0.3 0.3)">
  <a xlink:href="class_g_l_e_s_c_1_1_render_1_1_mesh_factory_aefd29f32b084155c54dd3d91fef99aba_cgraph_org.svg" target="_base">
   <rect id="button" ry="5" rx="5" y="6" x="6" height="38" width="38"
        fill="#f2f5e9" fill-opacity="0.5" stroke="#606060" stroke-width="1.0"/>
   <path id="arrow"
     d="M 11.500037,31.436501 C 11.940474,20.09759 22.043105,11.32322 32.158766,21.979434 L 37.068811,17.246167 C 37.068811,17.246167 37.088388,32 37.088388,32 L 22.160133,31.978069 C 22.160133,31.978069 26.997745,27.140456 26.997745,27.140456 C 18.528582,18.264221 13.291696,25.230495 11.500037,31.436501 z"
     style="fill:#404040;"/>
  </a>
 </g>
</svg>

<style type='text/css'>
<![CDATA[
[data-mouse-over-selected='false'] { opacity: 0.7; }
[data-mouse-over-selected='true']  { opacity: 1.0; }
]]>
</style>
<script type="application/ecmascript"><![CDATA[
document.addEventListener('DOMContentLoaded', (event) => {
  highlightEdges();
  highlightAdjacentNodes();
});
]]></script>
</svg>
