<?xml version="1.0" encoding="UTF-8" standalone="no"?>
<!DOCTYPE svg PUBLIC "-//W3C//DTD SVG 1.1//EN"
 "http://www.w3.org/Graphics/SVG/1.1/DTD/svg11.dtd">
<!-- Generated by graphviz version 11.0.0 (20240428.1522)
 -->
<!-- Title: GLESC::Math::VectorAlgorithms::areParallel Pages: 1 -->
<svg width="553pt" height="154pt"
 viewBox="0.00 0.00 553.25 154.00" xmlns="http://www.w3.org/2000/svg" xmlns:xlink="http://www.w3.org/1999/xlink">
<g id="graph0" class="graph" transform="scale(1 1) rotate(0) translate(4 150)">
<title>GLESC::Math::VectorAlgorithms::areParallel</title>
<!-- Node1 -->
<g id="Node000001" class="node">
<title>Node1</title>
<g id="a_Node000001"><a xlink:title="Checks if two vectors are parallel.">
<polygon fill="#999999" stroke="#666666" points="157.75,-95 0,-95 0,-63 157.75,-63 157.75,-95"/>
<text text-anchor="start" x="8" y="-81.5" font-family="Helvetica,sans-Serif" font-size="10.00">GLESC::Math::VectorAlgorithms</text>
<text text-anchor="middle" x="78.88" y="-69.5" font-family="Helvetica,sans-Serif" font-size="10.00">::areParallel</text>
</a>
</g>
</g>
<!-- Node2 -->
<g id="Node000002" class="node">
<title>Node2</title>
<g id="a_Node000002"><a xlink:href="namespace_g_l_e_s_c_1_1_math.html#a04db3782a0754ba2d22eb5d159dd681c" target="_top" xlink:title="Calculates the absolute value of a number.">
<polygon fill="white" stroke="#666666" points="321.88,-146 223.38,-146 223.38,-126 321.88,-126 321.88,-146"/>
<text text-anchor="middle" x="272.62" y="-132.5" font-family="Helvetica,sans-Serif" font-size="10.00">GLESC::Math::abs</text>
</a>
</g>
</g>
<!-- Node1&#45;&gt;Node2 -->
<g id="edge1_Node000001_Node000002" class="edge">
<title>Node1&#45;&gt;Node2</title>
<g id="a_edge1_Node000001_Node000002"><a xlink:title=" ">
<path fill="none" stroke="#63b8ff" d="M126.14,-95.41C146.72,-102.45 171.32,-110.53 193.75,-117 200.68,-119 207.99,-120.96 215.25,-122.83"/>
<polygon fill="#63b8ff" stroke="#63b8ff" points="214.14,-126.16 224.69,-125.21 215.85,-119.37 214.14,-126.16"/>
</a>
</g>
</g>
<!-- Node3 -->
<g id="Node000003" class="node">
<title>Node3</title>
<g id="a_Node000003"><a xlink:href="class_g_l_e_s_c_1_1_math_1_1_vector_algorithms.html#ae45bcff9b53fb60d513c53823418d97b" target="_top" xlink:title="Computes the dot product of two vectors.">
<polygon fill="white" stroke="#666666" points="545.25,-73 387.5,-73 387.5,-41 545.25,-41 545.25,-73"/>
<text text-anchor="start" x="395.5" y="-59.5" font-family="Helvetica,sans-Serif" font-size="10.00">GLESC::Math::VectorAlgorithms</text>
<text text-anchor="middle" x="466.38" y="-47.5" font-family="Helvetica,sans-Serif" font-size="10.00">::dotProduct</text>
</a>
</g>
</g>
<!-- Node1&#45;&gt;Node3 -->
<g id="edge2_Node000001_Node000003" class="edge">
<title>Node1&#45;&gt;Node3</title>
<g id="a_edge2_Node000001_Node000003"><a xlink:title=" ">
<path fill="none" stroke="#63b8ff" d="M157.89,-74.55C221.01,-70.95 309.94,-65.87 375.94,-62.1"/>
<polygon fill="#63b8ff" stroke="#63b8ff" points="375.85,-65.61 385.64,-61.55 375.45,-58.63 375.85,-65.61"/>
</a>
</g>
</g>
<!-- Node4 -->
<g id="Node000004" class="node">
<title>Node4</title>
<g id="a_Node000004"><a xlink:href="namespace_g_l_e_s_c_1_1_math.html#aee25910dbba06d09d9df14d03933ace1" target="_top" xlink:title="Compares two values for equality.">
<polygon fill="white" stroke="#666666" points="319.25,-108 226,-108 226,-88 319.25,-88 319.25,-108"/>
<text text-anchor="middle" x="272.62" y="-94.5" font-family="Helvetica,sans-Serif" font-size="10.00">GLESC::Math::eq</text>
</a>
</g>
</g>
<!-- Node1&#45;&gt;Node4 -->
<g id="edge3_Node000001_Node000004" class="edge">
<title>Node1&#45;&gt;Node4</title>
<g id="a_edge3_Node000001_Node000004"><a xlink:title=" ">
<path fill="none" stroke="#63b8ff" d="M158.14,-86.76C177,-88.62 196.8,-90.59 214.49,-92.34"/>
<polygon fill="#63b8ff" stroke="#63b8ff" points="213.97,-95.8 224.27,-93.31 214.66,-88.84 213.97,-95.8"/>
</a>
</g>
</g>
<!-- Node6 -->
<g id="Node000006" class="node">
<title>Node6</title>
<g id="a_Node000006"><a xlink:href="class_g_l_e_s_c_1_1_math_1_1_vector_algorithms.html#a96acaa670e780132720dd3ea6a6cdf97" target="_top" xlink:title="Computes the length of a vector.">
<polygon fill="white" stroke="#666666" points="351.5,-32 193.75,-32 193.75,0 351.5,0 351.5,-32"/>
<text text-anchor="start" x="201.75" y="-18.5" font-family="Helvetica,sans-Serif" font-size="10.00">GLESC::Math::VectorAlgorithms</text>
<text text-anchor="middle" x="272.62" y="-6.5" font-family="Helvetica,sans-Serif" font-size="10.00">::length</text>
</a>
</g>
</g>
<!-- Node1&#45;&gt;Node6 -->
<g id="edge5_Node000001_Node000006" class="edge">
<title>Node1&#45;&gt;Node6</title>
<g id="a_edge5_Node000001_Node000006"><a xlink:title=" ">
<path fill="none" stroke="#63b8ff" d="M129.75,-62.61C154.51,-54.48 184.64,-44.58 210.75,-36"/>
<polygon fill="#63b8ff" stroke="#63b8ff" points="211.82,-39.33 220.22,-32.89 209.63,-32.68 211.82,-39.33"/>
</a>
</g>
</g>
<!-- Node5 -->
<g id="Node000005" class="node">
<title>Node5</title>
<g id="a_Node000005"><a xlink:href="namespace_g_l_e_s_c_1_1_math.html#acd429163efe906cd22916cc75ccb2421" target="_top" xlink:title="Epsilon getter with precision of a given template type.">
<polygon fill="white" stroke="#666666" points="523.12,-111 409.62,-111 409.62,-91 523.12,-91 523.12,-111"/>
<text text-anchor="middle" x="466.38" y="-97.5" font-family="Helvetica,sans-Serif" font-size="10.00">GLESC::Math::epsilon</text>
</a>
</g>
</g>
<!-- Node4&#45;&gt;Node5 -->
<g id="edge4_Node000004_Node000005" class="edge">
<title>Node4&#45;&gt;Node5</title>
<g id="a_edge4_Node000004_Node000005"><a xlink:title=" ">
<path fill="none" stroke="#63b8ff" d="M319.55,-98.72C343.01,-99.09 371.99,-99.54 397.93,-99.94"/>
<polygon fill="#63b8ff" stroke="#63b8ff" points="397.64,-103.44 407.7,-100.1 397.75,-96.44 397.64,-103.44"/>
</a>
</g>
</g>
<!-- Node6&#45;&gt;Node3 -->
<g id="edge6_Node000006_Node000003" class="edge">
<title>Node6&#45;&gt;Node3</title>
<g id="a_edge6_Node000006_Node000003"><a xlink:title=" ">
<path fill="none" stroke="#63b8ff" d="M350.79,-32.5C359.5,-34.36 368.42,-36.27 377.25,-38.16"/>
<polygon fill="#63b8ff" stroke="#63b8ff" points="376.38,-41.55 386.89,-40.22 377.84,-34.7 376.38,-41.55"/>
</a>
</g>
</g>
<!-- Node7 -->
<g id="Node000007" class="node">
<title>Node7</title>
<g id="a_Node000007"><a xlink:href="namespace_g_l_e_s_c_1_1_math.html#ab2316a2512c43c18e29709201adf3fe5" target="_top" xlink:title="Calculates the square root of a value.">
<polygon fill="white" stroke="#666666" points="516,-23 416.75,-23 416.75,-3 516,-3 516,-23"/>
<text text-anchor="middle" x="466.38" y="-9.5" font-family="Helvetica,sans-Serif" font-size="10.00">GLESC::Math::sqrt</text>
</a>
</g>
</g>
<!-- Node6&#45;&gt;Node7 -->
<g id="edge7_Node000006_Node000007" class="edge">
<title>Node6&#45;&gt;Node7</title>
<g id="a_edge7_Node000006_Node000007"><a xlink:title=" ">
<path fill="none" stroke="#63b8ff" d="M351.89,-14.78C369.65,-14.5 388.23,-14.21 405.11,-13.94"/>
<polygon fill="#63b8ff" stroke="#63b8ff" points="405.03,-17.44 414.97,-13.79 404.92,-10.45 405.03,-17.44"/>
</a>
</g>
</g>
</g>
</svg>
