<?xml version="1.0" encoding="UTF-8" standalone="no"?>
<!DOCTYPE svg PUBLIC "-//W3C//DTD SVG 1.1//EN"
 "http://www.w3.org/Graphics/SVG/1.1/DTD/svg11.dtd">
<!-- Generated by graphviz version 11.0.0 (20240428.1522)
 -->
<!-- Title: GLESC::Math::MatrixAlgorithms::transpose Pages: 1 -->
<!--zoomable 242 -->

<svg id="main" version="1.1" xmlns="http://www.w3.org/2000/svg" xmlns:xlink="http://www.w3.org/1999/xlink" xml:space="preserve" onload="init(evt)">
<style type="text/css"><![CDATA[
.node, .edge {opacity: 0.7;}
.node.selected, .edge.selected {opacity: 1;}
.edge:hover path { stroke: red; }
.edge:hover polygon { stroke: red; fill: red; }
]]></style>

<defs>
  <circle id="rim" cx="0" cy="0" r="7"/>
  <circle id="rim2" cx="0" cy="0" r="3.5"/>
  <g id="zoomPlus">
    <use xlink:href="#rim" fill="#404040"><set attributeName="fill" to="#808080" begin="zoomplus.mouseover" end="zoomplus.mouseout"/></use>
    <path d="M-4,0h8M0,-4v8" fill="none" stroke="white" stroke-width="1.5" pointer-events="none"/>
  </g>
  <g id="zoomMin">
    <use xlink:href="#rim" fill="#404040"><set attributeName="fill" to="#808080" begin="zoomminus.mouseover" end="zoomminus.mouseout"/></use>
    <path d="M-4,0h8" fill="none" stroke="white" stroke-width="1.5" pointer-events="none"/>
  </g>
  <g id="arrowUp" transform="translate(30 24)">
    <use xlink:href="#rim"/>
    <path pointer-events="none" fill="none" stroke="white" stroke-width="1.5" d="M0,-3.0v7 M-2.5,-0.5L0,-3.0L2.5,-0.5"/>
  </g>
  <g id="arrowRight" transform="rotate(90) translate(36 -43)">
    <use xlink:href="#rim"/>
    <path pointer-events="none" fill="none" stroke="white" stroke-width="1.5" d="M0,-3.0v7 M-2.5,-0.5L0,-3.0L2.5,-0.5"/>
  </g>
  <g id="arrowDown" transform="rotate(180) translate(-30 -48)">
    <use xlink:href="#rim"/>
    <path pointer-events="none" fill="none" stroke="white" stroke-width="1.5" d="M0,-3.0v7 M-2.5,-0.5L0,-3.0L2.5,-0.5"/>
  </g>
  <g id="arrowLeft" transform="rotate(270) translate(-36 17)">
    <use xlink:href="#rim"/>
    <path pointer-events="none" fill="none" stroke="white" stroke-width="1.5" d="M0,-3.0v7 M-2.5,-0.5L0,-3.0L2.5,-0.5"/>
  </g>
  <g id="resetDef">
    <use xlink:href="#rim2" fill="#404040"><set attributeName="fill" to="#808080" begin="reset.mouseover" end="reset.mouseout"/></use>
  </g>
</defs>
<script type="application/ecmascript">
var viewWidth = 896;
var viewHeight = 242;
var sectionId = 'dynsection-62';
</script>
<script type="application/ecmascript" xlink:href="svg.min.js"/>
<svg id="graph" class="graph">
<g id="viewport">
<title>GLESC::Math::MatrixAlgorithms::transpose</title>
<!-- Node1 -->
<g id="Node000001" class="node">
<title>Node1</title>
<g id="a_Node000001"><a xlink:title="Transposes a matrix.">
<polygon fill="#999999" stroke="#666666" points="888,-102 731.75,-102 731.75,-70 888,-70 888,-102"/>
<text text-anchor="start" x="739.75" y="-88.5" font-family="Helvetica,sans-Serif" font-size="10.00">GLESC::Math::MatrixAlgorithms</text>
<text text-anchor="middle" x="809.88" y="-76.5" font-family="Helvetica,sans-Serif" font-size="10.00">::transpose</text>
</a>
</g>
</g>
<!-- Node2 -->
<g id="Node000002" class="node">
<title>Node2</title>
<g id="a_Node000002"><a xlink:href="class_g_l_e_s_c_1_1_math_1_1_matrix_algorithms.html#af1fa0338a019e92e6bc2f76d521b4b6f" target="_top" xlink:title="Calculates the normal matrix given the model&#45;view matrix.">
<polygon fill="white" stroke="#666666" points="695.75,-196 539.5,-196 539.5,-164 695.75,-164 695.75,-196"/>
<text text-anchor="start" x="547.5" y="-182.5" font-family="Helvetica,sans-Serif" font-size="10.00">GLESC::Math::MatrixAlgorithms</text>
<text text-anchor="middle" x="617.62" y="-170.5" font-family="Helvetica,sans-Serif" font-size="10.00">::calculateNormalMatrix</text>
</a>
</g>
</g>
<!-- Node1&#45;&gt;Node2 -->
<g id="edge1_Node000001_Node000002" class="edge">
<title>Node1&#45;&gt;Node2</title>
<g id="a_edge1_Node000001_Node000002"><a xlink:title=" ">
<path fill="none" stroke="#63b8ff" d="M776.42,-108.61C754.4,-123.24 724.21,-141.93 695.75,-155 688.97,-158.11 681.69,-161.01 674.41,-163.64"/>
<polygon fill="#63b8ff" stroke="#63b8ff" points="778.33,-111.55 784.68,-103.06 774.43,-105.74 778.33,-111.55"/>
</a>
</g>
</g>
<!-- Node8 -->
<g id="Node000008" class="node">
<title>Node8</title>
<g id="a_Node000008"><a xlink:href="class_g_l_e_s_c_1_1_math_1_1_matrix.html#a422e6ddafe75c68bba95b03ef2219eed" target="_top" xlink:title="Transposes the matrix.">
<polygon fill="white" stroke="#666666" points="672.5,-146 562.75,-146 562.75,-114 672.5,-114 672.5,-146"/>
<text text-anchor="start" x="570.75" y="-132.5" font-family="Helvetica,sans-Serif" font-size="10.00">GLESC::Math::Matrix</text>
<text text-anchor="middle" x="617.62" y="-120.5" font-family="Helvetica,sans-Serif" font-size="10.00">::transpose</text>
</a>
</g>
</g>
<!-- Node1&#45;&gt;Node8 -->
<g id="edge7_Node000001_Node000008" class="edge">
<title>Node1&#45;&gt;Node8</title>
<g id="a_edge7_Node000001_Node000008"><a xlink:title=" ">
<path fill="none" stroke="#63b8ff" d="M726.79,-104.98C708.5,-109.22 689.55,-113.6 672.72,-117.49"/>
<polygon fill="#63b8ff" stroke="#63b8ff" points="727.33,-108.45 736.29,-102.79 725.76,-101.63 727.33,-108.45"/>
</a>
</g>
</g>
<!-- Node10 -->
<g id="Node000010" class="node">
<title>Node10</title>
<g id="a_Node000010"><a xlink:href="_matrix_algorithms_tests_8cpp.html#ab7fa5918c968267970fce0de6f888b87" target="_top" xlink:title=" ">
<polygon fill="white" stroke="#666666" points="656.38,-96 578.88,-96 578.88,-76 656.38,-76 656.38,-96"/>
<text text-anchor="middle" x="617.62" y="-82.5" font-family="Helvetica,sans-Serif" font-size="10.00">TYPED_TEST</text>
</a>
</g>
</g>
<!-- Node1&#45;&gt;Node10 -->
<g id="edge9_Node000001_Node000010" class="edge">
<title>Node1&#45;&gt;Node10</title>
<g id="a_edge9_Node000001_Node000010"><a xlink:title=" ">
<path fill="none" stroke="#63b8ff" d="M720.25,-86C697.95,-86 675.17,-86 656.84,-86"/>
<polygon fill="#63b8ff" stroke="#63b8ff" points="719.98,-89.5 729.98,-86 719.98,-82.5 719.98,-89.5"/>
</a>
</g>
</g>
<!-- Node11 -->
<g id="Node000011" class="node">
<title>Node11</title>
<g id="a_Node000011"><a xlink:href="_matrix_algorithms_tests_8cpp.html#a98ce70af4f4c4091e87a4a1b13524f10" target="_top" xlink:title=" ">
<polygon fill="white" stroke="#666666" points="656.38,-58 578.88,-58 578.88,-38 656.38,-38 656.38,-58"/>
<text text-anchor="middle" x="617.62" y="-44.5" font-family="Helvetica,sans-Serif" font-size="10.00">TYPED_TEST</text>
</a>
</g>
</g>
<!-- Node1&#45;&gt;Node11 -->
<g id="edge10_Node000001_Node000011" class="edge">
<title>Node1&#45;&gt;Node11</title>
<g id="a_edge10_Node000001_Node000011"><a xlink:title=" ">
<path fill="none" stroke="#63b8ff" d="M720.25,-68.3C697.95,-63.84 675.17,-59.29 656.84,-55.63"/>
<polygon fill="#63b8ff" stroke="#63b8ff" points="719.52,-71.72 730.01,-70.25 720.89,-64.86 719.52,-71.72"/>
</a>
</g>
</g>
<!-- Node12 -->
<g id="Node000012" class="node">
<title>Node12</title>
<g id="a_Node000012"><a xlink:href="_matrix_algorithms_tests_8cpp.html#a4c456b9dfc2e72e265e58700ab8a0d1a" target="_top" xlink:title=" ">
<polygon fill="white" stroke="#666666" points="656.38,-20 578.88,-20 578.88,0 656.38,0 656.38,-20"/>
<text text-anchor="middle" x="617.62" y="-6.5" font-family="Helvetica,sans-Serif" font-size="10.00">TYPED_TEST</text>
</a>
</g>
</g>
<!-- Node1&#45;&gt;Node12 -->
<g id="edge11_Node000001_Node000012" class="edge">
<title>Node1&#45;&gt;Node12</title>
<g id="a_edge11_Node000001_Node000012"><a xlink:title=" ">
<path fill="none" stroke="#63b8ff" d="M770.82,-64.12C749.32,-52.45 721.63,-38.57 695.75,-29 683.33,-24.41 669.38,-20.59 656.8,-17.61"/>
<polygon fill="#63b8ff" stroke="#63b8ff" points="769.07,-67.15 779.52,-68.91 772.45,-61.02 769.07,-67.15"/>
</a>
</g>
</g>
<!-- Node3 -->
<g id="Node000003" class="node">
<title>Node3</title>
<g id="a_Node000003"><a xlink:href="class_g_l_e_s_c_1_1_math_1_1_matrix.html#ab7f28dc98291b73ddc0ecd277f128649" target="_top" xlink:title="Creates a normal matrix from the given model&#45;view matrix.">
<polygon fill="white" stroke="#666666" points="503.5,-234 393.75,-234 393.75,-202 503.5,-202 503.5,-234"/>
<text text-anchor="start" x="401.75" y="-220.5" font-family="Helvetica,sans-Serif" font-size="10.00">GLESC::Math::Matrix</text>
<text text-anchor="middle" x="448.62" y="-208.5" font-family="Helvetica,sans-Serif" font-size="10.00">::makeNormalMatrix</text>
</a>
</g>
</g>
<!-- Node2&#45;&gt;Node3 -->
<g id="edge2_Node000002_Node000003" class="edge">
<title>Node2&#45;&gt;Node3</title>
<g id="a_edge2_Node000002_Node000003"><a xlink:title=" ">
<path fill="none" stroke="#63b8ff" d="M533.15,-198.99C523.21,-201.26 513.26,-203.52 503.88,-205.65"/>
<polygon fill="#63b8ff" stroke="#63b8ff" points="533.9,-202.41 542.87,-196.78 532.34,-195.59 533.9,-202.41"/>
</a>
</g>
</g>
<!-- Node7 -->
<g id="Node000007" class="node">
<title>Node7</title>
<g id="a_Node000007"><a xlink:href="_matrix_algorithms_tests_8cpp.html#ab325b7f490c714128caeb4bc7ea5cb8c" target="_top" xlink:title=" ">
<polygon fill="white" stroke="#666666" points="468.62,-184 428.62,-184 428.62,-164 468.62,-164 468.62,-184"/>
<text text-anchor="middle" x="448.62" y="-170.5" font-family="Helvetica,sans-Serif" font-size="10.00">TEST</text>
</a>
</g>
</g>
<!-- Node2&#45;&gt;Node7 -->
<g id="edge6_Node000002_Node000007" class="edge">
<title>Node2&#45;&gt;Node7</title>
<g id="a_edge6_Node000002_Node000007"><a xlink:title=" ">
<path fill="none" stroke="#63b8ff" d="M528.12,-176.82C505.73,-176.02 483.81,-175.23 468.86,-174.69"/>
<polygon fill="#63b8ff" stroke="#63b8ff" points="527.85,-180.31 537.97,-177.17 528.1,-173.32 527.85,-180.31"/>
</a>
</g>
</g>
<!-- Node4 -->
<g id="Node000004" class="node">
<title>Node4</title>
<g id="a_Node000004"><a xlink:href="class_g_l_e_s_c_1_1_render_1_1_renderer.html#a3244ebc15bf8310257ec613f62d00a33" target="_top" xlink:title="This renders the frame.">
<polygon fill="white" stroke="#666666" points="357.75,-234 227,-234 227,-202 357.75,-202 357.75,-234"/>
<text text-anchor="start" x="235" y="-220.5" font-family="Helvetica,sans-Serif" font-size="10.00">GLESC::Render::Renderer</text>
<text text-anchor="middle" x="292.38" y="-208.5" font-family="Helvetica,sans-Serif" font-size="10.00">::render</text>
</a>
</g>
</g>
<!-- Node3&#45;&gt;Node4 -->
<g id="edge3_Node000003_Node000004" class="edge">
<title>Node3&#45;&gt;Node4</title>
<g id="a_edge3_Node000003_Node000004"><a xlink:title=" ">
<path fill="none" stroke="#63b8ff" d="M382.18,-218C374.23,-218 366.11,-218 358.16,-218"/>
<polygon fill="#63b8ff" stroke="#63b8ff" points="382.16,-221.5 392.16,-218 382.16,-214.5 382.16,-221.5"/>
</a>
</g>
</g>
<!-- Node5 -->
<g id="Node000005" class="node">
<title>Node5</title>
<g id="a_Node000005"><a xlink:href="class_g_l_e_s_c_1_1_engine.html#ab0a886855ca341089947b36b9c6f6e15" target="_top" xlink:title="Processes the rendering of the game Can be called at variable intervals of time as it uses elapsed.">
<polygon fill="white" stroke="#666666" points="191,-228 73,-228 73,-208 191,-208 191,-228"/>
<text text-anchor="middle" x="132" y="-214.5" font-family="Helvetica,sans-Serif" font-size="10.00">GLESC::Engine::render</text>
</a>
</g>
</g>
<!-- Node4&#45;&gt;Node5 -->
<g id="edge4_Node000004_Node000005" class="edge">
<title>Node4&#45;&gt;Node5</title>
<g id="a_edge4_Node000004_Node000005"><a xlink:title=" ">
<path fill="none" stroke="#63b8ff" d="M215.24,-218C207.23,-218 199.18,-218 191.42,-218"/>
<polygon fill="#63b8ff" stroke="#63b8ff" points="214.99,-221.5 224.99,-218 214.99,-214.5 214.99,-221.5"/>
</a>
</g>
</g>
<!-- Node6 -->
<g id="Node000006" class="node">
<title>Node6</title>
<g id="a_Node000006"><a xlink:href="src_2engine_2main_8cpp.html#a0ddf1224851353fc92bfbff6f499fa97" target="_top" xlink:title=" ">
<polygon fill="white" stroke="#666666" points="37,-228 0,-228 0,-208 37,-208 37,-228"/>
<text text-anchor="middle" x="18.5" y="-214.5" font-family="Helvetica,sans-Serif" font-size="10.00">main</text>
</a>
</g>
</g>
<!-- Node5&#45;&gt;Node6 -->
<g id="edge5_Node000005_Node000006" class="edge">
<title>Node5&#45;&gt;Node6</title>
<g id="a_edge5_Node000005_Node000006"><a xlink:title=" ">
<path fill="none" stroke="#63b8ff" d="M61.31,-218C52.52,-218 44.22,-218 37.37,-218"/>
<polygon fill="#63b8ff" stroke="#63b8ff" points="61.12,-221.5 71.12,-218 61.12,-214.5 61.12,-221.5"/>
</a>
</g>
</g>
<!-- Node9 -->
<g id="Node000009" class="node">
<title>Node9</title>
<g id="a_Node000009"><a xlink:href="_matrix_tests_8cpp.html#add272fde2083832f8f2cee5a5457dc8e" target="_top" xlink:title=" ">
<polygon fill="white" stroke="#666666" points="487.38,-140 409.88,-140 409.88,-120 487.38,-120 487.38,-140"/>
<text text-anchor="middle" x="448.62" y="-126.5" font-family="Helvetica,sans-Serif" font-size="10.00">TYPED_TEST</text>
</a>
</g>
</g>
<!-- Node8&#45;&gt;Node9 -->
<g id="edge8_Node000008_Node000009" class="edge">
<title>Node8&#45;&gt;Node9</title>
<g id="a_edge8_Node000008_Node000009"><a xlink:title=" ">
<path fill="none" stroke="#63b8ff" d="M551.03,-130C529.57,-130 506.46,-130 487.73,-130"/>
<polygon fill="#63b8ff" stroke="#63b8ff" points="550.89,-133.5 560.89,-130 550.89,-126.5 550.89,-133.5"/>
</a>
</g>
</g>
</g>
</svg>

<g id="navigator" transform="translate(0 0)" fill="#404254">
  <rect fill="#f2f5e9" fill-opacity="0.5" stroke="#606060" stroke-width=".5" x="0" y="0" width="60" height="60"/>
  <use id="zoomplus" xlink:href="#zoomPlus" x="17" y="9" onmousedown="handleZoom(evt,'in')"/>
  <use id="zoomminus" xlink:href="#zoomMin" x="42" y="9" onmousedown="handleZoom(evt,'out')"/>
  <use id="reset" xlink:href="#resetDef" x="30" y="36" onmousedown="handleReset()"/>
   <use id="arrowup" xlink:href="#arrowUp" x="0" y="0" onmousedown="handlePan(0,-1)"/>
  <use id="arrowright" xlink:href="#arrowRight" x="0" y="0" onmousedown="handlePan(1,0)"/>
  <use id="arrowdown" xlink:href="#arrowDown" x="0" y="0" onmousedown="handlePan(0,1)"/>
  <use id="arrowleft" xlink:href="#arrowLeft" x="0" y="0" onmousedown="handlePan(-1,0)"/>
</g>
<svg viewBox="0 0 15 15" width="100%" height="30px" preserveAspectRatio="xMaxYMin meet">
 <g id="arrow_out" transform="scale(0.3 0.3)">
  <a xlink:href="class_g_l_e_s_c_1_1_math_1_1_matrix_algorithms_a132bed6acafb41906a156dae5f6f4d1f_icgraph_org.svg" target="_base">
   <rect id="button" ry="5" rx="5" y="6" x="6" height="38" width="38"
        fill="#f2f5e9" fill-opacity="0.5" stroke="#606060" stroke-width="1.0"/>
   <path id="arrow"
     d="M 11.500037,31.436501 C 11.940474,20.09759 22.043105,11.32322 32.158766,21.979434 L 37.068811,17.246167 C 37.068811,17.246167 37.088388,32 37.088388,32 L 22.160133,31.978069 C 22.160133,31.978069 26.997745,27.140456 26.997745,27.140456 C 18.528582,18.264221 13.291696,25.230495 11.500037,31.436501 z"
     style="fill:#404040;"/>
  </a>
 </g>
</svg>

<style type='text/css'>
<![CDATA[
[data-mouse-over-selected='false'] { opacity: 0.7; }
[data-mouse-over-selected='true']  { opacity: 1.0; }
]]>
</style>
<script type="application/ecmascript"><![CDATA[
document.addEventListener('DOMContentLoaded', (event) => {
  highlightEdges();
  highlightAdjacentNodes();
});
]]></script>
</svg>
