<?xml version="1.0" encoding="UTF-8" standalone="no"?>
<!DOCTYPE svg PUBLIC "-//W3C//DTD SVG 1.1//EN"
 "http://www.w3.org/Graphics/SVG/1.1/DTD/svg11.dtd">
<!-- Generated by graphviz version 11.0.0 (20240428.1522)
 -->
<!-- Title: GLESC::GAPI::OpenGLAPI::getTextureData Pages: 1 -->
<svg width="816pt" height="297pt"
 viewBox="0.00 0.00 816.25 296.79" xmlns="http://www.w3.org/2000/svg" xmlns:xlink="http://www.w3.org/1999/xlink">
<g id="graph0" class="graph" transform="scale(1 1) rotate(0) translate(4 292.79)">
<title>GLESC::GAPI::OpenGLAPI::getTextureData</title>
<!-- Node1 -->
<g id="Node000001" class="node">
<title>Node1</title>
<g id="a_Node000001"><a xlink:title=" ">
<polygon fill="#999999" stroke="#666666" points="136,-189 0,-189 0,-157 136,-157 136,-189"/>
<text text-anchor="start" x="8" y="-175.5" font-family="Helvetica,sans-Serif" font-size="10.00">GLESC::GAPI::OpenGLAPI</text>
<text text-anchor="middle" x="68" y="-163.5" font-family="Helvetica,sans-Serif" font-size="10.00">::getTextureData</text>
</a>
</g>
</g>
<!-- Node2 -->
<g id="Node000002" class="node">
<title>Node2</title>
<g id="a_Node000002"><a xlink:href="class_g_l_e_s_c_1_1_g_a_p_i_1_1_open_g_l_a_p_i.html#add338061fb9af187b42b2a20b2734777" target="_top" xlink:title=" ">
<polygon fill="white" stroke="#666666" points="308,-264 172,-264 172,-232 308,-232 308,-264"/>
<text text-anchor="start" x="180" y="-250.5" font-family="Helvetica,sans-Serif" font-size="10.00">GLESC::GAPI::OpenGLAPI</text>
<text text-anchor="middle" x="240" y="-238.5" font-family="Helvetica,sans-Serif" font-size="10.00">::bindTexture</text>
</a>
</g>
</g>
<!-- Node1&#45;&gt;Node2 -->
<g id="edge1_Node000001_Node000002" class="edge">
<title>Node1&#45;&gt;Node2</title>
<g id="a_edge1_Node000001_Node000002"><a xlink:title=" ">
<path fill="none" stroke="#63b8ff" d="M100.65,-189.33C120.85,-199.51 147.7,-212.59 172,-223 175.53,-224.51 179.19,-226.02 182.89,-227.51"/>
<polygon fill="#63b8ff" stroke="#63b8ff" points="181.36,-230.67 191.95,-231.08 183.93,-224.16 181.36,-230.67"/>
</a>
</g>
</g>
<!-- Node3 -->
<g id="Node000003" class="node">
<title>Node3</title>
<g id="a_Node000003"><a xlink:href="class_g_l_e_s_c_1_1_g_a_p_i_1_1_open_g_l_a_p_i.html#a791591ba90cb777ca1395778de95871b" target="_top" xlink:title=" ">
<polygon fill="white" stroke="#666666" points="480,-214 344,-214 344,-182 480,-182 480,-214"/>
<text text-anchor="start" x="352" y="-200.5" font-family="Helvetica,sans-Serif" font-size="10.00">GLESC::GAPI::OpenGLAPI</text>
<text text-anchor="middle" x="412" y="-188.5" font-family="Helvetica,sans-Serif" font-size="10.00">::isTexture</text>
</a>
</g>
</g>
<!-- Node1&#45;&gt;Node3 -->
<g id="edge20_Node000001_Node000003" class="edge">
<title>Node1&#45;&gt;Node3</title>
<g id="a_edge20_Node000001_Node000003"><a xlink:title=" ">
<path fill="none" stroke="#63b8ff" d="M79.58,-189.35C96.02,-213.08 130.2,-256.05 172,-273 228.01,-295.72 250.52,-291.71 308,-273 338.64,-263.03 367.77,-240.11 387.18,-222.22"/>
<polygon fill="#63b8ff" stroke="#63b8ff" points="389.45,-224.89 394.28,-215.46 384.63,-219.82 389.45,-224.89"/>
</a>
</g>
</g>
<!-- Node4 -->
<g id="Node000004" class="node">
<title>Node4</title>
<g id="a_Node000004"><a xlink:href="class_g_l_e_s_c_1_1_g_a_p_i_1_1_open_g_l_a_p_i.html#aacefa7dc3b588f4ceef95531a3b71c14" target="_top" xlink:title=" ">
<polygon fill="white" stroke="#666666" points="308,-76 172,-76 172,-44 308,-44 308,-76"/>
<text text-anchor="start" x="180" y="-62.5" font-family="Helvetica,sans-Serif" font-size="10.00">GLESC::GAPI::OpenGLAPI</text>
<text text-anchor="middle" x="240" y="-50.5" font-family="Helvetica,sans-Serif" font-size="10.00">::getTextureColorFormat</text>
</a>
</g>
</g>
<!-- Node1&#45;&gt;Node4 -->
<g id="edge3_Node000001_Node000004" class="edge">
<title>Node1&#45;&gt;Node4</title>
<g id="a_edge3_Node000001_Node000004"><a xlink:title=" ">
<path fill="none" stroke="#63b8ff" d="M86.19,-156.82C105.83,-138.9 139.49,-109.91 172,-90 176.9,-87 182.15,-84.12 187.48,-81.42"/>
<polygon fill="#63b8ff" stroke="#63b8ff" points="188.91,-84.62 196.39,-77.12 185.86,-78.32 188.91,-84.62"/>
</a>
</g>
</g>
<!-- Node11 -->
<g id="Node000011" class="node">
<title>Node11</title>
<g id="a_Node000011"><a xlink:href="class_g_l_e_s_c_1_1_g_a_p_i_1_1_open_g_l_a_p_i.html#a76a65fb1240cb2f9b4731829993238b0" target="_top" xlink:title=" ">
<polygon fill="white" stroke="#666666" points="480,-161 344,-161 344,-129 480,-129 480,-161"/>
<text text-anchor="start" x="352" y="-147.5" font-family="Helvetica,sans-Serif" font-size="10.00">GLESC::GAPI::OpenGLAPI</text>
<text text-anchor="middle" x="412" y="-135.5" font-family="Helvetica,sans-Serif" font-size="10.00">::isTextureBound</text>
</a>
</g>
</g>
<!-- Node1&#45;&gt;Node11 -->
<g id="edge21_Node000001_Node000011" class="edge">
<title>Node1&#45;&gt;Node11</title>
<g id="a_edge21_Node000001_Node000011"><a xlink:title=" ">
<path fill="none" stroke="#63b8ff" d="M94.46,-156.59C114.6,-144.64 143.91,-129.46 172,-123 226.51,-110.47 289.57,-117.13 337.23,-126.3"/>
<polygon fill="#63b8ff" stroke="#63b8ff" points="336.4,-129.7 346.89,-128.24 337.78,-122.84 336.4,-129.7"/>
</a>
</g>
</g>
<!-- Node13 -->
<g id="Node000013" class="node">
<title>Node13</title>
<g id="a_Node000013"><a xlink:href="class_g_l_e_s_c_1_1_g_a_p_i_1_1_open_g_l_a_p_i.html#a89bf65df371d987ebf93fd56a9fab721" target="_top" xlink:title=" ">
<polygon fill="white" stroke="#666666" points="308,-214 172,-214 172,-182 308,-182 308,-214"/>
<text text-anchor="start" x="180" y="-200.5" font-family="Helvetica,sans-Serif" font-size="10.00">GLESC::GAPI::OpenGLAPI</text>
<text text-anchor="middle" x="240" y="-188.5" font-family="Helvetica,sans-Serif" font-size="10.00">::getTextureHeight</text>
</a>
</g>
</g>
<!-- Node1&#45;&gt;Node13 -->
<g id="edge14_Node000001_Node000013" class="edge">
<title>Node1&#45;&gt;Node13</title>
<g id="a_edge14_Node000001_Node000013"><a xlink:title=" ">
<path fill="none" stroke="#63b8ff" d="M136.19,-182.88C144.14,-184.05 152.3,-185.25 160.39,-186.44"/>
<polygon fill="#63b8ff" stroke="#63b8ff" points="159.84,-189.9 170.25,-187.89 160.86,-182.97 159.84,-189.9"/>
</a>
</g>
</g>
<!-- Node14 -->
<g id="Node000014" class="node">
<title>Node14</title>
<g id="a_Node000014"><a xlink:href="class_g_l_e_s_c_1_1_g_a_p_i_1_1_open_g_l_a_p_i.html#aa00fea9ea279f8b0e10500b5d1bf436a" target="_top" xlink:title=" ">
<polygon fill="white" stroke="#666666" points="308,-164 172,-164 172,-132 308,-132 308,-164"/>
<text text-anchor="start" x="180" y="-150.5" font-family="Helvetica,sans-Serif" font-size="10.00">GLESC::GAPI::OpenGLAPI</text>
<text text-anchor="middle" x="240" y="-138.5" font-family="Helvetica,sans-Serif" font-size="10.00">::getTextureWidth</text>
</a>
</g>
</g>
<!-- Node1&#45;&gt;Node14 -->
<g id="edge17_Node000001_Node000014" class="edge">
<title>Node1&#45;&gt;Node14</title>
<g id="a_edge17_Node000001_Node000014"><a xlink:title=" ">
<path fill="none" stroke="#63b8ff" d="M136.19,-163.12C144.14,-161.95 152.3,-160.75 160.39,-159.56"/>
<polygon fill="#63b8ff" stroke="#63b8ff" points="160.86,-163.03 170.25,-158.11 159.84,-156.1 160.86,-163.03"/>
</a>
</g>
</g>
<!-- Node2&#45;&gt;Node3 -->
<g id="edge2_Node000002_Node000003" class="edge">
<title>Node2&#45;&gt;Node3</title>
<g id="a_edge2_Node000002_Node000003"><a xlink:title=" ">
<path fill="none" stroke="#63b8ff" d="M296.66,-231.63C311.85,-227.16 328.46,-222.28 344.19,-217.65"/>
<polygon fill="#63b8ff" stroke="#63b8ff" points="344.86,-221.1 353.47,-214.92 342.89,-214.39 344.86,-221.1"/>
</a>
</g>
</g>
<!-- Node4&#45;&gt;Node3 -->
<g id="edge11_Node000004_Node000003" class="edge">
<title>Node4&#45;&gt;Node3</title>
<g id="a_edge11_Node000004_Node000003"><a xlink:title=" ">
<path fill="none" stroke="#63b8ff" d="M259.98,-76.35C273.85,-88.64 292.8,-106.18 308,-123 325.64,-142.52 323.16,-153.94 344,-170 346.9,-172.23 350,-174.32 353.22,-176.26"/>
<polygon fill="#63b8ff" stroke="#63b8ff" points="351.37,-179.24 361.82,-180.95 354.71,-173.09 351.37,-179.24"/>
</a>
</g>
</g>
<!-- Node5 -->
<g id="Node000005" class="node">
<title>Node5</title>
<g id="a_Node000005"><a xlink:href="class_g_l_e_s_c_1_1_logger.html#a9b12ce53593be134b7d7dea62607d22d" target="_top" xlink:title=" ">
<polygon fill="white" stroke="#666666" points="463.88,-108 360.12,-108 360.12,-88 463.88,-88 463.88,-108"/>
<text text-anchor="middle" x="412" y="-94.5" font-family="Helvetica,sans-Serif" font-size="10.00">GLESC::Logger::get</text>
</a>
</g>
</g>
<!-- Node4&#45;&gt;Node5 -->
<g id="edge4_Node000004_Node000005" class="edge">
<title>Node4&#45;&gt;Node5</title>
<g id="a_edge4_Node000004_Node000005"><a xlink:title=" ">
<path fill="none" stroke="#63b8ff" d="M308.19,-75.02C323.13,-78.36 338.84,-81.87 353.35,-85.11"/>
<polygon fill="#63b8ff" stroke="#63b8ff" points="352.19,-88.44 362.71,-87.21 353.72,-81.61 352.19,-88.44"/>
</a>
</g>
</g>
<!-- Node6 -->
<g id="Node000006" class="node">
<title>Node6</title>
<g id="a_Node000006"><a xlink:href="class_g_l_e_s_c_1_1_logger.html#a5fa42012f212a31fe7eb06c5ba93caba" target="_top" xlink:title="Display basic information Background – Black Text – White.">
<polygon fill="white" stroke="#666666" points="464.62,-70 359.38,-70 359.38,-50 464.62,-50 464.62,-70"/>
<text text-anchor="middle" x="412" y="-56.5" font-family="Helvetica,sans-Serif" font-size="10.00">GLESC::Logger::info</text>
</a>
</g>
</g>
<!-- Node4&#45;&gt;Node6 -->
<g id="edge5_Node000004_Node000006" class="edge">
<title>Node4&#45;&gt;Node6</title>
<g id="a_edge5_Node000004_Node000006"><a xlink:title=" ">
<path fill="none" stroke="#63b8ff" d="M308.19,-60C321.25,-60 334.9,-60 347.83,-60"/>
<polygon fill="#63b8ff" stroke="#63b8ff" points="347.46,-63.5 357.46,-60 347.46,-56.5 347.46,-63.5"/>
</a>
</g>
</g>
<!-- Node4&#45;&gt;Node11 -->
<g id="edge12_Node000004_Node000011" class="edge">
<title>Node4&#45;&gt;Node11</title>
<g id="a_edge12_Node000004_Node000011"><a xlink:title=" ">
<path fill="none" stroke="#63b8ff" d="M281.41,-76.35C290.36,-80.44 299.65,-85.08 308,-90 325.23,-100.15 326.64,-107.07 344,-117 348.12,-119.36 352.49,-121.63 356.93,-123.79"/>
<polygon fill="#63b8ff" stroke="#63b8ff" points="355.43,-126.96 365.98,-127.97 358.37,-120.6 355.43,-126.96"/>
</a>
</g>
</g>
<!-- Node12 -->
<g id="Node000012" class="node">
<title>Node12</title>
<g id="a_Node000012"><a xlink:href="namespace_g_l_e_s_c_1_1_g_a_p_i_1_1_enums.html#a2741454f6baed1d79502ce55557a7926" target="_top" xlink:title="Converts the type count to string.">
<polygon fill="white" stroke="#666666" points="469.5,-32 354.5,-32 354.5,0 469.5,0 469.5,-32"/>
<text text-anchor="start" x="362.5" y="-18.5" font-family="Helvetica,sans-Serif" font-size="10.00">GLESC::GAPI::Enums</text>
<text text-anchor="middle" x="412" y="-6.5" font-family="Helvetica,sans-Serif" font-size="10.00">::toString</text>
</a>
</g>
</g>
<!-- Node4&#45;&gt;Node12 -->
<g id="edge13_Node000004_Node000012" class="edge">
<title>Node4&#45;&gt;Node12</title>
<g id="a_edge13_Node000004_Node000012"><a xlink:title=" ">
<path fill="none" stroke="#63b8ff" d="M304.3,-43.62C316.93,-40.35 330.25,-36.9 343.03,-33.59"/>
<polygon fill="#63b8ff" stroke="#63b8ff" points="343.82,-37 352.63,-31.11 342.07,-30.23 343.82,-37"/>
</a>
</g>
</g>
<!-- Node7 -->
<g id="Node000007" class="node">
<title>Node7</title>
<g id="a_Node000007"><a xlink:href="class_g_l_e_s_c_1_1_logger.html#adcc4730c087b2df0b97cccc15557e432" target="_top" xlink:title=" ">
<polygon fill="white" stroke="#666666" points="653.5,-120 516,-120 516,-88 653.5,-88 653.5,-120"/>
<text text-anchor="start" x="524" y="-106.5" font-family="Helvetica,sans-Serif" font-size="10.00">GLESC::Logger::executeOn</text>
<text text-anchor="middle" x="584.75" y="-94.5" font-family="Helvetica,sans-Serif" font-size="10.00">AllInputs</text>
</a>
</g>
</g>
<!-- Node6&#45;&gt;Node7 -->
<g id="edge6_Node000006_Node000007" class="edge">
<title>Node6&#45;&gt;Node7</title>
<g id="a_edge6_Node000006_Node000007"><a xlink:title=" ">
<path fill="none" stroke="#63b8ff" d="M453.47,-70.43C470.04,-74.7 489.76,-79.78 508.79,-84.68"/>
<polygon fill="#63b8ff" stroke="#63b8ff" points="507.86,-88.06 518.41,-87.16 509.6,-81.28 507.86,-88.06"/>
</a>
</g>
</g>
<!-- Node9 -->
<g id="Node000009" class="node">
<title>Node9</title>
<g id="a_Node000009"><a xlink:href="_debug_entity_data_h_u_d_8cpp.html#a9acf295be457442cac6bccc0bf75112c" target="_top" xlink:title=" ">
<polygon fill="white" stroke="#666666" points="765.12,-73 732.62,-73 732.62,-53 765.12,-53 765.12,-73"/>
<text text-anchor="middle" x="748.88" y="-59.5" font-family="Helvetica,sans-Serif" font-size="10.00">text</text>
</a>
</g>
</g>
<!-- Node6&#45;&gt;Node9 -->
<g id="edge10_Node000006_Node000009" class="edge">
<title>Node6&#45;&gt;Node9</title>
<g id="a_edge10_Node000006_Node000009"><a xlink:title=" ">
<path fill="none" stroke="#63b8ff" d="M464.96,-60.47C537.2,-61.11 665.37,-62.26 720.94,-62.76"/>
<polygon fill="#63b8ff" stroke="#63b8ff" points="720.7,-66.26 730.73,-62.85 720.76,-59.26 720.7,-66.26"/>
</a>
</g>
</g>
<!-- Node10 -->
<g id="Node000010" class="node">
<title>Node10</title>
<g id="a_Node000010"><a xlink:href="class_i_logger.html#af378b37a56de2bad5c4ce2d0f7572f9c" target="_top" xlink:title="Display basic information Background – Black Text – White.">
<polygon fill="white" stroke="#666666" points="619,-32 550.5,-32 550.5,-12 619,-12 619,-32"/>
<text text-anchor="middle" x="584.75" y="-18.5" font-family="Helvetica,sans-Serif" font-size="10.00">ILogger::info</text>
</a>
</g>
</g>
<!-- Node6&#45;&gt;Node10 -->
<g id="edge9_Node000006_Node000010" class="edge">
<title>Node6&#45;&gt;Node10</title>
<g id="a_edge9_Node000006_Node000010"><a xlink:title=" ">
<path fill="none" stroke="#63b8ff" d="M460.11,-49.52C484.74,-44.03 514.72,-37.36 538.99,-31.96"/>
<polygon fill="#63b8ff" stroke="#63b8ff" points="539.57,-35.42 548.58,-29.83 538.05,-28.58 539.57,-35.42"/>
</a>
</g>
</g>
<!-- Node8 -->
<g id="Node000008" class="node">
<title>Node8</title>
<g id="a_Node000008"><a xlink:href="class_concurrent_queue.html#a7d61d602747cee9adf97076d2781023c" target="_top" xlink:title=" ">
<polygon fill="white" stroke="#666666" points="808.25,-114 689.5,-114 689.5,-94 808.25,-94 808.25,-114"/>
<text text-anchor="middle" x="748.88" y="-100.5" font-family="Helvetica,sans-Serif" font-size="10.00">ConcurrentQueue::push</text>
</a>
</g>
</g>
<!-- Node7&#45;&gt;Node8 -->
<g id="edge7_Node000007_Node000008" class="edge">
<title>Node7&#45;&gt;Node8</title>
<g id="a_edge7_Node000007_Node000008"><a xlink:title=" ">
<path fill="none" stroke="#63b8ff" d="M653.57,-104C661.59,-104 669.79,-104 677.84,-104"/>
<polygon fill="#63b8ff" stroke="#63b8ff" points="677.57,-107.5 687.57,-104 677.57,-100.5 677.57,-107.5"/>
</a>
</g>
</g>
<!-- Node7&#45;&gt;Node9 -->
<g id="edge8_Node000007_Node000009" class="edge">
<title>Node7&#45;&gt;Node9</title>
<g id="a_edge8_Node000007_Node000009"><a xlink:title=" ">
<path fill="none" stroke="#63b8ff" d="M650.76,-87.56C675.3,-81.35 701.89,-74.63 721.03,-69.79"/>
<polygon fill="#63b8ff" stroke="#63b8ff" points="721.86,-73.19 730.7,-67.34 720.15,-66.4 721.86,-73.19"/>
</a>
</g>
</g>
<!-- Node13&#45;&gt;Node3 -->
<g id="edge15_Node000013_Node000003" class="edge">
<title>Node13&#45;&gt;Node3</title>
<g id="a_edge15_Node000013_Node000003"><a xlink:title=" ">
<path fill="none" stroke="#63b8ff" d="M308.19,-198C316.14,-198 324.3,-198 332.39,-198"/>
<polygon fill="#63b8ff" stroke="#63b8ff" points="332.23,-201.5 342.23,-198 332.23,-194.5 332.23,-201.5"/>
</a>
</g>
</g>
<!-- Node13&#45;&gt;Node11 -->
<g id="edge16_Node000013_Node000011" class="edge">
<title>Node13&#45;&gt;Node11</title>
<g id="a_edge16_Node000013_Node000011"><a xlink:title=" ">
<path fill="none" stroke="#63b8ff" d="M293.86,-181.52C310.81,-176.24 329.76,-170.33 347.39,-164.83"/>
<polygon fill="#63b8ff" stroke="#63b8ff" points="348.23,-168.24 356.73,-161.92 346.14,-161.55 348.23,-168.24"/>
</a>
</g>
</g>
<!-- Node14&#45;&gt;Node3 -->
<g id="edge18_Node000014_Node000003" class="edge">
<title>Node14&#45;&gt;Node3</title>
<g id="a_edge18_Node000014_Node000003"><a xlink:title=" ">
<path fill="none" stroke="#63b8ff" d="M296.66,-164.37C311.85,-168.84 328.46,-173.72 344.19,-178.35"/>
<polygon fill="#63b8ff" stroke="#63b8ff" points="342.89,-181.61 353.47,-181.08 344.86,-174.9 342.89,-181.61"/>
</a>
</g>
</g>
<!-- Node14&#45;&gt;Node11 -->
<g id="edge19_Node000014_Node000011" class="edge">
<title>Node14&#45;&gt;Node11</title>
<g id="a_edge19_Node000014_Node000011"><a xlink:title=" ">
<path fill="none" stroke="#63b8ff" d="M308.19,-146.81C316.14,-146.67 324.3,-146.53 332.39,-146.39"/>
<polygon fill="#63b8ff" stroke="#63b8ff" points="332.29,-149.89 342.23,-146.21 332.17,-142.89 332.29,-149.89"/>
</a>
</g>
</g>
</g>
</svg>
