<?xml version="1.0" encoding="UTF-8" standalone="no"?>
<!DOCTYPE svg PUBLIC "-//W3C//DTD SVG 1.1//EN"
 "http://www.w3.org/Graphics/SVG/1.1/DTD/svg11.dtd">
<!-- Generated by graphviz version 11.0.0 (20240428.1522)
 -->
<!-- Title: GLESC::Physics::CollisionInformation::getCollisionDepthForAxis Pages: 1 -->
<svg width="732pt" height="52pt"
 viewBox="0.00 0.00 732.00 52.00" xmlns="http://www.w3.org/2000/svg" xmlns:xlink="http://www.w3.org/1999/xlink">
<g id="graph0" class="graph" transform="scale(1 1) rotate(0) translate(4 48)">
<title>GLESC::Physics::CollisionInformation::getCollisionDepthForAxis</title>
<!-- Node1 -->
<g id="Node000001" class="node">
<title>Node1</title>
<g id="a_Node000001"><a xlink:title=" ">
<polygon fill="#999999" stroke="#666666" points="724,-44 579,-44 579,0 724,0 724,-44"/>
<text text-anchor="start" x="587" y="-30.5" font-family="Helvetica,sans-Serif" font-size="10.00">GLESC::Physics::Collision</text>
<text text-anchor="start" x="587" y="-18.5" font-family="Helvetica,sans-Serif" font-size="10.00">Information::getCollisionDepth</text>
<text text-anchor="middle" x="651.5" y="-6.5" font-family="Helvetica,sans-Serif" font-size="10.00">ForAxis</text>
</a>
</g>
</g>
<!-- Node2 -->
<g id="Node000002" class="node">
<title>Node2</title>
<g id="a_Node000002"><a xlink:href="namespace_g_l_e_s_c_1_1_physics.html#a1621e2a03fff6c4be0436391e2bc6ef5" target="_top" xlink:title=" ">
<polygon fill="white" stroke="#666666" points="543,-32 394.25,-32 394.25,-12 543,-12 543,-32"/>
<text text-anchor="middle" x="468.62" y="-18.5" font-family="Helvetica,sans-Serif" font-size="10.00">GLESC::Physics::getAxisFree</text>
</a>
</g>
</g>
<!-- Node1&#45;&gt;Node2 -->
<g id="edge1_Node000001_Node000002" class="edge">
<title>Node1&#45;&gt;Node2</title>
<g id="a_edge1_Node000001_Node000002"><a xlink:title=" ">
<path fill="none" stroke="#63b8ff" d="M567.46,-22C559.42,-22 551.3,-22 543.36,-22"/>
<polygon fill="#63b8ff" stroke="#63b8ff" points="567.24,-25.5 577.24,-22 567.24,-18.5 567.24,-25.5"/>
</a>
</g>
</g>
<!-- Node3 -->
<g id="Node000003" class="node">
<title>Node3</title>
<g id="a_Node000003"><a xlink:href="class_g_l_e_s_c_1_1_physics_1_1_physics_manager.html#a989f5035ba226da4a55a192cb42b8675" target="_top" xlink:title=" ">
<polygon fill="white" stroke="#666666" points="358.25,-38 189.25,-38 189.25,-6 358.25,-6 358.25,-38"/>
<text text-anchor="start" x="197.25" y="-24.5" font-family="Helvetica,sans-Serif" font-size="10.00">GLESC::Physics::PhysicsManager</text>
<text text-anchor="middle" x="273.75" y="-12.5" font-family="Helvetica,sans-Serif" font-size="10.00">::handleCollisions</text>
</a>
</g>
</g>
<!-- Node2&#45;&gt;Node3 -->
<g id="edge2_Node000002_Node000003" class="edge">
<title>Node2&#45;&gt;Node3</title>
<g id="a_edge2_Node000002_Node000003"><a xlink:title=" ">
<path fill="none" stroke="#63b8ff" d="M382.62,-22C374.59,-22 366.46,-22 358.44,-22"/>
<polygon fill="#63b8ff" stroke="#63b8ff" points="382.37,-25.5 392.37,-22 382.37,-18.5 382.37,-25.5"/>
</a>
</g>
</g>
<!-- Node4 -->
<g id="Node000004" class="node">
<title>Node4</title>
<g id="a_Node000004"><a xlink:href="class_g_l_e_s_c_1_1_e_c_s_1_1_physics_collision_system.html#a01af297180e01be8c9d22d955bfb11b3" target="_top" xlink:title="Updates the system.">
<polygon fill="white" stroke="#666666" points="153.25,-38 0,-38 0,-6 153.25,-6 153.25,-38"/>
<text text-anchor="start" x="8" y="-24.5" font-family="Helvetica,sans-Serif" font-size="10.00">GLESC::ECS::PhysicsCollision</text>
<text text-anchor="middle" x="76.62" y="-12.5" font-family="Helvetica,sans-Serif" font-size="10.00">System::update</text>
</a>
</g>
</g>
<!-- Node3&#45;&gt;Node4 -->
<g id="edge3_Node000003_Node000004" class="edge">
<title>Node3&#45;&gt;Node4</title>
<g id="a_edge3_Node000003_Node000004"><a xlink:title=" ">
<path fill="none" stroke="#63b8ff" d="M177.59,-22C169.59,-22 161.57,-22 153.74,-22"/>
<polygon fill="#63b8ff" stroke="#63b8ff" points="177.35,-25.5 187.35,-22 177.35,-18.5 177.35,-25.5"/>
</a>
</g>
</g>
</g>
</svg>
