<?xml version="1.0" encoding="UTF-8" standalone="no"?>
<!DOCTYPE svg PUBLIC "-//W3C//DTD SVG 1.1//EN"
 "http://www.w3.org/Graphics/SVG/1.1/DTD/svg11.dtd">
<!-- Generated by graphviz version 11.0.0 (20240428.1522)
 -->
<!-- Title: GLESC::Math::Vector::dot Pages: 1 -->
<svg width="627pt" height="440pt"
 viewBox="0.00 0.00 627.00 440.00" xmlns="http://www.w3.org/2000/svg" xmlns:xlink="http://www.w3.org/1999/xlink">
<g id="graph0" class="graph" transform="scale(1 1) rotate(0) translate(4 436)">
<title>GLESC::Math::Vector::dot</title>
<!-- Node1 -->
<g id="Node000001" class="node">
<title>Node1</title>
<g id="a_Node000001"><a xlink:title="Returns the dot product of two vectors.">
<polygon fill="#999999" stroke="#666666" points="619,-236 488.25,-236 488.25,-216 619,-216 619,-236"/>
<text text-anchor="middle" x="553.62" y="-222.5" font-family="Helvetica,sans-Serif" font-size="10.00">GLESC::Math::Vector::dot</text>
</a>
</g>
</g>
<!-- Node2 -->
<g id="Node000002" class="node">
<title>Node2</title>
<g id="a_Node000002"><a xlink:href="class_g_l_e_s_c_1_1_math_1_1_plane.html#ad9d57dbea0508152f81cc191fac9a076" target="_top" xlink:title="Calculate the distance from the origin to the plane defined by a point and a line.">
<polygon fill="white" stroke="#666666" points="447.75,-432 303.5,-432 303.5,-388 447.75,-388 447.75,-432"/>
<text text-anchor="start" x="311.5" y="-418.5" font-family="Helvetica,sans-Serif" font-size="10.00">GLESC::Math::Plane</text>
<text text-anchor="start" x="311.5" y="-406.5" font-family="Helvetica,sans-Serif" font-size="10.00">::calculateDistanceFromPoint</text>
<text text-anchor="middle" x="375.62" y="-394.5" font-family="Helvetica,sans-Serif" font-size="10.00">AndLine</text>
</a>
</g>
</g>
<!-- Node1&#45;&gt;Node2 -->
<g id="edge1_Node000001_Node000002" class="edge">
<title>Node1&#45;&gt;Node2</title>
<g id="a_edge1_Node000001_Node000002"><a xlink:title=" ">
<path fill="none" stroke="#63b8ff" d="M543.85,-246.96C529.29,-279.4 497.22,-341.92 452.25,-379 448.42,-382.16 444.22,-385.03 439.83,-387.64"/>
<polygon fill="#63b8ff" stroke="#63b8ff" points="547.03,-248.42 547.81,-237.85 540.61,-245.63 547.03,-248.42"/>
</a>
</g>
</g>
<!-- Node4 -->
<g id="Node000004" class="node">
<title>Node4</title>
<g id="a_Node000004"><a xlink:href="class_g_l_e_s_c_1_1_math_1_1_plane.html#a130561905558d078afeacfa347c59361" target="_top" xlink:title="Calculate the distance from the origin to the plane defined by a point on the plane and the plane&#39;s n...">
<polygon fill="white" stroke="#666666" points="447.75,-370 303.5,-370 303.5,-326 447.75,-326 447.75,-370"/>
<text text-anchor="start" x="311.5" y="-356.5" font-family="Helvetica,sans-Serif" font-size="10.00">GLESC::Math::Plane</text>
<text text-anchor="start" x="311.5" y="-344.5" font-family="Helvetica,sans-Serif" font-size="10.00">::calculateDistanceFromPoint</text>
<text text-anchor="middle" x="375.62" y="-332.5" font-family="Helvetica,sans-Serif" font-size="10.00">AndNormal</text>
</a>
</g>
</g>
<!-- Node1&#45;&gt;Node4 -->
<g id="edge3_Node000001_Node000004" class="edge">
<title>Node1&#45;&gt;Node4</title>
<g id="a_edge3_Node000001_Node000004"><a xlink:title=" ">
<path fill="none" stroke="#63b8ff" d="M535.96,-244.56C517.19,-264.57 485.03,-296.32 452.25,-317 447.45,-320.03 442.3,-322.87 437.04,-325.5"/>
<polygon fill="#63b8ff" stroke="#63b8ff" points="538.36,-247.11 542.56,-237.39 533.21,-242.37 538.36,-247.11"/>
</a>
</g>
</g>
<!-- Node6 -->
<g id="Node000006" class="node">
<title>Node6</title>
<g id="a_Node000006"><a xlink:href="class_g_l_e_s_c_1_1_math_1_1_plane.html#ae96d9fee2db6f87847e5b65756d575f0" target="_top" xlink:title="Calculate the distance from the origin to the plane defined by three distinct points.">
<polygon fill="white" stroke="#666666" points="450.38,-308 300.88,-308 300.88,-276 450.38,-276 450.38,-308"/>
<text text-anchor="start" x="308.88" y="-294.5" font-family="Helvetica,sans-Serif" font-size="10.00">GLESC::Math::Plane</text>
<text text-anchor="middle" x="375.62" y="-282.5" font-family="Helvetica,sans-Serif" font-size="10.00">::calculateDistanceFromPoints</text>
</a>
</g>
</g>
<!-- Node1&#45;&gt;Node6 -->
<g id="edge5_Node000001_Node000006" class="edge">
<title>Node1&#45;&gt;Node6</title>
<g id="a_edge5_Node000001_Node000006"><a xlink:title=" ">
<path fill="none" stroke="#63b8ff" d="M514.29,-240.38C486.66,-250.74 449.32,-264.74 420.5,-275.55"/>
<polygon fill="#63b8ff" stroke="#63b8ff" points="515.19,-243.78 523.32,-236.99 512.73,-237.22 515.19,-243.78"/>
</a>
</g>
</g>
<!-- Node8 -->
<g id="Node000008" class="node">
<title>Node8</title>
<g id="a_Node000008"><a xlink:href="class_g_l_e_s_c_1_1_math_1_1_plane.html#a11df2e06eb0ee48a7bb905050744bd45" target="_top" xlink:title="Calculate the distance from the plane to a point.">
<polygon fill="white" stroke="#666666" points="429.38,-220 321.88,-220 321.88,-188 429.38,-188 429.38,-220"/>
<text text-anchor="start" x="329.88" y="-206.5" font-family="Helvetica,sans-Serif" font-size="10.00">GLESC::Math::Plane</text>
<text text-anchor="middle" x="375.62" y="-194.5" font-family="Helvetica,sans-Serif" font-size="10.00">::distanceToPoint</text>
</a>
</g>
</g>
<!-- Node1&#45;&gt;Node8 -->
<g id="edge7_Node000001_Node000008" class="edge">
<title>Node1&#45;&gt;Node8</title>
<g id="a_edge7_Node000001_Node000008"><a xlink:title=" ">
<path fill="none" stroke="#63b8ff" d="M476.67,-216.51C460.81,-214.52 444.42,-212.47 429.62,-210.62"/>
<polygon fill="#63b8ff" stroke="#63b8ff" points="476.23,-219.98 486.59,-217.75 477.1,-213.03 476.23,-219.98"/>
</a>
</g>
</g>
<!-- Node9 -->
<g id="Node000009" class="node">
<title>Node9</title>
<g id="a_Node000009"><a xlink:href="class_g_l_e_s_c_1_1_math_1_1_plane.html#adf3a9613b3c7820418e363fa2d2e7449" target="_top" xlink:title="Checks if the plane intersects with a given line.">
<polygon fill="white" stroke="#666666" points="260,-270 152.5,-270 152.5,-238 260,-238 260,-270"/>
<text text-anchor="start" x="160.5" y="-256.5" font-family="Helvetica,sans-Serif" font-size="10.00">GLESC::Math::Plane</text>
<text text-anchor="middle" x="206.25" y="-244.5" font-family="Helvetica,sans-Serif" font-size="10.00">::intersects</text>
</a>
</g>
</g>
<!-- Node1&#45;&gt;Node9 -->
<g id="edge15_Node000001_Node000009" class="edge">
<title>Node1&#45;&gt;Node9</title>
<g id="a_edge15_Node000001_Node000009"><a xlink:title=" ">
<path fill="none" stroke="#63b8ff" d="M476.99,-232.13C411.48,-237.44 318.38,-244.99 260.46,-249.69"/>
<polygon fill="#63b8ff" stroke="#63b8ff" points="476.87,-235.65 486.56,-231.36 476.31,-228.68 476.87,-235.65"/>
</a>
</g>
</g>
<!-- Node15 -->
<g id="Node000015" class="node">
<title>Node15</title>
<g id="a_Node000015"><a xlink:href="class_g_l_e_s_c_1_1_math_1_1_plane.html#aec2b6ec275b696fac6c899f782e32186" target="_top" xlink:title="Checks if the plane intersects with a given line and sets the intersection point if it exists....">
<polygon fill="white" stroke="#666666" points="110.5,-126 3,-126 3,-94 110.5,-94 110.5,-126"/>
<text text-anchor="start" x="11" y="-112.5" font-family="Helvetica,sans-Serif" font-size="10.00">GLESC::Math::Plane</text>
<text text-anchor="middle" x="56.75" y="-100.5" font-family="Helvetica,sans-Serif" font-size="10.00">::intersects</text>
</a>
</g>
</g>
<!-- Node1&#45;&gt;Node15 -->
<g id="edge17_Node000001_Node000015" class="edge">
<title>Node1&#45;&gt;Node15</title>
<g id="a_edge17_Node000001_Node000015"><a xlink:title=" ">
<path fill="none" stroke="#63b8ff" d="M522.92,-210.36C503.25,-200.45 476.67,-187.86 452.25,-179 370.47,-149.32 348.66,-144.17 263,-129 211.73,-119.92 152.44,-115.02 110.8,-112.49"/>
<polygon fill="#63b8ff" stroke="#63b8ff" points="521.23,-213.43 531.73,-214.87 524.42,-207.2 521.23,-213.43"/>
</a>
</g>
</g>
<!-- Node16 -->
<g id="Node000016" class="node">
<title>Node16</title>
<g id="a_Node000016"><a xlink:href="class_g_l_e_s_c_1_1_math_1_1_polyhedron_face.html#acda5c36a9dc475202153436369828d53" target="_top" xlink:title="Checks if the face intersects with a given line.">
<polygon fill="white" stroke="#666666" points="452.25,-82 299,-82 299,-50 452.25,-50 452.25,-82"/>
<text text-anchor="start" x="307" y="-68.5" font-family="Helvetica,sans-Serif" font-size="10.00">GLESC::Math::PolyhedronFace</text>
<text text-anchor="middle" x="375.62" y="-56.5" font-family="Helvetica,sans-Serif" font-size="10.00">::intersects</text>
</a>
</g>
</g>
<!-- Node1&#45;&gt;Node16 -->
<g id="edge16_Node000001_Node000016" class="edge">
<title>Node1&#45;&gt;Node16</title>
<g id="a_edge16_Node000001_Node000016"><a xlink:title=" ">
<path fill="none" stroke="#63b8ff" d="M541.73,-205.81C525.6,-177.64 492.87,-126.59 452.25,-96 445.25,-90.73 437.21,-86.26 429.04,-82.5"/>
<polygon fill="#63b8ff" stroke="#63b8ff" points="538.59,-207.36 546.52,-214.39 544.7,-203.95 538.59,-207.36"/>
</a>
</g>
</g>
<!-- Node17 -->
<g id="Node000017" class="node">
<title>Node17</title>
<g id="a_Node000017"><a xlink:href="class_g_l_e_s_c_1_1_math_1_1_plane.html#aad93f6caba75f34db450be42617f0e33" target="_top" xlink:title="Compare two planes for equality.">
<polygon fill="white" stroke="#666666" points="429.38,-32 321.88,-32 321.88,0 429.38,0 429.38,-32"/>
<text text-anchor="start" x="329.88" y="-18.5" font-family="Helvetica,sans-Serif" font-size="10.00">GLESC::Math::Plane</text>
<text text-anchor="middle" x="375.62" y="-6.5" font-family="Helvetica,sans-Serif" font-size="10.00">::operator==</text>
</a>
</g>
</g>
<!-- Node1&#45;&gt;Node17 -->
<g id="edge18_Node000001_Node000017" class="edge">
<title>Node1&#45;&gt;Node17</title>
<g id="a_edge18_Node000001_Node000017"><a xlink:title=" ">
<path fill="none" stroke="#63b8ff" d="M546.91,-205.11C535.4,-166.97 505.87,-85.84 452.25,-41 445.67,-35.5 437.85,-31.2 429.76,-27.84"/>
<polygon fill="#63b8ff" stroke="#63b8ff" points="543.46,-205.8 549.6,-214.43 550.19,-203.86 543.46,-205.8"/>
</a>
</g>
</g>
<!-- Node3 -->
<g id="Node000003" class="node">
<title>Node3</title>
<g id="a_Node000003"><a xlink:href="class_g_l_e_s_c_1_1_math_1_1_plane.html#a468fe79f91e1aa6ebe498e6ab3ce7674" target="_top" xlink:title="Construct a new Plane object from a point and a line.">
<polygon fill="white" stroke="#666666" points="260,-426 152.5,-426 152.5,-394 260,-394 260,-426"/>
<text text-anchor="start" x="160.5" y="-412.5" font-family="Helvetica,sans-Serif" font-size="10.00">GLESC::Math::Plane</text>
<text text-anchor="middle" x="206.25" y="-400.5" font-family="Helvetica,sans-Serif" font-size="10.00">::Plane</text>
</a>
</g>
</g>
<!-- Node2&#45;&gt;Node3 -->
<g id="edge2_Node000002_Node000003" class="edge">
<title>Node2&#45;&gt;Node3</title>
<g id="a_edge2_Node000002_Node000003"><a xlink:title=" ">
<path fill="none" stroke="#63b8ff" d="M291.96,-410C281.17,-410 270.36,-410 260.25,-410"/>
<polygon fill="#63b8ff" stroke="#63b8ff" points="291.64,-413.5 301.64,-410 291.64,-406.5 291.64,-413.5"/>
</a>
</g>
</g>
<!-- Node5 -->
<g id="Node000005" class="node">
<title>Node5</title>
<g id="a_Node000005"><a xlink:href="class_g_l_e_s_c_1_1_math_1_1_plane.html#affc081045f970df73ea1a7e5bca2841f" target="_top" xlink:title="Construct a new Plane object from a point and a normal vector.">
<polygon fill="white" stroke="#666666" points="260,-370 152.5,-370 152.5,-338 260,-338 260,-370"/>
<text text-anchor="start" x="160.5" y="-356.5" font-family="Helvetica,sans-Serif" font-size="10.00">GLESC::Math::Plane</text>
<text text-anchor="middle" x="206.25" y="-344.5" font-family="Helvetica,sans-Serif" font-size="10.00">::Plane</text>
</a>
</g>
</g>
<!-- Node4&#45;&gt;Node5 -->
<g id="edge4_Node000004_Node000005" class="edge">
<title>Node4&#45;&gt;Node5</title>
<g id="a_edge4_Node000004_Node000005"><a xlink:title=" ">
<path fill="none" stroke="#63b8ff" d="M291.96,-350.96C281.17,-351.35 270.36,-351.74 260.25,-352.1"/>
<polygon fill="#63b8ff" stroke="#63b8ff" points="291.78,-354.47 301.64,-350.62 291.53,-347.48 291.78,-354.47"/>
</a>
</g>
</g>
<!-- Node7 -->
<g id="Node000007" class="node">
<title>Node7</title>
<g id="a_Node000007"><a xlink:href="class_g_l_e_s_c_1_1_math_1_1_plane.html#a503abb5ac4797527f02056f1223a0166" target="_top" xlink:title="Construct a new Plane object from three distinct points.">
<polygon fill="white" stroke="#666666" points="260,-320 152.5,-320 152.5,-288 260,-288 260,-320"/>
<text text-anchor="start" x="160.5" y="-306.5" font-family="Helvetica,sans-Serif" font-size="10.00">GLESC::Math::Plane</text>
<text text-anchor="middle" x="206.25" y="-294.5" font-family="Helvetica,sans-Serif" font-size="10.00">::Plane</text>
</a>
</g>
</g>
<!-- Node6&#45;&gt;Node7 -->
<g id="edge6_Node000006_Node000007" class="edge">
<title>Node6&#45;&gt;Node7</title>
<g id="a_edge6_Node000006_Node000007"><a xlink:title=" ">
<path fill="none" stroke="#63b8ff" d="M289.47,-298.11C279.48,-298.82 269.53,-299.54 260.17,-300.21"/>
<polygon fill="#63b8ff" stroke="#63b8ff" points="289.49,-301.61 299.22,-297.41 288.99,-294.63 289.49,-301.61"/>
</a>
</g>
</g>
<!-- Node8&#45;&gt;Node9 -->
<g id="edge8_Node000008_Node000009" class="edge">
<title>Node8&#45;&gt;Node9</title>
<g id="a_edge8_Node000008_Node000009"><a xlink:title=" ">
<path fill="none" stroke="#63b8ff" d="M310.91,-223.03C294.26,-228.01 276.48,-233.32 260.44,-238.11"/>
<polygon fill="#63b8ff" stroke="#63b8ff" points="311.64,-226.47 320.22,-220.25 309.63,-219.76 311.64,-226.47"/>
</a>
</g>
</g>
<!-- Node10 -->
<g id="Node000010" class="node">
<title>Node10</title>
<g id="a_Node000010"><a xlink:href="class_g_l_e_s_c_1_1_math_1_1_sphere.html#ab7f7086acf1a0ec5c04f8010beaa8924" target="_top" xlink:title="Checks if the sphere intersects with the given plane.">
<polygon fill="white" stroke="#666666" points="263,-220 149.5,-220 149.5,-188 263,-188 263,-220"/>
<text text-anchor="start" x="157.5" y="-206.5" font-family="Helvetica,sans-Serif" font-size="10.00">GLESC::Math::Sphere</text>
<text text-anchor="middle" x="206.25" y="-194.5" font-family="Helvetica,sans-Serif" font-size="10.00">::intersects</text>
</a>
</g>
</g>
<!-- Node8&#45;&gt;Node10 -->
<g id="edge9_Node000008_Node000010" class="edge">
<title>Node8&#45;&gt;Node10</title>
<g id="a_edge9_Node000008_Node000010"><a xlink:title=" ">
<path fill="none" stroke="#63b8ff" d="M310.54,-204C294.99,-204 278.48,-204 263.33,-204"/>
<polygon fill="#63b8ff" stroke="#63b8ff" points="310.15,-207.5 320.15,-204 310.15,-200.5 310.15,-207.5"/>
</a>
</g>
</g>
<!-- Node14 -->
<g id="Node000014" class="node">
<title>Node14</title>
<g id="a_Node000014"><a xlink:href="class_g_l_e_s_c_1_1_math_1_1_plane.html#abc9e61a59f06bf63d05ebcb690ce264d" target="_top" xlink:title=" ">
<polygon fill="white" stroke="#666666" points="260,-170 152.5,-170 152.5,-138 260,-138 260,-170"/>
<text text-anchor="start" x="160.5" y="-156.5" font-family="Helvetica,sans-Serif" font-size="10.00">GLESC::Math::Plane</text>
<text text-anchor="middle" x="206.25" y="-144.5" font-family="Helvetica,sans-Serif" font-size="10.00">::intersects</text>
</a>
</g>
</g>
<!-- Node8&#45;&gt;Node14 -->
<g id="edge13_Node000008_Node000014" class="edge">
<title>Node8&#45;&gt;Node14</title>
<g id="a_edge13_Node000008_Node000014"><a xlink:title=" ">
<path fill="none" stroke="#63b8ff" d="M310.91,-184.97C294.26,-179.99 276.48,-174.68 260.44,-169.89"/>
<polygon fill="#63b8ff" stroke="#63b8ff" points="309.63,-188.24 320.22,-187.75 311.64,-181.53 309.63,-188.24"/>
</a>
</g>
</g>
<!-- Node11 -->
<g id="Node000011" class="node">
<title>Node11</title>
<g id="a_Node000011"><a xlink:href="class_g_l_e_s_c_1_1_math_1_1_sphere.html#af57e36ca525f974ffbf5bb25f041a3b0" target="_top" xlink:title="Checks if the figure intersects with the given line.">
<polygon fill="white" stroke="#666666" points="113.5,-276 0,-276 0,-244 113.5,-244 113.5,-276"/>
<text text-anchor="start" x="8" y="-262.5" font-family="Helvetica,sans-Serif" font-size="10.00">GLESC::Math::Sphere</text>
<text text-anchor="middle" x="56.75" y="-250.5" font-family="Helvetica,sans-Serif" font-size="10.00">::intersects</text>
</a>
</g>
</g>
<!-- Node10&#45;&gt;Node11 -->
<g id="edge10_Node000010_Node000011" class="edge">
<title>Node10&#45;&gt;Node11</title>
<g id="a_edge10_Node000010_Node000011"><a xlink:title=" ">
<path fill="none" stroke="#63b8ff" d="M151.21,-224.52C134.73,-230.78 116.83,-237.57 101.15,-243.52"/>
<polygon fill="#63b8ff" stroke="#63b8ff" points="152.27,-227.86 160.38,-221.04 149.79,-221.31 152.27,-227.86"/>
</a>
</g>
</g>
<!-- Node12 -->
<g id="Node000012" class="node">
<title>Node12</title>
<g id="a_Node000012"><a xlink:href="class_g_l_e_s_c_1_1_math_1_1_sphere.html#a91c69748595dddb4eb732d65d0180625" target="_top" xlink:title="Checks if the sphere intersects with the given figure.">
<polygon fill="white" stroke="#666666" points="113.5,-226 0,-226 0,-194 113.5,-194 113.5,-226"/>
<text text-anchor="start" x="8" y="-212.5" font-family="Helvetica,sans-Serif" font-size="10.00">GLESC::Math::Sphere</text>
<text text-anchor="middle" x="56.75" y="-200.5" font-family="Helvetica,sans-Serif" font-size="10.00">::intersects</text>
</a>
</g>
</g>
<!-- Node10&#45;&gt;Node12 -->
<g id="edge11_Node000010_Node000012" class="edge">
<title>Node10&#45;&gt;Node12</title>
<g id="a_edge11_Node000010_Node000012"><a xlink:title=" ">
<path fill="none" stroke="#63b8ff" d="M137.81,-206.74C129.77,-207.07 121.63,-207.4 113.78,-207.72"/>
<polygon fill="#63b8ff" stroke="#63b8ff" points="137.7,-210.25 147.55,-206.35 137.42,-203.26 137.7,-210.25"/>
</a>
</g>
</g>
<!-- Node13 -->
<g id="Node000013" class="node">
<title>Node13</title>
<g id="a_Node000013"><a xlink:href="class_g_l_e_s_c_1_1_math_1_1_sphere.html#afae71303211a202967e7389fa613ca86" target="_top" xlink:title="Checks if the sphere intersects with the given face.">
<polygon fill="white" stroke="#666666" points="113.5,-176 0,-176 0,-144 113.5,-144 113.5,-176"/>
<text text-anchor="start" x="8" y="-162.5" font-family="Helvetica,sans-Serif" font-size="10.00">GLESC::Math::Sphere</text>
<text text-anchor="middle" x="56.75" y="-150.5" font-family="Helvetica,sans-Serif" font-size="10.00">::intersects</text>
</a>
</g>
</g>
<!-- Node10&#45;&gt;Node13 -->
<g id="edge12_Node000010_Node000013" class="edge">
<title>Node10&#45;&gt;Node13</title>
<g id="a_edge12_Node000010_Node000013"><a xlink:title=" ">
<path fill="none" stroke="#63b8ff" d="M139.52,-184.39C130.57,-181.72 121.46,-179 112.72,-176.4"/>
<polygon fill="#63b8ff" stroke="#63b8ff" points="138.29,-187.68 148.88,-187.18 140.29,-180.97 138.29,-187.68"/>
</a>
</g>
</g>
<!-- Node14&#45;&gt;Node15 -->
<g id="edge14_Node000014_Node000015" class="edge">
<title>Node14&#45;&gt;Node15</title>
<g id="a_edge14_Node000014_Node000015"><a xlink:title=" ">
<path fill="none" stroke="#63b8ff" d="M141.43,-134.96C131.18,-131.91 120.67,-128.77 110.71,-125.8"/>
<polygon fill="#63b8ff" stroke="#63b8ff" points="140.38,-138.3 150.97,-137.81 142.38,-131.59 140.38,-138.3"/>
</a>
</g>
</g>
</g>
</svg>
