<?xml version="1.0" encoding="UTF-8" standalone="no"?>
<!DOCTYPE svg PUBLIC "-//W3C//DTD SVG 1.1//EN"
 "http://www.w3.org/Graphics/SVG/1.1/DTD/svg11.dtd">
<!-- Generated by graphviz version 11.0.0 (20240428.1522)
 -->
<!-- Title: GLESC::Render::Mesh::hash Pages: 1 -->
<svg width="975pt" height="883pt"
 viewBox="0.00 0.00 974.75 883.00" xmlns="http://www.w3.org/2000/svg" xmlns:xlink="http://www.w3.org/1999/xlink">
<g id="graph0" class="graph" transform="scale(1 1) rotate(0) translate(4 879)">
<title>GLESC::Render::Mesh::hash</title>
<!-- Node1 -->
<g id="Node000001" class="node">
<title>Node1</title>
<g id="a_Node000001"><a xlink:title="Calculates lazily the hash of the mesh. Only recalculates if the mesh has been changed.">
<polygon fill="#999999" stroke="#666666" points="966.75,-407 851,-407 851,-375 966.75,-375 966.75,-407"/>
<text text-anchor="start" x="859" y="-393.5" font-family="Helvetica,sans-Serif" font-size="10.00">GLESC::Render::Mesh</text>
<text text-anchor="middle" x="908.88" y="-381.5" font-family="Helvetica,sans-Serif" font-size="10.00">::hash</text>
</a>
</g>
</g>
<!-- Node2 -->
<g id="Node000002" class="node">
<title>Node2</title>
<g id="a_Node000002"><a xlink:href="class_g_l_e_s_c_1_1_render_1_1_mesh.html#a2ad7899a1de4ee74a10854158b601a2c" target="_top" xlink:title="Adds a quad to the mesh, quads are defined by 4 vertices.">
<polygon fill="white" stroke="#666666" points="608.88,-766 493.12,-766 493.12,-734 608.88,-734 608.88,-766"/>
<text text-anchor="start" x="501.12" y="-752.5" font-family="Helvetica,sans-Serif" font-size="10.00">GLESC::Render::Mesh</text>
<text text-anchor="middle" x="551" y="-740.5" font-family="Helvetica,sans-Serif" font-size="10.00">::addQuad</text>
</a>
</g>
</g>
<!-- Node1&#45;&gt;Node2 -->
<g id="edge1_Node000001_Node000002" class="edge">
<title>Node1&#45;&gt;Node2</title>
<g id="a_edge1_Node000001_Node000002"><a xlink:title=" ">
<path fill="none" stroke="#63b8ff" d="M904.48,-418.19C894.72,-491.53 864.14,-690.6 815,-731 757.71,-778.1 667.61,-773.2 609.17,-763.25"/>
<polygon fill="#63b8ff" stroke="#63b8ff" points="907.9,-419.03 905.72,-408.66 900.96,-418.13 907.9,-419.03"/>
</a>
</g>
</g>
<!-- Node9 -->
<g id="Node000009" class="node">
<title>Node9</title>
<g id="a_Node000009"><a xlink:href="class_g_l_e_s_c_1_1_render_1_1_mesh.html#aae4b61c752ff29970ff6bb6a2b08abb2" target="_top" xlink:title="Adds a quad to the mesh, quads are defined by 4 vertices.">
<polygon fill="white" stroke="#666666" points="417.75,-625 302,-625 302,-593 417.75,-593 417.75,-625"/>
<text text-anchor="start" x="310" y="-611.5" font-family="Helvetica,sans-Serif" font-size="10.00">GLESC::Render::Mesh</text>
<text text-anchor="middle" x="359.88" y="-599.5" font-family="Helvetica,sans-Serif" font-size="10.00">::addQuad</text>
</a>
</g>
</g>
<!-- Node1&#45;&gt;Node9 -->
<g id="edge10_Node000001_Node000009" class="edge">
<title>Node1&#45;&gt;Node9</title>
<g id="a_edge10_Node000001_Node000009"><a xlink:title=" ">
<path fill="none" stroke="#63b8ff" d="M905.24,-418.58C899.03,-466.18 878.83,-562.72 815,-605 751.49,-647.07 525.08,-627.9 417.91,-615.98"/>
<polygon fill="#63b8ff" stroke="#63b8ff" points="908.69,-419.17 906.38,-408.83 901.74,-418.36 908.69,-419.17"/>
</a>
</g>
</g>
<!-- Node10 -->
<g id="Node000010" class="node">
<title>Node10</title>
<g id="a_Node000010"><a xlink:href="class_g_l_e_s_c_1_1_render_1_1_mesh.html#aaae30a265886c96c91daa8e59f67b3ea" target="_top" xlink:title="Adds a tris to the mesh, tris are defined by 3 vertices.">
<polygon fill="white" stroke="#666666" points="417.75,-575 302,-575 302,-543 417.75,-543 417.75,-575"/>
<text text-anchor="start" x="310" y="-561.5" font-family="Helvetica,sans-Serif" font-size="10.00">GLESC::Render::Mesh</text>
<text text-anchor="middle" x="359.88" y="-549.5" font-family="Helvetica,sans-Serif" font-size="10.00">::addTris</text>
</a>
</g>
</g>
<!-- Node1&#45;&gt;Node10 -->
<g id="edge11_Node000001_Node000010" class="edge">
<title>Node1&#45;&gt;Node10</title>
<g id="a_edge11_Node000001_Node000010"><a xlink:title=" ">
<path fill="none" stroke="#63b8ff" d="M884.99,-415.42C867.51,-432.46 841.92,-454.2 815,-466 673.14,-528.18 620.06,-477.67 470.25,-517 445.46,-523.51 418.58,-533.78 397.67,-542.54"/>
<polygon fill="#63b8ff" stroke="#63b8ff" points="887.24,-418.12 891.82,-408.56 882.28,-413.18 887.24,-418.12"/>
</a>
</g>
</g>
<!-- Node11 -->
<g id="Node000011" class="node">
<title>Node11</title>
<g id="a_Node000011"><a xlink:href="class_g_l_e_s_c_1_1_render_1_1_mesh.html#ad2308e9137f51614b5d46416bc01deef" target="_top" xlink:title="Adds a tris to the mesh, tris are defined by 3 vertices.">
<polygon fill="white" stroke="#666666" points="608.88,-684 493.12,-684 493.12,-652 608.88,-652 608.88,-684"/>
<text text-anchor="start" x="501.12" y="-670.5" font-family="Helvetica,sans-Serif" font-size="10.00">GLESC::Render::Mesh</text>
<text text-anchor="middle" x="551" y="-658.5" font-family="Helvetica,sans-Serif" font-size="10.00">::addTris</text>
</a>
</g>
</g>
<!-- Node1&#45;&gt;Node11 -->
<g id="edge12_Node000001_Node000011" class="edge">
<title>Node1&#45;&gt;Node11</title>
<g id="a_edge12_Node000001_Node000011"><a xlink:title=" ">
<path fill="none" stroke="#63b8ff" d="M906.44,-418.61C902.11,-470.82 884.73,-583.62 815,-638 756.48,-683.64 667.12,-683.64 609.13,-677.41"/>
<polygon fill="#63b8ff" stroke="#63b8ff" points="909.92,-419.02 907.14,-408.8 902.94,-418.52 909.92,-419.02"/>
</a>
</g>
</g>
<!-- Node12 -->
<g id="Node000012" class="node">
<title>Node12</title>
<g id="a_Node000012"><a xlink:href="class_g_l_e_s_c_1_1_render_1_1_mesh.html#aaeba541999c321e65620b52780298e14" target="_top" xlink:title="Attaches a mesh to the current mesh.">
<polygon fill="white" stroke="#666666" points="417.75,-505 302,-505 302,-473 417.75,-473 417.75,-505"/>
<text text-anchor="start" x="310" y="-491.5" font-family="Helvetica,sans-Serif" font-size="10.00">GLESC::Render::Mesh</text>
<text text-anchor="middle" x="359.88" y="-479.5" font-family="Helvetica,sans-Serif" font-size="10.00">::attatchMesh</text>
</a>
</g>
</g>
<!-- Node1&#45;&gt;Node12 -->
<g id="edge27_Node000001_Node000012" class="edge">
<title>Node1&#45;&gt;Node12</title>
<g id="a_edge27_Node000001_Node000012"><a xlink:title=" ">
<path fill="none" stroke="#63b8ff" d="M874.31,-413.18C857.25,-423.37 835.77,-434.58 815,-441 742.28,-463.46 523.2,-479.23 418.2,-485.71"/>
<polygon fill="#63b8ff" stroke="#63b8ff" points="875.83,-416.36 882.52,-408.14 872.16,-410.39 875.83,-416.36"/>
</a>
</g>
</g>
<!-- Node14 -->
<g id="Node000014" class="node">
<title>Node14</title>
<g id="a_Node000014"><a xlink:href="class_g_l_e_s_c_1_1_render_1_1_mesh.html#adcfe9744b0857c236aa625b7bf43adb5" target="_top" xlink:title="Adds a list of indices to the mesh.">
<polygon fill="white" stroke="#666666" points="799.25,-432 683.5,-432 683.5,-400 799.25,-400 799.25,-432"/>
<text text-anchor="start" x="691.5" y="-418.5" font-family="Helvetica,sans-Serif" font-size="10.00">GLESC::Render::Mesh</text>
<text text-anchor="middle" x="741.38" y="-406.5" font-family="Helvetica,sans-Serif" font-size="10.00">::addTris</text>
</a>
</g>
</g>
<!-- Node1&#45;&gt;Node14 -->
<g id="edge20_Node000001_Node000014" class="edge">
<title>Node1&#45;&gt;Node14</title>
<g id="a_edge20_Node000001_Node000014"><a xlink:title=" ">
<path fill="none" stroke="#63b8ff" d="M839.87,-401.27C826.53,-403.29 812.66,-405.38 799.72,-407.34"/>
<polygon fill="#63b8ff" stroke="#63b8ff" points="840.06,-404.78 849.42,-399.83 839.01,-397.86 840.06,-404.78"/>
</a>
</g>
</g>
<!-- Node15 -->
<g id="Node000015" class="node">
<title>Node15</title>
<g id="a_Node000015"><a xlink:href="class_g_l_e_s_c_1_1_render_1_1_mesh.html#a7d4ee0ef7799514b465c2e4f1e6806dc" target="_top" xlink:title="Adds a vertex to the mesh.">
<polygon fill="white" stroke="#666666" points="799.25,-596 683.5,-596 683.5,-564 799.25,-564 799.25,-596"/>
<text text-anchor="start" x="691.5" y="-582.5" font-family="Helvetica,sans-Serif" font-size="10.00">GLESC::Render::Mesh</text>
<text text-anchor="middle" x="741.38" y="-570.5" font-family="Helvetica,sans-Serif" font-size="10.00">::addVertex</text>
</a>
</g>
</g>
<!-- Node1&#45;&gt;Node15 -->
<g id="edge21_Node000001_Node000015" class="edge">
<title>Node1&#45;&gt;Node15</title>
<g id="a_edge21_Node000001_Node000015"><a xlink:title=" ">
<path fill="none" stroke="#63b8ff" d="M898.37,-418.06C884.86,-452.93 857,-513.39 815,-550 808.83,-555.38 801.56,-559.88 794.05,-563.63"/>
<polygon fill="#63b8ff" stroke="#63b8ff" points="901.64,-419.3 901.87,-408.71 895.09,-416.85 901.64,-419.3"/>
</a>
</g>
</g>
<!-- Node16 -->
<g id="Node000016" class="node">
<title>Node16</title>
<g id="a_Node000016"><a xlink:href="class_g_l_e_s_c_1_1_render_1_1_mesh.html#a999ad935f2a18cd839270934a65e39fb" target="_top" xlink:title="Adds a list of vertices to the mesh.">
<polygon fill="white" stroke="#666666" points="608.88,-558 493.12,-558 493.12,-526 608.88,-526 608.88,-558"/>
<text text-anchor="start" x="501.12" y="-544.5" font-family="Helvetica,sans-Serif" font-size="10.00">GLESC::Render::Mesh</text>
<text text-anchor="middle" x="551" y="-532.5" font-family="Helvetica,sans-Serif" font-size="10.00">::addVertices</text>
</a>
</g>
</g>
<!-- Node1&#45;&gt;Node16 -->
<g id="edge26_Node000001_Node000016" class="edge">
<title>Node1&#45;&gt;Node16</title>
<g id="a_edge26_Node000001_Node000016"><a xlink:title=" ">
<path fill="none" stroke="#63b8ff" d="M895.65,-417.42C880.89,-446 853.22,-490.38 815,-512 751.4,-547.98 665.35,-550.84 609.27,-547.84"/>
<polygon fill="#63b8ff" stroke="#63b8ff" points="898.68,-419.19 899.99,-408.67 892.41,-416.07 898.68,-419.19"/>
</a>
</g>
</g>
<!-- Node17 -->
<g id="Node000017" class="node">
<title>Node17</title>
<g id="a_Node000017"><a xlink:href="class_g_l_e_s_c_1_1_render_1_1_mesh.html#a558dc6a8524805e237a86604b5b4454c" target="_top" xlink:title="Helper function to calculate the hash of the mesh.">
<polygon fill="white" stroke="#666666" points="799.25,-382 683.5,-382 683.5,-350 799.25,-350 799.25,-382"/>
<text text-anchor="start" x="691.5" y="-368.5" font-family="Helvetica,sans-Serif" font-size="10.00">GLESC::Render::Mesh</text>
<text text-anchor="middle" x="741.38" y="-356.5" font-family="Helvetica,sans-Serif" font-size="10.00">::calculateHash</text>
</a>
</g>
</g>
<!-- Node1&#45;&gt;Node17 -->
<g id="edge28_Node000001_Node000017" class="edge">
<title>Node1&#45;&gt;Node17</title>
<g id="a_edge28_Node000001_Node000017"><a xlink:title=" ">
<path fill="none" stroke="#63b8ff" d="M839.87,-374.07C826.53,-371.88 812.66,-369.85 799.72,-368.2"/>
<polygon fill="#63b8ff" stroke="#63b8ff" points="838.98,-377.47 849.43,-375.69 840.15,-370.57 838.98,-377.47"/>
</a>
</g>
</g>
<!-- Node18 -->
<g id="Node000018" class="node">
<title>Node18</title>
<g id="a_Node000018"><a xlink:href="class_g_l_e_s_c_1_1_render_1_1_mesh.html#a78f09fa1a41f6e3ec496aae31c671e92" target="_top" xlink:title="Helper function to automatically calculate the normal of a face with 3 points.">
<polygon fill="white" stroke="#666666" points="799.25,-722 683.5,-722 683.5,-690 799.25,-690 799.25,-722"/>
<text text-anchor="start" x="691.5" y="-708.5" font-family="Helvetica,sans-Serif" font-size="10.00">GLESC::Render::Mesh</text>
<text text-anchor="middle" x="741.38" y="-696.5" font-family="Helvetica,sans-Serif" font-size="10.00">::calculateNormal</text>
</a>
</g>
</g>
<!-- Node1&#45;&gt;Node18 -->
<g id="edge30_Node000001_Node000018" class="edge">
<title>Node1&#45;&gt;Node18</title>
<g id="a_edge30_Node000001_Node000018"><a xlink:title=" ">
<path fill="none" stroke="#63b8ff" d="M906.36,-418.55C901.87,-474.25 884.2,-601.28 815,-676 809.99,-681.4 803.87,-685.86 797.32,-689.54"/>
<polygon fill="#63b8ff" stroke="#63b8ff" points="909.84,-418.92 907.06,-408.7 902.86,-418.43 909.84,-418.92"/>
</a>
</g>
</g>
<!-- Node19 -->
<g id="Node000019" class="node">
<title>Node19</title>
<g id="a_Node000019"><a xlink:href="class_g_l_e_s_c_1_1_render_1_1_mesh.html#a8782a2a59ff7d90495631db68ab52b78" target="_top" xlink:title="Get the updated debugging values of the component.">
<polygon fill="white" stroke="#666666" points="815,-332 667.75,-332 667.75,-300 815,-300 815,-332"/>
<text text-anchor="start" x="675.75" y="-318.5" font-family="Helvetica,sans-Serif" font-size="10.00">GLESC::Render::Mesh</text>
<text text-anchor="middle" x="741.38" y="-306.5" font-family="Helvetica,sans-Serif" font-size="10.00">::getUpdatedDebuggingValues</text>
</a>
</g>
</g>
<!-- Node1&#45;&gt;Node19 -->
<g id="edge33_Node000001_Node000019" class="edge">
<title>Node1&#45;&gt;Node19</title>
<g id="a_edge33_Node000001_Node000019"><a xlink:title=" ">
<path fill="none" stroke="#63b8ff" d="M870.52,-369.09C853.84,-359.79 833.75,-349.21 815,-341 808.16,-338 800.84,-335.12 793.57,-332.45"/>
<polygon fill="#63b8ff" stroke="#63b8ff" points="868.68,-372.07 879.1,-373.95 872.12,-365.98 868.68,-372.07"/>
</a>
</g>
</g>
<!-- Node21 -->
<g id="Node000021" class="node">
<title>Node21</title>
<g id="a_Node000021"><a xlink:href="class_g_l_e_s_c_1_1_render_1_1_mesh.html#a92e183ded9109ba52ae62c8b9e4fc344" target="_top" xlink:title=" ">
<polygon fill="white" stroke="#666666" points="799.25,-282 683.5,-282 683.5,-250 799.25,-250 799.25,-282"/>
<text text-anchor="start" x="691.5" y="-268.5" font-family="Helvetica,sans-Serif" font-size="10.00">GLESC::Render::Mesh</text>
<text text-anchor="middle" x="741.38" y="-256.5" font-family="Helvetica,sans-Serif" font-size="10.00">::operator=</text>
</a>
</g>
</g>
<!-- Node1&#45;&gt;Node21 -->
<g id="edge35_Node000001_Node000021" class="edge">
<title>Node1&#45;&gt;Node21</title>
<g id="a_edge35_Node000001_Node000021"><a xlink:title=" ">
<path fill="none" stroke="#63b8ff" d="M890.02,-365.58C873.05,-343.12 845.62,-310.93 815,-291 810.08,-287.8 804.71,-284.96 799.18,-282.45"/>
<polygon fill="#63b8ff" stroke="#63b8ff" points="887.19,-367.65 895.94,-373.63 892.83,-363.5 887.19,-367.65"/>
</a>
</g>
</g>
<!-- Node22 -->
<g id="Node000022" class="node">
<title>Node22</title>
<g id="a_Node000022"><a xlink:href="class_g_l_e_s_c_1_1_render_1_1_mesh.html#ac005dd2b4e0fb4a60ecabaa764275a1f" target="_top" xlink:title=" ">
<polygon fill="white" stroke="#666666" points="799.25,-232 683.5,-232 683.5,-200 799.25,-200 799.25,-232"/>
<text text-anchor="start" x="691.5" y="-218.5" font-family="Helvetica,sans-Serif" font-size="10.00">GLESC::Render::Mesh</text>
<text text-anchor="middle" x="741.38" y="-206.5" font-family="Helvetica,sans-Serif" font-size="10.00">::operator=</text>
</a>
</g>
</g>
<!-- Node1&#45;&gt;Node22 -->
<g id="edge36_Node000001_Node000022" class="edge">
<title>Node1&#45;&gt;Node22</title>
<g id="a_edge36_Node000001_Node000022"><a xlink:title=" ">
<path fill="none" stroke="#63b8ff" d="M898.07,-364.58C884.39,-331.21 856.5,-274.15 815,-241 810.31,-237.26 805.03,-234.05 799.5,-231.32"/>
<polygon fill="#63b8ff" stroke="#63b8ff" points="894.67,-365.5 901.6,-373.51 901.18,-362.93 894.67,-365.5"/>
</a>
</g>
</g>
<!-- Node23 -->
<g id="Node000023" class="node">
<title>Node23</title>
<g id="a_Node000023"><a xlink:href="class_g_l_e_s_c_1_1_render_1_1_mesh.html#a28fc39c1d686a05f613f88bec0a0e73a" target="_top" xlink:title="To check if a mesh is equal to another mesh we iterate over the vertices and indices and compare them...">
<polygon fill="white" stroke="#666666" points="799.25,-182 683.5,-182 683.5,-150 799.25,-150 799.25,-182"/>
<text text-anchor="start" x="691.5" y="-168.5" font-family="Helvetica,sans-Serif" font-size="10.00">GLESC::Render::Mesh</text>
<text text-anchor="middle" x="741.38" y="-156.5" font-family="Helvetica,sans-Serif" font-size="10.00">::operator==</text>
</a>
</g>
</g>
<!-- Node1&#45;&gt;Node23 -->
<g id="edge37_Node000001_Node000023" class="edge">
<title>Node1&#45;&gt;Node23</title>
<g id="a_edge37_Node000001_Node000023"><a xlink:title=" ">
<path fill="none" stroke="#63b8ff" d="M902.35,-363.49C892.35,-320.67 867.25,-238.12 815,-191 810.44,-186.89 805.18,-183.45 799.61,-180.58"/>
<polygon fill="#63b8ff" stroke="#63b8ff" points="898.92,-364.21 904.5,-373.21 905.76,-362.69 898.92,-364.21"/>
</a>
</g>
</g>
<!-- Node24 -->
<g id="Node000024" class="node">
<title>Node24</title>
<g id="a_Node000024"><a xlink:href="class_g_l_e_s_c_1_1_render_1_1_mesh.html#a2552a4db82ec639bd2bfecdc15175563" target="_top" xlink:title="This method creates GPU buffers and sends the data to the GPU.">
<polygon fill="white" stroke="#666666" points="799.25,-132 683.5,-132 683.5,-100 799.25,-100 799.25,-132"/>
<text text-anchor="start" x="691.5" y="-118.5" font-family="Helvetica,sans-Serif" font-size="10.00">GLESC::Render::Mesh</text>
<text text-anchor="middle" x="741.38" y="-106.5" font-family="Helvetica,sans-Serif" font-size="10.00">::sendToGpuBuffers</text>
</a>
</g>
</g>
<!-- Node1&#45;&gt;Node24 -->
<g id="edge38_Node000001_Node000024" class="edge">
<title>Node1&#45;&gt;Node24</title>
<g id="a_edge38_Node000001_Node000024"><a xlink:title=" ">
<path fill="none" stroke="#63b8ff" d="M905.26,-363.34C898.98,-312.32 878.51,-203 815,-141 810.52,-136.62 805.23,-133.01 799.59,-130.03"/>
<polygon fill="#63b8ff" stroke="#63b8ff" points="901.78,-363.66 906.37,-373.2 908.73,-362.87 901.78,-363.66"/>
</a>
</g>
</g>
<!-- Node28 -->
<g id="Node000028" class="node">
<title>Node28</title>
<g id="a_Node000028"><a xlink:href="class_g_l_e_s_c_1_1_render_1_1_mesh.html#ae768a6f8628d729b84633c619698bb4d" target="_top" xlink:title=" ">
<polygon fill="white" stroke="#666666" points="799.25,-82 683.5,-82 683.5,-50 799.25,-50 799.25,-82"/>
<text text-anchor="start" x="691.5" y="-68.5" font-family="Helvetica,sans-Serif" font-size="10.00">GLESC::Render::Mesh</text>
<text text-anchor="middle" x="741.38" y="-56.5" font-family="Helvetica,sans-Serif" font-size="10.00">::setRenderType</text>
</a>
</g>
</g>
<!-- Node1&#45;&gt;Node28 -->
<g id="edge42_Node000001_Node000028" class="edge">
<title>Node1&#45;&gt;Node28</title>
<g id="a_edge42_Node000001_Node000028"><a xlink:title=" ">
<path fill="none" stroke="#63b8ff" d="M907.3,-363.65C904.59,-305.48 890.1,-168.49 815,-91 810.55,-86.4 805.21,-82.65 799.48,-79.59"/>
<polygon fill="#63b8ff" stroke="#63b8ff" points="903.79,-363.44 907.66,-373.3 910.78,-363.18 903.79,-363.44"/>
</a>
</g>
</g>
<!-- Node29 -->
<g id="Node000029" class="node">
<title>Node29</title>
<g id="a_Node000029"><a xlink:href="class_g_l_e_s_c_1_1_render_1_1_mesh.html#a406b972618bca627b68121ff911b5a59" target="_top" xlink:title="This converts the mesh to a string.">
<polygon fill="white" stroke="#666666" points="799.25,-32 683.5,-32 683.5,0 799.25,0 799.25,-32"/>
<text text-anchor="start" x="691.5" y="-18.5" font-family="Helvetica,sans-Serif" font-size="10.00">GLESC::Render::Mesh</text>
<text text-anchor="middle" x="741.38" y="-6.5" font-family="Helvetica,sans-Serif" font-size="10.00">::toString</text>
</a>
</g>
</g>
<!-- Node1&#45;&gt;Node29 -->
<g id="edge43_Node000001_Node000029" class="edge">
<title>Node1&#45;&gt;Node29</title>
<g id="a_edge43_Node000001_Node000029"><a xlink:title=" ">
<path fill="none" stroke="#63b8ff" d="M908.77,-363.24C909.32,-298.11 901.49,-133.97 815,-41 810.64,-36.31 805.36,-32.51 799.66,-29.41"/>
<polygon fill="#63b8ff" stroke="#63b8ff" points="905.27,-362.99 908.6,-373.04 912.27,-363.11 905.27,-362.99"/>
</a>
</g>
</g>
<!-- Node2&#45;&gt;Node2 -->
<g id="edge2_Node000002_Node000002" class="edge">
<title>Node2&#45;&gt;Node2</title>
<g id="a_edge2_Node000002_Node000002"><a xlink:title=" ">
<path fill="none" stroke="#63b8ff" d="M582.73,-777.71C577.44,-781.48 566.86,-784 551,-784 522,-784 510.67,-775.58 517.01,-766.44"/>
<polygon fill="#63b8ff" stroke="#63b8ff" points="586.15,-778.42 584.69,-767.93 579.29,-777.04 586.15,-778.42"/>
</a>
</g>
</g>
<!-- Node3 -->
<g id="Node000003" class="node">
<title>Node3</title>
<g id="a_Node000003"><a xlink:href="class_g_l_e_s_c_1_1_render_1_1_mesh_factory.html#a871c80a56dc8888b526df44b1ac49dca" target="_top" xlink:title="Creates a cuboid mesh given a width, height, depth and a color.">
<polygon fill="white" stroke="#666666" points="434.25,-825 285.5,-825 285.5,-793 434.25,-793 434.25,-825"/>
<text text-anchor="start" x="293.5" y="-811.5" font-family="Helvetica,sans-Serif" font-size="10.00">GLESC::Render::MeshFactory</text>
<text text-anchor="middle" x="359.88" y="-799.5" font-family="Helvetica,sans-Serif" font-size="10.00">::cuboid</text>
</a>
</g>
</g>
<!-- Node2&#45;&gt;Node3 -->
<g id="edge3_Node000002_Node000003" class="edge">
<title>Node2&#45;&gt;Node3</title>
<g id="a_edge3_Node000002_Node000003"><a xlink:title=" ">
<path fill="none" stroke="#63b8ff" d="M486.33,-769.86C462.69,-777.24 436.16,-785.51 413.6,-792.55"/>
<polygon fill="#63b8ff" stroke="#63b8ff" points="487.37,-773.2 495.87,-766.89 485.28,-766.52 487.37,-773.2"/>
</a>
</g>
</g>
<!-- Node6 -->
<g id="Node000006" class="node">
<title>Node6</title>
<g id="a_Node000006"><a xlink:href="class_g_l_e_s_c_1_1_render_1_1_mesh_factory.html#aff179044917548ba91300a69ffb39256" target="_top" xlink:title=" ">
<polygon fill="white" stroke="#666666" points="434.25,-875 285.5,-875 285.5,-843 434.25,-843 434.25,-875"/>
<text text-anchor="start" x="293.5" y="-861.5" font-family="Helvetica,sans-Serif" font-size="10.00">GLESC::Render::MeshFactory</text>
<text text-anchor="middle" x="359.88" y="-849.5" font-family="Helvetica,sans-Serif" font-size="10.00">::plane</text>
</a>
</g>
</g>
<!-- Node2&#45;&gt;Node6 -->
<g id="edge6_Node000002_Node000006" class="edge">
<title>Node2&#45;&gt;Node6</title>
<g id="a_edge6_Node000002_Node000006"><a xlink:title=" ">
<path fill="none" stroke="#63b8ff" d="M522.44,-773.67C499.91,-792.08 466.61,-817.23 434.25,-834 428.28,-837.1 421.84,-839.94 415.34,-842.5"/>
<polygon fill="#63b8ff" stroke="#63b8ff" points="524.48,-776.52 529.94,-767.45 520.01,-771.14 524.48,-776.52"/>
</a>
</g>
</g>
<!-- Node7 -->
<g id="Node000007" class="node">
<title>Node7</title>
<g id="a_Node000007"><a xlink:href="class_g_l_e_s_c_1_1_render_1_1_mesh_factory.html#aefd29f32b084155c54dd3d91fef99aba" target="_top" xlink:title=" ">
<polygon fill="white" stroke="#666666" points="434.25,-725 285.5,-725 285.5,-693 434.25,-693 434.25,-725"/>
<text text-anchor="start" x="293.5" y="-711.5" font-family="Helvetica,sans-Serif" font-size="10.00">GLESC::Render::MeshFactory</text>
<text text-anchor="middle" x="359.88" y="-699.5" font-family="Helvetica,sans-Serif" font-size="10.00">::pyramid</text>
</a>
</g>
</g>
<!-- Node2&#45;&gt;Node7 -->
<g id="edge7_Node000002_Node000007" class="edge">
<title>Node2&#45;&gt;Node7</title>
<g id="a_edge7_Node000002_Node000007"><a xlink:title=" ">
<path fill="none" stroke="#63b8ff" d="M481.81,-735.22C466.53,-731.9 450.24,-728.37 434.73,-725.01"/>
<polygon fill="#63b8ff" stroke="#63b8ff" points="480.75,-738.57 491.26,-737.27 482.23,-731.73 480.75,-738.57"/>
</a>
</g>
</g>
<!-- Node8 -->
<g id="Node000008" class="node">
<title>Node8</title>
<g id="a_Node000008"><a xlink:href="class_g_l_e_s_c_1_1_render_1_1_mesh_factory.html#ac34bbd39823c1d507524e1395305e310" target="_top" xlink:title="Creates a sphere mesh given a number of slices, stacks, a radius and a color.">
<polygon fill="white" stroke="#666666" points="434.25,-775 285.5,-775 285.5,-743 434.25,-743 434.25,-775"/>
<text text-anchor="start" x="293.5" y="-761.5" font-family="Helvetica,sans-Serif" font-size="10.00">GLESC::Render::MeshFactory</text>
<text text-anchor="middle" x="359.88" y="-749.5" font-family="Helvetica,sans-Serif" font-size="10.00">::sphere</text>
</a>
</g>
</g>
<!-- Node2&#45;&gt;Node8 -->
<g id="edge8_Node000002_Node000008" class="edge">
<title>Node2&#45;&gt;Node8</title>
<g id="a_edge8_Node000002_Node000008"><a xlink:title=" ">
<path fill="none" stroke="#63b8ff" d="M481.37,-753.27C466.21,-753.99 450.09,-754.75 434.73,-755.49"/>
<polygon fill="#63b8ff" stroke="#63b8ff" points="481.41,-756.77 491.23,-752.8 481.08,-749.78 481.41,-756.77"/>
</a>
</g>
</g>
<!-- Node4 -->
<g id="Node000004" class="node">
<title>Node4</title>
<g id="a_Node000004"><a xlink:href="class_g_l_e_s_c_1_1_render_1_1_mesh_factory.html#a4b07130768fe0a8e6720aa0550a7b5dd" target="_top" xlink:title="Creates a cube mesh given a color and a radius.">
<polygon fill="white" stroke="#666666" points="249.5,-823 100.75,-823 100.75,-791 249.5,-791 249.5,-823"/>
<text text-anchor="start" x="108.75" y="-809.5" font-family="Helvetica,sans-Serif" font-size="10.00">GLESC::Render::MeshFactory</text>
<text text-anchor="middle" x="175.12" y="-797.5" font-family="Helvetica,sans-Serif" font-size="10.00">::cube</text>
</a>
</g>
</g>
<!-- Node3&#45;&gt;Node4 -->
<g id="edge4_Node000003_Node000004" class="edge">
<title>Node3&#45;&gt;Node4</title>
<g id="a_edge4_Node000003_Node000004"><a xlink:title=" ">
<path fill="none" stroke="#63b8ff" d="M273.56,-808.07C265.66,-807.98 257.69,-807.89 249.91,-807.81"/>
<polygon fill="#63b8ff" stroke="#63b8ff" points="273.52,-811.57 283.56,-808.18 273.6,-804.57 273.52,-811.57"/>
</a>
</g>
</g>
<!-- Node5 -->
<g id="Node000005" class="node">
<title>Node5</title>
<g id="a_Node000005"><a xlink:href="class_default.html#a6e26da3ebf533b0f5d45266cd0ce9082" target="_top" xlink:title="Initializes the scene. Must be implemented by the derived class.">
<polygon fill="white" stroke="#666666" points="64.75,-794 0,-794 0,-774 64.75,-774 64.75,-794"/>
<text text-anchor="middle" x="32.38" y="-780.5" font-family="Helvetica,sans-Serif" font-size="10.00">Default::init</text>
</a>
</g>
</g>
<!-- Node4&#45;&gt;Node5 -->
<g id="edge5_Node000004_Node000005" class="edge">
<title>Node4&#45;&gt;Node5</title>
<g id="a_edge5_Node000004_Node000005"><a xlink:title=" ">
<path fill="none" stroke="#63b8ff" d="M89.11,-793.11C80.57,-791.71 72.34,-790.37 64.94,-789.16"/>
<polygon fill="#63b8ff" stroke="#63b8ff" points="88.52,-796.56 98.96,-794.72 89.65,-789.65 88.52,-796.56"/>
</a>
</g>
</g>
<!-- Node8&#45;&gt;Node5 -->
<g id="edge9_Node000008_Node000005" class="edge">
<title>Node8&#45;&gt;Node5</title>
<g id="a_edge9_Node000008_Node000005"><a xlink:title=" ">
<path fill="none" stroke="#63b8ff" d="M273.82,-765.53C205.38,-770.79 112.98,-777.89 65.1,-781.56"/>
<polygon fill="#63b8ff" stroke="#63b8ff" points="273.8,-769.04 283.5,-764.79 273.27,-762.06 273.8,-769.04"/>
</a>
</g>
</g>
<!-- Node11&#45;&gt;Node7 -->
<g id="edge17_Node000011_Node000007" class="edge">
<title>Node11&#45;&gt;Node7</title>
<g id="a_edge17_Node000011_Node000007"><a xlink:title=" ">
<path fill="none" stroke="#63b8ff" d="M481.81,-682.78C466.53,-686.1 450.24,-689.63 434.73,-692.99"/>
<polygon fill="#63b8ff" stroke="#63b8ff" points="482.23,-686.27 491.26,-680.73 480.75,-679.43 482.23,-686.27"/>
</a>
</g>
</g>
<!-- Node11&#45;&gt;Node8 -->
<g id="edge18_Node000011_Node000008" class="edge">
<title>Node11&#45;&gt;Node8</title>
<g id="a_edge18_Node000011_Node000008"><a xlink:title=" ">
<path fill="none" stroke="#63b8ff" d="M514.78,-690.41C492.3,-704.12 462.23,-721.39 434.25,-734 427.5,-737.04 420.27,-739.93 413.06,-742.59"/>
<polygon fill="#63b8ff" stroke="#63b8ff" points="516.57,-693.42 523.25,-685.19 512.9,-687.46 516.57,-693.42"/>
</a>
</g>
</g>
<!-- Node11&#45;&gt;Node9 -->
<g id="edge13_Node000011_Node000009" class="edge">
<title>Node11&#45;&gt;Node9</title>
<g id="a_edge13_Node000011_Node000009"><a xlink:title=" ">
<path fill="none" stroke="#63b8ff" d="M486.33,-648.14C462.69,-640.76 436.16,-632.49 413.6,-625.45"/>
<polygon fill="#63b8ff" stroke="#63b8ff" points="485.28,-651.48 495.87,-651.11 487.37,-644.8 485.28,-651.48"/>
</a>
</g>
</g>
<!-- Node11&#45;&gt;Node10 -->
<g id="edge14_Node000011_Node000010" class="edge">
<title>Node11&#45;&gt;Node10</title>
<g id="a_edge14_Node000011_Node000010"><a xlink:title=" ">
<path fill="none" stroke="#63b8ff" d="M522.44,-644.33C499.91,-625.92 466.61,-600.77 434.25,-584 428.28,-580.9 421.84,-578.06 415.34,-575.5"/>
<polygon fill="#63b8ff" stroke="#63b8ff" points="520.01,-646.86 529.94,-650.55 524.48,-641.48 520.01,-646.86"/>
</a>
</g>
</g>
<!-- Node11&#45;&gt;Node11 -->
<g id="edge15_Node000011_Node000011" class="edge">
<title>Node11&#45;&gt;Node11</title>
<g id="a_edge15_Node000011_Node000011"><a xlink:title=" ">
<path fill="none" stroke="#63b8ff" d="M582.73,-695.71C577.44,-699.48 566.86,-702 551,-702 522,-702 510.67,-693.58 517.01,-684.44"/>
<polygon fill="#63b8ff" stroke="#63b8ff" points="586.15,-696.42 584.69,-685.93 579.29,-695.04 586.15,-696.42"/>
</a>
</g>
</g>
<!-- Node11&#45;&gt;Node12 -->
<g id="edge16_Node000011_Node000012" class="edge">
<title>Node11&#45;&gt;Node12</title>
<g id="a_edge16_Node000011_Node000012"><a xlink:title=" ">
<path fill="none" stroke="#63b8ff" d="M531.99,-642.78C510.76,-614.2 473.4,-567.26 434.25,-534 421.49,-523.16 405.86,-513.2 392.3,-505.41"/>
<polygon fill="#63b8ff" stroke="#63b8ff" points="528.91,-644.51 537.65,-650.51 534.56,-640.37 528.91,-644.51"/>
</a>
</g>
</g>
<!-- Node13 -->
<g id="Node000013" class="node">
<title>Node13</title>
<g id="a_Node000013"><a xlink:href="class_g_l_e_s_c_1_1_render_1_1_mesh_factory.html#a1e3caaf52ad95406520b1ad999bd357b" target="_top" xlink:title=" ">
<polygon fill="white" stroke="#666666" points="434.25,-675 285.5,-675 285.5,-643 434.25,-643 434.25,-675"/>
<text text-anchor="start" x="293.5" y="-661.5" font-family="Helvetica,sans-Serif" font-size="10.00">GLESC::Render::MeshFactory</text>
<text text-anchor="middle" x="359.88" y="-649.5" font-family="Helvetica,sans-Serif" font-size="10.00">::tris</text>
</a>
</g>
</g>
<!-- Node11&#45;&gt;Node13 -->
<g id="edge19_Node000011_Node000013" class="edge">
<title>Node11&#45;&gt;Node13</title>
<g id="a_edge19_Node000011_Node000013"><a xlink:title=" ">
<path fill="none" stroke="#63b8ff" d="M481.37,-664.73C466.21,-664.01 450.09,-663.25 434.73,-662.51"/>
<polygon fill="#63b8ff" stroke="#63b8ff" points="481.08,-668.22 491.23,-665.2 481.41,-661.23 481.08,-668.22"/>
</a>
</g>
</g>
<!-- Node15&#45;&gt;Node2 -->
<g id="edge22_Node000015_Node000002" class="edge">
<title>Node15&#45;&gt;Node2</title>
<g id="a_edge22_Node000015_Node000002"><a xlink:title=" ">
<path fill="none" stroke="#63b8ff" d="M723.96,-605.75C704.68,-634.38 670.38,-680.6 631.75,-711 620.36,-719.96 606.59,-727.6 593.71,-733.68"/>
<polygon fill="#63b8ff" stroke="#63b8ff" points="726.71,-607.94 729.3,-597.67 720.87,-604.08 726.71,-607.94"/>
</a>
</g>
</g>
<!-- Node15&#45;&gt;Node10 -->
<g id="edge23_Node000015_Node000010" class="edge">
<title>Node15&#45;&gt;Node10</title>
<g id="a_edge23_Node000015_Node000010"><a xlink:title=" ">
<path fill="none" stroke="#63b8ff" d="M671.9,-577.18C617.28,-574.81 538.83,-571.16 470.25,-567 453.34,-565.97 434.96,-564.7 418.19,-563.46"/>
<polygon fill="#63b8ff" stroke="#63b8ff" points="671.52,-580.66 681.66,-577.6 671.82,-573.67 671.52,-580.66"/>
</a>
</g>
</g>
<!-- Node15&#45;&gt;Node11 -->
<g id="edge24_Node000015_Node000011" class="edge">
<title>Node15&#45;&gt;Node11</title>
<g id="a_edge24_Node000015_Node000011"><a xlink:title=" ">
<path fill="none" stroke="#63b8ff" d="M695.05,-601.17C661.9,-616.66 617.6,-637.36 587.12,-651.59"/>
<polygon fill="#63b8ff" stroke="#63b8ff" points="696.43,-604.39 704.01,-596.99 693.47,-598.05 696.43,-604.39"/>
</a>
</g>
</g>
<!-- Node15&#45;&gt;Node16 -->
<g id="edge25_Node000015_Node000016" class="edge">
<title>Node15&#45;&gt;Node16</title>
<g id="a_edge25_Node000015_Node000016"><a xlink:title=" ">
<path fill="none" stroke="#63b8ff" d="M671.89,-566.19C651.36,-562.04 629.07,-557.55 609.34,-553.57"/>
<polygon fill="#63b8ff" stroke="#63b8ff" points="671.11,-569.6 681.61,-568.14 672.49,-562.74 671.11,-569.6"/>
</a>
</g>
</g>
<!-- Node17&#45;&gt;Node1 -->
<g id="edge29_Node000017_Node000001" class="edge">
<title>Node17&#45;&gt;Node1</title>
<g id="a_edge29_Node000017_Node000001"><a xlink:title=" ">
<path fill="none" stroke="#63b8ff" d="M810.78,-382.99C824.13,-385.18 837.99,-387.2 850.92,-388.85"/>
<polygon fill="#63b8ff" stroke="#63b8ff" points="811.65,-379.59 801.21,-381.37 810.48,-386.49 811.65,-379.59"/>
</a>
</g>
</g>
<!-- Node18&#45;&gt;Node2 -->
<g id="edge31_Node000018_Node000002" class="edge">
<title>Node18&#45;&gt;Node2</title>
<g id="a_edge31_Node000018_Node000002"><a xlink:title=" ">
<path fill="none" stroke="#63b8ff" d="M671.89,-722C651.36,-726.79 629.07,-732 609.34,-736.61"/>
<polygon fill="#63b8ff" stroke="#63b8ff" points="672.67,-725.41 681.62,-719.72 671.08,-718.59 672.67,-725.41"/>
</a>
</g>
</g>
<!-- Node18&#45;&gt;Node11 -->
<g id="edge32_Node000018_Node000011" class="edge">
<title>Node18&#45;&gt;Node11</title>
<g id="a_edge32_Node000018_Node000011"><a xlink:title=" ">
<path fill="none" stroke="#63b8ff" d="M671.89,-692.19C651.36,-688.04 629.07,-683.55 609.34,-679.57"/>
<polygon fill="#63b8ff" stroke="#63b8ff" points="671.11,-695.6 681.61,-694.14 672.49,-688.74 671.11,-695.6"/>
</a>
</g>
</g>
<!-- Node20 -->
<g id="Node000020" class="node">
<title>Node20</title>
<g id="a_Node000020"><a xlink:href="struct_g_l_e_s_c_1_1_e_c_s_1_1_render_component.html#a1123090073f521beb86480471c0f4029" target="_top" xlink:title="Set the updated debugging values of the component.">
<polygon fill="white" stroke="#666666" points="631.75,-332 470.25,-332 470.25,-300 631.75,-300 631.75,-332"/>
<text text-anchor="start" x="478.25" y="-318.5" font-family="Helvetica,sans-Serif" font-size="10.00">GLESC::ECS::RenderComponent</text>
<text text-anchor="middle" x="551" y="-306.5" font-family="Helvetica,sans-Serif" font-size="10.00">::setUpdatedDebuggingValues</text>
</a>
</g>
</g>
<!-- Node19&#45;&gt;Node20 -->
<g id="edge34_Node000019_Node000020" class="edge">
<title>Node19&#45;&gt;Node20</title>
<g id="a_edge34_Node000019_Node000020"><a xlink:title=" ">
<path fill="none" stroke="#63b8ff" d="M655.86,-316C648,-316 640.06,-316 632.24,-316"/>
<polygon fill="#63b8ff" stroke="#63b8ff" points="655.76,-319.5 665.76,-316 655.76,-312.5 655.76,-319.5"/>
</a>
</g>
</g>
<!-- Node25 -->
<g id="Node000025" class="node">
<title>Node25</title>
<g id="a_Node000025"><a xlink:href="class_g_l_e_s_c_1_1_render_1_1_renderer.html#a3244ebc15bf8310257ec613f62d00a33" target="_top" xlink:title="This renders the frame.">
<polygon fill="white" stroke="#666666" points="616.38,-132 485.62,-132 485.62,-100 616.38,-100 616.38,-132"/>
<text text-anchor="start" x="493.62" y="-118.5" font-family="Helvetica,sans-Serif" font-size="10.00">GLESC::Render::Renderer</text>
<text text-anchor="middle" x="551" y="-106.5" font-family="Helvetica,sans-Serif" font-size="10.00">::render</text>
</a>
</g>
</g>
<!-- Node24&#45;&gt;Node25 -->
<g id="edge39_Node000024_Node000025" class="edge">
<title>Node24&#45;&gt;Node25</title>
<g id="a_edge39_Node000024_Node000025"><a xlink:title=" ">
<path fill="none" stroke="#63b8ff" d="M671.77,-116C653.76,-116 634.39,-116 616.59,-116"/>
<polygon fill="#63b8ff" stroke="#63b8ff" points="671.58,-119.5 681.58,-116 671.58,-112.5 671.58,-119.5"/>
</a>
</g>
</g>
<!-- Node26 -->
<g id="Node000026" class="node">
<title>Node26</title>
<g id="a_Node000026"><a xlink:href="class_g_l_e_s_c_1_1_engine.html#ab0a886855ca341089947b36b9c6f6e15" target="_top" xlink:title="Processes the rendering of the game Can be called at variable intervals of time as it uses elapsed.">
<polygon fill="white" stroke="#666666" points="418.88,-126 300.88,-126 300.88,-106 418.88,-106 418.88,-126"/>
<text text-anchor="middle" x="359.88" y="-112.5" font-family="Helvetica,sans-Serif" font-size="10.00">GLESC::Engine::render</text>
</a>
</g>
</g>
<!-- Node25&#45;&gt;Node26 -->
<g id="edge40_Node000025_Node000026" class="edge">
<title>Node25&#45;&gt;Node26</title>
<g id="a_edge40_Node000025_Node000026"><a xlink:title=" ">
<path fill="none" stroke="#63b8ff" d="M473.72,-116C455.57,-116 436.48,-116 419.27,-116"/>
<polygon fill="#63b8ff" stroke="#63b8ff" points="473.66,-119.5 483.66,-116 473.66,-112.5 473.66,-119.5"/>
</a>
</g>
</g>
<!-- Node27 -->
<g id="Node000027" class="node">
<title>Node27</title>
<g id="a_Node000027"><a xlink:href="main_8cpp.html#a0ddf1224851353fc92bfbff6f499fa97" target="_top" xlink:title=" ">
<polygon fill="white" stroke="#666666" points="193.62,-126 156.62,-126 156.62,-106 193.62,-106 193.62,-126"/>
<text text-anchor="middle" x="175.12" y="-112.5" font-family="Helvetica,sans-Serif" font-size="10.00">main</text>
</a>
</g>
</g>
<!-- Node26&#45;&gt;Node27 -->
<g id="edge41_Node000026_Node000027" class="edge">
<title>Node26&#45;&gt;Node27</title>
<g id="a_edge41_Node000026_Node000027"><a xlink:title=" ">
<path fill="none" stroke="#63b8ff" d="M289.05,-116C254.58,-116 215.76,-116 193.79,-116"/>
<polygon fill="#63b8ff" stroke="#63b8ff" points="289.04,-119.5 299.04,-116 289.04,-112.5 289.04,-119.5"/>
</a>
</g>
</g>
<!-- Node30 -->
<g id="Node000030" class="node">
<title>Node30</title>
<g id="a_Node000030"><a xlink:href="struct_g_l_e_s_c_1_1_e_c_s_1_1_render_component.html#aec52e28fa7dbefaf23d48f28b18a2e82" target="_top" xlink:title="Each component must have a toString function.">
<polygon fill="white" stroke="#666666" points="631.75,-32 470.25,-32 470.25,0 631.75,0 631.75,-32"/>
<text text-anchor="start" x="478.25" y="-18.5" font-family="Helvetica,sans-Serif" font-size="10.00">GLESC::ECS::RenderComponent</text>
<text text-anchor="middle" x="551" y="-6.5" font-family="Helvetica,sans-Serif" font-size="10.00">::toString</text>
</a>
</g>
</g>
<!-- Node29&#45;&gt;Node30 -->
<g id="edge44_Node000029_Node000030" class="edge">
<title>Node29&#45;&gt;Node30</title>
<g id="a_edge44_Node000029_Node000030"><a xlink:title=" ">
<path fill="none" stroke="#63b8ff" d="M671.89,-16C658.91,-16 645.22,-16 631.92,-16"/>
<polygon fill="#63b8ff" stroke="#63b8ff" points="671.58,-19.5 681.58,-16 671.58,-12.5 671.58,-19.5"/>
</a>
</g>
</g>
</g>
</svg>
