<?xml version="1.0" encoding="UTF-8" standalone="no"?>
<!DOCTYPE svg PUBLIC "-//W3C//DTD SVG 1.1//EN"
 "http://www.w3.org/Graphics/SVG/1.1/DTD/svg11.dtd">
<!-- Generated by graphviz version 11.0.0 (20240428.1522)
 -->
<!-- Title: GLESC::Math::VectorAlgorithms::isZero Pages: 1 -->
<svg width="513pt" height="140pt"
 viewBox="0.00 0.00 512.75 140.00" xmlns="http://www.w3.org/2000/svg" xmlns:xlink="http://www.w3.org/1999/xlink">
<g id="graph0" class="graph" transform="scale(1 1) rotate(0) translate(4 136)">
<title>GLESC::Math::VectorAlgorithms::isZero</title>
<!-- Node1 -->
<g id="Node000001" class="node">
<title>Node1</title>
<g id="a_Node000001"><a xlink:title="Checks if a vector is zero.">
<polygon fill="#999999" stroke="#666666" points="504.75,-57 347,-57 347,-25 504.75,-25 504.75,-57"/>
<text text-anchor="start" x="355" y="-43.5" font-family="Helvetica,sans-Serif" font-size="10.00">GLESC::Math::VectorAlgorithms</text>
<text text-anchor="middle" x="425.88" y="-31.5" font-family="Helvetica,sans-Serif" font-size="10.00">::isZero</text>
</a>
</g>
</g>
<!-- Node2 -->
<g id="Node000002" class="node">
<title>Node2</title>
<g id="a_Node000002"><a xlink:href="class_g_l_e_s_c_1_1_math_1_1_vector_mixed_algorithms.html#a017c78aceeac4cc6bacc66d88f3ba7b4" target="_top" xlink:title="Checks if points are collinear.">
<polygon fill="white" stroke="#666666" points="311,-82 173.5,-82 173.5,-50 311,-50 311,-82"/>
<text text-anchor="start" x="181.5" y="-68.5" font-family="Helvetica,sans-Serif" font-size="10.00">GLESC::Math::VectorMixed</text>
<text text-anchor="middle" x="242.25" y="-56.5" font-family="Helvetica,sans-Serif" font-size="10.00">Algorithms::areCollinear</text>
</a>
</g>
</g>
<!-- Node1&#45;&gt;Node2 -->
<g id="edge1_Node000001_Node000002" class="edge">
<title>Node1&#45;&gt;Node2</title>
<g id="a_edge1_Node000001_Node000002"><a xlink:title=" ">
<path fill="none" stroke="#63b8ff" d="M335.22,-53.34C327.19,-54.45 319.15,-55.55 311.35,-56.63"/>
<polygon fill="#63b8ff" stroke="#63b8ff" points="335.6,-56.82 345.03,-51.99 334.65,-49.89 335.6,-56.82"/>
</a>
</g>
</g>
<!-- Node6 -->
<g id="Node000006" class="node">
<title>Node6</title>
<g id="a_Node000006"><a xlink:href="class_g_l_e_s_c_1_1_math_1_1_vector.html#a2dbd64e2650d4925dded80a6ef8f3663" target="_top" xlink:title="Checks if the vector is a zero vector.">
<polygon fill="white" stroke="#666666" points="297.88,-32 186.62,-32 186.62,0 297.88,0 297.88,-32"/>
<text text-anchor="start" x="194.62" y="-18.5" font-family="Helvetica,sans-Serif" font-size="10.00">GLESC::Math::Vector</text>
<text text-anchor="middle" x="242.25" y="-6.5" font-family="Helvetica,sans-Serif" font-size="10.00">::isZero</text>
</a>
</g>
</g>
<!-- Node1&#45;&gt;Node6 -->
<g id="edge5_Node000001_Node000006" class="edge">
<title>Node1&#45;&gt;Node6</title>
<g id="a_edge5_Node000001_Node000006"><a xlink:title=" ">
<path fill="none" stroke="#63b8ff" d="M335.44,-28.69C322.79,-26.95 310.1,-25.2 298.36,-23.59"/>
<polygon fill="#63b8ff" stroke="#63b8ff" points="334.65,-32.11 345.03,-30.01 335.6,-25.18 334.65,-32.11"/>
</a>
</g>
</g>
<!-- Node3 -->
<g id="Node000003" class="node">
<title>Node3</title>
<g id="a_Node000003"><a xlink:href="class_g_l_e_s_c_1_1_math_1_1_plane.html#a503abb5ac4797527f02056f1223a0166" target="_top" xlink:title="Construct a new Plane object from three distinct points.">
<polygon fill="white" stroke="#666666" points="122.5,-132 15,-132 15,-100 122.5,-100 122.5,-132"/>
<text text-anchor="start" x="23" y="-118.5" font-family="Helvetica,sans-Serif" font-size="10.00">GLESC::Math::Plane</text>
<text text-anchor="middle" x="68.75" y="-106.5" font-family="Helvetica,sans-Serif" font-size="10.00">::Plane</text>
</a>
</g>
</g>
<!-- Node2&#45;&gt;Node3 -->
<g id="edge2_Node000002_Node000003" class="edge">
<title>Node2&#45;&gt;Node3</title>
<g id="a_edge2_Node000002_Node000003"><a xlink:title=" ">
<path fill="none" stroke="#63b8ff" d="M174.09,-85.58C157.08,-90.54 139.04,-95.8 122.83,-100.53"/>
<polygon fill="#63b8ff" stroke="#63b8ff" points="175.02,-88.95 183.64,-82.8 173.06,-82.23 175.02,-88.95"/>
</a>
</g>
</g>
<!-- Node4 -->
<g id="Node000004" class="node">
<title>Node4</title>
<g id="a_Node000004"><a xlink:href="class_g_l_e_s_c_1_1_math_1_1_vector_mixed_algorithms.html#af98aa7b91b091b447e76b467d60a7114" target="_top" xlink:title="Checks if points are collinear.">
<polygon fill="white" stroke="#666666" points="137.5,-82 0,-82 0,-50 137.5,-50 137.5,-82"/>
<text text-anchor="start" x="8" y="-68.5" font-family="Helvetica,sans-Serif" font-size="10.00">GLESC::Math::VectorMixed</text>
<text text-anchor="middle" x="68.75" y="-56.5" font-family="Helvetica,sans-Serif" font-size="10.00">Algorithms::areCollinear</text>
</a>
</g>
</g>
<!-- Node2&#45;&gt;Node4 -->
<g id="edge3_Node000002_Node000004" class="edge">
<title>Node2&#45;&gt;Node4</title>
<g id="a_edge3_Node000002_Node000004"><a xlink:title=" ">
<path fill="none" stroke="#63b8ff" d="M162.11,-66C154.02,-66 145.84,-66 137.88,-66"/>
<polygon fill="#63b8ff" stroke="#63b8ff" points="161.96,-69.5 171.96,-66 161.96,-62.5 161.96,-69.5"/>
</a>
</g>
</g>
<!-- Node5 -->
<g id="Node000005" class="node">
<title>Node5</title>
<g id="a_Node000005"><a xlink:href="class_g_l_e_s_c_1_1_math_1_1_vector.html#aa9d1c92dac095666f8eb521b1e5a541d" target="_top" xlink:title="Checks if the current vector is a scalar multiple of some vectors.">
<polygon fill="white" stroke="#666666" points="124.38,-32 13.12,-32 13.12,0 124.38,0 124.38,-32"/>
<text text-anchor="start" x="21.12" y="-18.5" font-family="Helvetica,sans-Serif" font-size="10.00">GLESC::Math::Vector</text>
<text text-anchor="middle" x="68.75" y="-6.5" font-family="Helvetica,sans-Serif" font-size="10.00">::isCollinear</text>
</a>
</g>
</g>
<!-- Node2&#45;&gt;Node5 -->
<g id="edge4_Node000002_Node000005" class="edge">
<title>Node2&#45;&gt;Node5</title>
<g id="a_edge4_Node000002_Node000005"><a xlink:title=" ">
<path fill="none" stroke="#63b8ff" d="M174.47,-46.53C158.05,-41.74 140.66,-36.67 124.86,-32.07"/>
<polygon fill="#63b8ff" stroke="#63b8ff" points="173.06,-49.77 183.64,-49.2 175.02,-43.05 173.06,-49.77"/>
</a>
</g>
</g>
</g>
</svg>
