<?xml version="1.0" encoding="UTF-8" standalone="no"?>
<!DOCTYPE svg PUBLIC "-//W3C//DTD SVG 1.1//EN"
 "http://www.w3.org/Graphics/SVG/1.1/DTD/svg11.dtd">
<!-- Generated by graphviz version 11.0.0 (20240428.1522)
 -->
<!-- Title: GLESC::ECS::EntityManager Pages: 1 -->
<svg width="1283pt" height="756pt"
 viewBox="0.00 0.00 1282.50 756.00" xmlns="http://www.w3.org/2000/svg" xmlns:xlink="http://www.w3.org/1999/xlink">
<g id="graph0" class="graph" transform="scale(1 1) rotate(0) translate(4 752)">
<title>GLESC::ECS::EntityManager</title>
<!-- Node1 -->
<g id="Node000001" class="node">
<title>Node1</title>
<g id="a_Node000001"><a xlink:title=" ">
<polygon fill="#999999" stroke="none" points="677,-260 536,-260 536,0 677,0 677,-260"/>
<text text-anchor="start" x="542.38" y="-246.5" font-family="Helvetica,sans-Serif" font-size="10.00">GLESC::ECS::EntityManager</text>
<text text-anchor="start" x="540" y="-230.5" font-family="Helvetica,sans-Serif" font-size="10.00">+</text>
<text text-anchor="start" x="550" y="-230.5" font-family="Helvetica,sans-Serif" font-size="10.00">firstEntity</text>
<text text-anchor="start" x="540" y="-214.5" font-family="Helvetica,sans-Serif" font-size="10.00">+</text>
<text text-anchor="start" x="550" y="-214.5" font-family="Helvetica,sans-Serif" font-size="10.00">nullEntity</text>
<text text-anchor="start" x="540.38" y="-198.5" font-family="Helvetica,sans-Serif" font-size="10.00">#</text>
<text text-anchor="start" x="550" y="-198.5" font-family="Helvetica,sans-Serif" font-size="10.00">entityCounter</text>
<text text-anchor="start" x="540.38" y="-182.5" font-family="Helvetica,sans-Serif" font-size="10.00">#</text>
<text text-anchor="start" x="550" y="-182.5" font-family="Helvetica,sans-Serif" font-size="10.00">livingEntityCount</text>
<text text-anchor="start" x="540" y="-166.5" font-family="Helvetica,sans-Serif" font-size="10.00">+</text>
<text text-anchor="start" x="550" y="-166.5" font-family="Helvetica,sans-Serif" font-size="10.00">EntityManager()</text>
<text text-anchor="start" x="540" y="-150.5" font-family="Helvetica,sans-Serif" font-size="10.00">+</text>
<text text-anchor="start" x="550" y="-150.5" font-family="Helvetica,sans-Serif" font-size="10.00">~EntityManager()</text>
<text text-anchor="start" x="540" y="-134.5" font-family="Helvetica,sans-Serif" font-size="10.00">+</text>
<text text-anchor="start" x="550" y="-134.5" font-family="Helvetica,sans-Serif" font-size="10.00">addComponentToEntity()</text>
<text text-anchor="start" x="540" y="-118.5" font-family="Helvetica,sans-Serif" font-size="10.00">+</text>
<text text-anchor="start" x="550" y="-118.5" font-family="Helvetica,sans-Serif" font-size="10.00">areThereLivingEntities()</text>
<text text-anchor="start" x="540" y="-102.5" font-family="Helvetica,sans-Serif" font-size="10.00">+</text>
<text text-anchor="start" x="550" y="-102.5" font-family="Helvetica,sans-Serif" font-size="10.00">canEntityBeCreated()</text>
<text text-anchor="start" x="540" y="-86.5" font-family="Helvetica,sans-Serif" font-size="10.00">+</text>
<text text-anchor="start" x="550" y="-86.5" font-family="Helvetica,sans-Serif" font-size="10.00">createNextEntity()</text>
<text text-anchor="start" x="540" y="-70.5" font-family="Helvetica,sans-Serif" font-size="10.00">+</text>
<text text-anchor="start" x="550" y="-70.5" font-family="Helvetica,sans-Serif" font-size="10.00">destroyEntity()</text>
<text text-anchor="start" x="540" y="-54.5" font-family="Helvetica,sans-Serif" font-size="10.00">+</text>
<text text-anchor="start" x="550" y="-54.5" font-family="Helvetica,sans-Serif" font-size="10.00">doesEntityExist()</text>
<text text-anchor="start" x="540" y="-38.5" font-family="Helvetica,sans-Serif" font-size="10.00">+</text>
<text text-anchor="start" x="550" y="-38.5" font-family="Helvetica,sans-Serif" font-size="10.00">doesEntityExist()</text>
<text text-anchor="start" x="540" y="-22.5" font-family="Helvetica,sans-Serif" font-size="10.00">+</text>
<text text-anchor="start" x="550" y="-22.5" font-family="Helvetica,sans-Serif" font-size="10.00">doesEntityHaveComponent()</text>
<text text-anchor="start" x="550" y="-6.5" font-family="Helvetica,sans-Serif" font-size="10.00">and 18 more...</text>
<polygon fill="#666666" stroke="#666666" points="536,-242 536,-242 677,-242 677,-242 536,-242"/>
<polygon fill="#666666" stroke="#666666" points="536,-178 536,-178 548,-178 548,-178 536,-178"/>
<polygon fill="#666666" stroke="#666666" points="548,-178 548,-178 677,-178 677,-178 548,-178"/>
<polygon fill="none" stroke="#666666" points="536,0 536,-260 677,-260 677,0 536,0"/>
</a>
</g>
</g>
<!-- Node2 -->
<g id="Node000002" class="node">
<title>Node2</title>
<g id="a_Node000002"><a xlink:title=" ">
<polygon fill="white" stroke="none" points="1151,-530 1098,-530 1098,-478 1151,-478 1151,-530"/>
<text text-anchor="start" x="1102.75" y="-516.5" font-family="Helvetica,sans-Serif" font-size="10.00">std::string</text>
<text text-anchor="start" x="1123" y="-500.5" font-family="Helvetica,sans-Serif" font-size="10.00"> </text>
<text text-anchor="start" x="1123" y="-484.5" font-family="Helvetica,sans-Serif" font-size="10.00"> </text>
<polygon fill="#666666" stroke="#666666" points="1098,-512 1098,-512 1151,-512 1151,-512 1098,-512"/>
<polygon fill="#666666" stroke="#666666" points="1098,-496 1098,-496 1151,-496 1151,-496 1098,-496"/>
<polygon fill="none" stroke="#666666" points="1098,-478 1098,-530 1151,-530 1151,-478 1098,-478"/>
</a>
</g>
</g>
<!-- Node2&#45;&gt;Node1 -->
<g id="edge1_Node000001_Node000002" class="edge">
<title>Node2&#45;&gt;Node1</title>
<g id="a_edge1_Node000001_Node000002"><a xlink:title=" ">
<path fill="none" stroke="#63b8ff" d="M1150.86,-496.77C1172.44,-490.13 1201.61,-477.26 1215.5,-454 1227.35,-434.16 1226.92,-422.09 1215.5,-402 1107.88,-212.75 829.55,-155.3 689.53,-138.14"/>
<polygon fill="none" stroke="#63b8ff" points="689.65,-138.15 683.22,-141.42 677.73,-136.75 684.15,-133.48 689.65,-138.15"/>
</a>
</g>
<text text-anchor="middle" x="1237" y="-342.5" font-family="Helvetica,sans-Serif" font-size="10.00" fill="grey"> +nullEntityName</text>
</g>
<!-- Node10 -->
<g id="Node000010" class="node">
<title>Node10</title>
<g id="a_Node000010"><a xlink:title=" ">
<polygon fill="white" stroke="none" points="727,-378 608,-378 608,-314 727,-314 727,-378"/>
<text text-anchor="start" x="612.75" y="-364.5" font-family="Helvetica,sans-Serif" font-size="10.00">std::unordered_map</text>
<text text-anchor="start" x="612.75" y="-352.5" font-family="Helvetica,sans-Serif" font-size="10.00">&lt; EntityName, EntityID &gt;</text>
<text text-anchor="start" x="627.5" y="-336.5" font-family="Helvetica,sans-Serif" font-size="10.00">+</text>
<text text-anchor="start" x="653" y="-336.5" font-family="Helvetica,sans-Serif" font-size="10.00">elements</text>
<text text-anchor="start" x="666" y="-320.5" font-family="Helvetica,sans-Serif" font-size="10.00"> </text>
<polygon fill="#666666" stroke="#666666" points="608,-348 608,-348 727,-348 727,-348 608,-348"/>
<polygon fill="#666666" stroke="#666666" points="608,-332 608,-332 651,-332 651,-332 608,-332"/>
<polygon fill="#666666" stroke="#666666" points="651,-332 651,-332 727,-332 727,-332 651,-332"/>
<polygon fill="none" stroke="#666666" points="608,-314 608,-378 727,-378 727,-314 608,-314"/>
</a>
</g>
</g>
<!-- Node2&#45;&gt;Node10 -->
<g id="edge11_Node000010_Node000002" class="edge">
<title>Node2&#45;&gt;Node10</title>
<g id="a_edge11_Node000010_Node000002"><a xlink:title=" ">
<path fill="none" stroke="#63b8ff" d="M1098.18,-503.05C1058.56,-501.76 983.27,-493.77 936.5,-454 917.25,-437.63 933.8,-417.05 913.5,-402 887.07,-382.4 798.47,-391.82 766.5,-384 757.55,-381.81 748.31,-379.06 739.23,-376.05"/>
<polygon fill="none" stroke="#63b8ff" points="739.19,-376.04 732.21,-377.85 727.85,-372.11 734.82,-370.29 739.19,-376.04"/>
</a>
</g>
<text text-anchor="middle" x="951.5" y="-424.5" font-family="Helvetica,sans-Serif" font-size="10.00" fill="grey"> +keys</text>
</g>
<!-- Node13 -->
<g id="Node000013" class="node">
<title>Node13</title>
<g id="a_Node000013"><a xlink:title=" ">
<polygon fill="white" stroke="none" points="1048,-378 929,-378 929,-314 1048,-314 1048,-378"/>
<text text-anchor="start" x="933.75" y="-364.5" font-family="Helvetica,sans-Serif" font-size="10.00">std::unordered_map</text>
<text text-anchor="start" x="933.75" y="-352.5" font-family="Helvetica,sans-Serif" font-size="10.00">&lt; EntityID, EntityName &gt;</text>
<text text-anchor="start" x="953" y="-336.5" font-family="Helvetica,sans-Serif" font-size="10.00">+</text>
<text text-anchor="start" x="983" y="-336.5" font-family="Helvetica,sans-Serif" font-size="10.00">keys</text>
<text text-anchor="start" x="987" y="-320.5" font-family="Helvetica,sans-Serif" font-size="10.00"> </text>
<polygon fill="#666666" stroke="#666666" points="929,-348 929,-348 1048,-348 1048,-348 929,-348"/>
<polygon fill="#666666" stroke="#666666" points="929,-332 929,-332 981,-332 981,-332 929,-332"/>
<polygon fill="#666666" stroke="#666666" points="981,-332 981,-332 1048,-332 1048,-332 981,-332"/>
<polygon fill="none" stroke="#666666" points="929,-314 929,-378 1048,-378 1048,-314 929,-314"/>
</a>
</g>
</g>
<!-- Node2&#45;&gt;Node13 -->
<g id="edge16_Node000013_Node000002" class="edge">
<title>Node2&#45;&gt;Node13</title>
<g id="a_edge16_Node000013_Node000002"><a xlink:title=" ">
<path fill="none" stroke="#63b8ff" d="M1143.51,-478.15C1157.66,-456.37 1171.95,-424.74 1155.5,-402 1133.75,-371.93 1094.99,-358.02 1060.29,-351.7"/>
<polygon fill="none" stroke="#63b8ff" points="1060.47,-351.73 1053.92,-354.73 1048.62,-349.84 1055.17,-346.83 1060.47,-351.73"/>
</a>
</g>
<text text-anchor="middle" x="1186.88" y="-424.5" font-family="Helvetica,sans-Serif" font-size="10.00" fill="grey"> +elements</text>
</g>
<!-- Node16 -->
<g id="Node000016" class="node">
<title>Node16</title>
<g id="a_Node000016"><a xlink:title=" ">
<polygon fill="white" stroke="none" points="590,-384 469,-384 469,-308 590,-308 590,-384"/>
<text text-anchor="start" x="474" y="-370.5" font-family="Helvetica,sans-Serif" font-size="10.00">std::unordered_map</text>
<text text-anchor="start" x="474" y="-358.5" font-family="Helvetica,sans-Serif" font-size="10.00">&lt; EntityName, std::vector</text>
<text text-anchor="start" x="498.75" y="-346.5" font-family="Helvetica,sans-Serif" font-size="10.00">&lt; EntityID &gt; &gt;</text>
<text text-anchor="start" x="528" y="-330.5" font-family="Helvetica,sans-Serif" font-size="10.00"> </text>
<text text-anchor="start" x="528" y="-314.5" font-family="Helvetica,sans-Serif" font-size="10.00"> </text>
<polygon fill="#666666" stroke="#666666" points="469,-342 469,-342 590,-342 590,-342 469,-342"/>
<polygon fill="#666666" stroke="#666666" points="469,-326 469,-326 590,-326 590,-326 469,-326"/>
<polygon fill="none" stroke="#666666" points="469,-308 469,-384 590,-384 590,-308 469,-308"/>
</a>
</g>
</g>
<!-- Node2&#45;&gt;Node16 -->
<g id="edge22_Node000016_Node000002" class="edge">
<title>Node2&#45;&gt;Node16</title>
<g id="a_edge22_Node000016_Node000002"><a xlink:title=" ">
<path fill="none" stroke="#63b8ff" d="M1098.23,-502.8C1024.63,-501.74 818.46,-495.08 767.5,-454 748.34,-438.56 767.79,-417.28 748.5,-402 724.65,-383.11 647.13,-391.98 602.58,-384.03"/>
<polygon fill="none" stroke="#63b8ff" points="602.45,-384 595.68,-386.48 590.79,-381.18 597.56,-378.7 602.45,-384"/>
</a>
</g>
<text text-anchor="middle" x="782.5" y="-424.5" font-family="Helvetica,sans-Serif" font-size="10.00" fill="grey"> +keys</text>
</g>
<!-- Node19 -->
<g id="Node000019" class="node">
<title>Node19</title>
<g id="a_Node000019"><a xlink:title=" ">
<polygon fill="white" stroke="none" points="871.5,-378 775.5,-378 775.5,-314 871.5,-314 871.5,-378"/>
<text text-anchor="start" x="780.38" y="-364.5" font-family="Helvetica,sans-Serif" font-size="10.00">std::unordered_map</text>
<text text-anchor="start" x="780.75" y="-352.5" font-family="Helvetica,sans-Serif" font-size="10.00">&lt; EntityName, int &gt;</text>
<text text-anchor="start" x="789" y="-336.5" font-family="Helvetica,sans-Serif" font-size="10.00">+</text>
<text text-anchor="start" x="808.5" y="-336.5" font-family="Helvetica,sans-Serif" font-size="10.00">elements</text>
<text text-anchor="start" x="822" y="-320.5" font-family="Helvetica,sans-Serif" font-size="10.00"> </text>
<polygon fill="#666666" stroke="#666666" points="775.5,-348 775.5,-348 871.5,-348 871.5,-348 775.5,-348"/>
<polygon fill="#666666" stroke="#666666" points="775.5,-332 775.5,-332 806.5,-332 806.5,-332 775.5,-332"/>
<polygon fill="#666666" stroke="#666666" points="806.5,-332 806.5,-332 871.5,-332 871.5,-332 806.5,-332"/>
<polygon fill="none" stroke="#666666" points="775.5,-314 775.5,-378 871.5,-378 871.5,-314 775.5,-314"/>
</a>
</g>
</g>
<!-- Node2&#45;&gt;Node19 -->
<g id="edge28_Node000019_Node000002" class="edge">
<title>Node2&#45;&gt;Node19</title>
<g id="a_edge28_Node000019_Node000002"><a xlink:title=" ">
<path fill="none" stroke="#63b8ff" d="M1122.38,-478C1119.57,-451.43 1113.62,-411.9 1102.5,-402 1072.15,-374.97 960.06,-393.32 920.5,-384 908.13,-381.08 895.22,-376.97 883,-372.54"/>
<polygon fill="none" stroke="#63b8ff" points="883.13,-372.58 876.1,-374.21 871.9,-368.35 878.93,-366.72 883.13,-372.58"/>
</a>
</g>
<text text-anchor="middle" x="1133.5" y="-424.5" font-family="Helvetica,sans-Serif" font-size="10.00" fill="grey"> +keys</text>
</g>
<!-- Node3 -->
<g id="Node000003" class="node">
<title>Node3</title>
<g id="a_Node000003"><a xlink:title=" ">
<polygon fill="white" stroke="none" points="1168.5,-648 1080.5,-648 1080.5,-584 1168.5,-584 1168.5,-648"/>
<text text-anchor="start" x="1085.5" y="-634.5" font-family="Helvetica,sans-Serif" font-size="10.00">std::basic_string&lt;</text>
<text text-anchor="start" x="1108.38" y="-622.5" font-family="Helvetica,sans-Serif" font-size="10.00"> Char &gt;</text>
<text text-anchor="start" x="1123" y="-606.5" font-family="Helvetica,sans-Serif" font-size="10.00"> </text>
<text text-anchor="start" x="1123" y="-590.5" font-family="Helvetica,sans-Serif" font-size="10.00"> </text>
<polygon fill="#666666" stroke="#666666" points="1080.5,-618 1080.5,-618 1168.5,-618 1168.5,-618 1080.5,-618"/>
<polygon fill="#666666" stroke="#666666" points="1080.5,-602 1080.5,-602 1168.5,-602 1168.5,-602 1080.5,-602"/>
<polygon fill="none" stroke="#666666" points="1080.5,-584 1080.5,-648 1168.5,-648 1168.5,-584 1080.5,-584"/>
</a>
</g>
</g>
<!-- Node3&#45;&gt;Node2 -->
<g id="edge2_Node000002_Node000003" class="edge">
<title>Node3&#45;&gt;Node2</title>
<g id="a_edge2_Node000002_Node000003"><a xlink:title=" ">
<path fill="none" stroke="#63b8ff" d="M1124.5,-572.77C1124.5,-558.25 1124.5,-542.47 1124.5,-529.79"/>
<polygon fill="none" stroke="#63b8ff" points="1121,-572.55 1124.5,-582.55 1128,-572.55 1121,-572.55"/>
</a>
</g>
</g>
<!-- Node4 -->
<g id="Node000004" class="node">
<title>Node4</title>
<g id="a_Node000004"><a xlink:title=" ">
<polygon fill="white" stroke="none" points="110.5,-454 2.5,-454 2.5,-402 110.5,-402 110.5,-454"/>
<text text-anchor="start" x="7.38" y="-440.5" font-family="Helvetica,sans-Serif" font-size="10.00">std::queue&lt; EntityID &gt;</text>
<text text-anchor="start" x="19" y="-424.5" font-family="Helvetica,sans-Serif" font-size="10.00">+</text>
<text text-anchor="start" x="41.5" y="-424.5" font-family="Helvetica,sans-Serif" font-size="10.00">elements</text>
<text text-anchor="start" x="55" y="-408.5" font-family="Helvetica,sans-Serif" font-size="10.00"> </text>
<polygon fill="#666666" stroke="#666666" points="2.5,-436 2.5,-436 110.5,-436 110.5,-436 2.5,-436"/>
<polygon fill="#666666" stroke="#666666" points="2.5,-420 2.5,-420 39.5,-420 39.5,-420 2.5,-420"/>
<polygon fill="#666666" stroke="#666666" points="39.5,-420 39.5,-420 110.5,-420 110.5,-420 39.5,-420"/>
<polygon fill="none" stroke="#666666" points="2.5,-402 2.5,-454 110.5,-454 110.5,-402 2.5,-402"/>
</a>
</g>
</g>
<!-- Node4&#45;&gt;Node1 -->
<g id="edge3_Node000001_Node000004" class="edge">
<title>Node4&#45;&gt;Node1</title>
<g id="a_edge3_Node000001_Node000004"><a xlink:title=" ">
<path fill="none" stroke="#63b8ff" d="M61.68,-402.19C68.48,-375.45 82.95,-333.35 110.5,-308 228.01,-199.88 416.04,-156.9 523.67,-140.51"/>
<polygon fill="none" stroke="#63b8ff" points="523.63,-140.51 528.98,-135.68 535.5,-138.77 530.15,-143.6 523.63,-140.51"/>
</a>
</g>
<text text-anchor="middle" x="149.5" y="-342.5" font-family="Helvetica,sans-Serif" font-size="10.00" fill="grey"> #availableEntities</text>
</g>
<!-- Node5 -->
<g id="Node000005" class="node">
<title>Node5</title>
<g id="a_Node000005"><a xlink:title=" ">
<polygon fill="white" stroke="none" points="79,-642 0,-642 0,-590 79,-590 79,-642"/>
<text text-anchor="start" x="5" y="-628.5" font-family="Helvetica,sans-Serif" font-size="10.00">std::queue&lt; T &gt;</text>
<text text-anchor="start" x="38" y="-612.5" font-family="Helvetica,sans-Serif" font-size="10.00"> </text>
<text text-anchor="start" x="38" y="-596.5" font-family="Helvetica,sans-Serif" font-size="10.00"> </text>
<polygon fill="#666666" stroke="#666666" points="0,-624 0,-624 79,-624 79,-624 0,-624"/>
<polygon fill="#666666" stroke="#666666" points="0,-608 0,-608 79,-608 79,-608 0,-608"/>
<polygon fill="none" stroke="#666666" points="0,-590 0,-642 79,-642 79,-590 0,-590"/>
</a>
</g>
</g>
<!-- Node5&#45;&gt;Node4 -->
<g id="edge4_Node000004_Node000005" class="edge">
<title>Node5&#45;&gt;Node4</title>
<g id="a_edge4_Node000004_Node000005"><a xlink:title=" ">
<path fill="none" stroke="orange" d="M42.78,-579.08C46.15,-542.26 51.29,-485.95 54.23,-453.8"/>
<polygon fill="orange" stroke="orange" points="39.32,-578.52 41.9,-588.79 46.29,-579.15 39.32,-578.52"/>
</a>
</g>
<text text-anchor="middle" x="73.25" y="-556.5" font-family="Helvetica,sans-Serif" font-size="10.00" fill="grey"> &lt; EntityID &gt;</text>
</g>
<!-- Node6 -->
<g id="Node000006" class="node">
<title>Node6</title>
<g id="a_Node000006"><a xlink:title=" ">
<polygon fill="white" stroke="none" points="331,-748 316,-748 316,-696 331,-696 331,-748"/>
<text text-anchor="start" x="320.88" y="-734.5" font-family="Helvetica,sans-Serif" font-size="10.00">T</text>
<text text-anchor="start" x="322" y="-718.5" font-family="Helvetica,sans-Serif" font-size="10.00"> </text>
<text text-anchor="start" x="322" y="-702.5" font-family="Helvetica,sans-Serif" font-size="10.00"> </text>
<polygon fill="#666666" stroke="#666666" points="316,-730 316,-730 331,-730 331,-730 316,-730"/>
<polygon fill="#666666" stroke="#666666" points="316,-714 316,-714 331,-714 331,-714 316,-714"/>
<polygon fill="none" stroke="#666666" points="316,-696 316,-748 331,-748 331,-696 316,-696"/>
</a>
</g>
</g>
<!-- Node6&#45;&gt;Node5 -->
<g id="edge5_Node000005_Node000006" class="edge">
<title>Node6&#45;&gt;Node5</title>
<g id="a_edge5_Node000005_Node000006"><a xlink:title=" ">
<path fill="none" stroke="#63b8ff" d="M316.33,-719.5C287.07,-713.23 174.22,-687.58 88.5,-648 88.38,-647.94 88.25,-647.89 88.13,-647.83"/>
<polygon fill="none" stroke="#63b8ff" points="88.12,-647.82 80.95,-648.62 77.46,-642.31 84.62,-641.51 88.12,-647.82"/>
</a>
</g>
<text text-anchor="middle" x="188.88" y="-668.5" font-family="Helvetica,sans-Serif" font-size="10.00" fill="grey"> +elements</text>
</g>
<!-- Node9 -->
<g id="Node000009" class="node">
<title>Node9</title>
<g id="a_Node000009"><a xlink:title=" ">
<polygon fill="white" stroke="none" points="296.5,-642 222.5,-642 222.5,-590 296.5,-590 296.5,-642"/>
<text text-anchor="start" x="227.25" y="-628.5" font-family="Helvetica,sans-Serif" font-size="10.00">std::array&lt; T &gt;</text>
<text text-anchor="start" x="258" y="-612.5" font-family="Helvetica,sans-Serif" font-size="10.00"> </text>
<text text-anchor="start" x="258" y="-596.5" font-family="Helvetica,sans-Serif" font-size="10.00"> </text>
<polygon fill="#666666" stroke="#666666" points="222.5,-624 222.5,-624 296.5,-624 296.5,-624 222.5,-624"/>
<polygon fill="#666666" stroke="#666666" points="222.5,-608 222.5,-608 296.5,-608 296.5,-608 222.5,-608"/>
<polygon fill="none" stroke="#666666" points="222.5,-590 222.5,-642 296.5,-642 296.5,-590 222.5,-590"/>
</a>
</g>
</g>
<!-- Node6&#45;&gt;Node9 -->
<g id="edge9_Node000009_Node000006" class="edge">
<title>Node6&#45;&gt;Node9</title>
<g id="a_edge9_Node000009_Node000006"><a xlink:title=" ">
<path fill="none" stroke="#63b8ff" d="M316.22,-710.52C310.28,-701.89 301.77,-689.28 294.75,-678 289.79,-670.02 284.63,-661.34 279.84,-653.1"/>
<polygon fill="none" stroke="#63b8ff" points="279.8,-653.04 273.35,-649.83 273.82,-642.63 280.28,-645.84 279.8,-653.04"/>
</a>
</g>
<text text-anchor="middle" x="319.88" y="-668.5" font-family="Helvetica,sans-Serif" font-size="10.00" fill="grey"> +elements</text>
</g>
<!-- Node11 -->
<g id="Node000011" class="node">
<title>Node11</title>
<g id="a_Node000011"><a xlink:title=" ">
<polygon fill="white" stroke="none" points="577.5,-536 481.5,-536 481.5,-472 577.5,-472 577.5,-536"/>
<text text-anchor="start" x="486.38" y="-522.5" font-family="Helvetica,sans-Serif" font-size="10.00">std::unordered_map</text>
<text text-anchor="start" x="511.5" y="-510.5" font-family="Helvetica,sans-Serif" font-size="10.00">&lt; K, T &gt;</text>
<text text-anchor="start" x="528" y="-494.5" font-family="Helvetica,sans-Serif" font-size="10.00"> </text>
<text text-anchor="start" x="528" y="-478.5" font-family="Helvetica,sans-Serif" font-size="10.00"> </text>
<polygon fill="#666666" stroke="#666666" points="481.5,-506 481.5,-506 577.5,-506 577.5,-506 481.5,-506"/>
<polygon fill="#666666" stroke="#666666" points="481.5,-490 481.5,-490 577.5,-490 577.5,-490 481.5,-490"/>
<polygon fill="none" stroke="#666666" points="481.5,-472 481.5,-536 577.5,-536 577.5,-472 481.5,-472"/>
</a>
</g>
</g>
<!-- Node6&#45;&gt;Node11 -->
<g id="edge14_Node000011_Node000006" class="edge">
<title>Node6&#45;&gt;Node11</title>
<g id="a_edge14_Node000011_Node000006"><a xlink:title=" ">
<path fill="none" stroke="#63b8ff" d="M330.67,-720.41C357.82,-717.76 455.08,-704.53 501.5,-648 524.15,-620.41 530.34,-579.78 531.33,-548.88"/>
<polygon fill="none" stroke="#63b8ff" points="531.33,-548.77 527.39,-542.73 531.46,-536.77 535.39,-542.81 531.33,-548.77"/>
</a>
</g>
<text text-anchor="middle" x="552.88" y="-612.5" font-family="Helvetica,sans-Serif" font-size="10.00" fill="grey"> +elements</text>
</g>
<!-- Node18 -->
<g id="Node000018" class="node">
<title>Node18</title>
<g id="a_Node000018"><a xlink:title=" ">
<polygon fill="white" stroke="none" points="416.5,-642 338.5,-642 338.5,-590 416.5,-590 416.5,-642"/>
<text text-anchor="start" x="343.38" y="-628.5" font-family="Helvetica,sans-Serif" font-size="10.00">std::vector&lt; T &gt;</text>
<text text-anchor="start" x="376" y="-612.5" font-family="Helvetica,sans-Serif" font-size="10.00"> </text>
<text text-anchor="start" x="376" y="-596.5" font-family="Helvetica,sans-Serif" font-size="10.00"> </text>
<polygon fill="#666666" stroke="#666666" points="338.5,-624 338.5,-624 416.5,-624 416.5,-624 338.5,-624"/>
<polygon fill="#666666" stroke="#666666" points="338.5,-608 338.5,-608 416.5,-608 416.5,-608 338.5,-608"/>
<polygon fill="none" stroke="#666666" points="338.5,-590 338.5,-642 416.5,-642 416.5,-590 338.5,-590"/>
</a>
</g>
</g>
<!-- Node6&#45;&gt;Node18 -->
<g id="edge25_Node000018_Node000006" class="edge">
<title>Node6&#45;&gt;Node18</title>
<g id="a_edge25_Node000018_Node000006"><a xlink:title=" ">
<path fill="none" stroke="#63b8ff" d="M330.78,-706.97C337.9,-693.26 349.04,-671.81 358.66,-653.29"/>
<polygon fill="none" stroke="#63b8ff" points="358.6,-653.4 357.82,-646.23 364.13,-642.75 364.92,-649.92 358.6,-653.4"/>
</a>
</g>
<text text-anchor="middle" x="374.88" y="-668.5" font-family="Helvetica,sans-Serif" font-size="10.00" fill="grey"> +elements</text>
</g>
<!-- Node7 -->
<g id="Node000007" class="node">
<title>Node7</title>
<g id="a_Node000007"><a xlink:title=" ">
<polygon fill="white" stroke="none" points="171.5,-536 67.5,-536 67.5,-472 171.5,-472 171.5,-536"/>
<text text-anchor="start" x="72.25" y="-522.5" font-family="Helvetica,sans-Serif" font-size="10.00">std::array&lt; Signature,</text>
<text text-anchor="start" x="87.62" y="-510.5" font-family="Helvetica,sans-Serif" font-size="10.00"> maxEntities &gt;</text>
<text text-anchor="start" x="118" y="-494.5" font-family="Helvetica,sans-Serif" font-size="10.00"> </text>
<text text-anchor="start" x="118" y="-478.5" font-family="Helvetica,sans-Serif" font-size="10.00"> </text>
<polygon fill="#666666" stroke="#666666" points="67.5,-506 67.5,-506 171.5,-506 171.5,-506 67.5,-506"/>
<polygon fill="#666666" stroke="#666666" points="67.5,-490 67.5,-490 171.5,-490 171.5,-490 67.5,-490"/>
<polygon fill="none" stroke="#666666" points="67.5,-472 67.5,-536 171.5,-536 171.5,-472 67.5,-472"/>
</a>
</g>
</g>
<!-- Node7&#45;&gt;Node1 -->
<g id="edge6_Node000001_Node000007" class="edge">
<title>Node7&#45;&gt;Node1</title>
<g id="a_edge6_Node000001_Node000007"><a xlink:title=" ">
<path fill="none" stroke="#63b8ff" d="M137.35,-472.32C162.67,-430.86 212.42,-356.58 270.25,-308 347.53,-243.09 452.53,-192.55 524.52,-162.39"/>
<polygon fill="none" stroke="#63b8ff" points="524.3,-162.47 528.31,-156.48 535.39,-157.88 531.38,-163.87 524.3,-162.47"/>
</a>
</g>
<text text-anchor="middle" x="297.12" y="-342.5" font-family="Helvetica,sans-Serif" font-size="10.00" fill="grey"> #signatures</text>
</g>
<!-- Node8 -->
<g id="Node000008" class="node">
<title>Node8</title>
<g id="a_Node000008"><a xlink:title=" ">
<polygon fill="white" stroke="none" points="185.5,-642 97.5,-642 97.5,-590 185.5,-590 185.5,-642"/>
<text text-anchor="start" x="102.12" y="-628.5" font-family="Helvetica,sans-Serif" font-size="10.00">std::bitset&lt; Bits &gt;</text>
<text text-anchor="start" x="140" y="-612.5" font-family="Helvetica,sans-Serif" font-size="10.00"> </text>
<text text-anchor="start" x="140" y="-596.5" font-family="Helvetica,sans-Serif" font-size="10.00"> </text>
<polygon fill="#666666" stroke="#666666" points="97.5,-624 97.5,-624 185.5,-624 185.5,-624 97.5,-624"/>
<polygon fill="#666666" stroke="#666666" points="97.5,-608 97.5,-608 185.5,-608 185.5,-608 97.5,-608"/>
<polygon fill="none" stroke="#666666" points="97.5,-590 97.5,-642 185.5,-642 185.5,-590 97.5,-590"/>
</a>
</g>
</g>
<!-- Node8&#45;&gt;Node7 -->
<g id="edge7_Node000007_Node000008" class="edge">
<title>Node8&#45;&gt;Node7</title>
<g id="a_edge7_Node000007_Node000008"><a xlink:title=" ">
<path fill="none" stroke="#63b8ff" d="M136.51,-590.04C134.04,-577.71 131,-562.48 128.17,-548.33"/>
<polygon fill="none" stroke="#63b8ff" points="128.18,-548.4 123.08,-543.3 125.83,-536.64 130.93,-541.74 128.18,-548.4"/>
</a>
</g>
<text text-anchor="middle" x="155.88" y="-556.5" font-family="Helvetica,sans-Serif" font-size="10.00" fill="grey"> +elements</text>
</g>
<!-- Node9&#45;&gt;Node7 -->
<g id="edge8_Node000007_Node000009" class="edge">
<title>Node9&#45;&gt;Node7</title>
<g id="a_edge8_Node000007_Node000009"><a xlink:title=" ">
<path fill="none" stroke="orange" d="M220.81,-583.08C209.21,-573.63 196.4,-563.32 184.5,-554 176.93,-548.07 168.8,-541.84 160.94,-535.88"/>
<polygon fill="orange" stroke="orange" points="218.28,-585.54 228.24,-589.15 222.71,-580.11 218.28,-585.54"/>
</a>
</g>
<text text-anchor="middle" x="259.5" y="-556.5" font-family="Helvetica,sans-Serif" font-size="10.00" fill="grey"> &lt; Signature, maxEntities &gt;</text>
</g>
<!-- Node10&#45;&gt;Node1 -->
<g id="edge10_Node000001_Node000010" class="edge">
<title>Node10&#45;&gt;Node1</title>
<g id="a_edge10_Node000001_Node000010"><a xlink:title=" ">
<path fill="none" stroke="#63b8ff" d="M658.76,-314.34C655.35,-302.37 651.18,-287.73 646.69,-272.01"/>
<polygon fill="none" stroke="#63b8ff" points="646.75,-272.2 641.26,-267.53 643.46,-260.66 648.95,-265.33 646.75,-272.2"/>
</a>
</g>
<text text-anchor="middle" x="690.12" y="-280.5" font-family="Helvetica,sans-Serif" font-size="10.00" fill="grey"> #entityNameToID</text>
</g>
<!-- Node11&#45;&gt;Node10 -->
<g id="edge12_Node000010_Node000011" class="edge">
<title>Node11&#45;&gt;Node10</title>
<g id="a_edge12_Node000010_Node000011"><a xlink:title=" ">
<path fill="none" stroke="orange" d="M586.61,-475.68C596.04,-469.46 605.13,-462.22 612.5,-454 629.43,-435.12 624.46,-424.59 636,-402 640.05,-394.06 644.7,-385.64 649.15,-377.84"/>
<polygon fill="orange" stroke="orange" points="585.07,-472.52 578.41,-480.76 588.75,-478.47 585.07,-472.52"/>
</a>
</g>
<text text-anchor="middle" x="692.75" y="-424.5" font-family="Helvetica,sans-Serif" font-size="10.00" fill="grey"> &lt; EntityName, EntityID &gt;</text>
</g>
<!-- Node11&#45;&gt;Node13 -->
<g id="edge17_Node000013_Node000011" class="edge">
<title>Node11&#45;&gt;Node13</title>
<g id="a_edge17_Node000013_Node000011"><a xlink:title=" ">
<path fill="none" stroke="orange" d="M588.6,-500.19C701.5,-494.28 939.11,-479 966.5,-454 977.53,-443.93 983.32,-405.75 986.13,-377.86"/>
<polygon fill="orange" stroke="orange" points="588.74,-496.68 578.93,-500.69 589.1,-503.67 588.74,-496.68"/>
</a>
</g>
<text text-anchor="middle" x="1038.75" y="-424.5" font-family="Helvetica,sans-Serif" font-size="10.00" fill="grey"> &lt; EntityID, EntityName &gt;</text>
</g>
<!-- Node14 -->
<g id="Node000014" class="node">
<title>Node14</title>
<g id="a_Node000014"><a xlink:title=" ">
<polygon fill="white" stroke="none" points="450.5,-384 332.5,-384 332.5,-308 450.5,-308 450.5,-384"/>
<text text-anchor="start" x="337.12" y="-370.5" font-family="Helvetica,sans-Serif" font-size="10.00">std::unordered_map</text>
<text text-anchor="start" x="337.12" y="-358.5" font-family="Helvetica,sans-Serif" font-size="10.00">&lt; EntityID, GLESC::ECS</text>
<text text-anchor="start" x="351" y="-346.5" font-family="Helvetica,sans-Serif" font-size="10.00">::EntityMetadata &gt;</text>
<text text-anchor="start" x="356" y="-330.5" font-family="Helvetica,sans-Serif" font-size="10.00">+</text>
<text text-anchor="start" x="385.5" y="-330.5" font-family="Helvetica,sans-Serif" font-size="10.00">keys</text>
<text text-anchor="start" x="390" y="-314.5" font-family="Helvetica,sans-Serif" font-size="10.00"> </text>
<polygon fill="#666666" stroke="#666666" points="332.5,-342 332.5,-342 450.5,-342 450.5,-342 332.5,-342"/>
<polygon fill="#666666" stroke="#666666" points="332.5,-326 332.5,-326 383.5,-326 383.5,-326 332.5,-326"/>
<polygon fill="#666666" stroke="#666666" points="383.5,-326 383.5,-326 450.5,-326 450.5,-326 383.5,-326"/>
<polygon fill="none" stroke="#666666" points="332.5,-308 332.5,-384 450.5,-384 450.5,-308 332.5,-308"/>
</a>
</g>
</g>
<!-- Node11&#45;&gt;Node14 -->
<g id="edge20_Node000014_Node000011" class="edge">
<title>Node11&#45;&gt;Node14</title>
<g id="a_edge20_Node000014_Node000011"><a xlink:title=" ">
<path fill="none" stroke="orange" d="M471.45,-475.05C469.11,-474.01 466.78,-472.99 464.5,-472 444.25,-463.25 432.83,-470.55 418.25,-454 401.35,-434.82 394.8,-406.55 392.4,-383.88"/>
<polygon fill="orange" stroke="orange" points="469.83,-478.16 480.38,-479.11 472.73,-471.79 469.83,-478.16"/>
</a>
</g>
<text text-anchor="start" x="418.5" y="-430.5" font-family="Helvetica,sans-Serif" font-size="10.00" fill="grey"> &lt; EntityID, GLESC::</text>
<text text-anchor="middle" x="469.12" y="-418.5" font-family="Helvetica,sans-Serif" font-size="10.00" fill="grey">ECS::EntityMetadata &gt;</text>
</g>
<!-- Node11&#45;&gt;Node16 -->
<g id="edge26_Node000016_Node000011" class="edge">
<title>Node11&#45;&gt;Node16</title>
<g id="a_edge26_Node000016_Node000011"><a xlink:title=" ">
<path fill="none" stroke="orange" d="M524.46,-460.76C524.28,-458.48 524.12,-456.21 524,-454 522.71,-430.92 522.85,-425.08 524,-402 524.29,-396.15 524.76,-389.97 525.3,-383.94"/>
<polygon fill="orange" stroke="orange" points="520.97,-461.06 525.37,-470.69 527.94,-460.41 520.97,-461.06"/>
</a>
</g>
<text text-anchor="start" x="524.5" y="-430.5" font-family="Helvetica,sans-Serif" font-size="10.00" fill="grey"> &lt; EntityName, std::</text>
<text text-anchor="middle" x="568.75" y="-418.5" font-family="Helvetica,sans-Serif" font-size="10.00" fill="grey">vector&lt; EntityID &gt; &gt;</text>
</g>
<!-- Node11&#45;&gt;Node19 -->
<g id="edge29_Node000019_Node000011" class="edge">
<title>Node11&#45;&gt;Node19</title>
<g id="a_edge29_Node000019_Node000011"><a xlink:title=" ">
<path fill="none" stroke="orange" d="M588.69,-499.94C659.43,-495.02 771.98,-482.81 801.5,-454 821.59,-434.4 825.8,-401.7 825.78,-377.6"/>
<polygon fill="orange" stroke="orange" points="588.54,-496.44 578.79,-500.59 589,-503.42 588.54,-496.44"/>
</a>
</g>
<text text-anchor="middle" x="867.75" y="-424.5" font-family="Helvetica,sans-Serif" font-size="10.00" fill="grey"> &lt; EntityName, int &gt;</text>
</g>
<!-- Node12 -->
<g id="Node000012" class="node">
<title>Node12</title>
<g id="a_Node000012"><a xlink:title=" ">
<polygon fill="white" stroke="none" points="492.5,-642 476.5,-642 476.5,-590 492.5,-590 492.5,-642"/>
<text text-anchor="start" x="481.12" y="-628.5" font-family="Helvetica,sans-Serif" font-size="10.00">K</text>
<text text-anchor="start" x="483" y="-612.5" font-family="Helvetica,sans-Serif" font-size="10.00"> </text>
<text text-anchor="start" x="483" y="-596.5" font-family="Helvetica,sans-Serif" font-size="10.00"> </text>
<polygon fill="#666666" stroke="#666666" points="476.5,-624 476.5,-624 492.5,-624 492.5,-624 476.5,-624"/>
<polygon fill="#666666" stroke="#666666" points="476.5,-608 476.5,-608 492.5,-608 492.5,-608 476.5,-608"/>
<polygon fill="none" stroke="#666666" points="476.5,-590 476.5,-642 492.5,-642 492.5,-590 476.5,-590"/>
</a>
</g>
</g>
<!-- Node12&#45;&gt;Node11 -->
<g id="edge13_Node000011_Node000012" class="edge">
<title>Node12&#45;&gt;Node11</title>
<g id="a_edge13_Node000011_Node000012"><a xlink:title=" ">
<path fill="none" stroke="#63b8ff" d="M481.03,-590.19C480.4,-578.8 481.05,-565.34 485.5,-554 486.48,-551.51 487.65,-549.06 488.96,-546.67"/>
<polygon fill="none" stroke="#63b8ff" points="488.92,-546.73 488.89,-539.52 495.53,-536.71 495.57,-543.92 488.92,-546.73"/>
</a>
</g>
<text text-anchor="middle" x="500.5" y="-556.5" font-family="Helvetica,sans-Serif" font-size="10.00" fill="grey"> +keys</text>
</g>
<!-- Node13&#45;&gt;Node1 -->
<g id="edge15_Node000001_Node000013" class="edge">
<title>Node13&#45;&gt;Node1</title>
<g id="a_edge15_Node000001_Node000013"><a xlink:title=" ">
<path fill="none" stroke="#63b8ff" d="M933.36,-314.11C869,-278.05 761.96,-218.09 688,-176.66"/>
<polygon fill="none" stroke="#63b8ff" points="688.14,-176.73 680.95,-177.29 677.67,-170.87 684.86,-170.31 688.14,-176.73"/>
</a>
</g>
<text text-anchor="middle" x="924.12" y="-280.5" font-family="Helvetica,sans-Serif" font-size="10.00" fill="grey"> #entityIDToName</text>
</g>
<!-- Node14&#45;&gt;Node1 -->
<g id="edge18_Node000001_Node000014" class="edge">
<title>Node14&#45;&gt;Node1</title>
<g id="a_edge18_Node000001_Node000014"><a xlink:title=" ">
<path fill="none" stroke="#63b8ff" d="M428.46,-308.21C455.57,-281.23 493.4,-243.57 527.22,-209.91"/>
<polygon fill="none" stroke="#63b8ff" points="527.04,-210.09 528.47,-203.02 535.54,-201.63 534.11,-208.69 527.04,-210.09"/>
</a>
</g>
<text text-anchor="middle" x="491.88" y="-280.5" font-family="Helvetica,sans-Serif" font-size="10.00" fill="grey"> #entityMetadata</text>
</g>
<!-- Node15 -->
<g id="Node000015" class="node">
<title>Node15</title>
<g id="a_Node000015"><a xlink:href="namespace_g_l_e_s_c_1_1_e_c_s.html#struct_g_l_e_s_c_1_1_e_c_s_1_1_entity_metadata" target="_top" xlink:title=" ">
<polygon fill="white" stroke="none" points="331,-530 190,-530 190,-478 331,-478 331,-530"/>
<text text-anchor="start" x="194.88" y="-516.5" font-family="Helvetica,sans-Serif" font-size="10.00">GLESC::ECS::EntityMetadata</text>
<text text-anchor="start" x="220" y="-500.5" font-family="Helvetica,sans-Serif" font-size="10.00">+</text>
<text text-anchor="start" x="256" y="-500.5" font-family="Helvetica,sans-Serif" font-size="10.00">type</text>
<text text-anchor="start" x="259" y="-484.5" font-family="Helvetica,sans-Serif" font-size="10.00"> </text>
<polygon fill="#666666" stroke="#666666" points="190,-512 190,-512 331,-512 331,-512 190,-512"/>
<polygon fill="#666666" stroke="#666666" points="190,-496 190,-496 254,-496 254,-496 190,-496"/>
<polygon fill="#666666" stroke="#666666" points="254,-496 254,-496 331,-496 331,-496 254,-496"/>
<polygon fill="none" stroke="#666666" points="190,-478 190,-530 331,-530 331,-478 190,-478"/>
</a>
</g>
</g>
<!-- Node15&#45;&gt;Node14 -->
<g id="edge19_Node000014_Node000015" class="edge">
<title>Node15&#45;&gt;Node14</title>
<g id="a_edge19_Node000014_Node000015"><a xlink:title=" ">
<path fill="none" stroke="#63b8ff" d="M255.01,-478.27C251.59,-456.27 250.37,-424.24 265.75,-402 278.67,-383.33 299.4,-370.93 320.33,-362.73"/>
<polygon fill="none" stroke="#63b8ff" points="320.46,-362.69 324.77,-356.91 331.77,-358.67 327.45,-364.45 320.46,-362.69"/>
</a>
</g>
<text text-anchor="middle" x="290.88" y="-424.5" font-family="Helvetica,sans-Serif" font-size="10.00" fill="grey"> +elements</text>
</g>
<!-- Node16&#45;&gt;Node1 -->
<g id="edge21_Node000001_Node000016" class="edge">
<title>Node16&#45;&gt;Node1</title>
<g id="a_edge21_Node000001_Node000016"><a xlink:title=" ">
<path fill="none" stroke="#63b8ff" d="M542.74,-308.21C546.59,-297.51 551.04,-285.12 555.77,-271.98"/>
<polygon fill="none" stroke="#63b8ff" points="555.82,-271.85 554.09,-264.85 559.88,-260.56 561.61,-267.56 555.82,-271.85"/>
</a>
</g>
<text text-anchor="middle" x="594.12" y="-280.5" font-family="Helvetica,sans-Serif" font-size="10.00" fill="grey"> #instancedEntities</text>
</g>
<!-- Node17 -->
<g id="Node000017" class="node">
<title>Node17</title>
<g id="a_Node000017"><a xlink:title=" ">
<polygon fill="white" stroke="none" points="456,-530 349,-530 349,-478 456,-478 456,-530"/>
<text text-anchor="start" x="353.75" y="-516.5" font-family="Helvetica,sans-Serif" font-size="10.00">std::vector&lt; EntityID &gt;</text>
<text text-anchor="start" x="365.5" y="-500.5" font-family="Helvetica,sans-Serif" font-size="10.00">+</text>
<text text-anchor="start" x="388" y="-500.5" font-family="Helvetica,sans-Serif" font-size="10.00">elements</text>
<text text-anchor="start" x="401" y="-484.5" font-family="Helvetica,sans-Serif" font-size="10.00"> </text>
<polygon fill="#666666" stroke="#666666" points="349,-512 349,-512 456,-512 456,-512 349,-512"/>
<polygon fill="#666666" stroke="#666666" points="349,-496 349,-496 386,-496 386,-496 349,-496"/>
<polygon fill="#666666" stroke="#666666" points="386,-496 386,-496 456,-496 456,-496 386,-496"/>
<polygon fill="none" stroke="#666666" points="349,-478 349,-530 456,-530 456,-478 349,-478"/>
</a>
</g>
</g>
<!-- Node17&#45;&gt;Node16 -->
<g id="edge23_Node000016_Node000017" class="edge">
<title>Node17&#45;&gt;Node16</title>
<g id="a_edge23_Node000016_Node000017"><a xlink:title=" ">
<path fill="none" stroke="#63b8ff" d="M349.64,-478.12C340.84,-471.55 332.91,-463.56 327.75,-454 316.77,-433.67 312.55,-419.41 327.75,-402 345.24,-381.95 415.24,-390.74 456.74,-383.5"/>
<polygon fill="none" stroke="#63b8ff" points="456.82,-383.48 461.72,-378.18 468.49,-380.65 463.6,-385.95 456.82,-383.48"/>
</a>
</g>
<text text-anchor="middle" x="352.88" y="-424.5" font-family="Helvetica,sans-Serif" font-size="10.00" fill="grey"> +elements</text>
</g>
<!-- Node18&#45;&gt;Node17 -->
<g id="edge24_Node000017_Node000018" class="edge">
<title>Node18&#45;&gt;Node17</title>
<g id="a_edge24_Node000017_Node000018"><a xlink:title=" ">
<path fill="none" stroke="orange" d="M385.71,-578.87C389.36,-562.82 393.56,-544.33 396.85,-529.86"/>
<polygon fill="orange" stroke="orange" points="382.31,-578.04 383.51,-588.56 389.14,-579.59 382.31,-578.04"/>
</a>
</g>
<text text-anchor="middle" x="419.25" y="-556.5" font-family="Helvetica,sans-Serif" font-size="10.00" fill="grey"> &lt; EntityID &gt;</text>
</g>
<!-- Node19&#45;&gt;Node1 -->
<g id="edge27_Node000001_Node000019" class="edge">
<title>Node19&#45;&gt;Node1</title>
<g id="a_edge27_Node000001_Node000019"><a xlink:title=" ">
<path fill="none" stroke="#63b8ff" d="M792.41,-314.34C764.75,-287.06 723.09,-245.98 686.21,-209.61"/>
<polygon fill="none" stroke="#63b8ff" points="686.14,-209.54 679.06,-208.17 677.6,-201.11 684.68,-202.48 686.14,-209.54"/>
</a>
</g>
<text text-anchor="middle" x="804.25" y="-280.5" font-family="Helvetica,sans-Serif" font-size="10.00" fill="grey"> #instancesNextID</text>
</g>
</g>
</svg>
