<?xml version="1.0" encoding="UTF-8" standalone="no"?>
<!DOCTYPE svg PUBLIC "-//W3C//DTD SVG 1.1//EN"
 "http://www.w3.org/Graphics/SVG/1.1/DTD/svg11.dtd">
<!-- Generated by graphviz version 11.0.0 (20240428.1522)
 -->
<!-- Title: EntityStatsManager Pages: 1 -->
<!--zoomable 984 -->

<svg id="main" version="1.1" xmlns="http://www.w3.org/2000/svg" xmlns:xlink="http://www.w3.org/1999/xlink" xml:space="preserve" onload="init(evt)">
<style type="text/css"><![CDATA[
.node, .edge {opacity: 0.7;}
.node.selected, .edge.selected {opacity: 1;}
.edge:hover path { stroke: red; }
.edge:hover polygon { stroke: red; fill: red; }
]]></style>

<defs>
  <circle id="rim" cx="0" cy="0" r="7"/>
  <circle id="rim2" cx="0" cy="0" r="3.5"/>
  <g id="zoomPlus">
    <use xlink:href="#rim" fill="#404040"><set attributeName="fill" to="#808080" begin="zoomplus.mouseover" end="zoomplus.mouseout"/></use>
    <path d="M-4,0h8M0,-4v8" fill="none" stroke="white" stroke-width="1.5" pointer-events="none"/>
  </g>
  <g id="zoomMin">
    <use xlink:href="#rim" fill="#404040"><set attributeName="fill" to="#808080" begin="zoomminus.mouseover" end="zoomminus.mouseout"/></use>
    <path d="M-4,0h8" fill="none" stroke="white" stroke-width="1.5" pointer-events="none"/>
  </g>
  <g id="arrowUp" transform="translate(30 24)">
    <use xlink:href="#rim"/>
    <path pointer-events="none" fill="none" stroke="white" stroke-width="1.5" d="M0,-3.0v7 M-2.5,-0.5L0,-3.0L2.5,-0.5"/>
  </g>
  <g id="arrowRight" transform="rotate(90) translate(36 -43)">
    <use xlink:href="#rim"/>
    <path pointer-events="none" fill="none" stroke="white" stroke-width="1.5" d="M0,-3.0v7 M-2.5,-0.5L0,-3.0L2.5,-0.5"/>
  </g>
  <g id="arrowDown" transform="rotate(180) translate(-30 -48)">
    <use xlink:href="#rim"/>
    <path pointer-events="none" fill="none" stroke="white" stroke-width="1.5" d="M0,-3.0v7 M-2.5,-0.5L0,-3.0L2.5,-0.5"/>
  </g>
  <g id="arrowLeft" transform="rotate(270) translate(-36 17)">
    <use xlink:href="#rim"/>
    <path pointer-events="none" fill="none" stroke="white" stroke-width="1.5" d="M0,-3.0v7 M-2.5,-0.5L0,-3.0L2.5,-0.5"/>
  </g>
  <g id="resetDef">
    <use xlink:href="#rim2" fill="#404040"><set attributeName="fill" to="#808080" begin="reset.mouseover" end="reset.mouseout"/></use>
  </g>
</defs>
<script type="application/ecmascript">
var viewWidth = 339;
var viewHeight = 984;
var sectionId = 'dynsection-0';
</script>
<script type="application/ecmascript" xlink:href="svg.min.js"/>
<svg id="graph" class="graph">
<g id="viewport">
<title>EntityStatsManager</title>
<!-- Node1 -->
<g id="Node000001" class="node">
<title>Node1</title>
<g id="a_Node000001"><a xlink:title="Class that encapsulates the logic of the entity stats manager.">
<polygon fill="#999999" stroke="none" points="280,-68 184,-68 184,0 280,0 280,-68"/>
<text text-anchor="start" x="188.88" y="-54.5" font-family="Helvetica,sans-Serif" font-size="10.00">EntityStatsManager</text>
<text text-anchor="start" x="230.5" y="-38.5" font-family="Helvetica,sans-Serif" font-size="10.00"> </text>
<text text-anchor="start" x="191" y="-22.5" font-family="Helvetica,sans-Serif" font-size="10.00">+</text>
<text text-anchor="start" x="204" y="-22.5" font-family="Helvetica,sans-Serif" font-size="10.00">getEntityData()</text>
<text text-anchor="start" x="191" y="-6.5" font-family="Helvetica,sans-Serif" font-size="10.00">+</text>
<text text-anchor="start" x="204" y="-6.5" font-family="Helvetica,sans-Serif" font-size="10.00">setEntityData()</text>
<polygon fill="#666666" stroke="#666666" points="184,-50 184,-50 280,-50 280,-50 184,-50"/>
<polygon fill="#666666" stroke="#666666" points="184,-34 184,-34 280,-34 280,-34 184,-34"/>
<polygon fill="none" stroke="#666666" points="184,0 184,-68 280,-68 280,0 184,0"/>
</a>
</g>
</g>
<!-- Node2 -->
<g id="Node000002" class="node">
<title>Node2</title>
<g id="a_Node000002"><a xlink:href="class_entity_stats_manager.html#struct_entity_stats_manager_1_1_entity_data" target="_top" xlink:title=" ">
<polygon fill="white" stroke="none" points="280,-180 184,-180 184,-116 280,-116 280,-180"/>
<text text-anchor="start" x="188.88" y="-166.5" font-family="Helvetica,sans-Serif" font-size="10.00">EntityStatsManager</text>
<text text-anchor="start" x="206.12" y="-154.5" font-family="Helvetica,sans-Serif" font-size="10.00">::EntityData</text>
<text text-anchor="start" x="230.5" y="-138.5" font-family="Helvetica,sans-Serif" font-size="10.00"> </text>
<text text-anchor="start" x="230.5" y="-122.5" font-family="Helvetica,sans-Serif" font-size="10.00"> </text>
<polygon fill="#666666" stroke="#666666" points="184,-150 184,-150 280,-150 280,-150 184,-150"/>
<polygon fill="#666666" stroke="#666666" points="184,-134 184,-134 280,-134 280,-134 184,-134"/>
<polygon fill="none" stroke="#666666" points="184,-116 184,-180 280,-180 280,-116 184,-116"/>
</a>
</g>
</g>
<!-- Node2&#45;&gt;Node1 -->
<g id="edge1_Node000001_Node000002" class="edge">
<title>Node2&#45;&gt;Node1</title>
<g id="a_edge1_Node000001_Node000002"><a xlink:title=" ">
<path fill="none" stroke="#63b8ff" d="M232,-116.1C232,-105.18 232,-92.67 232,-80.78"/>
<polygon fill="none" stroke="#63b8ff" points="232,-80.66 228,-74.66 232,-68.66 236,-74.66 232,-80.66"/>
</a>
</g>
<text text-anchor="middle" x="257.12" y="-88.5" font-family="Helvetica,sans-Serif" font-size="10.00" fill="grey"> &#45;entityData</text>
</g>
<!-- Node3 -->
<g id="Node000003" class="node">
<title>Node3</title>
<g id="a_Node000003"><a xlink:title=" ">
<polygon fill="white" stroke="none" points="276.5,-876 223.5,-876 223.5,-824 276.5,-824 276.5,-876"/>
<text text-anchor="start" x="228.25" y="-862.5" font-family="Helvetica,sans-Serif" font-size="10.00">std::string</text>
<text text-anchor="start" x="248.5" y="-846.5" font-family="Helvetica,sans-Serif" font-size="10.00"> </text>
<text text-anchor="start" x="248.5" y="-830.5" font-family="Helvetica,sans-Serif" font-size="10.00"> </text>
<polygon fill="#666666" stroke="#666666" points="223.5,-858 223.5,-858 276.5,-858 276.5,-858 223.5,-858"/>
<polygon fill="#666666" stroke="#666666" points="223.5,-842 223.5,-842 276.5,-842 276.5,-842 223.5,-842"/>
<polygon fill="none" stroke="#666666" points="223.5,-824 223.5,-876 276.5,-876 276.5,-824 223.5,-824"/>
</a>
</g>
</g>
<!-- Node3&#45;&gt;Node2 -->
<g id="edge2_Node000002_Node000003" class="edge">
<title>Node3&#45;&gt;Node2</title>
<g id="a_edge2_Node000002_Node000003"><a xlink:title=" ">
<path fill="none" stroke="#63b8ff" d="M261.5,-824.25C275.7,-791.36 298,-731.1 298,-677 298,-677 298,-677 298,-259 298,-233.82 285.13,-209.43 270.75,-190.03"/>
<polygon fill="none" stroke="#63b8ff" points="270.67,-189.93 263.81,-187.7 263.24,-180.51 270.1,-182.74 270.67,-189.93"/>
</a>
</g>
<text text-anchor="middle" x="314.5" y="-430.5" font-family="Helvetica,sans-Serif" font-size="10.00" fill="grey"> +name</text>
</g>
<!-- Node6 -->
<g id="Node000006" class="node">
<title>Node6</title>
<g id="a_Node000006"><a xlink:href="class_entity_stats_manager.html#struct_entity_stats_manager_1_1_component_data" target="_top" xlink:title=" ">
<polygon fill="white" stroke="none" points="235.5,-404 138.5,-404 138.5,-340 235.5,-340 235.5,-404"/>
<text text-anchor="start" x="143.88" y="-390.5" font-family="Helvetica,sans-Serif" font-size="10.00">EntityStatsManager</text>
<text text-anchor="start" x="149.12" y="-378.5" font-family="Helvetica,sans-Serif" font-size="10.00">::ComponentData</text>
<text text-anchor="start" x="142.5" y="-362.5" font-family="Helvetica,sans-Serif" font-size="10.00">+</text>
<text text-anchor="start" x="152.5" y="-362.5" font-family="Helvetica,sans-Serif" font-size="10.00">getUpdatedValues</text>
<text text-anchor="start" x="185.5" y="-346.5" font-family="Helvetica,sans-Serif" font-size="10.00"> </text>
<polygon fill="#666666" stroke="#666666" points="138.5,-374 138.5,-374 235.5,-374 235.5,-374 138.5,-374"/>
<polygon fill="#666666" stroke="#666666" points="138.5,-358 138.5,-358 150.5,-358 150.5,-358 138.5,-358"/>
<polygon fill="#666666" stroke="#666666" points="150.5,-358 150.5,-358 235.5,-358 235.5,-358 150.5,-358"/>
<polygon fill="none" stroke="#666666" points="138.5,-340 138.5,-404 235.5,-404 235.5,-340 138.5,-340"/>
</a>
</g>
</g>
<!-- Node3&#45;&gt;Node6 -->
<g id="edge6_Node000006_Node000003" class="edge">
<title>Node3&#45;&gt;Node6</title>
<g id="a_edge6_Node000006_Node000003"><a xlink:title=" ">
<path fill="none" stroke="#63b8ff" d="M250.73,-824.02C252.11,-762.39 253.21,-598.36 231,-464 227.83,-444.85 227.06,-439.66 219,-422 217.96,-419.71 216.81,-417.41 215.6,-415.12"/>
<polygon fill="none" stroke="#63b8ff" points="215.54,-415.01 209.09,-411.81 209.56,-404.61 216.02,-407.82 215.54,-415.01"/>
</a>
</g>
<text text-anchor="middle" x="259.5" y="-554.5" font-family="Helvetica,sans-Serif" font-size="10.00" fill="grey"> +name</text>
</g>
<!-- Node8 -->
<g id="Node000008" class="node">
<title>Node8</title>
<g id="a_Node000008"><a xlink:href="class_entity_stats_manager.html#struct_entity_stats_manager_1_1_value" target="_top" xlink:title="Struct that holds the data of a value of a component.">
<polygon fill="white" stroke="none" points="222,-764 126,-764 126,-588 222,-588 222,-764"/>
<text text-anchor="start" x="130.88" y="-750.5" font-family="Helvetica,sans-Serif" font-size="10.00">EntityStatsManager</text>
<text text-anchor="start" x="158.62" y="-738.5" font-family="Helvetica,sans-Serif" font-size="10.00">::Value</text>
<text text-anchor="start" x="136.5" y="-722.5" font-family="Helvetica,sans-Serif" font-size="10.00">+</text>
<text text-anchor="start" x="153" y="-722.5" font-family="Helvetica,sans-Serif" font-size="10.00">data</text>
<text text-anchor="start" x="136.5" y="-706.5" font-family="Helvetica,sans-Serif" font-size="10.00">+</text>
<text text-anchor="start" x="153" y="-706.5" font-family="Helvetica,sans-Serif" font-size="10.00">isModifiable</text>
<text text-anchor="start" x="136.5" y="-690.5" font-family="Helvetica,sans-Serif" font-size="10.00">+</text>
<text text-anchor="start" x="153" y="-690.5" font-family="Helvetica,sans-Serif" font-size="10.00">isString</text>
<text text-anchor="start" x="136.5" y="-674.5" font-family="Helvetica,sans-Serif" font-size="10.00">+</text>
<text text-anchor="start" x="153" y="-674.5" font-family="Helvetica,sans-Serif" font-size="10.00">max</text>
<text text-anchor="start" x="136.5" y="-658.5" font-family="Helvetica,sans-Serif" font-size="10.00">+</text>
<text text-anchor="start" x="153" y="-658.5" font-family="Helvetica,sans-Serif" font-size="10.00">min</text>
<text text-anchor="start" x="136.5" y="-642.5" font-family="Helvetica,sans-Serif" font-size="10.00">+</text>
<text text-anchor="start" x="153" y="-642.5" font-family="Helvetica,sans-Serif" font-size="10.00">type</text>
<text text-anchor="start" x="136.5" y="-626.5" font-family="Helvetica,sans-Serif" font-size="10.00">+</text>
<text text-anchor="start" x="153" y="-626.5" font-family="Helvetica,sans-Serif" font-size="10.00">usesSlider</text>
<text text-anchor="start" x="136.5" y="-610.5" font-family="Helvetica,sans-Serif" font-size="10.00">+</text>
<text text-anchor="start" x="153" y="-610.5" font-family="Helvetica,sans-Serif" font-size="10.00">valueDirty</text>
<text text-anchor="start" x="172.5" y="-594.5" font-family="Helvetica,sans-Serif" font-size="10.00"> </text>
<polygon fill="#666666" stroke="#666666" points="126,-734 126,-734 222,-734 222,-734 126,-734"/>
<polygon fill="#666666" stroke="#666666" points="126,-606 126,-606 151,-606 151,-606 126,-606"/>
<polygon fill="#666666" stroke="#666666" points="151,-606 151,-606 222,-606 222,-606 151,-606"/>
<polygon fill="none" stroke="#666666" points="126,-588 126,-764 222,-764 222,-588 126,-588"/>
</a>
</g>
</g>
<!-- Node3&#45;&gt;Node8 -->
<g id="edge9_Node000008_Node000003" class="edge">
<title>Node3&#45;&gt;Node8</title>
<g id="a_edge9_Node000008_Node000003"><a xlink:title=" ">
<path fill="none" stroke="#63b8ff" d="M223.8,-838.25C210.09,-831.18 194.39,-820.54 185.75,-806 180.4,-797 176.61,-787 173.99,-776.67"/>
<polygon fill="none" stroke="#63b8ff" points="173.97,-776.58 168.83,-771.52 171.52,-764.83 176.66,-769.89 173.97,-776.58"/>
</a>
</g>
<text text-anchor="middle" x="211.12" y="-796.5" font-family="Helvetica,sans-Serif" font-size="10.00" fill="grey"> +name</text>
<text text-anchor="middle" x="211.12" y="-784.5" font-family="Helvetica,sans-Serif" font-size="10.00" fill="grey">+stringData</text>
</g>
<!-- Node4 -->
<g id="Node000004" class="node">
<title>Node4</title>
<g id="a_Node000004"><a xlink:title=" ">
<polygon fill="white" stroke="none" points="294,-976 206,-976 206,-912 294,-912 294,-976"/>
<text text-anchor="start" x="211" y="-962.5" font-family="Helvetica,sans-Serif" font-size="10.00">std::basic_string&lt;</text>
<text text-anchor="start" x="233.88" y="-950.5" font-family="Helvetica,sans-Serif" font-size="10.00"> Char &gt;</text>
<text text-anchor="start" x="248.5" y="-934.5" font-family="Helvetica,sans-Serif" font-size="10.00"> </text>
<text text-anchor="start" x="248.5" y="-918.5" font-family="Helvetica,sans-Serif" font-size="10.00"> </text>
<polygon fill="#666666" stroke="#666666" points="206,-946 206,-946 294,-946 294,-946 206,-946"/>
<polygon fill="#666666" stroke="#666666" points="206,-930 206,-930 294,-930 294,-930 206,-930"/>
<polygon fill="none" stroke="#666666" points="206,-912 206,-976 294,-976 294,-912 206,-912"/>
</a>
</g>
</g>
<!-- Node4&#45;&gt;Node3 -->
<g id="edge3_Node000003_Node000004" class="edge">
<title>Node4&#45;&gt;Node3</title>
<g id="a_edge3_Node000003_Node000004"><a xlink:title=" ">
<path fill="none" stroke="#63b8ff" d="M250,-900.72C250,-892.21 250,-883.53 250,-875.86"/>
<polygon fill="none" stroke="#63b8ff" points="246.5,-900.6 250,-910.6 253.5,-900.6 246.5,-900.6"/>
</a>
</g>
</g>
<!-- Node5 -->
<g id="Node000005" class="node">
<title>Node5</title>
<g id="a_Node000005"><a xlink:title=" ">
<polygon fill="white" stroke="none" points="253,-292 121,-292 121,-228 253,-228 253,-292"/>
<text text-anchor="start" x="125.88" y="-278.5" font-family="Helvetica,sans-Serif" font-size="10.00">std::vector&lt; EntityStats</text>
<text text-anchor="start" x="125.88" y="-266.5" font-family="Helvetica,sans-Serif" font-size="10.00">Manager::ComponentData &gt;</text>
<text text-anchor="start" x="185.5" y="-250.5" font-family="Helvetica,sans-Serif" font-size="10.00"> </text>
<text text-anchor="start" x="185.5" y="-234.5" font-family="Helvetica,sans-Serif" font-size="10.00"> </text>
<polygon fill="#666666" stroke="#666666" points="121,-262 121,-262 253,-262 253,-262 121,-262"/>
<polygon fill="#666666" stroke="#666666" points="121,-246 121,-246 253,-246 253,-246 121,-246"/>
<polygon fill="none" stroke="#666666" points="121,-228 121,-292 253,-292 253,-228 121,-228"/>
</a>
</g>
</g>
<!-- Node5&#45;&gt;Node2 -->
<g id="edge4_Node000002_Node000005" class="edge">
<title>Node5&#45;&gt;Node2</title>
<g id="a_edge4_Node000002_Node000005"><a xlink:title=" ">
<path fill="none" stroke="#63b8ff" d="M199.65,-228.07C204.3,-216.72 209.63,-203.68 214.61,-191.5"/>
<polygon fill="none" stroke="#63b8ff" points="214.56,-191.64 213.12,-184.57 219.1,-180.54 220.53,-187.6 214.56,-191.64"/>
</a>
</g>
<text text-anchor="middle" x="241.12" y="-200.5" font-family="Helvetica,sans-Serif" font-size="10.00" fill="grey"> +components</text>
</g>
<!-- Node6&#45;&gt;Node5 -->
<g id="edge5_Node000005_Node000006" class="edge">
<title>Node6&#45;&gt;Node5</title>
<g id="a_edge5_Node000005_Node000006"><a xlink:title=" ">
<path fill="none" stroke="#63b8ff" d="M187,-340.07C187,-329.08 187,-316.49 187,-304.64"/>
<polygon fill="none" stroke="#63b8ff" points="187,-304.6 183,-298.6 187,-292.6 191,-298.6 187,-304.6"/>
</a>
</g>
<text text-anchor="middle" x="211.38" y="-312.5" font-family="Helvetica,sans-Serif" font-size="10.00" fill="grey"> +elements</text>
</g>
<!-- Node7 -->
<g id="Node000007" class="node">
<title>Node7</title>
<g id="a_Node000007"><a xlink:title=" ">
<polygon fill="white" stroke="none" points="222,-528 110,-528 110,-464 222,-464 222,-528"/>
<text text-anchor="start" x="114.62" y="-514.5" font-family="Helvetica,sans-Serif" font-size="10.00">std::vector&lt; EntityStats</text>
<text text-anchor="start" x="127.38" y="-502.5" font-family="Helvetica,sans-Serif" font-size="10.00">Manager::Value &gt;</text>
<text text-anchor="start" x="164.5" y="-486.5" font-family="Helvetica,sans-Serif" font-size="10.00"> </text>
<text text-anchor="start" x="164.5" y="-470.5" font-family="Helvetica,sans-Serif" font-size="10.00"> </text>
<polygon fill="#666666" stroke="#666666" points="110,-498 110,-498 222,-498 222,-498 110,-498"/>
<polygon fill="#666666" stroke="#666666" points="110,-482 110,-482 222,-482 222,-482 110,-482"/>
<polygon fill="none" stroke="#666666" points="110,-464 110,-528 222,-528 222,-464 110,-464"/>
</a>
</g>
</g>
<!-- Node7&#45;&gt;Node6 -->
<g id="edge7_Node000006_Node000007" class="edge">
<title>Node7&#45;&gt;Node6</title>
<g id="a_edge7_Node000006_Node000007"><a xlink:title=" ">
<path fill="none" stroke="#63b8ff" d="M171.3,-464.21C173.79,-449.77 176.79,-432.29 179.51,-416.52"/>
<polygon fill="none" stroke="#63b8ff" points="179.51,-416.49 176.59,-409.9 181.55,-404.66 184.47,-411.26 179.51,-416.49"/>
</a>
</g>
<text text-anchor="middle" x="197" y="-430.5" font-family="Helvetica,sans-Serif" font-size="10.00" fill="grey"> +values</text>
</g>
<!-- Node8&#45;&gt;Node7 -->
<g id="edge8_Node000007_Node000008" class="edge">
<title>Node8&#45;&gt;Node7</title>
<g id="a_edge8_Node000007_Node000008"><a xlink:title=" ">
<path fill="none" stroke="#63b8ff" d="M170.09,-588.09C169.35,-571.46 168.6,-554.75 167.94,-540.25"/>
<polygon fill="none" stroke="#63b8ff" points="167.96,-540.52 163.69,-534.7 167.42,-528.53 171.68,-534.35 167.96,-540.52"/>
</a>
</g>
<text text-anchor="middle" x="194.38" y="-554.5" font-family="Helvetica,sans-Serif" font-size="10.00" fill="grey"> +elements</text>
</g>
<!-- Node9 -->
<g id="Node000009" class="node">
<title>Node9</title>
<g id="a_Node000009"><a xlink:title=" ">
<polygon fill="white" stroke="none" points="78,-702 0,-702 0,-650 78,-650 78,-702"/>
<text text-anchor="start" x="4.88" y="-688.5" font-family="Helvetica,sans-Serif" font-size="10.00">std::vector&lt; T &gt;</text>
<text text-anchor="start" x="37.5" y="-672.5" font-family="Helvetica,sans-Serif" font-size="10.00"> </text>
<text text-anchor="start" x="37.5" y="-656.5" font-family="Helvetica,sans-Serif" font-size="10.00"> </text>
<polygon fill="#666666" stroke="#666666" points="0,-684 0,-684 78,-684 78,-684 0,-684"/>
<polygon fill="#666666" stroke="#666666" points="0,-668 0,-668 78,-668 78,-668 0,-668"/>
<polygon fill="none" stroke="#666666" points="0,-650 0,-702 78,-702 78,-650 0,-650"/>
</a>
</g>
</g>
<!-- Node9&#45;&gt;Node5 -->
<g id="edge12_Node000005_Node000009" class="edge">
<title>Node9&#45;&gt;Node5</title>
<g id="a_edge12_Node000005_Node000009"><a xlink:title=" ">
<path fill="none" stroke="orange" d="M38.19,-638.98C38.29,-588.55 42.99,-494.93 72.75,-422 93.15,-372.02 131.69,-322.6 158.33,-291.97"/>
<polygon fill="orange" stroke="orange" points="34.69,-638.74 38.24,-648.73 41.69,-638.71 34.69,-638.74"/>
</a>
</g>
<text text-anchor="start" x="73" y="-436.5" font-family="Helvetica,sans-Serif" font-size="10.00" fill="grey"> &lt; EntityStatsManager</text>
<text text-anchor="middle" x="122.12" y="-424.5" font-family="Helvetica,sans-Serif" font-size="10.00" fill="grey">::ComponentData &gt;</text>
</g>
<!-- Node9&#45;&gt;Node7 -->
<g id="edge10_Node000007_Node000009" class="edge">
<title>Node9&#45;&gt;Node7</title>
<g id="a_edge10_Node000007_Node000009"><a xlink:title=" ">
<path fill="none" stroke="orange" d="M38.58,-638.7C40.04,-610.69 46.17,-572.4 66.75,-546 77.8,-531.83 94.01,-521.47 110.15,-514.04"/>
<polygon fill="orange" stroke="orange" points="35.08,-638.38 38.25,-648.49 42.08,-638.62 35.08,-638.38"/>
</a>
</g>
<text text-anchor="start" x="67" y="-560.5" font-family="Helvetica,sans-Serif" font-size="10.00" fill="grey"> &lt; EntityStatsManager</text>
<text text-anchor="middle" x="116.12" y="-548.5" font-family="Helvetica,sans-Serif" font-size="10.00" fill="grey">::Value &gt;</text>
</g>
<!-- Node10 -->
<g id="Node000010" class="node">
<title>Node10</title>
<g id="a_Node000010"><a xlink:title=" ">
<polygon fill="white" stroke="none" points="46.5,-876 31.5,-876 31.5,-824 46.5,-824 46.5,-876"/>
<text text-anchor="start" x="36.38" y="-862.5" font-family="Helvetica,sans-Serif" font-size="10.00">T</text>
<text text-anchor="start" x="37.5" y="-846.5" font-family="Helvetica,sans-Serif" font-size="10.00"> </text>
<text text-anchor="start" x="37.5" y="-830.5" font-family="Helvetica,sans-Serif" font-size="10.00"> </text>
<polygon fill="#666666" stroke="#666666" points="31.5,-858 31.5,-858 46.5,-858 46.5,-858 31.5,-858"/>
<polygon fill="#666666" stroke="#666666" points="31.5,-842 31.5,-842 46.5,-842 46.5,-842 31.5,-842"/>
<polygon fill="none" stroke="#666666" points="31.5,-824 31.5,-876 46.5,-876 46.5,-824 31.5,-824"/>
</a>
</g>
</g>
<!-- Node10&#45;&gt;Node9 -->
<g id="edge11_Node000009_Node000010" class="edge">
<title>Node10&#45;&gt;Node9</title>
<g id="a_edge11_Node000009_Node000010"><a xlink:title=" ">
<path fill="none" stroke="#63b8ff" d="M39,-824.36C39,-795.7 39,-748.08 39,-714.75"/>
<polygon fill="none" stroke="#63b8ff" points="39,-714.78 35,-708.78 39,-702.78 43,-708.78 39,-714.78"/>
</a>
</g>
<text text-anchor="middle" x="63.38" y="-790.5" font-family="Helvetica,sans-Serif" font-size="10.00" fill="grey"> +elements</text>
</g>
</g>
</svg>

<g id="navigator" transform="translate(0 0)" fill="#404254">
  <rect fill="#f2f5e9" fill-opacity="0.5" stroke="#606060" stroke-width=".5" x="0" y="0" width="60" height="60"/>
  <use id="zoomplus" xlink:href="#zoomPlus" x="17" y="9" onmousedown="handleZoom(evt,'in')"/>
  <use id="zoomminus" xlink:href="#zoomMin" x="42" y="9" onmousedown="handleZoom(evt,'out')"/>
  <use id="reset" xlink:href="#resetDef" x="30" y="36" onmousedown="handleReset()"/>
   <use id="arrowup" xlink:href="#arrowUp" x="0" y="0" onmousedown="handlePan(0,-1)"/>
  <use id="arrowright" xlink:href="#arrowRight" x="0" y="0" onmousedown="handlePan(1,0)"/>
  <use id="arrowdown" xlink:href="#arrowDown" x="0" y="0" onmousedown="handlePan(0,1)"/>
  <use id="arrowleft" xlink:href="#arrowLeft" x="0" y="0" onmousedown="handlePan(-1,0)"/>
</g>
<svg viewBox="0 0 15 15" width="100%" height="30px" preserveAspectRatio="xMaxYMin meet">
 <g id="arrow_out" transform="scale(0.3 0.3)">
  <a xlink:href="class_entity_stats_manager__coll__graph_org.svg" target="_base">
   <rect id="button" ry="5" rx="5" y="6" x="6" height="38" width="38"
        fill="#f2f5e9" fill-opacity="0.5" stroke="#606060" stroke-width="1.0"/>
   <path id="arrow"
     d="M 11.500037,31.436501 C 11.940474,20.09759 22.043105,11.32322 32.158766,21.979434 L 37.068811,17.246167 C 37.068811,17.246167 37.088388,32 37.088388,32 L 22.160133,31.978069 C 22.160133,31.978069 26.997745,27.140456 26.997745,27.140456 C 18.528582,18.264221 13.291696,25.230495 11.500037,31.436501 z"
     style="fill:#404040;"/>
  </a>
 </g>
</svg>

<style type='text/css'>
<![CDATA[
[data-mouse-over-selected='false'] { opacity: 0.7; }
[data-mouse-over-selected='true']  { opacity: 1.0; }
]]>
</style>
<script type="application/ecmascript"><![CDATA[
document.addEventListener('DOMContentLoaded', (event) => {
  highlightEdges();
  highlightAdjacentNodes();
});
]]></script>
</svg>
