<?xml version="1.0" encoding="UTF-8" standalone="no"?>
<!DOCTYPE svg PUBLIC "-//W3C//DTD SVG 1.1//EN"
 "http://www.w3.org/Graphics/SVG/1.1/DTD/svg11.dtd">
<!-- Generated by graphviz version 11.0.0 (20240428.1522)
 -->
<!-- Title: GLESC::ECS::EntityManager::removeComponentFromEntity Pages: 1 -->
<svg width="519pt" height="112pt"
 viewBox="0.00 0.00 518.75 112.00" xmlns="http://www.w3.org/2000/svg" xmlns:xlink="http://www.w3.org/1999/xlink">
<g id="graph0" class="graph" transform="scale(1 1) rotate(0) translate(4 108)">
<title>GLESC::ECS::EntityManager::removeComponentFromEntity</title>
<!-- Node1 -->
<g id="Node000001" class="node">
<title>Node1</title>
<g id="a_Node000001"><a xlink:title="Remove a component from the entity. The entity must exist.">
<polygon fill="#999999" stroke="#666666" points="150.25,-54 0,-54 0,-22 150.25,-22 150.25,-54"/>
<text text-anchor="start" x="8" y="-40.5" font-family="Helvetica,sans-Serif" font-size="10.00">GLESC::ECS::EntityManager</text>
<text text-anchor="middle" x="75.12" y="-28.5" font-family="Helvetica,sans-Serif" font-size="10.00">::removeComponentFromEntity</text>
</a>
</g>
</g>
<!-- Node2 -->
<g id="Node000002" class="node">
<title>Node2</title>
<g id="a_Node000002"><a xlink:href="class_g_l_e_s_c_1_1_e_c_s_1_1_entity_manager.html#aab28983bdd04e1acf2dd7d94dbe4639d" target="_top" xlink:title="Check if the entity has the given component. The entity must exist and the component must be in the r...">
<polygon fill="white" stroke="#666666" points="330.5,-54 186.25,-54 186.25,-22 330.5,-22 330.5,-54"/>
<text text-anchor="start" x="194.25" y="-40.5" font-family="Helvetica,sans-Serif" font-size="10.00">GLESC::ECS::EntityManager</text>
<text text-anchor="middle" x="258.38" y="-28.5" font-family="Helvetica,sans-Serif" font-size="10.00">::doesEntityHaveComponent</text>
</a>
</g>
</g>
<!-- Node1&#45;&gt;Node2 -->
<g id="edge1_Node000001_Node000002" class="edge">
<title>Node1&#45;&gt;Node2</title>
<g id="a_edge1_Node000001_Node000002"><a xlink:title=" ">
<path fill="none" stroke="#63b8ff" d="M150.63,-38C158.44,-38 166.41,-38 174.3,-38"/>
<polygon fill="#63b8ff" stroke="#63b8ff" points="174.27,-41.5 184.27,-38 174.27,-34.5 174.27,-41.5"/>
</a>
</g>
</g>
<!-- Node4 -->
<g id="Node000004" class="node">
<title>Node4</title>
<g id="a_Node000004"><a xlink:href="class_g_l_e_s_c_1_1_e_c_s_1_1_entity_manager.html#a54e81951030afee74dd6ea3c4e2b74e5" target="_top" xlink:title="Check if the component ID is in the range of the signature.">
<polygon fill="white" stroke="#666666" points="510.75,-32 366.5,-32 366.5,0 510.75,0 510.75,-32"/>
<text text-anchor="start" x="374.5" y="-18.5" font-family="Helvetica,sans-Serif" font-size="10.00">GLESC::ECS::EntityManager</text>
<text text-anchor="middle" x="438.62" y="-6.5" font-family="Helvetica,sans-Serif" font-size="10.00">::isComponentInRange</text>
</a>
</g>
</g>
<!-- Node1&#45;&gt;Node4 -->
<g id="edge4_Node000001_Node000004" class="edge">
<title>Node1&#45;&gt;Node4</title>
<g id="a_edge4_Node000001_Node000004"><a xlink:title=" ">
<path fill="none" stroke="#63b8ff" d="M137.45,-21.53C153.23,-18 170.27,-14.79 186.25,-13 242.28,-6.72 305.78,-7.54 354.93,-9.9"/>
<polygon fill="#63b8ff" stroke="#63b8ff" points="354.47,-13.38 364.64,-10.4 354.83,-6.39 354.47,-13.38"/>
</a>
</g>
</g>
<!-- Node5 -->
<g id="Node000005" class="node">
<title>Node5</title>
<g id="a_Node000005"><a xlink:href="class_g_l_e_s_c_1_1_e_c_s_1_1_entity_manager.html#af174dceb6b3d4ec490f5812ba128dd51" target="_top" xlink:title="Check if the entity with the given ID is alive.">
<polygon fill="white" stroke="#666666" points="330.5,-104 186.25,-104 186.25,-72 330.5,-72 330.5,-104"/>
<text text-anchor="start" x="194.25" y="-90.5" font-family="Helvetica,sans-Serif" font-size="10.00">GLESC::ECS::EntityManager</text>
<text text-anchor="middle" x="258.38" y="-78.5" font-family="Helvetica,sans-Serif" font-size="10.00">::isEntityAlive</text>
</a>
</g>
</g>
<!-- Node1&#45;&gt;Node5 -->
<g id="edge5_Node000001_Node000005" class="edge">
<title>Node1&#45;&gt;Node5</title>
<g id="a_edge5_Node000001_Node000005"><a xlink:title=" ">
<path fill="none" stroke="#63b8ff" d="M135.72,-54.44C152.06,-58.95 169.92,-63.88 186.81,-68.53"/>
<polygon fill="#63b8ff" stroke="#63b8ff" points="185.71,-71.86 196.28,-71.15 187.57,-65.11 185.71,-71.86"/>
</a>
</g>
</g>
<!-- Node3 -->
<g id="Node000003" class="node">
<title>Node3</title>
<g id="a_Node000003"><a xlink:href="class_g_l_e_s_c_1_1_e_c_s_1_1_entity_manager.html#a5145504091eb26170aa219acb60aca71" target="_top" xlink:title="Check if the entity with the given name exists.">
<polygon fill="white" stroke="#666666" points="510.75,-93 366.5,-93 366.5,-61 510.75,-61 510.75,-93"/>
<text text-anchor="start" x="374.5" y="-79.5" font-family="Helvetica,sans-Serif" font-size="10.00">GLESC::ECS::EntityManager</text>
<text text-anchor="middle" x="438.62" y="-67.5" font-family="Helvetica,sans-Serif" font-size="10.00">::doesEntityExist</text>
</a>
</g>
</g>
<!-- Node2&#45;&gt;Node3 -->
<g id="edge2_Node000002_Node000003" class="edge">
<title>Node2&#45;&gt;Node3</title>
<g id="a_edge2_Node000002_Node000003"><a xlink:title=" ">
<path fill="none" stroke="#63b8ff" d="M330.85,-53.64C338.84,-55.39 347.03,-57.18 355.14,-58.95"/>
<polygon fill="#63b8ff" stroke="#63b8ff" points="354.14,-62.32 364.66,-61.03 355.64,-55.48 354.14,-62.32"/>
</a>
</g>
</g>
<!-- Node2&#45;&gt;Node4 -->
<g id="edge3_Node000002_Node000004" class="edge">
<title>Node2&#45;&gt;Node4</title>
<g id="a_edge3_Node000002_Node000004"><a xlink:title=" ">
<path fill="none" stroke="#63b8ff" d="M330.85,-29.18C338.75,-28.2 346.84,-27.2 354.86,-26.21"/>
<polygon fill="#63b8ff" stroke="#63b8ff" points="355.14,-29.71 364.63,-25.01 354.28,-22.76 355.14,-29.71"/>
</a>
</g>
</g>
<!-- Node5&#45;&gt;Node3 -->
<g id="edge6_Node000005_Node000003" class="edge">
<title>Node5&#45;&gt;Node3</title>
<g id="a_edge6_Node000005_Node000003"><a xlink:title=" ">
<path fill="none" stroke="#63b8ff" d="M330.85,-83.59C338.75,-83.1 346.84,-82.6 354.86,-82.11"/>
<polygon fill="#63b8ff" stroke="#63b8ff" points="354.86,-85.61 364.62,-81.5 354.43,-78.63 354.86,-85.61"/>
</a>
</g>
</g>
</g>
</svg>
