<?xml version="1.0" encoding="UTF-8" standalone="no"?>
<!DOCTYPE svg PUBLIC "-//W3C//DTD SVG 1.1//EN"
 "http://www.w3.org/Graphics/SVG/1.1/DTD/svg11.dtd">
<!-- Generated by graphviz version 11.0.0 (20240428.1522)
 -->
<!-- Title: GLESC::Transform::Transformer::transformBoundingVolume Pages: 1 -->
<svg width="914pt" height="134pt"
 viewBox="0.00 0.00 913.75 134.00" xmlns="http://www.w3.org/2000/svg" xmlns:xlink="http://www.w3.org/1999/xlink">
<g id="graph0" class="graph" transform="scale(1 1) rotate(0) translate(4 130)">
<title>GLESC::Transform::Transformer::transformBoundingVolume</title>
<!-- Node1 -->
<g id="Node000001" class="node">
<title>Node1</title>
<g id="a_Node000001"><a xlink:title="Transforms a bounding volume by a given transform.">
<polygon fill="#999999" stroke="#666666" points="905.75,-76 751,-76 751,-44 905.75,-44 905.75,-76"/>
<text text-anchor="start" x="759" y="-62.5" font-family="Helvetica,sans-Serif" font-size="10.00">GLESC::Transform::Transformer</text>
<text text-anchor="middle" x="828.38" y="-50.5" font-family="Helvetica,sans-Serif" font-size="10.00">::transformBoundingVolume</text>
</a>
</g>
</g>
<!-- Node1&#45;&gt;Node1 -->
<g id="edge4_Node000001_Node000001" class="edge">
<title>Node1&#45;&gt;Node1</title>
<g id="a_edge4_Node000001_Node000001"><a xlink:title=" ">
<path fill="none" stroke="#63b8ff" d="M860.16,-87.71C854.86,-91.48 844.27,-94 828.38,-94 799.32,-94 787.96,-85.58 794.32,-76.44"/>
<polygon fill="#63b8ff" stroke="#63b8ff" points="863.59,-88.42 862.13,-77.93 856.73,-87.04 863.59,-88.42"/>
</a>
</g>
</g>
<!-- Node2 -->
<g id="Node000002" class="node">
<title>Node2</title>
<g id="a_Node000002"><a xlink:href="class_g_l_e_s_c_1_1_render_1_1_renderer.html#a3244ebc15bf8310257ec613f62d00a33" target="_top" xlink:title="This renders the frame.">
<polygon fill="white" stroke="#666666" points="703,-126 572.25,-126 572.25,-94 703,-94 703,-126"/>
<text text-anchor="start" x="580.25" y="-112.5" font-family="Helvetica,sans-Serif" font-size="10.00">GLESC::Render::Renderer</text>
<text text-anchor="middle" x="637.62" y="-100.5" font-family="Helvetica,sans-Serif" font-size="10.00">::render</text>
</a>
</g>
</g>
<!-- Node1&#45;&gt;Node2 -->
<g id="edge1_Node000001_Node000002" class="edge">
<title>Node1&#45;&gt;Node2</title>
<g id="a_edge1_Node000001_Node000002"><a xlink:title=" ">
<path fill="none" stroke="#63b8ff" d="M754.18,-79.39C736.52,-84.07 717.82,-89.02 700.73,-93.55"/>
<polygon fill="#63b8ff" stroke="#63b8ff" points="755.08,-82.77 763.85,-76.83 753.28,-76.01 755.08,-82.77"/>
</a>
</g>
</g>
<!-- Node5 -->
<g id="Node000005" class="node">
<title>Node5</title>
<g id="a_Node000005"><a xlink:href="class_g_l_e_s_c_1_1_transform_1_1_transformer.html#ac4210d1b111a51d877cbe9187cc057f1" target="_top" xlink:title=" ">
<polygon fill="white" stroke="#666666" points="715,-76 560.25,-76 560.25,-44 715,-44 715,-76"/>
<text text-anchor="start" x="568.25" y="-62.5" font-family="Helvetica,sans-Serif" font-size="10.00">GLESC::Transform::Transformer</text>
<text text-anchor="middle" x="637.62" y="-50.5" font-family="Helvetica,sans-Serif" font-size="10.00">::transformMesh</text>
</a>
</g>
</g>
<!-- Node1&#45;&gt;Node5 -->
<g id="edge5_Node000001_Node000005" class="edge">
<title>Node1&#45;&gt;Node5</title>
<g id="a_edge5_Node000001_Node000005"><a xlink:title=" ">
<path fill="none" stroke="#63b8ff" d="M739.33,-60C731.32,-60 723.24,-60 715.33,-60"/>
<polygon fill="#63b8ff" stroke="#63b8ff" points="739.09,-63.5 749.09,-60 739.09,-56.5 739.09,-63.5"/>
</a>
</g>
</g>
<!-- Node6 -->
<g id="Node000006" class="node">
<title>Node6</title>
<g id="a_Node000006"><a xlink:href="_collision_manager_8cpp.html#a2ac513f9f1089540fb3395b6ab92baee" target="_top" xlink:title=" ">
<polygon fill="white" stroke="#666666" points="671.12,-26 604.12,-26 604.12,-6 671.12,-6 671.12,-26"/>
<text text-anchor="middle" x="637.62" y="-12.5" font-family="Helvetica,sans-Serif" font-size="10.00">translateBV</text>
</a>
</g>
</g>
<!-- Node1&#45;&gt;Node6 -->
<g id="edge6_Node000001_Node000006" class="edge">
<title>Node1&#45;&gt;Node6</title>
<g id="a_edge6_Node000001_Node000006"><a xlink:title=" ">
<path fill="none" stroke="#63b8ff" d="M745.7,-40.96C719.5,-34.85 691.96,-28.43 671.38,-23.64"/>
<polygon fill="#63b8ff" stroke="#63b8ff" points="744.82,-44.35 755.35,-43.21 746.4,-37.53 744.82,-44.35"/>
</a>
</g>
</g>
<!-- Node3 -->
<g id="Node000003" class="node">
<title>Node3</title>
<g id="a_Node000003"><a xlink:href="class_g_l_e_s_c_1_1_engine.html#ab0a886855ca341089947b36b9c6f6e15" target="_top" xlink:title="Processes the rendering of the game Can be called at variable intervals of time as it uses elapsed.">
<polygon fill="white" stroke="#666666" points="516.75,-120 398.75,-120 398.75,-100 516.75,-100 516.75,-120"/>
<text text-anchor="middle" x="457.75" y="-106.5" font-family="Helvetica,sans-Serif" font-size="10.00">GLESC::Engine::render</text>
</a>
</g>
</g>
<!-- Node2&#45;&gt;Node3 -->
<g id="edge2_Node000002_Node000003" class="edge">
<title>Node2&#45;&gt;Node3</title>
<g id="a_edge2_Node000002_Node000003"><a xlink:title=" ">
<path fill="none" stroke="#63b8ff" d="M560.43,-110C545.96,-110 531.04,-110 517.23,-110"/>
<polygon fill="#63b8ff" stroke="#63b8ff" points="560.39,-113.5 570.39,-110 560.39,-106.5 560.39,-113.5"/>
</a>
</g>
</g>
<!-- Node4 -->
<g id="Node000004" class="node">
<title>Node4</title>
<g id="a_Node000004"><a xlink:href="main_8cpp.html#a0ddf1224851353fc92bfbff6f499fa97" target="_top" xlink:title=" ">
<polygon fill="white" stroke="#666666" points="290.75,-120 253.75,-120 253.75,-100 290.75,-100 290.75,-120"/>
<text text-anchor="middle" x="272.25" y="-106.5" font-family="Helvetica,sans-Serif" font-size="10.00">main</text>
</a>
</g>
</g>
<!-- Node3&#45;&gt;Node4 -->
<g id="edge3_Node000003_Node000004" class="edge">
<title>Node3&#45;&gt;Node4</title>
<g id="a_edge3_Node000003_Node000004"><a xlink:title=" ">
<path fill="none" stroke="#63b8ff" d="M387.34,-110C352.58,-110 313.26,-110 291.04,-110"/>
<polygon fill="#63b8ff" stroke="#63b8ff" points="386.92,-113.5 396.92,-110 386.92,-106.5 386.92,-113.5"/>
</a>
</g>
</g>
<!-- Node7 -->
<g id="Node000007" class="node">
<title>Node7</title>
<g id="a_Node000007"><a xlink:href="class_g_l_e_s_c_1_1_physics_1_1_collision_manager.html#a3e36f52b42d71e2e6adf6a61626e196a" target="_top" xlink:title=" ">
<polygon fill="white" stroke="#666666" points="355.25,-60 189.25,-60 189.25,-16 355.25,-16 355.25,-60"/>
<text text-anchor="start" x="197.25" y="-46.5" font-family="Helvetica,sans-Serif" font-size="10.00">GLESC::Physics::Collision</text>
<text text-anchor="start" x="197.25" y="-34.5" font-family="Helvetica,sans-Serif" font-size="10.00">Manager::checkAndUpdateCollider</text>
<text text-anchor="middle" x="272.25" y="-22.5" font-family="Helvetica,sans-Serif" font-size="10.00">Information</text>
</a>
</g>
</g>
<!-- Node6&#45;&gt;Node7 -->
<g id="edge7_Node000006_Node000007" class="edge">
<title>Node6&#45;&gt;Node7</title>
<g id="a_edge7_Node000006_Node000007"><a xlink:title=" ">
<path fill="none" stroke="#63b8ff" d="M592.79,-26.78C567.21,-32.87 537.45,-39.55 524.25,-41 468.26,-47.15 404.83,-46.33 355.74,-44"/>
<polygon fill="#63b8ff" stroke="#63b8ff" points="593.42,-30.23 602.33,-24.49 591.79,-23.42 593.42,-30.23"/>
</a>
</g>
</g>
<!-- Node9 -->
<g id="Node000009" class="node">
<title>Node9</title>
<g id="a_Node000009"><a xlink:href="class_g_l_e_s_c_1_1_physics_1_1_collision_manager.html#a27c5c28ac5363d15ea2f149fa618bb4f" target="_top" xlink:title=" ">
<polygon fill="white" stroke="#666666" points="524.25,-32 391.25,-32 391.25,0 524.25,0 524.25,-32"/>
<text text-anchor="start" x="399.25" y="-18.5" font-family="Helvetica,sans-Serif" font-size="10.00">GLESC::Physics::Collision</text>
<text text-anchor="middle" x="457.75" y="-6.5" font-family="Helvetica,sans-Serif" font-size="10.00">Manager::updateCollider</text>
</a>
</g>
</g>
<!-- Node6&#45;&gt;Node9 -->
<g id="edge9_Node000006_Node000009" class="edge">
<title>Node6&#45;&gt;Node9</title>
<g id="a_edge9_Node000006_Node000009"><a xlink:title=" ">
<path fill="none" stroke="#63b8ff" d="M592.5,-16C572.04,-16 547.31,-16 524.7,-16"/>
<polygon fill="#63b8ff" stroke="#63b8ff" points="592.49,-19.5 602.49,-16 592.49,-12.5 592.49,-19.5"/>
</a>
</g>
</g>
<!-- Node8 -->
<g id="Node000008" class="node">
<title>Node8</title>
<g id="a_Node000008"><a xlink:href="class_g_l_e_s_c_1_1_e_c_s_1_1_physics_collision_system.html#a01af297180e01be8c9d22d955bfb11b3" target="_top" xlink:title="Updates the system.">
<polygon fill="white" stroke="#666666" points="153.25,-54 0,-54 0,-22 153.25,-22 153.25,-54"/>
<text text-anchor="start" x="8" y="-40.5" font-family="Helvetica,sans-Serif" font-size="10.00">GLESC::ECS::PhysicsCollision</text>
<text text-anchor="middle" x="76.62" y="-28.5" font-family="Helvetica,sans-Serif" font-size="10.00">System::update</text>
</a>
</g>
</g>
<!-- Node7&#45;&gt;Node8 -->
<g id="edge8_Node000007_Node000008" class="edge">
<title>Node7&#45;&gt;Node8</title>
<g id="a_edge8_Node000007_Node000008"><a xlink:title=" ">
<path fill="none" stroke="#63b8ff" d="M177.51,-38C169.46,-38 161.38,-38 153.5,-38"/>
<polygon fill="#63b8ff" stroke="#63b8ff" points="177.34,-41.5 187.34,-38 177.34,-34.5 177.34,-41.5"/>
</a>
</g>
</g>
<!-- Node9&#45;&gt;Node7 -->
<g id="edge10_Node000009_Node000007" class="edge">
<title>Node9&#45;&gt;Node7</title>
<g id="a_edge10_Node000009_Node000007"><a xlink:title=" ">
<path fill="none" stroke="#63b8ff" d="M379.38,-25.28C371.51,-26.22 363.51,-27.18 355.6,-28.13"/>
<polygon fill="#63b8ff" stroke="#63b8ff" points="379.75,-28.76 389.26,-24.09 378.91,-21.81 379.75,-28.76"/>
</a>
</g>
</g>
</g>
</svg>
