<?xml version="1.0" encoding="UTF-8" standalone="no"?>
<!DOCTYPE svg PUBLIC "-//W3C//DTD SVG 1.1//EN"
 "http://www.w3.org/Graphics/SVG/1.1/DTD/svg11.dtd">
<!-- Generated by graphviz version 11.0.0 (20240428.1522)
 -->
<!-- Title: GLESC::GAPI::VertexBufferLayout Pages: 1 -->
<!--zoomable 472 -->

<svg id="main" version="1.1" xmlns="http://www.w3.org/2000/svg" xmlns:xlink="http://www.w3.org/1999/xlink" xml:space="preserve" onload="init(evt)">
<style type="text/css"><![CDATA[
.node, .edge {opacity: 0.7;}
.node.selected, .edge.selected {opacity: 1;}
.edge:hover path { stroke: red; }
.edge:hover polygon { stroke: red; fill: red; }
]]></style>

<defs>
  <circle id="rim" cx="0" cy="0" r="7"/>
  <circle id="rim2" cx="0" cy="0" r="3.5"/>
  <g id="zoomPlus">
    <use xlink:href="#rim" fill="#404040"><set attributeName="fill" to="#808080" begin="zoomplus.mouseover" end="zoomplus.mouseout"/></use>
    <path d="M-4,0h8M0,-4v8" fill="none" stroke="white" stroke-width="1.5" pointer-events="none"/>
  </g>
  <g id="zoomMin">
    <use xlink:href="#rim" fill="#404040"><set attributeName="fill" to="#808080" begin="zoomminus.mouseover" end="zoomminus.mouseout"/></use>
    <path d="M-4,0h8" fill="none" stroke="white" stroke-width="1.5" pointer-events="none"/>
  </g>
  <g id="arrowUp" transform="translate(30 24)">
    <use xlink:href="#rim"/>
    <path pointer-events="none" fill="none" stroke="white" stroke-width="1.5" d="M0,-3.0v7 M-2.5,-0.5L0,-3.0L2.5,-0.5"/>
  </g>
  <g id="arrowRight" transform="rotate(90) translate(36 -43)">
    <use xlink:href="#rim"/>
    <path pointer-events="none" fill="none" stroke="white" stroke-width="1.5" d="M0,-3.0v7 M-2.5,-0.5L0,-3.0L2.5,-0.5"/>
  </g>
  <g id="arrowDown" transform="rotate(180) translate(-30 -48)">
    <use xlink:href="#rim"/>
    <path pointer-events="none" fill="none" stroke="white" stroke-width="1.5" d="M0,-3.0v7 M-2.5,-0.5L0,-3.0L2.5,-0.5"/>
  </g>
  <g id="arrowLeft" transform="rotate(270) translate(-36 17)">
    <use xlink:href="#rim"/>
    <path pointer-events="none" fill="none" stroke="white" stroke-width="1.5" d="M0,-3.0v7 M-2.5,-0.5L0,-3.0L2.5,-0.5"/>
  </g>
  <g id="resetDef">
    <use xlink:href="#rim2" fill="#404040"><set attributeName="fill" to="#808080" begin="reset.mouseover" end="reset.mouseout"/></use>
  </g>
</defs>
<script type="application/ecmascript">
var viewWidth = 297;
var viewHeight = 472;
var sectionId = 'dynsection-0';
</script>
<script type="application/ecmascript" xlink:href="svg.min.js"/>
<svg id="graph" class="graph">
<g id="viewport">
<title>GLESC::GAPI::VertexBufferLayout</title>
<!-- Node1 -->
<g id="Node000001" class="node">
<title>Node1</title>
<g id="a_Node000001"><a xlink:title=" ">
<polygon fill="#999999" stroke="none" points="167,-112 36,-112 36,0 167,0 167,-112"/>
<text text-anchor="start" x="40.75" y="-98.5" font-family="Helvetica,sans-Serif" font-size="10.00">GLESC::GAPI::VertexBuffer</text>
<text text-anchor="start" x="86.88" y="-86.5" font-family="Helvetica,sans-Serif" font-size="10.00">Layout</text>
<text text-anchor="start" x="47.5" y="-70.5" font-family="Helvetica,sans-Serif" font-size="10.00">&#45;</text>
<text text-anchor="start" x="62" y="-70.5" font-family="Helvetica,sans-Serif" font-size="10.00">stride</text>
<text text-anchor="start" x="46" y="-54.5" font-family="Helvetica,sans-Serif" font-size="10.00">+</text>
<text text-anchor="start" x="62" y="-54.5" font-family="Helvetica,sans-Serif" font-size="10.00">VertexBufferLayout()</text>
<text text-anchor="start" x="46" y="-38.5" font-family="Helvetica,sans-Serif" font-size="10.00">+</text>
<text text-anchor="start" x="62" y="-38.5" font-family="Helvetica,sans-Serif" font-size="10.00">getElements()</text>
<text text-anchor="start" x="46" y="-22.5" font-family="Helvetica,sans-Serif" font-size="10.00">+</text>
<text text-anchor="start" x="62" y="-22.5" font-family="Helvetica,sans-Serif" font-size="10.00">getStride()</text>
<text text-anchor="start" x="46" y="-6.5" font-family="Helvetica,sans-Serif" font-size="10.00">+</text>
<text text-anchor="start" x="62" y="-6.5" font-family="Helvetica,sans-Serif" font-size="10.00">push()</text>
<polygon fill="#666666" stroke="#666666" points="36,-82 36,-82 167,-82 167,-82 36,-82"/>
<polygon fill="#666666" stroke="#666666" points="36,-66 36,-66 60,-66 60,-66 36,-66"/>
<polygon fill="#666666" stroke="#666666" points="60,-66 60,-66 167,-66 167,-66 60,-66"/>
<polygon fill="none" stroke="#666666" points="36,0 36,-112 167,-112 167,0 36,0"/>
</a>
</g>
</g>
<!-- Node2 -->
<g id="Node000002" class="node">
<title>Node2</title>
<g id="a_Node000002"><a xlink:title=" ">
<polygon fill="white" stroke="none" points="173,-224 30,-224 30,-160 173,-160 173,-224"/>
<text text-anchor="start" x="34.75" y="-210.5" font-family="Helvetica,sans-Serif" font-size="10.00">std::vector&lt; GLESC</text>
<text text-anchor="start" x="34.75" y="-198.5" font-family="Helvetica,sans-Serif" font-size="10.00">::GAPI::VertexBufferElement &gt;</text>
<text text-anchor="start" x="100" y="-182.5" font-family="Helvetica,sans-Serif" font-size="10.00"> </text>
<text text-anchor="start" x="100" y="-166.5" font-family="Helvetica,sans-Serif" font-size="10.00"> </text>
<polygon fill="#666666" stroke="#666666" points="30,-194 30,-194 173,-194 173,-194 30,-194"/>
<polygon fill="#666666" stroke="#666666" points="30,-178 30,-178 173,-178 173,-178 30,-178"/>
<polygon fill="none" stroke="#666666" points="30,-160 30,-224 173,-224 173,-160 30,-160"/>
</a>
</g>
</g>
<!-- Node2&#45;&gt;Node1 -->
<g id="edge1_Node000001_Node000002" class="edge">
<title>Node2&#45;&gt;Node1</title>
<g id="a_edge1_Node000001_Node000002"><a xlink:title=" ">
<path fill="none" stroke="#63b8ff" d="M101.5,-160.26C101.5,-149.59 101.5,-137.17 101.5,-124.72"/>
<polygon fill="none" stroke="#63b8ff" points="101.5,-124.7 97.5,-118.7 101.5,-112.7 105.5,-118.7 101.5,-124.7"/>
</a>
</g>
<text text-anchor="middle" x="124.38" y="-132.5" font-family="Helvetica,sans-Serif" font-size="10.00" fill="grey"> &#45;elements</text>
</g>
<!-- Node3 -->
<g id="Node000003" class="node">
<title>Node3</title>
<g id="a_Node000003"><a xlink:href="namespace_g_l_e_s_c_1_1_g_a_p_i.html#struct_g_l_e_s_c_1_1_g_a_p_i_1_1_vertex_buffer_element" target="_top" xlink:title=" ">
<polygon fill="white" stroke="none" points="131,-364 0,-364 0,-284 131,-284 131,-364"/>
<text text-anchor="start" x="4.75" y="-350.5" font-family="Helvetica,sans-Serif" font-size="10.00">GLESC::GAPI::VertexBuffer</text>
<text text-anchor="start" x="47.5" y="-338.5" font-family="Helvetica,sans-Serif" font-size="10.00">Element</text>
<text text-anchor="start" x="20.5" y="-322.5" font-family="Helvetica,sans-Serif" font-size="10.00">+</text>
<text text-anchor="start" x="47" y="-322.5" font-family="Helvetica,sans-Serif" font-size="10.00">normalized</text>
<text text-anchor="start" x="20.5" y="-306.5" font-family="Helvetica,sans-Serif" font-size="10.00">+</text>
<text text-anchor="start" x="47" y="-306.5" font-family="Helvetica,sans-Serif" font-size="10.00">type</text>
<text text-anchor="start" x="64" y="-290.5" font-family="Helvetica,sans-Serif" font-size="10.00"> </text>
<polygon fill="#666666" stroke="#666666" points="0,-334 0,-334 131,-334 131,-334 0,-334"/>
<polygon fill="#666666" stroke="#666666" points="0,-302 0,-302 45,-302 45,-302 0,-302"/>
<polygon fill="#666666" stroke="#666666" points="45,-302 45,-302 131,-302 131,-302 45,-302"/>
<polygon fill="none" stroke="#666666" points="0,-284 0,-364 131,-364 131,-284 0,-284"/>
</a>
</g>
</g>
<!-- Node3&#45;&gt;Node2 -->
<g id="edge2_Node000002_Node000003" class="edge">
<title>Node3&#45;&gt;Node2</title>
<g id="a_edge2_Node000002_Node000003"><a xlink:title=" ">
<path fill="none" stroke="#63b8ff" d="M76.2,-284.35C80.38,-269.26 85.19,-251.9 89.49,-236.38"/>
<polygon fill="none" stroke="#63b8ff" points="89.5,-236.32 87.25,-229.47 92.71,-224.75 94.96,-231.6 89.5,-236.32"/>
</a>
</g>
<text text-anchor="middle" x="111.88" y="-250.5" font-family="Helvetica,sans-Serif" font-size="10.00" fill="grey"> +elements</text>
</g>
<!-- Node4 -->
<g id="Node000004" class="node">
<title>Node4</title>
<g id="a_Node000004"><a xlink:title=" ">
<polygon fill="white" stroke="none" points="227.5,-350 149.5,-350 149.5,-298 227.5,-298 227.5,-350"/>
<text text-anchor="start" x="154.38" y="-336.5" font-family="Helvetica,sans-Serif" font-size="10.00">std::vector&lt; T &gt;</text>
<text text-anchor="start" x="187" y="-320.5" font-family="Helvetica,sans-Serif" font-size="10.00"> </text>
<text text-anchor="start" x="187" y="-304.5" font-family="Helvetica,sans-Serif" font-size="10.00"> </text>
<polygon fill="#666666" stroke="#666666" points="149.5,-332 149.5,-332 227.5,-332 227.5,-332 149.5,-332"/>
<polygon fill="#666666" stroke="#666666" points="149.5,-316 149.5,-316 227.5,-316 227.5,-316 149.5,-316"/>
<polygon fill="none" stroke="#666666" points="149.5,-298 149.5,-350 227.5,-350 227.5,-298 149.5,-298"/>
</a>
</g>
</g>
<!-- Node4&#45;&gt;Node2 -->
<g id="edge3_Node000002_Node000004" class="edge">
<title>Node4&#45;&gt;Node2</title>
<g id="a_edge3_Node000002_Node000004"><a xlink:title=" ">
<path fill="none" stroke="orange" d="M169.54,-288.66C161.1,-274 150.75,-256.87 140.5,-242 136.37,-236 131.72,-229.79 127.12,-223.88"/>
<polygon fill="orange" stroke="orange" points="166.33,-290.08 174.32,-297.04 172.41,-286.62 166.33,-290.08"/>
</a>
</g>
<text text-anchor="start" x="155.5" y="-256.5" font-family="Helvetica,sans-Serif" font-size="10.00" fill="grey"> &lt; GLESC::GAPI::VertexBuffer</text>
<text text-anchor="middle" x="222.25" y="-244.5" font-family="Helvetica,sans-Serif" font-size="10.00" fill="grey">Element &gt;</text>
</g>
<!-- Node5 -->
<g id="Node000005" class="node">
<title>Node5</title>
<g id="a_Node000005"><a xlink:title=" ">
<polygon fill="white" stroke="none" points="196,-464 181,-464 181,-412 196,-412 196,-464"/>
<text text-anchor="start" x="185.88" y="-450.5" font-family="Helvetica,sans-Serif" font-size="10.00">T</text>
<text text-anchor="start" x="187" y="-434.5" font-family="Helvetica,sans-Serif" font-size="10.00"> </text>
<text text-anchor="start" x="187" y="-418.5" font-family="Helvetica,sans-Serif" font-size="10.00"> </text>
<polygon fill="#666666" stroke="#666666" points="181,-446 181,-446 196,-446 196,-446 181,-446"/>
<polygon fill="#666666" stroke="#666666" points="181,-430 181,-430 196,-430 196,-430 181,-430"/>
<polygon fill="none" stroke="#666666" points="181,-412 181,-464 196,-464 196,-412 181,-412"/>
</a>
</g>
</g>
<!-- Node5&#45;&gt;Node4 -->
<g id="edge4_Node000004_Node000005" class="edge">
<title>Node5&#45;&gt;Node4</title>
<g id="a_edge4_Node000004_Node000005"><a xlink:title=" ">
<path fill="none" stroke="#63b8ff" d="M188.5,-412.14C188.5,-397.64 188.5,-379.06 188.5,-362.78"/>
<polygon fill="none" stroke="#63b8ff" points="188.5,-362.69 184.5,-356.69 188.5,-350.69 192.5,-356.69 188.5,-362.69"/>
</a>
</g>
<text text-anchor="middle" x="212.88" y="-384.5" font-family="Helvetica,sans-Serif" font-size="10.00" fill="grey"> +elements</text>
</g>
</g>
</svg>

<g id="navigator" transform="translate(0 0)" fill="#404254">
  <rect fill="#f2f5e9" fill-opacity="0.5" stroke="#606060" stroke-width=".5" x="0" y="0" width="60" height="60"/>
  <use id="zoomplus" xlink:href="#zoomPlus" x="17" y="9" onmousedown="handleZoom(evt,'in')"/>
  <use id="zoomminus" xlink:href="#zoomMin" x="42" y="9" onmousedown="handleZoom(evt,'out')"/>
  <use id="reset" xlink:href="#resetDef" x="30" y="36" onmousedown="handleReset()"/>
   <use id="arrowup" xlink:href="#arrowUp" x="0" y="0" onmousedown="handlePan(0,-1)"/>
  <use id="arrowright" xlink:href="#arrowRight" x="0" y="0" onmousedown="handlePan(1,0)"/>
  <use id="arrowdown" xlink:href="#arrowDown" x="0" y="0" onmousedown="handlePan(0,1)"/>
  <use id="arrowleft" xlink:href="#arrowLeft" x="0" y="0" onmousedown="handlePan(-1,0)"/>
</g>
<svg viewBox="0 0 15 15" width="100%" height="30px" preserveAspectRatio="xMaxYMin meet">
 <g id="arrow_out" transform="scale(0.3 0.3)">
  <a xlink:href="class_g_l_e_s_c_1_1_g_a_p_i_1_1_vertex_buffer_layout__coll__graph_org.svg" target="_base">
   <rect id="button" ry="5" rx="5" y="6" x="6" height="38" width="38"
        fill="#f2f5e9" fill-opacity="0.5" stroke="#606060" stroke-width="1.0"/>
   <path id="arrow"
     d="M 11.500037,31.436501 C 11.940474,20.09759 22.043105,11.32322 32.158766,21.979434 L 37.068811,17.246167 C 37.068811,17.246167 37.088388,32 37.088388,32 L 22.160133,31.978069 C 22.160133,31.978069 26.997745,27.140456 26.997745,27.140456 C 18.528582,18.264221 13.291696,25.230495 11.500037,31.436501 z"
     style="fill:#404040;"/>
  </a>
 </g>
</svg>

<style type='text/css'>
<![CDATA[
[data-mouse-over-selected='false'] { opacity: 0.7; }
[data-mouse-over-selected='true']  { opacity: 1.0; }
]]>
</style>
<script type="application/ecmascript"><![CDATA[
document.addEventListener('DOMContentLoaded', (event) => {
  highlightEdges();
  highlightAdjacentNodes();
});
]]></script>
</svg>
