<?xml version="1.0" encoding="UTF-8" standalone="no"?>
<!DOCTYPE svg PUBLIC "-//W3C//DTD SVG 1.1//EN"
 "http://www.w3.org/Graphics/SVG/1.1/DTD/svg11.dtd">
<!-- Generated by graphviz version 11.0.0 (20240428.1522)
 -->
<!-- Title: GLESC::Math::MatrixAlgorithms::matrixMatrixMulInPlace Pages: 1 -->
<!--zoomable 174 -->

<svg id="main" version="1.1" xmlns="http://www.w3.org/2000/svg" xmlns:xlink="http://www.w3.org/1999/xlink" xml:space="preserve" onload="init(evt)">
<style type="text/css"><![CDATA[
.node, .edge {opacity: 0.7;}
.node.selected, .edge.selected {opacity: 1;}
.edge:hover path { stroke: red; }
.edge:hover polygon { stroke: red; fill: red; }
]]></style>

<defs>
  <circle id="rim" cx="0" cy="0" r="7"/>
  <circle id="rim2" cx="0" cy="0" r="3.5"/>
  <g id="zoomPlus">
    <use xlink:href="#rim" fill="#404040"><set attributeName="fill" to="#808080" begin="zoomplus.mouseover" end="zoomplus.mouseout"/></use>
    <path d="M-4,0h8M0,-4v8" fill="none" stroke="white" stroke-width="1.5" pointer-events="none"/>
  </g>
  <g id="zoomMin">
    <use xlink:href="#rim" fill="#404040"><set attributeName="fill" to="#808080" begin="zoomminus.mouseover" end="zoomminus.mouseout"/></use>
    <path d="M-4,0h8" fill="none" stroke="white" stroke-width="1.5" pointer-events="none"/>
  </g>
  <g id="arrowUp" transform="translate(30 24)">
    <use xlink:href="#rim"/>
    <path pointer-events="none" fill="none" stroke="white" stroke-width="1.5" d="M0,-3.0v7 M-2.5,-0.5L0,-3.0L2.5,-0.5"/>
  </g>
  <g id="arrowRight" transform="rotate(90) translate(36 -43)">
    <use xlink:href="#rim"/>
    <path pointer-events="none" fill="none" stroke="white" stroke-width="1.5" d="M0,-3.0v7 M-2.5,-0.5L0,-3.0L2.5,-0.5"/>
  </g>
  <g id="arrowDown" transform="rotate(180) translate(-30 -48)">
    <use xlink:href="#rim"/>
    <path pointer-events="none" fill="none" stroke="white" stroke-width="1.5" d="M0,-3.0v7 M-2.5,-0.5L0,-3.0L2.5,-0.5"/>
  </g>
  <g id="arrowLeft" transform="rotate(270) translate(-36 17)">
    <use xlink:href="#rim"/>
    <path pointer-events="none" fill="none" stroke="white" stroke-width="1.5" d="M0,-3.0v7 M-2.5,-0.5L0,-3.0L2.5,-0.5"/>
  </g>
  <g id="resetDef">
    <use xlink:href="#rim2" fill="#404040"><set attributeName="fill" to="#808080" begin="reset.mouseover" end="reset.mouseout"/></use>
  </g>
</defs>
<script type="application/ecmascript">
var viewWidth = 946;
var viewHeight = 174;
var sectionId = 'dynsection-37';
</script>
<script type="application/ecmascript" xlink:href="svg.min.js"/>
<svg id="graph" class="graph">
<g id="viewport">
<title>GLESC::Math::MatrixAlgorithms::matrixMatrixMulInPlace</title>
<!-- Node1 -->
<g id="Node000001" class="node">
<title>Node1</title>
<g id="a_Node000001"><a xlink:title="Dot product matrix multiplication in place.">
<polygon fill="#999999" stroke="#666666" points="938.25,-116 782,-116 782,-84 938.25,-84 938.25,-116"/>
<text text-anchor="start" x="790" y="-102.5" font-family="Helvetica,sans-Serif" font-size="10.00">GLESC::Math::MatrixAlgorithms</text>
<text text-anchor="middle" x="860.12" y="-90.5" font-family="Helvetica,sans-Serif" font-size="10.00">::matrixMatrixMulInPlace</text>
</a>
</g>
</g>
<!-- Node2 -->
<g id="Node000002" class="node">
<title>Node2</title>
<g id="a_Node000002"><a xlink:href="class_g_l_e_s_c_1_1_math_1_1_matrix_mixed_algorithms.html#a485f02d22191da3635105401351ec519" target="_top" xlink:title="Calculate the model matrix from the position, rotation, and scale.">
<polygon fill="white" stroke="#666666" points="554.5,-166 393.75,-166 393.75,-134 554.5,-134 554.5,-166"/>
<text text-anchor="start" x="401.75" y="-152.5" font-family="Helvetica,sans-Serif" font-size="10.00">GLESC::Math::MatrixMixed</text>
<text text-anchor="middle" x="474.12" y="-140.5" font-family="Helvetica,sans-Serif" font-size="10.00">Algorithms::calculateModelMatrix</text>
</a>
</g>
</g>
<!-- Node1&#45;&gt;Node2 -->
<g id="edge1_Node000001_Node000002" class="edge">
<title>Node1&#45;&gt;Node2</title>
<g id="a_edge1_Node000001_Node000002"><a xlink:title=" ">
<path fill="none" stroke="#63b8ff" d="M822.91,-121.96C801.4,-133.71 773.11,-146.96 746,-153 682.88,-167.05 609.42,-165.14 554.94,-160.37"/>
<polygon fill="#63b8ff" stroke="#63b8ff" points="824.56,-125.05 831.57,-117.1 821.14,-118.94 824.56,-125.05"/>
</a>
</g>
</g>
<!-- Node3 -->
<g id="Node000003" class="node">
<title>Node3</title>
<g id="a_Node000003"><a xlink:href="class_g_l_e_s_c_1_1_math_1_1_matrix_mixed_algorithms.html#a67bdda15ead970e5074845bdf3fcf085" target="_top" xlink:title=" ">
<polygon fill="white" stroke="#666666" points="746,-94 590.5,-94 590.5,-50 746,-50 746,-94"/>
<text text-anchor="start" x="598.5" y="-80.5" font-family="Helvetica,sans-Serif" font-size="10.00">GLESC::Math::MatrixMixed</text>
<text text-anchor="start" x="598.5" y="-68.5" font-family="Helvetica,sans-Serif" font-size="10.00">Algorithms::calculateViewMatrix</text>
<text text-anchor="middle" x="668.25" y="-56.5" font-family="Helvetica,sans-Serif" font-size="10.00">PosRot</text>
</a>
</g>
</g>
<!-- Node1&#45;&gt;Node3 -->
<g id="edge2_Node000001_Node000003" class="edge">
<title>Node1&#45;&gt;Node3</title>
<g id="a_edge2_Node000001_Node000003"><a xlink:title=" ">
<path fill="none" stroke="#63b8ff" d="M770.3,-86.9C762.25,-85.71 754.14,-84.52 746.2,-83.35"/>
<polygon fill="#63b8ff" stroke="#63b8ff" points="769.72,-90.35 780.12,-88.35 770.74,-83.43 769.72,-90.35"/>
</a>
</g>
</g>
<!-- Node9 -->
<g id="Node000009" class="node">
<title>Node9</title>
<g id="a_Node000009"><a xlink:href="class_g_l_e_s_c_1_1_math_1_1_matrix_mixed_algorithms.html#af2edbd12a5a8a4f225c1a811285d6414" target="_top" xlink:title="Calculate the 3D rotation matrix from the rotation angles around the X, Y, and Z axes.">
<polygon fill="white" stroke="#666666" points="743,-144 593.5,-144 593.5,-112 743,-112 743,-144"/>
<text text-anchor="start" x="601.5" y="-130.5" font-family="Helvetica,sans-Serif" font-size="10.00">GLESC::Math::MatrixMixed</text>
<text text-anchor="middle" x="668.25" y="-118.5" font-family="Helvetica,sans-Serif" font-size="10.00">Algorithms::getRotate3DMatrix</text>
</a>
</g>
</g>
<!-- Node1&#45;&gt;Node9 -->
<g id="edge8_Node000001_Node000009" class="edge">
<title>Node1&#45;&gt;Node9</title>
<g id="a_edge8_Node000001_Node000009"><a xlink:title=" ">
<path fill="none" stroke="#63b8ff" d="M770.3,-113.1C761.31,-114.42 752.25,-115.76 743.44,-117.06"/>
<polygon fill="#63b8ff" stroke="#63b8ff" points="770.74,-116.57 780.12,-111.65 769.72,-109.65 770.74,-116.57"/>
</a>
</g>
</g>
<!-- Node10 -->
<g id="Node000010" class="node">
<title>Node10</title>
<g id="a_Node000010"><a xlink:href="class_g_l_e_s_c_1_1_math_1_1_matrix.html#ac83ec981fbeec3c85b0e080814e5a38b" target="_top" xlink:title="In&#45;place element&#45;wise multiplication with another matrix.">
<polygon fill="white" stroke="#666666" points="723.12,-32 613.38,-32 613.38,0 723.12,0 723.12,-32"/>
<text text-anchor="start" x="621.38" y="-18.5" font-family="Helvetica,sans-Serif" font-size="10.00">GLESC::Math::Matrix</text>
<text text-anchor="middle" x="668.25" y="-6.5" font-family="Helvetica,sans-Serif" font-size="10.00">::operator*=</text>
</a>
</g>
</g>
<!-- Node1&#45;&gt;Node10 -->
<g id="edge10_Node000001_Node000010" class="edge">
<title>Node1&#45;&gt;Node10</title>
<g id="a_edge10_Node000001_Node000010"><a xlink:title=" ">
<path fill="none" stroke="#63b8ff" d="M820.87,-78.02C799.3,-66.15 771.62,-51.77 746,-41 738.77,-37.96 731.02,-35.05 723.34,-32.37"/>
<polygon fill="#63b8ff" stroke="#63b8ff" points="819.17,-81.08 829.61,-82.89 822.57,-74.96 819.17,-81.08"/>
</a>
</g>
</g>
<!-- Node4 -->
<g id="Node000004" class="node">
<title>Node4</title>
<g id="a_Node000004"><a xlink:href="class_g_l_e_s_c_1_1_math_1_1_matrix.html#a3c0812b3a24431dfc5bc68f394910d61" target="_top" xlink:title="Creates a view matrix from the given position and rotation vectors.">
<polygon fill="white" stroke="#666666" points="537.25,-88 411,-88 411,-56 537.25,-56 537.25,-88"/>
<text text-anchor="start" x="419" y="-74.5" font-family="Helvetica,sans-Serif" font-size="10.00">GLESC::Math::Matrix</text>
<text text-anchor="middle" x="474.12" y="-62.5" font-family="Helvetica,sans-Serif" font-size="10.00">::makeViewMatrixPosRot</text>
</a>
</g>
</g>
<!-- Node3&#45;&gt;Node4 -->
<g id="edge3_Node000003_Node000004" class="edge">
<title>Node3&#45;&gt;Node4</title>
<g id="a_edge3_Node000003_Node000004"><a xlink:title=" ">
<path fill="none" stroke="#63b8ff" d="M579.09,-72C565.12,-72 550.94,-72 537.72,-72"/>
<polygon fill="#63b8ff" stroke="#63b8ff" points="578.7,-75.5 588.7,-72 578.7,-68.5 578.7,-75.5"/>
</a>
</g>
</g>
<!-- Node5 -->
<g id="Node000005" class="node">
<title>Node5</title>
<g id="a_Node000005"><a xlink:href="class_g_l_e_s_c_1_1_render_1_1_renderer.html#aaa4f270fc41e2f2a1f9ce7b979376eb1" target="_top" xlink:title="Static method that creates the view matrix from a transform (transform of the camera)">
<polygon fill="white" stroke="#666666" points="357.75,-113 227,-113 227,-81 357.75,-81 357.75,-113"/>
<text text-anchor="start" x="235" y="-99.5" font-family="Helvetica,sans-Serif" font-size="10.00">GLESC::Render::Renderer</text>
<text text-anchor="middle" x="292.38" y="-87.5" font-family="Helvetica,sans-Serif" font-size="10.00">::createViewMatrix</text>
</a>
</g>
</g>
<!-- Node4&#45;&gt;Node5 -->
<g id="edge4_Node000004_Node000005" class="edge">
<title>Node4&#45;&gt;Node5</title>
<g id="a_edge4_Node000004_Node000005"><a xlink:title=" ">
<path fill="none" stroke="#63b8ff" d="M399.23,-82.28C385.63,-84.17 371.52,-86.13 358.21,-87.98"/>
<polygon fill="#63b8ff" stroke="#63b8ff" points="399.59,-85.76 409.01,-80.92 398.62,-78.83 399.59,-85.76"/>
</a>
</g>
</g>
<!-- Node6 -->
<g id="Node000006" class="node">
<title>Node6</title>
<g id="a_Node000006"><a xlink:href="class_g_l_e_s_c_1_1_render_1_1_renderer.html#a0f562e14a9fb4e13e03bc108b5dd1111" target="_top" xlink:title="This starts the frame of rendering.">
<polygon fill="white" stroke="#666666" points="357.75,-63 227,-63 227,-31 357.75,-31 357.75,-63"/>
<text text-anchor="start" x="235" y="-49.5" font-family="Helvetica,sans-Serif" font-size="10.00">GLESC::Render::Renderer</text>
<text text-anchor="middle" x="292.38" y="-37.5" font-family="Helvetica,sans-Serif" font-size="10.00">::start</text>
</a>
</g>
</g>
<!-- Node4&#45;&gt;Node6 -->
<g id="edge5_Node000004_Node000006" class="edge">
<title>Node4&#45;&gt;Node6</title>
<g id="a_edge5_Node000004_Node000006"><a xlink:title=" ">
<path fill="none" stroke="#63b8ff" d="M399.23,-61.72C385.63,-59.83 371.52,-57.87 358.21,-56.02"/>
<polygon fill="#63b8ff" stroke="#63b8ff" points="398.62,-65.17 409.01,-63.08 399.59,-58.24 398.62,-65.17"/>
</a>
</g>
</g>
<!-- Node7 -->
<g id="Node000007" class="node">
<title>Node7</title>
<g id="a_Node000007"><a xlink:href="class_g_l_e_s_c_1_1_engine.html#ab0a886855ca341089947b36b9c6f6e15" target="_top" xlink:title="Processes the rendering of the game Can be called at variable intervals of time as it uses elapsed.">
<polygon fill="white" stroke="#666666" points="191,-57 73,-57 73,-37 191,-37 191,-57"/>
<text text-anchor="middle" x="132" y="-43.5" font-family="Helvetica,sans-Serif" font-size="10.00">GLESC::Engine::render</text>
</a>
</g>
</g>
<!-- Node6&#45;&gt;Node7 -->
<g id="edge6_Node000006_Node000007" class="edge">
<title>Node6&#45;&gt;Node7</title>
<g id="a_edge6_Node000006_Node000007"><a xlink:title=" ">
<path fill="none" stroke="#63b8ff" d="M215.24,-47C207.23,-47 199.18,-47 191.42,-47"/>
<polygon fill="#63b8ff" stroke="#63b8ff" points="214.99,-50.5 224.99,-47 214.99,-43.5 214.99,-50.5"/>
</a>
</g>
</g>
<!-- Node8 -->
<g id="Node000008" class="node">
<title>Node8</title>
<g id="a_Node000008"><a xlink:href="main_8cpp.html#a0ddf1224851353fc92bfbff6f499fa97" target="_top" xlink:title=" ">
<polygon fill="white" stroke="#666666" points="37,-57 0,-57 0,-37 37,-37 37,-57"/>
<text text-anchor="middle" x="18.5" y="-43.5" font-family="Helvetica,sans-Serif" font-size="10.00">main</text>
</a>
</g>
</g>
<!-- Node7&#45;&gt;Node8 -->
<g id="edge7_Node000007_Node000008" class="edge">
<title>Node7&#45;&gt;Node8</title>
<g id="a_edge7_Node000007_Node000008"><a xlink:title=" ">
<path fill="none" stroke="#63b8ff" d="M61.31,-47C52.52,-47 44.22,-47 37.37,-47"/>
<polygon fill="#63b8ff" stroke="#63b8ff" points="61.12,-50.5 71.12,-47 61.12,-43.5 61.12,-50.5"/>
</a>
</g>
</g>
<!-- Node9&#45;&gt;Node2 -->
<g id="edge9_Node000009_Node000002" class="edge">
<title>Node9&#45;&gt;Node2</title>
<g id="a_edge9_Node000009_Node000002"><a xlink:title=" ">
<path fill="none" stroke="#63b8ff" d="M581.92,-137.77C572.91,-138.8 563.78,-139.85 554.83,-140.87"/>
<polygon fill="#63b8ff" stroke="#63b8ff" points="582.2,-141.26 591.74,-136.65 581.41,-134.31 582.2,-141.26"/>
</a>
</g>
</g>
</g>
</svg>

<g id="navigator" transform="translate(0 0)" fill="#404254">
  <rect fill="#f2f5e9" fill-opacity="0.5" stroke="#606060" stroke-width=".5" x="0" y="0" width="60" height="60"/>
  <use id="zoomplus" xlink:href="#zoomPlus" x="17" y="9" onmousedown="handleZoom(evt,'in')"/>
  <use id="zoomminus" xlink:href="#zoomMin" x="42" y="9" onmousedown="handleZoom(evt,'out')"/>
  <use id="reset" xlink:href="#resetDef" x="30" y="36" onmousedown="handleReset()"/>
   <use id="arrowup" xlink:href="#arrowUp" x="0" y="0" onmousedown="handlePan(0,-1)"/>
  <use id="arrowright" xlink:href="#arrowRight" x="0" y="0" onmousedown="handlePan(1,0)"/>
  <use id="arrowdown" xlink:href="#arrowDown" x="0" y="0" onmousedown="handlePan(0,1)"/>
  <use id="arrowleft" xlink:href="#arrowLeft" x="0" y="0" onmousedown="handlePan(-1,0)"/>
</g>
<svg viewBox="0 0 15 15" width="100%" height="30px" preserveAspectRatio="xMaxYMin meet">
 <g id="arrow_out" transform="scale(0.3 0.3)">
  <a xlink:href="class_g_l_e_s_c_1_1_math_1_1_matrix_algorithms_aa04e41ebccb8934ec715c81742f0d11f_icgraph_org.svg" target="_base">
   <rect id="button" ry="5" rx="5" y="6" x="6" height="38" width="38"
        fill="#f2f5e9" fill-opacity="0.5" stroke="#606060" stroke-width="1.0"/>
   <path id="arrow"
     d="M 11.500037,31.436501 C 11.940474,20.09759 22.043105,11.32322 32.158766,21.979434 L 37.068811,17.246167 C 37.068811,17.246167 37.088388,32 37.088388,32 L 22.160133,31.978069 C 22.160133,31.978069 26.997745,27.140456 26.997745,27.140456 C 18.528582,18.264221 13.291696,25.230495 11.500037,31.436501 z"
     style="fill:#404040;"/>
  </a>
 </g>
</svg>

<style type='text/css'>
<![CDATA[
[data-mouse-over-selected='false'] { opacity: 0.7; }
[data-mouse-over-selected='true']  { opacity: 1.0; }
]]>
</style>
<script type="application/ecmascript"><![CDATA[
document.addEventListener('DOMContentLoaded', (event) => {
  highlightEdges();
  highlightAdjacentNodes();
});
]]></script>
</svg>
