<?xml version="1.0" encoding="UTF-8" standalone="no"?>
<!DOCTYPE svg PUBLIC "-//W3C//DTD SVG 1.1//EN"
 "http://www.w3.org/Graphics/SVG/1.1/DTD/svg11.dtd">
<!-- Generated by graphviz version 11.0.0 (20240428.1522)
 -->
<!-- Title: GLESC::Render::ColorVertex::toString Pages: 1 -->
<!--zoomable 352 -->

<svg id="main" version="1.1" xmlns="http://www.w3.org/2000/svg" xmlns:xlink="http://www.w3.org/1999/xlink" xml:space="preserve" onload="init(evt)">
<style type="text/css"><![CDATA[
.node, .edge {opacity: 0.7;}
.node.selected, .edge.selected {opacity: 1;}
.edge:hover path { stroke: red; }
.edge:hover polygon { stroke: red; fill: red; }
]]></style>

<defs>
  <circle id="rim" cx="0" cy="0" r="7"/>
  <circle id="rim2" cx="0" cy="0" r="3.5"/>
  <g id="zoomPlus">
    <use xlink:href="#rim" fill="#404040"><set attributeName="fill" to="#808080" begin="zoomplus.mouseover" end="zoomplus.mouseout"/></use>
    <path d="M-4,0h8M0,-4v8" fill="none" stroke="white" stroke-width="1.5" pointer-events="none"/>
  </g>
  <g id="zoomMin">
    <use xlink:href="#rim" fill="#404040"><set attributeName="fill" to="#808080" begin="zoomminus.mouseover" end="zoomminus.mouseout"/></use>
    <path d="M-4,0h8" fill="none" stroke="white" stroke-width="1.5" pointer-events="none"/>
  </g>
  <g id="arrowUp" transform="translate(30 24)">
    <use xlink:href="#rim"/>
    <path pointer-events="none" fill="none" stroke="white" stroke-width="1.5" d="M0,-3.0v7 M-2.5,-0.5L0,-3.0L2.5,-0.5"/>
  </g>
  <g id="arrowRight" transform="rotate(90) translate(36 -43)">
    <use xlink:href="#rim"/>
    <path pointer-events="none" fill="none" stroke="white" stroke-width="1.5" d="M0,-3.0v7 M-2.5,-0.5L0,-3.0L2.5,-0.5"/>
  </g>
  <g id="arrowDown" transform="rotate(180) translate(-30 -48)">
    <use xlink:href="#rim"/>
    <path pointer-events="none" fill="none" stroke="white" stroke-width="1.5" d="M0,-3.0v7 M-2.5,-0.5L0,-3.0L2.5,-0.5"/>
  </g>
  <g id="arrowLeft" transform="rotate(270) translate(-36 17)">
    <use xlink:href="#rim"/>
    <path pointer-events="none" fill="none" stroke="white" stroke-width="1.5" d="M0,-3.0v7 M-2.5,-0.5L0,-3.0L2.5,-0.5"/>
  </g>
  <g id="resetDef">
    <use xlink:href="#rim2" fill="#404040"><set attributeName="fill" to="#808080" begin="reset.mouseover" end="reset.mouseout"/></use>
  </g>
</defs>
<script type="application/ecmascript">
var viewWidth = 696;
var viewHeight = 352;
var sectionId = 'dynsection-3';
</script>
<script type="application/ecmascript" xlink:href="svg.min.js"/>
<svg id="graph" class="graph">
<g id="viewport">
<title>GLESC::Render::ColorVertex::toString</title>
<!-- Node1 -->
<g id="Node000001" class="node">
<title>Node1</title>
<g id="a_Node000001"><a xlink:title=" ">
<polygon fill="#999999" stroke="#666666" points="142.75,-244 0,-244 0,-212 142.75,-212 142.75,-244"/>
<text text-anchor="start" x="8" y="-230.5" font-family="Helvetica,sans-Serif" font-size="10.00">GLESC::Render::ColorVertex</text>
<text text-anchor="middle" x="71.38" y="-218.5" font-family="Helvetica,sans-Serif" font-size="10.00">::toString</text>
</a>
</g>
</g>
<!-- Node2 -->
<g id="Node000002" class="node">
<title>Node2</title>
<g id="a_Node000002"><a xlink:href="class_g_l_e_s_c_1_1_render_1_1_base_vertex.html#a5e6412581541337a45c9f8fe99c6a9c5" target="_top" xlink:title=" ">
<polygon fill="white" stroke="#666666" points="321.5,-306 178.75,-306 178.75,-274 321.5,-274 321.5,-306"/>
<text text-anchor="start" x="186.75" y="-292.5" font-family="Helvetica,sans-Serif" font-size="10.00">GLESC::Render::BaseVertex</text>
<text text-anchor="middle" x="250.12" y="-280.5" font-family="Helvetica,sans-Serif" font-size="10.00">::toString</text>
</a>
</g>
</g>
<!-- Node1&#45;&gt;Node2 -->
<g id="edge1_Node000001_Node000002" class="edge">
<title>Node1&#45;&gt;Node2</title>
<g id="a_edge1_Node000001_Node000002"><a xlink:title=" ">
<path fill="none" stroke="#63b8ff" d="M119.28,-244.45C141.44,-252.23 168.1,-261.58 191.48,-269.78"/>
<polygon fill="#63b8ff" stroke="#63b8ff" points="190.29,-273.07 200.88,-273.08 192.61,-266.46 190.29,-273.07"/>
</a>
</g>
</g>
<!-- Node5 -->
<g id="Node000005" class="node">
<title>Node5</title>
<g id="a_Node000005"><a xlink:href="struct_g_l_e_s_c_1_1_render_1_1_color_rgba_norm.html#aa00d47a37b6494f1b3b1e7cdcd64b9b4" target="_top" xlink:title=" ">
<polygon fill="white" stroke="#666666" points="318.5,-219 181.75,-219 181.75,-187 318.5,-187 318.5,-219"/>
<text text-anchor="start" x="189.75" y="-205.5" font-family="Helvetica,sans-Serif" font-size="10.00">GLESC::Render::ColorRgba</text>
<text text-anchor="middle" x="250.12" y="-193.5" font-family="Helvetica,sans-Serif" font-size="10.00">Norm::toString</text>
</a>
</g>
</g>
<!-- Node1&#45;&gt;Node5 -->
<g id="edge4_Node000001_Node000005" class="edge">
<title>Node1&#45;&gt;Node5</title>
<g id="a_edge4_Node000001_Node000005"><a xlink:title=" ">
<path fill="none" stroke="#63b8ff" d="M143.25,-217.98C152.09,-216.72 161.18,-215.44 170.14,-214.17"/>
<polygon fill="#63b8ff" stroke="#63b8ff" points="170.49,-217.66 179.9,-212.79 169.5,-210.73 170.49,-217.66"/>
</a>
</g>
</g>
<!-- Node3 -->
<g id="Node000003" class="node">
<title>Node3</title>
<g id="a_Node000003"><a xlink:href="class_g_l_e_s_c_1_1_math_1_1_vector.html#a6a6098658d8dbebb1e3e73cd649074cc" target="_top" xlink:title="Converts the vector to string.">
<polygon fill="white" stroke="#666666" points="481.5,-344 370.25,-344 370.25,-312 481.5,-312 481.5,-344"/>
<text text-anchor="start" x="378.25" y="-330.5" font-family="Helvetica,sans-Serif" font-size="10.00">GLESC::Math::Vector</text>
<text text-anchor="middle" x="425.88" y="-318.5" font-family="Helvetica,sans-Serif" font-size="10.00">::toString</text>
</a>
</g>
</g>
<!-- Node2&#45;&gt;Node3 -->
<g id="edge2_Node000002_Node000003" class="edge">
<title>Node2&#45;&gt;Node3</title>
<g id="a_edge2_Node000002_Node000003"><a xlink:title=" ">
<path fill="none" stroke="#63b8ff" d="M321.8,-305.46C334.1,-308.15 346.85,-310.93 359.01,-313.6"/>
<polygon fill="#63b8ff" stroke="#63b8ff" points="357.99,-316.96 368.51,-315.67 359.49,-310.12 357.99,-316.96"/>
</a>
</g>
</g>
<!-- Node4 -->
<g id="Node000004" class="node">
<title>Node4</title>
<g id="a_Node000004"><a xlink:href="class_g_l_e_s_c_1_1_math_1_1_vector_algorithms.html#a8e6f808c717744d815310af0f439dbec" target="_top" xlink:title="Generates a string representation of a vector.">
<polygon fill="white" stroke="#666666" points="688,-344 530.25,-344 530.25,-312 688,-312 688,-344"/>
<text text-anchor="start" x="538.25" y="-330.5" font-family="Helvetica,sans-Serif" font-size="10.00">GLESC::Math::VectorAlgorithms</text>
<text text-anchor="middle" x="609.12" y="-318.5" font-family="Helvetica,sans-Serif" font-size="10.00">::toString</text>
</a>
</g>
</g>
<!-- Node3&#45;&gt;Node4 -->
<g id="edge3_Node000003_Node000004" class="edge">
<title>Node3&#45;&gt;Node4</title>
<g id="a_edge3_Node000003_Node000004"><a xlink:title=" ">
<path fill="none" stroke="#63b8ff" d="M481.75,-328C493.39,-328 505.98,-328 518.54,-328"/>
<polygon fill="#63b8ff" stroke="#63b8ff" points="518.52,-331.5 528.52,-328 518.52,-324.5 518.52,-331.5"/>
</a>
</g>
</g>
<!-- Node6 -->
<g id="Node000006" class="node">
<title>Node6</title>
<g id="a_Node000006"><a xlink:href="struct_g_l_e_s_c_1_1_render_1_1_color_rgba_norm.html#a8aaa7f579c0b3f9311554c9ba4d2cdcf" target="_top" xlink:title=" ">
<polygon fill="white" stroke="#666666" points="494.25,-294 357.5,-294 357.5,-262 494.25,-262 494.25,-294"/>
<text text-anchor="start" x="365.5" y="-280.5" font-family="Helvetica,sans-Serif" font-size="10.00">GLESC::Render::ColorRgba</text>
<text text-anchor="middle" x="425.88" y="-268.5" font-family="Helvetica,sans-Serif" font-size="10.00">Norm::getA</text>
</a>
</g>
</g>
<!-- Node5&#45;&gt;Node6 -->
<g id="edge5_Node000005_Node000006" class="edge">
<title>Node5&#45;&gt;Node6</title>
<g id="a_edge5_Node000005_Node000006"><a xlink:title=" ">
<path fill="none" stroke="#63b8ff" d="M284.34,-219.49C305.16,-229.61 332.66,-242.58 357.5,-253 361.06,-254.49 364.74,-255.99 368.47,-257.47"/>
<polygon fill="#63b8ff" stroke="#63b8ff" points="367.01,-260.66 377.6,-261.02 369.55,-254.13 367.01,-260.66"/>
</a>
</g>
</g>
<!-- Node7 -->
<g id="Node000007" class="node">
<title>Node7</title>
<g id="a_Node000007"><a xlink:href="struct_g_l_e_s_c_1_1_render_1_1_color_rgba_norm.html#a79b9965a10a13c2b44f3600ed4d9f889" target="_top" xlink:title=" ">
<polygon fill="white" stroke="#666666" points="494.25,-244 357.5,-244 357.5,-212 494.25,-212 494.25,-244"/>
<text text-anchor="start" x="365.5" y="-230.5" font-family="Helvetica,sans-Serif" font-size="10.00">GLESC::Render::ColorRgba</text>
<text text-anchor="middle" x="425.88" y="-218.5" font-family="Helvetica,sans-Serif" font-size="10.00">Norm::getB</text>
</a>
</g>
</g>
<!-- Node5&#45;&gt;Node7 -->
<g id="edge6_Node000005_Node000007" class="edge">
<title>Node5&#45;&gt;Node7</title>
<g id="a_edge6_Node000005_Node000007"><a xlink:title=" ">
<path fill="none" stroke="#63b8ff" d="M318.8,-212.74C327.64,-214.01 336.77,-215.32 345.78,-216.62"/>
<polygon fill="#63b8ff" stroke="#63b8ff" points="345.21,-220.07 355.6,-218.03 346.2,-213.14 345.21,-220.07"/>
</a>
</g>
</g>
<!-- Node8 -->
<g id="Node000008" class="node">
<title>Node8</title>
<g id="a_Node000008"><a xlink:href="struct_g_l_e_s_c_1_1_render_1_1_color_rgba_norm.html#a4cdd909899bc3d0661c95136689e8f31" target="_top" xlink:title=" ">
<polygon fill="white" stroke="#666666" points="494.25,-194 357.5,-194 357.5,-162 494.25,-162 494.25,-194"/>
<text text-anchor="start" x="365.5" y="-180.5" font-family="Helvetica,sans-Serif" font-size="10.00">GLESC::Render::ColorRgba</text>
<text text-anchor="middle" x="425.88" y="-168.5" font-family="Helvetica,sans-Serif" font-size="10.00">Norm::getG</text>
</a>
</g>
</g>
<!-- Node5&#45;&gt;Node8 -->
<g id="edge7_Node000005_Node000008" class="edge">
<title>Node5&#45;&gt;Node8</title>
<g id="a_edge7_Node000005_Node000008"><a xlink:title=" ">
<path fill="none" stroke="#63b8ff" d="M318.8,-193.26C327.64,-191.99 336.77,-190.68 345.78,-189.38"/>
<polygon fill="#63b8ff" stroke="#63b8ff" points="346.2,-192.86 355.6,-187.97 345.21,-185.93 346.2,-192.86"/>
</a>
</g>
</g>
<!-- Node9 -->
<g id="Node000009" class="node">
<title>Node9</title>
<g id="a_Node000009"><a xlink:href="struct_g_l_e_s_c_1_1_render_1_1_color_rgba_norm.html#ae86fd4a25743361a7c72cc646ecf8167" target="_top" xlink:title=" ">
<polygon fill="white" stroke="#666666" points="494.25,-144 357.5,-144 357.5,-112 494.25,-112 494.25,-144"/>
<text text-anchor="start" x="365.5" y="-130.5" font-family="Helvetica,sans-Serif" font-size="10.00">GLESC::Render::ColorRgba</text>
<text text-anchor="middle" x="425.88" y="-118.5" font-family="Helvetica,sans-Serif" font-size="10.00">Norm::getR</text>
</a>
</g>
</g>
<!-- Node5&#45;&gt;Node9 -->
<g id="edge8_Node000005_Node000009" class="edge">
<title>Node5&#45;&gt;Node9</title>
<g id="a_edge8_Node000005_Node000009"><a xlink:title=" ">
<path fill="none" stroke="#63b8ff" d="M284.34,-186.51C305.16,-176.39 332.66,-163.42 357.5,-153 361.06,-151.51 364.74,-150.01 368.47,-148.53"/>
<polygon fill="#63b8ff" stroke="#63b8ff" points="369.55,-151.87 377.6,-144.98 367.01,-145.34 369.55,-151.87"/>
</a>
</g>
</g>
<!-- Node10 -->
<g id="Node000010" class="node">
<title>Node10</title>
<g id="a_Node000010"><a xlink:href="class_g_l_e_s_c_1_1_stringer.html#acba5ca5265db3ba0cd968336f1428203" target="_top" xlink:title="Converts an object to a string.">
<polygon fill="white" stroke="#666666" points="490.12,-94 361.62,-94 361.62,-74 490.12,-74 490.12,-94"/>
<text text-anchor="middle" x="425.88" y="-80.5" font-family="Helvetica,sans-Serif" font-size="10.00">GLESC::Stringer::toString</text>
</a>
</g>
</g>
<!-- Node5&#45;&gt;Node10 -->
<g id="edge9_Node000005_Node000010" class="edge">
<title>Node5&#45;&gt;Node10</title>
<g id="a_edge9_Node000005_Node000010"><a xlink:title=" ">
<path fill="none" stroke="#63b8ff" d="M264.11,-186.62C282.55,-164.43 318.45,-125.09 357.5,-103 360.33,-101.4 363.3,-99.93 366.35,-98.58"/>
<polygon fill="#63b8ff" stroke="#63b8ff" points="367.52,-101.87 375.56,-94.96 364.97,-95.36 367.52,-101.87"/>
</a>
</g>
</g>
<!-- Node11 -->
<g id="Node000011" class="node">
<title>Node11</title>
<g id="a_Node000011"><a xlink:href="class_g_l_e_s_c_1_1_stringer.html#acb7cc10341cef69e99362fa324fa1647" target="_top" xlink:title="Converts an iterable object to a string.">
<polygon fill="white" stroke="#666666" points="672.25,-100 546,-100 546,-68 672.25,-68 672.25,-100"/>
<text text-anchor="start" x="554" y="-86.5" font-family="Helvetica,sans-Serif" font-size="10.00">GLESC::Stringer::iterable</text>
<text text-anchor="middle" x="609.12" y="-74.5" font-family="Helvetica,sans-Serif" font-size="10.00">ToString</text>
</a>
</g>
</g>
<!-- Node10&#45;&gt;Node11 -->
<g id="edge10_Node000010_Node000011" class="edge">
<title>Node10&#45;&gt;Node11</title>
<g id="a_edge10_Node000010_Node000011"><a xlink:title=" ">
<path fill="none" stroke="#63b8ff" d="M490.52,-77.52C504.61,-77.23 519.65,-77.17 534.11,-77.35"/>
<polygon fill="#63b8ff" stroke="#63b8ff" points="533.98,-80.85 544.03,-77.52 534.09,-73.85 533.98,-80.85"/>
</a>
</g>
</g>
<!-- Node12 -->
<g id="Node000012" class="node">
<title>Node12</title>
<g id="a_Node000012"><a xlink:href="class_g_l_e_s_c_1_1_stringer.html#afa7028acf6b8eec53203e8a91774da85" target="_top" xlink:title="Converts a non&#45;iterable object to a string.">
<polygon fill="white" stroke="#666666" points="680.12,-32 538.12,-32 538.12,0 680.12,0 680.12,-32"/>
<text text-anchor="start" x="546.12" y="-18.5" font-family="Helvetica,sans-Serif" font-size="10.00">GLESC::Stringer::nonIterable</text>
<text text-anchor="middle" x="609.12" y="-6.5" font-family="Helvetica,sans-Serif" font-size="10.00">ToString</text>
</a>
</g>
</g>
<!-- Node10&#45;&gt;Node12 -->
<g id="edge12_Node000010_Node000012" class="edge">
<title>Node10&#45;&gt;Node12</title>
<g id="a_edge12_Node000010_Node000012"><a xlink:title=" ">
<path fill="none" stroke="#63b8ff" d="M454.8,-73.52C481.03,-63.68 521,-48.69 553.56,-36.47"/>
<polygon fill="#63b8ff" stroke="#63b8ff" points="554.73,-39.77 562.87,-32.98 552.27,-33.22 554.73,-39.77"/>
</a>
</g>
</g>
<!-- Node11&#45;&gt;Node10 -->
<g id="edge11_Node000011_Node000010" class="edge">
<title>Node11&#45;&gt;Node10</title>
<g id="a_edge11_Node000011_Node000010"><a xlink:title=" ">
<path fill="none" stroke="#63b8ff" d="M545.55,-90.45C531.51,-90.76 516.48,-90.83 501.99,-90.66"/>
<polygon fill="#63b8ff" stroke="#63b8ff" points="502.09,-87.16 492.04,-90.5 501.98,-94.16 502.09,-87.16"/>
</a>
</g>
</g>
<!-- Node12&#45;&gt;Node12 -->
<g id="edge13_Node000012_Node000012" class="edge">
<title>Node12&#45;&gt;Node12</title>
<g id="a_edge13_Node000012_Node000012"><a xlink:title=" ">
<path fill="none" stroke="#63b8ff" d="M576.41,-32.44C570.3,-41.58 581.21,-50 609.12,-50 624.39,-50 634.57,-47.48 639.66,-43.71"/>
<polygon fill="#63b8ff" stroke="#63b8ff" points="643.09,-44.41 641.55,-33.93 636.22,-43.08 643.09,-44.41"/>
</a>
</g>
</g>
</g>
</svg>

<g id="navigator" transform="translate(0 0)" fill="#404254">
  <rect fill="#f2f5e9" fill-opacity="0.5" stroke="#606060" stroke-width=".5" x="0" y="0" width="60" height="60"/>
  <use id="zoomplus" xlink:href="#zoomPlus" x="17" y="9" onmousedown="handleZoom(evt,'in')"/>
  <use id="zoomminus" xlink:href="#zoomMin" x="42" y="9" onmousedown="handleZoom(evt,'out')"/>
  <use id="reset" xlink:href="#resetDef" x="30" y="36" onmousedown="handleReset()"/>
   <use id="arrowup" xlink:href="#arrowUp" x="0" y="0" onmousedown="handlePan(0,-1)"/>
  <use id="arrowright" xlink:href="#arrowRight" x="0" y="0" onmousedown="handlePan(1,0)"/>
  <use id="arrowdown" xlink:href="#arrowDown" x="0" y="0" onmousedown="handlePan(0,1)"/>
  <use id="arrowleft" xlink:href="#arrowLeft" x="0" y="0" onmousedown="handlePan(-1,0)"/>
</g>
<svg viewBox="0 0 15 15" width="100%" height="30px" preserveAspectRatio="xMaxYMin meet">
 <g id="arrow_out" transform="scale(0.3 0.3)">
  <a xlink:href="class_g_l_e_s_c_1_1_render_1_1_color_vertex_a4b1ab1a73feb263350743a0393de6059_cgraph_org.svg" target="_base">
   <rect id="button" ry="5" rx="5" y="6" x="6" height="38" width="38"
        fill="#f2f5e9" fill-opacity="0.5" stroke="#606060" stroke-width="1.0"/>
   <path id="arrow"
     d="M 11.500037,31.436501 C 11.940474,20.09759 22.043105,11.32322 32.158766,21.979434 L 37.068811,17.246167 C 37.068811,17.246167 37.088388,32 37.088388,32 L 22.160133,31.978069 C 22.160133,31.978069 26.997745,27.140456 26.997745,27.140456 C 18.528582,18.264221 13.291696,25.230495 11.500037,31.436501 z"
     style="fill:#404040;"/>
  </a>
 </g>
</svg>

<style type='text/css'>
<![CDATA[
[data-mouse-over-selected='false'] { opacity: 0.7; }
[data-mouse-over-selected='true']  { opacity: 1.0; }
]]>
</style>
<script type="application/ecmascript"><![CDATA[
document.addEventListener('DOMContentLoaded', (event) => {
  highlightEdges();
  highlightAdjacentNodes();
});
]]></script>
</svg>
