<?xml version="1.0" encoding="UTF-8" standalone="no"?>
<!DOCTYPE svg PUBLIC "-//W3C//DTD SVG 1.1//EN"
 "http://www.w3.org/Graphics/SVG/1.1/DTD/svg11.dtd">
<!-- Generated by graphviz version 11.0.0 (20240428.1522)
 -->
<!-- Title: GLESC::ECS::EntityManager::destroyEntity Pages: 1 -->
<svg width="513pt" height="201pt"
 viewBox="0.00 0.00 512.75 201.42" xmlns="http://www.w3.org/2000/svg" xmlns:xlink="http://www.w3.org/1999/xlink">
<g id="graph0" class="graph" transform="scale(1 1) rotate(0) translate(4 197.42)">
<title>GLESC::ECS::EntityManager::destroyEntity</title>
<!-- Node1 -->
<g id="Node000001" class="node">
<title>Node1</title>
<g id="a_Node000001"><a xlink:title="Destroy the entity with the given ID. The entity must exist.">
<polygon fill="#999999" stroke="#666666" points="144.25,-105.42 0,-105.42 0,-73.42 144.25,-73.42 144.25,-105.42"/>
<text text-anchor="start" x="8" y="-91.92" font-family="Helvetica,sans-Serif" font-size="10.00">GLESC::ECS::EntityManager</text>
<text text-anchor="middle" x="72.12" y="-79.92" font-family="Helvetica,sans-Serif" font-size="10.00">::destroyEntity</text>
</a>
</g>
</g>
<!-- Node2 -->
<g id="Node000002" class="node">
<title>Node2</title>
<g id="a_Node000002"><a xlink:href="class_g_l_e_s_c_1_1_e_c_s_1_1_entity_manager.html#a1d64d3d7d14581391c821fc0aa8ff0a7" target="_top" xlink:title=" ">
<polygon fill="white" stroke="#666666" points="324.5,-193.42 180.25,-193.42 180.25,-161.42 324.5,-161.42 324.5,-193.42"/>
<text text-anchor="start" x="188.25" y="-179.92" font-family="Helvetica,sans-Serif" font-size="10.00">GLESC::ECS::EntityManager</text>
<text text-anchor="middle" x="252.38" y="-167.92" font-family="Helvetica,sans-Serif" font-size="10.00">::areThereLivingEntities</text>
</a>
</g>
</g>
<!-- Node1&#45;&gt;Node2 -->
<g id="edge1_Node000001_Node000002" class="edge">
<title>Node1&#45;&gt;Node2</title>
<g id="a_edge1_Node000001_Node000002"><a xlink:title=" ">
<path fill="none" stroke="#63b8ff" d="M101.38,-105.7C122.76,-117.77 152.99,-134.33 180.25,-147.42 186.59,-150.47 193.32,-153.53 200.02,-156.46"/>
<polygon fill="#63b8ff" stroke="#63b8ff" points="198.49,-159.62 209.06,-160.36 201.26,-153.19 198.49,-159.62"/>
</a>
</g>
</g>
<!-- Node3 -->
<g id="Node000003" class="node">
<title>Node3</title>
<g id="a_Node000003"><a xlink:href="class_g_l_e_s_c_1_1_e_c_s_1_1_entity_manager.html#a5145504091eb26170aa219acb60aca71" target="_top" xlink:title="Check if the entity with the given name exists.">
<polygon fill="white" stroke="#666666" points="504.75,-127.42 360.5,-127.42 360.5,-95.42 504.75,-95.42 504.75,-127.42"/>
<text text-anchor="start" x="368.5" y="-113.92" font-family="Helvetica,sans-Serif" font-size="10.00">GLESC::ECS::EntityManager</text>
<text text-anchor="middle" x="432.62" y="-101.92" font-family="Helvetica,sans-Serif" font-size="10.00">::doesEntityExist</text>
</a>
</g>
</g>
<!-- Node1&#45;&gt;Node3 -->
<g id="edge2_Node000001_Node000003" class="edge">
<title>Node1&#45;&gt;Node3</title>
<g id="a_edge2_Node000001_Node000003"><a xlink:title=" ">
<path fill="none" stroke="#63b8ff" d="M132.76,-105.89C148.11,-109.42 164.69,-112.63 180.25,-114.42 236.26,-120.87 299.76,-120.05 348.92,-117.65"/>
<polygon fill="#63b8ff" stroke="#63b8ff" points="348.82,-121.16 358.63,-117.14 348.46,-114.17 348.82,-121.16"/>
</a>
</g>
</g>
<!-- Node4 -->
<g id="Node000004" class="node">
<title>Node4</title>
<g id="a_Node000004"><a xlink:href="class_g_l_e_s_c_1_1_e_c_s_1_1_entity_manager.html#af174dceb6b3d4ec490f5812ba128dd51" target="_top" xlink:title="Check if the entity with the given ID is alive.">
<polygon fill="white" stroke="#666666" points="324.5,-105.42 180.25,-105.42 180.25,-73.42 324.5,-73.42 324.5,-105.42"/>
<text text-anchor="start" x="188.25" y="-91.92" font-family="Helvetica,sans-Serif" font-size="10.00">GLESC::ECS::EntityManager</text>
<text text-anchor="middle" x="252.38" y="-79.92" font-family="Helvetica,sans-Serif" font-size="10.00">::isEntityAlive</text>
</a>
</g>
</g>
<!-- Node1&#45;&gt;Node4 -->
<g id="edge3_Node000001_Node000004" class="edge">
<title>Node1&#45;&gt;Node4</title>
<g id="a_edge3_Node000001_Node000004"><a xlink:title=" ">
<path fill="none" stroke="#63b8ff" d="M144.6,-89.42C152.5,-89.42 160.59,-89.42 168.61,-89.42"/>
<polygon fill="#63b8ff" stroke="#63b8ff" points="168.37,-92.92 178.37,-89.42 168.37,-85.92 168.37,-92.92"/>
</a>
</g>
</g>
<!-- Node5 -->
<g id="Node000005" class="node">
<title>Node5</title>
<g id="a_Node000005"><a xlink:href="class_g_l_e_s_c_1_1_e_c_s_1_1_entity_manager.html#ab206bffe5c3daf3f62226e2f585cb32e" target="_top" xlink:title=" ">
<polygon fill="white" stroke="#666666" points="324.5,-55.42 180.25,-55.42 180.25,-23.42 324.5,-23.42 324.5,-55.42"/>
<text text-anchor="start" x="188.25" y="-41.92" font-family="Helvetica,sans-Serif" font-size="10.00">GLESC::ECS::EntityManager</text>
<text text-anchor="middle" x="252.38" y="-29.92" font-family="Helvetica,sans-Serif" font-size="10.00">::isEntityInstanced</text>
</a>
</g>
</g>
<!-- Node1&#45;&gt;Node5 -->
<g id="edge5_Node000001_Node000005" class="edge">
<title>Node1&#45;&gt;Node5</title>
<g id="a_edge5_Node000001_Node000005"><a xlink:title=" ">
<path fill="none" stroke="#63b8ff" d="M131.49,-73.05C147.57,-68.54 165.16,-63.61 181.8,-58.94"/>
<polygon fill="#63b8ff" stroke="#63b8ff" points="182.43,-62.4 191.12,-56.33 180.54,-55.66 182.43,-62.4"/>
</a>
</g>
</g>
<!-- Node6 -->
<g id="Node000006" class="node">
<title>Node6</title>
<g id="a_Node000006"><a xlink:href="class_g_l_e_s_c_1_1_stringer.html#a664c9af6a77e075c21a6b0cff1329e4f" target="_top" xlink:title="Strips the string of the characters in the chars string.">
<polygon fill="white" stroke="#666666" points="489.38,-27.42 375.88,-27.42 375.88,-7.42 489.38,-7.42 489.38,-27.42"/>
<text text-anchor="middle" x="432.62" y="-13.92" font-family="Helvetica,sans-Serif" font-size="10.00">GLESC::Stringer::strip</text>
</a>
</g>
</g>
<!-- Node1&#45;&gt;Node6 -->
<g id="edge7_Node000001_Node000006" class="edge">
<title>Node1&#45;&gt;Node6</title>
<g id="a_edge7_Node000001_Node000006"><a xlink:title=" ">
<path fill="none" stroke="#63b8ff" d="M89.5,-72.99C109.11,-54.61 143.87,-25.89 180.25,-14.42 240.33,4.52 312.57,1.15 364.16,-5.4"/>
<polygon fill="#63b8ff" stroke="#63b8ff" points="363.62,-8.86 374,-6.73 364.55,-1.92 363.62,-8.86"/>
</a>
</g>
</g>
<!-- Node4&#45;&gt;Node3 -->
<g id="edge4_Node000004_Node000003" class="edge">
<title>Node4&#45;&gt;Node3</title>
<g id="a_edge4_Node000004_Node000003"><a xlink:title=" ">
<path fill="none" stroke="#63b8ff" d="M324.85,-98.24C332.75,-99.22 340.84,-100.22 348.86,-101.21"/>
<polygon fill="#63b8ff" stroke="#63b8ff" points="348.28,-104.66 358.63,-102.41 349.14,-97.72 348.28,-104.66"/>
</a>
</g>
</g>
<!-- Node5&#45;&gt;Node6 -->
<g id="edge6_Node000005_Node000006" class="edge">
<title>Node5&#45;&gt;Node6</title>
<g id="a_edge6_Node000005_Node000006"><a xlink:title=" ">
<path fill="none" stroke="#63b8ff" d="M324.85,-30.6C337.88,-28.99 351.44,-27.32 364.35,-25.73"/>
<polygon fill="#63b8ff" stroke="#63b8ff" points="364.5,-29.23 373.99,-24.54 363.64,-22.29 364.5,-29.23"/>
</a>
</g>
</g>
</g>
</svg>
