<?xml version="1.0" encoding="UTF-8" standalone="no"?>
<!DOCTYPE svg PUBLIC "-//W3C//DTD SVG 1.1//EN"
 "http://www.w3.org/Graphics/SVG/1.1/DTD/svg11.dtd">
<!-- Generated by graphviz version 11.0.0 (20240428.1522)
 -->
<!-- Title: GLESC::Render::Mesh&lt; VertexT &gt; Pages: 1 -->
<svg width="157pt" height="672pt"
 viewBox="0.00 0.00 157.00 672.00" xmlns="http://www.w3.org/2000/svg" xmlns:xlink="http://www.w3.org/1999/xlink">
<g id="graph0" class="graph" transform="scale(1 1) rotate(0) translate(4 668)">
<title>GLESC::Render::Mesh&lt; VertexT &gt;</title>
<!-- Node1 -->
<g id="Node000001" class="node">
<title>Node1</title>
<g id="a_Node000001"><a xlink:title="A class that represents a mesh.">
<polygon fill="#999999" stroke="none" points="129,-496 20,-496 20,0 129,0 129,-496"/>
<text text-anchor="start" x="24.62" y="-482.5" font-family="Helvetica,sans-Serif" font-size="10.00">GLESC::Render::Mesh</text>
<text text-anchor="start" x="48.62" y="-470.5" font-family="Helvetica,sans-Serif" font-size="10.00">&lt; VertexT &gt;</text>
<text text-anchor="start" x="27" y="-454.5" font-family="Helvetica,sans-Serif" font-size="10.00">&#45;</text>
<text text-anchor="start" x="37" y="-454.5" font-family="Helvetica,sans-Serif" font-size="10.00">boundingVolume</text>
<text text-anchor="start" x="27" y="-438.5" font-family="Helvetica,sans-Serif" font-size="10.00">&#45;</text>
<text text-anchor="start" x="37" y="-438.5" font-family="Helvetica,sans-Serif" font-size="10.00">cachedHash</text>
<text text-anchor="start" x="27" y="-422.5" font-family="Helvetica,sans-Serif" font-size="10.00">&#45;</text>
<text text-anchor="start" x="37" y="-422.5" font-family="Helvetica,sans-Serif" font-size="10.00">dirtyFlag</text>
<text text-anchor="start" x="27" y="-406.5" font-family="Helvetica,sans-Serif" font-size="10.00">&#45;</text>
<text text-anchor="start" x="37" y="-406.5" font-family="Helvetica,sans-Serif" font-size="10.00">faces</text>
<text text-anchor="start" x="27" y="-390.5" font-family="Helvetica,sans-Serif" font-size="10.00">&#45;</text>
<text text-anchor="start" x="37" y="-390.5" font-family="Helvetica,sans-Serif" font-size="10.00">facesMutex</text>
<text text-anchor="start" x="27" y="-374.5" font-family="Helvetica,sans-Serif" font-size="10.00">&#45;</text>
<text text-anchor="start" x="37" y="-374.5" font-family="Helvetica,sans-Serif" font-size="10.00">hashDirty</text>
<text text-anchor="start" x="27" y="-358.5" font-family="Helvetica,sans-Serif" font-size="10.00">&#45;</text>
<text text-anchor="start" x="37" y="-358.5" font-family="Helvetica,sans-Serif" font-size="10.00">indexBuffer</text>
<text text-anchor="start" x="27" y="-342.5" font-family="Helvetica,sans-Serif" font-size="10.00">&#45;</text>
<text text-anchor="start" x="37" y="-342.5" font-family="Helvetica,sans-Serif" font-size="10.00">indices</text>
<text text-anchor="start" x="27" y="-326.5" font-family="Helvetica,sans-Serif" font-size="10.00">&#45;</text>
<text text-anchor="start" x="37" y="-326.5" font-family="Helvetica,sans-Serif" font-size="10.00">indicesMutex</text>
<text text-anchor="start" x="27" y="-310.5" font-family="Helvetica,sans-Serif" font-size="10.00">&#45;</text>
<text text-anchor="start" x="37" y="-310.5" font-family="Helvetica,sans-Serif" font-size="10.00">isBuilding</text>
<text text-anchor="start" x="37" y="-294.5" font-family="Helvetica,sans-Serif" font-size="10.00">and 7 more...</text>
<text text-anchor="start" x="25.5" y="-278.5" font-family="Helvetica,sans-Serif" font-size="10.00">+</text>
<text text-anchor="start" x="37" y="-278.5" font-family="Helvetica,sans-Serif" font-size="10.00">Mesh()</text>
<text text-anchor="start" x="25.5" y="-262.5" font-family="Helvetica,sans-Serif" font-size="10.00">+</text>
<text text-anchor="start" x="37" y="-262.5" font-family="Helvetica,sans-Serif" font-size="10.00">Mesh()</text>
<text text-anchor="start" x="25.5" y="-246.5" font-family="Helvetica,sans-Serif" font-size="10.00">+</text>
<text text-anchor="start" x="37" y="-246.5" font-family="Helvetica,sans-Serif" font-size="10.00">Mesh()</text>
<text text-anchor="start" x="25.5" y="-230.5" font-family="Helvetica,sans-Serif" font-size="10.00">+</text>
<text text-anchor="start" x="37" y="-230.5" font-family="Helvetica,sans-Serif" font-size="10.00">~Mesh()</text>
<text text-anchor="start" x="25.5" y="-214.5" font-family="Helvetica,sans-Serif" font-size="10.00">+</text>
<text text-anchor="start" x="37" y="-214.5" font-family="Helvetica,sans-Serif" font-size="10.00">addQuad()</text>
<text text-anchor="start" x="25.5" y="-198.5" font-family="Helvetica,sans-Serif" font-size="10.00">+</text>
<text text-anchor="start" x="37" y="-198.5" font-family="Helvetica,sans-Serif" font-size="10.00">addQuad()</text>
<text text-anchor="start" x="25.5" y="-182.5" font-family="Helvetica,sans-Serif" font-size="10.00">+</text>
<text text-anchor="start" x="37" y="-182.5" font-family="Helvetica,sans-Serif" font-size="10.00">addTris()</text>
<text text-anchor="start" x="25.5" y="-166.5" font-family="Helvetica,sans-Serif" font-size="10.00">+</text>
<text text-anchor="start" x="37" y="-166.5" font-family="Helvetica,sans-Serif" font-size="10.00">addTris()</text>
<text text-anchor="start" x="25.5" y="-150.5" font-family="Helvetica,sans-Serif" font-size="10.00">+</text>
<text text-anchor="start" x="37" y="-150.5" font-family="Helvetica,sans-Serif" font-size="10.00">addTris()</text>
<text text-anchor="start" x="25.5" y="-134.5" font-family="Helvetica,sans-Serif" font-size="10.00">+</text>
<text text-anchor="start" x="37" y="-134.5" font-family="Helvetica,sans-Serif" font-size="10.00">addVertex()</text>
<text text-anchor="start" x="37" y="-118.5" font-family="Helvetica,sans-Serif" font-size="10.00">and 26 more...</text>
<text text-anchor="start" x="27" y="-102.5" font-family="Helvetica,sans-Serif" font-size="10.00">&#45;</text>
<text text-anchor="start" x="37" y="-102.5" font-family="Helvetica,sans-Serif" font-size="10.00">calculateHash()</text>
<text text-anchor="start" x="27" y="-86.5" font-family="Helvetica,sans-Serif" font-size="10.00">&#45;</text>
<text text-anchor="start" x="37" y="-86.5" font-family="Helvetica,sans-Serif" font-size="10.00">calculateNormal()</text>
<text text-anchor="start" x="27" y="-70.5" font-family="Helvetica,sans-Serif" font-size="10.00">&#45;</text>
<text text-anchor="start" x="37" y="-70.5" font-family="Helvetica,sans-Serif" font-size="10.00">destroyBuffers()</text>
<text text-anchor="start" x="27" y="-54.5" font-family="Helvetica,sans-Serif" font-size="10.00">&#45;</text>
<text text-anchor="start" x="37" y="-54.5" font-family="Helvetica,sans-Serif" font-size="10.00">getIndexBuffer()</text>
<text text-anchor="start" x="27" y="-38.5" font-family="Helvetica,sans-Serif" font-size="10.00">&#45;</text>
<text text-anchor="start" x="37" y="-38.5" font-family="Helvetica,sans-Serif" font-size="10.00">getVertexArray()</text>
<text text-anchor="start" x="27" y="-22.5" font-family="Helvetica,sans-Serif" font-size="10.00">&#45;</text>
<text text-anchor="start" x="37" y="-22.5" font-family="Helvetica,sans-Serif" font-size="10.00">getVertexBuffer()</text>
<text text-anchor="start" x="27" y="-6.5" font-family="Helvetica,sans-Serif" font-size="10.00">&#45;</text>
<text text-anchor="start" x="37" y="-6.5" font-family="Helvetica,sans-Serif" font-size="10.00">sendToGpuBuffers()</text>
<polygon fill="#666666" stroke="#666666" points="20,-466 20,-466 129,-466 129,-466 20,-466"/>
<polygon fill="#666666" stroke="#666666" points="20,-290 20,-290 35,-290 35,-290 20,-290"/>
<polygon fill="#666666" stroke="#666666" points="35,-290 35,-290 129,-290 129,-290 35,-290"/>
<polygon fill="none" stroke="#666666" points="20,0 20,-496 129,-496 129,0 20,0"/>
</a>
</g>
</g>
<!-- Node2 -->
<g id="Node000002" class="node">
<title>Node2</title>
<g id="a_Node000002"><a xlink:href="class_engine_component.html" target="_top" xlink:title="Class that represents a component of the engine.">
<polygon fill="white" stroke="none" points="149,-664 0,-664 0,-532 149,-532 149,-664"/>
<text text-anchor="start" x="34.75" y="-650.5" font-family="Helvetica,sans-Serif" font-size="10.00">EngineComponent</text>
<text text-anchor="start" x="5.5" y="-634.5" font-family="Helvetica,sans-Serif" font-size="10.00">&#45;</text>
<text text-anchor="start" x="14" y="-634.5" font-family="Helvetica,sans-Serif" font-size="10.00">entityOwnerName</text>
<text text-anchor="start" x="4" y="-618.5" font-family="Helvetica,sans-Serif" font-size="10.00">+</text>
<text text-anchor="start" x="14" y="-618.5" font-family="Helvetica,sans-Serif" font-size="10.00">~EngineComponent()</text>
<text text-anchor="start" x="4" y="-602.5" font-family="Helvetica,sans-Serif" font-size="10.00">+</text>
<text text-anchor="start" x="14" y="-602.5" font-family="Helvetica,sans-Serif" font-size="10.00">getDebuggingValues()</text>
<text text-anchor="start" x="4" y="-586.5" font-family="Helvetica,sans-Serif" font-size="10.00">+</text>
<text text-anchor="start" x="14" y="-586.5" font-family="Helvetica,sans-Serif" font-size="10.00">getOwnerName()</text>
<text text-anchor="start" x="4" y="-570.5" font-family="Helvetica,sans-Serif" font-size="10.00">+</text>
<text text-anchor="start" x="14" y="-570.5" font-family="Helvetica,sans-Serif" font-size="10.00">getUpdatedDebuggingValues()</text>
<text text-anchor="start" x="4" y="-554.5" font-family="Helvetica,sans-Serif" font-size="10.00">+</text>
<text text-anchor="start" x="14" y="-554.5" font-family="Helvetica,sans-Serif" font-size="10.00">setOwnerName()</text>
<text text-anchor="start" x="4" y="-538.5" font-family="Helvetica,sans-Serif" font-size="10.00">+</text>
<text text-anchor="start" x="14" y="-538.5" font-family="Helvetica,sans-Serif" font-size="10.00">toString()</text>
<polygon fill="#666666" stroke="#666666" points="0,-646 0,-646 149,-646 149,-646 0,-646"/>
<polygon fill="#666666" stroke="#666666" points="0,-630 0,-630 12,-630 12,-630 0,-630"/>
<polygon fill="#666666" stroke="#666666" points="12,-630 12,-630 149,-630 149,-630 12,-630"/>
<polygon fill="none" stroke="#666666" points="0,-532 0,-664 149,-664 149,-532 0,-532"/>
</a>
</g>
</g>
<!-- Node2&#45;&gt;Node1 -->
<g id="edge1_Node000001_Node000002" class="edge">
<title>Node2&#45;&gt;Node1</title>
<g id="a_edge1_Node000001_Node000002"><a xlink:title=" ">
<path fill="none" stroke="#63b8ff" d="M74.5,-520.91C74.5,-512.89 74.5,-504.45 74.5,-495.72"/>
<polygon fill="none" stroke="#63b8ff" points="71,-520.85 74.5,-530.85 78,-520.85 71,-520.85"/>
</a>
</g>
</g>
</g>
</svg>
