<?xml version="1.0" encoding="UTF-8" standalone="no"?>
<!DOCTYPE svg PUBLIC "-//W3C//DTD SVG 1.1//EN"
 "http://www.w3.org/Graphics/SVG/1.1/DTD/svg11.dtd">
<!-- Generated by graphviz version 11.0.0 (20240428.1522)
 -->
<!-- Title: GLESC::GAPI::OpenGLAPI::isTextureBound Pages: 1 -->
<svg width="488pt" height="178pt"
 viewBox="0.00 0.00 488.00 178.00" xmlns="http://www.w3.org/2000/svg" xmlns:xlink="http://www.w3.org/1999/xlink">

<svg id="main" version="1.1" xmlns="http://www.w3.org/2000/svg" xmlns:xlink="http://www.w3.org/1999/xlink" xml:space="preserve" onload="init(evt)">
<style type="text/css"><![CDATA[
.node, .edge {opacity: 0.7;}
.node.selected, .edge.selected {opacity: 1;}
.edge:hover path { stroke: red; }
.edge:hover polygon { stroke: red; fill: red; }
]]></style>
<script type="application/ecmascript" xlink:href="svg.min.js"/>
<svg id="graph" class="graph">
<g id="graph0" class="graph" transform="scale(1 1) rotate(0) translate(4 174)">
<title>GLESC::GAPI::OpenGLAPI::isTextureBound</title>
<!-- Node1 -->
<g id="Node000001" class="node">
<title>Node1</title>
<g id="a_Node000001"><a xlink:title=" ">
<polygon fill="#999999" stroke="#666666" points="480,-104 344,-104 344,-72 480,-72 480,-104"/>
<text text-anchor="start" x="352" y="-90.5" font-family="Helvetica,sans-Serif" font-size="10.00">GLESC::GAPI::OpenGLAPI</text>
<text text-anchor="middle" x="412" y="-78.5" font-family="Helvetica,sans-Serif" font-size="10.00">::isTextureBound</text>
</a>
</g>
</g>
<!-- Node2 -->
<g id="Node000002" class="node">
<title>Node2</title>
<g id="a_Node000002"><a xlink:href="class_g_l_e_s_c_1_1_g_a_p_i_1_1_open_g_l_a_p_i.html#aacefa7dc3b588f4ceef95531a3b71c14" target="_top" xlink:title=" ">
<polygon fill="white" stroke="#666666" points="308,-170 172,-170 172,-138 308,-138 308,-170"/>
<text text-anchor="start" x="180" y="-156.5" font-family="Helvetica,sans-Serif" font-size="10.00">GLESC::GAPI::OpenGLAPI</text>
<text text-anchor="middle" x="240" y="-144.5" font-family="Helvetica,sans-Serif" font-size="10.00">::getTextureColorFormat</text>
</a>
</g>
</g>
<!-- Node1&#45;&gt;Node2 -->
<g id="edge1_Node000001_Node000002" class="edge">
<title>Node1&#45;&gt;Node2</title>
<g id="a_edge1_Node000001_Node000002"><a xlink:title=" ">
<path fill="none" stroke="#63b8ff" d="M357.81,-108.65C333.77,-117.98 305.77,-128.85 283.21,-137.61"/>
<polygon fill="#63b8ff" stroke="#63b8ff" points="359.07,-111.91 367.13,-105.03 356.54,-105.39 359.07,-111.91"/>
</a>
</g>
</g>
<!-- Node3 -->
<g id="Node000003" class="node">
<title>Node3</title>
<g id="a_Node000003"><a xlink:href="class_g_l_e_s_c_1_1_g_a_p_i_1_1_open_g_l_a_p_i.html#a445008a2c7a99cac3ec1e41701ea3eb9" target="_top" xlink:title=" ">
<polygon fill="white" stroke="#666666" points="136,-104 0,-104 0,-72 136,-72 136,-104"/>
<text text-anchor="start" x="8" y="-90.5" font-family="Helvetica,sans-Serif" font-size="10.00">GLESC::GAPI::OpenGLAPI</text>
<text text-anchor="middle" x="68" y="-78.5" font-family="Helvetica,sans-Serif" font-size="10.00">::getTextureData</text>
</a>
</g>
</g>
<!-- Node1&#45;&gt;Node3 -->
<g id="edge3_Node000001_Node000003" class="edge">
<title>Node1&#45;&gt;Node3</title>
<g id="a_edge3_Node000001_Node000003"><a xlink:title=" ">
<path fill="none" stroke="#63b8ff" d="M332.19,-90.53C324.02,-90.72 315.84,-90.89 308,-91 247.56,-91.88 232.44,-91.88 172,-91 160.46,-90.83 148.2,-90.56 136.31,-90.24"/>
<polygon fill="#63b8ff" stroke="#63b8ff" points="332.27,-94.03 342.18,-90.28 332.09,-87.03 332.27,-94.03"/>
</a>
</g>
</g>
<!-- Node4 -->
<g id="Node000004" class="node">
<title>Node4</title>
<g id="a_Node000004"><a xlink:href="class_g_l_e_s_c_1_1_g_a_p_i_1_1_open_g_l_a_p_i.html#a89bf65df371d987ebf93fd56a9fab721" target="_top" xlink:title=" ">
<polygon fill="white" stroke="#666666" points="308,-82 172,-82 172,-50 308,-50 308,-82"/>
<text text-anchor="start" x="180" y="-68.5" font-family="Helvetica,sans-Serif" font-size="10.00">GLESC::GAPI::OpenGLAPI</text>
<text text-anchor="middle" x="240" y="-56.5" font-family="Helvetica,sans-Serif" font-size="10.00">::getTextureHeight</text>
</a>
</g>
</g>
<!-- Node1&#45;&gt;Node4 -->
<g id="edge4_Node000001_Node000004" class="edge">
<title>Node1&#45;&gt;Node4</title>
<g id="a_edge4_Node000001_Node000004"><a xlink:title=" ">
<path fill="none" stroke="#63b8ff" d="M332.46,-77.84C324.37,-76.79 316.21,-75.73 308.26,-74.7"/>
<polygon fill="#63b8ff" stroke="#63b8ff" points="331.94,-81.3 342.31,-79.11 332.84,-74.36 331.94,-81.3"/>
</a>
</g>
</g>
<!-- Node5 -->
<g id="Node000005" class="node">
<title>Node5</title>
<g id="a_Node000005"><a xlink:href="class_g_l_e_s_c_1_1_g_a_p_i_1_1_open_g_l_a_p_i.html#aa00fea9ea279f8b0e10500b5d1bf436a" target="_top" xlink:title=" ">
<polygon fill="white" stroke="#666666" points="308,-32 172,-32 172,0 308,0 308,-32"/>
<text text-anchor="start" x="180" y="-18.5" font-family="Helvetica,sans-Serif" font-size="10.00">GLESC::GAPI::OpenGLAPI</text>
<text text-anchor="middle" x="240" y="-6.5" font-family="Helvetica,sans-Serif" font-size="10.00">::getTextureWidth</text>
</a>
</g>
</g>
<!-- Node1&#45;&gt;Node5 -->
<g id="edge6_Node000001_Node000005" class="edge">
<title>Node1&#45;&gt;Node5</title>
<g id="a_edge6_Node000001_Node000005"><a xlink:title=" ">
<path fill="none" stroke="#63b8ff" d="M366.26,-66.75C348.28,-58.43 327.28,-48.98 308,-41 301,-38.1 293.54,-35.17 286.22,-32.37"/>
<polygon fill="#63b8ff" stroke="#63b8ff" points="364.55,-69.81 375.09,-70.86 367.51,-63.47 364.55,-69.81"/>
</a>
</g>
</g>
<!-- Node2&#45;&gt;Node3 -->
<g id="edge2_Node000002_Node000003" class="edge">
<title>Node2&#45;&gt;Node3</title>
<g id="a_edge2_Node000002_Node000003"><a xlink:title=" ">
<path fill="none" stroke="#63b8ff" d="M185.81,-133.35C161.77,-124.02 133.77,-113.15 111.21,-104.39"/>
<polygon fill="#63b8ff" stroke="#63b8ff" points="184.54,-136.61 195.13,-136.97 187.07,-130.09 184.54,-136.61"/>
</a>
</g>
</g>
<!-- Node4&#45;&gt;Node3 -->
<g id="edge5_Node000004_Node000003" class="edge">
<title>Node4&#45;&gt;Node3</title>
<g id="a_edge5_Node000004_Node000003"><a xlink:title=" ">
<path fill="none" stroke="#63b8ff" d="M160.46,-76.16C152.37,-77.21 144.21,-78.27 136.26,-79.3"/>
<polygon fill="#63b8ff" stroke="#63b8ff" points="160.84,-79.64 170.31,-74.89 159.94,-72.7 160.84,-79.64"/>
</a>
</g>
</g>
<!-- Node5&#45;&gt;Node3 -->
<g id="edge7_Node000005_Node000003" class="edge">
<title>Node5&#45;&gt;Node3</title>
<g id="a_edge7_Node000005_Node000003"><a xlink:title=" ">
<path fill="none" stroke="#63b8ff" d="M183.11,-36.51C179.34,-38 175.61,-39.51 172,-41 148.94,-50.55 123.41,-62.19 103.53,-71.5"/>
<polygon fill="#63b8ff" stroke="#63b8ff" points="184.31,-39.8 192.37,-32.92 181.78,-33.28 184.31,-39.8"/>
</a>
</g>
</g>
</g>
</svg>
</svg>

<style type='text/css'>
<![CDATA[
[data-mouse-over-selected='false'] { opacity: 0.7; }
[data-mouse-over-selected='true']  { opacity: 1.0; }
]]>
</style>
<script type="application/ecmascript"><![CDATA[
document.addEventListener('DOMContentLoaded', (event) => {
  highlightEdges();
  highlightAdjacentNodes();
});
]]></script>
</svg>
