<?xml version="1.0" encoding="UTF-8" standalone="no"?>
<!DOCTYPE svg PUBLIC "-//W3C//DTD SVG 1.1//EN"
 "http://www.w3.org/Graphics/SVG/1.1/DTD/svg11.dtd">
<!-- Generated by graphviz version 11.0.0 (20240428.1522)
 -->
<!-- Title: GLESC::Math::Polyhedron::addFace Pages: 1 -->
<svg width="307pt" height="58pt"
 viewBox="0.00 0.00 307.00 58.00" xmlns="http://www.w3.org/2000/svg" xmlns:xlink="http://www.w3.org/1999/xlink">
<g id="graph0" class="graph" transform="scale(1 1) rotate(0) translate(4 54)">
<title>GLESC::Math::Polyhedron::addFace</title>
<!-- Node1 -->
<g id="Node000001" class="node">
<title>Node1</title>
<g id="a_Node000001"><a xlink:title="Add a face to the polyhedron. The face is defined by the indices of the vertices.">
<polygon fill="#999999" stroke="#666666" points="131.5,-32 0,-32 0,0 131.5,0 131.5,-32"/>
<text text-anchor="start" x="8" y="-18.5" font-family="Helvetica,sans-Serif" font-size="10.00">GLESC::Math::Polyhedron</text>
<text text-anchor="middle" x="65.75" y="-6.5" font-family="Helvetica,sans-Serif" font-size="10.00">::addFace</text>
</a>
</g>
</g>
<!-- Node2 -->
<g id="Node000002" class="node">
<title>Node2</title>
<g id="a_Node000002"><a xlink:href="class_g_l_e_s_c_1_1_math_1_1_polyhedron.html#abcbb3db03df72c7e0a6af459c982e5ea" target="_top" xlink:title="Checks if the list of face indices are out of bounds with the current size of the vertices.">
<polygon fill="white" stroke="#666666" points="299,-32 167.5,-32 167.5,0 299,0 299,-32"/>
<text text-anchor="start" x="175.5" y="-18.5" font-family="Helvetica,sans-Serif" font-size="10.00">GLESC::Math::Polyhedron</text>
<text text-anchor="middle" x="233.25" y="-6.5" font-family="Helvetica,sans-Serif" font-size="10.00">::isOutOfBounds</text>
</a>
</g>
</g>
<!-- Node1&#45;&gt;Node2 -->
<g id="edge1_Node000001_Node000002" class="edge">
<title>Node1&#45;&gt;Node2</title>
<g id="a_edge1_Node000001_Node000002"><a xlink:title=" ">
<path fill="none" stroke="#63b8ff" d="M131.68,-16C139.63,-16 147.79,-16 155.88,-16"/>
<polygon fill="#63b8ff" stroke="#63b8ff" points="155.72,-19.5 165.72,-16 155.72,-12.5 155.72,-19.5"/>
</a>
</g>
</g>
<!-- Node2&#45;&gt;Node2 -->
<g id="edge2_Node000002_Node000002" class="edge">
<title>Node2&#45;&gt;Node2</title>
<g id="a_edge2_Node000002_Node000002"><a xlink:title=" ">
<path fill="none" stroke="#63b8ff" d="M203.35,-32.44C197.76,-41.58 207.73,-50 233.25,-50 247.2,-50 256.51,-47.48 261.16,-43.71"/>
<polygon fill="#63b8ff" stroke="#63b8ff" points="264.6,-44.39 262.89,-33.93 257.7,-43.17 264.6,-44.39"/>
</a>
</g>
</g>
</g>
</svg>
