<?xml version="1.0" encoding="UTF-8" standalone="no"?>
<!DOCTYPE svg PUBLIC "-//W3C//DTD SVG 1.1//EN"
 "http://www.w3.org/Graphics/SVG/1.1/DTD/svg11.dtd">
<!-- Generated by graphviz version 11.0.0 (20240428.1522)
 -->
<!-- Title: GLESC::GAPI::OpenGLAPI::getTextureColorFormat Pages: 1 -->
<!--zoomable 228 -->

<svg id="main" version="1.1" xmlns="http://www.w3.org/2000/svg" xmlns:xlink="http://www.w3.org/1999/xlink" xml:space="preserve" onload="init(evt)">
<style type="text/css"><![CDATA[
.node, .edge {opacity: 0.7;}
.node.selected, .edge.selected {opacity: 1;}
.edge:hover path { stroke: red; }
.edge:hover polygon { stroke: red; fill: red; }
]]></style>

<defs>
  <circle id="rim" cx="0" cy="0" r="7"/>
  <circle id="rim2" cx="0" cy="0" r="3.5"/>
  <g id="zoomPlus">
    <use xlink:href="#rim" fill="#404040"><set attributeName="fill" to="#808080" begin="zoomplus.mouseover" end="zoomplus.mouseout"/></use>
    <path d="M-4,0h8M0,-4v8" fill="none" stroke="white" stroke-width="1.5" pointer-events="none"/>
  </g>
  <g id="zoomMin">
    <use xlink:href="#rim" fill="#404040"><set attributeName="fill" to="#808080" begin="zoomminus.mouseover" end="zoomminus.mouseout"/></use>
    <path d="M-4,0h8" fill="none" stroke="white" stroke-width="1.5" pointer-events="none"/>
  </g>
  <g id="arrowUp" transform="translate(30 24)">
    <use xlink:href="#rim"/>
    <path pointer-events="none" fill="none" stroke="white" stroke-width="1.5" d="M0,-3.0v7 M-2.5,-0.5L0,-3.0L2.5,-0.5"/>
  </g>
  <g id="arrowRight" transform="rotate(90) translate(36 -43)">
    <use xlink:href="#rim"/>
    <path pointer-events="none" fill="none" stroke="white" stroke-width="1.5" d="M0,-3.0v7 M-2.5,-0.5L0,-3.0L2.5,-0.5"/>
  </g>
  <g id="arrowDown" transform="rotate(180) translate(-30 -48)">
    <use xlink:href="#rim"/>
    <path pointer-events="none" fill="none" stroke="white" stroke-width="1.5" d="M0,-3.0v7 M-2.5,-0.5L0,-3.0L2.5,-0.5"/>
  </g>
  <g id="arrowLeft" transform="rotate(270) translate(-36 17)">
    <use xlink:href="#rim"/>
    <path pointer-events="none" fill="none" stroke="white" stroke-width="1.5" d="M0,-3.0v7 M-2.5,-0.5L0,-3.0L2.5,-0.5"/>
  </g>
  <g id="resetDef">
    <use xlink:href="#rim2" fill="#404040"><set attributeName="fill" to="#808080" begin="reset.mouseover" end="reset.mouseout"/></use>
  </g>
</defs>
<script type="application/ecmascript">
var viewWidth = 644;
var viewHeight = 228;
var sectionId = 'dynsection-9';
</script>
<script type="application/ecmascript" xlink:href="svg.min.js"/>
<svg id="graph" class="graph">
<g id="viewport">
<title>GLESC::GAPI::OpenGLAPI::getTextureColorFormat</title>
<!-- Node1 -->
<g id="Node000001" class="node">
<title>Node1</title>
<g id="a_Node000001"><a xlink:title=" ">
<polygon fill="#999999" stroke="#666666" points="136,-132 0,-132 0,-100 136,-100 136,-132"/>
<text text-anchor="start" x="8" y="-118.5" font-family="Helvetica,sans-Serif" font-size="10.00">GLESC::GAPI::OpenGLAPI</text>
<text text-anchor="middle" x="68" y="-106.5" font-family="Helvetica,sans-Serif" font-size="10.00">::getTextureColorFormat</text>
</a>
</g>
</g>
<!-- Node2 -->
<g id="Node000002" class="node">
<title>Node2</title>
<g id="a_Node000002"><a xlink:href="class_g_l_e_s_c_1_1_logger.html#a9b12ce53593be134b7d7dea62607d22d" target="_top" xlink:title=" ">
<polygon fill="white" stroke="#666666" points="291.88,-208 188.12,-208 188.12,-188 291.88,-188 291.88,-208"/>
<text text-anchor="middle" x="240" y="-194.5" font-family="Helvetica,sans-Serif" font-size="10.00">GLESC::Logger::get</text>
</a>
</g>
</g>
<!-- Node1&#45;&gt;Node2 -->
<g id="edge1_Node000001_Node000002" class="edge">
<title>Node1&#45;&gt;Node2</title>
<g id="a_edge1_Node000001_Node000002"><a xlink:title=" ">
<path fill="none" stroke="#63b8ff" d="M91.73,-132.42C111.97,-146.41 142.81,-166.22 172,-179 176.06,-180.78 180.33,-182.43 184.66,-183.97"/>
<polygon fill="#63b8ff" stroke="#63b8ff" points="183.47,-187.26 194.06,-187.06 185.66,-180.61 183.47,-187.26"/>
</a>
</g>
</g>
<!-- Node3 -->
<g id="Node000003" class="node">
<title>Node3</title>
<g id="a_Node000003"><a xlink:href="class_g_l_e_s_c_1_1_logger.html#a5fa42012f212a31fe7eb06c5ba93caba" target="_top" xlink:title="Display basic information Background – Black Text – White.">
<polygon fill="white" stroke="#666666" points="292.62,-170 187.38,-170 187.38,-150 292.62,-150 292.62,-170"/>
<text text-anchor="middle" x="240" y="-156.5" font-family="Helvetica,sans-Serif" font-size="10.00">GLESC::Logger::info</text>
</a>
</g>
</g>
<!-- Node1&#45;&gt;Node3 -->
<g id="edge2_Node000001_Node000003" class="edge">
<title>Node1&#45;&gt;Node3</title>
<g id="a_edge2_Node000001_Node000003"><a xlink:title=" ">
<path fill="none" stroke="#63b8ff" d="M132.3,-132.38C150.5,-137.09 170.12,-142.17 187.51,-146.67"/>
<polygon fill="#63b8ff" stroke="#63b8ff" points="186.56,-150.04 197.12,-149.16 188.31,-143.27 186.56,-150.04"/>
</a>
</g>
</g>
<!-- Node8 -->
<g id="Node000008" class="node">
<title>Node8</title>
<g id="a_Node000008"><a xlink:href="class_g_l_e_s_c_1_1_g_a_p_i_1_1_open_g_l_a_p_i.html#a791591ba90cb777ca1395778de95871b" target="_top" xlink:title=" ">
<polygon fill="white" stroke="#666666" points="308,-132 172,-132 172,-100 308,-100 308,-132"/>
<text text-anchor="start" x="180" y="-118.5" font-family="Helvetica,sans-Serif" font-size="10.00">GLESC::GAPI::OpenGLAPI</text>
<text text-anchor="middle" x="240" y="-106.5" font-family="Helvetica,sans-Serif" font-size="10.00">::isTexture</text>
</a>
</g>
</g>
<!-- Node1&#45;&gt;Node8 -->
<g id="edge8_Node000001_Node000008" class="edge">
<title>Node1&#45;&gt;Node8</title>
<g id="a_edge8_Node000001_Node000008"><a xlink:title=" ">
<path fill="none" stroke="#63b8ff" d="M136.19,-116C144.14,-116 152.3,-116 160.39,-116"/>
<polygon fill="#63b8ff" stroke="#63b8ff" points="160.23,-119.5 170.23,-116 160.23,-112.5 160.23,-119.5"/>
</a>
</g>
</g>
<!-- Node9 -->
<g id="Node000009" class="node">
<title>Node9</title>
<g id="a_Node000009"><a xlink:href="class_g_l_e_s_c_1_1_g_a_p_i_1_1_open_g_l_a_p_i.html#a76a65fb1240cb2f9b4731829993238b0" target="_top" xlink:title=" ">
<polygon fill="white" stroke="#666666" points="308,-82 172,-82 172,-50 308,-50 308,-82"/>
<text text-anchor="start" x="180" y="-68.5" font-family="Helvetica,sans-Serif" font-size="10.00">GLESC::GAPI::OpenGLAPI</text>
<text text-anchor="middle" x="240" y="-56.5" font-family="Helvetica,sans-Serif" font-size="10.00">::isTextureBound</text>
</a>
</g>
</g>
<!-- Node1&#45;&gt;Node9 -->
<g id="edge9_Node000001_Node000009" class="edge">
<title>Node1&#45;&gt;Node9</title>
<g id="a_edge9_Node000001_Node000009"><a xlink:title=" ">
<path fill="none" stroke="#63b8ff" d="M124.66,-99.63C139.85,-95.16 156.46,-90.28 172.19,-85.65"/>
<polygon fill="#63b8ff" stroke="#63b8ff" points="172.86,-89.1 181.47,-82.92 170.89,-82.39 172.86,-89.1"/>
</a>
</g>
</g>
<!-- Node10 -->
<g id="Node000010" class="node">
<title>Node10</title>
<g id="a_Node000010"><a xlink:href="namespace_g_l_e_s_c_1_1_g_a_p_i_1_1_enums.html#a2741454f6baed1d79502ce55557a7926" target="_top" xlink:title="Converts the type count to string.">
<polygon fill="white" stroke="#666666" points="297.5,-32 182.5,-32 182.5,0 297.5,0 297.5,-32"/>
<text text-anchor="start" x="190.5" y="-18.5" font-family="Helvetica,sans-Serif" font-size="10.00">GLESC::GAPI::Enums</text>
<text text-anchor="middle" x="240" y="-6.5" font-family="Helvetica,sans-Serif" font-size="10.00">::toString</text>
</a>
</g>
</g>
<!-- Node1&#45;&gt;Node10 -->
<g id="edge10_Node000001_Node000010" class="edge">
<title>Node1&#45;&gt;Node10</title>
<g id="a_edge10_Node000001_Node000010"><a xlink:title=" ">
<path fill="none" stroke="#63b8ff" d="M88.07,-99.65C107.98,-83.18 140.63,-57.86 172,-41 174.63,-39.59 177.35,-38.22 180.13,-36.9"/>
<polygon fill="#63b8ff" stroke="#63b8ff" points="181.26,-40.23 188.98,-32.97 178.42,-33.83 181.26,-40.23"/>
</a>
</g>
</g>
<!-- Node4 -->
<g id="Node000004" class="node">
<title>Node4</title>
<g id="a_Node000004"><a xlink:href="class_g_l_e_s_c_1_1_logger.html#adcc4730c087b2df0b97cccc15557e432" target="_top" xlink:title=" ">
<polygon fill="white" stroke="#666666" points="481.5,-220 344,-220 344,-188 481.5,-188 481.5,-220"/>
<text text-anchor="start" x="352" y="-206.5" font-family="Helvetica,sans-Serif" font-size="10.00">GLESC::Logger::executeOn</text>
<text text-anchor="middle" x="412.75" y="-194.5" font-family="Helvetica,sans-Serif" font-size="10.00">AllInputs</text>
</a>
</g>
</g>
<!-- Node3&#45;&gt;Node4 -->
<g id="edge3_Node000003_Node000004" class="edge">
<title>Node3&#45;&gt;Node4</title>
<g id="a_edge3_Node000003_Node000004"><a xlink:title=" ">
<path fill="none" stroke="#63b8ff" d="M281.47,-170.43C298.04,-174.7 317.76,-179.78 336.79,-184.68"/>
<polygon fill="#63b8ff" stroke="#63b8ff" points="335.86,-188.06 346.41,-187.16 337.6,-181.28 335.86,-188.06"/>
</a>
</g>
</g>
<!-- Node6 -->
<g id="Node000006" class="node">
<title>Node6</title>
<g id="a_Node000006"><a xlink:href="_debug_entity_data_h_u_d_8cpp.html#a9acf295be457442cac6bccc0bf75112c" target="_top" xlink:title=" ">
<polygon fill="white" stroke="#666666" points="593.12,-173 560.62,-173 560.62,-153 593.12,-153 593.12,-173"/>
<text text-anchor="middle" x="576.88" y="-159.5" font-family="Helvetica,sans-Serif" font-size="10.00">text</text>
</a>
</g>
</g>
<!-- Node3&#45;&gt;Node6 -->
<g id="edge7_Node000003_Node000006" class="edge">
<title>Node3&#45;&gt;Node6</title>
<g id="a_edge7_Node000003_Node000006"><a xlink:title=" ">
<path fill="none" stroke="#63b8ff" d="M292.96,-160.47C365.2,-161.11 493.37,-162.26 548.94,-162.76"/>
<polygon fill="#63b8ff" stroke="#63b8ff" points="548.7,-166.26 558.73,-162.85 548.76,-159.26 548.7,-166.26"/>
</a>
</g>
</g>
<!-- Node7 -->
<g id="Node000007" class="node">
<title>Node7</title>
<g id="a_Node000007"><a xlink:href="class_i_logger.html#af378b37a56de2bad5c4ce2d0f7572f9c" target="_top" xlink:title="Display basic information Background – Black Text – White.">
<polygon fill="white" stroke="#666666" points="447,-132 378.5,-132 378.5,-112 447,-112 447,-132"/>
<text text-anchor="middle" x="412.75" y="-118.5" font-family="Helvetica,sans-Serif" font-size="10.00">ILogger::info</text>
</a>
</g>
</g>
<!-- Node3&#45;&gt;Node7 -->
<g id="edge6_Node000003_Node000007" class="edge">
<title>Node3&#45;&gt;Node7</title>
<g id="a_edge6_Node000003_Node000007"><a xlink:title=" ">
<path fill="none" stroke="#63b8ff" d="M288.11,-149.52C312.74,-144.03 342.72,-137.36 366.99,-131.96"/>
<polygon fill="#63b8ff" stroke="#63b8ff" points="367.57,-135.42 376.58,-129.83 366.05,-128.58 367.57,-135.42"/>
</a>
</g>
</g>
<!-- Node5 -->
<g id="Node000005" class="node">
<title>Node5</title>
<g id="a_Node000005"><a xlink:href="class_concurrent_queue.html#a7d61d602747cee9adf97076d2781023c" target="_top" xlink:title=" ">
<polygon fill="white" stroke="#666666" points="636.25,-214 517.5,-214 517.5,-194 636.25,-194 636.25,-214"/>
<text text-anchor="middle" x="576.88" y="-200.5" font-family="Helvetica,sans-Serif" font-size="10.00">ConcurrentQueue::push</text>
</a>
</g>
</g>
<!-- Node4&#45;&gt;Node5 -->
<g id="edge4_Node000004_Node000005" class="edge">
<title>Node4&#45;&gt;Node5</title>
<g id="a_edge4_Node000004_Node000005"><a xlink:title=" ">
<path fill="none" stroke="#63b8ff" d="M481.57,-204C489.59,-204 497.79,-204 505.84,-204"/>
<polygon fill="#63b8ff" stroke="#63b8ff" points="505.57,-207.5 515.57,-204 505.57,-200.5 505.57,-207.5"/>
</a>
</g>
</g>
<!-- Node4&#45;&gt;Node6 -->
<g id="edge5_Node000004_Node000006" class="edge">
<title>Node4&#45;&gt;Node6</title>
<g id="a_edge5_Node000004_Node000006"><a xlink:title=" ">
<path fill="none" stroke="#63b8ff" d="M478.76,-187.56C503.3,-181.35 529.89,-174.63 549.03,-169.79"/>
<polygon fill="#63b8ff" stroke="#63b8ff" points="549.86,-173.19 558.7,-167.34 548.15,-166.4 549.86,-173.19"/>
</a>
</g>
</g>
</g>
</svg>

<g id="navigator" transform="translate(0 0)" fill="#404254">
  <rect fill="#f2f5e9" fill-opacity="0.5" stroke="#606060" stroke-width=".5" x="0" y="0" width="60" height="60"/>
  <use id="zoomplus" xlink:href="#zoomPlus" x="17" y="9" onmousedown="handleZoom(evt,'in')"/>
  <use id="zoomminus" xlink:href="#zoomMin" x="42" y="9" onmousedown="handleZoom(evt,'out')"/>
  <use id="reset" xlink:href="#resetDef" x="30" y="36" onmousedown="handleReset()"/>
   <use id="arrowup" xlink:href="#arrowUp" x="0" y="0" onmousedown="handlePan(0,-1)"/>
  <use id="arrowright" xlink:href="#arrowRight" x="0" y="0" onmousedown="handlePan(1,0)"/>
  <use id="arrowdown" xlink:href="#arrowDown" x="0" y="0" onmousedown="handlePan(0,1)"/>
  <use id="arrowleft" xlink:href="#arrowLeft" x="0" y="0" onmousedown="handlePan(-1,0)"/>
</g>
<svg viewBox="0 0 15 15" width="100%" height="30px" preserveAspectRatio="xMaxYMin meet">
 <g id="arrow_out" transform="scale(0.3 0.3)">
  <a xlink:href="class_g_l_e_s_c_1_1_g_a_p_i_1_1_open_g_l_a_p_i_aacefa7dc3b588f4ceef95531a3b71c14_cgraph_org.svg" target="_base">
   <rect id="button" ry="5" rx="5" y="6" x="6" height="38" width="38"
        fill="#f2f5e9" fill-opacity="0.5" stroke="#606060" stroke-width="1.0"/>
   <path id="arrow"
     d="M 11.500037,31.436501 C 11.940474,20.09759 22.043105,11.32322 32.158766,21.979434 L 37.068811,17.246167 C 37.068811,17.246167 37.088388,32 37.088388,32 L 22.160133,31.978069 C 22.160133,31.978069 26.997745,27.140456 26.997745,27.140456 C 18.528582,18.264221 13.291696,25.230495 11.500037,31.436501 z"
     style="fill:#404040;"/>
  </a>
 </g>
</svg>

<style type='text/css'>
<![CDATA[
[data-mouse-over-selected='false'] { opacity: 0.7; }
[data-mouse-over-selected='true']  { opacity: 1.0; }
]]>
</style>
<script type="application/ecmascript"><![CDATA[
document.addEventListener('DOMContentLoaded', (event) => {
  highlightEdges();
  highlightAdjacentNodes();
});
]]></script>
</svg>
