<?xml version="1.0" encoding="UTF-8" standalone="no"?>
<!DOCTYPE svg PUBLIC "-//W3C//DTD SVG 1.1//EN"
 "http://www.w3.org/Graphics/SVG/1.1/DTD/svg11.dtd">
<!-- Generated by graphviz version 11.0.0 (20240428.1522)
 -->
<!-- Title: GLESC::HUD::DebugEntityData::windowContent Pages: 1 -->
<svg width="309pt" height="116pt"
 viewBox="0.00 0.00 308.50 116.00" xmlns="http://www.w3.org/2000/svg" xmlns:xlink="http://www.w3.org/1999/xlink">
<g id="graph0" class="graph" transform="scale(1 1) rotate(0) translate(4 112)">
<title>GLESC::HUD::DebugEntityData::windowContent</title>
<!-- Node1 -->
<g id="Node000001" class="node">
<title>Node1</title>
<g id="a_Node000001"><a xlink:title=" ">
<polygon fill="#999999" stroke="#666666" points="154.75,-70 0,-70 0,-38 154.75,-38 154.75,-70"/>
<text text-anchor="start" x="8" y="-56.5" font-family="Helvetica,sans-Serif" font-size="10.00">GLESC::HUD::DebugEntityData</text>
<text text-anchor="middle" x="77.38" y="-44.5" font-family="Helvetica,sans-Serif" font-size="10.00">::windowContent</text>
</a>
</g>
</g>
<!-- Node2 -->
<g id="Node000002" class="node">
<title>Node2</title>
<g id="a_Node000002"><a xlink:href="class_hud_look_and_feel.html#a0ee2f510aa90c638dbac3b132d5da122" target="_top" xlink:title="Returns the singleton instance of the class.">
<polygon fill="white" stroke="#666666" points="300.5,-108 190.75,-108 190.75,-88 300.5,-88 300.5,-108"/>
<text text-anchor="middle" x="245.62" y="-94.5" font-family="Helvetica,sans-Serif" font-size="10.00">HudLookAndFeel::get</text>
</a>
</g>
</g>
<!-- Node1&#45;&gt;Node2 -->
<g id="edge1_Node000001_Node000002" class="edge">
<title>Node1&#45;&gt;Node2</title>
<g id="a_edge1_Node000001_Node000002"><a xlink:title=" ">
<path fill="none" stroke="#63b8ff" d="M140.28,-70.38C158.15,-75.11 177.43,-80.22 194.49,-84.73"/>
<polygon fill="#63b8ff" stroke="#63b8ff" points="193.32,-88.04 203.88,-87.22 195.11,-81.27 193.32,-88.04"/>
</a>
</g>
</g>
<!-- Node3 -->
<g id="Node000003" class="node">
<title>Node3</title>
<g id="a_Node000003"><a xlink:href="class_entity_stats_manager.html#a37a90cfba2ee36225b973f2099081603" target="_top" xlink:title=" ">
<polygon fill="white" stroke="#666666" points="296.75,-70 194.5,-70 194.5,-38 296.75,-38 296.75,-70"/>
<text text-anchor="start" x="202.5" y="-56.5" font-family="Helvetica,sans-Serif" font-size="10.00">EntityStatsManager</text>
<text text-anchor="middle" x="245.62" y="-44.5" font-family="Helvetica,sans-Serif" font-size="10.00">::getEntityData</text>
</a>
</g>
</g>
<!-- Node1&#45;&gt;Node3 -->
<g id="edge2_Node000001_Node000003" class="edge">
<title>Node1&#45;&gt;Node3</title>
<g id="a_edge2_Node000001_Node000003"><a xlink:title=" ">
<path fill="none" stroke="#63b8ff" d="M155.17,-54C164.51,-54 173.94,-54 183.02,-54"/>
<polygon fill="#63b8ff" stroke="#63b8ff" points="182.76,-57.5 192.76,-54 182.76,-50.5 182.76,-57.5"/>
</a>
</g>
</g>
<!-- Node4 -->
<g id="Node000004" class="node">
<title>Node4</title>
<g id="a_Node000004"><a xlink:href="_debug_entity_data_h_u_d_8cpp.html#a1d5b1631cc2294981614c6c8d1d1f889" target="_top" xlink:title=" ">
<polygon fill="white" stroke="#666666" points="288.5,-20 202.75,-20 202.75,0 288.5,0 288.5,-20"/>
<text text-anchor="middle" x="245.62" y="-6.5" font-family="Helvetica,sans-Serif" font-size="10.00">putInputForType</text>
</a>
</g>
</g>
<!-- Node1&#45;&gt;Node4 -->
<g id="edge3_Node000001_Node000004" class="edge">
<title>Node1&#45;&gt;Node4</title>
<g id="a_edge3_Node000001_Node000004"><a xlink:title=" ">
<path fill="none" stroke="#63b8ff" d="M140.28,-37.62C158.15,-32.89 177.43,-27.78 194.49,-23.27"/>
<polygon fill="#63b8ff" stroke="#63b8ff" points="195.11,-26.73 203.88,-20.78 193.32,-19.96 195.11,-26.73"/>
</a>
</g>
</g>
</g>
</svg>
