<?xml version="1.0" encoding="UTF-8" standalone="no"?>
<!DOCTYPE svg PUBLIC "-//W3C//DTD SVG 1.1//EN"
 "http://www.w3.org/Graphics/SVG/1.1/DTD/svg11.dtd">
<!-- Generated by graphviz version 11.0.0 (20240428.1522)
 -->
<!-- Title: GLESC::ECS::CameraSystem::update Pages: 1 -->
<svg width="896pt" height="212pt"
 viewBox="0.00 0.00 895.75 212.00" xmlns="http://www.w3.org/2000/svg" xmlns:xlink="http://www.w3.org/1999/xlink">
<g id="graph0" class="graph" transform="scale(1 1) rotate(0) translate(4 208)">
<title>GLESC::ECS::CameraSystem::update</title>
<!-- Node1 -->
<g id="Node000001" class="node">
<title>Node1</title>
<g id="a_Node000001"><a xlink:title="Updates the system.">
<polygon fill="#999999" stroke="#666666" points="148.75,-82 0,-82 0,-50 148.75,-50 148.75,-82"/>
<text text-anchor="start" x="8" y="-68.5" font-family="Helvetica,sans-Serif" font-size="10.00">GLESC::ECS::CameraSystem</text>
<text text-anchor="middle" x="74.38" y="-56.5" font-family="Helvetica,sans-Serif" font-size="10.00">::update</text>
</a>
</g>
</g>
<!-- Node2 -->
<g id="Node000002" class="node">
<title>Node2</title>
<g id="a_Node000002"><a xlink:href="class_g_l_e_s_c_1_1_e_c_s_1_1_system.html#a9b4f36ba29354a976dc23a598ec85952" target="_top" xlink:title="Gets the entities associated with the system.">
<polygon fill="white" stroke="#666666" points="308.75,-132 191.5,-132 191.5,-100 308.75,-100 308.75,-132"/>
<text text-anchor="start" x="199.5" y="-118.5" font-family="Helvetica,sans-Serif" font-size="10.00">GLESC::ECS::System</text>
<text text-anchor="middle" x="250.12" y="-106.5" font-family="Helvetica,sans-Serif" font-size="10.00">::getAssociatedEntities</text>
</a>
</g>
</g>
<!-- Node1&#45;&gt;Node2 -->
<g id="edge1_Node000001_Node000002" class="edge">
<title>Node1&#45;&gt;Node2</title>
<g id="a_edge1_Node000001_Node000002"><a xlink:title=" ">
<path fill="none" stroke="#63b8ff" d="M132.27,-82.37C147.79,-86.84 164.76,-91.72 180.84,-96.35"/>
<polygon fill="#63b8ff" stroke="#63b8ff" points="179.78,-99.69 190.35,-99.09 181.71,-92.96 179.78,-99.69"/>
</a>
</g>
</g>
<!-- Node8 -->
<g id="Node000008" class="node">
<title>Node8</title>
<g id="a_Node000008"><a xlink:href="class_g_l_e_s_c_1_1_window_manager.html#a9773451549202e2cee40c3106d8e5bbe" target="_top" xlink:title="Get the width and height of the window.">
<polygon fill="white" stroke="#666666" points="313.62,-82 186.62,-82 186.62,-50 313.62,-50 313.62,-82"/>
<text text-anchor="start" x="194.62" y="-68.5" font-family="Helvetica,sans-Serif" font-size="10.00">GLESC::WindowManager</text>
<text text-anchor="middle" x="250.12" y="-56.5" font-family="Helvetica,sans-Serif" font-size="10.00">::getSize</text>
</a>
</g>
</g>
<!-- Node1&#45;&gt;Node8 -->
<g id="edge8_Node000001_Node000008" class="edge">
<title>Node1&#45;&gt;Node8</title>
<g id="a_edge8_Node000001_Node000008"><a xlink:title=" ">
<path fill="none" stroke="#63b8ff" d="M149.06,-66C157.58,-66 166.28,-66 174.8,-66"/>
<polygon fill="#63b8ff" stroke="#63b8ff" points="174.79,-69.5 184.79,-66 174.79,-62.5 174.79,-69.5"/>
</a>
</g>
</g>
<!-- Node9 -->
<g id="Node000009" class="node">
<title>Node9</title>
<g id="a_Node000009"><a xlink:href="class_g_l_e_s_c_1_1_render_1_1_renderer.html#a9c70acf2cf0af8581a6b96abcd262a12" target="_top" xlink:title="This sets the camera for the renderer.">
<polygon fill="white" stroke="#666666" points="315.5,-32 184.75,-32 184.75,0 315.5,0 315.5,-32"/>
<text text-anchor="start" x="192.75" y="-18.5" font-family="Helvetica,sans-Serif" font-size="10.00">GLESC::Render::Renderer</text>
<text text-anchor="middle" x="250.12" y="-6.5" font-family="Helvetica,sans-Serif" font-size="10.00">::setCamera</text>
</a>
</g>
</g>
<!-- Node1&#45;&gt;Node9 -->
<g id="edge9_Node000001_Node000009" class="edge">
<title>Node1&#45;&gt;Node9</title>
<g id="a_edge9_Node000001_Node000009"><a xlink:title=" ">
<path fill="none" stroke="#63b8ff" d="M132.27,-49.63C147.79,-45.16 164.76,-40.28 180.84,-35.65"/>
<polygon fill="#63b8ff" stroke="#63b8ff" points="181.71,-39.04 190.35,-32.91 179.78,-32.31 181.71,-39.04"/>
</a>
</g>
</g>
<!-- Node3 -->
<g id="Node000003" class="node">
<title>Node3</title>
<g id="a_Node000003"><a xlink:href="class_g_l_e_s_c_1_1_e_c_s_1_1_e_c_s_coordinator.html#a73636f46c1a9f0bd7f380524210cf4b4" target="_top" xlink:title="Get the entities associated with a system.">
<polygon fill="white" stroke="#666666" points="502.5,-132 351.5,-132 351.5,-100 502.5,-100 502.5,-132"/>
<text text-anchor="start" x="359.5" y="-118.5" font-family="Helvetica,sans-Serif" font-size="10.00">GLESC::ECS::ECSCoordinator</text>
<text text-anchor="middle" x="427" y="-106.5" font-family="Helvetica,sans-Serif" font-size="10.00">::getAssociatedEntities</text>
</a>
</g>
</g>
<!-- Node2&#45;&gt;Node3 -->
<g id="edge2_Node000002_Node000003" class="edge">
<title>Node2&#45;&gt;Node3</title>
<g id="a_edge2_Node000002_Node000003"><a xlink:title=" ">
<path fill="none" stroke="#63b8ff" d="M308.87,-116C318.81,-116 329.32,-116 339.82,-116"/>
<polygon fill="#63b8ff" stroke="#63b8ff" points="339.65,-119.5 349.65,-116 339.65,-112.5 339.65,-119.5"/>
</a>
</g>
</g>
<!-- Node4 -->
<g id="Node000004" class="node">
<title>Node4</title>
<g id="a_Node000004"><a xlink:href="class_g_l_e_s_c_1_1_e_c_s_1_1_entity_manager.html#a5145504091eb26170aa219acb60aca71" target="_top" xlink:title="Check if the entity with the given name exists.">
<polygon fill="white" stroke="#666666" points="691,-204 546.75,-204 546.75,-172 691,-172 691,-204"/>
<text text-anchor="start" x="554.75" y="-190.5" font-family="Helvetica,sans-Serif" font-size="10.00">GLESC::ECS::EntityManager</text>
<text text-anchor="middle" x="618.88" y="-178.5" font-family="Helvetica,sans-Serif" font-size="10.00">::doesEntityExist</text>
</a>
</g>
</g>
<!-- Node3&#45;&gt;Node4 -->
<g id="edge3_Node000003_Node000004" class="edge">
<title>Node3&#45;&gt;Node4</title>
<g id="a_edge3_Node000003_Node000004"><a xlink:title=" ">
<path fill="none" stroke="#63b8ff" d="M463.98,-132.35C485.41,-141.82 513.27,-153.69 538.5,-163 543.12,-164.71 547.92,-166.4 552.77,-168.06"/>
<polygon fill="#63b8ff" stroke="#63b8ff" points="551.38,-171.29 561.98,-171.14 553.6,-164.65 551.38,-171.29"/>
</a>
</g>
</g>
<!-- Node5 -->
<g id="Node000005" class="node">
<title>Node5</title>
<g id="a_Node000005"><a xlink:href="class_g_l_e_s_c_1_1_e_c_s_1_1_system_manager.html#a283c04f81e82970a822c9696ddab2319" target="_top" xlink:title="Gets the entities associated with a system. The system must be registered.">
<polygon fill="white" stroke="#666666" points="699.25,-154 538.5,-154 538.5,-122 699.25,-122 699.25,-154"/>
<text text-anchor="start" x="546.5" y="-140.5" font-family="Helvetica,sans-Serif" font-size="10.00">GLESC::ECS::SystemManager</text>
<text text-anchor="middle" x="618.88" y="-128.5" font-family="Helvetica,sans-Serif" font-size="10.00">::getAssociatedEntitiesOfSystem</text>
</a>
</g>
</g>
<!-- Node3&#45;&gt;Node5 -->
<g id="edge4_Node000003_Node000005" class="edge">
<title>Node3&#45;&gt;Node5</title>
<g id="a_edge4_Node000003_Node000005"><a xlink:title=" ">
<path fill="none" stroke="#63b8ff" d="M502.77,-124.66C510.67,-125.58 518.77,-126.52 526.82,-127.45"/>
<polygon fill="#63b8ff" stroke="#63b8ff" points="526.33,-130.92 536.66,-128.59 527.13,-123.96 526.33,-130.92"/>
</a>
</g>
</g>
<!-- Node6 -->
<g id="Node000006" class="node">
<title>Node6</title>
<g id="a_Node000006"><a xlink:href="class_g_l_e_s_c_1_1_e_c_s_1_1_system_manager.html#a32f415d7a7e0cefc9e1b5c71a4dc1be4" target="_top" xlink:title="Checks if a system is registered.">
<polygon fill="white" stroke="#666666" points="887.75,-132 735.25,-132 735.25,-100 887.75,-100 887.75,-132"/>
<text text-anchor="start" x="743.25" y="-118.5" font-family="Helvetica,sans-Serif" font-size="10.00">GLESC::ECS::SystemManager</text>
<text text-anchor="middle" x="811.5" y="-106.5" font-family="Helvetica,sans-Serif" font-size="10.00">::isSystemRegistered</text>
</a>
</g>
</g>
<!-- Node3&#45;&gt;Node6 -->
<g id="edge7_Node000003_Node000006" class="edge">
<title>Node3&#45;&gt;Node6</title>
<g id="a_edge7_Node000003_Node000006"><a xlink:title=" ">
<path fill="none" stroke="#63b8ff" d="M502.89,-113.69C514.8,-113.4 526.99,-113.16 538.5,-113 609.94,-112.03 627.81,-112.04 699.25,-113 707.06,-113.11 715.18,-113.25 723.32,-113.42"/>
<polygon fill="#63b8ff" stroke="#63b8ff" points="723.21,-116.92 733.29,-113.65 723.37,-109.93 723.21,-116.92"/>
</a>
</g>
</g>
<!-- Node7 -->
<g id="Node000007" class="node">
<title>Node7</title>
<g id="a_Node000007"><a xlink:href="class_g_l_e_s_c_1_1_e_c_s_1_1_system_manager.html#abe8641c2514be36e652e7f77d0ed87a5" target="_top" xlink:title="Checks if an entity is associated with a system.">
<polygon fill="white" stroke="#666666" points="697.75,-66 540,-66 540,-34 697.75,-34 697.75,-66"/>
<text text-anchor="start" x="548" y="-52.5" font-family="Helvetica,sans-Serif" font-size="10.00">GLESC::ECS::SystemManager</text>
<text text-anchor="middle" x="618.88" y="-40.5" font-family="Helvetica,sans-Serif" font-size="10.00">::isEntityAssociatedWithSystem</text>
</a>
</g>
</g>
<!-- Node3&#45;&gt;Node7 -->
<g id="edge6_Node000003_Node000007" class="edge">
<title>Node3&#45;&gt;Node7</title>
<g id="a_edge6_Node000003_Node000007"><a xlink:title=" ">
<path fill="none" stroke="#63b8ff" d="M475.42,-99.52C501.12,-90.58 533.08,-79.48 560.2,-70.05"/>
<polygon fill="#63b8ff" stroke="#63b8ff" points="561,-73.47 569.3,-66.89 558.7,-66.86 561,-73.47"/>
</a>
</g>
</g>
<!-- Node5&#45;&gt;Node6 -->
<g id="edge5_Node000005_Node000006" class="edge">
<title>Node5&#45;&gt;Node6</title>
<g id="a_edge5_Node000005_Node000006"><a xlink:title=" ">
<path fill="none" stroke="#63b8ff" d="M699.61,-128.8C707.59,-127.88 715.71,-126.94 723.75,-126.01"/>
<polygon fill="#63b8ff" stroke="#63b8ff" points="724.01,-129.51 733.54,-124.88 723.21,-122.55 724.01,-129.51"/>
</a>
</g>
</g>
</g>
</svg>
