<?xml version="1.0" encoding="UTF-8" standalone="no"?>
<!DOCTYPE svg PUBLIC "-//W3C//DTD SVG 1.1//EN"
 "http://www.w3.org/Graphics/SVG/1.1/DTD/svg11.dtd">
<!-- Generated by graphviz version 11.0.0 (20240428.1522)
 -->
<!-- Title: GapiDebugger.h Pages: 1 -->
<svg width="172pt" height="164pt"
 viewBox="0.00 0.00 171.62 164.00" xmlns="http://www.w3.org/2000/svg" xmlns:xlink="http://www.w3.org/1999/xlink">
<g id="graph0" class="graph" transform="scale(1 1) rotate(0) translate(4 160)">
<title>GapiDebugger.h</title>
<!-- Node1 -->
<g id="Node000001" class="node">
<title>Node1</title>
<g id="a_Node000001"><a xlink:title="Debugging utilities for the GAPI.">
<polygon fill="#999999" stroke="#666666" points="107.88,-156 22.12,-156 22.12,-136 107.88,-136 107.88,-156"/>
<text text-anchor="middle" x="65" y="-142.5" font-family="Helvetica,sans-Serif" font-size="10.00">GapiDebugger.h</text>
</a>
</g>
</g>
<!-- Node2 -->
<g id="Node000002" class="node">
<title>Node2</title>
<g id="a_Node000002"><a xlink:title=" ">
<polygon fill="#e0e0e0" stroke="#999999" points="40,-88 0,-88 0,-68 40,-68 40,-88"/>
<text text-anchor="middle" x="20" y="-74.5" font-family="Helvetica,sans-Serif" font-size="10.00">string</text>
</a>
</g>
</g>
<!-- Node1&#45;&gt;Node2 -->
<g id="edge1_Node000001_Node000002" class="edge">
<title>Node1&#45;&gt;Node2</title>
<g id="a_edge1_Node000001_Node000002"><a xlink:title=" ">
<path fill="none" stroke="#63b8ff" d="M58.55,-135.54C51.87,-125.74 41.24,-110.16 32.84,-97.83"/>
<polygon fill="#63b8ff" stroke="#63b8ff" points="35.81,-95.98 27.29,-89.69 30.03,-99.92 35.81,-95.98"/>
</a>
</g>
</g>
<!-- Node3 -->
<g id="Node000003" class="node">
<title>Node3</title>
<g id="a_Node000003"><a xlink:href="_gapi_enums_8h.html" target="_top" xlink:title="@TODO Add description of this file if needed">
<polygon fill="white" stroke="#666666" points="163.62,-100 58.38,-100 58.38,-56 163.62,-56 163.62,-100"/>
<text text-anchor="start" x="66.38" y="-86.5" font-family="Helvetica,sans-Serif" font-size="10.00">engine/core/low&#45;level</text>
<text text-anchor="start" x="66.38" y="-74.5" font-family="Helvetica,sans-Serif" font-size="10.00">&#45;renderer/graphic&#45;api</text>
<text text-anchor="middle" x="111" y="-62.5" font-family="Helvetica,sans-Serif" font-size="10.00">/GapiEnums.h</text>
</a>
</g>
</g>
<!-- Node1&#45;&gt;Node3 -->
<g id="edge2_Node000001_Node000003" class="edge">
<title>Node1&#45;&gt;Node3</title>
<g id="a_edge2_Node000001_Node000003"><a xlink:title=" ">
<path fill="none" stroke="#63b8ff" d="M71.59,-135.54C76.36,-128.7 83.09,-119.04 89.65,-109.63"/>
<polygon fill="#63b8ff" stroke="#63b8ff" points="92.35,-111.88 95.2,-101.67 86.61,-107.87 92.35,-111.88"/>
</a>
</g>
</g>
<!-- Node4 -->
<g id="Node000004" class="node">
<title>Node4</title>
<g id="a_Node000004"><a xlink:href="_config_8h.html" target="_top" xlink:title="This file contains the configuration of the engine.">
<polygon fill="white" stroke="#666666" points="152.38,-20 69.62,-20 69.62,0 152.38,0 152.38,-20"/>
<text text-anchor="middle" x="111" y="-6.5" font-family="Helvetica,sans-Serif" font-size="10.00">engine/Config.h</text>
</a>
</g>
</g>
<!-- Node3&#45;&gt;Node4 -->
<g id="edge3_Node000003_Node000004" class="edge">
<title>Node3&#45;&gt;Node4</title>
<g id="a_edge3_Node000003_Node000004"><a xlink:title=" ">
<path fill="none" stroke="#63b8ff" d="M111,-55.75C111,-48.13 111,-39.53 111,-31.93"/>
<polygon fill="#63b8ff" stroke="#63b8ff" points="114.5,-31.93 111,-21.93 107.5,-31.93 114.5,-31.93"/>
</a>
</g>
</g>
</g>
</svg>
