<?xml version="1.0" encoding="UTF-8" standalone="no"?>
<!DOCTYPE svg PUBLIC "-//W3C//DTD SVG 1.1//EN"
 "http://www.w3.org/Graphics/SVG/1.1/DTD/svg11.dtd">
<!-- Generated by graphviz version 11.0.0 (20240428.1522)
 -->
<!-- Title: renderer Pages: 1 -->
<svg width="537pt" height="129pt"
 viewBox="0.00 0.00 537.00 128.87" xmlns="http://www.w3.org/2000/svg" xmlns:xlink="http://www.w3.org/1999/xlink">
<g id="graph0" class="graph" transform="scale(1 1) rotate(0) translate(4 124.87)">
<title>renderer</title>
<g id="clust1" class="cluster">
<title>clusterdir_dae283cde8a8f8ba1aab1ee8b3266bbb</title>
<g id="a_clust1"><a xlink:href="dir_dae283cde8a8f8ba1aab1ee8b3266bbb.html" target="_top" xlink:title="subsystems">
<polygon fill="#c3f1c2" stroke="#7f7f7f" stroke-dasharray="5,2" points="8,-40.87 8,-112.87 521,-112.87 521,-40.87 8,-40.87"/>
<text text-anchor="middle" x="264.5" y="-99.37" font-family="Helvetica,sans-Serif" font-size="10.00">subsystems</text>
</a>
</g>
</g>
<g id="clust2" class="cluster">
<title>clusterdir_fc4fcbbf588102488d3400df3ef26a67</title>
<g id="a_clust2"><a xlink:href="dir_fc4fcbbf588102488d3400df3ef26a67.html" target="_top">
<polygon fill="#c3f1c2" stroke="#404040" stroke-width="2" points="16,-48.87 16,-84.87 513,-84.87 513,-48.87 16,-48.87"/>
</a>
</g>
</g>
<!-- dir_fc4fcbbf588102488d3400df3ef26a67 -->
<g id="node1" class="node">
<title>dir_fc4fcbbf588102488d3400df3ef26a67</title>
<text text-anchor="middle" x="50" y="-63.37" font-family="Helvetica,sans-Serif" font-size="10.00">renderer</text>
</g>
<!-- dir_d44c64559bbebec7f509842c48db8b23 -->
<g id="node9" class="node">
<title>dir_d44c64559bbebec7f509842c48db8b23</title>
<g id="a_node9"><a xlink:href="dir_d44c64559bbebec7f509842c48db8b23.html" target="_top" xlink:title="include">
<polygon fill="#c3f1c2" stroke="red" points="290.38,-20.87 243.62,-20.87 243.62,-0.87 290.38,-0.87 290.38,-20.87"/>
<text text-anchor="middle" x="267" y="-7.37" font-family="Helvetica,sans-Serif" font-size="10.00">include</text>
</a>
</g>
</g>
<!-- dir_fc4fcbbf588102488d3400df3ef26a67&#45;&gt;dir_d44c64559bbebec7f509842c48db8b23 -->
<g id="edge1" class="edge">
<title>dir_fc4fcbbf588102488d3400df3ef26a67&#45;&gt;dir_d44c64559bbebec7f509842c48db8b23</title>
<g id="a_edge1"><a xlink:href="dir_000096_000060.html" target="_top">
<path fill="none" stroke="#63b8ff" d="M59.67,-57.08C66.31,-51.53 75.6,-44.72 85,-40.87 133.48,-20.99 194.42,-14.67 232.03,-12.71"/>
<polygon fill="#63b8ff" stroke="#63b8ff" points="232.03,-16.21 241.87,-12.27 231.73,-9.22 232.03,-16.21"/>
</a>
</g>
<g id="a_edge1&#45;headlabel"><a xlink:href="dir_000096_000060.html" target="_top" xlink:title="25">
<text text-anchor="middle" x="230.08" y="-15.64" font-family="Helvetica,sans-Serif" font-size="10.00" fill="#63b8ff">25</text>
</a>
</g>
</g>
<!-- dir_74434b56caa14ba79f09b12539e2acaa -->
<g id="node2" class="node">
<title>dir_74434b56caa14ba79f09b12539e2acaa</title>
<g id="a_node2"><a xlink:href="dir_74434b56caa14ba79f09b12539e2acaa.html" target="_top" xlink:title="camera">
<polygon fill="#9ae899" stroke="#404040" points="142.12,-76.87 93.88,-76.87 93.88,-56.87 142.12,-56.87 142.12,-76.87"/>
<text text-anchor="middle" x="118" y="-63.37" font-family="Helvetica,sans-Serif" font-size="10.00">camera</text>
</a>
</g>
</g>
<!-- dir_74434b56caa14ba79f09b12539e2acaa&#45;&gt;dir_d44c64559bbebec7f509842c48db8b23 -->
<g id="edge2" class="edge">
<title>dir_74434b56caa14ba79f09b12539e2acaa&#45;&gt;dir_d44c64559bbebec7f509842c48db8b23</title>
<g id="a_edge2"><a xlink:href="dir_000009_000060.html" target="_top">
<path fill="none" stroke="#63b8ff" d="M128.34,-56.61C134.75,-51.31 143.38,-44.93 152,-40.87 177.49,-28.85 208.6,-21.39 232.03,-17.05"/>
<polygon fill="#63b8ff" stroke="#63b8ff" points="232.44,-20.54 241.69,-15.37 231.24,-13.64 232.44,-20.54"/>
</a>
</g>
<g id="a_edge2&#45;headlabel"><a xlink:href="dir_000009_000060.html" target="_top" xlink:title="1">
<text text-anchor="middle" x="230.88" y="-20.19" font-family="Helvetica,sans-Serif" font-size="10.00" fill="#63b8ff">1</text>
</a>
</g>
</g>
<!-- dir_c36241f452a05afcd6bc91991cbd5e35 -->
<g id="node3" class="node">
<title>dir_c36241f452a05afcd6bc91991cbd5e35</title>
<g id="a_node3"><a xlink:href="dir_c36241f452a05afcd6bc91991cbd5e35.html" target="_top" xlink:title="fog">
<polygon fill="#9ae899" stroke="#404040" points="189.4,-76.87 160.6,-76.87 160.6,-56.87 189.4,-56.87 189.4,-76.87"/>
<text text-anchor="middle" x="175" y="-63.37" font-family="Helvetica,sans-Serif" font-size="10.00">fog</text>
</a>
</g>
</g>
<!-- dir_c36241f452a05afcd6bc91991cbd5e35&#45;&gt;dir_d44c64559bbebec7f509842c48db8b23 -->
<g id="edge3" class="edge">
<title>dir_c36241f452a05afcd6bc91991cbd5e35&#45;&gt;dir_d44c64559bbebec7f509842c48db8b23</title>
<g id="a_edge3"><a xlink:href="dir_000050_000060.html" target="_top">
<path fill="none" stroke="#63b8ff" d="M181.87,-56.62C186.07,-51.46 191.82,-45.21 198,-40.87 208.47,-33.51 221.11,-27.52 232.68,-22.93"/>
<polygon fill="#63b8ff" stroke="#63b8ff" points="233.78,-26.26 241.93,-19.5 231.34,-19.7 233.78,-26.26"/>
</a>
</g>
<g id="a_edge3&#45;headlabel"><a xlink:href="dir_000050_000060.html" target="_top" xlink:title="1">
<text text-anchor="middle" x="232.82" y="-26.14" font-family="Helvetica,sans-Serif" font-size="10.00" fill="#63b8ff">1</text>
</a>
</g>
</g>
<!-- dir_ac995c9a8ae8d064ef8b51e30416d677 -->
<g id="node4" class="node">
<title>dir_ac995c9a8ae8d064ef8b51e30416d677</title>
<g id="a_node4"><a xlink:href="dir_ac995c9a8ae8d064ef8b51e30416d677.html" target="_top" xlink:title="lightning">
<polygon fill="#9ae899" stroke="#404040" points="259,-76.87 207,-76.87 207,-56.87 259,-56.87 259,-76.87"/>
<text text-anchor="middle" x="233" y="-63.37" font-family="Helvetica,sans-Serif" font-size="10.00">lightning</text>
</a>
</g>
</g>
<!-- dir_ac995c9a8ae8d064ef8b51e30416d677&#45;&gt;dir_d44c64559bbebec7f509842c48db8b23 -->
<g id="edge4" class="edge">
<title>dir_ac995c9a8ae8d064ef8b51e30416d677&#45;&gt;dir_d44c64559bbebec7f509842c48db8b23</title>
<g id="a_edge4"><a xlink:href="dir_000066_000060.html" target="_top">
<path fill="none" stroke="#63b8ff" d="M238.92,-56.46C243.36,-49.41 249.58,-39.54 255.04,-30.87"/>
<polygon fill="#63b8ff" stroke="#63b8ff" points="257.97,-32.77 260.34,-22.45 252.05,-29.04 257.97,-32.77"/>
</a>
</g>
<g id="a_edge4&#45;headlabel"><a xlink:href="dir_000066_000060.html" target="_top" xlink:title="3">
<text text-anchor="middle" x="259.27" y="-32.55" font-family="Helvetica,sans-Serif" font-size="10.00" fill="#63b8ff">3</text>
</a>
</g>
</g>
<!-- dir_66c57f6b59ad462b8c00c72a369e17a7 -->
<g id="node5" class="node">
<title>dir_66c57f6b59ad462b8c00c72a369e17a7</title>
<g id="a_node5"><a xlink:href="dir_66c57f6b59ad462b8c00c72a369e17a7.html" target="_top" xlink:title="material">
<polygon fill="#9ae899" stroke="#404040" points="327.25,-76.87 276.75,-76.87 276.75,-56.87 327.25,-56.87 327.25,-76.87"/>
<text text-anchor="middle" x="302" y="-63.37" font-family="Helvetica,sans-Serif" font-size="10.00">material</text>
</a>
</g>
</g>
<!-- dir_66c57f6b59ad462b8c00c72a369e17a7&#45;&gt;dir_d44c64559bbebec7f509842c48db8b23 -->
<g id="edge5" class="edge">
<title>dir_66c57f6b59ad462b8c00c72a369e17a7&#45;&gt;dir_d44c64559bbebec7f509842c48db8b23</title>
<g id="a_edge5"><a xlink:href="dir_000075_000060.html" target="_top">
<path fill="none" stroke="#63b8ff" d="M295.9,-56.46C291.29,-49.34 284.79,-39.32 279.13,-30.58"/>
<polygon fill="#63b8ff" stroke="#63b8ff" points="282.23,-28.92 273.85,-22.43 276.35,-32.73 282.23,-28.92"/>
</a>
</g>
<g id="a_edge5&#45;headlabel"><a xlink:href="dir_000075_000060.html" target="_top" xlink:title="1">
<text text-anchor="middle" x="285.74" y="-25.62" font-family="Helvetica,sans-Serif" font-size="10.00" fill="#63b8ff">1</text>
</a>
</g>
</g>
<!-- dir_c7fff24d3978f7ba99d1d89851e58878 -->
<g id="node6" class="node">
<title>dir_c7fff24d3978f7ba99d1d89851e58878</title>
<g id="a_node6"><a xlink:href="dir_c7fff24d3978f7ba99d1d89851e58878.html" target="_top" xlink:title="math">
<polygon fill="#9ae899" stroke="#404040" points="382.88,-76.87 345.12,-76.87 345.12,-56.87 382.88,-56.87 382.88,-76.87"/>
<text text-anchor="middle" x="364" y="-63.37" font-family="Helvetica,sans-Serif" font-size="10.00">math</text>
</a>
</g>
</g>
<!-- dir_c7fff24d3978f7ba99d1d89851e58878&#45;&gt;dir_d44c64559bbebec7f509842c48db8b23 -->
<g id="edge6" class="edge">
<title>dir_c7fff24d3978f7ba99d1d89851e58878&#45;&gt;dir_d44c64559bbebec7f509842c48db8b23</title>
<g id="a_edge6"><a xlink:href="dir_000080_000060.html" target="_top">
<path fill="none" stroke="#63b8ff" d="M355.04,-56.47C349.83,-51.38 342.94,-45.25 336,-40.87 325.26,-34.08 312.66,-28.25 301.19,-23.63"/>
<polygon fill="#63b8ff" stroke="#63b8ff" points="302.64,-20.44 292.05,-20.13 300.13,-26.98 302.64,-20.44"/>
</a>
</g>
<g id="a_edge6&#45;headlabel"><a xlink:href="dir_000080_000060.html" target="_top" xlink:title="1">
<text text-anchor="middle" x="305.6" y="-15.03" font-family="Helvetica,sans-Serif" font-size="10.00" fill="#63b8ff">1</text>
</a>
</g>
</g>
<!-- dir_0819b87426774d132599db3c3b77ff80 -->
<g id="node7" class="node">
<title>dir_0819b87426774d132599db3c3b77ff80</title>
<g id="a_node7"><a xlink:href="dir_0819b87426774d132599db3c3b77ff80.html" target="_top" xlink:title="mesh">
<polygon fill="#9ae899" stroke="#404040" points="441,-76.87 401,-76.87 401,-56.87 441,-56.87 441,-76.87"/>
<text text-anchor="middle" x="421" y="-63.37" font-family="Helvetica,sans-Serif" font-size="10.00">mesh</text>
</a>
</g>
</g>
<!-- dir_0819b87426774d132599db3c3b77ff80&#45;&gt;dir_d44c64559bbebec7f509842c48db8b23 -->
<g id="edge7" class="edge">
<title>dir_0819b87426774d132599db3c3b77ff80&#45;&gt;dir_d44c64559bbebec7f509842c48db8b23</title>
<g id="a_edge7"><a xlink:href="dir_000083_000060.html" target="_top">
<path fill="none" stroke="#63b8ff" d="M412.69,-56.75C407.29,-51.36 399.82,-44.84 392,-40.87 363.58,-26.44 327.88,-19.08 301.91,-15.39"/>
<polygon fill="#63b8ff" stroke="#63b8ff" points="302.6,-11.95 292.23,-14.14 301.7,-18.9 302.6,-11.95"/>
</a>
</g>
<g id="a_edge7&#45;headlabel"><a xlink:href="dir_000083_000060.html" target="_top" xlink:title="2">
<text text-anchor="middle" x="305.03" y="-5.9" font-family="Helvetica,sans-Serif" font-size="10.00" fill="#63b8ff">2</text>
</a>
</g>
</g>
<!-- dir_a32222a17a3913104a8f43b882ecca15 -->
<g id="node8" class="node">
<title>dir_a32222a17a3913104a8f43b882ecca15</title>
<g id="a_node8"><a xlink:href="dir_a32222a17a3913104a8f43b882ecca15.html" target="_top" xlink:title="texture">
<polygon fill="#9ae899" stroke="#404040" points="505,-76.87 459,-76.87 459,-56.87 505,-56.87 505,-76.87"/>
<text text-anchor="middle" x="482" y="-63.37" font-family="Helvetica,sans-Serif" font-size="10.00">texture</text>
</a>
</g>
</g>
<!-- dir_a32222a17a3913104a8f43b882ecca15&#45;&gt;dir_d44c64559bbebec7f509842c48db8b23 -->
<g id="edge8" class="edge">
<title>dir_a32222a17a3913104a8f43b882ecca15&#45;&gt;dir_d44c64559bbebec7f509842c48db8b23</title>
<g id="a_edge8"><a xlink:href="dir_000120_000060.html" target="_top">
<path fill="none" stroke="#63b8ff" d="M472.76,-56.56C466.78,-51.11 458.53,-44.58 450,-40.87 401.69,-19.86 340.29,-13.86 302.33,-12.27"/>
<polygon fill="#63b8ff" stroke="#63b8ff" points="302.49,-8.77 292.38,-11.94 302.26,-15.77 302.49,-8.77"/>
</a>
</g>
<g id="a_edge8&#45;headlabel"><a xlink:href="dir_000120_000060.html" target="_top" xlink:title="8">
<text text-anchor="middle" x="304.67" y="-2.5" font-family="Helvetica,sans-Serif" font-size="10.00" fill="#63b8ff">8</text>
</a>
</g>
</g>
</g>
</svg>
