<?xml version="1.0" encoding="UTF-8" standalone="no"?>
<!DOCTYPE svg PUBLIC "-//W3C//DTD SVG 1.1//EN"
 "http://www.w3.org/Graphics/SVG/1.1/DTD/svg11.dtd">
<!-- Generated by graphviz version 11.0.0 (20240428.1522)
 -->
<!-- Title: math Pages: 1 -->
<svg width="497pt" height="148pt"
 viewBox="0.00 0.00 497.00 148.00" xmlns="http://www.w3.org/2000/svg" xmlns:xlink="http://www.w3.org/1999/xlink">
<g id="graph0" class="graph" transform="scale(1 1) rotate(0) translate(4 144)">
<title>math</title>
<g id="clust1" class="cluster">
<title>clusterdir_fdbc7b4b5b4c04d598adc44afc34d9a5</title>
<g id="a_clust1"><a xlink:href="dir_fdbc7b4b5b4c04d598adc44afc34d9a5.html" target="_top" xlink:title="core">
<polygon fill="#c3f1c2" stroke="#7f7f7f" stroke-dasharray="5,2" points="8,-28 8,-132 481,-132 481,-28 8,-28"/>
<text text-anchor="middle" x="244.5" y="-118.5" font-family="Helvetica,sans-Serif" font-size="10.00">core</text>
</a>
</g>
</g>
<g id="clust2" class="cluster">
<title>clusterdir_928631363f584bd1145bedea1a4d16d8</title>
<g id="a_clust2"><a xlink:href="dir_928631363f584bd1145bedea1a4d16d8.html" target="_top">
<polygon fill="#c3f1c2" stroke="#404040" stroke-width="2" points="16,-36 16,-104 473,-104 473,-36 16,-36"/>
</a>
</g>
</g>
<g id="clust3" class="cluster">
<title>clusterdir_233732bd19c6e8e9fec5e7e23c3ed006</title>
<g id="a_clust3"><a xlink:href="dir_233732bd19c6e8e9fec5e7e23c3ed006.html" target="_top">
<polygon fill="#9ae899" stroke="#404040" points="24,-44 24,-96 417,-96 417,-44 24,-44"/>
</a>
</g>
</g>
<g id="clust4" class="cluster">
<title>clusterdir_93b1735605cf407854257e8be6a03517</title>
<g id="a_clust4"><a xlink:href="dir_93b1735605cf407854257e8be6a03517.html" target="_top">
<polygon fill="#71df6f" stroke="#404040" points="32,-52 32,-88 343,-88 343,-52 32,-52"/>
</a>
</g>
</g>
<!-- dir_928631363f584bd1145bedea1a4d16d8 -->
<g id="node1" class="node">
<title>dir_928631363f584bd1145bedea1a4d16d8</title>
<text text-anchor="middle" x="446" y="-66.5" font-family="Helvetica,sans-Serif" font-size="10.00">math</text>
</g>
<!-- dir_233732bd19c6e8e9fec5e7e23c3ed006 -->
<g id="node2" class="node">
<title>dir_233732bd19c6e8e9fec5e7e23c3ed006</title>
<text text-anchor="middle" x="381" y="-66.5" font-family="Helvetica,sans-Serif" font-size="10.00">geometry</text>
</g>
<!-- dir_93b1735605cf407854257e8be6a03517 -->
<g id="node3" class="node">
<title>dir_93b1735605cf407854257e8be6a03517</title>
<text text-anchor="middle" x="62" y="-66.5" font-family="Helvetica,sans-Serif" font-size="10.00">figures</text>
</g>
<!-- dir_d44c64559bbebec7f509842c48db8b23 -->
<g id="node8" class="node">
<title>dir_d44c64559bbebec7f509842c48db8b23</title>
<g id="a_node8"><a xlink:href="dir_d44c64559bbebec7f509842c48db8b23.html" target="_top" xlink:title="include">
<polygon fill="#c3f1c2" stroke="red" points="194.38,-20 147.62,-20 147.62,0 194.38,0 194.38,-20"/>
<text text-anchor="middle" x="171" y="-6.5" font-family="Helvetica,sans-Serif" font-size="10.00">include</text>
</a>
</g>
</g>
<!-- dir_93b1735605cf407854257e8be6a03517&#45;&gt;dir_d44c64559bbebec7f509842c48db8b23 -->
<g id="edge1" class="edge">
<title>dir_93b1735605cf407854257e8be6a03517&#45;&gt;dir_d44c64559bbebec7f509842c48db8b23</title>
<g id="a_edge1"><a xlink:href="dir_000049_000066.html" target="_top">
<path fill="none" stroke="#63b8ff" d="M66.38,-60.33C71.63,-50.86 81.32,-36 94,-28 106.48,-20.13 122.11,-15.87 136.02,-13.58"/>
<polygon fill="#63b8ff" stroke="#63b8ff" points="136.24,-17.08 145.69,-12.28 135.31,-10.14 136.24,-17.08"/>
</a>
</g>
<g id="a_edge1&#45;headlabel"><a xlink:href="dir_000049_000066.html" target="_top" xlink:title="8">
<text text-anchor="middle" x="134.56" y="-16.67" font-family="Helvetica,sans-Serif" font-size="10.00" fill="#63b8ff">8</text>
</a>
</g>
</g>
<!-- dir_f31183350402a08d8af5d58339537267 -->
<g id="node4" class="node">
<title>dir_f31183350402a08d8af5d58339537267</title>
<g id="a_node4"><a xlink:href="dir_f31183350402a08d8af5d58339537267.html" target="_top" xlink:title="line">
<polygon fill="#4bd649" stroke="#404040" points="133.5,-80 102.5,-80 102.5,-60 133.5,-60 133.5,-80"/>
<text text-anchor="middle" x="118" y="-66.5" font-family="Helvetica,sans-Serif" font-size="10.00">line</text>
</a>
</g>
</g>
<!-- dir_f31183350402a08d8af5d58339537267&#45;&gt;dir_d44c64559bbebec7f509842c48db8b23 -->
<g id="edge2" class="edge">
<title>dir_f31183350402a08d8af5d58339537267&#45;&gt;dir_d44c64559bbebec7f509842c48db8b23</title>
<g id="a_edge2"><a xlink:href="dir_000074_000066.html" target="_top">
<path fill="none" stroke="#63b8ff" d="M121.81,-59.63C125.81,-50.68 132.79,-37.22 142,-28 142.18,-27.82 142.35,-27.65 142.53,-27.48"/>
<polygon fill="#63b8ff" stroke="#63b8ff" points="144.61,-30.3 150.39,-21.42 140.33,-24.75 144.61,-30.3"/>
</a>
</g>
<g id="a_edge2&#45;headlabel"><a xlink:href="dir_000074_000066.html" target="_top" xlink:title="1">
<text text-anchor="middle" x="144.69" y="-30.32" font-family="Helvetica,sans-Serif" font-size="10.00" fill="#63b8ff">1</text>
</a>
</g>
</g>
<!-- dir_ba045630be4562738cdef536f0a9b24c -->
<g id="node5" class="node">
<title>dir_ba045630be4562738cdef536f0a9b24c</title>
<g id="a_node5"><a xlink:href="dir_ba045630be4562738cdef536f0a9b24c.html" target="_top" xlink:title="plane">
<polygon fill="#4bd649" stroke="#404040" points="190.62,-80 151.38,-80 151.38,-60 190.62,-60 190.62,-80"/>
<text text-anchor="middle" x="171" y="-66.5" font-family="Helvetica,sans-Serif" font-size="10.00">plane</text>
</a>
</g>
</g>
<!-- dir_ba045630be4562738cdef536f0a9b24c&#45;&gt;dir_d44c64559bbebec7f509842c48db8b23 -->
<g id="edge3" class="edge">
<title>dir_ba045630be4562738cdef536f0a9b24c&#45;&gt;dir_d44c64559bbebec7f509842c48db8b23</title>
<g id="a_edge3"><a xlink:href="dir_000100_000066.html" target="_top">
<path fill="none" stroke="#63b8ff" d="M171,-59.68C171,-52.2 171,-41.41 171,-31.89"/>
<polygon fill="#63b8ff" stroke="#63b8ff" points="174.5,-32 171,-22 167.5,-32 174.5,-32"/>
</a>
</g>
<g id="a_edge3&#45;headlabel"><a xlink:href="dir_000100_000066.html" target="_top" xlink:title="1">
<text text-anchor="middle" x="177.34" y="-30.58" font-family="Helvetica,sans-Serif" font-size="10.00" fill="#63b8ff">1</text>
</a>
</g>
</g>
<!-- dir_793a1dd64caeda8b28d5ab0cd292e749 -->
<g id="node6" class="node">
<title>dir_793a1dd64caeda8b28d5ab0cd292e749</title>
<g id="a_node6"><a xlink:href="dir_793a1dd64caeda8b28d5ab0cd292e749.html" target="_top" xlink:title="polyhedron">
<polygon fill="#4bd649" stroke="#404040" points="271.62,-80 208.38,-80 208.38,-60 271.62,-60 271.62,-80"/>
<text text-anchor="middle" x="240" y="-66.5" font-family="Helvetica,sans-Serif" font-size="10.00">polyhedron</text>
</a>
</g>
</g>
<!-- dir_793a1dd64caeda8b28d5ab0cd292e749&#45;&gt;dir_d44c64559bbebec7f509842c48db8b23 -->
<g id="edge4" class="edge">
<title>dir_793a1dd64caeda8b28d5ab0cd292e749&#45;&gt;dir_d44c64559bbebec7f509842c48db8b23</title>
<g id="a_edge4"><a xlink:href="dir_000102_000066.html" target="_top">
<path fill="none" stroke="#63b8ff" d="M232.34,-59.83C224.71,-51.03 212.37,-37.68 200,-28 199.35,-27.49 198.67,-26.98 197.99,-26.48"/>
<polygon fill="#63b8ff" stroke="#63b8ff" points="200.21,-23.75 189.93,-21.17 196.36,-29.6 200.21,-23.75"/>
</a>
</g>
<g id="a_edge4&#45;headlabel"><a xlink:href="dir_000102_000066.html" target="_top" xlink:title="4">
<text text-anchor="middle" x="203.51" y="-19.02" font-family="Helvetica,sans-Serif" font-size="10.00" fill="#63b8ff">4</text>
</a>
</g>
</g>
<!-- dir_ae26576a47566927a211c7c4580daf62 -->
<g id="node7" class="node">
<title>dir_ae26576a47566927a211c7c4580daf62</title>
<g id="a_node7"><a xlink:href="dir_ae26576a47566927a211c7c4580daf62.html" target="_top" xlink:title="sphere">
<polygon fill="#4bd649" stroke="#404040" points="334.62,-80 289.38,-80 289.38,-60 334.62,-60 334.62,-80"/>
<text text-anchor="middle" x="312" y="-66.5" font-family="Helvetica,sans-Serif" font-size="10.00">sphere</text>
</a>
</g>
</g>
<!-- dir_ae26576a47566927a211c7c4580daf62&#45;&gt;dir_d44c64559bbebec7f509842c48db8b23 -->
<g id="edge5" class="edge">
<title>dir_ae26576a47566927a211c7c4580daf62&#45;&gt;dir_d44c64559bbebec7f509842c48db8b23</title>
<g id="a_edge5"><a xlink:href="dir_000118_000066.html" target="_top">
<path fill="none" stroke="#63b8ff" d="M307.73,-59.83C302.75,-50.22 293.56,-35.5 281,-28 268.59,-20.59 233.11,-16.03 205.77,-13.53"/>
<polygon fill="#63b8ff" stroke="#63b8ff" points="206.41,-10.07 196.14,-12.7 205.81,-17.04 206.41,-10.07"/>
</a>
</g>
<g id="a_edge5&#45;headlabel"><a xlink:href="dir_000118_000066.html" target="_top" xlink:title="1">
<text text-anchor="middle" x="208.72" y="-3.92" font-family="Helvetica,sans-Serif" font-size="10.00" fill="#63b8ff">1</text>
</a>
</g>
</g>
</g>
</svg>
