<?xml version="1.0" encoding="UTF-8" standalone="no"?>
<!DOCTYPE svg PUBLIC "-//W3C//DTD SVG 1.1//EN"
 "http://www.w3.org/Graphics/SVG/1.1/DTD/svg11.dtd">
<!-- Generated by graphviz version 11.0.0 (20240428.1522)
 -->
<!-- Title: unit Pages: 1 -->
<!--zoomable 181 -->

<svg id="main" version="1.1" xmlns="http://www.w3.org/2000/svg" xmlns:xlink="http://www.w3.org/1999/xlink" xml:space="preserve" onload="init(evt)">
<style type="text/css"><![CDATA[
.node, .edge {opacity: 0.7;}
.node.selected, .edge.selected {opacity: 1;}
.edge:hover path { stroke: red; }
.edge:hover polygon { stroke: red; fill: red; }
]]></style>

<defs>
  <circle id="rim" cx="0" cy="0" r="7"/>
  <circle id="rim2" cx="0" cy="0" r="3.5"/>
  <g id="zoomPlus">
    <use xlink:href="#rim" fill="#404040"><set attributeName="fill" to="#808080" begin="zoomplus.mouseover" end="zoomplus.mouseout"/></use>
    <path d="M-4,0h8M0,-4v8" fill="none" stroke="white" stroke-width="1.5" pointer-events="none"/>
  </g>
  <g id="zoomMin">
    <use xlink:href="#rim" fill="#404040"><set attributeName="fill" to="#808080" begin="zoomminus.mouseover" end="zoomminus.mouseout"/></use>
    <path d="M-4,0h8" fill="none" stroke="white" stroke-width="1.5" pointer-events="none"/>
  </g>
  <g id="arrowUp" transform="translate(30 24)">
    <use xlink:href="#rim"/>
    <path pointer-events="none" fill="none" stroke="white" stroke-width="1.5" d="M0,-3.0v7 M-2.5,-0.5L0,-3.0L2.5,-0.5"/>
  </g>
  <g id="arrowRight" transform="rotate(90) translate(36 -43)">
    <use xlink:href="#rim"/>
    <path pointer-events="none" fill="none" stroke="white" stroke-width="1.5" d="M0,-3.0v7 M-2.5,-0.5L0,-3.0L2.5,-0.5"/>
  </g>
  <g id="arrowDown" transform="rotate(180) translate(-30 -48)">
    <use xlink:href="#rim"/>
    <path pointer-events="none" fill="none" stroke="white" stroke-width="1.5" d="M0,-3.0v7 M-2.5,-0.5L0,-3.0L2.5,-0.5"/>
  </g>
  <g id="arrowLeft" transform="rotate(270) translate(-36 17)">
    <use xlink:href="#rim"/>
    <path pointer-events="none" fill="none" stroke="white" stroke-width="1.5" d="M0,-3.0v7 M-2.5,-0.5L0,-3.0L2.5,-0.5"/>
  </g>
  <g id="resetDef">
    <use xlink:href="#rim2" fill="#404040"><set attributeName="fill" to="#808080" begin="reset.mouseover" end="reset.mouseout"/></use>
  </g>
</defs>
<script type="application/ecmascript">
var viewWidth = 726;
var viewHeight = 181;
var sectionId = 'dynsection-0';
</script>
<script type="application/ecmascript" xlink:href="svg.min.js"/>
<svg id="graph" class="graph">
<g id="viewport">
<title>unit</title>
<g id="clust1" class="cluster">
<title>clusterdir_59425e443f801f1f2fd8bbe4959a3ccf</title>
<g id="a_clust1"><a xlink:href="dir_59425e443f801f1f2fd8bbe4959a3ccf.html" target="_top" xlink:title="tests">
<polygon fill="#c3f1c2" stroke="#404040" stroke-dasharray="5,2" points="8,-28.95 8,-164.95 710,-164.95 710,-28.95 8,-28.95"/>
<text text-anchor="middle" x="359" y="-151.45" font-family="Helvetica,sans-Serif" font-size="10.00">tests</text>
</a>
</g>
</g>
<g id="clust2" class="cluster">
<title>clusterdir_7711e90abc3d4bd55823d9013a185d04</title>
<g id="a_clust2"><a xlink:href="dir_7711e90abc3d4bd55823d9013a185d04.html" target="_top">
<polygon fill="#c3f1c2" stroke="#404040" stroke-width="2" points="16,-36.95 16,-136.95 702,-136.95 702,-36.95 16,-36.95"/>
</a>
</g>
</g>
<g id="clust3" class="cluster">
<title>clusterdir_b18179ba0862e9d63268d7f75e99eb34</title>
<g id="a_clust3"><a xlink:href="dir_b18179ba0862e9d63268d7f75e99eb34.html" target="_top">
<polygon fill="#9ae899" stroke="#404040" points="24,-44.95 24,-128.95 652,-128.95 652,-44.95 24,-44.95"/>
</a>
</g>
</g>
<g id="clust4" class="cluster">
<title>clusterdir_0b97f13164a789597180eb4bfaf66841</title>
<g id="a_clust4"><a xlink:href="dir_0b97f13164a789597180eb4bfaf66841.html" target="_top">
<polygon fill="#71df6f" stroke="#404040" points="32,-52.95 32,-120.95 590,-120.95 590,-52.95 32,-52.95"/>
</a>
</g>
</g>
<g id="clust5" class="cluster">
<title>clusterdir_e134efd164ae47ff588654d4e88da55a</title>
<g id="a_clust5"><a xlink:href="dir_e134efd164ae47ff588654d4e88da55a.html" target="_top">
<polygon fill="#4bd649" stroke="#404040" points="40,-60.95 40,-112.95 472,-112.95 472,-60.95 40,-60.95"/>
</a>
</g>
</g>
<g id="clust6" class="cluster">
<title>clusterdir_1aed3f629e1c215e8dca1c9a0a97c63a</title>
<g id="a_clust6"><a xlink:href="dir_1aed3f629e1c215e8dca1c9a0a97c63a.html" target="_top">
<polygon fill="#2fc82c" stroke="#404040" points="48,-68.95 48,-104.95 232,-104.95 232,-68.95 48,-68.95"/>
</a>
</g>
</g>
<!-- dir_7711e90abc3d4bd55823d9013a185d04 -->
<g id="node1" class="node">
<title>dir_7711e90abc3d4bd55823d9013a185d04</title>
<text text-anchor="middle" x="678" y="-83.45" font-family="Helvetica,sans-Serif" font-size="10.00">unit</text>
</g>
<!-- dir_d44c64559bbebec7f509842c48db8b23 -->
<g id="node11" class="node">
<title>dir_d44c64559bbebec7f509842c48db8b23</title>
<g id="a_node11"><a xlink:href="dir_d44c64559bbebec7f509842c48db8b23.html" target="_top" xlink:title="include">
<polygon fill="#c3f1c2" stroke="red" points="255.38,-20.95 208.62,-20.95 208.62,-0.95 255.38,-0.95 255.38,-20.95"/>
<text text-anchor="middle" x="232" y="-7.45" font-family="Helvetica,sans-Serif" font-size="10.00">include</text>
</a>
</g>
</g>
<!-- dir_7711e90abc3d4bd55823d9013a185d04&#45;&gt;dir_d44c64559bbebec7f509842c48db8b23 -->
<g id="edge1" class="edge">
<title>dir_7711e90abc3d4bd55823d9013a185d04&#45;&gt;dir_d44c64559bbebec7f509842c48db8b23</title>
<g id="a_edge1"><a xlink:href="dir_000136_000066.html" target="_top">
<path fill="none" stroke="#63b8ff" d="M677.48,-77.23C676.19,-64.25 671.7,-40.18 656,-28.95 640.31,-17.72 366.31,-13.48 267.32,-12.31"/>
<polygon fill="#63b8ff" stroke="#63b8ff" points="267.43,-8.82 257.39,-12.2 267.35,-15.82 267.43,-8.82"/>
</a>
</g>
<g id="a_edge1&#45;headlabel"><a xlink:href="dir_000136_000066.html" target="_top" xlink:title="10">
<text text-anchor="middle" x="269.54" y="-2.5" font-family="Helvetica,sans-Serif" font-size="10.00" fill="#63b8ff">10</text>
</a>
</g>
</g>
<!-- dir_b18179ba0862e9d63268d7f75e99eb34 -->
<g id="node2" class="node">
<title>dir_b18179ba0862e9d63268d7f75e99eb34</title>
<text text-anchor="middle" x="622" y="-83.45" font-family="Helvetica,sans-Serif" font-size="10.00">engine</text>
</g>
<!-- dir_0b97f13164a789597180eb4bfaf66841 -->
<g id="node3" class="node">
<title>dir_0b97f13164a789597180eb4bfaf66841</title>
<text text-anchor="middle" x="499" y="-83.45" font-family="Helvetica,sans-Serif" font-size="10.00">core</text>
</g>
<!-- dir_e134efd164ae47ff588654d4e88da55a -->
<g id="node4" class="node">
<title>dir_e134efd164ae47ff588654d4e88da55a</title>
<text text-anchor="middle" x="261" y="-83.45" font-family="Helvetica,sans-Serif" font-size="10.00">math</text>
</g>
<!-- dir_e134efd164ae47ff588654d4e88da55a&#45;&gt;dir_d44c64559bbebec7f509842c48db8b23 -->
<g id="edge2" class="edge">
<title>dir_e134efd164ae47ff588654d4e88da55a&#45;&gt;dir_d44c64559bbebec7f509842c48db8b23</title>
<g id="a_edge2"><a xlink:href="dir_000088_000066.html" target="_top">
<path fill="none" stroke="#63b8ff" d="M257.56,-77.17C253.2,-66.05 245.57,-46.57 239.77,-31.78"/>
<polygon fill="#63b8ff" stroke="#63b8ff" points="243.08,-30.62 236.17,-22.59 236.56,-33.18 243.08,-30.62"/>
</a>
</g>
<g id="a_edge2&#45;headlabel"><a xlink:href="dir_000088_000066.html" target="_top" xlink:title="8">
<text text-anchor="middle" x="246.48" y="-28.02" font-family="Helvetica,sans-Serif" font-size="10.00" fill="#63b8ff">8</text>
</a>
</g>
</g>
<!-- dir_1aed3f629e1c215e8dca1c9a0a97c63a -->
<g id="node5" class="node">
<title>dir_1aed3f629e1c215e8dca1c9a0a97c63a</title>
<text text-anchor="middle" x="80" y="-83.45" font-family="Helvetica,sans-Serif" font-size="10.00">algebra</text>
</g>
<!-- dir_cde8b984bd20e759c1052d04133cdf41 -->
<g id="node6" class="node">
<title>dir_cde8b984bd20e759c1052d04133cdf41</title>
<g id="a_node6"><a xlink:href="dir_cde8b984bd20e759c1052d04133cdf41.html" target="_top" xlink:title="matrix">
<polygon fill="#27a825" stroke="#404040" points="164.5,-96.95 121.5,-96.95 121.5,-76.95 164.5,-76.95 164.5,-96.95"/>
<text text-anchor="middle" x="143" y="-83.45" font-family="Helvetica,sans-Serif" font-size="10.00">matrix</text>
</a>
</g>
</g>
<!-- dir_cde8b984bd20e759c1052d04133cdf41&#45;&gt;dir_d44c64559bbebec7f509842c48db8b23 -->
<g id="edge3" class="edge">
<title>dir_cde8b984bd20e759c1052d04133cdf41&#45;&gt;dir_d44c64559bbebec7f509842c48db8b23</title>
<g id="a_edge3"><a xlink:href="dir_000090_000066.html" target="_top">
<path fill="none" stroke="#63b8ff" d="M145.36,-76.8C149.09,-64.16 157.57,-41.52 173,-28.95 179.9,-23.33 188.57,-19.57 197.12,-17.05"/>
<polygon fill="#63b8ff" stroke="#63b8ff" points="197.76,-20.5 206.66,-14.76 196.12,-13.69 197.76,-20.5"/>
</a>
</g>
<g id="a_edge3&#45;headlabel"><a xlink:href="dir_000090_000066.html" target="_top" xlink:title="2">
<text text-anchor="middle" x="196.4" y="-20.24" font-family="Helvetica,sans-Serif" font-size="10.00" fill="#63b8ff">2</text>
</a>
</g>
</g>
<!-- dir_2179280229301837a21927825fb06153 -->
<g id="node7" class="node">
<title>dir_2179280229301837a21927825fb06153</title>
<g id="a_node7"><a xlink:href="dir_2179280229301837a21927825fb06153.html" target="_top" xlink:title="vector">
<polygon fill="#27a825" stroke="#404040" points="223.75,-96.95 182.25,-96.95 182.25,-76.95 223.75,-76.95 223.75,-96.95"/>
<text text-anchor="middle" x="203" y="-83.45" font-family="Helvetica,sans-Serif" font-size="10.00">vector</text>
</a>
</g>
</g>
<!-- dir_2179280229301837a21927825fb06153&#45;&gt;dir_d44c64559bbebec7f509842c48db8b23 -->
<g id="edge4" class="edge">
<title>dir_2179280229301837a21927825fb06153&#45;&gt;dir_d44c64559bbebec7f509842c48db8b23</title>
<g id="a_edge4"><a xlink:href="dir_000138_000066.html" target="_top">
<path fill="none" stroke="#63b8ff" d="M206.67,-76.57C211.1,-65.28 218.65,-46.01 224.36,-31.44"/>
<polygon fill="#63b8ff" stroke="#63b8ff" points="227.51,-33.01 227.9,-22.42 220.99,-30.45 227.51,-33.01"/>
</a>
</g>
<g id="a_edge4&#45;headlabel"><a xlink:href="dir_000138_000066.html" target="_top" xlink:title="5">
<text text-anchor="middle" x="229.39" y="-32.48" font-family="Helvetica,sans-Serif" font-size="10.00" fill="#63b8ff">5</text>
</a>
</g>
</g>
<!-- dir_1d0b10786063eec2c477a926d313eda3 -->
<g id="node8" class="node">
<title>dir_1d0b10786063eec2c477a926d313eda3</title>
<g id="a_node8"><a xlink:href="dir_1d0b10786063eec2c477a926d313eda3.html" target="_top" xlink:title="geometry">
<polygon fill="#2fc82c" stroke="#404040" points="354.25,-96.95 297.75,-96.95 297.75,-76.95 354.25,-76.95 354.25,-96.95"/>
<text text-anchor="middle" x="326" y="-83.45" font-family="Helvetica,sans-Serif" font-size="10.00">geometry</text>
</a>
</g>
</g>
<!-- dir_4a09d6e6b06246fe0094498df0d1a07f -->
<g id="node9" class="node">
<title>dir_4a09d6e6b06246fe0094498df0d1a07f</title>
<g id="a_node9"><a xlink:href="dir_4a09d6e6b06246fe0094498df0d1a07f.html" target="_top" xlink:title="random&#45;generator">
<polygon fill="#2fc82c" stroke="#404040" points="463.88,-96.95 372.12,-96.95 372.12,-76.95 463.88,-76.95 463.88,-96.95"/>
<text text-anchor="middle" x="418" y="-83.45" font-family="Helvetica,sans-Serif" font-size="10.00">random&#45;generator</text>
</a>
</g>
</g>
<!-- dir_4ddf503379ea31901b9c47bbb9d9d306 -->
<g id="node10" class="node">
<title>dir_4ddf503379ea31901b9c47bbb9d9d306</title>
<g id="a_node10"><a xlink:href="dir_4ddf503379ea31901b9c47bbb9d9d306.html" target="_top" xlink:title="window">
<polygon fill="#4bd649" stroke="#404040" points="581.75,-96.95 534.25,-96.95 534.25,-76.95 581.75,-76.95 581.75,-96.95"/>
<text text-anchor="middle" x="558" y="-83.45" font-family="Helvetica,sans-Serif" font-size="10.00">window</text>
</a>
</g>
</g>
</g>
</svg>

<g id="navigator" transform="translate(0 0)" fill="#404254">
  <rect fill="#f2f5e9" fill-opacity="0.5" stroke="#606060" stroke-width=".5" x="0" y="0" width="60" height="60"/>
  <use id="zoomplus" xlink:href="#zoomPlus" x="17" y="9" onmousedown="handleZoom(evt,'in')"/>
  <use id="zoomminus" xlink:href="#zoomMin" x="42" y="9" onmousedown="handleZoom(evt,'out')"/>
  <use id="reset" xlink:href="#resetDef" x="30" y="36" onmousedown="handleReset()"/>
   <use id="arrowup" xlink:href="#arrowUp" x="0" y="0" onmousedown="handlePan(0,-1)"/>
  <use id="arrowright" xlink:href="#arrowRight" x="0" y="0" onmousedown="handlePan(1,0)"/>
  <use id="arrowdown" xlink:href="#arrowDown" x="0" y="0" onmousedown="handlePan(0,1)"/>
  <use id="arrowleft" xlink:href="#arrowLeft" x="0" y="0" onmousedown="handlePan(-1,0)"/>
</g>
<svg viewBox="0 0 15 15" width="100%" height="30px" preserveAspectRatio="xMaxYMin meet">
 <g id="arrow_out" transform="scale(0.3 0.3)">
  <a xlink:href="dir_7711e90abc3d4bd55823d9013a185d04_dep_org.svg" target="_base">
   <rect id="button" ry="5" rx="5" y="6" x="6" height="38" width="38"
        fill="#f2f5e9" fill-opacity="0.5" stroke="#606060" stroke-width="1.0"/>
   <path id="arrow"
     d="M 11.500037,31.436501 C 11.940474,20.09759 22.043105,11.32322 32.158766,21.979434 L 37.068811,17.246167 C 37.068811,17.246167 37.088388,32 37.088388,32 L 22.160133,31.978069 C 22.160133,31.978069 26.997745,27.140456 26.997745,27.140456 C 18.528582,18.264221 13.291696,25.230495 11.500037,31.436501 z"
     style="fill:#404040;"/>
  </a>
 </g>
</svg>

<style type='text/css'>
<![CDATA[
[data-mouse-over-selected='false'] { opacity: 0.7; }
[data-mouse-over-selected='true']  { opacity: 1.0; }
]]>
</style>
<script type="application/ecmascript"><![CDATA[
document.addEventListener('DOMContentLoaded', (event) => {
  highlightEdges();
  highlightAdjacentNodes();
});
]]></script>
</svg>
