<?xml version="1.0" encoding="UTF-8" standalone="no"?>
<!DOCTYPE svg PUBLIC "-//W3C//DTD SVG 1.1//EN"
 "http://www.w3.org/Graphics/SVG/1.1/DTD/svg11.dtd">
<!-- Generated by graphviz version 11.0.0 (20240428.1522)
 -->
<!-- Title: ecs Pages: 1 -->
<svg width="650pt" height="149pt"
 viewBox="0.00 0.00 650.00 148.59" xmlns="http://www.w3.org/2000/svg" xmlns:xlink="http://www.w3.org/1999/xlink">
<g id="graph0" class="graph" transform="scale(1 1) rotate(0) translate(4 144.59)">
<title>ecs</title>
<g id="clust1" class="cluster">
<title>clusterdir_2052808828190f934b76e979ee65af8a</title>
<g id="a_clust1"><a xlink:href="dir_2052808828190f934b76e979ee65af8a.html" target="_top" xlink:title="engine">
<polygon fill="#c3f1c2" stroke="#7f7f7f" stroke-dasharray="5,2" points="8,-28.59 8,-132.59 634,-132.59 634,-28.59 8,-28.59"/>
<text text-anchor="middle" x="321" y="-119.09" font-family="Helvetica,sans-Serif" font-size="10.00">engine</text>
</a>
</g>
</g>
<g id="clust2" class="cluster">
<title>clusterdir_cf10ba392368ff285e0161a3080685b2</title>
<g id="a_clust2"><a xlink:href="dir_cf10ba392368ff285e0161a3080685b2.html" target="_top">
<polygon fill="#c3f1c2" stroke="#404040" stroke-width="2" points="16,-36.59 16,-104.59 626,-104.59 626,-36.59 16,-36.59"/>
</a>
</g>
</g>
<g id="clust3" class="cluster">
<title>clusterdir_abb86fef8cd4f74711c49ba8b15d428d</title>
<g id="a_clust3"><a xlink:href="dir_abb86fef8cd4f74711c49ba8b15d428d.html" target="_top">
<polygon fill="#9ae899" stroke="#404040" points="24,-52.59 24,-88.59 298,-88.59 298,-52.59 24,-52.59"/>
</a>
</g>
</g>
<g id="clust4" class="cluster">
<title>clusterdir_09e9a9536e62f0edcafca5e44e647f39</title>
<g id="a_clust4"><a xlink:href="dir_09e9a9536e62f0edcafca5e44e647f39.html" target="_top">
<polygon fill="#9ae899" stroke="#404040" points="306,-44.59 306,-96.59 576,-96.59 576,-44.59 306,-44.59"/>
</a>
</g>
</g>
<g id="clust5" class="cluster">
<title>clusterdir_a79052bc0a017e39164cc1167e7714d0</title>
<g id="a_clust5"><a xlink:href="dir_a79052bc0a017e39164cc1167e7714d0.html" target="_top">
<polygon fill="#71df6f" stroke="#404040" points="314,-52.59 314,-88.59 450,-88.59 450,-52.59 314,-52.59"/>
</a>
</g>
</g>
<!-- dir_cf10ba392368ff285e0161a3080685b2 -->
<g id="node1" class="node">
<title>dir_cf10ba392368ff285e0161a3080685b2</title>
<text text-anchor="middle" x="602" y="-67.09" font-family="Helvetica,sans-Serif" font-size="10.00">ecs</text>
</g>
<!-- dir_abb86fef8cd4f74711c49ba8b15d428d -->
<g id="node2" class="node">
<title>dir_abb86fef8cd4f74711c49ba8b15d428d</title>
<text text-anchor="middle" x="58" y="-67.09" font-family="Helvetica,sans-Serif" font-size="10.00">backend</text>
</g>
<!-- dir_d44c64559bbebec7f509842c48db8b23 -->
<g id="node10" class="node">
<title>dir_d44c64559bbebec7f509842c48db8b23</title>
<g id="a_node10"><a xlink:href="dir_d44c64559bbebec7f509842c48db8b23.html" target="_top" xlink:title="include">
<polygon fill="#c3f1c2" stroke="red" points="289.38,-20.59 242.62,-20.59 242.62,-0.59 289.38,-0.59 289.38,-20.59"/>
<text text-anchor="middle" x="266" y="-7.09" font-family="Helvetica,sans-Serif" font-size="10.00">include</text>
</a>
</g>
</g>
<!-- dir_abb86fef8cd4f74711c49ba8b15d428d&#45;&gt;dir_d44c64559bbebec7f509842c48db8b23 -->
<g id="edge1" class="edge">
<title>dir_abb86fef8cd4f74711c49ba8b15d428d&#45;&gt;dir_d44c64559bbebec7f509842c48db8b23</title>
<g id="a_edge1"><a xlink:href="dir_000006_000066.html" target="_top">
<path fill="none" stroke="#63b8ff" d="M62.83,-60.62C68.6,-50.89 79.23,-35.78 93,-28.59 116.17,-16.5 187.19,-12.99 230.7,-11.98"/>
<polygon fill="#63b8ff" stroke="#63b8ff" points="230.73,-15.48 240.66,-11.79 230.6,-8.48 230.73,-15.48"/>
</a>
</g>
<g id="a_edge1&#45;headlabel"><a xlink:href="dir_000006_000066.html" target="_top" xlink:title="8">
<text text-anchor="middle" x="228.71" y="-14.86" font-family="Helvetica,sans-Serif" font-size="10.00" fill="#63b8ff">8</text>
</a>
</g>
</g>
<!-- dir_f3379927b790a93e46a59e090f7ae7b4 -->
<g id="node3" class="node">
<title>dir_f3379927b790a93e46a59e090f7ae7b4</title>
<g id="a_node3"><a xlink:href="dir_f3379927b790a93e46a59e090f7ae7b4.html" target="_top" xlink:title="component">
<polygon fill="#71df6f" stroke="#404040" points="166,-80.59 102,-80.59 102,-60.59 166,-60.59 166,-80.59"/>
<text text-anchor="middle" x="134" y="-67.09" font-family="Helvetica,sans-Serif" font-size="10.00">component</text>
</a>
</g>
</g>
<!-- dir_f3379927b790a93e46a59e090f7ae7b4&#45;&gt;dir_d44c64559bbebec7f509842c48db8b23 -->
<g id="edge2" class="edge">
<title>dir_f3379927b790a93e46a59e090f7ae7b4&#45;&gt;dir_d44c64559bbebec7f509842c48db8b23</title>
<g id="a_edge2"><a xlink:href="dir_000015_000066.html" target="_top">
<path fill="none" stroke="#63b8ff" d="M140.69,-60.14C147.99,-50.59 160.57,-36.2 175,-28.59 192.18,-19.54 213.41,-15.24 231.05,-13.23"/>
<polygon fill="#63b8ff" stroke="#63b8ff" points="231.17,-16.74 240.81,-12.33 230.53,-9.77 231.17,-16.74"/>
</a>
</g>
<g id="a_edge2&#45;headlabel"><a xlink:href="dir_000015_000066.html" target="_top" xlink:title="1">
<text text-anchor="middle" x="229.36" y="-16.25" font-family="Helvetica,sans-Serif" font-size="10.00" fill="#63b8ff">1</text>
</a>
</g>
</g>
<!-- dir_70ca35616e7f9525af4de6fef42f5435 -->
<g id="node4" class="node">
<title>dir_70ca35616e7f9525af4de6fef42f5435</title>
<g id="a_node4"><a xlink:href="dir_70ca35616e7f9525af4de6fef42f5435.html" target="_top" xlink:title="entity">
<polygon fill="#71df6f" stroke="#404040" points="224,-80.59 184,-80.59 184,-60.59 224,-60.59 224,-80.59"/>
<text text-anchor="middle" x="204" y="-67.09" font-family="Helvetica,sans-Serif" font-size="10.00">entity</text>
</a>
</g>
</g>
<!-- dir_70ca35616e7f9525af4de6fef42f5435&#45;&gt;dir_d44c64559bbebec7f509842c48db8b23 -->
<g id="edge3" class="edge">
<title>dir_70ca35616e7f9525af4de6fef42f5435&#45;&gt;dir_d44c64559bbebec7f509842c48db8b23</title>
<g id="a_edge3"><a xlink:href="dir_000044_000066.html" target="_top">
<path fill="none" stroke="#63b8ff" d="M208.92,-60.14C213.99,-51.13 222.6,-37.63 233,-28.59 233.52,-28.14 234.05,-27.7 234.59,-27.27"/>
<polygon fill="#63b8ff" stroke="#63b8ff" points="236.43,-30.25 242.84,-21.81 232.57,-24.41 236.43,-30.25"/>
</a>
</g>
<g id="a_edge3&#45;headlabel"><a xlink:href="dir_000044_000066.html" target="_top" xlink:title="2">
<text text-anchor="middle" x="236.26" y="-30.27" font-family="Helvetica,sans-Serif" font-size="10.00" fill="#63b8ff">2</text>
</a>
</g>
</g>
<!-- dir_df2c4a3963790823a909eb7eb3abbc1d -->
<g id="node5" class="node">
<title>dir_df2c4a3963790823a909eb7eb3abbc1d</title>
<g id="a_node5"><a xlink:href="dir_df2c4a3963790823a909eb7eb3abbc1d.html" target="_top" xlink:title="system">
<polygon fill="#71df6f" stroke="#404040" points="290.12,-80.59 241.88,-80.59 241.88,-60.59 290.12,-60.59 290.12,-80.59"/>
<text text-anchor="middle" x="266" y="-67.09" font-family="Helvetica,sans-Serif" font-size="10.00">system</text>
</a>
</g>
</g>
<!-- dir_df2c4a3963790823a909eb7eb3abbc1d&#45;&gt;dir_d44c64559bbebec7f509842c48db8b23 -->
<g id="edge4" class="edge">
<title>dir_df2c4a3963790823a909eb7eb3abbc1d&#45;&gt;dir_d44c64559bbebec7f509842c48db8b23</title>
<g id="a_edge4"><a xlink:href="dir_000125_000066.html" target="_top">
<path fill="none" stroke="#63b8ff" d="M266,-60.27C266,-52.79 266,-42 266,-32.48"/>
<polygon fill="#63b8ff" stroke="#63b8ff" points="269.5,-32.59 266,-22.59 262.5,-32.59 269.5,-32.59"/>
</a>
</g>
<g id="a_edge4&#45;headlabel"><a xlink:href="dir_000125_000066.html" target="_top" xlink:title="3">
<text text-anchor="middle" x="272.34" y="-31.17" font-family="Helvetica,sans-Serif" font-size="10.00" fill="#63b8ff">3</text>
</a>
</g>
</g>
<!-- dir_09e9a9536e62f0edcafca5e44e647f39 -->
<g id="node6" class="node">
<title>dir_09e9a9536e62f0edcafca5e44e647f39</title>
<text text-anchor="middle" x="485" y="-67.09" font-family="Helvetica,sans-Serif" font-size="10.00">frontend</text>
</g>
<!-- dir_d2e2bb3dcfd28f8ed9cb906594a6d52c -->
<g id="node7" class="node">
<title>dir_d2e2bb3dcfd28f8ed9cb906594a6d52c</title>
<g id="a_node7"><a xlink:href="dir_d2e2bb3dcfd28f8ed9cb906594a6d52c.html" target="_top" xlink:title="entity">
<polygon fill="#71df6f" stroke="#404040" points="568,-80.59 528,-80.59 528,-60.59 568,-60.59 568,-80.59"/>
<text text-anchor="middle" x="548" y="-67.09" font-family="Helvetica,sans-Serif" font-size="10.00">entity</text>
</a>
</g>
</g>
<!-- dir_d2e2bb3dcfd28f8ed9cb906594a6d52c&#45;&gt;dir_d44c64559bbebec7f509842c48db8b23 -->
<g id="edge5" class="edge">
<title>dir_d2e2bb3dcfd28f8ed9cb906594a6d52c&#45;&gt;dir_d44c64559bbebec7f509842c48db8b23</title>
<g id="a_edge5"><a xlink:href="dir_000045_000066.html" target="_top">
<path fill="none" stroke="#63b8ff" d="M544.29,-60.22C539.87,-50.45 531.47,-35.59 519,-28.59 500.47,-18.2 366.1,-13.82 301.07,-12.29"/>
<polygon fill="#63b8ff" stroke="#63b8ff" points="301.37,-8.79 291.29,-12.07 301.21,-15.79 301.37,-8.79"/>
</a>
</g>
<g id="a_edge5&#45;headlabel"><a xlink:href="dir_000045_000066.html" target="_top" xlink:title="2">
<text text-anchor="middle" x="303.51" y="-2.5" font-family="Helvetica,sans-Serif" font-size="10.00" fill="#63b8ff">2</text>
</a>
</g>
</g>
<!-- dir_a79052bc0a017e39164cc1167e7714d0 -->
<g id="node8" class="node">
<title>dir_a79052bc0a017e39164cc1167e7714d0</title>
<text text-anchor="middle" x="346" y="-67.09" font-family="Helvetica,sans-Serif" font-size="10.00">system</text>
</g>
<!-- dir_a79052bc0a017e39164cc1167e7714d0&#45;&gt;dir_d44c64559bbebec7f509842c48db8b23 -->
<g id="edge6" class="edge">
<title>dir_a79052bc0a017e39164cc1167e7714d0&#45;&gt;dir_d44c64559bbebec7f509842c48db8b23</title>
<g id="a_edge6"><a xlink:href="dir_000126_000066.html" target="_top">
<path fill="none" stroke="#63b8ff" d="M338.22,-60.91C329.9,-51.98 316,-38.08 302,-28.59 300.84,-27.81 299.64,-27.04 298.41,-26.29"/>
<polygon fill="#63b8ff" stroke="#63b8ff" points="300.46,-23.42 290,-21.71 297.11,-29.57 300.46,-23.42"/>
</a>
</g>
<g id="a_edge6&#45;headlabel"><a xlink:href="dir_000126_000066.html" target="_top" xlink:title="36">
<text text-anchor="middle" x="303.65" y="-18.42" font-family="Helvetica,sans-Serif" font-size="10.00" fill="#63b8ff">36</text>
</a>
</g>
</g>
<!-- dir_ab7b6718cb1c0b2f14d64ad2b4aaeab4 -->
<g id="node9" class="node">
<title>dir_ab7b6718cb1c0b2f14d64ad2b4aaeab4</title>
<g id="a_node9"><a xlink:href="dir_ab7b6718cb1c0b2f14d64ad2b4aaeab4.html" target="_top" xlink:title="systems">
<polygon fill="#4bd649" stroke="#404040" points="441.75,-80.59 388.25,-80.59 388.25,-60.59 441.75,-60.59 441.75,-80.59"/>
<text text-anchor="middle" x="415" y="-67.09" font-family="Helvetica,sans-Serif" font-size="10.00">systems</text>
</a>
</g>
</g>
<!-- dir_ab7b6718cb1c0b2f14d64ad2b4aaeab4&#45;&gt;dir_d44c64559bbebec7f509842c48db8b23 -->
<g id="edge7" class="edge">
<title>dir_ab7b6718cb1c0b2f14d64ad2b4aaeab4&#45;&gt;dir_d44c64559bbebec7f509842c48db8b23</title>
<g id="a_edge7"><a xlink:href="dir_000128_000066.html" target="_top">
<path fill="none" stroke="#63b8ff" d="M409.68,-60.4C403.57,-50.77 392.63,-36.04 379,-28.59 365.9,-21.44 329.15,-16.82 301.08,-14.23"/>
<polygon fill="#63b8ff" stroke="#63b8ff" points="301.45,-10.75 291.19,-13.37 300.85,-17.72 301.45,-10.75"/>
</a>
</g>
<g id="a_edge7&#45;headlabel"><a xlink:href="dir_000128_000066.html" target="_top" xlink:title="35">
<text text-anchor="middle" x="303.77" y="-4.6" font-family="Helvetica,sans-Serif" font-size="10.00" fill="#63b8ff">35</text>
</a>
</g>
</g>
</g>
</svg>
