<?xml version="1.0" encoding="UTF-8" standalone="no"?>
<!DOCTYPE svg PUBLIC "-//W3C//DTD SVG 1.1//EN"
 "http://www.w3.org/Graphics/SVG/1.1/DTD/svg11.dtd">
<!-- Generated by graphviz version 11.0.0 (20240428.1522)
 -->
<!-- Title: ecs Pages: 1 -->
<svg width="390pt" height="328pt"
 viewBox="0.00 0.00 390.00 328.00" xmlns="http://www.w3.org/2000/svg" xmlns:xlink="http://www.w3.org/1999/xlink">

<svg id="main" version="1.1" xmlns="http://www.w3.org/2000/svg" xmlns:xlink="http://www.w3.org/1999/xlink" xml:space="preserve" onload="init(evt)">
<style type="text/css"><![CDATA[
.node, .edge {opacity: 0.7;}
.node.selected, .edge.selected {opacity: 1;}
.edge:hover path { stroke: red; }
.edge:hover polygon { stroke: red; fill: red; }
]]></style>
<script type="application/ecmascript" xlink:href="svg.min.js"/>
<svg id="graph" class="graph">
<g id="graph0" class="graph" transform="scale(1 1) rotate(0) translate(4 324)">
<title>ecs</title>
<g id="clust1" class="cluster">
<title>clusterdir_a7f531b1c37460085cedd304cb8df01d</title>
<g id="a_clust1"><a xlink:href="dir_a7f531b1c37460085cedd304cb8df01d.html" target="_top" xlink:title="engine">
<polygon fill="#c3f1c2" stroke="#7f7f7f" stroke-dasharray="5,2" points="8,-8 8,-312 374,-312 374,-8 8,-8"/>
<text text-anchor="middle" x="191" y="-298.5" font-family="Helvetica,sans-Serif" font-size="10.00">engine</text>
</a>
</g>
</g>
<g id="clust2" class="cluster">
<title>clusterdir_8ab72e353a78ceede58b61c063873544</title>
<g id="a_clust2"><a xlink:href="dir_8ab72e353a78ceede58b61c063873544.html" target="_top">
<polygon fill="#c3f1c2" stroke="#404040" stroke-width="2" points="16,-56 16,-284 366,-284 366,-56 16,-56"/>
</a>
</g>
</g>
<g id="clust3" class="cluster">
<title>clusterdir_dc26eea9bbe365feb2360a9b11ea53c2</title>
<g id="a_clust3"><a xlink:href="dir_dc26eea9bbe365feb2360a9b11ea53c2.html" target="_top">
<polygon fill="#9ae899" stroke="#404040" points="24,-64 24,-156 228,-156 228,-64 24,-64"/>
</a>
</g>
</g>
<g id="clust4" class="cluster">
<title>clusterdir_6c7360b969371028ecad1c83b571758e</title>
<g id="a_clust4"><a xlink:href="dir_6c7360b969371028ecad1c83b571758e.html" target="_top">
<polygon fill="#9ae899" stroke="#404040" points="24,-176 24,-276 318,-276 318,-176 24,-176"/>
</a>
</g>
</g>
<g id="clust5" class="cluster">
<title>clusterdir_9674cb3a0e25a789f55f84ef501929b1</title>
<g id="a_clust5"><a xlink:href="dir_9674cb3a0e25a789f55f84ef501929b1.html" target="_top">
<polygon fill="#71df6f" stroke="#404040" points="174,-232 174,-268 310,-268 310,-232 174,-232"/>
</a>
</g>
</g>
<!-- dir_4b5fd699f9c934d21be1ae6684f38785 -->
<g id="node1" class="node">
<title>dir_4b5fd699f9c934d21be1ae6684f38785</title>
<g id="a_node1"><a xlink:href="dir_4b5fd699f9c934d21be1ae6684f38785.html" target="_top" xlink:title="subsystems">
<polygon fill="#9ae899" stroke="red" points="247.62,-36 178.38,-36 178.38,-16 247.62,-16 247.62,-36"/>
<text text-anchor="middle" x="213" y="-22.5" font-family="Helvetica,sans-Serif" font-size="10.00">subsystems</text>
</a>
</g>
</g>
<!-- dir_7f643b58e2241519524527f42d96aecd -->
<g id="node2" class="node">
<title>dir_7f643b58e2241519524527f42d96aecd</title>
<g id="a_node2"><a xlink:href="dir_7f643b58e2241519524527f42d96aecd.html" target="_top" xlink:title="core">
<polygon fill="#9ae899" stroke="red" points="114.38,-36 79.62,-36 79.62,-16 114.38,-16 114.38,-36"/>
<text text-anchor="middle" x="97" y="-22.5" font-family="Helvetica,sans-Serif" font-size="10.00">core</text>
</a>
</g>
</g>
<!-- dir_8ab72e353a78ceede58b61c063873544 -->
<g id="node3" class="node">
<title>dir_8ab72e353a78ceede58b61c063873544</title>
<text text-anchor="middle" x="342" y="-246.5" font-family="Helvetica,sans-Serif" font-size="10.00">ecs</text>
</g>
<!-- dir_dc26eea9bbe365feb2360a9b11ea53c2 -->
<g id="node4" class="node">
<title>dir_dc26eea9bbe365feb2360a9b11ea53c2</title>
<text text-anchor="middle" x="114" y="-134.5" font-family="Helvetica,sans-Serif" font-size="10.00">backend</text>
</g>
<!-- dir_3bae6ba6b532d166e9f3fee653a49761 -->
<g id="node5" class="node">
<title>dir_3bae6ba6b532d166e9f3fee653a49761</title>
<g id="a_node5"><a xlink:href="dir_3bae6ba6b532d166e9f3fee653a49761.html" target="_top" xlink:title="component">
<polygon fill="#71df6f" stroke="#404040" points="220,-92 156,-92 156,-72 220,-72 220,-92"/>
<text text-anchor="middle" x="188" y="-78.5" font-family="Helvetica,sans-Serif" font-size="10.00">component</text>
</a>
</g>
</g>
<!-- dir_dc26eea9bbe365feb2360a9b11ea53c2&#45;&gt;dir_3bae6ba6b532d166e9f3fee653a49761 -->
<g id="edge1" class="edge">
<title>dir_dc26eea9bbe365feb2360a9b11ea53c2&#45;&gt;dir_3bae6ba6b532d166e9f3fee653a49761</title>
<g id="a_edge1"><a xlink:href="dir_000004_000011.html" target="_top">
<path fill="none" stroke="#63b8ff" d="M126.22,-128.08C136.95,-120.25 152.82,-108.67 165.8,-99.2"/>
<polygon fill="#63b8ff" stroke="#63b8ff" points="167.78,-102.09 173.79,-93.37 163.65,-96.44 167.78,-102.09"/>
</a>
</g>
<g id="a_edge1&#45;headlabel"><a xlink:href="dir_000004_000011.html" target="_top" xlink:title="1">
<text text-anchor="middle" x="167.77" y="-102.11" font-family="Helvetica,sans-Serif" font-size="10.00" fill="#63b8ff">1</text>
</a>
</g>
</g>
<!-- dir_f16feacd3fc03cf58783986cba269a18 -->
<g id="node6" class="node">
<title>dir_f16feacd3fc03cf58783986cba269a18</title>
<g id="a_node6"><a xlink:href="dir_f16feacd3fc03cf58783986cba269a18.html" target="_top" xlink:title="entity">
<polygon fill="#71df6f" stroke="#404040" points="72,-92 32,-92 32,-72 72,-72 72,-92"/>
<text text-anchor="middle" x="52" y="-78.5" font-family="Helvetica,sans-Serif" font-size="10.00">entity</text>
</a>
</g>
</g>
<!-- dir_dc26eea9bbe365feb2360a9b11ea53c2&#45;&gt;dir_f16feacd3fc03cf58783986cba269a18 -->
<g id="edge3" class="edge">
<title>dir_dc26eea9bbe365feb2360a9b11ea53c2&#45;&gt;dir_f16feacd3fc03cf58783986cba269a18</title>
<g id="a_edge3"><a xlink:href="dir_000004_000037.html" target="_top">
<path fill="none" stroke="#63b8ff" d="M103.76,-128.08C94.95,-120.41 81.99,-109.12 71.25,-99.76"/>
<polygon fill="#63b8ff" stroke="#63b8ff" points="73.86,-97.4 64.02,-93.47 69.26,-102.68 73.86,-97.4"/>
</a>
</g>
<g id="a_edge3&#45;headlabel"><a xlink:href="dir_000004_000037.html" target="_top" xlink:title="1">
<text text-anchor="middle" x="77.29" y="-93.12" font-family="Helvetica,sans-Serif" font-size="10.00" fill="#63b8ff">1</text>
</a>
</g>
</g>
<!-- dir_d51b95b07cbac1689e1c68d901b0683c -->
<g id="node7" class="node">
<title>dir_d51b95b07cbac1689e1c68d901b0683c</title>
<g id="a_node7"><a xlink:href="dir_d51b95b07cbac1689e1c68d901b0683c.html" target="_top" xlink:title="system">
<polygon fill="#71df6f" stroke="#404040" points="138.12,-92 89.88,-92 89.88,-72 138.12,-72 138.12,-92"/>
<text text-anchor="middle" x="114" y="-78.5" font-family="Helvetica,sans-Serif" font-size="10.00">system</text>
</a>
</g>
</g>
<!-- dir_dc26eea9bbe365feb2360a9b11ea53c2&#45;&gt;dir_d51b95b07cbac1689e1c68d901b0683c -->
<g id="edge2" class="edge">
<title>dir_dc26eea9bbe365feb2360a9b11ea53c2&#45;&gt;dir_d51b95b07cbac1689e1c68d901b0683c</title>
<g id="a_edge2"><a xlink:href="dir_000004_000113.html" target="_top">
<path fill="none" stroke="#63b8ff" d="M114,-128.08C114,-121.48 114,-112.21 114,-103.79"/>
<polygon fill="#63b8ff" stroke="#63b8ff" points="117.5,-103.99 114,-93.99 110.5,-103.99 117.5,-103.99"/>
</a>
</g>
<g id="a_edge2&#45;headlabel"><a xlink:href="dir_000004_000113.html" target="_top" xlink:title="1">
<text text-anchor="middle" x="120.34" y="-102.57" font-family="Helvetica,sans-Serif" font-size="10.00" fill="#63b8ff">1</text>
</a>
</g>
</g>
<!-- dir_3bae6ba6b532d166e9f3fee653a49761&#45;&gt;dir_4b5fd699f9c934d21be1ae6684f38785 -->
<g id="edge4" class="edge">
<title>dir_3bae6ba6b532d166e9f3fee653a49761&#45;&gt;dir_4b5fd699f9c934d21be1ae6684f38785</title>
<g id="a_edge4"><a xlink:href="dir_000011_000111.html" target="_top">
<path fill="none" stroke="#63b8ff" d="M192.35,-71.59C195.55,-64.7 199.99,-55.1 203.94,-46.57"/>
<polygon fill="#63b8ff" stroke="#63b8ff" points="207.03,-48.22 208.06,-37.67 200.68,-45.28 207.03,-48.22"/>
</a>
</g>
<g id="a_edge4&#45;headlabel"><a xlink:href="dir_000011_000111.html" target="_top" xlink:title="1">
<text text-anchor="middle" x="208.74" y="-47.8" font-family="Helvetica,sans-Serif" font-size="10.00" fill="#63b8ff">1</text>
</a>
</g>
</g>
<!-- dir_3bae6ba6b532d166e9f3fee653a49761&#45;&gt;dir_7f643b58e2241519524527f42d96aecd -->
<g id="edge5" class="edge">
<title>dir_3bae6ba6b532d166e9f3fee653a49761&#45;&gt;dir_7f643b58e2241519524527f42d96aecd</title>
<g id="a_edge5"><a xlink:href="dir_000011_000018.html" target="_top">
<path fill="none" stroke="#63b8ff" d="M172.86,-71.66C165.14,-66.93 155.6,-61.11 147,-56 139.29,-51.42 130.87,-46.5 123.18,-42.04"/>
<polygon fill="#63b8ff" stroke="#63b8ff" points="124.99,-39.04 114.58,-37.07 121.49,-45.1 124.99,-39.04"/>
</a>
</g>
<g id="a_edge5&#45;headlabel"><a xlink:href="dir_000011_000018.html" target="_top" xlink:title="3">
<text text-anchor="middle" x="128.21" y="-34.12" font-family="Helvetica,sans-Serif" font-size="10.00" fill="#63b8ff">3</text>
</a>
</g>
</g>
<!-- dir_f16feacd3fc03cf58783986cba269a18&#45;&gt;dir_4b5fd699f9c934d21be1ae6684f38785 -->
<g id="edge6" class="edge">
<title>dir_f16feacd3fc03cf58783986cba269a18&#45;&gt;dir_4b5fd699f9c934d21be1ae6684f38785</title>
<g id="a_edge6"><a xlink:href="dir_000037_000111.html" target="_top">
<path fill="none" stroke="#63b8ff" d="M60.3,-71.85C65.69,-66.45 73.15,-59.93 81,-56 107.78,-42.6 140.66,-35.36 166.91,-31.46"/>
<polygon fill="#63b8ff" stroke="#63b8ff" points="167.15,-34.96 176.58,-30.14 166.2,-28.02 167.15,-34.96"/>
</a>
</g>
<g id="a_edge6&#45;headlabel"><a xlink:href="dir_000037_000111.html" target="_top" xlink:title="1">
<text text-anchor="middle" x="165.47" y="-34.55" font-family="Helvetica,sans-Serif" font-size="10.00" fill="#63b8ff">1</text>
</a>
</g>
</g>
<!-- dir_f16feacd3fc03cf58783986cba269a18&#45;&gt;dir_7f643b58e2241519524527f42d96aecd -->
<g id="edge7" class="edge">
<title>dir_f16feacd3fc03cf58783986cba269a18&#45;&gt;dir_7f643b58e2241519524527f42d96aecd</title>
<g id="a_edge7"><a xlink:href="dir_000037_000018.html" target="_top">
<path fill="none" stroke="#63b8ff" d="M59.84,-71.59C65.97,-64.24 74.67,-53.8 82.11,-44.87"/>
<polygon fill="#63b8ff" stroke="#63b8ff" points="84.57,-47.38 88.28,-37.46 79.19,-42.9 84.57,-47.38"/>
</a>
</g>
<g id="a_edge7&#45;headlabel"><a xlink:href="dir_000037_000018.html" target="_top" xlink:title="1">
<text text-anchor="middle" x="85.42" y="-47.3" font-family="Helvetica,sans-Serif" font-size="10.00" fill="#63b8ff">1</text>
</a>
</g>
</g>
<!-- dir_6c7360b969371028ecad1c83b571758e -->
<g id="node8" class="node">
<title>dir_6c7360b969371028ecad1c83b571758e</title>
<text text-anchor="middle" x="139" y="-246.5" font-family="Helvetica,sans-Serif" font-size="10.00">frontend</text>
</g>
<!-- dir_d6723719dedc94cf7ddd0ba880a27ec9 -->
<g id="node9" class="node">
<title>dir_d6723719dedc94cf7ddd0ba880a27ec9</title>
<g id="a_node9"><a xlink:href="dir_d6723719dedc94cf7ddd0ba880a27ec9.html" target="_top" xlink:title="component">
<polygon fill="#71df6f" stroke="#404040" points="96,-260 32,-260 32,-240 96,-240 96,-260"/>
<text text-anchor="middle" x="64" y="-246.5" font-family="Helvetica,sans-Serif" font-size="10.00">component</text>
</a>
</g>
</g>
<!-- dir_d6723719dedc94cf7ddd0ba880a27ec9&#45;&gt;dir_4b5fd699f9c934d21be1ae6684f38785 -->
<g id="edge10" class="edge">
<title>dir_d6723719dedc94cf7ddd0ba880a27ec9&#45;&gt;dir_4b5fd699f9c934d21be1ae6684f38785</title>
<g id="a_edge10"><a xlink:href="dir_000012_000111.html" target="_top">
<path fill="none" stroke="#63b8ff" d="M83.7,-239.5C126.25,-218.8 223.56,-170.32 232,-156 254.57,-117.71 244.71,-98.59 232,-56 230.97,-52.54 229.37,-49.1 227.54,-45.87"/>
<polygon fill="#63b8ff" stroke="#63b8ff" points="230.56,-44.09 222.09,-37.73 224.74,-47.99 230.56,-44.09"/>
</a>
</g>
<g id="a_edge10&#45;headlabel"><a xlink:href="dir_000012_000111.html" target="_top" xlink:title="14">
<text text-anchor="middle" x="234.07" y="-40.74" font-family="Helvetica,sans-Serif" font-size="10.00" fill="#63b8ff">14</text>
</a>
</g>
</g>
<!-- dir_d6723719dedc94cf7ddd0ba880a27ec9&#45;&gt;dir_3bae6ba6b532d166e9f3fee653a49761 -->
<g id="edge9" class="edge">
<title>dir_d6723719dedc94cf7ddd0ba880a27ec9&#45;&gt;dir_3bae6ba6b532d166e9f3fee653a49761</title>
<g id="a_edge9"><a xlink:href="dir_000012_000011.html" target="_top">
<path fill="none" stroke="#63b8ff" d="M77.41,-239.63C88.97,-231.15 105.7,-217.89 118,-204 145.92,-172.47 168.15,-128.09 179.58,-102.77"/>
<polygon fill="#63b8ff" stroke="#63b8ff" points="182.75,-104.25 183.56,-93.68 176.34,-101.43 182.75,-104.25"/>
</a>
</g>
<g id="a_edge9&#45;headlabel"><a xlink:href="dir_000012_000011.html" target="_top" xlink:title="8">
<text text-anchor="middle" x="184.51" y="-103.79" font-family="Helvetica,sans-Serif" font-size="10.00" fill="#63b8ff">8</text>
</a>
</g>
</g>
<!-- dir_3bac51365c5a37dd6fc8d2bc264d15f8 -->
<g id="node10" class="node">
<title>dir_3bac51365c5a37dd6fc8d2bc264d15f8</title>
<g id="a_node10"><a xlink:href="dir_3bac51365c5a37dd6fc8d2bc264d15f8.html" target="_top" xlink:title="entity">
<polygon fill="#71df6f" stroke="#404040" points="109,-204 69,-204 69,-184 109,-184 109,-204"/>
<text text-anchor="middle" x="89" y="-190.5" font-family="Helvetica,sans-Serif" font-size="10.00">entity</text>
</a>
</g>
</g>
<!-- dir_d6723719dedc94cf7ddd0ba880a27ec9&#45;&gt;dir_3bac51365c5a37dd6fc8d2bc264d15f8 -->
<g id="edge8" class="edge">
<title>dir_d6723719dedc94cf7ddd0ba880a27ec9&#45;&gt;dir_3bac51365c5a37dd6fc8d2bc264d15f8</title>
<g id="a_edge8"><a xlink:href="dir_000012_000038.html" target="_top">
<path fill="none" stroke="#63b8ff" d="M68.35,-239.59C71.55,-232.7 75.99,-223.1 79.94,-214.57"/>
<polygon fill="#63b8ff" stroke="#63b8ff" points="83.03,-216.22 84.06,-205.67 76.68,-213.28 83.03,-216.22"/>
</a>
</g>
<g id="a_edge8&#45;headlabel"><a xlink:href="dir_000012_000038.html" target="_top" xlink:title="1">
<text text-anchor="middle" x="84.74" y="-215.8" font-family="Helvetica,sans-Serif" font-size="10.00" fill="#63b8ff">1</text>
</a>
</g>
</g>
<!-- dir_3bac51365c5a37dd6fc8d2bc264d15f8&#45;&gt;dir_dc26eea9bbe365feb2360a9b11ea53c2 -->
<g id="edge11" class="edge">
<title>dir_3bac51365c5a37dd6fc8d2bc264d15f8&#45;&gt;dir_dc26eea9bbe365feb2360a9b11ea53c2</title>
<g id="a_edge11"><a xlink:href="dir_000038_000004.html" target="_top">
<path fill="none" stroke="#63b8ff" d="M93.35,-183.59C96.58,-176.62 101.1,-166.87 105.08,-158.26"/>
<polygon fill="#63b8ff" stroke="#63b8ff" points="108.2,-159.86 109.23,-149.31 101.85,-156.92 108.2,-159.86"/>
</a>
</g>
<g id="a_edge11&#45;headlabel"><a xlink:href="dir_000038_000004.html" target="_top" xlink:title="1">
<text text-anchor="middle" x="109.9" y="-159.44" font-family="Helvetica,sans-Serif" font-size="10.00" fill="#63b8ff">1</text>
</a>
</g>
</g>
<!-- dir_9674cb3a0e25a789f55f84ef501929b1 -->
<g id="node11" class="node">
<title>dir_9674cb3a0e25a789f55f84ef501929b1</title>
<text text-anchor="middle" x="206" y="-246.5" font-family="Helvetica,sans-Serif" font-size="10.00">system</text>
</g>
<!-- dir_9674cb3a0e25a789f55f84ef501929b1&#45;&gt;dir_dc26eea9bbe365feb2360a9b11ea53c2 -->
<g id="edge12" class="edge">
<title>dir_9674cb3a0e25a789f55f84ef501929b1&#45;&gt;dir_dc26eea9bbe365feb2360a9b11ea53c2</title>
<g id="a_edge12"><a xlink:href="dir_000114_000004.html" target="_top">
<path fill="none" stroke="#63b8ff" d="M204.28,-240.22C200.64,-221.92 192.13,-180.97 188,-176 174.28,-159.47 163.14,-165.75 144,-156 142.31,-155.14 140.58,-154.23 138.85,-153.31"/>
<polygon fill="#63b8ff" stroke="#63b8ff" points="140.89,-150.43 130.44,-148.65 137.49,-156.55 140.89,-150.43"/>
</a>
</g>
<g id="a_edge12&#45;headlabel"><a xlink:href="dir_000114_000004.html" target="_top" xlink:title="1">
<text text-anchor="middle" x="144.08" y="-145.46" font-family="Helvetica,sans-Serif" font-size="10.00" fill="#63b8ff">1</text>
</a>
</g>
</g>
<!-- dir_4b08c1d80484c735af7530ab0ebc13d7 -->
<g id="node12" class="node">
<title>dir_4b08c1d80484c735af7530ab0ebc13d7</title>
<g id="a_node12"><a xlink:href="dir_4b08c1d80484c735af7530ab0ebc13d7.html" target="_top" xlink:title="systems">
<polygon fill="#4bd649" stroke="#404040" points="301.75,-260 248.25,-260 248.25,-240 301.75,-240 301.75,-260"/>
<text text-anchor="middle" x="275" y="-246.5" font-family="Helvetica,sans-Serif" font-size="10.00">systems</text>
</a>
</g>
</g>
<!-- dir_4b08c1d80484c735af7530ab0ebc13d7&#45;&gt;dir_4b5fd699f9c934d21be1ae6684f38785 -->
<g id="edge13" class="edge">
<title>dir_4b08c1d80484c735af7530ab0ebc13d7&#45;&gt;dir_4b5fd699f9c934d21be1ae6684f38785</title>
<g id="a_edge13"><a xlink:href="dir_000117_000111.html" target="_top">
<path fill="none" stroke="#63b8ff" d="M275.54,-239.89C276.87,-211.05 277.95,-119.81 244,-56 241.66,-51.61 238.4,-47.52 234.87,-43.87"/>
<polygon fill="#63b8ff" stroke="#63b8ff" points="237.32,-41.37 227.56,-37.26 232.63,-46.56 237.32,-41.37"/>
</a>
</g>
<g id="a_edge13&#45;headlabel"><a xlink:href="dir_000117_000111.html" target="_top" xlink:title="10">
<text text-anchor="middle" x="240.77" y="-37.16" font-family="Helvetica,sans-Serif" font-size="10.00" fill="#63b8ff">10</text>
</a>
</g>
</g>
</g>
</svg>
</svg>

<style type='text/css'>
<![CDATA[
[data-mouse-over-selected='false'] { opacity: 0.7; }
[data-mouse-over-selected='true']  { opacity: 1.0; }
]]>
</style>
<script type="application/ecmascript"><![CDATA[
document.addEventListener('DOMContentLoaded', (event) => {
  highlightEdges();
  highlightAdjacentNodes();
});
]]></script>
</svg>
