<?xml version="1.0" encoding="UTF-8" standalone="no"?>
<!DOCTYPE svg PUBLIC "-//W3C//DTD SVG 1.1//EN"
 "http://www.w3.org/Graphics/SVG/1.1/DTD/svg11.dtd">
<!-- Generated by graphviz version 11.0.0 (20240428.1522)
 -->
<!-- Title: TFG&#45;&#45;&#45;OpenGL&#45;Engine/include/engine/core/math/geometry Pages: 1 -->
<svg width="246pt" height="320pt"
 viewBox="0.00 0.00 246.00 320.00" xmlns="http://www.w3.org/2000/svg" xmlns:xlink="http://www.w3.org/1999/xlink">
<g id="graph0" class="graph" transform="scale(1 1) rotate(0) translate(4 316)">
<title>TFG&#45;&#45;&#45;OpenGL&#45;Engine/include/engine/core/math/geometry</title>
<g id="clust1" class="cluster">
<title>clusterdir_6312c50a8599e39d22c23009cc78e868</title>
<g id="a_clust1"><a xlink:href="dir_6312c50a8599e39d22c23009cc78e868.html" target="_top" xlink:title="math">
<polygon fill="#c3f1c2" stroke="#7f7f7f" stroke-dasharray="5,2" points="8,-8 8,-304 230,-304 230,-8 8,-8"/>
<text text-anchor="middle" x="119" y="-290.5" font-family="Helvetica,sans-Serif" font-size="10.00">math</text>
</a>
</g>
</g>
<g id="clust2" class="cluster">
<title>clusterdir_ba10da749b87f351c261874acb844a1b</title>
<g id="a_clust2"><a xlink:href="dir_ba10da749b87f351c261874acb844a1b.html" target="_top">
<polygon fill="#c3f1c2" stroke="#404040" stroke-width="2" points="16,-56 16,-276 222,-276 222,-56 16,-56"/>
</a>
</g>
</g>
<g id="clust3" class="cluster">
<title>clusterdir_d88be2a0f50959fe01f6bf8dab0c0e64</title>
<g id="a_clust3"><a xlink:href="dir_d88be2a0f50959fe01f6bf8dab0c0e64.html" target="_top">
<polygon fill="#9ae899" stroke="#404040" points="24,-64 24,-268 148,-268 148,-64 24,-64"/>
</a>
</g>
</g>
<!-- dir_e6b3a72c504ade0625aab158ff160af3 -->
<g id="node1" class="node">
<title>dir_e6b3a72c504ade0625aab158ff160af3</title>
<g id="a_node1"><a xlink:href="dir_e6b3a72c504ade0625aab158ff160af3.html" target="_top" xlink:title="algebra">
<polygon fill="#9ae899" stroke="red" points="158.75,-36 111.25,-36 111.25,-16 158.75,-16 158.75,-36"/>
<text text-anchor="middle" x="135" y="-22.5" font-family="Helvetica,sans-Serif" font-size="10.00">algebra</text>
</a>
</g>
</g>
<!-- dir_ba10da749b87f351c261874acb844a1b -->
<g id="node2" class="node">
<title>dir_ba10da749b87f351c261874acb844a1b</title>
<text text-anchor="middle" x="186" y="-246.5" font-family="Helvetica,sans-Serif" font-size="10.00">geometry</text>
</g>
<!-- dir_ba10da749b87f351c261874acb844a1b&#45;&gt;dir_e6b3a72c504ade0625aab158ff160af3 -->
<g id="edge2" class="edge">
<title>dir_ba10da749b87f351c261874acb844a1b&#45;&gt;dir_e6b3a72c504ade0625aab158ff160af3</title>
<g id="a_edge2"><a xlink:href="dir_000053_000000.html" target="_top">
<path fill="none" stroke="#63b8ff" d="M186.85,-240.39C189.23,-212.27 193.97,-121.23 163,-56 161.03,-51.85 158.23,-47.92 155.16,-44.38"/>
<polygon fill="#63b8ff" stroke="#63b8ff" points="157.86,-42.13 148.33,-37.51 152.9,-47.07 157.86,-42.13"/>
</a>
</g>
<g id="a_edge2&#45;headlabel"><a xlink:href="dir_000053_000000.html" target="_top" xlink:title="5">
<text text-anchor="middle" x="161.34" y="-38.11" font-family="Helvetica,sans-Serif" font-size="10.00" fill="#63b8ff">5</text>
</a>
</g>
</g>
<!-- dir_47a2174d907c870fe5a5a8de793a717d -->
<g id="node6" class="node">
<title>dir_47a2174d907c870fe5a5a8de793a717d</title>
<g id="a_node6"><a xlink:href="dir_47a2174d907c870fe5a5a8de793a717d.html" target="_top" xlink:title="polyhedron">
<polygon fill="#71df6f" stroke="#404040" points="138.62,-204 75.38,-204 75.38,-184 138.62,-184 138.62,-204"/>
<text text-anchor="middle" x="107" y="-190.5" font-family="Helvetica,sans-Serif" font-size="10.00">polyhedron</text>
</a>
</g>
</g>
<!-- dir_ba10da749b87f351c261874acb844a1b&#45;&gt;dir_47a2174d907c870fe5a5a8de793a717d -->
<g id="edge1" class="edge">
<title>dir_ba10da749b87f351c261874acb844a1b&#45;&gt;dir_47a2174d907c870fe5a5a8de793a717d</title>
<g id="a_edge1"><a xlink:href="dir_000053_000093.html" target="_top">
<path fill="none" stroke="#63b8ff" d="M172.95,-240.08C161.39,-232.18 144.22,-220.44 130.3,-210.93"/>
<polygon fill="#63b8ff" stroke="#63b8ff" points="132.34,-208.08 122.11,-205.33 128.39,-213.86 132.34,-208.08"/>
</a>
</g>
<g id="a_edge1&#45;headlabel"><a xlink:href="dir_000053_000093.html" target="_top" xlink:title="3">
<text text-anchor="middle" x="135.66" y="-203.41" font-family="Helvetica,sans-Serif" font-size="10.00" fill="#63b8ff">3</text>
</a>
</g>
</g>
<!-- dir_d88be2a0f50959fe01f6bf8dab0c0e64 -->
<g id="node3" class="node">
<title>dir_d88be2a0f50959fe01f6bf8dab0c0e64</title>
<text text-anchor="middle" x="54" y="-246.5" font-family="Helvetica,sans-Serif" font-size="10.00">figures</text>
</g>
<!-- dir_d88be2a0f50959fe01f6bf8dab0c0e64&#45;&gt;dir_e6b3a72c504ade0625aab158ff160af3 -->
<g id="edge5" class="edge">
<title>dir_d88be2a0f50959fe01f6bf8dab0c0e64&#45;&gt;dir_e6b3a72c504ade0625aab158ff160af3</title>
<g id="a_edge5"><a xlink:href="dir_000043_000000.html" target="_top">
<path fill="none" stroke="#63b8ff" d="M75.92,-241.58C101.04,-232.59 139.8,-217.01 148,-204 164.11,-178.42 147.89,-88.06 139.43,-47.26"/>
<polygon fill="#63b8ff" stroke="#63b8ff" points="142.88,-46.63 137.37,-37.58 136.03,-48.09 142.88,-46.63"/>
</a>
</g>
<g id="a_edge5&#45;headlabel"><a xlink:href="dir_000043_000000.html" target="_top" xlink:title="4">
<text text-anchor="middle" x="146.09" y="-44.58" font-family="Helvetica,sans-Serif" font-size="10.00" fill="#63b8ff">4</text>
</a>
</g>
</g>
<!-- dir_cdc3ef1cd8e124bd23dc02cde75cb938 -->
<g id="node5" class="node">
<title>dir_cdc3ef1cd8e124bd23dc02cde75cb938</title>
<g id="a_node5"><a xlink:href="dir_cdc3ef1cd8e124bd23dc02cde75cb938.html" target="_top" xlink:title="plane">
<polygon fill="#71df6f" stroke="#404040" points="90.62,-148 51.38,-148 51.38,-128 90.62,-128 90.62,-148"/>
<text text-anchor="middle" x="71" y="-134.5" font-family="Helvetica,sans-Serif" font-size="10.00">plane</text>
</a>
</g>
</g>
<!-- dir_d88be2a0f50959fe01f6bf8dab0c0e64&#45;&gt;dir_cdc3ef1cd8e124bd23dc02cde75cb938 -->
<g id="edge4" class="edge">
<title>dir_d88be2a0f50959fe01f6bf8dab0c0e64&#45;&gt;dir_cdc3ef1cd8e124bd23dc02cde75cb938</title>
<g id="a_edge4"><a xlink:href="dir_000043_000091.html" target="_top">
<path fill="none" stroke="#63b8ff" d="M55.33,-240.37C58.01,-223.03 64.11,-183.56 67.86,-159.31"/>
<polygon fill="#63b8ff" stroke="#63b8ff" points="71.28,-160.12 69.35,-149.7 64.36,-159.05 71.28,-160.12"/>
</a>
</g>
<g id="a_edge4&#45;headlabel"><a xlink:href="dir_000043_000091.html" target="_top" xlink:title="2">
<text text-anchor="middle" x="73.77" y="-159.11" font-family="Helvetica,sans-Serif" font-size="10.00" fill="#63b8ff">2</text>
</a>
</g>
</g>
<!-- dir_d88be2a0f50959fe01f6bf8dab0c0e64&#45;&gt;dir_47a2174d907c870fe5a5a8de793a717d -->
<g id="edge3" class="edge">
<title>dir_d88be2a0f50959fe01f6bf8dab0c0e64&#45;&gt;dir_47a2174d907c870fe5a5a8de793a717d</title>
<g id="a_edge3"><a xlink:href="dir_000043_000093.html" target="_top">
<path fill="none" stroke="#63b8ff" d="M62.75,-240.08C70.06,-232.64 80.7,-221.8 89.72,-212.61"/>
<polygon fill="#63b8ff" stroke="#63b8ff" points="92.13,-215.14 96.64,-205.56 87.14,-210.24 92.13,-215.14"/>
</a>
</g>
<g id="a_edge3&#45;headlabel"><a xlink:href="dir_000043_000093.html" target="_top" xlink:title="2">
<text text-anchor="middle" x="92.7" y="-215.12" font-family="Helvetica,sans-Serif" font-size="10.00" fill="#63b8ff">2</text>
</a>
</g>
</g>
<!-- dir_99e757e9b32215be9284b8feb010174d -->
<g id="node4" class="node">
<title>dir_99e757e9b32215be9284b8feb010174d</title>
<g id="a_node4"><a xlink:href="dir_99e757e9b32215be9284b8feb010174d.html" target="_top" xlink:title="line">
<polygon fill="#71df6f" stroke="#404040" points="95.5,-92 64.5,-92 64.5,-72 95.5,-72 95.5,-92"/>
<text text-anchor="middle" x="80" y="-78.5" font-family="Helvetica,sans-Serif" font-size="10.00">line</text>
</a>
</g>
</g>
<!-- dir_99e757e9b32215be9284b8feb010174d&#45;&gt;dir_e6b3a72c504ade0625aab158ff160af3 -->
<g id="edge6" class="edge">
<title>dir_99e757e9b32215be9284b8feb010174d&#45;&gt;dir_e6b3a72c504ade0625aab158ff160af3</title>
<g id="a_edge6"><a xlink:href="dir_000067_000000.html" target="_top">
<path fill="none" stroke="#63b8ff" d="M86.61,-71.83C90.33,-66.93 95.17,-60.92 100,-56 104.25,-51.68 109.1,-47.34 113.8,-43.39"/>
<polygon fill="#63b8ff" stroke="#63b8ff" points="115.74,-46.32 121.31,-37.31 111.33,-40.88 115.74,-46.32"/>
</a>
</g>
<g id="a_edge6&#45;headlabel"><a xlink:href="dir_000067_000000.html" target="_top" xlink:title="1">
<text text-anchor="middle" x="115.91" y="-46.34" font-family="Helvetica,sans-Serif" font-size="10.00" fill="#63b8ff">1</text>
</a>
</g>
</g>
<!-- dir_cdc3ef1cd8e124bd23dc02cde75cb938&#45;&gt;dir_e6b3a72c504ade0625aab158ff160af3 -->
<g id="edge8" class="edge">
<title>dir_cdc3ef1cd8e124bd23dc02cde75cb938&#45;&gt;dir_e6b3a72c504ade0625aab158ff160af3</title>
<g id="a_edge8"><a xlink:href="dir_000091_000000.html" target="_top">
<path fill="none" stroke="#63b8ff" d="M78.92,-127.76C86.24,-118.95 97.15,-105.1 105,-92 113.79,-77.32 121.81,-59.63 127.33,-46.42"/>
<polygon fill="#63b8ff" stroke="#63b8ff" points="130.42,-48.12 130.94,-37.54 123.93,-45.49 130.42,-48.12"/>
</a>
</g>
<g id="a_edge8&#45;headlabel"><a xlink:href="dir_000091_000000.html" target="_top" xlink:title="1">
<text text-anchor="middle" x="132.26" y="-47.62" font-family="Helvetica,sans-Serif" font-size="10.00" fill="#63b8ff">1</text>
</a>
</g>
</g>
<!-- dir_cdc3ef1cd8e124bd23dc02cde75cb938&#45;&gt;dir_99e757e9b32215be9284b8feb010174d -->
<g id="edge7" class="edge">
<title>dir_cdc3ef1cd8e124bd23dc02cde75cb938&#45;&gt;dir_99e757e9b32215be9284b8feb010174d</title>
<g id="a_edge7"><a xlink:href="dir_000091_000067.html" target="_top">
<path fill="none" stroke="#63b8ff" d="M72.57,-127.59C73.68,-120.93 75.21,-111.75 76.59,-103.44"/>
<polygon fill="#63b8ff" stroke="#63b8ff" points="80.01,-104.23 78.2,-93.79 73.11,-103.08 80.01,-104.23"/>
</a>
</g>
<g id="a_edge7&#45;headlabel"><a xlink:href="dir_000091_000067.html" target="_top" xlink:title="1">
<text text-anchor="middle" x="82.47" y="-103.25" font-family="Helvetica,sans-Serif" font-size="10.00" fill="#63b8ff">1</text>
</a>
</g>
</g>
<!-- dir_47a2174d907c870fe5a5a8de793a717d&#45;&gt;dir_e6b3a72c504ade0625aab158ff160af3 -->
<g id="edge11" class="edge">
<title>dir_47a2174d907c870fe5a5a8de793a717d&#45;&gt;dir_e6b3a72c504ade0625aab158ff160af3</title>
<g id="a_edge11"><a xlink:href="dir_000093_000000.html" target="_top">
<path fill="none" stroke="#63b8ff" d="M108.59,-183.6C112.99,-157.46 125.47,-83.48 131.57,-47.36"/>
<polygon fill="#63b8ff" stroke="#63b8ff" points="134.97,-48.23 133.18,-37.79 128.07,-47.07 134.97,-48.23"/>
</a>
</g>
<g id="a_edge11&#45;headlabel"><a xlink:href="dir_000093_000000.html" target="_top" xlink:title="1">
<text text-anchor="middle" x="137.42" y="-47.26" font-family="Helvetica,sans-Serif" font-size="10.00" fill="#63b8ff">1</text>
</a>
</g>
</g>
<!-- dir_47a2174d907c870fe5a5a8de793a717d&#45;&gt;dir_99e757e9b32215be9284b8feb010174d -->
<g id="edge9" class="edge">
<title>dir_47a2174d907c870fe5a5a8de793a717d&#45;&gt;dir_99e757e9b32215be9284b8feb010174d</title>
<g id="a_edge9"><a xlink:href="dir_000093_000067.html" target="_top">
<path fill="none" stroke="#63b8ff" d="M106.9,-183.58C106.55,-170.78 105.19,-147.29 100,-128 97.67,-119.35 93.9,-110.24 90.25,-102.49"/>
<polygon fill="#63b8ff" stroke="#63b8ff" points="93.46,-101.08 85.86,-93.69 87.19,-104.2 93.46,-101.08"/>
</a>
</g>
<g id="a_edge9&#45;headlabel"><a xlink:href="dir_000093_000067.html" target="_top" xlink:title="1">
<text text-anchor="middle" x="96.93" y="-98.17" font-family="Helvetica,sans-Serif" font-size="10.00" fill="#63b8ff">1</text>
</a>
</g>
</g>
<!-- dir_47a2174d907c870fe5a5a8de793a717d&#45;&gt;dir_cdc3ef1cd8e124bd23dc02cde75cb938 -->
<g id="edge10" class="edge">
<title>dir_47a2174d907c870fe5a5a8de793a717d&#45;&gt;dir_cdc3ef1cd8e124bd23dc02cde75cb938</title>
<g id="a_edge10"><a xlink:href="dir_000093_000091.html" target="_top">
<path fill="none" stroke="#63b8ff" d="M100.73,-183.59C95.98,-176.47 89.3,-166.45 83.48,-157.72"/>
<polygon fill="#63b8ff" stroke="#63b8ff" points="86.5,-155.94 78.04,-149.56 80.67,-159.82 86.5,-155.94"/>
</a>
</g>
<g id="a_edge10&#45;headlabel"><a xlink:href="dir_000093_000091.html" target="_top" xlink:title="1">
<text text-anchor="middle" x="90.01" y="-152.59" font-family="Helvetica,sans-Serif" font-size="10.00" fill="#63b8ff">1</text>
</a>
</g>
</g>
<!-- dir_65e40b9c0de795b51f15fcb3e32d6670 -->
<g id="node7" class="node">
<title>dir_65e40b9c0de795b51f15fcb3e32d6670</title>
<g id="a_node7"><a xlink:href="dir_65e40b9c0de795b51f15fcb3e32d6670.html" target="_top" xlink:title="sphere">
<polygon fill="#71df6f" stroke="#404040" points="139.62,-260 94.38,-260 94.38,-240 139.62,-240 139.62,-260"/>
<text text-anchor="middle" x="117" y="-246.5" font-family="Helvetica,sans-Serif" font-size="10.00">sphere</text>
</a>
</g>
</g>
<!-- dir_65e40b9c0de795b51f15fcb3e32d6670&#45;&gt;dir_47a2174d907c870fe5a5a8de793a717d -->
<g id="edge12" class="edge">
<title>dir_65e40b9c0de795b51f15fcb3e32d6670&#45;&gt;dir_47a2174d907c870fe5a5a8de793a717d</title>
<g id="a_edge12"><a xlink:href="dir_000108_000093.html" target="_top">
<path fill="none" stroke="#63b8ff" d="M115.26,-239.59C114.02,-232.93 112.32,-223.75 110.79,-215.44"/>
<polygon fill="#63b8ff" stroke="#63b8ff" points="114.26,-214.98 109,-205.79 107.38,-216.26 114.26,-214.98"/>
</a>
</g>
<g id="a_edge12&#45;headlabel"><a xlink:href="dir_000108_000093.html" target="_top" xlink:title="1">
<text text-anchor="middle" x="117.43" y="-213.01" font-family="Helvetica,sans-Serif" font-size="10.00" fill="#63b8ff">1</text>
</a>
</g>
</g>
</g>
</svg>
