<?xml version="1.0" encoding="UTF-8" standalone="no"?>
<!DOCTYPE svg PUBLIC "-//W3C//DTD SVG 1.1//EN"
 "http://www.w3.org/Graphics/SVG/1.1/DTD/svg11.dtd">
<!-- Generated by graphviz version 11.0.0 (20240428.1522)
 -->
<!-- Title: TFG&#45;&#45;&#45;OpenGL&#45;Engine/src/engine/core/math/geometry/figures Pages: 1 -->
<svg width="351pt" height="128pt"
 viewBox="0.00 0.00 351.00 128.00" xmlns="http://www.w3.org/2000/svg" xmlns:xlink="http://www.w3.org/1999/xlink">
<g id="graph0" class="graph" transform="scale(1 1) rotate(0) translate(4 124)">
<title>TFG&#45;&#45;&#45;OpenGL&#45;Engine/src/engine/core/math/geometry/figures</title>
<g id="clust1" class="cluster">
<title>clusterdir_255df6a203d2fc5993c1d3b8baac7830</title>
<g id="a_clust1"><a xlink:href="dir_255df6a203d2fc5993c1d3b8baac7830.html" target="_top" xlink:title="geometry">
<polygon fill="#c3f1c2" stroke="#7f7f7f" stroke-dasharray="5,2" points="8,-40 8,-112 335,-112 335,-40 8,-40"/>
<text text-anchor="middle" x="171.5" y="-98.5" font-family="Helvetica,sans-Serif" font-size="10.00">geometry</text>
</a>
</g>
</g>
<g id="clust2" class="cluster">
<title>clusterdir_6f3edaca8015ebfd671ff12bb9bb99b6</title>
<g id="a_clust2"><a xlink:href="dir_6f3edaca8015ebfd671ff12bb9bb99b6.html" target="_top">
<polygon fill="#c3f1c2" stroke="#404040" stroke-width="2" points="16,-48 16,-84 327,-84 327,-48 16,-48"/>
</a>
</g>
</g>
<!-- dir_6f3edaca8015ebfd671ff12bb9bb99b6 -->
<g id="node1" class="node">
<title>dir_6f3edaca8015ebfd671ff12bb9bb99b6</title>
<text text-anchor="middle" x="46" y="-62.5" font-family="Helvetica,sans-Serif" font-size="10.00">figures</text>
</g>
<!-- dir_8033e8827b1e015f2546690ba873593c -->
<g id="node6" class="node">
<title>dir_8033e8827b1e015f2546690ba873593c</title>
<g id="a_node6"><a xlink:href="dir_8033e8827b1e015f2546690ba873593c.html" target="_top" xlink:title="include">
<polygon fill="#c3f1c2" stroke="red" stroke-dasharray="5,2" points="178.38,-20 131.62,-20 131.62,0 178.38,0 178.38,-20"/>
<text text-anchor="middle" x="155" y="-6.5" font-family="Helvetica,sans-Serif" font-size="10.00">include</text>
</a>
</g>
</g>
<!-- dir_6f3edaca8015ebfd671ff12bb9bb99b6&#45;&gt;dir_8033e8827b1e015f2546690ba873593c -->
<g id="edge1" class="edge">
<title>dir_6f3edaca8015ebfd671ff12bb9bb99b6&#45;&gt;dir_8033e8827b1e015f2546690ba873593c</title>
<g id="a_edge1"><a xlink:href="dir_000044_000060.html" target="_top">
<path fill="none" stroke="#63b8ff" d="M55.82,-56.05C61.88,-50.86 70.01,-44.49 78,-40 91.23,-32.57 106.75,-26.31 120.37,-21.53"/>
<polygon fill="#63b8ff" stroke="#63b8ff" points="121.47,-24.85 129.84,-18.35 119.24,-18.22 121.47,-24.85"/>
</a>
</g>
<g id="a_edge1&#45;headlabel"><a xlink:href="dir_000044_000060.html" target="_top" xlink:title="8">
<text text-anchor="middle" x="120.4" y="-24.71" font-family="Helvetica,sans-Serif" font-size="10.00" fill="#63b8ff">8</text>
</a>
</g>
</g>
<!-- dir_811c8079889f2ee1d328c8e486e0a588 -->
<g id="node2" class="node">
<title>dir_811c8079889f2ee1d328c8e486e0a588</title>
<g id="a_node2"><a xlink:href="dir_811c8079889f2ee1d328c8e486e0a588.html" target="_top" xlink:title="line">
<polygon fill="#9ae899" stroke="#404040" points="117.5,-76 86.5,-76 86.5,-56 117.5,-56 117.5,-76"/>
<text text-anchor="middle" x="102" y="-62.5" font-family="Helvetica,sans-Serif" font-size="10.00">line</text>
</a>
</g>
</g>
<!-- dir_811c8079889f2ee1d328c8e486e0a588&#45;&gt;dir_8033e8827b1e015f2546690ba873593c -->
<g id="edge2" class="edge">
<title>dir_811c8079889f2ee1d328c8e486e0a588&#45;&gt;dir_8033e8827b1e015f2546690ba873593c</title>
<g id="a_edge2"><a xlink:href="dir_000068_000060.html" target="_top">
<path fill="none" stroke="#63b8ff" d="M110.85,-55.7C115.36,-50.97 120.95,-45.16 126,-40 129.75,-36.18 133.79,-32.1 137.64,-28.25"/>
<polygon fill="#63b8ff" stroke="#63b8ff" points="139.87,-30.96 144.48,-21.42 134.92,-26.01 139.87,-30.96"/>
</a>
</g>
<g id="a_edge2&#45;headlabel"><a xlink:href="dir_000068_000060.html" target="_top" xlink:title="1">
<text text-anchor="middle" x="140.4" y="-30.94" font-family="Helvetica,sans-Serif" font-size="10.00" fill="#63b8ff">1</text>
</a>
</g>
</g>
<!-- dir_e40eba5d8da27a6b9961ba98ae6bbccc -->
<g id="node3" class="node">
<title>dir_e40eba5d8da27a6b9961ba98ae6bbccc</title>
<g id="a_node3"><a xlink:href="dir_e40eba5d8da27a6b9961ba98ae6bbccc.html" target="_top" xlink:title="plane">
<polygon fill="#9ae899" stroke="#404040" points="174.62,-76 135.38,-76 135.38,-56 174.62,-56 174.62,-76"/>
<text text-anchor="middle" x="155" y="-62.5" font-family="Helvetica,sans-Serif" font-size="10.00">plane</text>
</a>
</g>
</g>
<!-- dir_e40eba5d8da27a6b9961ba98ae6bbccc&#45;&gt;dir_8033e8827b1e015f2546690ba873593c -->
<g id="edge3" class="edge">
<title>dir_e40eba5d8da27a6b9961ba98ae6bbccc&#45;&gt;dir_8033e8827b1e015f2546690ba873593c</title>
<g id="a_edge3"><a xlink:href="dir_000092_000060.html" target="_top">
<path fill="none" stroke="#63b8ff" d="M155,-55.59C155,-49.01 155,-39.96 155,-31.73"/>
<polygon fill="#63b8ff" stroke="#63b8ff" points="158.5,-31.81 155,-21.81 151.5,-31.81 158.5,-31.81"/>
</a>
</g>
<g id="a_edge3&#45;headlabel"><a xlink:href="dir_000092_000060.html" target="_top" xlink:title="1">
<text text-anchor="middle" x="161.34" y="-30.39" font-family="Helvetica,sans-Serif" font-size="10.00" fill="#63b8ff">1</text>
</a>
</g>
</g>
<!-- dir_077af930ac3df209ffbee120d28bd6af -->
<g id="node4" class="node">
<title>dir_077af930ac3df209ffbee120d28bd6af</title>
<g id="a_node4"><a xlink:href="dir_077af930ac3df209ffbee120d28bd6af.html" target="_top" xlink:title="polyhedron">
<polygon fill="#9ae899" stroke="#404040" points="255.62,-76 192.38,-76 192.38,-56 255.62,-56 255.62,-76"/>
<text text-anchor="middle" x="224" y="-62.5" font-family="Helvetica,sans-Serif" font-size="10.00">polyhedron</text>
</a>
</g>
</g>
<!-- dir_077af930ac3df209ffbee120d28bd6af&#45;&gt;dir_8033e8827b1e015f2546690ba873593c -->
<g id="edge4" class="edge">
<title>dir_077af930ac3df209ffbee120d28bd6af&#45;&gt;dir_8033e8827b1e015f2546690ba873593c</title>
<g id="a_edge4"><a xlink:href="dir_000094_000060.html" target="_top">
<path fill="none" stroke="#63b8ff" d="M211.98,-55.59C201.99,-47.77 187.54,-36.46 175.69,-27.19"/>
<polygon fill="#63b8ff" stroke="#63b8ff" points="178.11,-24.64 168.07,-21.23 173.79,-30.15 178.11,-24.64"/>
</a>
</g>
<g id="a_edge4&#45;headlabel"><a xlink:href="dir_000094_000060.html" target="_top" xlink:title="4">
<text text-anchor="middle" x="181.49" y="-20.18" font-family="Helvetica,sans-Serif" font-size="10.00" fill="#63b8ff">4</text>
</a>
</g>
</g>
<!-- dir_2014aa6ecbc8e36c37d5be9f31c92b54 -->
<g id="node5" class="node">
<title>dir_2014aa6ecbc8e36c37d5be9f31c92b54</title>
<g id="a_node5"><a xlink:href="dir_2014aa6ecbc8e36c37d5be9f31c92b54.html" target="_top" xlink:title="sphere">
<polygon fill="#9ae899" stroke="#404040" points="318.62,-76 273.38,-76 273.38,-56 318.62,-56 318.62,-76"/>
<text text-anchor="middle" x="296" y="-62.5" font-family="Helvetica,sans-Serif" font-size="10.00">sphere</text>
</a>
</g>
</g>
<!-- dir_2014aa6ecbc8e36c37d5be9f31c92b54&#45;&gt;dir_8033e8827b1e015f2546690ba873593c -->
<g id="edge5" class="edge">
<title>dir_2014aa6ecbc8e36c37d5be9f31c92b54&#45;&gt;dir_8033e8827b1e015f2546690ba873593c</title>
<g id="a_edge5"><a xlink:href="dir_000109_000060.html" target="_top">
<path fill="none" stroke="#63b8ff" d="M286.69,-55.74C280.89,-50.44 273.02,-44.06 265,-40 241.4,-28.06 212.38,-20.68 190.08,-16.35"/>
<polygon fill="#63b8ff" stroke="#63b8ff" points="190.73,-12.91 180.27,-14.57 189.48,-19.8 190.73,-12.91"/>
</a>
</g>
<g id="a_edge5&#45;headlabel"><a xlink:href="dir_000109_000060.html" target="_top" xlink:title="1">
<text text-anchor="middle" x="193.28" y="-6.99" font-family="Helvetica,sans-Serif" font-size="10.00" fill="#63b8ff">1</text>
</a>
</g>
</g>
</g>
</svg>
