<?xml version="1.0" encoding="UTF-8" standalone="no"?>
<!DOCTYPE svg PUBLIC "-//W3C//DTD SVG 1.1//EN"
 "http://www.w3.org/Graphics/SVG/1.1/DTD/svg11.dtd">
<!-- Generated by graphviz version 11.0.0 (20240428.1522)
 -->
<!-- Title: low&#45;level&#45;renderer Pages: 1 -->
<svg width="586pt" height="148pt"
 viewBox="0.00 0.00 586.00 148.00" xmlns="http://www.w3.org/2000/svg" xmlns:xlink="http://www.w3.org/1999/xlink">
<g id="graph0" class="graph" transform="scale(1 1) rotate(0) translate(4 144)">
<title>low&#45;level&#45;renderer</title>
<g id="clust1" class="cluster">
<title>clusterdir_fdbc7b4b5b4c04d598adc44afc34d9a5</title>
<g id="a_clust1"><a xlink:href="dir_fdbc7b4b5b4c04d598adc44afc34d9a5.html" target="_top" xlink:title="core">
<polygon fill="#c3f1c2" stroke="#7f7f7f" stroke-dasharray="5,2" points="8,-28 8,-132 570,-132 570,-28 8,-28"/>
<text text-anchor="middle" x="289" y="-118.5" font-family="Helvetica,sans-Serif" font-size="10.00">core</text>
</a>
</g>
</g>
<g id="clust2" class="cluster">
<title>clusterdir_df8280ef0076686127b4c5314d971f2d</title>
<g id="a_clust2"><a xlink:href="dir_df8280ef0076686127b4c5314d971f2d.html" target="_top">
<polygon fill="#c3f1c2" stroke="#404040" stroke-width="2" points="16,-36 16,-104 562,-104 562,-36 16,-36"/>
</a>
</g>
</g>
<g id="clust3" class="cluster">
<title>clusterdir_bcad6484c4971784c0c14a281d0d99e1</title>
<g id="a_clust3"><a xlink:href="dir_bcad6484c4971784c0c14a281d0d99e1.html" target="_top">
<polygon fill="#9ae899" stroke="#404040" points="24,-44 24,-96 328,-96 328,-44 24,-44"/>
</a>
</g>
</g>
<g id="clust4" class="cluster">
<title>clusterdir_3e169507fb0f1acb8f46b2ab5c75f549</title>
<g id="a_clust4"><a xlink:href="dir_3e169507fb0f1acb8f46b2ab5c75f549.html" target="_top">
<polygon fill="#71df6f" stroke="#404040" points="32,-52 32,-88 247,-88 247,-52 32,-52"/>
</a>
</g>
</g>
<!-- dir_df8280ef0076686127b4c5314d971f2d -->
<g id="node1" class="node">
<title>dir_df8280ef0076686127b4c5314d971f2d</title>
<text text-anchor="middle" x="383" y="-66.5" font-family="Helvetica,sans-Serif" font-size="10.00">low&#45;level&#45;renderer</text>
</g>
<!-- dir_b7ae3ba6dd16241107f939dcb7b2c251 -->
<g id="node2" class="node">
<title>dir_b7ae3ba6dd16241107f939dcb7b2c251</title>
<g id="a_node2"><a xlink:href="dir_b7ae3ba6dd16241107f939dcb7b2c251.html" target="_top" xlink:title="buffers">
<polygon fill="#9ae899" stroke="#404040" points="490.25,-80 445.75,-80 445.75,-60 490.25,-60 490.25,-80"/>
<text text-anchor="middle" x="468" y="-66.5" font-family="Helvetica,sans-Serif" font-size="10.00">buffers</text>
</a>
</g>
</g>
<!-- dir_d44c64559bbebec7f509842c48db8b23 -->
<g id="node8" class="node">
<title>dir_d44c64559bbebec7f509842c48db8b23</title>
<g id="a_node8"><a xlink:href="dir_d44c64559bbebec7f509842c48db8b23.html" target="_top" xlink:title="include">
<polygon fill="#c3f1c2" stroke="red" points="491.38,-20 444.62,-20 444.62,0 491.38,0 491.38,-20"/>
<text text-anchor="middle" x="468" y="-6.5" font-family="Helvetica,sans-Serif" font-size="10.00">include</text>
</a>
</g>
</g>
<!-- dir_b7ae3ba6dd16241107f939dcb7b2c251&#45;&gt;dir_d44c64559bbebec7f509842c48db8b23 -->
<g id="edge1" class="edge">
<title>dir_b7ae3ba6dd16241107f939dcb7b2c251&#45;&gt;dir_d44c64559bbebec7f509842c48db8b23</title>
<g id="a_edge1"><a xlink:href="dir_000007_000060.html" target="_top">
<path fill="none" stroke="#63b8ff" d="M468,-59.68C468,-52.2 468,-41.41 468,-31.89"/>
<polygon fill="#63b8ff" stroke="#63b8ff" points="471.5,-32 468,-22 464.5,-32 471.5,-32"/>
</a>
</g>
<g id="a_edge1&#45;headlabel"><a xlink:href="dir_000007_000060.html" target="_top" xlink:title="9">
<text text-anchor="middle" x="474.34" y="-30.58" font-family="Helvetica,sans-Serif" font-size="10.00" fill="#63b8ff">9</text>
</a>
</g>
</g>
<!-- dir_bcad6484c4971784c0c14a281d0d99e1 -->
<g id="node3" class="node">
<title>dir_bcad6484c4971784c0c14a281d0d99e1</title>
<text text-anchor="middle" x="288" y="-66.5" font-family="Helvetica,sans-Serif" font-size="10.00">graphic&#45;api</text>
</g>
<!-- dir_3e169507fb0f1acb8f46b2ab5c75f549 -->
<g id="node4" class="node">
<title>dir_3e169507fb0f1acb8f46b2ab5c75f549</title>
<text text-anchor="middle" x="77" y="-66.5" font-family="Helvetica,sans-Serif" font-size="10.00">concrete&#45;apis</text>
</g>
<!-- dir_5b6fc825961736f6f91351d6bfaebe53 -->
<g id="node5" class="node">
<title>dir_5b6fc825961736f6f91351d6bfaebe53</title>
<g id="a_node5"><a xlink:href="dir_5b6fc825961736f6f91351d6bfaebe53.html" target="_top" xlink:title="opengl">
<polygon fill="#4bd649" stroke="#404040" points="177.25,-80 132.75,-80 132.75,-60 177.25,-60 177.25,-80"/>
<text text-anchor="middle" x="155" y="-66.5" font-family="Helvetica,sans-Serif" font-size="10.00">opengl</text>
</a>
</g>
</g>
<!-- dir_5b6fc825961736f6f91351d6bfaebe53&#45;&gt;dir_d44c64559bbebec7f509842c48db8b23 -->
<g id="edge2" class="edge">
<title>dir_5b6fc825961736f6f91351d6bfaebe53&#45;&gt;dir_d44c64559bbebec7f509842c48db8b23</title>
<g id="a_edge2"><a xlink:href="dir_000087_000060.html" target="_top">
<path fill="none" stroke="#63b8ff" d="M159.35,-59.59C164.45,-49.78 173.89,-34.89 187,-28 208.26,-16.82 362.63,-12.78 433.1,-11.51"/>
<polygon fill="#63b8ff" stroke="#63b8ff" points="432.99,-15.02 442.93,-11.35 432.87,-8.02 432.99,-15.02"/>
</a>
</g>
<g id="a_edge2&#45;headlabel"><a xlink:href="dir_000087_000060.html" target="_top" xlink:title="2">
<text text-anchor="middle" x="430.96" y="-14.39" font-family="Helvetica,sans-Serif" font-size="10.00" fill="#63b8ff">2</text>
</a>
</g>
</g>
<!-- dir_4249ccaba2bf09ab63926b53da0e4551 -->
<g id="node6" class="node">
<title>dir_4249ccaba2bf09ab63926b53da0e4551</title>
<g id="a_node6"><a xlink:href="dir_4249ccaba2bf09ab63926b53da0e4551.html" target="_top" xlink:title="vulkan">
<polygon fill="#4bd649" stroke="#404040" points="238.5,-80 195.5,-80 195.5,-60 238.5,-60 238.5,-80"/>
<text text-anchor="middle" x="217" y="-66.5" font-family="Helvetica,sans-Serif" font-size="10.00">vulkan</text>
</a>
</g>
</g>
<!-- dir_d27a6898c95209937484f5cd8335e8ee -->
<g id="node7" class="node">
<title>dir_d27a6898c95209937484f5cd8335e8ee</title>
<g id="a_node7"><a xlink:href="dir_d27a6898c95209937484f5cd8335e8ee.html" target="_top" xlink:title="shader">
<polygon fill="#9ae899" stroke="#404040" points="553.62,-80 508.38,-80 508.38,-60 553.62,-60 553.62,-80"/>
<text text-anchor="middle" x="531" y="-66.5" font-family="Helvetica,sans-Serif" font-size="10.00">shader</text>
</a>
</g>
</g>
<!-- dir_d27a6898c95209937484f5cd8335e8ee&#45;&gt;dir_d44c64559bbebec7f509842c48db8b23 -->
<g id="edge3" class="edge">
<title>dir_d27a6898c95209937484f5cd8335e8ee&#45;&gt;dir_d44c64559bbebec7f509842c48db8b23</title>
<g id="a_edge3"><a xlink:href="dir_000103_000060.html" target="_top">
<path fill="none" stroke="#63b8ff" d="M525.3,-59.64C519.51,-50.69 509.87,-37.24 499,-28 498.49,-27.57 497.96,-27.14 497.43,-26.71"/>
<polygon fill="#63b8ff" stroke="#63b8ff" points="499.64,-23.98 489.39,-21.32 495.74,-29.8 499.64,-23.98"/>
</a>
</g>
<g id="a_edge3&#45;headlabel"><a xlink:href="dir_000103_000060.html" target="_top" xlink:title="9">
<text text-anchor="middle" x="502.95" y="-19.29" font-family="Helvetica,sans-Serif" font-size="10.00" fill="#63b8ff">9</text>
</a>
</g>
</g>
</g>
</svg>
