<?xml version="1.0" encoding="UTF-8" standalone="no"?>
<!DOCTYPE svg PUBLIC "-//W3C//DTD SVG 1.1//EN"
 "http://www.w3.org/Graphics/SVG/1.1/DTD/svg11.dtd">
<!-- Generated by graphviz version 11.0.0 (20240428.1522)
 -->
<!-- Title: TFG&#45;&#45;&#45;OpenGL&#45;Engine/include/engine/subsystems Pages: 1 -->
<svg width="826pt" height="384pt"
 viewBox="0.00 0.00 826.00 384.00" xmlns="http://www.w3.org/2000/svg" xmlns:xlink="http://www.w3.org/1999/xlink">
<g id="graph0" class="graph" transform="scale(1 1) rotate(0) translate(4 380)">
<title>TFG&#45;&#45;&#45;OpenGL&#45;Engine/include/engine/subsystems</title>
<g id="clust1" class="cluster">
<title>clusterdir_11d1b1f5841d20e9ed711c01a3128b3c</title>
<g id="a_clust1"><a xlink:href="dir_11d1b1f5841d20e9ed711c01a3128b3c.html" target="_top" xlink:title="engine">
<polygon fill="#c3f1c2" stroke="#7f7f7f" stroke-dasharray="5,2" points="8,-8 8,-368 810,-368 810,-8 8,-8"/>
<text text-anchor="middle" x="409" y="-354.5" font-family="Helvetica,sans-Serif" font-size="10.00">engine</text>
</a>
</g>
</g>
<g id="clust2" class="cluster">
<title>clusterdir_a6db368f93f830f589f9ec6624d375be</title>
<g id="a_clust2"><a xlink:href="dir_a6db368f93f830f589f9ec6624d375be.html" target="_top">
<polygon fill="#c3f1c2" stroke="#404040" stroke-width="2" points="16,-16 16,-340 682,-340 682,-16 16,-16"/>
</a>
</g>
</g>
<g id="clust3" class="cluster">
<title>clusterdir_7b9292357d3ee62c02205562d8ebe3d3</title>
<g id="a_clust3"><a xlink:href="dir_7b9292357d3ee62c02205562d8ebe3d3.html" target="_top">
<polygon fill="#9ae899" stroke="#404040" points="421,-240 421,-276 551,-276 551,-240 421,-240"/>
</a>
</g>
</g>
<g id="clust4" class="cluster">
<title>clusterdir_b679750ec0df18e28fb9eb20fccdf8c3</title>
<g id="a_clust4"><a xlink:href="dir_b679750ec0df18e28fb9eb20fccdf8c3.html" target="_top">
<polygon fill="#9ae899" stroke="#404040" points="495,-296 495,-332 622,-332 622,-296 495,-296"/>
</a>
</g>
</g>
<g id="clust5" class="cluster">
<title>clusterdir_194b1baa33eb59e7347ebb3131e49ac9</title>
<g id="a_clust5"><a xlink:href="dir_194b1baa33eb59e7347ebb3131e49ac9.html" target="_top">
<polygon fill="#9ae899" stroke="#404040" points="252,-128 252,-220 674,-220 674,-128 252,-128"/>
</a>
</g>
</g>
<!-- dir_740482fb8520b219a728e59770c6fb7f -->
<g id="node1" class="node">
<title>dir_740482fb8520b219a728e59770c6fb7f</title>
<g id="a_node1"><a xlink:href="dir_740482fb8520b219a728e59770c6fb7f.html" target="_top" xlink:title="res&#45;mng">
<polygon fill="#9ae899" stroke="red" points="741.62,-100 690.38,-100 690.38,-80 741.62,-80 741.62,-100"/>
<text text-anchor="middle" x="716" y="-86.5" font-family="Helvetica,sans-Serif" font-size="10.00">res&#45;mng</text>
</a>
</g>
</g>
<!-- dir_76adbe37b29bdc9393d28732983955c3 -->
<g id="node2" class="node">
<title>dir_76adbe37b29bdc9393d28732983955c3</title>
<g id="a_node2"><a xlink:href="dir_76adbe37b29bdc9393d28732983955c3.html" target="_top" xlink:title="core">
<polygon fill="#9ae899" stroke="red" points="724.38,-44 689.62,-44 689.62,-24 724.38,-24 724.38,-44"/>
<text text-anchor="middle" x="707" y="-30.5" font-family="Helvetica,sans-Serif" font-size="10.00">core</text>
</a>
</g>
</g>
<!-- dir_a6db368f93f830f589f9ec6624d375be -->
<g id="node3" class="node">
<title>dir_a6db368f93f830f589f9ec6624d375be</title>
<text text-anchor="middle" x="99" y="-142.5" font-family="Helvetica,sans-Serif" font-size="10.00">subsystems</text>
</g>
<!-- dir_74828adbf4a031a698399bd68e9baa20 -->
<g id="node6" class="node">
<title>dir_74828adbf4a031a698399bd68e9baa20</title>
<g id="a_node6"><a xlink:href="dir_74828adbf4a031a698399bd68e9baa20.html" target="_top" xlink:title="ingame&#45;debug">
<polygon fill="#9ae899" stroke="#404040" points="312.38,-100 235.62,-100 235.62,-80 312.38,-80 312.38,-100"/>
<text text-anchor="middle" x="274" y="-86.5" font-family="Helvetica,sans-Serif" font-size="10.00">ingame&#45;debug</text>
</a>
</g>
</g>
<!-- dir_a6db368f93f830f589f9ec6624d375be&#45;&gt;dir_74828adbf4a031a698399bd68e9baa20 -->
<g id="edge1" class="edge">
<title>dir_a6db368f93f830f589f9ec6624d375be&#45;&gt;dir_74828adbf4a031a698399bd68e9baa20</title>
<g id="a_edge1"><a xlink:href="dir_000111_000061.html" target="_top">
<path fill="none" stroke="#63b8ff" d="M124.1,-136.03C131.75,-133.37 140.2,-130.5 148,-128 174.81,-119.42 205.06,-110.51 229.2,-103.59"/>
<polygon fill="#63b8ff" stroke="#63b8ff" points="230.06,-106.98 238.72,-100.87 228.14,-100.25 230.06,-106.98"/>
</a>
</g>
<g id="a_edge1&#45;headlabel"><a xlink:href="dir_000111_000061.html" target="_top" xlink:title="12">
<text text-anchor="middle" x="228.84" y="-106.78" font-family="Helvetica,sans-Serif" font-size="10.00" fill="#63b8ff">12</text>
</a>
</g>
</g>
<!-- dir_7b9292357d3ee62c02205562d8ebe3d3 -->
<g id="node4" class="node">
<title>dir_7b9292357d3ee62c02205562d8ebe3d3</title>
<text text-anchor="middle" x="527" y="-254.5" font-family="Helvetica,sans-Serif" font-size="10.00">hud</text>
</g>
<!-- dir_7b9292357d3ee62c02205562d8ebe3d3&#45;&gt;dir_76adbe37b29bdc9393d28732983955c3 -->
<g id="edge2" class="edge">
<title>dir_7b9292357d3ee62c02205562d8ebe3d3&#45;&gt;dir_76adbe37b29bdc9393d28732983955c3</title>
<g id="a_edge2"><a xlink:href="dir_000058_000018.html" target="_top">
<path fill="none" stroke="#63b8ff" d="M535.22,-248.22C538.58,-245.14 542.69,-241.97 547,-240 600.58,-215.55 637.91,-263.15 678,-220 714.31,-180.91 682.9,-153.32 681,-100 680.68,-91.12 678.7,-88.59 681,-80 683.47,-70.77 688.35,-61.48 693.22,-53.76"/>
<polygon fill="#63b8ff" stroke="#63b8ff" points="696.03,-55.83 698.77,-45.6 690.25,-51.9 696.03,-55.83"/>
</a>
</g>
<g id="a_edge2&#45;headlabel"><a xlink:href="dir_000058_000018.html" target="_top" xlink:title="1">
<text text-anchor="middle" x="697.21" y="-55.65" font-family="Helvetica,sans-Serif" font-size="10.00" fill="#63b8ff">1</text>
</a>
</g>
</g>
<!-- dir_69719aacbdd3a66e1b84e4282f91d464 -->
<g id="node5" class="node">
<title>dir_69719aacbdd3a66e1b84e4282f91d464</title>
<g id="a_node5"><a xlink:href="dir_69719aacbdd3a66e1b84e4282f91d464.html" target="_top" xlink:title="engine&#45;hud">
<polygon fill="#71df6f" stroke="#404040" points="492.62,-268 429.38,-268 429.38,-248 492.62,-248 492.62,-268"/>
<text text-anchor="middle" x="461" y="-254.5" font-family="Helvetica,sans-Serif" font-size="10.00">engine&#45;hud</text>
</a>
</g>
</g>
<!-- dir_69719aacbdd3a66e1b84e4282f91d464&#45;&gt;dir_74828adbf4a031a698399bd68e9baa20 -->
<g id="edge4" class="edge">
<title>dir_69719aacbdd3a66e1b84e4282f91d464&#45;&gt;dir_74828adbf4a031a698399bd68e9baa20</title>
<g id="a_edge4"><a xlink:href="dir_000033_000061.html" target="_top">
<path fill="none" stroke="#63b8ff" d="M443.87,-247.5C438.04,-244.66 431.38,-241.81 425,-240 386.92,-229.18 274.37,-249.52 248,-220 220.76,-189.51 235.67,-166.99 248,-128 250.07,-121.45 253.76,-115.06 257.73,-109.47"/>
<polygon fill="#63b8ff" stroke="#63b8ff" points="260.47,-111.65 263.93,-101.64 254.98,-107.31 260.47,-111.65"/>
</a>
</g>
<g id="a_edge4&#45;headlabel"><a xlink:href="dir_000033_000061.html" target="_top" xlink:title="1">
<text text-anchor="middle" x="261.4" y="-111.55" font-family="Helvetica,sans-Serif" font-size="10.00" fill="#63b8ff">1</text>
</a>
</g>
</g>
<!-- dir_194b1baa33eb59e7347ebb3131e49ac9 -->
<g id="node10" class="node">
<title>dir_194b1baa33eb59e7347ebb3131e49ac9</title>
<text text-anchor="middle" x="461" y="-198.5" font-family="Helvetica,sans-Serif" font-size="10.00">renderer</text>
</g>
<!-- dir_69719aacbdd3a66e1b84e4282f91d464&#45;&gt;dir_194b1baa33eb59e7347ebb3131e49ac9 -->
<g id="edge3" class="edge">
<title>dir_69719aacbdd3a66e1b84e4282f91d464&#45;&gt;dir_194b1baa33eb59e7347ebb3131e49ac9</title>
<g id="a_edge3"><a xlink:href="dir_000033_000095.html" target="_top">
<path fill="none" stroke="#63b8ff" d="M461,-247.59C461,-240.93 461,-231.74 461,-223.43"/>
<polygon fill="#63b8ff" stroke="#63b8ff" points="464.5,-223.45 461,-213.45 457.5,-223.45 464.5,-223.45"/>
</a>
</g>
<g id="a_edge3&#45;headlabel"><a xlink:href="dir_000033_000095.html" target="_top" xlink:title="6">
<text text-anchor="middle" x="467.34" y="-222.03" font-family="Helvetica,sans-Serif" font-size="10.00" fill="#63b8ff">6</text>
</a>
</g>
</g>
<!-- dir_fd9befe56d547fc54c3585344638d845 -->
<g id="node17" class="node">
<title>dir_fd9befe56d547fc54c3585344638d845</title>
<g id="a_node17"><a xlink:href="dir_fd9befe56d547fc54c3585344638d845.html" target="_top" xlink:title="texture">
<polygon fill="#71df6f" stroke="#404040" points="666,-156 620,-156 620,-136 666,-136 666,-156"/>
<text text-anchor="middle" x="643" y="-142.5" font-family="Helvetica,sans-Serif" font-size="10.00">texture</text>
</a>
</g>
</g>
<!-- dir_69719aacbdd3a66e1b84e4282f91d464&#45;&gt;dir_fd9befe56d547fc54c3585344638d845 -->
<g id="edge5" class="edge">
<title>dir_69719aacbdd3a66e1b84e4282f91d464&#45;&gt;dir_fd9befe56d547fc54c3585344638d845</title>
<g id="a_edge5"><a xlink:href="dir_000033_000119.html" target="_top">
<path fill="none" stroke="#63b8ff" d="M476.52,-247.62C508.08,-228.54 580,-185.08 618.15,-162.02"/>
<polygon fill="#63b8ff" stroke="#63b8ff" points="619.48,-165.31 626.23,-157.14 615.86,-159.31 619.48,-165.31"/>
</a>
</g>
<g id="a_edge5&#45;headlabel"><a xlink:href="dir_000033_000119.html" target="_top" xlink:title="3">
<text text-anchor="middle" x="619.17" y="-165.31" font-family="Helvetica,sans-Serif" font-size="10.00" fill="#63b8ff">3</text>
</a>
</g>
</g>
<!-- dir_74828adbf4a031a698399bd68e9baa20&#45;&gt;dir_76adbe37b29bdc9393d28732983955c3 -->
<g id="edge6" class="edge">
<title>dir_74828adbf4a031a698399bd68e9baa20&#45;&gt;dir_76adbe37b29bdc9393d28732983955c3</title>
<g id="a_edge6"><a xlink:href="dir_000061_000018.html" target="_top">
<path fill="none" stroke="#63b8ff" d="M312.87,-80.51C313.92,-80.33 314.97,-80.16 316,-80 475.6,-55.22 523.8,-83.69 678.43,-45.77"/>
<polygon fill="#63b8ff" stroke="#63b8ff" points="678.95,-49.24 687.79,-43.41 677.24,-42.46 678.95,-49.24"/>
</a>
</g>
<g id="a_edge6&#45;headlabel"><a xlink:href="dir_000061_000018.html" target="_top" xlink:title="2">
<text text-anchor="middle" x="677.62" y="-49" font-family="Helvetica,sans-Serif" font-size="10.00" fill="#63b8ff">2</text>
</a>
</g>
</g>
<!-- dir_74828adbf4a031a698399bd68e9baa20&#45;&gt;dir_fd9befe56d547fc54c3585344638d845 -->
<g id="edge8" class="edge">
<title>dir_74828adbf4a031a698399bd68e9baa20&#45;&gt;dir_fd9befe56d547fc54c3585344638d845</title>
<g id="a_edge8"><a xlink:href="dir_000061_000119.html" target="_top">
<path fill="none" stroke="#63b8ff" d="M312.87,-99.5C313.92,-99.67 314.97,-99.84 316,-100 446.16,-120.05 484.85,-90.15 611,-128 613.31,-128.69 615.64,-129.56 617.94,-130.53"/>
<polygon fill="#63b8ff" stroke="#63b8ff" points="616.35,-133.65 626.87,-134.92 619.44,-127.37 616.35,-133.65"/>
</a>
</g>
<g id="a_edge8&#45;headlabel"><a xlink:href="dir_000061_000119.html" target="_top" xlink:title="1">
<text text-anchor="middle" x="613.23" y="-131.78" font-family="Helvetica,sans-Serif" font-size="10.00" fill="#63b8ff">1</text>
</a>
</g>
</g>
<!-- dir_c37118a50d3d05bfb0a2e29cdd206d6d -->
<g id="node19" class="node">
<title>dir_c37118a50d3d05bfb0a2e29cdd206d6d</title>
<g id="a_node19"><a xlink:href="dir_c37118a50d3d05bfb0a2e29cdd206d6d.html" target="_top" xlink:title="transform">
<polygon fill="#9ae899" stroke="#404040" points="302.25,-44 245.75,-44 245.75,-24 302.25,-24 302.25,-44"/>
<text text-anchor="middle" x="274" y="-30.5" font-family="Helvetica,sans-Serif" font-size="10.00">transform</text>
</a>
</g>
</g>
<!-- dir_74828adbf4a031a698399bd68e9baa20&#45;&gt;dir_c37118a50d3d05bfb0a2e29cdd206d6d -->
<g id="edge7" class="edge">
<title>dir_74828adbf4a031a698399bd68e9baa20&#45;&gt;dir_c37118a50d3d05bfb0a2e29cdd206d6d</title>
<g id="a_edge7"><a xlink:href="dir_000061_000124.html" target="_top">
<path fill="none" stroke="#63b8ff" d="M268.73,-79.59C267.42,-73.01 266.98,-63.96 267.41,-55.73"/>
<polygon fill="#63b8ff" stroke="#63b8ff" points="270.89,-56.14 268.58,-45.8 263.94,-55.33 270.89,-56.14"/>
</a>
</g>
<g id="a_edge7&#45;headlabel"><a xlink:href="dir_000061_000124.html" target="_top" xlink:title="1">
<text text-anchor="middle" x="273.47" y="-55.04" font-family="Helvetica,sans-Serif" font-size="10.00" fill="#63b8ff">1</text>
</a>
</g>
</g>
<!-- dir_b679750ec0df18e28fb9eb20fccdf8c3 -->
<g id="node7" class="node">
<title>dir_b679750ec0df18e28fb9eb20fccdf8c3</title>
<text text-anchor="middle" x="522" y="-310.5" font-family="Helvetica,sans-Serif" font-size="10.00">input</text>
</g>
<!-- dir_b679750ec0df18e28fb9eb20fccdf8c3&#45;&gt;dir_76adbe37b29bdc9393d28732983955c3 -->
<g id="edge10" class="edge">
<title>dir_b679750ec0df18e28fb9eb20fccdf8c3&#45;&gt;dir_76adbe37b29bdc9393d28732983955c3</title>
<g id="a_edge10"><a xlink:href="dir_000063_000018.html" target="_top">
<path fill="none" stroke="#63b8ff" d="M535.63,-304.17C539.87,-301.49 544.6,-298.57 549,-296 610.49,-260.13 640.27,-270.94 690,-220 731.79,-177.19 737.06,-158.18 751,-100 753.07,-91.36 754.36,-88.23 751,-80 746.47,-68.89 737.73,-59.02 729.22,-51.39"/>
<polygon fill="#63b8ff" stroke="#63b8ff" points="731.73,-48.92 721.79,-45.24 727.26,-54.31 731.73,-48.92"/>
</a>
</g>
<g id="a_edge10&#45;headlabel"><a xlink:href="dir_000063_000018.html" target="_top" xlink:title="4">
<text text-anchor="middle" x="735.14" y="-44.56" font-family="Helvetica,sans-Serif" font-size="10.00" fill="#63b8ff">4</text>
</a>
</g>
</g>
<!-- dir_b679750ec0df18e28fb9eb20fccdf8c3&#45;&gt;dir_7b9292357d3ee62c02205562d8ebe3d3 -->
<g id="edge11" class="edge">
<title>dir_b679750ec0df18e28fb9eb20fccdf8c3&#45;&gt;dir_7b9292357d3ee62c02205562d8ebe3d3</title>
<g id="a_edge11"><a xlink:href="dir_000063_000058.html" target="_top">
<path fill="none" stroke="#63b8ff" d="M522.83,-304.08C523.45,-297.32 524.34,-287.76 525.13,-279.18"/>
<polygon fill="#63b8ff" stroke="#63b8ff" points="528.61,-279.54 526.05,-269.26 521.64,-278.89 528.61,-279.54"/>
</a>
</g>
<g id="a_edge11&#45;headlabel"><a xlink:href="dir_000063_000058.html" target="_top" xlink:title="1">
<text text-anchor="middle" x="531.25" y="-278.37" font-family="Helvetica,sans-Serif" font-size="10.00" fill="#63b8ff">1</text>
</a>
</g>
</g>
<!-- dir_b679750ec0df18e28fb9eb20fccdf8c3&#45;&gt;dir_74828adbf4a031a698399bd68e9baa20 -->
<g id="edge9" class="edge">
<title>dir_b679750ec0df18e28fb9eb20fccdf8c3&#45;&gt;dir_74828adbf4a031a698399bd68e9baa20</title>
<g id="a_edge9"><a xlink:href="dir_000063_000061.html" target="_top">
<path fill="none" stroke="#63b8ff" d="M503.55,-312.64C438.48,-310.23 220.54,-291.94 163,-156 158.15,-144.54 155.72,-138.1 163,-128 176.97,-108.62 201.54,-99.23 224.01,-94.75"/>
<polygon fill="#63b8ff" stroke="#63b8ff" points="224.39,-98.24 233.67,-93.13 223.23,-91.34 224.39,-98.24"/>
</a>
</g>
<g id="a_edge9&#45;headlabel"><a xlink:href="dir_000063_000061.html" target="_top" xlink:title="1">
<text text-anchor="middle" x="222.81" y="-97.89" font-family="Helvetica,sans-Serif" font-size="10.00" fill="#63b8ff">1</text>
</a>
</g>
</g>
<!-- dir_5b8eec7a5aa2158826baf1f45bdcbbe8 -->
<g id="node8" class="node">
<title>dir_5b8eec7a5aa2158826baf1f45bdcbbe8</title>
<g id="a_node8"><a xlink:href="dir_5b8eec7a5aa2158826baf1f45bdcbbe8.html" target="_top" xlink:title="debugger">
<polygon fill="#71df6f" stroke="#404040" points="613.88,-324 558.12,-324 558.12,-304 613.88,-304 613.88,-324"/>
<text text-anchor="middle" x="586" y="-310.5" font-family="Helvetica,sans-Serif" font-size="10.00">debugger</text>
</a>
</g>
</g>
<!-- dir_5b8eec7a5aa2158826baf1f45bdcbbe8&#45;&gt;dir_76adbe37b29bdc9393d28732983955c3 -->
<g id="edge12" class="edge">
<title>dir_5b8eec7a5aa2158826baf1f45bdcbbe8&#45;&gt;dir_76adbe37b29bdc9393d28732983955c3</title>
<g id="a_edge12"><a xlink:href="dir_000027_000018.html" target="_top">
<path fill="none" stroke="#63b8ff" d="M601.16,-303.62C606.34,-300.78 612.27,-297.91 618,-296 672.63,-277.8 706.15,-317.56 746,-276 776.3,-244.4 785.42,-119.24 766,-80 759.35,-66.56 746.55,-56.04 734.56,-48.56"/>
<polygon fill="#63b8ff" stroke="#63b8ff" points="736.57,-45.68 726.16,-43.75 733.1,-51.75 736.57,-45.68"/>
</a>
</g>
<g id="a_edge12&#45;headlabel"><a xlink:href="dir_000027_000018.html" target="_top" xlink:title="1">
<text text-anchor="middle" x="739.79" y="-40.75" font-family="Helvetica,sans-Serif" font-size="10.00" fill="#63b8ff">1</text>
</a>
</g>
</g>
<!-- dir_557e67dc5bb3503e1e35577635fc0e3c -->
<g id="node9" class="node">
<title>dir_557e67dc5bb3503e1e35577635fc0e3c</title>
<g id="a_node9"><a xlink:href="dir_557e67dc5bb3503e1e35577635fc0e3c.html" target="_top" xlink:title="physics">
<polygon fill="#9ae899" stroke="#404040" points="221.88,-156 172.12,-156 172.12,-136 221.88,-136 221.88,-156"/>
<text text-anchor="middle" x="197" y="-142.5" font-family="Helvetica,sans-Serif" font-size="10.00">physics</text>
</a>
</g>
</g>
<!-- dir_557e67dc5bb3503e1e35577635fc0e3c&#45;&gt;dir_76adbe37b29bdc9393d28732983955c3 -->
<g id="edge14" class="edge">
<title>dir_557e67dc5bb3503e1e35577635fc0e3c&#45;&gt;dir_76adbe37b29bdc9393d28732983955c3</title>
<g id="a_edge14"><a xlink:href="dir_000089_000018.html" target="_top">
<path fill="none" stroke="#63b8ff" d="M222.24,-135.91C230.4,-133.16 239.52,-130.27 248,-128 351.41,-100.36 378.86,-100.06 484,-80 569.9,-63.61 596.47,-69.58 678.4,-46.12"/>
<polygon fill="#63b8ff" stroke="#63b8ff" points="679.17,-49.54 687.78,-43.37 677.2,-42.83 679.17,-49.54"/>
</a>
</g>
<g id="a_edge14&#45;headlabel"><a xlink:href="dir_000089_000018.html" target="_top" xlink:title="6">
<text text-anchor="middle" x="677.97" y="-49.35" font-family="Helvetica,sans-Serif" font-size="10.00" fill="#63b8ff">6</text>
</a>
</g>
</g>
<!-- dir_557e67dc5bb3503e1e35577635fc0e3c&#45;&gt;dir_74828adbf4a031a698399bd68e9baa20 -->
<g id="edge13" class="edge">
<title>dir_557e67dc5bb3503e1e35577635fc0e3c&#45;&gt;dir_74828adbf4a031a698399bd68e9baa20</title>
<g id="a_edge13"><a xlink:href="dir_000089_000061.html" target="_top">
<path fill="none" stroke="#63b8ff" d="M210.41,-135.59C221.61,-127.74 237.81,-116.38 251.06,-107.09"/>
<polygon fill="#63b8ff" stroke="#63b8ff" points="253.07,-109.96 259.24,-101.35 249.05,-104.22 253.07,-109.96"/>
</a>
</g>
<g id="a_edge13&#45;headlabel"><a xlink:href="dir_000089_000061.html" target="_top" xlink:title="2">
<text text-anchor="middle" x="252.99" y="-109.98" font-family="Helvetica,sans-Serif" font-size="10.00" fill="#63b8ff">2</text>
</a>
</g>
</g>
<!-- dir_557e67dc5bb3503e1e35577635fc0e3c&#45;&gt;dir_c37118a50d3d05bfb0a2e29cdd206d6d -->
<g id="edge15" class="edge">
<title>dir_557e67dc5bb3503e1e35577635fc0e3c&#45;&gt;dir_c37118a50d3d05bfb0a2e29cdd206d6d</title>
<g id="a_edge15"><a xlink:href="dir_000089_000124.html" target="_top">
<path fill="none" stroke="#63b8ff" d="M200.08,-135.59C204.67,-122.4 214.15,-98.01 227,-80 234.4,-69.63 244.41,-59.66 253.28,-51.75"/>
<polygon fill="#63b8ff" stroke="#63b8ff" points="255.49,-54.47 260.82,-45.31 250.94,-49.15 255.49,-54.47"/>
</a>
</g>
<g id="a_edge15&#45;headlabel"><a xlink:href="dir_000089_000124.html" target="_top" xlink:title="2">
<text text-anchor="middle" x="255.75" y="-54.48" font-family="Helvetica,sans-Serif" font-size="10.00" fill="#63b8ff">2</text>
</a>
</g>
</g>
<!-- dir_194b1baa33eb59e7347ebb3131e49ac9&#45;&gt;dir_76adbe37b29bdc9393d28732983955c3 -->
<g id="edge18" class="edge">
<title>dir_194b1baa33eb59e7347ebb3131e49ac9&#45;&gt;dir_76adbe37b29bdc9393d28732983955c3</title>
<g id="a_edge18"><a xlink:href="dir_000095_000018.html" target="_top">
<path fill="none" stroke="#63b8ff" d="M486.48,-193.17C488.01,-192.76 489.52,-192.37 491,-192 571.89,-172 622.04,-220.33 675,-156 696.62,-129.74 653.72,-111.72 666,-80 670.1,-69.4 677.99,-59.77 685.77,-52.16"/>
<polygon fill="#63b8ff" stroke="#63b8ff" points="688.07,-54.79 693.16,-45.49 683.39,-49.59 688.07,-54.79"/>
</a>
</g>
<g id="a_edge18&#45;headlabel"><a xlink:href="dir_000095_000018.html" target="_top" xlink:title="22">
<text text-anchor="middle" x="688.43" y="-54.79" font-family="Helvetica,sans-Serif" font-size="10.00" fill="#63b8ff">22</text>
</a>
</g>
</g>
<!-- dir_f3fb235e94a645bc730f99557d2b8d3f -->
<g id="node11" class="node">
<title>dir_f3fb235e94a645bc730f99557d2b8d3f</title>
<g id="a_node11"><a xlink:href="dir_f3fb235e94a645bc730f99557d2b8d3f.html" target="_top" xlink:title="camera">
<polygon fill="#71df6f" stroke="#404040" points="423.12,-156 374.88,-156 374.88,-136 423.12,-136 423.12,-156"/>
<text text-anchor="middle" x="399" y="-142.5" font-family="Helvetica,sans-Serif" font-size="10.00">camera</text>
</a>
</g>
</g>
<!-- dir_194b1baa33eb59e7347ebb3131e49ac9&#45;&gt;dir_f3fb235e94a645bc730f99557d2b8d3f -->
<g id="edge23" class="edge">
<title>dir_194b1baa33eb59e7347ebb3131e49ac9&#45;&gt;dir_f3fb235e94a645bc730f99557d2b8d3f</title>
<g id="a_edge23"><a xlink:href="dir_000095_000008.html" target="_top">
<path fill="none" stroke="#63b8ff" d="M450.76,-192.08C441.95,-184.41 428.99,-173.12 418.25,-163.76"/>
<polygon fill="#63b8ff" stroke="#63b8ff" points="420.86,-161.4 411.02,-157.47 416.26,-166.68 420.86,-161.4"/>
</a>
</g>
<g id="a_edge23&#45;headlabel"><a xlink:href="dir_000095_000008.html" target="_top" xlink:title="1">
<text text-anchor="middle" x="424.29" y="-157.12" font-family="Helvetica,sans-Serif" font-size="10.00" fill="#63b8ff">1</text>
</a>
</g>
</g>
<!-- dir_ebc09d325f204bf54eea8ed258b8c967 -->
<g id="node12" class="node">
<title>dir_ebc09d325f204bf54eea8ed258b8c967</title>
<g id="a_node12"><a xlink:href="dir_ebc09d325f204bf54eea8ed258b8c967.html" target="_top" xlink:title="fog">
<polygon fill="#71df6f" stroke="#404040" points="288.4,-156 259.6,-156 259.6,-136 288.4,-136 288.4,-156"/>
<text text-anchor="middle" x="274" y="-142.5" font-family="Helvetica,sans-Serif" font-size="10.00">fog</text>
</a>
</g>
</g>
<!-- dir_194b1baa33eb59e7347ebb3131e49ac9&#45;&gt;dir_ebc09d325f204bf54eea8ed258b8c967 -->
<g id="edge22" class="edge">
<title>dir_194b1baa33eb59e7347ebb3131e49ac9&#45;&gt;dir_ebc09d325f204bf54eea8ed258b8c967</title>
<g id="a_edge22"><a xlink:href="dir_000095_000049.html" target="_top">
<path fill="none" stroke="#63b8ff" d="M435.48,-193.29C433.97,-192.85 432.46,-192.42 431,-192 375.33,-176.12 358.15,-174.87 299.29,-156.17"/>
<polygon fill="#63b8ff" stroke="#63b8ff" points="300.68,-152.94 290.09,-153.21 298.53,-159.6 300.68,-152.94"/>
</a>
</g>
<g id="a_edge22&#45;headlabel"><a xlink:href="dir_000095_000049.html" target="_top" xlink:title="1">
<text text-anchor="middle" x="303.53" y="-147.37" font-family="Helvetica,sans-Serif" font-size="10.00" fill="#63b8ff">1</text>
</a>
</g>
</g>
<!-- dir_e5b59e436415d7c51ec58ad46cddd50e -->
<g id="node13" class="node">
<title>dir_e5b59e436415d7c51ec58ad46cddd50e</title>
<g id="a_node13"><a xlink:href="dir_e5b59e436415d7c51ec58ad46cddd50e.html" target="_top" xlink:title="lighting">
<polygon fill="#71df6f" stroke="#404040" points="488.38,-156 441.62,-156 441.62,-136 488.38,-136 488.38,-156"/>
<text text-anchor="middle" x="465" y="-142.5" font-family="Helvetica,sans-Serif" font-size="10.00">lighting</text>
</a>
</g>
</g>
<!-- dir_194b1baa33eb59e7347ebb3131e49ac9&#45;&gt;dir_e5b59e436415d7c51ec58ad46cddd50e -->
<g id="edge21" class="edge">
<title>dir_194b1baa33eb59e7347ebb3131e49ac9&#45;&gt;dir_e5b59e436415d7c51ec58ad46cddd50e</title>
<g id="a_edge21"><a xlink:href="dir_000095_000065.html" target="_top">
<path fill="none" stroke="#63b8ff" d="M461.66,-192.08C462.15,-185.48 462.84,-176.21 463.46,-167.79"/>
<polygon fill="#63b8ff" stroke="#63b8ff" points="466.94,-168.22 464.19,-157.99 459.96,-167.7 466.94,-168.22"/>
</a>
</g>
<g id="a_edge21&#45;headlabel"><a xlink:href="dir_000095_000065.html" target="_top" xlink:title="3">
<text text-anchor="middle" x="469.62" y="-167" font-family="Helvetica,sans-Serif" font-size="10.00" fill="#63b8ff">3</text>
</a>
</g>
</g>
<!-- dir_d63b22873b9a51d795edaf563cb91380 -->
<g id="node14" class="node">
<title>dir_d63b22873b9a51d795edaf563cb91380</title>
<g id="a_node14"><a xlink:href="dir_d63b22873b9a51d795edaf563cb91380.html" target="_top" xlink:title="material">
<polygon fill="#71df6f" stroke="#404040" points="357.25,-156 306.75,-156 306.75,-136 357.25,-136 357.25,-156"/>
<text text-anchor="middle" x="332" y="-142.5" font-family="Helvetica,sans-Serif" font-size="10.00">material</text>
</a>
</g>
</g>
<!-- dir_194b1baa33eb59e7347ebb3131e49ac9&#45;&gt;dir_d63b22873b9a51d795edaf563cb91380 -->
<g id="edge20" class="edge">
<title>dir_194b1baa33eb59e7347ebb3131e49ac9&#45;&gt;dir_d63b22873b9a51d795edaf563cb91380</title>
<g id="a_edge20"><a xlink:href="dir_000095_000074.html" target="_top">
<path fill="none" stroke="#63b8ff" d="M439.7,-192.08C419.44,-183.6 388.64,-170.71 365.17,-160.88"/>
<polygon fill="#63b8ff" stroke="#63b8ff" points="366.61,-157.69 356.03,-157.06 363.91,-164.15 366.61,-157.69"/>
</a>
</g>
<g id="a_edge20&#45;headlabel"><a xlink:href="dir_000095_000074.html" target="_top" xlink:title="1">
<text text-anchor="middle" x="369.62" y="-152.38" font-family="Helvetica,sans-Serif" font-size="10.00" fill="#63b8ff">1</text>
</a>
</g>
</g>
<!-- dir_434ad2217883d3cdecdbb765fc9e3889 -->
<g id="node15" class="node">
<title>dir_434ad2217883d3cdecdbb765fc9e3889</title>
<g id="a_node15"><a xlink:href="dir_434ad2217883d3cdecdbb765fc9e3889.html" target="_top" xlink:title="math">
<polygon fill="#71df6f" stroke="#404040" points="601.88,-156 564.12,-156 564.12,-136 601.88,-136 601.88,-156"/>
<text text-anchor="middle" x="583" y="-142.5" font-family="Helvetica,sans-Serif" font-size="10.00">math</text>
</a>
</g>
</g>
<!-- dir_194b1baa33eb59e7347ebb3131e49ac9&#45;&gt;dir_434ad2217883d3cdecdbb765fc9e3889 -->
<g id="edge17" class="edge">
<title>dir_194b1baa33eb59e7347ebb3131e49ac9&#45;&gt;dir_434ad2217883d3cdecdbb765fc9e3889</title>
<g id="a_edge17"><a xlink:href="dir_000095_000078.html" target="_top">
<path fill="none" stroke="#63b8ff" d="M481.15,-192.08C500.8,-183.38 530.94,-170.04 553.34,-160.13"/>
<polygon fill="#63b8ff" stroke="#63b8ff" points="554.52,-163.43 562.25,-156.19 551.69,-157.03 554.52,-163.43"/>
</a>
</g>
<g id="a_edge17&#45;headlabel"><a xlink:href="dir_000095_000078.html" target="_top" xlink:title="1">
<text text-anchor="middle" x="553.77" y="-163.37" font-family="Helvetica,sans-Serif" font-size="10.00" fill="#63b8ff">1</text>
</a>
</g>
</g>
<!-- dir_0a95963214daf9c4fda7f4b02810ce3d -->
<g id="node16" class="node">
<title>dir_0a95963214daf9c4fda7f4b02810ce3d</title>
<g id="a_node16"><a xlink:href="dir_0a95963214daf9c4fda7f4b02810ce3d.html" target="_top" xlink:title="mesh">
<polygon fill="#71df6f" stroke="#404040" points="546,-156 506,-156 506,-136 546,-136 546,-156"/>
<text text-anchor="middle" x="526" y="-142.5" font-family="Helvetica,sans-Serif" font-size="10.00">mesh</text>
</a>
</g>
</g>
<!-- dir_194b1baa33eb59e7347ebb3131e49ac9&#45;&gt;dir_0a95963214daf9c4fda7f4b02810ce3d -->
<g id="edge16" class="edge">
<title>dir_194b1baa33eb59e7347ebb3131e49ac9&#45;&gt;dir_0a95963214daf9c4fda7f4b02810ce3d</title>
<g id="a_edge16"><a xlink:href="dir_000095_000082.html" target="_top">
<path fill="none" stroke="#63b8ff" d="M471.73,-192.08C480.97,-184.41 494.56,-173.12 505.82,-163.76"/>
<polygon fill="#63b8ff" stroke="#63b8ff" points="507.97,-166.53 513.43,-157.44 503.5,-161.14 507.97,-166.53"/>
</a>
</g>
<g id="a_edge16&#45;headlabel"><a xlink:href="dir_000095_000082.html" target="_top" xlink:title="1">
<text text-anchor="middle" x="508.19" y="-166.54" font-family="Helvetica,sans-Serif" font-size="10.00" fill="#63b8ff">1</text>
</a>
</g>
</g>
<!-- dir_194b1baa33eb59e7347ebb3131e49ac9&#45;&gt;dir_fd9befe56d547fc54c3585344638d845 -->
<g id="edge24" class="edge">
<title>dir_194b1baa33eb59e7347ebb3131e49ac9&#45;&gt;dir_fd9befe56d547fc54c3585344638d845</title>
<g id="a_edge24"><a xlink:href="dir_000095_000119.html" target="_top">
<path fill="none" stroke="#63b8ff" d="M486.31,-193.49C518.21,-184.03 573.18,-167.71 608.81,-157.15"/>
<polygon fill="#63b8ff" stroke="#63b8ff" points="609.59,-160.56 618.19,-154.36 607.6,-153.85 609.59,-160.56"/>
</a>
</g>
<g id="a_edge24&#45;headlabel"><a xlink:href="dir_000095_000119.html" target="_top" xlink:title="1">
<text text-anchor="middle" x="608.41" y="-160.38" font-family="Helvetica,sans-Serif" font-size="10.00" fill="#63b8ff">1</text>
</a>
</g>
</g>
<!-- dir_194b1baa33eb59e7347ebb3131e49ac9&#45;&gt;dir_c37118a50d3d05bfb0a2e29cdd206d6d -->
<g id="edge19" class="edge">
<title>dir_194b1baa33eb59e7347ebb3131e49ac9&#45;&gt;dir_c37118a50d3d05bfb0a2e29cdd206d6d</title>
<g id="a_edge19"><a xlink:href="dir_000095_000124.html" target="_top">
<path fill="none" stroke="#63b8ff" d="M435.62,-200.22C348.66,-197.29 66.56,-185.56 40,-156 17.42,-130.88 18.49,-106.04 40,-80 64.14,-50.77 173.66,-40.33 233.93,-36.75"/>
<polygon fill="#63b8ff" stroke="#63b8ff" points="233.98,-40.26 243.77,-36.21 233.6,-33.27 233.98,-40.26"/>
</a>
</g>
<g id="a_edge19&#45;headlabel"><a xlink:href="dir_000095_000124.html" target="_top" xlink:title="1">
<text text-anchor="middle" x="232.06" y="-39.71" font-family="Helvetica,sans-Serif" font-size="10.00" fill="#63b8ff">1</text>
</a>
</g>
</g>
<!-- dir_f3fb235e94a645bc730f99557d2b8d3f&#45;&gt;dir_76adbe37b29bdc9393d28732983955c3 -->
<g id="edge26" class="edge">
<title>dir_f3fb235e94a645bc730f99557d2b8d3f&#45;&gt;dir_76adbe37b29bdc9393d28732983955c3</title>
<g id="a_edge26"><a xlink:href="dir_000008_000018.html" target="_top">
<path fill="none" stroke="#63b8ff" d="M417.67,-135.57C422.64,-133.08 428.01,-130.42 433,-128 478.08,-106.13 487.72,-96.56 535,-80 596.55,-58.44 618.14,-64.83 678.35,-46.34"/>
<polygon fill="#63b8ff" stroke="#63b8ff" points="679.31,-49.71 687.77,-43.33 677.18,-43.04 679.31,-49.71"/>
</a>
</g>
<g id="a_edge26&#45;headlabel"><a xlink:href="dir_000008_000018.html" target="_top" xlink:title="1">
<text text-anchor="middle" x="678.19" y="-49.55" font-family="Helvetica,sans-Serif" font-size="10.00" fill="#63b8ff">1</text>
</a>
</g>
</g>
<!-- dir_f3fb235e94a645bc730f99557d2b8d3f&#45;&gt;dir_74828adbf4a031a698399bd68e9baa20 -->
<g id="edge25" class="edge">
<title>dir_f3fb235e94a645bc730f99557d2b8d3f&#45;&gt;dir_74828adbf4a031a698399bd68e9baa20</title>
<g id="a_edge25"><a xlink:href="dir_000008_000061.html" target="_top">
<path fill="none" stroke="#63b8ff" d="M381.34,-135.52C376.42,-132.98 371.04,-130.31 366,-128 347.76,-119.66 327.08,-111.25 309.94,-104.56"/>
<polygon fill="#63b8ff" stroke="#63b8ff" points="311.26,-101.31 300.67,-100.97 308.74,-107.84 311.26,-101.31"/>
</a>
</g>
<g id="a_edge25&#45;headlabel"><a xlink:href="dir_000008_000061.html" target="_top" xlink:title="1">
<text text-anchor="middle" x="314.22" y="-95.92" font-family="Helvetica,sans-Serif" font-size="10.00" fill="#63b8ff">1</text>
</a>
</g>
</g>
<!-- dir_ebc09d325f204bf54eea8ed258b8c967&#45;&gt;dir_74828adbf4a031a698399bd68e9baa20 -->
<g id="edge27" class="edge">
<title>dir_ebc09d325f204bf54eea8ed258b8c967&#45;&gt;dir_74828adbf4a031a698399bd68e9baa20</title>
<g id="a_edge27"><a xlink:href="dir_000049_000061.html" target="_top">
<path fill="none" stroke="#63b8ff" d="M274,-135.59C274,-129.01 274,-119.96 274,-111.73"/>
<polygon fill="#63b8ff" stroke="#63b8ff" points="277.5,-111.81 274,-101.81 270.5,-111.81 277.5,-111.81"/>
</a>
</g>
<g id="a_edge27&#45;headlabel"><a xlink:href="dir_000049_000061.html" target="_top" xlink:title="1">
<text text-anchor="middle" x="280.34" y="-110.39" font-family="Helvetica,sans-Serif" font-size="10.00" fill="#63b8ff">1</text>
</a>
</g>
</g>
<!-- dir_e5b59e436415d7c51ec58ad46cddd50e&#45;&gt;dir_76adbe37b29bdc9393d28732983955c3 -->
<g id="edge29" class="edge">
<title>dir_e5b59e436415d7c51ec58ad46cddd50e&#45;&gt;dir_76adbe37b29bdc9393d28732983955c3</title>
<g id="a_edge29"><a xlink:href="dir_000065_000018.html" target="_top">
<path fill="none" stroke="#63b8ff" d="M479.14,-135.63C500.07,-122.04 540.83,-96.68 578,-80 620.73,-60.82 636.37,-61.71 678.5,-46.7"/>
<polygon fill="#63b8ff" stroke="#63b8ff" points="679.58,-50.03 687.75,-43.29 677.16,-43.46 679.58,-50.03"/>
</a>
</g>
<g id="a_edge29&#45;headlabel"><a xlink:href="dir_000065_000018.html" target="_top" xlink:title="1">
<text text-anchor="middle" x="678.61" y="-49.91" font-family="Helvetica,sans-Serif" font-size="10.00" fill="#63b8ff">1</text>
</a>
</g>
</g>
<!-- dir_e5b59e436415d7c51ec58ad46cddd50e&#45;&gt;dir_74828adbf4a031a698399bd68e9baa20 -->
<g id="edge28" class="edge">
<title>dir_e5b59e436415d7c51ec58ad46cddd50e&#45;&gt;dir_74828adbf4a031a698399bd68e9baa20</title>
<g id="a_edge28"><a xlink:href="dir_000065_000061.html" target="_top">
<path fill="none" stroke="#63b8ff" d="M448.57,-135.53C443.39,-132.82 437.56,-130.05 432,-128 396.8,-115.04 355.47,-105.55 323.92,-99.43"/>
<polygon fill="#63b8ff" stroke="#63b8ff" points="324.72,-96.02 314.25,-97.61 323.43,-102.9 324.72,-96.02"/>
</a>
</g>
<g id="a_edge28&#45;headlabel"><a xlink:href="dir_000065_000061.html" target="_top" xlink:title="3">
<text text-anchor="middle" x="327.3" y="-90.11" font-family="Helvetica,sans-Serif" font-size="10.00" fill="#63b8ff">3</text>
</a>
</g>
</g>
<!-- dir_d63b22873b9a51d795edaf563cb91380&#45;&gt;dir_74828adbf4a031a698399bd68e9baa20 -->
<g id="edge30" class="edge">
<title>dir_d63b22873b9a51d795edaf563cb91380&#45;&gt;dir_74828adbf4a031a698399bd68e9baa20</title>
<g id="a_edge30"><a xlink:href="dir_000074_000061.html" target="_top">
<path fill="none" stroke="#63b8ff" d="M321.9,-135.59C313.75,-128.01 302.07,-117.13 292.28,-108.02"/>
<polygon fill="#63b8ff" stroke="#63b8ff" points="294.8,-105.58 285.09,-101.33 290.03,-110.71 294.8,-105.58"/>
</a>
</g>
<g id="a_edge30&#45;headlabel"><a xlink:href="dir_000074_000061.html" target="_top" xlink:title="1">
<text text-anchor="middle" x="298.26" y="-101.42" font-family="Helvetica,sans-Serif" font-size="10.00" fill="#63b8ff">1</text>
</a>
</g>
</g>
<!-- dir_434ad2217883d3cdecdbb765fc9e3889&#45;&gt;dir_76adbe37b29bdc9393d28732983955c3 -->
<g id="edge31" class="edge">
<title>dir_434ad2217883d3cdecdbb765fc9e3889&#45;&gt;dir_76adbe37b29bdc9393d28732983955c3</title>
<g id="a_edge31"><a xlink:href="dir_000078_000018.html" target="_top">
<path fill="none" stroke="#63b8ff" d="M589.06,-135.81C598.16,-122.46 616.4,-97.4 636,-80 649.13,-68.34 665.61,-57.7 679.38,-49.7"/>
<polygon fill="#63b8ff" stroke="#63b8ff" points="680.97,-52.82 687.97,-44.86 677.53,-46.72 680.97,-52.82"/>
</a>
</g>
<g id="a_edge31&#45;headlabel"><a xlink:href="dir_000078_000018.html" target="_top" xlink:title="2">
<text text-anchor="middle" x="680.55" y="-52.82" font-family="Helvetica,sans-Serif" font-size="10.00" fill="#63b8ff">2</text>
</a>
</g>
</g>
<!-- dir_0a95963214daf9c4fda7f4b02810ce3d&#45;&gt;dir_76adbe37b29bdc9393d28732983955c3 -->
<g id="edge32" class="edge">
<title>dir_0a95963214daf9c4fda7f4b02810ce3d&#45;&gt;dir_76adbe37b29bdc9393d28732983955c3</title>
<g id="a_edge32"><a xlink:href="dir_000082_000018.html" target="_top">
<path fill="none" stroke="#63b8ff" d="M536.88,-135.61C552.72,-122.22 583.35,-97.36 612,-80 623.92,-72.77 655.46,-58.14 678.95,-47.52"/>
<polygon fill="#63b8ff" stroke="#63b8ff" points="680.33,-50.74 688.01,-43.44 677.45,-44.35 680.33,-50.74"/>
</a>
</g>
<g id="a_edge32&#45;headlabel"><a xlink:href="dir_000082_000018.html" target="_top" xlink:title="8">
<text text-anchor="middle" x="679.59" y="-50.68" font-family="Helvetica,sans-Serif" font-size="10.00" fill="#63b8ff">8</text>
</a>
</g>
</g>
<!-- dir_fd9befe56d547fc54c3585344638d845&#45;&gt;dir_740482fb8520b219a728e59770c6fb7f -->
<g id="edge33" class="edge">
<title>dir_fd9befe56d547fc54c3585344638d845&#45;&gt;dir_740482fb8520b219a728e59770c6fb7f</title>
<g id="a_edge33"><a xlink:href="dir_000119_000097.html" target="_top">
<path fill="none" stroke="#63b8ff" d="M655.72,-135.59C666.39,-127.7 681.88,-116.24 694.48,-106.92"/>
<polygon fill="#63b8ff" stroke="#63b8ff" points="696.26,-109.96 702.21,-101.2 692.09,-104.33 696.26,-109.96"/>
</a>
</g>
<g id="a_edge33&#45;headlabel"><a xlink:href="dir_000119_000097.html" target="_top" xlink:title="3">
<text text-anchor="middle" x="696.27" y="-109.98" font-family="Helvetica,sans-Serif" font-size="10.00" fill="#63b8ff">3</text>
</a>
</g>
</g>
<!-- dir_fd9befe56d547fc54c3585344638d845&#45;&gt;dir_76adbe37b29bdc9393d28732983955c3 -->
<g id="edge34" class="edge">
<title>dir_fd9befe56d547fc54c3585344638d845&#45;&gt;dir_76adbe37b29bdc9393d28732983955c3</title>
<g id="a_edge34"><a xlink:href="dir_000119_000018.html" target="_top">
<path fill="none" stroke="#63b8ff" d="M641.03,-135.51C638.78,-122.23 636.52,-97.74 646,-80 653.32,-66.31 666.84,-55.68 679.3,-48.2"/>
<polygon fill="#63b8ff" stroke="#63b8ff" points="680.96,-51.28 688.03,-43.39 677.59,-45.15 680.96,-51.28"/>
</a>
</g>
<g id="a_edge34&#45;headlabel"><a xlink:href="dir_000119_000018.html" target="_top" xlink:title="3">
<text text-anchor="middle" x="680.51" y="-51.27" font-family="Helvetica,sans-Serif" font-size="10.00" fill="#63b8ff">3</text>
</a>
</g>
</g>
<!-- dir_eb92419bcb1cd01a14036892b6f07e3a -->
<g id="node18" class="node">
<title>dir_eb92419bcb1cd01a14036892b6f07e3a</title>
<g id="a_node18"><a xlink:href="dir_eb92419bcb1cd01a14036892b6f07e3a.html" target="_top" xlink:title="sound">
<polygon fill="#9ae899" stroke="#404040" points="674.12,-324 631.88,-324 631.88,-304 674.12,-304 674.12,-324"/>
<text text-anchor="middle" x="653" y="-310.5" font-family="Helvetica,sans-Serif" font-size="10.00">sound</text>
</a>
</g>
</g>
<!-- dir_eb92419bcb1cd01a14036892b6f07e3a&#45;&gt;dir_740482fb8520b219a728e59770c6fb7f -->
<g id="edge35" class="edge">
<title>dir_eb92419bcb1cd01a14036892b6f07e3a&#45;&gt;dir_740482fb8520b219a728e59770c6fb7f</title>
<g id="a_edge35"><a xlink:href="dir_000104_000097.html" target="_top">
<path fill="none" stroke="#63b8ff" d="M674.61,-311.18C696.74,-308.03 730.1,-299.44 746,-276 781.09,-224.27 746.62,-145.99 727.23,-110.14"/>
<polygon fill="#63b8ff" stroke="#63b8ff" points="730.48,-108.78 722.53,-101.78 724.37,-112.21 730.48,-108.78"/>
</a>
</g>
<g id="a_edge35&#45;headlabel"><a xlink:href="dir_000104_000097.html" target="_top" xlink:title="1">
<text text-anchor="middle" x="733.97" y="-105.71" font-family="Helvetica,sans-Serif" font-size="10.00" fill="#63b8ff">1</text>
</a>
</g>
</g>
<!-- dir_eb92419bcb1cd01a14036892b6f07e3a&#45;&gt;dir_76adbe37b29bdc9393d28732983955c3 -->
<g id="edge36" class="edge">
<title>dir_eb92419bcb1cd01a14036892b6f07e3a&#45;&gt;dir_76adbe37b29bdc9393d28732983955c3</title>
<g id="a_edge36"><a xlink:href="dir_000104_000018.html" target="_top">
<path fill="none" stroke="#63b8ff" d="M674.21,-309.8C696.83,-305.48 732.66,-295.89 757,-276 786.33,-252.03 801,-240.88 801,-203 801,-203 801,-203 801,-145 801,-115.35 803.7,-103.78 786,-80 773.4,-63.07 752.41,-51.55 735.23,-44.41"/>
<polygon fill="#63b8ff" stroke="#63b8ff" points="736.62,-41.19 726.03,-40.87 734.11,-47.73 736.62,-41.19"/>
</a>
</g>
<g id="a_edge36&#45;headlabel"><a xlink:href="dir_000104_000018.html" target="_top" xlink:title="1">
<text text-anchor="middle" x="739.58" y="-35.79" font-family="Helvetica,sans-Serif" font-size="10.00" fill="#63b8ff">1</text>
</a>
</g>
</g>
<!-- dir_c37118a50d3d05bfb0a2e29cdd206d6d&#45;&gt;dir_76adbe37b29bdc9393d28732983955c3 -->
<g id="edge40" class="edge">
<title>dir_c37118a50d3d05bfb0a2e29cdd206d6d&#45;&gt;dir_76adbe37b29bdc9393d28732983955c3</title>
<g id="a_edge40"><a xlink:href="dir_000124_000018.html" target="_top">
<path fill="none" stroke="#63b8ff" d="M302.33,-34C427.51,-34 552.7,-34 677.88,-34"/>
<polygon fill="#63b8ff" stroke="#63b8ff" points="677.7,-37.5 687.7,-34 677.7,-30.5 677.7,-37.5"/>
</a>
</g>
<g id="a_edge40&#45;headlabel"><a xlink:href="dir_000124_000018.html" target="_top" xlink:title="2">
<text text-anchor="middle" x="675.62" y="-36.84" font-family="Helvetica,sans-Serif" font-size="10.00" fill="#63b8ff">2</text>
</a>
</g>
</g>
<!-- dir_c37118a50d3d05bfb0a2e29cdd206d6d&#45;&gt;dir_74828adbf4a031a698399bd68e9baa20 -->
<g id="edge39" class="edge">
<title>dir_c37118a50d3d05bfb0a2e29cdd206d6d&#45;&gt;dir_74828adbf4a031a698399bd68e9baa20</title>
<g id="a_edge39"><a xlink:href="dir_000124_000061.html" target="_top">
<path fill="none" stroke="#63b8ff" d="M279.25,-44.3C280.59,-50.93 281.03,-60.11 280.58,-68.43"/>
<polygon fill="#63b8ff" stroke="#63b8ff" points="277.13,-67.75 279.44,-78.09 284.08,-68.57 277.13,-67.75"/>
</a>
</g>
<g id="a_edge39&#45;headlabel"><a xlink:href="dir_000124_000061.html" target="_top" xlink:title="1">
<text text-anchor="middle" x="274.55" y="-61.85" font-family="Helvetica,sans-Serif" font-size="10.00" fill="#63b8ff">1</text>
</a>
</g>
</g>
<!-- dir_c37118a50d3d05bfb0a2e29cdd206d6d&#45;&gt;dir_194b1baa33eb59e7347ebb3131e49ac9 -->
<g id="edge38" class="edge">
<title>dir_c37118a50d3d05bfb0a2e29cdd206d6d&#45;&gt;dir_194b1baa33eb59e7347ebb3131e49ac9</title>
<g id="a_edge38"><a xlink:href="dir_000124_000095.html" target="_top">
<path fill="none" stroke="#63b8ff" d="M245.37,-39.41C173.49,-51.61 -4.69,-89.33 55,-156 79.44,-183.3 329,-195.85 424.29,-199.67"/>
<polygon fill="#63b8ff" stroke="#63b8ff" points="424,-203.16 434.13,-200.06 424.28,-196.17 424,-203.16"/>
</a>
</g>
<g id="a_edge38&#45;headlabel"><a xlink:href="dir_000124_000095.html" target="_top" xlink:title="2">
<text text-anchor="middle" x="421.81" y="-202.42" font-family="Helvetica,sans-Serif" font-size="10.00" fill="#63b8ff">2</text>
</a>
</g>
</g>
<!-- dir_c37118a50d3d05bfb0a2e29cdd206d6d&#45;&gt;dir_0a95963214daf9c4fda7f4b02810ce3d -->
<g id="edge37" class="edge">
<title>dir_c37118a50d3d05bfb0a2e29cdd206d6d&#45;&gt;dir_0a95963214daf9c4fda7f4b02810ce3d</title>
<g id="a_edge37"><a xlink:href="dir_000124_000082.html" target="_top">
<path fill="none" stroke="#63b8ff" d="M286.35,-44.39C305.44,-58.46 343.7,-84.97 380,-100 429.4,-120.45 447.4,-108.04 497,-128 498.75,-128.7 500.52,-129.5 502.28,-130.36"/>
<polygon fill="#63b8ff" stroke="#63b8ff" points="500.19,-133.21 510.64,-134.93 503.55,-127.06 500.19,-133.21"/>
</a>
</g>
<g id="a_edge37&#45;headlabel"><a xlink:href="dir_000124_000082.html" target="_top" xlink:title="1">
<text text-anchor="middle" x="497" y="-131.2" font-family="Helvetica,sans-Serif" font-size="10.00" fill="#63b8ff">1</text>
</a>
</g>
</g>
</g>
</svg>
