<?xml version="1.0" encoding="UTF-8" standalone="no"?>
<!DOCTYPE svg PUBLIC "-//W3C//DTD SVG 1.1//EN"
 "http://www.w3.org/Graphics/SVG/1.1/DTD/svg11.dtd">
<!-- Generated by graphviz version 11.0.0 (20240428.1522)
 -->
<!-- Title: engine Pages: 1 -->
<!--zoomable 164 -->

<svg id="main" version="1.1" xmlns="http://www.w3.org/2000/svg" xmlns:xlink="http://www.w3.org/1999/xlink" xml:space="preserve" onload="init(evt)">
<style type="text/css"><![CDATA[
.node, .edge {opacity: 0.7;}
.node.selected, .edge.selected {opacity: 1;}
.edge:hover path { stroke: red; }
.edge:hover polygon { stroke: red; fill: red; }
]]></style>

<defs>
  <circle id="rim" cx="0" cy="0" r="7"/>
  <circle id="rim2" cx="0" cy="0" r="3.5"/>
  <g id="zoomPlus">
    <use xlink:href="#rim" fill="#404040"><set attributeName="fill" to="#808080" begin="zoomplus.mouseover" end="zoomplus.mouseout"/></use>
    <path d="M-4,0h8M0,-4v8" fill="none" stroke="white" stroke-width="1.5" pointer-events="none"/>
  </g>
  <g id="zoomMin">
    <use xlink:href="#rim" fill="#404040"><set attributeName="fill" to="#808080" begin="zoomminus.mouseover" end="zoomminus.mouseout"/></use>
    <path d="M-4,0h8" fill="none" stroke="white" stroke-width="1.5" pointer-events="none"/>
  </g>
  <g id="arrowUp" transform="translate(30 24)">
    <use xlink:href="#rim"/>
    <path pointer-events="none" fill="none" stroke="white" stroke-width="1.5" d="M0,-3.0v7 M-2.5,-0.5L0,-3.0L2.5,-0.5"/>
  </g>
  <g id="arrowRight" transform="rotate(90) translate(36 -43)">
    <use xlink:href="#rim"/>
    <path pointer-events="none" fill="none" stroke="white" stroke-width="1.5" d="M0,-3.0v7 M-2.5,-0.5L0,-3.0L2.5,-0.5"/>
  </g>
  <g id="arrowDown" transform="rotate(180) translate(-30 -48)">
    <use xlink:href="#rim"/>
    <path pointer-events="none" fill="none" stroke="white" stroke-width="1.5" d="M0,-3.0v7 M-2.5,-0.5L0,-3.0L2.5,-0.5"/>
  </g>
  <g id="arrowLeft" transform="rotate(270) translate(-36 17)">
    <use xlink:href="#rim"/>
    <path pointer-events="none" fill="none" stroke="white" stroke-width="1.5" d="M0,-3.0v7 M-2.5,-0.5L0,-3.0L2.5,-0.5"/>
  </g>
  <g id="resetDef">
    <use xlink:href="#rim2" fill="#404040"><set attributeName="fill" to="#808080" begin="reset.mouseover" end="reset.mouseout"/></use>
  </g>
</defs>
<script type="application/ecmascript">
var viewWidth = 795;
var viewHeight = 164;
var sectionId = 'dynsection-0';
</script>
<script type="application/ecmascript" xlink:href="svg.min.js"/>
<svg id="graph" class="graph">
<g id="viewport">
<title>engine</title>
<g id="clust1" class="cluster">
<title>clusterdir_7711e90abc3d4bd55823d9013a185d04</title>
<g id="a_clust1"><a xlink:href="dir_7711e90abc3d4bd55823d9013a185d04.html" target="_top" xlink:title="unit">
<polygon fill="#c3f1c2" stroke="#7f7f7f" stroke-dasharray="5,2" points="8,-28 8,-148 779,-148 779,-28 8,-28"/>
<text text-anchor="middle" x="393.5" y="-134.5" font-family="Helvetica,sans-Serif" font-size="10.00">unit</text>
</a>
</g>
</g>
<g id="clust2" class="cluster">
<title>clusterdir_b18179ba0862e9d63268d7f75e99eb34</title>
<g id="a_clust2"><a xlink:href="dir_b18179ba0862e9d63268d7f75e99eb34.html" target="_top">
<polygon fill="#c3f1c2" stroke="#404040" stroke-width="2" points="16,-36 16,-120 771,-120 771,-36 16,-36"/>
</a>
</g>
</g>
<g id="clust3" class="cluster">
<title>clusterdir_0b97f13164a789597180eb4bfaf66841</title>
<g id="a_clust3"><a xlink:href="dir_0b97f13164a789597180eb4bfaf66841.html" target="_top">
<polygon fill="#9ae899" stroke="#404040" points="24,-44 24,-112 582,-112 582,-44 24,-44"/>
</a>
</g>
</g>
<g id="clust4" class="cluster">
<title>clusterdir_e134efd164ae47ff588654d4e88da55a</title>
<g id="a_clust4"><a xlink:href="dir_e134efd164ae47ff588654d4e88da55a.html" target="_top">
<polygon fill="#71df6f" stroke="#404040" points="32,-52 32,-104 464,-104 464,-52 32,-52"/>
</a>
</g>
</g>
<g id="clust5" class="cluster">
<title>clusterdir_1aed3f629e1c215e8dca1c9a0a97c63a</title>
<g id="a_clust5"><a xlink:href="dir_1aed3f629e1c215e8dca1c9a0a97c63a.html" target="_top">
<polygon fill="#4bd649" stroke="#404040" points="40,-60 40,-96 224,-96 224,-60 40,-60"/>
</a>
</g>
</g>
<g id="clust6" class="cluster">
<title>clusterdir_f21e4eddb98b0d09d03d1b47c069e6c3</title>
<g id="a_clust6"><a xlink:href="dir_f21e4eddb98b0d09d03d1b47c069e6c3.html" target="_top">
<polygon fill="#9ae899" stroke="#404040" points="590,-60 590,-96 708,-96 708,-60 590,-60"/>
</a>
</g>
</g>
<!-- dir_b18179ba0862e9d63268d7f75e99eb34 -->
<g id="node1" class="node">
<title>dir_b18179ba0862e9d63268d7f75e99eb34</title>
<text text-anchor="middle" x="741" y="-74.5" font-family="Helvetica,sans-Serif" font-size="10.00">engine</text>
</g>
<!-- dir_0b97f13164a789597180eb4bfaf66841 -->
<g id="node2" class="node">
<title>dir_0b97f13164a789597180eb4bfaf66841</title>
<text text-anchor="middle" x="491" y="-74.5" font-family="Helvetica,sans-Serif" font-size="10.00">core</text>
</g>
<!-- dir_e134efd164ae47ff588654d4e88da55a -->
<g id="node3" class="node">
<title>dir_e134efd164ae47ff588654d4e88da55a</title>
<text text-anchor="middle" x="253" y="-74.5" font-family="Helvetica,sans-Serif" font-size="10.00">math</text>
</g>
<!-- dir_d44c64559bbebec7f509842c48db8b23 -->
<g id="node12" class="node">
<title>dir_d44c64559bbebec7f509842c48db8b23</title>
<g id="a_node12"><a xlink:href="dir_d44c64559bbebec7f509842c48db8b23.html" target="_top" xlink:title="include">
<polygon fill="#c3f1c2" stroke="red" points="218.38,-20 171.62,-20 171.62,0 218.38,0 218.38,-20"/>
<text text-anchor="middle" x="195" y="-6.5" font-family="Helvetica,sans-Serif" font-size="10.00">include</text>
</a>
</g>
</g>
<!-- dir_e134efd164ae47ff588654d4e88da55a&#45;&gt;dir_d44c64559bbebec7f509842c48db8b23 -->
<g id="edge1" class="edge">
<title>dir_e134efd164ae47ff588654d4e88da55a&#45;&gt;dir_d44c64559bbebec7f509842c48db8b23</title>
<g id="a_edge1"><a xlink:href="dir_000087_000066.html" target="_top">
<path fill="none" stroke="#63b8ff" d="M250.31,-68.02C246.72,-57.34 239.46,-39.5 228,-28 227.73,-27.73 227.45,-27.46 227.17,-27.19"/>
<polygon fill="#63b8ff" stroke="#63b8ff" points="229.28,-24.4 219.15,-21.31 225.14,-30.05 229.28,-24.4"/>
</a>
</g>
<g id="a_edge1&#45;headlabel"><a xlink:href="dir_000087_000066.html" target="_top" xlink:title="8">
<text text-anchor="middle" x="232.64" y="-19.84" font-family="Helvetica,sans-Serif" font-size="10.00" fill="#63b8ff">8</text>
</a>
</g>
</g>
<!-- dir_1aed3f629e1c215e8dca1c9a0a97c63a -->
<g id="node4" class="node">
<title>dir_1aed3f629e1c215e8dca1c9a0a97c63a</title>
<text text-anchor="middle" x="72" y="-74.5" font-family="Helvetica,sans-Serif" font-size="10.00">algebra</text>
</g>
<!-- dir_cde8b984bd20e759c1052d04133cdf41 -->
<g id="node5" class="node">
<title>dir_cde8b984bd20e759c1052d04133cdf41</title>
<g id="a_node5"><a xlink:href="dir_cde8b984bd20e759c1052d04133cdf41.html" target="_top" xlink:title="matrix">
<polygon fill="#2fc82c" stroke="#404040" points="156.5,-88 113.5,-88 113.5,-68 156.5,-68 156.5,-88"/>
<text text-anchor="middle" x="135" y="-74.5" font-family="Helvetica,sans-Serif" font-size="10.00">matrix</text>
</a>
</g>
</g>
<!-- dir_cde8b984bd20e759c1052d04133cdf41&#45;&gt;dir_d44c64559bbebec7f509842c48db8b23 -->
<g id="edge2" class="edge">
<title>dir_cde8b984bd20e759c1052d04133cdf41&#45;&gt;dir_d44c64559bbebec7f509842c48db8b23</title>
<g id="a_edge2"><a xlink:href="dir_000089_000066.html" target="_top">
<path fill="none" stroke="#63b8ff" d="M138.93,-67.74C143.8,-57.11 152.95,-39.65 165,-28 165.27,-27.73 165.55,-27.47 165.84,-27.21"/>
<polygon fill="#63b8ff" stroke="#63b8ff" points="167.79,-30.12 173.74,-21.36 163.62,-24.5 167.79,-30.12"/>
</a>
</g>
<g id="a_edge2&#45;headlabel"><a xlink:href="dir_000089_000066.html" target="_top" xlink:title="2">
<text text-anchor="middle" x="167.8" y="-30.14" font-family="Helvetica,sans-Serif" font-size="10.00" fill="#63b8ff">2</text>
</a>
</g>
</g>
<!-- dir_2179280229301837a21927825fb06153 -->
<g id="node6" class="node">
<title>dir_2179280229301837a21927825fb06153</title>
<g id="a_node6"><a xlink:href="dir_2179280229301837a21927825fb06153.html" target="_top" xlink:title="vector">
<polygon fill="#2fc82c" stroke="#404040" points="215.75,-88 174.25,-88 174.25,-68 215.75,-68 215.75,-88"/>
<text text-anchor="middle" x="195" y="-74.5" font-family="Helvetica,sans-Serif" font-size="10.00">vector</text>
</a>
</g>
</g>
<!-- dir_2179280229301837a21927825fb06153&#45;&gt;dir_d44c64559bbebec7f509842c48db8b23 -->
<g id="edge3" class="edge">
<title>dir_2179280229301837a21927825fb06153&#45;&gt;dir_d44c64559bbebec7f509842c48db8b23</title>
<g id="a_edge3"><a xlink:href="dir_000137_000066.html" target="_top">
<path fill="none" stroke="#63b8ff" d="M195,-67.54C195,-58.23 195,-43.7 195,-31.7"/>
<polygon fill="#63b8ff" stroke="#63b8ff" points="198.5,-31.95 195,-21.95 191.5,-31.95 198.5,-31.95"/>
</a>
</g>
<g id="a_edge3&#45;headlabel"><a xlink:href="dir_000137_000066.html" target="_top" xlink:title="5">
<text text-anchor="middle" x="201.34" y="-30.53" font-family="Helvetica,sans-Serif" font-size="10.00" fill="#63b8ff">5</text>
</a>
</g>
</g>
<!-- dir_1d0b10786063eec2c477a926d313eda3 -->
<g id="node7" class="node">
<title>dir_1d0b10786063eec2c477a926d313eda3</title>
<g id="a_node7"><a xlink:href="dir_1d0b10786063eec2c477a926d313eda3.html" target="_top" xlink:title="geometry">
<polygon fill="#4bd649" stroke="#404040" points="346.25,-88 289.75,-88 289.75,-68 346.25,-68 346.25,-88"/>
<text text-anchor="middle" x="318" y="-74.5" font-family="Helvetica,sans-Serif" font-size="10.00">geometry</text>
</a>
</g>
</g>
<!-- dir_4a09d6e6b06246fe0094498df0d1a07f -->
<g id="node8" class="node">
<title>dir_4a09d6e6b06246fe0094498df0d1a07f</title>
<g id="a_node8"><a xlink:href="dir_4a09d6e6b06246fe0094498df0d1a07f.html" target="_top" xlink:title="random&#45;generator">
<polygon fill="#4bd649" stroke="#404040" points="455.88,-88 364.12,-88 364.12,-68 455.88,-68 455.88,-88"/>
<text text-anchor="middle" x="410" y="-74.5" font-family="Helvetica,sans-Serif" font-size="10.00">random&#45;generator</text>
</a>
</g>
</g>
<!-- dir_4ddf503379ea31901b9c47bbb9d9d306 -->
<g id="node9" class="node">
<title>dir_4ddf503379ea31901b9c47bbb9d9d306</title>
<g id="a_node9"><a xlink:href="dir_4ddf503379ea31901b9c47bbb9d9d306.html" target="_top" xlink:title="window">
<polygon fill="#71df6f" stroke="#404040" points="573.75,-88 526.25,-88 526.25,-68 573.75,-68 573.75,-88"/>
<text text-anchor="middle" x="550" y="-74.5" font-family="Helvetica,sans-Serif" font-size="10.00">window</text>
</a>
</g>
</g>
<!-- dir_f21e4eddb98b0d09d03d1b47c069e6c3 -->
<g id="node10" class="node">
<title>dir_f21e4eddb98b0d09d03d1b47c069e6c3</title>
<text text-anchor="middle" x="614" y="-74.5" font-family="Helvetica,sans-Serif" font-size="10.00">ecs</text>
</g>
<!-- dir_545c090b01cf66198223ce94d4a3c98e -->
<g id="node11" class="node">
<title>dir_545c090b01cf66198223ce94d4a3c98e</title>
<g id="a_node11"><a xlink:href="dir_545c090b01cf66198223ce94d4a3c98e.html" target="_top" xlink:title="backend">
<polygon fill="#71df6f" stroke="#404040" points="700.38,-88 647.62,-88 647.62,-68 700.38,-68 700.38,-88"/>
<text text-anchor="middle" x="674" y="-74.5" font-family="Helvetica,sans-Serif" font-size="10.00">backend</text>
</a>
</g>
</g>
</g>
</svg>

<g id="navigator" transform="translate(0 0)" fill="#404254">
  <rect fill="#f2f5e9" fill-opacity="0.5" stroke="#606060" stroke-width=".5" x="0" y="0" width="60" height="60"/>
  <use id="zoomplus" xlink:href="#zoomPlus" x="17" y="9" onmousedown="handleZoom(evt,'in')"/>
  <use id="zoomminus" xlink:href="#zoomMin" x="42" y="9" onmousedown="handleZoom(evt,'out')"/>
  <use id="reset" xlink:href="#resetDef" x="30" y="36" onmousedown="handleReset()"/>
   <use id="arrowup" xlink:href="#arrowUp" x="0" y="0" onmousedown="handlePan(0,-1)"/>
  <use id="arrowright" xlink:href="#arrowRight" x="0" y="0" onmousedown="handlePan(1,0)"/>
  <use id="arrowdown" xlink:href="#arrowDown" x="0" y="0" onmousedown="handlePan(0,1)"/>
  <use id="arrowleft" xlink:href="#arrowLeft" x="0" y="0" onmousedown="handlePan(-1,0)"/>
</g>
<svg viewBox="0 0 15 15" width="100%" height="30px" preserveAspectRatio="xMaxYMin meet">
 <g id="arrow_out" transform="scale(0.3 0.3)">
  <a xlink:href="dir_b18179ba0862e9d63268d7f75e99eb34_dep_org.svg" target="_base">
   <rect id="button" ry="5" rx="5" y="6" x="6" height="38" width="38"
        fill="#f2f5e9" fill-opacity="0.5" stroke="#606060" stroke-width="1.0"/>
   <path id="arrow"
     d="M 11.500037,31.436501 C 11.940474,20.09759 22.043105,11.32322 32.158766,21.979434 L 37.068811,17.246167 C 37.068811,17.246167 37.088388,32 37.088388,32 L 22.160133,31.978069 C 22.160133,31.978069 26.997745,27.140456 26.997745,27.140456 C 18.528582,18.264221 13.291696,25.230495 11.500037,31.436501 z"
     style="fill:#404040;"/>
  </a>
 </g>
</svg>

<style type='text/css'>
<![CDATA[
[data-mouse-over-selected='false'] { opacity: 0.7; }
[data-mouse-over-selected='true']  { opacity: 1.0; }
]]>
</style>
<script type="application/ecmascript"><![CDATA[
document.addEventListener('DOMContentLoaded', (event) => {
  highlightEdges();
  highlightAdjacentNodes();
});
]]></script>
</svg>
