<?xml version="1.0" encoding="UTF-8" standalone="no"?>
<!DOCTYPE svg PUBLIC "-//W3C//DTD SVG 1.1//EN"
 "http://www.w3.org/Graphics/SVG/1.1/DTD/svg11.dtd">
<!-- Generated by graphviz version 11.0.0 (20240428.1522)
 -->
<!-- Title: Graphical Class Hierarchy Pages: 1 -->
<svg width="299pt" height="116pt"
 viewBox="0.00 0.00 298.75 116.00" xmlns="http://www.w3.org/2000/svg" xmlns:xlink="http://www.w3.org/1999/xlink">
<g id="graph0" class="graph" transform="scale(1 1) rotate(0) translate(4 112)">
<title>Graphical Class Hierarchy</title>
<!-- Node0 -->
<g id="Node000000" class="node">
<title>Node0</title>
<g id="a_Node000000"><a xlink:title=" ">
<polygon fill="#e0e0e0" stroke="#999999" points="79.75,-64 0,-64 0,-44 79.75,-44 79.75,-64"/>
<text text-anchor="middle" x="39.88" y="-50.5" font-family="Helvetica,sans-Serif" font-size="10.00">std::false_type</text>
</a>
</g>
</g>
<!-- Node1 -->
<g id="Node000001" class="node">
<title>Node1</title>
<g id="a_Node000001"><a xlink:href="struct_g_l_e_s_c_1_1_g_a_p_i_1_1is_graphics_type.html" target="_top" xlink:title=" ">
<polygon fill="white" stroke="#666666" points="290.75,-108 115.75,-108 115.75,-88 290.75,-88 290.75,-108"/>
<text text-anchor="middle" x="203.25" y="-94.5" font-family="Helvetica,sans-Serif" font-size="10.00">GLESC::GAPI::isGraphicsType&lt; T &gt;</text>
</a>
</g>
</g>
<!-- Node0&#45;&gt;Node1 -->
<g id="edge52_Node000000_Node000001" class="edge">
<title>Node0&#45;&gt;Node1</title>
<g id="a_edge52_Node000000_Node000001"><a xlink:title=" ">
<path fill="none" stroke="#63b8ff" d="M80.66,-68.15C91.93,-71.93 104.26,-75.83 115.75,-79 126.87,-82.07 138.89,-84.97 150.34,-87.54"/>
<polygon fill="#63b8ff" stroke="#63b8ff" points="81.84,-64.86 71.24,-64.95 79.58,-71.48 81.84,-64.86"/>
</a>
</g>
</g>
<!-- Node2 -->
<g id="Node000002" class="node">
<title>Node2</title>
<g id="a_Node000002"><a xlink:href="struct_g_l_e_s_c_1_1is_iterable.html" target="_top" xlink:title=" ">
<polygon fill="white" stroke="#666666" points="253.25,-70 153.25,-70 153.25,-38 253.25,-38 253.25,-70"/>
<text text-anchor="start" x="161.25" y="-56.5" font-family="Helvetica,sans-Serif" font-size="10.00">GLESC::isIterable&lt;</text>
<text text-anchor="middle" x="203.25" y="-44.5" font-family="Helvetica,sans-Serif" font-size="10.00"> T, typename &gt;</text>
</a>
</g>
</g>
<!-- Node0&#45;&gt;Node2 -->
<g id="edge53_Node000000_Node000002" class="edge">
<title>Node0&#45;&gt;Node2</title>
<g id="a_edge53_Node000000_Node000002"><a xlink:title=" ">
<path fill="none" stroke="#63b8ff" d="M91.42,-54C111,-54 133.36,-54 152.84,-54"/>
<polygon fill="#63b8ff" stroke="#63b8ff" points="91.45,-50.5 81.45,-54 91.45,-57.5 91.45,-50.5"/>
</a>
</g>
</g>
<!-- Node3 -->
<g id="Node000003" class="node">
<title>Node3</title>
<g id="a_Node000003"><a xlink:href="structis__vector.html" target="_top" xlink:title=" ">
<polygon fill="white" stroke="#666666" points="242,-20 164.5,-20 164.5,0 242,0 242,-20"/>
<text text-anchor="middle" x="203.25" y="-6.5" font-family="Helvetica,sans-Serif" font-size="10.00">is_vector&lt; T &gt;</text>
</a>
</g>
</g>
<!-- Node0&#45;&gt;Node3 -->
<g id="edge54_Node000000_Node000003" class="edge">
<title>Node0&#45;&gt;Node3</title>
<g id="a_edge54_Node000000_Node000003"><a xlink:title=" ">
<path fill="none" stroke="#63b8ff" d="M80.66,-39.85C91.93,-36.07 104.26,-32.17 115.75,-29 131.46,-24.66 148.99,-20.66 164.14,-17.46"/>
<polygon fill="#63b8ff" stroke="#63b8ff" points="79.58,-36.52 71.24,-43.05 81.84,-43.14 79.58,-36.52"/>
</a>
</g>
</g>
</g>
</svg>
