<?xml version="1.0" encoding="UTF-8" standalone="no"?>
<!DOCTYPE svg PUBLIC "-//W3C//DTD SVG 1.1//EN"
 "http://www.w3.org/Graphics/SVG/1.1/DTD/svg11.dtd">
<!-- Generated by graphviz version 11.0.0 (20240428.1522)
 -->
<!-- Title: Graphical Class Hierarchy Pages: 1 -->
<svg width="317pt" height="382pt"
 viewBox="0.00 0.00 316.75 382.00" xmlns="http://www.w3.org/2000/svg" xmlns:xlink="http://www.w3.org/1999/xlink">
<g id="graph0" class="graph" transform="scale(1 1) rotate(0) translate(4 378)">
<title>Graphical Class Hierarchy</title>
<!-- Node0 -->
<g id="Node000000" class="node">
<title>Node0</title>
<g id="a_Node000000"><a xlink:href="class_g_l_e_s_c_1_1_e_c_s_1_1_system.html" target="_top" xlink:title=" ">
<polygon fill="white" stroke="#666666" points="115,-200 0,-200 0,-180 115,-180 115,-200"/>
<text text-anchor="middle" x="57.5" y="-186.5" font-family="Helvetica,sans-Serif" font-size="10.00">GLESC::ECS::System</text>
</a>
</g>
</g>
<!-- Node1 -->
<g id="Node000001" class="node">
<title>Node1</title>
<g id="a_Node000001"><a xlink:href="class_g_l_e_s_c_1_1_e_c_s_1_1_camera_system.html" target="_top" xlink:title=" ">
<polygon fill="white" stroke="#666666" points="304.25,-374 155.5,-374 155.5,-354 304.25,-354 304.25,-374"/>
<text text-anchor="middle" x="229.88" y="-360.5" font-family="Helvetica,sans-Serif" font-size="10.00">GLESC::ECS::CameraSystem</text>
</a>
</g>
</g>
<!-- Node0&#45;&gt;Node1 -->
<g id="edge16_Node000000_Node000001" class="edge">
<title>Node0&#45;&gt;Node1</title>
<g id="a_edge16_Node000000_Node000001"><a xlink:title=" ">
<path fill="none" stroke="#63b8ff" d="M65.09,-211.07C76.75,-244.77 104.3,-310.52 151,-345 155.7,-348.47 160.96,-351.32 166.46,-353.64"/>
<polygon fill="#63b8ff" stroke="#63b8ff" points="68.44,-210.06 61.98,-201.66 61.79,-212.25 68.44,-210.06"/>
</a>
</g>
</g>
<!-- Node2 -->
<g id="Node000002" class="node">
<title>Node2</title>
<g id="a_Node000002"><a xlink:href="class_g_l_e_s_c_1_1_e_c_s_1_1_debug_info_system.html" target="_top" xlink:title=" ">
<polygon fill="white" stroke="#666666" points="308.75,-336 151,-336 151,-316 308.75,-316 308.75,-336"/>
<text text-anchor="middle" x="229.88" y="-322.5" font-family="Helvetica,sans-Serif" font-size="10.00">GLESC::ECS::DebugInfoSystem</text>
</a>
</g>
</g>
<!-- Node0&#45;&gt;Node2 -->
<g id="edge17_Node000000_Node000002" class="edge">
<title>Node0&#45;&gt;Node2</title>
<g id="a_edge17_Node000000_Node000002"><a xlink:title=" ">
<path fill="none" stroke="#63b8ff" d="M68.97,-210.38C83.64,-236.84 112.86,-282.53 151,-307 156.39,-310.46 162.35,-313.29 168.52,-315.6"/>
<polygon fill="#63b8ff" stroke="#63b8ff" points="72.11,-208.83 64.3,-201.67 65.94,-212.13 72.11,-208.83"/>
</a>
</g>
</g>
<!-- Node3 -->
<g id="Node000003" class="node">
<title>Node3</title>
<g id="a_Node000003"><a xlink:href="class_g_l_e_s_c_1_1_e_c_s_1_1_fog_system.html" target="_top" xlink:title=" ">
<polygon fill="white" stroke="#666666" points="295.62,-298 164.12,-298 164.12,-278 295.62,-278 295.62,-298"/>
<text text-anchor="middle" x="229.88" y="-284.5" font-family="Helvetica,sans-Serif" font-size="10.00">GLESC::ECS::FogSystem</text>
</a>
</g>
</g>
<!-- Node0&#45;&gt;Node3 -->
<g id="edge18_Node000000_Node000003" class="edge">
<title>Node0&#45;&gt;Node3</title>
<g id="a_edge18_Node000000_Node000003"><a xlink:title=" ">
<path fill="none" stroke="#63b8ff" d="M75.13,-208.55C92.36,-226.65 120.95,-253.62 151,-269 157.69,-272.42 165.02,-275.25 172.43,-277.58"/>
<polygon fill="#63b8ff" stroke="#63b8ff" points="78.02,-206.53 68.65,-201.58 72.9,-211.29 78.02,-206.53"/>
</a>
</g>
</g>
<!-- Node4 -->
<g id="Node000004" class="node">
<title>Node4</title>
<g id="a_Node000004"><a xlink:href="class_g_l_e_s_c_1_1_e_c_s_1_1_input_system.html" target="_top" xlink:title=" ">
<polygon fill="white" stroke="#666666" points="297.88,-260 161.88,-260 161.88,-240 297.88,-240 297.88,-260"/>
<text text-anchor="middle" x="229.88" y="-246.5" font-family="Helvetica,sans-Serif" font-size="10.00">GLESC::ECS::InputSystem</text>
</a>
</g>
</g>
<!-- Node0&#45;&gt;Node4 -->
<g id="edge19_Node000000_Node000004" class="edge">
<title>Node0&#45;&gt;Node4</title>
<g id="a_edge19_Node000000_Node000004"><a xlink:title=" ">
<path fill="none" stroke="#63b8ff" d="M89.33,-205.32C107.06,-213.71 129.93,-223.82 151,-231 160.35,-234.19 170.51,-237.07 180.3,-239.56"/>
<polygon fill="#63b8ff" stroke="#63b8ff" points="90.91,-202.2 80.38,-201.02 87.88,-208.51 90.91,-202.2"/>
</a>
</g>
</g>
<!-- Node5 -->
<g id="Node000005" class="node">
<title>Node5</title>
<g id="a_Node000005"><a xlink:href="class_g_l_e_s_c_1_1_e_c_s_1_1_light_system.html" target="_top" xlink:title=" ">
<polygon fill="white" stroke="#666666" points="297.88,-222 161.88,-222 161.88,-202 297.88,-202 297.88,-222"/>
<text text-anchor="middle" x="229.88" y="-208.5" font-family="Helvetica,sans-Serif" font-size="10.00">GLESC::ECS::LightSystem</text>
</a>
</g>
</g>
<!-- Node0&#45;&gt;Node5 -->
<g id="edge20_Node000000_Node000005" class="edge">
<title>Node0&#45;&gt;Node5</title>
<g id="a_edge20_Node000000_Node000005"><a xlink:title=" ">
<path fill="none" stroke="#63b8ff" d="M126.55,-198.79C138.05,-200.27 149.98,-201.81 161.46,-203.29"/>
<polygon fill="#63b8ff" stroke="#63b8ff" points="127.1,-195.33 116.73,-197.52 126.2,-202.27 127.1,-195.33"/>
</a>
</g>
</g>
<!-- Node6 -->
<g id="Node000006" class="node">
<title>Node6</title>
<g id="a_Node000006"><a xlink:href="class_g_l_e_s_c_1_1_e_c_s_1_1_physics_collision_system.html" target="_top" xlink:title=" ">
<polygon fill="white" stroke="#666666" points="306.5,-184 153.25,-184 153.25,-152 306.5,-152 306.5,-184"/>
<text text-anchor="start" x="161.25" y="-170.5" font-family="Helvetica,sans-Serif" font-size="10.00">GLESC::ECS::PhysicsCollision</text>
<text text-anchor="middle" x="229.88" y="-158.5" font-family="Helvetica,sans-Serif" font-size="10.00">System</text>
</a>
</g>
</g>
<!-- Node0&#45;&gt;Node6 -->
<g id="edge21_Node000000_Node000006" class="edge">
<title>Node0&#45;&gt;Node6</title>
<g id="a_edge21_Node000000_Node000006"><a xlink:title=" ">
<path fill="none" stroke="#63b8ff" d="M126.5,-181.22C135.21,-180.09 144.16,-178.94 152.99,-177.8"/>
<polygon fill="#63b8ff" stroke="#63b8ff" points="126.2,-177.73 116.73,-182.48 127.1,-184.67 126.2,-177.73"/>
</a>
</g>
</g>
<!-- Node7 -->
<g id="Node000007" class="node">
<title>Node7</title>
<g id="a_Node000007"><a xlink:href="class_g_l_e_s_c_1_1_e_c_s_1_1_physics_system.html" target="_top" xlink:title=" ">
<polygon fill="white" stroke="#666666" points="305,-134 154.75,-134 154.75,-114 305,-114 305,-134"/>
<text text-anchor="middle" x="229.88" y="-120.5" font-family="Helvetica,sans-Serif" font-size="10.00">GLESC::ECS::PhysicsSystem</text>
</a>
</g>
</g>
<!-- Node0&#45;&gt;Node7 -->
<g id="edge22_Node000000_Node000007" class="edge">
<title>Node0&#45;&gt;Node7</title>
<g id="a_edge22_Node000000_Node000007"><a xlink:title=" ">
<path fill="none" stroke="#63b8ff" d="M85.84,-173.99C103.87,-163.98 128.27,-151.42 151,-143 159.74,-139.76 169.24,-136.92 178.51,-134.48"/>
<polygon fill="#63b8ff" stroke="#63b8ff" points="84.32,-170.83 77.34,-178.8 87.77,-176.93 84.32,-170.83"/>
</a>
</g>
</g>
<!-- Node8 -->
<g id="Node000008" class="node">
<title>Node8</title>
<g id="a_Node000008"><a xlink:href="class_g_l_e_s_c_1_1_e_c_s_1_1_render_system.html" target="_top" xlink:title=" ">
<polygon fill="white" stroke="#666666" points="302.75,-96 157,-96 157,-76 302.75,-76 302.75,-96"/>
<text text-anchor="middle" x="229.88" y="-82.5" font-family="Helvetica,sans-Serif" font-size="10.00">GLESC::ECS::RenderSystem</text>
</a>
</g>
</g>
<!-- Node0&#45;&gt;Node8 -->
<g id="edge23_Node000000_Node000008" class="edge">
<title>Node0&#45;&gt;Node8</title>
<g id="a_edge23_Node000000_Node000008"><a xlink:title=" ">
<path fill="none" stroke="#63b8ff" d="M74.02,-170.93C90.93,-151.43 119.77,-121.71 151,-105 157.38,-101.59 164.38,-98.78 171.49,-96.46"/>
<polygon fill="#63b8ff" stroke="#63b8ff" points="71.47,-168.52 67.7,-178.42 76.82,-173.04 71.47,-168.52"/>
</a>
</g>
</g>
<!-- Node9 -->
<g id="Node000009" class="node">
<title>Node9</title>
<g id="a_Node000009"><a xlink:href="class_g_l_e_s_c_1_1_e_c_s_1_1_sun_system.html" target="_top" xlink:title=" ">
<polygon fill="white" stroke="#666666" points="296,-58 163.75,-58 163.75,-38 296,-38 296,-58"/>
<text text-anchor="middle" x="229.88" y="-44.5" font-family="Helvetica,sans-Serif" font-size="10.00">GLESC::ECS::SunSystem</text>
</a>
</g>
</g>
<!-- Node0&#45;&gt;Node9 -->
<g id="edge24_Node000000_Node000009" class="edge">
<title>Node0&#45;&gt;Node9</title>
<g id="a_edge24_Node000000_Node000009"><a xlink:title=" ">
<path fill="none" stroke="#63b8ff" d="M68.08,-169.78C82.23,-142.16 111.39,-93.1 151,-67 156.23,-63.55 162.03,-60.73 168.03,-58.42"/>
<polygon fill="#63b8ff" stroke="#63b8ff" points="65.06,-167.98 63.77,-178.5 71.34,-171.08 65.06,-167.98"/>
</a>
</g>
</g>
<!-- Node10 -->
<g id="Node000010" class="node">
<title>Node10</title>
<g id="a_Node000010"><a xlink:href="class_g_l_e_s_c_1_1_e_c_s_1_1_transform_system.html" target="_top" xlink:title=" ">
<polygon fill="white" stroke="#666666" points="308.75,-20 151,-20 151,0 308.75,0 308.75,-20"/>
<text text-anchor="middle" x="229.88" y="-6.5" font-family="Helvetica,sans-Serif" font-size="10.00">GLESC::ECS::TransformSystem</text>
</a>
</g>
</g>
<!-- Node0&#45;&gt;Node10 -->
<g id="edge25_Node000000_Node000010" class="edge">
<title>Node0&#45;&gt;Node10</title>
<g id="a_edge25_Node000000_Node000010"><a xlink:title=" ">
<path fill="none" stroke="#63b8ff" d="M64.54,-169.08C75.68,-134.39 102.81,-65.2 151,-29 155.56,-25.57 160.66,-22.76 166.01,-20.44"/>
<polygon fill="#63b8ff" stroke="#63b8ff" points="61.28,-167.77 61.7,-178.36 67.98,-169.82 61.28,-167.77"/>
</a>
</g>
</g>
</g>
</svg>
