<?xml version="1.0" encoding="UTF-8" standalone="no"?>
<!DOCTYPE svg PUBLIC "-//W3C//DTD SVG 1.1//EN"
 "http://www.w3.org/Graphics/SVG/1.1/DTD/svg11.dtd">
<!-- Generated by graphviz version 11.0.0 (20240428.1522)
 -->
<!-- Title: Graphical Class Hierarchy Pages: 1 -->
<svg width="286pt" height="154pt"
 viewBox="0.00 0.00 286.00 154.00" xmlns="http://www.w3.org/2000/svg" xmlns:xlink="http://www.w3.org/1999/xlink">
<g id="graph0" class="graph" transform="scale(1 1) rotate(0) translate(4 150)">
<title>Graphical Class Hierarchy</title>
<!-- Node0 -->
<g id="Node000000" class="node">
<title>Node0</title>
<g id="a_Node000000"><a xlink:href="class_engine_component.html" target="_top" xlink:title="Class that represents a component of the engine.">
<polygon fill="white" stroke="#666666" points="95.5,-86 0,-86 0,-66 95.5,-66 95.5,-86"/>
<text text-anchor="middle" x="47.75" y="-72.5" font-family="Helvetica,sans-Serif" font-size="10.00">EngineComponent</text>
</a>
</g>
</g>
<!-- Node1 -->
<g id="Node000001" class="node">
<title>Node1</title>
<g id="a_Node000001"><a xlink:href="class_g_l_e_s_c_1_1_physics_1_1_collider.html" target="_top" xlink:title="The collider class component for entities.">
<polygon fill="white" stroke="#666666" points="269,-146 140.5,-146 140.5,-126 269,-126 269,-146"/>
<text text-anchor="middle" x="204.75" y="-132.5" font-family="Helvetica,sans-Serif" font-size="10.00">GLESC::Physics::Collider</text>
</a>
</g>
</g>
<!-- Node0&#45;&gt;Node1 -->
<g id="edge2_Node000000_Node000001" class="edge">
<title>Node0&#45;&gt;Node1</title>
<g id="a_edge2_Node000000_Node000001"><a xlink:title=" ">
<path fill="none" stroke="#63b8ff" d="M77.1,-91.83C92.79,-100.14 112.84,-110.01 131.5,-117 140,-120.19 149.26,-123.05 158.22,-125.53"/>
<polygon fill="#63b8ff" stroke="#63b8ff" points="78.8,-88.77 68.33,-87.11 75.48,-94.93 78.8,-88.77"/>
</a>
</g>
</g>
<!-- Node2 -->
<g id="Node000002" class="node">
<title>Node2</title>
<g id="a_Node000002"><a xlink:href="class_g_l_e_s_c_1_1_physics_1_1_physics.html" target="_top" xlink:title=" ">
<polygon fill="white" stroke="#666666" points="270.5,-108 139,-108 139,-88 270.5,-88 270.5,-108"/>
<text text-anchor="middle" x="204.75" y="-94.5" font-family="Helvetica,sans-Serif" font-size="10.00">GLESC::Physics::Physics</text>
</a>
</g>
</g>
<!-- Node0&#45;&gt;Node2 -->
<g id="edge3_Node000000_Node000002" class="edge">
<title>Node0&#45;&gt;Node2</title>
<g id="a_edge3_Node000000_Node000002"><a xlink:title=" ">
<path fill="none" stroke="#63b8ff" d="M106.74,-84.23C117.16,-85.71 128.08,-87.26 138.68,-88.76"/>
<polygon fill="#63b8ff" stroke="#63b8ff" points="107.57,-80.81 97.17,-82.87 106.58,-87.74 107.57,-80.81"/>
</a>
</g>
</g>
<!-- Node3 -->
<g id="Node000003" class="node">
<title>Node3</title>
<g id="a_Node000003"><a xlink:href="class_g_l_e_s_c_1_1_render_1_1_mesh.html" target="_top" xlink:title="A class that represents a mesh.">
<polygon fill="white" stroke="#666666" points="262.62,-70 146.88,-70 146.88,-38 262.62,-38 262.62,-70"/>
<text text-anchor="start" x="154.88" y="-56.5" font-family="Helvetica,sans-Serif" font-size="10.00">GLESC::Render::Mesh</text>
<text text-anchor="middle" x="204.75" y="-44.5" font-family="Helvetica,sans-Serif" font-size="10.00">&lt; VertexT &gt;</text>
</a>
</g>
</g>
<!-- Node0&#45;&gt;Node3 -->
<g id="edge4_Node000000_Node000003" class="edge">
<title>Node0&#45;&gt;Node3</title>
<g id="a_edge4_Node000000_Node000003"><a xlink:title=" ">
<path fill="none" stroke="#63b8ff" d="M106.86,-67.75C119.85,-65.91 133.63,-63.95 146.59,-62.11"/>
<polygon fill="#63b8ff" stroke="#63b8ff" points="106.58,-64.26 97.17,-69.13 107.57,-71.19 106.58,-64.26"/>
</a>
</g>
</g>
<!-- Node4 -->
<g id="Node000004" class="node">
<title>Node4</title>
<g id="a_Node000004"><a xlink:href="struct_g_l_e_s_c_1_1_transform_1_1_transform.html" target="_top" xlink:title="Struct that represents the position, rotation, and scale of an entity in the game world.">
<polygon fill="white" stroke="#666666" points="278,-20 131.5,-20 131.5,0 278,0 278,-20"/>
<text text-anchor="middle" x="204.75" y="-6.5" font-family="Helvetica,sans-Serif" font-size="10.00">GLESC::Transform::Transform</text>
</a>
</g>
</g>
<!-- Node0&#45;&gt;Node4 -->
<g id="edge5_Node000000_Node000004" class="edge">
<title>Node0&#45;&gt;Node4</title>
<g id="a_edge5_Node000000_Node000004"><a xlink:title=" ">
<path fill="none" stroke="#63b8ff" d="M73.94,-59.41C89.91,-49.48 111.29,-37.23 131.5,-29 139.55,-25.72 148.33,-22.86 156.92,-20.42"/>
<polygon fill="#63b8ff" stroke="#63b8ff" points="72.14,-56.41 65.58,-64.72 75.9,-62.31 72.14,-56.41"/>
</a>
</g>
</g>
</g>
</svg>
