<?xml version="1.0" encoding="UTF-8" standalone="no"?>
<!DOCTYPE svg PUBLIC "-//W3C//DTD SVG 1.1//EN"
 "http://www.w3.org/Graphics/SVG/1.1/DTD/svg11.dtd">
<!-- Generated by graphviz version 11.0.0 (20240428.1522)
 -->
<!-- Title: Graphical Class Hierarchy Pages: 1 -->
<svg width="351pt" height="332pt"
 viewBox="0.00 0.00 350.50 332.00" xmlns="http://www.w3.org/2000/svg" xmlns:xlink="http://www.w3.org/1999/xlink">
<g id="graph0" class="graph" transform="scale(1 1) rotate(0) translate(4 328)">
<title>Graphical Class Hierarchy</title>
<!-- Node0 -->
<g id="Node000000" class="node">
<title>Node0</title>
<g id="a_Node000000"><a xlink:href="struct_g_l_e_s_c_1_1_e_c_s_1_1_i_component.html" target="_top" xlink:title="Base class for all components.">
<polygon fill="white" stroke="#666666" points="133,-172 0,-172 0,-152 133,-152 133,-172"/>
<text text-anchor="middle" x="66.5" y="-158.5" font-family="Helvetica,sans-Serif" font-size="10.00">GLESC::ECS::IComponent</text>
</a>
</g>
</g>
<!-- Node1 -->
<g id="Node000001" class="node">
<title>Node1</title>
<g id="a_Node000001"><a xlink:href="struct_g_l_e_s_c_1_1_e_c_s_1_1_camera_component.html" target="_top" xlink:title=" ">
<polygon fill="white" stroke="#666666" points="338,-324 173.5,-324 173.5,-304 338,-304 338,-324"/>
<text text-anchor="middle" x="255.75" y="-310.5" font-family="Helvetica,sans-Serif" font-size="10.00">GLESC::ECS::CameraComponent</text>
</a>
</g>
</g>
<!-- Node0&#45;&gt;Node1 -->
<g id="edge6_Node000000_Node000001" class="edge">
<title>Node0&#45;&gt;Node1</title>
<g id="a_edge6_Node000000_Node000001"><a xlink:title=" ">
<path fill="none" stroke="#63b8ff" d="M77.15,-182.32C92.34,-212 124.72,-266.71 169,-295 174.4,-298.45 180.33,-301.28 186.48,-303.59"/>
<polygon fill="#63b8ff" stroke="#63b8ff" points="80.43,-181.05 72.85,-173.64 74.15,-184.16 80.43,-181.05"/>
</a>
</g>
</g>
<!-- Node2 -->
<g id="Node000002" class="node">
<title>Node2</title>
<g id="a_Node000002"><a xlink:href="class_g_l_e_s_c_1_1_e_c_s_1_1_collision_component.html" target="_top" xlink:title=" ">
<polygon fill="white" stroke="#666666" points="339.5,-286 172,-286 172,-266 339.5,-266 339.5,-286"/>
<text text-anchor="middle" x="255.75" y="-272.5" font-family="Helvetica,sans-Serif" font-size="10.00">GLESC::ECS::CollisionComponent</text>
</a>
</g>
</g>
<!-- Node0&#45;&gt;Node2 -->
<g id="edge7_Node000000_Node000002" class="edge">
<title>Node0&#45;&gt;Node2</title>
<g id="a_edge7_Node000000_Node000002"><a xlink:title=" ">
<path fill="none" stroke="#63b8ff" d="M82.48,-181.21C100.58,-203.04 133.11,-238.08 169,-257 175.47,-260.41 182.54,-263.21 189.74,-265.51"/>
<polygon fill="#63b8ff" stroke="#63b8ff" points="85.39,-179.24 76.38,-173.66 79.94,-183.64 85.39,-179.24"/>
</a>
</g>
</g>
<!-- Node3 -->
<g id="Node000003" class="node">
<title>Node3</title>
<g id="a_Node000003"><a xlink:href="class_g_l_e_s_c_1_1_e_c_s_1_1_fog_component.html" target="_top" xlink:title=" ">
<polygon fill="white" stroke="#666666" points="329.38,-248 182.12,-248 182.12,-228 329.38,-228 329.38,-248"/>
<text text-anchor="middle" x="255.75" y="-234.5" font-family="Helvetica,sans-Serif" font-size="10.00">GLESC::ECS::FogComponent</text>
</a>
</g>
</g>
<!-- Node0&#45;&gt;Node3 -->
<g id="edge8_Node000000_Node000003" class="edge">
<title>Node0&#45;&gt;Node3</title>
<g id="a_edge8_Node000000_Node000003"><a xlink:title=" ">
<path fill="none" stroke="#63b8ff" d="M92.16,-178.57C112.11,-191.3 141.35,-208.44 169,-219 177.83,-222.37 187.41,-225.23 196.87,-227.62"/>
<polygon fill="#63b8ff" stroke="#63b8ff" points="94.18,-175.72 83.89,-173.2 90.37,-181.59 94.18,-175.72"/>
</a>
</g>
</g>
<!-- Node4 -->
<g id="Node000004" class="node">
<title>Node4</title>
<g id="a_Node000004"><a xlink:href="struct_g_l_e_s_c_1_1_e_c_s_1_1_input_component.html" target="_top" xlink:title=" ">
<polygon fill="white" stroke="#666666" points="331.62,-210 179.88,-210 179.88,-190 331.62,-190 331.62,-210"/>
<text text-anchor="middle" x="255.75" y="-196.5" font-family="Helvetica,sans-Serif" font-size="10.00">GLESC::ECS::InputComponent</text>
</a>
</g>
</g>
<!-- Node0&#45;&gt;Node4 -->
<g id="edge9_Node000000_Node000004" class="edge">
<title>Node0&#45;&gt;Node4</title>
<g id="a_edge9_Node000000_Node000004"><a xlink:title=" ">
<path fill="none" stroke="#63b8ff" d="M130.19,-174.72C153.93,-179.54 180.66,-184.96 203.26,-189.55"/>
<polygon fill="#63b8ff" stroke="#63b8ff" points="131.14,-171.34 120.65,-172.79 129.75,-178.2 131.14,-171.34"/>
</a>
</g>
</g>
<!-- Node5 -->
<g id="Node000005" class="node">
<title>Node5</title>
<g id="a_Node000005"><a xlink:href="struct_g_l_e_s_c_1_1_e_c_s_1_1_light_component.html" target="_top" xlink:title=" ">
<polygon fill="white" stroke="#666666" points="331.62,-172 179.88,-172 179.88,-152 331.62,-152 331.62,-172"/>
<text text-anchor="middle" x="255.75" y="-158.5" font-family="Helvetica,sans-Serif" font-size="10.00">GLESC::ECS::LightComponent</text>
</a>
</g>
</g>
<!-- Node0&#45;&gt;Node5 -->
<g id="edge10_Node000000_Node000005" class="edge">
<title>Node0&#45;&gt;Node5</title>
<g id="a_edge10_Node000000_Node000005"><a xlink:title=" ">
<path fill="none" stroke="#63b8ff" d="M144.65,-162C156.18,-162 168.06,-162 179.55,-162"/>
<polygon fill="#63b8ff" stroke="#63b8ff" points="144.77,-158.5 134.77,-162 144.77,-165.5 144.77,-158.5"/>
</a>
</g>
</g>
<!-- Node6 -->
<g id="Node000006" class="node">
<title>Node6</title>
<g id="a_Node000006"><a xlink:href="struct_g_l_e_s_c_1_1_e_c_s_1_1_physics_component.html" target="_top" xlink:title=" ">
<polygon fill="white" stroke="#666666" points="338.75,-134 172.75,-134 172.75,-114 338.75,-114 338.75,-134"/>
<text text-anchor="middle" x="255.75" y="-120.5" font-family="Helvetica,sans-Serif" font-size="10.00">GLESC::ECS::PhysicsComponent</text>
</a>
</g>
</g>
<!-- Node0&#45;&gt;Node6 -->
<g id="edge11_Node000000_Node000006" class="edge">
<title>Node0&#45;&gt;Node6</title>
<g id="a_edge11_Node000000_Node000006"><a xlink:title=" ">
<path fill="none" stroke="#63b8ff" d="M130.19,-149.28C153.93,-144.46 180.66,-139.04 203.26,-134.45"/>
<polygon fill="#63b8ff" stroke="#63b8ff" points="129.75,-145.8 120.65,-151.21 131.14,-152.66 129.75,-145.8"/>
</a>
</g>
</g>
<!-- Node7 -->
<g id="Node000007" class="node">
<title>Node7</title>
<g id="a_Node000007"><a xlink:href="struct_g_l_e_s_c_1_1_e_c_s_1_1_render_component.html" target="_top" xlink:title=" ">
<polygon fill="white" stroke="#666666" points="336.5,-96 175,-96 175,-76 336.5,-76 336.5,-96"/>
<text text-anchor="middle" x="255.75" y="-82.5" font-family="Helvetica,sans-Serif" font-size="10.00">GLESC::ECS::RenderComponent</text>
</a>
</g>
</g>
<!-- Node0&#45;&gt;Node7 -->
<g id="edge12_Node000000_Node000007" class="edge">
<title>Node0&#45;&gt;Node7</title>
<g id="a_edge12_Node000000_Node000007"><a xlink:title=" ">
<path fill="none" stroke="#63b8ff" d="M92.16,-145.43C112.11,-132.7 141.35,-115.56 169,-105 177.83,-101.63 187.41,-98.77 196.87,-96.38"/>
<polygon fill="#63b8ff" stroke="#63b8ff" points="90.37,-142.41 83.89,-150.8 94.18,-148.28 90.37,-142.41"/>
</a>
</g>
</g>
<!-- Node8 -->
<g id="Node000008" class="node">
<title>Node8</title>
<g id="a_Node000008"><a xlink:href="class_g_l_e_s_c_1_1_e_c_s_1_1_sun_component.html" target="_top" xlink:title=" ">
<polygon fill="white" stroke="#666666" points="329.75,-58 181.75,-58 181.75,-38 329.75,-38 329.75,-58"/>
<text text-anchor="middle" x="255.75" y="-44.5" font-family="Helvetica,sans-Serif" font-size="10.00">GLESC::ECS::SunComponent</text>
</a>
</g>
</g>
<!-- Node0&#45;&gt;Node8 -->
<g id="edge13_Node000000_Node000008" class="edge">
<title>Node0&#45;&gt;Node8</title>
<g id="a_edge13_Node000000_Node000008"><a xlink:title=" ">
<path fill="none" stroke="#63b8ff" d="M82.48,-142.79C100.58,-120.96 133.11,-85.92 169,-67 175.47,-63.59 182.54,-60.79 189.74,-58.49"/>
<polygon fill="#63b8ff" stroke="#63b8ff" points="79.94,-140.36 76.38,-150.34 85.39,-144.76 79.94,-140.36"/>
</a>
</g>
</g>
<!-- Node9 -->
<g id="Node000009" class="node">
<title>Node9</title>
<g id="a_Node000009"><a xlink:href="struct_g_l_e_s_c_1_1_e_c_s_1_1_transform_component.html" target="_top" xlink:title=" ">
<polygon fill="white" stroke="#666666" points="342.5,-20 169,-20 169,0 342.5,0 342.5,-20"/>
<text text-anchor="middle" x="255.75" y="-6.5" font-family="Helvetica,sans-Serif" font-size="10.00">GLESC::ECS::TransformComponent</text>
</a>
</g>
</g>
<!-- Node0&#45;&gt;Node9 -->
<g id="edge14_Node000000_Node000009" class="edge">
<title>Node0&#45;&gt;Node9</title>
<g id="a_edge14_Node000000_Node000009"><a xlink:title=" ">
<path fill="none" stroke="#63b8ff" d="M77.15,-141.68C92.34,-112 124.72,-57.29 169,-29 174.4,-25.55 180.33,-22.72 186.48,-20.41"/>
<polygon fill="#63b8ff" stroke="#63b8ff" points="74.15,-139.84 72.85,-150.36 80.43,-142.95 74.15,-139.84"/>
</a>
</g>
</g>
</g>
</svg>
