<?xml version="1.0" encoding="UTF-8" standalone="no"?>
<!DOCTYPE svg PUBLIC "-//W3C//DTD SVG 1.1//EN"
 "http://www.w3.org/Graphics/SVG/1.1/DTD/svg11.dtd">
<!-- Generated by graphviz version 11.0.0 (20240428.1522)
 -->
<!-- Title: GLESC::Math::abs Pages: 1 -->
<svg width="635pt" height="416pt"
 viewBox="0.00 0.00 634.50 416.00" xmlns="http://www.w3.org/2000/svg" xmlns:xlink="http://www.w3.org/1999/xlink">
<g id="graph0" class="graph" transform="scale(1 1) rotate(0) translate(4 412)">
<title>GLESC::Math::abs</title>
<!-- Node1 -->
<g id="Node000001" class="node">
<title>Node1</title>
<g id="a_Node000001"><a xlink:title="Calculates the absolute value of a number.">
<polygon fill="#999999" stroke="#666666" points="626.5,-226 528,-226 528,-206 626.5,-206 626.5,-226"/>
<text text-anchor="middle" x="577.25" y="-212.5" font-family="Helvetica,sans-Serif" font-size="10.00">GLESC::Math::abs</text>
</a>
</g>
</g>
<!-- Node2 -->
<g id="Node000002" class="node">
<title>Node2</title>
<g id="a_Node000002"><a xlink:href="class_g_l_e_s_c_1_1_math_1_1_vector_algorithms.html#ab293a83186797c46b688d47b7cdcb4f4" target="_top" xlink:title="Computes the absolute value of a vector.">
<polygon fill="white" stroke="#666666" points="492,-408 312.5,-408 312.5,-388 492,-388 492,-408"/>
<text text-anchor="middle" x="402.25" y="-394.5" font-family="Helvetica,sans-Serif" font-size="10.00">GLESC::Math::VectorAlgorithms::abs</text>
</a>
</g>
</g>
<!-- Node1&#45;&gt;Node2 -->
<g id="edge1_Node000001_Node000002" class="edge">
<title>Node1&#45;&gt;Node2</title>
<g id="a_edge1_Node000001_Node000002"><a xlink:title=" ">
<path fill="none" stroke="#63b8ff" d="M571.5,-237.28C562.46,-272.57 539.33,-342.85 492,-379 487.49,-382.44 482.5,-385.29 477.24,-387.65"/>
<polygon fill="#63b8ff" stroke="#63b8ff" points="574.83,-238.39 573.77,-227.85 568.03,-236.75 574.83,-238.39"/>
</a>
</g>
</g>
<!-- Node4 -->
<g id="Node000004" class="node">
<title>Node4</title>
<g id="a_Node000004"><a xlink:href="class_g_l_e_s_c_1_1_math_1_1_vector_algorithms.html#abd445eb1a09f37b1dc51d28e9a7e6f28" target="_top" xlink:title="Checks if two vectors are parallel.">
<polygon fill="white" stroke="#666666" points="481.12,-370 323.38,-370 323.38,-338 481.12,-338 481.12,-370"/>
<text text-anchor="start" x="331.38" y="-356.5" font-family="Helvetica,sans-Serif" font-size="10.00">GLESC::Math::VectorAlgorithms</text>
<text text-anchor="middle" x="402.25" y="-344.5" font-family="Helvetica,sans-Serif" font-size="10.00">::areParallel</text>
</a>
</g>
</g>
<!-- Node1&#45;&gt;Node4 -->
<g id="edge3_Node000001_Node000004" class="edge">
<title>Node1&#45;&gt;Node4</title>
<g id="a_edge3_Node000001_Node000004"><a xlink:title=" ">
<path fill="none" stroke="#63b8ff" d="M566.5,-236.22C553.2,-261.67 526.95,-304.97 492,-329 487.25,-332.27 482.08,-335.11 476.71,-337.58"/>
<polygon fill="#63b8ff" stroke="#63b8ff" points="569.49,-238.07 570.87,-227.56 563.24,-234.92 569.49,-238.07"/>
</a>
</g>
</g>
<!-- Node7 -->
<g id="Node000007" class="node">
<title>Node7</title>
<g id="a_Node000007"><a xlink:href="namespace_g_l_e_s_c_1_1_math.html#af0637e3d0ce3a48661a6f8b07215e3c3" target="_top" xlink:title="Epsilon getter with precision of a given value.">
<polygon fill="white" stroke="#666666" points="459,-320 345.5,-320 345.5,-300 459,-300 459,-320"/>
<text text-anchor="middle" x="402.25" y="-306.5" font-family="Helvetica,sans-Serif" font-size="10.00">GLESC::Math::epsilon</text>
</a>
</g>
</g>
<!-- Node1&#45;&gt;Node7 -->
<g id="edge6_Node000001_Node000007" class="edge">
<title>Node1&#45;&gt;Node7</title>
<g id="a_edge6_Node000001_Node000007"><a xlink:title=" ">
<path fill="none" stroke="#63b8ff" d="M560.66,-234.56C545.07,-251.87 519.52,-277.05 492,-291 481.88,-296.13 470.43,-299.88 459.21,-302.61"/>
<polygon fill="#63b8ff" stroke="#63b8ff" points="562.91,-237.3 566.86,-227.47 557.65,-232.69 562.91,-237.3"/>
</a>
</g>
</g>
<!-- Node8 -->
<g id="Node000008" class="node">
<title>Node8</title>
<g id="a_Node000008"><a xlink:href="namespace_g_l_e_s_c_1_1_math.html#a514c8fd84566d9ba2d7b741cb7f7374f" target="_top" xlink:title="Generates a random number between min and max, specifically [min, max)">
<polygon fill="white" stroke="#666666" points="480.38,-282 324.12,-282 324.12,-250 480.38,-250 480.38,-282"/>
<text text-anchor="start" x="332.12" y="-268.5" font-family="Helvetica,sans-Serif" font-size="10.00">GLESC::Math::generateRandom</text>
<text text-anchor="middle" x="402.25" y="-256.5" font-family="Helvetica,sans-Serif" font-size="10.00">Number</text>
</a>
</g>
</g>
<!-- Node1&#45;&gt;Node8 -->
<g id="edge7_Node000001_Node000008" class="edge">
<title>Node1&#45;&gt;Node8</title>
<g id="a_edge7_Node000001_Node000008"><a xlink:title=" ">
<path fill="none" stroke="#63b8ff" d="M530.75,-229.63C518.2,-233.35 504.58,-237.36 492,-241 482.31,-243.8 472.02,-246.74 462,-249.57"/>
<polygon fill="#63b8ff" stroke="#63b8ff" points="531.4,-233.08 539.99,-226.88 529.41,-226.38 531.4,-233.08"/>
</a>
</g>
</g>
<!-- Node9 -->
<g id="Node000009" class="node">
<title>Node9</title>
<g id="a_Node000009"><a xlink:href="class_g_l_e_s_c_1_1_math_1_1_vector_algorithms.html#a404311d39e1e82c0ceef2a9c0e62d1fc" target="_top" xlink:title="Gets an orthogonal vector to the input vector.">
<polygon fill="white" stroke="#666666" points="481.12,-232 323.38,-232 323.38,-200 481.12,-200 481.12,-232"/>
<text text-anchor="start" x="331.38" y="-218.5" font-family="Helvetica,sans-Serif" font-size="10.00">GLESC::Math::VectorAlgorithms</text>
<text text-anchor="middle" x="402.25" y="-206.5" font-family="Helvetica,sans-Serif" font-size="10.00">::getOrthogonal</text>
</a>
</g>
</g>
<!-- Node1&#45;&gt;Node9 -->
<g id="edge8_Node000001_Node000009" class="edge">
<title>Node1&#45;&gt;Node9</title>
<g id="a_edge8_Node000001_Node000009"><a xlink:title=" ">
<path fill="none" stroke="#63b8ff" d="M516.16,-216C504.91,-216 493.01,-216 481.32,-216"/>
<polygon fill="#63b8ff" stroke="#63b8ff" points="516.09,-219.5 526.09,-216 516.09,-212.5 516.09,-219.5"/>
</a>
</g>
</g>
<!-- Node11 -->
<g id="Node000011" class="node">
<title>Node11</title>
<g id="a_Node000011"><a xlink:href="struct_g_l_e_s_c_1_1_transform_1_1_interpolator.html#ac421b853892d9700f61a4f55d6f5582e" target="_top" xlink:title="Interpolates between the current and the last transform.">
<polygon fill="white" stroke="#666666" points="478.12,-182 326.38,-182 326.38,-150 478.12,-150 478.12,-182"/>
<text text-anchor="start" x="334.38" y="-168.5" font-family="Helvetica,sans-Serif" font-size="10.00">GLESC::Transform::Interpolator</text>
<text text-anchor="middle" x="402.25" y="-156.5" font-family="Helvetica,sans-Serif" font-size="10.00">::interpolate</text>
</a>
</g>
</g>
<!-- Node1&#45;&gt;Node11 -->
<g id="edge10_Node000001_Node000011" class="edge">
<title>Node1&#45;&gt;Node11</title>
<g id="a_edge10_Node000001_Node000011"><a xlink:title=" ">
<path fill="none" stroke="#63b8ff" d="M530.75,-202.37C518.2,-198.65 504.58,-194.64 492,-191 482.31,-188.2 472.02,-185.26 462,-182.43"/>
<polygon fill="#63b8ff" stroke="#63b8ff" points="529.41,-205.62 539.99,-205.12 531.4,-198.92 529.41,-205.62"/>
</a>
</g>
</g>
<!-- Node12 -->
<g id="Node000012" class="node">
<title>Node12</title>
<g id="a_Node000012"><a xlink:href="class_g_l_e_s_c_1_1_math_1_1_plane.html#adf3a9613b3c7820418e363fa2d2e7449" target="_top" xlink:title="Checks if the plane intersects with a given line.">
<polygon fill="white" stroke="#666666" points="456,-132 348.5,-132 348.5,-100 456,-100 456,-132"/>
<text text-anchor="start" x="356.5" y="-118.5" font-family="Helvetica,sans-Serif" font-size="10.00">GLESC::Math::Plane</text>
<text text-anchor="middle" x="402.25" y="-106.5" font-family="Helvetica,sans-Serif" font-size="10.00">::intersects</text>
</a>
</g>
</g>
<!-- Node1&#45;&gt;Node12 -->
<g id="edge11_Node000001_Node000012" class="edge">
<title>Node1&#45;&gt;Node12</title>
<g id="a_edge11_Node000001_Node000012"><a xlink:title=" ">
<path fill="none" stroke="#63b8ff" d="M560.2,-197.55C544.44,-180.53 518.91,-155.74 492,-141 481.05,-135 468.53,-130.34 456.42,-126.75"/>
<polygon fill="#63b8ff" stroke="#63b8ff" points="557.19,-199.44 566.49,-204.52 562.39,-194.75 557.19,-199.44"/>
</a>
</g>
</g>
<!-- Node13 -->
<g id="Node000013" class="node">
<title>Node13</title>
<g id="a_Node000013"><a xlink:href="class_g_l_e_s_c_1_1_math_1_1_polyhedron_face.html#acda5c36a9dc475202153436369828d53" target="_top" xlink:title="Checks if the face intersects with a given line.">
<polygon fill="white" stroke="#666666" points="478.88,-82 325.62,-82 325.62,-50 478.88,-50 478.88,-82"/>
<text text-anchor="start" x="333.62" y="-68.5" font-family="Helvetica,sans-Serif" font-size="10.00">GLESC::Math::PolyhedronFace</text>
<text text-anchor="middle" x="402.25" y="-56.5" font-family="Helvetica,sans-Serif" font-size="10.00">::intersects</text>
</a>
</g>
</g>
<!-- Node1&#45;&gt;Node13 -->
<g id="edge12_Node000001_Node000013" class="edge">
<title>Node1&#45;&gt;Node13</title>
<g id="a_edge12_Node000001_Node000013"><a xlink:title=" ">
<path fill="none" stroke="#63b8ff" d="M567.8,-195.27C555.37,-167.37 529.48,-118.11 492,-91 487.46,-87.72 482.5,-84.86 477.33,-82.39"/>
<polygon fill="#63b8ff" stroke="#63b8ff" points="564.56,-196.59 571.71,-204.4 570.99,-193.83 564.56,-196.59"/>
</a>
</g>
</g>
<!-- Node14 -->
<g id="Node000014" class="node">
<title>Node14</title>
<g id="a_Node000014"><a xlink:href="struct_g_l_e_s_c_1_1_transform_1_1_interpolator.html#a594cf0ebd253815096437cfbbe2a8d9f" target="_top" xlink:title="Pushes a new transform to the interpolator.">
<polygon fill="white" stroke="#666666" points="478.12,-32 326.38,-32 326.38,0 478.12,0 478.12,-32"/>
<text text-anchor="start" x="334.38" y="-18.5" font-family="Helvetica,sans-Serif" font-size="10.00">GLESC::Transform::Interpolator</text>
<text text-anchor="middle" x="402.25" y="-6.5" font-family="Helvetica,sans-Serif" font-size="10.00">::pushTransform</text>
</a>
</g>
</g>
<!-- Node1&#45;&gt;Node14 -->
<g id="edge13_Node000001_Node000014" class="edge">
<title>Node1&#45;&gt;Node14</title>
<g id="a_edge13_Node000001_Node000014"><a xlink:title=" ">
<path fill="none" stroke="#63b8ff" d="M572.07,-195.07C563.61,-158.29 540.96,-82.1 492,-41 487.83,-37.5 483.2,-34.49 478.32,-31.9"/>
<polygon fill="#63b8ff" stroke="#63b8ff" points="568.56,-195.4 574.09,-204.44 575.4,-193.93 568.56,-195.4"/>
</a>
</g>
</g>
<!-- Node3 -->
<g id="Node000003" class="node">
<title>Node3</title>
<g id="a_Node000003"><a xlink:href="class_g_l_e_s_c_1_1_math_1_1_vector.html#a14db8da1bd8d2dfa3fd6c32b30f978b0" target="_top" xlink:title="Returns the absolute value of the vector.">
<polygon fill="white" stroke="#666666" points="276.5,-408 143.5,-408 143.5,-388 276.5,-388 276.5,-408"/>
<text text-anchor="middle" x="210" y="-394.5" font-family="Helvetica,sans-Serif" font-size="10.00">GLESC::Math::Vector::abs</text>
</a>
</g>
</g>
<!-- Node2&#45;&gt;Node3 -->
<g id="edge2_Node000002_Node000003" class="edge">
<title>Node2&#45;&gt;Node3</title>
<g id="a_edge2_Node000002_Node000003"><a xlink:title=" ">
<path fill="none" stroke="#63b8ff" d="M300.81,-398C292.72,-398 284.68,-398 276.93,-398"/>
<polygon fill="#63b8ff" stroke="#63b8ff" points="300.74,-401.5 310.74,-398 300.74,-394.5 300.74,-401.5"/>
</a>
</g>
</g>
<!-- Node5 -->
<g id="Node000005" class="node">
<title>Node5</title>
<g id="a_Node000005"><a xlink:href="class_g_l_e_s_c_1_1_math_1_1_vector.html#a04bde0db0fa6c404f5c9e1d6c0901c9a" target="_top" xlink:title="Checks if the vector is parallel to another vector.">
<polygon fill="white" stroke="#666666" points="265.62,-370 154.38,-370 154.38,-338 265.62,-338 265.62,-370"/>
<text text-anchor="start" x="162.38" y="-356.5" font-family="Helvetica,sans-Serif" font-size="10.00">GLESC::Math::Vector</text>
<text text-anchor="middle" x="210" y="-344.5" font-family="Helvetica,sans-Serif" font-size="10.00">::isParallel</text>
</a>
</g>
</g>
<!-- Node4&#45;&gt;Node5 -->
<g id="edge4_Node000004_Node000005" class="edge">
<title>Node4&#45;&gt;Node5</title>
<g id="a_edge4_Node000004_Node000005"><a xlink:title=" ">
<path fill="none" stroke="#63b8ff" d="M311.73,-354C296.11,-354 280.29,-354 265.96,-354"/>
<polygon fill="#63b8ff" stroke="#63b8ff" points="311.53,-357.5 321.53,-354 311.53,-350.5 311.53,-357.5"/>
</a>
</g>
</g>
<!-- Node6 -->
<g id="Node000006" class="node">
<title>Node6</title>
<g id="a_Node000006"><a xlink:href="class_g_l_e_s_c_1_1_math_1_1_plane.html#a7ff29d08e781e1368153ec76635df34d" target="_top" xlink:title=" ">
<polygon fill="white" stroke="#666666" points="107.5,-370 0,-370 0,-338 107.5,-338 107.5,-370"/>
<text text-anchor="start" x="8" y="-356.5" font-family="Helvetica,sans-Serif" font-size="10.00">GLESC::Math::Plane</text>
<text text-anchor="middle" x="53.75" y="-344.5" font-family="Helvetica,sans-Serif" font-size="10.00">::intersects</text>
</a>
</g>
</g>
<!-- Node5&#45;&gt;Node6 -->
<g id="edge5_Node000005_Node000006" class="edge">
<title>Node5&#45;&gt;Node6</title>
<g id="a_edge5_Node000005_Node000006"><a xlink:title=" ">
<path fill="none" stroke="#63b8ff" d="M142.69,-354C131.04,-354 119.06,-354 107.84,-354"/>
<polygon fill="#63b8ff" stroke="#63b8ff" points="142.67,-357.5 152.67,-354 142.67,-350.5 142.67,-357.5"/>
</a>
</g>
</g>
<!-- Node10 -->
<g id="Node000010" class="node">
<title>Node10</title>
<g id="a_Node000010"><a xlink:href="class_g_l_e_s_c_1_1_math_1_1_vector.html#ac5484e71065fd5a499e3fc951a3d8261" target="_top" xlink:title="Get an orthogonal (or perpendicular) vector.">
<polygon fill="white" stroke="#666666" points="265.62,-232 154.38,-232 154.38,-200 265.62,-200 265.62,-232"/>
<text text-anchor="start" x="162.38" y="-218.5" font-family="Helvetica,sans-Serif" font-size="10.00">GLESC::Math::Vector</text>
<text text-anchor="middle" x="210" y="-206.5" font-family="Helvetica,sans-Serif" font-size="10.00">::getOrthogonal</text>
</a>
</g>
</g>
<!-- Node9&#45;&gt;Node10 -->
<g id="edge9_Node000009_Node000010" class="edge">
<title>Node9&#45;&gt;Node10</title>
<g id="a_edge9_Node000009_Node000010"><a xlink:title=" ">
<path fill="none" stroke="#63b8ff" d="M311.73,-216C296.11,-216 280.29,-216 265.96,-216"/>
<polygon fill="#63b8ff" stroke="#63b8ff" points="311.53,-219.5 321.53,-216 311.53,-212.5 311.53,-219.5"/>
</a>
</g>
</g>
</g>
</svg>
