<?xml version="1.0" encoding="UTF-8" standalone="no"?>
<!DOCTYPE svg PUBLIC "-//W3C//DTD SVG 1.1//EN"
 "http://www.w3.org/Graphics/SVG/1.1/DTD/svg11.dtd">
<!-- Generated by graphviz version 11.0.0 (20240428.1522)
 -->
<!-- Title: GLESC::Math::lerp Pages: 1 -->
<svg width="635pt" height="40pt"
 viewBox="0.00 0.00 635.25 40.00" xmlns="http://www.w3.org/2000/svg" xmlns:xlink="http://www.w3.org/1999/xlink">
<g id="graph0" class="graph" transform="scale(1 1) rotate(0) translate(4 36)">
<title>GLESC::Math::lerp</title>
<!-- Node1 -->
<g id="Node000001" class="node">
<title>Node1</title>
<g id="a_Node000001"><a xlink:title="Linear interpolation between two values.">
<polygon fill="#999999" stroke="#666666" points="627.25,-26 528.75,-26 528.75,-6 627.25,-6 627.25,-26"/>
<text text-anchor="middle" x="578" y="-12.5" font-family="Helvetica,sans-Serif" font-size="10.00">GLESC::Math::lerp</text>
</a>
</g>
</g>
<!-- Node2 -->
<g id="Node000002" class="node">
<title>Node2</title>
<g id="a_Node000002"><a xlink:href="class_g_l_e_s_c_1_1_math_1_1_vector_algorithms.html#a5c4d9fdbfe7c5f3af132b3fdf3f1cb10" target="_top" xlink:title=" ">
<polygon fill="white" stroke="#666666" points="492.75,-32 335,-32 335,0 492.75,0 492.75,-32"/>
<text text-anchor="start" x="343" y="-18.5" font-family="Helvetica,sans-Serif" font-size="10.00">GLESC::Math::VectorAlgorithms</text>
<text text-anchor="middle" x="413.88" y="-6.5" font-family="Helvetica,sans-Serif" font-size="10.00">::lerp</text>
</a>
</g>
</g>
<!-- Node1&#45;&gt;Node2 -->
<g id="edge1_Node000001_Node000002" class="edge">
<title>Node1&#45;&gt;Node2</title>
<g id="a_edge1_Node000001_Node000002"><a xlink:title=" ">
<path fill="none" stroke="#63b8ff" d="M516.88,-16C509.16,-16 501.16,-16 493.2,-16"/>
<polygon fill="#63b8ff" stroke="#63b8ff" points="516.84,-19.5 526.84,-16 516.84,-12.5 516.84,-19.5"/>
</a>
</g>
</g>
<!-- Node3 -->
<g id="Node000003" class="node">
<title>Node3</title>
<g id="a_Node000003"><a xlink:href="class_g_l_e_s_c_1_1_math_1_1_vector.html#af661cb085e94983b27190b5e728eb103" target="_top" xlink:title="Calculates the linear interpolation between two vectors using a factor.">
<polygon fill="white" stroke="#666666" points="299,-32 187.75,-32 187.75,0 299,0 299,-32"/>
<text text-anchor="start" x="195.75" y="-18.5" font-family="Helvetica,sans-Serif" font-size="10.00">GLESC::Math::Vector</text>
<text text-anchor="middle" x="243.38" y="-6.5" font-family="Helvetica,sans-Serif" font-size="10.00">::lerp</text>
</a>
</g>
</g>
<!-- Node2&#45;&gt;Node3 -->
<g id="edge2_Node000002_Node000003" class="edge">
<title>Node2&#45;&gt;Node3</title>
<g id="a_edge2_Node000002_Node000003"><a xlink:title=" ">
<path fill="none" stroke="#63b8ff" d="M323.13,-16C315.07,-16 307.07,-16 299.44,-16"/>
<polygon fill="#63b8ff" stroke="#63b8ff" points="323.03,-19.5 333.03,-16 323.03,-12.5 323.03,-19.5"/>
</a>
</g>
</g>
<!-- Node4 -->
<g id="Node000004" class="node">
<title>Node4</title>
<g id="a_Node000004"><a xlink:href="struct_g_l_e_s_c_1_1_transform_1_1_interpolator.html#ac421b853892d9700f61a4f55d6f5582e" target="_top" xlink:title="Interpolates between the current and the last transform.">
<polygon fill="white" stroke="#666666" points="151.75,-32 0,-32 0,0 151.75,0 151.75,-32"/>
<text text-anchor="start" x="8" y="-18.5" font-family="Helvetica,sans-Serif" font-size="10.00">GLESC::Transform::Interpolator</text>
<text text-anchor="middle" x="75.88" y="-6.5" font-family="Helvetica,sans-Serif" font-size="10.00">::interpolate</text>
</a>
</g>
</g>
<!-- Node3&#45;&gt;Node4 -->
<g id="edge3_Node000003_Node000004" class="edge">
<title>Node3&#45;&gt;Node4</title>
<g id="a_edge3_Node000003_Node000004"><a xlink:title=" ">
<path fill="none" stroke="#63b8ff" d="M175.94,-16C168.09,-16 160.04,-16 152.07,-16"/>
<polygon fill="#63b8ff" stroke="#63b8ff" points="175.75,-19.5 185.75,-16 175.75,-12.5 175.75,-19.5"/>
</a>
</g>
</g>
</g>
</svg>
