<?xml version="1.0" encoding="UTF-8" standalone="no"?>
<!DOCTYPE svg PUBLIC "-//W3C//DTD SVG 1.1//EN"
 "http://www.w3.org/Graphics/SVG/1.1/DTD/svg11.dtd">
<!-- Generated by graphviz version 11.0.0 (20240428.1522)
 -->
<!-- Title: GLESC::PolyhedronFactory::Regular::icos Pages: 1 -->
<svg width="312pt" height="78pt"
 viewBox="0.00 0.00 312.25 78.00" xmlns="http://www.w3.org/2000/svg" xmlns:xlink="http://www.w3.org/1999/xlink">
<g id="graph0" class="graph" transform="scale(1 1) rotate(0) translate(4 74)">
<title>GLESC::PolyhedronFactory::Regular::icos</title>
<!-- Node1 -->
<g id="Node000001" class="node">
<title>Node1</title>
<g id="a_Node000001"><a xlink:title="Regular polyhedron with 20 faces (icosahedron, all faces are triangles, looks like a 20 side dice in ...">
<polygon fill="#999999" stroke="#666666" points="136.75,-48 0,-48 0,-16 136.75,-16 136.75,-48"/>
<text text-anchor="start" x="8" y="-34.5" font-family="Helvetica,sans-Serif" font-size="10.00">GLESC::PolyhedronFactory</text>
<text text-anchor="middle" x="68.38" y="-22.5" font-family="Helvetica,sans-Serif" font-size="10.00">::Regular::icos</text>
</a>
</g>
</g>
<!-- Node2 -->
<g id="Node000002" class="node">
<title>Node2</title>
<g id="a_Node000002"><a xlink:href="class_g_l_e_s_c_1_1_math_1_1_polyhedron.html#a2faf49b75c093f68fad7ff9ab5d35510" target="_top" xlink:title="Add a vertex to the polyhedron.">
<polygon fill="white" stroke="#666666" points="304.25,-70 172.75,-70 172.75,-38 304.25,-38 304.25,-70"/>
<text text-anchor="start" x="180.75" y="-56.5" font-family="Helvetica,sans-Serif" font-size="10.00">GLESC::Math::Polyhedron</text>
<text text-anchor="middle" x="238.5" y="-44.5" font-family="Helvetica,sans-Serif" font-size="10.00">::addVertex</text>
</a>
</g>
</g>
<!-- Node1&#45;&gt;Node2 -->
<g id="edge1_Node000001_Node000002" class="edge">
<title>Node1&#45;&gt;Node2</title>
<g id="a_edge1_Node000001_Node000002"><a xlink:title=" ">
<path fill="none" stroke="#63b8ff" d="M136.79,-40.82C144.74,-41.86 152.89,-42.93 160.95,-43.98"/>
<polygon fill="#63b8ff" stroke="#63b8ff" points="160.39,-47.44 170.76,-45.27 161.3,-40.5 160.39,-47.44"/>
</a>
</g>
</g>
<!-- Node3 -->
<g id="Node000003" class="node">
<title>Node3</title>
<g id="a_Node000003"><a xlink:href="namespace_g_l_e_s_c_1_1_math.html#ab2316a2512c43c18e29709201adf3fe5" target="_top" xlink:title="Calculates the square root of a value.">
<polygon fill="white" stroke="#666666" points="288.12,-20 188.88,-20 188.88,0 288.12,0 288.12,-20"/>
<text text-anchor="middle" x="238.5" y="-6.5" font-family="Helvetica,sans-Serif" font-size="10.00">GLESC::Math::sqrt</text>
</a>
</g>
</g>
<!-- Node1&#45;&gt;Node3 -->
<g id="edge2_Node000001_Node000003" class="edge">
<title>Node1&#45;&gt;Node3</title>
<g id="a_edge2_Node000001_Node000003"><a xlink:title=" ">
<path fill="none" stroke="#63b8ff" d="M136.79,-23.18C150.14,-21.43 164.08,-19.61 177.18,-17.89"/>
<polygon fill="#63b8ff" stroke="#63b8ff" points="177.48,-21.38 186.94,-16.62 176.57,-14.44 177.48,-21.38"/>
</a>
</g>
</g>
</g>
</svg>
