<?xml version="1.0" encoding="UTF-8" standalone="no"?>
<!DOCTYPE svg PUBLIC "-//W3C//DTD SVG 1.1//EN"
 "http://www.w3.org/Graphics/SVG/1.1/DTD/svg11.dtd">
<!-- Generated by graphviz version 11.0.0 (20240428.1522)
 -->
<!-- Title: GLESC::Physics::getVelocityWithFriction Pages: 1 -->
<svg width="321pt" height="90pt"
 viewBox="0.00 0.00 320.50 90.00" xmlns="http://www.w3.org/2000/svg" xmlns:xlink="http://www.w3.org/1999/xlink">
<g id="graph0" class="graph" transform="scale(1 1) rotate(0) translate(4 86)">
<title>GLESC::Physics::getVelocityWithFriction</title>
<!-- Node1 -->
<g id="Node000001" class="node">
<title>Node1</title>
<g id="a_Node000001"><a xlink:title=" ">
<polygon fill="#999999" stroke="#666666" points="145,-57 0,-57 0,-25 145,-25 145,-57"/>
<text text-anchor="start" x="8" y="-43.5" font-family="Helvetica,sans-Serif" font-size="10.00">GLESC::Physics::getVelocity</text>
<text text-anchor="middle" x="72.5" y="-31.5" font-family="Helvetica,sans-Serif" font-size="10.00">WithFriction</text>
</a>
</g>
</g>
<!-- Node2 -->
<g id="Node000002" class="node">
<title>Node2</title>
<g id="a_Node000002"><a xlink:href="class_g_l_e_s_c_1_1_physics_1_1_physics.html#a257a1a4ed7427558c6306e175f173e41" target="_top" xlink:title=" ">
<polygon fill="white" stroke="#666666" points="312.5,-82 181,-82 181,-50 312.5,-50 312.5,-82"/>
<text text-anchor="start" x="189" y="-68.5" font-family="Helvetica,sans-Serif" font-size="10.00">GLESC::Physics::Physics</text>
<text text-anchor="middle" x="246.75" y="-56.5" font-family="Helvetica,sans-Serif" font-size="10.00">::getFriction</text>
</a>
</g>
</g>
<!-- Node1&#45;&gt;Node2 -->
<g id="edge1_Node000001_Node000002" class="edge">
<title>Node1&#45;&gt;Node2</title>
<g id="a_edge1_Node000001_Node000002"><a xlink:title=" ">
<path fill="none" stroke="#63b8ff" d="M145.05,-51.39C153.09,-52.55 161.31,-53.74 169.41,-54.92"/>
<polygon fill="#63b8ff" stroke="#63b8ff" points="168.86,-58.38 179.25,-56.35 169.86,-51.45 168.86,-58.38"/>
</a>
</g>
</g>
<!-- Node3 -->
<g id="Node000003" class="node">
<title>Node3</title>
<g id="a_Node000003"><a xlink:href="class_g_l_e_s_c_1_1_physics_1_1_physics.html#aeed383c88b7de8cd6711a4ee390516f1" target="_top" xlink:title=" ">
<polygon fill="white" stroke="#666666" points="312.5,-32 181,-32 181,0 312.5,0 312.5,-32"/>
<text text-anchor="start" x="189" y="-18.5" font-family="Helvetica,sans-Serif" font-size="10.00">GLESC::Physics::Physics</text>
<text text-anchor="middle" x="246.75" y="-6.5" font-family="Helvetica,sans-Serif" font-size="10.00">::getVelocity</text>
</a>
</g>
</g>
<!-- Node1&#45;&gt;Node3 -->
<g id="edge2_Node000001_Node000003" class="edge">
<title>Node1&#45;&gt;Node3</title>
<g id="a_edge2_Node000001_Node000003"><a xlink:title=" ">
<path fill="none" stroke="#63b8ff" d="M145.05,-30.61C153.09,-29.45 161.31,-28.26 169.41,-27.08"/>
<polygon fill="#63b8ff" stroke="#63b8ff" points="169.86,-30.55 179.25,-25.65 168.86,-23.62 169.86,-30.55"/>
</a>
</g>
</g>
</g>
</svg>
