<?xml version="1.0" encoding="UTF-8" standalone="no"?>
<!DOCTYPE svg PUBLIC "-//W3C//DTD SVG 1.1//EN"
 "http://www.w3.org/Graphics/SVG/1.1/DTD/svg11.dtd">
<!-- Generated by graphviz version 11.0.0 (20240428.1522)
 -->
<!-- Title: GLESC::Physics::getAxisFree Pages: 1 -->
<!--zoomable 178 -->

<svg id="main" version="1.1" xmlns="http://www.w3.org/2000/svg" xmlns:xlink="http://www.w3.org/1999/xlink" xml:space="preserve" onload="init(evt)">
<style type="text/css"><![CDATA[
.node, .edge {opacity: 0.7;}
.node.selected, .edge.selected {opacity: 1;}
.edge:hover path { stroke: red; }
.edge:hover polygon { stroke: red; fill: red; }
]]></style>

<defs>
  <circle id="rim" cx="0" cy="0" r="7"/>
  <circle id="rim2" cx="0" cy="0" r="3.5"/>
  <g id="zoomPlus">
    <use xlink:href="#rim" fill="#404040"><set attributeName="fill" to="#808080" begin="zoomplus.mouseover" end="zoomplus.mouseout"/></use>
    <path d="M-4,0h8M0,-4v8" fill="none" stroke="white" stroke-width="1.5" pointer-events="none"/>
  </g>
  <g id="zoomMin">
    <use xlink:href="#rim" fill="#404040"><set attributeName="fill" to="#808080" begin="zoomminus.mouseover" end="zoomminus.mouseout"/></use>
    <path d="M-4,0h8" fill="none" stroke="white" stroke-width="1.5" pointer-events="none"/>
  </g>
  <g id="arrowUp" transform="translate(30 24)">
    <use xlink:href="#rim"/>
    <path pointer-events="none" fill="none" stroke="white" stroke-width="1.5" d="M0,-3.0v7 M-2.5,-0.5L0,-3.0L2.5,-0.5"/>
  </g>
  <g id="arrowRight" transform="rotate(90) translate(36 -43)">
    <use xlink:href="#rim"/>
    <path pointer-events="none" fill="none" stroke="white" stroke-width="1.5" d="M0,-3.0v7 M-2.5,-0.5L0,-3.0L2.5,-0.5"/>
  </g>
  <g id="arrowDown" transform="rotate(180) translate(-30 -48)">
    <use xlink:href="#rim"/>
    <path pointer-events="none" fill="none" stroke="white" stroke-width="1.5" d="M0,-3.0v7 M-2.5,-0.5L0,-3.0L2.5,-0.5"/>
  </g>
  <g id="arrowLeft" transform="rotate(270) translate(-36 17)">
    <use xlink:href="#rim"/>
    <path pointer-events="none" fill="none" stroke="white" stroke-width="1.5" d="M0,-3.0v7 M-2.5,-0.5L0,-3.0L2.5,-0.5"/>
  </g>
  <g id="resetDef">
    <use xlink:href="#rim2" fill="#404040"><set attributeName="fill" to="#808080" begin="reset.mouseover" end="reset.mouseout"/></use>
  </g>
</defs>
<script type="application/ecmascript">
var viewWidth = 617;
var viewHeight = 178;
var sectionId = 'dynsection-0';
</script>
<script type="application/ecmascript" xlink:href="svg.min.js"/>
<svg id="graph" class="graph">
<g id="viewport">
<title>GLESC::Physics::getAxisFree</title>
<!-- Node1 -->
<g id="Node000001" class="node">
<title>Node1</title>
<g id="a_Node000001"><a xlink:title=" ">
<polygon fill="#999999" stroke="#666666" points="148.75,-80 0,-80 0,-60 148.75,-60 148.75,-80"/>
<text text-anchor="middle" x="74.38" y="-66.5" font-family="Helvetica,sans-Serif" font-size="10.00">GLESC::Physics::getAxisFree</text>
</a>
</g>
</g>
<!-- Node2 -->
<g id="Node000002" class="node">
<title>Node2</title>
<g id="a_Node000002"><a xlink:href="class_g_l_e_s_c_1_1_physics_1_1_collision_information.html#af5c2ae7ab555c00ca7133119949532cc" target="_top" xlink:title=" ">
<polygon fill="white" stroke="#666666" points="329.75,-170 184.75,-170 184.75,-126 329.75,-126 329.75,-170"/>
<text text-anchor="start" x="192.75" y="-156.5" font-family="Helvetica,sans-Serif" font-size="10.00">GLESC::Physics::Collision</text>
<text text-anchor="start" x="192.75" y="-144.5" font-family="Helvetica,sans-Serif" font-size="10.00">Information::getCollisionDepth</text>
<text text-anchor="middle" x="257.25" y="-132.5" font-family="Helvetica,sans-Serif" font-size="10.00">ForAxis</text>
</a>
</g>
</g>
<!-- Node1&#45;&gt;Node2 -->
<g id="edge1_Node000001_Node000002" class="edge">
<title>Node1&#45;&gt;Node2</title>
<g id="a_edge1_Node000001_Node000002"><a xlink:title=" ">
<path fill="none" stroke="#63b8ff" d="M99.39,-80.36C123.41,-90.72 161.36,-107.08 193.92,-121.12"/>
<polygon fill="#63b8ff" stroke="#63b8ff" points="192.32,-124.24 202.88,-124.99 195.09,-117.81 192.32,-124.24"/>
</a>
</g>
</g>
<!-- Node3 -->
<g id="Node000003" class="node">
<title>Node3</title>
<g id="a_Node000003"><a xlink:href="class_g_l_e_s_c_1_1_physics_1_1_collider.html#a9c1db7727e33aef995260c528bd4a7e9" target="_top" xlink:title=" ">
<polygon fill="white" stroke="#666666" points="321.5,-108 193,-108 193,-76 321.5,-76 321.5,-108"/>
<text text-anchor="start" x="201" y="-94.5" font-family="Helvetica,sans-Serif" font-size="10.00">GLESC::Physics::Collider</text>
<text text-anchor="middle" x="257.25" y="-82.5" font-family="Helvetica,sans-Serif" font-size="10.00">::getCollisionInformation</text>
</a>
</g>
</g>
<!-- Node1&#45;&gt;Node3 -->
<g id="edge2_Node000001_Node000003" class="edge">
<title>Node1&#45;&gt;Node3</title>
<g id="a_edge2_Node000001_Node000003"><a xlink:title=" ">
<path fill="none" stroke="#63b8ff" d="M149.2,-78.98C159.75,-80.26 170.61,-81.58 181.18,-82.87"/>
<polygon fill="#63b8ff" stroke="#63b8ff" points="180.65,-86.33 191,-84.06 181.5,-79.38 180.65,-86.33"/>
</a>
</g>
</g>
<!-- Node4 -->
<g id="Node000004" class="node">
<title>Node4</title>
<g id="a_Node000004"><a xlink:href="namespace_g_l_e_s_c_1_1_math.html#a10dbf93b680c41ae82ff63e1df6dc114" target="_top" xlink:title="Compares two values for greater than.">
<polygon fill="white" stroke="#666666" points="302.75,-58 211.75,-58 211.75,-38 302.75,-38 302.75,-58"/>
<text text-anchor="middle" x="257.25" y="-44.5" font-family="Helvetica,sans-Serif" font-size="10.00">GLESC::Math::gt</text>
</a>
</g>
</g>
<!-- Node1&#45;&gt;Node4 -->
<g id="edge3_Node000001_Node000004" class="edge">
<title>Node1&#45;&gt;Node4</title>
<g id="a_edge3_Node000001_Node000004"><a xlink:title=" ">
<path fill="none" stroke="#63b8ff" d="M149.2,-61.02C166.18,-58.95 183.97,-56.79 200.06,-54.83"/>
<polygon fill="#63b8ff" stroke="#63b8ff" points="200.43,-58.31 209.94,-53.63 199.59,-51.37 200.43,-58.31"/>
</a>
</g>
</g>
<!-- Node7 -->
<g id="Node000007" class="node">
<title>Node7</title>
<g id="a_Node000007"><a xlink:href="namespace_g_l_e_s_c_1_1_math.html#a071e4c2a3c88d498f7a789a794585f45" target="_top" xlink:title="Compares two values for less than.">
<polygon fill="white" stroke="#666666" points="301.25,-20 213.25,-20 213.25,0 301.25,0 301.25,-20"/>
<text text-anchor="middle" x="257.25" y="-6.5" font-family="Helvetica,sans-Serif" font-size="10.00">GLESC::Math::lt</text>
</a>
</g>
</g>
<!-- Node1&#45;&gt;Node7 -->
<g id="edge7_Node000001_Node000007" class="edge">
<title>Node1&#45;&gt;Node7</title>
<g id="a_edge7_Node000001_Node000007"><a xlink:title=" ">
<path fill="none" stroke="#63b8ff" d="M100.76,-59.67C122.77,-50.91 155.58,-38.32 184.75,-29 190.64,-27.12 196.84,-25.27 203.03,-23.52"/>
<polygon fill="#63b8ff" stroke="#63b8ff" points="203.92,-26.9 212.62,-20.87 202.05,-20.16 203.92,-26.9"/>
</a>
</g>
</g>
<!-- Node5 -->
<g id="Node000005" class="node">
<title>Node5</title>
<g id="a_Node000005"><a xlink:href="namespace_g_l_e_s_c_1_1_math.html#acd429163efe906cd22916cc75ccb2421" target="_top" xlink:title="Epsilon getter with precision of a given template type.">
<polygon fill="white" stroke="#666666" points="608.5,-39 495,-39 495,-19 608.5,-19 608.5,-39"/>
<text text-anchor="middle" x="551.75" y="-25.5" font-family="Helvetica,sans-Serif" font-size="10.00">GLESC::Math::epsilon</text>
</a>
</g>
</g>
<!-- Node4&#45;&gt;Node5 -->
<g id="edge4_Node000004_Node000005" class="edge">
<title>Node4&#45;&gt;Node5</title>
<g id="a_edge4_Node000004_Node000005"><a xlink:title=" ">
<path fill="none" stroke="#63b8ff" d="M303.03,-50.61C343.81,-52.36 405.61,-53.47 459,-48 471.89,-46.68 485.64,-44.34 498.47,-41.75"/>
<polygon fill="#63b8ff" stroke="#63b8ff" points="498.93,-45.23 507.99,-39.73 497.48,-38.38 498.93,-45.23"/>
</a>
</g>
</g>
<!-- Node6 -->
<g id="Node000006" class="node">
<title>Node6</title>
<g id="a_Node000006"><a xlink:href="namespace_g_l_e_s_c_1_1_math.html#aee25910dbba06d09d9df14d03933ace1" target="_top" xlink:title="Compares two values for equality.">
<polygon fill="white" stroke="#666666" points="459,-39 365.75,-39 365.75,-19 459,-19 459,-39"/>
<text text-anchor="middle" x="412.38" y="-25.5" font-family="Helvetica,sans-Serif" font-size="10.00">GLESC::Math::eq</text>
</a>
</g>
</g>
<!-- Node4&#45;&gt;Node6 -->
<g id="edge5_Node000004_Node000006" class="edge">
<title>Node4&#45;&gt;Node6</title>
<g id="a_edge5_Node000004_Node000006"><a xlink:title=" ">
<path fill="none" stroke="#63b8ff" d="M302.95,-42.45C318.87,-40.48 337.03,-38.22 353.88,-36.13"/>
<polygon fill="#63b8ff" stroke="#63b8ff" points="354.29,-39.61 363.79,-34.9 353.43,-32.66 354.29,-39.61"/>
</a>
</g>
</g>
<!-- Node6&#45;&gt;Node5 -->
<g id="edge6_Node000006_Node000005" class="edge">
<title>Node6&#45;&gt;Node5</title>
<g id="a_edge6_Node000006_Node000005"><a xlink:title=" ">
<path fill="none" stroke="#63b8ff" d="M459.12,-29C466.86,-29 475.05,-29 483.21,-29"/>
<polygon fill="#63b8ff" stroke="#63b8ff" points="483.18,-32.5 493.18,-29 483.18,-25.5 483.18,-32.5"/>
</a>
</g>
</g>
<!-- Node7&#45;&gt;Node5 -->
<g id="edge8_Node000007_Node000005" class="edge">
<title>Node7&#45;&gt;Node5</title>
<g id="a_edge8_Node000007_Node000005"><a xlink:title=" ">
<path fill="none" stroke="#63b8ff" d="M301.46,-7.46C342.2,-5.67 404.91,-4.46 459,-10 471.89,-11.32 485.64,-13.66 498.47,-16.25"/>
<polygon fill="#63b8ff" stroke="#63b8ff" points="497.48,-19.62 507.99,-18.27 498.93,-12.77 497.48,-19.62"/>
</a>
</g>
</g>
<!-- Node7&#45;&gt;Node6 -->
<g id="edge9_Node000007_Node000006" class="edge">
<title>Node7&#45;&gt;Node6</title>
<g id="a_edge9_Node000007_Node000006"><a xlink:title=" ">
<path fill="none" stroke="#63b8ff" d="M301.72,-15.39C318.04,-17.42 336.84,-19.75 354.22,-21.91"/>
<polygon fill="#63b8ff" stroke="#63b8ff" points="353.53,-25.35 363.89,-23.11 354.4,-18.4 353.53,-25.35"/>
</a>
</g>
</g>
</g>
</svg>

<g id="navigator" transform="translate(0 0)" fill="#404254">
  <rect fill="#f2f5e9" fill-opacity="0.5" stroke="#606060" stroke-width=".5" x="0" y="0" width="60" height="60"/>
  <use id="zoomplus" xlink:href="#zoomPlus" x="17" y="9" onmousedown="handleZoom(evt,'in')"/>
  <use id="zoomminus" xlink:href="#zoomMin" x="42" y="9" onmousedown="handleZoom(evt,'out')"/>
  <use id="reset" xlink:href="#resetDef" x="30" y="36" onmousedown="handleReset()"/>
   <use id="arrowup" xlink:href="#arrowUp" x="0" y="0" onmousedown="handlePan(0,-1)"/>
  <use id="arrowright" xlink:href="#arrowRight" x="0" y="0" onmousedown="handlePan(1,0)"/>
  <use id="arrowdown" xlink:href="#arrowDown" x="0" y="0" onmousedown="handlePan(0,1)"/>
  <use id="arrowleft" xlink:href="#arrowLeft" x="0" y="0" onmousedown="handlePan(-1,0)"/>
</g>
<svg viewBox="0 0 15 15" width="100%" height="30px" preserveAspectRatio="xMaxYMin meet">
 <g id="arrow_out" transform="scale(0.3 0.3)">
  <a xlink:href="namespace_g_l_e_s_c_1_1_physics_a1621e2a03fff6c4be0436391e2bc6ef5_cgraph_org.svg" target="_base">
   <rect id="button" ry="5" rx="5" y="6" x="6" height="38" width="38"
        fill="#f2f5e9" fill-opacity="0.5" stroke="#606060" stroke-width="1.0"/>
   <path id="arrow"
     d="M 11.500037,31.436501 C 11.940474,20.09759 22.043105,11.32322 32.158766,21.979434 L 37.068811,17.246167 C 37.068811,17.246167 37.088388,32 37.088388,32 L 22.160133,31.978069 C 22.160133,31.978069 26.997745,27.140456 26.997745,27.140456 C 18.528582,18.264221 13.291696,25.230495 11.500037,31.436501 z"
     style="fill:#404040;"/>
  </a>
 </g>
</svg>

<style type='text/css'>
<![CDATA[
[data-mouse-over-selected='false'] { opacity: 0.7; }
[data-mouse-over-selected='true']  { opacity: 1.0; }
]]>
</style>
<script type="application/ecmascript"><![CDATA[
document.addEventListener('DOMContentLoaded', (event) => {
  highlightEdges();
  highlightAdjacentNodes();
});
]]></script>
</svg>
