<?xml version="1.0" encoding="UTF-8" standalone="no"?>
<!DOCTYPE svg PUBLIC "-//W3C//DTD SVG 1.1//EN"
 "http://www.w3.org/Graphics/SVG/1.1/DTD/svg11.dtd">
<!-- Generated by graphviz version 11.0.0 (20240428.1522)
 -->
<!-- Title: GLESC::Math::min Pages: 1 -->
<svg width="640pt" height="426pt"
 viewBox="0.00 0.00 639.75 426.00" xmlns="http://www.w3.org/2000/svg" xmlns:xlink="http://www.w3.org/1999/xlink">
<g id="graph0" class="graph" transform="scale(1 1) rotate(0) translate(4 422)">
<title>GLESC::Math::min</title>
<!-- Node1 -->
<g id="Node000001" class="node">
<title>Node1</title>
<g id="a_Node000001"><a xlink:title="Calculates the min of two values.">
<polygon fill="#999999" stroke="#666666" points="631.75,-226 533.25,-226 533.25,-206 631.75,-206 631.75,-226"/>
<text text-anchor="middle" x="582.5" y="-212.5" font-family="Helvetica,sans-Serif" font-size="10.00">GLESC::Math::min</text>
</a>
</g>
</g>
<!-- Node2 -->
<g id="Node000002" class="node">
<title>Node2</title>
<g id="a_Node000002"><a xlink:href="class_g_l_e_s_c_1_1_math_1_1_bounding_volume.html#a0d01fd26f33f057c5f63239124076f68" target="_top" xlink:title="Construct a new Bounding Volume object.">
<polygon fill="white" stroke="#666666" points="497.25,-396 341,-396 341,-364 497.25,-364 497.25,-396"/>
<text text-anchor="start" x="349" y="-382.5" font-family="Helvetica,sans-Serif" font-size="10.00">GLESC::Math::BoundingVolume</text>
<text text-anchor="middle" x="419.12" y="-370.5" font-family="Helvetica,sans-Serif" font-size="10.00">::BoundingVolume</text>
</a>
</g>
</g>
<!-- Node1&#45;&gt;Node2 -->
<g id="edge1_Node000001_Node000002" class="edge">
<title>Node1&#45;&gt;Node2</title>
<g id="a_edge1_Node000001_Node000002"><a xlink:title=" ">
<path fill="none" stroke="#63b8ff" d="M573.39,-236.86C561.09,-265.99 535.06,-318.78 497.25,-350 490.71,-355.4 483.09,-359.9 475.24,-363.63"/>
<polygon fill="#63b8ff" stroke="#63b8ff" points="576.6,-238.27 577.12,-227.69 570.11,-235.63 576.6,-238.27"/>
</a>
</g>
</g>
<!-- Node3 -->
<g id="Node000003" class="node">
<title>Node3</title>
<g id="a_Node000003"><a xlink:href="namespace_g_l_e_s_c_1_1_math.html#ae9816249dbbdbb7c7affd0c3be77b8e2" target="_top" xlink:title="Clamps a value between a minimum and maximum value.">
<polygon fill="white" stroke="#666666" points="473.62,-308 364.62,-308 364.62,-288 473.62,-288 473.62,-308"/>
<text text-anchor="middle" x="419.12" y="-294.5" font-family="Helvetica,sans-Serif" font-size="10.00">GLESC::Math::clamp</text>
</a>
</g>
</g>
<!-- Node1&#45;&gt;Node3 -->
<g id="edge2_Node000001_Node000003" class="edge">
<title>Node1&#45;&gt;Node3</title>
<g id="a_edge2_Node000001_Node000003"><a xlink:title=" ">
<path fill="none" stroke="#63b8ff" d="M560.36,-233.23C543.96,-245.92 520.21,-262.84 497.25,-274 486.15,-279.39 473.57,-283.91 461.83,-287.53"/>
<polygon fill="#63b8ff" stroke="#63b8ff" points="562.25,-236.21 567.93,-227.26 557.91,-230.71 562.25,-236.21"/>
</a>
</g>
</g>
<!-- Node4 -->
<g id="Node000004" class="node">
<title>Node4</title>
<g id="a_Node000004"><a xlink:href="class_g_l_e_s_c_1_1_math_1_1_vector_algorithms.html#ac725a821c1720b206c7e6b75390be67c" target="_top" xlink:title=" ">
<polygon fill="white" stroke="#666666" points="305,-418 147.25,-418 147.25,-386 305,-386 305,-418"/>
<text text-anchor="start" x="155.25" y="-404.5" font-family="Helvetica,sans-Serif" font-size="10.00">GLESC::Math::VectorAlgorithms</text>
<text text-anchor="middle" x="226.12" y="-392.5" font-family="Helvetica,sans-Serif" font-size="10.00">::clampWithValues</text>
</a>
</g>
</g>
<!-- Node1&#45;&gt;Node4 -->
<g id="edge15_Node000001_Node000004" class="edge">
<title>Node1&#45;&gt;Node4</title>
<g id="a_edge15_Node000001_Node000004"><a xlink:title=" ">
<path fill="none" stroke="#63b8ff" d="M570.11,-236.27C556.03,-259.41 529.88,-296.68 497.25,-317 436.59,-354.79 407,-327.59 341,-355 323.68,-362.19 322.05,-369.19 305,-377 298.29,-380.08 291.09,-382.93 283.88,-385.53"/>
<polygon fill="#63b8ff" stroke="#63b8ff" points="573.05,-238.16 575.1,-227.77 567.02,-234.62 573.05,-238.16"/>
</a>
</g>
</g>
<!-- Node8 -->
<g id="Node000008" class="node">
<title>Node8</title>
<g id="a_Node000008"><a xlink:href="class_g_l_e_s_c_1_1_math_1_1_vector_algorithms.html#a2b9416063831799aab10b6c3ba3ec074" target="_top" xlink:title=" ">
<polygon fill="white" stroke="#666666" points="305,-204 147.25,-204 147.25,-172 305,-172 305,-204"/>
<text text-anchor="start" x="155.25" y="-190.5" font-family="Helvetica,sans-Serif" font-size="10.00">GLESC::Math::VectorAlgorithms</text>
<text text-anchor="middle" x="226.12" y="-178.5" font-family="Helvetica,sans-Serif" font-size="10.00">::clampWithVectors</text>
</a>
</g>
</g>
<!-- Node1&#45;&gt;Node8 -->
<g id="edge16_Node000001_Node000008" class="edge">
<title>Node1&#45;&gt;Node8</title>
<g id="a_edge16_Node000001_Node000008"><a xlink:title=" ">
<path fill="none" stroke="#63b8ff" d="M543.02,-229.96C528.83,-234.43 512.5,-238.79 497.25,-241 428.53,-250.98 407.66,-260.48 341,-241 322.78,-235.68 321.94,-226.57 305,-218 295.3,-213.1 284.6,-208.49 274.32,-204.43"/>
<polygon fill="#63b8ff" stroke="#63b8ff" points="544.02,-233.31 552.43,-226.87 541.84,-226.66 544.02,-233.31"/>
</a>
</g>
</g>
<!-- Node13 -->
<g id="Node000013" class="node">
<title>Node13</title>
<g id="a_Node000013"><a xlink:href="namespace_g_l_e_s_c_1_1_math.html#a1c2f921dd6152a0f6dde2d36190f4809" target="_top" xlink:title="Generates a compile time random number between min and max, specifically [min, max)">
<polygon fill="white" stroke="#666666" points="496.88,-232 341.38,-232 341.38,-200 496.88,-200 496.88,-232"/>
<text text-anchor="start" x="349.38" y="-218.5" font-family="Helvetica,sans-Serif" font-size="10.00">GLESC::Math::generateCompile</text>
<text text-anchor="middle" x="419.12" y="-206.5" font-family="Helvetica,sans-Serif" font-size="10.00">TimeRandomNumber</text>
</a>
</g>
</g>
<!-- Node1&#45;&gt;Node13 -->
<g id="edge17_Node000001_Node000013" class="edge">
<title>Node1&#45;&gt;Node13</title>
<g id="a_edge17_Node000001_Node000013"><a xlink:title=" ">
<path fill="none" stroke="#63b8ff" d="M521.64,-216C513.67,-216 505.4,-216 497.18,-216"/>
<polygon fill="#63b8ff" stroke="#63b8ff" points="521.57,-219.5 531.57,-216 521.57,-212.5 521.57,-219.5"/>
</a>
</g>
</g>
<!-- Node14 -->
<g id="Node000014" class="node">
<title>Node14</title>
<g id="a_Node000014"><a xlink:href="namespace_g_l_e_s_c_1_1_math.html#a514c8fd84566d9ba2d7b741cb7f7374f" target="_top" xlink:title="Generates a random number between min and max, specifically [min, max)">
<polygon fill="white" stroke="#666666" points="497.25,-182 341,-182 341,-150 497.25,-150 497.25,-182"/>
<text text-anchor="start" x="349" y="-168.5" font-family="Helvetica,sans-Serif" font-size="10.00">GLESC::Math::generateRandom</text>
<text text-anchor="middle" x="419.12" y="-156.5" font-family="Helvetica,sans-Serif" font-size="10.00">Number</text>
</a>
</g>
</g>
<!-- Node1&#45;&gt;Node14 -->
<g id="edge18_Node000001_Node000014" class="edge">
<title>Node1&#45;&gt;Node14</title>
<g id="a_edge18_Node000001_Node000014"><a xlink:title=" ">
<path fill="none" stroke="#63b8ff" d="M536.84,-202.16C517.15,-196.06 493.86,-188.85 473.29,-182.47"/>
<polygon fill="#63b8ff" stroke="#63b8ff" points="535.64,-205.45 546.22,-205.07 537.71,-198.77 535.64,-205.45"/>
</a>
</g>
</g>
<!-- Node15 -->
<g id="Node000015" class="node">
<title>Node15</title>
<g id="a_Node000015"><a xlink:href="struct_g_l_e_s_c_1_1_transform_1_1_interpolator.html#ac421b853892d9700f61a4f55d6f5582e" target="_top" xlink:title="Interpolates between the current and the last transform.">
<polygon fill="white" stroke="#666666" points="495,-132 343.25,-132 343.25,-100 495,-100 495,-132"/>
<text text-anchor="start" x="351.25" y="-118.5" font-family="Helvetica,sans-Serif" font-size="10.00">GLESC::Transform::Interpolator</text>
<text text-anchor="middle" x="419.12" y="-106.5" font-family="Helvetica,sans-Serif" font-size="10.00">::interpolate</text>
</a>
</g>
</g>
<!-- Node1&#45;&gt;Node15 -->
<g id="edge19_Node000001_Node000015" class="edge">
<title>Node1&#45;&gt;Node15</title>
<g id="a_edge19_Node000001_Node000015"><a xlink:title=" ">
<path fill="none" stroke="#63b8ff" d="M565.06,-197.51C549.19,-180.67 523.73,-156.17 497.25,-141 491.63,-137.78 485.54,-134.91 479.33,-132.37"/>
<polygon fill="#63b8ff" stroke="#63b8ff" points="562.07,-199.43 571.41,-204.42 567.22,-194.69 562.07,-199.43"/>
</a>
</g>
</g>
<!-- Node16 -->
<g id="Node000016" class="node">
<title>Node16</title>
<g id="a_Node000016"><a xlink:href="class_g_l_e_s_c_1_1_math_1_1_polyhedron_face.html#a958817b02687286fe25e69e874f3cecd" target="_top" xlink:title="Checks if the current face intersects with the given face.">
<polygon fill="white" stroke="#666666" points="495.75,-82 342.5,-82 342.5,-50 495.75,-50 495.75,-82"/>
<text text-anchor="start" x="350.5" y="-68.5" font-family="Helvetica,sans-Serif" font-size="10.00">GLESC::Math::PolyhedronFace</text>
<text text-anchor="middle" x="419.12" y="-56.5" font-family="Helvetica,sans-Serif" font-size="10.00">::intersects</text>
</a>
</g>
</g>
<!-- Node1&#45;&gt;Node16 -->
<g id="edge20_Node000001_Node000016" class="edge">
<title>Node1&#45;&gt;Node16</title>
<g id="a_edge20_Node000001_Node000016"><a xlink:title=" ">
<path fill="none" stroke="#63b8ff" d="M572.71,-195.07C560.03,-167.33 534.01,-118.69 497.25,-91 492.87,-87.7 488.03,-84.82 482.97,-82.32"/>
<polygon fill="#63b8ff" stroke="#63b8ff" points="569.48,-196.42 576.71,-204.17 575.89,-193.6 569.48,-196.42"/>
</a>
</g>
</g>
<!-- Node18 -->
<g id="Node000018" class="node">
<title>Node18</title>
<g id="a_Node000018"><a xlink:href="class_g_l_e_s_c_1_1_math_1_1_bounding_volume.html#acde54378eb86d972d399a347c0a83e79" target="_top" xlink:title="Set the volume of the bounding volume.">
<polygon fill="white" stroke="#666666" points="497.25,-32 341,-32 341,0 497.25,0 497.25,-32"/>
<text text-anchor="start" x="349" y="-18.5" font-family="Helvetica,sans-Serif" font-size="10.00">GLESC::Math::BoundingVolume</text>
<text text-anchor="middle" x="419.12" y="-6.5" font-family="Helvetica,sans-Serif" font-size="10.00">::setVolume</text>
</a>
</g>
</g>
<!-- Node1&#45;&gt;Node18 -->
<g id="edge22_Node000001_Node000018" class="edge">
<title>Node1&#45;&gt;Node18</title>
<g id="a_edge22_Node000001_Node000018"><a xlink:title=" ">
<path fill="none" stroke="#63b8ff" d="M577.03,-194.74C568.22,-158.06 545.17,-82.84 497.25,-41 493.54,-37.76 489.4,-34.94 485.02,-32.48"/>
<polygon fill="#63b8ff" stroke="#63b8ff" points="573.53,-195.13 579.15,-204.11 580.36,-193.59 573.53,-195.13"/>
</a>
</g>
</g>
<!-- Node3&#45;&gt;Node4 -->
<g id="edge3_Node000003_Node000004" class="edge">
<title>Node3&#45;&gt;Node4</title>
<g id="a_edge3_Node000003_Node000004"><a xlink:title=" ">
<path fill="none" stroke="#63b8ff" d="M356.84,-312.63C351.22,-315.26 345.83,-318.36 341,-322 317.68,-339.6 328.24,-359.3 305,-377 300.71,-380.27 295.97,-383.12 291.02,-385.6"/>
<polygon fill="#63b8ff" stroke="#63b8ff" points="357.84,-316 365.75,-308.96 355.17,-309.53 357.84,-316"/>
</a>
</g>
</g>
<!-- Node6 -->
<g id="Node000006" class="node">
<title>Node6</title>
<g id="a_Node000006"><a xlink:href="_vector_algorithms_tests_8cpp.html#a846c9b61dadcfa8f5ead508d957c87ee" target="_top" xlink:title=" ">
<polygon fill="white" stroke="#666666" points="94.38,-242 16.88,-242 16.88,-222 94.38,-222 94.38,-242"/>
<text text-anchor="middle" x="55.62" y="-228.5" font-family="Helvetica,sans-Serif" font-size="10.00">TYPED_TEST</text>
</a>
</g>
</g>
<!-- Node3&#45;&gt;Node6 -->
<g id="edge14_Node000003_Node000006" class="edge">
<title>Node3&#45;&gt;Node6</title>
<g id="a_edge14_Node000003_Node000006"><a xlink:title=" ">
<path fill="none" stroke="#63b8ff" d="M388.18,-282.48C365.87,-271.69 334.33,-258.02 305,-251 232.03,-233.52 143.88,-231.01 94.65,-231.2"/>
<polygon fill="#63b8ff" stroke="#63b8ff" points="386.47,-285.54 396.98,-286.83 389.57,-279.26 386.47,-285.54"/>
</a>
</g>
</g>
<!-- Node3&#45;&gt;Node8 -->
<g id="edge7_Node000003_Node000008" class="edge">
<title>Node3&#45;&gt;Node8</title>
<g id="a_edge7_Node000003_Node000008"><a xlink:title=" ">
<path fill="none" stroke="#63b8ff" d="M356.15,-283.1C350.77,-280.53 345.62,-277.52 341,-274 317.46,-256.08 327.94,-236.69 305,-218 298.37,-212.6 290.66,-208.1 282.72,-204.36"/>
<polygon fill="#63b8ff" stroke="#63b8ff" points="354.74,-286.3 365.31,-286.94 357.44,-279.85 354.74,-286.3"/>
</a>
</g>
</g>
<!-- Node10 -->
<g id="Node000010" class="node">
<title>Node10</title>
<g id="a_Node000010"><a xlink:href="class_default.html#a6e26da3ebf533b0f5d45266cd0ce9082" target="_top" xlink:title="Initializes the scene. Must be implemented by the derived class.">
<polygon fill="white" stroke="#666666" points="258.5,-330 193.75,-330 193.75,-310 258.5,-310 258.5,-330"/>
<text text-anchor="middle" x="226.12" y="-316.5" font-family="Helvetica,sans-Serif" font-size="10.00">Default::init</text>
</a>
</g>
</g>
<!-- Node3&#45;&gt;Node10 -->
<g id="edge11_Node000003_Node000010" class="edge">
<title>Node3&#45;&gt;Node10</title>
<g id="a_edge11_Node000003_Node000010"><a xlink:title=" ">
<path fill="none" stroke="#63b8ff" d="M352.73,-305.53C321.01,-309.19 284.36,-313.41 258.87,-316.34"/>
<polygon fill="#63b8ff" stroke="#63b8ff" points="353.12,-309.01 362.65,-304.39 352.32,-302.06 353.12,-309.01"/>
</a>
</g>
</g>
<!-- Node11 -->
<g id="Node000011" class="node">
<title>Node11</title>
<g id="a_Node000011"><a xlink:href="class_g_l_e_s_c_1_1_math_1_1_sphere.html#a375b95d18510299f26b1bb69d5f28116" target="_top" xlink:title="Checks if the sphere intersects with an edge defined by two points.">
<polygon fill="white" stroke="#666666" points="282.88,-292 169.38,-292 169.38,-260 282.88,-260 282.88,-292"/>
<text text-anchor="start" x="177.38" y="-278.5" font-family="Helvetica,sans-Serif" font-size="10.00">GLESC::Math::Sphere</text>
<text text-anchor="middle" x="226.12" y="-266.5" font-family="Helvetica,sans-Serif" font-size="10.00">::intersects</text>
</a>
</g>
</g>
<!-- Node3&#45;&gt;Node11 -->
<g id="edge12_Node000003_Node000011" class="edge">
<title>Node3&#45;&gt;Node11</title>
<g id="a_edge12_Node000003_Node000011"><a xlink:title=" ">
<path fill="none" stroke="#63b8ff" d="M352.93,-290.49C330.3,-287.88 305.13,-284.98 283.29,-282.47"/>
<polygon fill="#63b8ff" stroke="#63b8ff" points="352.32,-293.94 362.65,-291.61 353.12,-286.99 352.32,-293.94"/>
</a>
</g>
</g>
<!-- Node12 -->
<g id="Node000012" class="node">
<title>Node12</title>
<g id="a_Node000012"><a xlink:href="namespace_g_l_e_s_c_1_1_math.html#a9e9a2867723e2295b6656692b14e9e18" target="_top" xlink:title="Remaps a value from one range to another, including support for reverse mapping.">
<polygon fill="white" stroke="#666666" points="281,-368 171.25,-368 171.25,-348 281,-348 281,-368"/>
<text text-anchor="middle" x="226.12" y="-354.5" font-family="Helvetica,sans-Serif" font-size="10.00">GLESC::Math::remap</text>
</a>
</g>
</g>
<!-- Node3&#45;&gt;Node12 -->
<g id="edge13_Node000003_Node000012" class="edge">
<title>Node3&#45;&gt;Node12</title>
<g id="a_edge13_Node000003_Node000012"><a xlink:title=" ">
<path fill="none" stroke="#63b8ff" d="M370.12,-311.8C360.4,-314.91 350.3,-318.38 341,-322 324.51,-328.42 321.68,-333.1 305,-339 295.95,-342.2 286.12,-345.06 276.59,-347.53"/>
<polygon fill="#63b8ff" stroke="#63b8ff" points="370.94,-315.21 379.44,-308.89 368.85,-308.53 370.94,-315.21"/>
</a>
</g>
</g>
<!-- Node5 -->
<g id="Node000005" class="node">
<title>Node5</title>
<g id="a_Node000005"><a xlink:href="class_g_l_e_s_c_1_1_math_1_1_vector.html#ae661d92e2842daa76f97ae80c76c0248" target="_top" xlink:title="Clamps the vector to a given range.">
<polygon fill="white" stroke="#666666" points="111.25,-418 0,-418 0,-386 111.25,-386 111.25,-418"/>
<text text-anchor="start" x="8" y="-404.5" font-family="Helvetica,sans-Serif" font-size="10.00">GLESC::Math::Vector</text>
<text text-anchor="middle" x="55.62" y="-392.5" font-family="Helvetica,sans-Serif" font-size="10.00">::clamp</text>
</a>
</g>
</g>
<!-- Node4&#45;&gt;Node5 -->
<g id="edge4_Node000004_Node000005" class="edge">
<title>Node4&#45;&gt;Node5</title>
<g id="a_edge4_Node000004_Node000005"><a xlink:title=" ">
<path fill="none" stroke="#63b8ff" d="M135.38,-402C127.32,-402 119.32,-402 111.69,-402"/>
<polygon fill="#63b8ff" stroke="#63b8ff" points="135.28,-405.5 145.28,-402 135.28,-398.5 135.28,-405.5"/>
</a>
</g>
</g>
<!-- Node4&#45;&gt;Node6 -->
<g id="edge5_Node000004_Node000006" class="edge">
<title>Node4&#45;&gt;Node6</title>
<g id="a_edge5_Node000004_Node000006"><a xlink:title=" ">
<path fill="none" stroke="#63b8ff" d="M149.66,-379.06C148.84,-378.39 148.03,-377.71 147.25,-377 117.69,-350.34 132.53,-328.64 111.25,-295 98.4,-274.69 79.25,-254.23 67.37,-242.35"/>
<polygon fill="#63b8ff" stroke="#63b8ff" points="147.61,-381.9 157.84,-384.65 151.56,-376.12 147.61,-381.9"/>
</a>
</g>
</g>
<!-- Node7 -->
<g id="Node000007" class="node">
<title>Node7</title>
<g id="a_Node000007"><a xlink:href="_vector_tests_8cpp.html#a4e99609114189803ab26caa315af16fe" target="_top" xlink:title=" ">
<polygon fill="white" stroke="#666666" points="94.38,-324 16.88,-324 16.88,-304 94.38,-304 94.38,-324"/>
<text text-anchor="middle" x="55.62" y="-310.5" font-family="Helvetica,sans-Serif" font-size="10.00">TYPED_TEST</text>
</a>
</g>
</g>
<!-- Node4&#45;&gt;Node7 -->
<g id="edge6_Node000004_Node000007" class="edge">
<title>Node4&#45;&gt;Node7</title>
<g id="a_edge6_Node000004_Node000007"><a xlink:title=" ">
<path fill="none" stroke="#63b8ff" d="M156.79,-381.38C153.53,-379.98 150.33,-378.52 147.25,-377 117.19,-362.14 85.88,-338.16 69.07,-324.47"/>
<polygon fill="#63b8ff" stroke="#63b8ff" points="155.38,-384.58 165.96,-385.04 157.97,-378.08 155.38,-384.58"/>
</a>
</g>
</g>
<!-- Node8&#45;&gt;Node6 -->
<g id="edge9_Node000008_Node000006" class="edge">
<title>Node8&#45;&gt;Node6</title>
<g id="a_edge9_Node000008_Node000006"><a xlink:title=" ">
<path fill="none" stroke="#63b8ff" d="M151.27,-207.29C131.65,-212.41 111.26,-217.73 94.45,-222.12"/>
<polygon fill="#63b8ff" stroke="#63b8ff" points="152.13,-210.68 160.92,-204.77 150.36,-203.91 152.13,-210.68"/>
</a>
</g>
</g>
<!-- Node8&#45;&gt;Node7 -->
<g id="edge10_Node000008_Node000007" class="edge">
<title>Node8&#45;&gt;Node7</title>
<g id="a_edge10_Node000008_Node000007"><a xlink:title=" ">
<path fill="none" stroke="#63b8ff" d="M194.25,-211.09C157.34,-238.69 97.19,-283.66 70.33,-303.75"/>
<polygon fill="#63b8ff" stroke="#63b8ff" points="195.97,-214.17 201.88,-205.38 191.78,-208.56 195.97,-214.17"/>
</a>
</g>
</g>
<!-- Node9 -->
<g id="Node000009" class="node">
<title>Node9</title>
<g id="a_Node000009"><a xlink:href="class_g_l_e_s_c_1_1_math_1_1_vector.html#ae68049a5b68edf8771dcf22d2c30edd0" target="_top" xlink:title="Clamps the vector to a given range.">
<polygon fill="white" stroke="#666666" points="111.25,-204 0,-204 0,-172 111.25,-172 111.25,-204"/>
<text text-anchor="start" x="8" y="-190.5" font-family="Helvetica,sans-Serif" font-size="10.00">GLESC::Math::Vector</text>
<text text-anchor="middle" x="55.62" y="-178.5" font-family="Helvetica,sans-Serif" font-size="10.00">::clamp</text>
</a>
</g>
</g>
<!-- Node8&#45;&gt;Node9 -->
<g id="edge8_Node000008_Node000009" class="edge">
<title>Node8&#45;&gt;Node9</title>
<g id="a_edge8_Node000008_Node000009"><a xlink:title=" ">
<path fill="none" stroke="#63b8ff" d="M135.38,-188C127.32,-188 119.32,-188 111.69,-188"/>
<polygon fill="#63b8ff" stroke="#63b8ff" points="135.28,-191.5 145.28,-188 135.28,-184.5 135.28,-191.5"/>
</a>
</g>
</g>
<!-- Node17 -->
<g id="Node000017" class="node">
<title>Node17</title>
<g id="a_Node000017"><a xlink:href="class_g_l_e_s_c_1_1_math_1_1_polyhedron_face.html#acda5c36a9dc475202153436369828d53" target="_top" xlink:title="Checks if the face intersects with a given line.">
<polygon fill="white" stroke="#666666" points="302.75,-82 149.5,-82 149.5,-50 302.75,-50 302.75,-82"/>
<text text-anchor="start" x="157.5" y="-68.5" font-family="Helvetica,sans-Serif" font-size="10.00">GLESC::Math::PolyhedronFace</text>
<text text-anchor="middle" x="226.12" y="-56.5" font-family="Helvetica,sans-Serif" font-size="10.00">::intersects</text>
</a>
</g>
</g>
<!-- Node16&#45;&gt;Node17 -->
<g id="edge21_Node000016_Node000017" class="edge">
<title>Node16&#45;&gt;Node17</title>
<g id="a_edge21_Node000016_Node000017"><a xlink:title=" ">
<path fill="none" stroke="#63b8ff" d="M330.59,-66C321.45,-66 312.21,-66 303.21,-66"/>
<polygon fill="#63b8ff" stroke="#63b8ff" points="330.57,-69.5 340.57,-66 330.57,-62.5 330.57,-69.5"/>
</a>
</g>
</g>
</g>
</svg>
