<?xml version="1.0" encoding="UTF-8" standalone="no"?>
<!DOCTYPE svg PUBLIC "-//W3C//DTD SVG 1.1//EN"
 "http://www.w3.org/Graphics/SVG/1.1/DTD/svg11.dtd">
<!-- Generated by graphviz version 11.0.0 (20240428.1522)
 -->
<!-- Title: GLESC::Math::clamp Pages: 1 -->
<svg width="458pt" height="254pt"
 viewBox="0.00 0.00 458.00 254.00" xmlns="http://www.w3.org/2000/svg" xmlns:xlink="http://www.w3.org/1999/xlink">

<svg id="main" version="1.1" xmlns="http://www.w3.org/2000/svg" xmlns:xlink="http://www.w3.org/1999/xlink" xml:space="preserve" onload="init(evt)">
<style type="text/css"><![CDATA[
.node, .edge {opacity: 0.7;}
.node.selected, .edge.selected {opacity: 1;}
.edge:hover path { stroke: red; }
.edge:hover polygon { stroke: red; fill: red; }
]]></style>
<script type="application/ecmascript" xlink:href="svg.min.js"/>
<svg id="graph" class="graph">
<g id="graph0" class="graph" transform="scale(1 1) rotate(0) translate(4 250)">
<title>GLESC::Math::clamp</title>
<!-- Node1 -->
<g id="Node000001" class="node">
<title>Node1</title>
<g id="a_Node000001"><a xlink:title="Clamps a value between a minimum and maximum value.">
<polygon fill="#999999" stroke="#666666" points="450,-130 341,-130 341,-110 450,-110 450,-130"/>
<text text-anchor="middle" x="395.5" y="-116.5" font-family="Helvetica,sans-Serif" font-size="10.00">GLESC::Math::clamp</text>
</a>
</g>
</g>
<!-- Node2 -->
<g id="Node000002" class="node">
<title>Node2</title>
<g id="a_Node000002"><a xlink:href="class_g_l_e_s_c_1_1_math_1_1_vector_algorithms.html#ac725a821c1720b206c7e6b75390be67c" target="_top" xlink:title=" ">
<polygon fill="white" stroke="#666666" points="305,-246 147.25,-246 147.25,-214 305,-214 305,-246"/>
<text text-anchor="start" x="155.25" y="-232.5" font-family="Helvetica,sans-Serif" font-size="10.00">GLESC::Math::VectorAlgorithms</text>
<text text-anchor="middle" x="226.12" y="-220.5" font-family="Helvetica,sans-Serif" font-size="10.00">::clampWithValues</text>
</a>
</g>
</g>
<!-- Node1&#45;&gt;Node2 -->
<g id="edge1_Node000001_Node000002" class="edge">
<title>Node1&#45;&gt;Node2</title>
<g id="a_edge1_Node000001_Node000002"><a xlink:title=" ">
<path fill="none" stroke="#63b8ff" d="M377.4,-138.8C360.44,-156.53 333.02,-182.88 305,-200 296.59,-205.14 287.16,-209.66 277.83,-213.54"/>
<polygon fill="#63b8ff" stroke="#63b8ff" points="379.94,-141.2 384.22,-131.51 374.83,-136.42 379.94,-141.2"/>
</a>
</g>
</g>
<!-- Node4 -->
<g id="Node000004" class="node">
<title>Node4</title>
<g id="a_Node000004"><a xlink:href="_vector_algorithms_tests_8cpp.html#a846c9b61dadcfa8f5ead508d957c87ee" target="_top" xlink:title=" ">
<polygon fill="white" stroke="#666666" points="94.38,-196 16.88,-196 16.88,-176 94.38,-176 94.38,-196"/>
<text text-anchor="middle" x="55.62" y="-182.5" font-family="Helvetica,sans-Serif" font-size="10.00">TYPED_TEST</text>
</a>
</g>
</g>
<!-- Node1&#45;&gt;Node4 -->
<g id="edge12_Node000001_Node000004" class="edge">
<title>Node1&#45;&gt;Node4</title>
<g id="a_edge12_Node000001_Node000004"><a xlink:title=" ">
<path fill="none" stroke="#63b8ff" d="M370.11,-136.31C352.73,-147.03 328.41,-160.27 305,-167 232.68,-187.79 143.93,-189.1 94.49,-187.8"/>
<polygon fill="#63b8ff" stroke="#63b8ff" points="371.63,-139.49 378.2,-131.17 367.88,-133.58 371.63,-139.49"/>
</a>
</g>
</g>
<!-- Node6 -->
<g id="Node000006" class="node">
<title>Node6</title>
<g id="a_Node000006"><a xlink:href="class_g_l_e_s_c_1_1_math_1_1_vector_algorithms.html#a2b9416063831799aab10b6c3ba3ec074" target="_top" xlink:title=" ">
<polygon fill="white" stroke="#666666" points="305,-158 147.25,-158 147.25,-126 305,-126 305,-158"/>
<text text-anchor="start" x="155.25" y="-144.5" font-family="Helvetica,sans-Serif" font-size="10.00">GLESC::Math::VectorAlgorithms</text>
<text text-anchor="middle" x="226.12" y="-132.5" font-family="Helvetica,sans-Serif" font-size="10.00">::clampWithVectors</text>
</a>
</g>
</g>
<!-- Node1&#45;&gt;Node6 -->
<g id="edge5_Node000001_Node000006" class="edge">
<title>Node1&#45;&gt;Node6</title>
<g id="a_edge5_Node000001_Node000006"><a xlink:title=" ">
<path fill="none" stroke="#63b8ff" d="M329.29,-128.57C321.41,-129.61 313.31,-130.67 305.28,-131.73"/>
<polygon fill="#63b8ff" stroke="#63b8ff" points="329.66,-132.05 339.12,-127.28 328.75,-125.11 329.66,-132.05"/>
</a>
</g>
</g>
<!-- Node8 -->
<g id="Node000008" class="node">
<title>Node8</title>
<g id="a_Node000008"><a xlink:href="class_default.html#a6e26da3ebf533b0f5d45266cd0ce9082" target="_top" xlink:title="Initializes the scene. Must be implemented by the derived class.">
<polygon fill="white" stroke="#666666" points="258.5,-108 193.75,-108 193.75,-88 258.5,-88 258.5,-108"/>
<text text-anchor="middle" x="226.12" y="-94.5" font-family="Helvetica,sans-Serif" font-size="10.00">Default::init</text>
</a>
</g>
</g>
<!-- Node1&#45;&gt;Node8 -->
<g id="edge9_Node000001_Node000008" class="edge">
<title>Node1&#45;&gt;Node8</title>
<g id="a_edge9_Node000001_Node000008"><a xlink:title=" ">
<path fill="none" stroke="#63b8ff" d="M329.34,-111.43C305.17,-108.26 278.83,-104.8 258.94,-102.18"/>
<polygon fill="#63b8ff" stroke="#63b8ff" points="328.75,-114.89 339.12,-112.72 329.66,-107.95 328.75,-114.89"/>
</a>
</g>
</g>
<!-- Node9 -->
<g id="Node000009" class="node">
<title>Node9</title>
<g id="a_Node000009"><a xlink:href="class_g_l_e_s_c_1_1_math_1_1_sphere.html#a375b95d18510299f26b1bb69d5f28116" target="_top" xlink:title="Checks if the sphere intersects with an edge defined by two points.">
<polygon fill="white" stroke="#666666" points="282.88,-70 169.38,-70 169.38,-38 282.88,-38 282.88,-70"/>
<text text-anchor="start" x="177.38" y="-56.5" font-family="Helvetica,sans-Serif" font-size="10.00">GLESC::Math::Sphere</text>
<text text-anchor="middle" x="226.12" y="-44.5" font-family="Helvetica,sans-Serif" font-size="10.00">::intersects</text>
</a>
</g>
</g>
<!-- Node1&#45;&gt;Node9 -->
<g id="edge10_Node000001_Node000009" class="edge">
<title>Node1&#45;&gt;Node9</title>
<g id="a_edge10_Node000001_Node000009"><a xlink:title=" ">
<path fill="none" stroke="#63b8ff" d="M363.5,-104.7C346.45,-96.56 324.79,-86.68 305,-79 297.32,-76.02 289.13,-73.11 281.04,-70.39"/>
<polygon fill="#63b8ff" stroke="#63b8ff" points="361.58,-107.65 372.1,-108.85 364.62,-101.35 361.58,-107.65"/>
</a>
</g>
</g>
<!-- Node10 -->
<g id="Node000010" class="node">
<title>Node10</title>
<g id="a_Node000010"><a xlink:href="namespace_g_l_e_s_c_1_1_math.html#a9e9a2867723e2295b6656692b14e9e18" target="_top" xlink:title="Remaps a value from one range to another, including support for reverse mapping.">
<polygon fill="white" stroke="#666666" points="281,-20 171.25,-20 171.25,0 281,0 281,-20"/>
<text text-anchor="middle" x="226.12" y="-6.5" font-family="Helvetica,sans-Serif" font-size="10.00">GLESC::Math::remap</text>
</a>
</g>
</g>
<!-- Node1&#45;&gt;Node10 -->
<g id="edge11_Node000001_Node000010" class="edge">
<title>Node1&#45;&gt;Node10</title>
<g id="a_edge11_Node000001_Node000010"><a xlink:title=" ">
<path fill="none" stroke="#63b8ff" d="M380.66,-100.52C364.78,-79.64 336.79,-47.06 305,-29 297.74,-24.88 289.6,-21.64 281.4,-19.11"/>
<polygon fill="#63b8ff" stroke="#63b8ff" points="377.8,-102.54 386.55,-108.5 383.43,-98.38 377.8,-102.54"/>
</a>
</g>
</g>
<!-- Node3 -->
<g id="Node000003" class="node">
<title>Node3</title>
<g id="a_Node000003"><a xlink:href="class_g_l_e_s_c_1_1_math_1_1_vector.html#ae661d92e2842daa76f97ae80c76c0248" target="_top" xlink:title="Clamps the vector to a given range.">
<polygon fill="white" stroke="#666666" points="111.25,-246 0,-246 0,-214 111.25,-214 111.25,-246"/>
<text text-anchor="start" x="8" y="-232.5" font-family="Helvetica,sans-Serif" font-size="10.00">GLESC::Math::Vector</text>
<text text-anchor="middle" x="55.62" y="-220.5" font-family="Helvetica,sans-Serif" font-size="10.00">::clamp</text>
</a>
</g>
</g>
<!-- Node2&#45;&gt;Node3 -->
<g id="edge2_Node000002_Node000003" class="edge">
<title>Node2&#45;&gt;Node3</title>
<g id="a_edge2_Node000002_Node000003"><a xlink:title=" ">
<path fill="none" stroke="#63b8ff" d="M135.38,-230C127.32,-230 119.32,-230 111.69,-230"/>
<polygon fill="#63b8ff" stroke="#63b8ff" points="135.28,-233.5 145.28,-230 135.28,-226.5 135.28,-233.5"/>
</a>
</g>
</g>
<!-- Node2&#45;&gt;Node4 -->
<g id="edge3_Node000002_Node000004" class="edge">
<title>Node2&#45;&gt;Node4</title>
<g id="a_edge3_Node000002_Node000004"><a xlink:title=" ">
<path fill="none" stroke="#63b8ff" d="M151.27,-210.71C131.65,-205.59 111.26,-200.27 94.45,-195.88"/>
<polygon fill="#63b8ff" stroke="#63b8ff" points="150.36,-214.09 160.92,-213.23 152.13,-207.32 150.36,-214.09"/>
</a>
</g>
</g>
<!-- Node5 -->
<g id="Node000005" class="node">
<title>Node5</title>
<g id="a_Node000005"><a xlink:href="_vector_tests_8cpp.html#a4e99609114189803ab26caa315af16fe" target="_top" xlink:title=" ">
<polygon fill="white" stroke="#666666" points="94.38,-158 16.88,-158 16.88,-138 94.38,-138 94.38,-158"/>
<text text-anchor="middle" x="55.62" y="-144.5" font-family="Helvetica,sans-Serif" font-size="10.00">TYPED_TEST</text>
</a>
</g>
</g>
<!-- Node2&#45;&gt;Node5 -->
<g id="edge4_Node000002_Node000005" class="edge">
<title>Node2&#45;&gt;Node5</title>
<g id="a_edge4_Node000002_Node000005"><a xlink:title=" ">
<path fill="none" stroke="#63b8ff" d="M188.75,-207.79C166.79,-194.91 137.96,-178.93 111.25,-167 104.37,-163.93 96.84,-161.03 89.62,-158.46"/>
<polygon fill="#63b8ff" stroke="#63b8ff" points="186.95,-210.79 197.34,-212.88 190.52,-204.77 186.95,-210.79"/>
</a>
</g>
</g>
<!-- Node6&#45;&gt;Node4 -->
<g id="edge7_Node000006_Node000004" class="edge">
<title>Node6&#45;&gt;Node4</title>
<g id="a_edge7_Node000006_Node000004"><a xlink:title=" ">
<path fill="none" stroke="#63b8ff" d="M151.27,-161.29C131.65,-166.41 111.26,-171.73 94.45,-176.12"/>
<polygon fill="#63b8ff" stroke="#63b8ff" points="152.13,-164.68 160.92,-158.77 150.36,-157.91 152.13,-164.68"/>
</a>
</g>
</g>
<!-- Node6&#45;&gt;Node5 -->
<g id="edge8_Node000006_Node000005" class="edge">
<title>Node6&#45;&gt;Node5</title>
<g id="a_edge8_Node000006_Node000005"><a xlink:title=" ">
<path fill="none" stroke="#63b8ff" d="M135.67,-145.19C121.15,-145.7 106.83,-146.21 94.45,-146.65"/>
<polygon fill="#63b8ff" stroke="#63b8ff" points="135.41,-148.7 145.28,-144.84 135.16,-141.7 135.41,-148.7"/>
</a>
</g>
</g>
<!-- Node7 -->
<g id="Node000007" class="node">
<title>Node7</title>
<g id="a_Node000007"><a xlink:href="class_g_l_e_s_c_1_1_math_1_1_vector.html#ae68049a5b68edf8771dcf22d2c30edd0" target="_top" xlink:title="Clamps the vector to a given range.">
<polygon fill="white" stroke="#666666" points="111.25,-120 0,-120 0,-88 111.25,-88 111.25,-120"/>
<text text-anchor="start" x="8" y="-106.5" font-family="Helvetica,sans-Serif" font-size="10.00">GLESC::Math::Vector</text>
<text text-anchor="middle" x="55.62" y="-94.5" font-family="Helvetica,sans-Serif" font-size="10.00">::clamp</text>
</a>
</g>
</g>
<!-- Node6&#45;&gt;Node7 -->
<g id="edge6_Node000006_Node000007" class="edge">
<title>Node6&#45;&gt;Node7</title>
<g id="a_edge6_Node000006_Node000007"><a xlink:title=" ">
<path fill="none" stroke="#63b8ff" d="M140.98,-123.02C131.01,-120.77 121.04,-118.53 111.62,-116.4"/>
<polygon fill="#63b8ff" stroke="#63b8ff" points="140.2,-126.43 150.72,-125.22 141.74,-119.61 140.2,-126.43"/>
</a>
</g>
</g>
</g>
</svg>
</svg>

<style type='text/css'>
<![CDATA[
[data-mouse-over-selected='false'] { opacity: 0.7; }
[data-mouse-over-selected='true']  { opacity: 1.0; }
]]>
</style>
<script type="application/ecmascript"><![CDATA[
document.addEventListener('DOMContentLoaded', (event) => {
  highlightEdges();
  highlightAdjacentNodes();
});
]]></script>
</svg>
