<?xml version="1.0" encoding="UTF-8" standalone="no"?>
<!DOCTYPE svg PUBLIC "-//W3C//DTD SVG 1.1//EN"
 "http://www.w3.org/Graphics/SVG/1.1/DTD/svg11.dtd">
<!-- Generated by graphviz version 11.0.0 (20240428.1522)
 -->
<!-- Title: GLESC::Math::radians Pages: 1 -->
<svg width="276pt" height="28pt"
 viewBox="0.00 0.00 275.50 28.00" xmlns="http://www.w3.org/2000/svg" xmlns:xlink="http://www.w3.org/1999/xlink">
<g id="graph0" class="graph" transform="scale(1 1) rotate(0) translate(4 24)">
<title>GLESC::Math::radians</title>
<!-- Node1 -->
<g id="Node000001" class="node">
<title>Node1</title>
<g id="a_Node000001"><a xlink:title="Converts degrees to radians.">
<polygon fill="#999999" stroke="#666666" points="114.25,-20 0,-20 0,0 114.25,0 114.25,-20"/>
<text text-anchor="middle" x="57.12" y="-6.5" font-family="Helvetica,sans-Serif" font-size="10.00">GLESC::Math::radians</text>
</a>
</g>
</g>
<!-- Node2 -->
<g id="Node000002" class="node">
<title>Node2</title>
<g id="a_Node000002"><a xlink:href="namespace_g_l_e_s_c_1_1_math.html#a69598a72ef2c06e1caba0ea9613d65e6" target="_top" xlink:title="Converts radians to degrees.">
<polygon fill="white" stroke="#666666" points="267.5,-20 150.25,-20 150.25,0 267.5,0 267.5,-20"/>
<text text-anchor="middle" x="208.88" y="-6.5" font-family="Helvetica,sans-Serif" font-size="10.00">GLESC::Math::degrees</text>
</a>
</g>
</g>
<!-- Node1&#45;&gt;Node2 -->
<g id="edge1_Node000001_Node000002" class="edge">
<title>Node1&#45;&gt;Node2</title>
<g id="a_edge1_Node000001_Node000002"><a xlink:title=" ">
<path fill="none" stroke="#63b8ff" d="M114.74,-3.43C122.62,-3.27 130.79,-3.22 138.87,-3.27"/>
<polygon fill="#63b8ff" stroke="#63b8ff" points="138.63,-6.77 148.67,-3.39 138.72,0.23 138.63,-6.77"/>
</a>
</g>
</g>
<!-- Node2&#45;&gt;Node1 -->
<g id="edge2_Node000002_Node000001" class="edge">
<title>Node2&#45;&gt;Node1</title>
<g id="a_edge2_Node000002_Node000001"><a xlink:title=" ">
<path fill="none" stroke="#63b8ff" d="M150.19,-16.59C142.28,-16.74 134.1,-16.78 126.03,-16.72"/>
<polygon fill="#63b8ff" stroke="#63b8ff" points="126.3,-13.23 116.25,-16.59 126.2,-20.23 126.3,-13.23"/>
</a>
</g>
</g>
</g>
</svg>
