<?xml version="1.0" encoding="UTF-8" standalone="no"?>
<!DOCTYPE svg PUBLIC "-//W3C//DTD SVG 1.1//EN"
 "http://www.w3.org/Graphics/SVG/1.1/DTD/svg11.dtd">
<!-- Generated by graphviz version 11.0.0 (20240428.1522)
 -->
<!-- Title: GLESC::Math::lt Pages: 1 -->
<!--zoomable 96 -->

<svg id="main" version="1.1" xmlns="http://www.w3.org/2000/svg" xmlns:xlink="http://www.w3.org/1999/xlink" xml:space="preserve" onload="init(evt)">
<style type="text/css"><![CDATA[
.node, .edge {opacity: 0.7;}
.node.selected, .edge.selected {opacity: 1;}
.edge:hover path { stroke: red; }
.edge:hover polygon { stroke: red; fill: red; }
]]></style>

<defs>
  <circle id="rim" cx="0" cy="0" r="7"/>
  <circle id="rim2" cx="0" cy="0" r="3.5"/>
  <g id="zoomPlus">
    <use xlink:href="#rim" fill="#404040"><set attributeName="fill" to="#808080" begin="zoomplus.mouseover" end="zoomplus.mouseout"/></use>
    <path d="M-4,0h8M0,-4v8" fill="none" stroke="white" stroke-width="1.5" pointer-events="none"/>
  </g>
  <g id="zoomMin">
    <use xlink:href="#rim" fill="#404040"><set attributeName="fill" to="#808080" begin="zoomminus.mouseover" end="zoomminus.mouseout"/></use>
    <path d="M-4,0h8" fill="none" stroke="white" stroke-width="1.5" pointer-events="none"/>
  </g>
  <g id="arrowUp" transform="translate(30 24)">
    <use xlink:href="#rim"/>
    <path pointer-events="none" fill="none" stroke="white" stroke-width="1.5" d="M0,-3.0v7 M-2.5,-0.5L0,-3.0L2.5,-0.5"/>
  </g>
  <g id="arrowRight" transform="rotate(90) translate(36 -43)">
    <use xlink:href="#rim"/>
    <path pointer-events="none" fill="none" stroke="white" stroke-width="1.5" d="M0,-3.0v7 M-2.5,-0.5L0,-3.0L2.5,-0.5"/>
  </g>
  <g id="arrowDown" transform="rotate(180) translate(-30 -48)">
    <use xlink:href="#rim"/>
    <path pointer-events="none" fill="none" stroke="white" stroke-width="1.5" d="M0,-3.0v7 M-2.5,-0.5L0,-3.0L2.5,-0.5"/>
  </g>
  <g id="arrowLeft" transform="rotate(270) translate(-36 17)">
    <use xlink:href="#rim"/>
    <path pointer-events="none" fill="none" stroke="white" stroke-width="1.5" d="M0,-3.0v7 M-2.5,-0.5L0,-3.0L2.5,-0.5"/>
  </g>
  <g id="resetDef">
    <use xlink:href="#rim2" fill="#404040"><set attributeName="fill" to="#808080" begin="reset.mouseover" end="reset.mouseout"/></use>
  </g>
</defs>
<script type="application/ecmascript">
var viewWidth = 675;
var viewHeight = 96;
var sectionId = 'dynsection-23';
</script>
<script type="application/ecmascript" xlink:href="svg.min.js"/>
<svg id="graph" class="graph">
<g id="viewport">
<title>GLESC::Math::lt</title>
<!-- Node1 -->
<g id="Node000001" class="node">
<title>Node1</title>
<g id="a_Node000001"><a xlink:title="Compares two values for less than.">
<polygon fill="#999999" stroke="#666666" points="667,-57 579,-57 579,-37 667,-37 667,-57"/>
<text text-anchor="middle" x="623" y="-43.5" font-family="Helvetica,sans-Serif" font-size="10.00">GLESC::Math::lt</text>
</a>
</g>
</g>
<!-- Node2 -->
<g id="Node000002" class="node">
<title>Node2</title>
<g id="a_Node000002"><a xlink:href="namespace_g_l_e_s_c_1_1_physics.html#a1621e2a03fff6c4be0436391e2bc6ef5" target="_top" xlink:title=" ">
<polygon fill="white" stroke="#666666" points="543,-88 394.25,-88 394.25,-68 543,-68 543,-88"/>
<text text-anchor="middle" x="468.62" y="-74.5" font-family="Helvetica,sans-Serif" font-size="10.00">GLESC::Physics::getAxisFree</text>
</a>
</g>
</g>
<!-- Node1&#45;&gt;Node2 -->
<g id="edge1_Node000001_Node000002" class="edge">
<title>Node1&#45;&gt;Node2</title>
<g id="a_edge1_Node000001_Node000002"><a xlink:title=" ">
<path fill="none" stroke="#63b8ff" d="M567.48,-58.09C552.37,-61.17 536.02,-64.49 521.09,-67.53"/>
<polygon fill="#63b8ff" stroke="#63b8ff" points="568.16,-61.53 577.26,-56.1 566.76,-54.67 568.16,-61.53"/>
</a>
</g>
</g>
<!-- Node5 -->
<g id="Node000005" class="node">
<title>Node5</title>
<g id="a_Node000005"><a xlink:href="namespace_g_l_e_s_c_1_1_physics.html#ad4c6faf429a6e9c953e8d207d9cb1dff" target="_top" xlink:title=" ">
<polygon fill="white" stroke="#666666" points="536.62,-32 400.62,-32 400.62,0 536.62,0 536.62,-32"/>
<text text-anchor="start" x="408.62" y="-18.5" font-family="Helvetica,sans-Serif" font-size="10.00">GLESC::Physics::isFriction</text>
<text text-anchor="middle" x="468.62" y="-6.5" font-family="Helvetica,sans-Serif" font-size="10.00">Applied</text>
</a>
</g>
</g>
<!-- Node1&#45;&gt;Node5 -->
<g id="edge4_Node000001_Node000005" class="edge">
<title>Node1&#45;&gt;Node5</title>
<g id="a_edge4_Node000001_Node000005"><a xlink:title=" ">
<path fill="none" stroke="#63b8ff" d="M567.75,-35.96C557.76,-33.93 547.23,-31.79 536.92,-29.69"/>
<polygon fill="#63b8ff" stroke="#63b8ff" points="566.76,-39.33 577.26,-37.9 568.16,-32.47 566.76,-39.33"/>
</a>
</g>
</g>
<!-- Node3 -->
<g id="Node000003" class="node">
<title>Node3</title>
<g id="a_Node000003"><a xlink:href="class_g_l_e_s_c_1_1_physics_1_1_physics_manager.html#a989f5035ba226da4a55a192cb42b8675" target="_top" xlink:title=" ">
<polygon fill="white" stroke="#666666" points="358.25,-63 189.25,-63 189.25,-31 358.25,-31 358.25,-63"/>
<text text-anchor="start" x="197.25" y="-49.5" font-family="Helvetica,sans-Serif" font-size="10.00">GLESC::Physics::PhysicsManager</text>
<text text-anchor="middle" x="273.75" y="-37.5" font-family="Helvetica,sans-Serif" font-size="10.00">::handleCollisions</text>
</a>
</g>
</g>
<!-- Node2&#45;&gt;Node3 -->
<g id="edge2_Node000002_Node000003" class="edge">
<title>Node2&#45;&gt;Node3</title>
<g id="a_edge2_Node000002_Node000003"><a xlink:title=" ">
<path fill="none" stroke="#63b8ff" d="M391.25,-65.72C380.47,-63.99 369.35,-62.2 358.44,-60.45"/>
<polygon fill="#63b8ff" stroke="#63b8ff" points="390.4,-69.13 400.83,-67.26 391.51,-62.22 390.4,-69.13"/>
</a>
</g>
</g>
<!-- Node4 -->
<g id="Node000004" class="node">
<title>Node4</title>
<g id="a_Node000004"><a xlink:href="class_g_l_e_s_c_1_1_e_c_s_1_1_physics_collision_system.html#a01af297180e01be8c9d22d955bfb11b3" target="_top" xlink:title="Updates the system.">
<polygon fill="white" stroke="#666666" points="153.25,-63 0,-63 0,-31 153.25,-31 153.25,-63"/>
<text text-anchor="start" x="8" y="-49.5" font-family="Helvetica,sans-Serif" font-size="10.00">GLESC::ECS::PhysicsCollision</text>
<text text-anchor="middle" x="76.62" y="-37.5" font-family="Helvetica,sans-Serif" font-size="10.00">System::update</text>
</a>
</g>
</g>
<!-- Node3&#45;&gt;Node4 -->
<g id="edge3_Node000003_Node000004" class="edge">
<title>Node3&#45;&gt;Node4</title>
<g id="a_edge3_Node000003_Node000004"><a xlink:title=" ">
<path fill="none" stroke="#63b8ff" d="M177.59,-47C169.59,-47 161.57,-47 153.74,-47"/>
<polygon fill="#63b8ff" stroke="#63b8ff" points="177.35,-50.5 187.35,-47 177.35,-43.5 177.35,-50.5"/>
</a>
</g>
</g>
<!-- Node5&#45;&gt;Node3 -->
<g id="edge5_Node000005_Node000003" class="edge">
<title>Node5&#45;&gt;Node3</title>
<g id="a_edge5_Node000005_Node000003"><a xlink:title=" ">
<path fill="none" stroke="#63b8ff" d="M388.95,-28.64C378.9,-30.26 368.58,-31.92 358.45,-33.55"/>
<polygon fill="#63b8ff" stroke="#63b8ff" points="389.35,-32.13 398.67,-27.08 388.24,-25.21 389.35,-32.13"/>
</a>
</g>
</g>
<!-- Node5&#45;&gt;Node5 -->
<g id="edge6_Node000005_Node000005" class="edge">
<title>Node5&#45;&gt;Node5</title>
<g id="a_edge6_Node000005_Node000005"><a xlink:title=" ">
<path fill="none" stroke="#63b8ff" d="M494.35,-43.71C490.06,-47.48 481.49,-50 468.62,-50 445.11,-50 435.92,-41.58 441.06,-32.44"/>
<polygon fill="#63b8ff" stroke="#63b8ff" points="497.79,-44.37 495.94,-33.94 490.88,-43.24 497.79,-44.37"/>
</a>
</g>
</g>
</g>
</svg>

<g id="navigator" transform="translate(0 0)" fill="#404254">
  <rect fill="#f2f5e9" fill-opacity="0.5" stroke="#606060" stroke-width=".5" x="0" y="0" width="60" height="60"/>
  <use id="zoomplus" xlink:href="#zoomPlus" x="17" y="9" onmousedown="handleZoom(evt,'in')"/>
  <use id="zoomminus" xlink:href="#zoomMin" x="42" y="9" onmousedown="handleZoom(evt,'out')"/>
  <use id="reset" xlink:href="#resetDef" x="30" y="36" onmousedown="handleReset()"/>
   <use id="arrowup" xlink:href="#arrowUp" x="0" y="0" onmousedown="handlePan(0,-1)"/>
  <use id="arrowright" xlink:href="#arrowRight" x="0" y="0" onmousedown="handlePan(1,0)"/>
  <use id="arrowdown" xlink:href="#arrowDown" x="0" y="0" onmousedown="handlePan(0,1)"/>
  <use id="arrowleft" xlink:href="#arrowLeft" x="0" y="0" onmousedown="handlePan(-1,0)"/>
</g>
<svg viewBox="0 0 15 15" width="100%" height="30px" preserveAspectRatio="xMaxYMin meet">
 <g id="arrow_out" transform="scale(0.3 0.3)">
  <a xlink:href="namespace_g_l_e_s_c_1_1_math_a071e4c2a3c88d498f7a789a794585f45_icgraph_org.svg" target="_base">
   <rect id="button" ry="5" rx="5" y="6" x="6" height="38" width="38"
        fill="#f2f5e9" fill-opacity="0.5" stroke="#606060" stroke-width="1.0"/>
   <path id="arrow"
     d="M 11.500037,31.436501 C 11.940474,20.09759 22.043105,11.32322 32.158766,21.979434 L 37.068811,17.246167 C 37.068811,17.246167 37.088388,32 37.088388,32 L 22.160133,31.978069 C 22.160133,31.978069 26.997745,27.140456 26.997745,27.140456 C 18.528582,18.264221 13.291696,25.230495 11.500037,31.436501 z"
     style="fill:#404040;"/>
  </a>
 </g>
</svg>

<style type='text/css'>
<![CDATA[
[data-mouse-over-selected='false'] { opacity: 0.7; }
[data-mouse-over-selected='true']  { opacity: 1.0; }
]]>
</style>
<script type="application/ecmascript"><![CDATA[
document.addEventListener('DOMContentLoaded', (event) => {
  highlightEdges();
  highlightAdjacentNodes();
});
]]></script>
</svg>
