<?xml version="1.0" encoding="UTF-8" standalone="no"?>
<!DOCTYPE svg PUBLIC "-//W3C//DTD SVG 1.1//EN"
 "http://www.w3.org/Graphics/SVG/1.1/DTD/svg11.dtd">
<!-- Generated by graphviz version 11.0.0 (20240428.1522)
 -->
<!-- Title: GLESC::Input::keyToString Pages: 1 -->
<svg width="477pt" height="90pt"
 viewBox="0.00 0.00 476.75 90.00" xmlns="http://www.w3.org/2000/svg" xmlns:xlink="http://www.w3.org/1999/xlink">
<g id="graph0" class="graph" transform="scale(1 1) rotate(0) translate(4 86)">
<title>GLESC::Input::keyToString</title>
<!-- Node1 -->
<g id="Node000001" class="node">
<title>Node1</title>
<g id="a_Node000001"><a xlink:title="Converts the key to a string.">
<polygon fill="#999999" stroke="#666666" points="468.75,-51 335,-51 335,-31 468.75,-31 468.75,-51"/>
<text text-anchor="middle" x="401.88" y="-37.5" font-family="Helvetica,sans-Serif" font-size="10.00">GLESC::Input::keyToString</text>
</a>
</g>
</g>
<!-- Node2 -->
<g id="Node000002" class="node">
<title>Node2</title>
<g id="a_Node000002"><a xlink:href="class_g_l_e_s_c_1_1_input_1_1_input.html#aca50d6c094ba44bd28339ca49c58e731" target="_top" xlink:title=" ">
<polygon fill="white" stroke="#666666" points="299,-82 187.75,-82 187.75,-50 299,-50 299,-82"/>
<text text-anchor="start" x="195.75" y="-68.5" font-family="Helvetica,sans-Serif" font-size="10.00">GLESC::Input::Input</text>
<text text-anchor="middle" x="243.38" y="-56.5" font-family="Helvetica,sans-Serif" font-size="10.00">::getDebuggingValues</text>
</a>
</g>
</g>
<!-- Node1&#45;&gt;Node2 -->
<g id="edge1_Node000001_Node000002" class="edge">
<title>Node1&#45;&gt;Node2</title>
<g id="a_edge1_Node000001_Node000002"><a xlink:title=" ">
<path fill="none" stroke="#63b8ff" d="M324.3,-53.23C315.82,-54.59 307.31,-55.95 299.17,-57.25"/>
<polygon fill="#63b8ff" stroke="#63b8ff" points="324.59,-56.73 333.92,-51.7 323.49,-49.82 324.59,-56.73"/>
</a>
</g>
</g>
<!-- Node4 -->
<g id="Node000004" class="node">
<title>Node4</title>
<g id="a_Node000004"><a xlink:href="class_g_l_e_s_c_1_1_input_1_1_input.html#a7ae6bf56db8395d9a0d41b856c3a12a5" target="_top" xlink:title=" ">
<polygon fill="white" stroke="#666666" points="294.88,-32 191.88,-32 191.88,0 294.88,0 294.88,-32"/>
<text text-anchor="start" x="199.88" y="-18.5" font-family="Helvetica,sans-Serif" font-size="10.00">GLESC::Input::Input</text>
<text text-anchor="middle" x="243.38" y="-6.5" font-family="Helvetica,sans-Serif" font-size="10.00">::toString</text>
</a>
</g>
</g>
<!-- Node1&#45;&gt;Node4 -->
<g id="edge3_Node000001_Node000004" class="edge">
<title>Node1&#45;&gt;Node4</title>
<g id="a_edge3_Node000001_Node000004"><a xlink:title=" ">
<path fill="none" stroke="#63b8ff" d="M324.34,-28.77C314.48,-27.2 304.59,-25.62 295.29,-24.13"/>
<polygon fill="#63b8ff" stroke="#63b8ff" points="323.49,-32.18 333.92,-30.3 324.59,-25.27 323.49,-32.18"/>
</a>
</g>
</g>
<!-- Node3 -->
<g id="Node000003" class="node">
<title>Node3</title>
<g id="a_Node000003"><a xlink:href="struct_g_l_e_s_c_1_1_e_c_s_1_1_input_component.html#a864bc03be5b6923c5e4d050ab5fe696c" target="_top" xlink:title="Set the debugging values of the component.">
<polygon fill="white" stroke="#666666" points="151.75,-82 0,-82 0,-50 151.75,-50 151.75,-82"/>
<text text-anchor="start" x="8" y="-68.5" font-family="Helvetica,sans-Serif" font-size="10.00">GLESC::ECS::InputComponent</text>
<text text-anchor="middle" x="75.88" y="-56.5" font-family="Helvetica,sans-Serif" font-size="10.00">::setDebuggingValues</text>
</a>
</g>
</g>
<!-- Node2&#45;&gt;Node3 -->
<g id="edge2_Node000002_Node000003" class="edge">
<title>Node2&#45;&gt;Node3</title>
<g id="a_edge2_Node000002_Node000003"><a xlink:title=" ">
<path fill="none" stroke="#63b8ff" d="M175.94,-66C168.09,-66 160.04,-66 152.07,-66"/>
<polygon fill="#63b8ff" stroke="#63b8ff" points="175.75,-69.5 185.75,-66 175.75,-62.5 175.75,-69.5"/>
</a>
</g>
</g>
<!-- Node5 -->
<g id="Node000005" class="node">
<title>Node5</title>
<g id="a_Node000005"><a xlink:href="struct_g_l_e_s_c_1_1_e_c_s_1_1_input_component.html#a73c19ddeed216265a59d9f4e40ed9bd0" target="_top" xlink:title="Each component must have a toString function.">
<polygon fill="white" stroke="#666666" points="151.75,-32 0,-32 0,0 151.75,0 151.75,-32"/>
<text text-anchor="start" x="8" y="-18.5" font-family="Helvetica,sans-Serif" font-size="10.00">GLESC::ECS::InputComponent</text>
<text text-anchor="middle" x="75.88" y="-6.5" font-family="Helvetica,sans-Serif" font-size="10.00">::toString</text>
</a>
</g>
</g>
<!-- Node4&#45;&gt;Node5 -->
<g id="edge4_Node000004_Node000005" class="edge">
<title>Node4&#45;&gt;Node5</title>
<g id="a_edge4_Node000004_Node000005"><a xlink:title=" ">
<path fill="none" stroke="#63b8ff" d="M180.37,-16C171.15,-16 161.56,-16 152.1,-16"/>
<polygon fill="#63b8ff" stroke="#63b8ff" points="180.31,-19.5 190.31,-16 180.31,-12.5 180.31,-19.5"/>
</a>
</g>
</g>
</g>
</svg>
