<?xml version="1.0" encoding="UTF-8" standalone="no"?>
<!DOCTYPE svg PUBLIC "-//W3C//DTD SVG 1.1//EN"
 "http://www.w3.org/Graphics/SVG/1.1/DTD/svg11.dtd">
<!-- Generated by graphviz version 11.0.0 (20240428.1522)
 -->
<!-- Title: GLESC::Math::generateRandomNumber Pages: 1 -->
<svg width="325pt" height="58pt"
 viewBox="0.00 0.00 325.00 58.00" xmlns="http://www.w3.org/2000/svg" xmlns:xlink="http://www.w3.org/1999/xlink">
<g id="graph0" class="graph" transform="scale(1 1) rotate(0) translate(4 54)">
<title>GLESC::Math::generateRandomNumber</title>
<!-- Node1 -->
<g id="Node000001" class="node">
<title>Node1</title>
<g id="a_Node000001"><a xlink:title="Generates a random number with the widest range possible for the type.">
<polygon fill="#999999" stroke="#666666" points="317,-32 160.75,-32 160.75,0 317,0 317,-32"/>
<text text-anchor="start" x="168.75" y="-18.5" font-family="Helvetica,sans-Serif" font-size="10.00">GLESC::Math::generateRandom</text>
<text text-anchor="middle" x="238.88" y="-6.5" font-family="Helvetica,sans-Serif" font-size="10.00">Number</text>
</a>
</g>
</g>
<!-- Node1&#45;&gt;Node1 -->
<g id="edge2_Node000001_Node000001" class="edge">
<title>Node1&#45;&gt;Node1</title>
<g id="a_edge2_Node000001_Node000001"><a xlink:title=" ">
<path fill="none" stroke="#63b8ff" d="M268.29,-43.71C263.38,-47.48 253.58,-50 238.88,-50 211.99,-50 201.48,-41.58 207.36,-32.44"/>
<polygon fill="#63b8ff" stroke="#63b8ff" points="271.72,-44.4 270.11,-33.93 264.84,-43.12 271.72,-44.4"/>
</a>
</g>
</g>
<!-- Node2 -->
<g id="Node000002" class="node">
<title>Node2</title>
<g id="a_Node000002"><a xlink:href="class_g_l_e_s_c_1_1_render_1_1_skybox.html#ad9f7695fdc637e79ea1ae7cd5ecb5f5b" target="_top" xlink:title="Calculates the average color of the skybox.">
<polygon fill="white" stroke="#666666" points="124.75,-32 0,-32 0,0 124.75,0 124.75,-32"/>
<text text-anchor="start" x="8" y="-18.5" font-family="Helvetica,sans-Serif" font-size="10.00">GLESC::Render::Skybox</text>
<text text-anchor="middle" x="62.38" y="-6.5" font-family="Helvetica,sans-Serif" font-size="10.00">::calculateAverageColor</text>
</a>
</g>
</g>
<!-- Node1&#45;&gt;Node2 -->
<g id="edge1_Node000001_Node000002" class="edge">
<title>Node1&#45;&gt;Node2</title>
<g id="a_edge1_Node000001_Node000002"><a xlink:title=" ">
<path fill="none" stroke="#63b8ff" d="M148.99,-16C140.97,-16 132.96,-16 125.25,-16"/>
<polygon fill="#63b8ff" stroke="#63b8ff" points="148.81,-19.5 158.81,-16 148.81,-12.5 148.81,-19.5"/>
</a>
</g>
</g>
</g>
</svg>
