<?xml version="1.0" encoding="UTF-8" standalone="no"?>
<!DOCTYPE svg PUBLIC "-//W3C//DTD SVG 1.1//EN"
 "http://www.w3.org/Graphics/SVG/1.1/DTD/svg11.dtd">
<!-- Generated by graphviz version 11.0.0 (20240428.1522)
 -->
<!-- Title: GLESC::Hasher::hashCombine Pages: 1 -->
<svg width="493pt" height="378pt"
 viewBox="0.00 0.00 493.25 378.00" xmlns="http://www.w3.org/2000/svg" xmlns:xlink="http://www.w3.org/1999/xlink">

<svg id="main" version="1.1" xmlns="http://www.w3.org/2000/svg" xmlns:xlink="http://www.w3.org/1999/xlink" xml:space="preserve" onload="init(evt)">
<style type="text/css"><![CDATA[
.node, .edge {opacity: 0.7;}
.node.selected, .edge.selected {opacity: 1;}
.edge:hover path { stroke: red; }
.edge:hover polygon { stroke: red; fill: red; }
]]></style>
<script type="application/ecmascript" xlink:href="svg.min.js"/>
<svg id="graph" class="graph">
<g id="graph0" class="graph" transform="scale(1 1) rotate(0) translate(4 374)">
<title>GLESC::Hasher::hashCombine</title>
<!-- Node1 -->
<g id="Node000001" class="node">
<title>Node1</title>
<g id="a_Node000001"><a xlink:title=" ">
<polygon fill="#999999" stroke="#666666" points="485.25,-201 334.25,-201 334.25,-181 485.25,-181 485.25,-201"/>
<text text-anchor="middle" x="409.75" y="-187.5" font-family="Helvetica,sans-Serif" font-size="10.00">GLESC::Hasher::hashCombine</text>
</a>
</g>
</g>
<!-- Node2 -->
<g id="Node000002" class="node">
<title>Node2</title>
<g id="a_Node000002"><a xlink:href="class_g_l_e_s_c_1_1_render_1_1_mesh.html#a558dc6a8524805e237a86604b5b4454c" target="_top" xlink:title="Helper function to calculate the hash of the mesh.">
<polygon fill="white" stroke="#666666" points="282.88,-370 167.12,-370 167.12,-338 282.88,-338 282.88,-370"/>
<text text-anchor="start" x="175.12" y="-356.5" font-family="Helvetica,sans-Serif" font-size="10.00">GLESC::Render::Mesh</text>
<text text-anchor="middle" x="225" y="-344.5" font-family="Helvetica,sans-Serif" font-size="10.00">::calculateHash</text>
</a>
</g>
</g>
<!-- Node1&#45;&gt;Node2 -->
<g id="edge1_Node000001_Node000002" class="edge">
<title>Node1&#45;&gt;Node2</title>
<g id="a_edge1_Node000001_Node000002"><a xlink:title=" ">
<path fill="none" stroke="#63b8ff" d="M397.74,-211.01C380.36,-240.83 343.82,-296.85 298.25,-329 293.59,-332.29 288.45,-335.18 283.13,-337.71"/>
<polygon fill="#63b8ff" stroke="#63b8ff" points="400.61,-213.04 402.51,-202.62 394.53,-209.58 400.61,-213.04"/>
</a>
</g>
</g>
<!-- Node4 -->
<g id="Node000004" class="node">
<title>Node4</title>
<g id="a_Node000004"><a xlink:href="class_texture_factory.html#a55d24587dc859b1d3bdb94b88cf63b62" target="_top" xlink:title=" ">
<polygon fill="white" stroke="#666666" points="298.25,-320 151.75,-320 151.75,-300 298.25,-300 298.25,-320"/>
<text text-anchor="middle" x="225" y="-306.5" font-family="Helvetica,sans-Serif" font-size="10.00">TextureFactory::loadCubemap</text>
</a>
</g>
</g>
<!-- Node1&#45;&gt;Node4 -->
<g id="edge3_Node000001_Node000004" class="edge">
<title>Node1&#45;&gt;Node4</title>
<g id="a_edge3_Node000001_Node000004"><a xlink:title=" ">
<path fill="none" stroke="#63b8ff" d="M393.03,-209.93C373.23,-232.55 337.07,-269.98 298.25,-291 291.98,-294.4 285.07,-297.21 278.08,-299.54"/>
<polygon fill="#63b8ff" stroke="#63b8ff" points="395.65,-212.26 399.49,-202.38 390.33,-207.71 395.65,-212.26"/>
</a>
</g>
</g>
<!-- Node5 -->
<g id="Node000005" class="node">
<title>Node5</title>
<g id="a_Node000005"><a xlink:href="structstd_1_1hash_3_01_g_l_e_s_c_1_1_input_1_1_key_input_01_4.html#a33abbc219447940ebe5e54c569443357" target="_top" xlink:title=" ">
<polygon fill="white" stroke="#666666" points="287.75,-282 162.25,-282 162.25,-250 287.75,-250 287.75,-282"/>
<text text-anchor="start" x="170.25" y="-268.5" font-family="Helvetica,sans-Serif" font-size="10.00">std::hash&lt; GLESC::Input</text>
<text text-anchor="middle" x="225" y="-256.5" font-family="Helvetica,sans-Serif" font-size="10.00">::KeyInput &gt;::operator()</text>
</a>
</g>
</g>
<!-- Node1&#45;&gt;Node5 -->
<g id="edge4_Node000001_Node000005" class="edge">
<title>Node1&#45;&gt;Node5</title>
<g id="a_edge4_Node000001_Node000005"><a xlink:title=" ">
<path fill="none" stroke="#63b8ff" d="M377.04,-206.28C355.13,-216.61 325.19,-230.27 298.25,-241 290.97,-243.9 283.22,-246.79 275.58,-249.52"/>
<polygon fill="#63b8ff" stroke="#63b8ff" points="378.5,-209.46 386.04,-202.01 375.5,-203.14 378.5,-209.46"/>
</a>
</g>
</g>
<!-- Node6 -->
<g id="Node000006" class="node">
<title>Node6</title>
<g id="a_Node000006"><a xlink:href="structstd_1_1hash_3_01_g_l_e_s_c_1_1_render_1_1_color_rgba_norm_01_4.html#aa4b8f8bc50aaad1c0d34c70585e2366a" target="_top" xlink:title=" ">
<polygon fill="white" stroke="#666666" points="298.25,-232 151.75,-232 151.75,-200 298.25,-200 298.25,-232"/>
<text text-anchor="start" x="159.75" y="-218.5" font-family="Helvetica,sans-Serif" font-size="10.00">std::hash&lt; GLESC::Render</text>
<text text-anchor="middle" x="225" y="-206.5" font-family="Helvetica,sans-Serif" font-size="10.00">::ColorRgbaNorm &gt;::operator()</text>
</a>
</g>
</g>
<!-- Node1&#45;&gt;Node6 -->
<g id="edge5_Node000001_Node000006" class="edge">
<title>Node1&#45;&gt;Node6</title>
<g id="a_edge5_Node000001_Node000006"><a xlink:title=" ">
<path fill="none" stroke="#63b8ff" d="M322.63,-202.78C314.61,-203.88 306.55,-204.98 298.68,-206.06"/>
<polygon fill="#63b8ff" stroke="#63b8ff" points="322.96,-206.27 332.39,-201.45 322.01,-199.33 322.96,-206.27"/>
</a>
</g>
</g>
<!-- Node7 -->
<g id="Node000007" class="node">
<title>Node7</title>
<g id="a_Node000007"><a xlink:href="structstd_1_1hash_3_01_g_l_e_s_c_1_1_render_1_1_color_rgb_norm_01_4.html#ab8ab3a2f3393457d3ac4ff7d1928023d" target="_top" xlink:title=" ">
<polygon fill="white" stroke="#666666" points="295.62,-182 154.38,-182 154.38,-150 295.62,-150 295.62,-182"/>
<text text-anchor="start" x="162.38" y="-168.5" font-family="Helvetica,sans-Serif" font-size="10.00">std::hash&lt; GLESC::Render</text>
<text text-anchor="middle" x="225" y="-156.5" font-family="Helvetica,sans-Serif" font-size="10.00">::ColorRgbNorm &gt;::operator()</text>
</a>
</g>
</g>
<!-- Node1&#45;&gt;Node7 -->
<g id="edge6_Node000001_Node000007" class="edge">
<title>Node1&#45;&gt;Node7</title>
<g id="a_edge6_Node000001_Node000007"><a xlink:title=" ">
<path fill="none" stroke="#63b8ff" d="M322.65,-179.22C313.73,-178 304.75,-176.77 296.03,-175.58"/>
<polygon fill="#63b8ff" stroke="#63b8ff" points="322.01,-182.67 332.39,-180.55 322.96,-175.73 322.01,-182.67"/>
</a>
</g>
</g>
<!-- Node8 -->
<g id="Node000008" class="node">
<title>Node8</title>
<g id="a_Node000008"><a xlink:href="structstd_1_1hash_3_01_g_l_e_s_c_1_1_render_1_1_color_vertex_01_4.html#a5238af79ef8e391f882b4879b7684371" target="_top" xlink:title=" ">
<polygon fill="white" stroke="#666666" points="292.62,-132 157.38,-132 157.38,-100 292.62,-100 292.62,-132"/>
<text text-anchor="start" x="165.38" y="-118.5" font-family="Helvetica,sans-Serif" font-size="10.00">std::hash&lt; GLESC::Render</text>
<text text-anchor="middle" x="225" y="-106.5" font-family="Helvetica,sans-Serif" font-size="10.00">::ColorVertex &gt;::operator()</text>
</a>
</g>
</g>
<!-- Node1&#45;&gt;Node8 -->
<g id="edge7_Node000001_Node000008" class="edge">
<title>Node1&#45;&gt;Node8</title>
<g id="a_edge7_Node000001_Node000008"><a xlink:title=" ">
<path fill="none" stroke="#63b8ff" d="M377.04,-175.72C355.13,-165.39 325.19,-151.73 298.25,-141 290.97,-138.1 283.22,-135.21 275.58,-132.48"/>
<polygon fill="#63b8ff" stroke="#63b8ff" points="375.5,-178.86 386.04,-179.99 378.5,-172.54 375.5,-178.86"/>
</a>
</g>
</g>
<!-- Node9 -->
<g id="Node000009" class="node">
<title>Node9</title>
<g id="a_Node000009"><a xlink:href="structstd_1_1hash_3_01_g_l_e_s_c_1_1_render_1_1_material_01_4.html#aeaf56ed50fed12b3666740779d9499c8" target="_top" xlink:title=" ">
<polygon fill="white" stroke="#666666" points="292.62,-82 157.38,-82 157.38,-50 292.62,-50 292.62,-82"/>
<text text-anchor="start" x="165.38" y="-68.5" font-family="Helvetica,sans-Serif" font-size="10.00">std::hash&lt; GLESC::Render</text>
<text text-anchor="middle" x="225" y="-56.5" font-family="Helvetica,sans-Serif" font-size="10.00">::Material &gt;::operator()</text>
</a>
</g>
</g>
<!-- Node1&#45;&gt;Node9 -->
<g id="edge8_Node000001_Node000009" class="edge">
<title>Node1&#45;&gt;Node9</title>
<g id="a_edge8_Node000001_Node000009"><a xlink:title=" ">
<path fill="none" stroke="#63b8ff" d="M392.44,-172.21C372.3,-150.04 336.05,-113.37 298.25,-91 292.88,-87.82 287.05,-84.97 281.1,-82.43"/>
<polygon fill="#63b8ff" stroke="#63b8ff" points="389.77,-174.48 399.04,-179.61 395,-169.82 389.77,-174.48"/>
</a>
</g>
</g>
<!-- Node10 -->
<g id="Node000010" class="node">
<title>Node10</title>
<g id="a_Node000010"><a xlink:href="structstd_1_1hash_3_01_g_l_e_s_c_1_1_render_1_1_texture_vertex_01_4.html#a1ee0c9238c19f0d1b86c23685007de40" target="_top" xlink:title=" ">
<polygon fill="white" stroke="#666666" points="294.5,-32 155.5,-32 155.5,0 294.5,0 294.5,-32"/>
<text text-anchor="start" x="163.5" y="-18.5" font-family="Helvetica,sans-Serif" font-size="10.00">std::hash&lt; GLESC::Render</text>
<text text-anchor="middle" x="225" y="-6.5" font-family="Helvetica,sans-Serif" font-size="10.00">::TextureVertex &gt;::operator()</text>
</a>
</g>
</g>
<!-- Node1&#45;&gt;Node10 -->
<g id="edge9_Node000001_Node000010" class="edge">
<title>Node1&#45;&gt;Node10</title>
<g id="a_edge9_Node000001_Node000010"><a xlink:title=" ">
<path fill="none" stroke="#63b8ff" d="M398.89,-170.59C382.4,-138.52 346.25,-76.33 298.25,-41 293.87,-37.77 289.04,-34.94 284.01,-32.46"/>
<polygon fill="#63b8ff" stroke="#63b8ff" points="395.61,-171.86 403.21,-179.24 401.87,-168.73 395.61,-171.86"/>
</a>
</g>
</g>
<!-- Node3 -->
<g id="Node000003" class="node">
<title>Node3</title>
<g id="a_Node000003"><a xlink:href="class_g_l_e_s_c_1_1_render_1_1_mesh.html#ac6fe60df79f0a10240c9372c44d469fb" target="_top" xlink:title="Calculates lazily the hash of the mesh. Only recalculates if the mesh has been changed.">
<polygon fill="white" stroke="#666666" points="115.75,-370 0,-370 0,-338 115.75,-338 115.75,-370"/>
<text text-anchor="start" x="8" y="-356.5" font-family="Helvetica,sans-Serif" font-size="10.00">GLESC::Render::Mesh</text>
<text text-anchor="middle" x="57.88" y="-344.5" font-family="Helvetica,sans-Serif" font-size="10.00">::hash</text>
</a>
</g>
</g>
<!-- Node2&#45;&gt;Node3 -->
<g id="edge2_Node000002_Node000003" class="edge">
<title>Node2&#45;&gt;Node3</title>
<g id="a_edge2_Node000002_Node000003"><a xlink:title=" ">
<path fill="none" stroke="#63b8ff" d="M155.38,-354C142.3,-354 128.74,-354 116.06,-354"/>
<polygon fill="#63b8ff" stroke="#63b8ff" points="155.2,-357.5 165.2,-354 155.2,-350.5 155.2,-357.5"/>
</a>
</g>
</g>
</g>
</svg>
</svg>

<style type='text/css'>
<![CDATA[
[data-mouse-over-selected='false'] { opacity: 0.7; }
[data-mouse-over-selected='true']  { opacity: 1.0; }
]]>
</style>
<script type="application/ecmascript"><![CDATA[
document.addEventListener('DOMContentLoaded', (event) => {
  highlightEdges();
  highlightAdjacentNodes();
});
]]></script>
</svg>
