<?xml version="1.0" encoding="UTF-8" standalone="no"?>
<!DOCTYPE svg PUBLIC "-//W3C//DTD SVG 1.1//EN"
 "http://www.w3.org/Graphics/SVG/1.1/DTD/svg11.dtd">
<!-- Generated by graphviz version 11.0.0 (20240428.1522)
 -->
<!-- Title: GLESC::Math::cos Pages: 1 -->
<svg width="1354pt" height="429pt"
 viewBox="0.00 0.00 1354.00 429.00" xmlns="http://www.w3.org/2000/svg" xmlns:xlink="http://www.w3.org/1999/xlink">
<g id="graph0" class="graph" transform="scale(1 1) rotate(0) translate(4 425)">
<title>GLESC::Math::cos</title>
<!-- Node1 -->
<g id="Node000001" class="node">
<title>Node1</title>
<g id="a_Node000001"><a xlink:title="Calculates the cosine of a value.">
<polygon fill="#999999" stroke="#666666" points="1346,-189 1247.5,-189 1247.5,-169 1346,-169 1346,-189"/>
<text text-anchor="middle" x="1296.75" y="-175.5" font-family="Helvetica,sans-Serif" font-size="10.00">GLESC::Math::cos</text>
</a>
</g>
</g>
<!-- Node2 -->
<g id="Node000002" class="node">
<title>Node2</title>
<g id="a_Node000002"><a xlink:href="class_g_l_e_s_c_1_1_math_1_1_matrix_mixed_algorithms.html#a88aadedf958ac6e320f73137e81aaf37" target="_top" xlink:title="Rotate a 3D matrix around the X, Y, and Z axis.">
<polygon fill="white" stroke="#666666" points="1207.38,-332 1057.88,-332 1057.88,-288 1207.38,-288 1207.38,-332"/>
<text text-anchor="start" x="1065.88" y="-318.5" font-family="Helvetica,sans-Serif" font-size="10.00">GLESC::Math::MatrixMixed</text>
<text text-anchor="start" x="1065.88" y="-306.5" font-family="Helvetica,sans-Serif" font-size="10.00">Algorithms::getRotate3DMatrix</text>
<text text-anchor="middle" x="1132.62" y="-294.5" font-family="Helvetica,sans-Serif" font-size="10.00">ForAxis</text>
</a>
</g>
</g>
<!-- Node1&#45;&gt;Node2 -->
<g id="edge1_Node000001_Node000002" class="edge">
<title>Node1&#45;&gt;Node2</title>
<g id="a_edge1_Node000001_Node000002"><a xlink:title=" ">
<path fill="none" stroke="#63b8ff" d="M1283.56,-198.63C1268.88,-220.82 1242.34,-256.76 1211.5,-279 1207.13,-282.15 1202.4,-285.04 1197.5,-287.67"/>
<polygon fill="#63b8ff" stroke="#63b8ff" points="1286.32,-200.8 1288.79,-190.5 1280.43,-197.01 1286.32,-200.8"/>
</a>
</g>
</g>
<!-- Node11 -->
<g id="Node000011" class="node">
<title>Node11</title>
<g id="a_Node000011"><a xlink:href="class_g_l_e_s_c_1_1_math_1_1_vector_algorithms.html#a77a66f0f55bf3620e92c2cffd4773dab" target="_top" xlink:title="Makes a forward vector from rotation angles.">
<polygon fill="white" stroke="#666666" points="1211.5,-270 1053.75,-270 1053.75,-238 1211.5,-238 1211.5,-270"/>
<text text-anchor="start" x="1061.75" y="-256.5" font-family="Helvetica,sans-Serif" font-size="10.00">GLESC::Math::VectorAlgorithms</text>
<text text-anchor="middle" x="1132.62" y="-244.5" font-family="Helvetica,sans-Serif" font-size="10.00">::makeForwardVector</text>
</a>
</g>
</g>
<!-- Node1&#45;&gt;Node11 -->
<g id="edge10_Node000001_Node000011" class="edge">
<title>Node1&#45;&gt;Node11</title>
<g id="a_edge10_Node000001_Node000011"><a xlink:title=" ">
<path fill="none" stroke="#63b8ff" d="M1271.1,-195.64C1254.72,-206.19 1232.43,-219.57 1211.5,-229 1204.64,-232.09 1197.28,-234.97 1189.92,-237.6"/>
<polygon fill="#63b8ff" stroke="#63b8ff" points="1272.77,-198.73 1279.21,-190.32 1268.93,-192.87 1272.77,-198.73"/>
</a>
</g>
</g>
<!-- Node19 -->
<g id="Node000019" class="node">
<title>Node19</title>
<g id="a_Node000019"><a xlink:href="class_g_l_e_s_c_1_1_math_1_1_vector_algorithms.html#a75d6e29326396451ea50687480ccb518" target="_top" xlink:title="Makes a right vector from rotation angles.">
<polygon fill="white" stroke="#666666" points="1211.5,-220 1053.75,-220 1053.75,-188 1211.5,-188 1211.5,-220"/>
<text text-anchor="start" x="1061.75" y="-206.5" font-family="Helvetica,sans-Serif" font-size="10.00">GLESC::Math::VectorAlgorithms</text>
<text text-anchor="middle" x="1132.62" y="-194.5" font-family="Helvetica,sans-Serif" font-size="10.00">::makeRightVector</text>
</a>
</g>
</g>
<!-- Node1&#45;&gt;Node19 -->
<g id="edge19_Node000001_Node000019" class="edge">
<title>Node1&#45;&gt;Node19</title>
<g id="a_edge19_Node000001_Node000019"><a xlink:title=" ">
<path fill="none" stroke="#63b8ff" d="M1235.9,-188.23C1228.1,-189.43 1220,-190.68 1211.95,-191.92"/>
<polygon fill="#63b8ff" stroke="#63b8ff" points="1236.26,-191.71 1245.61,-186.73 1235.19,-184.8 1236.26,-191.71"/>
</a>
</g>
</g>
<!-- Node25 -->
<g id="Node000025" class="node">
<title>Node25</title>
<g id="a_Node000025"><a xlink:href="class_g_l_e_s_c_1_1_math_1_1_vector_algorithms.html#a94dd9f9cd9cf9d66f5de30dc7c2cc422" target="_top" xlink:title="Makes an up vector from rotation angles.">
<polygon fill="white" stroke="#666666" points="1211.5,-170 1053.75,-170 1053.75,-138 1211.5,-138 1211.5,-170"/>
<text text-anchor="start" x="1061.75" y="-156.5" font-family="Helvetica,sans-Serif" font-size="10.00">GLESC::Math::VectorAlgorithms</text>
<text text-anchor="middle" x="1132.62" y="-144.5" font-family="Helvetica,sans-Serif" font-size="10.00">::makeUpVector</text>
</a>
</g>
</g>
<!-- Node1&#45;&gt;Node25 -->
<g id="edge27_Node000001_Node000025" class="edge">
<title>Node1&#45;&gt;Node25</title>
<g id="a_edge27_Node000001_Node000025"><a xlink:title=" ">
<path fill="none" stroke="#63b8ff" d="M1235.9,-169.77C1228.1,-168.57 1220,-167.32 1211.95,-166.08"/>
<polygon fill="#63b8ff" stroke="#63b8ff" points="1235.19,-173.2 1245.61,-171.27 1236.26,-166.29 1235.19,-173.2"/>
</a>
</g>
</g>
<!-- Node29 -->
<g id="Node000029" class="node">
<title>Node29</title>
<g id="a_Node000029"><a xlink:href="class_g_l_e_s_c_1_1_math_1_1_vector_algorithms.html#a6ca52869ac900565e8b829736d266ea5" target="_top" xlink:title="Rotates a 3D vector by the given rotation angles.">
<polygon fill="white" stroke="#666666" points="1211.5,-120 1053.75,-120 1053.75,-88 1211.5,-88 1211.5,-120"/>
<text text-anchor="start" x="1061.75" y="-106.5" font-family="Helvetica,sans-Serif" font-size="10.00">GLESC::Math::VectorAlgorithms</text>
<text text-anchor="middle" x="1132.62" y="-94.5" font-family="Helvetica,sans-Serif" font-size="10.00">::rotateVector3D</text>
</a>
</g>
</g>
<!-- Node1&#45;&gt;Node29 -->
<g id="edge31_Node000001_Node000029" class="edge">
<title>Node1&#45;&gt;Node29</title>
<g id="a_edge31_Node000001_Node000029"><a xlink:title=" ">
<path fill="none" stroke="#63b8ff" d="M1271.1,-162.36C1254.72,-151.81 1232.43,-138.43 1211.5,-129 1204.64,-125.91 1197.28,-123.03 1189.92,-120.4"/>
<polygon fill="#63b8ff" stroke="#63b8ff" points="1268.93,-165.13 1279.21,-167.68 1272.77,-159.27 1268.93,-165.13"/>
</a>
</g>
</g>
<!-- Node33 -->
<g id="Node000033" class="node">
<title>Node33</title>
<g id="a_Node000033"><a xlink:href="class_g_l_e_s_c_1_1_render_1_1_mesh_factory.html#ac34bbd39823c1d507524e1395305e310" target="_top" xlink:title="Creates a sphere mesh given a number of slices, stacks, a radius and a color.">
<polygon fill="white" stroke="#666666" points="1207,-48 1058.25,-48 1058.25,-16 1207,-16 1207,-48"/>
<text text-anchor="start" x="1066.25" y="-34.5" font-family="Helvetica,sans-Serif" font-size="10.00">GLESC::Render::MeshFactory</text>
<text text-anchor="middle" x="1132.62" y="-22.5" font-family="Helvetica,sans-Serif" font-size="10.00">::sphere</text>
</a>
</g>
</g>
<!-- Node1&#45;&gt;Node33 -->
<g id="edge35_Node000001_Node000033" class="edge">
<title>Node1&#45;&gt;Node33</title>
<g id="a_edge35_Node000001_Node000033"><a xlink:title=" ">
<path fill="none" stroke="#63b8ff" d="M1282.18,-159.3C1266.75,-137.84 1239.98,-103.33 1211.5,-79 1197.69,-67.21 1180.57,-56.52 1165.91,-48.33"/>
<polygon fill="#63b8ff" stroke="#63b8ff" points="1279.3,-161.29 1287.93,-167.45 1285.02,-157.26 1279.3,-161.29"/>
</a>
</g>
</g>
<!-- Node3 -->
<g id="Node000003" class="node">
<title>Node3</title>
<g id="a_Node000003"><a xlink:href="class_g_l_e_s_c_1_1_math_1_1_matrix_mixed_algorithms.html#a67bdda15ead970e5074845bdf3fcf085" target="_top" xlink:title=" ">
<polygon fill="white" stroke="#666666" points="1017.75,-385 862.25,-385 862.25,-341 1017.75,-341 1017.75,-385"/>
<text text-anchor="start" x="870.25" y="-371.5" font-family="Helvetica,sans-Serif" font-size="10.00">GLESC::Math::MatrixMixed</text>
<text text-anchor="start" x="870.25" y="-359.5" font-family="Helvetica,sans-Serif" font-size="10.00">Algorithms::calculateViewMatrix</text>
<text text-anchor="middle" x="940" y="-347.5" font-family="Helvetica,sans-Serif" font-size="10.00">PosRot</text>
</a>
</g>
</g>
<!-- Node2&#45;&gt;Node3 -->
<g id="edge2_Node000002_Node000003" class="edge">
<title>Node2&#45;&gt;Node3</title>
<g id="a_edge2_Node000002_Node000003"><a xlink:title=" ">
<path fill="none" stroke="#63b8ff" d="M1046.42,-333.69C1037.02,-336.3 1027.49,-338.95 1018.19,-341.54"/>
<polygon fill="#63b8ff" stroke="#63b8ff" points="1047.22,-337.1 1055.92,-331.05 1045.35,-330.36 1047.22,-337.1"/>
</a>
</g>
</g>
<!-- Node9 -->
<g id="Node000009" class="node">
<title>Node9</title>
<g id="a_Node000009"><a xlink:href="class_g_l_e_s_c_1_1_math_1_1_matrix_mixed_algorithms.html#af2edbd12a5a8a4f225c1a811285d6414" target="_top" xlink:title="Calculate the 3D rotation matrix from the rotation angles around the X, Y, and Z axes.">
<polygon fill="white" stroke="#666666" points="1014.75,-323 865.25,-323 865.25,-291 1014.75,-291 1014.75,-323"/>
<text text-anchor="start" x="873.25" y="-309.5" font-family="Helvetica,sans-Serif" font-size="10.00">GLESC::Math::MatrixMixed</text>
<text text-anchor="middle" x="940" y="-297.5" font-family="Helvetica,sans-Serif" font-size="10.00">Algorithms::getRotate3DMatrix</text>
</a>
</g>
</g>
<!-- Node2&#45;&gt;Node9 -->
<g id="edge8_Node000002_Node000009" class="edge">
<title>Node2&#45;&gt;Node9</title>
<g id="a_edge8_Node000002_Node000009"><a xlink:title=" ">
<path fill="none" stroke="#63b8ff" d="M1046.19,-308.66C1035.8,-308.49 1025.25,-308.33 1015.04,-308.17"/>
<polygon fill="#63b8ff" stroke="#63b8ff" points="1045.81,-312.15 1055.87,-308.81 1045.92,-305.15 1045.81,-312.15"/>
</a>
</g>
</g>
<!-- Node4 -->
<g id="Node000004" class="node">
<title>Node4</title>
<g id="a_Node000004"><a xlink:href="class_g_l_e_s_c_1_1_math_1_1_matrix.html#a3c0812b3a24431dfc5bc68f394910d61" target="_top" xlink:title="Creates a view matrix from the given position and rotation vectors.">
<polygon fill="white" stroke="#666666" points="809,-379 682.75,-379 682.75,-347 809,-347 809,-379"/>
<text text-anchor="start" x="690.75" y="-365.5" font-family="Helvetica,sans-Serif" font-size="10.00">GLESC::Math::Matrix</text>
<text text-anchor="middle" x="745.88" y="-353.5" font-family="Helvetica,sans-Serif" font-size="10.00">::makeViewMatrixPosRot</text>
</a>
</g>
</g>
<!-- Node3&#45;&gt;Node4 -->
<g id="edge3_Node000003_Node000004" class="edge">
<title>Node3&#45;&gt;Node4</title>
<g id="a_edge3_Node000003_Node000004"><a xlink:title=" ">
<path fill="none" stroke="#63b8ff" d="M850.84,-363C836.87,-363 822.69,-363 809.47,-363"/>
<polygon fill="#63b8ff" stroke="#63b8ff" points="850.45,-366.5 860.45,-363 850.45,-359.5 850.45,-366.5"/>
</a>
</g>
</g>
<!-- Node5 -->
<g id="Node000005" class="node">
<title>Node5</title>
<g id="a_Node000005"><a xlink:href="class_g_l_e_s_c_1_1_render_1_1_renderer.html#aaa4f270fc41e2f2a1f9ce7b979376eb1" target="_top" xlink:title="Static method that creates the view matrix from a transform (transform of the camera)">
<polygon fill="white" stroke="#666666" points="613.38,-421 482.62,-421 482.62,-389 613.38,-389 613.38,-421"/>
<text text-anchor="start" x="490.62" y="-407.5" font-family="Helvetica,sans-Serif" font-size="10.00">GLESC::Render::Renderer</text>
<text text-anchor="middle" x="548" y="-395.5" font-family="Helvetica,sans-Serif" font-size="10.00">::createViewMatrix</text>
</a>
</g>
</g>
<!-- Node4&#45;&gt;Node5 -->
<g id="edge4_Node000004_Node000005" class="edge">
<title>Node4&#45;&gt;Node5</title>
<g id="a_edge4_Node000004_Node000005"><a xlink:title=" ">
<path fill="none" stroke="#63b8ff" d="M671.36,-378.76C652.38,-382.83 632.1,-387.18 613.62,-391.14"/>
<polygon fill="#63b8ff" stroke="#63b8ff" points="671.84,-382.24 680.88,-376.72 670.37,-375.4 671.84,-382.24"/>
</a>
</g>
</g>
<!-- Node6 -->
<g id="Node000006" class="node">
<title>Node6</title>
<g id="a_Node000006"><a xlink:href="class_g_l_e_s_c_1_1_render_1_1_renderer.html#a0f562e14a9fb4e13e03bc108b5dd1111" target="_top" xlink:title="This starts the frame of rendering.">
<polygon fill="white" stroke="#666666" points="613.38,-371 482.62,-371 482.62,-339 613.38,-339 613.38,-371"/>
<text text-anchor="start" x="490.62" y="-357.5" font-family="Helvetica,sans-Serif" font-size="10.00">GLESC::Render::Renderer</text>
<text text-anchor="middle" x="548" y="-345.5" font-family="Helvetica,sans-Serif" font-size="10.00">::start</text>
</a>
</g>
</g>
<!-- Node4&#45;&gt;Node6 -->
<g id="edge5_Node000004_Node000006" class="edge">
<title>Node4&#45;&gt;Node6</title>
<g id="a_edge5_Node000004_Node000006"><a xlink:title=" ">
<path fill="none" stroke="#63b8ff" d="M671.1,-359.99C652.2,-359.21 632.02,-358.39 613.62,-357.64"/>
<polygon fill="#63b8ff" stroke="#63b8ff" points="670.71,-363.47 680.85,-360.38 671,-356.48 670.71,-363.47"/>
</a>
</g>
</g>
<!-- Node7 -->
<g id="Node000007" class="node">
<title>Node7</title>
<g id="a_Node000007"><a xlink:href="class_g_l_e_s_c_1_1_engine.html#ab0a886855ca341089947b36b9c6f6e15" target="_top" xlink:title="Processes the rendering of the game Can be called at variable intervals of time as it uses elapsed.">
<polygon fill="white" stroke="#666666" points="430.12,-365 312.12,-365 312.12,-345 430.12,-345 430.12,-365"/>
<text text-anchor="middle" x="371.12" y="-351.5" font-family="Helvetica,sans-Serif" font-size="10.00">GLESC::Engine::render</text>
</a>
</g>
</g>
<!-- Node6&#45;&gt;Node7 -->
<g id="edge6_Node000006_Node000007" class="edge">
<title>Node6&#45;&gt;Node7</title>
<g id="a_edge6_Node000006_Node000007"><a xlink:title=" ">
<path fill="none" stroke="#63b8ff" d="M471.06,-355C457.44,-355 443.44,-355 430.41,-355"/>
<polygon fill="#63b8ff" stroke="#63b8ff" points="470.87,-358.5 480.87,-355 470.87,-351.5 470.87,-358.5"/>
</a>
</g>
</g>
<!-- Node8 -->
<g id="Node000008" class="node">
<title>Node8</title>
<g id="a_Node000008"><a xlink:href="main_8cpp.html#a0ddf1224851353fc92bfbff6f499fa97" target="_top" xlink:title=" ">
<polygon fill="white" stroke="#666666" points="234.88,-365 197.88,-365 197.88,-345 234.88,-345 234.88,-365"/>
<text text-anchor="middle" x="216.38" y="-351.5" font-family="Helvetica,sans-Serif" font-size="10.00">main</text>
</a>
</g>
</g>
<!-- Node7&#45;&gt;Node8 -->
<g id="edge7_Node000007_Node000008" class="edge">
<title>Node7&#45;&gt;Node8</title>
<g id="a_edge7_Node000007_Node000008"><a xlink:title=" ">
<path fill="none" stroke="#63b8ff" d="M300.59,-355C276.47,-355 251.44,-355 235.21,-355"/>
<polygon fill="#63b8ff" stroke="#63b8ff" points="300.43,-358.5 310.43,-355 300.43,-351.5 300.43,-358.5"/>
</a>
</g>
</g>
<!-- Node10 -->
<g id="Node000010" class="node">
<title>Node10</title>
<g id="a_Node000010"><a xlink:href="class_g_l_e_s_c_1_1_math_1_1_matrix_mixed_algorithms.html#a485f02d22191da3635105401351ec519" target="_top" xlink:title="Calculate the model matrix from the position, rotation, and scale.">
<polygon fill="white" stroke="#666666" points="826.25,-323 665.5,-323 665.5,-291 826.25,-291 826.25,-323"/>
<text text-anchor="start" x="673.5" y="-309.5" font-family="Helvetica,sans-Serif" font-size="10.00">GLESC::Math::MatrixMixed</text>
<text text-anchor="middle" x="745.88" y="-297.5" font-family="Helvetica,sans-Serif" font-size="10.00">Algorithms::calculateModelMatrix</text>
</a>
</g>
</g>
<!-- Node9&#45;&gt;Node10 -->
<g id="edge9_Node000009_Node000010" class="edge">
<title>Node9&#45;&gt;Node10</title>
<g id="a_edge9_Node000009_Node000010"><a xlink:title=" ">
<path fill="none" stroke="#63b8ff" d="M853.67,-307C844.66,-307 835.53,-307 826.58,-307"/>
<polygon fill="#63b8ff" stroke="#63b8ff" points="853.48,-310.5 863.48,-307 853.48,-303.5 853.48,-310.5"/>
</a>
</g>
</g>
<!-- Node12 -->
<g id="Node000012" class="node">
<title>Node12</title>
<g id="a_Node000012"><a xlink:href="class_g_l_e_s_c_1_1_math_1_1_vector.html#a106b2900ef5a7d1e188bb2009089beab" target="_top" xlink:title="Returs the forward vector of a rotation.">
<polygon fill="white" stroke="#666666" points="995.62,-270 884.38,-270 884.38,-238 995.62,-238 995.62,-270"/>
<text text-anchor="start" x="892.38" y="-256.5" font-family="Helvetica,sans-Serif" font-size="10.00">GLESC::Math::Vector</text>
<text text-anchor="middle" x="940" y="-244.5" font-family="Helvetica,sans-Serif" font-size="10.00">::makeForward</text>
</a>
</g>
</g>
<!-- Node11&#45;&gt;Node12 -->
<g id="edge11_Node000011_Node000012" class="edge">
<title>Node11&#45;&gt;Node12</title>
<g id="a_edge11_Node000011_Node000012"><a xlink:title=" ">
<path fill="none" stroke="#63b8ff" d="M1041.93,-254C1026.28,-254 1010.43,-254 996.07,-254"/>
<polygon fill="#63b8ff" stroke="#63b8ff" points="1041.75,-257.5 1051.75,-254 1041.75,-250.5 1041.75,-257.5"/>
</a>
</g>
</g>
<!-- Node13 -->
<g id="Node000013" class="node">
<title>Node13</title>
<g id="a_Node000013"><a xlink:href="struct_g_l_e_s_c_1_1_transform_1_1_transform.html#af9d35a099f1653e8964f845c289927e0" target="_top" xlink:title="Calculates the forward vector using the rotation.">
<polygon fill="white" stroke="#666666" points="819.12,-270 672.62,-270 672.62,-238 819.12,-238 819.12,-270"/>
<text text-anchor="start" x="680.62" y="-256.5" font-family="Helvetica,sans-Serif" font-size="10.00">GLESC::Transform::Transform</text>
<text text-anchor="middle" x="745.88" y="-244.5" font-family="Helvetica,sans-Serif" font-size="10.00">::calculateForward</text>
</a>
</g>
</g>
<!-- Node12&#45;&gt;Node13 -->
<g id="edge12_Node000012_Node000013" class="edge">
<title>Node12&#45;&gt;Node13</title>
<g id="a_edge12_Node000012_Node000013"><a xlink:title=" ">
<path fill="none" stroke="#63b8ff" d="M872.87,-254C855.66,-254 837.03,-254 819.5,-254"/>
<polygon fill="#63b8ff" stroke="#63b8ff" points="872.43,-257.5 882.43,-254 872.43,-250.5 872.43,-257.5"/>
</a>
</g>
</g>
<!-- Node14 -->
<g id="Node000014" class="node">
<title>Node14</title>
<g id="a_Node000014"><a xlink:href="struct_g_l_e_s_c_1_1_transform_1_1_transform.html#ad2ee8e926f9bfcb5ec42baab5f431cb9" target="_top" xlink:title="Calculates the forward vector using the rotation.">
<polygon fill="white" stroke="#666666" points="621.25,-270 474.75,-270 474.75,-238 621.25,-238 621.25,-270"/>
<text text-anchor="start" x="482.75" y="-256.5" font-family="Helvetica,sans-Serif" font-size="10.00">GLESC::Transform::Transform</text>
<text text-anchor="middle" x="548" y="-244.5" font-family="Helvetica,sans-Serif" font-size="10.00">::forward</text>
</a>
</g>
</g>
<!-- Node13&#45;&gt;Node14 -->
<g id="edge13_Node000013_Node000014" class="edge">
<title>Node13&#45;&gt;Node14</title>
<g id="a_edge13_Node000013_Node000014"><a xlink:title=" ">
<path fill="none" stroke="#63b8ff" d="M660.83,-254C647.75,-254 634.34,-254 621.54,-254"/>
<polygon fill="#63b8ff" stroke="#63b8ff" points="660.7,-257.5 670.7,-254 660.7,-250.5 660.7,-257.5"/>
</a>
</g>
</g>
<!-- Node15 -->
<g id="Node000015" class="node">
<title>Node15</title>
<g id="a_Node000015"><a xlink:href="class_g_l_e_s_c_1_1_engine_camera.html#a97a3af009cfc6a81b42d4a61d43e36e2" target="_top" xlink:title="Moves the camera backwards.">
<polygon fill="white" stroke="#666666" points="430.5,-320 311.75,-320 311.75,-288 430.5,-288 430.5,-320"/>
<text text-anchor="start" x="319.75" y="-306.5" font-family="Helvetica,sans-Serif" font-size="10.00">GLESC::EngineCamera</text>
<text text-anchor="middle" x="371.12" y="-294.5" font-family="Helvetica,sans-Serif" font-size="10.00">::moveBackward</text>
</a>
</g>
</g>
<!-- Node14&#45;&gt;Node15 -->
<g id="edge14_Node000014_Node000015" class="edge">
<title>Node14&#45;&gt;Node15</title>
<g id="a_edge14_Node000014_Node000015"><a xlink:title=" ">
<path fill="none" stroke="#63b8ff" d="M478.72,-273.52C462.55,-278.15 445.46,-283.03 429.81,-287.51"/>
<polygon fill="#63b8ff" stroke="#63b8ff" points="479.63,-276.9 488.28,-270.79 477.71,-270.17 479.63,-276.9"/>
</a>
</g>
</g>
<!-- Node18 -->
<g id="Node000018" class="node">
<title>Node18</title>
<g id="a_Node000018"><a xlink:href="class_g_l_e_s_c_1_1_engine_camera.html#a335ed43ca73bdbc5527ea0ec49a00dd2" target="_top" xlink:title="Moves the camera forwards.">
<polygon fill="white" stroke="#666666" points="430.5,-270 311.75,-270 311.75,-238 430.5,-238 430.5,-270"/>
<text text-anchor="start" x="319.75" y="-256.5" font-family="Helvetica,sans-Serif" font-size="10.00">GLESC::EngineCamera</text>
<text text-anchor="middle" x="371.12" y="-244.5" font-family="Helvetica,sans-Serif" font-size="10.00">::moveForward</text>
</a>
</g>
</g>
<!-- Node14&#45;&gt;Node18 -->
<g id="edge17_Node000014_Node000018" class="edge">
<title>Node14&#45;&gt;Node18</title>
<g id="a_edge17_Node000014_Node000018"><a xlink:title=" ">
<path fill="none" stroke="#63b8ff" d="M463.1,-254C452.24,-254 441.31,-254 430.98,-254"/>
<polygon fill="#63b8ff" stroke="#63b8ff" points="462.84,-257.5 472.84,-254 462.84,-250.5 462.84,-257.5"/>
</a>
</g>
</g>
<!-- Node16 -->
<g id="Node000016" class="node">
<title>Node16</title>
<g id="a_Node000016"><a xlink:href="class_g_l_e_s_c_1_1_engine_camera.html#a3f37b288117cbbf684843bf4b88acb72" target="_top" xlink:title="Prepares the camera entity with its components and it&#39;s initial values.">
<polygon fill="white" stroke="#666666" points="275.75,-245 157,-245 157,-213 275.75,-213 275.75,-245"/>
<text text-anchor="start" x="165" y="-231.5" font-family="Helvetica,sans-Serif" font-size="10.00">GLESC::EngineCamera</text>
<text text-anchor="middle" x="216.38" y="-219.5" font-family="Helvetica,sans-Serif" font-size="10.00">::setupCamera</text>
</a>
</g>
</g>
<!-- Node15&#45;&gt;Node16 -->
<g id="edge15_Node000015_Node000016" class="edge">
<title>Node15&#45;&gt;Node16</title>
<g id="a_edge15_Node000015_Node000016"><a xlink:title=" ">
<path fill="none" stroke="#63b8ff" d="M320.21,-282.95C317.34,-281.64 314.5,-280.31 311.75,-279 289.67,-268.44 265.27,-255.48 246.81,-245.4"/>
<polygon fill="#63b8ff" stroke="#63b8ff" points="318.74,-286.12 329.29,-287.01 321.59,-279.73 318.74,-286.12"/>
</a>
</g>
</g>
<!-- Node17 -->
<g id="Node000017" class="node">
<title>Node17</title>
<g id="a_Node000017"><a xlink:href="class_g_l_e_s_c_1_1_engine.html#a93e1621f9daf326a7c45d3b2a4c826c1" target="_top" xlink:title="The constructor is private, the engine can only be created by the main function.">
<polygon fill="white" stroke="#666666" points="121,-239 0,-239 0,-219 121,-219 121,-239"/>
<text text-anchor="middle" x="60.5" y="-225.5" font-family="Helvetica,sans-Serif" font-size="10.00">GLESC::Engine::Engine</text>
</a>
</g>
</g>
<!-- Node16&#45;&gt;Node17 -->
<g id="edge16_Node000016_Node000017" class="edge">
<title>Node16&#45;&gt;Node17</title>
<g id="a_edge16_Node000016_Node000017"><a xlink:title=" ">
<path fill="none" stroke="#63b8ff" d="M145.52,-229C137.49,-229 129.36,-229 121.48,-229"/>
<polygon fill="#63b8ff" stroke="#63b8ff" points="145.25,-232.5 155.25,-229 145.25,-225.5 145.25,-232.5"/>
</a>
</g>
</g>
<!-- Node18&#45;&gt;Node16 -->
<g id="edge18_Node000018_Node000016" class="edge">
<title>Node18&#45;&gt;Node16</title>
<g id="a_edge18_Node000018_Node000016"><a xlink:title=" ">
<path fill="none" stroke="#63b8ff" d="M300.21,-242.56C292.14,-241.24 283.98,-239.9 276.09,-238.61"/>
<polygon fill="#63b8ff" stroke="#63b8ff" points="299.58,-246 310.01,-244.16 300.71,-239.09 299.58,-246"/>
</a>
</g>
</g>
<!-- Node20 -->
<g id="Node000020" class="node">
<title>Node20</title>
<g id="a_Node000020"><a xlink:href="class_g_l_e_s_c_1_1_math_1_1_vector.html#a45143ffe5273f8e3ec870f864e03f20d" target="_top" xlink:title="Returns the right vector of a rotation.">
<polygon fill="white" stroke="#666666" points="995.62,-220 884.38,-220 884.38,-188 995.62,-188 995.62,-220"/>
<text text-anchor="start" x="892.38" y="-206.5" font-family="Helvetica,sans-Serif" font-size="10.00">GLESC::Math::Vector</text>
<text text-anchor="middle" x="940" y="-194.5" font-family="Helvetica,sans-Serif" font-size="10.00">::makeRight</text>
</a>
</g>
</g>
<!-- Node19&#45;&gt;Node20 -->
<g id="edge20_Node000019_Node000020" class="edge">
<title>Node19&#45;&gt;Node20</title>
<g id="a_edge20_Node000019_Node000020"><a xlink:title=" ">
<path fill="none" stroke="#63b8ff" d="M1041.93,-204C1026.28,-204 1010.43,-204 996.07,-204"/>
<polygon fill="#63b8ff" stroke="#63b8ff" points="1041.75,-207.5 1051.75,-204 1041.75,-200.5 1041.75,-207.5"/>
</a>
</g>
</g>
<!-- Node21 -->
<g id="Node000021" class="node">
<title>Node21</title>
<g id="a_Node000021"><a xlink:href="struct_g_l_e_s_c_1_1_transform_1_1_transform.html#a92fc8e586bd408d56f8f7edcdd0c6c48" target="_top" xlink:title="Calculates the right vector using the rotation.">
<polygon fill="white" stroke="#666666" points="819.12,-220 672.62,-220 672.62,-188 819.12,-188 819.12,-220"/>
<text text-anchor="start" x="680.62" y="-206.5" font-family="Helvetica,sans-Serif" font-size="10.00">GLESC::Transform::Transform</text>
<text text-anchor="middle" x="745.88" y="-194.5" font-family="Helvetica,sans-Serif" font-size="10.00">::calculateRight</text>
</a>
</g>
</g>
<!-- Node20&#45;&gt;Node21 -->
<g id="edge21_Node000020_Node000021" class="edge">
<title>Node20&#45;&gt;Node21</title>
<g id="a_edge21_Node000020_Node000021"><a xlink:title=" ">
<path fill="none" stroke="#63b8ff" d="M872.87,-204C855.66,-204 837.03,-204 819.5,-204"/>
<polygon fill="#63b8ff" stroke="#63b8ff" points="872.43,-207.5 882.43,-204 872.43,-200.5 872.43,-207.5"/>
</a>
</g>
</g>
<!-- Node22 -->
<g id="Node000022" class="node">
<title>Node22</title>
<g id="a_Node000022"><a xlink:href="struct_g_l_e_s_c_1_1_transform_1_1_transform.html#a3ca12c0fcf34d42593d0e8a59a0e21d4" target="_top" xlink:title="Calculates the right vector using the rotation.">
<polygon fill="white" stroke="#666666" points="621.25,-220 474.75,-220 474.75,-188 621.25,-188 621.25,-220"/>
<text text-anchor="start" x="482.75" y="-206.5" font-family="Helvetica,sans-Serif" font-size="10.00">GLESC::Transform::Transform</text>
<text text-anchor="middle" x="548" y="-194.5" font-family="Helvetica,sans-Serif" font-size="10.00">::right</text>
</a>
</g>
</g>
<!-- Node21&#45;&gt;Node22 -->
<g id="edge22_Node000021_Node000022" class="edge">
<title>Node21&#45;&gt;Node22</title>
<g id="a_edge22_Node000021_Node000022"><a xlink:title=" ">
<path fill="none" stroke="#63b8ff" d="M660.83,-204C647.75,-204 634.34,-204 621.54,-204"/>
<polygon fill="#63b8ff" stroke="#63b8ff" points="660.7,-207.5 670.7,-204 660.7,-200.5 660.7,-207.5"/>
</a>
</g>
</g>
<!-- Node23 -->
<g id="Node000023" class="node">
<title>Node23</title>
<g id="a_Node000023"><a xlink:href="class_g_l_e_s_c_1_1_engine_camera.html#acd6cb2233c367b37d1888d8c6fa743db" target="_top" xlink:title="Moves the camera to the left.">
<polygon fill="white" stroke="#666666" points="430.5,-220 311.75,-220 311.75,-188 430.5,-188 430.5,-220"/>
<text text-anchor="start" x="319.75" y="-206.5" font-family="Helvetica,sans-Serif" font-size="10.00">GLESC::EngineCamera</text>
<text text-anchor="middle" x="371.12" y="-194.5" font-family="Helvetica,sans-Serif" font-size="10.00">::moveLeft</text>
</a>
</g>
</g>
<!-- Node22&#45;&gt;Node23 -->
<g id="edge23_Node000022_Node000023" class="edge">
<title>Node22&#45;&gt;Node23</title>
<g id="a_edge23_Node000022_Node000023"><a xlink:title=" ">
<path fill="none" stroke="#63b8ff" d="M463.1,-204C452.24,-204 441.31,-204 430.98,-204"/>
<polygon fill="#63b8ff" stroke="#63b8ff" points="462.84,-207.5 472.84,-204 462.84,-200.5 462.84,-207.5"/>
</a>
</g>
</g>
<!-- Node24 -->
<g id="Node000024" class="node">
<title>Node24</title>
<g id="a_Node000024"><a xlink:href="class_g_l_e_s_c_1_1_engine_camera.html#a26c75b09b36ddc554f1d8cabd314a9be" target="_top" xlink:title="Moves the camera to the right.">
<polygon fill="white" stroke="#666666" points="430.5,-170 311.75,-170 311.75,-138 430.5,-138 430.5,-170"/>
<text text-anchor="start" x="319.75" y="-156.5" font-family="Helvetica,sans-Serif" font-size="10.00">GLESC::EngineCamera</text>
<text text-anchor="middle" x="371.12" y="-144.5" font-family="Helvetica,sans-Serif" font-size="10.00">::moveRight</text>
</a>
</g>
</g>
<!-- Node22&#45;&gt;Node24 -->
<g id="edge25_Node000022_Node000024" class="edge">
<title>Node22&#45;&gt;Node24</title>
<g id="a_edge25_Node000022_Node000024"><a xlink:title=" ">
<path fill="none" stroke="#63b8ff" d="M478.72,-184.48C462.55,-179.85 445.46,-174.97 429.81,-170.49"/>
<polygon fill="#63b8ff" stroke="#63b8ff" points="477.71,-187.83 488.28,-187.21 479.63,-181.1 477.71,-187.83"/>
</a>
</g>
</g>
<!-- Node23&#45;&gt;Node16 -->
<g id="edge24_Node000023_Node000016" class="edge">
<title>Node23&#45;&gt;Node16</title>
<g id="a_edge24_Node000023_Node000016"><a xlink:title=" ">
<path fill="none" stroke="#63b8ff" d="M300.21,-215.44C292.14,-216.76 283.98,-218.1 276.09,-219.39"/>
<polygon fill="#63b8ff" stroke="#63b8ff" points="300.71,-218.91 310.01,-213.84 299.58,-212 300.71,-218.91"/>
</a>
</g>
</g>
<!-- Node24&#45;&gt;Node16 -->
<g id="edge26_Node000024_Node000016" class="edge">
<title>Node24&#45;&gt;Node16</title>
<g id="a_edge26_Node000024_Node000016"><a xlink:title=" ">
<path fill="none" stroke="#63b8ff" d="M320.21,-175.05C317.34,-176.36 314.5,-177.69 311.75,-179 289.67,-189.56 265.27,-202.52 246.81,-212.6"/>
<polygon fill="#63b8ff" stroke="#63b8ff" points="321.59,-178.27 329.29,-170.99 318.74,-171.88 321.59,-178.27"/>
</a>
</g>
</g>
<!-- Node26 -->
<g id="Node000026" class="node">
<title>Node26</title>
<g id="a_Node000026"><a xlink:href="class_g_l_e_s_c_1_1_math_1_1_vector.html#a8aa2609d6e4eeabe42198d55d9c0877a" target="_top" xlink:title="Returns the up vector of a rotation.">
<polygon fill="white" stroke="#666666" points="995.62,-170 884.38,-170 884.38,-138 995.62,-138 995.62,-170"/>
<text text-anchor="start" x="892.38" y="-156.5" font-family="Helvetica,sans-Serif" font-size="10.00">GLESC::Math::Vector</text>
<text text-anchor="middle" x="940" y="-144.5" font-family="Helvetica,sans-Serif" font-size="10.00">::makeUp</text>
</a>
</g>
</g>
<!-- Node25&#45;&gt;Node26 -->
<g id="edge28_Node000025_Node000026" class="edge">
<title>Node25&#45;&gt;Node26</title>
<g id="a_edge28_Node000025_Node000026"><a xlink:title=" ">
<path fill="none" stroke="#63b8ff" d="M1041.93,-154C1026.28,-154 1010.43,-154 996.07,-154"/>
<polygon fill="#63b8ff" stroke="#63b8ff" points="1041.75,-157.5 1051.75,-154 1041.75,-150.5 1041.75,-157.5"/>
</a>
</g>
</g>
<!-- Node27 -->
<g id="Node000027" class="node">
<title>Node27</title>
<g id="a_Node000027"><a xlink:href="struct_g_l_e_s_c_1_1_transform_1_1_transform.html#a39474140c356e7fa09891e1c3d307578" target="_top" xlink:title="Calculates the up vector using the rotation.">
<polygon fill="white" stroke="#666666" points="819.12,-170 672.62,-170 672.62,-138 819.12,-138 819.12,-170"/>
<text text-anchor="start" x="680.62" y="-156.5" font-family="Helvetica,sans-Serif" font-size="10.00">GLESC::Transform::Transform</text>
<text text-anchor="middle" x="745.88" y="-144.5" font-family="Helvetica,sans-Serif" font-size="10.00">::calculateUp</text>
</a>
</g>
</g>
<!-- Node26&#45;&gt;Node27 -->
<g id="edge29_Node000026_Node000027" class="edge">
<title>Node26&#45;&gt;Node27</title>
<g id="a_edge29_Node000026_Node000027"><a xlink:title=" ">
<path fill="none" stroke="#63b8ff" d="M872.87,-154C855.66,-154 837.03,-154 819.5,-154"/>
<polygon fill="#63b8ff" stroke="#63b8ff" points="872.43,-157.5 882.43,-154 872.43,-150.5 872.43,-157.5"/>
</a>
</g>
</g>
<!-- Node28 -->
<g id="Node000028" class="node">
<title>Node28</title>
<g id="a_Node000028"><a xlink:href="struct_g_l_e_s_c_1_1_transform_1_1_transform.html#a6d0f9441feeb9ac52b51f59be0e7b121" target="_top" xlink:title="Calculates the up vector using the rotation.">
<polygon fill="white" stroke="#666666" points="629.5,-164 466.5,-164 466.5,-144 629.5,-144 629.5,-164"/>
<text text-anchor="middle" x="548" y="-150.5" font-family="Helvetica,sans-Serif" font-size="10.00">GLESC::Transform::Transform::up</text>
</a>
</g>
</g>
<!-- Node27&#45;&gt;Node28 -->
<g id="edge30_Node000027_Node000028" class="edge">
<title>Node27&#45;&gt;Node28</title>
<g id="a_edge30_Node000027_Node000028"><a xlink:title=" ">
<path fill="none" stroke="#63b8ff" d="M660.74,-154C650.47,-154 640,-154 629.78,-154"/>
<polygon fill="#63b8ff" stroke="#63b8ff" points="660.7,-157.5 670.7,-154 660.7,-150.5 660.7,-157.5"/>
</a>
</g>
</g>
<!-- Node30 -->
<g id="Node000030" class="node">
<title>Node30</title>
<g id="a_Node000030"><a xlink:href="class_g_l_e_s_c_1_1_math_1_1_vector.html#a59e384ea5a54361b8d985f67f7e3397c" target="_top" xlink:title="Rotates the vector by a given rotation.">
<polygon fill="white" stroke="#666666" points="995.62,-120 884.38,-120 884.38,-88 995.62,-88 995.62,-120"/>
<text text-anchor="start" x="892.38" y="-106.5" font-family="Helvetica,sans-Serif" font-size="10.00">GLESC::Math::Vector</text>
<text text-anchor="middle" x="940" y="-94.5" font-family="Helvetica,sans-Serif" font-size="10.00">::rotate</text>
</a>
</g>
</g>
<!-- Node29&#45;&gt;Node30 -->
<g id="edge32_Node000029_Node000030" class="edge">
<title>Node29&#45;&gt;Node30</title>
<g id="a_edge32_Node000029_Node000030"><a xlink:title=" ">
<path fill="none" stroke="#63b8ff" d="M1041.93,-104C1026.28,-104 1010.43,-104 996.07,-104"/>
<polygon fill="#63b8ff" stroke="#63b8ff" points="1041.75,-107.5 1051.75,-104 1041.75,-100.5 1041.75,-107.5"/>
</a>
</g>
</g>
<!-- Node32 -->
<g id="Node000032" class="node">
<title>Node32</title>
<g id="a_Node000032"><a xlink:href="class_g_l_e_s_c_1_1_math_1_1_vector.html#aadf692c1df17ed1079fb5bfa1bc2bb42" target="_top" xlink:title="Rotates the vector by a given rotation.">
<polygon fill="white" stroke="#666666" points="995.62,-70 884.38,-70 884.38,-38 995.62,-38 995.62,-70"/>
<text text-anchor="start" x="892.38" y="-56.5" font-family="Helvetica,sans-Serif" font-size="10.00">GLESC::Math::Vector</text>
<text text-anchor="middle" x="940" y="-44.5" font-family="Helvetica,sans-Serif" font-size="10.00">::rotate</text>
</a>
</g>
</g>
<!-- Node29&#45;&gt;Node32 -->
<g id="edge34_Node000029_Node000032" class="edge">
<title>Node29&#45;&gt;Node32</title>
<g id="a_edge34_Node000029_Node000032"><a xlink:title=" ">
<path fill="none" stroke="#63b8ff" d="M1057.99,-84.69C1037.39,-79.28 1015.35,-73.5 996.03,-68.43"/>
<polygon fill="#63b8ff" stroke="#63b8ff" points="1056.92,-88.02 1067.48,-87.17 1058.69,-81.25 1056.92,-88.02"/>
</a>
</g>
</g>
<!-- Node31 -->
<g id="Node000031" class="node">
<title>Node31</title>
<g id="a_Node000031"><a xlink:href="class_g_l_e_s_c_1_1_transform_1_1_transformer.html#a5577240cc80f5b926c31d1b67da65de0" target="_top" xlink:title="Rotates a mesh by a given rotation.">
<polygon fill="white" stroke="#666666" points="823.25,-120 668.5,-120 668.5,-88 823.25,-88 823.25,-120"/>
<text text-anchor="start" x="676.5" y="-106.5" font-family="Helvetica,sans-Serif" font-size="10.00">GLESC::Transform::Transformer</text>
<text text-anchor="middle" x="745.88" y="-94.5" font-family="Helvetica,sans-Serif" font-size="10.00">::rotateMesh</text>
</a>
</g>
</g>
<!-- Node30&#45;&gt;Node31 -->
<g id="edge33_Node000030_Node000031" class="edge">
<title>Node30&#45;&gt;Node31</title>
<g id="a_edge33_Node000030_Node000031"><a xlink:title=" ">
<path fill="none" stroke="#63b8ff" d="M872.63,-104C856.76,-104 839.7,-104 823.41,-104"/>
<polygon fill="#63b8ff" stroke="#63b8ff" points="872.43,-107.5 882.43,-104 872.43,-100.5 872.43,-107.5"/>
</a>
</g>
</g>
<!-- Node34 -->
<g id="Node000034" class="node">
<title>Node34</title>
<g id="a_Node000034"><a xlink:href="class_default.html#a6e26da3ebf533b0f5d45266cd0ce9082" target="_top" xlink:title="Initializes the scene. Must be implemented by the derived class.">
<polygon fill="white" stroke="#666666" points="972.38,-20 907.62,-20 907.62,0 972.38,0 972.38,-20"/>
<text text-anchor="middle" x="940" y="-6.5" font-family="Helvetica,sans-Serif" font-size="10.00">Default::init</text>
</a>
</g>
</g>
<!-- Node33&#45;&gt;Node34 -->
<g id="edge36_Node000033_Node000034" class="edge">
<title>Node33&#45;&gt;Node34</title>
<g id="a_edge36_Node000033_Node000034"><a xlink:title=" ">
<path fill="none" stroke="#63b8ff" d="M1046.73,-22.2C1020.41,-19.16 993.01,-16 972.7,-13.66"/>
<polygon fill="#63b8ff" stroke="#63b8ff" points="1046.09,-25.65 1056.42,-23.32 1046.89,-18.7 1046.09,-25.65"/>
</a>
</g>
</g>
</g>
</svg>
