<?xml version="1.0" encoding="UTF-8" standalone="no"?>
<!DOCTYPE svg PUBLIC "-//W3C//DTD SVG 1.1//EN"
 "http://www.w3.org/Graphics/SVG/1.1/DTD/svg11.dtd">
<!-- Generated by graphviz version 11.0.0 (20240428.1522)
 -->
<!-- Title: GLESC::Math::gt Pages: 1 -->
<svg width="378pt" height="47pt"
 viewBox="0.00 0.00 377.75 47.00" xmlns="http://www.w3.org/2000/svg" xmlns:xlink="http://www.w3.org/1999/xlink">
<g id="graph0" class="graph" transform="scale(1 1) rotate(0) translate(4 43)">
<title>GLESC::Math::gt</title>
<!-- Node1 -->
<g id="Node000001" class="node">
<title>Node1</title>
<g id="a_Node000001"><a xlink:title="Compares two values for greater than.">
<polygon fill="#999999" stroke="#666666" points="91,-39 0,-39 0,-19 91,-19 91,-39"/>
<text text-anchor="middle" x="45.5" y="-25.5" font-family="Helvetica,sans-Serif" font-size="10.00">GLESC::Math::gt</text>
</a>
</g>
</g>
<!-- Node2 -->
<g id="Node000002" class="node">
<title>Node2</title>
<g id="a_Node000002"><a xlink:href="namespace_g_l_e_s_c_1_1_math.html#acd429163efe906cd22916cc75ccb2421" target="_top" xlink:title="Epsilon getter with precision of a given template type.">
<polygon fill="white" stroke="#666666" points="369.75,-39 256.25,-39 256.25,-19 369.75,-19 369.75,-39"/>
<text text-anchor="middle" x="313" y="-25.5" font-family="Helvetica,sans-Serif" font-size="10.00">GLESC::Math::epsilon</text>
</a>
</g>
</g>
<!-- Node1&#45;&gt;Node2 -->
<g id="edge1_Node000001_Node000002" class="edge">
<title>Node1&#45;&gt;Node2</title>
<g id="a_edge1_Node000001_Node000002"><a xlink:title=" ">
<path fill="none" stroke="#63b8ff" d="M91.24,-29C133.24,-29 196.64,-29 244.73,-29"/>
<polygon fill="#63b8ff" stroke="#63b8ff" points="244.47,-32.5 254.47,-29 244.47,-25.5 244.47,-32.5"/>
</a>
</g>
</g>
<!-- Node3 -->
<g id="Node000003" class="node">
<title>Node3</title>
<g id="a_Node000003"><a xlink:href="namespace_g_l_e_s_c_1_1_math.html#aee25910dbba06d09d9df14d03933ace1" target="_top" xlink:title="Compares two values for equality.">
<polygon fill="white" stroke="#666666" points="220.25,-20 127,-20 127,0 220.25,0 220.25,-20"/>
<text text-anchor="middle" x="173.62" y="-6.5" font-family="Helvetica,sans-Serif" font-size="10.00">GLESC::Math::eq</text>
</a>
</g>
</g>
<!-- Node1&#45;&gt;Node3 -->
<g id="edge2_Node000001_Node000003" class="edge">
<title>Node1&#45;&gt;Node3</title>
<g id="a_edge2_Node000001_Node000003"><a xlink:title=" ">
<path fill="none" stroke="#63b8ff" d="M91.32,-22.25C99.12,-21.07 107.32,-19.84 115.4,-18.62"/>
<polygon fill="#63b8ff" stroke="#63b8ff" points="115.81,-22.1 125.17,-17.15 114.76,-15.18 115.81,-22.1"/>
</a>
</g>
</g>
<!-- Node3&#45;&gt;Node2 -->
<g id="edge3_Node000003_Node000002" class="edge">
<title>Node3&#45;&gt;Node2</title>
<g id="a_edge3_Node000003_Node000002"><a xlink:title=" ">
<path fill="none" stroke="#63b8ff" d="M220.37,-16.33C228.2,-17.41 236.49,-18.56 244.74,-19.7"/>
<polygon fill="#63b8ff" stroke="#63b8ff" points="244.06,-23.14 254.44,-21.04 245.02,-16.2 244.06,-23.14"/>
</a>
</g>
</g>
</g>
</svg>
