<?xml version="1.0" encoding="UTF-8" standalone="no"?>
<!DOCTYPE svg PUBLIC "-//W3C//DTD SVG 1.1//EN"
 "http://www.w3.org/Graphics/SVG/1.1/DTD/svg11.dtd">
<!-- Generated by graphviz version 11.0.0 (20240428.1522)
 -->
<!-- Title: GLESC::Math::remap Pages: 1 -->
<svg width="400pt" height="66pt"
 viewBox="0.00 0.00 400.25 66.00" xmlns="http://www.w3.org/2000/svg" xmlns:xlink="http://www.w3.org/1999/xlink">
<g id="graph0" class="graph" transform="scale(1 1) rotate(0) translate(4 62)">
<title>GLESC::Math::remap</title>
<!-- Node1 -->
<g id="Node000001" class="node">
<title>Node1</title>
<g id="a_Node000001"><a xlink:title="Remaps a value from one range to another, including support for reverse mapping.">
<polygon fill="#999999" stroke="#666666" points="109.75,-39 0,-39 0,-19 109.75,-19 109.75,-39"/>
<text text-anchor="middle" x="54.88" y="-25.5" font-family="Helvetica,sans-Serif" font-size="10.00">GLESC::Math::remap</text>
</a>
</g>
</g>
<!-- Node2 -->
<g id="Node000002" class="node">
<title>Node2</title>
<g id="a_Node000002"><a xlink:href="namespace_g_l_e_s_c_1_1_math.html#ae9816249dbbdbb7c7affd0c3be77b8e2" target="_top" xlink:title="Clamps a value between a minimum and maximum value.">
<polygon fill="white" stroke="#666666" points="254.75,-39 145.75,-39 145.75,-19 254.75,-19 254.75,-39"/>
<text text-anchor="middle" x="200.25" y="-25.5" font-family="Helvetica,sans-Serif" font-size="10.00">GLESC::Math::clamp</text>
</a>
</g>
</g>
<!-- Node1&#45;&gt;Node2 -->
<g id="edge1_Node000001_Node000002" class="edge">
<title>Node1&#45;&gt;Node2</title>
<g id="a_edge1_Node000001_Node000002"><a xlink:title=" ">
<path fill="none" stroke="#63b8ff" d="M110.08,-29C117.95,-29 126.12,-29 134.17,-29"/>
<polygon fill="#63b8ff" stroke="#63b8ff" points="133.93,-32.5 143.93,-29 133.93,-25.5 133.93,-32.5"/>
</a>
</g>
</g>
<!-- Node3 -->
<g id="Node000003" class="node">
<title>Node3</title>
<g id="a_Node000003"><a xlink:href="namespace_g_l_e_s_c_1_1_math.html#a522e4f8e000cccddbf9d2f92280cfb6c" target="_top" xlink:title="Calculates the max of two values.">
<polygon fill="white" stroke="#666666" points="392.25,-58 290.75,-58 290.75,-38 392.25,-38 392.25,-58"/>
<text text-anchor="middle" x="341.5" y="-44.5" font-family="Helvetica,sans-Serif" font-size="10.00">GLESC::Math::max</text>
</a>
</g>
</g>
<!-- Node2&#45;&gt;Node3 -->
<g id="edge2_Node000002_Node000003" class="edge">
<title>Node2&#45;&gt;Node3</title>
<g id="a_edge2_Node000002_Node000003"><a xlink:title=" ">
<path fill="none" stroke="#63b8ff" d="M255.09,-36.35C262.99,-37.42 271.19,-38.54 279.23,-39.64"/>
<polygon fill="#63b8ff" stroke="#63b8ff" points="278.57,-43.08 288.96,-40.97 279.52,-36.15 278.57,-43.08"/>
</a>
</g>
</g>
<!-- Node4 -->
<g id="Node000004" class="node">
<title>Node4</title>
<g id="a_Node000004"><a xlink:href="namespace_g_l_e_s_c_1_1_math.html#ad2df75a6181d9d1d318d20d224a2866b" target="_top" xlink:title="Calculates the min of two values.">
<polygon fill="white" stroke="#666666" points="390.75,-20 292.25,-20 292.25,0 390.75,0 390.75,-20"/>
<text text-anchor="middle" x="341.5" y="-6.5" font-family="Helvetica,sans-Serif" font-size="10.00">GLESC::Math::min</text>
</a>
</g>
</g>
<!-- Node2&#45;&gt;Node4 -->
<g id="edge3_Node000002_Node000004" class="edge">
<title>Node2&#45;&gt;Node4</title>
<g id="a_edge3_Node000002_Node000004"><a xlink:title=" ">
<path fill="none" stroke="#63b8ff" d="M255.09,-21.65C263.4,-20.52 272.03,-19.34 280.47,-18.19"/>
<polygon fill="#63b8ff" stroke="#63b8ff" points="280.88,-21.67 290.31,-16.85 279.93,-14.73 280.88,-21.67"/>
</a>
</g>
</g>
</g>
</svg>
