<?xml version="1.0" encoding="UTF-8" standalone="no"?>
<!DOCTYPE svg PUBLIC "-//W3C//DTD SVG 1.1//EN"
 "http://www.w3.org/Graphics/SVG/1.1/DTD/svg11.dtd">
<!-- Generated by graphviz version 11.0.0 (20240428.1522)
 -->
<!-- Title: GLESC::ECS::IComponent Pages: 1 -->
<!--zoomable 728 -->

<svg id="main" version="1.1" xmlns="http://www.w3.org/2000/svg" xmlns:xlink="http://www.w3.org/1999/xlink" xml:space="preserve" onload="init(evt)">
<style type="text/css"><![CDATA[
.node, .edge {opacity: 0.7;}
.node.selected, .edge.selected {opacity: 1;}
.edge:hover path { stroke: red; }
.edge:hover polygon { stroke: red; fill: red; }
]]></style>

<defs>
  <circle id="rim" cx="0" cy="0" r="7"/>
  <circle id="rim2" cx="0" cy="0" r="3.5"/>
  <g id="zoomPlus">
    <use xlink:href="#rim" fill="#404040"><set attributeName="fill" to="#808080" begin="zoomplus.mouseover" end="zoomplus.mouseout"/></use>
    <path d="M-4,0h8M0,-4v8" fill="none" stroke="white" stroke-width="1.5" pointer-events="none"/>
  </g>
  <g id="zoomMin">
    <use xlink:href="#rim" fill="#404040"><set attributeName="fill" to="#808080" begin="zoomminus.mouseover" end="zoomminus.mouseout"/></use>
    <path d="M-4,0h8" fill="none" stroke="white" stroke-width="1.5" pointer-events="none"/>
  </g>
  <g id="arrowUp" transform="translate(30 24)">
    <use xlink:href="#rim"/>
    <path pointer-events="none" fill="none" stroke="white" stroke-width="1.5" d="M0,-3.0v7 M-2.5,-0.5L0,-3.0L2.5,-0.5"/>
  </g>
  <g id="arrowRight" transform="rotate(90) translate(36 -43)">
    <use xlink:href="#rim"/>
    <path pointer-events="none" fill="none" stroke="white" stroke-width="1.5" d="M0,-3.0v7 M-2.5,-0.5L0,-3.0L2.5,-0.5"/>
  </g>
  <g id="arrowDown" transform="rotate(180) translate(-30 -48)">
    <use xlink:href="#rim"/>
    <path pointer-events="none" fill="none" stroke="white" stroke-width="1.5" d="M0,-3.0v7 M-2.5,-0.5L0,-3.0L2.5,-0.5"/>
  </g>
  <g id="arrowLeft" transform="rotate(270) translate(-36 17)">
    <use xlink:href="#rim"/>
    <path pointer-events="none" fill="none" stroke="white" stroke-width="1.5" d="M0,-3.0v7 M-2.5,-0.5L0,-3.0L2.5,-0.5"/>
  </g>
  <g id="resetDef">
    <use xlink:href="#rim2" fill="#404040"><set attributeName="fill" to="#808080" begin="reset.mouseover" end="reset.mouseout"/></use>
  </g>
</defs>
<script type="application/ecmascript">
var viewWidth = 234;
var viewHeight = 728;
var sectionId = 'dynsection-1';
</script>
<script type="application/ecmascript" xlink:href="svg.min.js"/>
<svg id="graph" class="graph">
<g id="viewport">
<title>GLESC::ECS::IComponent</title>
<!-- Node1 -->
<g id="Node000001" class="node">
<title>Node1</title>
<g id="a_Node000001"><a xlink:title="Base class for all components.">
<polygon fill="#999999" stroke="none" points="174.5,-148 25.5,-148 25.5,0 174.5,0 174.5,-148"/>
<text text-anchor="start" x="41.5" y="-134.5" font-family="Helvetica,sans-Serif" font-size="10.00">GLESC::ECS::IComponent</text>
<text text-anchor="start" x="98.5" y="-118.5" font-family="Helvetica,sans-Serif" font-size="10.00"> </text>
<text text-anchor="start" x="29.5" y="-102.5" font-family="Helvetica,sans-Serif" font-size="10.00">+</text>
<text text-anchor="start" x="39.5" y="-102.5" font-family="Helvetica,sans-Serif" font-size="10.00">~IComponent()</text>
<text text-anchor="start" x="29.5" y="-86.5" font-family="Helvetica,sans-Serif" font-size="10.00">+</text>
<text text-anchor="start" x="39.5" y="-86.5" font-family="Helvetica,sans-Serif" font-size="10.00">getDebuggingValues()</text>
<text text-anchor="start" x="29.5" y="-70.5" font-family="Helvetica,sans-Serif" font-size="10.00">+</text>
<text text-anchor="start" x="39.5" y="-70.5" font-family="Helvetica,sans-Serif" font-size="10.00">getName()</text>
<text text-anchor="start" x="29.5" y="-54.5" font-family="Helvetica,sans-Serif" font-size="10.00">+</text>
<text text-anchor="start" x="39.5" y="-54.5" font-family="Helvetica,sans-Serif" font-size="10.00">getUpdatedDebuggingValues()</text>
<text text-anchor="start" x="29.5" y="-38.5" font-family="Helvetica,sans-Serif" font-size="10.00">+</text>
<text text-anchor="start" x="39.5" y="-38.5" font-family="Helvetica,sans-Serif" font-size="10.00">toString()</text>
<text text-anchor="start" x="29.88" y="-22.5" font-family="Helvetica,sans-Serif" font-size="10.00">#</text>
<text text-anchor="start" x="39.5" y="-22.5" font-family="Helvetica,sans-Serif" font-size="10.00">setDebuggingValues()</text>
<text text-anchor="start" x="29.88" y="-6.5" font-family="Helvetica,sans-Serif" font-size="10.00">#</text>
<text text-anchor="start" x="39.5" y="-6.5" font-family="Helvetica,sans-Serif" font-size="10.00">setUpdatedDebuggingValues()</text>
<polygon fill="#666666" stroke="#666666" points="25.5,-130 25.5,-130 174.5,-130 174.5,-130 25.5,-130"/>
<polygon fill="#666666" stroke="#666666" points="25.5,-114 25.5,-114 174.5,-114 174.5,-114 25.5,-114"/>
<polygon fill="none" stroke="#666666" points="25.5,0 25.5,-148 174.5,-148 174.5,0 25.5,0"/>
</a>
</g>
</g>
<!-- Node2 -->
<g id="Node000002" class="node">
<title>Node2</title>
<g id="a_Node000002"><a xlink:title=" ">
<polygon fill="white" stroke="none" points="156,-272 44,-272 44,-208 156,-208 156,-272"/>
<text text-anchor="start" x="48.62" y="-258.5" font-family="Helvetica,sans-Serif" font-size="10.00">std::vector&lt; EntityStats</text>
<text text-anchor="start" x="61.38" y="-246.5" font-family="Helvetica,sans-Serif" font-size="10.00">Manager::Value &gt;</text>
<text text-anchor="start" x="98.5" y="-230.5" font-family="Helvetica,sans-Serif" font-size="10.00"> </text>
<text text-anchor="start" x="98.5" y="-214.5" font-family="Helvetica,sans-Serif" font-size="10.00"> </text>
<polygon fill="#666666" stroke="#666666" points="44,-242 44,-242 156,-242 156,-242 44,-242"/>
<polygon fill="#666666" stroke="#666666" points="44,-226 44,-226 156,-226 156,-226 44,-226"/>
<polygon fill="none" stroke="#666666" points="44,-208 44,-272 156,-272 156,-208 44,-208"/>
</a>
</g>
</g>
<!-- Node2&#45;&gt;Node1 -->
<g id="edge1_Node000001_Node000002" class="edge">
<title>Node2&#45;&gt;Node1</title>
<g id="a_edge1_Node000001_Node000002"><a xlink:title=" ">
<path fill="none" stroke="#63b8ff" d="M100,-208.15C100,-194.55 100,-177.82 100,-160.86"/>
<polygon fill="none" stroke="#63b8ff" points="100,-160.8 96,-154.8 100,-148.8 104,-154.8 100,-160.8"/>
</a>
</g>
<text text-anchor="middle" x="136.38" y="-180.5" font-family="Helvetica,sans-Serif" font-size="10.00" fill="grey"> #updatedValues</text>
<text text-anchor="middle" x="136.38" y="-168.5" font-family="Helvetica,sans-Serif" font-size="10.00" fill="grey">#values</text>
</g>
<!-- Node3 -->
<g id="Node000003" class="node">
<title>Node3</title>
<g id="a_Node000003"><a xlink:href="class_entity_stats_manager.html#struct_entity_stats_manager_1_1_value" target="_top" xlink:title="Struct that holds the data of a value of a component.">
<polygon fill="white" stroke="none" points="96,-508 0,-508 0,-332 96,-332 96,-508"/>
<text text-anchor="start" x="4.88" y="-494.5" font-family="Helvetica,sans-Serif" font-size="10.00">EntityStatsManager</text>
<text text-anchor="start" x="32.62" y="-482.5" font-family="Helvetica,sans-Serif" font-size="10.00">::Value</text>
<text text-anchor="start" x="10.5" y="-466.5" font-family="Helvetica,sans-Serif" font-size="10.00">+</text>
<text text-anchor="start" x="27" y="-466.5" font-family="Helvetica,sans-Serif" font-size="10.00">data</text>
<text text-anchor="start" x="10.5" y="-450.5" font-family="Helvetica,sans-Serif" font-size="10.00">+</text>
<text text-anchor="start" x="27" y="-450.5" font-family="Helvetica,sans-Serif" font-size="10.00">isModifiable</text>
<text text-anchor="start" x="10.5" y="-434.5" font-family="Helvetica,sans-Serif" font-size="10.00">+</text>
<text text-anchor="start" x="27" y="-434.5" font-family="Helvetica,sans-Serif" font-size="10.00">isString</text>
<text text-anchor="start" x="10.5" y="-418.5" font-family="Helvetica,sans-Serif" font-size="10.00">+</text>
<text text-anchor="start" x="27" y="-418.5" font-family="Helvetica,sans-Serif" font-size="10.00">max</text>
<text text-anchor="start" x="10.5" y="-402.5" font-family="Helvetica,sans-Serif" font-size="10.00">+</text>
<text text-anchor="start" x="27" y="-402.5" font-family="Helvetica,sans-Serif" font-size="10.00">min</text>
<text text-anchor="start" x="10.5" y="-386.5" font-family="Helvetica,sans-Serif" font-size="10.00">+</text>
<text text-anchor="start" x="27" y="-386.5" font-family="Helvetica,sans-Serif" font-size="10.00">type</text>
<text text-anchor="start" x="10.5" y="-370.5" font-family="Helvetica,sans-Serif" font-size="10.00">+</text>
<text text-anchor="start" x="27" y="-370.5" font-family="Helvetica,sans-Serif" font-size="10.00">usesSlider</text>
<text text-anchor="start" x="10.5" y="-354.5" font-family="Helvetica,sans-Serif" font-size="10.00">+</text>
<text text-anchor="start" x="27" y="-354.5" font-family="Helvetica,sans-Serif" font-size="10.00">valueDirty</text>
<text text-anchor="start" x="46.5" y="-338.5" font-family="Helvetica,sans-Serif" font-size="10.00"> </text>
<polygon fill="#666666" stroke="#666666" points="0,-478 0,-478 96,-478 96,-478 0,-478"/>
<polygon fill="#666666" stroke="#666666" points="0,-350 0,-350 25,-350 25,-350 0,-350"/>
<polygon fill="#666666" stroke="#666666" points="25,-350 25,-350 96,-350 96,-350 25,-350"/>
<polygon fill="none" stroke="#666666" points="0,-332 0,-508 96,-508 96,-332 0,-332"/>
</a>
</g>
</g>
<!-- Node3&#45;&gt;Node2 -->
<g id="edge2_Node000002_Node000003" class="edge">
<title>Node3&#45;&gt;Node2</title>
<g id="a_edge2_Node000002_Node000003"><a xlink:title=" ">
<path fill="none" stroke="#63b8ff" d="M61.17,-332.31C64.42,-317.97 68.41,-303.42 73.25,-290 74,-287.93 74.82,-285.85 75.7,-283.76"/>
<polygon fill="none" stroke="#63b8ff" points="75.76,-283.64 74.7,-276.51 80.87,-272.78 81.94,-279.91 75.76,-283.64"/>
</a>
</g>
<text text-anchor="middle" x="98.38" y="-298.5" font-family="Helvetica,sans-Serif" font-size="10.00" fill="grey"> +elements</text>
</g>
<!-- Node4 -->
<g id="Node000004" class="node">
<title>Node4</title>
<g id="a_Node000004"><a xlink:title=" ">
<polygon fill="white" stroke="none" points="74.5,-620 21.5,-620 21.5,-568 74.5,-568 74.5,-620"/>
<text text-anchor="start" x="26.25" y="-606.5" font-family="Helvetica,sans-Serif" font-size="10.00">std::string</text>
<text text-anchor="start" x="46.5" y="-590.5" font-family="Helvetica,sans-Serif" font-size="10.00"> </text>
<text text-anchor="start" x="46.5" y="-574.5" font-family="Helvetica,sans-Serif" font-size="10.00"> </text>
<polygon fill="#666666" stroke="#666666" points="21.5,-602 21.5,-602 74.5,-602 74.5,-602 21.5,-602"/>
<polygon fill="#666666" stroke="#666666" points="21.5,-586 21.5,-586 74.5,-586 74.5,-586 21.5,-586"/>
<polygon fill="none" stroke="#666666" points="21.5,-568 21.5,-620 74.5,-620 74.5,-568 21.5,-568"/>
</a>
</g>
</g>
<!-- Node4&#45;&gt;Node3 -->
<g id="edge3_Node000003_Node000004" class="edge">
<title>Node4&#45;&gt;Node3</title>
<g id="a_edge3_Node000003_Node000004"><a xlink:title=" ">
<path fill="none" stroke="#63b8ff" d="M48,-568.36C48,-555.35 48,-538.44 48,-520.73"/>
<polygon fill="none" stroke="#63b8ff" points="48,-520.64 44,-514.64 48,-508.64 52,-514.64 48,-520.64"/>
</a>
</g>
<text text-anchor="middle" x="73.12" y="-540.5" font-family="Helvetica,sans-Serif" font-size="10.00" fill="grey"> +name</text>
<text text-anchor="middle" x="73.12" y="-528.5" font-family="Helvetica,sans-Serif" font-size="10.00" fill="grey">+stringData</text>
</g>
<!-- Node5 -->
<g id="Node000005" class="node">
<title>Node5</title>
<g id="a_Node000005"><a xlink:title=" ">
<polygon fill="white" stroke="none" points="92,-720 4,-720 4,-656 92,-656 92,-720"/>
<text text-anchor="start" x="9" y="-706.5" font-family="Helvetica,sans-Serif" font-size="10.00">std::basic_string&lt;</text>
<text text-anchor="start" x="31.88" y="-694.5" font-family="Helvetica,sans-Serif" font-size="10.00"> Char &gt;</text>
<text text-anchor="start" x="46.5" y="-678.5" font-family="Helvetica,sans-Serif" font-size="10.00"> </text>
<text text-anchor="start" x="46.5" y="-662.5" font-family="Helvetica,sans-Serif" font-size="10.00"> </text>
<polygon fill="#666666" stroke="#666666" points="4,-690 4,-690 92,-690 92,-690 4,-690"/>
<polygon fill="#666666" stroke="#666666" points="4,-674 4,-674 92,-674 92,-674 4,-674"/>
<polygon fill="none" stroke="#666666" points="4,-656 4,-720 92,-720 92,-656 4,-656"/>
</a>
</g>
</g>
<!-- Node5&#45;&gt;Node4 -->
<g id="edge4_Node000004_Node000005" class="edge">
<title>Node5&#45;&gt;Node4</title>
<g id="a_edge4_Node000004_Node000005"><a xlink:title=" ">
<path fill="none" stroke="#63b8ff" d="M48,-644.72C48,-636.21 48,-627.53 48,-619.86"/>
<polygon fill="none" stroke="#63b8ff" points="44.5,-644.6 48,-654.6 51.5,-644.6 44.5,-644.6"/>
</a>
</g>
</g>
<!-- Node6 -->
<g id="Node000006" class="node">
<title>Node6</title>
<g id="a_Node000006"><a xlink:title=" ">
<polygon fill="white" stroke="none" points="192,-446 114,-446 114,-394 192,-394 192,-446"/>
<text text-anchor="start" x="118.88" y="-432.5" font-family="Helvetica,sans-Serif" font-size="10.00">std::vector&lt; T &gt;</text>
<text text-anchor="start" x="151.5" y="-416.5" font-family="Helvetica,sans-Serif" font-size="10.00"> </text>
<text text-anchor="start" x="151.5" y="-400.5" font-family="Helvetica,sans-Serif" font-size="10.00"> </text>
<polygon fill="#666666" stroke="#666666" points="114,-428 114,-428 192,-428 192,-428 114,-428"/>
<polygon fill="#666666" stroke="#666666" points="114,-412 114,-412 192,-412 192,-412 114,-412"/>
<polygon fill="none" stroke="#666666" points="114,-394 114,-446 192,-446 192,-394 114,-394"/>
</a>
</g>
</g>
<!-- Node6&#45;&gt;Node2 -->
<g id="edge5_Node000002_Node000006" class="edge">
<title>Node6&#45;&gt;Node2</title>
<g id="a_edge5_Node000002_Node000006"><a xlink:title=" ">
<path fill="none" stroke="orange" d="M146.24,-383.1C140.87,-356.93 132.52,-320.81 122,-290 119.95,-284 117.44,-277.73 114.85,-271.76"/>
<polygon fill="orange" stroke="orange" points="142.81,-383.76 148.2,-392.88 149.67,-382.39 142.81,-383.76"/>
</a>
</g>
<text text-anchor="start" x="128" y="-304.5" font-family="Helvetica,sans-Serif" font-size="10.00" fill="grey"> &lt; EntityStatsManager</text>
<text text-anchor="middle" x="177.12" y="-292.5" font-family="Helvetica,sans-Serif" font-size="10.00" fill="grey">::Value &gt;</text>
</g>
<!-- Node7 -->
<g id="Node000007" class="node">
<title>Node7</title>
<g id="a_Node000007"><a xlink:title=" ">
<polygon fill="white" stroke="none" points="160.5,-620 145.5,-620 145.5,-568 160.5,-568 160.5,-620"/>
<text text-anchor="start" x="150.38" y="-606.5" font-family="Helvetica,sans-Serif" font-size="10.00">T</text>
<text text-anchor="start" x="151.5" y="-590.5" font-family="Helvetica,sans-Serif" font-size="10.00"> </text>
<text text-anchor="start" x="151.5" y="-574.5" font-family="Helvetica,sans-Serif" font-size="10.00"> </text>
<polygon fill="#666666" stroke="#666666" points="145.5,-602 145.5,-602 160.5,-602 160.5,-602 145.5,-602"/>
<polygon fill="#666666" stroke="#666666" points="145.5,-586 145.5,-586 160.5,-586 160.5,-586 145.5,-586"/>
<polygon fill="none" stroke="#666666" points="145.5,-568 145.5,-620 160.5,-620 160.5,-568 145.5,-568"/>
</a>
</g>
</g>
<!-- Node7&#45;&gt;Node6 -->
<g id="edge6_Node000006_Node000007" class="edge">
<title>Node7&#45;&gt;Node6</title>
<g id="a_edge6_Node000006_Node000007"><a xlink:title=" ">
<path fill="none" stroke="#63b8ff" d="M153,-568.36C153,-539.7 153,-492.08 153,-458.75"/>
<polygon fill="none" stroke="#63b8ff" points="153,-458.78 149,-452.78 153,-446.78 157,-452.78 153,-458.78"/>
</a>
</g>
<text text-anchor="middle" x="177.38" y="-534.5" font-family="Helvetica,sans-Serif" font-size="10.00" fill="grey"> +elements</text>
</g>
</g>
</svg>

<g id="navigator" transform="translate(0 0)" fill="#404254">
  <rect fill="#f2f5e9" fill-opacity="0.5" stroke="#606060" stroke-width=".5" x="0" y="0" width="60" height="60"/>
  <use id="zoomplus" xlink:href="#zoomPlus" x="17" y="9" onmousedown="handleZoom(evt,'in')"/>
  <use id="zoomminus" xlink:href="#zoomMin" x="42" y="9" onmousedown="handleZoom(evt,'out')"/>
  <use id="reset" xlink:href="#resetDef" x="30" y="36" onmousedown="handleReset()"/>
   <use id="arrowup" xlink:href="#arrowUp" x="0" y="0" onmousedown="handlePan(0,-1)"/>
  <use id="arrowright" xlink:href="#arrowRight" x="0" y="0" onmousedown="handlePan(1,0)"/>
  <use id="arrowdown" xlink:href="#arrowDown" x="0" y="0" onmousedown="handlePan(0,1)"/>
  <use id="arrowleft" xlink:href="#arrowLeft" x="0" y="0" onmousedown="handlePan(-1,0)"/>
</g>
<svg viewBox="0 0 15 15" width="100%" height="30px" preserveAspectRatio="xMaxYMin meet">
 <g id="arrow_out" transform="scale(0.3 0.3)">
  <a xlink:href="struct_g_l_e_s_c_1_1_e_c_s_1_1_i_component__coll__graph_org.svg" target="_base">
   <rect id="button" ry="5" rx="5" y="6" x="6" height="38" width="38"
        fill="#f2f5e9" fill-opacity="0.5" stroke="#606060" stroke-width="1.0"/>
   <path id="arrow"
     d="M 11.500037,31.436501 C 11.940474,20.09759 22.043105,11.32322 32.158766,21.979434 L 37.068811,17.246167 C 37.068811,17.246167 37.088388,32 37.088388,32 L 22.160133,31.978069 C 22.160133,31.978069 26.997745,27.140456 26.997745,27.140456 C 18.528582,18.264221 13.291696,25.230495 11.500037,31.436501 z"
     style="fill:#404040;"/>
  </a>
 </g>
</svg>

<style type='text/css'>
<![CDATA[
[data-mouse-over-selected='false'] { opacity: 0.7; }
[data-mouse-over-selected='true']  { opacity: 1.0; }
]]>
</style>
<script type="application/ecmascript"><![CDATA[
document.addEventListener('DOMContentLoaded', (event) => {
  highlightEdges();
  highlightAdjacentNodes();
});
]]></script>
</svg>
