<?xml version="1.0" encoding="UTF-8" standalone="no"?>
<!DOCTYPE svg PUBLIC "-//W3C//DTD SVG 1.1//EN"
 "http://www.w3.org/Graphics/SVG/1.1/DTD/svg11.dtd">
<!-- Generated by graphviz version 11.0.0 (20240428.1522)
 -->
<!-- Title: GLESC::isIterable&lt; T, std::void_t&lt; decltype(std::declval&lt; T &gt;().begin()), decltype(std::declval&lt; T &gt;().end())&gt; &gt; Pages: 1 -->
<svg width="125pt" height="196pt"
 viewBox="0.00 0.00 125.00 196.00" xmlns="http://www.w3.org/2000/svg" xmlns:xlink="http://www.w3.org/1999/xlink">

<svg id="main" version="1.1" xmlns="http://www.w3.org/2000/svg" xmlns:xlink="http://www.w3.org/1999/xlink" xml:space="preserve" onload="init(evt)">
<style type="text/css"><![CDATA[
.node, .edge {opacity: 0.7;}
.node.selected, .edge.selected {opacity: 1;}
.edge:hover path { stroke: red; }
.edge:hover polygon { stroke: red; fill: red; }
]]></style>
<script type="application/ecmascript" xlink:href="svg.min.js"/>
<svg id="graph" class="graph">
<g id="graph0" class="graph" transform="scale(1 1) rotate(0) translate(4 192)">
<title>GLESC::isIterable&lt; T, std::void_t&lt; decltype(std::declval&lt; T &gt;().begin()), decltype(std::declval&lt; T &gt;().end())&gt; &gt;</title>
<!-- Node1 -->
<g id="Node000001" class="node">
<title>Node1</title>
<g id="a_Node000001"><a xlink:title=" ">
<polygon fill="#999999" stroke="none" points="117,-100 0,-100 0,0 117,0 117,-100"/>
<text text-anchor="start" x="4.88" y="-86.5" font-family="Helvetica,sans-Serif" font-size="10.00">GLESC::isIterable&lt;</text>
<text text-anchor="start" x="4.88" y="-74.5" font-family="Helvetica,sans-Serif" font-size="10.00"> T, std::void_t&lt; decltype</text>
<text text-anchor="start" x="4.88" y="-62.5" font-family="Helvetica,sans-Serif" font-size="10.00">(std::declval&lt; T &gt;().begin</text>
<text text-anchor="start" x="4.88" y="-50.5" font-family="Helvetica,sans-Serif" font-size="10.00">()), decltype(std::declval</text>
<text text-anchor="start" x="22.5" y="-38.5" font-family="Helvetica,sans-Serif" font-size="10.00">&lt; T &gt;().end())&gt; &gt;</text>
<text text-anchor="start" x="57" y="-22.5" font-family="Helvetica,sans-Serif" font-size="10.00"> </text>
<text text-anchor="start" x="57" y="-6.5" font-family="Helvetica,sans-Serif" font-size="10.00"> </text>
<polygon fill="#666666" stroke="#666666" points="0,-34 0,-34 117,-34 117,-34 0,-34"/>
<polygon fill="#666666" stroke="#666666" points="0,-18 0,-18 117,-18 117,-18 0,-18"/>
<polygon fill="none" stroke="#666666" points="0,0 0,-100 117,-100 117,0 0,0"/>
</a>
</g>
</g>
<!-- Node2 -->
<g id="Node000002" class="node">
<title>Node2</title>
<g id="a_Node000002"><a xlink:title=" ">
<polygon fill="white" stroke="none" points="93.5,-188 23.5,-188 23.5,-136 93.5,-136 93.5,-188"/>
<text text-anchor="start" x="28.5" y="-174.5" font-family="Helvetica,sans-Serif" font-size="10.00">std::true_type</text>
<text text-anchor="start" x="57" y="-158.5" font-family="Helvetica,sans-Serif" font-size="10.00"> </text>
<text text-anchor="start" x="57" y="-142.5" font-family="Helvetica,sans-Serif" font-size="10.00"> </text>
<polygon fill="#666666" stroke="#666666" points="23.5,-170 23.5,-170 93.5,-170 93.5,-170 23.5,-170"/>
<polygon fill="#666666" stroke="#666666" points="23.5,-154 23.5,-154 93.5,-154 93.5,-154 23.5,-154"/>
<polygon fill="none" stroke="#666666" points="23.5,-136 23.5,-188 93.5,-188 93.5,-136 23.5,-136"/>
</a>
</g>
</g>
<!-- Node2&#45;&gt;Node1 -->
<g id="edge1_Node000001_Node000002" class="edge">
<title>Node2&#45;&gt;Node1</title>
<g id="a_edge1_Node000001_Node000002"><a xlink:title=" ">
<path fill="none" stroke="#63b8ff" d="M58.5,-124.53C58.5,-116.58 58.5,-108.05 58.5,-99.72"/>
<polygon fill="none" stroke="#63b8ff" points="55,-124.53 58.5,-134.53 62,-124.53 55,-124.53"/>
</a>
</g>
</g>
</g>
</svg>
</svg>

<style type='text/css'>
<![CDATA[
[data-mouse-over-selected='false'] { opacity: 0.7; }
[data-mouse-over-selected='true']  { opacity: 1.0; }
]]>
</style>
<script type="application/ecmascript"><![CDATA[
document.addEventListener('DOMContentLoaded', (event) => {
  highlightEdges();
  highlightAdjacentNodes();
});
]]></script>
</svg>
