<?xml version="1.0" encoding="UTF-8" standalone="no"?>
<!DOCTYPE svg PUBLIC "-//W3C//DTD SVG 1.1//EN"
 "http://www.w3.org/Graphics/SVG/1.1/DTD/svg11.dtd">
<!-- Generated by graphviz version 11.0.0 (20240428.1522)
 -->
<!-- Title: GLESC::Transform::Transform::getPosition Pages: 1 -->
<svg width="572pt" height="225pt"
 viewBox="0.00 0.00 571.50 225.00" xmlns="http://www.w3.org/2000/svg" xmlns:xlink="http://www.w3.org/1999/xlink">
<g id="graph0" class="graph" transform="scale(1 1) rotate(0) translate(4 221)">
<title>GLESC::Transform::Transform::getPosition</title>
<!-- Node1 -->
<g id="Node000001" class="node">
<title>Node1</title>
<g id="a_Node000001"><a xlink:title=" ">
<polygon fill="#999999" stroke="#666666" points="563.5,-117 417,-117 417,-85 563.5,-85 563.5,-117"/>
<text text-anchor="start" x="425" y="-103.5" font-family="Helvetica,sans-Serif" font-size="10.00">GLESC::Transform::Transform</text>
<text text-anchor="middle" x="490.25" y="-91.5" font-family="Helvetica,sans-Serif" font-size="10.00">::getPosition</text>
</a>
</g>
</g>
<!-- Node2 -->
<g id="Node000002" class="node">
<title>Node2</title>
<g id="a_Node000002"><a xlink:href="class_g_l_e_s_c_1_1_render_1_1_renderer.html#aaa4f270fc41e2f2a1f9ce7b979376eb1" target="_top" xlink:title="Static method that creates the view matrix from a transform (transform of the camera)">
<polygon fill="white" stroke="#666666" points="370.5,-217 239.75,-217 239.75,-185 370.5,-185 370.5,-217"/>
<text text-anchor="start" x="247.75" y="-203.5" font-family="Helvetica,sans-Serif" font-size="10.00">GLESC::Render::Renderer</text>
<text text-anchor="middle" x="305.12" y="-191.5" font-family="Helvetica,sans-Serif" font-size="10.00">::createViewMatrix</text>
</a>
</g>
</g>
<!-- Node1&#45;&gt;Node2 -->
<g id="edge1_Node000001_Node000002" class="edge">
<title>Node1&#45;&gt;Node2</title>
<g id="a_edge1_Node000001_Node000002"><a xlink:title=" ">
<path fill="none" stroke="#63b8ff" d="M460.56,-124.25C439.52,-140.44 409.72,-161.62 381,-176 374.75,-179.13 368.02,-182 361.25,-184.6"/>
<polygon fill="#63b8ff" stroke="#63b8ff" points="462.66,-127.05 468.39,-118.14 458.35,-121.53 462.66,-127.05"/>
</a>
</g>
</g>
<!-- Node3 -->
<g id="Node000003" class="node">
<title>Node3</title>
<g id="a_Node000003"><a xlink:href="struct_g_l_e_s_c_1_1_transform_1_1_interpolator.html#ac421b853892d9700f61a4f55d6f5582e" target="_top" xlink:title="Interpolates between the current and the last transform.">
<polygon fill="white" stroke="#666666" points="381,-167 229.25,-167 229.25,-135 381,-135 381,-167"/>
<text text-anchor="start" x="237.25" y="-153.5" font-family="Helvetica,sans-Serif" font-size="10.00">GLESC::Transform::Interpolator</text>
<text text-anchor="middle" x="305.12" y="-141.5" font-family="Helvetica,sans-Serif" font-size="10.00">::interpolate</text>
</a>
</g>
</g>
<!-- Node1&#45;&gt;Node3 -->
<g id="edge2_Node000001_Node000003" class="edge">
<title>Node1&#45;&gt;Node3</title>
<g id="a_edge2_Node000001_Node000003"><a xlink:title=" ">
<path fill="none" stroke="#63b8ff" d="M417.99,-120.46C400.93,-125.11 382.88,-130.04 366.38,-134.55"/>
<polygon fill="#63b8ff" stroke="#63b8ff" points="418.85,-123.85 427.57,-117.84 417.01,-117.1 418.85,-123.85"/>
</a>
</g>
</g>
<!-- Node4 -->
<g id="Node000004" class="node">
<title>Node4</title>
<g id="a_Node000004"><a xlink:href="struct_g_l_e_s_c_1_1_transform_1_1_interpolator.html#a594cf0ebd253815096437cfbbe2a8d9f" target="_top" xlink:title="Pushes a new transform to the interpolator.">
<polygon fill="white" stroke="#666666" points="381,-117 229.25,-117 229.25,-85 381,-85 381,-117"/>
<text text-anchor="start" x="237.25" y="-103.5" font-family="Helvetica,sans-Serif" font-size="10.00">GLESC::Transform::Interpolator</text>
<text text-anchor="middle" x="305.12" y="-91.5" font-family="Helvetica,sans-Serif" font-size="10.00">::pushTransform</text>
</a>
</g>
</g>
<!-- Node1&#45;&gt;Node4 -->
<g id="edge3_Node000001_Node000004" class="edge">
<title>Node1&#45;&gt;Node4</title>
<g id="a_edge3_Node000001_Node000004"><a xlink:title=" ">
<path fill="none" stroke="#63b8ff" d="M405.1,-101C397.19,-101 389.2,-101 381.38,-101"/>
<polygon fill="#63b8ff" stroke="#63b8ff" points="405.1,-104.5 415.1,-101 405.1,-97.5 405.1,-104.5"/>
</a>
</g>
</g>
<!-- Node5 -->
<g id="Node000005" class="node">
<title>Node5</title>
<g id="a_Node000005"><a xlink:href="class_g_l_e_s_c_1_1_render_1_1_renderer.html#a3244ebc15bf8310257ec613f62d00a33" target="_top" xlink:title="This renders the frame.">
<polygon fill="white" stroke="#666666" points="370.5,-67 239.75,-67 239.75,-35 370.5,-35 370.5,-67"/>
<text text-anchor="start" x="247.75" y="-53.5" font-family="Helvetica,sans-Serif" font-size="10.00">GLESC::Render::Renderer</text>
<text text-anchor="middle" x="305.12" y="-41.5" font-family="Helvetica,sans-Serif" font-size="10.00">::render</text>
</a>
</g>
</g>
<!-- Node1&#45;&gt;Node5 -->
<g id="edge4_Node000001_Node000005" class="edge">
<title>Node1&#45;&gt;Node5</title>
<g id="a_edge4_Node000001_Node000005"><a xlink:title=" ">
<path fill="none" stroke="#63b8ff" d="M417.99,-81.54C400.93,-76.89 382.88,-71.96 366.38,-67.45"/>
<polygon fill="#63b8ff" stroke="#63b8ff" points="417.01,-84.9 427.57,-84.16 418.85,-78.15 417.01,-84.9"/>
</a>
</g>
</g>
<!-- Node8 -->
<g id="Node000008" class="node">
<title>Node8</title>
<g id="a_Node000008"><a xlink:href="class_g_l_e_s_c_1_1_engine.html#ad2ff110d5a86c1cd60b541d65915ac48" target="_top" xlink:title="Processes the logic of the game Is called every frame, must be called at constant intervals of time a...">
<polygon fill="white" stroke="#666666" points="193.25,-20 73,-20 73,0 193.25,0 193.25,-20"/>
<text text-anchor="middle" x="133.12" y="-6.5" font-family="Helvetica,sans-Serif" font-size="10.00">GLESC::Engine::update</text>
</a>
</g>
</g>
<!-- Node1&#45;&gt;Node8 -->
<g id="edge7_Node000001_Node000008" class="edge">
<title>Node1&#45;&gt;Node8</title>
<g id="a_edge7_Node000001_Node000008"><a xlink:title=" ">
<path fill="none" stroke="#63b8ff" d="M463.7,-77.25C443.08,-59.67 412.41,-36.94 381,-26 319.76,-4.66 244.87,-2.93 193.74,-5.1"/>
<polygon fill="#63b8ff" stroke="#63b8ff" points="461.2,-79.71 471.03,-83.67 465.81,-74.45 461.2,-79.71"/>
</a>
</g>
</g>
<!-- Node6 -->
<g id="Node000006" class="node">
<title>Node6</title>
<g id="a_Node000006"><a xlink:href="class_g_l_e_s_c_1_1_engine.html#ab0a886855ca341089947b36b9c6f6e15" target="_top" xlink:title="Processes the rendering of the game Can be called at variable intervals of time as it uses elapsed.">
<polygon fill="white" stroke="#666666" points="192.12,-59 74.12,-59 74.12,-39 192.12,-39 192.12,-59"/>
<text text-anchor="middle" x="133.12" y="-45.5" font-family="Helvetica,sans-Serif" font-size="10.00">GLESC::Engine::render</text>
</a>
</g>
</g>
<!-- Node5&#45;&gt;Node6 -->
<g id="edge5_Node000005_Node000006" class="edge">
<title>Node5&#45;&gt;Node6</title>
<g id="a_edge5_Node000005_Node000006"><a xlink:title=" ">
<path fill="none" stroke="#63b8ff" d="M228.06,-50.11C216.15,-49.96 204,-49.82 192.57,-49.69"/>
<polygon fill="#63b8ff" stroke="#63b8ff" points="227.82,-53.6 237.86,-50.22 227.9,-46.6 227.82,-53.6"/>
</a>
</g>
</g>
<!-- Node7 -->
<g id="Node000007" class="node">
<title>Node7</title>
<g id="a_Node000007"><a xlink:href="main_8cpp.html#a0ddf1224851353fc92bfbff6f499fa97" target="_top" xlink:title=" ">
<polygon fill="white" stroke="#666666" points="37,-39 0,-39 0,-19 37,-19 37,-39"/>
<text text-anchor="middle" x="18.5" y="-25.5" font-family="Helvetica,sans-Serif" font-size="10.00">main</text>
</a>
</g>
</g>
<!-- Node6&#45;&gt;Node7 -->
<g id="edge6_Node000006_Node000007" class="edge">
<title>Node6&#45;&gt;Node7</title>
<g id="a_edge6_Node000006_Node000007"><a xlink:title=" ">
<path fill="none" stroke="#63b8ff" d="M62.7,-36.67C53.36,-35.01 44.54,-33.45 37.32,-32.16"/>
<polygon fill="#63b8ff" stroke="#63b8ff" points="61.88,-40.08 72.34,-38.38 63.11,-33.19 61.88,-40.08"/>
</a>
</g>
</g>
<!-- Node8&#45;&gt;Node7 -->
<g id="edge8_Node000008_Node000007" class="edge">
<title>Node8&#45;&gt;Node7</title>
<g id="a_edge8_Node000008_Node000007"><a xlink:title=" ">
<path fill="none" stroke="#63b8ff" d="M61.18,-21.97C52.39,-23.45 44.11,-24.85 37.29,-26"/>
<polygon fill="#63b8ff" stroke="#63b8ff" points="61.74,-25.42 71.02,-20.31 60.58,-18.52 61.74,-25.42"/>
</a>
</g>
</g>
</g>
</svg>
