<?xml version="1.0" encoding="UTF-8" standalone="no"?>
<!DOCTYPE svg PUBLIC "-//W3C//DTD SVG 1.1//EN"
 "http://www.w3.org/Graphics/SVG/1.1/DTD/svg11.dtd">
<!-- Generated by graphviz version 11.0.0 (20240428.1522)
 -->
<!-- Title: GLESC::ECS::TransformComponent Pages: 1 -->
<!--zoomable 1328 -->

<svg id="main" version="1.1" xmlns="http://www.w3.org/2000/svg" xmlns:xlink="http://www.w3.org/1999/xlink" xml:space="preserve" onload="init(evt)">
<style type="text/css"><![CDATA[
.node, .edge {opacity: 0.7;}
.node.selected, .edge.selected {opacity: 1;}
.edge:hover path { stroke: red; }
.edge:hover polygon { stroke: red; fill: red; }
]]></style>

<defs>
  <circle id="rim" cx="0" cy="0" r="7"/>
  <circle id="rim2" cx="0" cy="0" r="3.5"/>
  <g id="zoomPlus">
    <use xlink:href="#rim" fill="#404040"><set attributeName="fill" to="#808080" begin="zoomplus.mouseover" end="zoomplus.mouseout"/></use>
    <path d="M-4,0h8M0,-4v8" fill="none" stroke="white" stroke-width="1.5" pointer-events="none"/>
  </g>
  <g id="zoomMin">
    <use xlink:href="#rim" fill="#404040"><set attributeName="fill" to="#808080" begin="zoomminus.mouseover" end="zoomminus.mouseout"/></use>
    <path d="M-4,0h8" fill="none" stroke="white" stroke-width="1.5" pointer-events="none"/>
  </g>
  <g id="arrowUp" transform="translate(30 24)">
    <use xlink:href="#rim"/>
    <path pointer-events="none" fill="none" stroke="white" stroke-width="1.5" d="M0,-3.0v7 M-2.5,-0.5L0,-3.0L2.5,-0.5"/>
  </g>
  <g id="arrowRight" transform="rotate(90) translate(36 -43)">
    <use xlink:href="#rim"/>
    <path pointer-events="none" fill="none" stroke="white" stroke-width="1.5" d="M0,-3.0v7 M-2.5,-0.5L0,-3.0L2.5,-0.5"/>
  </g>
  <g id="arrowDown" transform="rotate(180) translate(-30 -48)">
    <use xlink:href="#rim"/>
    <path pointer-events="none" fill="none" stroke="white" stroke-width="1.5" d="M0,-3.0v7 M-2.5,-0.5L0,-3.0L2.5,-0.5"/>
  </g>
  <g id="arrowLeft" transform="rotate(270) translate(-36 17)">
    <use xlink:href="#rim"/>
    <path pointer-events="none" fill="none" stroke="white" stroke-width="1.5" d="M0,-3.0v7 M-2.5,-0.5L0,-3.0L2.5,-0.5"/>
  </g>
  <g id="resetDef">
    <use xlink:href="#rim2" fill="#404040"><set attributeName="fill" to="#808080" begin="reset.mouseover" end="reset.mouseout"/></use>
  </g>
</defs>
<script type="application/ecmascript">
var viewWidth = 578;
var viewHeight = 1328;
var sectionId = 'dynsection-1';
</script>
<script type="application/ecmascript" xlink:href="svg.min.js"/>
<svg id="graph" class="graph">
<g id="viewport">
<title>GLESC::ECS::TransformComponent</title>
<!-- Node1 -->
<g id="Node000001" class="node">
<title>Node1</title>
<g id="a_Node000001"><a xlink:title=" ">
<polygon fill="#999999" stroke="none" points="317.5,-84 150.5,-84 150.5,0 317.5,0 317.5,-84"/>
<text text-anchor="start" x="155.25" y="-70.5" font-family="Helvetica,sans-Serif" font-size="10.00">GLESC::ECS::TransformComponent</text>
<text text-anchor="start" x="232.5" y="-54.5" font-family="Helvetica,sans-Serif" font-size="10.00"> </text>
<text text-anchor="start" x="168" y="-38.5" font-family="Helvetica,sans-Serif" font-size="10.00">+</text>
<text text-anchor="start" x="191.5" y="-38.5" font-family="Helvetica,sans-Serif" font-size="10.00">getName()</text>
<text text-anchor="start" x="168" y="-22.5" font-family="Helvetica,sans-Serif" font-size="10.00">+</text>
<text text-anchor="start" x="191.5" y="-22.5" font-family="Helvetica,sans-Serif" font-size="10.00">setDebuggingValues()</text>
<text text-anchor="start" x="168" y="-6.5" font-family="Helvetica,sans-Serif" font-size="10.00">+</text>
<text text-anchor="start" x="191.5" y="-6.5" font-family="Helvetica,sans-Serif" font-size="10.00">toString()</text>
<polygon fill="#666666" stroke="#666666" points="150.5,-66 150.5,-66 317.5,-66 317.5,-66 150.5,-66"/>
<polygon fill="#666666" stroke="#666666" points="150.5,-50 150.5,-50 317.5,-50 317.5,-50 150.5,-50"/>
<polygon fill="none" stroke="#666666" points="150.5,0 150.5,-84 317.5,-84 317.5,0 150.5,0"/>
</a>
</g>
</g>
<!-- Node2 -->
<g id="Node000002" class="node">
<title>Node2</title>
<g id="a_Node000002"><a xlink:href="struct_g_l_e_s_c_1_1_e_c_s_1_1_i_component.html" target="_top" xlink:title="Base class for all components.">
<polygon fill="white" stroke="none" points="227.5,-368 78.5,-368 78.5,-220 227.5,-220 227.5,-368"/>
<text text-anchor="start" x="94.5" y="-354.5" font-family="Helvetica,sans-Serif" font-size="10.00">GLESC::ECS::IComponent</text>
<text text-anchor="start" x="151.5" y="-338.5" font-family="Helvetica,sans-Serif" font-size="10.00"> </text>
<text text-anchor="start" x="82.5" y="-322.5" font-family="Helvetica,sans-Serif" font-size="10.00">+</text>
<text text-anchor="start" x="92.5" y="-322.5" font-family="Helvetica,sans-Serif" font-size="10.00">~IComponent()</text>
<text text-anchor="start" x="82.5" y="-306.5" font-family="Helvetica,sans-Serif" font-size="10.00">+</text>
<text text-anchor="start" x="92.5" y="-306.5" font-family="Helvetica,sans-Serif" font-size="10.00">getDebuggingValues()</text>
<text text-anchor="start" x="82.5" y="-290.5" font-family="Helvetica,sans-Serif" font-size="10.00">+</text>
<text text-anchor="start" x="92.5" y="-290.5" font-family="Helvetica,sans-Serif" font-size="10.00">getName()</text>
<text text-anchor="start" x="82.5" y="-274.5" font-family="Helvetica,sans-Serif" font-size="10.00">+</text>
<text text-anchor="start" x="92.5" y="-274.5" font-family="Helvetica,sans-Serif" font-size="10.00">getUpdatedDebuggingValues()</text>
<text text-anchor="start" x="82.5" y="-258.5" font-family="Helvetica,sans-Serif" font-size="10.00">+</text>
<text text-anchor="start" x="92.5" y="-258.5" font-family="Helvetica,sans-Serif" font-size="10.00">toString()</text>
<text text-anchor="start" x="82.88" y="-242.5" font-family="Helvetica,sans-Serif" font-size="10.00">#</text>
<text text-anchor="start" x="92.5" y="-242.5" font-family="Helvetica,sans-Serif" font-size="10.00">setDebuggingValues()</text>
<text text-anchor="start" x="82.88" y="-226.5" font-family="Helvetica,sans-Serif" font-size="10.00">#</text>
<text text-anchor="start" x="92.5" y="-226.5" font-family="Helvetica,sans-Serif" font-size="10.00">setUpdatedDebuggingValues()</text>
<polygon fill="#666666" stroke="#666666" points="78.5,-350 78.5,-350 227.5,-350 227.5,-350 78.5,-350"/>
<polygon fill="#666666" stroke="#666666" points="78.5,-334 78.5,-334 227.5,-334 227.5,-334 78.5,-334"/>
<polygon fill="none" stroke="#666666" points="78.5,-220 78.5,-368 227.5,-368 227.5,-220 78.5,-220"/>
</a>
</g>
</g>
<!-- Node2&#45;&gt;Node1 -->
<g id="edge1_Node000001_Node000002" class="edge">
<title>Node2&#45;&gt;Node1</title>
<g id="a_edge1_Node000001_Node000002"><a xlink:title=" ">
<path fill="none" stroke="#63b8ff" d="M180.16,-209.16C193.85,-166.93 209.82,-117.64 220.79,-83.77"/>
<polygon fill="none" stroke="#63b8ff" points="176.87,-207.99 177.11,-218.58 183.52,-210.14 176.87,-207.99"/>
</a>
</g>
</g>
<!-- Node3 -->
<g id="Node000003" class="node">
<title>Node3</title>
<g id="a_Node000003"><a xlink:title=" ">
<polygon fill="white" stroke="none" points="156,-768 44,-768 44,-704 156,-704 156,-768"/>
<text text-anchor="start" x="48.62" y="-754.5" font-family="Helvetica,sans-Serif" font-size="10.00">std::vector&lt; EntityStats</text>
<text text-anchor="start" x="61.38" y="-742.5" font-family="Helvetica,sans-Serif" font-size="10.00">Manager::Value &gt;</text>
<text text-anchor="start" x="98.5" y="-726.5" font-family="Helvetica,sans-Serif" font-size="10.00"> </text>
<text text-anchor="start" x="98.5" y="-710.5" font-family="Helvetica,sans-Serif" font-size="10.00"> </text>
<polygon fill="#666666" stroke="#666666" points="44,-738 44,-738 156,-738 156,-738 44,-738"/>
<polygon fill="#666666" stroke="#666666" points="44,-722 44,-722 156,-722 156,-722 44,-722"/>
<polygon fill="none" stroke="#666666" points="44,-704 44,-768 156,-768 156,-704 44,-704"/>
</a>
</g>
</g>
<!-- Node3&#45;&gt;Node2 -->
<g id="edge2_Node000002_Node000003" class="edge">
<title>Node3&#45;&gt;Node2</title>
<g id="a_edge2_Node000002_Node000003"><a xlink:title=" ">
<path fill="none" stroke="#63b8ff" d="M103.73,-704.06C111.73,-637.63 130.79,-479.35 142.73,-380.3"/>
<polygon fill="none" stroke="#63b8ff" points="142.71,-380.43 139.46,-374 144.14,-368.52 147.4,-374.96 142.71,-380.43"/>
</a>
</g>
<text text-anchor="middle" x="168.38" y="-530.5" font-family="Helvetica,sans-Serif" font-size="10.00" fill="grey"> #updatedValues</text>
<text text-anchor="middle" x="168.38" y="-518.5" font-family="Helvetica,sans-Serif" font-size="10.00" fill="grey">#values</text>
</g>
<!-- Node4 -->
<g id="Node000004" class="node">
<title>Node4</title>
<g id="a_Node000004"><a xlink:href="class_entity_stats_manager.html#struct_entity_stats_manager_1_1_value" target="_top" xlink:title="Struct that holds the data of a value of a component.">
<polygon fill="white" stroke="none" points="96,-1108 0,-1108 0,-932 96,-932 96,-1108"/>
<text text-anchor="start" x="4.88" y="-1094.5" font-family="Helvetica,sans-Serif" font-size="10.00">EntityStatsManager</text>
<text text-anchor="start" x="32.62" y="-1082.5" font-family="Helvetica,sans-Serif" font-size="10.00">::Value</text>
<text text-anchor="start" x="10.5" y="-1066.5" font-family="Helvetica,sans-Serif" font-size="10.00">+</text>
<text text-anchor="start" x="27" y="-1066.5" font-family="Helvetica,sans-Serif" font-size="10.00">data</text>
<text text-anchor="start" x="10.5" y="-1050.5" font-family="Helvetica,sans-Serif" font-size="10.00">+</text>
<text text-anchor="start" x="27" y="-1050.5" font-family="Helvetica,sans-Serif" font-size="10.00">isModifiable</text>
<text text-anchor="start" x="10.5" y="-1034.5" font-family="Helvetica,sans-Serif" font-size="10.00">+</text>
<text text-anchor="start" x="27" y="-1034.5" font-family="Helvetica,sans-Serif" font-size="10.00">isString</text>
<text text-anchor="start" x="10.5" y="-1018.5" font-family="Helvetica,sans-Serif" font-size="10.00">+</text>
<text text-anchor="start" x="27" y="-1018.5" font-family="Helvetica,sans-Serif" font-size="10.00">max</text>
<text text-anchor="start" x="10.5" y="-1002.5" font-family="Helvetica,sans-Serif" font-size="10.00">+</text>
<text text-anchor="start" x="27" y="-1002.5" font-family="Helvetica,sans-Serif" font-size="10.00">min</text>
<text text-anchor="start" x="10.5" y="-986.5" font-family="Helvetica,sans-Serif" font-size="10.00">+</text>
<text text-anchor="start" x="27" y="-986.5" font-family="Helvetica,sans-Serif" font-size="10.00">type</text>
<text text-anchor="start" x="10.5" y="-970.5" font-family="Helvetica,sans-Serif" font-size="10.00">+</text>
<text text-anchor="start" x="27" y="-970.5" font-family="Helvetica,sans-Serif" font-size="10.00">usesSlider</text>
<text text-anchor="start" x="10.5" y="-954.5" font-family="Helvetica,sans-Serif" font-size="10.00">+</text>
<text text-anchor="start" x="27" y="-954.5" font-family="Helvetica,sans-Serif" font-size="10.00">valueDirty</text>
<text text-anchor="start" x="46.5" y="-938.5" font-family="Helvetica,sans-Serif" font-size="10.00"> </text>
<polygon fill="#666666" stroke="#666666" points="0,-1078 0,-1078 96,-1078 96,-1078 0,-1078"/>
<polygon fill="#666666" stroke="#666666" points="0,-950 0,-950 25,-950 25,-950 0,-950"/>
<polygon fill="#666666" stroke="#666666" points="25,-950 25,-950 96,-950 96,-950 25,-950"/>
<polygon fill="none" stroke="#666666" points="0,-932 0,-1108 96,-1108 96,-932 0,-932"/>
</a>
</g>
</g>
<!-- Node4&#45;&gt;Node3 -->
<g id="edge3_Node000003_Node000004" class="edge">
<title>Node4&#45;&gt;Node3</title>
<g id="a_edge3_Node000003_Node000004"><a xlink:title=" ">
<path fill="none" stroke="#63b8ff" d="M64.03,-932.09C73.28,-881.93 84.51,-821 91.94,-780.73"/>
<polygon fill="none" stroke="#63b8ff" points="91.96,-780.59 89.12,-773.97 94.14,-768.79 96.98,-775.42 91.96,-780.59"/>
</a>
</g>
<text text-anchor="middle" x="95.38" y="-898.5" font-family="Helvetica,sans-Serif" font-size="10.00" fill="grey"> +elements</text>
</g>
<!-- Node5 -->
<g id="Node000005" class="node">
<title>Node5</title>
<g id="a_Node000005"><a xlink:title=" ">
<polygon fill="white" stroke="none" points="74.5,-1220 21.5,-1220 21.5,-1168 74.5,-1168 74.5,-1220"/>
<text text-anchor="start" x="26.25" y="-1206.5" font-family="Helvetica,sans-Serif" font-size="10.00">std::string</text>
<text text-anchor="start" x="46.5" y="-1190.5" font-family="Helvetica,sans-Serif" font-size="10.00"> </text>
<text text-anchor="start" x="46.5" y="-1174.5" font-family="Helvetica,sans-Serif" font-size="10.00"> </text>
<polygon fill="#666666" stroke="#666666" points="21.5,-1202 21.5,-1202 74.5,-1202 74.5,-1202 21.5,-1202"/>
<polygon fill="#666666" stroke="#666666" points="21.5,-1186 21.5,-1186 74.5,-1186 74.5,-1186 21.5,-1186"/>
<polygon fill="none" stroke="#666666" points="21.5,-1168 21.5,-1220 74.5,-1220 74.5,-1168 21.5,-1168"/>
</a>
</g>
</g>
<!-- Node5&#45;&gt;Node4 -->
<g id="edge4_Node000004_Node000005" class="edge">
<title>Node5&#45;&gt;Node4</title>
<g id="a_edge4_Node000004_Node000005"><a xlink:title=" ">
<path fill="none" stroke="#63b8ff" d="M48,-1168.36C48,-1155.35 48,-1138.44 48,-1120.73"/>
<polygon fill="none" stroke="#63b8ff" points="48,-1120.64 44,-1114.64 48,-1108.64 52,-1114.64 48,-1120.64"/>
</a>
</g>
<text text-anchor="middle" x="73.12" y="-1140.5" font-family="Helvetica,sans-Serif" font-size="10.00" fill="grey"> +name</text>
<text text-anchor="middle" x="73.12" y="-1128.5" font-family="Helvetica,sans-Serif" font-size="10.00" fill="grey">+stringData</text>
</g>
<!-- Node6 -->
<g id="Node000006" class="node">
<title>Node6</title>
<g id="a_Node000006"><a xlink:title=" ">
<polygon fill="white" stroke="none" points="92,-1320 4,-1320 4,-1256 92,-1256 92,-1320"/>
<text text-anchor="start" x="9" y="-1306.5" font-family="Helvetica,sans-Serif" font-size="10.00">std::basic_string&lt;</text>
<text text-anchor="start" x="31.88" y="-1294.5" font-family="Helvetica,sans-Serif" font-size="10.00"> Char &gt;</text>
<text text-anchor="start" x="46.5" y="-1278.5" font-family="Helvetica,sans-Serif" font-size="10.00"> </text>
<text text-anchor="start" x="46.5" y="-1262.5" font-family="Helvetica,sans-Serif" font-size="10.00"> </text>
<polygon fill="#666666" stroke="#666666" points="4,-1290 4,-1290 92,-1290 92,-1290 4,-1290"/>
<polygon fill="#666666" stroke="#666666" points="4,-1274 4,-1274 92,-1274 92,-1274 4,-1274"/>
<polygon fill="none" stroke="#666666" points="4,-1256 4,-1320 92,-1320 92,-1256 4,-1256"/>
</a>
</g>
</g>
<!-- Node6&#45;&gt;Node5 -->
<g id="edge5_Node000005_Node000006" class="edge">
<title>Node6&#45;&gt;Node5</title>
<g id="a_edge5_Node000005_Node000006"><a xlink:title=" ">
<path fill="none" stroke="#63b8ff" d="M48,-1244.72C48,-1236.21 48,-1227.53 48,-1219.86"/>
<polygon fill="none" stroke="#63b8ff" points="44.5,-1244.6 48,-1254.6 51.5,-1244.6 44.5,-1244.6"/>
</a>
</g>
</g>
<!-- Node7 -->
<g id="Node000007" class="node">
<title>Node7</title>
<g id="a_Node000007"><a xlink:title=" ">
<polygon fill="white" stroke="none" points="192,-1046 114,-1046 114,-994 192,-994 192,-1046"/>
<text text-anchor="start" x="118.88" y="-1032.5" font-family="Helvetica,sans-Serif" font-size="10.00">std::vector&lt; T &gt;</text>
<text text-anchor="start" x="151.5" y="-1016.5" font-family="Helvetica,sans-Serif" font-size="10.00"> </text>
<text text-anchor="start" x="151.5" y="-1000.5" font-family="Helvetica,sans-Serif" font-size="10.00"> </text>
<polygon fill="#666666" stroke="#666666" points="114,-1028 114,-1028 192,-1028 192,-1028 114,-1028"/>
<polygon fill="#666666" stroke="#666666" points="114,-1012 114,-1012 192,-1012 192,-1012 114,-1012"/>
<polygon fill="none" stroke="#666666" points="114,-994 114,-1046 192,-1046 192,-994 114,-994"/>
</a>
</g>
</g>
<!-- Node7&#45;&gt;Node3 -->
<g id="edge6_Node000003_Node000007" class="edge">
<title>Node7&#45;&gt;Node3</title>
<g id="a_edge6_Node000003_Node000007"><a xlink:title=" ">
<path fill="none" stroke="orange" d="M146.3,-983.36C135.8,-927.47 115.63,-820.17 105.75,-767.58"/>
<polygon fill="orange" stroke="orange" points="142.82,-983.8 148.11,-992.98 149.7,-982.51 142.82,-983.8"/>
</a>
</g>
<text text-anchor="start" x="133" y="-904.5" font-family="Helvetica,sans-Serif" font-size="10.00" fill="grey"> &lt; EntityStatsManager</text>
<text text-anchor="middle" x="182.12" y="-892.5" font-family="Helvetica,sans-Serif" font-size="10.00" fill="grey">::Value &gt;</text>
</g>
<!-- Node8 -->
<g id="Node000008" class="node">
<title>Node8</title>
<g id="a_Node000008"><a xlink:title=" ">
<polygon fill="white" stroke="none" points="160.5,-1220 145.5,-1220 145.5,-1168 160.5,-1168 160.5,-1220"/>
<text text-anchor="start" x="150.38" y="-1206.5" font-family="Helvetica,sans-Serif" font-size="10.00">T</text>
<text text-anchor="start" x="151.5" y="-1190.5" font-family="Helvetica,sans-Serif" font-size="10.00"> </text>
<text text-anchor="start" x="151.5" y="-1174.5" font-family="Helvetica,sans-Serif" font-size="10.00"> </text>
<polygon fill="#666666" stroke="#666666" points="145.5,-1202 145.5,-1202 160.5,-1202 160.5,-1202 145.5,-1202"/>
<polygon fill="#666666" stroke="#666666" points="145.5,-1186 145.5,-1186 160.5,-1186 160.5,-1186 145.5,-1186"/>
<polygon fill="none" stroke="#666666" points="145.5,-1168 145.5,-1220 160.5,-1220 160.5,-1168 145.5,-1168"/>
</a>
</g>
</g>
<!-- Node8&#45;&gt;Node7 -->
<g id="edge7_Node000007_Node000008" class="edge">
<title>Node8&#45;&gt;Node7</title>
<g id="a_edge7_Node000007_Node000008"><a xlink:title=" ">
<path fill="none" stroke="#63b8ff" d="M153,-1168.36C153,-1139.7 153,-1092.08 153,-1058.75"/>
<polygon fill="none" stroke="#63b8ff" points="153,-1058.78 149,-1052.78 153,-1046.78 157,-1052.78 153,-1058.78"/>
</a>
</g>
<text text-anchor="middle" x="177.38" y="-1134.5" font-family="Helvetica,sans-Serif" font-size="10.00" fill="grey"> +elements</text>
</g>
<!-- Node9 -->
<g id="Node000009" class="node">
<title>Node9</title>
<g id="a_Node000009"><a xlink:href="struct_g_l_e_s_c_1_1_transform_1_1_transform.html" target="_top" xlink:title="Struct that represents the position, rotation, and scale of an entity in the game world.">
<polygon fill="white" stroke="none" points="438,-456 298,-456 298,-132 438,-132 438,-456"/>
<text text-anchor="start" x="302.75" y="-442.5" font-family="Helvetica,sans-Serif" font-size="10.00">GLESC::Transform::Transform</text>
<text text-anchor="start" x="310" y="-426.5" font-family="Helvetica,sans-Serif" font-size="10.00">&#45;</text>
<text text-anchor="start" x="325" y="-426.5" font-family="Helvetica,sans-Serif" font-size="10.00">dirty</text>
<text text-anchor="start" x="310" y="-410.5" font-family="Helvetica,sans-Serif" font-size="10.00">&#45;</text>
<text text-anchor="start" x="325" y="-410.5" font-family="Helvetica,sans-Serif" font-size="10.00">modelDirty</text>
<text text-anchor="start" x="310" y="-394.5" font-family="Helvetica,sans-Serif" font-size="10.00">&#45;</text>
<text text-anchor="start" x="325" y="-394.5" font-family="Helvetica,sans-Serif" font-size="10.00">rotateDirty</text>
<text text-anchor="start" x="310" y="-378.5" font-family="Helvetica,sans-Serif" font-size="10.00">&#45;</text>
<text text-anchor="start" x="325" y="-378.5" font-family="Helvetica,sans-Serif" font-size="10.00">scaleDirty</text>
<text text-anchor="start" x="310" y="-362.5" font-family="Helvetica,sans-Serif" font-size="10.00">&#45;</text>
<text text-anchor="start" x="325" y="-362.5" font-family="Helvetica,sans-Serif" font-size="10.00">translateDirty</text>
<text text-anchor="start" x="308.5" y="-346.5" font-family="Helvetica,sans-Serif" font-size="10.00">+</text>
<text text-anchor="start" x="325" y="-346.5" font-family="Helvetica,sans-Serif" font-size="10.00">Transform()</text>
<text text-anchor="start" x="308.5" y="-330.5" font-family="Helvetica,sans-Serif" font-size="10.00">+</text>
<text text-anchor="start" x="325" y="-330.5" font-family="Helvetica,sans-Serif" font-size="10.00">Transform()</text>
<text text-anchor="start" x="308.5" y="-314.5" font-family="Helvetica,sans-Serif" font-size="10.00">+</text>
<text text-anchor="start" x="325" y="-314.5" font-family="Helvetica,sans-Serif" font-size="10.00">addPosition()</text>
<text text-anchor="start" x="308.5" y="-298.5" font-family="Helvetica,sans-Serif" font-size="10.00">+</text>
<text text-anchor="start" x="325" y="-298.5" font-family="Helvetica,sans-Serif" font-size="10.00">addPosition()</text>
<text text-anchor="start" x="308.5" y="-282.5" font-family="Helvetica,sans-Serif" font-size="10.00">+</text>
<text text-anchor="start" x="325" y="-282.5" font-family="Helvetica,sans-Serif" font-size="10.00">addRotation()</text>
<text text-anchor="start" x="308.5" y="-266.5" font-family="Helvetica,sans-Serif" font-size="10.00">+</text>
<text text-anchor="start" x="325" y="-266.5" font-family="Helvetica,sans-Serif" font-size="10.00">addRotation()</text>
<text text-anchor="start" x="308.5" y="-250.5" font-family="Helvetica,sans-Serif" font-size="10.00">+</text>
<text text-anchor="start" x="325" y="-250.5" font-family="Helvetica,sans-Serif" font-size="10.00">addScale()</text>
<text text-anchor="start" x="308.5" y="-234.5" font-family="Helvetica,sans-Serif" font-size="10.00">+</text>
<text text-anchor="start" x="325" y="-234.5" font-family="Helvetica,sans-Serif" font-size="10.00">addScale()</text>
<text text-anchor="start" x="308.5" y="-218.5" font-family="Helvetica,sans-Serif" font-size="10.00">+</text>
<text text-anchor="start" x="325" y="-218.5" font-family="Helvetica,sans-Serif" font-size="10.00">forward()</text>
<text text-anchor="start" x="308.5" y="-202.5" font-family="Helvetica,sans-Serif" font-size="10.00">+</text>
<text text-anchor="start" x="325" y="-202.5" font-family="Helvetica,sans-Serif" font-size="10.00">getDebuggingValues()</text>
<text text-anchor="start" x="325" y="-186.5" font-family="Helvetica,sans-Serif" font-size="10.00">and 17 more...</text>
<text text-anchor="start" x="310" y="-170.5" font-family="Helvetica,sans-Serif" font-size="10.00">&#45;</text>
<text text-anchor="start" x="325" y="-170.5" font-family="Helvetica,sans-Serif" font-size="10.00">calculateForward()</text>
<text text-anchor="start" x="310" y="-154.5" font-family="Helvetica,sans-Serif" font-size="10.00">&#45;</text>
<text text-anchor="start" x="325" y="-154.5" font-family="Helvetica,sans-Serif" font-size="10.00">calculateRight()</text>
<text text-anchor="start" x="310" y="-138.5" font-family="Helvetica,sans-Serif" font-size="10.00">&#45;</text>
<text text-anchor="start" x="325" y="-138.5" font-family="Helvetica,sans-Serif" font-size="10.00">calculateUp()</text>
<polygon fill="#666666" stroke="#666666" points="298,-438 298,-438 438,-438 438,-438 298,-438"/>
<polygon fill="#666666" stroke="#666666" points="298,-358 298,-358 323,-358 323,-358 298,-358"/>
<polygon fill="#666666" stroke="#666666" points="323,-358 323,-358 438,-358 438,-358 323,-358"/>
<polygon fill="none" stroke="#666666" points="298,-132 298,-456 438,-456 438,-132 298,-132"/>
</a>
</g>
</g>
<!-- Node9&#45;&gt;Node1 -->
<g id="edge8_Node000001_Node000009" class="edge">
<title>Node9&#45;&gt;Node1</title>
<g id="a_edge8_Node000001_Node000009"><a xlink:title=" ">
<path fill="none" stroke="#63b8ff" d="M298.06,-162.51C285.22,-138.56 272.53,-114.88 261.87,-94.99"/>
<polygon fill="none" stroke="#63b8ff" points="261.94,-95.12 255.58,-91.72 256.27,-84.54 262.63,-87.94 261.94,-95.12"/>
</a>
</g>
<text text-anchor="middle" x="294.75" y="-104.5" font-family="Helvetica,sans-Serif" font-size="10.00" fill="grey"> +transform</text>
</g>
<!-- Node10 -->
<g id="Node000010" class="node">
<title>Node10</title>
<g id="a_Node000010"><a xlink:href="class_engine_component.html" target="_top" xlink:title="Class that represents a component of the engine.">
<polygon fill="white" stroke="none" points="323.5,-802 174.5,-802 174.5,-670 323.5,-670 323.5,-802"/>
<text text-anchor="start" x="209.25" y="-788.5" font-family="Helvetica,sans-Serif" font-size="10.00">EngineComponent</text>
<text text-anchor="start" x="180" y="-772.5" font-family="Helvetica,sans-Serif" font-size="10.00">&#45;</text>
<text text-anchor="start" x="188.5" y="-772.5" font-family="Helvetica,sans-Serif" font-size="10.00">entityOwnerName</text>
<text text-anchor="start" x="178.5" y="-756.5" font-family="Helvetica,sans-Serif" font-size="10.00">+</text>
<text text-anchor="start" x="188.5" y="-756.5" font-family="Helvetica,sans-Serif" font-size="10.00">~EngineComponent()</text>
<text text-anchor="start" x="178.5" y="-740.5" font-family="Helvetica,sans-Serif" font-size="10.00">+</text>
<text text-anchor="start" x="188.5" y="-740.5" font-family="Helvetica,sans-Serif" font-size="10.00">getDebuggingValues()</text>
<text text-anchor="start" x="178.5" y="-724.5" font-family="Helvetica,sans-Serif" font-size="10.00">+</text>
<text text-anchor="start" x="188.5" y="-724.5" font-family="Helvetica,sans-Serif" font-size="10.00">getOwnerName()</text>
<text text-anchor="start" x="178.5" y="-708.5" font-family="Helvetica,sans-Serif" font-size="10.00">+</text>
<text text-anchor="start" x="188.5" y="-708.5" font-family="Helvetica,sans-Serif" font-size="10.00">getUpdatedDebuggingValues()</text>
<text text-anchor="start" x="178.5" y="-692.5" font-family="Helvetica,sans-Serif" font-size="10.00">+</text>
<text text-anchor="start" x="188.5" y="-692.5" font-family="Helvetica,sans-Serif" font-size="10.00">setOwnerName()</text>
<text text-anchor="start" x="178.5" y="-676.5" font-family="Helvetica,sans-Serif" font-size="10.00">+</text>
<text text-anchor="start" x="188.5" y="-676.5" font-family="Helvetica,sans-Serif" font-size="10.00">toString()</text>
<polygon fill="#666666" stroke="#666666" points="174.5,-784 174.5,-784 323.5,-784 323.5,-784 174.5,-784"/>
<polygon fill="#666666" stroke="#666666" points="174.5,-768 174.5,-768 186.5,-768 186.5,-768 174.5,-768"/>
<polygon fill="#666666" stroke="#666666" points="186.5,-768 186.5,-768 323.5,-768 323.5,-768 186.5,-768"/>
<polygon fill="none" stroke="#666666" points="174.5,-670 174.5,-802 323.5,-802 323.5,-670 174.5,-670"/>
</a>
</g>
</g>
<!-- Node10&#45;&gt;Node9 -->
<g id="edge9_Node000009_Node000010" class="edge">
<title>Node10&#45;&gt;Node9</title>
<g id="a_edge9_Node000009_Node000010"><a xlink:title=" ">
<path fill="none" stroke="#63b8ff" d="M269.5,-659.21C284.61,-603.34 305.72,-525.28 324.52,-455.76"/>
<polygon fill="none" stroke="#63b8ff" points="266.19,-658.05 266.95,-668.62 272.94,-659.88 266.19,-658.05"/>
</a>
</g>
</g>
<!-- Node11 -->
<g id="Node000011" class="node">
<title>Node11</title>
<g id="a_Node000011"><a xlink:href="class_g_l_e_s_c_1_1_math_1_1_vector.html" target="_top" xlink:title=" ">
<polygon fill="white" stroke="none" points="446.5,-848 341.5,-848 341.5,-624 446.5,-624 446.5,-848"/>
<text text-anchor="start" x="346.38" y="-834.5" font-family="Helvetica,sans-Serif" font-size="10.00">GLESC::Math::Vector</text>
<text text-anchor="start" x="368.12" y="-822.5" font-family="Helvetica,sans-Serif" font-size="10.00">&lt; Type, N &gt;</text>
<text text-anchor="start" x="351.5" y="-806.5" font-family="Helvetica,sans-Serif" font-size="10.00">+</text>
<text text-anchor="start" x="367.5" y="-806.5" font-family="Helvetica,sans-Serif" font-size="10.00">data</text>
<text text-anchor="start" x="351.5" y="-790.5" font-family="Helvetica,sans-Serif" font-size="10.00">+</text>
<text text-anchor="start" x="367.5" y="-790.5" font-family="Helvetica,sans-Serif" font-size="10.00">Vector()</text>
<text text-anchor="start" x="351.5" y="-774.5" font-family="Helvetica,sans-Serif" font-size="10.00">+</text>
<text text-anchor="start" x="367.5" y="-774.5" font-family="Helvetica,sans-Serif" font-size="10.00">Vector()</text>
<text text-anchor="start" x="351.5" y="-758.5" font-family="Helvetica,sans-Serif" font-size="10.00">+</text>
<text text-anchor="start" x="367.5" y="-758.5" font-family="Helvetica,sans-Serif" font-size="10.00">Vector()</text>
<text text-anchor="start" x="351.5" y="-742.5" font-family="Helvetica,sans-Serif" font-size="10.00">+</text>
<text text-anchor="start" x="367.5" y="-742.5" font-family="Helvetica,sans-Serif" font-size="10.00">Vector()</text>
<text text-anchor="start" x="351.5" y="-726.5" font-family="Helvetica,sans-Serif" font-size="10.00">+</text>
<text text-anchor="start" x="367.5" y="-726.5" font-family="Helvetica,sans-Serif" font-size="10.00">Vector()</text>
<text text-anchor="start" x="351.5" y="-710.5" font-family="Helvetica,sans-Serif" font-size="10.00">+</text>
<text text-anchor="start" x="367.5" y="-710.5" font-family="Helvetica,sans-Serif" font-size="10.00">Vector()</text>
<text text-anchor="start" x="351.5" y="-694.5" font-family="Helvetica,sans-Serif" font-size="10.00">+</text>
<text text-anchor="start" x="367.5" y="-694.5" font-family="Helvetica,sans-Serif" font-size="10.00">Vector()</text>
<text text-anchor="start" x="351.5" y="-678.5" font-family="Helvetica,sans-Serif" font-size="10.00">+</text>
<text text-anchor="start" x="367.5" y="-678.5" font-family="Helvetica,sans-Serif" font-size="10.00">Vector()</text>
<text text-anchor="start" x="351.5" y="-662.5" font-family="Helvetica,sans-Serif" font-size="10.00">+</text>
<text text-anchor="start" x="367.5" y="-662.5" font-family="Helvetica,sans-Serif" font-size="10.00">Vector()</text>
<text text-anchor="start" x="351.5" y="-646.5" font-family="Helvetica,sans-Serif" font-size="10.00">+</text>
<text text-anchor="start" x="367.5" y="-646.5" font-family="Helvetica,sans-Serif" font-size="10.00">Vector()</text>
<text text-anchor="start" x="367.5" y="-630.5" font-family="Helvetica,sans-Serif" font-size="10.00">and 90 more...</text>
<polygon fill="#666666" stroke="#666666" points="341.5,-818 341.5,-818 446.5,-818 446.5,-818 341.5,-818"/>
<polygon fill="#666666" stroke="#666666" points="341.5,-802 341.5,-802 365.5,-802 365.5,-802 341.5,-802"/>
<polygon fill="#666666" stroke="#666666" points="365.5,-802 365.5,-802 446.5,-802 446.5,-802 365.5,-802"/>
<polygon fill="none" stroke="#666666" points="341.5,-624 341.5,-848 446.5,-848 446.5,-624 341.5,-624"/>
</a>
</g>
</g>
<!-- Node11&#45;&gt;Node9 -->
<g id="edge10_Node000009_Node000011" class="edge">
<title>Node11&#45;&gt;Node9</title>
<g id="a_edge10_Node000009_Node000011"><a xlink:title=" ">
<path fill="none" stroke="#63b8ff" d="M387.46,-624.25C384.67,-577.1 381.35,-520.97 378.25,-468.53"/>
<polygon fill="none" stroke="#63b8ff" points="378.25,-468.52 373.91,-462.77 377.55,-456.54 381.89,-462.3 378.25,-468.52"/>
</a>
</g>
<text text-anchor="middle" x="420" y="-572.5" font-family="Helvetica,sans-Serif" font-size="10.00" fill="grey"> +worldForward</text>
<text text-anchor="middle" x="420" y="-560.5" font-family="Helvetica,sans-Serif" font-size="10.00" fill="grey">+worldRight</text>
<text text-anchor="middle" x="420" y="-548.5" font-family="Helvetica,sans-Serif" font-size="10.00" fill="grey">+worldUp</text>
<text text-anchor="middle" x="420" y="-536.5" font-family="Helvetica,sans-Serif" font-size="10.00" fill="grey">&#45;forwardDirection</text>
<text text-anchor="middle" x="420" y="-524.5" font-family="Helvetica,sans-Serif" font-size="10.00" fill="grey">&#45;position</text>
<text text-anchor="middle" x="420" y="-512.5" font-family="Helvetica,sans-Serif" font-size="10.00" fill="grey">&#45;rightDirection</text>
<text text-anchor="middle" x="420" y="-500.5" font-family="Helvetica,sans-Serif" font-size="10.00" fill="grey">&#45;rotationDegrees</text>
<text text-anchor="middle" x="420" y="-488.5" font-family="Helvetica,sans-Serif" font-size="10.00" fill="grey">&#45;scale</text>
<text text-anchor="middle" x="420" y="-476.5" font-family="Helvetica,sans-Serif" font-size="10.00" fill="grey">&#45;upDirection</text>
</g>
<!-- Node12 -->
<g id="Node000012" class="node">
<title>Node12</title>
<g id="a_Node000012"><a xlink:href="class_g_l_e_s_c_1_1_math_1_1_matrix.html" target="_top" xlink:title="Matrix class. Represents a matrix of N rows and M columns.">
<polygon fill="white" stroke="none" points="569.5,-872 464.5,-872 464.5,-600 569.5,-600 569.5,-872"/>
<text text-anchor="start" x="470.12" y="-858.5" font-family="Helvetica,sans-Serif" font-size="10.00">GLESC::Math::Matrix</text>
<text text-anchor="start" x="484" y="-846.5" font-family="Helvetica,sans-Serif" font-size="10.00">&lt; Type, N, M &gt;</text>
<text text-anchor="start" x="468.5" y="-830.5" font-family="Helvetica,sans-Serif" font-size="10.00">+</text>
<text text-anchor="start" x="478.5" y="-830.5" font-family="Helvetica,sans-Serif" font-size="10.00">data</text>
<text text-anchor="start" x="468.5" y="-814.5" font-family="Helvetica,sans-Serif" font-size="10.00">+</text>
<text text-anchor="start" x="478.5" y="-814.5" font-family="Helvetica,sans-Serif" font-size="10.00">Matrix()</text>
<text text-anchor="start" x="468.5" y="-798.5" font-family="Helvetica,sans-Serif" font-size="10.00">+</text>
<text text-anchor="start" x="478.5" y="-798.5" font-family="Helvetica,sans-Serif" font-size="10.00">Matrix()</text>
<text text-anchor="start" x="468.5" y="-782.5" font-family="Helvetica,sans-Serif" font-size="10.00">+</text>
<text text-anchor="start" x="478.5" y="-782.5" font-family="Helvetica,sans-Serif" font-size="10.00">Matrix()</text>
<text text-anchor="start" x="468.5" y="-766.5" font-family="Helvetica,sans-Serif" font-size="10.00">+</text>
<text text-anchor="start" x="478.5" y="-766.5" font-family="Helvetica,sans-Serif" font-size="10.00">Matrix()</text>
<text text-anchor="start" x="468.5" y="-750.5" font-family="Helvetica,sans-Serif" font-size="10.00">+</text>
<text text-anchor="start" x="478.5" y="-750.5" font-family="Helvetica,sans-Serif" font-size="10.00">Matrix()</text>
<text text-anchor="start" x="468.5" y="-734.5" font-family="Helvetica,sans-Serif" font-size="10.00">+</text>
<text text-anchor="start" x="478.5" y="-734.5" font-family="Helvetica,sans-Serif" font-size="10.00">Matrix()</text>
<text text-anchor="start" x="468.5" y="-718.5" font-family="Helvetica,sans-Serif" font-size="10.00">+</text>
<text text-anchor="start" x="478.5" y="-718.5" font-family="Helvetica,sans-Serif" font-size="10.00">Matrix()</text>
<text text-anchor="start" x="468.5" y="-702.5" font-family="Helvetica,sans-Serif" font-size="10.00">+</text>
<text text-anchor="start" x="478.5" y="-702.5" font-family="Helvetica,sans-Serif" font-size="10.00">Matrix()</text>
<text text-anchor="start" x="468.5" y="-686.5" font-family="Helvetica,sans-Serif" font-size="10.00">+</text>
<text text-anchor="start" x="478.5" y="-686.5" font-family="Helvetica,sans-Serif" font-size="10.00">begin()</text>
<text text-anchor="start" x="468.5" y="-670.5" font-family="Helvetica,sans-Serif" font-size="10.00">+</text>
<text text-anchor="start" x="478.5" y="-670.5" font-family="Helvetica,sans-Serif" font-size="10.00">begin()</text>
<text text-anchor="start" x="478.5" y="-654.5" font-family="Helvetica,sans-Serif" font-size="10.00">and 48 more...</text>
<text text-anchor="start" x="468.5" y="-638.5" font-family="Helvetica,sans-Serif" font-size="10.00">+</text>
<text text-anchor="start" x="478.5" y="-638.5" font-family="Helvetica,sans-Serif" font-size="10.00">cols()</text>
<text text-anchor="start" x="468.5" y="-622.5" font-family="Helvetica,sans-Serif" font-size="10.00">+</text>
<text text-anchor="start" x="478.5" y="-622.5" font-family="Helvetica,sans-Serif" font-size="10.00">rows()</text>
<text text-anchor="start" x="470" y="-606.5" font-family="Helvetica,sans-Serif" font-size="10.00">&#45;</text>
<text text-anchor="start" x="478.5" y="-606.5" font-family="Helvetica,sans-Serif" font-size="10.00">S_ASSERT_TRUE()</text>
<polygon fill="#666666" stroke="#666666" points="464.5,-842 464.5,-842 569.5,-842 569.5,-842 464.5,-842"/>
<polygon fill="#666666" stroke="#666666" points="464.5,-826 464.5,-826 476.5,-826 476.5,-826 464.5,-826"/>
<polygon fill="#666666" stroke="#666666" points="476.5,-826 476.5,-826 569.5,-826 569.5,-826 476.5,-826"/>
<polygon fill="none" stroke="#666666" points="464.5,-600 464.5,-872 569.5,-872 569.5,-600 464.5,-600"/>
</a>
</g>
</g>
<!-- Node12&#45;&gt;Node9 -->
<g id="edge11_Node000009_Node000012" class="edge">
<title>Node12&#45;&gt;Node9</title>
<g id="a_edge11_Node000009_Node000012"><a xlink:title=" ">
<path fill="none" stroke="#63b8ff" d="M494.48,-600C485.78,-558.92 474.39,-514.05 460,-474 455.11,-460.38 449.39,-446.49 443.25,-432.76"/>
<polygon fill="none" stroke="#63b8ff" points="443.36,-433.01 437.23,-429.22 438.37,-422.1 444.5,-425.89 443.36,-433.01"/>
</a>
</g>
<text text-anchor="middle" x="518.5" y="-542.5" font-family="Helvetica,sans-Serif" font-size="10.00" fill="grey"> &#45;modelMat</text>
<text text-anchor="middle" x="518.5" y="-530.5" font-family="Helvetica,sans-Serif" font-size="10.00" fill="grey">&#45;rotateMat</text>
<text text-anchor="middle" x="518.5" y="-518.5" font-family="Helvetica,sans-Serif" font-size="10.00" fill="grey">&#45;scaleMat</text>
<text text-anchor="middle" x="518.5" y="-506.5" font-family="Helvetica,sans-Serif" font-size="10.00" fill="grey">&#45;translateMat</text>
</g>
</g>
</svg>

<g id="navigator" transform="translate(0 0)" fill="#404254">
  <rect fill="#f2f5e9" fill-opacity="0.5" stroke="#606060" stroke-width=".5" x="0" y="0" width="60" height="60"/>
  <use id="zoomplus" xlink:href="#zoomPlus" x="17" y="9" onmousedown="handleZoom(evt,'in')"/>
  <use id="zoomminus" xlink:href="#zoomMin" x="42" y="9" onmousedown="handleZoom(evt,'out')"/>
  <use id="reset" xlink:href="#resetDef" x="30" y="36" onmousedown="handleReset()"/>
   <use id="arrowup" xlink:href="#arrowUp" x="0" y="0" onmousedown="handlePan(0,-1)"/>
  <use id="arrowright" xlink:href="#arrowRight" x="0" y="0" onmousedown="handlePan(1,0)"/>
  <use id="arrowdown" xlink:href="#arrowDown" x="0" y="0" onmousedown="handlePan(0,1)"/>
  <use id="arrowleft" xlink:href="#arrowLeft" x="0" y="0" onmousedown="handlePan(-1,0)"/>
</g>
<svg viewBox="0 0 15 15" width="100%" height="30px" preserveAspectRatio="xMaxYMin meet">
 <g id="arrow_out" transform="scale(0.3 0.3)">
  <a xlink:href="struct_g_l_e_s_c_1_1_e_c_s_1_1_transform_component__coll__graph_org.svg" target="_base">
   <rect id="button" ry="5" rx="5" y="6" x="6" height="38" width="38"
        fill="#f2f5e9" fill-opacity="0.5" stroke="#606060" stroke-width="1.0"/>
   <path id="arrow"
     d="M 11.500037,31.436501 C 11.940474,20.09759 22.043105,11.32322 32.158766,21.979434 L 37.068811,17.246167 C 37.068811,17.246167 37.088388,32 37.088388,32 L 22.160133,31.978069 C 22.160133,31.978069 26.997745,27.140456 26.997745,27.140456 C 18.528582,18.264221 13.291696,25.230495 11.500037,31.436501 z"
     style="fill:#404040;"/>
  </a>
 </g>
</svg>

<style type='text/css'>
<![CDATA[
[data-mouse-over-selected='false'] { opacity: 0.7; }
[data-mouse-over-selected='true']  { opacity: 1.0; }
]]>
</style>
<script type="application/ecmascript"><![CDATA[
document.addEventListener('DOMContentLoaded', (event) => {
  highlightEdges();
  highlightAdjacentNodes();
});
]]></script>
</svg>
