<?xml version="1.0" encoding="UTF-8" standalone="no"?>
<!DOCTYPE svg PUBLIC "-//W3C//DTD SVG 1.1//EN"
 "http://www.w3.org/Graphics/SVG/1.1/DTD/svg11.dtd">
<!-- Generated by graphviz version 11.0.0 (20240428.1522)
 -->
<!-- Title: is_vector&lt; GLESC::Math::Vector&lt; T, N &gt; &gt; Pages: 1 -->
<svg width="126pt" height="160pt"
 viewBox="0.00 0.00 126.00 160.00" xmlns="http://www.w3.org/2000/svg" xmlns:xlink="http://www.w3.org/1999/xlink">

<svg id="main" version="1.1" xmlns="http://www.w3.org/2000/svg" xmlns:xlink="http://www.w3.org/1999/xlink" xml:space="preserve" onload="init(evt)">
<style type="text/css"><![CDATA[
.node, .edge {opacity: 0.7;}
.node.selected, .edge.selected {opacity: 1;}
.edge:hover path { stroke: red; }
.edge:hover polygon { stroke: red; fill: red; }
]]></style>
<script type="application/ecmascript" xlink:href="svg.min.js"/>
<svg id="graph" class="graph">
<g id="graph0" class="graph" transform="scale(1 1) rotate(0) translate(4 156)">
<title>is_vector&lt; GLESC::Math::Vector&lt; T, N &gt; &gt;</title>
<!-- Node1 -->
<g id="Node000001" class="node">
<title>Node1</title>
<g id="a_Node000001"><a xlink:title="Specialization of the is_vector type trait for the Vector class.">
<polygon fill="#999999" stroke="none" points="118,-64 0,-64 0,0 118,0 118,-64"/>
<text text-anchor="start" x="5" y="-50.5" font-family="Helvetica,sans-Serif" font-size="10.00">is_vector&lt; GLESC::Math</text>
<text text-anchor="start" x="19.25" y="-38.5" font-family="Helvetica,sans-Serif" font-size="10.00">::Vector&lt; T, N &gt; &gt;</text>
<text text-anchor="start" x="57.5" y="-22.5" font-family="Helvetica,sans-Serif" font-size="10.00"> </text>
<text text-anchor="start" x="57.5" y="-6.5" font-family="Helvetica,sans-Serif" font-size="10.00"> </text>
<polygon fill="#666666" stroke="#666666" points="0,-34 0,-34 118,-34 118,-34 0,-34"/>
<polygon fill="#666666" stroke="#666666" points="0,-18 0,-18 118,-18 118,-18 0,-18"/>
<polygon fill="none" stroke="#666666" points="0,0 0,-64 118,-64 118,0 0,0"/>
</a>
</g>
</g>
<!-- Node2 -->
<g id="Node000002" class="node">
<title>Node2</title>
<g id="a_Node000002"><a xlink:title=" ">
<polygon fill="white" stroke="none" points="94,-152 24,-152 24,-100 94,-100 94,-152"/>
<text text-anchor="start" x="29" y="-138.5" font-family="Helvetica,sans-Serif" font-size="10.00">std::true_type</text>
<text text-anchor="start" x="57.5" y="-122.5" font-family="Helvetica,sans-Serif" font-size="10.00"> </text>
<text text-anchor="start" x="57.5" y="-106.5" font-family="Helvetica,sans-Serif" font-size="10.00"> </text>
<polygon fill="#666666" stroke="#666666" points="24,-134 24,-134 94,-134 94,-134 24,-134"/>
<polygon fill="#666666" stroke="#666666" points="24,-118 24,-118 94,-118 94,-118 24,-118"/>
<polygon fill="none" stroke="#666666" points="24,-100 24,-152 94,-152 94,-100 24,-100"/>
</a>
</g>
</g>
<!-- Node2&#45;&gt;Node1 -->
<g id="edge1_Node000001_Node000002" class="edge">
<title>Node2&#45;&gt;Node1</title>
<g id="a_edge1_Node000001_Node000002"><a xlink:title=" ">
<path fill="none" stroke="#63b8ff" d="M59,-89.06C59,-80.78 59,-72.04 59,-63.98"/>
<polygon fill="none" stroke="#63b8ff" points="55.5,-88.83 59,-98.83 62.5,-88.83 55.5,-88.83"/>
</a>
</g>
</g>
</g>
</svg>
</svg>

<style type='text/css'>
<![CDATA[
[data-mouse-over-selected='false'] { opacity: 0.7; }
[data-mouse-over-selected='true']  { opacity: 1.0; }
]]>
</style>
<script type="application/ecmascript"><![CDATA[
document.addEventListener('DOMContentLoaded', (event) => {
  highlightEdges();
  highlightAdjacentNodes();
});
]]></script>
</svg>
