<?xml version="1.0" encoding="UTF-8" standalone="no"?>
<!DOCTYPE svg PUBLIC "-//W3C//DTD SVG 1.1//EN"
 "http://www.w3.org/Graphics/SVG/1.1/DTD/svg11.dtd">
<!-- Generated by graphviz version 11.0.0 (20240428.1522)
 -->
<!-- Title: GLESC::Render::ColorRgb::getRGBVec3FNormalized Pages: 1 -->
<svg width="487pt" height="140pt"
 viewBox="0.00 0.00 486.50 140.00" xmlns="http://www.w3.org/2000/svg" xmlns:xlink="http://www.w3.org/1999/xlink">

<svg id="main" version="1.1" xmlns="http://www.w3.org/2000/svg" xmlns:xlink="http://www.w3.org/1999/xlink" xml:space="preserve" onload="init(evt)">
<style type="text/css"><![CDATA[
.node, .edge {opacity: 0.7;}
.node.selected, .edge.selected {opacity: 1;}
.edge:hover path { stroke: red; }
.edge:hover polygon { stroke: red; fill: red; }
]]></style>
<script type="application/ecmascript" xlink:href="svg.min.js"/>
<svg id="graph" class="graph">
<g id="graph0" class="graph" transform="scale(1 1) rotate(0) translate(4 136)">
<title>GLESC::Render::ColorRgb::getRGBVec3FNormalized</title>
<!-- Node1 -->
<g id="Node000001" class="node">
<title>Node1</title>
<g id="a_Node000001"><a xlink:title=" ">
<polygon fill="#999999" stroke="#666666" points="133.75,-82 0,-82 0,-50 133.75,-50 133.75,-82"/>
<text text-anchor="start" x="8" y="-68.5" font-family="Helvetica,sans-Serif" font-size="10.00">GLESC::Render::ColorRgb</text>
<text text-anchor="middle" x="66.88" y="-56.5" font-family="Helvetica,sans-Serif" font-size="10.00">::getRGBVec3FNormalized</text>
</a>
</g>
</g>
<!-- Node2 -->
<g id="Node000002" class="node">
<title>Node2</title>
<g id="a_Node000002"><a xlink:href="struct_g_l_e_s_c_1_1_render_1_1_color_rgb.html#a674c5aa3d673ec1b4c583f7b3570b421" target="_top" xlink:title=" ">
<polygon fill="white" stroke="#666666" points="301.25,-132 169.75,-132 169.75,-100 301.25,-100 301.25,-132"/>
<text text-anchor="start" x="177.75" y="-118.5" font-family="Helvetica,sans-Serif" font-size="10.00">GLESC::Render::ColorRgb</text>
<text text-anchor="middle" x="235.5" y="-106.5" font-family="Helvetica,sans-Serif" font-size="10.00">::getBNormalized</text>
</a>
</g>
</g>
<!-- Node1&#45;&gt;Node2 -->
<g id="edge1_Node000001_Node000002" class="edge">
<title>Node1&#45;&gt;Node2</title>
<g id="a_edge1_Node000001_Node000002"><a xlink:title=" ">
<path fill="none" stroke="#63b8ff" d="M122.43,-82.37C137.17,-86.8 153.28,-91.63 168.57,-96.22"/>
<polygon fill="#63b8ff" stroke="#63b8ff" points="167.5,-99.55 178.08,-99.07 169.51,-92.84 167.5,-99.55"/>
</a>
</g>
</g>
<!-- Node4 -->
<g id="Node000004" class="node">
<title>Node4</title>
<g id="a_Node000004"><a xlink:href="struct_g_l_e_s_c_1_1_render_1_1_color_rgb.html#a1a34cffe125e0669b6f0f59c55641333" target="_top" xlink:title=" ">
<polygon fill="white" stroke="#666666" points="301.25,-82 169.75,-82 169.75,-50 301.25,-50 301.25,-82"/>
<text text-anchor="start" x="177.75" y="-68.5" font-family="Helvetica,sans-Serif" font-size="10.00">GLESC::Render::ColorRgb</text>
<text text-anchor="middle" x="235.5" y="-56.5" font-family="Helvetica,sans-Serif" font-size="10.00">::getGNormalized</text>
</a>
</g>
</g>
<!-- Node1&#45;&gt;Node4 -->
<g id="edge3_Node000001_Node000004" class="edge">
<title>Node1&#45;&gt;Node4</title>
<g id="a_edge3_Node000001_Node000004"><a xlink:title=" ">
<path fill="none" stroke="#63b8ff" d="M134.21,-66C142.1,-66 150.21,-66 158.23,-66"/>
<polygon fill="#63b8ff" stroke="#63b8ff" points="157.97,-69.5 167.97,-66 157.97,-62.5 157.97,-69.5"/>
</a>
</g>
</g>
<!-- Node5 -->
<g id="Node000005" class="node">
<title>Node5</title>
<g id="a_Node000005"><a xlink:href="struct_g_l_e_s_c_1_1_render_1_1_color_rgb.html#a52dce8aa77d51de1f0e38d8fcfa81ce9" target="_top" xlink:title=" ">
<polygon fill="white" stroke="#666666" points="301.25,-32 169.75,-32 169.75,0 301.25,0 301.25,-32"/>
<text text-anchor="start" x="177.75" y="-18.5" font-family="Helvetica,sans-Serif" font-size="10.00">GLESC::Render::ColorRgb</text>
<text text-anchor="middle" x="235.5" y="-6.5" font-family="Helvetica,sans-Serif" font-size="10.00">::getRNormalized</text>
</a>
</g>
</g>
<!-- Node1&#45;&gt;Node5 -->
<g id="edge5_Node000001_Node000005" class="edge">
<title>Node1&#45;&gt;Node5</title>
<g id="a_edge5_Node000001_Node000005"><a xlink:title=" ">
<path fill="none" stroke="#63b8ff" d="M122.43,-49.63C137.17,-45.2 153.28,-40.37 168.57,-35.78"/>
<polygon fill="#63b8ff" stroke="#63b8ff" points="169.51,-39.16 178.08,-32.93 167.5,-32.45 169.51,-39.16"/>
</a>
</g>
</g>
<!-- Node3 -->
<g id="Node000003" class="node">
<title>Node3</title>
<g id="a_Node000003"><a xlink:href="class_g_l_e_s_c_1_1_render_1_1_color_funcs.html#a4415bd4e262b54a2d95185ffee1c3eef" target="_top" xlink:title="Normalizes a color to be between 0 and 1.">
<polygon fill="white" stroke="#666666" points="478.5,-82 337.25,-82 337.25,-50 478.5,-50 478.5,-82"/>
<text text-anchor="start" x="345.25" y="-68.5" font-family="Helvetica,sans-Serif" font-size="10.00">GLESC::Render::ColorFuncs</text>
<text text-anchor="middle" x="407.88" y="-56.5" font-family="Helvetica,sans-Serif" font-size="10.00">::normalizeColorValue</text>
</a>
</g>
</g>
<!-- Node2&#45;&gt;Node3 -->
<g id="edge2_Node000002_Node000003" class="edge">
<title>Node2&#45;&gt;Node3</title>
<g id="a_edge2_Node000002_Node000003"><a xlink:title=" ">
<path fill="none" stroke="#63b8ff" d="M292.29,-99.63C307.51,-95.16 324.15,-90.28 339.92,-85.65"/>
<polygon fill="#63b8ff" stroke="#63b8ff" points="340.61,-89.09 349.22,-82.92 338.64,-82.38 340.61,-89.09"/>
</a>
</g>
</g>
<!-- Node4&#45;&gt;Node3 -->
<g id="edge4_Node000004_Node000003" class="edge">
<title>Node4&#45;&gt;Node3</title>
<g id="a_edge4_Node000004_Node000003"><a xlink:title=" ">
<path fill="none" stroke="#63b8ff" d="M301.4,-66C309.26,-66 317.37,-66 325.43,-66"/>
<polygon fill="#63b8ff" stroke="#63b8ff" points="325.25,-69.5 335.25,-66 325.25,-62.5 325.25,-69.5"/>
</a>
</g>
</g>
<!-- Node5&#45;&gt;Node3 -->
<g id="edge6_Node000005_Node000003" class="edge">
<title>Node5&#45;&gt;Node3</title>
<g id="a_edge6_Node000005_Node000003"><a xlink:title=" ">
<path fill="none" stroke="#63b8ff" d="M292.29,-32.37C307.51,-36.84 324.15,-41.72 339.92,-46.35"/>
<polygon fill="#63b8ff" stroke="#63b8ff" points="338.64,-49.62 349.22,-49.08 340.61,-42.91 338.64,-49.62"/>
</a>
</g>
</g>
</g>
</svg>
</svg>

<style type='text/css'>
<![CDATA[
[data-mouse-over-selected='false'] { opacity: 0.7; }
[data-mouse-over-selected='true']  { opacity: 1.0; }
]]>
</style>
<script type="application/ecmascript"><![CDATA[
document.addEventListener('DOMContentLoaded', (event) => {
  highlightEdges();
  highlightAdjacentNodes();
});
]]></script>
</svg>
