<?xml version="1.0" encoding="UTF-8" standalone="no"?>
<!DOCTYPE svg PUBLIC "-//W3C//DTD SVG 1.1//EN"
 "http://www.w3.org/Graphics/SVG/1.1/DTD/svg11.dtd">
<!-- Generated by graphviz version 11.0.0 (20240428.1522)
 -->
<!-- Title: GLESC::Transform::Transform::up Pages: 1 -->
<!--zoomable 116 -->

<svg id="main" version="1.1" xmlns="http://www.w3.org/2000/svg" xmlns:xlink="http://www.w3.org/1999/xlink" xml:space="preserve" onload="init(evt)">
<style type="text/css"><![CDATA[
.node, .edge {opacity: 0.7;}
.node.selected, .edge.selected {opacity: 1;}
.edge:hover path { stroke: red; }
.edge:hover polygon { stroke: red; fill: red; }
]]></style>

<defs>
  <circle id="rim" cx="0" cy="0" r="7"/>
  <circle id="rim2" cx="0" cy="0" r="3.5"/>
  <g id="zoomPlus">
    <use xlink:href="#rim" fill="#404040"><set attributeName="fill" to="#808080" begin="zoomplus.mouseover" end="zoomplus.mouseout"/></use>
    <path d="M-4,0h8M0,-4v8" fill="none" stroke="white" stroke-width="1.5" pointer-events="none"/>
  </g>
  <g id="zoomMin">
    <use xlink:href="#rim" fill="#404040"><set attributeName="fill" to="#808080" begin="zoomminus.mouseover" end="zoomminus.mouseout"/></use>
    <path d="M-4,0h8" fill="none" stroke="white" stroke-width="1.5" pointer-events="none"/>
  </g>
  <g id="arrowUp" transform="translate(30 24)">
    <use xlink:href="#rim"/>
    <path pointer-events="none" fill="none" stroke="white" stroke-width="1.5" d="M0,-3.0v7 M-2.5,-0.5L0,-3.0L2.5,-0.5"/>
  </g>
  <g id="arrowRight" transform="rotate(90) translate(36 -43)">
    <use xlink:href="#rim"/>
    <path pointer-events="none" fill="none" stroke="white" stroke-width="1.5" d="M0,-3.0v7 M-2.5,-0.5L0,-3.0L2.5,-0.5"/>
  </g>
  <g id="arrowDown" transform="rotate(180) translate(-30 -48)">
    <use xlink:href="#rim"/>
    <path pointer-events="none" fill="none" stroke="white" stroke-width="1.5" d="M0,-3.0v7 M-2.5,-0.5L0,-3.0L2.5,-0.5"/>
  </g>
  <g id="arrowLeft" transform="rotate(270) translate(-36 17)">
    <use xlink:href="#rim"/>
    <path pointer-events="none" fill="none" stroke="white" stroke-width="1.5" d="M0,-3.0v7 M-2.5,-0.5L0,-3.0L2.5,-0.5"/>
  </g>
  <g id="resetDef">
    <use xlink:href="#rim2" fill="#404040"><set attributeName="fill" to="#808080" begin="reset.mouseover" end="reset.mouseout"/></use>
  </g>
</defs>
<script type="application/ecmascript">
var viewWidth = 848;
var viewHeight = 116;
var sectionId = 'dynsection-38';
</script>
<script type="application/ecmascript" xlink:href="svg.min.js"/>
<svg id="graph" class="graph">
<g id="viewport">
<title>GLESC::Transform::Transform::up</title>
<!-- Node1 -->
<g id="Node000001" class="node">
<title>Node1</title>
<g id="a_Node000001"><a xlink:title="Calculates the up vector using the rotation.">
<polygon fill="#999999" stroke="#666666" points="163,-51 0,-51 0,-31 163,-31 163,-51"/>
<text text-anchor="middle" x="81.5" y="-37.5" font-family="Helvetica,sans-Serif" font-size="10.00">GLESC::Transform::Transform::up</text>
</a>
</g>
</g>
<!-- Node2 -->
<g id="Node000002" class="node">
<title>Node2</title>
<g id="a_Node000002"><a xlink:href="struct_g_l_e_s_c_1_1_transform_1_1_transform.html#a39474140c356e7fa09891e1c3d307578" target="_top" xlink:title="Calculates the up vector using the rotation.">
<polygon fill="white" stroke="#666666" points="345.5,-57 199,-57 199,-25 345.5,-25 345.5,-57"/>
<text text-anchor="start" x="207" y="-43.5" font-family="Helvetica,sans-Serif" font-size="10.00">GLESC::Transform::Transform</text>
<text text-anchor="middle" x="272.25" y="-31.5" font-family="Helvetica,sans-Serif" font-size="10.00">::calculateUp</text>
</a>
</g>
</g>
<!-- Node1&#45;&gt;Node2 -->
<g id="edge1_Node000001_Node000002" class="edge">
<title>Node1&#45;&gt;Node2</title>
<g id="a_edge1_Node000001_Node000002"><a xlink:title=" ">
<path fill="none" stroke="#63b8ff" d="M163.37,-41C171.23,-41 179.23,-41 187.12,-41"/>
<polygon fill="#63b8ff" stroke="#63b8ff" points="187.08,-44.5 197.08,-41 187.08,-37.5 187.08,-44.5"/>
</a>
</g>
</g>
<!-- Node3 -->
<g id="Node000003" class="node">
<title>Node3</title>
<g id="a_Node000003"><a xlink:href="class_g_l_e_s_c_1_1_math_1_1_vector.html#a8aa2609d6e4eeabe42198d55d9c0877a" target="_top" xlink:title="Returns the up vector of a rotation.">
<polygon fill="white" stroke="#666666" points="492.75,-82 381.5,-82 381.5,-50 492.75,-50 492.75,-82"/>
<text text-anchor="start" x="389.5" y="-68.5" font-family="Helvetica,sans-Serif" font-size="10.00">GLESC::Math::Vector</text>
<text text-anchor="middle" x="437.12" y="-56.5" font-family="Helvetica,sans-Serif" font-size="10.00">::makeUp</text>
</a>
</g>
</g>
<!-- Node2&#45;&gt;Node3 -->
<g id="edge2_Node000002_Node000003" class="edge">
<title>Node2&#45;&gt;Node3</title>
<g id="a_edge2_Node000002_Node000003"><a xlink:title=" ">
<path fill="none" stroke="#63b8ff" d="M345.64,-52.11C353.72,-53.35 361.93,-54.61 369.93,-55.84"/>
<polygon fill="#63b8ff" stroke="#63b8ff" points="369.16,-59.26 379.58,-57.32 370.22,-52.34 369.16,-59.26"/>
</a>
</g>
</g>
<!-- Node7 -->
<g id="Node000007" class="node">
<title>Node7</title>
<g id="a_Node000007"><a xlink:href="class_g_l_e_s_c_1_1_math_1_1_vector.html#a058dd167ea8c84edda5fdeccdeebd5d5" target="_top" xlink:title="Converts the vector to radians.">
<polygon fill="white" stroke="#666666" points="492.75,-32 381.5,-32 381.5,0 492.75,0 492.75,-32"/>
<text text-anchor="start" x="389.5" y="-18.5" font-family="Helvetica,sans-Serif" font-size="10.00">GLESC::Math::Vector</text>
<text text-anchor="middle" x="437.12" y="-6.5" font-family="Helvetica,sans-Serif" font-size="10.00">::toRads</text>
</a>
</g>
</g>
<!-- Node2&#45;&gt;Node7 -->
<g id="edge6_Node000002_Node000007" class="edge">
<title>Node2&#45;&gt;Node7</title>
<g id="a_edge6_Node000002_Node000007"><a xlink:title=" ">
<path fill="none" stroke="#63b8ff" d="M345.64,-29.89C353.72,-28.65 361.93,-27.39 369.93,-26.16"/>
<polygon fill="#63b8ff" stroke="#63b8ff" points="370.22,-29.66 379.58,-24.68 369.16,-22.74 370.22,-29.66"/>
</a>
</g>
</g>
<!-- Node4 -->
<g id="Node000004" class="node">
<title>Node4</title>
<g id="a_Node000004"><a xlink:href="class_g_l_e_s_c_1_1_math_1_1_vector_algorithms.html#a94dd9f9cd9cf9d66f5de30dc7c2cc422" target="_top" xlink:title="Makes an up vector from rotation angles.">
<polygon fill="white" stroke="#666666" points="686.5,-82 528.75,-82 528.75,-50 686.5,-50 686.5,-82"/>
<text text-anchor="start" x="536.75" y="-68.5" font-family="Helvetica,sans-Serif" font-size="10.00">GLESC::Math::VectorAlgorithms</text>
<text text-anchor="middle" x="607.62" y="-56.5" font-family="Helvetica,sans-Serif" font-size="10.00">::makeUpVector</text>
</a>
</g>
</g>
<!-- Node3&#45;&gt;Node4 -->
<g id="edge3_Node000003_Node000004" class="edge">
<title>Node3&#45;&gt;Node4</title>
<g id="a_edge3_Node000003_Node000004"><a xlink:title=" ">
<path fill="none" stroke="#63b8ff" d="M492.83,-66C500.63,-66 508.81,-66 517.06,-66"/>
<polygon fill="#63b8ff" stroke="#63b8ff" points="516.81,-69.5 526.81,-66 516.81,-62.5 516.81,-69.5"/>
</a>
</g>
</g>
<!-- Node5 -->
<g id="Node000005" class="node">
<title>Node5</title>
<g id="a_Node000005"><a xlink:href="namespace_g_l_e_s_c_1_1_math.html#ac72fdbfd43b6a5770385dbfd805b687b" target="_top" xlink:title="Calculates the cosine of a value.">
<polygon fill="white" stroke="#666666" points="830.38,-108 731.88,-108 731.88,-88 830.38,-88 830.38,-108"/>
<text text-anchor="middle" x="781.12" y="-94.5" font-family="Helvetica,sans-Serif" font-size="10.00">GLESC::Math::cos</text>
</a>
</g>
</g>
<!-- Node4&#45;&gt;Node5 -->
<g id="edge4_Node000004_Node000005" class="edge">
<title>Node4&#45;&gt;Node5</title>
<g id="a_edge4_Node000004_Node000005"><a xlink:title=" ">
<path fill="none" stroke="#63b8ff" d="M686.85,-80.6C698.12,-82.7 709.58,-84.84 720.42,-86.86"/>
<polygon fill="#63b8ff" stroke="#63b8ff" points="719.5,-90.25 729.97,-88.64 720.78,-83.37 719.5,-90.25"/>
</a>
</g>
</g>
<!-- Node6 -->
<g id="Node000006" class="node">
<title>Node6</title>
<g id="a_Node000006"><a xlink:href="namespace_g_l_e_s_c_1_1_math.html#aa21a1aeaaa25e280f941221e165dffa4" target="_top" xlink:title="Calculates the sine of a value.">
<polygon fill="white" stroke="#666666" points="828.88,-70 733.38,-70 733.38,-50 828.88,-50 828.88,-70"/>
<text text-anchor="middle" x="781.12" y="-56.5" font-family="Helvetica,sans-Serif" font-size="10.00">GLESC::Math::sin</text>
</a>
</g>
</g>
<!-- Node4&#45;&gt;Node6 -->
<g id="edge5_Node000004_Node000006" class="edge">
<title>Node4&#45;&gt;Node6</title>
<g id="a_edge5_Node000004_Node000006"><a xlink:title=" ">
<path fill="none" stroke="#63b8ff" d="M686.85,-63.26C698.52,-62.86 710.38,-62.44 721.55,-62.05"/>
<polygon fill="#63b8ff" stroke="#63b8ff" points="721.52,-65.55 731.39,-61.7 721.28,-58.56 721.52,-65.55"/>
</a>
</g>
</g>
<!-- Node8 -->
<g id="Node000008" class="node">
<title>Node8</title>
<g id="a_Node000008"><a xlink:href="namespace_g_l_e_s_c_1_1_math.html#a980ed967f85bef4bb539c9701701a877" target="_top" xlink:title="Converts degrees to radians.">
<polygon fill="white" stroke="#666666" points="664.75,-26 550.5,-26 550.5,-6 664.75,-6 664.75,-26"/>
<text text-anchor="middle" x="607.62" y="-12.5" font-family="Helvetica,sans-Serif" font-size="10.00">GLESC::Math::radians</text>
</a>
</g>
</g>
<!-- Node7&#45;&gt;Node8 -->
<g id="edge7_Node000007_Node000008" class="edge">
<title>Node7&#45;&gt;Node8</title>
<g id="a_edge7_Node000007_Node000008"><a xlink:title=" ">
<path fill="none" stroke="#63b8ff" d="M492.83,-16C507.46,-16 523.44,-16 538.69,-16"/>
<polygon fill="#63b8ff" stroke="#63b8ff" points="538.65,-19.5 548.65,-16 538.65,-12.5 538.65,-19.5"/>
</a>
</g>
</g>
<!-- Node9 -->
<g id="Node000009" class="node">
<title>Node9</title>
<g id="a_Node000009"><a xlink:href="namespace_g_l_e_s_c_1_1_math.html#a69598a72ef2c06e1caba0ea9613d65e6" target="_top" xlink:title="Converts radians to degrees.">
<polygon fill="white" stroke="#666666" points="839.75,-26 722.5,-26 722.5,-6 839.75,-6 839.75,-26"/>
<text text-anchor="middle" x="781.12" y="-12.5" font-family="Helvetica,sans-Serif" font-size="10.00">GLESC::Math::degrees</text>
</a>
</g>
</g>
<!-- Node8&#45;&gt;Node9 -->
<g id="edge8_Node000008_Node000009" class="edge">
<title>Node8&#45;&gt;Node9</title>
<g id="a_edge8_Node000008_Node000009"><a xlink:title=" ">
<path fill="none" stroke="#63b8ff" d="M664.78,-9.62C679.42,-9.24 695.36,-9.15 710.6,-9.36"/>
<polygon fill="#63b8ff" stroke="#63b8ff" points="710.5,-12.86 720.56,-9.55 710.63,-5.86 710.5,-12.86"/>
</a>
</g>
</g>
<!-- Node9&#45;&gt;Node8 -->
<g id="edge9_Node000009_Node000008" class="edge">
<title>Node9&#45;&gt;Node8</title>
<g id="a_edge9_Node000009_Node000008"><a xlink:title=" ">
<path fill="none" stroke="#63b8ff" d="M722.08,-22.43C707.33,-22.78 691.37,-22.84 676.19,-22.61"/>
<polygon fill="#63b8ff" stroke="#63b8ff" points="676.36,-19.12 666.29,-22.41 676.22,-26.11 676.36,-19.12"/>
</a>
</g>
</g>
</g>
</svg>

<g id="navigator" transform="translate(0 0)" fill="#404254">
  <rect fill="#f2f5e9" fill-opacity="0.5" stroke="#606060" stroke-width=".5" x="0" y="0" width="60" height="60"/>
  <use id="zoomplus" xlink:href="#zoomPlus" x="17" y="9" onmousedown="handleZoom(evt,'in')"/>
  <use id="zoomminus" xlink:href="#zoomMin" x="42" y="9" onmousedown="handleZoom(evt,'out')"/>
  <use id="reset" xlink:href="#resetDef" x="30" y="36" onmousedown="handleReset()"/>
   <use id="arrowup" xlink:href="#arrowUp" x="0" y="0" onmousedown="handlePan(0,-1)"/>
  <use id="arrowright" xlink:href="#arrowRight" x="0" y="0" onmousedown="handlePan(1,0)"/>
  <use id="arrowdown" xlink:href="#arrowDown" x="0" y="0" onmousedown="handlePan(0,1)"/>
  <use id="arrowleft" xlink:href="#arrowLeft" x="0" y="0" onmousedown="handlePan(-1,0)"/>
</g>
<svg viewBox="0 0 15 15" width="100%" height="30px" preserveAspectRatio="xMaxYMin meet">
 <g id="arrow_out" transform="scale(0.3 0.3)">
  <a xlink:href="struct_g_l_e_s_c_1_1_transform_1_1_transform_a6d0f9441feeb9ac52b51f59be0e7b121_cgraph_org.svg" target="_base">
   <rect id="button" ry="5" rx="5" y="6" x="6" height="38" width="38"
        fill="#f2f5e9" fill-opacity="0.5" stroke="#606060" stroke-width="1.0"/>
   <path id="arrow"
     d="M 11.500037,31.436501 C 11.940474,20.09759 22.043105,11.32322 32.158766,21.979434 L 37.068811,17.246167 C 37.068811,17.246167 37.088388,32 37.088388,32 L 22.160133,31.978069 C 22.160133,31.978069 26.997745,27.140456 26.997745,27.140456 C 18.528582,18.264221 13.291696,25.230495 11.500037,31.436501 z"
     style="fill:#404040;"/>
  </a>
 </g>
</svg>

<style type='text/css'>
<![CDATA[
[data-mouse-over-selected='false'] { opacity: 0.7; }
[data-mouse-over-selected='true']  { opacity: 1.0; }
]]>
</style>
<script type="application/ecmascript"><![CDATA[
document.addEventListener('DOMContentLoaded', (event) => {
  highlightEdges();
  highlightAdjacentNodes();
});
]]></script>
</svg>
