<?xml version="1.0" encoding="UTF-8" standalone="no"?>
<!DOCTYPE svg PUBLIC "-//W3C//DTD SVG 1.1//EN"
 "http://www.w3.org/Graphics/SVG/1.1/DTD/svg11.dtd">
<!-- Generated by graphviz version 11.0.0 (20240428.1522)
 -->
<!-- Title: GLESC::Render::ColorRgba Pages: 1 -->
<svg width="138pt" height="468pt"
 viewBox="0.00 0.00 138.00 468.00" xmlns="http://www.w3.org/2000/svg" xmlns:xlink="http://www.w3.org/1999/xlink">
<g id="graph0" class="graph" transform="scale(1 1) rotate(0) translate(4 464)">
<title>GLESC::Render::ColorRgba</title>
<!-- Node1 -->
<g id="Node000001" class="node">
<title>Node1</title>
<g id="a_Node000001"><a xlink:title="Color in RGBA values (x = [0] = R, y = [1] = G, z = [2] = B, w = [3] = A)">
<polygon fill="#999999" stroke="none" points="130,-212 0,-212 0,0 130,0 130,-212"/>
<text text-anchor="start" x="4.62" y="-198.5" font-family="Helvetica,sans-Serif" font-size="10.00">GLESC::Render::ColorRgba</text>
<text text-anchor="start" x="63.5" y="-182.5" font-family="Helvetica,sans-Serif" font-size="10.00"> </text>
<text text-anchor="start" x="13" y="-166.5" font-family="Helvetica,sans-Serif" font-size="10.00">+</text>
<text text-anchor="start" x="32" y="-166.5" font-family="Helvetica,sans-Serif" font-size="10.00">ColorRgba()</text>
<text text-anchor="start" x="13" y="-150.5" font-family="Helvetica,sans-Serif" font-size="10.00">+</text>
<text text-anchor="start" x="32" y="-150.5" font-family="Helvetica,sans-Serif" font-size="10.00">ColorRgba()</text>
<text text-anchor="start" x="13" y="-134.5" font-family="Helvetica,sans-Serif" font-size="10.00">+</text>
<text text-anchor="start" x="32" y="-134.5" font-family="Helvetica,sans-Serif" font-size="10.00">ColorRgba()</text>
<text text-anchor="start" x="13" y="-118.5" font-family="Helvetica,sans-Serif" font-size="10.00">+</text>
<text text-anchor="start" x="32" y="-118.5" font-family="Helvetica,sans-Serif" font-size="10.00">ColorRgba()</text>
<text text-anchor="start" x="13" y="-102.5" font-family="Helvetica,sans-Serif" font-size="10.00">+</text>
<text text-anchor="start" x="32" y="-102.5" font-family="Helvetica,sans-Serif" font-size="10.00">ColorRgba()</text>
<text text-anchor="start" x="13" y="-86.5" font-family="Helvetica,sans-Serif" font-size="10.00">+</text>
<text text-anchor="start" x="32" y="-86.5" font-family="Helvetica,sans-Serif" font-size="10.00">ColorRgba()</text>
<text text-anchor="start" x="13" y="-70.5" font-family="Helvetica,sans-Serif" font-size="10.00">+</text>
<text text-anchor="start" x="32" y="-70.5" font-family="Helvetica,sans-Serif" font-size="10.00">~ColorRgba()</text>
<text text-anchor="start" x="13" y="-54.5" font-family="Helvetica,sans-Serif" font-size="10.00">+</text>
<text text-anchor="start" x="32" y="-54.5" font-family="Helvetica,sans-Serif" font-size="10.00">getA()</text>
<text text-anchor="start" x="13" y="-38.5" font-family="Helvetica,sans-Serif" font-size="10.00">+</text>
<text text-anchor="start" x="32" y="-38.5" font-family="Helvetica,sans-Serif" font-size="10.00">getAModifiable()</text>
<text text-anchor="start" x="13" y="-22.5" font-family="Helvetica,sans-Serif" font-size="10.00">+</text>
<text text-anchor="start" x="32" y="-22.5" font-family="Helvetica,sans-Serif" font-size="10.00">getANormalized()</text>
<text text-anchor="start" x="32" y="-6.5" font-family="Helvetica,sans-Serif" font-size="10.00">and 17 more...</text>
<polygon fill="#666666" stroke="#666666" points="0,-194 0,-194 130,-194 130,-194 0,-194"/>
<polygon fill="#666666" stroke="#666666" points="0,-178 0,-178 130,-178 130,-178 0,-178"/>
<polygon fill="none" stroke="#666666" points="0,0 0,-212 130,-212 130,0 0,0"/>
</a>
</g>
</g>
<!-- Node2 -->
<g id="Node000002" class="node">
<title>Node2</title>
<g id="a_Node000002"><a xlink:href="class_g_l_e_s_c_1_1_math_1_1_vector.html" target="_top" xlink:title=" ">
<polygon fill="white" stroke="none" points="105.5,-460 24.5,-460 24.5,-248 105.5,-248 105.5,-460"/>
<text text-anchor="start" x="50.75" y="-446.5" font-family="Helvetica,sans-Serif" font-size="10.00">Vec4F</text>
<text text-anchor="start" x="28.5" y="-430.5" font-family="Helvetica,sans-Serif" font-size="10.00">+</text>
<text text-anchor="start" x="38.5" y="-430.5" font-family="Helvetica,sans-Serif" font-size="10.00">data</text>
<text text-anchor="start" x="28.5" y="-414.5" font-family="Helvetica,sans-Serif" font-size="10.00">+</text>
<text text-anchor="start" x="38.5" y="-414.5" font-family="Helvetica,sans-Serif" font-size="10.00">Vector()</text>
<text text-anchor="start" x="28.5" y="-398.5" font-family="Helvetica,sans-Serif" font-size="10.00">+</text>
<text text-anchor="start" x="38.5" y="-398.5" font-family="Helvetica,sans-Serif" font-size="10.00">Vector()</text>
<text text-anchor="start" x="28.5" y="-382.5" font-family="Helvetica,sans-Serif" font-size="10.00">+</text>
<text text-anchor="start" x="38.5" y="-382.5" font-family="Helvetica,sans-Serif" font-size="10.00">Vector()</text>
<text text-anchor="start" x="28.5" y="-366.5" font-family="Helvetica,sans-Serif" font-size="10.00">+</text>
<text text-anchor="start" x="38.5" y="-366.5" font-family="Helvetica,sans-Serif" font-size="10.00">Vector()</text>
<text text-anchor="start" x="28.5" y="-350.5" font-family="Helvetica,sans-Serif" font-size="10.00">+</text>
<text text-anchor="start" x="38.5" y="-350.5" font-family="Helvetica,sans-Serif" font-size="10.00">Vector()</text>
<text text-anchor="start" x="28.5" y="-334.5" font-family="Helvetica,sans-Serif" font-size="10.00">+</text>
<text text-anchor="start" x="38.5" y="-334.5" font-family="Helvetica,sans-Serif" font-size="10.00">Vector()</text>
<text text-anchor="start" x="28.5" y="-318.5" font-family="Helvetica,sans-Serif" font-size="10.00">+</text>
<text text-anchor="start" x="38.5" y="-318.5" font-family="Helvetica,sans-Serif" font-size="10.00">Vector()</text>
<text text-anchor="start" x="28.5" y="-302.5" font-family="Helvetica,sans-Serif" font-size="10.00">+</text>
<text text-anchor="start" x="38.5" y="-302.5" font-family="Helvetica,sans-Serif" font-size="10.00">Vector()</text>
<text text-anchor="start" x="28.5" y="-286.5" font-family="Helvetica,sans-Serif" font-size="10.00">+</text>
<text text-anchor="start" x="38.5" y="-286.5" font-family="Helvetica,sans-Serif" font-size="10.00">Vector()</text>
<text text-anchor="start" x="28.5" y="-270.5" font-family="Helvetica,sans-Serif" font-size="10.00">+</text>
<text text-anchor="start" x="38.5" y="-270.5" font-family="Helvetica,sans-Serif" font-size="10.00">Vector()</text>
<text text-anchor="start" x="38.5" y="-254.5" font-family="Helvetica,sans-Serif" font-size="10.00">and 90 more...</text>
<polygon fill="#666666" stroke="#666666" points="24.5,-442 24.5,-442 105.5,-442 105.5,-442 24.5,-442"/>
<polygon fill="#666666" stroke="#666666" points="24.5,-426 24.5,-426 36.5,-426 36.5,-426 24.5,-426"/>
<polygon fill="#666666" stroke="#666666" points="36.5,-426 36.5,-426 105.5,-426 105.5,-426 36.5,-426"/>
<polygon fill="none" stroke="#666666" points="24.5,-248 24.5,-460 105.5,-460 105.5,-248 24.5,-248"/>
</a>
</g>
</g>
<!-- Node2&#45;&gt;Node1 -->
<g id="edge1_Node000001_Node000002" class="edge">
<title>Node2&#45;&gt;Node1</title>
<g id="a_edge1_Node000001_Node000002"><a xlink:title=" ">
<path fill="none" stroke="#63b8ff" d="M65,-236.98C65,-228.64 65,-220.26 65,-211.98"/>
<polygon fill="none" stroke="#63b8ff" points="61.5,-236.8 65,-246.8 68.5,-236.8 61.5,-236.8"/>
</a>
</g>
</g>
</g>
</svg>
