<?xml version="1.0" encoding="UTF-8" standalone="no"?>
<!DOCTYPE svg PUBLIC "-//W3C//DTD SVG 1.1//EN"
 "http://www.w3.org/Graphics/SVG/1.1/DTD/svg11.dtd">
<!-- Generated by graphviz version 11.0.0 (20240428.1522)
 -->
<!-- Title: GLESC::ECS::CameraComponent Pages: 1 -->
<svg width="166pt" height="308pt"
 viewBox="0.00 0.00 166.00 308.00" xmlns="http://www.w3.org/2000/svg" xmlns:xlink="http://www.w3.org/1999/xlink">
<g id="graph0" class="graph" transform="scale(1 1) rotate(0) translate(4 304)">
<title>GLESC::ECS::CameraComponent</title>
<!-- Node1 -->
<g id="Node000001" class="node">
<title>Node1</title>
<g id="a_Node000001"><a xlink:title=" ">
<polygon fill="#999999" stroke="none" points="158,-100 0,-100 0,0 158,0 158,-100"/>
<text text-anchor="start" x="4.75" y="-86.5" font-family="Helvetica,sans-Serif" font-size="10.00">GLESC::ECS::CameraComponent</text>
<text text-anchor="start" x="15" y="-70.5" font-family="Helvetica,sans-Serif" font-size="10.00">+</text>
<text text-anchor="start" x="36" y="-70.5" font-family="Helvetica,sans-Serif" font-size="10.00">perspective</text>
<text text-anchor="start" x="15" y="-54.5" font-family="Helvetica,sans-Serif" font-size="10.00">+</text>
<text text-anchor="start" x="36" y="-54.5" font-family="Helvetica,sans-Serif" font-size="10.00">CameraComponent()</text>
<text text-anchor="start" x="15" y="-38.5" font-family="Helvetica,sans-Serif" font-size="10.00">+</text>
<text text-anchor="start" x="36" y="-38.5" font-family="Helvetica,sans-Serif" font-size="10.00">getName()</text>
<text text-anchor="start" x="15" y="-22.5" font-family="Helvetica,sans-Serif" font-size="10.00">+</text>
<text text-anchor="start" x="36" y="-22.5" font-family="Helvetica,sans-Serif" font-size="10.00">setDebuggingValues()</text>
<text text-anchor="start" x="15" y="-6.5" font-family="Helvetica,sans-Serif" font-size="10.00">+</text>
<text text-anchor="start" x="36" y="-6.5" font-family="Helvetica,sans-Serif" font-size="10.00">toString()</text>
<polygon fill="#666666" stroke="#666666" points="0,-82 0,-82 158,-82 158,-82 0,-82"/>
<polygon fill="#666666" stroke="#666666" points="0,-66 0,-66 34,-66 34,-66 0,-66"/>
<polygon fill="#666666" stroke="#666666" points="34,-66 34,-66 158,-66 158,-66 34,-66"/>
<polygon fill="none" stroke="#666666" points="0,0 0,-100 158,-100 158,0 0,0"/>
</a>
</g>
</g>
<!-- Node2 -->
<g id="Node000002" class="node">
<title>Node2</title>
<g id="a_Node000002"><a xlink:href="struct_g_l_e_s_c_1_1_e_c_s_1_1_i_component.html" target="_top" xlink:title="Base class for all components.">
<polygon fill="white" stroke="none" points="153.5,-300 4.5,-300 4.5,-136 153.5,-136 153.5,-300"/>
<text text-anchor="start" x="20.5" y="-286.5" font-family="Helvetica,sans-Serif" font-size="10.00">GLESC::ECS::IComponent</text>
<text text-anchor="start" x="8.88" y="-270.5" font-family="Helvetica,sans-Serif" font-size="10.00">#</text>
<text text-anchor="start" x="18.5" y="-270.5" font-family="Helvetica,sans-Serif" font-size="10.00">updatedValues</text>
<text text-anchor="start" x="8.88" y="-254.5" font-family="Helvetica,sans-Serif" font-size="10.00">#</text>
<text text-anchor="start" x="18.5" y="-254.5" font-family="Helvetica,sans-Serif" font-size="10.00">values</text>
<text text-anchor="start" x="8.5" y="-238.5" font-family="Helvetica,sans-Serif" font-size="10.00">+</text>
<text text-anchor="start" x="18.5" y="-238.5" font-family="Helvetica,sans-Serif" font-size="10.00">~IComponent()</text>
<text text-anchor="start" x="8.5" y="-222.5" font-family="Helvetica,sans-Serif" font-size="10.00">+</text>
<text text-anchor="start" x="18.5" y="-222.5" font-family="Helvetica,sans-Serif" font-size="10.00">getDebuggingValues()</text>
<text text-anchor="start" x="8.5" y="-206.5" font-family="Helvetica,sans-Serif" font-size="10.00">+</text>
<text text-anchor="start" x="18.5" y="-206.5" font-family="Helvetica,sans-Serif" font-size="10.00">getName()</text>
<text text-anchor="start" x="8.5" y="-190.5" font-family="Helvetica,sans-Serif" font-size="10.00">+</text>
<text text-anchor="start" x="18.5" y="-190.5" font-family="Helvetica,sans-Serif" font-size="10.00">getUpdatedDebuggingValues()</text>
<text text-anchor="start" x="8.5" y="-174.5" font-family="Helvetica,sans-Serif" font-size="10.00">+</text>
<text text-anchor="start" x="18.5" y="-174.5" font-family="Helvetica,sans-Serif" font-size="10.00">toString()</text>
<text text-anchor="start" x="8.88" y="-158.5" font-family="Helvetica,sans-Serif" font-size="10.00">#</text>
<text text-anchor="start" x="18.5" y="-158.5" font-family="Helvetica,sans-Serif" font-size="10.00">setDebuggingValues()</text>
<text text-anchor="start" x="8.88" y="-142.5" font-family="Helvetica,sans-Serif" font-size="10.00">#</text>
<text text-anchor="start" x="18.5" y="-142.5" font-family="Helvetica,sans-Serif" font-size="10.00">setUpdatedDebuggingValues()</text>
<polygon fill="#666666" stroke="#666666" points="4.5,-282 4.5,-282 153.5,-282 153.5,-282 4.5,-282"/>
<polygon fill="#666666" stroke="#666666" points="4.5,-250 4.5,-250 16.5,-250 16.5,-250 4.5,-250"/>
<polygon fill="#666666" stroke="#666666" points="16.5,-250 16.5,-250 153.5,-250 153.5,-250 16.5,-250"/>
<polygon fill="none" stroke="#666666" points="4.5,-136 4.5,-300 153.5,-300 153.5,-136 4.5,-136"/>
</a>
</g>
</g>
<!-- Node2&#45;&gt;Node1 -->
<g id="edge1_Node000001_Node000002" class="edge">
<title>Node2&#45;&gt;Node1</title>
<g id="a_edge1_Node000001_Node000002"><a xlink:title=" ">
<path fill="none" stroke="#63b8ff" d="M79,-124.97C79,-116.28 79,-107.72 79,-99.69"/>
<polygon fill="none" stroke="#63b8ff" points="75.5,-124.92 79,-134.92 82.5,-124.92 75.5,-124.92"/>
</a>
</g>
</g>
</g>
</svg>
