<?xml version="1.0" encoding="UTF-8" standalone="no"?>
<!DOCTYPE svg PUBLIC "-//W3C//DTD SVG 1.1//EN"
 "http://www.w3.org/Graphics/SVG/1.1/DTD/svg11.dtd">
<!-- Generated by graphviz version 11.0.0 (20240428.1522)
 -->
<!-- Title: EntityStatsManager::EntityData Pages: 1 -->
<svg width="339pt" height="868pt"
 viewBox="0.00 0.00 339.00 868.00" xmlns="http://www.w3.org/2000/svg" xmlns:xlink="http://www.w3.org/1999/xlink">
<g id="graph0" class="graph" transform="scale(1 1) rotate(0) translate(4 864)">
<title>EntityStatsManager::EntityData</title>
<!-- Node1 -->
<g id="Node000001" class="node">
<title>Node1</title>
<g id="a_Node000001"><a xlink:title=" ">
<polygon fill="#999999" stroke="none" points="280,-64 184,-64 184,0 280,0 280,-64"/>
<text text-anchor="start" x="188.88" y="-50.5" font-family="Helvetica,sans-Serif" font-size="10.00">EntityStatsManager</text>
<text text-anchor="start" x="206.12" y="-38.5" font-family="Helvetica,sans-Serif" font-size="10.00">::EntityData</text>
<text text-anchor="start" x="230.5" y="-22.5" font-family="Helvetica,sans-Serif" font-size="10.00"> </text>
<text text-anchor="start" x="230.5" y="-6.5" font-family="Helvetica,sans-Serif" font-size="10.00"> </text>
<polygon fill="#666666" stroke="#666666" points="184,-34 184,-34 280,-34 280,-34 184,-34"/>
<polygon fill="#666666" stroke="#666666" points="184,-18 184,-18 280,-18 280,-18 184,-18"/>
<polygon fill="none" stroke="#666666" points="184,0 184,-64 280,-64 280,0 184,0"/>
</a>
</g>
</g>
<!-- Node2 -->
<g id="Node000002" class="node">
<title>Node2</title>
<g id="a_Node000002"><a xlink:title=" ">
<polygon fill="white" stroke="none" points="276.5,-760 223.5,-760 223.5,-708 276.5,-708 276.5,-760"/>
<text text-anchor="start" x="228.25" y="-746.5" font-family="Helvetica,sans-Serif" font-size="10.00">std::string</text>
<text text-anchor="start" x="248.5" y="-730.5" font-family="Helvetica,sans-Serif" font-size="10.00"> </text>
<text text-anchor="start" x="248.5" y="-714.5" font-family="Helvetica,sans-Serif" font-size="10.00"> </text>
<polygon fill="#666666" stroke="#666666" points="223.5,-742 223.5,-742 276.5,-742 276.5,-742 223.5,-742"/>
<polygon fill="#666666" stroke="#666666" points="223.5,-726 223.5,-726 276.5,-726 276.5,-726 223.5,-726"/>
<polygon fill="none" stroke="#666666" points="223.5,-708 223.5,-760 276.5,-760 276.5,-708 223.5,-708"/>
</a>
</g>
</g>
<!-- Node2&#45;&gt;Node1 -->
<g id="edge1_Node000001_Node000002" class="edge">
<title>Node2&#45;&gt;Node1</title>
<g id="a_edge1_Node000001_Node000002"><a xlink:title=" ">
<path fill="none" stroke="#63b8ff" d="M261.5,-708.25C275.7,-675.36 298,-615.1 298,-561 298,-561 298,-561 298,-143 298,-117.82 285.13,-93.43 270.75,-74.03"/>
<polygon fill="none" stroke="#63b8ff" points="270.67,-73.93 263.81,-71.7 263.24,-64.51 270.1,-66.74 270.67,-73.93"/>
</a>
</g>
<text text-anchor="middle" x="314.5" y="-314.5" font-family="Helvetica,sans-Serif" font-size="10.00" fill="grey"> +name</text>
</g>
<!-- Node5 -->
<g id="Node000005" class="node">
<title>Node5</title>
<g id="a_Node000005"><a xlink:href="class_entity_stats_manager.html#struct_entity_stats_manager_1_1_component_data" target="_top" xlink:title=" ">
<polygon fill="white" stroke="none" points="235.5,-288 138.5,-288 138.5,-224 235.5,-224 235.5,-288"/>
<text text-anchor="start" x="143.88" y="-274.5" font-family="Helvetica,sans-Serif" font-size="10.00">EntityStatsManager</text>
<text text-anchor="start" x="149.12" y="-262.5" font-family="Helvetica,sans-Serif" font-size="10.00">::ComponentData</text>
<text text-anchor="start" x="142.5" y="-246.5" font-family="Helvetica,sans-Serif" font-size="10.00">+</text>
<text text-anchor="start" x="152.5" y="-246.5" font-family="Helvetica,sans-Serif" font-size="10.00">getUpdatedValues</text>
<text text-anchor="start" x="185.5" y="-230.5" font-family="Helvetica,sans-Serif" font-size="10.00"> </text>
<polygon fill="#666666" stroke="#666666" points="138.5,-258 138.5,-258 235.5,-258 235.5,-258 138.5,-258"/>
<polygon fill="#666666" stroke="#666666" points="138.5,-242 138.5,-242 150.5,-242 150.5,-242 138.5,-242"/>
<polygon fill="#666666" stroke="#666666" points="150.5,-242 150.5,-242 235.5,-242 235.5,-242 150.5,-242"/>
<polygon fill="none" stroke="#666666" points="138.5,-224 138.5,-288 235.5,-288 235.5,-224 138.5,-224"/>
</a>
</g>
</g>
<!-- Node2&#45;&gt;Node5 -->
<g id="edge5_Node000005_Node000002" class="edge">
<title>Node2&#45;&gt;Node5</title>
<g id="a_edge5_Node000005_Node000002"><a xlink:title=" ">
<path fill="none" stroke="#63b8ff" d="M250.73,-708.02C252.11,-646.39 253.21,-482.36 231,-348 227.83,-328.85 227.06,-323.66 219,-306 217.96,-303.71 216.81,-301.41 215.6,-299.12"/>
<polygon fill="none" stroke="#63b8ff" points="215.54,-299.01 209.09,-295.81 209.56,-288.61 216.02,-291.82 215.54,-299.01"/>
</a>
</g>
<text text-anchor="middle" x="259.5" y="-438.5" font-family="Helvetica,sans-Serif" font-size="10.00" fill="grey"> +name</text>
</g>
<!-- Node7 -->
<g id="Node000007" class="node">
<title>Node7</title>
<g id="a_Node000007"><a xlink:href="class_entity_stats_manager.html#struct_entity_stats_manager_1_1_value" target="_top" xlink:title="Struct that holds the data of a value of a component.">
<polygon fill="white" stroke="none" points="222,-648 126,-648 126,-472 222,-472 222,-648"/>
<text text-anchor="start" x="130.88" y="-634.5" font-family="Helvetica,sans-Serif" font-size="10.00">EntityStatsManager</text>
<text text-anchor="start" x="158.62" y="-622.5" font-family="Helvetica,sans-Serif" font-size="10.00">::Value</text>
<text text-anchor="start" x="136.5" y="-606.5" font-family="Helvetica,sans-Serif" font-size="10.00">+</text>
<text text-anchor="start" x="153" y="-606.5" font-family="Helvetica,sans-Serif" font-size="10.00">data</text>
<text text-anchor="start" x="136.5" y="-590.5" font-family="Helvetica,sans-Serif" font-size="10.00">+</text>
<text text-anchor="start" x="153" y="-590.5" font-family="Helvetica,sans-Serif" font-size="10.00">isModifiable</text>
<text text-anchor="start" x="136.5" y="-574.5" font-family="Helvetica,sans-Serif" font-size="10.00">+</text>
<text text-anchor="start" x="153" y="-574.5" font-family="Helvetica,sans-Serif" font-size="10.00">isString</text>
<text text-anchor="start" x="136.5" y="-558.5" font-family="Helvetica,sans-Serif" font-size="10.00">+</text>
<text text-anchor="start" x="153" y="-558.5" font-family="Helvetica,sans-Serif" font-size="10.00">max</text>
<text text-anchor="start" x="136.5" y="-542.5" font-family="Helvetica,sans-Serif" font-size="10.00">+</text>
<text text-anchor="start" x="153" y="-542.5" font-family="Helvetica,sans-Serif" font-size="10.00">min</text>
<text text-anchor="start" x="136.5" y="-526.5" font-family="Helvetica,sans-Serif" font-size="10.00">+</text>
<text text-anchor="start" x="153" y="-526.5" font-family="Helvetica,sans-Serif" font-size="10.00">type</text>
<text text-anchor="start" x="136.5" y="-510.5" font-family="Helvetica,sans-Serif" font-size="10.00">+</text>
<text text-anchor="start" x="153" y="-510.5" font-family="Helvetica,sans-Serif" font-size="10.00">usesSlider</text>
<text text-anchor="start" x="136.5" y="-494.5" font-family="Helvetica,sans-Serif" font-size="10.00">+</text>
<text text-anchor="start" x="153" y="-494.5" font-family="Helvetica,sans-Serif" font-size="10.00">valueDirty</text>
<text text-anchor="start" x="172.5" y="-478.5" font-family="Helvetica,sans-Serif" font-size="10.00"> </text>
<polygon fill="#666666" stroke="#666666" points="126,-618 126,-618 222,-618 222,-618 126,-618"/>
<polygon fill="#666666" stroke="#666666" points="126,-490 126,-490 151,-490 151,-490 126,-490"/>
<polygon fill="#666666" stroke="#666666" points="151,-490 151,-490 222,-490 222,-490 151,-490"/>
<polygon fill="none" stroke="#666666" points="126,-472 126,-648 222,-648 222,-472 126,-472"/>
</a>
</g>
</g>
<!-- Node2&#45;&gt;Node7 -->
<g id="edge8_Node000007_Node000002" class="edge">
<title>Node2&#45;&gt;Node7</title>
<g id="a_edge8_Node000007_Node000002"><a xlink:title=" ">
<path fill="none" stroke="#63b8ff" d="M223.8,-722.25C210.09,-715.18 194.39,-704.54 185.75,-690 180.4,-681 176.61,-671 173.99,-660.67"/>
<polygon fill="none" stroke="#63b8ff" points="173.97,-660.58 168.83,-655.52 171.52,-648.83 176.66,-653.89 173.97,-660.58"/>
</a>
</g>
<text text-anchor="middle" x="211.12" y="-680.5" font-family="Helvetica,sans-Serif" font-size="10.00" fill="grey"> +name</text>
<text text-anchor="middle" x="211.12" y="-668.5" font-family="Helvetica,sans-Serif" font-size="10.00" fill="grey">+stringData</text>
</g>
<!-- Node3 -->
<g id="Node000003" class="node">
<title>Node3</title>
<g id="a_Node000003"><a xlink:title=" ">
<polygon fill="white" stroke="none" points="294,-860 206,-860 206,-796 294,-796 294,-860"/>
<text text-anchor="start" x="211" y="-846.5" font-family="Helvetica,sans-Serif" font-size="10.00">std::basic_string&lt;</text>
<text text-anchor="start" x="233.88" y="-834.5" font-family="Helvetica,sans-Serif" font-size="10.00"> Char &gt;</text>
<text text-anchor="start" x="248.5" y="-818.5" font-family="Helvetica,sans-Serif" font-size="10.00"> </text>
<text text-anchor="start" x="248.5" y="-802.5" font-family="Helvetica,sans-Serif" font-size="10.00"> </text>
<polygon fill="#666666" stroke="#666666" points="206,-830 206,-830 294,-830 294,-830 206,-830"/>
<polygon fill="#666666" stroke="#666666" points="206,-814 206,-814 294,-814 294,-814 206,-814"/>
<polygon fill="none" stroke="#666666" points="206,-796 206,-860 294,-860 294,-796 206,-796"/>
</a>
</g>
</g>
<!-- Node3&#45;&gt;Node2 -->
<g id="edge2_Node000002_Node000003" class="edge">
<title>Node3&#45;&gt;Node2</title>
<g id="a_edge2_Node000002_Node000003"><a xlink:title=" ">
<path fill="none" stroke="#63b8ff" d="M250,-784.72C250,-776.21 250,-767.53 250,-759.86"/>
<polygon fill="none" stroke="#63b8ff" points="246.5,-784.6 250,-794.6 253.5,-784.6 246.5,-784.6"/>
</a>
</g>
</g>
<!-- Node4 -->
<g id="Node000004" class="node">
<title>Node4</title>
<g id="a_Node000004"><a xlink:title=" ">
<polygon fill="white" stroke="none" points="253,-176 121,-176 121,-112 253,-112 253,-176"/>
<text text-anchor="start" x="125.88" y="-162.5" font-family="Helvetica,sans-Serif" font-size="10.00">std::vector&lt; EntityStats</text>
<text text-anchor="start" x="125.88" y="-150.5" font-family="Helvetica,sans-Serif" font-size="10.00">Manager::ComponentData &gt;</text>
<text text-anchor="start" x="185.5" y="-134.5" font-family="Helvetica,sans-Serif" font-size="10.00"> </text>
<text text-anchor="start" x="185.5" y="-118.5" font-family="Helvetica,sans-Serif" font-size="10.00"> </text>
<polygon fill="#666666" stroke="#666666" points="121,-146 121,-146 253,-146 253,-146 121,-146"/>
<polygon fill="#666666" stroke="#666666" points="121,-130 121,-130 253,-130 253,-130 121,-130"/>
<polygon fill="none" stroke="#666666" points="121,-112 121,-176 253,-176 253,-112 121,-112"/>
</a>
</g>
</g>
<!-- Node4&#45;&gt;Node1 -->
<g id="edge3_Node000001_Node000004" class="edge">
<title>Node4&#45;&gt;Node1</title>
<g id="a_edge3_Node000001_Node000004"><a xlink:title=" ">
<path fill="none" stroke="#63b8ff" d="M199.65,-112.07C204.3,-100.72 209.63,-87.68 214.61,-75.5"/>
<polygon fill="none" stroke="#63b8ff" points="214.56,-75.64 213.12,-68.57 219.1,-64.54 220.53,-71.6 214.56,-75.64"/>
</a>
</g>
<text text-anchor="middle" x="241.12" y="-84.5" font-family="Helvetica,sans-Serif" font-size="10.00" fill="grey"> +components</text>
</g>
<!-- Node5&#45;&gt;Node4 -->
<g id="edge4_Node000004_Node000005" class="edge">
<title>Node5&#45;&gt;Node4</title>
<g id="a_edge4_Node000004_Node000005"><a xlink:title=" ">
<path fill="none" stroke="#63b8ff" d="M187,-224.07C187,-213.08 187,-200.49 187,-188.64"/>
<polygon fill="none" stroke="#63b8ff" points="187,-188.6 183,-182.6 187,-176.6 191,-182.6 187,-188.6"/>
</a>
</g>
<text text-anchor="middle" x="211.38" y="-196.5" font-family="Helvetica,sans-Serif" font-size="10.00" fill="grey"> +elements</text>
</g>
<!-- Node6 -->
<g id="Node000006" class="node">
<title>Node6</title>
<g id="a_Node000006"><a xlink:title=" ">
<polygon fill="white" stroke="none" points="222,-412 110,-412 110,-348 222,-348 222,-412"/>
<text text-anchor="start" x="114.62" y="-398.5" font-family="Helvetica,sans-Serif" font-size="10.00">std::vector&lt; EntityStats</text>
<text text-anchor="start" x="127.38" y="-386.5" font-family="Helvetica,sans-Serif" font-size="10.00">Manager::Value &gt;</text>
<text text-anchor="start" x="164.5" y="-370.5" font-family="Helvetica,sans-Serif" font-size="10.00"> </text>
<text text-anchor="start" x="164.5" y="-354.5" font-family="Helvetica,sans-Serif" font-size="10.00"> </text>
<polygon fill="#666666" stroke="#666666" points="110,-382 110,-382 222,-382 222,-382 110,-382"/>
<polygon fill="#666666" stroke="#666666" points="110,-366 110,-366 222,-366 222,-366 110,-366"/>
<polygon fill="none" stroke="#666666" points="110,-348 110,-412 222,-412 222,-348 110,-348"/>
</a>
</g>
</g>
<!-- Node6&#45;&gt;Node5 -->
<g id="edge6_Node000005_Node000006" class="edge">
<title>Node6&#45;&gt;Node5</title>
<g id="a_edge6_Node000005_Node000006"><a xlink:title=" ">
<path fill="none" stroke="#63b8ff" d="M171.3,-348.21C173.79,-333.77 176.79,-316.29 179.51,-300.52"/>
<polygon fill="none" stroke="#63b8ff" points="179.51,-300.49 176.59,-293.9 181.55,-288.66 184.47,-295.26 179.51,-300.49"/>
</a>
</g>
<text text-anchor="middle" x="197" y="-314.5" font-family="Helvetica,sans-Serif" font-size="10.00" fill="grey"> +values</text>
</g>
<!-- Node7&#45;&gt;Node6 -->
<g id="edge7_Node000006_Node000007" class="edge">
<title>Node7&#45;&gt;Node6</title>
<g id="a_edge7_Node000006_Node000007"><a xlink:title=" ">
<path fill="none" stroke="#63b8ff" d="M170.09,-472.09C169.35,-455.46 168.6,-438.75 167.94,-424.25"/>
<polygon fill="none" stroke="#63b8ff" points="167.96,-424.52 163.69,-418.7 167.42,-412.53 171.68,-418.35 167.96,-424.52"/>
</a>
</g>
<text text-anchor="middle" x="194.38" y="-438.5" font-family="Helvetica,sans-Serif" font-size="10.00" fill="grey"> +elements</text>
</g>
<!-- Node8 -->
<g id="Node000008" class="node">
<title>Node8</title>
<g id="a_Node000008"><a xlink:title=" ">
<polygon fill="white" stroke="none" points="78,-586 0,-586 0,-534 78,-534 78,-586"/>
<text text-anchor="start" x="4.88" y="-572.5" font-family="Helvetica,sans-Serif" font-size="10.00">std::vector&lt; T &gt;</text>
<text text-anchor="start" x="37.5" y="-556.5" font-family="Helvetica,sans-Serif" font-size="10.00"> </text>
<text text-anchor="start" x="37.5" y="-540.5" font-family="Helvetica,sans-Serif" font-size="10.00"> </text>
<polygon fill="#666666" stroke="#666666" points="0,-568 0,-568 78,-568 78,-568 0,-568"/>
<polygon fill="#666666" stroke="#666666" points="0,-552 0,-552 78,-552 78,-552 0,-552"/>
<polygon fill="none" stroke="#666666" points="0,-534 0,-586 78,-586 78,-534 0,-534"/>
</a>
</g>
</g>
<!-- Node8&#45;&gt;Node4 -->
<g id="edge11_Node000004_Node000008" class="edge">
<title>Node8&#45;&gt;Node4</title>
<g id="a_edge11_Node000004_Node000008"><a xlink:title=" ">
<path fill="none" stroke="orange" d="M38.19,-522.98C38.29,-472.55 42.99,-378.93 72.75,-306 93.15,-256.02 131.69,-206.6 158.33,-175.97"/>
<polygon fill="orange" stroke="orange" points="34.69,-522.74 38.24,-532.73 41.69,-522.71 34.69,-522.74"/>
</a>
</g>
<text text-anchor="start" x="73" y="-320.5" font-family="Helvetica,sans-Serif" font-size="10.00" fill="grey"> &lt; EntityStatsManager</text>
<text text-anchor="middle" x="122.12" y="-308.5" font-family="Helvetica,sans-Serif" font-size="10.00" fill="grey">::ComponentData &gt;</text>
</g>
<!-- Node8&#45;&gt;Node6 -->
<g id="edge9_Node000006_Node000008" class="edge">
<title>Node8&#45;&gt;Node6</title>
<g id="a_edge9_Node000006_Node000008"><a xlink:title=" ">
<path fill="none" stroke="orange" d="M38.58,-522.7C40.04,-494.69 46.17,-456.4 66.75,-430 77.8,-415.83 94.01,-405.47 110.15,-398.04"/>
<polygon fill="orange" stroke="orange" points="35.08,-522.38 38.25,-532.49 42.08,-522.62 35.08,-522.38"/>
</a>
</g>
<text text-anchor="start" x="67" y="-444.5" font-family="Helvetica,sans-Serif" font-size="10.00" fill="grey"> &lt; EntityStatsManager</text>
<text text-anchor="middle" x="116.12" y="-432.5" font-family="Helvetica,sans-Serif" font-size="10.00" fill="grey">::Value &gt;</text>
</g>
<!-- Node9 -->
<g id="Node000009" class="node">
<title>Node9</title>
<g id="a_Node000009"><a xlink:title=" ">
<polygon fill="white" stroke="none" points="46.5,-760 31.5,-760 31.5,-708 46.5,-708 46.5,-760"/>
<text text-anchor="start" x="36.38" y="-746.5" font-family="Helvetica,sans-Serif" font-size="10.00">T</text>
<text text-anchor="start" x="37.5" y="-730.5" font-family="Helvetica,sans-Serif" font-size="10.00"> </text>
<text text-anchor="start" x="37.5" y="-714.5" font-family="Helvetica,sans-Serif" font-size="10.00"> </text>
<polygon fill="#666666" stroke="#666666" points="31.5,-742 31.5,-742 46.5,-742 46.5,-742 31.5,-742"/>
<polygon fill="#666666" stroke="#666666" points="31.5,-726 31.5,-726 46.5,-726 46.5,-726 31.5,-726"/>
<polygon fill="none" stroke="#666666" points="31.5,-708 31.5,-760 46.5,-760 46.5,-708 31.5,-708"/>
</a>
</g>
</g>
<!-- Node9&#45;&gt;Node8 -->
<g id="edge10_Node000008_Node000009" class="edge">
<title>Node9&#45;&gt;Node8</title>
<g id="a_edge10_Node000008_Node000009"><a xlink:title=" ">
<path fill="none" stroke="#63b8ff" d="M39,-708.36C39,-679.7 39,-632.08 39,-598.75"/>
<polygon fill="none" stroke="#63b8ff" points="39,-598.78 35,-592.78 39,-586.78 43,-592.78 39,-598.78"/>
</a>
</g>
<text text-anchor="middle" x="63.38" y="-674.5" font-family="Helvetica,sans-Serif" font-size="10.00" fill="grey"> +elements</text>
</g>
</g>
</svg>
