<?xml version="1.0" encoding="UTF-8" standalone="no"?>
<!DOCTYPE svg PUBLIC "-//W3C//DTD SVG 1.1//EN"
 "http://www.w3.org/Graphics/SVG/1.1/DTD/svg11.dtd">
<!-- Generated by graphviz version 11.0.0 (20240428.1522)
 -->
<!-- Title: GLESC::GAPI::isGraphicsType&lt; T &gt; Pages: 1 -->
<svg width="177pt" height="148pt"
 viewBox="0.00 0.00 177.00 148.00" xmlns="http://www.w3.org/2000/svg" xmlns:xlink="http://www.w3.org/1999/xlink">
<g id="graph0" class="graph" transform="scale(1 1) rotate(0) translate(4 144)">
<title>GLESC::GAPI::isGraphicsType&lt; T &gt;</title>
<!-- Node1 -->
<g id="Node000001" class="node">
<title>Node1</title>
<g id="a_Node000001"><a xlink:title=" ">
<polygon fill="#999999" stroke="none" points="169,-52 0,-52 0,0 169,0 169,-52"/>
<text text-anchor="start" x="5" y="-38.5" font-family="Helvetica,sans-Serif" font-size="10.00">GLESC::GAPI::isGraphicsType&lt; T &gt;</text>
<text text-anchor="start" x="83" y="-22.5" font-family="Helvetica,sans-Serif" font-size="10.00"> </text>
<text text-anchor="start" x="83" y="-6.5" font-family="Helvetica,sans-Serif" font-size="10.00"> </text>
<polygon fill="#666666" stroke="#666666" points="0,-34 0,-34 169,-34 169,-34 0,-34"/>
<polygon fill="#666666" stroke="#666666" points="0,-18 0,-18 169,-18 169,-18 0,-18"/>
<polygon fill="none" stroke="#666666" points="0,0 0,-52 169,-52 169,0 0,0"/>
</a>
</g>
</g>
<!-- Node2 -->
<g id="Node000002" class="node">
<title>Node2</title>
<g id="a_Node000002"><a xlink:title=" ">
<polygon fill="white" stroke="none" points="121,-140 48,-140 48,-88 121,-88 121,-140"/>
<text text-anchor="start" x="52.62" y="-126.5" font-family="Helvetica,sans-Serif" font-size="10.00">std::false_type</text>
<text text-anchor="start" x="83" y="-110.5" font-family="Helvetica,sans-Serif" font-size="10.00"> </text>
<text text-anchor="start" x="83" y="-94.5" font-family="Helvetica,sans-Serif" font-size="10.00"> </text>
<polygon fill="#666666" stroke="#666666" points="48,-122 48,-122 121,-122 121,-122 48,-122"/>
<polygon fill="#666666" stroke="#666666" points="48,-106 48,-106 121,-106 121,-106 48,-106"/>
<polygon fill="none" stroke="#666666" points="48,-88 48,-140 121,-140 121,-88 48,-88"/>
</a>
</g>
</g>
<!-- Node2&#45;&gt;Node1 -->
<g id="edge1_Node000001_Node000002" class="edge">
<title>Node2&#45;&gt;Node1</title>
<g id="a_edge1_Node000001_Node000002"><a xlink:title=" ">
<path fill="none" stroke="#63b8ff" d="M84.5,-76.66C84.5,-68.29 84.5,-59.57 84.5,-51.82"/>
<polygon fill="none" stroke="#63b8ff" points="81,-76.61 84.5,-86.61 88,-76.61 81,-76.61"/>
</a>
</g>
</g>
</g>
</svg>
