<?xml version="1.0" encoding="UTF-8" standalone="no"?>
<!DOCTYPE svg PUBLIC "-//W3C//DTD SVG 1.1//EN"
 "http://www.w3.org/Graphics/SVG/1.1/DTD/svg11.dtd">
<!-- Generated by graphviz version 11.0.0 (20240428.1522)
 -->
<!-- Title: EntityStatsManager::ComponentData Pages: 1 -->
<svg width="262pt" height="632pt"
 viewBox="0.00 0.00 262.00 632.00" xmlns="http://www.w3.org/2000/svg" xmlns:xlink="http://www.w3.org/1999/xlink">
<g id="graph0" class="graph" transform="scale(1 1) rotate(0) translate(4 628)">
<title>EntityStatsManager::ComponentData</title>
<!-- Node1 -->
<g id="Node000001" class="node">
<title>Node1</title>
<g id="a_Node000001"><a xlink:title=" ">
<polygon fill="#999999" stroke="none" points="242.5,-64 145.5,-64 145.5,0 242.5,0 242.5,-64"/>
<text text-anchor="start" x="150.88" y="-50.5" font-family="Helvetica,sans-Serif" font-size="10.00">EntityStatsManager</text>
<text text-anchor="start" x="156.12" y="-38.5" font-family="Helvetica,sans-Serif" font-size="10.00">::ComponentData</text>
<text text-anchor="start" x="149.5" y="-22.5" font-family="Helvetica,sans-Serif" font-size="10.00">+</text>
<text text-anchor="start" x="159.5" y="-22.5" font-family="Helvetica,sans-Serif" font-size="10.00">getUpdatedValues</text>
<text text-anchor="start" x="192.5" y="-6.5" font-family="Helvetica,sans-Serif" font-size="10.00"> </text>
<polygon fill="#666666" stroke="#666666" points="145.5,-34 145.5,-34 242.5,-34 242.5,-34 145.5,-34"/>
<polygon fill="#666666" stroke="#666666" points="145.5,-18 145.5,-18 157.5,-18 157.5,-18 145.5,-18"/>
<polygon fill="#666666" stroke="#666666" points="157.5,-18 157.5,-18 242.5,-18 242.5,-18 157.5,-18"/>
<polygon fill="none" stroke="#666666" points="145.5,0 145.5,-64 242.5,-64 242.5,0 145.5,0"/>
</a>
</g>
</g>
<!-- Node2 -->
<g id="Node000002" class="node">
<title>Node2</title>
<g id="a_Node000002"><a xlink:title=" ">
<polygon fill="white" stroke="none" points="226.5,-524 173.5,-524 173.5,-472 226.5,-472 226.5,-524"/>
<text text-anchor="start" x="178.25" y="-510.5" font-family="Helvetica,sans-Serif" font-size="10.00">std::string</text>
<text text-anchor="start" x="198.5" y="-494.5" font-family="Helvetica,sans-Serif" font-size="10.00"> </text>
<text text-anchor="start" x="198.5" y="-478.5" font-family="Helvetica,sans-Serif" font-size="10.00"> </text>
<polygon fill="#666666" stroke="#666666" points="173.5,-506 173.5,-506 226.5,-506 226.5,-506 173.5,-506"/>
<polygon fill="#666666" stroke="#666666" points="173.5,-490 173.5,-490 226.5,-490 226.5,-490 173.5,-490"/>
<polygon fill="none" stroke="#666666" points="173.5,-472 173.5,-524 226.5,-524 226.5,-472 173.5,-472"/>
</a>
</g>
</g>
<!-- Node2&#45;&gt;Node1 -->
<g id="edge1_Node000001_Node000002" class="edge">
<title>Node2&#45;&gt;Node1</title>
<g id="a_edge1_Node000001_Node000002"><a xlink:title=" ">
<path fill="none" stroke="#63b8ff" d="M215.12,-472.31C217.96,-466.5 220.51,-460.2 222,-454 224.5,-443.63 222.08,-440.67 222,-430 220.89,-288.65 225.15,-253.12 217,-112 216.23,-98.62 217.23,-95 214,-82 213.51,-80.04 212.96,-78.05 212.36,-76.06"/>
<polygon fill="none" stroke="#63b8ff" points="212.38,-76.12 206.64,-71.75 208.47,-64.77 214.21,-69.14 212.38,-76.12"/>
</a>
</g>
<text text-anchor="middle" x="237.5" y="-202.5" font-family="Helvetica,sans-Serif" font-size="10.00" fill="grey"> +name</text>
</g>
<!-- Node5 -->
<g id="Node000005" class="node">
<title>Node5</title>
<g id="a_Node000005"><a xlink:href="class_entity_stats_manager.html#struct_entity_stats_manager_1_1_value" target="_top" xlink:title="Struct that holds the data of a value of a component.">
<polygon fill="white" stroke="none" points="208,-412 112,-412 112,-236 208,-236 208,-412"/>
<text text-anchor="start" x="116.88" y="-398.5" font-family="Helvetica,sans-Serif" font-size="10.00">EntityStatsManager</text>
<text text-anchor="start" x="144.62" y="-386.5" font-family="Helvetica,sans-Serif" font-size="10.00">::Value</text>
<text text-anchor="start" x="122.5" y="-370.5" font-family="Helvetica,sans-Serif" font-size="10.00">+</text>
<text text-anchor="start" x="139" y="-370.5" font-family="Helvetica,sans-Serif" font-size="10.00">data</text>
<text text-anchor="start" x="122.5" y="-354.5" font-family="Helvetica,sans-Serif" font-size="10.00">+</text>
<text text-anchor="start" x="139" y="-354.5" font-family="Helvetica,sans-Serif" font-size="10.00">isModifiable</text>
<text text-anchor="start" x="122.5" y="-338.5" font-family="Helvetica,sans-Serif" font-size="10.00">+</text>
<text text-anchor="start" x="139" y="-338.5" font-family="Helvetica,sans-Serif" font-size="10.00">isString</text>
<text text-anchor="start" x="122.5" y="-322.5" font-family="Helvetica,sans-Serif" font-size="10.00">+</text>
<text text-anchor="start" x="139" y="-322.5" font-family="Helvetica,sans-Serif" font-size="10.00">max</text>
<text text-anchor="start" x="122.5" y="-306.5" font-family="Helvetica,sans-Serif" font-size="10.00">+</text>
<text text-anchor="start" x="139" y="-306.5" font-family="Helvetica,sans-Serif" font-size="10.00">min</text>
<text text-anchor="start" x="122.5" y="-290.5" font-family="Helvetica,sans-Serif" font-size="10.00">+</text>
<text text-anchor="start" x="139" y="-290.5" font-family="Helvetica,sans-Serif" font-size="10.00">type</text>
<text text-anchor="start" x="122.5" y="-274.5" font-family="Helvetica,sans-Serif" font-size="10.00">+</text>
<text text-anchor="start" x="139" y="-274.5" font-family="Helvetica,sans-Serif" font-size="10.00">usesSlider</text>
<text text-anchor="start" x="122.5" y="-258.5" font-family="Helvetica,sans-Serif" font-size="10.00">+</text>
<text text-anchor="start" x="139" y="-258.5" font-family="Helvetica,sans-Serif" font-size="10.00">valueDirty</text>
<text text-anchor="start" x="158.5" y="-242.5" font-family="Helvetica,sans-Serif" font-size="10.00"> </text>
<polygon fill="#666666" stroke="#666666" points="112,-382 112,-382 208,-382 208,-382 112,-382"/>
<polygon fill="#666666" stroke="#666666" points="112,-254 112,-254 137,-254 137,-254 112,-254"/>
<polygon fill="#666666" stroke="#666666" points="137,-254 137,-254 208,-254 208,-254 137,-254"/>
<polygon fill="none" stroke="#666666" points="112,-236 112,-412 208,-412 208,-236 112,-236"/>
</a>
</g>
</g>
<!-- Node2&#45;&gt;Node5 -->
<g id="edge5_Node000005_Node000002" class="edge">
<title>Node2&#45;&gt;Node5</title>
<g id="a_edge5_Node000005_Node000002"><a xlink:title=" ">
<path fill="none" stroke="#63b8ff" d="M180.77,-472.16C177.21,-466.47 173.93,-460.24 171.75,-454 168.49,-444.67 166,-434.74 164.12,-424.7"/>
<polygon fill="none" stroke="#63b8ff" points="164.12,-424.68 159.21,-419.4 162.19,-412.83 167.1,-418.11 164.12,-424.68"/>
</a>
</g>
<text text-anchor="middle" x="196.12" y="-444.5" font-family="Helvetica,sans-Serif" font-size="10.00" fill="grey"> +name</text>
<text text-anchor="middle" x="196.12" y="-432.5" font-family="Helvetica,sans-Serif" font-size="10.00" fill="grey">+stringData</text>
</g>
<!-- Node3 -->
<g id="Node000003" class="node">
<title>Node3</title>
<g id="a_Node000003"><a xlink:title=" ">
<polygon fill="white" stroke="none" points="244,-624 156,-624 156,-560 244,-560 244,-624"/>
<text text-anchor="start" x="161" y="-610.5" font-family="Helvetica,sans-Serif" font-size="10.00">std::basic_string&lt;</text>
<text text-anchor="start" x="183.88" y="-598.5" font-family="Helvetica,sans-Serif" font-size="10.00"> Char &gt;</text>
<text text-anchor="start" x="198.5" y="-582.5" font-family="Helvetica,sans-Serif" font-size="10.00"> </text>
<text text-anchor="start" x="198.5" y="-566.5" font-family="Helvetica,sans-Serif" font-size="10.00"> </text>
<polygon fill="#666666" stroke="#666666" points="156,-594 156,-594 244,-594 244,-594 156,-594"/>
<polygon fill="#666666" stroke="#666666" points="156,-578 156,-578 244,-578 244,-578 156,-578"/>
<polygon fill="none" stroke="#666666" points="156,-560 156,-624 244,-624 244,-560 156,-560"/>
</a>
</g>
</g>
<!-- Node3&#45;&gt;Node2 -->
<g id="edge2_Node000002_Node000003" class="edge">
<title>Node3&#45;&gt;Node2</title>
<g id="a_edge2_Node000002_Node000003"><a xlink:title=" ">
<path fill="none" stroke="#63b8ff" d="M200,-548.72C200,-540.21 200,-531.53 200,-523.86"/>
<polygon fill="none" stroke="#63b8ff" points="196.5,-548.6 200,-558.6 203.5,-548.6 196.5,-548.6"/>
</a>
</g>
</g>
<!-- Node4 -->
<g id="Node000004" class="node">
<title>Node4</title>
<g id="a_Node000004"><a xlink:title=" ">
<polygon fill="white" stroke="none" points="208,-176 96,-176 96,-112 208,-112 208,-176"/>
<text text-anchor="start" x="100.62" y="-162.5" font-family="Helvetica,sans-Serif" font-size="10.00">std::vector&lt; EntityStats</text>
<text text-anchor="start" x="113.38" y="-150.5" font-family="Helvetica,sans-Serif" font-size="10.00">Manager::Value &gt;</text>
<text text-anchor="start" x="150.5" y="-134.5" font-family="Helvetica,sans-Serif" font-size="10.00"> </text>
<text text-anchor="start" x="150.5" y="-118.5" font-family="Helvetica,sans-Serif" font-size="10.00"> </text>
<polygon fill="#666666" stroke="#666666" points="96,-146 96,-146 208,-146 208,-146 96,-146"/>
<polygon fill="#666666" stroke="#666666" points="96,-130 96,-130 208,-130 208,-130 96,-130"/>
<polygon fill="none" stroke="#666666" points="96,-112 96,-176 208,-176 208,-112 96,-112"/>
</a>
</g>
</g>
<!-- Node4&#45;&gt;Node1 -->
<g id="edge3_Node000001_Node000004" class="edge">
<title>Node4&#45;&gt;Node1</title>
<g id="a_edge3_Node000001_Node000004"><a xlink:title=" ">
<path fill="none" stroke="#63b8ff" d="M163.81,-112.07C168.1,-100.84 173.02,-87.95 177.63,-75.88"/>
<polygon fill="none" stroke="#63b8ff" points="177.68,-75.75 176.08,-68.72 181.96,-64.54 183.55,-71.58 177.68,-75.75"/>
</a>
</g>
<text text-anchor="middle" x="192" y="-84.5" font-family="Helvetica,sans-Serif" font-size="10.00" fill="grey"> +values</text>
</g>
<!-- Node5&#45;&gt;Node4 -->
<g id="edge4_Node000004_Node000005" class="edge">
<title>Node5&#45;&gt;Node4</title>
<g id="a_edge4_Node000004_Node000005"><a xlink:title=" ">
<path fill="none" stroke="#63b8ff" d="M156.09,-236.09C155.35,-219.46 154.6,-202.75 153.94,-188.25"/>
<polygon fill="none" stroke="#63b8ff" points="153.96,-188.52 149.69,-182.7 153.42,-176.53 157.68,-182.35 153.96,-188.52"/>
</a>
</g>
<text text-anchor="middle" x="179.38" y="-202.5" font-family="Helvetica,sans-Serif" font-size="10.00" fill="grey"> +elements</text>
</g>
<!-- Node6 -->
<g id="Node000006" class="node">
<title>Node6</title>
<g id="a_Node000006"><a xlink:title=" ">
<polygon fill="white" stroke="none" points="78,-350 0,-350 0,-298 78,-298 78,-350"/>
<text text-anchor="start" x="4.88" y="-336.5" font-family="Helvetica,sans-Serif" font-size="10.00">std::vector&lt; T &gt;</text>
<text text-anchor="start" x="37.5" y="-320.5" font-family="Helvetica,sans-Serif" font-size="10.00"> </text>
<text text-anchor="start" x="37.5" y="-304.5" font-family="Helvetica,sans-Serif" font-size="10.00"> </text>
<polygon fill="#666666" stroke="#666666" points="0,-332 0,-332 78,-332 78,-332 0,-332"/>
<polygon fill="#666666" stroke="#666666" points="0,-316 0,-316 78,-316 78,-316 0,-316"/>
<polygon fill="none" stroke="#666666" points="0,-298 0,-350 78,-350 78,-298 0,-298"/>
</a>
</g>
</g>
<!-- Node6&#45;&gt;Node4 -->
<g id="edge6_Node000004_Node000006" class="edge">
<title>Node6&#45;&gt;Node4</title>
<g id="a_edge6_Node000004_Node000006"><a xlink:title=" ">
<path fill="none" stroke="orange" d="M33.64,-286.78C31.5,-258.98 33.04,-220.92 51.75,-194 62.42,-178.65 79.29,-167.91 96.17,-160.48"/>
<polygon fill="orange" stroke="orange" points="30.13,-286.89 34.6,-296.5 37.1,-286.2 30.13,-286.89"/>
</a>
</g>
<text text-anchor="start" x="52" y="-208.5" font-family="Helvetica,sans-Serif" font-size="10.00" fill="grey"> &lt; EntityStatsManager</text>
<text text-anchor="middle" x="101.12" y="-196.5" font-family="Helvetica,sans-Serif" font-size="10.00" fill="grey">::Value &gt;</text>
</g>
<!-- Node7 -->
<g id="Node000007" class="node">
<title>Node7</title>
<g id="a_Node000007"><a xlink:title=" ">
<polygon fill="white" stroke="none" points="46.5,-524 31.5,-524 31.5,-472 46.5,-472 46.5,-524"/>
<text text-anchor="start" x="36.38" y="-510.5" font-family="Helvetica,sans-Serif" font-size="10.00">T</text>
<text text-anchor="start" x="37.5" y="-494.5" font-family="Helvetica,sans-Serif" font-size="10.00"> </text>
<text text-anchor="start" x="37.5" y="-478.5" font-family="Helvetica,sans-Serif" font-size="10.00"> </text>
<polygon fill="#666666" stroke="#666666" points="31.5,-506 31.5,-506 46.5,-506 46.5,-506 31.5,-506"/>
<polygon fill="#666666" stroke="#666666" points="31.5,-490 31.5,-490 46.5,-490 46.5,-490 31.5,-490"/>
<polygon fill="none" stroke="#666666" points="31.5,-472 31.5,-524 46.5,-524 46.5,-472 31.5,-472"/>
</a>
</g>
</g>
<!-- Node7&#45;&gt;Node6 -->
<g id="edge7_Node000006_Node000007" class="edge">
<title>Node7&#45;&gt;Node6</title>
<g id="a_edge7_Node000006_Node000007"><a xlink:title=" ">
<path fill="none" stroke="#63b8ff" d="M39,-472.36C39,-443.7 39,-396.08 39,-362.75"/>
<polygon fill="none" stroke="#63b8ff" points="39,-362.78 35,-356.78 39,-350.78 43,-356.78 39,-362.78"/>
</a>
</g>
<text text-anchor="middle" x="63.38" y="-438.5" font-family="Helvetica,sans-Serif" font-size="10.00" fill="grey"> +elements</text>
</g>
</g>
</svg>
