<?xml version="1.0" encoding="UTF-8" standalone="no"?>
<!DOCTYPE svg PUBLIC "-//W3C//DTD SVG 1.1//EN"
 "http://www.w3.org/Graphics/SVG/1.1/DTD/svg11.dtd">
<!-- Generated by graphviz version 11.0.0 (20240428.1522)
 -->
<!-- Title: GLESC::Render::ColorRgba::getRGBAVec4FNormalized Pages: 1 -->
<svg width="499pt" height="190pt"
 viewBox="0.00 0.00 498.50 190.00" xmlns="http://www.w3.org/2000/svg" xmlns:xlink="http://www.w3.org/1999/xlink">

<svg id="main" version="1.1" xmlns="http://www.w3.org/2000/svg" xmlns:xlink="http://www.w3.org/1999/xlink" xml:space="preserve" onload="init(evt)">
<style type="text/css"><![CDATA[
.node, .edge {opacity: 0.7;}
.node.selected, .edge.selected {opacity: 1;}
.edge:hover path { stroke: red; }
.edge:hover polygon { stroke: red; fill: red; }
]]></style>
<script type="application/ecmascript" xlink:href="svg.min.js"/>
<svg id="graph" class="graph">
<g id="graph0" class="graph" transform="scale(1 1) rotate(0) translate(4 186)">
<title>GLESC::Render::ColorRgba::getRGBAVec4FNormalized</title>
<!-- Node1 -->
<g id="Node000001" class="node">
<title>Node1</title>
<g id="a_Node000001"><a xlink:title=" ">
<polygon fill="#999999" stroke="#666666" points="140.5,-107 0,-107 0,-75 140.5,-75 140.5,-107"/>
<text text-anchor="start" x="8" y="-93.5" font-family="Helvetica,sans-Serif" font-size="10.00">GLESC::Render::ColorRgba</text>
<text text-anchor="middle" x="70.25" y="-81.5" font-family="Helvetica,sans-Serif" font-size="10.00">::getRGBAVec4FNormalized</text>
</a>
</g>
</g>
<!-- Node2 -->
<g id="Node000002" class="node">
<title>Node2</title>
<g id="a_Node000002"><a xlink:href="struct_g_l_e_s_c_1_1_render_1_1_color_rgba.html#af2b4b8170aa22c13c48586eeae4d6056" target="_top" xlink:title=" ">
<polygon fill="white" stroke="#666666" points="313.25,-182 176.5,-182 176.5,-150 313.25,-150 313.25,-182"/>
<text text-anchor="start" x="184.5" y="-168.5" font-family="Helvetica,sans-Serif" font-size="10.00">GLESC::Render::ColorRgba</text>
<text text-anchor="middle" x="244.88" y="-156.5" font-family="Helvetica,sans-Serif" font-size="10.00">::getANormalized</text>
</a>
</g>
</g>
<!-- Node1&#45;&gt;Node2 -->
<g id="edge1_Node000001_Node000002" class="edge">
<title>Node1&#45;&gt;Node2</title>
<g id="a_edge1_Node000001_Node000002"><a xlink:title=" ">
<path fill="none" stroke="#63b8ff" d="M103.63,-107.29C124.27,-117.45 151.71,-130.54 176.5,-141 180.06,-142.5 183.74,-144 187.46,-145.49"/>
<polygon fill="#63b8ff" stroke="#63b8ff" points="186,-148.67 196.59,-149.05 188.54,-142.15 186,-148.67"/>
</a>
</g>
</g>
<!-- Node4 -->
<g id="Node000004" class="node">
<title>Node4</title>
<g id="a_Node000004"><a xlink:href="struct_g_l_e_s_c_1_1_render_1_1_color_rgba.html#a935d58b809245ada2a45360320a4527a" target="_top" xlink:title=" ">
<polygon fill="white" stroke="#666666" points="313.25,-132 176.5,-132 176.5,-100 313.25,-100 313.25,-132"/>
<text text-anchor="start" x="184.5" y="-118.5" font-family="Helvetica,sans-Serif" font-size="10.00">GLESC::Render::ColorRgba</text>
<text text-anchor="middle" x="244.88" y="-106.5" font-family="Helvetica,sans-Serif" font-size="10.00">::getBNormalized</text>
</a>
</g>
</g>
<!-- Node1&#45;&gt;Node4 -->
<g id="edge3_Node000001_Node000004" class="edge">
<title>Node1&#45;&gt;Node4</title>
<g id="a_edge3_Node000001_Node000004"><a xlink:title=" ">
<path fill="none" stroke="#63b8ff" d="M140.97,-101.1C148.85,-102.24 156.93,-103.41 164.92,-104.57"/>
<polygon fill="#63b8ff" stroke="#63b8ff" points="164.24,-108 174.64,-105.97 165.25,-101.08 164.24,-108"/>
</a>
</g>
</g>
<!-- Node5 -->
<g id="Node000005" class="node">
<title>Node5</title>
<g id="a_Node000005"><a xlink:href="struct_g_l_e_s_c_1_1_render_1_1_color_rgba.html#a9b819ff3fb0b92306a917fb728047704" target="_top" xlink:title=" ">
<polygon fill="white" stroke="#666666" points="313.25,-82 176.5,-82 176.5,-50 313.25,-50 313.25,-82"/>
<text text-anchor="start" x="184.5" y="-68.5" font-family="Helvetica,sans-Serif" font-size="10.00">GLESC::Render::ColorRgba</text>
<text text-anchor="middle" x="244.88" y="-56.5" font-family="Helvetica,sans-Serif" font-size="10.00">::getGNormalized</text>
</a>
</g>
</g>
<!-- Node1&#45;&gt;Node5 -->
<g id="edge5_Node000001_Node000005" class="edge">
<title>Node1&#45;&gt;Node5</title>
<g id="a_edge5_Node000001_Node000005"><a xlink:title=" ">
<path fill="none" stroke="#63b8ff" d="M140.97,-80.9C148.85,-79.76 156.93,-78.59 164.92,-77.43"/>
<polygon fill="#63b8ff" stroke="#63b8ff" points="165.25,-80.92 174.64,-76.03 164.24,-74 165.25,-80.92"/>
</a>
</g>
</g>
<!-- Node6 -->
<g id="Node000006" class="node">
<title>Node6</title>
<g id="a_Node000006"><a xlink:href="struct_g_l_e_s_c_1_1_render_1_1_color_rgba.html#ad9bb79e3a2a2afd95bd0e6df95fb2ec2" target="_top" xlink:title=" ">
<polygon fill="white" stroke="#666666" points="313.25,-32 176.5,-32 176.5,0 313.25,0 313.25,-32"/>
<text text-anchor="start" x="184.5" y="-18.5" font-family="Helvetica,sans-Serif" font-size="10.00">GLESC::Render::ColorRgba</text>
<text text-anchor="middle" x="244.88" y="-6.5" font-family="Helvetica,sans-Serif" font-size="10.00">::getRNormalized</text>
</a>
</g>
</g>
<!-- Node1&#45;&gt;Node6 -->
<g id="edge7_Node000001_Node000006" class="edge">
<title>Node1&#45;&gt;Node6</title>
<g id="a_edge7_Node000001_Node000006"><a xlink:title=" ">
<path fill="none" stroke="#63b8ff" d="M103.63,-74.71C124.27,-64.55 151.71,-51.46 176.5,-41 180.06,-39.5 183.74,-38 187.46,-36.51"/>
<polygon fill="#63b8ff" stroke="#63b8ff" points="188.54,-39.85 196.59,-32.95 186,-33.33 188.54,-39.85"/>
</a>
</g>
</g>
<!-- Node3 -->
<g id="Node000003" class="node">
<title>Node3</title>
<g id="a_Node000003"><a xlink:href="class_g_l_e_s_c_1_1_render_1_1_color_funcs.html#a4415bd4e262b54a2d95185ffee1c3eef" target="_top" xlink:title="Normalizes a color to be between 0 and 1.">
<polygon fill="white" stroke="#666666" points="490.5,-107 349.25,-107 349.25,-75 490.5,-75 490.5,-107"/>
<text text-anchor="start" x="357.25" y="-93.5" font-family="Helvetica,sans-Serif" font-size="10.00">GLESC::Render::ColorFuncs</text>
<text text-anchor="middle" x="419.88" y="-81.5" font-family="Helvetica,sans-Serif" font-size="10.00">::normalizeColorValue</text>
</a>
</g>
</g>
<!-- Node2&#45;&gt;Node3 -->
<g id="edge2_Node000002_Node000003" class="edge">
<title>Node2&#45;&gt;Node3</title>
<g id="a_edge2_Node000002_Node000003"><a xlink:title=" ">
<path fill="none" stroke="#63b8ff" d="M291.75,-149.59C298.99,-146.82 306.35,-143.91 313.25,-141 334.23,-132.16 357.11,-121.46 376.2,-112.24"/>
<polygon fill="#63b8ff" stroke="#63b8ff" points="377.56,-115.47 385.02,-107.94 374.49,-109.17 377.56,-115.47"/>
</a>
</g>
</g>
<!-- Node4&#45;&gt;Node3 -->
<g id="edge4_Node000004_Node000003" class="edge">
<title>Node4&#45;&gt;Node3</title>
<g id="a_edge4_Node000004_Node000003"><a xlink:title=" ">
<path fill="none" stroke="#63b8ff" d="M313.26,-106.26C321.19,-105.12 329.35,-103.94 337.44,-102.77"/>
<polygon fill="#63b8ff" stroke="#63b8ff" points="337.93,-106.23 347.32,-101.34 336.93,-99.31 337.93,-106.23"/>
</a>
</g>
</g>
<!-- Node5&#45;&gt;Node3 -->
<g id="edge6_Node000005_Node000003" class="edge">
<title>Node5&#45;&gt;Node3</title>
<g id="a_edge6_Node000005_Node000003"><a xlink:title=" ">
<path fill="none" stroke="#63b8ff" d="M313.26,-75.74C321.19,-76.88 329.35,-78.06 337.44,-79.23"/>
<polygon fill="#63b8ff" stroke="#63b8ff" points="336.93,-82.69 347.32,-80.66 337.93,-75.77 336.93,-82.69"/>
</a>
</g>
</g>
<!-- Node6&#45;&gt;Node3 -->
<g id="edge8_Node000006_Node000003" class="edge">
<title>Node6&#45;&gt;Node3</title>
<g id="a_edge8_Node000006_Node000003"><a xlink:title=" ">
<path fill="none" stroke="#63b8ff" d="M291.75,-32.41C298.99,-35.18 306.35,-38.09 313.25,-41 334.23,-49.84 357.11,-60.54 376.2,-69.76"/>
<polygon fill="#63b8ff" stroke="#63b8ff" points="374.49,-72.83 385.02,-74.06 377.56,-66.53 374.49,-72.83"/>
</a>
</g>
</g>
</g>
</svg>
</svg>

<style type='text/css'>
<![CDATA[
[data-mouse-over-selected='false'] { opacity: 0.7; }
[data-mouse-over-selected='true']  { opacity: 1.0; }
]]>
</style>
<script type="application/ecmascript"><![CDATA[
document.addEventListener('DOMContentLoaded', (event) => {
  highlightEdges();
  highlightAdjacentNodes();
});
]]></script>
</svg>
