<?xml version="1.0" encoding="UTF-8" standalone="no"?>
<!DOCTYPE svg PUBLIC "-//W3C//DTD SVG 1.1//EN"
 "http://www.w3.org/Graphics/SVG/1.1/DTD/svg11.dtd">
<!-- Generated by graphviz version 11.0.0 (20240428.1522)
 -->
<!-- Title: GLESC::ECS::RenderComponent Pages: 1 -->
<svg width="544pt" height="1556pt"
 viewBox="0.00 0.00 544.00 1556.00" xmlns="http://www.w3.org/2000/svg" xmlns:xlink="http://www.w3.org/1999/xlink">
<g id="graph0" class="graph" transform="scale(1 1) rotate(0) translate(4 1552)">
<title>GLESC::ECS::RenderComponent</title>
<!-- Node1 -->
<g id="Node000001" class="node">
<title>Node1</title>
<g id="a_Node000001"><a xlink:title=" ">
<polygon fill="#999999" stroke="none" points="270.5,-212 115.5,-212 115.5,0 270.5,0 270.5,-212"/>
<text text-anchor="start" x="120.25" y="-198.5" font-family="Helvetica,sans-Serif" font-size="10.00">GLESC::ECS::RenderComponent</text>
<text text-anchor="start" x="122.5" y="-182.5" font-family="Helvetica,sans-Serif" font-size="10.00">&#45;</text>
<text text-anchor="start" x="132.5" y="-182.5" font-family="Helvetica,sans-Serif" font-size="10.00">mesh</text>
<text text-anchor="start" x="121" y="-166.5" font-family="Helvetica,sans-Serif" font-size="10.00">+</text>
<text text-anchor="start" x="132.5" y="-166.5" font-family="Helvetica,sans-Serif" font-size="10.00">copyMaterial()</text>
<text text-anchor="start" x="121" y="-150.5" font-family="Helvetica,sans-Serif" font-size="10.00">+</text>
<text text-anchor="start" x="132.5" y="-150.5" font-family="Helvetica,sans-Serif" font-size="10.00">copyMesh()</text>
<text text-anchor="start" x="121" y="-134.5" font-family="Helvetica,sans-Serif" font-size="10.00">+</text>
<text text-anchor="start" x="132.5" y="-134.5" font-family="Helvetica,sans-Serif" font-size="10.00">getMaterial()</text>
<text text-anchor="start" x="121" y="-118.5" font-family="Helvetica,sans-Serif" font-size="10.00">+</text>
<text text-anchor="start" x="132.5" y="-118.5" font-family="Helvetica,sans-Serif" font-size="10.00">getMesh()</text>
<text text-anchor="start" x="121" y="-102.5" font-family="Helvetica,sans-Serif" font-size="10.00">+</text>
<text text-anchor="start" x="132.5" y="-102.5" font-family="Helvetica,sans-Serif" font-size="10.00">getName()</text>
<text text-anchor="start" x="121" y="-86.5" font-family="Helvetica,sans-Serif" font-size="10.00">+</text>
<text text-anchor="start" x="132.5" y="-86.5" font-family="Helvetica,sans-Serif" font-size="10.00">moveMaterial()</text>
<text text-anchor="start" x="121" y="-70.5" font-family="Helvetica,sans-Serif" font-size="10.00">+</text>
<text text-anchor="start" x="132.5" y="-70.5" font-family="Helvetica,sans-Serif" font-size="10.00">moveMesh()</text>
<text text-anchor="start" x="121" y="-54.5" font-family="Helvetica,sans-Serif" font-size="10.00">+</text>
<text text-anchor="start" x="132.5" y="-54.5" font-family="Helvetica,sans-Serif" font-size="10.00">moveMesh()</text>
<text text-anchor="start" x="121" y="-38.5" font-family="Helvetica,sans-Serif" font-size="10.00">+</text>
<text text-anchor="start" x="132.5" y="-38.5" font-family="Helvetica,sans-Serif" font-size="10.00">setDebuggingValues()</text>
<text text-anchor="start" x="121" y="-22.5" font-family="Helvetica,sans-Serif" font-size="10.00">+</text>
<text text-anchor="start" x="132.5" y="-22.5" font-family="Helvetica,sans-Serif" font-size="10.00">setUpdatedDebuggingValues()</text>
<text text-anchor="start" x="121" y="-6.5" font-family="Helvetica,sans-Serif" font-size="10.00">+</text>
<text text-anchor="start" x="132.5" y="-6.5" font-family="Helvetica,sans-Serif" font-size="10.00">toString()</text>
<polygon fill="#666666" stroke="#666666" points="115.5,-194 115.5,-194 270.5,-194 270.5,-194 115.5,-194"/>
<polygon fill="#666666" stroke="#666666" points="115.5,-178 115.5,-178 130.5,-178 130.5,-178 115.5,-178"/>
<polygon fill="#666666" stroke="#666666" points="130.5,-178 130.5,-178 270.5,-178 270.5,-178 130.5,-178"/>
<polygon fill="none" stroke="#666666" points="115.5,0 115.5,-212 270.5,-212 270.5,0 115.5,0"/>
</a>
</g>
</g>
<!-- Node2 -->
<g id="Node000002" class="node">
<title>Node2</title>
<g id="a_Node000002"><a xlink:href="struct_g_l_e_s_c_1_1_e_c_s_1_1_i_component.html" target="_top" xlink:title="Base class for all components.">
<polygon fill="white" stroke="none" points="191.5,-440 42.5,-440 42.5,-292 191.5,-292 191.5,-440"/>
<text text-anchor="start" x="58.5" y="-426.5" font-family="Helvetica,sans-Serif" font-size="10.00">GLESC::ECS::IComponent</text>
<text text-anchor="start" x="115.5" y="-410.5" font-family="Helvetica,sans-Serif" font-size="10.00"> </text>
<text text-anchor="start" x="46.5" y="-394.5" font-family="Helvetica,sans-Serif" font-size="10.00">+</text>
<text text-anchor="start" x="56.5" y="-394.5" font-family="Helvetica,sans-Serif" font-size="10.00">~IComponent()</text>
<text text-anchor="start" x="46.5" y="-378.5" font-family="Helvetica,sans-Serif" font-size="10.00">+</text>
<text text-anchor="start" x="56.5" y="-378.5" font-family="Helvetica,sans-Serif" font-size="10.00">getDebuggingValues()</text>
<text text-anchor="start" x="46.5" y="-362.5" font-family="Helvetica,sans-Serif" font-size="10.00">+</text>
<text text-anchor="start" x="56.5" y="-362.5" font-family="Helvetica,sans-Serif" font-size="10.00">getName()</text>
<text text-anchor="start" x="46.5" y="-346.5" font-family="Helvetica,sans-Serif" font-size="10.00">+</text>
<text text-anchor="start" x="56.5" y="-346.5" font-family="Helvetica,sans-Serif" font-size="10.00">getUpdatedDebuggingValues()</text>
<text text-anchor="start" x="46.5" y="-330.5" font-family="Helvetica,sans-Serif" font-size="10.00">+</text>
<text text-anchor="start" x="56.5" y="-330.5" font-family="Helvetica,sans-Serif" font-size="10.00">toString()</text>
<text text-anchor="start" x="46.88" y="-314.5" font-family="Helvetica,sans-Serif" font-size="10.00">#</text>
<text text-anchor="start" x="56.5" y="-314.5" font-family="Helvetica,sans-Serif" font-size="10.00">setDebuggingValues()</text>
<text text-anchor="start" x="46.88" y="-298.5" font-family="Helvetica,sans-Serif" font-size="10.00">#</text>
<text text-anchor="start" x="56.5" y="-298.5" font-family="Helvetica,sans-Serif" font-size="10.00">setUpdatedDebuggingValues()</text>
<polygon fill="#666666" stroke="#666666" points="42.5,-422 42.5,-422 191.5,-422 191.5,-422 42.5,-422"/>
<polygon fill="#666666" stroke="#666666" points="42.5,-406 42.5,-406 191.5,-406 191.5,-406 42.5,-406"/>
<polygon fill="none" stroke="#666666" points="42.5,-292 42.5,-440 191.5,-440 191.5,-292 42.5,-292"/>
</a>
</g>
</g>
<!-- Node2&#45;&gt;Node1 -->
<g id="edge1_Node000001_Node000002" class="edge">
<title>Node2&#45;&gt;Node1</title>
<g id="a_edge1_Node000001_Node000002"><a xlink:title=" ">
<path fill="none" stroke="#63b8ff" d="M141.71,-281.11C148.21,-259.05 155.3,-234.99 162.08,-211.97"/>
<polygon fill="none" stroke="#63b8ff" points="138.37,-280.07 138.9,-290.65 145.08,-282.05 138.37,-280.07"/>
</a>
</g>
</g>
<!-- Node3 -->
<g id="Node000003" class="node">
<title>Node3</title>
<g id="a_Node000003"><a xlink:title=" ">
<polygon fill="white" stroke="none" points="173,-750 61,-750 61,-686 173,-686 173,-750"/>
<text text-anchor="start" x="65.62" y="-736.5" font-family="Helvetica,sans-Serif" font-size="10.00">std::vector&lt; EntityStats</text>
<text text-anchor="start" x="78.38" y="-724.5" font-family="Helvetica,sans-Serif" font-size="10.00">Manager::Value &gt;</text>
<text text-anchor="start" x="115.5" y="-708.5" font-family="Helvetica,sans-Serif" font-size="10.00"> </text>
<text text-anchor="start" x="115.5" y="-692.5" font-family="Helvetica,sans-Serif" font-size="10.00"> </text>
<polygon fill="#666666" stroke="#666666" points="61,-720 61,-720 173,-720 173,-720 61,-720"/>
<polygon fill="#666666" stroke="#666666" points="61,-704 61,-704 173,-704 173,-704 61,-704"/>
<polygon fill="none" stroke="#666666" points="61,-686 61,-750 173,-750 173,-686 61,-686"/>
</a>
</g>
</g>
<!-- Node3&#45;&gt;Node2 -->
<g id="edge2_Node000002_Node000003" class="edge">
<title>Node3&#45;&gt;Node2</title>
<g id="a_edge2_Node000002_Node000003"><a xlink:title=" ">
<path fill="none" stroke="#63b8ff" d="M117,-686.25C117,-634.53 117,-528.37 117,-452.67"/>
<polygon fill="none" stroke="#63b8ff" points="117,-452.76 113,-446.76 117,-440.76 121,-446.76 117,-452.76"/>
</a>
</g>
<text text-anchor="middle" x="153.38" y="-516.5" font-family="Helvetica,sans-Serif" font-size="10.00" fill="grey"> #updatedValues</text>
<text text-anchor="middle" x="153.38" y="-504.5" font-family="Helvetica,sans-Serif" font-size="10.00" fill="grey">#values</text>
</g>
<!-- Node4 -->
<g id="Node000004" class="node">
<title>Node4</title>
<g id="a_Node000004"><a xlink:href="class_entity_stats_manager.html#struct_entity_stats_manager_1_1_value" target="_top" xlink:title="Struct that holds the data of a value of a component.">
<polygon fill="white" stroke="none" points="96,-1140 0,-1140 0,-964 96,-964 96,-1140"/>
<text text-anchor="start" x="4.88" y="-1126.5" font-family="Helvetica,sans-Serif" font-size="10.00">EntityStatsManager</text>
<text text-anchor="start" x="32.62" y="-1114.5" font-family="Helvetica,sans-Serif" font-size="10.00">::Value</text>
<text text-anchor="start" x="10.5" y="-1098.5" font-family="Helvetica,sans-Serif" font-size="10.00">+</text>
<text text-anchor="start" x="27" y="-1098.5" font-family="Helvetica,sans-Serif" font-size="10.00">data</text>
<text text-anchor="start" x="10.5" y="-1082.5" font-family="Helvetica,sans-Serif" font-size="10.00">+</text>
<text text-anchor="start" x="27" y="-1082.5" font-family="Helvetica,sans-Serif" font-size="10.00">isModifiable</text>
<text text-anchor="start" x="10.5" y="-1066.5" font-family="Helvetica,sans-Serif" font-size="10.00">+</text>
<text text-anchor="start" x="27" y="-1066.5" font-family="Helvetica,sans-Serif" font-size="10.00">isString</text>
<text text-anchor="start" x="10.5" y="-1050.5" font-family="Helvetica,sans-Serif" font-size="10.00">+</text>
<text text-anchor="start" x="27" y="-1050.5" font-family="Helvetica,sans-Serif" font-size="10.00">max</text>
<text text-anchor="start" x="10.5" y="-1034.5" font-family="Helvetica,sans-Serif" font-size="10.00">+</text>
<text text-anchor="start" x="27" y="-1034.5" font-family="Helvetica,sans-Serif" font-size="10.00">min</text>
<text text-anchor="start" x="10.5" y="-1018.5" font-family="Helvetica,sans-Serif" font-size="10.00">+</text>
<text text-anchor="start" x="27" y="-1018.5" font-family="Helvetica,sans-Serif" font-size="10.00">type</text>
<text text-anchor="start" x="10.5" y="-1002.5" font-family="Helvetica,sans-Serif" font-size="10.00">+</text>
<text text-anchor="start" x="27" y="-1002.5" font-family="Helvetica,sans-Serif" font-size="10.00">usesSlider</text>
<text text-anchor="start" x="10.5" y="-986.5" font-family="Helvetica,sans-Serif" font-size="10.00">+</text>
<text text-anchor="start" x="27" y="-986.5" font-family="Helvetica,sans-Serif" font-size="10.00">valueDirty</text>
<text text-anchor="start" x="46.5" y="-970.5" font-family="Helvetica,sans-Serif" font-size="10.00"> </text>
<polygon fill="#666666" stroke="#666666" points="0,-1110 0,-1110 96,-1110 96,-1110 0,-1110"/>
<polygon fill="#666666" stroke="#666666" points="0,-982 0,-982 25,-982 25,-982 0,-982"/>
<polygon fill="#666666" stroke="#666666" points="25,-982 25,-982 96,-982 96,-982 25,-982"/>
<polygon fill="none" stroke="#666666" points="0,-964 0,-1140 96,-1140 96,-964 0,-964"/>
</a>
</g>
</g>
<!-- Node4&#45;&gt;Node3 -->
<g id="edge3_Node000003_Node000004" class="edge">
<title>Node4&#45;&gt;Node3</title>
<g id="a_edge3_Node000003_Node000004"><a xlink:title=" ">
<path fill="none" stroke="#63b8ff" d="M66.04,-964.2C79.52,-899.34 97.38,-813.4 107.98,-762.39"/>
<polygon fill="none" stroke="#63b8ff" points="107.95,-762.53 105.26,-755.84 110.4,-750.78 113.09,-757.47 107.95,-762.53"/>
</a>
</g>
<text text-anchor="middle" x="103.38" y="-906.5" font-family="Helvetica,sans-Serif" font-size="10.00" fill="grey"> +elements</text>
</g>
<!-- Node5 -->
<g id="Node000005" class="node">
<title>Node5</title>
<g id="a_Node000005"><a xlink:title=" ">
<polygon fill="white" stroke="none" points="74.5,-1362 21.5,-1362 21.5,-1310 74.5,-1310 74.5,-1362"/>
<text text-anchor="start" x="26.25" y="-1348.5" font-family="Helvetica,sans-Serif" font-size="10.00">std::string</text>
<text text-anchor="start" x="46.5" y="-1332.5" font-family="Helvetica,sans-Serif" font-size="10.00"> </text>
<text text-anchor="start" x="46.5" y="-1316.5" font-family="Helvetica,sans-Serif" font-size="10.00"> </text>
<polygon fill="#666666" stroke="#666666" points="21.5,-1344 21.5,-1344 74.5,-1344 74.5,-1344 21.5,-1344"/>
<polygon fill="#666666" stroke="#666666" points="21.5,-1328 21.5,-1328 74.5,-1328 74.5,-1328 21.5,-1328"/>
<polygon fill="none" stroke="#666666" points="21.5,-1310 21.5,-1362 74.5,-1362 74.5,-1310 21.5,-1310"/>
</a>
</g>
</g>
<!-- Node5&#45;&gt;Node4 -->
<g id="edge4_Node000004_Node000005" class="edge">
<title>Node5&#45;&gt;Node4</title>
<g id="a_edge4_Node000004_Node000005"><a xlink:title=" ">
<path fill="none" stroke="#63b8ff" d="M48,-1310.47C48,-1275.53 48,-1209.43 48,-1152.95"/>
<polygon fill="none" stroke="#63b8ff" points="48,-1152.84 44,-1146.84 48,-1140.84 52,-1146.84 48,-1152.84"/>
</a>
</g>
<text text-anchor="middle" x="73.12" y="-1196.5" font-family="Helvetica,sans-Serif" font-size="10.00" fill="grey"> +name</text>
<text text-anchor="middle" x="73.12" y="-1184.5" font-family="Helvetica,sans-Serif" font-size="10.00" fill="grey">+stringData</text>
</g>
<!-- Node6 -->
<g id="Node000006" class="node">
<title>Node6</title>
<g id="a_Node000006"><a xlink:title=" ">
<polygon fill="white" stroke="none" points="92,-1548 4,-1548 4,-1484 92,-1484 92,-1548"/>
<text text-anchor="start" x="9" y="-1534.5" font-family="Helvetica,sans-Serif" font-size="10.00">std::basic_string&lt;</text>
<text text-anchor="start" x="31.88" y="-1522.5" font-family="Helvetica,sans-Serif" font-size="10.00"> Char &gt;</text>
<text text-anchor="start" x="46.5" y="-1506.5" font-family="Helvetica,sans-Serif" font-size="10.00"> </text>
<text text-anchor="start" x="46.5" y="-1490.5" font-family="Helvetica,sans-Serif" font-size="10.00"> </text>
<polygon fill="#666666" stroke="#666666" points="4,-1518 4,-1518 92,-1518 92,-1518 4,-1518"/>
<polygon fill="#666666" stroke="#666666" points="4,-1502 4,-1502 92,-1502 92,-1502 4,-1502"/>
<polygon fill="none" stroke="#666666" points="4,-1484 4,-1548 92,-1548 92,-1484 4,-1484"/>
</a>
</g>
</g>
<!-- Node6&#45;&gt;Node5 -->
<g id="edge5_Node000005_Node000006" class="edge">
<title>Node6&#45;&gt;Node5</title>
<g id="a_edge5_Node000005_Node000006"><a xlink:title=" ">
<path fill="none" stroke="#63b8ff" d="M48,-1473.22C48,-1438.6 48,-1390.57 48,-1361.76"/>
<polygon fill="none" stroke="#63b8ff" points="44.5,-1472.89 48,-1482.89 51.5,-1472.89 44.5,-1472.89"/>
</a>
</g>
</g>
<!-- Node7 -->
<g id="Node000007" class="node">
<title>Node7</title>
<g id="a_Node000007"><a xlink:title=" ">
<polygon fill="white" stroke="none" points="192,-1078 114,-1078 114,-1026 192,-1026 192,-1078"/>
<text text-anchor="start" x="118.88" y="-1064.5" font-family="Helvetica,sans-Serif" font-size="10.00">std::vector&lt; T &gt;</text>
<text text-anchor="start" x="151.5" y="-1048.5" font-family="Helvetica,sans-Serif" font-size="10.00"> </text>
<text text-anchor="start" x="151.5" y="-1032.5" font-family="Helvetica,sans-Serif" font-size="10.00"> </text>
<polygon fill="#666666" stroke="#666666" points="114,-1060 114,-1060 192,-1060 192,-1060 114,-1060"/>
<polygon fill="#666666" stroke="#666666" points="114,-1044 114,-1044 192,-1044 192,-1044 114,-1044"/>
<polygon fill="none" stroke="#666666" points="114,-1026 114,-1078 192,-1078 192,-1026 114,-1026"/>
</a>
</g>
</g>
<!-- Node7&#45;&gt;Node3 -->
<g id="edge6_Node000003_Node000007" class="edge">
<title>Node7&#45;&gt;Node3</title>
<g id="a_edge6_Node000003_Node000007"><a xlink:title=" ">
<path fill="none" stroke="orange" d="M149.06,-1014.64C141.93,-948.93 127.03,-811.48 120.36,-749.94"/>
<polygon fill="orange" stroke="orange" points="145.57,-1014.98 150.13,-1024.54 152.53,-1014.22 145.57,-1014.98"/>
</a>
</g>
<text text-anchor="start" x="139" y="-912.5" font-family="Helvetica,sans-Serif" font-size="10.00" fill="grey"> &lt; EntityStatsManager</text>
<text text-anchor="middle" x="188.12" y="-900.5" font-family="Helvetica,sans-Serif" font-size="10.00" fill="grey">::Value &gt;</text>
</g>
<!-- Node8 -->
<g id="Node000008" class="node">
<title>Node8</title>
<g id="a_Node000008"><a xlink:title=" ">
<polygon fill="white" stroke="none" points="160.5,-1362 145.5,-1362 145.5,-1310 160.5,-1310 160.5,-1362"/>
<text text-anchor="start" x="150.38" y="-1348.5" font-family="Helvetica,sans-Serif" font-size="10.00">T</text>
<text text-anchor="start" x="151.5" y="-1332.5" font-family="Helvetica,sans-Serif" font-size="10.00"> </text>
<text text-anchor="start" x="151.5" y="-1316.5" font-family="Helvetica,sans-Serif" font-size="10.00"> </text>
<polygon fill="#666666" stroke="#666666" points="145.5,-1344 145.5,-1344 160.5,-1344 160.5,-1344 145.5,-1344"/>
<polygon fill="#666666" stroke="#666666" points="145.5,-1328 145.5,-1328 160.5,-1328 160.5,-1328 145.5,-1328"/>
<polygon fill="none" stroke="#666666" points="145.5,-1310 145.5,-1362 160.5,-1362 160.5,-1310 145.5,-1310"/>
</a>
</g>
</g>
<!-- Node8&#45;&gt;Node7 -->
<g id="edge7_Node000007_Node000008" class="edge">
<title>Node8&#45;&gt;Node7</title>
<g id="a_edge7_Node000007_Node000008"><a xlink:title=" ">
<path fill="none" stroke="#63b8ff" d="M153,-1310.47C153,-1261.09 153,-1149.44 153,-1090.72"/>
<polygon fill="none" stroke="#63b8ff" points="153,-1090.58 149,-1084.58 153,-1078.58 157,-1084.58 153,-1090.58"/>
</a>
</g>
<text text-anchor="middle" x="177.38" y="-1190.5" font-family="Helvetica,sans-Serif" font-size="10.00" fill="grey"> +elements</text>
</g>
<!-- Node9 -->
<g id="Node000009" class="node">
<title>Node9</title>
<g id="a_Node000009"><a xlink:href="class_g_l_e_s_c_1_1_render_1_1_material.html" target="_top" xlink:title="Class inspired by the material class from open3D.">
<polygon fill="white" stroke="none" points="330,-472 210,-472 210,-260 330,-260 330,-472"/>
<text text-anchor="start" x="214.88" y="-458.5" font-family="Helvetica,sans-Serif" font-size="10.00">GLESC::Render::Material</text>
<text text-anchor="start" x="217" y="-442.5" font-family="Helvetica,sans-Serif" font-size="10.00">&#45;</text>
<text text-anchor="start" x="227" y="-442.5" font-family="Helvetica,sans-Serif" font-size="10.00">dirty</text>
<text text-anchor="start" x="215.5" y="-426.5" font-family="Helvetica,sans-Serif" font-size="10.00">+</text>
<text text-anchor="start" x="227" y="-426.5" font-family="Helvetica,sans-Serif" font-size="10.00">Material()</text>
<text text-anchor="start" x="215.5" y="-410.5" font-family="Helvetica,sans-Serif" font-size="10.00">+</text>
<text text-anchor="start" x="227" y="-410.5" font-family="Helvetica,sans-Serif" font-size="10.00">Material()</text>
<text text-anchor="start" x="215.5" y="-394.5" font-family="Helvetica,sans-Serif" font-size="10.00">+</text>
<text text-anchor="start" x="227" y="-394.5" font-family="Helvetica,sans-Serif" font-size="10.00">getDebuggingValues()</text>
<text text-anchor="start" x="215.5" y="-378.5" font-family="Helvetica,sans-Serif" font-size="10.00">+</text>
<text text-anchor="start" x="227" y="-378.5" font-family="Helvetica,sans-Serif" font-size="10.00">getDiffuseColor()</text>
<text text-anchor="start" x="215.5" y="-362.5" font-family="Helvetica,sans-Serif" font-size="10.00">+</text>
<text text-anchor="start" x="227" y="-362.5" font-family="Helvetica,sans-Serif" font-size="10.00">getDiffuseIntensity()</text>
<text text-anchor="start" x="215.5" y="-346.5" font-family="Helvetica,sans-Serif" font-size="10.00">+</text>
<text text-anchor="start" x="227" y="-346.5" font-family="Helvetica,sans-Serif" font-size="10.00">getEmissionColor()</text>
<text text-anchor="start" x="215.5" y="-330.5" font-family="Helvetica,sans-Serif" font-size="10.00">+</text>
<text text-anchor="start" x="227" y="-330.5" font-family="Helvetica,sans-Serif" font-size="10.00">getEmissionIntensity()</text>
<text text-anchor="start" x="215.5" y="-314.5" font-family="Helvetica,sans-Serif" font-size="10.00">+</text>
<text text-anchor="start" x="227" y="-314.5" font-family="Helvetica,sans-Serif" font-size="10.00">getShininess()</text>
<text text-anchor="start" x="215.5" y="-298.5" font-family="Helvetica,sans-Serif" font-size="10.00">+</text>
<text text-anchor="start" x="227" y="-298.5" font-family="Helvetica,sans-Serif" font-size="10.00">getSpecularColor()</text>
<text text-anchor="start" x="215.5" y="-282.5" font-family="Helvetica,sans-Serif" font-size="10.00">+</text>
<text text-anchor="start" x="227" y="-282.5" font-family="Helvetica,sans-Serif" font-size="10.00">getSpecularIntensity()</text>
<text text-anchor="start" x="227" y="-266.5" font-family="Helvetica,sans-Serif" font-size="10.00">and 11 more...</text>
<polygon fill="#666666" stroke="#666666" points="210,-454 210,-454 330,-454 330,-454 210,-454"/>
<polygon fill="#666666" stroke="#666666" points="210,-438 210,-438 225,-438 225,-438 210,-438"/>
<polygon fill="#666666" stroke="#666666" points="225,-438 225,-438 330,-438 330,-438 225,-438"/>
<polygon fill="none" stroke="#666666" points="210,-260 210,-472 330,-472 330,-260 210,-260"/>
</a>
</g>
</g>
<!-- Node9&#45;&gt;Node1 -->
<g id="edge8_Node000001_Node000009" class="edge">
<title>Node9&#45;&gt;Node1</title>
<g id="a_edge8_Node000001_Node000009"><a xlink:title=" ">
<path fill="none" stroke="#63b8ff" d="M238.68,-260.06C235.16,-248.26 231.55,-236.18 227.99,-224.23"/>
<polygon fill="none" stroke="#63b8ff" points="227.98,-224.21 222.43,-219.6 224.55,-212.71 230.1,-217.31 227.98,-224.21"/>
</a>
</g>
<text text-anchor="middle" x="252.25" y="-232.5" font-family="Helvetica,sans-Serif" font-size="10.00" fill="grey"> &#45;material</text>
</g>
<!-- Node10 -->
<g id="Node000010" class="node">
<title>Node10</title>
<g id="a_Node000010"><a xlink:href="struct_g_l_e_s_c_1_1_render_1_1_color_rgb.html" target="_top" xlink:title="Color in RGB values.">
<polygon fill="white" stroke="none" points="324.5,-880 199.5,-880 199.5,-556 324.5,-556 324.5,-880"/>
<text text-anchor="start" x="204.25" y="-866.5" font-family="Helvetica,sans-Serif" font-size="10.00">GLESC::Render::ColorRgb</text>
<text text-anchor="start" x="211.5" y="-850.5" font-family="Helvetica,sans-Serif" font-size="10.00">+</text>
<text text-anchor="start" x="229.5" y="-850.5" font-family="Helvetica,sans-Serif" font-size="10.00">LightGrey</text>
<text text-anchor="start" x="211.5" y="-834.5" font-family="Helvetica,sans-Serif" font-size="10.00">+</text>
<text text-anchor="start" x="229.5" y="-834.5" font-family="Helvetica,sans-Serif" font-size="10.00">Magenta</text>
<text text-anchor="start" x="211.5" y="-818.5" font-family="Helvetica,sans-Serif" font-size="10.00">+</text>
<text text-anchor="start" x="229.5" y="-818.5" font-family="Helvetica,sans-Serif" font-size="10.00">Orange</text>
<text text-anchor="start" x="211.5" y="-802.5" font-family="Helvetica,sans-Serif" font-size="10.00">+</text>
<text text-anchor="start" x="229.5" y="-802.5" font-family="Helvetica,sans-Serif" font-size="10.00">Pink</text>
<text text-anchor="start" x="211.5" y="-786.5" font-family="Helvetica,sans-Serif" font-size="10.00">+</text>
<text text-anchor="start" x="229.5" y="-786.5" font-family="Helvetica,sans-Serif" font-size="10.00">Purple</text>
<text text-anchor="start" x="211.5" y="-770.5" font-family="Helvetica,sans-Serif" font-size="10.00">+</text>
<text text-anchor="start" x="229.5" y="-770.5" font-family="Helvetica,sans-Serif" font-size="10.00">Red</text>
<text text-anchor="start" x="211.5" y="-754.5" font-family="Helvetica,sans-Serif" font-size="10.00">+</text>
<text text-anchor="start" x="229.5" y="-754.5" font-family="Helvetica,sans-Serif" font-size="10.00">White</text>
<text text-anchor="start" x="211.5" y="-738.5" font-family="Helvetica,sans-Serif" font-size="10.00">+</text>
<text text-anchor="start" x="229.5" y="-738.5" font-family="Helvetica,sans-Serif" font-size="10.00">Yellow</text>
<text text-anchor="start" x="211.5" y="-722.5" font-family="Helvetica,sans-Serif" font-size="10.00">+</text>
<text text-anchor="start" x="229.5" y="-722.5" font-family="Helvetica,sans-Serif" font-size="10.00">ColorRgb()</text>
<text text-anchor="start" x="211.5" y="-706.5" font-family="Helvetica,sans-Serif" font-size="10.00">+</text>
<text text-anchor="start" x="229.5" y="-706.5" font-family="Helvetica,sans-Serif" font-size="10.00">ColorRgb()</text>
<text text-anchor="start" x="211.5" y="-690.5" font-family="Helvetica,sans-Serif" font-size="10.00">+</text>
<text text-anchor="start" x="229.5" y="-690.5" font-family="Helvetica,sans-Serif" font-size="10.00">ColorRgb()</text>
<text text-anchor="start" x="211.5" y="-674.5" font-family="Helvetica,sans-Serif" font-size="10.00">+</text>
<text text-anchor="start" x="229.5" y="-674.5" font-family="Helvetica,sans-Serif" font-size="10.00">ColorRgb()</text>
<text text-anchor="start" x="211.5" y="-658.5" font-family="Helvetica,sans-Serif" font-size="10.00">+</text>
<text text-anchor="start" x="229.5" y="-658.5" font-family="Helvetica,sans-Serif" font-size="10.00">ColorRgb()</text>
<text text-anchor="start" x="211.5" y="-642.5" font-family="Helvetica,sans-Serif" font-size="10.00">+</text>
<text text-anchor="start" x="229.5" y="-642.5" font-family="Helvetica,sans-Serif" font-size="10.00">ColorRgb()</text>
<text text-anchor="start" x="211.5" y="-626.5" font-family="Helvetica,sans-Serif" font-size="10.00">+</text>
<text text-anchor="start" x="229.5" y="-626.5" font-family="Helvetica,sans-Serif" font-size="10.00">~ColorRgb()</text>
<text text-anchor="start" x="211.5" y="-610.5" font-family="Helvetica,sans-Serif" font-size="10.00">+</text>
<text text-anchor="start" x="229.5" y="-610.5" font-family="Helvetica,sans-Serif" font-size="10.00">getB()</text>
<text text-anchor="start" x="211.5" y="-594.5" font-family="Helvetica,sans-Serif" font-size="10.00">+</text>
<text text-anchor="start" x="229.5" y="-594.5" font-family="Helvetica,sans-Serif" font-size="10.00">getBNormalized()</text>
<text text-anchor="start" x="211.5" y="-578.5" font-family="Helvetica,sans-Serif" font-size="10.00">+</text>
<text text-anchor="start" x="229.5" y="-578.5" font-family="Helvetica,sans-Serif" font-size="10.00">getG()</text>
<text text-anchor="start" x="229.5" y="-562.5" font-family="Helvetica,sans-Serif" font-size="10.00">and 10 more...</text>
<polygon fill="#666666" stroke="#666666" points="199.5,-862 199.5,-862 324.5,-862 324.5,-862 199.5,-862"/>
<polygon fill="#666666" stroke="#666666" points="199.5,-734 199.5,-734 227.5,-734 227.5,-734 199.5,-734"/>
<polygon fill="#666666" stroke="#666666" points="227.5,-734 227.5,-734 324.5,-734 324.5,-734 227.5,-734"/>
<polygon fill="none" stroke="#666666" points="199.5,-556 199.5,-880 324.5,-880 324.5,-556 199.5,-556"/>
</a>
</g>
</g>
<!-- Node10&#45;&gt;Node9 -->
<g id="edge9_Node000009_Node000010" class="edge">
<title>Node10&#45;&gt;Node9</title>
<g id="a_edge9_Node000009_Node000010"><a xlink:title=" ">
<path fill="none" stroke="#63b8ff" d="M265.68,-556.09C266.23,-532.11 266.78,-507.78 267.31,-484.9"/>
<polygon fill="none" stroke="#63b8ff" points="267.31,-484.89 263.44,-478.8 267.58,-472.89 271.44,-478.98 267.31,-484.89"/>
</a>
</g>
<text text-anchor="middle" x="300.25" y="-522.5" font-family="Helvetica,sans-Serif" font-size="10.00" fill="grey"> &#45;diffuseColor</text>
<text text-anchor="middle" x="300.25" y="-510.5" font-family="Helvetica,sans-Serif" font-size="10.00" fill="grey">&#45;emissionColor</text>
<text text-anchor="middle" x="300.25" y="-498.5" font-family="Helvetica,sans-Serif" font-size="10.00" fill="grey">&#45;specularColor</text>
</g>
<!-- Node10&#45;&gt;Node10 -->
<g id="edge11_Node000010_Node000010" class="edge">
<title>Node10&#45;&gt;Node10</title>
<g id="a_edge11_Node000010_Node000010"><a xlink:title=" ">
<path fill="none" stroke="#63b8ff" d="M324.44,-751.61C335.11,-747.01 342.5,-735.81 342.5,-718 342.5,-706.59 339.47,-697.89 334.48,-691.9"/>
<polygon fill="none" stroke="#63b8ff" points="334.77,-692.12 327.57,-691.73 325.16,-684.93 332.36,-685.32 334.77,-692.12"/>
</a>
</g>
<text text-anchor="middle" x="369.12" y="-774.5" font-family="Helvetica,sans-Serif" font-size="10.00" fill="grey"> +Black</text>
<text text-anchor="middle" x="369.12" y="-762.5" font-family="Helvetica,sans-Serif" font-size="10.00" fill="grey">+Blue</text>
<text text-anchor="middle" x="369.12" y="-750.5" font-family="Helvetica,sans-Serif" font-size="10.00" fill="grey">+Brown</text>
<text text-anchor="middle" x="369.12" y="-738.5" font-family="Helvetica,sans-Serif" font-size="10.00" fill="grey">+ClearSkin</text>
<text text-anchor="middle" x="369.12" y="-726.5" font-family="Helvetica,sans-Serif" font-size="10.00" fill="grey">+Cyan</text>
<text text-anchor="middle" x="369.12" y="-714.5" font-family="Helvetica,sans-Serif" font-size="10.00" fill="grey">+DarkBrown</text>
<text text-anchor="middle" x="369.12" y="-702.5" font-family="Helvetica,sans-Serif" font-size="10.00" fill="grey">+DarkGreen</text>
<text text-anchor="middle" x="369.12" y="-690.5" font-family="Helvetica,sans-Serif" font-size="10.00" fill="grey">+DarkGrey</text>
<text text-anchor="middle" x="369.12" y="-678.5" font-family="Helvetica,sans-Serif" font-size="10.00" fill="grey">+Green</text>
<text text-anchor="middle" x="369.12" y="-666.5" font-family="Helvetica,sans-Serif" font-size="10.00" fill="grey">+Grey</text>
<text text-anchor="middle" x="369.12" y="-654.5" font-family="Helvetica,sans-Serif" font-size="10.00" fill="grey">...</text>
</g>
<!-- Node11 -->
<g id="Node000011" class="node">
<title>Node11</title>
<g id="a_Node000011"><a xlink:href="class_g_l_e_s_c_1_1_math_1_1_vector.html" target="_top" xlink:title=" ">
<polygon fill="white" stroke="none" points="302.5,-1158 221.5,-1158 221.5,-946 302.5,-946 302.5,-1158"/>
<text text-anchor="start" x="247.75" y="-1144.5" font-family="Helvetica,sans-Serif" font-size="10.00">Vec3F</text>
<text text-anchor="start" x="225.5" y="-1128.5" font-family="Helvetica,sans-Serif" font-size="10.00">+</text>
<text text-anchor="start" x="235.5" y="-1128.5" font-family="Helvetica,sans-Serif" font-size="10.00">data</text>
<text text-anchor="start" x="225.5" y="-1112.5" font-family="Helvetica,sans-Serif" font-size="10.00">+</text>
<text text-anchor="start" x="235.5" y="-1112.5" font-family="Helvetica,sans-Serif" font-size="10.00">Vector()</text>
<text text-anchor="start" x="225.5" y="-1096.5" font-family="Helvetica,sans-Serif" font-size="10.00">+</text>
<text text-anchor="start" x="235.5" y="-1096.5" font-family="Helvetica,sans-Serif" font-size="10.00">Vector()</text>
<text text-anchor="start" x="225.5" y="-1080.5" font-family="Helvetica,sans-Serif" font-size="10.00">+</text>
<text text-anchor="start" x="235.5" y="-1080.5" font-family="Helvetica,sans-Serif" font-size="10.00">Vector()</text>
<text text-anchor="start" x="225.5" y="-1064.5" font-family="Helvetica,sans-Serif" font-size="10.00">+</text>
<text text-anchor="start" x="235.5" y="-1064.5" font-family="Helvetica,sans-Serif" font-size="10.00">Vector()</text>
<text text-anchor="start" x="225.5" y="-1048.5" font-family="Helvetica,sans-Serif" font-size="10.00">+</text>
<text text-anchor="start" x="235.5" y="-1048.5" font-family="Helvetica,sans-Serif" font-size="10.00">Vector()</text>
<text text-anchor="start" x="225.5" y="-1032.5" font-family="Helvetica,sans-Serif" font-size="10.00">+</text>
<text text-anchor="start" x="235.5" y="-1032.5" font-family="Helvetica,sans-Serif" font-size="10.00">Vector()</text>
<text text-anchor="start" x="225.5" y="-1016.5" font-family="Helvetica,sans-Serif" font-size="10.00">+</text>
<text text-anchor="start" x="235.5" y="-1016.5" font-family="Helvetica,sans-Serif" font-size="10.00">Vector()</text>
<text text-anchor="start" x="225.5" y="-1000.5" font-family="Helvetica,sans-Serif" font-size="10.00">+</text>
<text text-anchor="start" x="235.5" y="-1000.5" font-family="Helvetica,sans-Serif" font-size="10.00">Vector()</text>
<text text-anchor="start" x="225.5" y="-984.5" font-family="Helvetica,sans-Serif" font-size="10.00">+</text>
<text text-anchor="start" x="235.5" y="-984.5" font-family="Helvetica,sans-Serif" font-size="10.00">Vector()</text>
<text text-anchor="start" x="225.5" y="-968.5" font-family="Helvetica,sans-Serif" font-size="10.00">+</text>
<text text-anchor="start" x="235.5" y="-968.5" font-family="Helvetica,sans-Serif" font-size="10.00">Vector()</text>
<text text-anchor="start" x="235.5" y="-952.5" font-family="Helvetica,sans-Serif" font-size="10.00">and 90 more...</text>
<polygon fill="#666666" stroke="#666666" points="221.5,-1140 221.5,-1140 302.5,-1140 302.5,-1140 221.5,-1140"/>
<polygon fill="#666666" stroke="#666666" points="221.5,-1124 221.5,-1124 233.5,-1124 233.5,-1124 221.5,-1124"/>
<polygon fill="#666666" stroke="#666666" points="233.5,-1124 233.5,-1124 302.5,-1124 302.5,-1124 233.5,-1124"/>
<polygon fill="none" stroke="#666666" points="221.5,-946 221.5,-1158 302.5,-1158 302.5,-946 221.5,-946"/>
</a>
</g>
</g>
<!-- Node11&#45;&gt;Node10 -->
<g id="edge10_Node000010_Node000011" class="edge">
<title>Node11&#45;&gt;Node10</title>
<g id="a_edge10_Node000010_Node000011"><a xlink:title=" ">
<path fill="none" stroke="#63b8ff" d="M262,-935.1C262,-917.22 262,-898.49 262,-879.85"/>
<polygon fill="none" stroke="#63b8ff" points="258.5,-934.9 262,-944.9 265.5,-934.9 258.5,-934.9"/>
</a>
</g>
</g>
<!-- Node12 -->
<g id="Node000012" class="node">
<title>Node12</title>
<g id="a_Node000012"><a xlink:href="class_g_l_e_s_c_1_1_render_1_1_intensity.html" target="_top" xlink:title=" ">
<polygon fill="white" stroke="none" points="536,-830 414,-830 414,-606 536,-606 536,-830"/>
<text text-anchor="start" x="418.75" y="-816.5" font-family="Helvetica,sans-Serif" font-size="10.00">GLESC::Render::Intensity</text>
<text text-anchor="start" x="439" y="-804.5" font-family="Helvetica,sans-Serif" font-size="10.00">&lt; float &gt;&lt; float &gt;</text>
<text text-anchor="start" x="429.5" y="-788.5" font-family="Helvetica,sans-Serif" font-size="10.00">&#45;</text>
<text text-anchor="start" x="448" y="-788.5" font-family="Helvetica,sans-Serif" font-size="10.00">intensity</text>
<text text-anchor="start" x="428" y="-772.5" font-family="Helvetica,sans-Serif" font-size="10.00">+</text>
<text text-anchor="start" x="448" y="-772.5" font-family="Helvetica,sans-Serif" font-size="10.00">Intensity()</text>
<text text-anchor="start" x="428" y="-756.5" font-family="Helvetica,sans-Serif" font-size="10.00">+</text>
<text text-anchor="start" x="448" y="-756.5" font-family="Helvetica,sans-Serif" font-size="10.00">Intensity()</text>
<text text-anchor="start" x="428" y="-740.5" font-family="Helvetica,sans-Serif" font-size="10.00">+</text>
<text text-anchor="start" x="448" y="-740.5" font-family="Helvetica,sans-Serif" font-size="10.00">Intensity()</text>
<text text-anchor="start" x="428" y="-724.5" font-family="Helvetica,sans-Serif" font-size="10.00">+</text>
<text text-anchor="start" x="448" y="-724.5" font-family="Helvetica,sans-Serif" font-size="10.00">Intensity()</text>
<text text-anchor="start" x="428" y="-708.5" font-family="Helvetica,sans-Serif" font-size="10.00">+</text>
<text text-anchor="start" x="448" y="-708.5" font-family="Helvetica,sans-Serif" font-size="10.00">~Intensity()</text>
<text text-anchor="start" x="428" y="-692.5" font-family="Helvetica,sans-Serif" font-size="10.00">+</text>
<text text-anchor="start" x="448" y="-692.5" font-family="Helvetica,sans-Serif" font-size="10.00">get()</text>
<text text-anchor="start" x="428" y="-676.5" font-family="Helvetica,sans-Serif" font-size="10.00">+</text>
<text text-anchor="start" x="448" y="-676.5" font-family="Helvetica,sans-Serif" font-size="10.00">getModifiable()</text>
<text text-anchor="start" x="428" y="-660.5" font-family="Helvetica,sans-Serif" font-size="10.00">+</text>
<text text-anchor="start" x="448" y="-660.5" font-family="Helvetica,sans-Serif" font-size="10.00">operator*()</text>
<text text-anchor="start" x="428" y="-644.5" font-family="Helvetica,sans-Serif" font-size="10.00">+</text>
<text text-anchor="start" x="448" y="-644.5" font-family="Helvetica,sans-Serif" font-size="10.00">operator+()</text>
<text text-anchor="start" x="428" y="-628.5" font-family="Helvetica,sans-Serif" font-size="10.00">+</text>
<text text-anchor="start" x="448" y="-628.5" font-family="Helvetica,sans-Serif" font-size="10.00">operator&#45;()</text>
<text text-anchor="start" x="448" y="-612.5" font-family="Helvetica,sans-Serif" font-size="10.00">and 9 more...</text>
<polygon fill="#666666" stroke="#666666" points="414,-800 414,-800 536,-800 536,-800 414,-800"/>
<polygon fill="#666666" stroke="#666666" points="414,-784 414,-784 446,-784 446,-784 414,-784"/>
<polygon fill="#666666" stroke="#666666" points="446,-784 446,-784 536,-784 536,-784 446,-784"/>
<polygon fill="none" stroke="#666666" points="414,-606 414,-830 536,-830 536,-606 414,-606"/>
</a>
</g>
</g>
<!-- Node12&#45;&gt;Node9 -->
<g id="edge12_Node000009_Node000012" class="edge">
<title>Node12&#45;&gt;Node9</title>
<g id="a_edge12_Node000009_Node000012"><a xlink:title=" ">
<path fill="none" stroke="#63b8ff" d="M430.58,-606.37C422.64,-589.21 414.01,-571.91 405,-556 385.28,-521.16 360.55,-484.92 337.66,-453.61"/>
<polygon fill="none" stroke="#63b8ff" points="337.64,-453.57 330.86,-451.11 330.52,-443.91 337.3,-446.37 337.64,-453.57"/>
</a>
</g>
<text text-anchor="middle" x="431.38" y="-528.5" font-family="Helvetica,sans-Serif" font-size="10.00" fill="grey"> &#45;diffuseIntensity</text>
<text text-anchor="middle" x="431.38" y="-516.5" font-family="Helvetica,sans-Serif" font-size="10.00" fill="grey">&#45;emissionIntensity</text>
<text text-anchor="middle" x="431.38" y="-504.5" font-family="Helvetica,sans-Serif" font-size="10.00" fill="grey">&#45;shininess</text>
<text text-anchor="middle" x="431.38" y="-492.5" font-family="Helvetica,sans-Serif" font-size="10.00" fill="grey">&#45;specularIntensity</text>
</g>
<!-- Node13 -->
<g id="Node000013" class="node">
<title>Node13</title>
<g id="a_Node000013"><a xlink:href="class_g_l_e_s_c_1_1_render_1_1_intensity.html" target="_top" xlink:title=" ">
<polygon fill="white" stroke="none" points="536,-1164 414,-1164 414,-940 536,-940 536,-1164"/>
<text text-anchor="start" x="418.75" y="-1150.5" font-family="Helvetica,sans-Serif" font-size="10.00">GLESC::Render::Intensity</text>
<text text-anchor="start" x="457" y="-1138.5" font-family="Helvetica,sans-Serif" font-size="10.00">&lt; float &gt;</text>
<text text-anchor="start" x="429.5" y="-1122.5" font-family="Helvetica,sans-Serif" font-size="10.00">&#45;</text>
<text text-anchor="start" x="448" y="-1122.5" font-family="Helvetica,sans-Serif" font-size="10.00">intensity</text>
<text text-anchor="start" x="428" y="-1106.5" font-family="Helvetica,sans-Serif" font-size="10.00">+</text>
<text text-anchor="start" x="448" y="-1106.5" font-family="Helvetica,sans-Serif" font-size="10.00">Intensity()</text>
<text text-anchor="start" x="428" y="-1090.5" font-family="Helvetica,sans-Serif" font-size="10.00">+</text>
<text text-anchor="start" x="448" y="-1090.5" font-family="Helvetica,sans-Serif" font-size="10.00">Intensity()</text>
<text text-anchor="start" x="428" y="-1074.5" font-family="Helvetica,sans-Serif" font-size="10.00">+</text>
<text text-anchor="start" x="448" y="-1074.5" font-family="Helvetica,sans-Serif" font-size="10.00">Intensity()</text>
<text text-anchor="start" x="428" y="-1058.5" font-family="Helvetica,sans-Serif" font-size="10.00">+</text>
<text text-anchor="start" x="448" y="-1058.5" font-family="Helvetica,sans-Serif" font-size="10.00">Intensity()</text>
<text text-anchor="start" x="428" y="-1042.5" font-family="Helvetica,sans-Serif" font-size="10.00">+</text>
<text text-anchor="start" x="448" y="-1042.5" font-family="Helvetica,sans-Serif" font-size="10.00">~Intensity()</text>
<text text-anchor="start" x="428" y="-1026.5" font-family="Helvetica,sans-Serif" font-size="10.00">+</text>
<text text-anchor="start" x="448" y="-1026.5" font-family="Helvetica,sans-Serif" font-size="10.00">get()</text>
<text text-anchor="start" x="428" y="-1010.5" font-family="Helvetica,sans-Serif" font-size="10.00">+</text>
<text text-anchor="start" x="448" y="-1010.5" font-family="Helvetica,sans-Serif" font-size="10.00">getModifiable()</text>
<text text-anchor="start" x="428" y="-994.5" font-family="Helvetica,sans-Serif" font-size="10.00">+</text>
<text text-anchor="start" x="448" y="-994.5" font-family="Helvetica,sans-Serif" font-size="10.00">operator*()</text>
<text text-anchor="start" x="428" y="-978.5" font-family="Helvetica,sans-Serif" font-size="10.00">+</text>
<text text-anchor="start" x="448" y="-978.5" font-family="Helvetica,sans-Serif" font-size="10.00">operator+()</text>
<text text-anchor="start" x="428" y="-962.5" font-family="Helvetica,sans-Serif" font-size="10.00">+</text>
<text text-anchor="start" x="448" y="-962.5" font-family="Helvetica,sans-Serif" font-size="10.00">operator&#45;()</text>
<text text-anchor="start" x="448" y="-946.5" font-family="Helvetica,sans-Serif" font-size="10.00">and 9 more...</text>
<polygon fill="#666666" stroke="#666666" points="414,-1134 414,-1134 536,-1134 536,-1134 414,-1134"/>
<polygon fill="#666666" stroke="#666666" points="414,-1118 414,-1118 446,-1118 446,-1118 414,-1118"/>
<polygon fill="#666666" stroke="#666666" points="446,-1118 446,-1118 536,-1118 536,-1118 446,-1118"/>
<polygon fill="none" stroke="#666666" points="414,-940 414,-1164 536,-1164 536,-940 414,-940"/>
</a>
</g>
</g>
<!-- Node13&#45;&gt;Node12 -->
<g id="edge13_Node000012_Node000013" class="edge">
<title>Node13&#45;&gt;Node12</title>
<g id="a_edge13_Node000012_Node000013"><a xlink:title=" ">
<path fill="none" stroke="orange" d="M475,-929.08C475,-896.63 475,-861.75 475,-829.92"/>
<polygon fill="orange" stroke="orange" points="471.5,-928.94 475,-938.94 478.5,-928.94 471.5,-928.94"/>
</a>
</g>
<text text-anchor="middle" x="494.5" y="-906.5" font-family="Helvetica,sans-Serif" font-size="10.00" fill="grey"> &lt; float &gt;</text>
</g>
<!-- Node14 -->
<g id="Node000014" class="node">
<title>Node14</title>
<g id="a_Node000014"><a xlink:href="class_g_l_e_s_c_1_1_render_1_1_intensity.html" target="_top" xlink:title="Intensity class, to encapsulate values between 0 and 1.">
<polygon fill="white" stroke="none" points="536,-1448 414,-1448 414,-1224 536,-1224 536,-1448"/>
<text text-anchor="start" x="418.75" y="-1434.5" font-family="Helvetica,sans-Serif" font-size="10.00">GLESC::Render::Intensity</text>
<text text-anchor="start" x="437.12" y="-1422.5" font-family="Helvetica,sans-Serif" font-size="10.00">&lt; IntensityType &gt;</text>
<text text-anchor="start" x="429.5" y="-1406.5" font-family="Helvetica,sans-Serif" font-size="10.00">&#45;</text>
<text text-anchor="start" x="448" y="-1406.5" font-family="Helvetica,sans-Serif" font-size="10.00">intensity</text>
<text text-anchor="start" x="428" y="-1390.5" font-family="Helvetica,sans-Serif" font-size="10.00">+</text>
<text text-anchor="start" x="448" y="-1390.5" font-family="Helvetica,sans-Serif" font-size="10.00">Intensity()</text>
<text text-anchor="start" x="428" y="-1374.5" font-family="Helvetica,sans-Serif" font-size="10.00">+</text>
<text text-anchor="start" x="448" y="-1374.5" font-family="Helvetica,sans-Serif" font-size="10.00">Intensity()</text>
<text text-anchor="start" x="428" y="-1358.5" font-family="Helvetica,sans-Serif" font-size="10.00">+</text>
<text text-anchor="start" x="448" y="-1358.5" font-family="Helvetica,sans-Serif" font-size="10.00">Intensity()</text>
<text text-anchor="start" x="428" y="-1342.5" font-family="Helvetica,sans-Serif" font-size="10.00">+</text>
<text text-anchor="start" x="448" y="-1342.5" font-family="Helvetica,sans-Serif" font-size="10.00">Intensity()</text>
<text text-anchor="start" x="428" y="-1326.5" font-family="Helvetica,sans-Serif" font-size="10.00">+</text>
<text text-anchor="start" x="448" y="-1326.5" font-family="Helvetica,sans-Serif" font-size="10.00">~Intensity()</text>
<text text-anchor="start" x="428" y="-1310.5" font-family="Helvetica,sans-Serif" font-size="10.00">+</text>
<text text-anchor="start" x="448" y="-1310.5" font-family="Helvetica,sans-Serif" font-size="10.00">get()</text>
<text text-anchor="start" x="428" y="-1294.5" font-family="Helvetica,sans-Serif" font-size="10.00">+</text>
<text text-anchor="start" x="448" y="-1294.5" font-family="Helvetica,sans-Serif" font-size="10.00">getModifiable()</text>
<text text-anchor="start" x="428" y="-1278.5" font-family="Helvetica,sans-Serif" font-size="10.00">+</text>
<text text-anchor="start" x="448" y="-1278.5" font-family="Helvetica,sans-Serif" font-size="10.00">operator*()</text>
<text text-anchor="start" x="428" y="-1262.5" font-family="Helvetica,sans-Serif" font-size="10.00">+</text>
<text text-anchor="start" x="448" y="-1262.5" font-family="Helvetica,sans-Serif" font-size="10.00">operator+()</text>
<text text-anchor="start" x="428" y="-1246.5" font-family="Helvetica,sans-Serif" font-size="10.00">+</text>
<text text-anchor="start" x="448" y="-1246.5" font-family="Helvetica,sans-Serif" font-size="10.00">operator&#45;()</text>
<text text-anchor="start" x="448" y="-1230.5" font-family="Helvetica,sans-Serif" font-size="10.00">and 9 more...</text>
<polygon fill="#666666" stroke="#666666" points="414,-1418 414,-1418 536,-1418 536,-1418 414,-1418"/>
<polygon fill="#666666" stroke="#666666" points="414,-1402 414,-1402 446,-1402 446,-1402 414,-1402"/>
<polygon fill="#666666" stroke="#666666" points="446,-1402 446,-1402 536,-1402 536,-1402 446,-1402"/>
<polygon fill="none" stroke="#666666" points="414,-1224 414,-1448 536,-1448 536,-1224 414,-1224"/>
</a>
</g>
</g>
<!-- Node14&#45;&gt;Node13 -->
<g id="edge14_Node000013_Node000014" class="edge">
<title>Node14&#45;&gt;Node13</title>
<g id="a_edge14_Node000013_Node000014"><a xlink:title=" ">
<path fill="none" stroke="orange" d="M475,-1213.08C475,-1196.7 475,-1179.96 475,-1163.79"/>
<polygon fill="orange" stroke="orange" points="471.5,-1212.84 475,-1222.84 478.5,-1212.84 471.5,-1212.84"/>
</a>
</g>
<text text-anchor="middle" x="494.5" y="-1190.5" font-family="Helvetica,sans-Serif" font-size="10.00" fill="grey"> &lt; float &gt;</text>
</g>
</g>
</svg>
