<?xml version="1.0" encoding="UTF-8" standalone="no"?>
<!DOCTYPE svg PUBLIC "-//W3C//DTD SVG 1.1//EN"
 "http://www.w3.org/Graphics/SVG/1.1/DTD/svg11.dtd">
<!-- Generated by graphviz version 11.0.0 (20240428.1522)
 -->
<!-- Title: GLESC::Transform::Interpolator::interpolate Pages: 1 -->
<svg width="671pt" height="466pt"
 viewBox="0.00 0.00 670.50 466.00" xmlns="http://www.w3.org/2000/svg" xmlns:xlink="http://www.w3.org/1999/xlink">
<g id="graph0" class="graph" transform="scale(1 1) rotate(0) translate(4 462)">
<title>GLESC::Transform::Interpolator::interpolate</title>
<!-- Node1 -->
<g id="Node000001" class="node">
<title>Node1</title>
<g id="a_Node000001"><a xlink:title="Interpolates between the current and the last transform.">
<polygon fill="#999999" stroke="#666666" points="151.75,-245 0,-245 0,-213 151.75,-213 151.75,-245"/>
<text text-anchor="start" x="8" y="-231.5" font-family="Helvetica,sans-Serif" font-size="10.00">GLESC::Transform::Interpolator</text>
<text text-anchor="middle" x="75.88" y="-219.5" font-family="Helvetica,sans-Serif" font-size="10.00">::interpolate</text>
</a>
</g>
</g>
<!-- Node2 -->
<g id="Node000002" class="node">
<title>Node2</title>
<g id="a_Node000002"><a xlink:href="namespace_g_l_e_s_c_1_1_math.html#a04db3782a0754ba2d22eb5d159dd681c" target="_top" xlink:title="Calculates the absolute value of a number.">
<polygon fill="white" stroke="#666666" points="310.25,-458 211.75,-458 211.75,-438 310.25,-438 310.25,-458"/>
<text text-anchor="middle" x="261" y="-444.5" font-family="Helvetica,sans-Serif" font-size="10.00">GLESC::Math::abs</text>
</a>
</g>
</g>
<!-- Node1&#45;&gt;Node2 -->
<g id="edge1_Node000001_Node000002" class="edge">
<title>Node1&#45;&gt;Node2</title>
<g id="a_edge1_Node000001_Node000002"><a xlink:title=" ">
<path fill="none" stroke="#63b8ff" d="M81.14,-245.37C92.01,-283.71 124.44,-379.78 187.75,-429 191.78,-432.13 196.27,-434.75 200.99,-436.93"/>
<polygon fill="#63b8ff" stroke="#63b8ff" points="199.6,-440.15 210.19,-440.52 202.14,-433.63 199.6,-440.15"/>
</a>
</g>
</g>
<!-- Node3 -->
<g id="Node000003" class="node">
<title>Node3</title>
<g id="a_Node000003"><a xlink:href="struct_g_l_e_s_c_1_1_transform_1_1_transform.html#ae4a8dc1a83ab6390a3bb642c736658fb" target="_top" xlink:title=" ">
<polygon fill="white" stroke="#666666" points="334.25,-420 187.75,-420 187.75,-388 334.25,-388 334.25,-420"/>
<text text-anchor="start" x="195.75" y="-406.5" font-family="Helvetica,sans-Serif" font-size="10.00">GLESC::Transform::Transform</text>
<text text-anchor="middle" x="261" y="-394.5" font-family="Helvetica,sans-Serif" font-size="10.00">::getPosition</text>
</a>
</g>
</g>
<!-- Node1&#45;&gt;Node3 -->
<g id="edge2_Node000001_Node000003" class="edge">
<title>Node1&#45;&gt;Node3</title>
<g id="a_edge2_Node000001_Node000003"><a xlink:title=" ">
<path fill="none" stroke="#63b8ff" d="M84.56,-245.06C99.94,-275.53 137.38,-341.99 187.75,-379 189.12,-380.01 190.53,-380.98 191.98,-381.91"/>
<polygon fill="#63b8ff" stroke="#63b8ff" points="190.24,-384.94 200.68,-386.79 193.68,-378.84 190.24,-384.94"/>
</a>
</g>
</g>
<!-- Node4 -->
<g id="Node000004" class="node">
<title>Node4</title>
<g id="a_Node000004"><a xlink:href="struct_g_l_e_s_c_1_1_transform_1_1_transform.html#a18dfe1f0c2516d6dbd95389836633737" target="_top" xlink:title=" ">
<polygon fill="white" stroke="#666666" points="334.25,-370 187.75,-370 187.75,-338 334.25,-338 334.25,-370"/>
<text text-anchor="start" x="195.75" y="-356.5" font-family="Helvetica,sans-Serif" font-size="10.00">GLESC::Transform::Transform</text>
<text text-anchor="middle" x="261" y="-344.5" font-family="Helvetica,sans-Serif" font-size="10.00">::getRotation</text>
</a>
</g>
</g>
<!-- Node1&#45;&gt;Node4 -->
<g id="edge3_Node000001_Node000004" class="edge">
<title>Node1&#45;&gt;Node4</title>
<g id="a_edge3_Node000001_Node000004"><a xlink:title=" ">
<path fill="none" stroke="#63b8ff" d="M91.08,-245.4C110.79,-267.23 148.47,-305.8 187.75,-329 189.93,-330.29 192.19,-331.52 194.5,-332.71"/>
<polygon fill="#63b8ff" stroke="#63b8ff" points="192.99,-335.86 203.53,-336.92 195.95,-329.52 192.99,-335.86"/>
</a>
</g>
</g>
<!-- Node5 -->
<g id="Node000005" class="node">
<title>Node5</title>
<g id="a_Node000005"><a xlink:href="struct_g_l_e_s_c_1_1_transform_1_1_transform.html#ab57c46efd7dc4ca23620a8030b8bd9dc" target="_top" xlink:title=" ">
<polygon fill="white" stroke="#666666" points="334.25,-320 187.75,-320 187.75,-288 334.25,-288 334.25,-320"/>
<text text-anchor="start" x="195.75" y="-306.5" font-family="Helvetica,sans-Serif" font-size="10.00">GLESC::Transform::Transform</text>
<text text-anchor="middle" x="261" y="-294.5" font-family="Helvetica,sans-Serif" font-size="10.00">::getScale</text>
</a>
</g>
</g>
<!-- Node1&#45;&gt;Node5 -->
<g id="edge4_Node000001_Node000005" class="edge">
<title>Node1&#45;&gt;Node5</title>
<g id="a_edge4_Node000001_Node000005"><a xlink:title=" ">
<path fill="none" stroke="#63b8ff" d="M110.99,-245.35C132.75,-255.53 161.65,-268.63 187.75,-279 191.62,-280.54 195.62,-282.07 199.67,-283.58"/>
<polygon fill="#63b8ff" stroke="#63b8ff" points="198.41,-286.85 209,-286.99 200.81,-280.27 198.41,-286.85"/>
</a>
</g>
</g>
<!-- Node6 -->
<g id="Node000006" class="node">
<title>Node6</title>
<g id="a_Node000006"><a xlink:href="class_g_l_e_s_c_1_1_math_1_1_vector.html#a2641be423d1cbbe4654f30ad8ac671a1" target="_top" xlink:title="Returns the x (first) value of the vector.">
<polygon fill="white" stroke="#666666" points="316.62,-270 205.38,-270 205.38,-238 316.62,-238 316.62,-270"/>
<text text-anchor="start" x="213.38" y="-256.5" font-family="Helvetica,sans-Serif" font-size="10.00">GLESC::Math::Vector</text>
<text text-anchor="middle" x="261" y="-244.5" font-family="Helvetica,sans-Serif" font-size="10.00">::getX</text>
</a>
</g>
</g>
<!-- Node1&#45;&gt;Node6 -->
<g id="edge5_Node000001_Node000006" class="edge">
<title>Node1&#45;&gt;Node6</title>
<g id="a_edge5_Node000001_Node000006"><a xlink:title=" ">
<path fill="none" stroke="#63b8ff" d="M152.15,-239.28C165.95,-241.16 180.25,-243.11 193.76,-244.96"/>
<polygon fill="#63b8ff" stroke="#63b8ff" points="193.01,-248.39 203.39,-246.27 193.95,-241.45 193.01,-248.39"/>
</a>
</g>
</g>
<!-- Node7 -->
<g id="Node000007" class="node">
<title>Node7</title>
<g id="a_Node000007"><a xlink:href="class_g_l_e_s_c_1_1_math_1_1_vector.html#a26f58d2d5f126f43869c96a2f2b0d64a" target="_top" xlink:title="Returns the y (second) value of the vector.">
<polygon fill="white" stroke="#666666" points="316.62,-220 205.38,-220 205.38,-188 316.62,-188 316.62,-220"/>
<text text-anchor="start" x="213.38" y="-206.5" font-family="Helvetica,sans-Serif" font-size="10.00">GLESC::Math::Vector</text>
<text text-anchor="middle" x="261" y="-194.5" font-family="Helvetica,sans-Serif" font-size="10.00">::getY</text>
</a>
</g>
</g>
<!-- Node1&#45;&gt;Node7 -->
<g id="edge6_Node000001_Node000007" class="edge">
<title>Node1&#45;&gt;Node7</title>
<g id="a_edge6_Node000001_Node000007"><a xlink:title=" ">
<path fill="none" stroke="#63b8ff" d="M152.15,-218.72C165.95,-216.84 180.25,-214.89 193.76,-213.04"/>
<polygon fill="#63b8ff" stroke="#63b8ff" points="193.95,-216.55 203.39,-211.73 193.01,-209.61 193.95,-216.55"/>
</a>
</g>
</g>
<!-- Node8 -->
<g id="Node000008" class="node">
<title>Node8</title>
<g id="a_Node000008"><a xlink:href="class_g_l_e_s_c_1_1_math_1_1_vector.html#a8a188bb5d89dc318ea1867de5dc43c87" target="_top" xlink:title="Returns the z (third) value of the vector.">
<polygon fill="white" stroke="#666666" points="316.62,-170 205.38,-170 205.38,-138 316.62,-138 316.62,-170"/>
<text text-anchor="start" x="213.38" y="-156.5" font-family="Helvetica,sans-Serif" font-size="10.00">GLESC::Math::Vector</text>
<text text-anchor="middle" x="261" y="-144.5" font-family="Helvetica,sans-Serif" font-size="10.00">::getZ</text>
</a>
</g>
</g>
<!-- Node1&#45;&gt;Node8 -->
<g id="edge7_Node000001_Node000008" class="edge">
<title>Node1&#45;&gt;Node8</title>
<g id="a_edge7_Node000001_Node000008"><a xlink:title=" ">
<path fill="none" stroke="#63b8ff" d="M110.99,-212.65C132.75,-202.47 161.65,-189.37 187.75,-179 191.62,-177.46 195.62,-175.93 199.67,-174.42"/>
<polygon fill="#63b8ff" stroke="#63b8ff" points="200.81,-177.73 209,-171.01 198.41,-171.15 200.81,-177.73"/>
</a>
</g>
</g>
<!-- Node9 -->
<g id="Node000009" class="node">
<title>Node9</title>
<g id="a_Node000009"><a xlink:href="class_g_l_e_s_c_1_1_math_1_1_vector.html#af661cb085e94983b27190b5e728eb103" target="_top" xlink:title="Calculates the linear interpolation between two vectors using a factor.">
<polygon fill="white" stroke="#666666" points="316.62,-120 205.38,-120 205.38,-88 316.62,-88 316.62,-120"/>
<text text-anchor="start" x="213.38" y="-106.5" font-family="Helvetica,sans-Serif" font-size="10.00">GLESC::Math::Vector</text>
<text text-anchor="middle" x="261" y="-94.5" font-family="Helvetica,sans-Serif" font-size="10.00">::lerp</text>
</a>
</g>
</g>
<!-- Node1&#45;&gt;Node9 -->
<g id="edge8_Node000001_Node000009" class="edge">
<title>Node1&#45;&gt;Node9</title>
<g id="a_edge8_Node000001_Node000009"><a xlink:title=" ">
<path fill="none" stroke="#63b8ff" d="M91.08,-212.6C110.79,-190.77 148.47,-152.2 187.75,-129 189.93,-127.71 192.19,-126.48 194.5,-125.29"/>
<polygon fill="#63b8ff" stroke="#63b8ff" points="195.95,-128.48 203.53,-121.08 192.99,-122.14 195.95,-128.48"/>
</a>
</g>
</g>
<!-- Node12 -->
<g id="Node000012" class="node">
<title>Node12</title>
<g id="a_Node000012"><a xlink:href="namespace_g_l_e_s_c_1_1_math.html#ad2df75a6181d9d1d318d20d224a2866b" target="_top" xlink:title="Calculates the min of two values.">
<polygon fill="white" stroke="#666666" points="310.25,-70 211.75,-70 211.75,-50 310.25,-50 310.25,-70"/>
<text text-anchor="middle" x="261" y="-56.5" font-family="Helvetica,sans-Serif" font-size="10.00">GLESC::Math::min</text>
</a>
</g>
</g>
<!-- Node1&#45;&gt;Node12 -->
<g id="edge11_Node000001_Node000012" class="edge">
<title>Node1&#45;&gt;Node12</title>
<g id="a_edge11_Node000001_Node000012"><a xlink:title=" ">
<path fill="none" stroke="#63b8ff" d="M84.32,-212.59C99.27,-181.52 136.02,-114.07 187.75,-79 191.85,-76.22 196.33,-73.85 200.99,-71.83"/>
<polygon fill="#63b8ff" stroke="#63b8ff" points="201.84,-75.25 209.97,-68.46 199.38,-68.69 201.84,-75.25"/>
</a>
</g>
</g>
<!-- Node13 -->
<g id="Node000013" class="node">
<title>Node13</title>
<g id="a_Node000013"><a xlink:href="struct_g_l_e_s_c_1_1_transform_1_1_transform.html#acd47a4a0a26749ef03c731a2d9d6a548" target="_top" xlink:title=" ">
<polygon fill="white" stroke="#666666" points="334.25,-32 187.75,-32 187.75,0 334.25,0 334.25,-32"/>
<text text-anchor="start" x="195.75" y="-18.5" font-family="Helvetica,sans-Serif" font-size="10.00">GLESC::Transform::Transform</text>
<text text-anchor="middle" x="261" y="-6.5" font-family="Helvetica,sans-Serif" font-size="10.00">::setPosition</text>
</a>
</g>
</g>
<!-- Node1&#45;&gt;Node13 -->
<g id="edge12_Node000001_Node000013" class="edge">
<title>Node1&#45;&gt;Node13</title>
<g id="a_edge12_Node000001_Node000013"><a xlink:title=" ">
<path fill="none" stroke="#63b8ff" d="M82.14,-212.56C94.59,-176.3 129.23,-88.86 187.75,-41 188.88,-40.08 190.04,-39.19 191.23,-38.33"/>
<polygon fill="#63b8ff" stroke="#63b8ff" points="192.94,-41.39 199.62,-33.17 189.27,-35.43 192.94,-41.39"/>
</a>
</g>
</g>
<!-- Node10 -->
<g id="Node000010" class="node">
<title>Node10</title>
<g id="a_Node000010"><a xlink:href="class_g_l_e_s_c_1_1_math_1_1_vector_algorithms.html#a5c4d9fdbfe7c5f3af132b3fdf3f1cb10" target="_top" xlink:title=" ">
<polygon fill="white" stroke="#666666" points="528,-120 370.25,-120 370.25,-88 528,-88 528,-120"/>
<text text-anchor="start" x="378.25" y="-106.5" font-family="Helvetica,sans-Serif" font-size="10.00">GLESC::Math::VectorAlgorithms</text>
<text text-anchor="middle" x="449.12" y="-94.5" font-family="Helvetica,sans-Serif" font-size="10.00">::lerp</text>
</a>
</g>
</g>
<!-- Node9&#45;&gt;Node10 -->
<g id="edge9_Node000009_Node000010" class="edge">
<title>Node9&#45;&gt;Node10</title>
<g id="a_edge9_Node000009_Node000010"><a xlink:title=" ">
<path fill="none" stroke="#63b8ff" d="M317.09,-104C330.2,-104 344.52,-104 358.73,-104"/>
<polygon fill="#63b8ff" stroke="#63b8ff" points="358.57,-107.5 368.57,-104 358.57,-100.5 358.57,-107.5"/>
</a>
</g>
</g>
<!-- Node11 -->
<g id="Node000011" class="node">
<title>Node11</title>
<g id="a_Node000011"><a xlink:href="namespace_g_l_e_s_c_1_1_math.html#a1f546879c71be9881c98dc8c4e3ee9a5" target="_top" xlink:title="Linear interpolation between two values.">
<polygon fill="white" stroke="#666666" points="662.5,-114 564,-114 564,-94 662.5,-94 662.5,-114"/>
<text text-anchor="middle" x="613.25" y="-100.5" font-family="Helvetica,sans-Serif" font-size="10.00">GLESC::Math::lerp</text>
</a>
</g>
</g>
<!-- Node10&#45;&gt;Node11 -->
<g id="edge10_Node000010_Node000011" class="edge">
<title>Node10&#45;&gt;Node11</title>
<g id="a_edge10_Node000010_Node000011"><a xlink:title=" ">
<path fill="none" stroke="#63b8ff" d="M528.34,-104C536.5,-104 544.7,-104 552.6,-104"/>
<polygon fill="#63b8ff" stroke="#63b8ff" points="552.43,-107.5 562.43,-104 552.43,-100.5 552.43,-107.5"/>
</a>
</g>
</g>
</g>
</svg>
