<?xml version="1.0" encoding="UTF-8" standalone="no"?>
<!DOCTYPE svg PUBLIC "-//W3C//DTD SVG 1.1//EN"
 "http://www.w3.org/Graphics/SVG/1.1/DTD/svg11.dtd">
<!-- Generated by graphviz version 11.0.0 (20240428.1522)
 -->
<!-- Title: GLESC::Render::Renderer::Camera Pages: 1 -->
<!--zoomable 860 -->

<svg id="main" version="1.1" xmlns="http://www.w3.org/2000/svg" xmlns:xlink="http://www.w3.org/1999/xlink" xml:space="preserve" onload="init(evt)">
<style type="text/css"><![CDATA[
.node, .edge {opacity: 0.7;}
.node.selected, .edge.selected {opacity: 1;}
.edge:hover path { stroke: red; }
.edge:hover polygon { stroke: red; fill: red; }
]]></style>

<defs>
  <circle id="rim" cx="0" cy="0" r="7"/>
  <circle id="rim2" cx="0" cy="0" r="3.5"/>
  <g id="zoomPlus">
    <use xlink:href="#rim" fill="#404040"><set attributeName="fill" to="#808080" begin="zoomplus.mouseover" end="zoomplus.mouseout"/></use>
    <path d="M-4,0h8M0,-4v8" fill="none" stroke="white" stroke-width="1.5" pointer-events="none"/>
  </g>
  <g id="zoomMin">
    <use xlink:href="#rim" fill="#404040"><set attributeName="fill" to="#808080" begin="zoomminus.mouseover" end="zoomminus.mouseout"/></use>
    <path d="M-4,0h8" fill="none" stroke="white" stroke-width="1.5" pointer-events="none"/>
  </g>
  <g id="arrowUp" transform="translate(30 24)">
    <use xlink:href="#rim"/>
    <path pointer-events="none" fill="none" stroke="white" stroke-width="1.5" d="M0,-3.0v7 M-2.5,-0.5L0,-3.0L2.5,-0.5"/>
  </g>
  <g id="arrowRight" transform="rotate(90) translate(36 -43)">
    <use xlink:href="#rim"/>
    <path pointer-events="none" fill="none" stroke="white" stroke-width="1.5" d="M0,-3.0v7 M-2.5,-0.5L0,-3.0L2.5,-0.5"/>
  </g>
  <g id="arrowDown" transform="rotate(180) translate(-30 -48)">
    <use xlink:href="#rim"/>
    <path pointer-events="none" fill="none" stroke="white" stroke-width="1.5" d="M0,-3.0v7 M-2.5,-0.5L0,-3.0L2.5,-0.5"/>
  </g>
  <g id="arrowLeft" transform="rotate(270) translate(-36 17)">
    <use xlink:href="#rim"/>
    <path pointer-events="none" fill="none" stroke="white" stroke-width="1.5" d="M0,-3.0v7 M-2.5,-0.5L0,-3.0L2.5,-0.5"/>
  </g>
  <g id="resetDef">
    <use xlink:href="#rim2" fill="#404040"><set attributeName="fill" to="#808080" begin="reset.mouseover" end="reset.mouseout"/></use>
  </g>
</defs>
<script type="application/ecmascript">
var viewWidth = 441;
var viewHeight = 860;
var sectionId = 'dynsection-2';
</script>
<script type="application/ecmascript" xlink:href="svg.min.js"/>
<svg id="graph" class="graph">
<g id="viewport">
<title>GLESC::Render::Renderer::Camera</title>
<!-- Node1 -->
<g id="Node000001" class="node">
<title>Node1</title>
<g id="a_Node000001"><a xlink:title=" ">
<polygon fill="#999999" stroke="none" points="178.5,-64 54.5,-64 54.5,0 178.5,0 178.5,-64"/>
<text text-anchor="start" x="59.12" y="-50.5" font-family="Helvetica,sans-Serif" font-size="10.00">GLESC::Render::Renderer</text>
<text text-anchor="start" x="96.62" y="-38.5" font-family="Helvetica,sans-Serif" font-size="10.00">::Camera</text>
<text text-anchor="start" x="115" y="-22.5" font-family="Helvetica,sans-Serif" font-size="10.00"> </text>
<text text-anchor="start" x="115" y="-6.5" font-family="Helvetica,sans-Serif" font-size="10.00"> </text>
<polygon fill="#666666" stroke="#666666" points="54.5,-34 54.5,-34 178.5,-34 178.5,-34 54.5,-34"/>
<polygon fill="#666666" stroke="#666666" points="54.5,-18 54.5,-18 178.5,-18 178.5,-18 54.5,-18"/>
<polygon fill="none" stroke="#666666" points="54.5,0 54.5,-64 178.5,-64 178.5,0 54.5,0"/>
</a>
</g>
</g>
<!-- Node2 -->
<g id="Node000002" class="node">
<title>Node2</title>
<g id="a_Node000002"><a xlink:href="class_g_l_e_s_c_1_1_render_1_1_camera_perspective.html" target="_top" xlink:title=" ">
<polygon fill="white" stroke="none" points="169,-420 0,-420 0,-128 169,-128 169,-420"/>
<text text-anchor="start" x="4.62" y="-406.5" font-family="Helvetica,sans-Serif" font-size="10.00">GLESC::Render::CameraPerspective</text>
<text text-anchor="start" x="19.5" y="-390.5" font-family="Helvetica,sans-Serif" font-size="10.00">&#45;</text>
<text text-anchor="start" x="42" y="-390.5" font-family="Helvetica,sans-Serif" font-size="10.00">dirty</text>
<text text-anchor="start" x="19.5" y="-374.5" font-family="Helvetica,sans-Serif" font-size="10.00">&#45;</text>
<text text-anchor="start" x="42" y="-374.5" font-family="Helvetica,sans-Serif" font-size="10.00">farPlane</text>
<text text-anchor="start" x="19.5" y="-358.5" font-family="Helvetica,sans-Serif" font-size="10.00">&#45;</text>
<text text-anchor="start" x="42" y="-358.5" font-family="Helvetica,sans-Serif" font-size="10.00">fovDegrees</text>
<text text-anchor="start" x="19.5" y="-342.5" font-family="Helvetica,sans-Serif" font-size="10.00">&#45;</text>
<text text-anchor="start" x="42" y="-342.5" font-family="Helvetica,sans-Serif" font-size="10.00">nearPlane</text>
<text text-anchor="start" x="19.5" y="-326.5" font-family="Helvetica,sans-Serif" font-size="10.00">&#45;</text>
<text text-anchor="start" x="42" y="-326.5" font-family="Helvetica,sans-Serif" font-size="10.00">viewHeight</text>
<text text-anchor="start" x="19.5" y="-310.5" font-family="Helvetica,sans-Serif" font-size="10.00">&#45;</text>
<text text-anchor="start" x="42" y="-310.5" font-family="Helvetica,sans-Serif" font-size="10.00">viewWidth</text>
<text text-anchor="start" x="18" y="-294.5" font-family="Helvetica,sans-Serif" font-size="10.00">+</text>
<text text-anchor="start" x="42" y="-294.5" font-family="Helvetica,sans-Serif" font-size="10.00">CameraPerspective()</text>
<text text-anchor="start" x="18" y="-278.5" font-family="Helvetica,sans-Serif" font-size="10.00">+</text>
<text text-anchor="start" x="42" y="-278.5" font-family="Helvetica,sans-Serif" font-size="10.00">CameraPerspective()</text>
<text text-anchor="start" x="18" y="-262.5" font-family="Helvetica,sans-Serif" font-size="10.00">+</text>
<text text-anchor="start" x="42" y="-262.5" font-family="Helvetica,sans-Serif" font-size="10.00">getDebuggingValues()</text>
<text text-anchor="start" x="18" y="-246.5" font-family="Helvetica,sans-Serif" font-size="10.00">+</text>
<text text-anchor="start" x="42" y="-246.5" font-family="Helvetica,sans-Serif" font-size="10.00">getFarPlane()</text>
<text text-anchor="start" x="18" y="-230.5" font-family="Helvetica,sans-Serif" font-size="10.00">+</text>
<text text-anchor="start" x="42" y="-230.5" font-family="Helvetica,sans-Serif" font-size="10.00">getFovDegrees()</text>
<text text-anchor="start" x="18" y="-214.5" font-family="Helvetica,sans-Serif" font-size="10.00">+</text>
<text text-anchor="start" x="42" y="-214.5" font-family="Helvetica,sans-Serif" font-size="10.00">getNearPlane()</text>
<text text-anchor="start" x="18" y="-198.5" font-family="Helvetica,sans-Serif" font-size="10.00">+</text>
<text text-anchor="start" x="42" y="-198.5" font-family="Helvetica,sans-Serif" font-size="10.00">getViewHeight()</text>
<text text-anchor="start" x="18" y="-182.5" font-family="Helvetica,sans-Serif" font-size="10.00">+</text>
<text text-anchor="start" x="42" y="-182.5" font-family="Helvetica,sans-Serif" font-size="10.00">getViewWidth()</text>
<text text-anchor="start" x="18" y="-166.5" font-family="Helvetica,sans-Serif" font-size="10.00">+</text>
<text text-anchor="start" x="42" y="-166.5" font-family="Helvetica,sans-Serif" font-size="10.00">isDirty()</text>
<text text-anchor="start" x="18" y="-150.5" font-family="Helvetica,sans-Serif" font-size="10.00">+</text>
<text text-anchor="start" x="42" y="-150.5" font-family="Helvetica,sans-Serif" font-size="10.00">setClean()</text>
<text text-anchor="start" x="42" y="-134.5" font-family="Helvetica,sans-Serif" font-size="10.00">and 7 more...</text>
<polygon fill="#666666" stroke="#666666" points="0,-402 0,-402 169,-402 169,-402 0,-402"/>
<polygon fill="#666666" stroke="#666666" points="0,-306 0,-306 40,-306 40,-306 0,-306"/>
<polygon fill="#666666" stroke="#666666" points="40,-306 40,-306 169,-306 169,-306 40,-306"/>
<polygon fill="none" stroke="#666666" points="0,-128 0,-420 169,-420 169,-128 0,-128"/>
</a>
</g>
</g>
<!-- Node2&#45;&gt;Node1 -->
<g id="edge1_Node000001_Node000002" class="edge">
<title>Node2&#45;&gt;Node1</title>
<g id="a_edge1_Node000001_Node000002"><a xlink:title=" ">
<path fill="none" stroke="#63b8ff" d="M103.81,-128.2C106.32,-109.36 108.72,-91.38 110.74,-76.22"/>
<polygon fill="none" stroke="#63b8ff" points="110.71,-76.46 107.53,-69.98 112.29,-64.56 115.46,-71.04 110.71,-76.46"/>
</a>
</g>
<text text-anchor="middle" x="131.12" y="-84.5" font-family="Helvetica,sans-Serif" font-size="10.00" fill="grey"> +camera</text>
</g>
<!-- Node3 -->
<g id="Node000003" class="node">
<title>Node3</title>
<g id="a_Node000003"><a xlink:href="struct_g_l_e_s_c_1_1_transform_1_1_transform.html" target="_top" xlink:title="Struct that represents the position, rotation, and scale of an entity in the game world.">
<polygon fill="white" stroke="none" points="327.5,-436 187.5,-436 187.5,-112 327.5,-112 327.5,-436"/>
<text text-anchor="start" x="192.25" y="-422.5" font-family="Helvetica,sans-Serif" font-size="10.00">GLESC::Transform::Transform</text>
<text text-anchor="start" x="199.5" y="-406.5" font-family="Helvetica,sans-Serif" font-size="10.00">&#45;</text>
<text text-anchor="start" x="214.5" y="-406.5" font-family="Helvetica,sans-Serif" font-size="10.00">dirty</text>
<text text-anchor="start" x="199.5" y="-390.5" font-family="Helvetica,sans-Serif" font-size="10.00">&#45;</text>
<text text-anchor="start" x="214.5" y="-390.5" font-family="Helvetica,sans-Serif" font-size="10.00">modelDirty</text>
<text text-anchor="start" x="199.5" y="-374.5" font-family="Helvetica,sans-Serif" font-size="10.00">&#45;</text>
<text text-anchor="start" x="214.5" y="-374.5" font-family="Helvetica,sans-Serif" font-size="10.00">rotateDirty</text>
<text text-anchor="start" x="199.5" y="-358.5" font-family="Helvetica,sans-Serif" font-size="10.00">&#45;</text>
<text text-anchor="start" x="214.5" y="-358.5" font-family="Helvetica,sans-Serif" font-size="10.00">scaleDirty</text>
<text text-anchor="start" x="199.5" y="-342.5" font-family="Helvetica,sans-Serif" font-size="10.00">&#45;</text>
<text text-anchor="start" x="214.5" y="-342.5" font-family="Helvetica,sans-Serif" font-size="10.00">translateDirty</text>
<text text-anchor="start" x="198" y="-326.5" font-family="Helvetica,sans-Serif" font-size="10.00">+</text>
<text text-anchor="start" x="214.5" y="-326.5" font-family="Helvetica,sans-Serif" font-size="10.00">Transform()</text>
<text text-anchor="start" x="198" y="-310.5" font-family="Helvetica,sans-Serif" font-size="10.00">+</text>
<text text-anchor="start" x="214.5" y="-310.5" font-family="Helvetica,sans-Serif" font-size="10.00">Transform()</text>
<text text-anchor="start" x="198" y="-294.5" font-family="Helvetica,sans-Serif" font-size="10.00">+</text>
<text text-anchor="start" x="214.5" y="-294.5" font-family="Helvetica,sans-Serif" font-size="10.00">addPosition()</text>
<text text-anchor="start" x="198" y="-278.5" font-family="Helvetica,sans-Serif" font-size="10.00">+</text>
<text text-anchor="start" x="214.5" y="-278.5" font-family="Helvetica,sans-Serif" font-size="10.00">addPosition()</text>
<text text-anchor="start" x="198" y="-262.5" font-family="Helvetica,sans-Serif" font-size="10.00">+</text>
<text text-anchor="start" x="214.5" y="-262.5" font-family="Helvetica,sans-Serif" font-size="10.00">addRotation()</text>
<text text-anchor="start" x="198" y="-246.5" font-family="Helvetica,sans-Serif" font-size="10.00">+</text>
<text text-anchor="start" x="214.5" y="-246.5" font-family="Helvetica,sans-Serif" font-size="10.00">addRotation()</text>
<text text-anchor="start" x="198" y="-230.5" font-family="Helvetica,sans-Serif" font-size="10.00">+</text>
<text text-anchor="start" x="214.5" y="-230.5" font-family="Helvetica,sans-Serif" font-size="10.00">addScale()</text>
<text text-anchor="start" x="198" y="-214.5" font-family="Helvetica,sans-Serif" font-size="10.00">+</text>
<text text-anchor="start" x="214.5" y="-214.5" font-family="Helvetica,sans-Serif" font-size="10.00">addScale()</text>
<text text-anchor="start" x="198" y="-198.5" font-family="Helvetica,sans-Serif" font-size="10.00">+</text>
<text text-anchor="start" x="214.5" y="-198.5" font-family="Helvetica,sans-Serif" font-size="10.00">forward()</text>
<text text-anchor="start" x="198" y="-182.5" font-family="Helvetica,sans-Serif" font-size="10.00">+</text>
<text text-anchor="start" x="214.5" y="-182.5" font-family="Helvetica,sans-Serif" font-size="10.00">getDebuggingValues()</text>
<text text-anchor="start" x="214.5" y="-166.5" font-family="Helvetica,sans-Serif" font-size="10.00">and 17 more...</text>
<text text-anchor="start" x="199.5" y="-150.5" font-family="Helvetica,sans-Serif" font-size="10.00">&#45;</text>
<text text-anchor="start" x="214.5" y="-150.5" font-family="Helvetica,sans-Serif" font-size="10.00">calculateForward()</text>
<text text-anchor="start" x="199.5" y="-134.5" font-family="Helvetica,sans-Serif" font-size="10.00">&#45;</text>
<text text-anchor="start" x="214.5" y="-134.5" font-family="Helvetica,sans-Serif" font-size="10.00">calculateRight()</text>
<text text-anchor="start" x="199.5" y="-118.5" font-family="Helvetica,sans-Serif" font-size="10.00">&#45;</text>
<text text-anchor="start" x="214.5" y="-118.5" font-family="Helvetica,sans-Serif" font-size="10.00">calculateUp()</text>
<polygon fill="#666666" stroke="#666666" points="187.5,-418 187.5,-418 327.5,-418 327.5,-418 187.5,-418"/>
<polygon fill="#666666" stroke="#666666" points="187.5,-338 187.5,-338 212.5,-338 212.5,-338 187.5,-338"/>
<polygon fill="#666666" stroke="#666666" points="212.5,-338 212.5,-338 327.5,-338 327.5,-338 212.5,-338"/>
<polygon fill="none" stroke="#666666" points="187.5,-112 187.5,-436 327.5,-436 327.5,-112 187.5,-112"/>
</a>
</g>
</g>
<!-- Node3&#45;&gt;Node1 -->
<g id="edge2_Node000001_Node000003" class="edge">
<title>Node3&#45;&gt;Node1</title>
<g id="a_edge2_Node000001_Node000003"><a xlink:title=" ">
<path fill="none" stroke="#63b8ff" d="M187.64,-129.22C184.3,-123.36 180.91,-117.6 177.5,-112 168.9,-97.88 165.54,-95.14 155.5,-82 153.54,-79.43 151.5,-76.8 149.44,-74.15"/>
<polygon fill="none" stroke="#63b8ff" points="149.41,-74.11 142.56,-71.86 142,-64.67 148.85,-66.92 149.41,-74.11"/>
</a>
</g>
<text text-anchor="middle" x="190.25" y="-84.5" font-family="Helvetica,sans-Serif" font-size="10.00" fill="grey"> +transform</text>
</g>
<!-- Node4 -->
<g id="Node000004" class="node">
<title>Node4</title>
<g id="a_Node000004"><a xlink:href="class_engine_component.html" target="_top" xlink:title="Class that represents a component of the engine.">
<polygon fill="white" stroke="none" points="187,-782 38,-782 38,-650 187,-650 187,-782"/>
<text text-anchor="start" x="72.75" y="-768.5" font-family="Helvetica,sans-Serif" font-size="10.00">EngineComponent</text>
<text text-anchor="start" x="43.5" y="-752.5" font-family="Helvetica,sans-Serif" font-size="10.00">&#45;</text>
<text text-anchor="start" x="52" y="-752.5" font-family="Helvetica,sans-Serif" font-size="10.00">entityOwnerName</text>
<text text-anchor="start" x="42" y="-736.5" font-family="Helvetica,sans-Serif" font-size="10.00">+</text>
<text text-anchor="start" x="52" y="-736.5" font-family="Helvetica,sans-Serif" font-size="10.00">~EngineComponent()</text>
<text text-anchor="start" x="42" y="-720.5" font-family="Helvetica,sans-Serif" font-size="10.00">+</text>
<text text-anchor="start" x="52" y="-720.5" font-family="Helvetica,sans-Serif" font-size="10.00">getDebuggingValues()</text>
<text text-anchor="start" x="42" y="-704.5" font-family="Helvetica,sans-Serif" font-size="10.00">+</text>
<text text-anchor="start" x="52" y="-704.5" font-family="Helvetica,sans-Serif" font-size="10.00">getOwnerName()</text>
<text text-anchor="start" x="42" y="-688.5" font-family="Helvetica,sans-Serif" font-size="10.00">+</text>
<text text-anchor="start" x="52" y="-688.5" font-family="Helvetica,sans-Serif" font-size="10.00">getUpdatedDebuggingValues()</text>
<text text-anchor="start" x="42" y="-672.5" font-family="Helvetica,sans-Serif" font-size="10.00">+</text>
<text text-anchor="start" x="52" y="-672.5" font-family="Helvetica,sans-Serif" font-size="10.00">setOwnerName()</text>
<text text-anchor="start" x="42" y="-656.5" font-family="Helvetica,sans-Serif" font-size="10.00">+</text>
<text text-anchor="start" x="52" y="-656.5" font-family="Helvetica,sans-Serif" font-size="10.00">toString()</text>
<polygon fill="#666666" stroke="#666666" points="38,-764 38,-764 187,-764 187,-764 38,-764"/>
<polygon fill="#666666" stroke="#666666" points="38,-748 38,-748 50,-748 50,-748 38,-748"/>
<polygon fill="#666666" stroke="#666666" points="50,-748 50,-748 187,-748 187,-748 50,-748"/>
<polygon fill="none" stroke="#666666" points="38,-650 38,-782 187,-782 187,-650 38,-650"/>
</a>
</g>
</g>
<!-- Node4&#45;&gt;Node3 -->
<g id="edge3_Node000003_Node000004" class="edge">
<title>Node4&#45;&gt;Node3</title>
<g id="a_edge3_Node000003_Node000004"><a xlink:title=" ">
<path fill="none" stroke="#63b8ff" d="M137.48,-639.21C155.89,-583.34 181.61,-505.28 204.52,-435.76"/>
<polygon fill="none" stroke="#63b8ff" points="134.17,-638.05 134.37,-648.64 140.82,-640.24 134.17,-638.05"/>
</a>
</g>
</g>
<!-- Node5 -->
<g id="Node000005" class="node">
<title>Node5</title>
<g id="a_Node000005"><a xlink:href="class_g_l_e_s_c_1_1_math_1_1_vector.html" target="_top" xlink:title=" ">
<polygon fill="white" stroke="none" points="310,-828 205,-828 205,-604 310,-604 310,-828"/>
<text text-anchor="start" x="209.88" y="-814.5" font-family="Helvetica,sans-Serif" font-size="10.00">GLESC::Math::Vector</text>
<text text-anchor="start" x="231.62" y="-802.5" font-family="Helvetica,sans-Serif" font-size="10.00">&lt; Type, N &gt;</text>
<text text-anchor="start" x="215" y="-786.5" font-family="Helvetica,sans-Serif" font-size="10.00">+</text>
<text text-anchor="start" x="231" y="-786.5" font-family="Helvetica,sans-Serif" font-size="10.00">data</text>
<text text-anchor="start" x="215" y="-770.5" font-family="Helvetica,sans-Serif" font-size="10.00">+</text>
<text text-anchor="start" x="231" y="-770.5" font-family="Helvetica,sans-Serif" font-size="10.00">Vector()</text>
<text text-anchor="start" x="215" y="-754.5" font-family="Helvetica,sans-Serif" font-size="10.00">+</text>
<text text-anchor="start" x="231" y="-754.5" font-family="Helvetica,sans-Serif" font-size="10.00">Vector()</text>
<text text-anchor="start" x="215" y="-738.5" font-family="Helvetica,sans-Serif" font-size="10.00">+</text>
<text text-anchor="start" x="231" y="-738.5" font-family="Helvetica,sans-Serif" font-size="10.00">Vector()</text>
<text text-anchor="start" x="215" y="-722.5" font-family="Helvetica,sans-Serif" font-size="10.00">+</text>
<text text-anchor="start" x="231" y="-722.5" font-family="Helvetica,sans-Serif" font-size="10.00">Vector()</text>
<text text-anchor="start" x="215" y="-706.5" font-family="Helvetica,sans-Serif" font-size="10.00">+</text>
<text text-anchor="start" x="231" y="-706.5" font-family="Helvetica,sans-Serif" font-size="10.00">Vector()</text>
<text text-anchor="start" x="215" y="-690.5" font-family="Helvetica,sans-Serif" font-size="10.00">+</text>
<text text-anchor="start" x="231" y="-690.5" font-family="Helvetica,sans-Serif" font-size="10.00">Vector()</text>
<text text-anchor="start" x="215" y="-674.5" font-family="Helvetica,sans-Serif" font-size="10.00">+</text>
<text text-anchor="start" x="231" y="-674.5" font-family="Helvetica,sans-Serif" font-size="10.00">Vector()</text>
<text text-anchor="start" x="215" y="-658.5" font-family="Helvetica,sans-Serif" font-size="10.00">+</text>
<text text-anchor="start" x="231" y="-658.5" font-family="Helvetica,sans-Serif" font-size="10.00">Vector()</text>
<text text-anchor="start" x="215" y="-642.5" font-family="Helvetica,sans-Serif" font-size="10.00">+</text>
<text text-anchor="start" x="231" y="-642.5" font-family="Helvetica,sans-Serif" font-size="10.00">Vector()</text>
<text text-anchor="start" x="215" y="-626.5" font-family="Helvetica,sans-Serif" font-size="10.00">+</text>
<text text-anchor="start" x="231" y="-626.5" font-family="Helvetica,sans-Serif" font-size="10.00">Vector()</text>
<text text-anchor="start" x="231" y="-610.5" font-family="Helvetica,sans-Serif" font-size="10.00">and 90 more...</text>
<polygon fill="#666666" stroke="#666666" points="205,-798 205,-798 310,-798 310,-798 205,-798"/>
<polygon fill="#666666" stroke="#666666" points="205,-782 205,-782 229,-782 229,-782 205,-782"/>
<polygon fill="#666666" stroke="#666666" points="229,-782 229,-782 310,-782 310,-782 229,-782"/>
<polygon fill="none" stroke="#666666" points="205,-604 205,-828 310,-828 310,-604 205,-604"/>
</a>
</g>
</g>
<!-- Node5&#45;&gt;Node3 -->
<g id="edge4_Node000003_Node000005" class="edge">
<title>Node5&#45;&gt;Node3</title>
<g id="a_edge4_Node000003_Node000005"><a xlink:title=" ">
<path fill="none" stroke="#63b8ff" d="M257.5,-604.25C257.5,-557.1 257.5,-500.97 257.5,-448.53"/>
<polygon fill="none" stroke="#63b8ff" points="257.5,-448.55 253.5,-442.55 257.5,-436.55 261.5,-442.55 257.5,-448.55"/>
</a>
</g>
<text text-anchor="middle" x="293.5" y="-552.5" font-family="Helvetica,sans-Serif" font-size="10.00" fill="grey"> +worldForward</text>
<text text-anchor="middle" x="293.5" y="-540.5" font-family="Helvetica,sans-Serif" font-size="10.00" fill="grey">+worldRight</text>
<text text-anchor="middle" x="293.5" y="-528.5" font-family="Helvetica,sans-Serif" font-size="10.00" fill="grey">+worldUp</text>
<text text-anchor="middle" x="293.5" y="-516.5" font-family="Helvetica,sans-Serif" font-size="10.00" fill="grey">&#45;forwardDirection</text>
<text text-anchor="middle" x="293.5" y="-504.5" font-family="Helvetica,sans-Serif" font-size="10.00" fill="grey">&#45;position</text>
<text text-anchor="middle" x="293.5" y="-492.5" font-family="Helvetica,sans-Serif" font-size="10.00" fill="grey">&#45;rightDirection</text>
<text text-anchor="middle" x="293.5" y="-480.5" font-family="Helvetica,sans-Serif" font-size="10.00" fill="grey">&#45;rotationDegrees</text>
<text text-anchor="middle" x="293.5" y="-468.5" font-family="Helvetica,sans-Serif" font-size="10.00" fill="grey">&#45;scale</text>
<text text-anchor="middle" x="293.5" y="-456.5" font-family="Helvetica,sans-Serif" font-size="10.00" fill="grey">&#45;upDirection</text>
</g>
<!-- Node6 -->
<g id="Node000006" class="node">
<title>Node6</title>
<g id="a_Node000006"><a xlink:href="class_g_l_e_s_c_1_1_math_1_1_matrix.html" target="_top" xlink:title="Matrix class. Represents a matrix of N rows and M columns.">
<polygon fill="white" stroke="none" points="433,-852 328,-852 328,-580 433,-580 433,-852"/>
<text text-anchor="start" x="333.62" y="-838.5" font-family="Helvetica,sans-Serif" font-size="10.00">GLESC::Math::Matrix</text>
<text text-anchor="start" x="347.5" y="-826.5" font-family="Helvetica,sans-Serif" font-size="10.00">&lt; Type, N, M &gt;</text>
<text text-anchor="start" x="332" y="-810.5" font-family="Helvetica,sans-Serif" font-size="10.00">+</text>
<text text-anchor="start" x="342" y="-810.5" font-family="Helvetica,sans-Serif" font-size="10.00">data</text>
<text text-anchor="start" x="332" y="-794.5" font-family="Helvetica,sans-Serif" font-size="10.00">+</text>
<text text-anchor="start" x="342" y="-794.5" font-family="Helvetica,sans-Serif" font-size="10.00">Matrix()</text>
<text text-anchor="start" x="332" y="-778.5" font-family="Helvetica,sans-Serif" font-size="10.00">+</text>
<text text-anchor="start" x="342" y="-778.5" font-family="Helvetica,sans-Serif" font-size="10.00">Matrix()</text>
<text text-anchor="start" x="332" y="-762.5" font-family="Helvetica,sans-Serif" font-size="10.00">+</text>
<text text-anchor="start" x="342" y="-762.5" font-family="Helvetica,sans-Serif" font-size="10.00">Matrix()</text>
<text text-anchor="start" x="332" y="-746.5" font-family="Helvetica,sans-Serif" font-size="10.00">+</text>
<text text-anchor="start" x="342" y="-746.5" font-family="Helvetica,sans-Serif" font-size="10.00">Matrix()</text>
<text text-anchor="start" x="332" y="-730.5" font-family="Helvetica,sans-Serif" font-size="10.00">+</text>
<text text-anchor="start" x="342" y="-730.5" font-family="Helvetica,sans-Serif" font-size="10.00">Matrix()</text>
<text text-anchor="start" x="332" y="-714.5" font-family="Helvetica,sans-Serif" font-size="10.00">+</text>
<text text-anchor="start" x="342" y="-714.5" font-family="Helvetica,sans-Serif" font-size="10.00">Matrix()</text>
<text text-anchor="start" x="332" y="-698.5" font-family="Helvetica,sans-Serif" font-size="10.00">+</text>
<text text-anchor="start" x="342" y="-698.5" font-family="Helvetica,sans-Serif" font-size="10.00">Matrix()</text>
<text text-anchor="start" x="332" y="-682.5" font-family="Helvetica,sans-Serif" font-size="10.00">+</text>
<text text-anchor="start" x="342" y="-682.5" font-family="Helvetica,sans-Serif" font-size="10.00">Matrix()</text>
<text text-anchor="start" x="332" y="-666.5" font-family="Helvetica,sans-Serif" font-size="10.00">+</text>
<text text-anchor="start" x="342" y="-666.5" font-family="Helvetica,sans-Serif" font-size="10.00">begin()</text>
<text text-anchor="start" x="332" y="-650.5" font-family="Helvetica,sans-Serif" font-size="10.00">+</text>
<text text-anchor="start" x="342" y="-650.5" font-family="Helvetica,sans-Serif" font-size="10.00">begin()</text>
<text text-anchor="start" x="342" y="-634.5" font-family="Helvetica,sans-Serif" font-size="10.00">and 48 more...</text>
<text text-anchor="start" x="332" y="-618.5" font-family="Helvetica,sans-Serif" font-size="10.00">+</text>
<text text-anchor="start" x="342" y="-618.5" font-family="Helvetica,sans-Serif" font-size="10.00">cols()</text>
<text text-anchor="start" x="332" y="-602.5" font-family="Helvetica,sans-Serif" font-size="10.00">+</text>
<text text-anchor="start" x="342" y="-602.5" font-family="Helvetica,sans-Serif" font-size="10.00">rows()</text>
<text text-anchor="start" x="333.5" y="-586.5" font-family="Helvetica,sans-Serif" font-size="10.00">&#45;</text>
<text text-anchor="start" x="342" y="-586.5" font-family="Helvetica,sans-Serif" font-size="10.00">S_ASSERT_TRUE()</text>
<polygon fill="#666666" stroke="#666666" points="328,-822 328,-822 433,-822 433,-822 328,-822"/>
<polygon fill="#666666" stroke="#666666" points="328,-806 328,-806 340,-806 340,-806 328,-806"/>
<polygon fill="#666666" stroke="#666666" points="340,-806 340,-806 433,-806 433,-806 340,-806"/>
<polygon fill="none" stroke="#666666" points="328,-580 328,-852 433,-852 433,-580 328,-580"/>
</a>
</g>
</g>
<!-- Node6&#45;&gt;Node3 -->
<g id="edge5_Node000003_Node000006" class="edge">
<title>Node6&#45;&gt;Node3</title>
<g id="a_edge5_Node000003_Node000006"><a xlink:title=" ">
<path fill="none" stroke="#63b8ff" d="M362.14,-580.2C354.98,-539.23 345.54,-494.37 333.5,-454 332.82,-451.73 332.13,-449.46 331.41,-447.17"/>
<polygon fill="none" stroke="#63b8ff" points="331.41,-447.16 325.75,-442.69 327.71,-435.75 333.36,-440.22 331.41,-447.16"/>
</a>
</g>
<text text-anchor="middle" x="387" y="-522.5" font-family="Helvetica,sans-Serif" font-size="10.00" fill="grey"> &#45;modelMat</text>
<text text-anchor="middle" x="387" y="-510.5" font-family="Helvetica,sans-Serif" font-size="10.00" fill="grey">&#45;rotateMat</text>
<text text-anchor="middle" x="387" y="-498.5" font-family="Helvetica,sans-Serif" font-size="10.00" fill="grey">&#45;scaleMat</text>
<text text-anchor="middle" x="387" y="-486.5" font-family="Helvetica,sans-Serif" font-size="10.00" fill="grey">&#45;translateMat</text>
</g>
</g>
</svg>

<g id="navigator" transform="translate(0 0)" fill="#404254">
  <rect fill="#f2f5e9" fill-opacity="0.5" stroke="#606060" stroke-width=".5" x="0" y="0" width="60" height="60"/>
  <use id="zoomplus" xlink:href="#zoomPlus" x="17" y="9" onmousedown="handleZoom(evt,'in')"/>
  <use id="zoomminus" xlink:href="#zoomMin" x="42" y="9" onmousedown="handleZoom(evt,'out')"/>
  <use id="reset" xlink:href="#resetDef" x="30" y="36" onmousedown="handleReset()"/>
   <use id="arrowup" xlink:href="#arrowUp" x="0" y="0" onmousedown="handlePan(0,-1)"/>
  <use id="arrowright" xlink:href="#arrowRight" x="0" y="0" onmousedown="handlePan(1,0)"/>
  <use id="arrowdown" xlink:href="#arrowDown" x="0" y="0" onmousedown="handlePan(0,1)"/>
  <use id="arrowleft" xlink:href="#arrowLeft" x="0" y="0" onmousedown="handlePan(-1,0)"/>
</g>
<svg viewBox="0 0 15 15" width="100%" height="30px" preserveAspectRatio="xMaxYMin meet">
 <g id="arrow_out" transform="scale(0.3 0.3)">
  <a xlink:href="struct_g_l_e_s_c_1_1_render_1_1_renderer_1_1_camera__coll__graph_org.svg" target="_base">
   <rect id="button" ry="5" rx="5" y="6" x="6" height="38" width="38"
        fill="#f2f5e9" fill-opacity="0.5" stroke="#606060" stroke-width="1.0"/>
   <path id="arrow"
     d="M 11.500037,31.436501 C 11.940474,20.09759 22.043105,11.32322 32.158766,21.979434 L 37.068811,17.246167 C 37.068811,17.246167 37.088388,32 37.088388,32 L 22.160133,31.978069 C 22.160133,31.978069 26.997745,27.140456 26.997745,27.140456 C 18.528582,18.264221 13.291696,25.230495 11.500037,31.436501 z"
     style="fill:#404040;"/>
  </a>
 </g>
</svg>

<style type='text/css'>
<![CDATA[
[data-mouse-over-selected='false'] { opacity: 0.7; }
[data-mouse-over-selected='true']  { opacity: 1.0; }
]]>
</style>
<script type="application/ecmascript"><![CDATA[
document.addEventListener('DOMContentLoaded', (event) => {
  highlightEdges();
  highlightAdjacentNodes();
});
]]></script>
</svg>
