<?xml version="1.0" encoding="UTF-8" standalone="no"?>
<!DOCTYPE svg PUBLIC "-//W3C//DTD SVG 1.1//EN"
 "http://www.w3.org/Graphics/SVG/1.1/DTD/svg11.dtd">
<!-- Generated by graphviz version 11.0.0 (20240428.1522)
 -->
<!-- Title: GLESC::Render::ColorRgb Pages: 1 -->
<svg width="204pt" height="580pt"
 viewBox="0.00 0.00 204.25 580.00" xmlns="http://www.w3.org/2000/svg" xmlns:xlink="http://www.w3.org/1999/xlink">
<g id="graph0" class="graph" transform="scale(1 1) rotate(0) translate(4 576)">
<title>GLESC::Render::ColorRgb</title>
<!-- Node1 -->
<g id="Node000001" class="node">
<title>Node1</title>
<g id="a_Node000001"><a xlink:title="Color in RGB values.">
<polygon fill="#999999" stroke="none" points="125,-324 0,-324 0,0 125,0 125,-324"/>
<text text-anchor="start" x="4.75" y="-310.5" font-family="Helvetica,sans-Serif" font-size="10.00">GLESC::Render::ColorRgb</text>
<text text-anchor="start" x="12" y="-294.5" font-family="Helvetica,sans-Serif" font-size="10.00">+</text>
<text text-anchor="start" x="30" y="-294.5" font-family="Helvetica,sans-Serif" font-size="10.00">LightGrey</text>
<text text-anchor="start" x="12" y="-278.5" font-family="Helvetica,sans-Serif" font-size="10.00">+</text>
<text text-anchor="start" x="30" y="-278.5" font-family="Helvetica,sans-Serif" font-size="10.00">Magenta</text>
<text text-anchor="start" x="12" y="-262.5" font-family="Helvetica,sans-Serif" font-size="10.00">+</text>
<text text-anchor="start" x="30" y="-262.5" font-family="Helvetica,sans-Serif" font-size="10.00">Orange</text>
<text text-anchor="start" x="12" y="-246.5" font-family="Helvetica,sans-Serif" font-size="10.00">+</text>
<text text-anchor="start" x="30" y="-246.5" font-family="Helvetica,sans-Serif" font-size="10.00">Pink</text>
<text text-anchor="start" x="12" y="-230.5" font-family="Helvetica,sans-Serif" font-size="10.00">+</text>
<text text-anchor="start" x="30" y="-230.5" font-family="Helvetica,sans-Serif" font-size="10.00">Purple</text>
<text text-anchor="start" x="12" y="-214.5" font-family="Helvetica,sans-Serif" font-size="10.00">+</text>
<text text-anchor="start" x="30" y="-214.5" font-family="Helvetica,sans-Serif" font-size="10.00">Red</text>
<text text-anchor="start" x="12" y="-198.5" font-family="Helvetica,sans-Serif" font-size="10.00">+</text>
<text text-anchor="start" x="30" y="-198.5" font-family="Helvetica,sans-Serif" font-size="10.00">White</text>
<text text-anchor="start" x="12" y="-182.5" font-family="Helvetica,sans-Serif" font-size="10.00">+</text>
<text text-anchor="start" x="30" y="-182.5" font-family="Helvetica,sans-Serif" font-size="10.00">Yellow</text>
<text text-anchor="start" x="12" y="-166.5" font-family="Helvetica,sans-Serif" font-size="10.00">+</text>
<text text-anchor="start" x="30" y="-166.5" font-family="Helvetica,sans-Serif" font-size="10.00">ColorRgb()</text>
<text text-anchor="start" x="12" y="-150.5" font-family="Helvetica,sans-Serif" font-size="10.00">+</text>
<text text-anchor="start" x="30" y="-150.5" font-family="Helvetica,sans-Serif" font-size="10.00">ColorRgb()</text>
<text text-anchor="start" x="12" y="-134.5" font-family="Helvetica,sans-Serif" font-size="10.00">+</text>
<text text-anchor="start" x="30" y="-134.5" font-family="Helvetica,sans-Serif" font-size="10.00">ColorRgb()</text>
<text text-anchor="start" x="12" y="-118.5" font-family="Helvetica,sans-Serif" font-size="10.00">+</text>
<text text-anchor="start" x="30" y="-118.5" font-family="Helvetica,sans-Serif" font-size="10.00">ColorRgb()</text>
<text text-anchor="start" x="12" y="-102.5" font-family="Helvetica,sans-Serif" font-size="10.00">+</text>
<text text-anchor="start" x="30" y="-102.5" font-family="Helvetica,sans-Serif" font-size="10.00">ColorRgb()</text>
<text text-anchor="start" x="12" y="-86.5" font-family="Helvetica,sans-Serif" font-size="10.00">+</text>
<text text-anchor="start" x="30" y="-86.5" font-family="Helvetica,sans-Serif" font-size="10.00">ColorRgb()</text>
<text text-anchor="start" x="12" y="-70.5" font-family="Helvetica,sans-Serif" font-size="10.00">+</text>
<text text-anchor="start" x="30" y="-70.5" font-family="Helvetica,sans-Serif" font-size="10.00">~ColorRgb()</text>
<text text-anchor="start" x="12" y="-54.5" font-family="Helvetica,sans-Serif" font-size="10.00">+</text>
<text text-anchor="start" x="30" y="-54.5" font-family="Helvetica,sans-Serif" font-size="10.00">getB()</text>
<text text-anchor="start" x="12" y="-38.5" font-family="Helvetica,sans-Serif" font-size="10.00">+</text>
<text text-anchor="start" x="30" y="-38.5" font-family="Helvetica,sans-Serif" font-size="10.00">getBNormalized()</text>
<text text-anchor="start" x="12" y="-22.5" font-family="Helvetica,sans-Serif" font-size="10.00">+</text>
<text text-anchor="start" x="30" y="-22.5" font-family="Helvetica,sans-Serif" font-size="10.00">getG()</text>
<text text-anchor="start" x="30" y="-6.5" font-family="Helvetica,sans-Serif" font-size="10.00">and 10 more...</text>
<polygon fill="#666666" stroke="#666666" points="0,-306 0,-306 125,-306 125,-306 0,-306"/>
<polygon fill="#666666" stroke="#666666" points="0,-178 0,-178 28,-178 28,-178 0,-178"/>
<polygon fill="#666666" stroke="#666666" points="28,-178 28,-178 125,-178 125,-178 28,-178"/>
<polygon fill="none" stroke="#666666" points="0,0 0,-324 125,-324 125,0 0,0"/>
</a>
</g>
</g>
<!-- Node1&#45;&gt;Node1 -->
<g id="edge2_Node000001_Node000001" class="edge">
<title>Node1&#45;&gt;Node1</title>
<g id="a_edge2_Node000001_Node000001"><a xlink:title=" ">
<path fill="none" stroke="#63b8ff" d="M124.94,-193.51C135.61,-189.2 143,-178.7 143,-162 143,-151.56 140.11,-143.55 135.34,-137.95"/>
<polygon fill="none" stroke="#63b8ff" points="135.43,-138.01 128.22,-137.77 125.67,-131.02 132.88,-131.26 135.43,-138.01"/>
</a>
</g>
<text text-anchor="middle" x="169.62" y="-218.5" font-family="Helvetica,sans-Serif" font-size="10.00" fill="grey"> +Black</text>
<text text-anchor="middle" x="169.62" y="-206.5" font-family="Helvetica,sans-Serif" font-size="10.00" fill="grey">+Blue</text>
<text text-anchor="middle" x="169.62" y="-194.5" font-family="Helvetica,sans-Serif" font-size="10.00" fill="grey">+Brown</text>
<text text-anchor="middle" x="169.62" y="-182.5" font-family="Helvetica,sans-Serif" font-size="10.00" fill="grey">+ClearSkin</text>
<text text-anchor="middle" x="169.62" y="-170.5" font-family="Helvetica,sans-Serif" font-size="10.00" fill="grey">+Cyan</text>
<text text-anchor="middle" x="169.62" y="-158.5" font-family="Helvetica,sans-Serif" font-size="10.00" fill="grey">+DarkBrown</text>
<text text-anchor="middle" x="169.62" y="-146.5" font-family="Helvetica,sans-Serif" font-size="10.00" fill="grey">+DarkGreen</text>
<text text-anchor="middle" x="169.62" y="-134.5" font-family="Helvetica,sans-Serif" font-size="10.00" fill="grey">+DarkGrey</text>
<text text-anchor="middle" x="169.62" y="-122.5" font-family="Helvetica,sans-Serif" font-size="10.00" fill="grey">+Green</text>
<text text-anchor="middle" x="169.62" y="-110.5" font-family="Helvetica,sans-Serif" font-size="10.00" fill="grey">+Grey</text>
<text text-anchor="middle" x="169.62" y="-98.5" font-family="Helvetica,sans-Serif" font-size="10.00" fill="grey">...</text>
</g>
<!-- Node2 -->
<g id="Node000002" class="node">
<title>Node2</title>
<g id="a_Node000002"><a xlink:href="class_g_l_e_s_c_1_1_math_1_1_vector.html" target="_top" xlink:title=" ">
<polygon fill="white" stroke="none" points="103,-572 22,-572 22,-360 103,-360 103,-572"/>
<text text-anchor="start" x="48.25" y="-558.5" font-family="Helvetica,sans-Serif" font-size="10.00">Vec3F</text>
<text text-anchor="start" x="26" y="-542.5" font-family="Helvetica,sans-Serif" font-size="10.00">+</text>
<text text-anchor="start" x="36" y="-542.5" font-family="Helvetica,sans-Serif" font-size="10.00">data</text>
<text text-anchor="start" x="26" y="-526.5" font-family="Helvetica,sans-Serif" font-size="10.00">+</text>
<text text-anchor="start" x="36" y="-526.5" font-family="Helvetica,sans-Serif" font-size="10.00">Vector()</text>
<text text-anchor="start" x="26" y="-510.5" font-family="Helvetica,sans-Serif" font-size="10.00">+</text>
<text text-anchor="start" x="36" y="-510.5" font-family="Helvetica,sans-Serif" font-size="10.00">Vector()</text>
<text text-anchor="start" x="26" y="-494.5" font-family="Helvetica,sans-Serif" font-size="10.00">+</text>
<text text-anchor="start" x="36" y="-494.5" font-family="Helvetica,sans-Serif" font-size="10.00">Vector()</text>
<text text-anchor="start" x="26" y="-478.5" font-family="Helvetica,sans-Serif" font-size="10.00">+</text>
<text text-anchor="start" x="36" y="-478.5" font-family="Helvetica,sans-Serif" font-size="10.00">Vector()</text>
<text text-anchor="start" x="26" y="-462.5" font-family="Helvetica,sans-Serif" font-size="10.00">+</text>
<text text-anchor="start" x="36" y="-462.5" font-family="Helvetica,sans-Serif" font-size="10.00">Vector()</text>
<text text-anchor="start" x="26" y="-446.5" font-family="Helvetica,sans-Serif" font-size="10.00">+</text>
<text text-anchor="start" x="36" y="-446.5" font-family="Helvetica,sans-Serif" font-size="10.00">Vector()</text>
<text text-anchor="start" x="26" y="-430.5" font-family="Helvetica,sans-Serif" font-size="10.00">+</text>
<text text-anchor="start" x="36" y="-430.5" font-family="Helvetica,sans-Serif" font-size="10.00">Vector()</text>
<text text-anchor="start" x="26" y="-414.5" font-family="Helvetica,sans-Serif" font-size="10.00">+</text>
<text text-anchor="start" x="36" y="-414.5" font-family="Helvetica,sans-Serif" font-size="10.00">Vector()</text>
<text text-anchor="start" x="26" y="-398.5" font-family="Helvetica,sans-Serif" font-size="10.00">+</text>
<text text-anchor="start" x="36" y="-398.5" font-family="Helvetica,sans-Serif" font-size="10.00">Vector()</text>
<text text-anchor="start" x="26" y="-382.5" font-family="Helvetica,sans-Serif" font-size="10.00">+</text>
<text text-anchor="start" x="36" y="-382.5" font-family="Helvetica,sans-Serif" font-size="10.00">Vector()</text>
<text text-anchor="start" x="36" y="-366.5" font-family="Helvetica,sans-Serif" font-size="10.00">and 90 more...</text>
<polygon fill="#666666" stroke="#666666" points="22,-554 22,-554 103,-554 103,-554 22,-554"/>
<polygon fill="#666666" stroke="#666666" points="22,-538 22,-538 34,-538 34,-538 22,-538"/>
<polygon fill="#666666" stroke="#666666" points="34,-538 34,-538 103,-538 103,-538 34,-538"/>
<polygon fill="none" stroke="#666666" points="22,-360 22,-572 103,-572 103,-360 22,-360"/>
</a>
</g>
</g>
<!-- Node2&#45;&gt;Node1 -->
<g id="edge1_Node000001_Node000002" class="edge">
<title>Node2&#45;&gt;Node1</title>
<g id="a_edge1_Node000001_Node000002"><a xlink:title=" ">
<path fill="none" stroke="#63b8ff" d="M62.5,-348.73C62.5,-340.52 62.5,-332.17 62.5,-323.78"/>
<polygon fill="none" stroke="#63b8ff" points="59,-348.71 62.5,-358.71 66,-348.71 59,-348.71"/>
</a>
</g>
</g>
</g>
</svg>
