<?xml version="1.0" encoding="UTF-8" standalone="no"?>
<!DOCTYPE svg PUBLIC "-//W3C//DTD SVG 1.1//EN"
 "http://www.w3.org/Graphics/SVG/1.1/DTD/svg11.dtd">
<!-- Generated by graphviz version 11.0.0 (20240428.1522)
 -->
<!-- Title: GLESC::Transform::Transform::right Pages: 1 -->
<svg width="831pt" height="116pt"
 viewBox="0.00 0.00 831.25 116.00" xmlns="http://www.w3.org/2000/svg" xmlns:xlink="http://www.w3.org/1999/xlink">
<g id="graph0" class="graph" transform="scale(1 1) rotate(0) translate(4 112)">
<title>GLESC::Transform::Transform::right</title>
<!-- Node1 -->
<g id="Node000001" class="node">
<title>Node1</title>
<g id="a_Node000001"><a xlink:title="Calculates the right vector using the rotation.">
<polygon fill="#999999" stroke="#666666" points="146.5,-57 0,-57 0,-25 146.5,-25 146.5,-57"/>
<text text-anchor="start" x="8" y="-43.5" font-family="Helvetica,sans-Serif" font-size="10.00">GLESC::Transform::Transform</text>
<text text-anchor="middle" x="73.25" y="-31.5" font-family="Helvetica,sans-Serif" font-size="10.00">::right</text>
</a>
</g>
</g>
<!-- Node2 -->
<g id="Node000002" class="node">
<title>Node2</title>
<g id="a_Node000002"><a xlink:href="struct_g_l_e_s_c_1_1_transform_1_1_transform.html#a92fc8e586bd408d56f8f7edcdd0c6c48" target="_top" xlink:title="Calculates the right vector using the rotation.">
<polygon fill="white" stroke="#666666" points="329,-57 182.5,-57 182.5,-25 329,-25 329,-57"/>
<text text-anchor="start" x="190.5" y="-43.5" font-family="Helvetica,sans-Serif" font-size="10.00">GLESC::Transform::Transform</text>
<text text-anchor="middle" x="255.75" y="-31.5" font-family="Helvetica,sans-Serif" font-size="10.00">::calculateRight</text>
</a>
</g>
</g>
<!-- Node1&#45;&gt;Node2 -->
<g id="edge1_Node000001_Node000002" class="edge">
<title>Node1&#45;&gt;Node2</title>
<g id="a_edge1_Node000001_Node000002"><a xlink:title=" ">
<path fill="none" stroke="#63b8ff" d="M146.89,-41C154.81,-41 162.92,-41 170.96,-41"/>
<polygon fill="#63b8ff" stroke="#63b8ff" points="170.75,-44.5 180.75,-41 170.75,-37.5 170.75,-44.5"/>
</a>
</g>
</g>
<!-- Node3 -->
<g id="Node000003" class="node">
<title>Node3</title>
<g id="a_Node000003"><a xlink:href="class_g_l_e_s_c_1_1_math_1_1_vector.html#a45143ffe5273f8e3ec870f864e03f20d" target="_top" xlink:title="Returns the right vector of a rotation.">
<polygon fill="white" stroke="#666666" points="476.25,-82 365,-82 365,-50 476.25,-50 476.25,-82"/>
<text text-anchor="start" x="373" y="-68.5" font-family="Helvetica,sans-Serif" font-size="10.00">GLESC::Math::Vector</text>
<text text-anchor="middle" x="420.62" y="-56.5" font-family="Helvetica,sans-Serif" font-size="10.00">::makeRight</text>
</a>
</g>
</g>
<!-- Node2&#45;&gt;Node3 -->
<g id="edge2_Node000002_Node000003" class="edge">
<title>Node2&#45;&gt;Node3</title>
<g id="a_edge2_Node000002_Node000003"><a xlink:title=" ">
<path fill="none" stroke="#63b8ff" d="M329.14,-52.11C337.22,-53.35 345.43,-54.61 353.43,-55.84"/>
<polygon fill="#63b8ff" stroke="#63b8ff" points="352.66,-59.26 363.08,-57.32 353.72,-52.34 352.66,-59.26"/>
</a>
</g>
</g>
<!-- Node7 -->
<g id="Node000007" class="node">
<title>Node7</title>
<g id="a_Node000007"><a xlink:href="class_g_l_e_s_c_1_1_math_1_1_vector.html#a058dd167ea8c84edda5fdeccdeebd5d5" target="_top" xlink:title="Converts the vector to radians.">
<polygon fill="white" stroke="#666666" points="476.25,-32 365,-32 365,0 476.25,0 476.25,-32"/>
<text text-anchor="start" x="373" y="-18.5" font-family="Helvetica,sans-Serif" font-size="10.00">GLESC::Math::Vector</text>
<text text-anchor="middle" x="420.62" y="-6.5" font-family="Helvetica,sans-Serif" font-size="10.00">::toRads</text>
</a>
</g>
</g>
<!-- Node2&#45;&gt;Node7 -->
<g id="edge6_Node000002_Node000007" class="edge">
<title>Node2&#45;&gt;Node7</title>
<g id="a_edge6_Node000002_Node000007"><a xlink:title=" ">
<path fill="none" stroke="#63b8ff" d="M329.14,-29.89C337.22,-28.65 345.43,-27.39 353.43,-26.16"/>
<polygon fill="#63b8ff" stroke="#63b8ff" points="353.72,-29.66 363.08,-24.68 352.66,-22.74 353.72,-29.66"/>
</a>
</g>
</g>
<!-- Node4 -->
<g id="Node000004" class="node">
<title>Node4</title>
<g id="a_Node000004"><a xlink:href="class_g_l_e_s_c_1_1_math_1_1_vector_algorithms.html#a75d6e29326396451ea50687480ccb518" target="_top" xlink:title="Makes a right vector from rotation angles.">
<polygon fill="white" stroke="#666666" points="670,-82 512.25,-82 512.25,-50 670,-50 670,-82"/>
<text text-anchor="start" x="520.25" y="-68.5" font-family="Helvetica,sans-Serif" font-size="10.00">GLESC::Math::VectorAlgorithms</text>
<text text-anchor="middle" x="591.12" y="-56.5" font-family="Helvetica,sans-Serif" font-size="10.00">::makeRightVector</text>
</a>
</g>
</g>
<!-- Node3&#45;&gt;Node4 -->
<g id="edge3_Node000003_Node000004" class="edge">
<title>Node3&#45;&gt;Node4</title>
<g id="a_edge3_Node000003_Node000004"><a xlink:title=" ">
<path fill="none" stroke="#63b8ff" d="M476.33,-66C484.13,-66 492.31,-66 500.56,-66"/>
<polygon fill="#63b8ff" stroke="#63b8ff" points="500.31,-69.5 510.31,-66 500.31,-62.5 500.31,-69.5"/>
</a>
</g>
</g>
<!-- Node5 -->
<g id="Node000005" class="node">
<title>Node5</title>
<g id="a_Node000005"><a xlink:href="namespace_g_l_e_s_c_1_1_math.html#ac72fdbfd43b6a5770385dbfd805b687b" target="_top" xlink:title="Calculates the cosine of a value.">
<polygon fill="white" stroke="#666666" points="813.88,-108 715.38,-108 715.38,-88 813.88,-88 813.88,-108"/>
<text text-anchor="middle" x="764.62" y="-94.5" font-family="Helvetica,sans-Serif" font-size="10.00">GLESC::Math::cos</text>
</a>
</g>
</g>
<!-- Node4&#45;&gt;Node5 -->
<g id="edge4_Node000004_Node000005" class="edge">
<title>Node4&#45;&gt;Node5</title>
<g id="a_edge4_Node000004_Node000005"><a xlink:title=" ">
<path fill="none" stroke="#63b8ff" d="M670.35,-80.6C681.62,-82.7 693.08,-84.84 703.92,-86.86"/>
<polygon fill="#63b8ff" stroke="#63b8ff" points="703,-90.25 713.47,-88.64 704.28,-83.37 703,-90.25"/>
</a>
</g>
</g>
<!-- Node6 -->
<g id="Node000006" class="node">
<title>Node6</title>
<g id="a_Node000006"><a xlink:href="namespace_g_l_e_s_c_1_1_math.html#aa21a1aeaaa25e280f941221e165dffa4" target="_top" xlink:title="Calculates the sine of a value.">
<polygon fill="white" stroke="#666666" points="812.38,-70 716.88,-70 716.88,-50 812.38,-50 812.38,-70"/>
<text text-anchor="middle" x="764.62" y="-56.5" font-family="Helvetica,sans-Serif" font-size="10.00">GLESC::Math::sin</text>
</a>
</g>
</g>
<!-- Node4&#45;&gt;Node6 -->
<g id="edge5_Node000004_Node000006" class="edge">
<title>Node4&#45;&gt;Node6</title>
<g id="a_edge5_Node000004_Node000006"><a xlink:title=" ">
<path fill="none" stroke="#63b8ff" d="M670.35,-63.26C682.02,-62.86 693.88,-62.44 705.05,-62.05"/>
<polygon fill="#63b8ff" stroke="#63b8ff" points="705.02,-65.55 714.89,-61.7 704.78,-58.56 705.02,-65.55"/>
</a>
</g>
</g>
<!-- Node8 -->
<g id="Node000008" class="node">
<title>Node8</title>
<g id="a_Node000008"><a xlink:href="namespace_g_l_e_s_c_1_1_math.html#a980ed967f85bef4bb539c9701701a877" target="_top" xlink:title="Converts degrees to radians.">
<polygon fill="white" stroke="#666666" points="648.25,-26 534,-26 534,-6 648.25,-6 648.25,-26"/>
<text text-anchor="middle" x="591.12" y="-12.5" font-family="Helvetica,sans-Serif" font-size="10.00">GLESC::Math::radians</text>
</a>
</g>
</g>
<!-- Node7&#45;&gt;Node8 -->
<g id="edge7_Node000007_Node000008" class="edge">
<title>Node7&#45;&gt;Node8</title>
<g id="a_edge7_Node000007_Node000008"><a xlink:title=" ">
<path fill="none" stroke="#63b8ff" d="M476.33,-16C490.96,-16 506.94,-16 522.19,-16"/>
<polygon fill="#63b8ff" stroke="#63b8ff" points="522.15,-19.5 532.15,-16 522.15,-12.5 522.15,-19.5"/>
</a>
</g>
</g>
<!-- Node9 -->
<g id="Node000009" class="node">
<title>Node9</title>
<g id="a_Node000009"><a xlink:href="namespace_g_l_e_s_c_1_1_math.html#a69598a72ef2c06e1caba0ea9613d65e6" target="_top" xlink:title="Converts radians to degrees.">
<polygon fill="white" stroke="#666666" points="823.25,-26 706,-26 706,-6 823.25,-6 823.25,-26"/>
<text text-anchor="middle" x="764.62" y="-12.5" font-family="Helvetica,sans-Serif" font-size="10.00">GLESC::Math::degrees</text>
</a>
</g>
</g>
<!-- Node8&#45;&gt;Node9 -->
<g id="edge8_Node000008_Node000009" class="edge">
<title>Node8&#45;&gt;Node9</title>
<g id="a_edge8_Node000008_Node000009"><a xlink:title=" ">
<path fill="none" stroke="#63b8ff" d="M648.28,-9.62C662.92,-9.24 678.86,-9.15 694.1,-9.36"/>
<polygon fill="#63b8ff" stroke="#63b8ff" points="694,-12.86 704.06,-9.55 694.13,-5.86 694,-12.86"/>
</a>
</g>
</g>
<!-- Node9&#45;&gt;Node8 -->
<g id="edge9_Node000009_Node000008" class="edge">
<title>Node9&#45;&gt;Node8</title>
<g id="a_edge9_Node000009_Node000008"><a xlink:title=" ">
<path fill="none" stroke="#63b8ff" d="M705.58,-22.43C690.83,-22.78 674.87,-22.84 659.69,-22.61"/>
<polygon fill="#63b8ff" stroke="#63b8ff" points="659.86,-19.12 649.79,-22.41 659.72,-26.11 659.86,-19.12"/>
</a>
</g>
</g>
</g>
</svg>
