<?xml version="1.0" encoding="UTF-8" standalone="no"?>
<!DOCTYPE svg PUBLIC "-//W3C//DTD SVG 1.1//EN"
 "http://www.w3.org/Graphics/SVG/1.1/DTD/svg11.dtd">
<!-- Generated by graphviz version 11.0.0 (20240428.1522)
 -->
<!-- Title: GLESC::Render::ColorRgb::getGNormalized Pages: 1 -->
<svg width="1037pt" height="134pt"
 viewBox="0.00 0.00 1036.50 134.00" xmlns="http://www.w3.org/2000/svg" xmlns:xlink="http://www.w3.org/1999/xlink">
<g id="graph0" class="graph" transform="scale(1 1) rotate(0) translate(4 130)">
<title>GLESC::Render::ColorRgb::getGNormalized</title>
<!-- Node1 -->
<g id="Node000001" class="node">
<title>Node1</title>
<g id="a_Node000001"><a xlink:title=" ">
<polygon fill="#999999" stroke="#666666" points="1028.5,-76 897,-76 897,-44 1028.5,-44 1028.5,-76"/>
<text text-anchor="start" x="905" y="-62.5" font-family="Helvetica,sans-Serif" font-size="10.00">GLESC::Render::ColorRgb</text>
<text text-anchor="middle" x="962.75" y="-50.5" font-family="Helvetica,sans-Serif" font-size="10.00">::getGNormalized</text>
</a>
</g>
</g>
<!-- Node2 -->
<g id="Node000002" class="node">
<title>Node2</title>
<g id="a_Node000002"><a xlink:href="struct_g_l_e_s_c_1_1_render_1_1_color_rgb.html#af0a993d6f6257b791729083f6b8e7ab3" target="_top" xlink:title=" ">
<polygon fill="white" stroke="#666666" points="861,-76 727.25,-76 727.25,-44 861,-44 861,-76"/>
<text text-anchor="start" x="735.25" y="-62.5" font-family="Helvetica,sans-Serif" font-size="10.00">GLESC::Render::ColorRgb</text>
<text text-anchor="middle" x="794.12" y="-50.5" font-family="Helvetica,sans-Serif" font-size="10.00">::getRGBVec3FNormalized</text>
</a>
</g>
</g>
<!-- Node1&#45;&gt;Node2 -->
<g id="edge1_Node000001_Node000002" class="edge">
<title>Node1&#45;&gt;Node2</title>
<g id="a_edge1_Node000001_Node000002"><a xlink:title=" ">
<path fill="none" stroke="#63b8ff" d="M885.58,-60C877.54,-60 869.41,-60 861.49,-60"/>
<polygon fill="#63b8ff" stroke="#63b8ff" points="885.34,-63.5 895.34,-60 885.34,-56.5 885.34,-63.5"/>
</a>
</g>
</g>
<!-- Node3 -->
<g id="Node000003" class="node">
<title>Node3</title>
<g id="a_Node000003"><a xlink:href="class_g_l_e_s_c_1_1_render_1_1_renderer.html#aa5273b3a3abbfed253e75ce5d7c2b73a" target="_top" xlink:title="This encapsulates the application of the ambient light.">
<polygon fill="white" stroke="#666666" points="691.25,-123 560.5,-123 560.5,-91 691.25,-91 691.25,-123"/>
<text text-anchor="start" x="568.5" y="-109.5" font-family="Helvetica,sans-Serif" font-size="10.00">GLESC::Render::Renderer</text>
<text text-anchor="middle" x="625.88" y="-97.5" font-family="Helvetica,sans-Serif" font-size="10.00">::applyAmbientLight</text>
</a>
</g>
</g>
<!-- Node2&#45;&gt;Node3 -->
<g id="edge2_Node000002_Node000003" class="edge">
<title>Node2&#45;&gt;Node3</title>
<g id="a_edge2_Node000002_Node000003"><a xlink:title=" ">
<path fill="none" stroke="#63b8ff" d="M724.18,-79.49C711.15,-83.18 697.64,-86.99 684.99,-90.57"/>
<polygon fill="#63b8ff" stroke="#63b8ff" points="724.85,-82.94 733.52,-76.85 722.95,-76.2 724.85,-82.94"/>
</a>
</g>
</g>
<!-- Node8 -->
<g id="Node000008" class="node">
<title>Node8</title>
<g id="a_Node000008"><a xlink:href="class_g_l_e_s_c_1_1_render_1_1_renderer.html#a8424374b350690f034c330a92393b182" target="_top" xlink:title="This encapsulates the application of the material, setting all the uniforms of the material shader.">
<polygon fill="white" stroke="#666666" points="524.5,-76 393.75,-76 393.75,-44 524.5,-44 524.5,-76"/>
<text text-anchor="start" x="401.75" y="-62.5" font-family="Helvetica,sans-Serif" font-size="10.00">GLESC::Render::Renderer</text>
<text text-anchor="middle" x="459.12" y="-50.5" font-family="Helvetica,sans-Serif" font-size="10.00">::applyMaterial</text>
</a>
</g>
</g>
<!-- Node2&#45;&gt;Node8 -->
<g id="edge7_Node000002_Node000008" class="edge">
<title>Node2&#45;&gt;Node8</title>
<g id="a_edge7_Node000002_Node000008"><a xlink:title=" ">
<path fill="none" stroke="#63b8ff" d="M715.63,-60C657.68,-60 579.37,-60 524.77,-60"/>
<polygon fill="#63b8ff" stroke="#63b8ff" points="715.42,-63.5 725.42,-60 715.42,-56.5 715.42,-63.5"/>
</a>
</g>
</g>
<!-- Node9 -->
<g id="Node000009" class="node">
<title>Node9</title>
<g id="a_Node000009"><a xlink:href="class_g_l_e_s_c_1_1_render_1_1_renderer.html#aa1a9e1d79bb96f79ee1e421dd245bbf1" target="_top" xlink:title="This encapsulates the rendering of the lights, setting the uniforms.">
<polygon fill="white" stroke="#666666" points="691.25,-32 560.5,-32 560.5,0 691.25,0 691.25,-32"/>
<text text-anchor="start" x="568.5" y="-18.5" font-family="Helvetica,sans-Serif" font-size="10.00">GLESC::Render::Renderer</text>
<text text-anchor="middle" x="625.88" y="-6.5" font-family="Helvetica,sans-Serif" font-size="10.00">::renderLights</text>
</a>
</g>
</g>
<!-- Node2&#45;&gt;Node9 -->
<g id="edge9_Node000002_Node000009" class="edge">
<title>Node2&#45;&gt;Node9</title>
<g id="a_edge9_Node000002_Node000009"><a xlink:title=" ">
<path fill="none" stroke="#63b8ff" d="M720.11,-40.68C709.77,-37.94 699.22,-35.15 689.11,-32.47"/>
<polygon fill="#63b8ff" stroke="#63b8ff" points="719.19,-44.05 729.76,-43.23 720.98,-37.29 719.19,-44.05"/>
</a>
</g>
</g>
<!-- Node4 -->
<g id="Node000004" class="node">
<title>Node4</title>
<g id="a_Node000004"><a xlink:href="class_g_l_e_s_c_1_1_render_1_1_renderer.html#a41c9fb0bfbc6f92e90010a667652d027" target="_top" xlink:title="This encapsulates the application of the sun, setting the uniforms.">
<polygon fill="white" stroke="#666666" points="524.5,-126 393.75,-126 393.75,-94 524.5,-94 524.5,-126"/>
<text text-anchor="start" x="401.75" y="-112.5" font-family="Helvetica,sans-Serif" font-size="10.00">GLESC::Render::Renderer</text>
<text text-anchor="middle" x="459.12" y="-100.5" font-family="Helvetica,sans-Serif" font-size="10.00">::applySun</text>
</a>
</g>
</g>
<!-- Node3&#45;&gt;Node4 -->
<g id="edge3_Node000003_Node000004" class="edge">
<title>Node3&#45;&gt;Node4</title>
<g id="a_edge3_Node000003_Node000004"><a xlink:title=" ">
<path fill="none" stroke="#63b8ff" d="M548.94,-108.38C540.89,-108.53 532.76,-108.68 524.85,-108.82"/>
<polygon fill="#63b8ff" stroke="#63b8ff" points="548.79,-111.89 558.72,-108.2 548.66,-104.89 548.79,-111.89"/>
</a>
</g>
</g>
<!-- Node5 -->
<g id="Node000005" class="node">
<title>Node5</title>
<g id="a_Node000005"><a xlink:href="class_g_l_e_s_c_1_1_render_1_1_renderer.html#a3244ebc15bf8310257ec613f62d00a33" target="_top" xlink:title="This renders the frame.">
<polygon fill="white" stroke="#666666" points="357.75,-76 227,-76 227,-44 357.75,-44 357.75,-76"/>
<text text-anchor="start" x="235" y="-62.5" font-family="Helvetica,sans-Serif" font-size="10.00">GLESC::Render::Renderer</text>
<text text-anchor="middle" x="292.38" y="-50.5" font-family="Helvetica,sans-Serif" font-size="10.00">::render</text>
</a>
</g>
</g>
<!-- Node4&#45;&gt;Node5 -->
<g id="edge4_Node000004_Node000005" class="edge">
<title>Node4&#45;&gt;Node5</title>
<g id="a_edge4_Node000004_Node000005"><a xlink:title=" ">
<path fill="none" stroke="#63b8ff" d="M393.36,-90.34C378.26,-85.76 362.32,-80.92 347.72,-76.49"/>
<polygon fill="#63b8ff" stroke="#63b8ff" points="392.15,-93.63 402.73,-93.19 394.18,-86.94 392.15,-93.63"/>
</a>
</g>
</g>
<!-- Node6 -->
<g id="Node000006" class="node">
<title>Node6</title>
<g id="a_Node000006"><a xlink:href="class_g_l_e_s_c_1_1_engine.html#ab0a886855ca341089947b36b9c6f6e15" target="_top" xlink:title="Processes the rendering of the game Can be called at variable intervals of time as it uses elapsed.">
<polygon fill="white" stroke="#666666" points="191,-70 73,-70 73,-50 191,-50 191,-70"/>
<text text-anchor="middle" x="132" y="-56.5" font-family="Helvetica,sans-Serif" font-size="10.00">GLESC::Engine::render</text>
</a>
</g>
</g>
<!-- Node5&#45;&gt;Node6 -->
<g id="edge5_Node000005_Node000006" class="edge">
<title>Node5&#45;&gt;Node6</title>
<g id="a_edge5_Node000005_Node000006"><a xlink:title=" ">
<path fill="none" stroke="#63b8ff" d="M215.24,-60C207.23,-60 199.18,-60 191.42,-60"/>
<polygon fill="#63b8ff" stroke="#63b8ff" points="214.99,-63.5 224.99,-60 214.99,-56.5 214.99,-63.5"/>
</a>
</g>
</g>
<!-- Node7 -->
<g id="Node000007" class="node">
<title>Node7</title>
<g id="a_Node000007"><a xlink:href="main_8cpp.html#a0ddf1224851353fc92bfbff6f499fa97" target="_top" xlink:title=" ">
<polygon fill="white" stroke="#666666" points="37,-70 0,-70 0,-50 37,-50 37,-70"/>
<text text-anchor="middle" x="18.5" y="-56.5" font-family="Helvetica,sans-Serif" font-size="10.00">main</text>
</a>
</g>
</g>
<!-- Node6&#45;&gt;Node7 -->
<g id="edge6_Node000006_Node000007" class="edge">
<title>Node6&#45;&gt;Node7</title>
<g id="a_edge6_Node000006_Node000007"><a xlink:title=" ">
<path fill="none" stroke="#63b8ff" d="M61.31,-60C52.52,-60 44.22,-60 37.37,-60"/>
<polygon fill="#63b8ff" stroke="#63b8ff" points="61.12,-63.5 71.12,-60 61.12,-56.5 61.12,-63.5"/>
</a>
</g>
</g>
<!-- Node8&#45;&gt;Node5 -->
<g id="edge8_Node000008_Node000005" class="edge">
<title>Node8&#45;&gt;Node5</title>
<g id="a_edge8_Node000008_Node000005"><a xlink:title=" ">
<path fill="none" stroke="#63b8ff" d="M382.19,-60C374.14,-60 366.01,-60 358.1,-60"/>
<polygon fill="#63b8ff" stroke="#63b8ff" points="381.97,-63.5 391.97,-60 381.97,-56.5 381.97,-63.5"/>
</a>
</g>
</g>
<!-- Node9&#45;&gt;Node5 -->
<g id="edge10_Node000009_Node000005" class="edge">
<title>Node9&#45;&gt;Node5</title>
<g id="a_edge10_Node000009_Node000005"><a xlink:title=" ">
<path fill="none" stroke="#63b8ff" d="M549.05,-19.13C503.76,-21.77 445.21,-26.53 393.75,-35 380.37,-37.2 366.15,-40.28 352.75,-43.52"/>
<polygon fill="#63b8ff" stroke="#63b8ff" points="548.97,-22.64 558.76,-18.59 548.58,-15.65 548.97,-22.64"/>
</a>
</g>
</g>
</g>
</svg>
