<?xml version="1.0" encoding="UTF-8" standalone="no"?>
<!DOCTYPE svg PUBLIC "-//W3C//DTD SVG 1.1//EN"
 "http://www.w3.org/Graphics/SVG/1.1/DTD/svg11.dtd">
<!-- Generated by graphviz version 11.0.0 (20240428.1522)
 -->
<!-- Title: GLESC::Render::ColorRgba::toString Pages: 1 -->
<svg width="496pt" height="302pt"
 viewBox="0.00 0.00 495.50 302.00" xmlns="http://www.w3.org/2000/svg" xmlns:xlink="http://www.w3.org/1999/xlink">
<g id="graph0" class="graph" transform="scale(1 1) rotate(0) translate(4 298)">
<title>GLESC::Render::ColorRgba::toString</title>
<!-- Node1 -->
<g id="Node000001" class="node">
<title>Node1</title>
<g id="a_Node000001"><a xlink:title=" ">
<polygon fill="#999999" stroke="#666666" points="136.75,-194 0,-194 0,-162 136.75,-162 136.75,-194"/>
<text text-anchor="start" x="8" y="-180.5" font-family="Helvetica,sans-Serif" font-size="10.00">GLESC::Render::ColorRgba</text>
<text text-anchor="middle" x="68.38" y="-168.5" font-family="Helvetica,sans-Serif" font-size="10.00">::toString</text>
</a>
</g>
</g>
<!-- Node2 -->
<g id="Node000002" class="node">
<title>Node2</title>
<g id="a_Node000002"><a xlink:href="struct_g_l_e_s_c_1_1_render_1_1_color_rgba.html#ac69fa43c18968a7ee35f3a382a9d399c" target="_top" xlink:title=" ">
<polygon fill="white" stroke="#666666" points="309.5,-294 172.75,-294 172.75,-262 309.5,-262 309.5,-294"/>
<text text-anchor="start" x="180.75" y="-280.5" font-family="Helvetica,sans-Serif" font-size="10.00">GLESC::Render::ColorRgba</text>
<text text-anchor="middle" x="241.12" y="-268.5" font-family="Helvetica,sans-Serif" font-size="10.00">::getA</text>
</a>
</g>
</g>
<!-- Node1&#45;&gt;Node2 -->
<g id="edge1_Node000001_Node000002" class="edge">
<title>Node1&#45;&gt;Node2</title>
<g id="a_edge1_Node000001_Node000002"><a xlink:title=" ">
<path fill="none" stroke="#63b8ff" d="M88.51,-194.36C108.5,-210.83 141.28,-236.15 172.75,-253 175.25,-254.34 177.84,-255.64 180.48,-256.89"/>
<polygon fill="#63b8ff" stroke="#63b8ff" points="178.91,-260.03 189.47,-260.89 181.76,-253.63 178.91,-260.03"/>
</a>
</g>
</g>
<!-- Node3 -->
<g id="Node000003" class="node">
<title>Node3</title>
<g id="a_Node000003"><a xlink:href="struct_g_l_e_s_c_1_1_render_1_1_color_rgba.html#aaa9812d3da986b15de2583ec1ca28365" target="_top" xlink:title=" ">
<polygon fill="white" stroke="#666666" points="309.5,-244 172.75,-244 172.75,-212 309.5,-212 309.5,-244"/>
<text text-anchor="start" x="180.75" y="-230.5" font-family="Helvetica,sans-Serif" font-size="10.00">GLESC::Render::ColorRgba</text>
<text text-anchor="middle" x="241.12" y="-218.5" font-family="Helvetica,sans-Serif" font-size="10.00">::getB</text>
</a>
</g>
</g>
<!-- Node1&#45;&gt;Node3 -->
<g id="edge2_Node000001_Node000003" class="edge">
<title>Node1&#45;&gt;Node3</title>
<g id="a_edge2_Node000001_Node000003"><a xlink:title=" ">
<path fill="none" stroke="#63b8ff" d="M125.28,-194.37C140.54,-198.84 157.22,-203.72 173.02,-208.35"/>
<polygon fill="#63b8ff" stroke="#63b8ff" points="171.76,-211.63 182.34,-211.08 173.73,-204.91 171.76,-211.63"/>
</a>
</g>
</g>
<!-- Node4 -->
<g id="Node000004" class="node">
<title>Node4</title>
<g id="a_Node000004"><a xlink:href="struct_g_l_e_s_c_1_1_render_1_1_color_rgba.html#a4fb065645eac7b9b8402d173a84d62f2" target="_top" xlink:title=" ">
<polygon fill="white" stroke="#666666" points="309.5,-194 172.75,-194 172.75,-162 309.5,-162 309.5,-194"/>
<text text-anchor="start" x="180.75" y="-180.5" font-family="Helvetica,sans-Serif" font-size="10.00">GLESC::Render::ColorRgba</text>
<text text-anchor="middle" x="241.12" y="-168.5" font-family="Helvetica,sans-Serif" font-size="10.00">::getG</text>
</a>
</g>
</g>
<!-- Node1&#45;&gt;Node4 -->
<g id="edge3_Node000001_Node000004" class="edge">
<title>Node1&#45;&gt;Node4</title>
<g id="a_edge3_Node000001_Node000004"><a xlink:title=" ">
<path fill="none" stroke="#63b8ff" d="M136.86,-178C144.78,-178 152.91,-178 160.98,-178"/>
<polygon fill="#63b8ff" stroke="#63b8ff" points="160.78,-181.5 170.78,-178 160.78,-174.5 160.78,-181.5"/>
</a>
</g>
</g>
<!-- Node5 -->
<g id="Node000005" class="node">
<title>Node5</title>
<g id="a_Node000005"><a xlink:href="struct_g_l_e_s_c_1_1_render_1_1_color_rgba.html#a106c8433bd5b377975767326ea4efaee" target="_top" xlink:title=" ">
<polygon fill="white" stroke="#666666" points="309.5,-144 172.75,-144 172.75,-112 309.5,-112 309.5,-144"/>
<text text-anchor="start" x="180.75" y="-130.5" font-family="Helvetica,sans-Serif" font-size="10.00">GLESC::Render::ColorRgba</text>
<text text-anchor="middle" x="241.12" y="-118.5" font-family="Helvetica,sans-Serif" font-size="10.00">::getR</text>
</a>
</g>
</g>
<!-- Node1&#45;&gt;Node5 -->
<g id="edge4_Node000001_Node000005" class="edge">
<title>Node1&#45;&gt;Node5</title>
<g id="a_edge4_Node000001_Node000005"><a xlink:title=" ">
<path fill="none" stroke="#63b8ff" d="M125.28,-161.63C140.54,-157.16 157.22,-152.28 173.02,-147.65"/>
<polygon fill="#63b8ff" stroke="#63b8ff" points="173.73,-151.09 182.34,-144.92 171.76,-144.37 173.73,-151.09"/>
</a>
</g>
</g>
<!-- Node6 -->
<g id="Node000006" class="node">
<title>Node6</title>
<g id="a_Node000006"><a xlink:href="class_g_l_e_s_c_1_1_stringer.html#acba5ca5265db3ba0cd968336f1428203" target="_top" xlink:title="Converts an object to a string.">
<polygon fill="white" stroke="#666666" points="305.38,-94 176.88,-94 176.88,-74 305.38,-74 305.38,-94"/>
<text text-anchor="middle" x="241.12" y="-80.5" font-family="Helvetica,sans-Serif" font-size="10.00">GLESC::Stringer::toString</text>
</a>
</g>
</g>
<!-- Node1&#45;&gt;Node6 -->
<g id="edge5_Node000001_Node000006" class="edge">
<title>Node1&#45;&gt;Node6</title>
<g id="a_edge5_Node000001_Node000006"><a xlink:title=" ">
<path fill="none" stroke="#63b8ff" d="M87.51,-161.74C107.21,-144.86 140.23,-118.76 172.75,-103 176.41,-101.23 180.27,-99.59 184.2,-98.09"/>
<polygon fill="#63b8ff" stroke="#63b8ff" points="185.01,-101.51 193.3,-94.92 182.71,-94.9 185.01,-101.51"/>
</a>
</g>
</g>
<!-- Node7 -->
<g id="Node000007" class="node">
<title>Node7</title>
<g id="a_Node000007"><a xlink:href="class_g_l_e_s_c_1_1_stringer.html#acb7cc10341cef69e99362fa324fa1647" target="_top" xlink:title="Converts an iterable object to a string.">
<polygon fill="white" stroke="#666666" points="479.62,-100 353.38,-100 353.38,-68 479.62,-68 479.62,-100"/>
<text text-anchor="start" x="361.38" y="-86.5" font-family="Helvetica,sans-Serif" font-size="10.00">GLESC::Stringer::iterable</text>
<text text-anchor="middle" x="416.5" y="-74.5" font-family="Helvetica,sans-Serif" font-size="10.00">ToString</text>
</a>
</g>
</g>
<!-- Node6&#45;&gt;Node7 -->
<g id="edge6_Node000006_Node000007" class="edge">
<title>Node6&#45;&gt;Node7</title>
<g id="a_edge6_Node000006_Node000007"><a xlink:title=" ">
<path fill="none" stroke="#63b8ff" d="M305.7,-77.47C317.42,-77.24 329.74,-77.19 341.73,-77.32"/>
<polygon fill="#63b8ff" stroke="#63b8ff" points="341.53,-80.81 351.58,-77.47 341.63,-73.82 341.53,-80.81"/>
</a>
</g>
</g>
<!-- Node8 -->
<g id="Node000008" class="node">
<title>Node8</title>
<g id="a_Node000008"><a xlink:href="class_g_l_e_s_c_1_1_stringer.html#afa7028acf6b8eec53203e8a91774da85" target="_top" xlink:title="Converts a non&#45;iterable object to a string.">
<polygon fill="white" stroke="#666666" points="487.5,-32 345.5,-32 345.5,0 487.5,0 487.5,-32"/>
<text text-anchor="start" x="353.5" y="-18.5" font-family="Helvetica,sans-Serif" font-size="10.00">GLESC::Stringer::nonIterable</text>
<text text-anchor="middle" x="416.5" y="-6.5" font-family="Helvetica,sans-Serif" font-size="10.00">ToString</text>
</a>
</g>
</g>
<!-- Node6&#45;&gt;Node8 -->
<g id="edge8_Node000006_Node000008" class="edge">
<title>Node6&#45;&gt;Node8</title>
<g id="a_edge8_Node000006_Node000008"><a xlink:title=" ">
<path fill="none" stroke="#63b8ff" d="M268.83,-73.52C293.82,-63.73 331.83,-48.82 362.9,-36.63"/>
<polygon fill="#63b8ff" stroke="#63b8ff" points="364.12,-39.91 372.15,-33 361.57,-33.39 364.12,-39.91"/>
</a>
</g>
</g>
<!-- Node7&#45;&gt;Node6 -->
<g id="edge7_Node000007_Node000006" class="edge">
<title>Node7&#45;&gt;Node6</title>
<g id="a_edge7_Node000007_Node000006"><a xlink:title=" ">
<path fill="none" stroke="#63b8ff" d="M353.09,-90.51C341.41,-90.75 329.1,-90.81 317.09,-90.69"/>
<polygon fill="#63b8ff" stroke="#63b8ff" points="317.26,-87.2 307.21,-90.55 317.16,-94.2 317.26,-87.2"/>
</a>
</g>
</g>
<!-- Node8&#45;&gt;Node8 -->
<g id="edge9_Node000008_Node000008" class="edge">
<title>Node8&#45;&gt;Node8</title>
<g id="a_edge9_Node000008_Node000008"><a xlink:title=" ">
<path fill="none" stroke="#63b8ff" d="M385.19,-32.44C379.35,-41.58 389.78,-50 416.5,-50 431.11,-50 440.85,-47.48 445.73,-43.71"/>
<polygon fill="#63b8ff" stroke="#63b8ff" points="449.16,-44.4 447.53,-33.93 442.27,-43.13 449.16,-44.4"/>
</a>
</g>
</g>
</g>
</svg>
